<svg enable-background="new 0 0 60 60" height="60" viewBox="0 0 60 60" width="60" xmlns="http://www.w3.org/2000/svg"><g fill="#af8424"><path d="m1.2 21.5c-1 .4-1.4 1.5-1 2.5l9 21.6c.4 1 1.5 1.4 2.5 1l6.5-2.7-10.5-25.1s-6.5 2.6-6.5 2.7zm3.5 3.6 3.4-1.4.5 1.3-3.5 1.4.4.9 3.5-1.5.4.9-3.5 1.4.4.9 3.5-1.4.4.9-3.4 1.4.2.8 3.5-1.4.5 1.3-3.4 1.4.3.9 3.5-1.4.4.9-3.5 1.4.4.9 3.5-1.4.6 1.3-3.5 1.4.4.9 3.5-1.4.4.9-3.4 1.4.4.9 3.5-1.5.4.9-3.5 1.4.4.9 3.5-1.5.1 1.1-3.5 1.4.4.8 3.5-1.4.4.9-3.5 1.4.4.9 3.4-1.5.4.9-5.2 2.2c-.5.2-1 0-1.2-.5l-9.1-21.6c-.2-.5 0-1 .5-1.2l5.2-2.1.4.8-3.5 1.4.4.9 3.5-1.4.4.9-3.5 1.4zm54.1-3.6-6.5-2.7-10.4 25.1 6.5 2.7c1 .4 2.1-.1 2.5-1l9-21.7c.3-1-.1-2.1-1.1-2.4zm.2 2.1-9 21.6c-.2.5-.8.7-1.2.5l-5.2-2.2 9.7-23.4 5.2 2.2c.4.2.7.8.5 1.3z"/><circle cx="55.8" cy="22.7" r=".5"/><circle cx="55" cy="24.4" r=".5"/><circle cx="54.3" cy="26.2" r=".5"/><circle cx="53.6" cy="27.9" r=".5"/><circle cx="52.9" cy="29.6" r=".5"/><circle cx="52.2" cy="31.4" r=".5"/><circle cx="51.4" cy="33.1" r=".5"/><circle cx="50.7" cy="34.8" r=".5"/><circle cx="50" cy="36.6" r=".5"/><circle cx="49.3" cy="38.3" r=".5"/><circle cx="48.6" cy="40" r=".5"/><circle cx="47.9" cy="41.8" r=".5"/><circle cx="57.1" cy="24.3" r=".5"/><circle cx="56.4" cy="26" r=".5"/><circle cx="55.7" cy="27.8" r=".5"/><circle cx="55" cy="29.5" r=".5"/><circle cx="54.3" cy="31.2" r=".5"/><circle cx="53.5" cy="33" r=".5"/><circle cx="52.8" cy="34.7" r=".5"/><circle cx="52.1" cy="36.4" r=".5"/><circle cx="51.4" cy="38.1" r=".5"/><circle cx="50.7" cy="39.9" r=".5"/><circle cx="49.9" cy="41.6" r=".5"/><circle cx="49.2" cy="43.3" r=".5"/><circle cx="53.7" cy="22.9" r=".5"/><circle cx="52.9" cy="24.6" r=".5"/><circle cx="52.2" cy="26.3" r=".5"/><circle cx="51.5" cy="28.1" r=".5"/><circle cx="50.8" cy="29.8" r=".5"/><circle cx="50.1" cy="31.5" r=".5"/><circle cx="49.4" cy="33.2" r=".5"/><circle cx="48.6" cy="35" r=".5"/><circle cx="47.9" cy="36.7" r=".5"/><circle cx="47.2" cy="38.4" r=".5"/><circle cx="46.5" cy="40.2" r=".5"/><circle cx="45.8" cy="41.9" r=".5"/><circle cx="47.1" cy="43.5" r=".5"/><path d="m50 17.8c-.1 0-.2-.1-.3-.2l-1-1c-.1-.1-.2-.2-.4-.1l-.8.1-1 .2-6.8 23c0 .1-.3.1-.2-.1l5.3-24.4-1 .2-1 .2-5.2 23.2c0 .2-.3.1-.2 0l3.8-24.5-1 .3-1 .3-3.7 23.4c0 .2-.2.1-.2 0l2.1-24.6-1 .4-1 .4-2 23.5c0 .1-.2.1-.2 0l.4-24.6-.9.5-1 .4-.5 23.5c0 .1-.2.2-.2 0l-1-24.6-.9.5-.9.5 1.1 23.5c0 .2-.2.2-.2 0l-2.8-24.4-.9.6-.9.6 2.7 23.4c0 .2-.2.2-.2 0l-4.4-24.2-.9.6-.9.6 4.3 23.1c0 .1-.2.2-.2 0l-6.1-23.8-.8.8-.9.7 5.9 22.9c0 .2-.2.2-.2.1l-7.6-23.5-.9.7-.8.7 7.5 22.7c.1.2-.1.2-.2.1l-9.4-23.1-1.2 1.2c-.1.1-.2.2-.3.2l-1.5.6 10.4 25.1 1.2-.5c.2-.1.5-.1.7 0l.6.2c.2.1.5 0 .6-.2l.1-.3.3-.6.6.4.2.1c.2.1.5.1.6-.2l.1-.2.4-.6.5.4.2.1c.2.2.5.1.7-.1l.1-.2.4-.5.5.4.2.1c.2.2.5.1.7-.1l.1-.2.4-.5.5.5.1.2c.2.2.5.2.7 0l.1-.2.5-.5.5.5.1.2c.2.2.5.2.7 0l.1-.1.5-.5.4.5.1.2c.2.2.5.2.7 0l.2-.1.5-.5.4.6.1.2c.2.2.5.2.7.1l.2-.1.5-.4.4.6.1.2c.1.2.4.3.6.1l.2-.1.6-.4.3.6.1.3c.1.2.3.3.6.2l.6-.2c.2-.1.5-.1.7 0l1.2.5 10.4-25z"/></g></svg>