<svg xmlns="http://www.w3.org/2000/svg" width="60" height="60"><path d="M1.16 21.45c-.96.4-1.4 1.5-1.02 2.45L9.1 45.55c.4.96 1.5 1.4 2.46 1.02l6.5-2.7-10.4-25.1-6.5 2.68zm3.53 3.6l3.44-1.42.54 1.3-3.48 1.43.36.87 3.47-1.44.36.85-3.47 1.43.36.86 3.46-1.43.35.87-3.45 1.43.36.86 3.47-1.44.54 1.3L7.57 32l.35.86 3.5-1.44.35.87-3.47 1.4.36.88 3.47-1.44.55 1.3-3.47 1.43.36.86 3.46-1.4.35.86-3.45 1.4.35.87 3.46-1.45.38.87-3.46 1.42.36.87 3.47-1.45.54 1.3-3.48 1.44.36.85 3.47-1.43.36.87-3.47 1.42.36.87 3.45-1.45.36.86-5.2 2.16c-.46.2-1-.03-1.2-.5L1 23.53c-.2-.48.04-1.03.52-1.23l5.2-2.14.35.87-3.46 1.44.38.86 3.46-1.43.36.86-3.47 1.44.36.86zm54.14-3.6l-6.52-2.7-10.4 25.12 6.5 2.7c.97.4 2.07-.06 2.47-1.02l8.95-21.66c.4-.97-.06-2.07-1.02-2.46zm.15 2.1l-9 21.63c-.2.47-.75.7-1.22.5l-5.23-2.17 9.7-23.37 5.2 2.16c.5.2.72.75.52 1.23z"/><circle cx="55.75" cy="22.707" r=".469"/><circle cx="55.033" cy="24.44" r=".468"/><circle cx="54.315" cy="26.172" r=".468"/><circle cx="53.598" cy="27.904" r=".468"/><circle cx="52.88" cy="29.637" r=".469"/><circle cx="52.163" cy="31.369" r=".469"/><circle cx="51.445" cy="33.101" r=".468"/><circle cx="50.728" cy="34.833" r=".468"/><circle cx="50.01" cy="36.565" r=".469"/><circle cx="49.292" cy="38.297" r=".469"/><circle cx="48.575" cy="40.03" r=".469"/><circle cx="47.858" cy="41.762" r=".469"/><circle cx="57.124" cy="24.291" r=".469"/><circle cx="56.407" cy="26.023" r=".468"/><circle cx="55.689" cy="27.756" r=".469"/><circle cx="54.972" cy="29.488" r=".469"/><circle cx="54.254" cy="31.22" r=".469"/><circle cx="53.536" cy="32.952" r=".469"/><circle cx="52.818" cy="34.685" r=".469"/><circle cx="52.101" cy="36.417" r=".469"/><circle cx="51.383" cy="38.149" r=".469"/><circle cx="50.666" cy="39.881" r=".469"/><circle cx="49.948" cy="41.614" r=".469"/><circle cx="49.231" cy="43.345" r=".469"/><circle cx="53.66" cy="22.856" r=".469"/><circle cx="52.942" cy="24.588" r=".469"/><circle cx="52.225" cy="26.321" r=".469"/><circle cx="51.507" cy="28.053" r=".469"/><circle cx="50.79" cy="29.785" r=".469"/><circle cx="50.072" cy="31.517" r=".469"/><circle cx="49.354" cy="33.25" r=".469"/><circle cx="48.636" cy="34.982" r=".469"/><circle cx="47.919" cy="36.714" r=".469"/><circle cx="47.201" cy="38.446" r=".469"/><circle cx="46.484" cy="40.178" r=".469"/><circle cx="45.766" cy="41.911" r=".469"/><circle cx="47.14" cy="43.495" r=".469"/><path d="M50 17.78c-.1-.05-.2-.12-.3-.2l-1-1c-.1-.1-.24-.16-.4-.14l-.76.13-1.02.16-6.76 22.96c-.04.13-.26.1-.23-.07l5.35-24.4-1 .24-1 .25-5.2 23.2c-.04.15-.26.12-.24-.03l3.75-24.55-1 .32-.98.33-3.65 23.38c-.02.15-.24.13-.23-.02l2.12-24.6-.96.4-.95.38L33.52 38c0 .14-.23.13-.23-.02l.43-24.57-.94.47-.95.45-.52 23.47c0 .14-.22.15-.23 0L30 13.3l-.92.5-.92.5 1.12 23.47c0 .15-.2.17-.23.02l-2.78-24.4-.9.56-.9.57 2.7 23.37c0 .16-.2.2-.24.05l-4.4-24.2-.87.63-.9.63 4.3 23.14c.04.14-.17.2-.2.05L18.8 14.35l-.84.7-.86.68 5.88 22.93c.04.15-.17.22-.22.07l-7.65-23.5-.8.75-.82.73L21 39.4c.06.15-.15.23-.2.1l-9.36-23.1-1.16 1.18c-.1.1-.2.16-.3.2l-1.46.62 10.4 25.1 1.2-.53c.22-.1.46-.1.68-.02l.6.2c.22.08.46 0 .57-.2l.13-.28.33-.62.57.36.17.13c.22.14.5.07.64-.15l.14-.2.37-.58.55.4.17.1c.2.17.5.12.66-.08l.13-.2.4-.54.5.44.18.13c.2.17.5.14.66-.06l.13-.18.44-.53.5.46.15.15c.2.2.48.18.66 0l.15-.17.47-.5.47.5.13.15c.2.2.5.2.68 0l.15-.13.5-.47.43.53.13.17c.18.2.47.22.67.05l.15-.13.5-.45.4.56.14.2c.15.2.45.24.65.1l.17-.13.54-.4.38.58.12.2c.12.2.4.28.63.14l.17-.1.57-.37.32.6.12.28c.1.2.35.3.56.23l.6-.2c.2-.1.45-.1.67 0l1.2.5 10.4-25.03-1.45-.63z"/></svg>