<svg xmlns="http://www.w3.org/2000/svg" width="60" height="60"><path d="M23.62 57.87c4.4-4.6 3-14.74 10.06-16.6 0 0 11.08-2.94 2.23-13.78L51.6 11.2l.25.23c.42.4 1.08.43 1.47.03l6.05-6.8c.4-.4.38-1.04-.04-1.46L56.6.54c-.43-.4-1.1-.42-1.5-.04l-6.7 6.1c-.4.4-.4 1.06.03 1.47l.24.23L32.5 24.12c-10.9-8.78-13.75 2.32-13.75 2.32C16.93 33.5 6.8 32.17 2.2 36.62c-3.02 2.95-2.37 7.73-.46 11.44 2.12 4.1 6.3 8.27 10.44 10.36 3.72 1.9 8.5 2.5 11.44-.55zM57.4 4.32c.15.16.15.43 0 .6L53.3 9c-.16.15-.43.15-.6 0-.16-.17-.16-.44 0-.6l4.07-4.1c.16-.17.42-.17.6 0l.03.02zm-1.87-1.84c.17.16.17.43 0 .6l-4.06 4.1c-.17.16-.43.16-.6 0-.16-.17-.16-.44 0-.6l4.07-4.1c.16-.17.43-.17.6 0zM19.66 40.46c-2.03-2-2.04-5.28-.03-7.3 2-2.03 5.28-2.04 7.3-.03 2.03 2 2.04 5.28.03 7.3-2 2.03-5.28 2.04-7.3.03z"/><circle cx="53.498" cy=".661" r=".66"/><circle cx="51.379" cy="2.419" r=".661"/><circle cx="49.493" cy="4.131" r=".661"/><circle cx="59.217" cy="6.341" r=".662"/><circle cx="57.475" cy="8.472" r=".661"/><circle cx="55.775" cy="10.369" r=".66"/></svg>