<svg enable-background="new 0 0 60 60" height="60" viewBox="0 0 60 60" width="60" xmlns="http://www.w3.org/2000/svg"><g fill="#c12127"><path d="m23.6 57.9c4.4-4.6 3-14.7 10.1-16.6 0 0 11.1-2.9 2.2-13.8l15.7-16.3.2.2c.4.4 1.1.4 1.5 0l6-6.8c.4-.4.4-1 0-1.5l-2.7-2.7c-.4-.4-1.1-.4-1.5 0l-6.7 6.1c-.4.5-.4 1.2 0 1.6l.2.2-16.1 15.8c-10.9-8.8-13.8 2.3-13.8 2.3-1.8 7.1-11.9 5.7-16.5 10.2-3 3-2.4 7.7-.5 11.4 2.1 4.1 6.3 8.3 10.4 10.4 3.8 1.9 8.6 2.5 11.5-.5zm33.8-53.6c.2.2.2.4 0 .6l-4.1 4.1c-.2.1-.4.1-.6 0-.2-.2-.2-.4 0-.6l4.1-4.1c.1-.2.4-.2.6 0zm-1.9-1.8c.2.2.2.4 0 .6l-4.1 4.1c-.2.2-.4.2-.6 0s-.2-.4 0-.6l4.1-4.1c.2-.2.5-.2.6 0zm-35.8 38c-2-2-2-5.3 0-7.3s5.3-2 7.3 0 2 5.3 0 7.3-5.3 2-7.3 0z"/><circle cx="53.5" cy=".7" r=".7"/><circle cx="51.4" cy="2.4" r=".7"/><circle cx="49.5" cy="4.1" r=".7"/><circle cx="59.2" cy="6.3" r=".7"/><circle cx="57.5" cy="8.5" r=".7"/><circle cx="55.8" cy="10.4" r=".7"/></g></svg>