<svg enable-background="new 0 0 60 60" height="60" viewBox="0 0 60 60" width="60" xmlns="http://www.w3.org/2000/svg" xmlns:xlink="http://www.w3.org/1999/xlink"><radialGradient id="a" cx="30.014657" cy="36.585792" gradientUnits="userSpaceOnUse" r="26.886278"><stop offset="0" stop-color="#d2b669"/><stop offset="1" stop-color="#c68f55"/></radialGradient><linearGradient id="b"><stop offset="0" stop-color="#fff"/><stop offset=".15" stop-color="#ddcf99"/><stop offset=".5" stop-color="#a68e60"/><stop offset="1" stop-color="#81592a"/></linearGradient><linearGradient id="c" gradientUnits="userSpaceOnUse" x1="23.290185" x2="24.525805" xlink:href="#b" y1="36.413636" y2="36.261928"/><linearGradient id="d" gradientUnits="userSpaceOnUse" x1="26.859581" x2="28.095343" xlink:href="#b" y1="36.413728" y2="36.261973"/><linearGradient id="e" gradientUnits="userSpaceOnUse" x1="30.488462" x2="31.724319" xlink:href="#b" y1="36.413728" y2="36.261973"/><linearGradient id="f" gradientUnits="userSpaceOnUse" x1="34.117508" x2="35.35327" xlink:href="#b" y1="36.413721" y2="36.261966"/><linearGradient id="g" gradientUnits="userSpaceOnUse" x1="37.567044" x2="38.802664" xlink:href="#b" y1="36.413607" y2="36.261899"/><linearGradient id="h" gradientUnits="userSpaceOnUse" x1="41.169456" x2="42.40517" xlink:href="#b" y1="36.41366" y2="36.261952"/><linearGradient id="i"><stop offset=".25" stop-color="#1a1a1a"/><stop offset=".75"/></linearGradient><linearGradient id="j" gradientUnits="userSpaceOnUse" x1="44.186726" x2="44.587195" xlink:href="#i" y1="35.254853" y2="36.154264"/><linearGradient id="k"><stop offset=".21" stop-color="#1a1a1a"/><stop offset=".79"/></linearGradient><linearGradient id="l" gradientUnits="userSpaceOnUse" x1="44.263884" x2="44.510186" xlink:href="#k" y1="35.346858" y2="36.062174"/><linearGradient id="m" gradientUnits="userSpaceOnUse" x1="44.186774" x2="44.587148" xlink:href="#i" y1="36.903865" y2="37.803135"/><linearGradient id="n" gradientUnits="userSpaceOnUse" x1="44.26387" x2="44.510186" xlink:href="#k" y1="36.995784" y2="37.711142"/><g clip-rule="evenodd" fill-rule="evenodd"><path d="m5.5 40.3c.7 0 1.4.3 1.4.6 0 .4-.6.6-1.4.6s-1.3-.2-1.3-.5c0-.4.6-.7 1.3-.7z" fill="#17151a" stroke="#000" stroke-miterlimit="2.4142" stroke-width=".1058"/><path d="m54 40.3c.7 0 1.4.3 1.4.6 0 .4-.6.6-1.4.6-.7 0-1.4-.3-1.4-.6.1-.3.7-.6 1.4-.6z" fill="#17151a" stroke="#000" stroke-miterlimit="2.4142" stroke-width=".1058"/><path d="m1.6 18.9h56.7c.8 0 1.5.7 1.5 1.5v19c0 .8-.7 1.5-1.5 1.5h-56.7c-.8 0-1.5-.7-1.5-1.5v-19c0-.8.7-1.5 1.5-1.5z" fill="#8e8a98"/><path d="m1.8 19.1h56.4c.8 0 1.5.7 1.5 1.5v18.7c0 .8-.7 1.5-1.5 1.5-18.8 0-37.6 0-56.4 0-.8 0-1.5-.7-1.5-1.5 0-6.2 0-12.5 0-18.7-.1-.9.6-1.5 1.5-1.5z" fill="#7b7885"/><path d="m1.9 19.2h56.2c.8 0 1.5.7 1.5 1.5v18.5c0 .8-.7 1.5-1.5 1.5-18.7 0-37.4 0-56.2 0-.8 0-1.5-.7-1.5-1.5 0-6.2 0-12.3 0-18.5 0-.8.7-1.5 1.5-1.5z"/><path d="m2.9 21.2h54.1v17.5h-54.1z" fill="#010005" stroke="#000" stroke-miterlimit="2.4142" stroke-width=".1058"/><path d="m3.5 21.3h53c.2 0 .3.1.3.3v16.5c0 .2-.1.3-.3.3h-53c-.2 0-.3-.1-.3-.3v-16.4c0-.2.1-.4.3-.4z" fill="#fff"/><path d="m3.4 21.5h53.1s.1 0 .1.1v16.6s0 .1-.1.1h-53.1s-.1 0-.1-.1z" stroke="#000" stroke-miterlimit="2.4142" stroke-width=".1058"/><path d="m3.6 34.6h52.7c0 .3.2.5.5.5h.1v3.4h-53.8v-3.4c.3 0 .5-.2.5-.5z" fill="url(#a)"/><path d="m3.6 34.6h52.7v.1l-52.7-.1c0 .1 0 .1 0 0z" fill="#d1b367"/><path d="m2.6 21.8h-2.5c-.1 0-.1 0-.1-.1v-1.4c0-.8.7-1.5 1.5-1.5h1.5v2.5c0 .3-.2.5-.4.5z"/><path d="m2.6 21.7h-2.4c-.1 0-.1 0-.1-.1v-1.3c0-.8.6-1.4 1.4-1.4h1.5v2.4c0 .2-.2.4-.4.4z" fill="#17151a"/><path d="m1 19.4c.5 0 .8.1 1 .5h.9c0-.3 0-.6 0-.9-1 .1-1.1-.1-1.9.4z" fill="#a4a2b1" stroke="#000" stroke-miterlimit="2.4142" stroke-width=".1058"/><path d="m2.3 20.6c.3 0 .5.2.5.5s-.2.5-.5.5-.5-.2-.5-.5.2-.5.5-.5z"/><path d="m2.3 20.7c.2 0 .4.2.4.4s-.2.4-.4.4-.4-.2-.4-.4.2-.4.4-.4z" fill="#fff"/><path d="m2.3 20.8c.1 0 .2.1.2.1h-.1c-.1 0-.3.1-.3.3v.1c-.1 0-.2-.1-.2-.2.1-.2.3-.3.4-.3z"/></g><path d="m27.5 37.1v.7h3.6v-.7.7h3.7v-.7.8h-10.9v-.8.7h3.5v-.7z" fill="#190a02"/><g clip-rule="evenodd" fill-rule="evenodd"><path d="m57.4 21.8h2.5c.1 0 .1 0 .1-.1v-1.4c0-.8-.7-1.5-1.5-1.5h-1.5v2.5c0 .3.2.5.4.5z"/><path d="m57.4 21.7h2.4c.1 0 .1 0 .1-.1v-1.3c0-.8-.6-1.4-1.4-1.4h-1.5v2.4c0 .2.2.4.4.4z" fill="#17151a"/><path d="m59 19.4c-.5 0-.8.1-1 .5-.3 0-.6 0-.9 0 0-.3 0-.6 0-.9 1 .1 1.1-.1 1.9.4z" fill="#a4a2b1" stroke="#000" stroke-miterlimit="2.4142" stroke-width=".1058"/><path d="m57.7 20.6c-.3 0-.5.2-.5.5s.2.5.5.5.5-.2.5-.5-.2-.5-.5-.5z"/><path d="m57.7 20.7c-.2 0-.4.2-.4.4s.2.4.4.4.4-.2.4-.4-.2-.4-.4-.4z" fill="#fff"/><path d="m57.7 20.8c-.1 0-.2.1-.2.1h.1c.1 0 .3.1.3.3v.1c.1 0 .2-.1.2-.2-.1-.2-.3-.3-.4-.3z"/><path d="m2.6 38.1h-2.5c-.1 0-.1 0-.1.1v1.4c0 .8.7 1.5 1.5 1.5h1.5v-2.5c0-.3-.2-.5-.4-.5z"/><path d="m2.6 38.2h-2.4c-.1 0-.1 0-.1.1v1.3c-.1.8.6 1.4 1.4 1.4h1.5v-2.4c0-.2-.2-.4-.4-.4z" fill="#17151a"/><path d="m1 40.4c.5 0 .8-.1 1-.5h.9v.9c-1 0-1.1.2-1.9-.4z" fill="#a4a2b1" stroke="#000" stroke-miterlimit="2.4142" stroke-width=".1058"/><path d="m2.3 39.3c.3 0 .5-.2.5-.5s-.2-.5-.5-.5-.5.2-.5.5c0 .2.2.5.5.5z"/><path d="m2.3 39.2c.2 0 .4-.2.4-.4s-.2-.4-.4-.4-.4.2-.4.4.2.4.4.4z" fill="#fff"/><path d="m2.3 39.1c.1 0 .2-.1.2-.1h-.1c-.1 0-.3-.1-.3-.3v-.1c-.1 0-.2.1-.2.2.1.1.3.3.4.3z"/><path d="m57.4 38.1h2.5c.1 0 .1 0 .1.1v1.4c0 .8-.7 1.5-1.5 1.5h-1.5v-2.5c0-.3.2-.5.4-.5z"/><path d="m57.4 38.2h2.4c.1 0 .1 0 .1.1v1.3c0 .8-.6 1.4-1.4 1.4h-1.5v-2.4c0-.2.2-.4.4-.4z" fill="#17151a"/><path d="m59 40.4c-.5 0-.8-.1-1-.5-.3 0-.6 0-.9 0v.9c1 0 1.1.2 1.9-.4z" fill="#a4a2b1" stroke="#000" stroke-miterlimit="2.4142" stroke-width=".1058"/><path d="m57.7 39.3c-.3 0-.5-.2-.5-.5s.2-.5.5-.5.5.2.5.5c0 .2-.2.5-.5.5z"/><path d="m57.7 39.2c-.2 0-.4-.2-.4-.4s.2-.4.4-.4.4.2.4.4-.2.4-.4.4z" fill="#fff"/><path d="m57.7 39.1c-.1 0-.2-.1-.2-.1h.1c.1 0 .3-.1.3-.3v-.1c.1 0 .2.1.2.2-.1.1-.3.3-.4.3z"/><path d="m23.9 35.6c.4 0 .8.3.8.8 0 .4-.3.8-.8.8-.4 0-.8-.3-.8-.8s.4-.8.8-.8z" fill="#190a02"/><path d="m23.8 35.7c.3 0 .7.2.7.5s-.2.7-.5.7-.7-.2-.7-.5c-.1-.3.2-.6.5-.7z" fill="url(#c)"/><path d="m23.4 35.9.3.2z" fill="#150e0b"/><path d="m28.2 36.4c-.1.4-.5.7-.9.6s-.7-.5-.6-.9.5-.7.9-.6.7.5.6.9z" fill="#190a02"/><path d="m28.1 36.3c0 .3-.3.6-.6.6s-.6-.3-.6-.6.3-.6.6-.6.6.3.6.6z" fill="url(#d)"/><path d="m27.9 35.9s.1 0 0 0l-.2.3z" fill="#150e0b"/><path d="m31.9 36.4c-.1.4-.5.7-.9.6s-.7-.5-.6-.9.5-.7.9-.6c.3.1.6.5.6.9z" fill="#190a02"/><path d="m34.9 35.6c.4.1.7.5.6.9s-.5.7-.9.6-.7-.5-.6-.9.4-.7.9-.6z" fill="#190a02"/><path d="m31.7 36.3c0 .3-.3.6-.6.6s-.6-.3-.6-.6.3-.6.6-.6c.4 0 .6.3.6.6z" fill="url(#e)"/><path d="m31.6 35.9-.2.3z" fill="#150e0b"/><path d="m34.8 35.7c.3 0 .6.3.6.6s-.3.6-.6.6-.6-.3-.6-.6c-.1-.3.2-.6.6-.6z" fill="url(#f)"/><path d="m34.3 35.9s.1-.1 0 0l.2.2z" fill="#150e0b"/><path d="m39 36.4c0 .4-.4.7-.8.7s-.7-.4-.7-.8.4-.7.8-.7.7.4.7.8z" fill="#190a02"/><path d="m38.8 36.3c0 .3-.2.6-.6.7-.3 0-.6-.2-.7-.6 0-.3.2-.6.6-.7.4 0 .7.3.7.6z" fill="url(#g)"/><path d="m38.6 35.9-.2.3z" fill="#150e0b"/><path d="m41.9 37.1c-.4.1-.8-.2-.9-.6s.2-.8.6-.9.8.2.9.6-.2.8-.6.9z" fill="#190a02"/><path d="m42 36.9c-.3.1-.7-.1-.8-.4s.1-.7.4-.8.7.1.8.4c.1.4-.1.7-.4.8z" fill="url(#h)"/><path d="m42.3 36.6c0 .1 0 .1 0 0l-.3-.1z" fill="#150e0b"/></g><path d="m23.4 37.2c0-.1 0-.1 0 0 .1-.1.1 0 0 0 .1 0 .1 0 0 0zm.5-1.9v.2zm.7.6.2-.1zm0 .8.2.1zm-1.4 0-.2.2zm0-.7-.2-.2.2.2c0-.1 0-.1 0 0zm-.2.4c-.1 0-.1 0 0 0 0-.1 0-.1 0 0 0-.1 0-.1 0-.1-.1 0-.1 0 0 .1-.1-.1-.1-.1-.1-.1.1 0 .1 0 .1.1 0-.1 0 0 0 0-.1 0-.1 0 0 0zm.4-.8v-.1zm1-.1c-.1 0-.1 0 0 0-.1 0 0 0 0 0 0 .1 0 .1 0 0v.1s-.1 0 0-.1c-.1.1-.1.1 0 0-.1 0-.1 0 0 0zm-.1.1c.1 0 .1 0 0 0 .1-.1.1-.1 0 0 0-.1 0-.1 0 0zm.5.7s.1 0 0 0c.1 0 .1 0 0 0 .1 0 .1.1 0 0 .1.1.1.1 0 0 .1.1 0 .1 0 0 0 .1 0 .1 0 0zm0 0c.1 0 .1 0 0 0zm0 .1c.1 0 .1 0 0 0 .1 0 .1-.1 0 0 0-.1 0-.1 0 0 0-.1 0 0 0 0zm-.5.8v-.1.1l-.1-.1v.1zm.1-.1c.1 0 .1 0 0 0 .1.1.1.1 0 0 0 .1 0 .1 0 0zm0 0c0 .1 0 .1 0 0zm-1 .1c0-.1 0-.1 0 0z"/><path d="m26.9 37.2c0-.1 0-.1 0 0 .1-.1.1-.1 0 0 .1-.1.1 0 0 0 .1 0 .1 0 0 0zm.6-1.9v.2zm.7.6.2-.1zm0 .8.2.1zm-1.4 0-.2.1zm0-.7-.2-.1.2.1c0-.1 0-.1 0 0zm-.2.4c-.1 0-.1 0 0 0-.1-.1-.1-.1 0 0-.1-.1 0-.1 0 0 0-.1 0-.1 0-.1-.1 0-.1 0 0 .1-.1-.1-.1-.1-.1-.1.1 0 .1 0 .1.1-.1-.1-.1 0 0 0-.1 0-.1 0 0 0zm.4-.8v-.1zm1-.1c-.1 0-.1 0 0 0 0 .1 0 .1 0 0v.1c-.1 0-.1 0 0-.1-.1 0-.1 0 0 0zm-.1.1c.1 0 .1 0 0 0 .1-.1.1-.1 0 0 0-.1 0-.1 0 0zm.5.7c.1 0 .1.1 0 0 .1.1 0 .1 0 0 0 .1 0 .1 0 0zm0 .1c0-.1 0-.1 0 0 0-.1 0 0 0 0zm-.5.8v-.1c-.1 0-.1 0 0 .1l-.1-.1v.1zm0-.1c.1 0 .1 0 0 0 .1.1.1.1 0 0 0 .1 0 .1 0 0zm.1 0c0 .1 0 .1 0 0zm-1 .1c0-.1 0-.1 0 0z"/><path d="m30.6 37.2c0-.1 0-.1 0 0 0-.1.1-.1 0 0 .1-.1.1 0 0 0 .1 0 .1 0 0 0zm.5-1.9v.2zm.7.6.2-.1zm0 .8.2.1zm-1.4 0-.2.1zm0-.7-.2-.1.2.1c0-.1 0-.1 0 0zm-.2.4c-.1 0-.1 0 0 0 0-.1 0-.1 0 0 0-.1 0-.1 0-.1-.1 0-.1 0 0 .1-.1-.1-.1-.1-.1-.1.1 0 .1 0 .1.1 0-.1 0 0 0 0-.1 0-.1 0 0 0zm.4-.8v-.1zm1-.1c0 .1 0 .1 0 0v.1s0 0 0-.1c-.1.1-.1.1 0 0-.1 0-.1 0 0 0zm0 .1c0-.1 0-.1 0 0zm.4.7s.1 0 0 0c.1 0 .1 0 0 0 .1 0 .1.1 0 0 .1.1.1.1 0 0 .1.1 0 .1 0 0 0 .1 0 .1 0 0zm0 0c.1 0 .1 0 0 0zm0 .1s.1 0 0 0c.1 0 .1 0 0 0 .1 0 .1-.1 0 0 0-.1 0-.1 0 0 0-.1 0 0 0 0zm-.5.8v-.1.1l-.1-.1v.1zm.1-.1s.1 0 0 0c.1 0 .1 0 0 0 .1.1.1.1 0 0 0 .1 0 .1 0 0zm0 0c0 .1 0 .1 0 0zm-1 .1c0-.1 0-.1 0 0z"/><path d="m34.2 37.2c0-.1 0-.1 0 0 0-.1.1-.1 0 0 .1-.1.1-.1 0 0 .1-.1.1 0 0 0 .1 0 .1 0 0 0zm.5-1.9v.2zm.7.6.2-.1zm0 .8.2.1zm-1.4 0-.2.1zm0-.7-.2-.1.2.1c0-.1 0-.1 0 0zm-.2.4c-.1 0-.1 0 0 0 0-.1 0-.1 0 0 0-.1 0-.1 0-.1-.1 0-.1 0 0 .1-.1-.1-.1-.1-.1-.1.1 0 .1 0 .1.1 0-.1 0 0 0 0-.1 0-.1 0 0 0zm.5-.8v-.1zm.9-.1c0 .1 0 .1 0 0v.1s0 0 0-.1c-.1.1-.1.1 0 0-.1 0-.1 0 0 0zm0 .1c0-.1 0-.1 0 0zm.4.7c.1 0 .1 0 0 0 .1 0 .1.1 0 0 .1.1.1.1 0 0 0 .1 0 .1 0 0zm0 0c.1 0 .1 0 0 0zm0 .1c.1 0 .1 0 0 0 .1 0 .1-.1 0 0 .1-.1.1-.1 0 0 0-.1 0-.1 0 0 0-.1 0 0 0 0zm-.5.8v-.1.1l-.1-.1v.1zm.1-.1s.1 0 0 0c.1 0 .1 0 0 0 .1.1.1.1 0 0 0 .1 0 .1 0 0zm0 0c0 .1 0 .1 0 0 0 .1.1.1 0 0zm-1 .1s.1 0 0 0c.1-.1 0-.1 0 0 0-.1 0-.1 0 0z"/><path d="m37.6 37.2c0-.1 0-.1 0 0 0-.1.1-.1 0 0 .1-.1.1-.1 0 0 .1-.1.1 0 0 0 .1 0 .1 0 0 0zm.6-1.9v.2zm.7.6.2-.1zm0 .8.2.1zm-1.4 0-.2.1zm0-.7-.2-.1.2.1c0-.1 0-.1 0 0zm-.2.4c-.1 0-.1 0 0 0-.1-.1-.1-.1 0 0 0-.1 0-.1 0 0 0-.1 0-.1 0-.1-.1 0-.1 0 0 .1-.1-.1-.1-.1-.1-.1.1 0 .1 0 .1.1 0-.1-.1 0 0 0-.1 0-.1 0 0 0zm.4-.8v-.1zm1-.1c-.1 0-.1 0 0 0-.1 0 0 0 0 0 0 .1 0 .1 0 0v.1c-.1 0-.1 0 0-.1-.1 0-.1 0 0 0zm-.1.1c.1 0 .1 0 0 0 .1-.1.1-.1 0 0 .1-.1 0-.1 0 0 0-.1 0-.1 0 0zm.5.7c.1 0 .1 0 0 0 .1 0 .1.1 0 0 .1.1.1.1 0 0 0 .1 0 .1 0 0zm0 .1c0-.1 0-.1 0 0 0-.1 0 0 0 0zm-.5.8v-.1s-.1 0 0 .1l-.1-.1v.1zm0-.1s.1 0 0 0c.1 0 .1 0 0 0 .1.1.1.1 0 0 0 .1 0 .1 0 0zm.1 0c0 .1 0 .1 0 0zm-1 .1c0-.1 0-.1 0 0z"/><path d="m41.2 37.2c0-.1 0-.1 0 0 .1-.1.1-.1 0 0 .1-.1.1 0 0 0 .1 0 .1 0 0 0zm.6-1.9v.2zm.7.6.2-.1zm0 .8.2.1zm-1.4 0-.2.1zm0-.7-.2-.1.2.1c0-.1 0-.1 0 0zm-.2.4c-.1 0-.1 0 0 0-.1-.1-.1-.1 0 0 0-.1 0-.1 0-.1-.1 0-.1 0 0 .1-.1-.1-.1-.1-.1-.1.1 0 .1 0 .1.1-.1-.1-.1 0 0 0-.1 0-.1 0 0 0zm.4-.8v-.1zm1-.1c-.1 0-.1 0 0 0 0 .1 0 .1 0 0v.1c-.1 0-.1 0 0-.1-.1 0-.1 0 0 0zm-.1.1c.1 0 .1 0 0 0 .1-.1.1-.1 0 0 0-.1 0-.1 0 0zm.5.7s.1.1 0 0c.1.1 0 .1 0 0 0 .1 0 .1 0 0zm0 .1c0-.1 0-.1 0 0 0-.1 0 0 0 0zm-.5.8v-.1c-.1 0-.1 0 0 .1l-.1-.1v.1zm0-.1c.1 0 .1 0 0 0 .1.1.1.1 0 0 0 .1 0 .1 0 0zm0 0c0 .1.1.1 0 0 .1.1.1.1 0 0 .1 0 .1 0 0 0zm-1 .1s.1 0 0 0c.1 0 .1 0 0 0 .1-.1.1-.1 0 0 .1-.1 0-.1 0 0z"/><path clip-rule="evenodd" d="m38.2 18.9c-1.4-.3-4.3-.6-7.7-.6s-6.3.2-7.7.6z" fill="#c9c7d7" fill-rule="evenodd"/><path clip-rule="evenodd" d="m24.3 18.9h12.4c-1.6-.2-3.8-.3-6.2-.3-2.5 0-4.7.1-6.2.3z" fill="#1a1a1a" fill-rule="evenodd"/><path d="m6.1 35.5h1.5.1v.1 1.8.1s0 0-.1 0h-1.5-.1v-.1-1.8c0-.1 0-.1.1-.1-.1 0 0 0 0 0zm1.5.1h-1.5v1.8h1.5z" fill="#fee1c1"/><path d="m7.6 35.6h-1.5v1.8h1.5z" fill="#140000"/><path d="m7.5 35.7h-1.3v1.6h1.2z" fill="#9a2733"/><path d="m7.5 35.7h-1.3v.5h1.2z" fill="#5a0d0d"/><path d="m7.5 36.1h-1.3v.1l1.3-.1c0 .1 0 .1 0 0z" fill="#fec4c5"/><path d="m8.8 35.5h1.5.1v.1 1.8.1s0 0-.1 0h-1.5-.1v-.1-1.8c0-.1 0-.1.1-.1-.1 0 0 0 0 0zm1.5.1h-1.5v1.8h1.5z" fill="#fee1c1"/><path d="m10.3 35.6h-1.5v1.8h1.5z" fill="#140000"/><path d="m10.2 37.3h-1.3v-1.6h1.2z" fill="#1a1a22"/><path d="m10.2 37.3h-1.3v-.5h1.2z" fill="#170e10"/><path d="m10.2 36.9h-1.3v-.3h1.2z" fill="#a3a0ac"/><path clip-rule="evenodd" d="m56.9 38.7h-53.8v.1h53.8z" fill="#41424b" fill-rule="evenodd"/><path d="m6.7 35.2c0-.1 0-.1 0 0 0-.1 0-.1 0-.1h.1v.1.1s0 0-.1 0c0 0 0 0-.1 0 .1 0 .1-.1.1-.1zm.1 0c0 .1 0 .1.1.1-.1 0-.1 0-.1-.1.1.1.1 0 .1 0 0-.1 0-.1-.1 0 0-.1 0-.2 0-.2v.2c0-.1 0-.1 0 0z"/><path d="m6.8 38v-.2h.1v.2z"/><path d="m9.5 35.2c0-.1 0-.1 0 0 0-.1 0-.1 0-.1h.1v.1.1s0 0-.1 0c0 0 0 0-.1 0 .1 0 .1-.1.1-.1zm0 0c0 .1 0 .1.1.1 0 0 0 0-.1-.1.1.1.1 0 .1 0 0-.1 0-.1-.1 0 .1-.1.1-.2.1-.2s-.1.1-.1.2c0-.1 0-.1 0 0z"/><path d="m9.6 38v-.2h.1v.2z"/><path d="m37.7 37.8-.1-.3.1.3.1-.3zm.1-.1v-.1h.1v.1.1c-.1 0-.1 0-.1-.1zm0 0s0 .1 0 0c0 .1 0 .1.1.1s0 0 0-.1c0 0 0 0 0-.1 0 0 0 0-.1.1.1-.1.1-.1.1-.1s0 0-.1.1c0-.1 0 0 0 0zm.2.1v-.3.3h.1zm.3-.2v.1.1s0 0 0-.1v-.1l-.1.1s0 0 0-.1zm0 .2v-.3.3c.1 0 .1 0 0 0l.1-.3v.3-.2l-.1.2v-.2zm.2 0v-.3h.1-.1v.1h.1-.1v.2h.1z"/><path d="m41.3 37.8-.1-.3.1.3.1-.3zm.1-.1v-.1h.1v.1.1c-.1 0-.1 0-.1-.1zm0 0s0 .1 0 0c0 .1 0 .1.1.1s0 0 0-.1c0 0 0 0 0-.1 0 0 0 0-.1.1.1-.1.1-.1.1-.1-.1 0-.1 0-.1.1 0-.1 0 0 0 0zm.2.1v-.3.3h.1zm.2-.2v.1.1s0 0 0-.1v-.1l-.1.1s0 0 0-.1zm.1.2v-.3.3c.1 0 .1 0 0 0l.1-.3v.3-.2l-.1.2v-.2zm.2 0v-.3h.1-.1v.1h.1-.1v.2h.1z"/><g clip-rule="evenodd" fill-rule="evenodd"><path d="m44.4 35.1c.3 0 .6.3.6.6s-.3.6-.6.6-.6-.3-.6-.6.2-.6.6-.6z" fill="#080702"/><path d="m44.4 35.2.2.1.3.1v.3.3l-.3.1-.2.1-.2-.1-.3-.1v-.3-.3l.3-.1z" fill="url(#j)"/><path d="m44.4 35.2.2.1.2.2v.2.3l-.2.1-.2.1-.2-.1-.2-.1v-.3-.2l.2-.2z" fill="#080702"/></g><path d="m44.4 35.3c.1 0 .2 0 .3.1s.1.2.1.3 0 .2-.1.3-.2.1-.3.1-.2 0-.3-.1-.1-.2-.1-.3 0-.2.1-.3c.1 0 .2-.1.3-.1zm0 .1c.1 0 .2 0 .2.1.1.1.1.1.1.2s0 .2-.1.2c-.1.1-.1.1-.2.1s-.2 0-.2-.1c-.1-.1-.1-.1-.1-.2s0-.2.1-.2c0-.1.1-.1.2-.1zm.2.1s-.1-.1-.2-.1-.1 0-.2.1c0 0-.1.1-.1.2s0 .1.1.2c0 0 .1.1.2.1s.1 0 .2-.1c0 0 .1-.1.1-.2s-.1-.1-.1-.2zm0 0c-.1-.1-.1-.1-.2-.1s-.2 0-.2.1c-.1.1-.1.1-.1.2s0 .2.1.2c.1.1.1.1.2.1s.2 0 .2-.1c.1-.1.1-.1.1-.2s0-.2-.1-.2z" fill="url(#l)"/><path clip-rule="evenodd" d="m44.4 36.7c.3 0 .6.3.6.6s-.3.6-.6.6-.6-.3-.6-.6.2-.6.6-.6z" fill="#080702" fill-rule="evenodd"/><path clip-rule="evenodd" d="m44.4 36.8.2.1.3.2v.3.2l-.3.2-.2.1-.2-.1-.3-.2v-.2-.3l.3-.2z" fill="url(#m)" fill-rule="evenodd"/><path clip-rule="evenodd" d="m44.4 36.9.2.1.2.1v.3.2l-.2.1-.2.2-.2-.2-.2-.1v-.2-.3l.2-.1z" fill="#080702" fill-rule="evenodd"/><path d="m44.4 37c.1 0 .2 0 .3.1s.1.2.1.3 0 .2-.1.3-.2.1-.3.1-.2 0-.3-.1-.1-.2-.1-.3 0-.2.1-.3.2-.1.3-.1zm0 0c.1 0 .2 0 .2.1.1.1.1.1.1.2s0 .2-.1.2c-.1.1-.1.1-.2.1s-.2 0-.2-.1c-.1-.1-.1-.1-.1-.2s0-.2.1-.2c0 0 .1-.1.2-.1zm.2.2s-.1-.1-.2-.1-.1 0-.2.1c0 0-.1.1-.1.2s0 .1.1.2c0 0 .1.1.2.1s.1 0 .2-.1c0 0 .1-.1.1-.2s-.1-.2-.1-.2zm0-.1c-.1-.1-.1-.1-.2-.1s-.2 0-.2.1c-.1.1-.1.1-.1.2s0 .2.1.2c.1.1.1.1.2.1s.2 0 .2-.1c.1-.1.1-.1.1-.2 0 0 0-.1-.1-.2z" fill="url(#n)"/></svg>