<svg enable-background="new 0 0 60 60" height="60" viewBox="0 0 60 60" width="60" xmlns="http://www.w3.org/2000/svg"><path d="m.5 8.3h59.1v28.8h-59.1z" fill="#00572c"/><path d="m11.3 18.1c-.1 0-.2-.1-.2-.2v-5.1c0-.1.1-.2.2-.2s.2.1.2.2v5.2c0 .1-.1.1-.2.1z" fill="#020202"/><path d="m11.4 29.5c-.1 0-.2-.1-.2-.2v-5.1c0-.1.1-.2.2-.2s.2.1.2.2v5.1c0 .1-.1.2-.2.2z" fill="#020202"/><path d="m11.4 29.2c-.1 0-.2-.1-.2-.2v-.2c0-.1.1-.2.2-.2s.2.1.2.2v.2c0 .1-.1.2-.2.2z" fill="#eebc9f"/><path d="m17.2 29.5c-.1 0-.2-.1-.2-.2v-5.1c0-.1.1-.2.2-.2s.2.1.2.2v5.1c0 .2-.1.2-.2.2z" fill="#020202"/><path d="m17.2 29.3c-.1 0-.2-.1-.2-.2v-.2c0-.1.1-.2.2-.2s.2.1.2.2v.1c.1.2 0 .3-.2.3z" fill="#eebc9f"/><path d="m19.4 29.5c-.1 0-.2-.1-.2-.2v-5.1c0-.1.1-.2.2-.2s.2.1.2.2v5.1c0 .1-.1.2-.2.2z" fill="#020202"/><path d="m19.4 29.3c-.1 0-.2-.1-.2-.2v-.2c0-.1.1-.2.2-.2s.2.1.2.2v.1c0 .2-.1.3-.2.3z" fill="#eebc9f"/><path d="m11.3 15.8c-.1 0-.2-.1-.2-.2v-.2c0-.1.1-.2.2-.2s.2.1.2.2v.2c.1.1 0 .2-.2.2z" fill="#506b97"/><path d="m13.3 18.2c-.1 0-.2-.1-.2-.2v-5.1c0-.1.1-.2.2-.2s.2.1.2.2v5.1c0 .1-.1.2-.2.2z" fill="#020202"/><path d="m13.3 15.8c-.1 0-.2-.1-.2-.2v-.2c0-.1.1-.2.2-.2s.2.1.2.2v.2c0 .1-.1.2-.2.2z" fill="#506b97"/><path d="m37.2 29.5c-.1 0-.2-.1-.2-.2v-5.1c0-.1.1-.2.2-.2s.2.1.2.2v5.1c0 .1-.1.2-.2.2z" fill="#020202"/><path d="m37.2 25.3c-.1 0-.2-.1-.2-.2v-.2c0-.1.1-.2.2-.2s.2.1.2.2v.1c0 .2-.1.3-.2.3z" fill="#506b97"/><path d="m27.2 29.5c-.1 0-.2-.1-.2-.2v-5.1c0-.1.1-.2.2-.2s.2.1.2.2v5.1c0 .1-.1.2-.2.2z" fill="#020202"/><path d="m27.2 29.2c-.1 0-.2-.1-.2-.2v-.2c0-.1.1-.2.2-.2s.2.1.2.2v.2c.1.1-.1.2-.2.2z" fill="#506b97"/><path d="m15.3 29.5c-.1 0-.2-.1-.2-.2v-5.1c0-.1.1-.2.2-.2s.2.1.2.2v5.1c0 .2-.1.2-.2.2z" fill="#020202"/><path d="m15.3 29.4c-.1 0-.2-.1-.2-.2v-.2c0-.1.1-.2.2-.2s.2.1.2.2v.2s-.1.2-.2.2z" fill="#506b97"/><path d="m19.4 18.2c-.1 0-.2-.1-.2-.2v-5.1c0-.1.1-.2.2-.2s.2.1.2.2v5.1c-.1.1-.1.2-.2.2z" fill="#020202"/><path d="m19.4 16c-.1 0-.2-.1-.2-.2v-.2c0-.1.1-.2.2-.2s.2.1.2.2v.2c0 .1-.1.2-.2.2z" fill="#51706a"/><path d="m21.3 18.2c-.1 0-.2-.1-.2-.2v-5.1c0-.1.1-.2.2-.2s.2.1.2.2v5.1c0 .1-.1.2-.2.2z" fill="#020202"/><path d="m21.3 16c-.1 0-.2-.1-.2-.2v-.2c0-.1.1-.2.2-.2s.2.1.2.2v.2c.1.1 0 .2-.2.2z" fill="#51706a"/><path d="m23.3 29.5c-.1 0-.2-.1-.2-.2v-5.1c0-.1.1-.2.2-.2s.2.1.2.2v5.1c0 .1-.1.2-.2.2z" fill="#020202"/><path d="m23.3 29.3c-.1 0-.2-.1-.2-.2v-.2c0-.1.1-.2.2-.2s.2.1.2.2v.2c0 .1-.1.2-.2.2z" fill="#51706a"/><path d="m39.1 29.5c-.1 0-.2-.1-.2-.2v-5.1c0-.1.1-.2.2-.2s.2.1.2.2v5.1c0 .1-.1.2-.2.2z" fill="#020202"/><path d="m39.1 25.2c-.1 0-.2-.1-.2-.2v-.2c0-.1.1-.2.2-.2s.2.1.2.2v.2c0 .1-.1.2-.2.2z" fill="#51706a"/><g fill="#1e1e1e"><path d="m7.3 12.9h.8v1.5h-.8z"/><path d="m11 31.9h.8v1.5h-.8z"/><path d="m12.9 31.9h.8v1.5h-.8z"/><path d="m16.8 31.9h.8v1.5h-.8z"/><path d="m19 31.9h.8v1.5h-.8z"/><path d="m21 31.9h.8v1.5h-.8z"/><path d="m24.9 31.9h.8v1.5h-.8z"/><path d="m26.8 31.9h.8v1.5h-.8z"/><path d="m28.8 31.9h.8v1.5h-.8z"/><path d="m30.7 31.9h.8v1.5h-.8z"/><path d="m34.8 31.9h.8v1.5h-.8z"/><path d="m36.8 31.9h.8v1.5h-.8z"/><path d="m38.7 31.9h.8v1.5h-.8z"/><path d="m40.7 31.9h.8v1.5h-.8z"/><path d="m42.6 31.9h.8v1.5h-.8z"/><path d="m44.6 31.9h.8v1.5h-.8z"/><path d="m48.7 31.9h.8v1.5h-.8z"/><path d="m51 31.9h.8v1.5h-.8z"/><path d="m52.8 31.8h.8v1.5h-.8z"/><path d="m56.6 31.8h.8v1.5h-.8z"/><path d="m14.8 12.9h.8v1.5h-.8z"/><path d="m22.9 12.9h.8v1.5h-.8z"/><path d="m38.8 12.9h.8v1.5h-.8z"/><path d="m46.9 13h.8v1.5h-.8z"/></g><path d="m57 14.7h.8v1.5h-.8z" fill="#c3312f"/><path d="m33.3 18.2c-.1 0-.2-.1-.2-.2v-5.1c0-.1.1-.2.2-.2s.2.1.2.2v5.1c0 .1-.1.2-.2.2z" fill="#020202"/><path d="m33.3 17.9c-.1 0-.2-.1-.2-.2v-.2c0-.1.1-.2.2-.2s.2.1.2.2v.2c0 .1-.1.2-.2.2z" fill="#eebc9f"/><path d="m25.3 29.5c-.1 0-.2-.1-.2-.2v-5.1c0-.1.1-.2.2-.2s.2.1.2.2v5.1c0 .1-.1.2-.2.2z" fill="#020202"/><path d="m25.3 29.2c-.1 0-.2-.1-.2-.2v-.2c0-.1.1-.2.2-.2s.2.1.2.2v.2c0 .1-.1.2-.2.2z" fill="#eebc9f"/><path d="m35.3 18.2c-.1 0-.2-.1-.2-.2v-5.1c0-.1.1-.2.2-.2s.2.1.2.2v5.1c0 .1-.1.2-.2.2z" fill="#020202"/><path d="m35.3 14.5c-.1 0-.2-.1-.2-.2v-.2c0-.1.1-.2.2-.2s.2.1.2.2v.2c0 .1-.1.2-.2.2z" fill="#51514f"/><path d="m4 29.5c-.1 0-.2-.1-.2-.2v-5.1c0-.1.1-.2.2-.2s.2.1.2.2v5.1c0 .1-.1.2-.2.2z" fill="#020202"/><path d="m4 27.3c-.1 0-.2-.1-.2-.2v-.2c0-.1.1-.2.2-.2s.2.1.2.2v.1c.1.2 0 .3-.2.3z" fill="#51514f"/><path d="m37.2 18.2c-.1 0-.2-.1-.2-.2v-5.1c0-.1.1-.2.2-.2s.2.1.2.2v5.1c0 .1-.1.2-.2.2z" fill="#020202"/><path d="m37.3 17.1c-.1 0-.2-.1-.2-.2v-.2c0-.1.1-.2.2-.2s.2.1.2.2v.2c0 .1-.1.2-.2.2z" fill="#51514f"/><circle cx="25.3" cy="12.4" fill="#1e1e1e" r=".3"/><circle cx="17.1" cy="12.4" fill="#1e1e1e" r=".3"/><circle cx="25.3" cy="14.6" fill="#1e1e1e" r=".3"/><path d="m45.1 18.2c-.1 0-.2-.1-.2-.2v-5.1c0-.1.1-.2.2-.2s.2.1.2.2v5.1c0 .1-.1.2-.2.2z" fill="#020202"/><path d="m45.1 17.9c-.1 0-.2-.1-.2-.2v-.2c0-.1.1-.2.2-.2s.2.1.2.2v.2c0 .1-.1.2-.2.2z" fill="#51514f"/><path d="m49.2 18.2c-.1 0-.2-.1-.2-.2v-5.1c0-.1.1-.2.2-.2s.2.1.2.2v5.1c0 .1-.1.2-.2.2z" fill="#020202"/><path d="m49.2 17.9c-.1 0-.2-.1-.2-.2v-.2c0-.1.1-.2.2-.2s.2.1.2.2v.2c.1.1-.1.2-.2.2z" fill="#51514f"/><path d="m41.1 29.5c-.1 0-.2-.1-.2-.2v-5.1c0-.1.1-.2.2-.2s.2.1.2.2v5.1c-.1.2-.1.2-.2.2z" fill="#020202"/><path d="m41.1 29c-.1 0-.2-.1-.2-.2v-.2c0-.1.1-.2.2-.2s.2.1.2.2v.2c0 .1-.1.2-.2.2z" fill="#51514f"/><path d="m53.4 18.2c-.1 0-.2-.1-.2-.2v-5.1c0-.1.1-.2.2-.2s.2.1.2.2v5.1c0 .1-.1.2-.2.2z" fill="#020202"/><path d="m53.2 15.6v-.2c0-.1.1-.2.2-.2s.2.1.2.2v.2c0 .1-.1.2-.2.2-.1.1-.2 0-.2-.2z" fill="#b24948"/><path d="m51.5 18.2c-.1 0-.2-.1-.2-.2v-5.1c0-.1.1-.2.2-.2s.2.1.2.2v5.1c0 .1-.1.2-.2.2z" fill="#020202"/><path d="m51.3 17.1v-.2c0-.1.1-.2.2-.2s.2.1.2.2v.2c0 .1-.1.2-.2.2-.1.1-.2 0-.2-.2z" fill="#b24948"/><path d="m57.1 29.5c-.1 0-.2-.1-.2-.2v-5.1c0-.1.1-.2.2-.2s.2.1.2.2v5.1c0 .1-.1.2-.2.2z" fill="#020202"/><path d="m56.9 28.4v-.2c0-.1.1-.2.2-.2s.2.1.2.2v.2c0 .1-.1.2-.2.2-.1.1-.2 0-.2-.2z" fill="#b24948"/><path d="m55.2 29.5c-.1 0-.2-.1-.2-.2v-5.1c0-.1.1-.2.2-.2s.2.1.2.2v5.1c0 .1-.1.2-.2.2z" fill="#020202"/><path d="m55 25.4v-.2c0-.1.1-.2.2-.2s.2.1.2.2v.2c0 .1-.1.2-.2.2-.1.1-.2 0-.2-.2z" fill="#b24948"/><path d="m53.2 29.5c-.1 0-.2-.1-.2-.2v-5.1c0-.1.1-.2.2-.2s.2.1.2.2v5.1c0 .1-.1.2-.2.2z" fill="#020202"/><path d="m53 27.9v-.2c0-.1.1-.2.2-.2s.2.1.2.2v.2c0 .1-.1.2-.2.2-.1.1-.2 0-.2-.2z" fill="#b24948"/><path d="m51.3 29.5c-.1 0-.2-.1-.2-.2v-5.1c0-.1.1-.2.2-.2s.2.1.2.2v5.1c0 .1-.1.2-.2.2z" fill="#020202"/><path d="m51.1 28.6v-.2c0-.1.1-.2.2-.2s.2.1.2.2v.2c0 .1-.1.2-.2.2s-.2-.1-.2-.2z" fill="#b24948"/><path d="m49 29.5c-.1 0-.2-.1-.2-.2v-5.1c0-.1.1-.2.2-.2s.2.1.2.2v5.1c0 .2 0 .2-.2.2z" fill="#020202"/><path d="m48.8 25v-.2c0-.1.1-.2.2-.2s.2.1.2.2v.2c0 .1-.1.2-.2.2s-.2-.1-.2-.2z" fill="#b24948"/><path d="m45 29.5c-.1 0-.2-.1-.2-.2v-5.1c0-.1.1-.2.2-.2s.2.1.2.2v5.1c-.1.2-.1.2-.2.2z" fill="#020202"/><path d="m44.7 25.7v-.2c0-.1.1-.2.2-.2s.2.1.2.2v.2c0 .1-.1.2-.2.2s-.2-.1-.2-.2z" fill="#b24948"/><path d="m43.1 29.5c-.1 0-.2-.1-.2-.2v-5.1c0-.1.1-.2.2-.2s.2.1.2.2v5.1c0 .1-.1.2-.2.2z" fill="#020202"/><path d="m42.8 28.8v-.2c0-.1.1-.2.2-.2s.2.1.2.2v.2c0 .1-.1.2-.2.2s-.2-.1-.2-.2z" fill="#e7d363"/><path d="m33.2 29.5c-.1 0-.2-.1-.2-.2v-5.1c0-.1.1-.2.2-.2s.2.1.2.2v5.1c0 .1-.1.2-.2.2z" fill="#020202"/><path d="m33 28.9v-.2c0-.1.1-.2.2-.2s.2.1.2.2v.2c0 .1-.1.2-.2.2-.1.1-.2 0-.2-.2z" fill="#e7d363"/><path d="m21.2 29.3v-5.1c0-.1.1-.2.2-.2s.2.1.2.2v5.1c0 .1-.1.2-.2.2-.2 0-.2-.1-.2-.2z" fill="#020202"/><path d="m21.1 27v-.2c0-.1.1-.2.2-.2s.2.1.2.2v.2c0 .1-.1.2-.2.2s-.2-.1-.2-.2z" fill="#e7d363"/><path d="m13.2 29.3v-5.1c0-.1.1-.2.2-.2s.2.1.2.2v5.1c0 .1-.1.2-.2.2-.2 0-.2-.1-.2-.2z" fill="#020202"/><path d="m13.1 29v-.2c0-.1.1-.2.2-.2s.2.1.2.2v.2c0 .1-.1.2-.2.2s-.2-.1-.2-.2z" fill="#e7d363"/><path d="m35.3 29.5c-.1 0-.2-.1-.2-.2v-5.1c0-.1.1-.2.2-.2s.2.1.2.2v5.1c-.1.1-.1.2-.2.2z" fill="#020202"/><path d="m35 26.4v-.2c0-.1.1-.2.2-.2s.2.1.2.2v.2c0 .1-.1.2-.2.2s-.2-.1-.2-.2z" fill="#efefed"/><path d="m29.2 29.5c-.1 0-.2-.1-.2-.2v-5.1c0-.1.1-.2.2-.2s.2.1.2.2v5.1c-.1.1-.1.2-.2.2z" fill="#020202"/><path d="m28.9 28.9v-.2c0-.1.1-.2.2-.2s.2.1.2.2v.2c0 .1-.1.2-.2.2-.1.1-.2 0-.2-.2z" fill="#efefed"/><path d="m7.4 25.3h.8v2.9h-.8z" fill="#f3f3f2"/><path d="m8.2 28.2h-.8v-3h.8zm-.8 0h.8v-2.9h-.8z" fill="#5e5e5e"/><path d="m7.4 26.9h.8v.7h-.8z" fill="#f3f3f2"/><path d="m8.2 27.6h-.8v-.7h.8zm-.8 0h.8v-.7h-.8z" fill="#5e5e5e"/><path d="m10.1 10.2h.1v25h-.1z"/><path d="m18.3 10.2h.1v25h-.1z"/><path d="m26.2 10.2h.1v25h-.1z"/><path d="m34.2 10.2.1 25h-.1z"/><path d="m50.2 10.2.1 25h-.1z"/><path d="m.5 37.1h59.1v15h-59.1z" fill="#2d2d2d"/><path d="m5.4 51.3c-.6 0-1.1-.5-1.1-1.1v-11.5h2.3v11.5c-.1.6-.6 1.1-1.2 1.1z" fill="#fff"/><path d="m7.8 51.3c-.6 0-1.1-.5-1.1-1.1v-11.5h2.3v11.5c-.1.6-.6 1.1-1.2 1.1z" fill="#fff"/><path d="m10.1 51.3c-.6 0-1.1-.5-1.1-1.1v-11.5h2.3v11.5c0 .6-.5 1.1-1.2 1.1z" fill="#fff"/><path d="m9.2 46.8c-.3 0-.5-.2-.5-.5v-7.6h1.1v7.6c0 .3-.3.5-.6.5z" fill="#020202"/><path d="m9.2 46.9c-.4 0-.7-.3-.7-.7v-7.7h1.3v7.7c.1.4-.2.7-.6.7zm-.4-8.1v7.9h.8v-7.9z" fill="#020202"/><path d="m6.4 46.8c-.3 0-.5-.2-.5-.5v-7.6h1.1v7.6c0 .3-.3.5-.6.5z" fill="#020202"/><path d="m6.4 46.9c-.4 0-.7-.3-.7-.7v-7.7h1.3v7.7c.1.4-.2.7-.6.7zm-.4-8.1v7.9h.8v-7.9z" fill="#020202"/><path d="m12.5 51.3c-.6 0-1.1-.5-1.1-1.1v-11.5h2.3v11.5c0 .6-.5 1.1-1.2 1.1z" fill="#fff"/><path d="m14.9 51.3c-.6 0-1.1-.5-1.1-1.1v-11.5h2.2v11.5c0 .6-.5 1.1-1.1 1.1z" fill="#fff"/><path d="m17.3 51.3c-.6 0-1.1-.5-1.1-1.1v-11.5h2.3v11.5c-.1.6-.6 1.1-1.2 1.1z" fill="#fff"/><path d="m13.3 46.8c-.3 0-.5-.2-.5-.5v-7.6h1.1v7.6c0 .3-.3.5-.6.5z" fill="#020202"/><path d="m13.3 46.9c-.4 0-.7-.3-.7-.7v-7.7h1.4v7.7c0 .4-.3.7-.7.7zm-.4-8.1v7.9h.8v-7.9z" fill="#020202"/><path d="m19.7 51.3c-.6 0-1.1-.5-1.1-1.1v-11.5h2.3v11.5c-.1.6-.6 1.1-1.2 1.1z" fill="#fff"/><path d="m22 51.3c-.6 0-1.1-.5-1.1-1.1v-11.5h2.3v11.5c0 .6-.5 1.1-1.2 1.1z" fill="#fff"/><path d="m24.4 51.3c-.6 0-1.1-.5-1.1-1.1v-11.5h2.3v11.5c-.1.6-.6 1.1-1.2 1.1z" fill="#fff"/><path d="m26.8 51.3c-.6 0-1.1-.5-1.1-1.1v-11.5h2.3v11.5c-.1.6-.6 1.1-1.2 1.1z" fill="#fff"/><path d="m29.2 51.3c-.6 0-1.1-.5-1.1-1.1v-11.5h2.3v11.5c-.1.6-.6 1.1-1.2 1.1z" fill="#fff"/><path d="m31.5 51.3c-.6 0-1.1-.5-1.1-1.1v-11.5h2.3v11.5c0 .6-.5 1.1-1.2 1.1z" fill="#fff"/><path d="m18.7 46.8c-.3 0-.5-.2-.5-.5v-7.6h1.1v7.6c-.1.3-.3.5-.6.5z" fill="#020202"/><path d="m18.7 46.9c-.4 0-.7-.3-.7-.7v-7.7h1.3v7.7c.1.4-.2.7-.6.7zm-.4-8.1v7.9h.8v-7.9z" fill="#020202"/><path d="m23 46.8c-.3 0-.5-.2-.5-.5v-7.6h1.1v7.6c-.1.3-.3.5-.6.5z" fill="#020202"/><path d="m23 46.9c-.4 0-.7-.3-.7-.7v-7.7h1.3v7.7c0 .4-.3.7-.6.7zm-.4-8.1v7.9h.8v-7.9z" fill="#020202"/><path d="m25.9 46.8c-.3 0-.5-.2-.5-.5v-7.6h1.1v7.6c-.1.3-.3.5-.6.5z" fill="#020202"/><path d="m25.9 46.9c-.4 0-.7-.3-.7-.7v-7.7h1.3v7.7c0 .4-.3.7-.6.7zm-.5-8.1v7.9h.8v-7.9z" fill="#020202"/><path d="m29.9 46.8c-.3 0-.5-.2-.5-.5v-7.6h1.1v7.6c0 .3-.3.5-.6.5z" fill="#020202"/><path d="m29.9 46.9c-.4 0-.7-.3-.7-.7v-7.7h1.3v7.7c.1.4-.2.7-.6.7zm-.4-8.1v7.9h.8v-7.9z" fill="#020202"/><path d="m16.1 46.8c-.3 0-.5-.2-.5-.5v-7.6h1.1v7.6c-.1.3-.3.5-.6.5z" fill="#020202"/><path d="m16.1 46.9c-.4 0-.7-.3-.7-.7v-7.7h1.3v7.7c0 .4-.3.7-.6.7zm-.4-8.1v7.9h.8v-7.9z" fill="#020202"/><path d="m33.9 51.3c-.6 0-1.1-.5-1.1-1.1v-11.5h2.2v11.5c0 .6-.5 1.1-1.1 1.1z" fill="#fff"/><path d="m36.3 51.3c-.6 0-1.1-.5-1.1-1.1v-11.5h2.3v11.5c-.1.6-.6 1.1-1.2 1.1z" fill="#fff"/><path d="m38.7 51.3c-.6 0-1.1-.5-1.1-1.1v-11.5h2.3v11.5c-.1.6-.6 1.1-1.2 1.1z" fill="#fff"/><path d="m41 51.3c-.6 0-1.1-.5-1.1-1.1v-11.5h2.3v11.5c0 .6-.5 1.1-1.2 1.1z" fill="#fff"/><path d="m43.4 51.3c-.6 0-1.1-.5-1.1-1.1v-11.5h2.3v11.5c0 .6-.6 1.1-1.2 1.1z" fill="#fff"/><path d="m45.8 51.3c-.6 0-1.1-.5-1.1-1.1v-11.5h2.3v11.5c-.1.6-.6 1.1-1.2 1.1z" fill="#fff"/><path d="m48.2 51.3c-.6 0-1.1-.5-1.1-1.1v-11.5h2.3v11.5c-.1.6-.6 1.1-1.2 1.1z" fill="#fff"/><path d="m50.5 51.3c-.6 0-1.1-.5-1.1-1.1v-11.5h2.3v11.5c0 .6-.5 1.1-1.2 1.1z" fill="#fff"/><path d="m52.9 51.3c-.6 0-1.1-.5-1.1-1.1v-11.5h2.3v11.5c0 .6-.6 1.1-1.2 1.1z" fill="#fff"/><path d="m55.3 51.3c-.6 0-1.1-.5-1.1-1.1v-11.5h2.3v11.5c-.1.6-.6 1.1-1.2 1.1z" fill="#fff"/><path d="m32.7 46.8c-.3 0-.5-.2-.5-.5v-7.6h1.1v7.6c-.1.3-.3.5-.6.5z" fill="#020202"/><path d="m32.7 46.9c-.4 0-.7-.3-.7-.7v-7.7h1.3v7.7c.1.4-.2.7-.6.7zm-.4-8.1v7.9h.8v-7.9z" fill="#020202"/><path d="m35.4 46.8c-.3 0-.5-.2-.5-.5v-7.6h1.1v7.6c-.1.3-.3.5-.6.5z" fill="#020202"/><path d="m35.4 46.9c-.4 0-.7-.3-.7-.7v-7.7h1.3v7.7c.1.4-.2.7-.6.7zm-.4-8.1v7.9h.8v-7.9z" fill="#020202"/><path d="m39.5 46.8c-.3 0-.5-.2-.5-.5v-7.6h1v7.6c0 .3-.2.5-.5.5z" fill="#020202"/><path d="m39.5 46.9c-.4 0-.7-.3-.7-.7v-7.7h1.3v7.7c0 .4-.3.7-.6.7zm-.5-8.1v7.9h.8v-7.9z" fill="#020202"/><path d="m42.4 46.8c-.3 0-.5-.2-.5-.5v-7.6h1.1v7.6c0 .3-.3.5-.6.5z" fill="#020202"/><path d="m42.4 46.9c-.4 0-.7-.3-.7-.7v-7.7h1.3v7.7c.1.4-.2.7-.6.7zm-.4-8.1v7.9h.8v-7.9z" fill="#020202"/><path d="m46.6 46.8c-.3 0-.5-.2-.5-.5v-7.6h1.1v7.6c-.1.3-.3.5-.6.5z" fill="#020202"/><path d="m46.6 46.9c-.4 0-.7-.3-.7-.7v-7.7h1.3v7.7c0 .4-.3.7-.6.7zm-.4-8.1v7.9h.8v-7.9z" fill="#020202"/><path d="m49.4 46.8c-.3 0-.5-.2-.5-.5v-7.6h1.1v7.6c-.1.3-.3.5-.6.5z" fill="#020202"/><path d="m49.4 46.9c-.4 0-.7-.3-.7-.7v-7.7h1.3v7.7c0 .4-.3.7-.6.7zm-.5-8.1v7.9h.8v-7.9z" fill="#020202"/><path d="m52 46.8c-.3 0-.5-.2-.5-.5v-7.6h1.1v7.6c0 .3-.3.5-.6.5z" fill="#020202"/><path d="m52 46.9c-.4 0-.7-.3-.7-.7v-7.7h1.3v7.7c.1.4-.2.7-.6.7zm-.4-8.1v7.9h.8v-7.9z" fill="#020202"/><path d="m.2 52.4c-.1 0-.2-.1-.2-.2v-44.4c0-.1.1-.2.2-.2s.2.1.2.2v44.4c.1.1 0 .2-.2.2z" fill="#2d2d2d"/><path d="m59.8 52.4c-.1 0-.2-.1-.2-.2v-44.4c0-.1.1-.2.2-.2s.2.1.2.2v44.4c0 .1-.1.2-.2.2z" fill="#2d2d2d"/><circle cx="4" cy="32.6" fill="#1e1e1e" r="1.4"/><circle cx="4" cy="32.6" fill="#eaeaea" r=".8"/><path d="m3.8 31h.3v.5h-.3z" fill="#1e1e1e"/></svg>