<svg enable-background="new 0 0 60 60" height="60" viewBox="0 0 60 60" width="60" xmlns="http://www.w3.org/2000/svg"><path d="m12.3 49.9-2.2-2.2c-.2-.2-.6-.2-.9 0-.2.3-.2.6 0 .9l2.2 2.2c.2.2.6.2.9 0 .2-.3.2-.7 0-.9zm11.8-10.7 25.1-26.6c.2-.2.5-.3.7-.2.9.2 1.9-.1 2.7-.8.5-.5.8-1.1.8-1.8 0-.4.2-.8.5-1.1.6-.6 1.4-.9 2.2-.9 1 0 2-.4 2.8-1.2 1.4-1.5 1.5-3.9 0-5.4-1.5-1.6-4-1.6-5.6-.1-.8.8-1.1 1.7-1.1 2.7 0 .8-.3 1.6-.9 2.2v.1c-.3.3-.7.5-1.1.5-.6.1-1.2.3-1.7.8-.7.7-1 1.7-.8 2.7.1.3 0 .5-.2.7l-26.7 25.1c-.2.2-.6.3-.9.1-5.3-3.3-12.4-2.5-16.8 2.4-4.3 4.9-4.3 12.3 0 17.2 5 5.7 13.7 5.9 19 .6 4.4-4.4 5-11.1 1.8-16.2-.1-.2-.1-.6.2-.8zm.4 10c.5.1.7.6.6 1.1s-.6.7-1.1.6-.8-.6-.6-1c.2-.6.7-.9 1.1-.7zm-.4-6.1c.5-.1.9.2 1.1.6.1.5-.1 1-.6 1.1s-.9-.2-1.1-.6c-.2-.5.1-1 .6-1.1zm-2.2-3.8c-.3.3-.9.3-1.2 0s-.3-.9 0-1.2.9-.3 1.2 0 .3.9 0 1.2zm-5.6-4.4c.5.1.7.6.6 1.1s-.6.8-1.1.6c-.5-.1-.7-.6-.6-1.1s.6-.7 1.1-.6zm-6.5 0c.5-.1.9.2 1.1.6.1.5-.1 1-.6 1.1s-.9-.2-1.1-.6c-.2-.5.1-1 .6-1.1zm-5.7 4.4c-.3-.3-.3-.9 0-1.2s.9-.3 1.2 0 .3.9 0 1.2c-.3.4-.8.4-1.2 0zm-2.6 5.5c-.5-.1-.7-.6-.6-1.1s.6-.7 1-.6c.5.1.7.6.6 1-.1.5-.5.8-1 .7zm.5 6c-.5.2-1-.1-1.1-.6s.1-1 .6-1.1.9.2 1.1.7-.2.9-.6 1zm2.2 5.1c-.3-.3-.3-.9 0-1.2s.9-.3 1.2 0 .3.9 0 1.2c-.4.3-.9.3-1.2 0zm5.6 3.2c-.5-.1-.7-.6-.6-1s.6-.7 1.1-.6.7.6.6 1.1c-.2.4-.7.7-1.1.5zm-1.9-3.1c-.3-.2-.4-.6-.2-.9l1.9-2.8c.4-.6.3-1.3-.2-1.8-.4-.4-1.2-.5-1.8-.1l-2.8 1.9c-.3.2-.7.1-.9-.2-2.4-4.3-1.5-9.9 2.6-13.2 3.9-3.1 9.6-3 13.3.3 4.5 4 4.7 10.9.5 15.1-3.3 3.4-8.4 4-12.4 1.7zm8.4 3.1c-.5.1-.9-.1-1.1-.6-.1-.5.2-.9.6-1.1.5-.1.9.2 1.1.6.1.5-.2 1-.6 1.1zm4.4-3.2c-.3-.3-.3-.9 0-1.2s.9-.3 1.2 0 .3.9 0 1.2-.9.3-1.2 0z" fill="#c12127"/></svg>