<svg height="60" width="60" xmlns="http://www.w3.org/2000/svg"><path d="m12.3 49.9-2.2-2.2c-.23-.23-.62-.23-.85 0v.02c-.25.24-.25.62 0 .85l2.18 2.2c.23.23.62.23.85 0v-.02c.24-.23.24-.62 0-.85zm11.8-10.75 25.1-26.6c.18-.2.45-.27.7-.2.94.18 1.94-.08 2.66-.8.5-.5.78-1.14.83-1.8.02-.4.2-.8.5-1.08v-.02c.6-.58 1.4-.9 2.2-.9 1 0 2-.4 2.78-1.17 1.42-1.46 1.45-3.87.05-5.36-1.5-1.6-4.02-1.63-5.56-.1-.75.76-1.13 1.73-1.14 2.7 0 .83-.3 1.63-.88 2.2l-.05.06c-.3.3-.68.5-1.1.53-.63.08-1.23.33-1.72.8-.74.7-1.02 1.74-.83 2.7.06.26-.03.5-.22.7l-26.6 25.1c-.24.23-.6.26-.88.08-5.27-3.33-12.4-2.52-16.76 2.44-4.27 4.88-4.26 12.3 0 17.16 5.03 5.7 13.73 5.9 19 .63 4.4-4.4 5-11.13 1.8-16.16-.16-.28-.13-.64.1-.88zm.43 10.02c.47.12.74.6.62 1.06s-.6.74-1.06.6-.76-.6-.64-1.05c.13-.46.6-.74 1.07-.6zm-.45-6.05c.47-.13.94.15 1.07.6.12.47-.15.95-.62 1.07-.46.1-.94-.17-1.06-.63s.15-.94.62-1.06zm-2.18-3.8c-.34.35-.9.35-1.23 0-.34-.33-.34-.88 0-1.22s.9-.34 1.23 0c.34.34.34.9 0 1.23zm-5.63-4.47c.46.13.74.6.6 1.06-.1.5-.6.76-1.05.64-.46-.13-.74-.6-.6-1.07.1-.46.6-.73 1.05-.6zm-6.5 0c.46-.12.94.15 1.06.6.13.48-.15.95-.6 1.08s-.95-.15-1.07-.62c-.13-.44.15-.9.6-1.04zm-5.63 4.48c-.34-.34-.34-.9 0-1.23.34-.34.9-.34 1.23 0 .34.34.34.9 0 1.23-.34.34-.9.34-1.23 0zm-2.64 5.47c-.46-.13-.73-.6-.6-1.07.1-.46.6-.74 1.05-.6.47.1.74.6.62 1.05-.13.46-.6.74-1.06.6zm.45 6.04c-.46.13-.93-.15-1.06-.6-.14-.47.13-.95.6-1.07.46-.13.93.15 1.06.6s-.15.95-.62 1.07zm2.2 5.02c-.35-.34-.35-.9 0-1.23.33-.34.88-.34 1.22 0s.34.9 0 1.23c-.34.34-.9.34-1.23 0zm5.62 3.25c-.46-.1-.74-.6-.6-1.04s.6-.74 1.05-.62.74.6.6 1.07c-.1.47-.6.74-1.05.6zm-1.83-3.06c-.32-.18-.42-.6-.2-.9l1.88-2.77c.4-.57.32-1.32-.16-1.8l-.02-.02c-.48-.48-1.24-.55-1.8-.17l-2.78 1.9c-.3.2-.72.1-.9-.2-2.4-4.3-1.53-9.9 2.6-13.2 3.9-3.13 9.57-2.98 13.3.32 4.54 3.98 4.7 10.9.5 15.12-3.37 3.36-8.46 3.93-12.42 1.7zm8.33 3.08c-.46.13-.94-.14-1.06-.6-.1-.47.17-.94.63-1.07.46-.12.94.15 1.06.62.12.46-.16.93-.6 1.06zm4.4-3.24c-.34-.34-.34-.9 0-1.23.34-.34.9-.34 1.23 0 .34.34.34.9 0 1.23-.34.34-.9.34-1.23 0z"/></svg>