<svg enable-background="new 0 0 60 60" height="60" viewBox="0 0 60 60" width="60" xmlns="http://www.w3.org/2000/svg"><path d="m11.4 21.5c0 .3-.3.6-.6.6s-.6-.3-.6-.6v-6c0-.3.3-.6.6-.6s.6.2.6.6zm-.6-7h1.1v7.9h-1.1zm37.8.9c0-.3.3-.6.6-.6s.6.2.6.6v6c0 .3-.3.6-.6.6s-.6-.3-.6-.6zm-.6-.9h1.2v7.9h-1.1zm0 43c0 1.4-1.1 2.5-2.5 2.5h-31.1c-1.4 0-2.5-1.1-2.5-2.5v-55c0-1.4 1.1-2.5 2.5-2.5h31.1c1.4 0 2.5 1.1 2.5 2.5z" fill="#00572c" stroke="#fff" stroke-width=".146"/><path d="m45.7 12.2c0 1.4-1.1 2.5-2.5 2.5h-26.4c-1.4 0-2.5-1.1-2.5-2.5v-7.6c0-1.4 1.1-2.5 2.5-2.5h26.3c1.4 0 2.5 1.1 2.5 2.5v7.6z" fill="#fff" stroke="#1d1d1b" stroke-width=".146"/><g stroke="#fff"><path d="m45.7 19.3c0-.5-.4-.9-.8-.9h-29.7c-.5 0-.8.4-.8.9v37.6c0 .5.4.9.8.9h29.7c.5 0 .8-.4.8-.9z" fill="#00572c" stroke-width=".291"/><g stroke-width=".146"><circle cx="19.4" cy="8.4" fill="#00572c" r="3.8"/><path d="m19.6 6.3c0 .1-.1.2-.2.2s-.2-.1-.2-.2v-1.2c0-.1.1-.2.2-.2s.2.1.2.2c0 0 0 1.3 0 1.2z" fill="#1d1d1b"/><circle cx="40.6" cy="8.4" fill="#00572c" r="3.8"/><path d="m41.2 6.4c0 .1-.1.2-.2.2s-.2-.2-.2-.3l.2-1.2c0-.1.1-.2.2-.2s.2.2.2.3z" fill="#1d1d1b"/><circle cx="30" cy="8.4" fill="#00572c" r="3.8"/><path d="m28.5 7c.1.1.1.2 0 .3 0 .1-.2.1-.3 0l-1-.8c-.1-.1-.1-.2 0-.3s.2-.1.3 0z" fill="#1d1d1b"/></g><path d="m37.8 45v10.3m-10.5-10.3v10.3m-10.5-10.3v10.3m26.3-10.3v10.3m-10.5-10.3v10.3m-10.5-10.3v10.3" fill="none" stroke-linecap="round"/></g><path d="m37.7 26.5c.7 0 1.3-.6 1.3-1.3s-.6-1.3-1.3-1.3-1.3.6-1.3 1.3.6 1.3 1.3 1.3zm-4.3-2.9c-.2-.2-.5-.4-.8-.6-.5-.3-1.1-.6-1.8-.8-.4-.1-.8-.2-1.2-.2-.2 0-.4-.1-.7-.1-.2 0-.4 0-.6 0-.4 0-.7 0-1.1.1-.6.1-1.2.3-1.8.6-.6.4-1.2.8-1.7 1.4-.4.5-.7 1-.9 1.6-.1.3-.2.6-.2.9v.4.4c.1.3.1.6.3.9.1.3.3.6.6.9.5.4 1.1.6 1.7.6h.8c.6-.1 1-.4 1.5-.7.2-.2.3-.3.4-.5.1-.3.2-.5.2-.9 0-.2-.1-.5-.2-.7-.2-.3-.4-.6-.7-.8-.5-.3-1-.5-1.6-.5-.2 0-.4 0-.6.1-.2 0-.4.1-.6.1-.1 0-.3-.2-.2-.4.1-.3.2-.5.3-.8.2-.5.5-.9 1-1.2.3-.2.7-.4 1.1-.4.3-.1.6-.1 1-.1s.7 0 1.1 0c.6.1 1.1.4 1.6.8.4.4.7.8.9 1.2.3.6.4 1.2.5 1.9.1.9.2 1.7 0 2.6-.3 1.5-.9 3-1.7 4.3-.9 1.5-2.1 2.8-3.4 3.9-1.1.9-2.2 1.8-3.4 2.5-.4.2-.8.5-1.1.7 0 0-.1 0 0 .1s.1.3.2.4h.1c.3-.1.5-.3.8-.4 2-.9 3.9-2 5.7-3.2 1.4-1 2.7-2 3.9-3.3.8-.9 1.6-1.9 2.1-3 .4-.8.6-1.6.7-2.4.1-.9 0-1.8-.3-2.6-.4-1-1-2-1.9-2.8zm4.3 5.7c-.7 0-1.3.6-1.3 1.3s.6 1.3 1.3 1.3 1.3-.6 1.3-1.3-.5-1.3-1.3-1.3z" fill="#fff"/></svg>