<svg height="60" width="60" xmlns="http://www.w3.org/2000/svg"><g stroke-miterlimit="10"><g stroke-width=".146"><g stroke-linecap="round" stroke-linejoin="round"><path d="m50.04 4.05.34.67-.4.2-.34-.67zm.58-.05-.27-.5c-.12-.23-.5-.26-.88-.07-.35.2-.56.5-.45.74l.26.52c.04.07.12.1.2.07l1.07-.54c.06-.05.1-.14.06-.22h.02z" fill="#1d1d1b" stroke="#fff"/><path d="m52.13 2.88.35.67-.4.2-.35-.67zm.57-.04-.26-.5c-.1-.24-.5-.27-.88-.08-.35.2-.56.5-.45.74l.27.52c.04.08.13.12.2.08l1.07-.54c.06-.05.1-.14.06-.22z" fill="#1d1d1b" stroke="#fff"/><path d="m54.28 1.83.35.67-.4.2-.35-.67zm.58-.05-.27-.5c-.12-.24-.52-.27-.9-.07-.34.2-.55.52-.43.75l.25.5c.04.1.13.14.2.1l1.07-.56c.06-.05.1-.14.05-.22z" fill="#1d1d1b" stroke="#fff"/><path d="m56.42.75.35.67-.4.2-.37-.69zm.58-.05-.27-.5c-.12-.24-.5-.27-.88-.07-.35.2-.56.5-.45.74l.26.5c.04.1.12.13.2.1l1.07-.55c.07-.05.1-.14.06-.22z" fill="#1d1d1b" stroke="#fff"/><path d="m48.3 7.6c.55-.55-.03-1.48.38-1.9.43-.43 8.52-4.56 9.32-4.95.82-.4 1.74.28 2 .56 0 0-1.55.94-3.16 3.37-2.5 3.75-1.8 3.88-3 5.1-1.33-1.33-2.73-.94-3.54-.15-.65-.65-2-2-2-2z" stroke="#fff"/><path d="m15.43 58.6c0 .1-.1.2-.2.23l-2 .24c-.1.02-.2-.06-.23-.2-.02-.08.06-.2.2-.2l1.97-.25c.12 0 .22.07.24.2l.03-.02z" fill="#1d1d1b" stroke="#1d1d1b"/><path d="m23.85 32.15c-.67.5-1.7.9-2.54.06-1.18-1.18-1.44-3.3.04-4.77 1.48-1.5 1.24-1.88.92-2.2-.3-.3-1.8-1.27-4.4 1.33s-2.95 5.78-5.06 7.9c-2.1 2.1-7.75 3.06-11.1 6.4-4.34 4.33.66 10.13 3.34 12.83 3.58 3.57 8.3 7.77 13 3.05 3.47-3.46 3.26-8.15 5.2-10.12 2.02-2 3.34-1.02 6.5-4.17 1.23-1.22 1.23-2.36.65-2.94-.6-.6-1.24-.2-1.86.44-.62.62-2.73 1.33-4.16-.1-1.44-1.44-.83-2.5.56-3.88 1.38-1.4 1.63-1.64 1.63-1.64l-2.7-2.2h-.02z" stroke="#fff"/></g><path d="m19.63 42.62c-.2.2-.5.2-.7 0l-2.83-2.82c-.18-.2-.18-.5 0-.7l1.15-1.14c.18-.2.5-.2.7 0l2.83 2.82c.18.2.18.5 0 .7l-1.15 1.13v.02z" fill="#1d1d1b" stroke="#fff"/></g><g stroke-linecap="round" stroke-linejoin="round"><path d="m23.27 25.46c-.04.02-.1 0-.12-.04l-.3-.55c-.04-.03 0-.1.02-.12.03 0 .1 0 .12.03l.3.56c.03.04.02.1-.02.1zm-.45.15-.3-.53.3-.2.33.55-.33.2zm-.05.2c-.07.04-.14.02-.2-.04l-.3-.56c-.04-.07-.03-.14.03-.17l.03-.02c.05-.02.13 0 .17.06l.33.56c.04.05.02.14-.04.16l-.03.02z" fill="#1d1d1b" stroke="#fff" stroke-width=".073"/><circle cx="17.392" cy="50.74" fill="#fff" r=".933" stroke="#1d1d1b" stroke-width=".146"/><path d="m16.94 51c-.15-.26-.06-.56.18-.7.26-.16.58-.07.72.18.15.25.07.57-.2.7s-.56.06-.7-.2z" fill="#fff" stroke="#1d1d1b" stroke-width=".146"/></g></g><path d="m17.68 51.38c0-.03 0-.07.03-.1.04 0 .07 0 .08.03l.06.1c.02.04 0 .08-.02.1-.03 0-.06 0-.1-.03l-.04-.1v.02z" fill="#1d1d1b"/><circle cx="17.675" cy="53.864" r=".932" style="fill:#fff;stroke:#1d1d1b;stroke-width:.146;stroke-miterlimit:10;stroke-linecap:round;stroke-linejoin:round"/><circle cx="17.675" cy="53.863" r=".524" style="fill:#fff;stroke:#1d1d1b;stroke-width:.146;stroke-miterlimit:10;stroke-linecap:round;stroke-linejoin:round"/><path d="m17.6 53.17c0 .03-.02.07-.05.07s-.07-.03-.07-.06l-.03-.1c-.02-.04 0-.07.04-.08.02 0 .05.02.06.05l.02.1.02.02z" fill="#1d1d1b"/><g stroke-linecap="round" stroke-linejoin="round" stroke-miterlimit="10"><path d="m19.4 49.97c-.04.12-.18.16-.28.12h-.03c-.12-.07-.18-.2-.13-.3l1.34-3.17c.06-.1.2-.16.3-.1h.04c.1.05.16.17.1.28l-1.33 3.17z" fill="#1d1d1b" stroke="#fff" stroke-width=".146"/><circle cx="19.854" cy="48.302" fill="#fff" r=".514" stroke="#1d1d1b" stroke-width=".146"/><path d="m50.3 9.62-2-2-28.55 28.38 2.78 2.8zm-34.7 37c-.18.2-.48.2-.68 0l-2.82-2.82c-.2-.18-.2-.5 0-.7l1.14-1.15c.2-.18.5-.18.7 0l2.82 2.84c.2.18.2.5 0 .7l-1.14 1.13z" fill="#1d1d1b" stroke="#fff" stroke-width=".146"/><path d="m16.48 45.53c.22-.23.2-.6-.03-.84l-2.42-2.42c-.23-.23-.6-.25-.83-.03-.23.23-.2.6.03.84l2.4 2.4c.24.24.6.25.84.03zm-.81.8c.22-.22.2-.6-.04-.84l-2.4-2.4c-.24-.24-.6-.26-.83-.04l-.02.02c-.22.2-.2.6.03.84l2.43 2.4c.23.23.6.24.82.03l.02-.02zm4.83-4.81c.2-.23.18-.6-.05-.84l-2.4-2.4c-.24-.24-.6-.26-.83-.03s-.2.6.03.83l2.4 2.42c.24.23.6.25.83.03l.02-.02v.02zm-.83.81c.22-.22.2-.6-.04-.84l-2.4-2.4c-.23-.25-.6-.27-.83-.04l-.02.02c-.2.2-.2.6.04.83l2.42 2.4c.23.25.6.27.83.05z" fill="#fff" stroke="#1d1d1b" stroke-width=".073"/><g stroke-width=".146"><path d="m9.5 46.77 39.02-38.9m-38.22 39.63 38.77-39.1m-38.01 39.9 38.54-39.4m-37.4 40.2 37.8-39.7" fill="none" stroke="#fff"/><path d="m11.12 51.45c-.1.1-.25.1-.35 0l-3.35-3.35c-.1-.1-.1-.25 0-.36l1.56-1.56c.1-.1.25-.1.35 0l3.37 3.35c.1.1.1.26 0 .37zm0 0-3.72-3.72-.17.2 3.72 3.7z" fill="#fff" stroke="#1d1d1b"/><circle cx="50.625" cy="5.959" fill="#1d1d1b" r=".546" stroke="#fff"/><circle cx="50.682" cy="5.903" fill="#1d1d1b" r=".261" stroke="#fff"/><g fill="#1d1d1b" stroke="#fff"><circle cx="52.716" cy="4.824" r=".546"/><circle cx="52.772" cy="4.766" r=".261"/></g><g fill="#1d1d1b" stroke="#fff"><circle cx="54.865" cy="3.73" r=".546"/><path d="m55.1 3.85c-.08.1-.27.1-.36 0-.1-.1-.1-.28 0-.37.1-.1.28-.1.37 0 .1.1.1.28 0 .37z"/></g><g fill="#1d1d1b" stroke="#fff"><circle cx="57.004" cy="2.615" r=".546"/><circle cx="57.062" cy="2.557" r=".262"/></g></g></g></svg>