<svg height="60" width="60" xmlns="http://www.w3.org/2000/svg"><path d="m57.97 3.5h-1.67v.6h-20.27l-4.1.03.05-.03h-6.9l.04.03-4.68-.02h-16.56v-.6h-1.9c-1.1 0-2 .9-2 2v50.86c0 1.1.9 2 2 2h1.9v-.7h52.42v.7h1.67c1.1 0 2-.9 2-2v-50.87c0-1.1-.9-2-2-2zm-56.05 2.3c-.28 0-.5-.23-.5-.5s.22-.5.5-.5c.27 0 .5.22.5.5s-.23.5-.5.5zm54.4 5.17h-52.42v-5.57h-.03v-.17h52.43v.16h.02v5.56zm1.8-5.45c-.26 0-.5-.22-.5-.5 0-.27.24-.5.5-.5.3 0 .5.23.5.5 0 .28-.2.5-.5.5zm-48.68 1.2.04.1-.02.34c.17 0 .34.03.5.1.48.27.66.87.4 1.34-.25.48-.84.66-1.32.4-.48-.25-.66-.84-.4-1.32.1-.2.27-.35.47-.43l-.07-.4v-.02c-.34.12-.66.3-.94.55-.13.78.12 1.6.65 2.18.78.12 1.6-.13 2.18-.66.12-.78-.13-1.6-.66-2.18-.27-.04-.55-.03-.82 0zm.38.36h-.05l.1-.26zm-1.43.25.25.17-.02.04-.28-.17.03-.04zm-.2.5.23.08v.06l-.22-.07v-.05zm-.03.45h.23v.03l-.22.04v-.05zm.13.5v-.05l.23-.1.02.04-.24.1zm.3.34-.03-.04.13-.12.03.03-.13.1zm.36.26-.05-.02.14-.22.04.02-.1.22zm.47.13v-.24h.04v.26h-.04zm1-.33-.22-.22.05-.04.23.24-.03.03zm.28-.46-.2-.1.04-.04.2.1-.02.05zm.15-.4-.23-.05.02-.04.23.04v.05zm-.02-.48-.25.07v-.06l.24-.05.02.03zm-.23-.43.02.03-.15.1-.03-.03.15-.1zm-.26-.3-.16.2-.03-.04.15-.2.04.03zm-1.08-.8-.23.53c.13-.04.27-.08.4-.1zm43.3.96.04.1v.33c.15 0 .33 0 .5.1.47.25.65.85.4 1.33-.27.47-.86.65-1.34.4-.48-.26-.66-.85-.4-1.33.1-.2.28-.34.48-.42l-.1-.4.02-.02c-.35.12-.68.3-.95.55-.1.8.15 1.6.68 2.2.78.1 1.6-.13 2.18-.66.1-.78-.13-1.6-.66-2.18-.3-.04-.56-.03-.84 0zm.38.35h-.04l.1-.24-.06.26zm-1.42.28.27.17-.04.04-.28-.18.02-.03zm-.18.5.23.07-.02.04-.22-.07v-.05zm-.04.44h.23v.04l-.23.02v-.1zm.14.5-.02-.04.23-.1.02.04zm.3.35-.04-.04.13-.1.03.02-.13.13zm.34.26h-.04l.1-.23.05.02-.13.2zm.48.14v-.29h.04v.27h-.05zm1-.35-.23-.23.03-.05.24.23-.03.03zm.28-.47-.2-.1v-.07l.22.1-.02.05zm.13-.42-.23-.03v-.04l.24.03v.04zm-.03-.46-.25.06-.03-.05.25-.05v.04zm-.22-.44.02.04-.15.1-.04-.04.15-.1zm-.25-.3-.16.2-.02-.03.16-.2.04.03zm-1.1-.8-.2.53c.12-.04.26-.08.4-.1l-.2-.42zm-6.67.67.03.1v.34c.16 0 .33.03.5.1.47.27.65.87.4 1.34-.26.48-.86.66-1.34.4s-.67-.84-.4-1.32c.1-.2.26-.35.46-.44l-.1-.38.02-.03c-.36.14-.7.3-.96.57-.12.78.13 1.6.66 2.18.78.12 1.6-.13 2.18-.66.12-.8-.13-1.6-.66-2.2-.28-.03-.55-.03-.83 0zm.38.35h-.05l.1-.25zm-1.43.27.27.17h-.02l-.28-.16.03-.04zm-.17.5.22.07v.02l-.24-.07.02-.04zm-.05.44h.23v.03h-.22v-.05zm.14.5-.02-.05.23-.1.02.06-.23.1zm.3.34-.04-.04.13-.12.03.03-.15.13zm.34.26-.02-.02.1-.22.05.02-.1.22zm.5.13v-.31h.04v.26h-.04zm1-.37-.23-.22.03-.03.23.22zm.28-.46-.2-.1v-.08l.22.12-.03.04zm.13-.42-.22-.06.24.03v.06zm-.02-.47-.25.05v-.04l.24-.05v.04zm-.22-.45.03.04-.17.1-.02-.05.16-.1zm-.25-.3-.15.2-.08-.04.16-.18.04.03zm-1.08-.75-.23.53c.1-.02.25-.06.4-.1l-.2-.4zm-5.42.3.03.08v.35c.16 0 .33.05.5.13.47.26.65.85.4 1.33-.26.48-.86.66-1.34.4-.5-.25-.67-.85-.4-1.33.1-.2.26-.35.46-.43l-.1-.4.02-.02c-.36.1-.7.3-.96.55-.12.78.13 1.6.66 2.18.78.13 1.6-.1 2.18-.64.12-.78-.13-1.6-.66-2.18-.27-.04-.55-.04-.82 0zm.38.34h-.05l.1-.25zm-1.43.26.27.17-.02.04-.28-.2.03-.03zm-.18.5.23.07v.05l-.24-.07v-.04zm-.04.45.23-.02v.07h-.22v-.04zm.14.5-.02-.05.23-.1.02.03-.23.13zm.3.33-.04-.03.13-.13.03.03-.15.13zm.34.27-.04-.04.1-.2h.06zm.5.12v-.26h.04v.24h-.04zm1-.35-.22-.22.03-.03.24.22-.03.04zm.28-.45-.2-.12v-.04l.22.1-.03.05zm.13-.43-.22-.03v-.07l.24.04v.04zm0-.46-.26.05v-.02l.24-.06v.06zm-.24-.44.03.04-.17.1-.02-.04zm-.25-.3-.15.2-.04-.04.17-.2.04.03zm-1.08-.77-.23.53c.1-.05.25-.08.4-.1l-.2-.43zm-4.87.1.04.1-.04.33c.17 0 .34.02.5.1.48.26.66.86.4 1.34-.25.48-.84.66-1.32.4s-.66-.85-.4-1.33c.1-.2.28-.37.47-.45l-.1-.38.03-.03c-.35.1-.67.3-.95.54-.12.78.12 1.6.65 2.18.78.1 1.6-.13 2.18-.66.13-.78-.12-1.6-.65-2.18-.27-.05-.55-.04-.82 0zm.38.34-.05-.03.1-.25-.05.26zm-1.49.23.27.17-.02.05-.27-.17zm-.17.5.22.07v.06l-.24-.07.04-.06zm-.04.45.2-.03v.05h-.22zm.1.5v-.07l.23-.1.02.04-.24.1zm.3.32-.03-.03.13-.14.04.03-.13.12zm.35.27-.04-.04.13-.22.04.02-.12.22zm.48.1v-.25h.04v.26h-.04zm1-.34-.22-.22.04-.03.23.23-.03.03zm.28-.43-.2-.1.03-.04.2.1-.02.05zm.14-.4-.23-.04v-.06l.25.05v.04zm-.02-.47-.25.05v-.04l.24-.06v.05zm-.23-.44h.02l-.15.1-.03-.02.15-.1zm-.26-.33-.16.2-.04-.03.15-.2.04.03zm-1.07-.75-.23.53c.13-.05.27-.08.4-.1z"/><circle cx="21.696" cy="8.608" r=".336"/><circle cx="5.565" cy="7.939" r=".336"/><circle cx="5.503" cy="6.594" r=".336"/><circle cx="23.08" cy="8.608" r=".336"/><circle cx="37.588" cy="8.713" r=".336"/><circle cx="42.801" cy="8.837" r=".336"/><circle cx="49.132" cy="8.837" r=".336"/><path d="m23.57 3.54h-.12s1.74-1.4 5.6-1.4 5.13 1.4 5.13 1.4h-.35l-1.44.9h6.1l-1.46-.9h-.23s-3.27-2.16-8.37-1.98c-4.53.16-7.84 1.98-7.84 1.98h-.26l-1.02.9h5.24l-1-.9z"/><circle cx="30.07" cy="33.847" fill="#fff" r="21.671"/><circle cx="30.069" cy="33.846" r="3.291"/><circle cx="30.069" cy="33.847" fill="none" r="19.834" stroke="#000" stroke-miterlimit="10"/><path d="m11.75 15.76c.4 0 .73-.33.73-.74 0-.4-.33-.73-.74-.73-.4 0-.73.3-.73.7s.35.75.76.75zm-2.45-1.64c-.13-.12-.28-.23-.43-.32-.3-.2-.64-.34-1-.44-.22-.06-.45-.1-.68-.14-.15 0-.27-.02-.4-.03-.1-.03-.2-.03-.3-.03-.2 0-.4 0-.6.03-.35.08-.7.2-1 .37-.38.2-.7.46-.98.78-.23.28-.4.58-.5.93-.06.16-.1.33-.1.5v.2c0 .08.02.17.03.25.03.18.1.35.16.5.1.2.2.37.36.5.28.22.6.33.95.36.16 0 .3 0 .46-.05.3-.06.6-.2.82-.4.08-.1.16-.2.2-.3.08-.16.12-.32.1-.5 0-.13-.02-.25-.08-.37-.1-.2-.24-.36-.42-.48-.28-.18-.58-.27-.9-.28-.1 0-.2.03-.32.05-.1 0-.2.05-.33.03-.1 0-.16-.12-.13-.2.05-.15.1-.3.2-.44.12-.28.3-.5.54-.68.2-.13.4-.2.62-.25.18-.04.36-.06.55-.07.2 0 .4 0 .63.04.35.06.65.2.9.45.2.2.37.43.5.7.15.34.24.7.3 1.06.06.5.08 1 0 1.48-.18.87-.5 1.7-.96 2.44-.52.84-1.17 1.57-1.92 2.22-.6.5-1.25.97-1.92 1.4-.2.14-.43.28-.64.43 0 0-.04.02-.03.05.04.07.07.15.1.23.02.03.02.04.05.02.15-.07.3-.14.46-.2 1.12-.54 2.2-1.14 3.2-1.84.8-.54 1.53-1.14 2.18-1.84.47-.5.88-1.07 1.17-1.7.2-.43.34-.9.37-1.37.04-.5-.02-1-.16-1.48-.2-.66-.54-1.23-1.06-1.68zm2.44 3.23c-.4 0-.73.32-.73.73 0 .4.35.74.76.74.4 0 .73-.34.73-.74s-.34-.73-.75-.73z" fill="#fff"/></svg>