<svg enable-background="new 0 0 60 60" height="60" viewBox="0 0 60 60" width="60" xmlns="http://www.w3.org/2000/svg"><g fill="#781d77"><path d="m47.6 0h-.9v.3h-11.4-2.3-3.9-2.6-9.3v-.3h-1.1c-.6 0-1.1.5-1.1 1.1v29.5c0 .6.5 1.1 1.1 1.1h1.1v-.4h29.4v.4h.9c.6 0 1.1-.5 1.1-1.1v-29.5c.2-.6-.3-1.1-1-1.1zm-31.4 1.3c-.1 0-.3-.1-.3-.3 0-.1.1-.3.3-.3s.3.1.3.3c-.1.2-.2.3-.3.3zm30.5 2.9h-29.4v-3.2h29.4zm1-3.1c-.2 0-.3-.1-.3-.3s.1-.3.3-.3.3.1.3.3-.1.3-.3.3zm-27.3.7v.2h.3c.2.2.4.5.2.8-.1.3-.5.4-.7.2-.3-.2-.4-.5-.2-.8.1-.1.2-.2.3-.2v-.2c-.2 0-.4.2-.5.3-.1.4.1.9.4 1.2.4.1.9-.1 1.2-.4.1-.4-.1-.9-.4-1.2-.3.1-.4.1-.6.1zm.2.2v-.1zm-.8.2.2.1zm-.1.2h.1zm0 .3h.1zm.1.2.1-.1zm.3.4v-.1zm.3.1v-.2zm.5-.2-.1-.1zm.2-.3h-.1zm.1-.2h-.1zm0-.3h-.1zm-.3-.4-.1.1zm-.6-.4-.1.3c.1 0 .1 0 .2-.1zm24.3.5v.2h.3c.3.2.4.5.2.8-.1.3-.5.4-.7.2-.3-.2-.4-.5-.2-.8.1-.1.2-.2.3-.2v-.2c-.2.1-.4.2-.5.3-.1.5.1.9.4 1.2.5.1.9-.1 1.2-.4.1-.4-.1-.9-.4-1.2-.3.1-.4.1-.6.1zm.2.2v-.2zm-.8.2.2.1zm-.1.2h.1zm0 .3h.1zm.1.3.1-.1zm.3.3.1-.1zm.3.1v-.2zm.6-.2-.2-.1zm.1-.3-.1-.1zm.1-.2h-.1zm0-.3h-.1zm-.3-.4-.1.1zm-.6-.4-.1.3c.1 0 .2 0 .2-.1 0 0-.1-.2-.1-.2zm-3.7.4v.2c.1 0 .2 0 .3.1.3.2.4.5.2.8s-.5.4-.8.2-.4-.5-.2-.8c.1-.1.2-.2.3-.2l-.1-.2c-.2.1-.4.2-.5.3-.1.4.1.9.4 1.2.4.1.9-.1 1.2-.4.1-.4-.1-.9-.4-1.2-.1 0-.3 0-.4 0zm.2.2v-.2zm-.8.1.2.1zm-.1.3h.1zm0 .2h.1zm0 .3.1-.1zm.4.4v-.1zm.3 0v-.1zm.5-.1-.1-.1zm.3-.5h-.1zm0-.3h-.2zm-.3-.4-.1.1zm-.6-.5-.1.3c.1 0 .2 0 .2-.1zm-3.1.2v.2c.1 0 .2 0 .3.1.3.1.4.5.2.7s-.5.4-.8.2c-.2-.1-.3-.4-.1-.7.1-.1.2-.2.3-.2v-.2c-.2.1-.4.2-.5.3-.2.4 0 .8.2 1.2.5.1.9-.1 1.2-.4.1-.4-.1-.9-.4-1.2 0 0-.2 0-.4 0zm.3.2v-.2zm-.8.1.2.1-.2-.1c-.1.1 0 0 0 0zm-.1.3h.1zm-.1.3h.1zm.1.3.1-.1zm.4.3.1-.1zm.2.1v-.2zm.6-.2-.1-.1zm.2-.3-.1-.1zm0-.2h-.1zm0-.3h-.1zm-.3-.4-.1.1zm-.6-.4-.1.3c.1 0 .2-.1.2-.1zm-2.7 0v.2c.1 0 .2 0 .3.1.3.1.3.5.2.8s-.5.4-.7.2c-.3-.1-.4-.5-.2-.7.1-.1.2-.2.3-.2l-.1-.2c-.2.1-.4.2-.5.3-.1.5.1.9.4 1.2.4.1.9-.1 1.2-.4.1-.4-.1-.9-.4-1.2-.2-.1-.4-.1-.5-.1zm.2.2v-.2zm-.8.1.2.1zm-.1.3h.1zm0 .3h.1zm0 .2.1-.1zm.4.4v-.1zm.3.1v-.2zm.5-.2-.1-.1zm.2-.3-.1-.1zm0-.2h-.1v-.1zm0-.3h-.1zm-.2-.4-.1.1zm-.6-.5-.2.3c.1 0 .2 0 .2-.1z"/><circle cx="27.3" cy="2.9" r=".2"/><circle cx="18.2" cy="2.5" r=".2"/><circle cx="18.2" cy="1.7" r=".2"/><circle cx="28.1" cy="2.9" r=".2"/><circle cx="36.2" cy="2.9" r=".2"/><circle cx="39.1" cy="3" r=".2"/><circle cx="42.7" cy="3" r=".2"/></g><circle cx="32" cy="18" fill="#fff" r="12.2"/><circle cx="32" cy="18" fill="#781d77" r="1.8"/><circle cx="32" cy="18" fill="none" r="11.1" stroke="#781d77" stroke-miterlimit="10"/><path d="m47.6 32h-.9v.3h-11.4-2.3-3.9-2.6-9.3v-.3h-1.1c-.6 0-1.1.5-1.1 1.1v25.8c0 .6.5 1.1 1.1 1.1h1.1v-.4h29.4v.4h.9c.6 0 1.1-.5 1.1-1.1v-25.8c.2-.6-.3-1.1-1-1.1zm-31.4 1.3c-.1 0-.3-.1-.3-.3s.1-.3.3-.3.3.1.3.3c-.1.2-.2.3-.3.3zm31.5-.2c-.2 0-.3-.1-.3-.3s.1-.3.3-.3.3.1.3.3-.1.3-.3.3z" fill="#781d77"/><circle cx="32" cy="46.3" fill="#fff" r="12.2"/><circle cx="32" cy="46.3" fill="#781d77" r="1.8"/><circle cx="32" cy="46.3" fill="none" r="11.1" stroke="#781d77" stroke-miterlimit="10"/><path d="m20.7 10c.2 0 .4-.2.4-.4s-.2-.4-.4-.4-.4.2-.4.4.2.4.4.4zm-1.4-.9c-.1-.1-.2-.1-.2-.2-.2-.1-.4-.2-.5-.2s-.3-.1-.4-.1-.1 0-.2 0-.1 0-.2 0-.2 0-.3 0c-.2.1-.4.1-.5.2-.2.1-.4.2-.5.4-.1.1-.2.3-.3.5v.3.1.1c0 .1.1.2.1.3s.1.2.2.3.3.2.5.2h.3c.2 0 .3-.1.5-.2.1 0 .1-.1.1-.2s.1-.2 0-.3c0-.1 0-.1 0-.2-.1-.1-.1-.2-.2-.2-.1-.1-.3-.1-.5-.2 0 0-.1 0-.2 0s-.1 0-.2 0c0 0-.1-.1-.1-.1 0-.1.1-.2.1-.3.1-.1.2-.3.3-.4-.1.1 0 0 .2 0h.3.4c.2 0 .4.1.5.3.1.1.2.2.3.4s.1.4.2.6v.8c-.1.5-.3.9-.5 1.4-.3.5-.6.9-1.1 1.2-.3.3-.7.6-1.1.8-.1.1-.2.1-.4.2 0 .1 0 .1.1.1s.2-.1.3-.1c.6-.3 1.2-.6 1.8-1 .4-.3.9-.6 1.2-1.1.3-.3.5-.6.6-.9.1-.2.2-.5.2-.8s0-.6-.1-.8c-.2-.3-.4-.6-.7-.9zm1.4 1.8c-.2 0-.4.2-.4.4s.2.4.4.4.4-.2.4-.4-.2-.4-.4-.4z" fill="#fff"/><path d="m15.1 5h33.7" fill="none" stroke="#fff" stroke-miterlimit="10" stroke-width=".5"/></svg>