<svg enable-background="new 0 0 60 60" height="60" viewBox="0 0 60 60" width="60" xmlns="http://www.w3.org/2000/svg"><g stroke="#fff" stroke-miterlimit="10" stroke-width=".146"><path d="m56.3 8.2-1.5-1.5.4-.4 1.5 1.5zm-.4.6.2.2.1.1c.2.1.4.1.5 0l.9-.9c.1-.1.1-.4 0-.5l-.1-.1-.1-.1-.4-.4-1.4 1.4s.3.4.3.3zm-5.2-4.1 1.5 1.5-.4.4-1.5-1.5zm.3-.7-.1-.1-.1-.1c-.1-.2-.4-.2-.5 0l-.9.9c-.1.1-.1.4 0 .5l.1.1.1.1.4.3 1.4-1.4zm2.7-1.5 1.5 1.5-.4.4-1.5-1.5zm.3-.7-.1-.1-.1-.1c-.2-.1-.4-.1-.5 0l-.9.9c-.1.2-.1.4 0 .5l.1.1.2.1.3.4 1.4-1.4zm.1 9.4-1.5-1.5.5-.4 1.5 1.5zm-.3.7.1.1.1.1c.2.1.4.1.5 0l.9-.9c.2-.1.2-.4 0-.5l-.1-.1-.1-.1-.3-.4-1.4 1.4zm-32.6 25.4s-.6-.2-1.1-.8c-.5-.5-2-3.2 1.4-6.5 1.5-1.5 3.6-2.7 3.6-2.7s-3.6-1.6-6.4 1.2c-3.6 3.6-3.8 7-5.6 8.8s-7.8 2.1-10.2 4.5-1.9 5.9-.7 8.6c1.2 2.8 2.4 4.6 3.8 6 1.3 1.3 6.8 6.2 11.5 1.6 2.7-2.7 2.5-6.9 4.4-8.8 1.2-1.2 3.7-.9 5.4-2.6s1.5-3.4 1.5-3.4-4 2.8-5.9.9c-1.4-1.3-.5-3.4-.5-3.4z" fill="#063e89"/><path d="m16.9 48.6c-.1.1-.4.1-.5 0l-4.3-4.3c-.1-.1-.1-.4 0-.5l1-1c.1-.1.4-.1.5 0l4.4 4.2c.1.1.1.4 0 .5z" fill="#063e89"/><g fill="#fff"><circle cx="13.4" cy="42.9" r=".2"/><path d="m12.4 44.1c-.1.1-.1.1-.2 0-.1 0-.1-.1 0-.2s.1-.1.2 0 0 .1 0 .2z"/><circle cx="17.8" cy="47.3" r=".2"/><path d="m16.8 48.5c-.1.1-.2.1-.2 0s0-.2 0-.2h.2z"/></g><path d="m13.2 52.3c-.1.2-.4.2-.5 0l-4.3-4.3c-.1-.2-.1-.4 0-.5l1-1c.1-.1.4-.1.5 0l4.3 4.3c.1.1.1.4 0 .5z" fill="#063e89"/><g fill="#fff"><circle cx="9.7" cy="46.6" r=".2"/><circle cx="8.5" cy="47.7" r=".2"/><circle cx="14.1" cy="51" r=".2"/><circle cx="12.9" cy="52.1" r=".2"/><circle cx="15.3" cy="53.8" r=".6"/><circle cx="14.6" cy="56.5" r=".6"/><circle cx="11.9" cy="57.1" r=".6"/></g><g fill="#063e89"><path d="m9.3 55.3c-.1.1-.2.1-.2 0l-3.7-3.7c-.1-.1-.1-.2 0-.2l2.2-2.4c.1-.1.2-.1.3 0l3.7 3.7c.1.1.1.2 0 .3z"/><path d="m50.3 12.3-2-2-31.6 30.4 3.2 3.2zm-2-2c.7-.7.6-2.4 1.2-2.9.6-.6 2.2-1.1 3.9-2.8s3.3-4.6 3.3-4.6-.1 2.6 1.1 3.8c.5.5 1.2.8 1.2.8s-1.5.8-2.5 1.8c-2 2-2.7 4.3-3 4.7-.3.3-1.8-.1-3.1 1.2-.7-.6-2.1-2-2.1-2z"/><circle cx="51.9" cy="7" r=".7"/><circle cx="51.9" cy="7" r=".4"/><circle cx="52.7" cy="9.9" r=".7"/><circle cx="52.7" cy="9.9" r=".4"/><circle cx="54.7" cy="6.8" r=".7"/><circle cx="54.7" cy="6.8" r=".4"/><circle cx="54.8" cy="4.6" r=".7"/><circle cx="54.8" cy="4.6" r=".4"/></g><path d="m7.7 50.2 40.8-39.6m-39.7 40.3 40.3-39.9m-39.5 40.9 39.9-40.3m-39.2 41.5 39.8-41.1" fill="#1d1d1b"/><path d="m7.5 50.2.2.2-1.5 1.6-.2-.2zm1.1.7.2.2-1.6 1.5-.2-.2zm.8 1 .2.2-1.6 1.5-.2-.2zm.7 1.2.2.2-1.6 1.5-.2-.2z" fill="#fff"/><path d="m5.6 51 4 4-.4.4-4-4zm1.6-1.2.9.9-.3.3-.9-.9zm1.2.7.9.9-.3.3-.9-.9zm.8 1 .9.9-.3.3-.9-.9zm.6 1.2.9.9-.3.3-.9-.9z" fill="#063e89"/></g></svg>