<svg enable-background="new 0 0 60 60" height="60" viewBox="0 0 60 60" width="60" xmlns="http://www.w3.org/2000/svg"><path d="m53.4 1.1c-.3-.2-.6.1-.6.1s-.3-.2-.6.2c-.2.3 0 .6 0 .6s-.2.3 0 .6c.2.4.7.1.8.1.2 0 .4.1.4.1l.6-.3s-.3-.2-.3-.5c-.1-.1.2-.6-.3-.9z" fill="#989898"/><path d="m53.6 2.7-.2.3s-.3-.2-.4-.2c-.2 0-.6.3-.9-.1-.2-.3 0-.6 0-.6s-.1-.4.2-.7z" fill="#ccc"/><path d="m52.4 2.5c.1.1.3.1.4 0h.2c.1 0 .2 0 .3.1l.2-.2c0-.1-.1-.2-.1-.3s0-.1 0-.2c0-.2.1-.3-.1-.4 0 0-.1 0-.1-.1 0-.2-.2 0-.2 0l-.1.1-.1-.1s-.1-.1-.3.1-.1.3-.1.4v.1l-.1.1s-.1.2.1.4c-.1 0-.1 0 0 0z" fill="#ccc"/><path d="m53.4 2.5c-.2.1-.3 0-.4 0s-.1 0-.2 0c-.2.1-.3.1-.4 0 0 0 0 0-.1-.1s0-.3 0-.4h.1l-.1-.1s-.1-.2.1-.4z" fill="#989898"/><path d="m51.1 3.3c-.3-.2-.6.1-.6.1s-.3-.2-.6.2c-.3.3-.1.6-.1.6s-.2.3 0 .6c.3.4.7.1.9.1.1 0 .3.1.3.1l.6-.3s-.3-.2-.3-.5c0-.1.2-.6-.2-.9z" fill="#989898"/><path d="m51.3 4.9-.2.3s-.3-.2-.4-.2c-.2 0-.6.3-.9-.1-.2-.3 0-.6 0-.6s-.2-.3.1-.6z" fill="#ccc"/><path d="m50 4.7c.1.1.3.1.4 0h.2c.1 0 .2 0 .3.1l.2-.2c0-.1-.1-.2-.1-.3s0-.1 0-.2c0-.2.1-.3-.1-.4 0 0-.1 0-.1-.1-.2-.1-.3.1-.3.1l-.1.1-.1-.1s-.1-.1-.3.1c-.1.1 0 .3 0 .3v.1.1s-.2.2 0 .4z" fill="#ccc"/><path d="m51.1 4.7c-.2.1-.3 0-.4 0s-.1 0-.2 0c-.2.1-.3.1-.4 0 0 0 0 0-.1-.1s0-.3 0-.4v-.1s-.1-.2.1-.4z" fill="#989898"/><path d="m58.4 6.1c.2.3-.1.6-.1.6s.2.3-.2.6c-.3.3-.6.1-.6.1s-.3.2-.6 0c-.4-.3-.1-.7-.1-.9s-.1-.4-.1-.4l.3-.5s.2.3.5.3c.2 0 .6-.3.9.2z" fill="#989898"/><path d="m56.8 5.9-.3.2s.2.3.2.4c0 .2-.3.6.1.9.3.2.6 0 .6 0s.3.2.6-.1z" fill="#ccc"/><path d="m57 7.2c-.1-.1-.1-.3 0-.4 0-.1 0-.2 0-.2 0-.1 0-.2-.1-.3l.3-.3c.1 0 .2.1.3.1h.2c.2-.1.3-.1.4 0 0 0 0 .1.1.1.1.2-.1.3-.1.3l-.1.1.1.1s.1.1-.1.3-.3.1-.4.1l-.1-.1-.1.1c0 .1-.2.2-.4.1z" fill="#ccc"/><path d="m57.1 6.1-.1.4v.2c-.1.2-.1.3 0 .4 0 0 0 0 .1.1s.3 0 .4 0l.1-.1.1.1s.2.1.4-.1z" fill="#989898"/><path d="m56.1 8.3c.1.3-.1.6-.1.6s.2.3-.2.6c-.3.3-.6.1-.6.1s-.3.2-.6 0c-.4-.3-.1-.7-.1-.9s-.1-.4-.1-.4l.3-.6s.2.3.5.3c.2.1.6-.1.9.3z" fill="#989898"/><path d="m54.5 8.1-.3.2s.2.3.2.4c0 .2-.3.6.1.9.3.2.6 0 .6 0s.3.2.6-.1z" fill="#ccc"/><path d="m54.7 9.4c-.1-.1-.1-.3 0-.4 0-.1 0-.2 0-.2 0-.1 0-.2-.1-.3l.2-.2c.1 0 .2.1.3.1h.2c.2 0 .3-.1.4.1 0 0 0 .1.1.1.1.2-.1.3-.1.3l-.1.1h.2s.1.1-.1.3-.3.1-.4.1l-.1-.1-.1.1s-.2.2-.4 0z" fill="#ccc"/><path d="m54.7 8.3-.1.1c0 .1.1.2.1.3v.2c-.1.2-.1.3 0 .4 0 0 0 0 .1.1s.3 0 .4 0l.1-.1.1.1s.2.1.4-.1z" fill="#989898"/><path d="m6.8 39.5s.9-.2 1.1-.2c.1 0 .4.4.8.6 1 .5 1.8.2 1.8.2l-2 1z" fill="#3d3c3b"/><path d="m19.8 52.6s.2-.9.2-1.1c0-.1-.4-.4-.6-.8-.5-1-.2-1.8-.2-1.8l-1 2z" fill="#2d2d2d"/><path d="m19.8 52.6c.1-.3-.2 0-.7-1.2-.8-2.3 1-4.4 2.5-4.9 1.3-.4 2.3.5 2.6.4.1 0 3.2-2.2 4-4.9.7-2.3-.6-4.8-.4-6.3.3-2 1.5-3.2 1.5-3.2l-2.6-2.6s-1.1 1.3-3.1 1.6c-1.5.2-4-1-6.3-.4-2.7.8-4.9 3.9-4.9 4-.1.3.8 1.3.4 2.6-.4 1.5-2.6 3.2-4.9 2.5-1.2-.4-1-.8-1.2-.7-.3.1-4.8 2.2-6 4.9s-.9 5.3.6 7.8c.5.8 1.5 2.3 2.7 3.5 1.1 1.1 2.4 2 3.1 2.4 2.4 1.4 5 1.8 7.8.6 2.7-1.3 4.8-5.8 4.9-6.1z" fill="#781d77"/><path d="m28.1 31.3-1.4-1.4s-1.1 1.3-3.1 1.6c-1.5.2-4-1-6.3-.4-2.7.8-4.9 3.9-4.9 4-.1.3.8 1.3.4 2.6-.4 1.5-2.6 3.2-4.9 2.5-1.2-.4-1-.8-1.2-.7-.3.1-4.8 2.2-6 4.9s-.9 5.3.6 7.8c.5.8 1.5 2.3 2.7 3.5z" fill="#781d77"/><path d="m4.2 55.4c-1.2-1.2-2.2-2.7-2.6-3.3-1.5-2.5-1.7-5-.6-7.5 1.1-2.4 5-4.4 5.7-4.7.1.1.4.4 1.1.6 1.3.4 2.4.1 3.1-.3 1-.5 1.9-1.5 2.2-2.4.3-1 0-1.8-.3-2.3 0-.1-.1-.2-.1-.3.3-.5 2.3-3.1 4.7-3.8 1.3-.4 2.7-.1 3.9.1.9.2 1.7.3 2.4.2 1.6-.2 2.6-1 3-1.4l2.2 2.2c-.4.5-1.1 1.6-1.4 3.1-.1.7.1 1.5.2 2.4.2 1.2.5 2.6.2 3.9-.7 2.4-3.3 4.4-3.8 4.7-.1 0-.2-.1-.3-.1-.5-.2-1.3-.6-2.3-.3-.9.3-1.9 1.1-2.4 2.2-.4.7-.7 1.8-.3 3.1.2.7.5.9.6 1.1-.3.7-2.3 4.6-4.7 5.7-2.5 1.1-5 .9-7.5-.6-.3-.2-1.7-1.1-3-2.3z" fill="#781d77"/><path d="m5.7 56.6c-.2.2-.4.1-.7-.1 0 0-.5-.4-1.2-1-.7-.7-1-1.2-1-1.2-.2-.3-.3-.5-.1-.7s.6-.2.8 0l2.2 2.2c.2.3.2.6 0 .8z" fill="#818181"/><path d="m2.8 53.6c-.1 0-.1 0 0 0-.3.3-.2.5 0 .8 0 0 .4.5 1 1.2.7.7 1.2 1 1.2 1 .3.2.5.3.7.1 0 0 0 0 0-.1 0 0-.5-.2-1.6-1.4-1-1.1-1.3-1.6-1.3-1.6z" fill="#ccc"/><path d="m3.9 55.4c-.7-.7-1-1.2-1-1.2-.2-.3-.2-.4-.1-.6.2-.2.5-.2.6 0l2.2 2.2c.2.2.2.5 0 .6-.1.1-.2.1-.6-.1.1.2-.4-.2-1.1-.9z" fill="#ccc"/><path d="m2.8 53.7c-.2.2-.2.3 0 .6 0 0 .4.5 1 1.2h.2c.6.6 1.1 1 1.1 1 .3.2.4.2.6.1s-.6-.5-1.5-1.4-1.4-1.5-1.4-1.5z" fill="#818181"/><path d="m15.1 49.6c-.1 0-.6-.5-.6-.5s1.5-1.5 1.8-1.8.4-.5 0-.8c-.2-.2-.3-.3-.3-.3l11.3-11.5s-.4.5-.3 2.2c.1 1.8.9 3.6-.1 5.9-1 2.1-2.9 3.1-3 3.1-.3.1-1-.4-2.2-.2-1.3.2-2.3 1-3.3 2.9-.3.6-.3 1.2-.4 1.2s-.6-.3-1.6-.3c-.6-.2-1 .1-1.3.1z" fill="#f3f3f3"/><path d="m27.2 38.2c-.1-.5-.2-1-.2-1.4-.1-1.7.3-2.2.3-2.2l-11.2 11.5s.1.1.3.3c.4.3.3.5 0 .8-.4.3-1.9 1.8-1.9 1.8s.5.5.6.5c.2 0 .4-.1 1-.2z" fill="#d8d9d8"/><path d="m14.8 49c.4-.4 1.4-1.4 1.6-1.7.2-.1.3-.3.3-.6 0-.2-.1-.4-.3-.5 0 0 0 0-.1-.1l-.1-.1 10.6-10.7c-.1.3-.1.8 0 1.4 0 .5.1 1 .2 1.5.2 1.3.5 2.7-.3 4.3-.9 1.9-2.6 2.9-2.8 3 0 0-.2 0-.3-.1-.4-.1-1-.3-1.8-.2-1.5.3-2.5 1.2-3.4 3-.2.4-.3.7-.3 1v.1c-.3-.1-.7-.2-1.4-.2-.5 0-.9.1-1.1.2-.1 0-.2.1-.2.1-.2 0-.4-.1-.6-.4z" fill="#d8d9d8"/><path d="m49.2 8.1s.3-.5.5-1.1c.1-.3.1-.7 0-.9 0-.1 0-.1 0-.1 0-.2.2-.3.3-.4.1 0 .2-.1.3-.2.4-.3 1.8-1.3 2.7-2.2s1.5-1.7 1.7-2.1c.1-.1.1-.2.2-.3s.1-.3.3-.3c.1 0 .2 0 .3.1 0 0 .1.1.2.2.1.2.2.3.4.5s.5.4.8.6c.5.3.9.3 1.3.4s.7.1 1.1.3c.2.1.4.2.5.4 0 .2.2.5.2.7s-.2.4-.4.4c0 0-.1 0-.1.1-.6.3-2.3 1.3-3.7 2.7-.9.9-1.4 1.5-1.8 1.9-.3.3-.4.4-.5.5s-.2 0-.4 0-.5-.1-.9.1c-.7.2-1.1.5-1.1.5l-.2.2-1.8-1.8z" fill="#333"/><path d="m57 2.1c-.1 0-.2-.1-.2-.1-.3-.2-.6-.3-.8-.6-.2-.2-.3-.3-.4-.5-.1-.1-.1-.2-.2-.2-.1-.1-.2-.1-.3-.1-.2 0-.2.2-.3.3 0 .1-.1.2-.2.3-.2.3-.9 1.2-1.7 2.1s-2.2 1.9-2.7 2.2c-.1.1-.2.1-.3.2s-.3.1-.3.4v.1c0 .2.1.6 0 .9-.2.6-.5 1.1-.5 1.1l-.2.2.9.9z" fill="#010101"/><path d="m49.3 8.2s.4-.4.6-1.1c.2-.5 0-1 0-1.2 0-.1.1-.1.5-.3s1.8-1.3 2.7-2.2 1.5-1.8 1.7-2.1c.3-.4.2-.7.5-.3.2.4.7.8 1.2 1.1 1 .5 1.6.3 2.4.7.4.3.7.6.7.8 0 .1-.2.2-.4.3-.6.3-2.3 1.3-3.8 2.8s-2 2.3-2.2 2.4c-.1.1-.6-.1-1.3.1-.8.2-1.1.6-1.1.6z" fill="#010101"/><path d="m54.4 3.7c-.2.1-.4.1-.5-.1s-.1-.4.1-.5c.1-.1.3-.1.4.1.2.2.1.4 0 .5z" fill="#ccc"/><path d="m52.1 5.8c-.2.1-.4.1-.5-.1s-.1-.4.1-.5.4-.1.5.1c.1.1.1.3-.1.5z" fill="#ccc"/><path d="m56.3 5.7c-.2.1-.4.1-.5-.1s-.1-.4.1-.5c.1-.2.4-.1.5 0 .1.2.1.4-.1.6z" fill="#ccc"/><path d="m54.2 7.8c-.2.1-.4.1-.5-.1s-.1-.4.1-.5.4-.1.5.1 0 .4-.1.5z" fill="#ccc"/><path d="m5.2 51.4-1.6 2s-.1.1 0 .2c0 .1.1.1.1.1l.1-.1 1.5-2z" fill="#ccc"/><path d="m3.6 53.6c0-.1 0-.1 0 0l1.5-2.1h.1z" fill="#818181"/><path d="m8.3 54.4-3.4-3.4.3.1 3 3z" fill="#676767"/><path d="m5.3 51.4c.1 0 .1 0 0 0l1.5-1.7-.1-.1-1.4 1.8c0-.1 0-.1 0 0z" fill="#ccc"/><path d="m5.4 51.3 1.3-1.7h.1z" fill="#818181"/><path d="m8 54c-.1 0 0-.1 0 0l1.7-1.5.1.1-1.8 1.4c.1.1 0 .1 0 0z" fill="#ccc"/><path d="m8 54 1.7-1.4v.1z" fill="#818181"/><path d="m7.9 54.2-2 1.6s-.1.1-.2 0c-.1 0-.1-.1-.1-.1l.1-.1 2-1.5z" fill="#ccc"/><path d="m5.8 55.7 2-1.5v.1z" fill="#818181"/><path d="m11.3 52.4-.1.1-4.3-4.4.3-.2 4.2 4.3z" fill="#676767"/><path d="m3.6 53.7.3-.3 2.1 2.1-.3.3z" fill="#ccc"/><path d="m3.7 53.8.1-.1 1.9 1.9-.1.1z" fill="#818181"/><path d="m6.2 52.4-.5.6-.1-.1z" fill="#ccc"/><path d="m6.2 52.2 1.3-1.8.1.1-1.4 1.7c.1.1.1.1 0 0z" fill="#ccc"/><path d="m6.3 52.2 1.3-1.7z" fill="#818181"/><path d="m7 53.2-.6.4v.1z" fill="#ccc"/><path d="m7.1 53.1s.1 0 0 0l1.8-1.3-.1-.1z" fill="#ccc"/><path d="m7.1 53.1 1.7-1.4-1.7 1.4c.1 0 .1 0 0 0z" fill="#818181"/><path d="m6.7 52.7c0-.1 0-.1 0 0l1.5-1.6.1.1z" fill="#ccc"/><path d="m6.7 52.6 1.5-1.5z" fill="#818181"/><path d="m5.5 53.8 1.1-1.1.1.1z" fill="#ccc"/><path d="m6 49 .8-.8 4.4 4.4-.8.8z" fill="#989898"/><path d="m6 48.9.4-.4 4.4 4.4-.4.4z" fill="#ccc"/><path d="m6.3 49 .6-.6 4.1 4.1-.6.6z" fill="#ccc"/><path d="m6.3 48.9.3-.3 4.1 4.1-.3.3z" fill="#989898"/><path d="m4.7 51.2.1-.1 3.4 3.4-.1.1z" fill="#b4b4b4"/><path d="m4.8 51.2.1-.1 1.7 1.7-.1.1z" fill="#ccc"/><path d="m8.2 57.7s-.1-.1-.1-.2l-.2-1.8c0-.2.1-.3.3-.3l7.5-.7c.1 0 .2 0 .2.1 0 0 .1.1.1.2l.2 1.8c0 .2-.1.3-.3.3l-7.5.7s-.1 0-.2-.1z" fill="#989898"/><path d="m8.2 57.7c-.1-.1-.1-.1-.1-.2l-.1-.9 8.1-.8.1.9c0 .1 0 .2-.1.2 0 .1-.1.1-.2.1l-3.7.4-3.7.4h-.1c-.1 0-.1 0-.2-.1z" fill="#ccc"/><path d="m15.8 54.8s-.1-.1-.2-.1l-7.5.7c-.1 0-.2.1-.2.2l.2 1.8s0 .1.1.1c0 0 .1.1.2.1l7.5-.7c.1 0 .2-.1.2-.2l-.2-1.8s0 0-.1-.1z" fill="#ccc"/><path d="m8.1 56.6.1.9v.1.1h.1.1l3.7-.4 3.7-.4c.1 0 .1 0 .1-.1v-.1l.1-.8z" fill="#989898"/><path d="m15.8 55.9c0-.1-.1-.1-.2-.1s-.1.1-.1.2.1.1.2.1c0-.1.1-.1.1-.2z" fill="#818181"/><path d="m15.8 55.9h-.3z" fill="#4e4e4e"/><path d="m8.6 56.7c0-.1 0-.2 0-.2-.1 0-.2 0-.2 0v.2c.1.1.2 0 .2 0z" fill="#818181"/><path d="m8.6 56.7-.3-.2z" fill="#4e4e4e"/><path d="m50.5 10.5-1.8-1.7.2-.2 1.7 1.7z" fill="#fff"/><path d="m23.9 38c-.4.1-.8-.3-1.7-1.2s-1-1.2-.9-1.6c.1-.3 27.7-27 27.7-27l1.8 1.9c.1 0-26.5 27.8-26.9 27.9z" fill="#a6832e"/><path d="m22.4 37c-.9-.9-1.2-1.1-1-1.8.1-.3 27.7-27 27.7-27l.9.9z" fill="#b99b38"/><path d="m50.5 10.6-1.9-2 .1-.1 1.9 1.9z" fill="#fff"/><path d="m48.3 12.8-1.9-2 .1-.1 1.9 2z" fill="#4d4d4d"/><path d="m46.5 14.8-2.1-2.1.1-.1z" fill="#4d4d4d"/><path d="m44.6 16.7-2.1-2.1.1-.1 2.1 2.1z" fill="#4d4d4d"/><path d="m42.9 18.5-2.2-2.2.1-.1 2.2 2.2z" fill="#4d4d4d"/><path d="m41.2 20.3-2.2-2.3.1-.1 2.2 2.3z" fill="#4d4d4d"/><path d="m39.7 21.8-2.3-2.2.1-.2 2.3 2.3z" fill="#4d4d4d"/><path d="m38.2 23.4-2.3-2.4.1-.1 2.3 2.4z" fill="#4d4d4d"/><path d="m36.8 24.9-2.4-2.4.1-.2 2.4 2.4z" fill="#4d4d4d"/><path d="m35.5 26.2-2.5-2.4.1-.1 2.5 2.4z" fill="#4d4d4d"/><path d="m34.2 27.5-2.4-2.5.1-.1 2.4 2.5z" fill="#4d4d4d"/><path d="m33.1 28.7-2.5-2.5.1-.1 2.5 2.5z" fill="#4d4d4d"/><path d="m32 29.8-2.5-2.6.1-.1 2.5 2.6z" fill="#4d4d4d"/><path d="m30.9 30.9-2.5-2.6.1-.1 2.6 2.6z" fill="#4d4d4d"/><path d="m29.9 31.9-2.5-2.6.1-.1 2.5 2.6z" fill="#4d4d4d"/><path d="m29 32.9-2.6-2.7.1-.1 2.7 2.7z" fill="#4d4d4d"/><path d="m28.2 33.7-2.7-2.6.1-.1 2.7 2.6z" fill="#4d4d4d"/><path d="m27.3 34.7-2.7-2.7.1-.1 2.7 2.7z" fill="#4d4d4d"/><path d="m26.4 35.6-2.7-2.7.1-.1 2.7 2.7z" fill="#4d4d4d"/><path d="m25.6 36.5-2.7-2.8.1-.1 2.7 2.7z" fill="#4d4d4d"/><path d="m24.9 37.2-2.7-2.8.1-.1 2.7 2.7z" fill="#4d4d4d"/><path d="m24.2 37.8-2.7-2.7.1-.1 2.7 2.7z" fill="#4d4d4d"/><g fill="#ccc"><path d="m48.4 12.8-2-2 .1-.1 2 2z"/><path d="m46.5 14.7-2-2 .1-.1 2 2z"/><path d="m44.6 16.7-2.1-2.1.1-.1 2.1 2.1z"/><path d="m42.9 18.5-2.1-2.2.1-.1 2.1 2.2z"/><path d="m41.2 20.2-2.2-2.2.1-.1 2.2 2.2z"/><path d="m39.7 21.8-2.3-2.3.1-.1 2.3 2.3z"/><path d="m38.2 23.3-2.3-2.3.1-.1 2.3 2.3z"/><path d="m36.8 24.8-2.3-2.4.1-.1 2.3 2.4z"/><path d="m35.5 26.2-2.4-2.5.1-.1 2.4 2.5z"/><path d="m34.3 27.4-2.5-2.4.1-.1 2.5 2.4z"/><path d="m33.1 28.6-2.4-2.5.1-.1 2.4 2.5z"/><path d="m32 29.8-2.5-2.6.1-.1 2.5 2.6z"/><path d="m31 30.9-2.6-2.6.1-.1 2.6 2.6z"/><path d="m30 31.9-2.6-2.6.1-.1 2.6 2.6z"/><path d="m29.1 32.8-2.6-2.6.1-.1 2.6 2.6z"/><path d="m28.2 33.7-2.6-2.6.1-.1 2.6 2.6z"/><path d="m27.3 34.6-2.6-2.7.1-.1 2.6 2.7z"/><path d="m26.4 35.6-2.7-2.7.1-.1 2.7 2.7z"/><path d="m25.6 36.4-2.7-2.7.1-.1 2.7 2.7z"/><path d="m24.9 37.1-2.7-2.7.1-.1 2.7 2.7z"/><path d="m24.2 37.8-2.7-2.8.2-.1 2.6 2.8z"/></g><path d="m44.8 14.8c-.1.1-.3.1-.4 0s-.1-.3 0-.4.3-.1.4 0 .1.3 0 .4z" fill="#eedd84"/><path d="m41.2 18.4c-.1.1-.3.1-.4 0s-.1-.3 0-.4.3-.1.4 0 .1.3 0 .4z" fill="#eedd84"/><path d="m38 21.5c-.1.1-.3.1-.4 0s-.1-.3 0-.4.3-.1.4 0c.1.2.1.3 0 .4z" fill="#eedd84"/><path d="m35.2 24.5c-.1.1-.3.1-.4 0s-.1-.3 0-.4.3-.1.4 0 .1.3 0 .4z" fill="#eedd84"/><path d="m33.4 27.7c-.1.1-.3.1-.4 0s-.1-.3 0-.4.3-.1.4 0c.1.2.1.3 0 .4z" fill="#eedd84"/><path d="m31.9 26.3c-.1.1-.3.1-.4 0s-.1-.3 0-.4.3-.1.4 0 .1.3 0 .4z" fill="#eedd84"/><path d="m29.4 30.3c-.1.1-.3.1-.4 0s-.1-.3 0-.4.3-.1.4 0 .1.3 0 .4z" fill="#eedd84"/><path d="m27.6 32.1c-.1.1-.3.1-.4 0s-.1-.3 0-.4.3-.1.4 0 .1.3 0 .4z" fill="#eedd84"/><path d="m25.8 33.9c-.1.1-.3.1-.4 0s-.1-.3 0-.4.3-.1.4 0 .1.3 0 .4z" fill="#eedd84"/><path d="m24.2 35.5c-.1.1-.3.1-.4 0s-.1-.3 0-.4.3-.1.4 0c.1.2.1.3 0 .4z" fill="#eedd84"/><path d="m24.5 39c.1-.1.1-.2 0-.3l-3.9-3.9c-.1-.1-.2 0-.3 0l-1.9 1.9c-.1.1-.1.2 0 .3l3.9 3.9c.1.1.2 0 .3 0z" fill="#333"/><path d="m22.6 36.7-2-2h-.1s-.1 0-.1.1l-1.9 1.9-.1.1v.1l2 2z" fill="#010101"/><path d="m24.4 38.9c.1-.1.1-.2 0-.2l-3.8-3.8c-.1-.1-.2-.1-.2 0l-1.8 1.8c-.1.1-.1.2 0 .2l3.8 3.8c.1.1.2.1.2 0z"/><path d="m22.5 36.8-1.9-1.9h-.1-.1l-.9.9-.9.9v.1.1l1.9 1.9z" fill="#333"/><path d="m23.9 38.7c.1-.1.1-.2 0-.2l-3.2-3.2c-.1-.1-.2 0-.2 0l-1.5 1.5v.3l3.2 3.2c.1.1.2 0 .2 0z" fill="#333"/><path d="m22.4 36.9-1.6-1.6h-.1s-.1 0-.1.1l-1.5 1.5s0 .1-.1.1v.1l1.6 1.6z" fill="#010101"/><path d="m23.8 38.7s0-.1 0-.2l-3.1-3.1s-.1 0-.2 0l-1.5 1.5v.2l3.1 3.1h.2z" fill="#010101"/><path d="m22.3 37-1.5-1.5h-.1-.1l-.7.7-.7.7v.1.1l1.5 1.5z" fill="#333"/><path d="m19 36.8c0-.1-.1-.2-.2-.2s-.2.1-.2.2.1.2.2.2c.1-.1.2-.1.2-.2z" fill="#818181"/><path d="m20.6 35.2c.1-.1.1-.2 0-.2-.1-.1-.2-.1-.2 0-.1.1-.1.2 0 .2 0 .1.1.1.2 0z" fill="#818181"/><path d="m19.7 36.1c.1 0 .2-.1.2-.2s-.1-.2-.2-.2-.2.1-.2.2c.1.2.2.2.2.2z" fill="#818181"/><path d="m24.1 38.7c.1-.1.2-.1.2 0 .1.1.1.2 0 .2-.1.1-.2.1-.2 0 0 0 0-.1 0-.2z" fill="#333"/><path d="m23.2 39.6c0-.1.1-.2.2-.2s.2.1.2.2-.1.2-.2.2c-.2-.1-.2-.2-.2-.2z" fill="#333"/><path d="m22.5 40.4c.1 0 .2.1.2.1 0 .1-.1.2-.1.2-.1 0-.2-.1-.2-.1 0-.2 0-.2.1-.2z" fill="#333"/><path d="m19 36.8h-.3z" fill="#010101"/><path d="m20.6 35.2-.2-.2z" fill="#010101"/><path d="m19.8 36.1v-.3.3c-.1 0-.1 0 0 0z" fill="#010101"/><path d="m24.1 38.7.2.2z" fill="#010101"/><path d="m23.2 39.6c0-.1 0-.1 0 0h.3z" fill="#010101"/><path d="m22.5 40.4v.3z" fill="#010101"/><path d="m22.4 40.1s-.1 0-.2 0l-3-3s0-.1 0-.2l1.4-1.4h.2l3 3v.2z" fill="#adadad"/><path d="m20.7 38.6-1.5-1.5v-.1-.1l.7-.7.7-.7h.1.1l1.5 1.5z" fill="#8b8a8b"/><path d="m22.4 39.9h-.1l-2.8-2.8v-.1l1.2-1.2h.1l2.8 2.8v.1z" fill="#d6d5d5"/><path d="m23.5 38.5-2.8-2.8h-.1l-.6.6v.1l2.8 2.8h.1l.6-.7c.1.1.1.1 0 0z" fill="#fafbfc"/><path d="m20.8 36.4c-.1 0-.2-.1-.2-.2s.1-.2.2-.2.2.1.2.2c-.1.1-.2.2-.2.2z" fill="#b0b0b0"/><path d="m21.1 36.8c-.1-.1-.1-.2 0-.2.1-.1.2-.1.2 0 .1.1.1.2 0 .2 0 0-.1 0-.2 0z" fill="#b0b0b0"/><path d="m23.2 38.7c-.1.1-.2.1-.2 0-.1-.1-.1-.2 0-.2.1-.1.2-.1.2 0 .1 0 .1.1 0 .2z" fill="#b0b0b0"/><path d="m22.7 38.3c-.1 0-.2-.1-.2-.2s.1-.2.2-.2.2.1.2.2c-.1.1-.1.2-.2.2z" fill="#b0b0b0"/><path d="m22 37.7c0-.1.1-.2.2-.2s.2.1.2.2-.1.2-.2.2c-.1-.1-.2-.1-.2-.2z" fill="#b0b0b0"/><path d="m21.7 37.3c-.1 0-.2-.1-.2-.2s.1-.2.2-.2.2.1.2.2c0 .2-.1.2-.2.2z" fill="#b0b0b0"/><path d="m20.7 36.4v-.3.3c.1 0 .1 0 0 0z" fill="#8b8a8b"/><path d="m21.1 36.8.2-.2z" fill="#8b8a8b"/><path d="m23.2 38.7-.2-.2z" fill="#8b8a8b"/><path d="m22.7 38.3v-.3z" fill="#8b8a8b"/><path d="m22 37.7h.3z" fill="#8b8a8b"/><path d="m21.7 37.3v-.3z" fill="#8b8a8b"/><path d="m17 46.5c.1-.1.1-.2 0-.3l-3.9-3.9c-.1-.1-.2 0-.3 0l-1.9 1.9c-.1.1-.1.2 0 .3l3.9 3.9c.1.1.2 0 .3 0z" fill="#333"/><path d="m15.1 44.3-2-2h-.1s-.1 0-.1.1l-1.9 1.9-.1.1v.1l2 2z" fill="#010101"/><path d="m16.9 46.5c.1-.1.1-.2 0-.2l-3.8-3.8c-.1-.1-.2-.1-.2 0l-1.9 1.7c-.1.1-.1.2 0 .2l3.8 3.8c.1.1.2.1.2 0z"/><path d="m15 44.3-1.9-1.9h-.1-.1l-.9.9-1 .9v.1.1l1.9 1.9z" fill="#333"/><path d="m16.4 46.3c.1-.1.1-.2 0-.2l-3.2-3.2c-.1-.1-.2 0-.2 0l-1.5 1.5c-.1.1-.1.2 0 .2l3.2 3.2c.1.1.2 0 .2 0z" fill="#333"/><path d="m14.8 44.5-1.6-1.6h-.1s-.1 0-.1.1l-1.5 1.5s0 .1-.1.1v.1l1.6 1.6z" fill="#010101"/><path d="m16.3 46.2s0-.1 0-.2l-3-3s-.1 0-.2 0l-1.5 1.5v.2l3.1 3.1h.2z" fill="#010101"/><path d="m14.8 44.5-1.5-1.5h-.1-.1l-.7.7-.7.7v.1.1l1.5 1.5z" fill="#333"/><path d="m11.4 44.3c0-.1-.1-.2-.2-.2s-.2.1-.2.2.1.2.2.2c.2 0 .2-.1.2-.2z" fill="#818181"/><path d="m13.1 42.7c.1-.1.1-.2 0-.2-.1-.1-.2-.1-.2 0-.1.1-.1.2 0 .2 0 .1.1.1.2 0z" fill="#818181"/><path d="m12.2 43.7c.1 0 .2-.1.2-.2s-.1-.2-.2-.2-.2.1-.2.2c.1.1.1.2.2.2z" fill="#818181"/><path d="m16.6 46.2c.1-.1.2-.1.2 0 .1.1.1.2 0 .2-.1.1-.2.1-.2 0-.1 0-.1-.1 0-.2z" fill="#333"/><path d="m15.6 47.1c0-.1.1-.2.2-.2s.2.1.2.2-.1.2-.2.2c-.1-.1-.2-.1-.2-.2z" fill="#333"/><path d="m15 47.9c.1 0 .2.1.2.1 0 .1-.1.2-.1.2-.1 0-.2-.1-.2-.1-.1-.1 0-.2.1-.2z" fill="#333"/><path d="m11.4 44.3h-.3z" fill="#010101"/><path d="m13.1 42.7-.2-.2z" fill="#010101"/><path d="m12.2 43.7v-.3z" fill="#010101"/><path d="m16.6 46.2.2.2z" fill="#010101"/><path d="m15.6 47.1h.3z" fill="#010101"/><path d="m15 47.9v.3z" fill="#010101"/><path d="m14.9 47.6s-.1 0-.2 0l-3-3s0-.1 0-.2l1.4-1.4h.2l3 3v.2z" fill="#adadad"/><path d="m13.2 46.1-1.5-1.5v-.1-.1l.7-.7.7-.7h.1.1l1.5 1.5z" fill="#8b8a8b"/><path d="m14.8 47.4h-.1l-2.8-2.8v-.1l1.2-1.2h.1l2.8 2.8v.1z" fill="#d6d5d5"/><path d="m16 46.1-2.8-2.8h-.1l-.6.6v.1l2.8 2.8h.1l.6-.7c.1.1.1 0 0 0z" fill="#fafbfc"/><path d="m13.2 43.9c-.1 0-.2-.1-.2-.2s.1-.2.2-.2.2.1.2.2-.1.2-.2.2z" fill="#b0b0b0"/><path d="m13.6 44.3c-.1-.1-.1-.2 0-.2.1-.1.2-.1.2 0 .1.1.1.2 0 .2-.1.1-.2.1-.2 0z" fill="#b0b0b0"/><path d="m15.7 46.2c-.1.1-.2.1-.2 0-.1-.1-.1-.2 0-.2.1-.1.2-.1.2 0 .1.1.1.2 0 .2z" fill="#b0b0b0"/><path d="m15.1 45.8c-.1 0-.2-.1-.2-.2s.1-.2.2-.2.2.1.2.2-.1.2-.2.2z" fill="#b0b0b0"/><path d="m14.5 45.2c0-.1.1-.2.2-.2s.2.1.2.2-.1.2-.2.2-.2-.1-.2-.2z" fill="#b0b0b0"/><path d="m14.2 44.9c-.1 0-.2-.1-.2-.2s.1-.2.2-.2.2.1.2.2c-.1.1-.1.2-.2.2z" fill="#b0b0b0"/><path d="m13.2 43.9v-.3z" fill="#8b8a8b"/><path d="m13.6 44.3.2-.2z" fill="#8b8a8b"/><path d="m15.7 46.2-.2-.2z" fill="#8b8a8b"/><path d="m15.1 45.8v-.3z" fill="#8b8a8b"/><path d="m14.5 45.2h.3z" fill="#8b8a8b"/><path d="m14.2 44.9v-.3z" fill="#8b8a8b"/><path d="m54.3 3.6c-.1.1-.2 0-.3 0-.1-.1 0-.2 0-.3.1-.1.2 0 .3 0 .1.1.1.2 0 .3z" fill="#818181"/><path d="m52 5.6c-.1.1-.2 0-.3 0-.1-.1 0-.2 0-.3.1-.1.2 0 .3 0 .1.1.1.3 0 .3z" fill="#818181"/><path d="m56.2 5.5c-.1.1-.2 0-.3 0-.1-.1 0-.2 0-.3.1-.1.2 0 .3 0 .1.1.1.3 0 .3z" fill="#818181"/><path d="m54.1 7.7c-.1.1-.2 0-.3 0-.1-.1 0-.2 0-.3.1-.1.2 0 .3 0 .1.1.1.2 0 .3z" fill="#818181"/><path d="m24.3 44.9c0 .1 0 .3-.2.3-.1 0-.3 0-.3-.2 0-.1 0-.3.2-.3.1 0 .3.1.3.2z" fill="#989898"/><path d="m24.3 44.9-.5.1z" fill="#4e4e4e"/><path d="m26.6 36.5c0 .1 0 .3-.2.3-.1 0-.3 0-.3-.2 0-.1 0-.3.2-.3s.3.1.3.2z" fill="#b4b4b4"/><path d="m26.6 36.5-.5.1z" fill="#676767"/><path d="m20.4 42.4c.1 0 .2.2.2.3s-.2.2-.3.2-.2-.2-.2-.3c0-.2.2-.3.3-.2z" fill="#b4b4b4"/><path d="m20.4 42.4-.1.5z" fill="#676767"/><path d="m17.9 49c-.1.1-.2.1-.3 0s-.1-.2 0-.3.2-.1.3 0 .1.2 0 .3z" fill="#989898"/><path d="m17.9 49-.4-.3z" fill="#4e4e4e"/><path d="m14 50.8h-.1l-5.4-5.4v-.1l.8-.8h.1l5.4 5.4v.1z" fill="#010101"/><path d="m14 50.8c0 .1 0 .1 0 0-.1 0-.1 0-.1 0l-5.4-5.4s0 0 0-.1c0 0 0 0 0-.1l.4-.4 5.6 5.6z" fill="#434343"/><path d="m14 50.7-5.4-5.3v-.1l.7-.7h.1l5.3 5.3v.1z" fill="#434343"/><path d="m14 50.7-5.4-5.3.4-.4 5.4 5.4z" fill="#010101"/><path d="m10.5 46.3.2-.2.4.4-.2.2z" fill="#ccc"/><path d="m10.5 46.3.4.3-.1.1z" fill="#818181"/><path d="m11.1 47.2.2-.2.4.4-.2.2z" fill="#ccc"/><path d="m11.7 48 .2-.2.4.4-.2.2z" fill="#ccc"/><path d="m12.4 48.9.2-.2.4.4-.2.2z" fill="#ccc"/><path d="m11.1 47.1.4.3-.1.1z" fill="#818181"/><path d="m11.8 48 .4.3-.1.1z" fill="#818181"/><path d="m12.3 48.8.4.3-.1.1z" fill="#818181"/><path d="m50.4 10.3-16 16.5-24.9 25.4-.1-.1 24.9-25.3 16-16.6 3.7-2.7v.1z" fill="#ccc"/><path d="m50 9.8-16.2 16.5-25.1 25.2v-.1l25-25.2 16.2-16.5 6.1-4.4.1.1z" fill="#ccc"/><path d="m49.5 9.3-16.4 16.3-25.2 25.1v-.1l25.1-25.1 16.5-16.2 4.7-5.9v.1z" fill="#ccc"/><path d="m49.1 8.9-16.4 15.9-25.5 25.1-.1-.1 25.5-25.1 16.5-15.8 2.7-3.5.1.1z" fill="#ccc"/><path d="m14.1 55.2c-.5 0-.8.5-.8.9 0 .5.5.8.9.8.5 0 .8-.5.8-.9 0-.5-.5-.9-.9-.8z" fill="#010101"/><path d="m13.3 56.1c0 .5.5.8.9.8.5 0 .8-.5.8-.9z" fill="#333"/><path d="m14.2 56.6c-.3 0-.6-.2-.6-.5s.2-.6.5-.6.6.2.6.5-.2.6-.5.6z" fill="#010101"/><path d="m13.6 56.1c0-.3.2-.6.5-.6s.6.2.6.5z" fill="#333"/><path d="m9.8 55.6c-.5 0-.8.5-.8.9 0 .5.5.8.9.8.5 0 .8-.5.8-.9 0-.5-.4-.8-.9-.8z" fill="#010101"/><path d="m9 56.6c0 .5.5.8.9.8.5 0 .8-.5.8-.9z" fill="#333"/><path d="m10 57c-.3 0-.6-.2-.6-.5s.2-.6.5-.6.6.2.6.5-.2.6-.5.6z" fill="#010101"/><path d="m9.4 56.5c0-.3.2-.6.5-.6s.6.2.6.5z" fill="#333"/></svg>