<svg height="60" width="60" xmlns="http://www.w3.org/2000/svg"><g stroke="#fff" stroke-miterlimit="10" stroke-width=".146"><path d="m56.28 8.23-1.48-1.5.44-.43 1.5 1.5zm-.34.62.13.13.1.1c.15.15.4.15.53 0l.9-.88c.13-.14.13-.37 0-.52l-.12-.1-.13-.14-.35-.34-1.4 1.4zm-5.26-4.18 1.48 1.5-.44.43-1.5-1.5zm.34-.62-.13-.13-.13-.1c-.14-.15-.38-.16-.52 0l-.9.88c-.13.14-.13.37 0 .52l.12.1.13.13.36.35 1.4-1.4-.34-.35zm2.68-1.57 1.5 1.48-.44.45-1.5-1.47zm.35-.63-.13-.13-.1-.1c-.15-.15-.38-.15-.52 0l-.9.88c-.14.15-.14.38 0 .52l.1.1.15.14.34.35 1.4-1.4-.35-.34zm.1 9.38-1.5-1.48.46-.45 1.5 1.5zm-.33.63.13.13.1.1c.15.13.38.13.53 0l.88-.9c.15-.15.15-.38 0-.5l-.1-.13-.13-.13-.35-.35-1.4 1.4.34.35zm-32.62 25.44c0 .03-.62-.23-1.15-.77-.53-.52-2-3.18 1.36-6.54 1.48-1.47 3.57-2.7 3.57-2.7s-3.57-1.64-6.4 1.2c-3.6 3.6-3.83 7.04-5.62 8.84-1.8 1.8-7.75 2.07-10.22 4.54-2.47 2.47-1.9 5.88-.67 8.63 1.23 2.76 2.44 4.6 3.8 5.96 1.33 1.35 6.82 6.23 11.48 1.58 2.72-2.72 2.53-6.86 4.43-8.76 1.22-1.2 3.68-.9 5.4-2.62 1.7-1.7 1.48-3.44 1.48-3.44s-4.02 2.78-5.92.88c-1.35-1.35-.5-3.36-.5-3.36l-1-3.4z"/><path d="m16.93 48.6c-.15.13-.38.13-.52 0l-4.32-4.35c-.15-.14-.15-.37 0-.52l1.03-1.03c.15-.14.38-.14.53 0l4.33 4.34c.15.14.15.38 0 .52l-1.02 1.03z" fill="#1d1d1b"/><g fill="#fff"><circle cx="13.371" cy="42.879" r=".153"/><path d="m12.35 44.1c-.06.07-.15.07-.2 0-.07-.05-.07-.14 0-.2.05-.06.14-.06.2 0s.06.15 0 .2z"/><circle cx="17.777" cy="47.287" r=".153"/><path d="m16.76 48.52c-.06.06-.16.06-.22 0-.05-.06-.05-.16 0-.22.06-.05.16-.05.22 0 .06.06.06.16 0 .22z"/></g><path d="m13.2 52.3c-.13.15-.37.15-.5 0l-4.35-4.33c-.14-.15-.14-.38 0-.52l1.03-1.03c.14-.14.38-.14.52 0l4.34 4.34c.14.14.14.37 0 .52z" fill="#1d1d1b"/><g fill="#fff"><circle cx="9.654" cy="46.597" r=".152"/><circle cx="8.53" cy="47.722" r=".154"/><circle cx="14.062" cy="51.004" r=".153"/><circle cx="12.937" cy="52.129" r=".153"/><circle cx="15.272" cy="53.793" r=".581"/><circle cx="14.623" cy="56.469" r=".581"/><circle cx="11.917" cy="57.148" r=".582"/></g><path d="m9.3 55.34c-.06.07-.18.07-.25 0l-3.73-3.74c-.07-.06-.07-.18 0-.25l2.32-2.33c.08-.07.2-.07.26 0l3.74 3.74c.07.07.07.18 0 .26z" fill="#1d1d1b"/><path d="m50.35 12.33-2.02-2.02-31.63 30.43 3.23 3.23zm-2.02-2.03c.72-.72.6-2.36 1.2-2.95.58-.6 2.2-1.1 3.9-2.8s3.22-4.55 3.22-4.55-.08 2.56 1.14 3.8c.5.48 1.2.8 1.2.8s-1.48.77-2.54 1.83c-2 2-2.67 4.3-3.02 4.66-.34.33-1.82-.05-3.1 1.22-.6-.6-2.02-2.02-2.02-2.02z"/><g fill="#1d1d1b"><circle cx="51.883" cy="6.957" r=".666"/><circle cx="51.885" cy="6.957" r=".367"/><circle cx="52.663" cy="9.944" r=".665"/><circle cx="52.663" cy="9.945" r=".366"/><circle cx="54.689" cy="6.844" r=".666"/><circle cx="54.69" cy="6.843" r=".366"/><circle cx="54.768" cy="4.591" r=".666"/><circle cx="54.767" cy="4.591" r=".366"/><path d="m7.73 50.2 40.84-39.64m-39.77 40.38 40.3-39.87m-39.45 40.83 39.95-40.3m-39.32 41.54 39.82-41.06"/></g><path d="m7.48 50.23.23.23-1.51 1.54-.23-.2zm1.12.7.24.22-1.56 1.54-.22-.25zm.83.97.23.23-1.55 1.55-.2-.22zm.62 1.2.22.22-1.55 1.55-.22-.22z" fill="#fff"/><path d="m5.63 51.03 4 4-.45.44-4-4zm1.6-1.23.9.9-.3.3-.9-.9zm1.13.7.9.9-.3.28-.9-.9zm.82.98.9.9-.3.3-.88-.9zm.62 1.2.9.9-.3.3-.9-.9z" fill="#1d1d1b"/></g></svg>