<svg enable-background="new 0 0 60 60" height="60" viewBox="0 0 60 60" width="60" xmlns="http://www.w3.org/2000/svg"><g stroke-miterlimit="10"><g stroke-width=".146"><path d="m50 4.1.3.7-.3.1-.3-.7zm.6-.1-.3-.5c-.1-.2-.5-.3-.9-.1-.3.2-.6.5-.5.7l.3.5c0 .1.1.1.2.1l1.1-.5c.1 0 .1-.1.1-.2z" fill="#ff5a00" stroke="#fff" stroke-linecap="round" stroke-linejoin="round"/><path d="m52.1 2.9.3.7-.4.2-.3-.7zm.6-.1-.3-.5c-.1-.2-.5-.3-.9-.1-.3.3-.5.6-.4.8l.3.5c0 .1.1.1.2.1l1.1-.5c0-.1.1-.2 0-.3z" fill="#ff5a00" stroke="#fff" stroke-linecap="round" stroke-linejoin="round"/><path d="m54.3 1.8.3.7-.4.2-.3-.7zm.6 0-.3-.5c-.1-.3-.5-.3-.9-.1-.3.2-.5.5-.4.8l.2.5c0 .1.1.1.2.1l1.1-.6s.1-.1.1-.2z" fill="#ff5a00" stroke="#fff" stroke-linecap="round" stroke-linejoin="round"/><path d="m56.4.8.3.7-.4.2-.3-.8zm.6-.1-.3-.5c-.1-.2-.5-.3-.9-.1-.3.2-.6.5-.5.7l.3.5c0 .1.1.1.2.1l1.1-.6c.1.1.1 0 .1-.1z" fill="#ff5a00" stroke="#fff" stroke-linecap="round" stroke-linejoin="round"/><path d="m48.3 7.6c.5-.6 0-1.5.4-1.9s8.5-4.6 9.3-4.9c.8-.4 1.7.3 2 .6 0 0-1.5.9-3.2 3.4-2.5 3.8-1.8 3.9-3 5.1-1.3-1.3-2.7-.9-3.5-.1-.7-.8-2-2.2-2-2.2z" fill="#ff5a00" stroke="#fff" stroke-linecap="round" stroke-linejoin="round"/><path d="m15.4 58.6c0 .1-.1.2-.2.2l-2 .2c-.1 0-.2-.1-.2-.2s.1-.2.2-.2l2-.2c.1 0 .2.1.2.2z" fill="#1d1d1b" stroke="#1d1d1b" stroke-linecap="round" stroke-linejoin="round"/><path d="m23.9 32.2c-.7.5-1.7.9-2.5.1-1.2-1.2-1.4-3.3 0-4.8 1.5-1.5 1.2-1.9.9-2.2s-1.8-1.3-4.4 1.3-2.9 5.8-5.1 7.9c-2.1 2.1-7.8 3.1-11.1 6.4-4.3 4.3.7 10.1 3.4 12.8 3.6 3.6 8.3 7.8 13 3 3.5-3.5 3.3-8.2 5.2-10.1 2-2 3.3-1 6.5-4.2 1.2-1.2 1.2-2.4.6-2.9-.6-.6-1.2-.2-1.9.4-.6.6-2.7 1.3-4.2-.1-1.4-1.4-.8-2.5.6-3.9s1.6-1.6 1.6-1.6z" fill="#ff5a00" stroke="#fff" stroke-linecap="round" stroke-linejoin="round"/><path d="m19.6 42.6c-.2.2-.5.2-.7 0l-2.8-2.8c-.2-.2-.2-.5 0-.7l1.1-1.1c.2-.2.5-.2.7 0l2.8 2.8c.2.2.2.5 0 .7z" fill="#1d1d1b" stroke="#fff"/></g><path d="m23.3 25.5h-.1l-.3-.5v-.1h.1l.3.6c0-.1 0-.1 0 0zm-.5.1-.3-.5.3-.2.3.5zm0 .2c-.1 0-.1 0-.2 0l-.3-.6c0-.1 0-.1 0-.2s.1 0 .2.1l.3.6c.1 0 .1.1 0 .1z" fill="#1d1d1b" stroke="#fff" stroke-linecap="round" stroke-linejoin="round" stroke-width=".073"/><circle cx="17.4" cy="50.7" fill="#fff" r=".9" stroke="#1d1d1b" stroke-linecap="round" stroke-linejoin="round" stroke-width=".146"/><path d="m16.9 51c-.1-.3-.1-.6.2-.7.3-.2.6-.1.7.2.1.2.1.6-.2.7s-.5 0-.7-.2z" fill="#fff" stroke="#1d1d1b" stroke-linecap="round" stroke-linejoin="round" stroke-width=".146"/></g><path d="m17.7 51.4c.1-.1.1-.1.1-.1l.1.1v.1c-.1 0-.1 0-.2-.1z" fill="#1d1d1b"/><circle cx="17.7" cy="53.9" r=".9" style="fill:#fff;stroke:#1d1d1b;stroke-width:.146;stroke-linecap:round;stroke-linejoin:round;stroke-miterlimit:10"/><circle cx="17.7" cy="53.9" r=".5" style="fill:#fff;stroke:#1d1d1b;stroke-width:.146;stroke-linecap:round;stroke-linejoin:round;stroke-miterlimit:10"/><path d="m17.6 53.2c-.1.1-.1 0-.1 0v-.1-.1h.1z" fill="#1d1d1b"/><g stroke-linecap="round" stroke-linejoin="round" stroke-miterlimit="10"><g stroke-width=".146"><path d="m19.4 50c0 .1-.2.2-.3.1s-.2-.2-.1-.3l1.3-3.2c.1-.1.2-.2.3-.1.1 0 .2.2.1.3z" fill="#1d1d1b" stroke="#fff"/><circle cx="19.9" cy="48.3" fill="#fff" r=".5" stroke="#1d1d1b"/><path d="m50.3 9.6-2-2-28.5 28.4 2.8 2.8zm-34.7 37c-.2.2-.5.2-.7 0l-2.8-2.8c-.2-.2-.2-.5 0-.7l1.1-1.2c.2-.2.5-.2.7 0l2.8 2.8c.2.2.2.5 0 .7z" fill="#ff5a00" stroke="#fff"/></g><path d="m16.5 45.5c.2-.2.2-.6 0-.8l-2.5-2.4c-.2-.2-.6-.2-.8 0s-.2.6 0 .8l2.4 2.4c.3.2.6.2.9 0zm-.8.8c.2-.2.2-.6 0-.8l-2.4-2.4c-.2-.2-.6-.3-.8 0-.2.2-.2.6 0 .8l2.4 2.4c.2.2.5.3.8 0zm4.8-4.8c.2-.2.2-.6 0-.8l-2.4-2.4c-.2-.2-.6-.3-.8 0s-.2.6 0 .8l2.4 2.4c.2.2.6.3.8 0zm-.8.8c.2-.2.2-.6 0-.8l-2.4-2.4c-.2-.2-.6-.3-.8 0-.2.2-.2.6 0 .8l2.4 2.4c.2.3.5.3.8 0z" fill="#fff" stroke="#ff5a00" stroke-width=".073"/><g stroke-width=".146"><path d="m9.5 46.8 39-38.9m-38.2 39.6 38.8-39.1m-38 39.9 38.5-39.4m-37.4 40.2 37.8-39.7" fill="none" stroke="#fff"/><path d="m11.1 51.5c-.1.1-.2.1-.4 0l-3.3-3.4c-.1-.1-.1-.2 0-.4l1.6-1.5c.1-.1.2-.1.4 0l3.4 3.3c.1.1.1.3 0 .4-.1 0-1.7 1.5-1.7 1.6zm0 0-3.7-3.7-.2.2 3.7 3.7z" fill="#fff" stroke="#1d1d1b"/><g fill="#1d1d1b" stroke="#fff"><circle cx="50.6" cy="6" r=".5"/><circle cx="50.7" cy="5.9" r=".3"/><circle cx="52.7" cy="4.8" r=".5"/><circle cx="52.8" cy="4.8" r=".3"/><circle cx="54.9" cy="3.7" r=".5"/><path d="m55.1 3.8c-.1.1-.3.1-.4 0s-.1-.3 0-.4.3-.1.4 0c.1.2.1.4 0 .4z"/><circle cx="57" cy="2.6" r=".5"/><circle cx="57.1" cy="2.6" r=".3"/></g></g></g></svg>