<svg enable-background="new 0 0 60 60" height="60" viewBox="0 0 60 60" width="60" xmlns="http://www.w3.org/2000/svg"><path d="m24.3 54.2c.5-1.2 1.2-3.5 2-5.6v-.1c.6-1.7 1.3-3.3 1.8-4 .3-.5.7-.9 1.2-1.2 1.3-.9 2.7-1.4 3.9-1.8.1 0 .2-.1.3-.1 1-.4 1.9-1.3 2.1-2.2.1-.4 0-.8-.2-1.1 0 0 0 0-.1-.1-.4-.4-.8-.3-1.3-.3-.1 0-.2 0-.3 0-.6.1-1.3 0-2.1-.8-1.7-2.4-.8-4.7-.8-4.7 0-.2-.3-4.2-.3-4.2-.3.1-.6.2-1 .3-1.3.3-3-.8-4.5-1.8-1-.7-2.2-1.5-3.7-1.6-2.2-.1-3 1.8-3.3 2.6-.1.3-.3 2-.6 3.2-.3 1.3-.9 2.1-1.7 3s-1.5 1.3-4.3 2.3c-.6.2-1.3.5-2 .7-2.2.8-4.5 1.6-6.9 2.8-2.5 1.5-3.1 3.5-1.9 6.7.5 1.5 1.9 3.4 3.9 5.4.8.8 1.3 1.2 2.1 1.9 3.2 2.7 7.1 5.2 10.6 6.1 4.7 1.1 6.3-3.3 7.1-5.4z" fill="#249ac1"/><path d="m30.7 30.1-.1-2c-.3.1-.6.2-1 .3-1.3.3-3-.8-4.5-1.8-1-.7-2.2-1.5-3.7-1.6-2.2-.1-3 1.8-3.3 2.6-.1.3-.3 2-.6 3.2-.3 1.3-.9 2.1-1.7 3s-1.5 1.3-4.3 2.3c-.6.2-1.3.5-2 .7-2.2.8-4.5 1.6-6.9 2.8-2.6 1.4-3.2 3.4-2 6.6.5 1.5 1.9 3.4 3.9 5.4.8.8 2.5 2.3 2.5 2.3z" fill="#249ac1"/><path d="m4.7 51.4c-2-2-3.3-3.8-3.9-5.3-1.1-3.1-.6-4.9 1.9-6.2 2.4-1.3 4.7-2.1 6.9-2.8.7-.2 1.3-.5 2-.7 2.9-1 3.6-1.5 4.4-2.4.9-1 1.5-1.8 1.8-3.2.1-.6.2-1.2.3-1.8s.2-1.1.3-1.3c.3-.8 1-2.4 3-2.4 1.3 0 2.5.8 3.5 1.5 1.6 1.1 3.3 2.2 4.8 1.9h.2c.1 0 .3-.1.4-.1.1 1.5.2 3.3.3 3.7-.1.4-.8 2.6.8 4.9 0 .1.1.1.1.2.8.8 1.6.8 2.2.8h.3c.5-.1.8-.1 1 .1s.2.5.2.8c-.2.8-1 1.6-1.9 1.9l-.3.1c-1.3.5-2.7 1-4 1.9-.5.4-.9.8-1.2 1.3-.4.6-1 1.9-1.8 4.1v.1c-.3.9-.6 1.8-.9 2.7-.4 1.2-.8 2.3-1.1 2.9l-.1.2c-.4 1.1-1.1 2.6-2.1 3.7-1.2 1.3-2.7 1.7-4.6 1.2-3-.8-6.8-2.9-10.2-5.8l-.3-.2c-.7-.6-1.2-1.1-2-1.8z" fill="#249ac1"/><path d="m27 36.1c-.1 0-.2.1-.3.1-.3-.1-2.2-1.9-2.2-2.3l.2-.3c.2-.2 25.3-24.2 25.3-24.2l1.4 1.4s-24 25.3-24.4 25.3z" fill="#4b1212"/><path d="m25.6 35.3c-.5-.5-1-1.1-1-1.3l.2-.3c.1-.3 25.2-24.3 25.2-24.3l.7.7z" fill="#6c2a2a"/><path d="m58.3 7.7c.3.2.6-.1.6-.1s.3.2.6-.2c.3-.3.1-.6.1-.6s.2-.3 0-.6c-.2-.5-.6-.2-.8-.2s-.4-.1-.4-.1l-.4.4s.1.2.2.4c-.1.2-.4.7.1 1z" fill="#ccc"/><path d="m58.2 6.1.2-.2s.2.1.4.1.6-.3 1 .2c.2.3 0 .6 0 .6s.2.3-.1.6z" fill="#989898"/><path d="m59.5 6.2c-.1-.1-.3-.1-.5 0-.1 0-.2 0-.2 0-.1 0-.2 0-.3-.1l-.2.2c0 .1.1.2.1.3v.2c0 .2-.1.3 0 .5 0 0 .1 0 .1.1.2.1.4-.1.4-.1l.1-.1.1.1s.2.1.3-.1c.2-.2.1-.4.1-.4l-.1-.1.1-.1c0 .1.2-.1 0-.4z" fill="#989898"/><path d="m58.3 6.2c.2-.1.3 0 .4 0h.2c.2-.1.4-.1.5 0 0 0 0 0 .1.1.1.2 0 .4 0 .4l-.1.1.1.1s.1.2-.1.4z" fill="#ccc"/><path d="m57.4 9.2c.2.3-.1.6-.1.6s.2.3-.2.6c-.3.3-.6.1-.6.1s-.3.2-.6 0c-.5-.3-.2-.8-.2-1s-.1-.4-.1-.4l.3-.6s.2.3.5.3c.2.2.7-.1 1 .4z" fill="#989898"/><path d="m55.7 9-.1.3s.1.2.1.4-.3.6.2 1c.3.2.6 0 .6 0s.3.2.6-.1z" fill="#ccc"/><path d="m55.9 10.4c-.1-.1-.1-.3 0-.5 0-.1 0-.2 0-.2 0-.1 0-.2-.1-.3l.2-.2c.1 0 .2.1.3.1h.2c.2 0 .3-.1.5 0 0 0 0 .1.1.1.1.2-.1.4-.1.4l.1.1s.1.2-.1.3c-.2.2-.4.1-.4.1l-.1-.1-.1.1c0 .1-.2.3-.5.1.1.1.1 0 0 0z" fill="#ccc"/><path d="m56 9.3-.1.1c0 .1.1.2.1.3v.2c-.1.2-.1.4 0 .5 0 0 0 0 .1.1.2.1.4 0 .4 0l.1-.1.1.1s.2.1.4-.1z" fill="#989898"/><path d="m53.8 1.8c-.2-.3.1-.6.1-.6s-.2-.4.1-.7.6-.1.6-.1.3-.2.6 0c.5.3.2.8.2 1s.1.4.1.4l-.5.5s-.2-.1-.4-.2c0-.2-.5.1-.8-.3z" fill="#ccc"/><path d="m55.4 1.9.2-.2s-.1-.2-.1-.4.3-.6-.2-1c-.3-.2-.6 0-.6 0s-.4-.1-.7.2z" fill="#989898"/><path d="m55.2.6c.1.1.1.3 0 .5v.2c0 .1 0 .2.1.3l-.2.2c-.1 0-.2-.1-.3-.1s-.2 0-.2 0c-.2 0-.3.1-.5 0 0 0 0-.1-.1-.1-.1-.1 0-.3 0-.3l.1-.1-.1-.2s-.1-.2.1-.3c.2-.2.4-.1.4-.1l.1.1.1-.1c.1-.1.3-.2.5 0 0-.1 0-.1 0 0z" fill="#989898"/><path d="m55.2 1.7.1-.1c0-.1-.1-.2-.1-.3s0-.2 0-.2c.1-.2.1-.4 0-.5 0 0 0 0-.1-.1-.2-.1-.4 0-.4 0l-.1.1-.1-.1s-.2-.1-.4.1z" fill="#ccc"/><path d="m52.5 2.9c-.3-.2-.7.1-.7.1s-.3-.2-.6.2c-.3.3-.1.6-.1.6s-.2.3 0 .6c.3.5.8.2 1 .2s.4.1.4.1l.5-.3s-.3-.2-.3-.5c0-.2.2-.7-.2-1z" fill="#989898"/><path d="m52.6 4.6-.3.1s-.2-.1-.4-.1-.6.3-1-.2c-.2-.3 0-.6 0-.6s-.2-.3.1-.6z" fill="#ccc"/><path d="m51.3 4.4c.1.1.3.1.5 0h.2c.1 0 .2 0 .3.1l.2-.2c0-.1-.1-.2-.1-.3s0-.2 0-.2c0-.2.1-.3 0-.5 0 0-.1 0-.1-.1-.1-.2-.3 0-.3 0l-.1.1-.1-.1s-.2-.1-.3.1c-.2.2-.1.4-.1.4l.1.1-.1.1c-.2 0-.3.2-.1.5-.1-.1-.1-.1 0 0z" fill="#ccc"/><path d="m52.4 4.3c-.2.1-.3 0-.4 0s-.2 0-.2 0c-.2.1-.4.1-.5 0 0 0 0 0-.1-.1-.1-.2 0-.4 0-.4l.1-.1-.1-.1s-.1-.2.1-.4z" fill="#989898"/><path d="m51.4 10.8s.8-.5 1.6-.5c.7 0 1 .1 1.3.2s.6.4.9-.3c.4-.7.8-1.7 1.8-2.8.9-1.1 2.3-2 2.6-2.2s.7-.5-.2-1c-1.3-.7-1-1.9-1-2.6 0-.3-.4-1.2-1.3-1.1s-1.7 1.3-2.3 2-1.3 1.5-2.1 2.1-1.4.5-1.4 1.2c.1.7-.1 1.4-.3 2-.3.8-1 1.7-1 1.7z" fill="#249ac1"/><path d="m58.5 2.3c0-.3 0-.6 0-.9s-.4-1.2-1.3-1.1-1.7 1.3-2.3 2-1.3 1.5-2.1 2.1-1.4.5-1.4 1.2c.1.7-.1 1.4-.3 2-.3.8-1 1.7-1 1.7l.7.7z" fill="#249ac1"/><path d="m50.4 9.4c.2-.3.7-.9.9-1.5.3-.7.4-1.5.3-2.1 0-.2 0-.2.4-.4.2-.1.5-.2.8-.5.8-.6 1.5-1.4 2.1-2.1v-.1c.1-.1.3-.3.4-.5.5-.6 1.1-1.4 1.7-1.4.3 0 .5 0 .7.2s.3.5.3.5v.4c0 .6 0 1.4.6 2.1.2.2.3.3.6.4.2.1.2.2.3.2v.1s-.1.1-.2.1c-.4.2-1.8 1.2-2.7 2.3-.9 1-1.3 2-1.7 2.7.1 0 .1.1.1.1-.2.3-.2.3-.4.2-.1 0-.1 0-.2-.1h-.1c-.2 0-.6-.1-1.3 0-.6 0-1.2.3-1.5.4z" fill="#249ac1"/><path d="m16.1 52c-.3-.9-6.7-7.4-7.6-7.6-.9-.3-1.3.4-.9.9.3.5 1 .3 1.4 1s-.4 1.7 1.5 3.7c1.9 1.9 2.9 1.1 3.7 1.6.8.4.5 1.1 1 1.4s1.2-.1.9-1z" fill="#2b2b2b"/><path d="m10.7 49.8c-1.2-1.3-1.3-2.1-1.3-2.7 0-.3 0-.6-.2-.9 0-.1-.1-.2-.2-.3-.2-.2-.5-.3-.7-.4s-.3-.1-.4-.2c0 0 0 0-.1-.1s-.1-.3 0-.4.3-.2.6-.1 1.8 1.4 3.9 3.5 3.4 3.6 3.5 3.9.1.5-.1.6c-.1.1-.2.1-.4 0 0 0 0 0-.1-.1s-.1-.2-.2-.4-.2-.5-.4-.7c-.1-.1-.2-.2-.4-.3-.3-.2-.6-.2-1-.2-.5 0-1.2 0-2.5-1.2.1 0 .1 0 0 0z" fill="#1a1a1a"/><path d="m12.6 48c-1.8-1.8-3.6-3.5-4.1-3.6-.9-.3-1.3.4-.9.9.3.5 1 .3 1.4 1s-.4 1.7 1.5 3.7z" fill="#1a1a1a"/><path d="m12.3 48.2c-2.2-2.2-3.6-3.4-3.9-3.5s-.5-.1-.6.1c-.1.1-.1.2 0 .4 0 0 0 0 .1.1s.2.1.4.2.5.2.7.4c.1.1.2.2.3.4.1.3.2.6.2.9 0 .6.1 1.4 1.3 2.7z" fill="#2b2b2b"/><path d="m10.4 47 .1-.1 3.3 3.3-.1.1z" fill="#818181"/><path d="m10.5 46.9.1-.1 3.3 3.3-.1.1z" fill="#b4b4b4"/><path d="m20.4 45.4c.1-.1.1-.2 0-.3l-4.7-4.7c-.1-.1-.2 0-.3 0l-1.4 1.5c-.1.1-.1.2 0 .3l4.7 4.7c.1.1.2 0 .3 0z" fill="#333"/><path d="m18.1 42.8-2.4-2.4s-.1 0-.2 0-.1 0-.2.1l-1.3 1.4s-.1.1-.1.2v.2l2.4 2.4z" fill="#010101"/><path d="m20.3 45.4c.1-.1.1-.2 0-.3l-4.6-4.6c-.1-.1-.2-.1-.3 0l-1.3 1.3c-.1.1-.1.2 0 .3l4.6 4.6c.1.1.2.1.3 0z"/><path d="m18 42.8-2.3-2.3-.1-.1s-.1 0-.1.1l-1.1 1.1-.2.2-.1.1s0 .1.1.1l2.3 2.3z" fill="#333"/><path d="m19.7 45.2c.1-.1.1-.2 0-.3l-3.8-3.8c-.1-.1-.2 0-.3 0l-1 1c-.1.1-.1.2 0 .3l3.8 3.8c.1.1.2 0 .3 0z" fill="#333"/><path d="m17.8 43-1.9-1.9h-.1s-.1 0-.1.1l-1 1-.1.1v.1l1.9 1.9z" fill="#010101"/><path d="m19.6 45.1c.1-.1.1-.2 0-.2l-3.7-3.7c-.1-.1-.2-.1-.2 0l-.9.9c-.1.1-.1.2 0 .2l3.7 3.7c.1.1.2.1.2 0z" fill="#010101"/><path d="m17.7 43.1-1.8-1.8h-.1-.1l-.9.9v.1.1l1.8 1.8z" fill="#333"/><path d="m14.6 42c0-.1-.1-.2-.2-.2s-.2.1-.2.2.1.2.2.2c.1-.1.2-.1.2-.2z" fill="#818181"/><path d="m15.7 40.9c.1-.1.1-.2 0-.3s-.2-.1-.3 0-.1.2 0 .3.2.1.3 0z" fill="#818181"/><path d="m19.9 45.2c.1-.1.2-.1.3 0s.1.2 0 .3-.2.1-.3 0c-.1-.2-.1-.3 0-.3z" fill="#333"/><path d="m18.8 46.3c.1 0 .2.1.2.2s-.1.2-.2.2-.2-.1-.2-.2c.1-.1.1-.2.2-.2z" fill="#333"/><path d="m14.6 42h-.4z" fill="#010101"/><path d="m15.7 40.9-.2-.3z" fill="#010101"/><path d="m19.9 45.1.3.2-.3-.2c0 .1 0 .1 0 0z" fill="#010101"/><path d="m18.8 46.3s.1 0 0 0v.4z" fill="#010101"/><path d="m19 45.5c-.2.2-.6.2-.9-.1l-2.8-2.8c-.3-.3-.3-.7-.1-.9s.6-.2.9.1l2.8 2.8c.4.2.4.7.1.9z" fill="#333"/><path d="m19 45.5c-.2.2-.6.2-.9-.1l-2.8-2.8c-.3-.3-.3-.7-.1-.9s.6-.2.9.1l2.8 2.8c.4.2.4.7.1.9z" fill="#333"/><path d="m16.7 44.1-1.4-1.4c-.1-.1-.2-.3-.2-.5s0-.3.2-.4c.1-.1.3-.2.4-.2.2 0 .3.1.5.2l1.4 1.4z" fill="#010101"/><path d="m15.4 42.6c-.2-.2-.3-.6-.1-.7.2-.2.5-.2.7.1l2.8 2.8c.2.2.3.6.1.7-.2.2-.5.2-.7-.1z" fill="#010101"/><path d="m15.4 42.6c-.1-.1-.2-.2-.2-.4 0-.1 0-.3.1-.4s.2-.1.4-.1c.1 0 .3.1.4.2l1.4 1.4-.7.7z" fill="#333"/><path d="m18.6 45.2c-.1 0-.2-.1-.2-.2s.1-.2.2-.2.2.1.2.2c-.1.1-.1.2-.2.2z" fill="#676767"/><path d="m15.8 42.4c-.1 0-.2-.1-.2-.2s.1-.2.2-.2.2.1.2.2c-.1.1-.1.2-.2.2z" fill="#818181"/><path d="m18 44.7c-.1 0-.2-.1-.2-.2s.1-.2.2-.2.2.1.2.2-.1.2-.2.2z" fill="#676767"/><path d="m16.3 43c-.1 0-.2-.1-.2-.2s.1-.2.2-.2.2.1.2.2-.1.2-.2.2z" fill="#818181"/><path d="m16.9 43.5c-.1 0-.2-.1-.2-.2s.1-.2.2-.2.2.1.2.2-.1.2-.2.2z" fill="#818181"/><path d="m17.5 44.1c-.1 0-.2-.1-.2-.2s.1-.2.2-.2.2.1.2.2c-.1.1-.1.2-.2.2z" fill="#676767"/><path d="m28.2 37.7c.1-.1.1-.2 0-.3l-4.7-4.7c-.1-.1-.2 0-.3 0l-1.4 1.4c-.1.1-.1.2 0 .3l4.7 4.7c.1.1.2 0 .3 0z" fill="#333"/><path d="m25.9 35-2.4-2.4s-.1 0-.2 0-.1 0-.2.1l-1.4 1.4s-.1.1-.1.2v.2l2.4 2.4z" fill="#010101"/><path d="m28.1 37.6c.1-.1.1-.2 0-.3l-4.6-4.6c-.1-.1-.2-.1-.3 0l-1.3 1.3c-.1.1-.1.2 0 .3l4.6 4.6c.1.1.2.1.3 0z"/><path d="m25.8 35.1-2.3-2.3-.1-.1s-.1 0-.1.1l-1.1 1.1-.2.2-.1.1s0 .1.1.1l2.3 2.3z" fill="#333"/><path d="m27.5 37.4c.1-.1.1-.2 0-.3l-3.8-3.8c-.1-.1-.2 0-.3 0l-1 1c-.1.1-.1.2 0 .3l3.8 3.8c.1.1.2 0 .3 0z" fill="#333"/><path d="m25.6 35.2-1.9-1.9h-.1s-.1 0-.1.1l-1 1-.1.1v.1l1.9 1.9z" fill="#010101"/><path d="m27.4 37.4c.1-.1.1-.2 0-.2l-3.7-3.7c-.1-.1-.2-.1-.2 0l-.9.9c-.1.1-.1.2 0 .2l3.7 3.7c.1.1.2.1.2 0z" fill="#010101"/><path d="m25.5 35.3-1.8-1.8h-.1-.1l-.9.9v.1.1l1.8 1.8z" fill="#333"/><path d="m22.3 34.2c0-.1-.1-.2-.2-.2s-.2.1-.2.2.1.2.2.2c.2 0 .2-.1.2-.2z" fill="#818181"/><path d="m23.5 33.1c.1-.1.1-.2 0-.3s-.2-.1-.3 0-.1.2 0 .3.2.1.3 0z" fill="#818181"/><path d="m27.7 37.4c.1-.1.2-.1.3 0s.1.2 0 .3-.2.1-.3 0-.1-.3 0-.3z" fill="#333"/><path d="m26.6 38.5c.1 0 .2.1.2.2s-.1.2-.2.2-.2-.1-.2-.2.1-.2.2-.2z" fill="#333"/><path d="m22.3 34.2h-.4z" fill="#010101"/><path d="m23.5 33.1-.2-.3z" fill="#010101"/><path d="m27.7 37.4.3.2z" fill="#010101"/><path d="m26.6 38.5v.4z" fill="#010101"/><path d="m26.8 37.7c-.2.2-.6.2-.9-.1l-2.8-2.8c-.3-.3-.3-.7-.1-.9s.6-.2.9.1l2.8 2.8c.4.3.4.7.1.9z" fill="#333"/><path d="m26.8 37.7c-.2.2-.6.2-.9-.1l-2.8-2.8c-.3-.3-.3-.7-.1-.9s.6-.2.9.1l2.8 2.8c.4.3.4.7.1.9z" fill="#333"/><path d="m24.5 36.3-1.4-1.4c-.1-.1-.2-.3-.2-.5s0-.3.2-.4c.1-.1.3-.2.4-.2.2 0 .3.1.5.2l1.4 1.4z" fill="#010101"/><path d="m23.2 34.8c-.2-.2-.3-.6-.1-.7.2-.2.5-.2.7.1l2.8 2.8c.2.2.3.6.1.7-.2.2-.5.2-.7-.1z" fill="#010101"/><path d="m23.2 34.8c-.1-.1-.2-.2-.2-.4 0-.1 0-.3.1-.4s.2-.1.4-.1c.1 0 .3.1.4.2l1.4 1.4-.7.7z" fill="#333"/><path d="m26.4 37.4c-.1 0-.2-.1-.2-.2s.1-.2.2-.2.2.1.2.2c-.1.1-.1.2-.2.2z" fill="#676767"/><path d="m23.6 34.6c-.1 0-.2-.1-.2-.2s.1-.2.2-.2.2.1.2.2c-.1.1-.1.2-.2.2z" fill="#818181"/><path d="m25.8 36.9c-.1 0-.2-.1-.2-.2s.1-.2.2-.2.2.1.2.2-.1.2-.2.2z" fill="#676767"/><path d="m24.1 35.2c-.1 0-.1-.1-.1-.2s.1-.2.2-.2.2.1.2.2c-.1.1-.2.2-.3.2z" fill="#818181"/><path d="m24.7 35.7c-.1 0-.2-.1-.2-.2s.1-.2.2-.2.2.1.2.2c-.1.2-.1.2-.2.2z" fill="#818181"/><path d="m25.2 36.3c-.1 0-.2-.1-.2-.2s.1-.2.2-.2.2.1.2.2-.1.2-.2.2z" fill="#676767"/><path d="m20 50.7h.1c0-.4.2-.7.5-1 .6-.6 1.7-.6 2.3 0s.7 1.7 0 2.3c-.2.2-.5.4-.9.5v.1c.4-.1.7-.2 1-.5.7-.7.7-1.8 0-2.5s-1.8-.7-2.5 0c-.3.3-.4.7-.5 1.1z" fill="#333"/><path d="m23 49.7.1.1.2-.2-.1-.1z" fill="#333"/><path d="m22.1 49.2h.2v-.2h-.1z" fill="#333"/><path d="m21.2 49.3h.1l-.1-.3-.1.1z" fill="#333"/><path d="m20.4 49.9.1-.1-.2-.2-.1.1z" fill="#333"/><path d="m23.5 50.5.2-.1v.1z" fill="#333"/><path d="m23.4 51.5.3-.1-.1.2z" fill="#333"/><path d="m22.8 52.3.1-.1.2.2-.1.1z" fill="#333"/><path d="m20.2 50.7-.3-.1v.1z" fill="#333"/><path d="m22 52.5h.2v.3h-.1z" fill="#333"/><path d="m20.7 49.8c-.6.6-.6 1.6 0 2.1.6.6 1.6.6 2.1 0 .6-.6.6-1.6 0-2.1-.5-.6-1.5-.6-2.1 0z" fill="#333"/><path d="m20.8 49.9c-.5.5-.5 1.4 0 2 .5.5 1.4.5 2 0 .5-.5.5-1.4 0-2-.6-.5-1.5-.5-2 0z" fill="#1a1a1a"/><path d="m21 50.1c-.4.4-.4 1.1 0 1.5s1.1.4 1.5 0 .4-1.1 0-1.5-1.1-.4-1.5 0z" fill="#333"/><path d="m20.9 51c-.1.1-.1.2 0 .2.1.1.2.1.2 0 .1-.1.1-.2 0-.2 0-.1-.1-.1-.2 0z" fill="#1a1a1a"/><path d="m17.6 55.2h.1c0-.4.2-.7.5-1 .6-.6 1.7-.6 2.3 0s.7 1.7 0 2.3c-.2.3-.5.5-.8.5v.1c.4-.1.7-.2 1-.5.7-.7.7-1.8 0-2.5s-1.8-.7-2.5 0c-.4.3-.5.7-.6 1.1z" fill="#333"/><path d="m20.6 54.2.1.1.2-.2-.1-.1z" fill="#333"/><path d="m19.7 53.7.2.1v-.3h-.1z" fill="#333"/><path d="m18.8 53.8h.1l-.1-.3-.1.1z" fill="#333"/><path d="m18 54.4.1-.1-.2-.2-.1.1z" fill="#333"/><path d="m21.1 55.1v-.2h.2v.1z" fill="#333"/><path d="m21 56h.3l-.1.1z" fill="#333"/><path d="m20.4 56.8.1-.1.2.2-.1.1z" fill="#333"/><path d="m17.8 55.2-.3-.1v.1z" fill="#333"/><path d="m19.6 57h.2v.3h-.1z" fill="#333"/><path d="m18.3 54.3c-.6.6-.6 1.6 0 2.1.6.6 1.6.6 2.1 0 .6-.6.6-1.6 0-2.1-.5-.6-1.5-.6-2.1 0z" fill="#333"/><path d="m18.4 54.4c-.5.5-.5 1.4 0 2 .5.5 1.4.5 2 0 .5-.5.5-1.4 0-2-.6-.5-1.5-.5-2 0z" fill="#1a1a1a"/><path d="m18.6 54.7c-.4.4-.4 1.1 0 1.5s1.1.4 1.5 0 .4-1.1 0-1.5c-.4-.5-1.1-.5-1.5 0z" fill="#333"/><path d="m18.5 55.5c-.1.1-.1.2 0 .2.1.1.2.1.2 0 .1-.1.1-.2 0-.2 0 0-.1 0-.2 0z" fill="#1a1a1a"/><path d="m56 3.4c-.2.2-.5.1-.7-.1s-.1-.5.1-.7.5-.1.7.1.1.5-.1.7z" fill="#676767"/><path d="m53.3 6c-.2.2-.5.1-.7-.1s-.1-.5.1-.7.5-.1.7.1.1.5-.1.7z" fill="#676767"/><path d="m55 9.2c-.2.2-.5.1-.7-.1s-.1-.5.1-.7.5-.1.7.1c.1.2.1.5-.1.7z" fill="#333"/><path d="m57.6 5.9c-.3.2-.6.1-.7-.1-.2-.2-.1-.5.1-.7s.5-.1.7.1c.1.2.1.5-.1.7z" fill="#333"/><path d="m51 11.2-1.4-1.4.1-.1 1.4 1.4z" fill="#fff"/><path d="m47.6 11.8 1.6 1.4-.1.1z"/><path d="m47.4 15-1.6-1.6.1-.1 1.6 1.6z"/><path d="m44 15.1 1.8 1.6-.1.1z"/><path d="m42.5 16.7 1.8 1.7-.1.1z"/><path d="m40.8 18.2 1.9 1.8-.1.1z"/><path d="m39.4 19.6 2 1.8-.1.1z"/><path d="m38 20.8 2 1.8-.1.1z"/><path d="m36.7 22.1 2.1 1.9-.1.1z"/><path d="m37.5 25.4-2-2.1.1-.1 2 2.1z"/><path d="m34.3 24.4 2.2 2-.1.1z"/><path d="m35.4 27.6-2.1-2.1.1-.1 2.1 2.1z"/><path d="m34.4 28.6-2.1-2.2.1-.1 2.1 2.2z"/><path d="m31.2 27.4 2.3 2.1-.1.1z"/><path d="m32.6 30.5-2.3-2.2.1-.1 2.3 2.2z"/><path d="m31.8 31.4-2.3-2.3.1-.1 2.3 2.3z"/><path d="m31 32.2-2.3-2.3.1-.1 2.3 2.3z"/><path d="m30.2 33-2.3-2.3.1-.1 2.3 2.3z"/><path d="m29.4 33.8-2.4-2.3.1-.1 2.4 2.3z"/><path d="m28.6 34.6-2.4-2.4.1-.1 2.4 2.4z"/><path d="m28 35.2-2.4-2.3.1-.1 2.4 2.3z"/><path d="m27.4 35.8-2.4-2.4h.1l2.4 2.3z"/><g fill="#ccc"><path d="m47.6 11.7 1.6 1.4-.2.1z"/><path d="m47.4 15-1.6-1.6.1-.1 1.6 1.6z"/><path d="m44.1 15.1 1.8 1.6-.1.1z"/><path d="m42.4 16.6 1.8 1.7-.1.1z"/><path d="m40.9 18.1 1.9 1.8-.1.1z"/><path d="m39.5 19.5 2 1.8-.1.1z"/><path d="m38.1 20.9 2 1.8-.1.1z"/><path d="m36.7 22.1 2.1 1.9-.1.1z"/><path d="m37.6 25.3-2.1-2 .1-.1z"/><path d="m34.4 24.4 2.2 2-.1.1z"/><path d="m35.4 27.6-2.1-2.2.1-.1 2.1 2.2z"/><path d="m34.5 28.6-2.2-2.2.1-.1 2.2 2.2z"/><path d="m31.3 27.3 2.3 2.1-.1.1z"/><path d="m32.6 30.5-2.2-2.2v-.1l2.3 2.2z"/><path d="m31.8 31.3-2.3-2.2.1-.1 2.3 2.2z"/><path d="m31 32.1-2.3-2.3.1-.1 2.3 2.3z"/><path d="m30.2 33-2.3-2.4.1-.1 2.3 2.4z"/><path d="m29.4 33.8-2.4-2.3.1-.1 2.4 2.3z"/><path d="m28.7 34.6-2.4-2.4.1-.1z"/><path d="m28 35.2-2.3-2.4v-.1l2.4 2.4z"/><path d="m27.4 35.8-2.3-2.4.1-.1 2.3 2.4z"/></g><path d="m36.1 25c-.1.1-.2.1-.3 0s-.1-.2 0-.3.2-.1.3 0 .1.2 0 .3z" fill="#e6e6e5"/><path d="m39.9 21.3c-.1.1-.2.1-.3 0s-.1-.2 0-.3.2-.1.3 0c.1 0 .1.2 0 .3z" fill="#e6e6e5"/><path d="m42.7 18.5c-.1.1-.2.1-.3 0s-.1-.2 0-.3.2-.1.3 0c.1 0 .1.2 0 .3z" fill="#e6e6e5"/><path d="m45.9 15.2c-.1.1-.2.1-.3 0s-.1-.2 0-.3.2-.1.3 0 .1.3 0 .3z" fill="#e6e6e5"/><path d="m50.9 11-14.4 15-23.9 24.4-.1-.1 23.9-24.4 14.5-14.9 3.6-2.4h.1z" fill="#adadad"/><path d="m50.5 10.6-14.5 14.9-24 24.2v-.1l23.9-24.2 14.6-14.8 6.6-5.3h.1z" fill="#adadad"/><path d="m50.2 10.3-14.7 14.6-24.2 24.2-.1-.1 24.2-24.1 14.8-14.6 5.7-7.3v.1z" fill="#adadad"/><path d="m49.9 9.9-14.8 14.4-24.4 24h-.1l24.4-24.1 14.7-14.4 3.4-4.1.1.1z" fill="#adadad"/><path d="m55.9 3.2c-.1.1-.3.1-.4-.1-.1-.1-.1-.3.1-.4.1-.1.3-.1.4.1 0 .1 0 .3-.1.4z" fill="#ccc"/><path d="m53.2 5.8c-.1.1-.3.1-.4-.1-.1-.1-.1-.3.1-.4.1-.1.3-.1.4.1 0 .1 0 .3-.1.4z" fill="#ccc"/><path d="m54.8 9c-.1.1-.3.1-.4-.1-.1-.1-.1-.3.1-.4.1-.1.3-.1.4.1s.1.3-.1.4z" fill="#989898"/><path d="m57.4 5.7c-.1.1-.3.1-.4-.1 0-.1 0-.2.1-.3s.3-.1.4.1c.1.1.1.2-.1.3z" fill="#989898"/><path d="m12.1 49.9c-.1.1-.3.1-.3 0-.1-.1-.1-.3 0-.3.1-.1.2-.1.3 0 .1 0 .1.2 0 .3z" fill="#ccc"/><path d="m12.8 50.6c-.1.1-.3.1-.3 0-.1-.1-.1-.3 0-.3.1-.1.2-.1.3 0 .1 0 .1.2 0 .3z" fill="#ccc"/><path d="m12.7 50.5h-.1v-.1z" fill="#4e4e4e"/><path d="m12 49.8h-.1v-.1l.1.1c.1-.1.1-.1 0 0z" fill="#4e4e4e"/><path d="m10.8 48.5c-.1.1-.3.1-.3 0-.1-.1-.1-.2 0-.3s.2-.1.3 0z" fill="#ccc"/><path d="m11.4 49.2c-.1.1-.2.1-.3 0s-.1-.2 0-.3.2-.1.3 0c.1 0 .1.2 0 .3z" fill="#ccc"/><path d="m10.6 48.4h-.1v-.1l.1.1c.1-.1.1-.1 0 0z" fill="#4e4e4e"/><path d="m11.3 49.1h-.1v-.1l.1.1c.1-.1.1-.1 0 0z" fill="#4e4e4e"/></svg>