<svg enable-background="new 0 0 60 60" height="60" viewBox="0 0 60 60" width="60" xmlns="http://www.w3.org/2000/svg" xmlns:xlink="http://www.w3.org/1999/xlink"><linearGradient id="a"><stop offset="0" stop-color="#e5e2df"/><stop offset="0" stop-color="#ddd9d6"/><stop offset=".05801176" stop-color="#cec9c8"/><stop offset=".1688" stop-color="#aaa5a7"/><stop offset=".264" stop-color="#8b878c"/><stop offset=".5225" stop-color="#f2f3f3"/><stop offset=".584" stop-color="#e0e0e0"/><stop offset=".7021" stop-color="#b8b6b8"/><stop offset=".8634" stop-color="#848184"/><stop offset=".8764" stop-color="#807d81"/><stop offset="1" stop-color="#d0d2d3"/><stop offset="1" stop-color="#a7a9ac"/></linearGradient><linearGradient id="b" gradientTransform="matrix(.7071 .7071 .7071 -.7071 -580.1835 264.4667)" gradientUnits="userSpaceOnUse" x1="264.0128" x2="264.0128" xlink:href="#a" y1="563.7288" y2="563.8996"/><linearGradient id="c" gradientTransform="matrix(.7071 .7071 .7071 -.7071 -580.1835 264.4667)" gradientUnits="userSpaceOnUse" x1="265.1941" x2="265.1941" xlink:href="#a" y1="563.754" y2="563.925"/><linearGradient id="d" gradientTransform="matrix(.7071 .7071 .7071 -.7071 -580.1835 264.4667)" gradientUnits="userSpaceOnUse" x1="266.4523" x2="266.4523" xlink:href="#a" y1="563.8392" y2="564.0102"/><linearGradient id="e" gradientTransform="matrix(.7071 .7071 .7071 -.7071 -580.1835 264.4667)" gradientUnits="userSpaceOnUse" x1="266.523" x2="266.523" xlink:href="#a" y1="563.681" y2="563.8519"/><path d="m22.9 34.5v5.5s.3 1.2 1 1.7 2 .6 3.7-.5 2.1-.2 2.4.3c.2.5.2 2.6-2.8 4.4-3.1 1.8-3.8 1.3-5 3.1s-1.2 6.8-5.5 9.9c-3.9 2.8-7.7.2-8.6-.5-1.9-1.4-5.1-4.4-6.3-6.3s-2.7-6.1.6-9.5c3.4-3.4 7.1-2.7 10-5.3 2.9-2.7 2.8-5.6 5.9-8.4 3-2.8 4.8-2.8 5.5-2.1s.8 1.5-1.2 3.7c-1.2 1.3-1.2 3-.5 3.8.5.7.8.2.8.2z" fill="#333"/><path d="m22.9 34.5-1.4 4.2-16.7 16.9c-1.2-1.2-2.5-2.6-3.1-3.6-1.2-1.9-2.7-6.1.6-9.5 3.4-3.4 7.1-2.7 10-5.3 2.9-2.7 2.8-5.6 5.9-8.4 3-2.8 4.8-2.8 5.5-2.1s.8 1.5-1.2 3.7c-1.2 1.3-1.2 3-.5 3.8.6.8.9.3.9.3z" fill="#010101"/><path d="m4.6 54.9c-1.2-1.2-2.1-2.3-2.6-3.1-.4-.6-1.2-2.1-1.3-4s.5-3.6 1.9-5c1.7-1.7 3.6-2.4 5.4-3 1.6-.5 3.2-1.1 4.6-2.4 1.5-1.4 2.2-2.8 2.9-4.2s1.4-2.8 2.9-4.2c2.7-2.5 4.4-2.7 5-2.1.4.4.9.9-1.2 3.2-1.4 1.4-1.3 3.3-.5 4.2.1.1.1.1.2.2.3.3.5.4.8.4l-.2 5.1s.3 1.1.9 1.7c.1.1.2.2.3.2.4.2 1.8.9 4-.5 1.1-.8 1.5-.4 1.6-.3s.2.3.3.4c.1.3.2 2.2-2.7 3.9-1.2.7-2 1-2.7 1.3-1.1.4-1.7.7-2.5 1.9-.4.6-.7 1.5-1 2.5-.6 2.2-1.5 5.2-4.4 7.2-1.6 1.1-3.3 1.5-5.2 1-1.5-.4-2.7-1.2-3-1.5-.9-.5-2.3-1.7-3.5-2.9z" fill="#010101"/><path d="m4.8 52.9c0 .1-.1.2-.2.2s-.2-.1-.2-.2.1-.2.2-.2c.2 0 .2.1.2.2z" fill="#ccc"/><path d="m4.8 52.9s-.1.1 0 0c-.1.1-.2 0-.2 0s0-.1.2 0c-.1-.1 0 0 0 0z" fill="#fff"/><path d="m5.7 53.8c0 .1-.1.2-.2.2s-.2-.1-.2-.2.1-.2.2-.2.2.1.2.2z" fill="#ccc"/><path d="m5.6 53.8s0 .1 0 0c-.1.1-.2 0-.2 0s.1-.1.2 0c0-.1 0-.1 0 0z" fill="#fff"/><path d="m7.5 55.6c0 .1-.1.2-.2.2s-.2-.1-.2-.2.1-.2.2-.2c.2 0 .2.1.2.2z" fill="#989898"/><path d="m7.4 55.6s0 .1 0 0c-.1.1-.2 0-.2 0 .1-.1.1-.1.2 0 0-.1 0-.1 0 0z" fill="#ccc"/><path d="m6.6 54.7c0 .1-.1.2-.2.2s-.2-.1-.2-.2.1-.2.2-.2c.2 0 .2.1.2.2z" fill="#989898"/><path d="m6.6 54.7s-.1.1 0 0c-.1.1-.2 0-.2 0s0-.1.2 0c-.1-.1 0 0 0 0z" fill="#ccc"/><path d="m8.3 55.9c-.1.1-.3.1-.4 0l-3.4-3.4c-.1-.1-.1-.3 0-.4l1.8-1.8c.1-.1.3-.1.4 0l3.4 3.4c.1.1.1.3 0 .4z" fill="#e6e6e5"/><path d="m6.1 54.2-1.7-1.7c-.1-.1-.1-.1-.1-.2s0-.2.1-.2l.9-.9.9-.9c.1-.1.1-.1.2-.1s.2 0 .2.1l1.8 1.7z" fill="#b4b4b4"/><path d="m8.2 55.8c-.1.1-.3.1-.4 0l-3.3-3.3c-.1-.1-.1-.3 0-.4l1.7-1.7c.1-.1.3-.1.4 0l3.3 3.3c.1.1.1.3 0 .4z" fill="#b4b4b4"/><path d="m6.2 54.2-1.6-1.6c-.1-.1-.1-.1-.1-.2s0-.2.1-.2l.9-.9.9-.9c.1-.1.1-.1.2-.1s.2 0 .2.1l1.5 1.6z" fill="#e6e6e5"/><path d="m5.5 51.4.6-.6.8.8-.6.6z" fill="#b4b4b4"/><path d="m5.9 50.9.2-.2.8.8-.2.2z" fill="#989898"/><path d="m5.5 51.4.2-.2.9.8-.2.2z" fill="#989898"/><path d="m6.5 52.1.5-.6.8.8-.6.6z" fill="#b4b4b4"/><path d="m6.9 51.7.2-.2.9.9-.2.2z" fill="#989898"/><path d="m6.5 52.1.2-.2.8.8-.2.2z" fill="#989898"/><path d="m7.5 52.8.6-.6.9.8-.6.6z" fill="#989898"/><path d="m7.9 52.5.2-.2.9.8-.2.2z" fill="#818181"/><path d="m7.6 52.7.2-.2.8.8-.2.2z" fill="#818181"/><path d="m8.6 53.5.5-.5.8.8-.6.6z" fill="#989898"/><path d="m8.9 53.2.2-.2.8.8-.2.2z" fill="#818181"/><path d="m8.5 53.6.2-.2.8.8-.2.2z" fill="#818181"/><path d="m6.3 51.5c0 .1 0 .1 0 0-.2.1-.2.1-.2 0s0-.1.2 0c0-.1 0-.1 0 0z" fill="#676767"/><path d="m7.3 52.3c0 .1 0 .1 0 0-.2.1-.2.1-.2 0s0-.1.2 0c0-.1 0-.1 0 0z" fill="#676767"/><path d="m8.4 53c0 .1 0 .1-.1.1s-.1 0-.1-.1 0-.1.1-.1c0-.1.1 0 .1.1z" fill="#4e4e4e"/><path d="m9.4 53.7c0 .1 0 .1-.1.1s-.1 0-.1-.1 0-.1.1-.1c0 0 .1 0 .1.1z" fill="#4e4e4e"/><path d="m9.1 54.2h-.1l-.3-.3v-.1h.1l.3.2z" fill="#676767"/><path d="m8.8 53.9c-.1-.1-.1-.1 0 0 0-.1 0-.1 0 0l.3.2v.1s0 0-.1 0z" fill="#b4b4b4"/><path d="m9 54.3h-.1l-.3-.3v-.1h.1z" fill="#676767"/><path d="m8.6 54c.1-.1.1-.1 0 0l.4.2v.1s0 0-.1 0z" fill="#b4b4b4"/><path d="m8.9 54.4h-.1l-.3-.3v-.1h.1z" fill="#676767"/><path d="m8.5 54.1c0-.1.1-.1 0 0l.3.2v.1s0 0-.1 0z" fill="#b4b4b4"/><path d="m8.8 54.5h-.1l-.3-.3v-.1h.1z" fill="#676767"/><path d="m8.4 54.2c0-.1.1-.1 0 0l.3.2v.1s0 0-.1 0z" fill="#b4b4b4"/><path d="m8.7 54.6h-.1l-.3-.3v-.1h.1z" fill="#676767"/><path d="m8.3 54.3c0-.1 0-.1 0 0l.3.2v.1s0 0-.1 0z" fill="#b4b4b4"/><path d="m8.6 54.7h-.1l-.3-.3v-.1h.1z" fill="#676767"/><path d="m8.2 54.4c0-.1 0-.1 0 0l.3.2v.1s0 0-.1 0z" fill="#b4b4b4"/><path d="m8.4 54.8h-.1l-.3-.2v-.1h.1l.3.3c.1-.1.1 0 0 0z" fill="#676767"/><path d="m8.1 54.5.3.2v.1s0 0-.1 0z" fill="#b4b4b4"/><path d="m8.3 54.9h-.1l-.3-.3v-.1h.1l.3.4c.1 0 .1 0 0 0z" fill="#676767"/><path d="m8 54.6.3.2v.1s0 0-.1 0z" fill="#b4b4b4"/><path d="m8.2 55.1h-.1l-.3-.3v-.1h.1z" fill="#676767"/><path d="m7.9 54.8c-.1-.1-.1-.1 0 0 0-.1 0-.1 0 0l.3.2v.1s0 0-.1 0z" fill="#b4b4b4"/><path d="m8.1 55.2h-.1l-.3-.3v-.1h.1z" fill="#676767"/><path d="m7.7 54.9c0-.1 0-.1 0 0 .1-.1.1-.1 0 0l.3.2v.1s0 0-.1 0z" fill="#b4b4b4"/><path d="m8 55.3-.4-.3v-.1h.1z" fill="#676767"/><path d="m7.6 55c0-.1.1-.1 0 0l.4.2v.1s0 0-.1 0z" fill="#b4b4b4"/><path d="m6 52-.4-.3v-.1h.1l.3.2c.1.1.1.1 0 .2z" fill="#818181"/><path d="m5.7 51.7c-.1-.1-.1-.1 0 0 0-.1 0-.1 0 0l.3.2v.1s0 0-.1 0z" fill="#ccc"/><path d="m5.9 52.1-.4-.3v-.1h.1z" fill="#818181"/><path d="m5.5 51.8c.1-.1.1-.1 0 0l.4.2v.1s0 0-.1 0z" fill="#ccc"/><path d="m5.8 52.2-.4-.3v-.1h.1z" fill="#818181"/><path d="m5.4 51.9c0-.1.1-.1 0 0l.3.2v.1s0 0-.1 0z" fill="#ccc"/><path d="m5.7 52.3-.4-.3v-.1h.1z" fill="#818181"/><path d="m5.3 52c0-.1.1-.1 0 0l.3.2v.1s0 0-.1 0z" fill="#ccc"/><path d="m5.6 52.4-.4-.3v-.1h.1z" fill="#818181"/><path d="m5.2 52.1c0-.1 0-.1 0 0l.3.2v.1s0 0-.1 0z" fill="#ccc"/><path d="m5.3 52.6-.3-.2v-.1h.1l.3.3s0 0-.1 0z" fill="url(#b)"/><path d="m7 52.7-.4-.3v-.1h.1z" fill="#818181"/><path d="m6.7 52.4c-.1 0-.1 0 0 0 0-.1 0-.1 0 0l.3.2v.1s0 0-.1 0z" fill="#ccc"/><path d="m6.9 52.8-.4-.3v-.1h.1z" fill="#818181"/><path d="m6.5 52.5c.1-.1.1-.1 0 0l.3.2v.1s0 0-.1 0z" fill="#ccc"/><path d="m6.8 52.9-.4-.3v-.1h.1z" fill="#818181"/><path d="m6.4 52.6s.1 0 0 0l.3.2v.1s0 0-.1 0z" fill="#ccc"/><path d="m6.7 53-.4-.3v-.1h.1z" fill="#818181"/><path d="m6.3 52.7s.1 0 0 0l.3.3v.1s0 0-.1 0z" fill="#ccc"/><path d="m6.6 53.2-.4-.3v-.1h.1l.3.2z" fill="#818181"/><path d="m6.2 52.8.3.2v.1s0 0-.1 0z" fill="#ccc"/><path d="m6.5 53.3-.4-.3v-.1h.1z" fill="#818181"/><path d="m6.1 53c0-.1 0-.1 0 0l.3.2v.1s0 0-.1 0z" fill="#ccc"/><path d="m6.3 53.4-.4-.3v-.1h.1l.3.4c.1-.1.1-.1 0 0z" fill="#818181"/><path d="m6 53.1c0-.1 0-.1 0 0l.3.2v.1s0 0-.1 0z" fill="#ccc"/><path d="m6.2 53.5-.4-.3v-.1h.1l.3.4c.1-.1.1 0 0 0z" fill="url(#c)"/><path d="m8.1 53.4h-.1l-.3-.3v-.1h.1z" fill="#676767"/><path d="m7.7 53.1c.1 0 .1 0 0 0l.3.2v.1s0 0-.1 0z" fill="#b4b4b4"/><path d="m8 53.6-.4-.3v-.1h.1l.3.2z" fill="#676767"/><path d="m7.6 53.3c0-.1 0-.1 0 0 0-.1.1-.1 0 0l.4.2v.1s0 0-.1 0z" fill="#b4b4b4"/><path d="m7.9 53.7-.4-.3v-.1h.1z" fill="#676767"/><path d="m7.5 53.4c0-.1 0-.1 0 0 0-.1.1-.1 0 0l.3.2v.1s0 0-.1 0z" fill="#b4b4b4"/><path d="m7.8 53.8-.4-.3v-.1h.1z" fill="#676767"/><path d="m7.4 53.5c0-.1 0-.1 0 0l.3.2v.1s0 0-.1 0z" fill="#b4b4b4"/><path d="m7.7 53.9-.4-.3v-.1h.1z" fill="#676767"/><path d="m7.3 53.6c0-.1 0-.1 0 0l.3.2v.1s0 0-.1 0z" fill="#b4b4b4"/><path d="m7.5 54-.4-.3v-.1h.1l.3.4c.1-.1.1 0 0 0z" fill="#676767"/><path d="m7.2 53.7c0-.1 0-.1 0 0l.3.2v.1s0 0-.1 0z" fill="#b4b4b4"/><path d="m7.4 54.1-.4-.3v-.1h.1l.3.4c.1-.1.1 0 0 0z" fill="#676767"/><path d="m7.1 53.8c0-.1 0-.1 0 0l.3.2v.1s0 0-.1 0z" fill="#b4b4b4"/><path d="m7.3 54.2-.4-.2v-.1h.1l.3.3c0-.1 0 0 0 0z" fill="#676767"/><path d="m7 53.9c-.1 0-.1 0 0 0l.3.2v.1s0 0-.1 0z" fill="#b4b4b4"/><path d="m7.2 54.3-.4-.3v-.1h.1z" fill="url(#d)"/><path d="m7.1 54.5-.4-.3v-.1h.1z" fill="url(#e)"/><path d="m8.2 55.7c-.1.1-.3.1-.4 0l-3.2-3.2c-.1-.1-.1-.3 0-.4.2-.1.4-.1.5 0l3.2 3.2c.1.1.1.3-.1.4z" fill="#ccc"/><path d="m6.3 54.1-1.6-1.6c-.1-.1-.1-.1-.1-.2s0-.1.1-.2.1-.1.2-.1.1 0 .2.1l1.6 1.6z" fill="#b4b4b4"/><path d="m6.6 53.7c.1.1.1.2 0 .3s-.2.1-.3 0-.1-.2 0-.3.2-.1.3 0z" fill="#989898"/><path d="m6.6 53.7-.3.3z" fill="#676767"/><path d="m7.5 54.7c0 .1-.1.2-.2.2s-.2-.1-.2-.2.1-.2.2-.2.2.1.2.2z" fill="#989898"/><path d="m7.5 54.7h-.4z" fill="#676767"/><path d="m7.8 55.3c.1-.1.2-.1.3 0s.1.2 0 .3-.2.1-.3 0c0-.1 0-.2 0-.3z" fill="#989898"/><path d="m7.9 55.3.3.3-.3-.3c-.1 0-.1 0 0 0z" fill="#676767"/><path d="m5.1 52.2c.1.1.1.2 0 .3s-.2.1-.3 0-.1-.2 0-.3c0-.1.2-.1.3 0z" fill="#818181"/><path d="m5.1 52.2-.3.3z" fill="#4e4e4e"/><path d="m5.6 52.8c.1 0 .2.1.2.2s-.1.2-.2.2-.2-.1-.2-.2.1-.2.2-.2z" fill="#818181"/><path d="m5.6 52.8v.4z" fill="#4e4e4e"/><path d="m14.6 50.5-4.3-4.1s-1.4-1.2-.4-2.7c.7-1.1 2-2 4.1-3.1 2.2-1.2 3.7-2.3 4.7-3.5s1.5-2.9 2.2-2.6.5 2.8.5 2.8.1 3.4 1.5 4.8c1.1 1.1 2.3 1.1 3.6.7.8-.3 2-1.4 2.4-1.1.5.3.1 1.7-1.8 3.1-1.2.9-3.8 1.4-5.3 2.9-1.4 1.5-1.8 4.6-2.9 7-1.2 2.5-3.1 3.9-5.3 4.3-2.1.3-4-.5-3.7-1.2.3-.8 1.6-.1 3.6-1.3 1.2-.7 2.2-2.1 2.2-3.5 0-1.6-1.1-2.5-1.1-2.5z" fill="#f3f3f3"/><path d="m12.1 48.1-1.9-1.8s-1.4-1.2-.4-2.7c.7-1.1 2-2 4.1-3.1 2.2-1.2 3.7-2.3 4.7-3.5s1.5-2.9 2.2-2.6.5 2.8.5 2.8l-.8 2.4z" fill="#ccc"/><path d="m12.3 48-1.9-1.8c-.3-.3-1.1-1.3-.3-2.4.7-1 1.8-1.9 4-3 2.2-1.2 3.7-2.3 4.7-3.5.4-.5.7-1 .9-1.4.5-.8.8-1.3 1.1-1.1 0 0 .1 0 .1.1.4.4.3 2 .3 2.5 0 .1-.8 2.5-.8 2.5z" fill="#f3f3f3"/><path d="m15.9 54.9c-.4.4-.4.9 0 1.3s.9.4 1.3 0 .4-.9 0-1.3-1-.4-1.3 0z" fill="#c2c2c2"/><path d="m15.9 56.2c.4.4.9.4 1.3 0s.4-.9 0-1.3z" fill="#fff"/><path d="m16.9 55.9c-.2.2-.6.2-.8 0s-.2-.6 0-.8.6-.2.8 0c.2.3.2.6 0 .8z" fill="#c2c2c2"/><path d="m16.1 55.9c-.2-.2-.2-.6 0-.8s.6-.2.8 0z" fill="#fff"/><path d="m54.1 1.5c-.1-.4.3-.7.3-.7s-.1-.4.3-.7.8 0 .8 0 .5-.2.7.1c.5.5 0 .9-.1 1.1 0 .2.1.5.1.5l-.7.4s-.2-.2-.4-.3c-.2 0-.8.2-1-.4z" fill="#ccc"/><path d="m55.8 2 .3-.2s-.1-.3-.1-.5.5-.7.1-1.1c-.3-.3-.7-.1-.7-.1s-.3-.3-.8 0z" fill="#989898"/><path d="m53.5 1.9c-.3-.3-.7-.1-.7-.1s-.3-.3-.8 0c-.4.3-.3.7-.3.7s-.4.3-.2.7c.2.6.8.4 1.1.5.2 0 .4.2.4.2l.8-.2s-.3-.3-.2-.7c0-.2.4-.6-.1-1.1z" fill="#989898"/><path d="m53.3 3.9h-.3s-.2-.2-.4-.3-.8.2-1.1-.5c-.2-.4.2-.7.2-.7s-.1-.3.3-.6z" fill="#ccc"/><path d="m50.9 3.6c-.3-.3-.7-.1-.7-.1s-.3-.3-.8 0c-.4.3-.3.7-.3.7s-.4.4-.2.8c.2.6.8.4 1.1.5.2.1.4.3.4.3l.8-.2s-.3-.3-.2-.7c-.1-.3.4-.8-.1-1.3z" fill="#989898"/><path d="m50.7 5.6-.3.3s-.3-.4-.5-.4c-.2-.1-.8.2-1.1-.5-.2-.4.2-.7.2-.7s0-.5.4-.7z" fill="#ccc"/><path d="m48.4 5.5c-.3-.3-.7-.1-.7-.1s-.3-.3-.8 0c-.4.3-.3.7-.3.7s-.4.3-.2.7c.2.6.8.4 1.1.5.2.1.4.3.4.3l.8-.2s-.3-.3-.2-.7c-.1-.2.4-.7-.1-1.2z" fill="#989898"/><path d="m48.2 7.5-.2.2s-.3-.3-.5-.4-.8.2-1.1-.5c-.2-.4.2-.7.2-.7s-.1-.4.3-.7z" fill="#ccc"/><path d="m47.3 10.8s.1-.5 0-1c-.2-.8-.4-1-.3-1.4 0-.3 1.8-1.4 4.2-3.1 2.5-1.7 4.7-3.4 5.8-3.8.7-.2 1.6-.1 2.3.7.6.7.8 2.1-.3 3.1-1.4 1-2 .3-2.6.7-.4.3-1 1.7-1.7 2.9-.8 1.4-1.6 2.8-1.9 2.8s-.9-.5-1.9-.3-1.8 1.2-1.8 1.2z" fill="#e4cb4d"/><path d="m57 4c-.3.2-.7.2-.9-.2-.2-.3-.2-.7.1-.9s.7-.2.9.2c.3.2.2.6-.1.9z" fill="#e6e6e5"/><path d="m54.6 5.6c-.3.2-.7.2-.9-.2-.2-.3-.2-.7.1-.9s.7-.2.9.2c.2.3.2.7-.1.9z" fill="#e6e6e5"/><path d="m52.1 7.4c-.3.2-.7.2-.9-.2-.2-.3-.2-.7.1-1 .3-.2.7-.1.9.2.3.3.2.7-.1 1z" fill="#e6e6e5"/><path d="m49.6 9.2c-.3.2-.7.2-.9-.2-.2-.3-.2-.7.1-.9s.7-.2.9.2c.3.2.2.7-.1.9z" fill="#e6e6e5"/><path d="m48.7 13.1-1.8-1.7.2-.2 1.7 1.7z" fill="#fff"/><path d="m56.9 3.8c-.2.2-.5.1-.7-.1s-.1-.5.1-.7.5-.1.7.1c.1.2.1.5-.1.7z" fill="#b4b4b4"/><path d="m54.4 5.5c-.2.2-.5.1-.7-.1s-.1-.5.1-.7.5-.1.7.1.2.5-.1.7z" fill="#b4b4b4"/><path d="m52 7.2c-.2.2-.5.1-.7-.1s-.1-.5.1-.7.5-.1.7.1c.1.2.1.5-.1.7z" fill="#b4b4b4"/><path d="m49.5 9c-.2.2-.5.1-.7-.1s-.1-.5.1-.7.5-.1.7.1c.2.3.1.6-.1.7z" fill="#b4b4b4"/><path d="m21.8 41c-.4.1-.8-.3-1.7-1.2s-1-1.2-.9-1.6c.1-.3 28-27.3 28-27.3l1.9 1.9c0-.1-26.9 28-27.3 28.2z" fill="#a6832e"/><path d="m48.7 13.2-1.9-2 .1-.1 1.9 1.9z" fill="#fff"/><g fill="#4d4d4d"><path d="m46.5 15.4-1.9-1.9.1-.1 1.9 1.9z"/><path d="m44.6 17.4-2-2 .1-.1 2 2z"/><path d="m42.7 19.4-2.1-2.1.1-.1 2.1 2.1z"/><path d="m41 21.2-2.2-2.2.1-.1 2.2 2.2z"/><path d="m39.3 23-2.3-2.3.1-.1 2.3 2.3z"/><path d="m37.8 24.6-2.3-2.3.1-.1 2.3 2.3z"/><path d="m36.3 26.1-2.4-2.3.1-.1 2.4 2.3z"/><path d="m34.8 27.6-2.3-2.4.1-.1 2.3 2.4z"/><path d="m33.5 29-2.4-2.5.1-.1 2.4 2.5z"/><path d="m32.3 30.3-2.5-2.5.1-.1 2.5 2.5z"/><path d="m31.1 31.5-2.5-2.6.1-.1 2.5 2.6z"/><path d="m30 32.6-2.5-2.6.1-.1 2.5 2.6z"/><path d="m28.9 33.7-2.5-2.6.1-.1 2.5 2.6z"/><path d="m27.9 34.8-2.6-2.6.1-.2 2.6 2.7z"/><path d="m27 35.7-2.6-2.6.1-.1 2.6 2.6z"/><path d="m26.2 36.6-2.7-2.7.1-.1 2.7 2.7z"/><path d="m25.3 37.5-2.7-2.7.1-.1 2.7 2.7z"/><path d="m24.3 38.5-2.7-2.7.1-.1 2.7 2.7z"/><path d="m23.5 39.3-2.7-2.7.1-.1 2.7 2.7z"/><path d="m22.8 40.1-2.7-2.8.1-.1 2.7 2.8z"/><path d="m22.1 40.7-2.7-2.7.1-.1 2.7 2.7z"/></g><g fill="#ccc"><path d="m46.6 15.4-2-2 .1-.1 2 2z"/><path d="m44.7 17.4-2.1-2.1.1-.1 2.1 2.1z"/><path d="m42.7 19.4-2.1-2.1.1-.1 2.2 2.1z"/><path d="m41 21.2-2.1-2.2.1-.1 2.1 2.2z"/><path d="m39.3 23-2.2-2.3.1-.1 2.2 2.3z"/><path d="m37.8 24.5-2.3-2.3.1-.1 2.3 2.3z"/><path d="m36.3 26.1-2.3-2.4.1-.1 2.3 2.4z"/><path d="m34.9 27.6-2.4-2.4.1-.1 2.4 2.4z"/><path d="m33.5 29-2.4-2.5.1-.1 2.4 2.5z"/><path d="m32.3 30.2-2.5-2.5.1-.1 2.5 2.5z"/><path d="m31.1 31.5-2.5-2.6.1-.1 2.5 2.6z"/><path d="m30.1 32.6-2.6-2.6.1-.1 2.6 2.6z"/><path d="m29 33.7-2.6-2.6.1-.1 2.6 2.6z"/><path d="m28 34.8-2.7-2.7.2-.1 2.6 2.7z"/><path d="m27.1 35.7-2.7-2.7.1-.1 2.7 2.7z"/><path d="m26.2 36.6-2.7-2.7.1-.1 2.7 2.7z"/><path d="m25.3 37.5-2.7-2.7.1-.1 2.7 2.7z"/><path d="m24.4 38.4-2.7-2.7.1-.1 2.7 2.7z"/><path d="m23.5 39.3-2.7-2.7.1-.1 2.7 2.7z"/><path d="m22.8 40-2.7-2.7.1-.1 2.7 2.7z"/><path d="m22.2 40.7-2.8-2.8.1-.1 2.8 2.8z"/></g><path d="m42.9 17.5c-.1.1-.3.1-.4 0s-.1-.3 0-.4.3-.1.4 0 .1.3 0 .4z" fill="#eedd84"/><path d="m39.3 21.1c-.1.1-.3.1-.4 0s-.1-.3 0-.4.3-.1.4 0 .1.3 0 .4z" fill="#eedd84"/><path d="m36.1 24.3c-.1.1-.3.1-.4 0s-.1-.3 0-.4.3-.1.4 0 .1.3 0 .4z" fill="#eedd84"/><path d="m33.3 27.2c-.1.1-.3.1-.4 0s-.1-.3 0-.4.3-.1.4 0 .1.3 0 .4z" fill="#eedd84"/><path d="m31.4 30.5c-.1.1-.3.1-.4 0s-.1-.3 0-.4.3-.1.4 0c.1.2.1.3 0 .4z" fill="#eedd84"/><path d="m29.9 29.1c-.1.1-.3.1-.4 0s-.1-.3 0-.4.3-.1.4 0 .1.2 0 .4z" fill="#eedd84"/><path d="m27.4 33.1c-.1.1-.3.1-.4 0s-.1-.3 0-.4.3-.1.4 0 .1.3 0 .4z" fill="#eedd84"/><path d="m25.5 34.9c-.1.1-.3.1-.4 0s-.1-.3 0-.4.3-.1.4 0c.1.2.1.3 0 .4z" fill="#eedd84"/><path d="m23.8 36.8c-.1.1-.3.1-.4 0s-.1-.3 0-.4.3-.1.4 0 .1.2 0 .4z" fill="#eedd84"/><path d="m22.1 38.4c-.1.1-.3.1-.4 0s-.1-.3 0-.4.3-.1.4 0c.1.2.1.3 0 .4z" fill="#eedd84"/><circle cx="14" cy="57.6" fill="#c2c2c2" r=".9"/><path d="m13.4 58.2c.4.4.9.4 1.3 0s.4-.9 0-1.3z" fill="#fff"/><circle cx="14" cy="57.6" fill="#c2c2c2" r=".6"/><path d="m13.6 58c-.2-.2-.2-.6 0-.8s.6-.2.8 0z" fill="#fff"/><path d="m16 49.3c.2-.2.2-.5 0-.6-.2-.2-.5-.2-.6 0-.2.2-.2.5 0 .6.2.2.5.2.6 0z" fill="#434343"/><path d="m16 49.3c.2-.2.2-.5 0-.6-.2-.2-.5-.2-.6 0z" fill="#010101"/><path d="m16 49.3c.1-.1.1-.4 0-.5s-.4-.1-.5 0-.1.4 0 .5.3.1.5 0z" fill="#010101"/><path d="m16 49.3c.1-.1.1-.4 0-.5s-.4-.1-.5 0z" fill="#434343"/><path d="m13.3 46.6c.2-.2.2-.5 0-.6-.2-.2-.5-.2-.6 0s-.2.5 0 .6c.1.2.4.2.6 0z" fill="#434343"/><path d="m13.3 46.6c.2-.2.2-.5 0-.6-.2-.2-.5-.2-.6 0z" fill="#010101"/><path d="m13.2 46.5c.1-.1.1-.4 0-.5s-.4-.1-.5 0-.1.4 0 .5c.2.2.4.2.5 0z" fill="#010101"/><path d="m13.2 46.5c.1-.1.1-.4 0-.5s-.4-.1-.5 0z" fill="#434343"/><path d="m15.1 49.8h-.1l-2.8-2.8v-.1l1.4-1.4h.1l2.7 2.7v.1z" fill="#010101"/><path d="m15.1 49.8c-.1 0-.1 0-.1 0l-2.8-2.8s0 0 0-.1c0 0 0 0 0-.1l.7-.7 2.9 2.9z" fill="#434343"/><path d="m15.1 49.6c-.1 0-.1 0 0 0l-2.7-2.6v-.1l1.2-1.2h.1l2.6 2.6v.1z" fill="#434343"/><path d="m15 48.3c-.1.1-.1.3 0 .4s.3.1.4 0 .1-.3 0-.4c-.2-.1-.3-.1-.4 0z" fill="#010101"/><path d="m15 48.3c-.1.1-.1.3 0 .4s.3.1.4 0z" fill="#434343"/><path d="m15 48.3c-.1.1-.1.2 0 .3s.2.1.3 0 .1-.2 0-.3-.2-.1-.3 0z" fill="#b4b4b4"/><path d="m15 48.3c-.1.1-.1.2 0 .3s.2.1.3 0z" fill="#676767"/><path d="m14.4 47.7c-.1.1-.1.3 0 .4s.3.1.4 0 .1-.3 0-.4-.3-.1-.4 0z" fill="#010101"/><path d="m14.4 47.7c-.1.1-.1.3 0 .4s.3.1.4 0z" fill="#434343"/><path d="m14.5 47.8c-.1.1-.1.2 0 .3s.2.1.3 0 .1-.2 0-.3-.2-.1-.3 0z" fill="#b4b4b4"/><path d="m14.5 47.8c-.1.1-.1.2 0 .3s.2.1.3 0z" fill="#676767"/><path d="m13.9 47.2c-.1.1-.1.3 0 .4s.3.1.4 0 .1-.3 0-.4-.3-.1-.4 0z" fill="#010101"/><path d="m13.9 47.2c-.1.1-.1.3 0 .4s.3.1.4 0z" fill="#434343"/><path d="m13.9 47.2c-.1.1-.1.2 0 .3s.2.1.3 0 .1-.2 0-.3c-.1 0-.2 0-.3 0z" fill="#b4b4b4"/><path d="m13.9 47.2c-.1.1-.1.2 0 .3s.2.1.3 0z" fill="#676767"/><path d="m13.3 46.6c-.1.1-.1.3 0 .4s.3.1.4 0 .1-.3 0-.4-.3-.1-.4 0z" fill="#010101"/><path d="m13.3 46.6c-.1.1-.1.3 0 .4s.3.1.4 0z" fill="#434343"/><path d="m13.4 46.7c-.1.1-.1.2 0 .3s.2.1.3 0 .1-.2 0-.3-.2-.1-.3 0z" fill="#b4b4b4"/><path d="m13.4 46.7c-.1.1-.1.2 0 .3s.2.1.3 0z" fill="#676767"/><path d="m15.9 46.2c.2-.2.2-.5 0-.6-.2-.2-.5-.2-.6 0-.2.2-.2.5 0 .6.2.2.5.2.6 0z" fill="#434343"/><path d="m15.9 46.2c.2-.2.2-.5 0-.6-.2-.2-.5-.2-.6 0z" fill="#010101"/><path d="m15.9 46.1c.1-.1.1-.4 0-.5s-.4-.1-.5 0-.1.4 0 .5c.1.2.3.2.5 0z" fill="#010101"/><path d="m15.9 46.1c.1-.1.1-.4 0-.5s-.4-.1-.5 0z" fill="#434343"/><path d="m13.2 43.4c.2-.2.2-.5 0-.6-.2-.2-.5-.2-.6 0-.2.2-.2.5 0 .6.1.2.4.2.6 0z" fill="#434343"/><path d="m13.2 43.4c.2-.2.2-.5 0-.6-.2-.2-.5-.2-.6 0z" fill="#010101"/><path d="m13.1 43.4c.1-.1.1-.4 0-.5s-.4-.1-.5 0-.1.4 0 .5c.2.1.4.1.5 0z" fill="#010101"/><path d="m13.1 43.4c.1-.1.1-.4 0-.5s-.4-.1-.5 0z" fill="#434343"/><path d="m15 46.6h-.1l-2.7-2.7v-.1l1.4-1.4h.1l2.7 2.7v.1z" fill="#010101"/><path d="m15 46.6c-.1 0-.1 0-.1 0l-2.7-2.7s0 0 0-.1c0 0 0 0 0-.1l.7-.7 2.9 2.9z" fill="#434343"/><path d="m15 46.5c-.1 0-.1 0 0 0l-2.7-2.6v-.1l1.2-1.2h.1l2.6 2.6v.1z" fill="#434343"/><path d="m14.9 45.1c-.1.1-.1.3 0 .4s.3.1.4 0 .1-.3 0-.4-.3-.1-.4 0z" fill="#010101"/><path d="m14.9 45.1c-.1.1-.1.3 0 .4s.3.1.4 0z" fill="#434343"/><path d="m14.9 45.2c-.1.1-.1.2 0 .3s.2.1.3 0 .1-.2 0-.3-.2-.1-.3 0z" fill="#b4b4b4"/><path d="m14.9 45.2c-.1.1-.1.2 0 .3s.2.1.3 0z" fill="#676767"/><path d="m14.3 44.6c-.1.1-.1.3 0 .4s.3.1.4 0 .1-.3 0-.4-.3-.1-.4 0z" fill="#010101"/><path d="m14.3 44.6c-.1.1-.1.3 0 .4s.3.1.4 0z" fill="#434343"/><path d="m14.4 44.6c-.1.1-.1.2 0 .3s.2.1.3 0 .1-.2 0-.3c-.1 0-.2 0-.3 0z" fill="#b4b4b4"/><path d="m14.4 44.6c-.1.1-.1.2 0 .3s.2.1.3 0z" fill="#676767"/><path d="m13.8 44c-.1.1-.1.3 0 .4s.3.1.4 0 .1-.3 0-.4-.3-.1-.4 0z" fill="#010101"/><path d="m13.8 44c-.1.1-.1.3 0 .4s.3.1.4 0z" fill="#434343"/><path d="m13.9 44.1c-.1.1-.1.2 0 .3s.2.1.3 0 .1-.2 0-.3c-.2-.1-.3-.1-.3 0z" fill="#b4b4b4"/><path d="m13.9 44.1c-.1.1-.1.2 0 .3s.2.1.3 0z" fill="#676767"/><path d="m13.2 43.5c-.1.1-.1.3 0 .4s.3.1.4 0 .1-.3 0-.4-.2-.1-.4 0z" fill="#010101"/><path d="m13.3 43.5c-.1.1-.1.3 0 .4s.3.1.4 0z" fill="#434343"/><path d="m13.3 43.5c-.1.1-.1.2 0 .3s.2.1.3 0 .1-.2 0-.3c-.1 0-.2 0-.3 0z" fill="#b4b4b4"/><path d="m13.3 43.5c-.1.1-.1.2 0 .3s.2.1.3 0z" fill="#676767"/><path d="m48.6 12.9-16.2 16.7-24.9 25.9-.1-.1 24.9-25.8 16.3-16.7 8.1-9.5.1.1z" fill="#ccc"/><path d="m48.2 12.4-16.4 16.6-25.2 25.6h-.1l25.2-25.6 16.4-16.7 6.2-7.2v.1z" fill="#ccc"/><path d="m47.7 12-16.6 16.4-25.4 25.3-.1-.1 25.4-25.3 16.6-16.4 4.2-5.1.1.1z" fill="#ccc"/><path d="m47.3 11.5-16.6 16.1-25.9 25.3-.1-.2 25.9-25.2 16.6-16.1 2.1-2.8.1.1z" fill="#ccc"/><path d="m56.8 3.6c-.1.1-.3.1-.4-.1-.1-.1-.1-.3.1-.4.1-.1.3-.1.4.1 0 .2 0 .3-.1.4z" fill="#818181"/><path d="m54.3 5.3c-.1.1-.3.1-.4-.1-.1-.1-.1-.3.1-.4.1-.1.3-.1.4.1.1.1.1.3-.1.4z" fill="#818181"/><path d="m51.9 7c-.1.1-.3.1-.4-.1-.1-.1-.1-.3.1-.4.1-.1.3-.1.4.1 0 .2 0 .4-.1.4z" fill="#818181"/><path d="m49.4 8.9c-.1.1-.3 0-.4-.1s-.1-.3.1-.4c.1-.1.3-.1.4.1.1.1 0 .3-.1.4z" fill="#818181"/></svg>