<svg enable-background="new 0 0 60 60" height="60" viewBox="0 0 60 60" width="60" xmlns="http://www.w3.org/2000/svg"><g fill="#063e89"><path d="m58 3.5h-1.7v.6h-20.3-4.1-6.9-4.7-16.4v-.6h-1.9c-1.1 0-2 .9-2 2v50.9c0 1.1.9 2 2 2h1.9v-.7h52.4v.7h1.7c1.1 0 2-.9 2-2v-50.9c0-1.1-.9-2-2-2zm-56.1 2.3c-.3 0-.5-.2-.5-.5s.2-.5.5-.5.5.2.5.5-.2.5-.5.5zm54.4 5.2h-52.4v-5.6-.2h52.4v.2zm1.8-5.5c-.3 0-.5-.2-.5-.5s.2-.5.5-.5.5.2.5.5-.2.5-.5.5zm-48.7 1.2v.4c.2 0 .3 0 .5.1.5.3.7.9.4 1.3-.2.6-.8.8-1.3.5-.4-.3-.6-.8-.4-1.3.1-.2.3-.3.5-.4l-.1-.5c-.3.1-.6.3-.9.6-.1.8.1 1.6.7 2.2.8.1 1.6-.1 2.2-.7.1-.8-.1-1.6-.7-2.2-.3 0-.6 0-.9 0zm.4.4.1-.3zm-1.4.2.2.2zm-.2.5.2.1v.1zm0 .5h.2zm.1.5.2-.2zm.3.3.1-.1zm.3.3.1-.3zm.5.1v-.2zm1-.3-.2-.2h.1zm.3-.5-.2-.1zm.1-.4-.2-.1zm0-.5-.2.1zm-.2-.4-.1.1zm-.3-.3-.2.2zm-1-.8-.3.5c.1 0 .3-.1.4-.1zm43.3 1v.4c.2 0 .3 0 .5.1.5.2.7.9.4 1.3-.3.5-.9.6-1.3.4-.5-.3-.7-.9-.4-1.3.1-.2.2-.3.4-.4l-.1-.4c-.3.1-.7.3-1 .6-.1.8.2 1.6.7 2.2.8.1 1.6-.1 2.2-.7.1-.8-.1-1.6-.7-2.2-.2-.1-.5-.1-.7 0zm.3.3.1-.2zm-1.4.3.3.2zm-.2.5.2.1zm0 .4h.2zm.1.5.2-.1zm.3.4.1-.1zm.4.3.1-.2zm.5.1v-.3zm1-.4-.2-.2v-.1zm.2-.4-.2-.1v-.1zm.2-.4h-.2zm-.1-.5-.2.1v-.1zm-.2-.4-.1.1zm-.2-.3-.2.2zm-1.1-.9-.2.5c.1 0 .3-.1.4-.1zm-6.7.7v.4c.2 0 .3 0 .5.1.5.3.7.9.4 1.3-.3.5-.9.7-1.3.4s-.7-.7-.4-1.2c.1-.2.2-.4.4-.5l-.1-.4c-.4.1-.7.3-1 .6 0 .8.2 1.6.8 2.2.8.1 1.6-.1 2.2-.7.1-.8-.1-1.6-.7-2.2-.3 0-.6 0-.8 0zm.4.4v-.2zm-1.5.2.3.2zm-.1.5.2.1zm-.1.5h.2zm.2.5.2-.2v.1zm.3.3.1-.1zm.3.3.1-.2zm.5.1v-.3zm1-.4-.2-.2zm.3-.4-.2-.1v-.1zm.1-.4-.2-.1zm0-.5-.2.1zm-.2-.5-.1.1v-.1zm-.3-.3-.1.2h-.1zm-1.1-.7-.2.5c.1 0 .2-.1.4-.1zm-5.4.3v.4c.2 0 .3.1.5.1.5.3.7.8.4 1.3s-.9.7-1.3.4c-.5-.2-.7-.9-.4-1.3.1-.2.3-.4.5-.4l-.1-.4c-.4.1-.7.3-1 .5-.1.8.1 1.6.7 2.2.8.1 1.6-.1 2.2-.6.1-.8-.1-1.6-.7-2.2-.3 0-.5 0-.8 0zm.4.3v-.2zm-1.4.3.3.2zm-.2.5.2.1v.1zm0 .4h.2v.1zm.1.5.2-.2zm.3.4.1-.2zm.3.2.1-.2h.1s-.2.2-.2.2zm.5.2v-.3zm1-.4-.2-.2zm.3-.4-.2-.1zm.1-.5h-.2v-.1zm0-.4-.3.1zm-.2-.5-.1.1zm-.2-.3-.2.2zm-1.1-.7-.2.5c.1-.1.2-.1.4-.1zm-4.9.1v.4c.2 0 .3 0 .5.1.5.3.7.9.4 1.3-.2.5-.8.7-1.3.4s-.7-.8-.4-1.3c.1-.2.3-.4.5-.4l-.1-.4c-.3.1-.7.3-1 .5-.1.8.1 1.6.7 2.2.8.1 1.6-.1 2.2-.7.1-.8-.1-1.6-.7-2.2-.3 0-.5 0-.8.1zm.4.3v-.3zm-1.5.2.3.2v.1zm-.2.5.2.1v.1zm0 .5h.2v.1zm.1.5.2-.2zm.3.3.1-.2zm.3.3.1-.3zm.5.1v-.3zm1-.4-.2-.2zm.3-.4-.2-.1zm.1-.4h-.2v-.1zm0-.5-.2.1zm-.2-.4-.1.1zm-.3-.3-.2.2zm-1-.8-.2.5c.1 0 .2 0 .3-.1 0 0-.1-.4-.1-.4z"/><circle cx="21.7" cy="8.6" r=".3"/><circle cx="5.6" cy="7.9" r=".3"/><circle cx="5.5" cy="6.6" r=".3"/><circle cx="23.1" cy="8.6" r=".3"/><circle cx="37.6" cy="8.7" r=".3"/><circle cx="42.8" cy="8.8" r=".3"/><circle cx="49.1" cy="8.8" r=".3"/><path d="m23.6 3.5h-.1s1.7-1.4 5.6-1.4 5.1 1.4 5.1 1.4h-.3l-1.4.9h6.1l-1.6-.9h-.2s-3.3-2.2-8.4-2c-4.5.2-7.8 2-7.8 2h-.3l-1 .9h5.2z"/></g><circle cx="30.1" cy="33.8" fill="#fff" r="21.7"/><circle cx="30.1" cy="33.8" fill="#063e89" r="3.3"/><circle cx="30.1" cy="33.8" fill="none" r="19.8" stroke="#063e89" stroke-miterlimit="10"/><path d="m11.8 15.8c.4 0 .7-.3.7-.7s-.3-.7-.7-.7-.7.3-.7.7.3.6.7.7zm-2.5-1.7c-.1-.1-.3-.2-.4-.3-.3-.2-.6-.3-1-.4-.2-.1-.4-.1-.7-.1-.2 0-.3 0-.4 0s-.2 0-.3 0c-.2 0-.4 0-.6 0-.3.1-.7.2-1 .4-.4.2-.7.5-1 .8-.2.3-.4.6-.5.9-.1.2-.1.3-.1.5v.2.3c0 .2.1.4.2.5.1.2.2.4.4.5.3.2.6.3.9.4h.5c.3-.1.6-.2.8-.4.1-.1.2-.2.2-.3.1-.2.1-.3.1-.5 0-.1 0-.2-.1-.4s-.2-.4-.4-.5c-.3-.2-.6-.3-.9-.3-.1 0-.2 0-.3.1-.1 0-.2.1-.3 0-.1 0-.2-.1-.1-.2s.1-.3.2-.4c.1-.3.3-.5.5-.7.2-.1.4-.2.6-.2s.4-.1.6-.1h.6c.3.1.7.2.9.4s.4.4.5.7.2.7.3 1.1c.1.5.1 1 0 1.5-.2.9-.5 1.7-1 2.4s-1.2 1.4-1.9 2c-.6.5-1.2 1-1.9 1.4-.2.1-.4.3-.6.4-.1.2-.1.3 0 .3.2 0 .3-.1.5-.1 1.1-.5 2.2-1.1 3.2-1.8.8-.6 1.5-1.2 2.2-1.9.5-.5.9-1.1 1.2-1.7.2-.4.3-.9.4-1.4 0-.5 0-1-.2-1.5-.2-.6-.6-1.2-1.1-1.6zm2.4 3.3c-.4 0-.7.3-.7.7s.4.7.8.7.7-.3.7-.7-.3-.7-.8-.7z" fill="#fff"/></svg>