<svg height="60" width="60" xmlns="http://www.w3.org/2000/svg"><path d="m47.64 0h-.94v.34h-11.38l-2.3.02.03-.02h-3.87v.02h-2.6v-.03h-9.3v-.33h-1.08c-.62 0-1.12.5-1.12 1.13v29.54c0 .62.5 1.12 1.12 1.12h1.07v-.4h29.43v.4h.94c.62 0 1.12-.5 1.12-1.13v-29.53c0-.62-.5-1.12-1.12-1.12zm-31.47 1.3c-.15 0-.28-.13-.28-.3 0-.14.1-.27.26-.27s.28.13.28.28c0 .18-.13.3-.28.3zm30.53 2.9h-29.4v-3.23h29.4zm1.03-3.06c-.15 0-.28-.13-.28-.28s.13-.28.28-.28.28.13.28.28-.1.28-.26.28zm-27.33.68.02.05v.2c.08 0 .18 0 .27.05.25.15.35.48.2.75-.14.27-.47.37-.74.23-.27-.15-.37-.48-.23-.75.06-.1.16-.2.27-.24l-.04-.2c-.2.05-.37.15-.53.3-.06.43.08.9.37 1.22.44.07.9-.06 1.23-.36.06-.44-.07-.9-.37-1.23-.16 0-.3 0-.46.02zm.2.2h-.02l.05-.15-.02.14zm-.8.14.16.1v.02l-.17-.1v-.02zm-.1.28.13.04v.03l-.13-.02v-.03zm-.02.25.13-.03.03.03-.13.02-.02-.03zm.08.25v-.02l.12-.06v.03l-.12.06zm.17.2-.02-.02.1-.07v.02l-.06.06zm.2.15h-.03l.06-.13h.03l-.1.14zm.26.08v-.15.15h-.02zm.55-.2-.14-.12.03-.02.14.12-.02.02zm.15-.26-.1-.06v-.02l.12.06v.02zm.08-.23-.13-.04v-.03l.14.02-.03.03zm0-.28-.15.03v-.03l.13-.03v.02zm-.14-.25.02.02-.1.05v-.02l.08-.06zm-.13-.15-.1.12v-.02l.08-.1zm-.6-.42-.13.3c.07-.03.15-.05.22-.06l-.1-.24zm24.3.54.02.05v.2c.1 0 .2 0 .28.05.27.15.37.48.22.75-.14.27-.48.37-.74.22-.27-.16-.37-.5-.23-.76.06-.12.16-.2.27-.25l-.05-.2v-.04c-.2.07-.37.17-.53.3-.06.45.07.9.37 1.24.46.07.9-.07 1.25-.37.06-.43-.08-.9-.37-1.22-.16 0-.3 0-.47.03zm.2.2.04-.15-.03.14zm-.78.14.15.1-.17-.08zm-.1.28.12.04v.02l-.13-.04.03-.02zm-.02.26.13-.02v.02zm.07.26v-.02l.12-.06v.02l-.14.06zm.17.2-.02-.02.07-.07-.07.1zm.2.15h-.03l.08-.12h.03l-.06.14zm.26.1v-.16h.02v.15h-.02zm.57-.2-.14-.14h.02l.13.1v.03zm.15-.27-.12-.06v-.02l.13.06v.03zm.08-.24-.14-.03v-.03l.14.02zm-.02-.27-.14.03v-.03l.13-.03v.02zm-.13-.25v.02l-.07.05v-.02zm-.14-.17-.07.13-.04-.04.1-.1zm-.6-.42-.13.3c.08-.03.16-.05.23-.06zm-3.75.38.02.05v.2c.08 0 .18 0 .27.07.27.15.37.48.23.75-.15.28-.48.38-.75.24-.27-.15-.37-.48-.22-.75.06-.1.15-.2.27-.24l-.06-.22.03-.02c-.2.08-.38.18-.54.32-.07.44.07.9.37 1.23.43.06.9-.08 1.22-.37.06-.44-.08-.9-.38-1.23-.14-.02-.3-.02-.45 0zm.2.2h-.02l.06-.17-.04.15zm-.8.14.16.1-.15-.08.02-.02zm-.1.28.14.04-.03.02-.13-.04v-.02zm0 .25h.12l-.13.02v-.02zm.07.27-.02-.02.13-.06.02.02zm.16.2-.02-.02.07-.08.02.02zm.2.15-.03-.02.07-.12.02.03-.06.13zm.26.06v-.12h.02v.14l-.02.02zm.57-.17-.1-.13v-.02l.14.12-.02.02zm.17-.26-.1-.06.12.05-.03.02zm.07-.23-.12-.02v-.04l.14.02v.02zm0-.27-.15.04v-.03l.13-.03v.02zm-.13-.24v.02l-.06.05-.02-.03.1-.05zm-.14-.17-.08.1h-.02l.08-.12zm-.6-.44-.14.3c.07-.03.15-.05.23-.06l-.1-.24zm-3.06.16.02.05v.2c.1 0 .2 0 .28.06.27.12.37.45.23.72s-.48.37-.75.23-.37-.48-.23-.75c.07-.1.16-.18.27-.23l-.05-.2v-.03c-.2.06-.37.17-.53.3-.06.44.08.9.37 1.23.46.07.9-.07 1.25-.37.06-.44-.07-.9-.37-1.22-.16-.03-.3-.02-.47 0zm.22.2h-.03l.03-.15-.02.15zm-.8.14.15.1v.02l-.17-.1zm-.1.3.12.02v.03l-.13-.04.03-.02zm-.02.23h.13v.02h-.13zm.07.28v-.05l.12-.05v.02l-.14.06zm.17.2-.02-.03.07-.07v.02l-.07.07zm.2.14h-.03l.08-.14h.03l-.06.14zm.26.07v-.16h.02v.14h-.02zm.57-.2-.13-.12v-.04l.15.13-.04.02zm.15-.25-.12-.1h.02l.1.05v.03zm.07-.26-.14-.02v-.03l.13.03v.02zm-.03-.26-.14.02.13-.04v.03zm-.13-.26.02.02-.1.06.08-.06zm-.14-.17-.08.1h-.04l.1-.12v.02zm-.6-.4-.12.3c.07-.04.15-.06.22-.07l-.1-.24zm-2.75.04.02.04-.03.2c.1 0 .2 0 .3.06.26.14.35.48.2.75-.13.27-.47.37-.73.22-.27-.14-.37-.47-.23-.74.07-.12.17-.2.28-.25l-.07-.2v-.03c-.17.07-.36.17-.5.3-.06.45.07.9.37 1.23.44.07.9-.07 1.22-.37.06-.4-.08-.87-.38-1.2-.15-.02-.3-.02-.46 0zm.2.2v-.02l.04-.14v.15zm-.8.13.17.1-.02.02-.15-.1zm-.1.3.14.03v.02l-.1-.04v-.02zm0 .24h.12l-.15.02v-.04zm.07.27v-.02l.12-.06v.02zm.16.2v-.02l.06-.08.02.02zm.2.14h-.02l.06-.13h.02zm.27.08v-.16h.02v.16h-.04zm.56-.2-.13-.13h.02l.13.1zm.16-.26-.14-.06v-.02l.13.06-.03.02zm.05-.24h-.13v-.06l.13.02v.02zm-.02-.26-.14.03v-.03l.13-.02v.02zm-.12-.25v.03l-.06.05-.02-.02.1-.03zm-.14-.16-.08.1-.03-.03.08-.1h.02zm-.6-.44-.12.3c.07-.03.15-.05.23-.06l-.1-.24z"/><circle cx="27.275" cy="2.874" r=".189"/><circle cx="18.219" cy="2.498" r=".189"/><circle cx="18.184" cy="1.743" r=".189"/><circle cx="28.052" cy="2.874" r=".189"/><circle cx="36.196" cy="2.933" r=".189"/><circle cx="39.123" cy="3.002" r=".188"/><circle cx="42.677" cy="3.002" r=".188"/><circle cx="31.975" cy="18.042" fill="#fff" r="12.165"/><circle cx="31.976" cy="18.041" r="1.848"/><circle cx="31.976" cy="18.042" fill="none" r="11.135" stroke="#000" stroke-miterlimit="10"/><path d="m47.64 32h-.94v.35h-11.38l-2.3.02.03-.02h-3.87l.02.02-2.63-.02h-9.3v-.35h-1.07c-.62 0-1.12.5-1.12 1.13v25.77c0 .6.5 1.1 1.12 1.1h1.07v-.4h29.43v.4h.94c.62 0 1.12-.5 1.12-1.1v-25.78c0-.62-.5-1.12-1.12-1.12zm-31.47 1.3c-.15 0-.28-.13-.28-.28 0-.16.1-.28.26-.28s.28.12.28.28c0 .15-.12.28-.28.28zm31.56-.16c-.15 0-.28-.12-.28-.28 0-.15.13-.28.28-.28.16 0 .28.13.28.28 0 .16-.1.28-.26.28z"/><circle cx="31.978" cy="46.253" fill="#fff" r="12.165"/><circle cx="31.978" cy="46.252" r="1.847"/><circle cx="31.978" cy="46.253" fill="none" r="11.135" stroke="#000" stroke-miterlimit="10"/><path d="m20.7 9.98c.22 0 .4-.18.4-.4 0-.24-.18-.42-.4-.42-.24 0-.42.18-.42.4 0 .24.18.42.4.42zm-1.38-.92c-.08-.07-.16-.12-.25-.18-.17-.1-.36-.2-.55-.24-.13-.04-.26-.06-.4-.08-.06 0-.13-.02-.2-.02-.06 0-.1 0-.17 0-.1 0-.23 0-.34 0-.2.05-.37.12-.54.22-.2.1-.4.25-.55.44-.12.15-.22.32-.27.5-.03.1-.05.2-.05.3v.1.15c.03.1.06.2.1.3.05.1.1.2.2.26.15.15.33.2.53.2.1.03.18 0 .26 0 .18-.03.33-.1.46-.23.06-.04.1-.1.14-.17.04-.1.06-.18.05-.27 0-.08-.02-.15-.05-.22-.06-.1-.14-.17-.24-.24-.14-.1-.3-.15-.5-.16-.05 0-.1 0-.17.02-.06 0-.12.04-.2.02-.03 0-.08-.06-.06-.1.03-.1.07-.18.1-.26.08-.15.18-.28.32-.37.1-.06.2-.1.33-.12.1-.02.2-.03.3-.04.13 0 .24 0 .36.02.2.03.36.12.5.26.12.12.2.25.27.4.1.2.14.4.17.6.04.27.05.55 0 .82-.1.5-.27.95-.53 1.37-.3.48-.65.88-1.06 1.25-.34.3-.7.55-1.08.8-.12.07-.24.15-.36.23-.02 0-.03 0-.02.03.02.05.04.1.06.14h.02c.1-.04.17-.07.26-.1.62-.3 1.22-.65 1.8-1.04.43-.3.85-.65 1.22-1.05.26-.28.5-.6.65-.94.1-.22.17-.5.2-.75 0-.28 0-.56-.1-.83-.1-.37-.3-.68-.6-.94zm1.38 1.82c-.24 0-.42.18-.42.4 0 .24.18.42.4.42.24 0 .42-.2.42-.4 0-.24-.18-.43-.4-.43z" fill="#fff"/><path d="m15.08 5h33.68" fill="none" stroke="#fff" stroke-miterlimit="10" stroke-width=".5"/></svg>