<svg enable-background="new 0 0 60 60" height="60" viewBox="0 0 60 60" width="60" xmlns="http://www.w3.org/2000/svg" xmlns:xlink="http://www.w3.org/1999/xlink"><radialGradient id="a" cx="272.9497" cy="-1913.4844" gradientTransform="matrix(-.4075 -.6297 -.6297 .4075 -1076.3529 988.8189)" gradientUnits="userSpaceOnUse" r=".2878"><stop offset="0" stop-color="#e5e2df"/><stop offset="0" stop-color="#f4f2f1"/><stop offset="0" stop-color="#fff"/><stop offset=".1214" stop-color="#edecec"/><stop offset=".3533" stop-color="#c9c8c9"/><stop offset=".5225" stop-color="#adaeb0"/><stop offset=".6075" stop-color="#9fa1a3"/><stop offset=".7506" stop-color="#818487"/><stop offset=".9331" stop-color="#565e61"/><stop offset="1" stop-color="#465154"/></radialGradient><linearGradient id="b" gradientTransform="matrix(-.5433 -.8395 -.8395 .5433 -1257.1711 1229.8444)" gradientUnits="userSpaceOnUse" x1="308.7013" x2="309.1329" y1="-1718.0627" y2="-1718.0627"><stop offset="0" stop-color="#adaeb0"/><stop offset=".178" stop-color="#9fa1a3"/><stop offset=".4776" stop-color="#818487"/><stop offset=".8599" stop-color="#565e61"/><stop offset="1" stop-color="#465154"/></linearGradient><linearGradient id="c" gradientTransform="matrix(.7071 .7071 .7071 -.7071 -575.1835 262.3957)" gradientUnits="userSpaceOnUse" x1="262.4431" x2="261.9576" y1="562.176" y2="562.176"><stop offset=".005618" stop-color="#5e5d63"/><stop offset=".09944578" stop-color="#6a686d"/><stop offset=".3756" stop-color="#89898b"/><stop offset=".5281" stop-color="#979899"/><stop offset=".6418" stop-color="#8f9092"/><stop offset=".7968" stop-color="#7d7d80"/><stop offset=".9747" stop-color="#626167"/><stop offset="1" stop-color="#5e5d63"/></linearGradient><linearGradient id="d" gradientTransform="matrix(.7071 .7071 .7071 -.7071 -575.1835 262.3957)" gradientUnits="userSpaceOnUse" x1="260.6476" x2="267.0688" y1="567.6915" y2="567.6915"><stop offset="0" stop-color="#e5e2df"/><stop offset="0" stop-color="#dedad6"/><stop offset=".01864156" stop-color="#cfcac8"/><stop offset=".05423656" stop-color="#aba6a8"/><stop offset=".0848485" stop-color="#8c888e"/><stop offset=".5225" stop-color="#989898"/><stop offset=".7376" stop-color="#8c898c"/><stop offset=".9091" stop-color="#817c80"/><stop offset="1" stop-color="#d2d3d4"/><stop offset="1" stop-color="#a8aaad"/></linearGradient><path d="m53.2.1c-.4-.2-.7.1-.7.1s-.4-.2-.8.2c-.3.4-.1.8-.1.8s-.3.4 0 .8c.4.6.9.2 1.1.2s.5.2.5.2l.7-.4s-.3-.2-.4-.6c0-.4.3-.9-.3-1.3z" fill="#989898"/><path d="m53.5 2.1-.2.3s-.3-.3-.6-.3c-.2 0-.8.4-1.1-.2-.2-.3 0-.8 0-.8s-.2-.4.1-.8z" fill="#ccc"/><path d="m51.8 1.9c.2.1.4.1.6 0 .1 0 .2-.1.3-.1s.3 0 .4.1l.3-.3c-.1-.1-.1-.2-.1-.4 0-.1 0-.2 0-.3.1-.2.1-.4-.1-.6l-.1-.1c-.2-.1-.4.1-.4.1l-.1.1-.2-.1s-.2-.1-.4.2c-.2.2-.1.4-.1.5l.1.1-.1.1c-.1.1-.3.4-.1.7 0-.1 0-.1 0 0z" fill="#ccc"/><path d="m53.2 1.8-.1.1c-.1 0-.3-.1-.4-.1s-.2 0-.3.1c-.2.1-.4.1-.6 0l-.1-.1c-.1-.2 0-.4 0-.5l.1-.1-.1-.1s-.1-.2.1-.5z" fill="#989898"/><path d="m50 3.3c-.4-.2-.7.1-.7.1s-.4-.2-.7.2-.1.8-.1.8-.3.4 0 .8c.4.6.9.2 1.1.2s.5.2.5.2l.7-.4s-.3-.2-.4-.6.2-1-.4-1.3z" fill="#989898"/><path d="m50.3 5.3-.2.3s-.3-.3-.6-.3c-.2 0-.8.4-1.1-.2-.2-.3 0-.8 0-.8s-.2-.3.2-.7z" fill="#ccc"/><path d="m48.7 5.1c.2.1.3.1.6 0 .1 0 .2-.1.3-.1s.3 0 .4.1l.3-.3c-.1-.1-.1-.2-.1-.4 0-.1 0-.2 0-.3.1-.2.1-.4-.1-.6l-.1-.1c-.2-.1-.4.1-.4.1l-.1.1-.2-.1s-.2-.1-.4.2c-.2.2-.1.4-.1.5l.1.1-.1.1c-.2.1-.3.4-.1.7-.1-.1-.1-.1 0 0z" fill="#ccc"/><path d="m50 5c-.2.1-.4 0-.5 0s-.2 0-.3.1c-.2.1-.4.1-.6 0l-.1-.1c-.1-.2 0-.4 0-.5l.1-.1-.1-.1s-.1-.2.1-.5z" fill="#989898"/><path d="m59.1 7.3c.2.4-.1.8-.1.8s.2.4-.2.7c-.4.4-.8.2-.8.2s-.4.3-.8 0c-.6-.4-.2-.9-.2-1.1s-.2-.5-.2-.5l.4-.7s.2.3.6.4c.3 0 .9-.4 1.3.2z" fill="#989898"/><path d="m57.1 7.1-.3.2s.3.3.3.6c0 .2-.4.8.2 1.1.3.2.7 0 .7 0s.4.2.8-.1z" fill="#ccc"/><path d="m57.3 8.7c-.1-.2-.1-.3 0-.6 0-.1.1-.2.1-.3s0-.3-.1-.4l.3-.3c.1.1.2.1.4.1h.3c.2-.1.4-.1.6.1l.1.1c.1.2-.1.4-.1.4l-.3.2.1.2s.1.2-.2.4c-.2.2-.4.1-.5.1l-.1.1c-.1-.1-.3.1-.6-.1.1.1 0 0 0 0z" fill="#ccc"/><path d="m57.4 7.3c-.1.2 0 .4 0 .5s0 .2-.1.3c-.1.2-.1.4 0 .6l.1.1c.2.1.4 0 .5 0l.1-.1.1.1s.2.1.5-.1z" fill="#989898"/><path d="m56.1 11.2c.2.4-.1.8-.1.8s.2.4-.2.7-.8.1-.8.1-.4.3-.8 0c-.6-.4-.2-.9-.2-1.1s-.2-.5-.2-.5l.4-.7s.2.3.6.4.9-.2 1.3.3z" fill="#989898"/><path d="m54.1 11-.3.2s.3.3.3.6c0 .2-.4.8.2 1.1.3.2.8 0 .8 0s.4.2.8-.1z" fill="#ccc"/><path d="m54.3 12.6c-.1-.2-.1-.3 0-.6 0-.1.1-.2.1-.3s0-.3-.1-.4l.3-.3c.1.1.2.1.4.1h.3c.2-.1.4-.1.6.1l.1.1c.1.2-.1.4-.1.4l-.2.3.1.2s.1.2-.2.4c-.2.2-.4.1-.5.1l-.1-.1-.1.1s-.3.1-.6-.1c.1.1.1 0 0 0z" fill="#ccc"/><path d="m54.4 11.2-.1.1c0 .1.1.3.1.4s0 .2-.1.3c-.1.2-.1.4 0 .6l.1.1c.2.1.4 0 .5 0l.1-.1.1.1s.2.1.5-.1z" fill="#989898"/><path d="m49.2 12.7s.9-.7 1.8-.7c.8 0 1.2.1 1.6.2s.7.4 1.1-.4 1-2.1 2.1-3.4c1.2-1.4 2.8-2.5 3.3-2.8.4-.2 1.1-.4.1-.9s-2.6-1.2-2.5-2.1c.1-.7.7-.8.8-.8s.3-.1.2-.5c-.2-.4-.6-1.4-1.7-1.3s-2 1.6-2.8 2.5-1.6 1.8-2.5 2.5-1.8.6-1.7 1.4-.1 1.6-.4 2.4c-.4 1-1.3 2-1.3 2z" fill="#333"/><path d="m56.8 3.2c-.1-.2-.2-.4-.2-.6.1-.7.7-.8.8-.8s.3-.1.2-.5-.5-1.4-1.6-1.3-2 1.6-2.8 2.5-1.6 1.8-2.5 2.5-1.8.6-1.7 1.4-.1 1.6-.4 2.4c-.4 1-1.3 2-1.3 2l.9.9z" fill="#010101"/><path d="m47.7 10.9c.3-.3.9-1.1 1.2-1.9.3-.9.5-1.7.4-2.5 0-.3.1-.4.6-.7.3-.1.6-.3 1-.6.9-.7 1.7-1.6 2.5-2.5l.1-.1c.2-.2.3-.4.5-.6.6-.8 1.4-1.7 2.2-1.8.4 0 .7.1.9.3.3.3.4.6.4.8v.2c-.4 0-.9.3-1 1 0 .4.1.7.4 1.1.5.5 1.3.9 2 1.2 0 .1.1.1.1.2.2.1.3.2.4.2-.1 0-.2.1-.3.1s-.1.1-.2.1c-.5.3-2.1 1.4-3.3 2.8-1 1.2-1.6 2.4-2 3.2 0 .1-.1.2-.1.3-.3.5-.4.5-.6.4-.1 0-.1-.1-.2-.1h-.1c-.4-.1-.8-.2-1.6-.2s-1.5.5-1.8.7z" fill="#c12127"/><path d="m47.4 11s1.3-1.8 3-3.3c1.5-1.4 2.9-2.3 4.1-2.8.9-.4 1.8-.5 1.9-.3s0 .2-1.7 1.7c-1.1 1-2.4 2.4-3.9 4.1-.9 1-1.4 1.7-1.7 2.1z" fill="#d8d9d8"/><path d="m54.6 3.6c-.3.2-.6.1-.8-.1-.2-.3-.1-.7.1-.8.3-.2.6-.1.8.1.3.2.2.6-.1.8z" fill="#ccc"/><path d="m51.4 6.8c-.3.2-.6.1-.8-.1-.2-.3-.1-.7.1-.8.3-.2.6-.1.8.1s.1.6-.1.8z" fill="#ccc"/><path d="m53.4 10.7c-.3.2-.6.1-.8-.1-.2-.3-.1-.7.1-.8.3-.2.6-.1.8.1s.2.6-.1.8z" fill="#ccc"/><path d="m56.5 6.7c-.3.2-.6.1-.8-.1-.2-.3-.1-.7.1-.8.3-.2.6-.1.8.1.3.2.2.6-.1.8z" fill="#ccc"/><path d="m56 4.7c.1 0 .1.1.1.2 0 0-.1.1-.2.1s-.1-.1-.1-.2.1-.2.2-.1z" fill="#989898"/><path d="m56 4.7v.3z" fill="#676767"/><path d="m47.8 10.8c.1 0 .1.1.1.2s-.1.1-.2.1-.1-.1-.1-.2.1-.2.2-.1z" fill="#989898"/><path d="m47.8 10.8-.1.3.1-.3c-.1 0-.1 0 0 0z" fill="#676767"/><path d="m48.9 12.1h.2v.2c-.1 0-.2 0-.2 0-.1-.1 0-.2 0-.2z" fill="#989898"/><path d="m48.9 12.1s.1 0 0 0l.2.3z" fill="#676767"/><path d="m19.9 37.4s-1.1-1.4-1.3-3.2c-.3-1.8-.3-3.5.6-4.6s1.5-1 1.7-1.1c.1-.1.5-1.3.2-2s-1.2-2-3-.6-2.3 3.6-3 5.3-1.1 2.7-1.8 4.1c-.8 1.3-2 3-2.9 3.9s-2.4 2.3-4.6 3c-1.5.5-3.8.3-5 2.7-.7 1.1-.8 3.8 1.1 6.7 1.7 2.6 4.6 5.5 7.2 7 2.5 1.5 4.8 1.8 7 .9 3.2-1.2 4.6-4.7 5.2-7.9.5-3.2 1.3-4.3 2-4.9.8-.7 2.3-1.2 3.6-1.5s1.8-1.4 1.5-2.3c-.3-.7-1.2-1.2-1.4-1.1s-.4.4-1.1.7c-.9.3-1.9.1-2.8-.7-1-.8-.8-1.1-.8-1.1z" fill="#1a1a1a"/><path d="m21.2 39.1-1.3-1.8s-1.1-1.4-1.3-3.2c-.3-1.8-.3-3.5.6-4.6s1.5-1 1.7-1.1c.1-.1.5-1.3.2-2s-1.2-2-3-.6-2.3 3.6-3 5.3-1.1 2.7-1.8 4.1c-.8 1.3-2 3-2.9 3.9s-2.4 2.3-4.6 3c-1.5.5-3.8.3-5 2.7-.7 1.2-.8 3.9 1.1 6.8.8 1.2 1.9 2.5 3 3.7z" fill="#010101"/><path d="m5.1 55c-1.2-1.2-2.2-2.4-2.9-3.5-2-3.1-1.7-5.6-1.2-6.5.8-1.7 2.3-2 3.6-2.3.4-.1.8-.2 1.1-.3 1.7-.5 3.3-1.6 4.7-3.1.9-.9 2.1-2.6 2.9-4 .7-1.1 1-2 1.5-3.3.1-.3.2-.5.3-.8s.3-.6.4-1c.6-1.5 1.1-3 2.5-4.2.8-.7 1.5-.8 2.1-.2.2.2.4.5.4.7.2.5 0 1.4-.1 1.7-.3.1-.9.2-1.6 1.2-1.1 1.3-1 3.1-.7 4.9.3 1.9 1.3 3.3 1.4 3.4l2.3 3.2c0 .2.1.5.5.9.1.1.2.2.4.4 1 .8 2.1 1 3.1.7.6-.2.8-.4 1-.6l.1-.1c.1 0 .4.2.7.4.1.1.2.3.3.4.1.3.1.7-.1 1-.2.4-.7.7-1.2.9-1.3.3-2.9.8-3.7 1.6-.7.7-1.5 1.9-2.1 5.1-.4 2.3-1.5 6.4-4.9 7.7-2.1.8-4.2.5-6.7-.9-1.2-.9-2.7-2-4.1-3.4z" fill="#c12127"/><path d="m48.7 13.1-1.7-1.7.1-.2 1.8 1.8z" fill="#fff"/><path d="m21.5 41.4c-.5.1-.9-.3-1.7-1.2-.9-.9-1-1.2-.9-1.7.1-.3 28.4-27.7 28.4-27.7l1.9 1.9c0 .1-27.3 28.5-27.7 28.7z" fill="#4b1212"/><path d="m19.9 40.3c-.9-.9-1.2-1.1-1-1.8.1-.3 28.4-27.7 28.4-27.7l.9.9z" fill="#713131"/><path d="m48.7 13.2-1.9-1.9.1-.2 2 2z" fill="#fff"/><path d="m46.5 15.5-1.9-2 .1-.1 1.9 2z" fill="#4d4d4d"/><path d="m44.6 17.5-2.1-2 .1-.1 2.1 2z" fill="#4d4d4d"/><path d="m42.7 19.6-2.2-2.2.1-.1 2.2 2.2z" fill="#4d4d4d"/><path d="m40.9 21.4-2.2-2.2.1-.1 2.2 2.2z" fill="#4d4d4d"/><path d="m39.2 23.2-2.3-2.3.1-.1 2.3 2.3z" fill="#4d4d4d"/><path d="m37.7 24.8-2.4-2.4.1-.1 2.4 2.4z" fill="#4d4d4d"/><path d="m36.1 26.4-2.3-2.4.1-.1 2.4 2.4z" fill="#4d4d4d"/><path d="m34.7 27.9-2.4-2.5.1-.1 2.4 2.5z" fill="#4d4d4d"/><path d="m33.3 29.3-2.4-2.5.1-.1 2.4 2.5z" fill="#4d4d4d"/><path d="m32.1 30.6-2.5-2.6.1-.1 2.5 2.5z" fill="#4d4d4d"/><path d="m30.9 31.8-2.5-2.6.1-.1 2.5 2.6z" fill="#4d4d4d"/><path d="m29.8 32.9-2.6-2.6.1-.1 2.6 2.6z" fill="#4d4d4d"/><path d="m28.7 34.1-2.6-2.7.1-.1 2.6 2.7z" fill="#4d4d4d"/><path d="m27.7 35.1-2.7-2.7.2-.1 2.6 2.7z" fill="#4d4d4d"/><path d="m26.8 36.1-2.7-2.7.1-.1 2.7 2.7z" fill="#4d4d4d"/><path d="m25.9 37-2.7-2.7.1-.2 2.7 2.8z" fill="#4d4d4d"/><path d="m25 37.9-2.7-2.8.1-.1 2.7 2.8z" fill="#4d4d4d"/><path d="m24.1 38.9-2.8-2.8.1-.1 2.8 2.8z" fill="#4d4d4d"/><path d="m23.2 39.7-2.7-2.7.1-.2 2.7 2.8z" fill="#4d4d4d"/><path d="m22.5 40.5-2.8-2.8.1-.1 2.8 2.7z" fill="#4d4d4d"/><path d="m21.8 41.1-2.7-2.8.1-.1 2.7 2.8z" fill="#4d4d4d"/><g fill="#ccc"><path d="m46.6 15.5-2-2 .1-.1 2 2z"/><path d="m44.6 17.5-2-2.1.1-.1 2 2.1z"/><path d="m42.7 19.5-2.1-2.1.1-.1 2.1 2.1z"/><path d="m41 21.3-2.2-2.2.1-.1 2.2 2.2z"/><path d="m39.2 23.1-2.2-2.3.1-.1 2.2 2.3z"/><path d="m37.7 24.7-2.3-2.3.1-.1 2.3 2.3z"/><path d="m36.2 26.3-2.4-2.4.1-.1 2.4 2.4z"/><path d="m34.7 27.8-2.4-2.4.1-.1 2.5 2.4z"/><path d="m33.4 29.2-2.5-2.5.1-.1 2.5 2.5z"/><path d="m32.1 30.5-2.5-2.5.1-.1 2.6 2.5z"/><path d="m31 31.7-2.6-2.5.1-.1 2.6 2.5z"/><path d="m29.9 32.9-2.6-2.6.1-.1 2.6 2.6z"/><path d="m28.8 34-2.6-2.6.1-.1 2.6 2.6z"/><path d="m27.7 35.1-2.6-2.7.1-.1 2.6 2.7z"/><path d="m26.8 36-2.7-2.7.2-.1 2.6 2.7z"/><path d="m26 36.9-2.8-2.7.1-.1 2.8 2.7z"/><path d="m25 37.9-2.7-2.8.1-.1 2.7 2.8z"/><path d="m24.1 38.8-2.7-2.7.1-.2 2.7 2.8z"/><path d="m23.3 39.7-2.8-2.8.1-.1 2.8 2.8z"/><path d="m22.5 40.4-2.7-2.8.1-.1 2.8 2.8z"/><path d="m21.9 41.1-2.8-2.8.1-.1 2.8 2.8z"/></g><path d="m42.9 17.6c-.1.1-.3.1-.4 0s-.1-.3 0-.4.3-.1.4 0 .1.3 0 .4z" fill="#eedd84"/><path d="m39.2 21.2c-.1.1-.3.1-.4 0s-.1-.3 0-.4.3-.1.4 0 .1.3 0 .4z" fill="#eedd84"/><path d="m36 24.5c-.1.1-.3.1-.4 0s-.1-.3 0-.4.3-.1.4 0 .1.3 0 .4z" fill="#eedd84"/><path d="m33.1 27.5c-.1.1-.3.1-.4 0s-.1-.3 0-.4.3-.1.4 0 .1.3 0 .4z" fill="#eedd84"/><path d="m31.3 30.8c-.1.1-.3.1-.4 0s-.1-.3 0-.4.3-.1.4 0 .1.3 0 .4z" fill="#eedd84"/><path d="m29.7 29.3c-.1.1-.3.1-.4 0s-.1-.3 0-.4.3-.1.4 0 .1.3 0 .4z" fill="#eedd84"/><path d="m27.2 33.4c-.1.1-.3.1-.4 0s-.1-.3 0-.4.3-.1.4 0 .1.3 0 .4z" fill="#eedd84"/><path d="m25.3 35.3c-.1.1-.3.1-.4 0s-.1-.3 0-.4.3-.1.4 0 .1.3 0 .4z" fill="#eedd84"/><path d="m23.5 37.1c-.1.1-.3.1-.4 0s-.1-.3 0-.4.3-.1.4 0 .1.3 0 .4z" fill="#eedd84"/><path d="m21.8 38.8c-.1.1-.3.1-.4 0s-.1-.3 0-.4.3-.1.4 0 .1.3 0 .4z" fill="#eedd84"/><path d="m17.2 37c.1-.1.2 0 .3.1s0 .2-.1.3-.2 0-.3-.1 0-.2.1-.3z" fill="url(#a)"/><path d="m17.2 37 .3.3z" fill="url(#b)"/><path d="m11.4 58.6s-.1-.1-.1-.2c-1-1.3-.1-2.1.5-2.8.2-.2 5.6-5.5 5.9-5.9.6-.6.3-1.1 0-1.4 0 0-5.9-5.9-5.9-6s.1-.2.4-.4c.5-.4 4.9-5 4.9-5 .1-.2.2-.3.3-.3s.1 0 .2.1c.2.2.3.4.4.6.1.1.1.2.2.3.4.7 3 3.3 3.3 3.6.9.9 1.6 1.6 2.3 1.9.2.1.3.2.4.3s.2.2-.6 1c-1.5 1.6-2.3 2.9-3.1 7.1-.4 3.5-1.5 5.4-3.5 6.9-1.4 1.1-4.4 1.3-5.6.2z" fill="#f3f3f3"/><path d="m20.3 40.1c-.8-.9-1.8-1.9-2-2.3-.1-.1-.1-.2-.2-.3-.1-.2-.3-.5-.4-.6s-.2-.1-.2-.1c-.1 0-.2.1-.3.3 0 0-4.3 4.6-4.9 5-.2.2-.4.3-.4.4s1.5 1.6 3 3.1z" fill="#d8d9d8"/><path d="m11.5 58.5-.1-.1c-.9-1.2-.1-1.9.5-2.5.1-.1.7-.6 1.4-1.4 1.7-1.7 4.3-4.3 4.5-4.5.8-.8.2-1.4 0-1.6-2.5-2.5-5.3-5.4-5.7-5.9 0 0 .1-.1.3-.2.5-.4 4.7-4.8 4.9-5 .1-.1.2-.2.2-.2s0 0 .1.1.3.4.4.6c.1.1.1.2.2.3.5.7 3.3 3.6 3.3 3.6.9.9 1.6 1.6 2.4 2 .2.1.3.2.4.3s-.1.2-.6.8c-1.6 1.6-2.4 3-3.1 7.2-.5 3.1-1.6 5.1-3.6 6.5-1.4.8-4.4 1.1-5.5 0z" fill="#d8d9d8"/><path d="m11.6 52.8c-.3-.2-2-2-2-2-.2-.2-1.8-1.8-2-2-.2-.3-.4-.2-.4-.2s-1.6 2-2.2 2.7c-.6.8-1.3 1.6-1.5 2-.3.4-.5.6-.1 1.1.5.5 2.1 2.2 2.6 2.6.4.4.6.2 1 0l2-1.5c.8-.6 2.7-2.2 2.7-2.2s.1-.3-.1-.5z" fill="#e6e6e5"/><path d="m9.5 50.8c-.2-.2-1.7-1.7-2-2-.2-.3-.4-.2-.4-.2s-1.6 2-2.2 2.7c-.6.8-1.3 1.6-1.5 2-.3.4-.5.6-.1 1.1.2.3.7.7 1.2 1.3z" fill="#989898"/><path d="m11.4 52.8c-.3-.2-1.9-1.9-1.9-1.9-.2-.2-1.7-1.7-1.9-1.9-.2-.3-.4-.1-.4-.1s-1.6 1.8-2.2 2.5-1.2 1.6-1.4 1.9c-.2.4-.5.6-.1 1 .5.5 2 2.1 2.5 2.5.4.4.7.2 1-.1.4-.2 1.2-.9 1.9-1.4.7-.6 2.6-2.1 2.6-2.1s.1-.1-.1-.4z" fill="#b9b9b9"/><path d="m9.4 50.9c-.3-.3-1.7-1.7-1.9-1.9-.2-.3-.4-.1-.4-.1s-1.5 1.8-2.1 2.5-1.2 1.6-1.4 1.9c-.2.4-.5.6-.1 1l1.2 1.2z" fill="#e6e6e5"/><path d="m14.9 52c-.2.2-.6.2-.8 0l-5.7-5.7c-.2-.2-.2-.6 0-.8l2.4-2.4c.2-.2.6-.2.8 0l5.7 5.7c.2.2.2.6 0 .8z" fill="#989898"/><path d="m14.9 52c-.1.1-.3.2-.4.2s-.3-.1-.4-.2l-2.9-2.9-2.9-2.9c-.1-.1-.2-.3-.2-.4s.1-.3.2-.4l1.2-1.2 6.5 6.5z" fill="#ccc"/><path d="m14.8 51.8c-.2.2-.5.2-.7 0l-5.5-5.5c-.2-.2-.2-.5 0-.7l2.2-2.2c.2-.2.5-.2.7 0l5.5 5.5c.2.2.2.5 0 .7z" fill="#e6e6e5"/><path d="m14.8 51.8c-.1.1-.2.2-.4.2-.1 0-.3-.1-.4-.2l-2.7-2.8-2.8-2.8c-.1-.1-.2-.2-.2-.4 0-.1.1-.3.2-.4l1.1-1.1 6.3 6.3z" fill="#989898"/><path d="m15.3 51.1c-.2.2-.5.2-.7 0l-5.3-5.3c-.2-.2-.2-.5 0-.7l1.1-1.1c.2-.2.5-.2.7 0l5.3 5.3c.2.2.2.5 0 .7z" fill="#989898"/><path d="m15.3 51.1c-.1.1-.2.2-.4.2-.1 0-.3-.1-.4-.2l-2.7-2.7-2.7-2.7c-.1-.1-.2-.2-.2-.4 0-.1.1-.3.2-.4l.5-.5 6 6z" fill="#ccc"/><path d="m15.3 51c-.2.2-.5.2-.7 0l-5.2-5.2c-.2-.2-.2-.5 0-.7l1-1c.2-.2.5-.2.7 0l5.2 5.2c.2.2.2.5 0 .7z" fill="#ccc"/><path d="m9.9 44.6-.5.5c-.2.2-.2.5 0 .7l5.2 5.2c.2.2.5.2.7 0l.5-.5z" fill="#989898"/><path d="m13.5 50.4c.1 0 .2.1.2.2s-.1.2-.2.2-.2-.1-.2-.2c0-.2.1-.2.2-.2z" fill="#676767"/><path d="m13.5 50.4-.1.4z" fill="#333"/><path d="m9.8 46.7c.1 0 .2.1.2.2s-.1.2-.2.2-.2-.1-.2-.2c0-.2.1-.2.2-.2z" fill="#676767"/><path d="m9.8 46.7s.1 0 0 0l-.1.4z" fill="#333"/><path d="m15.9 48c.1 0 .2.1.2.2s-.1.2-.2.2-.2-.1-.2-.2c0-.2.1-.2.2-.2z" fill="#989898"/><path d="m15.9 48-.1.4z" fill="#676767"/><path d="m12.2 44.3c.1 0 .2.1.2.2s-.1.2-.2.2-.2-.1-.2-.2c0-.2.1-.2.2-.2z" fill="#989898"/><path d="m12.2 44.3-.1.4z" fill="#676767"/><path d="m5.5 52.2c.1-.1.2 0 .3.1s0 .2-.1.3-.2 0-.3-.1c0-.1 0-.3.1-.3z" fill="#989898"/><path d="m5.5 52.2.3.3z" fill="#676767"/><path d="m7.8 54.6c-.1.1 0 .2.1.3s.2.1.3 0 0-.2-.1-.3-.2-.1-.3 0z" fill="#818181"/><path d="m7.8 54.6.3.3z" fill="#676767"/><path d="m9.7 54.5c-.2.2-.5.2-.6 0l-3.2-3.2c-.2-.2-.2-.5 0-.6l.3-.3c.2-.2.5-.2.6 0l3.2 3.2c.2.2.2.5 0 .6z" fill="#e6e6e5"/><path d="m8.3 52-1.5-1.5c-.2-.2-.5-.2-.6 0l-.3.3c-.2.2-.2.5 0 .6l1.5 1.5z" fill="#b9b9b9"/><path d="m9.6 54.4c-.2.2-.4.2-.5 0l-3.1-3.1c-.2-.2-.2-.4 0-.5l.2-.2c.2-.2.4-.2.5 0l3.1 3.1c.2.2.2.4 0 .5z" fill="#989898"/><path d="m8.2 52-1.5-1.5c-.2-.2-.4-.2-.5 0l-.2.3c-.2.2-.2.4 0 .5l1.5 1.5z" fill="#e6e6e5"/><path d="m6.1 51.2.6-.6.6.6-.6.6z" fill="#b4b4b4"/><path d="m6.4 50.9.2-.2.6.6-.2.2z" fill="#989898"/><path d="m6.1 51.2.2-.2.7.6-.2.2z" fill="#989898"/><path d="m6.8 51.3c0 .1 0 .1 0 0-.2.1-.2.1-.2 0s0-.1.2 0c0-.1 0-.1 0 0z" fill="#818181"/><path d="m6.9 52 .6-.6.6.6-.6.6z" fill="#b4b4b4"/><path d="m7.2 51.7.2-.2.6.6-.2.2z" fill="#989898"/><path d="m6.9 52 .2-.2.6.6-.2.2z" fill="#989898"/><ellipse cx="7.5" cy="52.1" fill="#818181" rx=".1" ry=".1"/><path d="m7.7 52.8.6-.6.6.6-.6.6z" fill="#b4b4b4"/><path d="m8 52.5.2-.2.6.6-.2.2z" fill="#818181"/><path d="m7.7 52.8.2-.2.6.6-.2.2z" fill="#818181"/><path d="m8.4 52.9c0 .1 0 .1-.1.1s-.1 0-.1-.1 0-.1.1-.1c0 0 .1 0 .1.1z" fill="#676767"/><path d="m8.5 53.6.5-.6.6.6-.6.6z" fill="#b4b4b4"/><path d="m8.8 53.3.2-.3.6.6-.2.2z" fill="#818181"/><path d="m8.5 53.6.2-.2.7.6-.2.2z" fill="#818181"/><path d="m9.2 53.7c0 .1 0 .1-.1.1s-.1 0-.1-.1 0-.1.1-.1c0 0 .1 0 .1.1z" fill="#676767"/><path d="m10.9 53.4c0 .2-.1.3-.3.3s-.3-.1-.3-.3.1-.3.3-.3.3.1.3.3z" fill="#818181"/><path d="m7.3 49.8c0 .2-.1.3-.3.3s-.3-.1-.3-.3.1-.3.3-.3c.1 0 .3.1.3.3z" fill="#b4b4b4"/><path d="m7.4 51-.4-.3 1.1-1.1.4.3z" fill="url(#c)"/><path d="m6.9 50.7 1.1-1.1.4.4-1.1 1z" fill="#989898"/><path d="m7 50.7 1.1-1.1.2.2-1.1 1.2z" fill="#333"/><path d="m7.7 51.5 1.1-1.1.4.4-1.1 1.1z" fill="#989898"/><path d="m8.6 52.2 1.1-1.1.4.4-1.1 1.1z" fill="#818181"/><path d="m9.4 53 1.1-1.1.4.4-1.1 1.1z" fill="#818181"/><path d="m7.2 56.6c.3-.2 1-.8 1.7-1.3l-.7-.4-.5.5-.3-.3.5-.5-.4-.4-.5.5-.4-.4.4-.5-.4-.4-.5.5-.4-.4.5-.5-.4-.4-.5.5-.3-.3.5-.5-.5-.8c-.5.7-1.1 1.4-1.3 1.7-.2.4-.5.6-.1 1 .5.5 2 2.1 2.5 2.5s.7.2 1.1-.1z" fill="#818181"/><path d="m6.7 53.5-.2-.2-.5.5-.4-.4.6-.4-.4-.4-.5.5-.3-.3.5-.5-.5-.8c-.5.7-1.1 1.4-1.3 1.7-.2.4-.5.6-.1 1l1.2 1.2z" fill="#b4b4b4"/><path d="m7 56.8c.3-.2 1-.8 1.7-1.3l-.7-.4-.5.5-.3-.3.5-.5-.4-.4-.5.5-.4-.4.5-.5-.4-.4-.6.4-.4-.4.5-.4-.4-.4-.5.5-.3-.3.5-.5-.4-.7c-.5.7-1.1 1.4-1.3 1.7-.2.4-.5.6-.1 1 .5.5 2 2.1 2.5 2.5.4.3.6 0 1-.2z" fill="#b9b9b9"/><path d="m6.6 53.7-.2-.2-.5.5-.4-.4.5-.4-.4-.4-.5.5-.3-.3.5-.5-.4-.7c-.5.7-1.1 1.4-1.3 1.7-.2.4-.5.6-.1 1l1.2 1.2z" fill="#e6e6e5"/><path d="m14.3 50.6-4.5-4.6 1.5-1.5 4.5 4.6z" fill="url(#d)"/><path d="m19.3 44h-.1l-3-3v-.1l1.2-1.2h.1l3 3v.1z" fill="#010101"/><path d="m19.3 44c-.1 0-.1 0-.1 0l-3-3s0 0 0-.1c0 0 0 0 0-.1l.6-.6 3.1 3.1z" fill="#333"/><path d="m19.3 43.8c0 .1-.1.1 0 0l-3-2.8v-.1l1-1h.1l2.8 2.8v.1z" fill="#333"/><path d="m19.3 43.8s0 .1 0 0c-.1.1-.1 0 0 0l-3-2.8.5-.5 2.9 2.9z" fill="#010101"/><path d="m19 42.5c-.1.1-.1.3 0 .4s.3.1.4 0 .1-.3 0-.4c-.2-.1-.3-.1-.4 0z" fill="#010101"/><path d="m19 42.5c-.1.1-.1.3 0 .4s.3.1.4 0z" fill="#333"/><path d="m19 42.5c-.1.1-.1.2 0 .3s.2.1.3 0 .1-.2 0-.3c-.1 0-.2 0-.3 0z" fill="#b4b4b4"/><path d="m19 42.5c-.1.1-.1.2 0 .3s.2.1.3 0z" fill="#676767"/><path d="m18.4 41.9c-.1.1-.1.3 0 .4s.3.1.4 0 .1-.3 0-.4-.3-.1-.4 0z" fill="#010101"/><path d="m18.4 41.9c-.1.1-.1.3 0 .4s.3.1.4 0z" fill="#333"/><path d="m18.5 42c-.1.1-.1.2 0 .3s.2.1.3 0 .1-.2 0-.3-.3-.1-.3 0z" fill="#b4b4b4"/><path d="m18.5 42c-.1.1-.1.2 0 .3s.2.1.3 0z" fill="#676767"/><path d="m17.9 41.4c-.1.1-.1.3 0 .4s.3.1.4 0 .1-.3 0-.4c-.2-.1-.3-.1-.4 0z" fill="#010101"/><path d="m17.9 41.4c-.1.1-.1.3 0 .4s.3.1.4 0z" fill="#333"/><path d="m17.9 41.4c-.1.1-.1.2 0 .3s.2.1.3 0 .1-.2 0-.3c-.1 0-.2 0-.3 0z" fill="#b4b4b4"/><path d="m17.9 41.4c-.1.1-.1.2 0 .3s.2.1.3 0z" fill="#676767"/><path d="m17.3 40.8c-.1.1-.1.3 0 .4s.3.1.4 0 .1-.3 0-.4-.3-.1-.4 0z" fill="#010101"/><path d="m17.3 40.8c-.1.1-.1.3 0 .4s.3.1.4 0z" fill="#333"/><path d="m17.4 40.9c-.1.1-.1.2 0 .3s.2.1.3 0 .1-.2 0-.3-.3-.1-.3 0z" fill="#b4b4b4"/><path d="m17.4 40.9c-.1.1-.1.2 0 .3s.2.1.3 0z" fill="#676767"/><circle cx="17.2" cy="54.7" fill="#c2c2c2" r=".8"/><path d="m16.6 55.3c.3.3.8.3 1.2 0 .3-.3.3-.8 0-1.2z" fill="#fff"/><circle cx="17.2" cy="54.7" fill="#c2c2c2" r=".5"/><path d="m16.8 55.1c-.2-.2-.2-.5 0-.7s.5-.2.7 0z" fill="#fff"/><circle cx="14.9" cy="54.9" fill="#c2c2c2" r=".8"/><path d="m14.3 55.5c.3.3.8.3 1.2 0 .3-.3.3-.8 0-1.2z" fill="#fff"/><circle cx="14.9" cy="54.9" fill="#c2c2c2" r=".5"/><path d="m14.5 55.3c-.2-.2-.2-.5 0-.7s.5-.2.7 0z" fill="#fff"/><path d="m15.6 56.3c-.3.3-.3.8 0 1.2.3.3.8.3 1.2 0 .3-.3.3-.8 0-1.2-.4-.3-.9-.3-1.2 0z" fill="#c2c2c2"/><path d="m15.6 57.5c.3.3.8.3 1.2 0 .3-.3.3-.8 0-1.2z" fill="#fff"/><path d="m16.5 57.2c-.2.2-.5.2-.7 0s-.2-.5 0-.7.5-.2.7 0 .2.5 0 .7z" fill="#c2c2c2"/><path d="m15.8 57.2c-.2-.2-.2-.5 0-.7s.5-.2.7 0z" fill="#fff"/><path d="m13.2 56.5c-.3.3-.3.8 0 1.2.3.3.8.3 1.2 0 .3-.3.3-.8 0-1.2s-.9-.3-1.2 0z" fill="#c2c2c2"/><path d="m13.2 57.7c.3.3.8.3 1.2 0 .3-.3.3-.8 0-1.2z" fill="#fff"/><path d="m14.2 57.5c-.2.2-.5.2-.7 0s-.2-.5 0-.7.5-.2.7 0 .2.5 0 .7z" fill="#c2c2c2"/><path d="m13.4 57.5c-.2-.2-.2-.5 0-.7s.5-.2.7 0z" fill="#fff"/><path d="m15.5 50c.1 0 .2.1.2.2s-.1.2-.2.2-.2-.1-.2-.2c0-.2.1-.2.2-.2z" fill="#676767"/><path d="m15.5 50-.1.4z" fill="#333"/><path d="m10.3 44.8c.1 0 .2.1.2.2s-.1.2-.2.2-.2-.1-.2-.2c-.1-.2.1-.2.2-.2z" fill="#676767"/><path d="m10.3 44.8-.1.4.1-.4c-.1 0 0 0 0 0z" fill="#333"/><path d="m9.8 46 1.5-1.5.4.4-1.5 1.5z" fill="#b4b4b4"/><path d="m13.9 50.2 1.5-1.5.4.4-1.5 1.5z" fill="#b4b4b4"/><path d="m7.8 51.5 1.1-1.1.2.2-1.1 1.1z" fill="#333"/><path d="m8.6 52.3 1.1-1.1.2.2-1.1 1.1z" fill="#1a1a1a"/><path d="m9.4 53 1.1-1.1.2.2-1.1 1.1z" fill="#1a1a1a"/><path d="m48.7 12.9-16.5 17-24.8 25.5h-.1l24.8-25.6 16.6-16.9 4.2-2.9.1.1z" fill="#4e4e4e"/><path d="m48.3 12.5-16.7 16.8-25 25.4-.1-.1 25.1-25.4 16.6-16.8 7.8-6.4.1.1z" fill="#4e4e4e"/><path d="m47.8 12-16.8 16.7-25.1 25.2-.1-.1 25.1-25.2 16.8-16.7 6.8-8.7v.1z" fill="#4e4e4e"/><path d="m47.3 11.6-16.7 16.3-25.6 25.2-.1-.1 25.6-25.3 16.7-16.2 4-5.1.1.1z" fill="#4e4e4e"/><path d="m48.6 12.9-16.4 16.9-24.8 25.6-.1-.1 24.8-25.5 16.5-16.9 4.3-2.9v.1z" fill="#ccc"/><path d="m48.2 12.5-16.6 16.8-25 25.3h-.1l25-25.4 16.6-16.8 7.9-6.4h.1z" fill="#ccc"/><path d="m47.7 12-16.8 16.6-25.1 25.3-.1-.1 25.2-25.3 16.8-16.5 6.7-8.9.1.1z" fill="#ccc"/><path d="m47.3 11.6-16.7 16.2-25.6 25.3-.1-.2 25.5-25.2 16.8-16.2 3.9-5.1.1.1z" fill="#ccc"/><path d="m54.5 3.4c-.1.1-.4.1-.5-.1-.1-.1-.1-.4.1-.5.1-.1.4-.1.5.1s0 .4-.1.5z" fill="#989898"/><path d="m51.2 6.6c-.1.1-.4.1-.5-.1-.1-.1-.1-.4.1-.5.1-.1.4-.1.5.1s0 .4-.1.5z" fill="#989898"/><path d="m53.2 10.5c-.1.1-.4.1-.5-.1-.1-.1-.1-.4.1-.5.1-.1.4-.1.5.1.1.1.1.4-.1.5z" fill="#989898"/><path d="m56.4 6.5c-.1.1-.4.1-.5-.1s-.1-.4.1-.5c.1-.1.4-.1.5.1 0 .1 0 .4-.1.5z" fill="#989898"/><path d="m9.7 46 1.5-1.5 4.5 4.5-1.5 1.5z" fill="#e6e6e5"/><path d="m9.8 46 .8-.8 4.5 4.5-.8.8z" fill="#b4b4b4"/><path d="m9.8 46 1.5-1.5.4.4-1.5 1.5z" fill="#b4b4b4"/><path d="m9.8 46.1.8-.8.4.4-.8.8z" fill="#908f8f"/><path d="m13.9 50.2 1.5-1.5.4.4-1.5 1.5z" fill="#b4b4b4"/><path d="m13.9 50.1.8-.8.4.4-.8.8z" fill="#908f8f"/><path d="m23.6 44.1c-.1.1-.3.1-.3 0-.1-.1-.1-.3 0-.3.1-.1.3-.1.3 0 .1 0 .1.2 0 .3z" fill="#989898"/><path d="m23.6 44.1-.4-.3z" fill="#4e4e4e"/><path d="m20.4 49.9c0 .1 0 .3-.2.3-.1 0-.3 0-.3-.2 0-.1 0-.3.2-.3.1 0 .3.1.3.2z" fill="#989898"/><path d="m20.4 49.9s0 .1 0 0l-.5.2z" fill="#4e4e4e"/><path d="m12 57.8c0 .1 0 .3-.2.3-.1 0-.3 0-.3-.2 0-.1 0-.3.2-.3.1 0 .3 0 .3.2z" fill="#989898"/><path d="m12 57.8-.5.2.5-.2c0-.1 0 0 0 0z" fill="#4e4e4e"/><path d="m17.6 37.7c0 .1 0 .3-.2.3-.1 0-.3 0-.3-.2 0-.1 0-.3.2-.3.1 0 .3.1.3.2z" fill="#b4b4b4"/><path d="m17.6 37.7-.5.2z" fill="#676767"/><path d="m13 42.3c0 .1 0 .3-.2.3-.1 0-.3 0-.3-.2 0-.1 0-.3.2-.3.1 0 .3.1.3.2z" fill="#b4b4b4"/><path d="m13 42.3-.5.2z" fill="#676767"/><path d="m18.2 47.8c-.1.1-.3.1-.3 0-.1-.1-.1-.3 0-.3.1-.1.3-.1.3 0 .1 0 .1.2 0 .3z" fill="#989898"/><path d="m18.2 47.8c-.1 0-.1 0 0 0l-.4-.3z" fill="#4e4e4e"/><path d="m16.6 40.1c-.1.1-.2.1-.3 0s-.1-.2 0-.3.2-.1.3 0 .1.2 0 .3z" fill="#b4b4b4"/><path d="m16.6 40.1-.3-.3z" fill="#676767"/><path d="m20.4 43.9c-.1.1-.2.1-.3 0s-.1-.2 0-.3.2-.1.3 0 .1.2 0 .3z" fill="#989898"/><path d="m20.4 43.9-.3-.3z" fill="#4e4e4e"/><path d="m17.9 57c-.1.1-.3.1-.3 0-.1-.1-.1-.3 0-.3.1-.1.3-.1.3 0 .1.1.1.2 0 .3z" fill="#989898"/><path d="m17.9 57c-.1.1-.1.1 0 0l-.4-.3z" fill="#4e4e4e"/></svg>