<svg height="60" width="60" xmlns="http://www.w3.org/2000/svg"><path d="m11.37 21.47c0 .32-.26.58-.58.58-.34 0-.6-.26-.6-.58v-6.04c0-.32.26-.57.6-.57.3 0 .56.25.56.57v6.04zm-.57-6.97h1.14v7.9h-1.14zm37.83.93c0-.32.26-.57.58-.57.34 0 .6.25.6.57v6.04c0 .32-.26.58-.6.58-.3 0-.56-.26-.56-.58v-6.04zm-.58-.93h1.16v7.9h-1.14zm0 42.98c0 1.4-1.12 2.52-2.5 2.52h-31.1c-1.38 0-2.5-1.13-2.5-2.52v-54.96c0-1.4 1.12-2.52 2.5-2.52h31.1c1.38 0 2.5 1.13 2.5 2.52z" stroke="#fff" stroke-width=".146"/><path d="m45.68 12.18c0 1.4-1.13 2.52-2.52 2.52h-26.32c-1.4 0-2.52-1.13-2.52-2.52v-7.56c0-1.4 1.13-2.52 2.52-2.52h26.32c1.4 0 2.52 1.13 2.52 2.52z" fill="#fff" stroke="#1d1d1b" stroke-width=".146"/><g stroke="#fff"><path d="m45.68 19.33c0-.5-.38-.88-.84-.88h-29.68c-.46 0-.84.4-.84.88v37.6c0 .48.38.88.84.88h29.68c.46 0 .84-.4.84-.87v-37.6z" stroke-width=".291"/><g stroke-width=".146"><circle cx="19.437" cy="8.398" r="3.779"/><path d="m19.65 6.35c0 .12-.1.2-.2.2-.13 0-.22-.08-.22-.2v-1.3c0-.1.1-.2.2-.2.12 0 .22.1.22.2z" fill="#1d1d1b"/><circle cx="40.562" cy="8.398" r="3.78"/><path d="m41.15 6.43c-.02.1-.13.2-.24.16-.1-.04-.17-.15-.15-.26l.24-1.26c.02-.1.13-.2.24-.17.1.04.2.15.17.26l-.24 1.27z" fill="#1d1d1b"/><circle cx="30" cy="8.398" r="3.78"/><path d="m28.46 7.03c.1.07.12.2.05.3-.05.1-.2.1-.27.04l-1.05-.75c-.1-.07-.12-.2-.05-.3s.2-.1.3-.04l1.04.75z" fill="#1d1d1b"/></g><path d="m37.85 45.04v10.26m-10.53-10.26v10.26m-10.52-10.26v10.26m26.32-10.26v10.26m-10.52-10.26v10.26m-10.54-10.26v10.26" fill="none" stroke-linecap="round"/></g><path clip-rule="evenodd" d="m37.74 26.5c.72 0 1.3-.6 1.3-1.3 0-.73-.6-1.3-1.3-1.3-.72 0-1.3.58-1.3 1.3 0 .7.58 1.3 1.3 1.3zm-4.34-2.9c-.24-.24-.5-.43-.77-.6-.55-.34-1.13-.6-1.75-.76-.4-.12-.82-.2-1.23-.25-.22-.04-.44-.06-.66-.07-.2 0-.38-.03-.56-.02-.36 0-.7 0-1.06.07-.65.1-1.25.32-1.82.63-.65.37-1.22.83-1.7 1.4-.42.5-.73 1.03-.9 1.64-.1.3-.16.6-.16.9-.02.12-.02.23 0 .35 0 .13.02.3.04.43.06.3.15.6.28.9.15.33.32.64.6.88.5.4 1.08.6 1.7.64.27.02.54 0 .8-.05.56-.1 1.05-.36 1.46-.74.16-.16.3-.34.4-.54.12-.27.18-.55.17-.85 0-.24-.06-.46-.17-.67-.17-.34-.42-.6-.74-.82-.5-.33-1.03-.48-1.6-.5-.2-.02-.37.05-.56.1-.2.02-.38.1-.6.06-.14-.02-.27-.2-.22-.36.1-.27.2-.53.33-.8.24-.45.55-.87 1-1.17.3-.2.7-.35 1.1-.43.3-.06.63-.1.96-.1.37-.02.73-.02 1.1.05.62.12 1.15.4 1.6.82.38.36.66.8.88 1.25.27.6.44 1.23.53 1.9.13.85.15 1.7 0 2.6-.3 1.53-.86 3-1.7 4.32-.9 1.5-2.06 2.78-3.37 3.94-1.06.93-2.2 1.75-3.4 2.52-.38.24-.77.48-1.14.74-.03.02-.06.04-.04.1.07.12.13.26.2.4 0 .04 0 .05.06.03.27-.13.55-.26.82-.38 1.97-.94 3.87-2 5.67-3.24 1.4-.96 2.7-2.02 3.86-3.27.83-.9 1.56-1.87 2.08-2.98.38-.77.63-1.58.68-2.44.06-.9-.04-1.77-.3-2.63-.33-1.16-.95-2.17-1.87-2.97zm4.34 5.72c-.72 0-1.3.58-1.3 1.3s.58 1.3 1.3 1.3 1.3-.58 1.3-1.3-.58-1.3-1.3-1.3z" fill="#fff" fill-rule="evenodd"/></svg>