<svg enable-background="new 0 0 60 60" height="60" viewBox="0 0 60 60" width="60" xmlns="http://www.w3.org/2000/svg" xmlns:xlink="http://www.w3.org/1999/xlink"><linearGradient id="a" gradientTransform="matrix(.7071 .7071 .7071 -.7071 -580.1835 264.4667)" gradientUnits="userSpaceOnUse" x1="263.393" x2="264.2732" y1="577.5352" y2="577.5352"><stop offset=".0242424" stop-color="#010101"/><stop offset=".5152" stop-color="#333"/><stop offset="1" stop-color="#010101"/></linearGradient><path d="m23.6 33.2-.6 5.6s-.2 1.2.5 1.8c.8.7 1.7 1.1 3.7-.2 1.6-1.1 2-.2 2 .3.1.5-.1 3-2.8 5.1-2.8 2.2-5.7 2.6-6.9 4.4s-.6 6.8-4.6 9.3c-3.2 2-6.7-2-7.4-2.7-1.9-1.8-3.7-4.3-5-6.8-1-1.9-2.5-6.6.8-9.9s7.8-2.5 9.6-4.4c2.7-2.7 2.2-4.8 5.1-7.5s4.6-2.8 5.3-2.1.9 1.5-1.1 3.6c-1.2 1.3-1.2 2.6-.6 3.4.7.9 2 .1 2 .1z" fill="#e4242d"/><path d="m8.7 54.2c-.1.1-.3.1-.4 0l-3.3-3.3c-.1-.1-.1-.3 0-.4l1.8-1.8c.1-.1.3-.1.4 0l3.3 3.3c.1.1.1.3 0 .4z" fill="#e6e6e5"/><path d="m6.7 52.6-1.7-1.7c-.1-.1-.1-.1-.1-.2s0-.2.1-.2l.9-.9.9-.9c.1-.1.1-.1.2-.1s.2 0 .2.1l1.7 1.7z" fill="#b4b4b4"/><path d="m8.7 54.1c-.1.1-.3.1-.4 0l-3.2-3.2c-.1-.1-.1-.3 0-.4l1.7-1.7c.1-.1.3-.1.4 0l3.2 3.2c.1.1.1.3 0 .4z" fill="#b4b4b4"/><path d="m6.7 52.5-1.6-1.6c-.1-.1-.1-.1-.1-.2s0-.1.1-.2l.8-.8.8-.8c.1-.1.1-.1.2-.1s.1 0 .2.1l1.6 1.6z" fill="#e6e6e5"/><path d="m6 49.8.5-.5.8.8-.5.5z" fill="#b4b4b4"/><path d="m6.4 49.4.2-.2.8.8-.2.2z" fill="#989898"/><path d="m6 49.8.2-.2.8.8-.2.2z" fill="#989898"/><path d="m7 50.5.5-.5.8.8-.5.5z" fill="#b4b4b4"/><path d="m7.4 50.1.2-.2.8.8-.1.3z" fill="#989898"/><path d="m7 50.5.2-.2.8.8-.2.2z" fill="#989898"/><path d="m8 51.1.5-.5.8.8-.4.6z" fill="#989898"/><path d="m8.4 50.8.2-.2.8.8-.2.2z" fill="#818181"/><path d="m8 51.2.2-.2.8.8-.1.2z" fill="#818181"/><path d="m9 51.9.5-.5.8.8-.5.5z" fill="#989898"/><path d="m9.3 51.6.2-.2.8.8-.2.2z" fill="#818181"/><path d="m9 51.9.2-.2.8.8-.2.2z" fill="#818181"/><path d="m6.8 49.9c0 .1 0 .1 0 0-.2.1-.2.1-.2 0s0-.1.2 0c0-.1 0 0 0 0z" fill="#676767"/><path d="m7.8 50.7c0 .1 0 .1 0 0-.2.1-.2.1-.2 0s0-.1.2 0c0-.2 0-.1 0 0z" fill="#676767"/><path d="m8.8 51.3c0 .1 0 .1-.1.1s-.1 0-.1-.1 0-.1.1-.1.1.1.1.1z" fill="#4e4e4e"/><path d="m9.8 52.1c0 .1 0 .1-.1.1s-.1 0-.1-.1 0-.1.1-.1c0 0 .1 0 .1.1z" fill="#4e4e4e"/><path d="m9.5 52.5h-.1l-.3-.3v-.1h.1l.3.4c.1-.1.1 0 0 0z" fill="#676767"/><path d="m9.4 52.6h-.1l-.3-.3v-.1h.1l.3.4c.1-.1.1 0 0 0z" fill="#676767"/><path d="m9.3 52.7h-.1l-.3-.3v-.1h.1l.3.4c.1 0 .1 0 0 0z" fill="#676767"/><path d="m9.2 52.8h-.1l-.3-.3v-.1h.1l.3.4c.1 0 .1 0 0 0z" fill="#676767"/><path d="m8.8 52.6h-.1v.1h-.1v.1h-.1v.1h-.1v.1h-.1v.1h-.1v.1h-.1v.1l.3.3h.1v-.1h.1v-.1h.1v-.1h.1v-.1h.1v-.1h.1v-.1h.1v-.1z" fill="#676767"/><path d="m8.1 53.3c0-.1 0-.1 0 0l.3.2v.1s0 0-.1 0z" fill="#b4b4b4"/><path d="m6.5 50.3-.3-.3h-.1v.1h-.1v.1h-.1v.1h-.1v.1h-.1v.1l.3.3h.1v-.1h.1v-.1h.1v-.1h.1c.1 0 .1-.1 0-.1h.1c.1-.1.1-.1 0-.1z" fill="#818181"/><path d="m7.2 50.7h-.1v.1h-.1v.1h-.1v.1h-.1v.1h-.1v.1h-.1v.1l.3.3h.1v-.1h.1v-.1h.1v-.1h.1v-.1h.1v-.1h.1v-.1z" fill="#818181"/><path d="m8.6 51.8h-.1l-.3-.3v-.1h.1z" fill="#676767"/><path d="m8.5 51.9h-.1l-.3-.3v-.1h.1z" fill="#676767"/><path d="m8.3 52h-.1l-.2-.2v-.1h.1l.3.3s0 0-.1 0z" fill="#676767"/><path d="m8.2 52.1h-.1l-.3-.3v-.1h.1l.3.4c.1 0 .1 0 0 0z" fill="#676767"/><path d="m8.1 52.2-.3-.3h-.1v.1h-.1v.1h-.1v.1l.3.3h.1v-.1h.1l.1-.2c.1 0 .1 0 0 0z" fill="#676767"/><path d="m7.4 52.3c.1-.1.1-.1 0 0l.3.2v.1s0 0-.1 0z" fill="#b4b4b4"/><path d="m8.7 54c-.1.1-.3.1-.4 0l-3.1-3.1c-.1-.1-.1-.3 0-.4s.3-.1.4 0l3.1 3.1c.1.1.1.3 0 .4z" fill="#ccc"/><path d="m6.8 52.5-1.5-1.5c-.1-.1-.1-.1-.1-.2s0-.1.1-.2.1-.1.2-.1.1 0 .2.1l1.5 1.5z" fill="#b4b4b4"/><path d="m7.1 52.1c.1.1.1.2 0 .3s-.2.1-.3 0-.1-.2 0-.3.2-.1.3 0z" fill="#989898"/><path d="m8 53c0 .1-.1.2-.2.2s-.2-.1-.2-.2.1-.2.2-.2.2.1.2.2z" fill="#989898"/><path d="m8 53c0 .1 0 .1 0 0h-.4z" fill="#676767"/><path d="m8.3 53.6c.1-.1.2-.1.3 0s.1.2 0 .3-.2.1-.3 0-.1-.2 0-.3z" fill="#989898"/><path d="m5.6 50.6c.1.1.1.2 0 .3s-.2.1-.3 0-.1-.2 0-.3.2-.1.3 0z" fill="#818181"/><path d="m6.1 51.2c.1 0 .2.1.2.2s-.1.2-.2.2-.2-.1-.2-.2.1-.2.2-.2z" fill="#818181"/><path d="m53.2 1.5c-.1-.4.2-.7.2-.7s-.1-.4.3-.7c.4-.2.7 0 .7 0s.4-.2.7.1c.4.5 0 .9-.1 1.1 0 .2.1.5.1.5l-.6.4s-.2-.2-.4-.3c-.1 0-.7.2-.9-.4z" fill="#ccc"/><path d="m54.8 1.8.2-.1c0-.1 0-.3 0-.4-.1-.1 0-.2 0-.3.1-.2.2-.4.1-.5 0 0 0-.1-.1-.1-.2-.2-.4-.1-.4-.1l-.1.1-.1-.1s-.2-.1-.5 0z" fill="#ccc"/><path d="m52.7 1.8c-.3-.3-.7-.1-.7-.1s-.3-.3-.7 0-.3.7-.3.7-.4.3-.2.7c.2.6.8.4 1 .4.2.1.4.3.4.3l.8-.2s-.3-.3-.2-.7c-.1-.1.3-.6-.1-1.1z" fill="#ccc"/><path d="m50.1 3.5c-.3-.3-.7-.1-.7-.1s-.3-.3-.7 0-.3.7-.3.7-.4.4-.3.7c.2.6.8.4 1 .4.2.1.4.5.4.5l.8-.4s-.3-.3-.2-.7c0-.1.5-.6 0-1.1z" fill="#ccc"/><path d="m47.7 5.4c-.3-.3-.7-.1-.7-.1s-.3-.3-.7 0c-.5.3-.4.7-.4.7s-.4.3-.2.7c.2.6.8.4 1 .4.2.1.4.3.4.3l.8-.2s-.3-.3-.2-.7c0-.2.4-.7 0-1.1z" fill="#ccc"/><path d="m46.6 10.6s.1-.5 0-1c-.2-.8-.4-1-.3-1.4.1-.3 1.8-1.4 4.1-3.1 2.4-1.7 4.5-3.3 5.6-3.7.7-.2 1.6-.1 2.2.6s.8 2.1-.3 3.1c-1.2 1.1-1.8.3-2.5.7-.4.3-1 1.6-1.7 2.9-.7 1.4-1.6 2.8-1.9 2.8s-.9-.5-1.8-.3-1.7 1.2-1.7 1.2z" fill="#e4cb4d"/><path d="m56 3.9c-.3.2-.7.1-.9-.2s-.1-.7.2-.9.7-.1.9.2c.2.2.1.6-.2.9z" fill="#e6e6e5"/><path d="m53.7 5.5c-.3.2-.7.1-.9-.2s-.2-.7.1-.9.7-.1.9.2.1.7-.1.9z" fill="#e6e6e5"/><path d="m51.3 7.2c-.3.2-.7.1-1-.2-.2-.3-.2-.7.1-.9s.7-.1.9.2c.3.2.2.7 0 .9z" fill="#e6e6e5"/><path d="m48.9 9c-.3.2-.7.1-.9-.1-.2-.3-.2-.7.1-.9.3-.3.7-.3.9 0s.1.7-.1 1z" fill="#e6e6e5"/><path d="m15.2 57.4c-.5-.5-.7-1.9-.6-3.3 0-.3.1-.5.1-.8.3-2.2.6-4-1.2-6.9-.4-.7-.9-1.2-1.3-1.7-1-1.1-1.6-1.9-1.1-3.2s1.7-1.8 3.1-2.3 2.9-1.2 4.2-2.6c.4-.5.7-1 1-1.5.4-.7.7-1.3 1-1.2 0 0 0 0 .1.1.3.3.3 1.7.3 2.4 0 .1.4 3.6 1.8 5.1l.1.1c1.1 1.1 2.4 1.4 3.9.7.3-.1.6-.4.9-.6.2-.2.6-.5.8-.5.1.2-.1 1.6-1.6 3.1-1.3 1.3-2.9 2.1-4.3 2.9-1.2.6-2.3 1.1-3.1 1.9-1.1 1.1-1.3 2.4-1.8 4.7l-.1.4c-.3 1.7-1.1 3.5-1.8 3.4-.2-.1-.3-.1-.4-.2z" fill="#1a1a1a"/><path d="m47.9 12.8-1.7-1.7.2-.2 1.7 1.7z" fill="#fff"/><path d="m10.9 47c-.1.1-.4.1-.5 0s-.1-.4 0-.5.4-.1.5 0 .1.4 0 .5z" fill="#434343"/><path d="m12.7 48.7c-.1.1-.4.1-.5 0s-.1-.4 0-.5.4-.1.5 0c.1.2.1.4 0 .5z" fill="#434343"/><path d="m11.9 49.6c-.2.2-.5.2-.6 0-.2-.2-.2-.5 0-.6.2-.2.5-.2.6 0 .2.2.2.4 0 .6z" fill="#434343"/><path d="m10.2 47.8c-.2.2-.5.2-.6 0-.2-.2-.2-.5 0-.6.2-.2.5-.2.6 0s.1.5 0 .6z" fill="#434343"/><path d="m12.9 50.6c-.1 0-.1 0-.1 0l-4.1-4.1s0 0 0-.1c0 0 0 0 0-.1l.4-.3 4.2 4.2z" fill="#434343"/><path d="m12.9 50.4c-.1 0-.1 0 0 0l-4-3.9v-.1l.7-.7h.1l3.9 3.9v.1z" fill="#434343"/><path d="m11 47.9c-.1.1-.1.3 0 .4s.3.1.4 0 .1-.3 0-.4c-.2-.1-.3-.1-.4 0z" fill="#010101"/><ellipse cx="11.2" cy="48.1" fill="#b4b4b4" rx=".2" ry=".2"/><path d="m11.5 48.4c-.1.1-.1.3 0 .4s.3.1.4 0 .1-.3 0-.4-.3-.1-.4 0z" fill="#010101"/><circle cx="11.6" cy="48.5" fill="#b4b4b4" r=".2"/><path d="m10.5 47.4c-.1.1-.1.3 0 .4s.3.1.4 0 .1-.3 0-.4-.3-.1-.4 0z" fill="#010101"/><path d="m10.6 47.5c-.1.1-.1.2 0 .3s.2.1.3 0 .1-.2 0-.3c-.2-.1-.3-.1-.3 0z" fill="#b4b4b4"/><path d="m10 46.9c-.1.1-.1.3 0 .4s.3.1.4 0 .1-.3 0-.4-.3-.1-.4 0z" fill="#010101"/><path d="m10.1 47c-.1.1-.1.2 0 .3s.2.1.3 0 .1-.2 0-.3-.2-.1-.3 0z" fill="#b4b4b4"/><path d="m9.6 46.4c-.1.1-.1.3 0 .4s.3.1.4 0 .1-.3 0-.4c-.2-.1-.3-.1-.4 0z" fill="#010101"/><path d="m9.6 46.5c-.1.1-.1.2 0 .3s.2.1.3 0 .1-.2 0-.3-.2-.1-.3 0z" fill="#b4b4b4"/><path d="m11.9 48.8c-.1.1-.1.3 0 .4s.3.1.4 0 .1-.3 0-.4-.3-.1-.4 0z" fill="#010101"/><path d="m12 48.9c-.1.1-.1.2 0 .3s.2.1.3 0 .1-.2 0-.3-.2-.1-.3 0z" fill="#b4b4b4"/><path d="m12.4 49.3c-.1.1-.1.3 0 .4s.3.1.4 0 .1-.3 0-.4-.3-.1-.4 0z" fill="#010101"/><path d="m12.5 49.4c-.1.1-.1.2 0 .3s.2.1.3 0 .1-.2 0-.3-.3-.1-.3 0z" fill="#b4b4b4"/><path d="m15.1 43c-.2.2-.5.2-.6 0-.2-.2-.2-.5 0-.6.2-.2.5-.2.6 0 .1.1.1.4 0 .6z" fill="url(#a)"/><path d="m15.1 43c-.2.2-.5.2-.6 0-.2-.2-.2-.5 0-.6.2-.2.5-.2.6 0 .1.1.1.4 0 .6z" fill="#010101"/><path d="m15 42.9c-.1.1-.4.1-.5 0s-.1-.4 0-.5.4-.1.5 0 .1.4 0 .5z" fill="#434343"/><path d="m16.8 44.7c-.2.2-.5.2-.6 0-.2-.2-.2-.5 0-.6.2-.2.5-.2.6 0 .2.2.2.4 0 .6z" fill="#010101"/><path d="m16.8 44.7c-.1.1-.4.1-.5 0s-.1-.4 0-.5.4-.1.5 0 .1.3 0 .5z" fill="#434343"/><path d="m16 45.5c-.2.2-.5.2-.6 0-.2-.2-.2-.5 0-.6.2-.2.5-.2.6 0 .2.2.2.4 0 .6z" fill="#434343"/><path d="m16 45.4c-.1.1-.4.1-.5 0s-.1-.4 0-.5.4-.1.5 0c.1.2.1.4 0 .5z" fill="#010101"/><path d="m14.3 43.8c-.2.2-.5.2-.6 0-.2-.2-.2-.5 0-.6.2-.2.5-.2.6 0 .1.1.1.4 0 .6z" fill="#434343"/><path d="m14.2 43.7c-.1.1-.4.1-.5 0s-.1-.4 0-.5.4-.1.5 0 .1.4 0 .5z" fill="#010101"/><path d="m17 46.5c-.1 0-.1 0 0 0-.1 0-.1 0-.1 0l-4.1-4.1s0 0 0-.1c0 0 0 0 0-.1l.4-.4 4.2 4.2z" fill="#434343"/><path d="m16.9 46.3-4-3.9v-.1l.7-.7h.1l3.9 3.9v.1z" fill="#434343"/><path d="m15.1 43.8c-.1.1-.1.3 0 .4s.3.1.4 0 .1-.3 0-.4c-.2-.1-.3-.1-.4 0z" fill="#010101"/><path d="m15.1 43.8c-.1.1-.1.3 0 .4s.3.1.4 0z" fill="#434343"/><path d="m15.1 43.8c-.1.1-.1.2 0 .3s.2.1.3 0 .1-.2 0-.3c-.1 0-.2 0-.3 0z" fill="#b4b4b4"/><path d="m15.6 44.3c-.1.1-.1.3 0 .4s.3.1.4 0 .1-.3 0-.4c-.2-.1-.3-.1-.4 0z" fill="#010101"/><path d="m15.6 44.3c-.1.1-.1.3 0 .4s.3.1.4 0z" fill="#434343"/><path d="m15.6 44.3c-.1.1-.1.2 0 .3s.2.1.3 0 .1-.2 0-.3-.2-.1-.3 0z" fill="#b4b4b4"/><path d="m14.6 43.3c-.1.1-.1.3 0 .4s.3.1.4 0 .1-.3 0-.4-.3-.1-.4 0z" fill="#010101"/><path d="m14.6 43.3c-.1.1-.1.3 0 .4s.3.1.4 0z" fill="#434343"/><path d="m14.7 43.4c-.1.1-.1.2 0 .3s.2.1.3 0 .1-.2 0-.3c-.2-.1-.3-.1-.3 0z" fill="#b4b4b4"/><path d="m14.1 42.8c-.1.1-.1.3 0 .4s.3.1.4 0 .1-.3 0-.4-.3-.1-.4 0z" fill="#010101"/><path d="m14.1 42.8c-.1.1-.1.3 0 .4s.3.1.4 0z" fill="#434343"/><path d="m14.2 42.9c-.1.1-.1.2 0 .3s.2.1.3 0 .1-.2 0-.3-.3-.1-.3 0z" fill="#b4b4b4"/><path d="m13.6 42.4c-.1.1-.1.3 0 .4s.3.1.4 0 .1-.3 0-.4-.3-.1-.4 0z" fill="#010101"/><path d="m13.7 42.4c-.1 0-.1 0 0 0-.1.1-.1.3 0 .4s.3.1.4 0z" fill="#434343"/><path d="m13.7 42.4c-.1.1-.1.2 0 .3s.2.1.3 0 .1-.2 0-.3-.2-.1-.3 0z" fill="#b4b4b4"/><path d="m16 44.7c-.1.1-.1.3 0 .4s.3.1.4 0 .1-.3 0-.4-.3-.1-.4 0z" fill="#010101"/><path d="m16 44.7c-.1.1-.1.3 0 .4s.3.1.4 0z" fill="#434343"/><path d="m16.1 44.8c-.1.1-.1.2 0 .2.1.1.2.1.3 0s.1-.2 0-.3c-.1 0-.2 0-.3.1z" fill="#b4b4b4"/><path d="m16.5 45.2c-.1.1-.1.3 0 .4s.3.1.4 0 .1-.3 0-.4-.3-.1-.4 0z" fill="#010101"/><path d="m16.5 45.2c-.1.1-.1.3 0 .4s.3.1.4 0z" fill="#434343"/><path d="m16.6 45.3c-.1.1-.1.2 0 .3s.2.1.3 0 .1-.2 0-.3c-.2-.1-.3-.1-.3 0z" fill="#b4b4b4"/><path d="m55.9 3.7c-.2.2-.5.1-.7-.1s-.1-.5.1-.7c.3-.1.6-.1.7.1.2.3.1.5-.1.7z" fill="#b4b4b4"/><path d="m53.5 5.4c-.2.2-.5.1-.7-.1-.1-.3 0-.6.2-.7.2-.2.5-.1.7.1.1.2.1.5-.2.7z" fill="#b4b4b4"/><path d="m51.1 7c-.2.2-.5.1-.7-.1s-.1-.5.1-.7.5-.1.7.1c.2.3.2.6-.1.7z" fill="#b4b4b4"/><path d="m48.7 8.8c-.2.2-.5.1-.7-.1-.1-.2 0-.5.2-.7s.5-.1.7.1c.1.2.1.5-.2.7z" fill="#b4b4b4"/><path d="m21.7 40c-.4.1-.8-.3-1.7-1.2-.8-.9-1-1.2-.8-1.6.1-.3 27.3-26.6 27.3-26.6l1.8 1.8c.1 0-26.2 27.4-26.6 27.6z" fill="#a6832e"/><path d="m47.9 12.9-1.8-1.9.1-.2 1.9 1.9z" fill="#fff"/><path d="m45.8 15.1-1.9-2 .1-.1 1.9 2z" fill="#4d4d4d"/><path d="m44 17-2-2 .1-.1 2 2z" fill="#4d4d4d"/><path d="m42.1 19-2.1-2.1.1-.1 2.1 2.1z" fill="#4d4d4d"/><path d="m40.4 20.7-2.1-2.1.1-.1 2.1 2.1z" fill="#4d4d4d"/><path d="m38.8 22.4-2.2-2.2.1-.1 2.2 2.2z" fill="#4d4d4d"/><path d="m37.3 24-2.3-2.3.1-.1 2.3 2.3z" fill="#4d4d4d"/><path d="m35.8 25.5-2.3-2.3.1-.1 2.3 2.3z" fill="#4d4d4d"/><path d="m34.4 26.9-2.3-2.3.1-.1 2.3 2.3z" fill="#4d4d4d"/><path d="m33.1 28.3-2.4-2.4.1-.1 2.4 2.4z" fill="#4d4d4d"/><path d="m31.9 29.5-2.4-2.4.1-.1 2.4 2.4z" fill="#4d4d4d"/><path d="m30.8 30.7-2.5-2.5.1-.1 2.5 2.5z" fill="#4d4d4d"/><path d="m29.7 31.8-2.5-2.5.1-.1 2.5 2.5z" fill="#4d4d4d"/><path d="m28.7 32.9-2.5-2.5.1-.1 2.5 2.5z" fill="#4d4d4d"/><path d="m27.7 33.9-2.6-2.5.1-.1 2.6 2.5z" fill="#4d4d4d"/><path d="m26.8 34.9-2.6-2.6.1-.1 2.6 2.6z" fill="#4d4d4d"/><path d="m26 35.7-2.6-2.6.1-.1 2.6 2.6z" fill="#4d4d4d"/><path d="m25.1 36.6-2.6-2.6.1-.1 2.6 2.6z" fill="#4d4d4d"/><path d="m24.2 37.5-2.7-2.6.1-.1 2.7 2.6z" fill="#4d4d4d"/><path d="m23.4 38.4-2.7-2.7.1-.1 2.7 2.7z" fill="#4d4d4d"/><path d="m22.7 39.1-2.7-2.7.1-.1 2.7 2.7z" fill="#4d4d4d"/><path d="m22 39.7-2.6-2.7.1-.1 2.6 2.7z" fill="#4d4d4d"/><g fill="#ccc"><path d="m45.9 15-1.9-1.9.1-.1 1.9 1.9z"/><path d="m44 17-2-2 .1-.1 2 2z"/><path d="m42.1 18.9-2-2.1.1-.1 2 2.1z"/><path d="m40.5 20.7-2.2-2.2.1-.1 2.2 2.2z"/><path d="m38.8 22.4-2.2-2.2.1-.1 2.2 2.2z"/><path d="m37.3 23.9-2.2-2.2.1-.1 2.2 2.2z"/><path d="m35.9 25.5-2.3-2.4.1-.1 2.3 2.4z"/><path d="m34.5 26.9-2.4-2.4.1-.1 2.4 2.4z"/><path d="m33.2 28.3-2.4-2.4.1-.1 2.4 2.4z"/><path d="m32 29.5-2.4-2.4.1-.1 2.4 2.4z"/><path d="m30.8 30.7-2.4-2.5.1-.1 2.4 2.5z"/><path d="m29.8 31.8-2.5-2.5.1-.1 2.5 2.5z"/><path d="m28.7 32.9-2.5-2.6.1-.1 2.5 2.6z"/><path d="m27.7 33.9-2.5-2.6.1-.1 2.5 2.6z"/><path d="m26.8 34.8-2.5-2.6.1-.1 2.5 2.6z"/><path d="m26 35.7-2.6-2.6.1-.1 2.6 2.6z"/><path d="m25.1 36.6-2.6-2.7.1-.1 2.6 2.7z"/><path d="m24.2 37.5-2.6-2.7.1-.1 2.6 2.7z"/><path d="m23.4 38.3-2.7-2.6.1-.1 2.7 2.6z"/><path d="m22.7 39-2.6-2.7.1-.1 2.6 2.7z"/><path d="m22.1 39.7-2.7-2.7.1-.1 2.7 2.7z"/></g><path d="m42.3 17c-.1.1-.3.1-.4 0s-.1-.3 0-.4.3-.1.4 0c.1.2.1.3 0 .4z" fill="#eedd84"/><path d="m38.8 20.6c-.1.1-.3.1-.4 0s-.1-.3 0-.4.3-.1.4 0 .1.3 0 .4z" fill="#eedd84"/><path d="m35.7 23.7c-.1.1-.3.1-.4 0s-.1-.3 0-.4.3-.1.4 0 .1.3 0 .4z" fill="#eedd84"/><path d="m32.9 26.6c-.1.1-.3.1-.4 0s-.1-.3 0-.4.3-.1.4 0 .1.3 0 .4z" fill="#eedd84"/><path d="m31.1 29.8c-.1.1-.3.1-.4 0s-.1-.3 0-.4.3-.1.4 0 .1.3 0 .4z" fill="#eedd84"/><path d="m29.6 28.3c-.1.1-.3.1-.4 0s-.1-.3 0-.4.3-.1.4 0c.1.2.1.3 0 .4z" fill="#eedd84"/><path d="m27.2 32.3c-.1.1-.3.1-.4 0s-.1-.3 0-.4.3-.1.4 0 .1.3 0 .4z" fill="#eedd84"/><path d="m25.4 34.1c-.1.1-.3.1-.4 0s-.1-.3 0-.4.3-.1.4 0 .1.3 0 .4z" fill="#eedd84"/><path d="m23.6 35.9c-.1.1-.3.1-.4 0s-.1-.3 0-.4.3-.1.4 0 .1.2 0 .4z" fill="#eedd84"/><path d="m22 37.5c-.1.1-.3.1-.4 0s-.1-.3 0-.4.3-.1.4 0 .1.3 0 .4z" fill="#eedd84"/><path d="m47.8 12.6-15.8 16.3-23.9 24.8-.1-.1 24-24.8 15.8-16.3 8-9.1z" fill="#ccc"/><path d="m47.5 12.1-16 16.2-24.3 24.6v-.1l24.2-24.6 16.1-16.1 5.9-7.1.1.1z" fill="#ccc"/><path d="m47 11.7-16.2 16-24.5 24.3-.1-.1 24.5-24.3 16.3-15.9 4-5.1.1.1z" fill="#ccc"/><path d="m46.6 11.3-16.2 15.6-24.9 24.2-.1-.1 24.9-24.2 16.2-15.7 2-2.7.1.1z" fill="#ccc"/><path d="m55.8 3.6c-.1.1-.3.1-.4-.1-.1-.1-.1-.3.1-.4.1-.1.3-.1.4 0 .1.2.1.4-.1.5z" fill="#818181"/><path d="m53.4 5.2c-.1.1-.3.1-.4-.1-.1-.1 0-.3.1-.4s.3-.1.4.1c.1.1.1.3-.1.4z" fill="#818181"/><path d="m51 6.9c-.1.1-.3.1-.4-.1-.1-.1-.1-.3.1-.4.1-.1.3-.1.4.1.1.1.1.3-.1.4z" fill="#818181"/><path d="m48.6 8.6c-.1.1-.3.1-.4-.1-.1-.1-.1-.3.1-.4.1-.1.3-.1.4.1s.1.4-.1.4z" fill="#818181"/><path d="m15.3 54.6c-.3.3-.3.9 0 1.2s.9.3 1.2 0 .3-.9 0-1.2c-.4-.3-.9-.3-1.2 0z" fill="#010101"/><path d="m15.3 55.8c.3.3.9.3 1.2 0s.3-.9 0-1.2z" fill="#333"/><path d="m16.2 55.6c-.2.2-.6.2-.8 0s-.2-.6 0-.8.6-.2.8 0c.2.3.2.6 0 .8z" fill="#010101"/><path d="m15.5 55.6c-.2-.2-.2-.6 0-.8s.6-.2.8 0z" fill="#333"/><circle cx="16.4" cy="52.1" fill="#010101" r=".8"/><path d="m15.8 52.7c.3.3.9.3 1.2 0s.3-.9 0-1.2z" fill="#333"/><path d="m16.7 52.4c-.2.2-.6.2-.8 0s-.2-.6 0-.8.6-.2.8 0c.3.3.3.6 0 .8z" fill="#010101"/><path d="m16 52.4c-.2-.2-.2-.6 0-.8s.6-.2.8 0z" fill="#333"/></svg>