<svg height="60" width="60" xmlns="http://www.w3.org/2000/svg"><path d="m13.94 7.4-7.92 2.24-4.5 1.46-1.52 2.67 1.84 3.06 7.86 4.65s11.86.15 13.1 0c1.23-.16 3.4 5.12 3.4 5.12l7.84 3.5h18.66l2.47-1.1 3.92-2.96.9-2.72-1.74-2.55-3.35-1.67-5.3-1.33-8.3-.62-6.27.8-4.38.8 2.2-2.86 1.67-1.8-1.5-2.65-3.02-1.69-4.85-1.05" fill="#fff"/><path d="m26.07 21.2 7.43-3.17.72-2.52c.4-.54.63-1.12.63-1.73 0-1.5-1.3-2.84-3.5-3.92-2.8-1.56-7.94-2.58-13.92-2.58s-11.13.99-13.93 2.56c-2.2 1.08-3.5 2.43-3.5 3.92 0 .6.22 1.2.63 1.75l.75 2.67c1.5 5.3 2.58 10.73 3.23 16.2l.83 6.8c.14 1.1 1.08 1.88 2.2 1.88h19.6c1.13 0 2.07-.77 2.2-1.88l.8-6.8-4.15-13.15zm-22.47-10.6c3-1.52 8.14-2.55 13.82-2.55 5.7 0 10.8 1.03 13.84 2.56 1.1.67 1.7 1.38 1.7 2.08 0 2.26-6.25 4.67-15.54 4.67-9.28 0-15.52-2.4-15.52-4.67 0-.7.6-1.4 1.7-2.06zm-2.88 3.17c0-.44.16-.87.45-1.28v.2c0 3 7.13 5.4 16.24 5.4 9.13 0 16.27-2.4 16.27-5.4 0-.08 0-.15 0-.2.27.4.43.83.43 1.27 0 3.1-7.63 5.7-16.68 5.7s-16.7-2.6-16.7-5.7zm55.78 5.63c-2.8-1.56-7.94-2.58-13.93-2.58s-11.1 1.02-13.93 2.6c-2.2 1.06-3.5 2.4-3.5 3.9 0 .6.23 1.2.64 1.75l.75 2.65c1.5 5.3 2.58 10.73 3.23 16.2l.8 6.88c.15 1.1 1.1 1.94 2.2 1.94h19.64c1.12 0 2.06-.83 2.2-1.95l.8-6.88c.66-5.48 1.74-10.9 3.24-16.2l.75-2.66c.4-.55.62-1.14.62-1.75 0-1.47-1.3-2.83-3.5-3.9zm1.6 2.83c0 2.26-6.24 4.68-15.52 4.68s-15.53-2.4-15.53-4.66c0-.7.6-1.4 1.7-2.06 3.02-1.53 8.14-2.56 13.83-2.56s10.8 1.04 13.84 2.57c1.08.64 1.68 1.35 1.68 2.05zm-15.52 6.8c-9.05 0-16.7-2.62-16.7-5.7 0-.45.16-.88.45-1.3v.2c0 3.03 7.13 5.4 16.25 5.4s16.25-2.37 16.25-5.4c0-.06 0-.12 0-.2.28.42.43.85.43 1.3 0 3.1-7.64 5.7-16.68 5.7z"/></svg>