<svg enable-background="new 0 0 60 60" height="60" viewBox="0 0 60 60" width="60" xmlns="http://www.w3.org/2000/svg"><path d="m13.9 7.4-7.9 2.2-4.5 1.5-1.5 2.7 1.8 3.1 7.9 4.6s11.9.1 13.1 0c1.2-.2 3.4 5.1 3.4 5.1l7.8 3.5h18.7l2.5-1.1 3.9-3 .9-2.7-1.7-2.5-3.3-1.7-5.3-1.3-8.3-.6-6.4.7-4.4.8 2.2-2.9 1.7-1.8-1.5-2.6-3-1.7-4.9-1.1" fill="#fff"/><path d="m26.1 21.2 7.4-3.2.7-2.5c.4-.5.6-1.1.6-1.7 0-1.5-1.3-2.8-3.5-3.9-2.8-1.6-7.9-2.6-13.9-2.6s-11.1 1-13.9 2.5c-2.2 1.1-3.5 2.5-3.5 4 0 .6.2 1.2.6 1.8l.8 2.7c1.5 5.2 2.6 10.6 3.2 16.1l.8 6.8c.1 1.1 1.1 1.9 2.2 1.9h19.6c1.1 0 2.1-.8 2.2-1.9l.8-6.8zm-22.5-10.6c3-1.5 8.1-2.6 13.8-2.6s10.8 1 13.8 2.6c1.1.7 1.7 1.4 1.7 2.1 0 2.3-6.2 4.7-15.5 4.7s-15.5-2.4-15.5-4.7c0-.7.6-1.4 1.7-2.1zm-2.9 3.2c0-.4.2-.9.5-1.3v.2c0 3 7.1 5.4 16.2 5.4s16.3-2.4 16.3-5.4c0-.1 0-.1 0-.2.3.4.4.8.4 1.3 0 3.1-7.6 5.7-16.7 5.7s-16.7-2.6-16.7-5.7zm55.8 5.6c-2.8-1.6-7.9-2.6-13.9-2.6s-11.1 1-13.9 2.6c-2.2 1.1-3.5 2.4-3.5 3.9 0 .6.2 1.2.6 1.8l.8 2.6c1.5 5.3 2.6 10.7 3.2 16.2l.8 6.9c.1 1.1 1.1 1.9 2.2 1.9h19.6c1.1 0 2.1-.8 2.2-2l.8-6.9c.7-5.5 1.7-10.9 3.2-16.2l.8-2.7c.4-.5.6-1.1.6-1.8 0-1.3-1.3-2.6-3.5-3.7zm1.6 2.8c0 2.3-6.2 4.7-15.5 4.7s-15.6-2.4-15.6-4.7c0-.7.6-1.4 1.7-2.1 3-1.5 8.1-2.6 13.8-2.6s10.8 1 13.8 2.6c1.2.7 1.8 1.5 1.8 2.1zm-15.5 6.8c-9 0-16.7-2.6-16.7-5.7 0-.5.2-.9.5-1.3v.2c0 3 7.1 5.4 16.2 5.4s16.2-2.4 16.2-5.4c0-.1 0-.1 0-.2.3.4.4.9.4 1.3.1 3.1-7.6 5.7-16.6 5.7z" fill="#00572c"/></svg>