<svg height="130.7" viewBox="0 0 60 130.7" width="60" xmlns="http://www.w3.org/2000/svg"><g fill="#c12127"><path d="m55.4 110.1-18.1-2.3h-.4c-.2-3.6-1.8-7.3-5-7.9v-29.8h1.3v-1.4h-1.3v-16.4h.5v-13.5h-.5v-2.1h1.3v-1.4h-1.3v-9.8c.2-.1.4-.2.5-.3l15 10.1-.7 1 11.2 7.5 2.1-3.2-11.2-7.6-.4.6-15-10.1c.2-1.2-.4-2.3-1.5-2.8-.8-.4-1.7-.3-2.4.2l-6.5-4.4.9-1.2-1.2-.9-.9 1.2.1.2-20.8-14.1-1.1 1.7 28.4 19.1c-.3 1.2.3 2.4 1.4 3h.1v13.4h-.5v13.5h.6v47.6c-2.4.5-3.9 2.7-4.5 5.2l-13.5-6.2c-.8-.3-1.5.1-1.8.9s.1 1.5.9 1.8l13.9 6.2v.8c0 2.5.7 3.8 2.1 4.4l-7.2 15.2c-.5.7-.3 1.5.4 2 .3.2.5.3.8.3.5 0 1-.2 1.3-.6l7.9-16.4h.8c3.5 0 5.3-.7 5.8-3.2l18.1 2.3h.3c.7 0 1.3-.5 1.4-1.2 0-.5-.5-1.3-1.3-1.4z"/><path d="m5.3 3.3c.3-.4.6-.6.9-.7l-3.9-2.6c0 .3-.1.7-.4 1.1-.2.3-.6.5-.8.6l3.9 2.6c-.1-.3.1-.6.3-1z"/></g></svg>