<svg enable-background="new 0 0 60 60" height="60" viewBox="0 0 60 60" width="60" xmlns="http://www.w3.org/2000/svg"><path d="m47.7 3.1c-.2.2-.1.7.3 1.4l-3.3-3.3c-1-1-2.1-1.4-2.5-1s0 1.5 1 2.5l10.6 10.6c1 1 2.1 1.4 2.5 1s0-1.5-1-2.5l-3.5-3.5c.6.4 1.2.5 1.4.3.4-.4-.5-1.9-2-3.5-1.6-1.5-3.1-2.4-3.5-2z" fill="#603813"/><path d="m13.2 41.7c7-7.5 23.6-25.1 27.1-30.2 2.8-4 .7-9.9 1-9.9 1-.1 5.7 4.3 7.4 5.9 1.8 1.7 6.2 6.6 6.3 7.9 0 .3-4.2-2.3-9.8.9-3.1 1.9-22.8 20.7-30.2 27.7-1.9 1.8-7 6.2-3.3 10.2 3.1 3.5 6.2 3.7 11.4-1.1 1.5-1.4 7.5-7.8 7.5-7.8l1.8 1.8s-6.2 6.5-7.9 8c-2.3 2.1-8.4 7.6-14.4.5-5.2-6 .3-10.9 3.1-13.9z" fill="#063e89"/><path d="m35.9 18.8c-9.9 9.9-23.8 25.4-23.5 25.7s15.5-14 25.4-23.9 10.6-11.5 10.3-11.8-2.3.1-12.2 10z" fill="#fff" opacity=".2"/><path d="m48.3 24.7c-.1 0-.1.1 0 .2l1.4 1.7c-.1 0-.2 0-.3 0s-.2 0-.2 0c.2.2.4.5.5.8h.1.1l.2.7c.1 0 .2 0 .3.1.2.1.3.1.3.2l-.4-1.4s0 0-.1-.1l-1.6-2c-.1-.2-.2-.3-.3-.2z" fill="#d0d2d3"/><path d="m50.4 28.1c-.1 0-.2-.1-.3-.1h-.1l-.1.6s.2.1.3.2c.2.1.4.1.4.1l.1-.5c0-.1-.1-.2-.3-.3z" fill="#f6921e"/><path d="m49.1 26.5c-.5-.5-1.2-.7-1.9-.7s-1.4.3-1.9.8l-12.5 12.4c-.1.1-.2.2-.3.3l1.2 1.2c.2-.4.5-.9.9-1.3l10.9-10.9c.5-.5 1-.8 1.4-1 .5-.2.9-.1 1.1.1.5.5.1 1.6-.9 2.5l-10.8 11c-.4.4-.9.7-1.3.9l1.2 1.2c.1-.1.2-.2.3-.3l3-3 3.1 3.1c.1.1.3.1.5 0 .1-.1.1-.3 0-.5l-3.1-3.1 9.1-9.1c.8-.8 1-2 .7-2.9-.3-.2-.5-.5-.7-.7z" fill="#063e89"/><path d="m33.8 40.6-1.2-1.2-7.1-7.1c.1.5-.1 1.1-.6 1.6s-1.2.8-1.7.6l3.7 3.7-.4.4-3.8-3.8c.1.5-.1 1.1-.6 1.7-.5.5-1.1.7-1.6.6l3.7 3.7-.2.4-3.8-3.8c.1.5-.1 1.2-.6 1.7s-1.1.7-1.6.7l3.8 3.8-.3.3c-.3.3-.2.8.1 1.2.4.4.9.4 1.2.1l.3-.3 3.1 3.1-6.7 6.7c-.7.7-.4 2 .6 3 .5.5 1.1.8 1.6.9s1 0 1.4-.3l6.7-6.7 1.4 1.4c.8.8 1.9.9 2.5.2.6-.6.5-1.8-.2-2.5l-8.1-8.1.3-.3 8.2 8.2c.8.8 1.9.9 2.5.2.6-.6.5-1.8-.2-2.5l-8.2-8.2.4-.4 8.2 8.2c.8.8 1.9.9 2.5.2.6-.6.5-1.8-.2-2.5l-2.7-2.5-1.2-1.2zm-5.2 9.7c0 .1-.1.1 0 0l-6.1 6.1c-.3.3-.6.4-.9.4s-.6 0-.8-.2c-.4-.4-.3-1.1.2-1.7l6-6s.1 0 .1-.1z" fill="#c56a0d"/><g fill="#d0d2d3"><path d="m19.5 39c.5-.5.8-1.2.6-1.7 0-.1-.1-.2-.2-.3-.4-.4-1.3-.2-2 .4-.7.7-.9 1.6-.4 2 .1.1.3.2.4.2.5.2 1.1-.1 1.6-.6z"/><path d="m22.1 36.5c.5-.5.8-1.2.6-1.7 0-.1-.1-.2-.2-.3-.4-.4-1.3-.2-2 .4-.7.7-.9 1.6-.4 2 .1.1.3.2.4.2.5.2 1.1 0 1.6-.6z"/><path d="m24.8 33.9c.5-.5.7-1.2.6-1.6 0-.1-.1-.3-.2-.4-.4-.4-1.3-.2-2 .4-.7.7-.9 1.6-.4 2 .1.1.2.2.4.2.5.2 1.1-.1 1.6-.6z"/></g><path d="m23.8 33c-.2.2-.5.2-.7.1l-.2-.2c-.1.3-.1.6 0 .8.3.3.9.2 1.3-.3s.6-1 .3-1.3c-.2-.2-.6-.2-.9 0l.2.2c.2.2.2.4 0 .7z" fill="#404041"/><path d="m22.1 31.2c-.1.1-.3.3-.4.4l1.2 1.2.2.2c.2.2.5.1.7-.1s.2-.5.1-.7l-.2-.2-1.2-1.2c-.2.2-.3.3-.4.4z" fill="#fccf8c"/><path d="m22.4 30.8c.4-.5.5-1 .3-1.3-.3-.3-1 0-1.6.6s-.9 1.4-.6 1.6c.2.2.7.1 1.2-.3.1-.1.3-.2.4-.4.1.1.2 0 .3-.2z" fill="#faaf40"/><path d="m49.2 7.3c4.2 4.2 7.1 7.9 6.6 8.5-.2.2-.6 0-1.2-.4h.1c.4-.4-2.2-3.8-5.8-7.4s-7-6.2-7.4-5.8c-.1.1 0 .2 0 .3-.6-.9-.9-1.6-.7-1.7.4-.6 4.2 2.3 8.4 6.5z" fill="#e6d0aa"/><path d="m23.7 44c3.5 3.5 9 8.5 9.1 8.4s-4.9-5.6-8.4-9.1-4.1-3.8-4.2-3.7 0 .8 3.5 4.4z" fill="#e2c181"/><path d="m26.3 41.4c3.5 3.5 9 8.5 9.1 8.4s-4.9-5.6-8.4-9.1-4.1-3.8-4.2-3.7 0 .9 3.5 4.4z" fill="#e2c181"/><path d="m28.9 38.8c3.5 3.5 9 8.5 9.1 8.4s-4.9-5.6-8.4-9.1-4.1-3.8-4.2-3.7 0 .8 3.5 4.4z" fill="#e2c181"/><path d="m9.2 52.3-2.1 2c-.2-.2-1.2.1-1.8.6-.2.2-.4.5-.5.7l-.1-.1c-.3-.3-.7-.3-.9 0-.2.2-.2.7 0 .9l2.4 2.4c.3.3.7.3.9 0 .2-.2.2-.6 0-.9.2-.1.4-.3.7-.5.5-.5.8-1.5.7-1.7l2.1-2c-.6-.2-1.3-.9-1.4-1.4z" fill="#d0d2d3"/><path d="m48.6 33.8c-.1 0-.2.1-.2.2l.2 3.3c-.1-.1-.3-.1-.5-.2-.3-.1-.5-.1-.6-.1 0 .5 0 1-.1 1.4.1 0 .2.1.4.1.1 0 .1 0 .2.1l-.5 1.4c.1 0 .2.1.3.2.2.2.4.4.3.4l1-2.5s0-.1-.1-.1l-.3-3.9c.1-.2 0-.3-.1-.3z" fill="#d0d2d3"/><path d="m47.8 40.2c-.1-.1-.2-.2-.3-.2s-.1 0-.1 0l-.5.6c0 .1-.1.3-.1.4l.3.3c.2.2.4.3.4.3l.7-.9c0-.1-.1-.3-.4-.5z" fill="#f6921e"/><path d="m37.8 32.5c-.1-.4-.2-.7-.5-1-.8-.8-2.1-.7-2.9.1s-.9 2.1-.1 2.9 2.1.7 2.9-.1c.3-.3.5-.6.6-.9.1 0 .2 0 .3-.1l2.8-2.8c-.2-.1-.5-.2-.7-.3zm-1.1 1.4c-.6.6-1.5.6-2 .1s-.5-1.5.1-2c.6-.6 1.5-.6 2-.1.6.5.5 1.4-.1 2z" fill="#d0d2d3"/><path d="m47.4 38.5c.1-.5.1-1 .1-1.4 0-2.1-.8-4.4-3-6.5-2.6-2.6-7.6-5.3-13.9.1-.2.1-.6.6-1.3 1.3-.2 0-.5 0-.5 0s-.7.9-1.8-.4.8-1.9.8-1.9-.4-.6-.6-.5-1.6 1.6-.6 2.7c.6.6 1.3.9 1.8.9-3.6 3.7-10.9 11.2-14 14.2-.6.5-1.7 1.5-2.3 2.1-.5.4-1.3 1.4-1.8 1.9-.3.3-1.3.8-1.3 1.3v.2c.2.5.8 1.2 1.3 1.4h.2c.5 0 .9-1 1.3-1.4.4-.5 1.4-1.3 1.8-1.8.5-.6 1.5-1.8 2-2.3 3.9-4.2 13.8-13.5 16.4-16.1 2.8-2.8 5.6-2.8 7.8-1.9.3.1.5.2.7.3.9.4 1.6 1 2.3 1.5 3.4 2.7 2.6 7.9.4 10.2-3.3 3.4-13.7 14.1-15.4 15.2-1.3.9-2.9.4-4.2-.7-.9-.7-1.8-1.6-2.2-2.7-.5-1.1.1-1.9.8-2.7 1.4-1.7 6-6.3 8.2-8.1.4-.3 1.4-.9 1.9-.8.7.1 1.4 1.6 2 1.9.2.1.8 0 1-.1s.3-.6.2-.8c-.4-.8-2.6-2.7-3.6-2.8-.8-.2-2.5.6-3.1 1.2s-6.7 6.3-8.3 8.2c-.5.6-1.5 1.6-1.5 3.1.1 2.3 2.4 6.1 6.8 7 .9.2 2.4-.3 3.4-1.1 2.2-1.7 13.8-13.4 15.3-15.1.6-.7 1.2-1.6 1.7-2.8.1-.1.1-.3.1-.4.8-1 1-1.7 1.1-2.4z" fill="#063e89"/><path d="m21.1 35.6c-.2.2-.5.2-.7.1l-.2-.2c-.1.3-.1.6 0 .8.3.3.9.2 1.3-.3s.6-1 .3-1.3c-.2-.2-.6-.2-.9 0l.2.2c.2.2.2.5 0 .7z" fill="#404041"/><path d="m19.4 33.9c-.1.1-.3.3-.4.4l1.2 1.2.2.2c.2.2.5.1.7-.1s.2-.5.1-.7l-.2-.2-1.2-1.2c-.2.1-.3.2-.4.4z" fill="#fccf8c"/><path d="m19.7 33.5c.4-.5.5-1 .3-1.3-.3-.3-1 0-1.6.6s-.9 1.4-.6 1.6c.2.2.7.1 1.2-.3.1-.1.3-.2.4-.4.1 0 .2-.1.3-.2z" fill="#faaf40"/><path d="m18.4 38.1c-.2.2-.5.2-.7.1l-.1-.2c-.1.3-.1.6 0 .8.3.3.9.2 1.3-.3.4-.4.6-1 .3-1.3-.2-.2-.6-.2-.9 0l.2.2c.2.2.1.5-.1.7z" fill="#404041"/><path d="m16.7 36.4c-.1.1-.3.3-.4.4l1.2 1.2.2.2c.2.2.5.1.7-.1s.2-.5.1-.7l-.2-.2-1.2-1.2c-.1.1-.2.2-.4.4z" fill="#fccf8c"/><path d="m17.1 36c.4-.5.5-1 .3-1.3-.3-.3-1 0-1.6.6s-.9 1.4-.6 1.6c.2.2.7.1 1.2-.3.1-.1.3-.2.4-.4.1 0 .2-.1.3-.2z" fill="#faaf40"/><path d="m7.2 56.1c1-1 2.2-2.8 2.2-2.9-.1-.1-1.7 1.3-2.7 2.3s-1 1.3-.9 1.4.4.2 1.4-.8z" fill="#e6e7e8"/></svg>