<svg xmlns="http://www.w3.org/2000/svg" width="60" height="60"><path d="M11.64 41.48h27.03v1.15H11.64z"/><path stroke="#fff" stroke-width=".389" stroke-miterlimit="10" d="M38.8 53.94c-13.57 0-24.6-11.18-24.6-24.9 0-13.1 10.5-23.74 23.44-23.74C49.97 5.3 60 15.45 60 27.92c0 11.9-9.56 21.57-21.3 21.57-11.22 0-20.34-9.24-20.34-20.58 0-10.82 8.7-19.6 19.38-19.6 10.2 0 18.48 8.38 18.48 18.7 0 9.82-7.9 17.82-17.62 17.82-9.27 0-16.8-7.63-16.8-17 0-8.96 7.18-16.24 16.02-16.24 8.44 0 15.3 6.96 15.3 15.5 0 8.14-6.55 14.77-14.6 14.77-.44 0-.8-.36-.8-.8 0-.46.36-.82.8-.82 7.17 0 13-5.9 13-13.15 0-7.65-6.15-13.87-13.7-13.87-7.96 0-14.43 6.56-14.43 14.6 0 8.5 6.8 15.4 15.2 15.4 8.82 0 16-7.27 16-16.2 0-9.43-7.56-17.1-16.87-17.1-9.8 0-17.78 8.08-17.78 18 0 10.45 8.4 18.94 18.72 18.94 10.87 0 19.72-8.94 19.72-19.95 0-11.58-9.3-21-20.77-21-12.05 0-21.85 9.92-21.85 22.1 0 12.85 10.3 23.3 23 23.3.44 0 .8.36.8.8 0 .45-.36.82-.8.82z"/><path d="M54.64 53.27c.06-.06.06-.15 0-.2l-.5-.5c-.05-.07-.14-.07-.2 0l-.1.1c-.06.06-.1.1-.1.1 0-.03-.04-.1-.08-.16l-.25-.15c-.05-.02-.2-.04-.26-.04H47c-.08 0-.15-.05-.15-.1s-.02-.18-.05-.25c-.04-.07-.26-.12-.34-.12h-7.2c-.07 0-.14 0-.14-.03s-.02-.1-.05-.16c-.03-.06-.24-.12-.32-.12h-.2c-.07 0-.18.03-.25.06-.06.03-.12.24-.12.32v2.33c0 .08.03.2.06.26s.24.1.32.1h.2c.07 0 .18-.03.25-.06.08-.03.13-.2.13-.2 0-.03.07-.04.14-.04h7.2c.08 0 .2-.02.26-.05.07-.03.12-.24.12-.3 0-.07.06-.12.14-.12h6.14c.08 0 .2-.02.28-.04l.26-.2c.04-.07.07-.13.07-.14 0 0 .05.02.1.08l.12.12c.05.05.14.05.2 0l.5-.5z"/><path fill="#fff" d="M40.07 52.1h.82v2.12h-.84zm3.93 0h.83v2.12H44z"/><path d="M.1 41.96c-.06.05-.06.14 0 .2l.5.5c.05.06.14.06.2 0l.1-.1c.07-.07.1-.1.1-.1s.04.08.08.15l.26.2c.07.02.2.04.27.04h6.17c.08 0 .14.05.14.1s.04.2.07.25.25.1.32.1h7.2c.07 0 .13.03.13.04s.02.1.05.15c.03.05.25.1.33.1h.2c.07 0 .2-.02.25-.05.07-.02.12-.24.12-.32V40.9c0-.08-.02-.2-.05-.26-.02-.07-.24-.12-.3-.12H16c-.08 0-.2.02-.26.05-.07.03-.12.2-.12.2s-.06.04-.14.04h-7.2c-.08 0-.2.05-.26.08s-.12.24-.12.3c0 .07-.06.12-.14.12H1.6c-.07 0-.2 0-.26.04l-.26.17c-.04.1-.07.15-.07.16 0 0-.03-.02-.1-.08l-.1-.1c-.05-.07-.14-.07-.2 0l-.5.5z"/><path fill="#fff" d="M13.86 41h.82v2.1h-.82zM9.9 41h.83v2.1H9.9z"/><path fill="#1D1D1B" d="M33.2 41.48h5.47v1.15H33.2z"/></svg>