<svg enable-background="new 0 0 60 60" height="60" viewBox="0 0 60 60" width="60" xmlns="http://www.w3.org/2000/svg"><path d="m11.6 41.5h27v1.2h-27z" fill="#00572c"/><path d="m38.8 53.9c-13.6 0-24.6-11.2-24.6-24.9 0-13.1 10.5-23.7 23.4-23.7 12.4 0 22.4 10.1 22.4 22.6 0 11.9-9.6 21.6-21.3 21.6-11.2 0-20.3-9.2-20.3-20.6 0-10.8 8.7-19.6 19.4-19.6 10.2 0 18.5 8.4 18.5 18.7 0 9.8-7.9 17.8-17.6 17.8-9.3 0-16.8-7.6-16.8-17 0-9 7.2-16.2 16-16.2 8.4 0 15.3 7 15.3 15.5 0 8.1-6.5 14.8-14.6 14.8-.4 0-.8-.4-.8-.8 0-.5.4-.8.8-.8 7.2 0 13-5.9 13-13.1 0-7.6-6.2-13.9-13.7-13.9-8 0-14.4 6.6-14.4 14.6 0 8.5 6.8 15.4 15.2 15.4 8.8 0 16-7.3 16-16.2 0-9.4-7.6-17.1-16.9-17.1-9.8 0-17.8 8.1-17.8 18 0 10.4 8.4 18.9 18.7 18.9 10.9 0 19.7-8.9 19.7-20 0-11.6-9.3-21-20.8-21-12 0-21.9 9.9-21.9 22.1 0 12.9 10.3 23.3 23 23.3.4 0 .8.4.8.8.1.5-.3.8-.7.8z" fill="#00572c" stroke="#fff" stroke-miterlimit="10" stroke-width=".389"/><path d="m54.6 53.3c.1-.1.1-.2 0-.2l-.5-.5c0-.1-.1-.1-.2 0l-.1.1c-.1.1-.1.1-.1.1s0-.1-.1-.2l-.2-.2s-.2 0-.3 0h-6.1c-.1 0-.2 0-.2-.1s0-.2 0-.2c0-.1-.3-.1-.3-.1h-7.2c-.1 0-.1 0-.1 0s0-.1 0-.2-.2-.1-.3-.1h-.2c-.1 0-.2 0-.2.1-.1 0-.1.2-.1.3v2.3c0 .1 0 .2.1.3s.2.1.3.1h.2c.1 0 .2 0 .2-.1.1 0 .1-.2.1-.2h.1 7.2.3c.1 0 .1-.2.1-.3s.1-.1.1-.1h6.1.3l.3-.2c0-.1.1-.1.1-.1s0 0 .1.1l.1.1h.2z"/><path d="m40.1 52.1h.8v2.1h-.9zm3.9 0h.8v2.1h-.8z" fill="#fff"/><path d="m.1 42c-.1 0-.1.1 0 .2l.5.5c.1.1.1.1.2 0l.1-.1c.1-.1.1-.1.1-.1s0 .1.1.2l.3.2h.3 6.2c.1 0 .1 0 .1.1s0 .2.1.2.2.1.3.1h7.2.1s0 .1.1.2c0 0 .2.1.3.1h.2.2c.1 0 .1-.2.1-.3v-2.3c0-.1 0-.2 0-.3s-.2-.1-.3-.1h-.3c-.1 0-.2 0-.3 0s-.1.2-.1.2-.1 0-.1 0h-7.2c-.1 0-.2 0-.3.1s-.1.2-.1.3-.1.1-.1.1h-6.2c-.1 0-.2 0-.3 0l-.3.2v.2s0 0-.1-.1l-.1-.1c-.1-.1-.1-.1-.2 0z"/><path d="m13.9 41h.8v2.1h-.8zm-4 0h.8v2.1h-.8z" fill="#fff"/><path d="m33.2 41.5h5.5v1.2h-5.5z" fill="#00572c"/></svg>