<svg height="60" viewBox="0 0 60 60" width="60" xmlns="http://www.w3.org/2000/svg"><path d="m44.8 8.7h-35.8v49.8h3.2v.8c0 .3.3.6.6.6h3.1c.3 0 .6-.3.6-.6v-.8h21.2v.2.8c0 .3.3.6.6.6h3.1c.3 0 .6-.3.6-.6v-.8-.2h3.2v-49.8z" fill="#231f20"/><path d="m51.1 49-6.3 9.5v-49.8l6.3-8.3z" fill="#231f20"/><path d="m44.6 58.8v-50.2l6.6-8.6v49.1zm.3-50v49.3l6-9.1v-48.3s-6 8.1-6 8.1z" fill="#fff"/><path d="m44.8 8.5h-35.8l8.4-8.1h33.6z" fill="#231f20"/><g fill="#fff"><path d="m44.8 8.6h-36.1l8.7-8.4h33.9zm-35.5-.3h35.4l5.9-7.8h-33.1z"/><circle cx="11.6" cy="10.4" r=".7"/><circle cx="19.3" cy="10.4" r=".7"/><circle cx="26.9" cy="10.4" r=".7"/><circle cx="34.6" cy="10.4" r=".7"/><circle cx="42.3" cy="10.4" r=".7"/><circle cx="11.5" cy="56.6" r=".7"/><circle cx="19.2" cy="56.6" r=".7"/><circle cx="26.9" cy="56.6" r=".7"/><circle cx="34.6" cy="56.6" r=".7"/><circle cx="42.3" cy="56.6" r=".7"/><circle cx="42.3" cy="48.6" r=".7"/><circle cx="42.3" cy="40.7" r=".7"/><circle cx="42.3" cy="32.8" r=".7"/><circle cx="42.3" cy="24.8" r=".7"/><circle cx="42.3" cy="16.9" r=".7"/><circle cx="11.6" cy="48.9" r=".7"/><circle cx="11.6" cy="41.2" r=".7"/><circle cx="11.6" cy="33.5" r=".7"/><circle cx="11.6" cy="25.8" r=".7"/><circle cx="11.6" cy="18.1" r=".7"/></g></svg>