<svg enable-background="new 0 0 60 60" height="60" viewBox="0 0 60 60" width="60" xmlns="http://www.w3.org/2000/svg"><path d="m28.4 4.1c.3 0 .5-.2.5-.5s-.2-.5-.5-.5-.5.2-.5.5.2.5.5.5zm2.9 1.6c0 .3.2.5.5.5s.5-.2.5-.5-.2-.5-.5-.5-.5.2-.5.5zm.3-1.6c.3 0 .5-.2.5-.5s-.3-.5-.6-.5-.5.2-.5.5.3.5.6.5zm7.5 44.7c-.5-1.4-.5-3 .7-4-.1 0-.2 0-.3 0-.8 0-2.1-.3-3-2.8-1.2-3.4 2.1-3.7 2.1-3.7-1.1-.8-1.3-2.2-1.2-3.4s1.5-3.4 1.2-4.6c-.4-1.6-.7-2-2.2-2.6-.8-.4-3.9-.6-4.8-.8-.1 0-.2 0-.3 0l-.2-18.7-.3-6.9c.2-.1.4-.3.4-.7s-.2-.6-.4-.6h-1.3c-.3 0-.5.3-.5.6s.2.6.4.6l-.4 6.9-.2 18.7c-1 .1-4.1.4-5.1.8-1.5.7-1.8 1-2.2 2.6-.3 1.2 1.1 3.4 1.2 4.6s-.1 2.6-1.2 3.4c0 0 3.4.3 2.1 3.7-1 2.6-2.5 2.8-3.1 2.8-.1 0-.1 0-.2 0 1.1 1 1.1 2.6.6 4s-1.2 2.8-1.1 4.2c.1 1.9 1 3.5 3.4 4.3 1.3.5 2.8.7 4.2.9.6.1 1.3.1 2.1.2-.1-1.3-.5-8.9-2.2-12.5h5.4c-1.6 3.7-2.1 11.3-2.2 12.5 2.2 0 4.5-.4 6.3-1 2.3-.8 3.2-2.3 3.4-4.2.2-1.5-.6-2.9-1.1-4.3zm-12.5-9.4c0-.1.1-.2.2-.2h.2.1s.1 0 .1.1h.1s0-.1 0-.2-.1-.1-.2-.2c-.3 0-.7 0-.9.2s-.4.4-.5.8c-.1.3 0 .6.1 1 .1.3.2.5.4.8.2.4.4.8.5 1.2s0 .8-.1 1.2c-.1.2-.2.4-.4.5-.1.1-.4.3-.7.4 0 0-.1 0-.2 0s-.1 0-.2 0-.3-.1-.4-.2c-.2-.2-.3-.6-.1-.8.1-.1.3-.2.5-.2s.4.1.4.2-.1.2-.1.2c0 .1.1.1.2.1s.3-.1.4-.2c.2-.2.4-.5.4-.8.1-.4-.1-.8-.2-1.1-.1-.2-.1-.3-.2-.5-.1-.3-.3-.6-.4-.9-.2-.5-.2-1.1 0-1.5.1-.2.3-.5.5-.6.2-.2.4-.3.7-.3.2-.1.5-.1.7 0 .1 0 .3.1.4.2s.2.2.3.4c.1.3.1.6-.1.8-.1.1-.1.1-.2.2s-.2.1-.3.1c-.2 0-.4 0-.5-.1-.5-.1-.6-.4-.5-.6zm5.9 4.2h-5.1c-.1 0-.2-.1-.2-.2s.1-.2.2-.2h5.1c.1 0 .2.1.2.2s0 .2-.2.2zm3 1.2c-.1.1-.2.2-.4.2-.1 0-.1 0-.2 0s-.1 0-.2 0c-.3-.1-.6-.2-.7-.4-.2-.2-.3-.3-.4-.5-.1-.4-.2-.8-.1-1.2s.3-.8.5-1.2c.1-.3.2-.5.3-.8s.1-.7.1-1c-.1-.3-.2-.6-.5-.8-.2-.2-.6-.2-.9-.2-.1 0-.2.1-.3.1v.2h.1.1s0 0 .1 0 .1-.1.2 0 .1.1.2.2c.1.2-.1.4-.3.5s-.4.1-.5.1-.2 0-.3-.1-.1-.1-.2-.2c-.1-.2-.1-.4 0-.7 0-.1.1-.3.3-.4.1-.1.2-.2.4-.2h.7c.3.1.5.2.8.3s.4.3.5.6c.2.5.2 1 .1 1.5-.1.3-.2.6-.3.9-.1.2-.2.3-.2.5-.3.4-.4.8-.4 1.2 0 .3.2.6.4.8.1.1.3.2.4.2 0 0 .2 0 .2-.1s-.1-.1-.1-.2c0-.2.2-.3.4-.3s.3.1.5.2c.1.2 0 .6-.3.8zm-7.3-38.6c.3 0 .5-.2.5-.5s-.2-.5-.5-.5-.5.2-.5.5.2.5.5.5zm1.5 53.1.3.7.3-.7v-1h-.6zm-4.3-58.1c-.1 0-.2.1-.2.2v.1h-1c-.2 0-.3.2-.3.4s.2.3.4.3h.1l1 19.2h-.1c-.2 0-.4.2-.4.4l.1 1.8c0 .2.2.4.4.4h.9l.1 1c0 .1.1.2.3.2.1 0 .2-.1.2-.3l-1.2-23.4c0-.2-.2-.3-.3-.3zm.8 20.3h-.7l-1-19.2h.7z" fill="#af8424"/></svg>