<svg height="60" width="60" xmlns="http://www.w3.org/2000/svg"><path d="m28.4 4.1c.3 0 .54-.23.54-.5s-.24-.5-.54-.5-.55.22-.55.5.25.5.55.5zm2.9 1.58c0 .27.23.5.53.5s.54-.23.54-.5-.24-.5-.54-.5-.54.23-.54.5zm.35-1.6c.3 0 .54-.2.54-.48s-.26-.5-.56-.5-.54.22-.54.5.25.5.55.5zm7.43 44.73c-.45-1.37-.5-3 .66-3.95-.1 0-.18 0-.26 0-.78-.02-2.14-.3-3-2.8-1.16-3.4 2.07-3.7 2.07-3.7-1.1-.8-1.28-2.2-1.17-3.4.1-1.2 1.52-3.4 1.22-4.6-.4-1.63-.72-1.95-2.22-2.65-.85-.4-3.92-.6-4.8-.77-.1-.02-.2-.03-.3-.05l-.23-18.73-.32-6.86c.2-.07.38-.34.38-.66 0-.36-.2-.65-.44-.65h-1.3c-.26 0-.46.3-.46.64 0 .32.16.6.38.64l-.33 6.85-.24 18.7c-.97.14-4.14.4-5.07.84-1.5.7-1.82 1-2.22 2.64-.3 1.2 1.13 3.4 1.24 4.6.1 1.2-.08 2.6-1.18 3.4 0 0 3.43.35 2.1 3.7-1 2.56-2.47 2.8-3.12 2.8-.06 0-.1 0-.16 0 1.15.96 1.1 2.58.65 3.98s-1.24 2.8-1.14 4.2c.13 1.9 1.02 3.45 3.35 4.26 1.33.46 2.8.7 4.25.9.64.08 1.34.13 2.06.15-.07-1.27-.55-8.9-2.18-12.55h5.45c-1.64 3.65-2.1 11.28-2.18 12.55 2.18-.03 4.46-.38 6.3-1.04 2.33-.82 3.24-2.35 3.38-4.25.1-1.4-.7-2.8-1.15-4.2zm-12.48-9.41c.04-.13.12-.18.17-.2.07 0 .15 0 .2.04.02 0 .04.02.06.04.02 0 .03.03.05.03.03.04.07.05.1.06.08 0 .08 0 .12-.03.04-.04.05-.14 0-.2-.03-.1-.13-.14-.25-.16-.3-.04-.66.04-.92.22-.24.15-.43.43-.5.76-.06.3-.04.63.07.95.1.28.22.54.35.8.18.4.36.78.45 1.2.1.4.05.83-.1 1.2-.1.2-.22.4-.4.55-.13.12-.35.3-.7.36-.05 0-.1 0-.18 0-.06 0-.13 0-.2 0-.14-.03-.28-.1-.4-.2-.22-.2-.32-.56-.1-.84.13-.13.3-.2.45-.2.18 0 .4.08.4.25 0 .14-.1.2-.14.2 0 0-.02.03-.03.04-.02 0-.03.03-.03.05 0 .06.14.06.18.06.12 0 .27-.07.4-.17.22-.18.37-.46.4-.8.06-.4-.07-.8-.2-1.1-.06-.15-.13-.3-.2-.47-.13-.28-.26-.56-.36-.86-.2-.53-.16-1.07.05-1.53.13-.25.3-.45.5-.6s.44-.26.74-.34c.25-.08.5-.1.7-.04.15.03.3.1.4.18.13.1.22.22.27.36.1.27.06.56-.1.78-.07.06-.12.1-.2.16-.1.06-.18.1-.27.1-.18.04-.4 0-.54-.1-.2-.1-.32-.35-.27-.54zm5.95 4.23h-5.1c-.14 0-.25-.1-.25-.23s.1-.23.25-.23h5.1c.13 0 .25.1.25.23s-.12.23-.25.23zm3 1.17c-.1.1-.25.16-.4.2-.06 0-.13 0-.2 0-.06 0-.12 0-.18 0-.34-.07-.56-.24-.7-.36-.17-.15-.3-.34-.4-.55-.14-.4-.18-.8-.1-1.2.1-.44.28-.83.46-1.2.13-.28.25-.54.34-.8.1-.34.14-.67.07-.97-.07-.32-.25-.6-.5-.77s-.6-.25-.9-.2c-.13 0-.24.06-.27.13-.04.07-.03.17 0 .2.05.04.05.04.12.04.02 0 .06-.02.1-.04 0 0 .02 0 .04-.02s.04-.03.06-.04c.06-.05.14-.06.2-.04s.14.07.18.2c.06.2-.06.44-.26.55-.15.1-.36.13-.54.1-.1-.02-.2-.05-.28-.1-.08-.06-.13-.1-.2-.17-.16-.23-.2-.5-.1-.78.05-.14.14-.27.27-.36.1-.1.25-.15.4-.18.22-.05.45-.04.7.03.3.06.55.17.75.32s.37.35.5.6c.2.45.24 1 .06 1.53-.1.3-.22.58-.34.86-.08.17-.15.33-.22.5-.12.3-.26.7-.2 1.1.04.32.18.6.4.77.13.1.3.16.4.17.04 0 .17 0 .18-.07 0-.02 0-.04-.02-.05 0 0-.03-.02-.04-.03-.05-.03-.14-.1-.13-.2.03-.18.24-.27.4-.27s.34.08.45.2c.24.3.14.66-.1.86zm-7.35-38.63c.3 0 .54-.22.54-.5 0-.26-.25-.48-.55-.48s-.54.2-.54.47.25.5.54.5zm1.46 53.1.34.73.3-.72v-1h-.62v1zm-4.24-58.04c-.14 0-.24.12-.23.25v.1l-.95.04c-.2 0-.34.17-.33.36 0 .18.18.33.36.32h.14l.95 19.2h-.1c-.2.02-.4.22-.38.44l.1 1.8c0 .23.2.4.4.4l.88-.05.06 1.04c0 .14.12.24.26.24.13-.02.23-.14.22-.27l-1.13-23.63c0-.13-.12-.24-.25-.23zm.76 20.24-.72.04-.95-19.2.74-.03.95 19.2z"/></svg>