<svg height="60" width="60" xmlns="http://www.w3.org/2000/svg"><path d="m49.98 53.62c0-9.34 0-18.68 0-28.02 0-2.42 0-4.84 0-7.25 0-1.4.13-2.83-.38-4.17-.78-2.04-2.45-2.72-4.3-2.95v-9.8c0-.9-.74-1.66-1.66-1.66h-27.28c-.93 0-1.67.75-1.67 1.68v9.7c-4.97.32-4.7 5.34-4.7 9.08v33.4c-1.14.47-1.94 1.6-1.94 2.93 0 1.78 1.43 3.2 3.2 3.2s3.2-1.42 3.2-3.2c0-1.32-.8-2.46-1.94-2.94 0-9.34 0-18.68 0-28.02 0-2.42 0-4.84 0-7.25 0-1.74-.35-3.82 1.7-4.6.14-.06.3-.1.46-.1v7.1c0 .92.74 1.67 1.66 1.67h27.28c.93 0 1.68-.75 1.68-1.68v-7.07c1.95.27 2.16 2.07 2.16 3.76v6.43 29.76c-1.15.48-1.96 1.62-1.96 2.95 0 1.77 1.44 3.2 3.2 3.2 1.78 0 3.22-1.43 3.22-3.2 0-1.33-.8-2.47-1.96-2.95z"/></svg>