<svg enable-background="new 0 0 60 60" height="60" viewBox="0 0 60 60" width="60" xmlns="http://www.w3.org/2000/svg"><path d="m50 53.6c0-9.3 0-18.7 0-28 0-2.4 0-4.8 0-7.2 0-1.4.1-2.8-.4-4.2-.8-2-2.5-2.7-4.3-2.9v-9.9c0-.9-.7-1.7-1.7-1.7h-27.2c-.9 0-1.7.8-1.7 1.7v9.7c-5 .3-4.7 5.3-4.7 9.1v33.4c-1.1.5-1.9 1.6-1.9 2.9 0 1.8 1.4 3.2 3.2 3.2s3.2-1.4 3.2-3.2c0-1.3-.8-2.5-1.9-2.9 0-9.3 0-18.7 0-28 0-2.4 0-4.8 0-7.2 0-1.7-.4-3.8 1.7-4.6.1-.1.3-.1.5-.1v7.1c0 .9.7 1.7 1.7 1.7h27.3c.9 0 1.7-.8 1.7-1.7v-7.1c2 .3 2.2 2.1 2.2 3.8v6.4 29.8c-1.2.5-2 1.6-2 3 0 1.8 1.4 3.2 3.2 3.2s3.2-1.4 3.2-3.2c-.2-1.5-1-2.6-2.1-3.1z" fill="#ff5a00"/></svg>