<svg xmlns="http://www.w3.org/2000/svg" width="60" height="60"><path d="M41.6 57.7l-4.82-39.46c0-.02-.02-.24-.02-.24h1c1.56 0 3.24-.54 3.24-1.63v-.14c0-1.08-1.68-1.23-3.23-1.23H23.8L21.94.55c-.06-.48-.5-.86-.98-.8-.48.06-.82.57-.76 1.05L22 15h-.86c-1.56 0-3.15.15-3.15 1.23v.15c0 1.08 1.6 1.62 3.14 1.62h1.57s0 .22 0 .24l-4.83 39.4c-.12.95.57 1.87 1.53 2 .08 0 .16.02.23.02.87 0 1.63-.54 1.74-1.43L22.52 49h14.44l1.15 9.24c.13.9.9 1.5 1.76 1.5.07 0 .14-.04.22-.05.96-.14 1.65-1.04 1.53-2zM22.8 46l3.4-27.55c0-.18 0-.45-.03-.45h7.14s-.02.27 0 .45L36.68 46H22.8z"/></svg>