<svg height="60" width="60" xmlns="http://www.w3.org/2000/svg"><path d="m58.23 7.48-7.57-7.2c-.24-.23-.62-.22-.85.02-.2.24-.2.62.04.85l.63.6c-.58 2.12-1.87 4.64-4.5 7.4l-.4.43c-.18-.1-.4-.2-.68-.24-.77-.08-1.6.34-2.48 1.27l-16.42 17.25c0 .02-.37.36-.37.94 0 .47.27.97.77 1.47l-.6.65c-.5-.47-1.35-.4-1.88.16s-.57 1.4-.07 1.9h.03l-1.52 1.66c-.02 0-.02-.02-.04-.03-.35-.34-.92-.32-1.27.05-.34.37-.34.94 0 1.27.03.03.05.04.07.06l-1.2 1.28c0-.03-.03-.05-.05-.08-.35-.33-.92-.3-1.27.06-.34.37-.34.94 0 1.27.04.03.07.05.1.07l-1.2 1.3c0-.05-.04-.08-.08-.12-.35-.33-.92-.3-1.27.06-.35.38-.34.95 0 1.28.05.04.1.07.14.1l-7.84 8.39-6.6 6.94-.3 3.34 8.36-8.78 4.95-4.86c.36.15 1.02.2 1.82-.65l15.44-15.27c.03-.04.67-.72.52-1.58l16.68-16.4s3.12-3.43 7.42-4.6l.64.6c.25.22.63.2.86-.03.22-.24.2-.62-.03-.85zm-31.6 20.75c-.3.3-.43.67-.43 1.02-.08-.16-.13-.32-.13-.47 0-.38.23-.6.24-.62l16.44-17.26c.76-.8 1.5-1.2 2.1-1.13.17.02.3.08.43.14l-.68.77c-.03-.03-.05-.07-.07-.1-.3-.3-1.12.05-1.8.77-.68.7-.98 1.53-.67 1.83.04.03.1.06.14.08l-1.24 1.32c-.02-.06-.05-.12-.1-.16-.3-.3-1.1.06-1.8.77-.67.72-1 1.6-.7 1.9.05.05.1.08.2.1l-1.17 1.25c-.03 0-.04-.02-.06-.03-.3-.3-1.12.03-1.8.74-.68.72-1 1.56-.68 1.86.02.02.05.04.08.06l-1.18 1.27c-.5-.36-1.26-.27-1.76.26s-.55 1.3-.13 1.8l-.75.8c-.5-.4-1.3-.3-1.8.22-.53.54-.57 1.35-.1 1.83l-.76.8c-.5-.43-1.32-.35-1.84.2zm5.2 1.8-15.43 15.27c-.5.5-.9.6-1.16.6l17-16.72c-.06.48-.38.83-.4.85z"/></svg>