<svg enable-background="new 0 0 60 60" height="60" viewBox="0 0 60 60" width="60" xmlns="http://www.w3.org/2000/svg"><path d="m58.2 7.5-7.6-7.2c-.2-.2-.6-.2-.8 0s-.2.6 0 .9l.6.6c-.6 2.1-1.9 4.6-4.5 7.4l-.4.4c-.2-.1-.4-.2-.7-.2-.8-.1-1.6.3-2.5 1.3l-16.3 17.2s-.4.4-.4.9.3 1 .8 1.5l-.6.6c-.5-.5-1.4-.4-1.9.2s-.6 1.4-.1 1.9l-1.5 1.7c-.4-.3-.9-.3-1.3 0-.3.4-.3.9 0 1.3 0 0 0 0 .1.1l-1.2 1.3s0 0 0-.1c-.4-.3-.9-.3-1.3.1-.3.4-.3.9 0 1.3 0 0 .1 0 .1.1l-1.2 1.3s0-.1-.1-.1c-.4-.3-.9-.3-1.3.1s-.3 1 0 1.3c0 0 .1.1.1.1l-7.8 8.4-6.6 6.9-.3 3.3 8.4-8.8 4.9-4.9c.4.2 1 .2 1.8-.7l15.4-15.3s.7-.7.5-1.6l16.7-16.4s3.1-3.4 7.4-4.6l.6.6c.2.2.6.2.9 0 .4-.3.3-.7.1-.9zm-31.6 20.7c-.3.3-.4.7-.4 1-.1-.2-.1-.3-.1-.5 0-.4.2-.6.2-.6l16.4-17.3c.8-.8 1.5-1.2 2.1-1.1.2 0 .3.1.4.1l-.7.8s0-.1-.1-.1c-.3-.3-1.1.1-1.8.8s-1 1.5-.7 1.8c0 0 .1.1.1.1l-1 1.4c0-.1 0-.1-.1-.2-.3-.3-1.1.1-1.8.8s-1 1.6-.7 1.9c0 0 .1.1.2.1l-1.2 1.2s0 0-.1 0c-.3-.3-1.1 0-1.8.7s-1 1.6-.7 1.9c0 0 0 0 .1.1l-1.2 1.3c-.5-.4-1.3-.3-1.8.3s-.5 1.3-.1 1.8l-.8.8c-.5-.4-1.3-.3-1.8.2s-.6 1.4-.1 1.8l-.6.7c-.5-.4-1.4-.3-1.9.2zm5.2 1.8-15.4 15.3c-.5.5-.9.6-1.2.6l17-16.7c0 .5-.3.8-.4.8z" fill="#781d77"/></svg>