<svg height="60" width="60" xmlns="http://www.w3.org/2000/svg"><g stroke="#fff" stroke-linecap="round" stroke-linejoin="round" stroke-miterlimit="10"><path d="m28.64 44.44c1.25-1.25 3.84-1.58 6.1-3.82 2.7-2.72 3.4-7.46-2.26-13.1-5.64-5.65-10.38-4.96-13.1-2.25-2.24 2.25-2.57 4.84-3.82 6.1-2.42 2.4-8.26 1.34-12.85 5.93-6.3 6.3-.02 14 3 17.02 3 3 10.7 9.27 17 2.97 4.6-4.6 3.53-10.45 5.95-12.87z" stroke-width=".584"/><path d="m50.3 5.6 4.1 4.1-.55.55-4.1-4.1zm-.63.63c-.1.1-.23.1-.3 0l-.78-.46c-.1-.08-.1-.22-.03-.3l.97-.98c.1-.1.23-.1.3 0l.55.7c.1.06.1.2 0 .3l-.74.72zm2.3-2.3 4.1 4.1-.55.54-4.1-4.1.56-.55zm-.6.6c-.1.1-.22.1-.3 0l-.77-.47c-.1-.08-.1-.22 0-.3l.96-.98c.1-.08.23-.08.3 0l.55.7c.1.08.1.22 0 .3l-.7.74h-.02zm4.83 3.43c.1-.1.23-.1.3 0l.77.47c.1.08.1.22 0 .3l-.97.97c-.1.08-.23.08-.3 0l-.54-.7c-.1-.1-.1-.23 0-.3l.73-.74zm-2.64-5.58 4.1 4.1-.56.55-4.1-4.1zm-.6.6c-.1.1-.23.1-.3 0l-.78-.46c-.1-.08-.1-.22 0-.3l.96-.98c.1-.07.23-.07.3 0l.55.7c.1.1.1.23 0 .3zm4.8 3.44c.12-.1.24-.1.3 0l.8.47c.1.07.1.2 0 .3l-.98.96c-.1.08-.23.08-.3 0l-.54-.7c-.1-.08-.1-.22 0-.3l.72-.74zm-3.26 3.23c.1-.1.23-.1.3 0l.78.47c.1.08.1.22 0 .3l-.97.97c-.1.07-.22.07-.3 0l-.54-.7c-.1-.1-.1-.23 0-.3l.73-.75z" fill="#1d1d1b" stroke-width=".053"/><path d="m51.7 11.3-3-3-25.16 24.65 3.5 3.5z" stroke-width=".051"/><circle cx="24.095" cy="35.904" fill="#fff" r="3.35" stroke-width=".053"/><path d="m18.38 51.72c-.13.13-.34.13-.47 0l-9.61-9.62c-.13-.14-.13-.35 0-.48l1.17-1.17c.13-.13.34-.13.47 0l9.63 9.63c.13.13.13.34 0 .47l-1.17 1.17z" fill="#1d1d1b" stroke-width=".146"/><path d="m15.32 49.13-4.45-4.45 1.64-1.64 4.47 4.45-1.65 1.63z" fill="#fff" stroke-width=".08"/><g fill="#1d1d1b" stroke-width=".047"><circle cx="11.938" cy="44.856" r=".294"/><circle cx="12.579" cy="45.498" r=".295"/><circle cx="13.22" cy="46.139" r=".295"/><circle cx="13.861" cy="46.78" r=".294"/><circle cx="14.502" cy="47.422" r=".294"/><circle cx="15.143" cy="48.062" r=".295"/></g><path d="m59.6 2.03c0-.65-.12-1.07-.34-1.3-.22-.2-.64-.34-1.3-.34-.4-.8-2.4-.18-2.4-.18s-5.66 6.1-6.46 6.9c.1.45-.4 1.17-.4 1.17l1.5 1.5 1.5 1.5s.7-.5 1.17-.4c.8-.8 6.9-6.46 6.9-6.46s.6-2.02-.16-2.42zm-8.18 5.6c-.28.28-.73.28-1 0-.3-.28-.3-.73-.02-1.02l4-4c.3-.26.75-.26 1.03 0 .28.3.28.75 0 1.03l-4 4zm5.98-2.03-4.02 4c-.27.28-.73.28-1 0-.3-.28-.3-.74 0-1.02l4-4c.28-.3.73-.3 1 0 .3.27.3.73 0 1z" stroke-width=".053"/><path d="m11.94 44.86 37.14-36.2m-36.5 36.84 36.95-36.38m-36.3 37.02 36.72-36.54m-36.1 37.18 36.57-36.76m-35.92 37.4 36.38-36.95m-35.74 37.6 36.2-37.15" fill="#1d1d1b" stroke-width=".173"/><circle cx="24.095" cy="35.904" fill="none" r="5.043" stroke-width=".146"/></g></svg>