<svg enable-background="new 0 0 60 60" height="60" viewBox="0 0 60 60" width="60" xmlns="http://www.w3.org/2000/svg"><g stroke="#fff" stroke-linecap="round" stroke-linejoin="round" stroke-miterlimit="10"><g fill="#c12127"><path d="m28.6 44.4c1.2-1.2 3.8-1.6 6.1-3.8 2.7-2.7 3.4-7.5-2.3-13.1-5.6-5.6-10.4-5-13.1-2.2-2.2 2.2-2.6 4.8-3.8 6.1-2.4 2.4-8.3 1.3-12.9 5.9-6.3 6.3 0 14 3 17s10.7 9.3 17 3c4.7-4.6 3.6-10.5 6-12.9z" stroke-width=".584"/><path d="m50.3 5.6 4.1 4.1-.5.6-4.1-4.1zm-.6.6c-.1.1-.2.1-.3 0l-.8-.5c-.1-.1-.1-.2 0-.3l1-1c.1-.1.2-.1.3 0l.5.7c.1.1.1.2 0 .3zm2.3-2.3 4.1 4.1-.5.5-4.1-4.1zm-.6.6c-.1.1-.2.1-.3 0l-.8-.5c-.1-.1-.1-.2 0-.3l1-1c.1-.1.2-.1.3 0l.5.7c.1.1.1.2 0 .3zm4.8 3.5c.1-.1.2-.1.3 0l.8.5c.1.1.1.2 0 .3l-1 1c-.1.1-.2.1-.3 0l-.5-.8c-.1-.1-.1-.2 0-.3zm-2.6-5.6 4.1 4.1-.6.5-4.1-4.1s.6-.5.6-.5zm-.6.6c-.1.1-.2.1-.3 0l-.8-.5c-.1-.1-.1-.2 0-.3l1-1c.1-.1.2-.1.3 0l.5.7c.1.1.1.2 0 .3zm4.8 3.4c.1-.1.2-.1.3 0l.8.5c.1.1.1.2 0 .3l-1 1c-.1.1-.2.1-.3 0l-.6-.8c-.1-.1-.1-.2 0-.3zm-3.3 3.2c.1-.1.2-.1.3 0l.8.5c.1.1.1.2 0 .3l-1 1c-.1.1-.2.1-.3 0l-.5-.7c-.1-.1-.1-.2 0-.3z" stroke-width=".053"/><path d="m51.7 11.3-3-3-25.2 24.7 3.5 3.5z" stroke-width=".051"/></g><circle cx="24.1" cy="35.9" fill="#fff" r="3.3" stroke-width=".053"/><path d="m18.4 51.7c-.1.1-.3.1-.5 0l-9.6-9.6c-.1-.1-.1-.3 0-.5l1.2-1.2c.1-.1.3-.1.5 0l9.6 9.6c.1.1.1.3 0 .5z" fill="#c12127" stroke-width=".146"/><path d="m15.3 49.1-4.4-4.5 1.6-1.6 4.5 4.5z" fill="#fff" stroke-width=".08"/><g fill="#1d1d1b" stroke-width=".047"><circle cx="11.9" cy="44.9" r=".3"/><circle cx="12.6" cy="45.5" r=".3"/><circle cx="13.2" cy="46.1" r=".3"/><circle cx="13.9" cy="46.8" r=".3"/><circle cx="14.5" cy="47.4" r=".3"/><circle cx="15.1" cy="48.1" r=".3"/></g><path d="m59.6 2c0-.6-.1-1.1-.3-1.3-.3-.2-.7-.3-1.3-.3-.4-.8-2.4-.2-2.4-.2s-5.7 6.1-6.5 6.9c.1.4-.4 1.2-.4 1.2l1.5 1.5 1.5 1.5s.7-.5 1.2-.4c.8-.8 6.9-6.5 6.9-6.5s.6-2-.2-2.4zm-8.2 5.6c-.3.3-.7.3-1 0s-.3-.7 0-1l4-4c.3-.3.8-.3 1 0 .3.3.3.8 0 1zm6-2-4 4c-.3.3-.7.3-1 0s-.3-.7 0-1l4-4c.3-.3.7-.3 1 0 .3.2.3.7 0 1z" fill="#c12127" stroke-width=".053"/><path d="m11.9 44.9 37.2-36.2m-36.5 36.8 36.9-36.4m-36.3 37 36.8-36.5m-36.1 37.2 36.5-36.8m-35.9 37.4 36.4-37m-35.8 37.7 36.2-37.2" fill="#1d1d1b" stroke-width=".173"/><circle cx="24.1" cy="35.9" fill="none" r="5" stroke-width=".146"/></g></svg>