<svg height="60" width="60" xmlns="http://www.w3.org/2000/svg"><g stroke-miterlimit="10"><path d="m7.93 56.18h-5.83v-3.08h5.83zm49.97 0h-5.83v-3.08h5.83z" fill="#1d1d1b" stroke="#1d1d1b" stroke-width=".153"/><g stroke="#fff"><path d="m.9 4.72h58.2v49.43h-58.2zm3.3 3.28v-4.17h-2.8c-.77 0-1.4.62-1.4 1.4v2.8h4.2zm51.6 0v-4.17h2.8c.77 0 1.4.62 1.4 1.4v2.8h-4.2zm-51.6 43v4.2h-2.8c-.77 0-1.4-.63-1.4-1.4v-2.8zm51.6 0v4.2h2.8c.77 0 1.4-.63 1.4-1.4v-2.8z" stroke-width=".25"/><path d="m4.2 6.43h51.6v46.02h-51.6z" fill="#1d1d1b" stroke-width=".25"/><circle cx="2.097" cy="5.914" fill="#1d1d1b" r=".933" stroke-width=".25"/><circle cx="57.904" cy="5.914" fill="#1d1d1b" r=".932" stroke-width=".25"/><circle cx="2.097" cy="53.101" fill="#1d1d1b" r=".933" stroke-width=".25"/><circle cx="57.904" cy="53.101" fill="#1d1d1b" r=".932" stroke-width=".25"/><path d="m4.2 6.43h51.6v8.34h-51.6z" fill="#fff" stroke-width=".25"/><path d="m4.2 14.77h51.6v37.68h-51.6z" stroke-width=".25"/><path d="m6.07 10.34-.97-1.66.98-1.68h1.92l.96 1.68-.96 1.66z" fill="#1d1d1b" stroke-width=".22"/></g></g><circle cx="7.034" cy="8.675" fill="#fff" r="1.244"/><circle cx="7.034" cy="8.675" fill="#1d1d1b" r=".956"/><path d="m6.07 14.2-.97-1.7.97-1.67h1.93l.96 1.67-.96 1.7z" fill="#1d1d1b" stroke="#fff" stroke-miterlimit="10" stroke-width=".22"/><circle cx="7.034" cy="12.521" fill="#fff" r="1.244"/><circle cx="7.034" cy="12.521" fill="#1d1d1b" r=".956"/><g stroke-miterlimit="10"><path d="m12.9 12.86h-2.1v-4.53h2.1z" fill="#1d1d1b" stroke="#fff" stroke-width=".222"/><g stroke-width=".153"><g fill="#fff" stroke="#1d1d1b"><circle cx="17.314" cy="8.675" r="1.564"/><circle cx="16.24" cy="8.13" r=".221"/><circle cx="21.45" cy="8.676" r="1.564"/><circle cx="21.696" cy="7.497" r=".222"/><circle cx="26.928" cy="8.675" r="1.564"/><circle cx="26.387" cy="7.6" r=".221"/><circle cx="31.064" cy="8.675" r="1.565"/><circle cx="31.064" cy="7.471" r=".221"/><circle cx="35.199" cy="8.675" r="1.565"/><circle cx="35.633" cy="7.552" r=".221"/><circle cx="39.334" cy="8.675" r="1.565"/><circle cx="39.334" cy="7.471" r=".221"/><circle cx="17.314" cy="12.52" r="1.564"/><circle cx="16.139" cy="12.78" r=".221"/><circle cx="21.45" cy="12.521" r="1.564"/><path d="m20.73 11.53c.1.08.1.22 0 .3-.08.1-.22.1-.3.02-.1-.1-.1-.23 0-.3.07-.1.2-.1.3-.02z"/><circle cx="26.928" cy="12.521" r="1.563"/><circle cx="26.928" cy="11.316" r=".221"/><circle cx="31.063" cy="12.521" r="1.564"/><circle cx="31.573" cy="11.43" r=".222"/><circle cx="35.2" cy="12.521" r="1.564"/><circle cx="35.199" cy="11.316" r=".222"/><circle cx="39.335" cy="12.521" r="1.563"/><path d="m38.75 11.45c.07.1.06.23-.04.3-.07.1-.2.07-.3-.02-.06-.1-.05-.24.05-.32.1-.05.23-.04.3.06z"/></g><path d="m44.04 7.28h1.75v1.74h-1.77zm5.24 0h1.75v1.74h-1.75zm-5.24 4.9h1.75v1.74h-1.77zm5.24 0h1.75v1.74h-1.75z" fill="#1d1d1b" stroke="#fff"/></g></g></svg>