<?xml version="1.0" encoding="utf-8"?>
<!-- Generator: Adobe Illustrator 22.1.0, SVG Export Plug-In . SVG Version: 6.00 Build 0)  -->
<svg version="1.1" id="Layer_1" xmlns="http://www.w3.org/2000/svg" xmlns:xlink="http://www.w3.org/1999/xlink" x="0px" y="0px"
	 width="60px" height="60px" viewBox="0 0 60 60" style="enable-background:new 0 0 60 60;" xml:space="preserve">
<style type="text/css">
	.st0{fill:#ff5a00;stroke:#ff5a00;stroke-width:0.153;stroke-miterlimit:10;}
	.st1{fill:#ff5a00;stroke:#FFFFFF;stroke-width:0.25;stroke-miterlimit:10;}
	.st2{fill:#1D1D1B;stroke:#FFFFFF;stroke-width:0.25;stroke-miterlimit:10;}
	.st3{fill:#FFFFFF;stroke:#FFFFFF;stroke-width:0.25;stroke-miterlimit:10;}
	.st4{fill:#1D1D1B;stroke:#FFFFFF;stroke-width:0.22;stroke-miterlimit:10;}
	.st5{fill:#FFFFFF;}
	.st6{fill:#1D1D1B;}
	.st7{fill:#ff5a00;stroke:#FFFFFF;stroke-width:0.222;stroke-miterlimit:10;}
	.st8{fill:#FFFFFF;stroke:#1D1D1B;stroke-width:0.153;stroke-miterlimit:10;}
	.st9{fill:#ff5a00;stroke:#FFFFFF;stroke-width:0.153;stroke-miterlimit:10;}
</style>
<path class="st0" d="M7.9,56.2H2.1v-3.1h5.8V56.2z M57.9,56.2h-5.8v-3.1h5.8V56.2z"/>
<path class="st1" d="M0.9,4.7h58.2v49.4H0.9V4.7z M4.2,8V3.8H1.4C0.6,3.8,0,4.4,0,5.2V8L4.2,8L4.2,8z M55.8,8V3.8h2.8
	c0.8,0,1.4,0.6,1.4,1.4V8L55.8,8L55.8,8z M4.2,51v4.2H1.4c-0.8,0-1.4-0.6-1.4-1.4V51H4.2z M55.8,51v4.2h2.8c0.8,0,1.4-0.6,1.4-1.4
	V51H55.8z"/>
<path class="st2" d="M4.2,6.4h51.6v46H4.2V6.4z"/>
<circle class="st1" cx="2.1" cy="5.9" r="0.9"/>
<circle class="st1" cx="57.9" cy="5.9" r="0.9"/>
<circle class="st1" cx="2.1" cy="53.1" r="0.9"/>
<circle class="st1" cx="57.9" cy="53.1" r="0.9"/>
<path class="st3" d="M4.2,6.4h51.6v8.3H4.2V6.4z"/>
<path class="st1" d="M4.2,14.8h51.6v37.7H4.2V14.8z"/>
<path class="st4" d="M6.1,10.3l-1-1.7l1-1.7H8l1,1.7l-1,1.7H6.1z"/>
<circle class="st5" cx="7" cy="8.7" r="1.2"/>
<circle class="st6" cx="7" cy="8.7" r="1"/>
<path class="st4" d="M6.1,14.2l-1-1.7l1-1.7H8l1,1.7l-1,1.7H6.1z"/>
<circle class="st5" cx="7" cy="12.5" r="1.2"/>
<circle class="st6" cx="7" cy="12.5" r="1"/>
<path class="st7" d="M12.9,12.9h-2.1V8.3h2.1V12.9z"/>
<circle class="st8" cx="17.3" cy="8.7" r="1.6"/>
<circle class="st8" cx="16.2" cy="8.1" r="0.2"/>
<circle class="st8" cx="21.5" cy="8.7" r="1.6"/>
<circle class="st8" cx="21.7" cy="7.5" r="0.2"/>
<circle class="st8" cx="26.9" cy="8.7" r="1.6"/>
<circle class="st8" cx="26.4" cy="7.6" r="0.2"/>
<circle class="st8" cx="31.1" cy="8.7" r="1.6"/>
<circle class="st8" cx="31.1" cy="7.5" r="0.2"/>
<circle class="st8" cx="35.2" cy="8.7" r="1.6"/>
<circle class="st8" cx="35.6" cy="7.6" r="0.2"/>
<circle class="st8" cx="39.3" cy="8.7" r="1.6"/>
<circle class="st8" cx="39.3" cy="7.5" r="0.2"/>
<circle class="st8" cx="17.3" cy="12.5" r="1.6"/>
<circle class="st8" cx="16.1" cy="12.8" r="0.2"/>
<circle class="st8" cx="21.5" cy="12.5" r="1.6"/>
<path class="st8" d="M20.7,11.5c0.1,0.1,0.1,0.2,0,0.3c-0.1,0.1-0.2,0.1-0.3,0c-0.1-0.1-0.1-0.2,0-0.3
	C20.5,11.4,20.6,11.4,20.7,11.5z"/>
<circle class="st8" cx="26.9" cy="12.5" r="1.6"/>
<circle class="st8" cx="26.9" cy="11.3" r="0.2"/>
<circle class="st8" cx="31.1" cy="12.5" r="1.6"/>
<circle class="st8" cx="31.6" cy="11.4" r="0.2"/>
<circle class="st8" cx="35.2" cy="12.5" r="1.6"/>
<circle class="st8" cx="35.2" cy="11.3" r="0.2"/>
<circle class="st8" cx="39.3" cy="12.5" r="1.6"/>
<path class="st8" d="M38.8,11.4c0.1,0.1,0.1,0.2,0,0.3c-0.1,0.1-0.2,0.1-0.3,0c-0.1-0.1,0-0.2,0-0.3C38.6,11.4,38.7,11.4,38.8,11.4
	L38.8,11.4z"/>
<path class="st9" d="M44,7.3h1.8V9H44L44,7.3z M49.3,7.3H51V9h-1.8V7.3z M44,12.2h1.8v1.7H44L44,12.2z M49.3,12.2H51v1.7h-1.8V12.2z
	"/>
</svg>
