<svg height="60" width="60" xmlns="http://www.w3.org/2000/svg"><path d="m57.97 6.5h-1.67v.6h-20.27l-4.1.03.05-.03h-6.9l.04.03-4.68-.02h-16.56v-.6h-1.9c-1.1 0-2 .9-2 2v44.86c0 1.1.9 2 2 2h1.9v-.7h52.42v.7h1.67c1.1 0 2-.9 2-2v-44.87c0-1.1-.9-2-2-2zm-56.05 2.3c-.28 0-.5-.23-.5-.5s.22-.5.5-.5c.27 0 .5.22.5.5s-.23.5-.5.5zm7.76 7.63h1.56l-5.3 5.15v-1.5zm-3.63 2.25c.3-1.04 1.14-1.85 2.2-2.14zm6.5-2.25h1.3l-7.92 7.7v-1.28l6.6-6.42zm2.6 0h1.56l-10.76 10.47v-1.5l9.22-8.97zm2.87 0h1.28l-13.37 12.97v-1.23l12.1-11.74zm2.6 0h1.55l-16.24 15.77v-1.52l14.67-14.25zm2.85 0h1.38l-18.92 18.37v-1.34zm2.68 0h1.56l-21.76 21.15v-1.52l20.22-19.63zm2.87 0h1.64l-24.73 24v-1.58l23.1-22.42zm2.94 0h1.57l-27.6 26.8v-1.53zm2.87 0h1.4l-30.3 29.4v-1.33zm2.7 0h1.56l-33.19 32.2v-1.53l31.6-30.67zm-31.6 33.47 34.47-33.48h1.13l-35.4 34.38c-.1-.28-.18-.6-.2-.9zm.65 1.73 36.23-35.2h1.58l-37 35.93c-.32-.2-.6-.44-.82-.73zm2.5 1.2c-.28.02-.55-.02-.8-.08l37.4-36.32h1.65l-37.48 36.4h-.75zm2.05.02 37.5-36.42h1.56l-37.5 36.4h-1.55zm2.87 0 37.5-36.4c.32 0 .63.1.93.2l-37.28 36.2zm2.46 0 36.78-35.72c.3.23.53.5.72.82l-35.94 34.9zm35.64-.12 2.18-2.12c-.3 1.05-1.13 1.85-2.18 2.14zm2.3-3.5-3.72 3.62h-1.56l5.3-5.14v1.54zm0-2.8-6.6 6.4h-.92l7.53-7.3v.9zm0-2.16-8.83 8.57h-1.57l10.4-10.1zm0-2.78-11.7 11.33h-.85l12.56-12.2v.85zm0-2.13-13.83 13.48h-1.57l15.43-14.97v1.5zm0-2.78-16.7 16.25h-1.36l18.1-17.56v1.32zm0-2.6-19.4 18.84h-1.55l20.98-20.32v1.5zm0-2.78-22.25 21.6h-1.13l23.4-22.7v1.1zm0-2.36-24.65 24h-1.55l26.24-25.5v1.53zm0-2.78-27.52 26.77h-1.58l29.13-28.28v1.53zm0-2.8-30.4 29.58h-1.57l32-31.06v1.52zm0-2.8-33.3 32.36h-1.77l35-34c.05.23.08.46.08.7v.97zm1.9-5.53h-52.4v-6.53h-.03v-.17h52.43v.16h.02v6.56zm1.8-6.45c-.26 0-.5-.22-.5-.5 0-.27.24-.5.5-.5.3 0 .5.23.5.5 0 .28-.2.5-.5.5zm-48.66 1.25.04.1-.02.33c.17 0 .35.03.5.1.48.27.66.87.4 1.34-.25.48-.84.66-1.32.4-.48-.25-.66-.84-.4-1.32.1-.2.28-.35.47-.43l-.07-.4v-.02c-.34.12-.66.3-.94.55-.13.78.12 1.6.65 2.18.78.12 1.6-.13 2.18-.66.12-.78-.13-1.6-.66-2.18-.27-.04-.55-.03-.82 0zm.38.35h-.05l.1-.26zm-1.43.26.25.17-.02.05-.28-.16.03-.05zm-.2.5.23.07v.06l-.24-.06v-.06zm-.03.44h.23v.03l-.22.04v-.05zm.13.5v-.05l.23-.1.02.04-.24.1zm.3.34-.03-.03.13-.15.03.03-.13.12zm.36.26-.05-.02.14-.22.04.02-.1.22zm.47.13v-.24h.04v.26h-.04zm1-.33-.22-.22.05-.04.23.24-.03.03zm.28-.46-.2-.1.04-.04.2.1-.02.05zm.15-.4-.23-.04.02-.05.23.04v.05zm-.02-.48-.25.07v-.06l.24-.05.02.03zm-.23-.43.02.03-.15.1-.03-.03.15-.1zm-.26-.3-.16.2-.03-.04.15-.2.04.03zm-1.08-.8-.23.53c.13-.04.27-.08.4-.1zm43.3.96.04.1v.34c.16 0 .33.02.5.1.47.26.65.86.4 1.34-.26.47-.86.65-1.34.4-.47-.26-.65-.85-.4-1.33.1-.2.28-.33.48-.4l-.1-.4.02-.03c-.35.12-.68.3-.95.55-.1.8.15 1.6.68 2.2.78.1 1.6-.14 2.18-.67.1-.78-.13-1.6-.66-2.18-.3-.04-.56-.03-.84 0zm.38.35h-.04l.1-.24-.06.26zm-1.42.28.27.17-.04.04-.28-.18.02-.03zm-.18.5.23.07-.02.04-.22-.07v-.05zm-.04.44h.23v.04l-.23.02v-.05zm.14.5-.02-.04.23-.1.02.04zm.3.35-.04-.04.13-.1.03.02-.13.13zm.34.26h-.04l.1-.23.05.02-.13.2zm.48.14v-.26h.04v.27h-.05zm1-.35-.23-.23.03-.05.24.23-.03.03zm.28-.47-.2-.1v-.05l.22.1zm.13-.42-.23-.02v-.04l.24.03v.04zm-.03-.46-.25.06-.03-.05.25-.05v.04zm-.22-.44.02.04-.15.1-.04-.04.15-.1zm-.25-.3-.16.2-.02-.03.16-.2.04.03zm-1.1-.8-.2.53c.12-.04.26-.07.4-.1l-.2-.42zm-6.67.67.03.1v.34c.16 0 .33.03.5.12.47.25.65.85.4 1.32-.26.48-.86.66-1.34.4-.5-.25-.67-.84-.4-1.32.1-.2.26-.35.46-.44l-.1-.38.02-.03c-.36.14-.7.3-.96.57-.12.78.13 1.6.66 2.18.78.12 1.6-.13 2.18-.66.12-.8-.13-1.6-.66-2.2-.28-.03-.55-.03-.83 0zm.38.35h-.05l.1-.25zm-1.43.27.27.17h-.02l-.28-.16.03-.04zm-.18.5.23.07v.02l-.24-.07v-.04zm-.04.44h.23v.03h-.22v-.05zm.14.5-.02-.05.23-.1.02.06-.23.1zm.3.34-.04-.04.13-.12.03.03-.15.13zm.34.26-.02-.02.1-.22.05.02-.1.22zm.5.13v-.31h.04v.26h-.04zm1-.37-.23-.22.03-.03.23.22zm.28-.46-.2-.1v-.06l.22.13-.03.04zm.13-.42-.22-.06.24.03v.06zm-.02-.47-.25.05v-.05l.24-.05v.04zm-.22-.45.02.04-.15.1-.02-.05.16-.1zm-.25-.3-.15.2-.04-.04.17-.2.04.04zm-1.08-.75-.23.53c.1-.02.25-.06.4-.1l-.2-.4zm-5.42.3.03.08v.35c.16 0 .33.05.5.13.47.26.65.85.4 1.33-.26.48-.86.66-1.33.4-.48-.25-.66-.85-.4-1.33.1-.2.27-.34.47-.43l-.1-.4.02-.02c-.37.1-.7.3-.97.55-.12.78.13 1.6.66 2.18.77.13 1.6-.1 2.17-.64.12-.78-.13-1.6-.66-2.18-.26-.04-.54-.04-.8 0zm.38.34h-.05l.1-.25zm-1.43.26.27.17-.02.04-.28-.2.03-.03zm-.18.5.23.07v.05l-.24-.07v-.04zm-.04.45.23-.02v.07h-.22v-.03zm.14.5-.02-.05.24-.1v.03l-.24.13zm.3.33-.04-.03.13-.13.03.04-.15.12zm.34.27-.04-.04.1-.2h.06zm.5.12v-.25h.04v.25zm1-.35-.22-.22.03-.03.24.22-.03.04zm.28-.45-.2-.12v-.04l.22.1-.03.04zm.13-.43-.22-.03v-.07l.24.04v.04zm0-.46-.26.05v-.02l.24-.06v.06zm-.24-.44.03.04-.16.1-.03-.04zm-.25-.3-.15.2-.04-.04.17-.2.04.04zm-1.08-.77-.23.53c.1-.05.25-.08.4-.1l-.2-.43zm-4.87.1.04.1-.04.33c.17 0 .34.02.5.1.48.26.66.86.4 1.34-.25.48-.84.66-1.32.4s-.66-.85-.4-1.33c.1-.2.27-.37.47-.45l-.1-.38.03-.03c-.35.1-.67.3-.95.54-.12.78.12 1.6.65 2.18.78.1 1.6-.13 2.18-.66.13-.8-.12-1.6-.65-2.2-.27-.03-.55-.02-.82.03zm.38.34-.05-.03.1-.24-.05.25zm-1.43.24.27.17-.02.05-.28-.17zm-.17.5.22.07v.06l-.24-.07.04-.05zm-.04.45.2-.03v.05h-.22v-.04zm.1.5v-.06l.23-.1.02.03-.24.1zm.3.32-.03-.03.13-.14.04.03-.13.12zm.35.27-.04-.03.13-.23.04.02-.12.23zm.48.1v-.25h.04v.26h-.04zm1-.34-.22-.22.04-.03.23.23-.03.03zm.28-.46-.2-.1.03-.04.2.1-.02.05zm.14-.4-.23-.04v-.05l.25.06v.04zm-.02-.47-.25.05v-.04l.24-.06v.05zm-.23-.44.02.02-.15.1-.03-.04.15-.1zm-.26-.33-.16.2-.04-.03.15-.2.04.03zm-1.07-.75-.23.53c.13-.05.27-.08.4-.1z"/><circle cx="21.696" cy="11.609" r=".336"/><circle cx="5.565" cy="10.94" r=".336"/><circle cx="5.503" cy="9.595" r=".336"/><circle cx="23.08" cy="11.609" r=".336"/><circle cx="37.588" cy="11.714" r=".336"/><circle cx="42.801" cy="11.838" r=".336"/><circle cx="49.132" cy="11.838" r=".336"/><path d="m24.2 6.2h-.1s1.53-1.4 4.92-1.4c3.4 0 4.54 1.4 4.54 1.4h-.3l-1.28.9h5.4l-1.3-.9h-.2s-2.88-2.2-7.38-2c-4 .16-6.92 2-6.92 2h-.22l-.9.9h4.62z"/></svg>