<svg enable-background="new 0 0 60 60" height="60" viewBox="0 0 60 60" width="60" xmlns="http://www.w3.org/2000/svg"><path d="m58 6.5h-1.7v.6h-20.3-4.1-6.9-4.7-16.4v-.6h-1.9c-1.1 0-2 .9-2 2v44.9c0 1.1.9 2 2 2h1.9v-.7h52.4v.7h1.7c1.1 0 2-.9 2-2v-44.9c0-1.1-.9-2-2-2zm-56.1 2.3c-.3 0-.5-.2-.5-.5s.2-.5.5-.5.5.2.5.5-.2.5-.5.5zm7.8 7.6h1.6l-5.3 5.1v-1.5c-.1.1 3.7-3.6 3.7-3.6zm-3.6 2.3c.3-1 1.1-1.9 2.2-2.1zm6.5-2.3h1.3l-7.9 7.7v-1.3zm2.5 0h1.6l-10.8 10.5v-1.5zm2.9 0h1.3l-13.4 13v-1.2zm2.6 0h1.5l-16.2 15.8v-1.5zm2.9 0h1.4l-19 18.4v-1.3s17.6-17.1 17.6-17.1zm2.7 0h1.6l-21.9 21.2v-1.5zm2.8 0h1.6l-24.7 24v-1.6zm3 0h1.6l-27.7 26.8v-1.5s26.1-25.3 26.1-25.3zm2.8 0h1.4l-30.3 29.4v-1.3zm2.7 0h1.6l-33.2 32.2v-1.5zm-31.6 33.5 34.5-33.5h1.1l-35.4 34.4c-.1-.3-.1-.6-.2-.9zm.7 1.7 36.2-35.2h1.6l-37 35.9c-.3-.1-.6-.4-.8-.7zm2.5 1.2c-.3 0-.6 0-.8-.1l37.4-36.3h1.7l-37.5 36.4zm2 .1 37.5-36.4h1.6l-37.5 36.3zm2.9 0 37.5-36.4c.3 0 .6.1.9.2l-37.2 36.2zm2.5 0 36.8-35.7c.3.2.5.5.7.8l-36 34.9zm35.6-.2 2.2-2.1c-.3 1.1-1.2 1.9-2.2 2.1zm2.3-3.5-3.7 3.6h-1.6l5.3-5.1zm0-2.8-6.6 6.4h-.9l7.5-7.3zm0-2.1-8.8 8.6h-1.6l10.4-10.1c0-.1 0 1.5 0 1.5zm0-2.8-11.7 11.3h-.8l12.6-12.2zm0-2.1-13.8 13.4h-1.6l15.4-15zm0-2.8-16.7 16.2h-1.4l18.1-17.6zm0-2.6-19.4 18.8h-1.5l21-20.3zm0-2.8-22.3 21.6h-1.1l23.4-22.7zm0-2.4-24.6 24h-1.5l26.2-25.5zm0-2.7-27.5 26.7h-1.6l29.1-28.3zm0-2.8-30.4 29.5h-1.6l32-31.1zm0-2.8-33.3 32.3h-1.8l35-34c0 .2.1.5.1.7zm1.9-5.6h-52.4v-6.5-.2h52.4v.2zm1.8-6.4c-.3 0-.5-.2-.5-.5s.2-.5.5-.5.5.2.5.5-.2.5-.5.5zm-48.7 1.2v.1.3c.2 0 .4 0 .5.1.5.3.7.9.4 1.3-.2.6-.8.8-1.3.5-.5-.2-.7-.8-.4-1.3.1-.2.3-.4.5-.4l-.1-.4c-.3.1-.7.3-.9.6-.1.7.1 1.5.7 2.1.8.1 1.6-.1 2.2-.7.1-.8-.1-1.6-.7-2.2-.3 0-.6 0-.9 0zm.4.4.1-.3zm-1.4.2.2.2v.1zm-.2.5.2.1v.1zm0 .5h.2zm.1.5.2-.2zm.3.3.1-.2zm.3.3.1-.3zm.5.1v-.2zm1-.3-.2-.2h.1zm.3-.5-.2-.1zm.1-.4h-.2v-.1zm0-.5-.2.1v-.1zm-.2-.4-.1.1zm-.3-.3-.2.2zm-1-.8-.3.5c.1 0 .3-.1.4-.1 0 0-.1-.4-.1-.4zm43.3 1v.1.3c.2 0 .3 0 .5.1.5.3.7.9.4 1.3-.3.5-.9.6-1.3.4-.5-.3-.7-.9-.4-1.3.1-.2.3-.3.5-.4l-.1-.4c-.3.1-.7.3-1 .6-.1.8.2 1.6.7 2.2.8.1 1.6-.1 2.2-.7.1-.8-.1-1.6-.7-2.2-.3 0-.6 0-.8 0zm.3.3.1-.2zm-1.4.3.3.2zm-.2.5.2.1zm0 .4h.2zm.1.5.2-.1zm.3.4.1-.1zm.4.3.1-.2zm.5.1v-.3zm1-.4-.2-.2v-.1zm.2-.4-.2-.1v-.1zm.2-.4h-.2zm-.1-.5-.2.1v-.1zm-.2-.4-.1.1zm-.2-.3-.2.2zm-1.1-.8-.2.5c.1 0 .3-.1.4-.1zm-6.7.6v.1.4c.2 0 .3 0 .5.1.5.2.7.9.4 1.3-.3.5-.9.7-1.3.4-.5-.2-.7-.8-.4-1.3.1-.2.3-.4.5-.4l-.1-.4c-.4.1-.7.3-1 .6-.1.8.1 1.6.7 2.2.8.1 1.6-.1 2.2-.7.1-.8-.1-1.6-.7-2.2-.3-.1-.6-.1-.8-.1zm.4.4v-.2zm-1.5.2.3.2zm-.1.5.2.1zm-.1.5h.2zm.2.5.2-.2v.1zm.3.3.1-.2zm.3.3.1-.2zm.5.1v-.3zm1-.4-.2-.2zm.3-.4-.2-.1v-.1zm.1-.4-.2-.1zm0-.5-.2.1v-.1zm-.2-.5-.1.1v-.1zm-.3-.3-.1.2zm-1.1-.7-.2.5c.1 0 .2-.1.4-.1zm-5.4.3v.4c.2 0 .3.1.5.1.5.3.7.9.4 1.3-.3.5-.9.7-1.3.4-.5-.2-.7-.9-.4-1.3.1-.2.3-.3.5-.4l-.1-.4c-.4.1-.7.3-1 .6-.1.8.1 1.6.7 2.2.8.1 1.6-.1 2.2-.6.1-.8-.1-1.6-.7-2.2-.2-.1-.5-.1-.8-.1zm.4.3v-.2zm-1.4.3.3.2zm-.2.5.2.1v.1zm0 .4h.2v.1zm.1.5.2-.2zm.3.4.1-.2zm.3.2.1-.2h.1zm.5.2v-.2zm1-.4-.2-.2zm.3-.4-.2-.1zm.1-.5h-.2v-.1zm0-.4-.3.1zm-.2-.5-.1.1zm-.2-.3-.2.2zm-1.1-.7-.2.5c.1-.1.2-.1.4-.1zm-4.9.1v.1.3c.2 0 .3 0 .5.1.5.3.7.9.4 1.3-.2.5-.8.7-1.3.4s-.7-.8-.4-1.3c.1-.2.3-.4.5-.4l-.1-.4c-.3.1-.7.3-1 .5-.1.8.1 1.6.7 2.2.8.1 1.6-.1 2.2-.7.1-.8-.1-1.6-.7-2.2-.3 0-.5 0-.8.1zm.4.3v-.3zm-1.4.2.3.2v.1zm-.2.5.2.1v.1zm-.1.5h.2v.1zm.1.5.2-.2zm.3.3.1-.2zm.4.3.1-.3zm.5.1v-.2zm1-.4-.2-.2zm.3-.4-.2-.1zm.1-.4h-.2v-.1zm0-.5-.2.1zm-.3-.4-.1.1zm-.2-.4-.2.2zm-1.1-.7-.2.5c.1-.1.3-.1.4-.1 0 0-.2-.4-.2-.4z" fill="#063e89"/><circle cx="21.7" cy="11.6" r=".3"/><circle cx="5.6" cy="10.9" r=".3"/><circle cx="5.5" cy="9.6" r=".3"/><circle cx="23.1" cy="11.6" r=".3"/><circle cx="37.6" cy="11.7" r=".3"/><circle cx="42.8" cy="11.8" r=".3"/><circle cx="49.1" cy="11.8" r=".3"/><path d="m24.2 6.2h-.1s1.5-1.4 4.9-1.4 4.5 1.4 4.5 1.4h-.3l-1.2.9h5.4l-1.3-.9h-.2s-2.9-2.2-7.4-2c-4 .2-6.9 2-6.9 2h-.2l-.9.9h4.6s-.9-.9-.9-.9z"/></svg>