<svg enable-background="new 0 0 60 60" height="60" viewBox="0 0 60 60" width="60" xmlns="http://www.w3.org/2000/svg"><path d="m17.4 55.1c1.7 0 3.1-1.4 3.1-3.1v-6.3h15.7v6.3c0 1.7 1.4 3.1 3.1 3.1z" fill="#a0b3ba"/><path d="m20.6 45.7v-1.6h18.8v7.9c0 1.7 1.4 3.1 3.1 3.1h3.1v3.1h-31.3v-3.1h15.7z" fill="#647278"/><path d="m30 45.7h-26.9c-1.7 0-3.1-1.4-3.1-3.1v-37.7c0-1.7 1.4-3.1 3.1-3.1h26.9l7.9 22z" fill="#249ac1"/><path d="m60 4.9v37.7c0 1.7-1.4 3.1-3.1 3.1h-26.9v-44h26.9c1.7 0 3.1 1.4 3.1 3.2z" fill="#249ac1"/><path d="m31.6 44.1h-3.1c-.9 0-1.6-.7-1.6-1.6s.7-1.6 1.6-1.6h3.1c.9 0 1.6.7 1.6 1.6-.1.9-.8 1.6-1.6 1.6z" fill="#a0b3ba"/><path d="m29.2 3.3c0-.4.4-.8.8-.8s.8.4.8.8-.4.8-.8.8-.8-.4-.8-.8z" fill="#799dc9"/><path d="m56.9 4.9v34.5h-53.8v-34.5z" fill="#ddd"/></svg>