<svg enable-background="new 0 0 60 60" height="60" viewBox="0 0 60 60" width="60" xmlns="http://www.w3.org/2000/svg"><path d="m34.25 37.06c-3.12 3.12-8.19 3.12-11.31 0-3.12-3.12-3.12-8.19 0-11.31l23.4-23.41c3.12-3.12 8.19-3.12 11.31 0 3.12 3.12 3.12 8.19 0 11.31z" fill="#4b4d4d"/><path d="m25.11 44.79-9.9-9.9c-.57-.57-.57-1.51 0-2.08l3.55-3.55c.57-.57 1.51-.57 2.08 0l9.9 9.9c.57.57.57 1.51 0 2.08l-3.55 3.55c-.57.57-1.5.57-2.08 0z" fill="#c3c3c3"/><path d="m23.36 43.03-1.79 1.7-10.74 10.2-.64.61-.04.04-.06.06-.63.59-.04.04-.49.45-.1.09-.1.1-.53.48-.47.43c-.71.66-1.85.64-2.54-.05l-2.96-2.96c-.69-.69-.71-1.83-.05-2.54l.43-.47.49-.53.1-.1.09-.1.45-.49.04-.04.59-.63.06-.06.04-.04.61-.64 11.89-12.53z" fill="#696b6b"/><g fill="#c3c3c3"><path d="m10.83 54.93-.64.61-.04.04-.06.05-.63.59-5.68-5.68.59-.63.05-.06.04-.04.61-.64z"/><path d="m4.81 57.39-2.16 2.16c-.61.61-1.59.61-2.2 0s-.61-1.59 0-2.19l2.16-2.16z"/></g></svg>