<svg enable-background="new 0 0 60 60" height="60" viewBox="0 0 60 60" width="60" xmlns="http://www.w3.org/2000/svg"><path d="m44.16 15.28v1.02h-28.32v-1.02c-1.01 0-1.82.85-1.82 1.89s.82 1.89 1.82 1.89v-1.02h28.32v1.02c1.01 0 1.82-.85 1.82-1.89.01-1.04-.81-1.89-1.82-1.89z" fill="#a1a1a1"/><path d="m39.53 9.88v12.49c0 .46-.03.9-.09 1.34-.24 1.88-1 3.59-2.12 4.98-.55.69-1.19 1.29-1.9 1.8-.41.29-.84.55-1.28.78-.6.3-1.24.54-1.9.7-.42.11-.85.18-1.28.23-.31.03-.63.05-.95.05s-.64-.02-.95-.05c-.44-.05-.87-.12-1.28-.23-.66-.16-1.3-.4-1.9-.7-.45-.23-.88-.49-1.28-.78-.47-.34-.91-.72-1.32-1.14-.2-.21-.4-.43-.58-.66-1.12-1.39-1.87-3.1-2.12-4.98-.06-.44-.09-.89-.09-1.34v-12.49c0-.46.03-.9.09-1.34.24-1.88 1-3.59 2.12-4.98.55-.68 1.19-1.29 1.9-1.8.41-.29.83-.55 1.28-.78.6-.3 1.24-.54 1.9-.7.42-.11.85-.18 1.28-.23.3-.03.62-.05.94-.05s.64.02.95.05c.44.05.87.12 1.28.23.66.16 1.3.4 1.9.7.45.23.88.49 1.28.78.47.34.91.72 1.32 1.14.2.21.4.43.58.66 1.12 1.39 1.88 3.1 2.12 4.98.07.44.1.89.1 1.34z" fill="#c3c3c3"/><g fill="#696b6b"><path d="m39.53 9.88v.63h-7.48c-.52 0-.95-.44-.95-.98 0-.27.11-.52.28-.7s.41-.29.67-.29h7.39c.06.44.09.89.09 1.34z"/><path d="m39.53 11.84v1.97h-7.48c-.52 0-.95-.44-.95-.98 0-.27.11-.52.28-.7s.41-.29.67-.29z"/><path d="m39.53 15.14v1.97h-7.48c-.52 0-.95-.44-.95-.98 0-.27.11-.52.28-.7s.41-.29.67-.29z"/><path d="m39.53 18.45v1.97h-7.48c-.52 0-.95-.44-.95-.98 0-.27.11-.52.28-.7s.41-.29.67-.29z"/><path d="m39.53 21.75v.63c0 .46-.03.9-.09 1.34h-7.39c-.52 0-.95-.44-.95-.98 0-.27.11-.52.28-.7s.41-.29.67-.29z"/><path d="m24.58 1.75v3.35c0 .54-.43.99-.95.99-.26 0-.5-.11-.67-.29s-.28-.43-.28-.7v-1.54c.55-.69 1.19-1.3 1.9-1.81z"/><path d="m27.77.27v4.83c0 .54-.43.99-.95.99-.26 0-.5-.11-.67-.29s-.28-.43-.28-.7v-4.12c.6-.3 1.23-.54 1.9-.71z"/><path d="m30.95.05v5.05c0 .54-.43.99-.95.99-.26 0-.5-.11-.67-.29s-.28-.43-.28-.7v-5.05c.31-.03.63-.05.95-.05s.64.02.95.05z"/><path d="m34.13.98v4.12c0 .54-.43.99-.95.99-.26 0-.5-.11-.67-.29s-.28-.43-.28-.7v-4.83c.67.17 1.3.4 1.9.71z"/><path d="m37.32 3.55v1.55c0 .54-.43.99-.95.99-.26 0-.5-.11-.67-.29s-.28-.43-.28-.7v-3.35c.47.34.91.72 1.32 1.14.2.22.4.44.58.66z"/><path d="m24.58 27.16v3.34c-.47-.34-.91-.72-1.32-1.14-.2-.21-.4-.43-.58-.66v-1.54c0-.54.43-.99.95-.99.53 0 .95.44.95.99z"/><path d="m27.77 27.16v4.82c-.66-.16-1.3-.4-1.9-.7v-4.12c0-.54.43-.99.95-.99s.95.44.95.99z"/><path d="m30.95 27.16v5.05c-.31.03-.63.05-.95.05s-.64-.02-.95-.05v-5.05c0-.54.43-.99.95-.99s.95.44.95.99z"/><path d="m34.13 27.16v4.12c-.6.3-1.24.54-1.9.7v-4.82c0-.54.43-.99.95-.99.53 0 .95.44.95.99z"/><path d="m37.32 27.16v1.54c-.55.69-1.19 1.29-1.9 1.8v-3.34c0-.54.43-.99.95-.99s.95.44.95.99z"/><path d="m28.78 9.52c0 .54-.43.98-.95.98h-7.36v-.62c0-.46.03-.9.09-1.34h7.27c.53 0 .95.44.95.98z"/><path d="m28.78 12.83c0 .54-.43.98-.95.98h-7.36v-1.97h7.36c.53 0 .95.44.95.99z"/><path d="m28.78 16.13c0 .54-.43.98-.95.98h-7.36v-1.97h7.36c.53 0 .95.45.95.99z"/><path d="m28.78 19.43c0 .54-.43.98-.95.98h-7.36v-1.97h7.36c.53.01.95.45.95.99z"/><path d="m28.78 22.74c0 .54-.43.98-.95.98h-7.27c-.06-.44-.09-.89-.09-1.34v-.63h7.36c.53 0 .95.44.95.99z"/></g><path d="m30 36.9c-7.42 0-13.46-6.26-13.46-13.97v-8.2c0-.62.49-1.13 1.09-1.13s1.09.51 1.09 1.13v8.2c0 6.45 5.06 11.71 11.29 11.71 6.22 0 11.29-5.25 11.29-11.71v-8.2c0-.62.49-1.13 1.09-1.13s1.09.51 1.09 1.13v8.2c-.02 7.7-6.06 13.97-13.48 13.97z" fill="#c3c3c3"/><path d="m26.82 33.46h6.37v5.21h-6.37z" fill="#a1a1a1"/><path d="m28.16 38.68h3.69v16.29h-3.69z" fill="#c3c3c3"/><path d="m18.94 60v-3.29c0-.96.81-1.74 1.81-1.74h18.51c1 0 1.81.78 1.81 1.74v3.29z" fill="#a1a1a1"/></svg>