<svg enable-background="new 0 0 60 60" height="60" viewBox="0 0 60 60" width="60" xmlns="http://www.w3.org/2000/svg"><path d="m44.2 15.3v1h-28.4v-1c-1 0-1.8.9-1.8 1.9s.8 1.9 1.8 1.9v-1h28.3v1c1 0 1.8-.9 1.8-1.9.1-1.1-.7-1.9-1.7-1.9z" fill="#a1a1a1"/><path d="m39.5 9.9v12.5c0 .5 0 .9-.1 1.3-.2 1.9-1 3.6-2.1 5-.5.7-1.2 1.3-1.9 1.8-.4.3-.8.5-1.3.8-.6.3-1.2.5-1.9.7-.4.1-.9.2-1.3.2-.3 0-.6 0-1 0-.3 0-.6 0-1 0s-.9-.1-1.3-.2c-.7-.2-1.3-.4-1.9-.7-.5-.2-.9-.5-1.3-.8-.5-.3-.9-.7-1.3-1.1-.2-.2-.4-.4-.6-.7-1.1-1.4-1.9-3.1-2.1-5-.1-.4-.1-.9-.1-1.3v-12.5c0-.5 0-.9.1-1.3.2-1.9 1-3.6 2.1-5 .5-.7 1.2-1.3 1.9-1.8.6-.3 1-.6 1.5-.8.6-.3 1.2-.5 1.9-.7.4-.1.9-.2 1.3-.2.3-.1.6-.1.9-.1s.6 0 1 .1.9.1 1.3.2c.7.2 1.3.4 1.9.7.5.2.9.5 1.3.8.5.3.9.7 1.3 1.1.2.2.4.4.6.7 1.1 1.4 1.9 3.1 2.1 5z" fill="#c3c3c3"/><g fill="#696b6b"><path d="m39.5 9.9v.6h-7.5c-.5 0-1-.4-1-1 0-.3.1-.5.3-.7s.4-.3.7-.3h7.4c.1.5.1.9.1 1.4z"/><path d="m39.5 11.8v2h-7.5c-.5 0-1-.4-1-1 0-.3.1-.5.3-.7s.4-.3.7-.3z"/><path d="m39.5 15.1v2h-7.5c-.5 0-1-.4-1-1 0-.3.1-.5.3-.7s.4-.3.7-.3z"/><path d="m39.5 18.5v2h-7.5c-.5 0-1-.4-1-1 0-.3.1-.5.3-.7s.4-.3.7-.3c0-.1 7.5-.1 7.5 0z"/><path d="m39.5 21.8v.6c0 .5 0 .9-.1 1.3h-7.4c-.5 0-1-.4-1-1 0-.3.1-.5.3-.7s.4-.3.7-.3c0 0 7.5 0 7.5.1z"/><path d="m24.6 1.8v3.3c0 .5-.4 1-1 1-.3 0-.5-.1-.7-.3s-.3-.4-.3-.7v-1.5c.6-.7 1.3-1.3 2-1.8z"/><path d="m27.8.3v4.8c0 .5-.4 1-1 1-.3 0-.5-.1-.7-.3s-.3-.4-.3-.7v-4.1c.7-.3 1.3-.6 2-.7z"/><path d="m31 .1v5c0 .5-.4 1-1 1-.3 0-.5-.1-.7-.3s-.3-.4-.3-.7v-5c.4-.1.7-.1 1-.1s.6 0 1 .1z"/><path d="m34.1 1v4.1c0 .5-.4 1-1 1-.3 0-.5-.1-.7-.3s-.3-.4-.3-.7v-4.8c.8.1 1.4.4 2 .7z"/><path d="m37.3 3.5v1.5c0 .5-.4 1-1 1-.3 0-.5-.1-.7-.3s-.3-.4-.3-.7v-3.2c.5.3.9.7 1.3 1.1.3.2.5.4.7.6z"/><path d="m24.6 27.2v3.3c-.5-.3-.9-.7-1.3-1.1-.2-.2-.4-.4-.6-.7v-1.5c0-.5.4-1 1-1 .5 0 .9.4.9 1z"/><path d="m27.8 27.2v4.8c-.7-.2-1.3-.4-1.9-.7v-4.1c0-.5.4-1 1-1s.9.4.9 1z"/><path d="m31 27.2v5c-.3 0-.6 0-1 0-.3 0-.6 0-1 0v-5c0-.5.4-1 1-1s1 .4 1 1z"/><path d="m34.1 27.2v4.1c-.6.3-1.2.5-1.9.7v-4.8c0-.5.4-1 1-1 .5 0 .9.4.9 1z"/><path d="m37.3 27.2v1.5c-.5.7-1.2 1.3-1.9 1.8v-3.3c0-.5.4-1 1-1s.9.4.9 1z"/><path d="m28.8 9.5c0 .5-.4 1-1 1h-7.4v-.6c0-.5 0-.9.1-1.3h7.3c.6-.1 1 .4 1 .9z"/><path d="m28.8 12.8c0 .5-.4 1-1 1h-7.4v-2h7.4c.6 0 1 .5 1 1z"/><path d="m28.8 16.1c0 .5-.4 1-1 1h-7.4v-2h7.4c.6 0 1 .5 1 1z"/><path d="m28.8 19.4c0 .5-.4 1-1 1h-7.4v-2h7.4c.6.1 1 .5 1 1z"/><path d="m28.8 22.7c0 .5-.4 1-1 1h-7.3c-.1-.4-.1-.9-.1-1.3v-.6h7.4c.6 0 1 .4 1 .9z"/></g><path d="m30 36.9c-7.4 0-13.5-6.3-13.5-14v-8.2c0-.6.5-1.1 1.1-1.1s1.1.5 1.1 1.1v8.2c0 6.5 5.1 11.7 11.3 11.7s11.3-5.2 11.3-11.7v-8.2c0-.6.5-1.1 1.1-1.1s1.1.5 1.1 1.1v8.2c0 7.7-6.1 14-13.5 14z" fill="#c3c3c3"/><path d="m26.8 33.5h6.4v5.2h-6.4z" fill="#249ac1"/><path d="m28.2 38.7h3.7v16.3h-3.7z" fill="#c3c3c3"/><path d="m18.9 60v-3.3c0-1 .8-1.7 1.8-1.7h18.5c1 0 1.8.8 1.8 1.7v3.3z" fill="#249ac1"/></svg>