<svg enable-background="new 0 0 60 60" height="60" viewBox="0 0 60 60" width="60" xmlns="http://www.w3.org/2000/svg"><path d="m34.2 37.1c-3.1 3.1-8.2 3.1-11.3 0-3.1-3.1-3.1-8.2 0-11.3l23.4-23.5c3.1-3.1 8.2-3.1 11.3 0 3.1 3.1 3.1 8.2 0 11.3z" fill="#4b4d4d"/><path d="m25.1 44.8-9.9-9.9c-.6-.6-.6-1.5 0-2.1l3.5-3.5c.6-.6 1.5-.6 2.1 0l9.9 9.9c.6.6.6 1.5 0 2.1l-3.5 3.5c-.6.6-1.5.6-2.1 0z" fill="#c3c3c3"/><path d="m23.4 43-1.8 1.7-10.8 10.2-.6.6-.1.1-.6.6-.5.5-.1.1-.1.1-.5.5-.5.4c-.7.7-1.8.6-2.5 0l-3-3c-.7-.7-.7-1.8 0-2.5l.4-.5.5-.5.1-.1.1-.1.5-.5.6-.6.1-.1.6-.6 11.8-12.7z" fill="#781d77"/><g fill="#c3c3c3"><path d="m10.8 54.9-.6.6-.1.1-.6.6-5.7-5.7.6-.6v-.1h.1l.6-.6z"/><path d="m4.8 57.4-2.2 2.2c-.6.6-1.6.6-2.2 0s-.6-1.6 0-2.2l2.2-2.2z"/></g></svg>