<svg enable-background="new 0 0 60 60" height="60" viewBox="0 0 60 60" width="60" xmlns="http://www.w3.org/2000/svg"><path d="m28.1 2.3c0-1.3-1-2.3-2.4-2.3h-20.5c-1.3 0-2.4 1-2.4 2.3v1.9h25.3zm29 0c0-1.3-1-2.3-2.3-2.3h-17.8c-1.3 0-2.3 1-2.3 2.3v1.9h22.5zm-57.1 3.3c0 .5.4.9.9.9v6.1c-.5 0-.9.4-.9.9v1.9c0 .5.4.9.9.9h1.9v-.9c0 14.5 3 27 4.7 35.2-1.8 0-3.3 1.5-3.3 3.3v2.4c-.3 0-.5.2-.5.5v2.8c.1.2.3.4.5.4h1.4c.3 0 .5-.2.5-.5v-2.8c0-.3-.2-.5-.5-.5v-2.4c0-1 .8-1.9 1.9-1.9h15.9c1 0 1.9.8 1.9 1.9v2.4c-.2 0-.5.2-.5.5v2.8c0 .3.2.5.5.5h1.4c.3 0 .5-.2.5-.5v-2.8c0-.3-.2-.5-.5-.5v-2.4c0-1.8-1.5-3.3-3.3-3.3 1.8-8.1 4.7-20.6 4.7-35.2v.9h1.9c.5 0 .9-.4.9-.9v-1.9c0-.5-.4-.9-.9-.9v-5.9c.5 0 .9-.4.9-.9v-.5h-30.9zm29.1 1v6.1h-.9v-6.1zm-26.3 0v6.1h-.9v-6.1zm56.3 6.1v-6.1h-.1c.5 0 .9-.4.9-.9v-.5h-28.1v.5c0 .5.4.9.9.9h.1v6.1c-.5 0-.9.4-.9.9v1.9c0 .5.4.9.9.9h1.9v-.9c0 14.5 2.4 27 4.2 35.2-1.8 0-3.3 1.5-3.3 3.3v2.4c-.3 0-.5.2-.5.5v2.8c0 .3.2.5.5.5h1.4c.3 0 .5-.2.5-.5v-2.8c0-.3-.2-.5-.5-.5v-2.4c0-1 .8-1.9 1.9-1.9h14.5c1 0 1.9.8 1.9 1.9v2.4c-.2 0-.5.2-.5.5v2.8c0 .3.2.5.5.5h1.4c.3 0 .5-.2.5-.5v-2.8c0-.3-.2-.5-.5-.5v-2.4c0-1.8-1.5-3.3-3.3-3.3 1.7-8.1 3.7-20.6 3.7-35.2v.9h1.9c.5 0 .9-.4.9-.9v-1.9c.1-.5-.3-.9-.8-.9zm-24.4 0h-1v-6.1h.9zm23.4 0h-.9v-6.1h.9z" fill="#00572c"/></svg>