<svg xmlns="http://www.w3.org/2000/svg" width="60" height="60"><path d="M28.13 2.34c0-1.3-1.05-2.34-2.35-2.34H5.16C3.86 0 2.8 1.05 2.8 2.34v1.88h25.32V2.34zm28.97 0c0-1.3-1.04-2.34-2.33-2.34H36.95c-1.3 0-2.34 1.05-2.34 2.34v1.88h22.5V2.34zM0 5.64c0 .5.42.92.94.92v6.1c-.52 0-.94.42-.94.93v1.86c0 .5.42.94.94.94H2.8v-.93C2.8 30 5.75 42.5 7.5 50.63c-1.8 0-3.28 1.46-3.28 3.28v2.36c-.26 0-.47.2-.47.47v2.8c0 .27.2.48.47.48h1.4c.26 0 .47-.2.47-.46v-2.8c0-.27-.23-.48-.48-.48V53.9c0-1.03.84-1.87 1.87-1.87h15.93c1.03 0 1.87.84 1.87 1.88v2.36c-.24 0-.46.2-.46.47v2.8c0 .27.22.48.47.48h1.43c.26 0 .47-.2.47-.46v-2.8c0-.27-.22-.48-.48-.48V53.9c0-1.8-1.47-3.27-3.28-3.27C25.2 42.5 28.12 30 28.12 15.47v.94H30c.52 0 .94-.4.94-.92V13.6c0-.52-.42-.94-.94-.94v-6.1c.52 0 .94-.42.94-.94v-.46H0v.46zm29.06.92v6.1h-.94v-6.1h.94zm-26.25 0v6.1h-.9v-6.1h.93zm56.26 6.1v-6.1h-.08c.52 0 .94-.42.94-.94v-.46H31.8v.46c0 .52.42.94.93.94h.08v6.1c-.5 0-.9.42-.9.93v1.86c0 .52.4.94.92.94h1.9v-.93c0 14.53 2.44 27.03 4.2 35.16-1.8 0-3.28 1.46-3.28 3.28v2.36c-.26 0-.47.2-.47.47v2.8c0 .27.2.48.47.48h1.4c.26 0 .47-.2.47-.46v-2.8c0-.27-.2-.48-.46-.48V53.9c0-1.03.84-1.87 1.88-1.87h14.54c1.03 0 1.87.84 1.87 1.88v2.36c-.24 0-.45.2-.45.47v2.8c0 .27.2.48.46.48h1.42c.26 0 .47-.2.47-.46v-2.8c0-.27-.22-.48-.48-.48V53.9c0-1.8-1.47-3.27-3.28-3.27C55.2 42.5 57.2 30 57.2 15.47v.94h1.87c.5 0 .93-.4.93-.92V13.6c0-.52-.42-.94-.94-.94zm-24.37 0h-.96v-6.1h.94v6.1zm23.4 0h-.92v-6.1h.92v6.1z"/></svg>