<svg enable-background="new 0 0 60 60" height="60" viewBox="0 0 60 60" width="60" xmlns="http://www.w3.org/2000/svg"><path d="m45.4 0h3.4v3.4h-3.4zm-34.3 0h3.4v3.4h-3.4zm6.9 0h3.4v3.4h-3.4zm6.9 0h3.4v3.4h-3.4zm6.8 0h3.4v3.4h-3.4zm6.9 0h3.4v3.4h-3.4z" fill="#222c30"/><path d="m9.4 59.9c-1.8 0-3.4-1.5-3.4-3.3v-51.5c0-1.8 1.5-3.4 3.4-3.4h41.1c1.8 0 3.3 1.5 3.3 3.4v51.4c0 1.8-1.5 3.3-3.3 3.3z" fill="#249ac1"/><path d="m50.6 1.9c1.8 0 3.3 1.5 3.3 3.3v51.4c0 1.8-1.5 3.3-3.3 3.3h-41.2c-1.8 0-3.3-1.5-3.3-3.3v-51.5c0-1.8 1.5-3.3 3.3-3.3zm0-.2h-41.2c-1.9 0-3.4 1.6-3.4 3.4v51.4c0 2 1.5 3.5 3.4 3.5h41.1c1.9 0 3.4-1.5 3.4-3.4v-51.5c.1-1.8-1.4-3.4-3.3-3.4z"/><path d="m25.7 30.9h1.7v17.1h-1.7z" fill="#222c30"/><path d="m24.9 44.6 1.7.8 1.7-.8v-1.7h-3.4z" fill="#77888f"/><path d="m24.9 44.6h3.4v1.7h-3.4z" fill="#a0b3ba"/><path d="m32.6 30.9h1.7v17.1h-1.7z" fill="#222c30"/><path d="m31.7 39.4 1.7.9 1.7-.9v-1.7h-3.4z" fill="#77888f"/><path d="m31.7 39.4h3.4v1.7h-3.4z" fill="#a0b3ba"/><path d="m39.4 30.9h1.7v17.1h-1.7z" fill="#222c30"/><path d="m38.6 37.7 1.7.9 1.7-.9v-1.7h-3.4z" fill="#77888f"/><path d="m38.6 37.7h3.4v1.7h-3.4z" fill="#a0b3ba"/><path d="m18.9 30.9h1.7v17.1h-1.7z" fill="#222c30"/><path d="m18 41.1 1.7.9 1.7-.9v-1.7h-3.4z" fill="#77888f"/><path d="m18 41.1h3.4v1.8h-3.4z" fill="#a0b3ba"/><path d="m24.9 55.7v-1.7h10.2v1.7z" fill="#222c30"/><path d="m30 56.6.9-1.7-.9-1.8h-1.7v3.5z" fill="#77888f"/><path d="m30 56.6v-3.5h1.7v3.5z" fill="#a0b3ba"/><path d="m9.4 51.4h3.5v-1.7h-3.5z" fill="#ffd900"/><path d="m18 51.4h3.4v-1.7h-3.4zm20.6 0h3.4v-1.7h-3.4zm-6.9 0h3.4v-1.7h-3.4zm-6.8 0h3.4v-1.7h-3.4z" fill="#78cae6"/><path d="m47.1 51.4h3.4v-1.7h-3.4zm-8.5-22.3h3.4v-1.7h-3.4zm-6.9 0h3.4v-1.7h-3.4zm-6.8 0h3.4v-1.7h-3.4zm-6.9 0h3.4v-1.7h-3.4z" fill="#ffd900"/><path d="m36.9 53.1 3.4 1.8-3.4 1.7z" fill="#a0b3ba"/><path d="m23.1 53.1-3.4 1.8 3.4 1.7z" fill="#e6e6e6"/><path d="m20.9 21.1c.7.7.7 1.8 0 2.4-.7.7-1.8.7-2.4 0-.7-.7-.7-1.8 0-2.4.7-.7 1.8-.7 2.4 0zm20.6-5.2c.7.7.7 1.8 0 2.4-.7.7-1.8.7-2.4 0-.7-.7-.7-1.8 0-2.4.6-.6 1.7-.6 2.4 0zm0-5.1c.7.7.7 1.8 0 2.4-.7.7-1.8.7-2.4 0-.7-.7-.7-1.8 0-2.4.6-.7 1.7-.7 2.4 0zm0 10.3c.7.7.7 1.8 0 2.4-.7.7-1.8.7-2.4 0-.7-.7-.7-1.8 0-2.4.6-.7 1.7-.7 2.4 0zm-6.9-5.2c.7.7.7 1.8 0 2.4-.7.7-1.8.7-2.4 0-.7-.7-.7-1.8 0-2.4s1.8-.6 2.4 0zm0-5.1c.7.7.7 1.8 0 2.4-.7.7-1.8.7-2.4 0-.7-.7-.7-1.8 0-2.4.7-.7 1.8-.7 2.4 0zm0 10.3c.7.7.7 1.8 0 2.4-.7.7-1.8.7-2.4 0-.7-.7-.7-1.8 0-2.4.7-.7 1.8-.7 2.4 0zm-6.8-5.2c.7.7.7 1.8 0 2.4-.7.7-1.8.7-2.4 0-.7-.7-.7-1.8 0-2.4.6-.6 1.7-.6 2.4 0zm0-5.1c.7.7.7 1.8 0 2.4-.7.7-1.8.7-2.4 0-.7-.7-.7-1.8 0-2.4.6-.7 1.7-.7 2.4 0zm0 10.3c.7.7.7 1.8 0 2.4-.7.7-1.8.7-2.4 0-.7-.7-.7-1.8 0-2.4.6-.7 1.7-.7 2.4 0zm-6.9-5.2c.7.7.7 1.8 0 2.4-.7.7-1.8.7-2.4 0-.7-.7-.7-1.8 0-2.4s1.8-.6 2.4 0zm0-5.1c.7.7.7 1.8 0 2.4-.7.7-1.8.7-2.4 0-.7-.7-.7-1.8 0-2.4.7-.7 1.8-.7 2.4 0z" fill="#222c30"/><g fill="#a0b3ba"><path d="m20.3 6.3c.3.3.3.9 0 1.2s-.9.3-1.2 0-.3-.9 0-1.2c.3-.4.9-.4 1.2 0z"/><path d="m27.2 6.3c.3.3.3.9 0 1.2s-.9.3-1.2 0-.3-.9 0-1.2c.3-.4.8-.4 1.2 0z"/><path d="m34 6.3c.3.3.3.9 0 1.2s-.9.3-1.2 0-.3-.9 0-1.2c.4-.4.9-.4 1.2 0z"/><path d="m40.9 6.3c.3.3.3.9 0 1.2s-.9.3-1.2 0-.3-.9 0-1.2c.3-.4.9-.4 1.2 0z"/></g><path d="m12.4 10.8c.7.7.7 1.8 0 2.4-.7.7-1.8.7-2.4 0-.7-.7-.7-1.8 0-2.4.6-.7 1.7-.7 2.4 0z" fill="#222c30"/><path d="m9.4 18.9h3.5v-3.5h-3.5z" fill="#a0b3ba"/><path d="m9.4 24h3.5v-3.4h-3.5z" fill="#a0b3ba"/><path d="m9.4 29.1h3.5v-3.4h-3.5z" fill="#a0b3ba"/><path d="m47.1 24h3.5v-13.7h-3.5z" fill="#78cae6"/><path d="m47.1 24h3.4v-4.1l-3.4-3.4zm3.5-5.6v-2.4l-3.4-3.4v2.4z" fill="#5aafcc"/><path d="m47.1 29.1h3.4v-1.7h-3.4zm0 17.2h3.4v-1.7h-3.4zm0-3.4h3.4v-1.7h-3.4zm0-3.5h3.4v-1.7h-3.4zm0-3.4h3.4v-1.7h-3.4zm0-3.4h3.4v-1.7h-3.4z" fill="#222c30"/><path d="m9.4 46.3h3.5v-3.4h-3.5z" fill="#78cae6"/><path d="m9.4 41.1h3.5v-3.4h-3.5z" fill="#d64564"/></svg>