<svg enable-background="new 0 0 60 60" height="60" viewBox="0 0 60 60" width="60" xmlns="http://www.w3.org/2000/svg"><path d="m38.3 44.1c-.1 0-.2 0-.2 0-.8 0-3-.4-3.7-3.3-.9-4 2.5-4.3 2.5-4.3-1.1-.9-1.2-2.6-.9-4 .2-1.4.7-2.8.5-4.3-.3-1.9-1.8-3.5-3.6-4.3-1-.5-2.1-.7-3.2-.9-.1 0-.1 0-.2 0l-.2-14.6-.1-2.2h1.5c.1.4.6.8 1 .8.6 0 1.1-.5 1.1-1.1s-.5-1.1-1.1-1.1c-.5 0-.9.3-1 .8h-1.6l-.1-2.1h1.7c.1.4.6.8 1 .8.6 0 1.1-.5 1.1-1.1s-.5-1.1-1.1-1.1c-.5 0-.9.3-1 .8h-1.7l-.1-1.5c.3 0 .6-.3.6-.7s-.3-.7-.7-.7h-1.9c-.4 0-.7.3-.7.7 0 .3.2.6.6.7l-.3 2.6h-1.7c-.1-.4-.6-.8-1.1-.8-.6 0-1.1.5-1.1 1.1s.5 1.1 1.1 1.1c.5 0 .9-.3 1.1-.8h1.6l-.1 1.9h-1.5c-.1-.4-.6-.8-1.1-.8-.6 0-1.1.5-1.1 1.1s.5 1.1 1.1 1.1c.5 0 .9-.3 1.1-.8h1.4l-.1 1-.1 14.8c-1.2.1-2.3.5-3.3 1-1.8.8-3.3 2.4-3.6 4.3-.2 1.4.3 2.8.5 4.2s.1 3.1-.9 4c0 0 3.6.4 2.5 4.4-.8 3-3.2 3.3-3.9 3.3-.1 0-.1 0-.2 0 1.2 1.1 1.4 3 1.1 4.7s-.9 3.3-.6 5c.3 2.2 2.1 4.1 4.2 5 1.2.5 2.4.8 3.7 1 2.7.5 5.6.1 8.2-1 2-1 3.9-2.8 4.2-5 .2-1.7-.3-3.3-.6-5s-.2-3.6 1-4.7zm-13.6-3.6c-.4.1-.8-.1-.9-.5 0-.1 0-.2 0-.2-1.3.9-.5 3.1-.5 3.1.1.4.2.9.2 1.3 0 .8-.1 1.6-.7 2.1-.4.3-1 .7-1.5.4s-.4-1.1.2-1.3c.4-.1.8.1.9.5v.2c1.3-.9.5-3.1.5-3.1-.1-.4-.2-.8-.3-1.3 0-.8.1-1.6.7-2.1.4-.3 1-.7 1.5-.4.6.3.4 1.1-.1 1.3zm3.5 18.5h-.9s-.3-8-1.8-11.7h4.5c-1.5 3.6-1.8 11.7-1.8 11.7zm2-14.1h-4.8c-.1 0-.2-.1-.2-.2s.1-.3.2-.3h4.8c.1 0 .2.1.2.2s-.1.3-.2.3zm4.1 1.8c-.5.3-1.1-.1-1.5-.4-.6-.5-.8-1.4-.7-2.1 0-.5.1-.9.2-1.3 0 0 .8-2.2-.5-3.1v.2c-.1.4-.5.6-.9.5-.6-.2-.7-1-.2-1.3s1.2.1 1.5.4c.6.5.8 1.3.7 2.1 0 .5-.1.9-.2 1.3 0 0-.8 2.2.5 3.1 0-.1 0-.2 0-.2.1-.4.5-.6.9-.5.5.2.7 1 .2 1.3zm8.1-46.7c-.3 0-.4.2-.4.4v.2h-1.6c-.3 0-.6.3-.6.6s.2.6.6.6h.2v32.6h-.1c-.4 0-.7.3-.7.7v3.1c0 .4.3.7.7.7h1.5v1.8c0 .2.2.4.4.4s.4-.2.4-.4v-40.3c0-.2-.2-.4-.4-.4zm-.4 34.3h-1.2v-32.6h1.2z" fill="#781d77"/></svg>