<svg height="60" width="60" xmlns="http://www.w3.org/2000/svg">
  <g stroke="#fff" stroke-linecap="round" stroke-linejoin="round" stroke-miterlimit="10">
    <path d="m38.32 44.08c-.1 0-.17 0-.25 0-.77-.03-3.05-.38-3.73-3.33-.92-4 2.48-4.34 2.48-4.34-1.06-.94-1.15-2.6-.9-4 .24-1.4.73-2.84.53-4.26-.28-1.94-1.83-3.5-3.6-4.32-1-.45-2.07-.7-3.16-.9-.06 0-.1 0-.16 0l-.23-14.53-.15-2.24h1.52c.14.44.56.76 1.05.76.6 0 1.1-.5 1.1-1.1 0-.62-.5-1.12-1.1-1.12-.5 0-.9.32-1.05.76h-1.57l-.13-1.93h1.7c.14.44.56.76 1.05.76.6 0 1.1-.5 1.1-1.13 0-.62-.5-1.1-1.1-1.1-.5 0-.9.3-1.05.75h-1.74l-.1-1.5c.3-.05.56-.33.56-.66-.03-.36-.33-.66-.7-.66h-1.9c-.36 0-.66.3-.66.67 0 .33.24.6.56.66l-.18 2.7h-1.66c-.15-.44-.57-.76-1.06-.76-.6 0-1.1.5-1.1 1.1s.5 1.12 1.1 1.12c.5 0 .9-.34 1.06-.78h1.6l-.12 1.94h-1.48c-.15-.45-.57-.77-1.06-.77-.6 0-1.1.5-1.1 1.1s.5 1.1 1.1 1.1c.5 0 .9-.3 1.06-.75h1.43l-.07 1.04-.21 14.49c-1.16.15-2.28.47-3.3.95-1.78.84-3.33 2.4-3.6 4.34-.2 1.42.28 2.84.53 4.25.24 1.4.15 3.06-.92 4.02 0 0 3.63.4 2.55 4.36-.83 3.02-3.22 3.3-3.86 3.32-.07 0-.1 0-.17 0 1.25 1.1 1.35 3.04 1.06 4.7s-.87 3.3-.63 4.95c.32 2.25 2.13 4.07 4.2 5.02 1.16.55 2.4.83 3.67 1.05 2.7.47 5.65.1 8.16-1.05 2.05-.95 3.86-2.77 4.18-5.02.24-1.66-.34-3.3-.62-4.96s-.2-3.6 1.06-4.7zm-13.65-3.6c-.37.1-.76-.1-.87-.48-.02-.08-.03-.15-.03-.23-1.28.9-.53 3.13-.53 3.13.13.42.22.86.24 1.3.05.76-.1 1.57-.7 2.1-.35.32-1.03.68-1.5.42-.52-.3-.4-1.12.18-1.3.37-.1.76.12.87.5.02.07.03.14.03.22 1.28-.9.53-3.13.53-3.13-.15-.4-.24-.84-.26-1.27-.05-.77.1-1.58.7-2.1.35-.32 1.03-.7 1.5-.43.52.3.4 1.1-.18 1.28zm3.55 18.47h-.9s-.33-8.03-1.83-11.7h4.54c-1.5 3.67-1.83 11.7-1.83 11.7zm1.94-14.03h-4.78c-.13 0-.23-.1-.23-.23s.1-.26.23-.26h4.78c.13 0 .23.1.23.24s-.1.22-.25.22zm4.1 1.8c-.46.26-1.14-.1-1.5-.4-.58-.55-.75-1.36-.7-2.13.03-.45.12-.88.24-1.3 0 0 .75-2.2-.53-3.13 0 .07 0 .15-.02.22-.1.37-.5.6-.87.47-.57-.16-.7-.98-.17-1.28.48-.28 1.16.1 1.5.4.6.53.76 1.35.7 2.1 0 .45-.1.88-.23 1.3 0 0-.75 2.2.53 3.13 0-.07 0-.15.02-.23.1-.36.5-.57.87-.46.55.16.67.98.15 1.28zm8.1-46.72c-.22 0-.4.18-.4.4v.16h-1.6c-.3 0-.57.26-.57.58s.25.6.57.6h.24v32.6h-.12c-.4 0-.7.32-.7.7v3.06c0 .4.3.7.7.7h1.46v1.8c0 .23.18.4.4.4s.42-.17.42-.4v-40.2c0-.22-.18-.4-.4-.4zm-.4 34.34h-1.22v-32.6h1.22z"/>
  </g>
</svg>