<svg enable-background="new 0 0 60 60" height="60" viewBox="0 0 60 60" width="60" xmlns="http://www.w3.org/2000/svg"><path d="m4.7 0h3.2v3.2h-3.2zm47.4 0h3.2v3.2h-3.2zm-4.7 0h3.2v3.2h-3.2zm-9.5 0h3.2v3.2h-3.2zm-4.7 0h3.2v3.2h-3.2zm-4.8 0h3.2v3.2h-3.2zm-4.7 0h3.2v3.2h-3.2zm-4.8 0h3.2v3.2h-3.2zm-4.7 0h3.2v3.2h-3.2zm-4.7 0h3.2v3.2h-3.2z" fill="#40494d"/><path d="m1.7 1.7h56.7v53.5h-56.7z" fill="#ff5a00"/><path d="m58.3 1.7v53.4h-56.6v-53.4zm.1-.1h-56.8v53.7h56.8z"/><path d="m18.9 15.8h36.3v36.3h-36.3zm0-1.6h36.3v-6.3h-36.3z" fill="#a0b3ba"/><path d="m4.7 7.9h12.7v6.3h-12.7z" fill="#78cae6"/><path d="m4.7 17.4h3.2v-1.6h-3.2z" fill="#d64564"/><path d="m9.5 17.4h3.1v-1.6h-3.1z" fill="#a0b3ba"/><path d="m14.2 17.4h3.1v-1.6h-3.1z" fill="#a0b3ba"/><path d="m14.4 20.3c1.8 1.8 1.8 4.8 0 6.7-1.8 1.8-4.8 1.8-6.7 0-1.8-1.8-1.8-4.8 0-6.7 1.9-1.8 4.9-1.8 6.7 0z" fill="#40494d"/><path d="m10.6 21-.3 1.9-1.9.3c-.6-.6-.6-1.6 0-2.2s1.6-.6 2.2 0z" fill="#222c30"/><path d="m10.6 21c.6.6.6 1.6 0 2.2s-1.6.6-2.2 0z" fill="#647278"/><path d="m7.9 52.1h1.6v-15.8h-1.6zm4.7 0h1.6v-15.8h-1.6z" fill="#40494d"/><path d="m7.1 45.8h3.2v1.6l-1.6 1.5-1.6-1.5z" fill="#a0b3ba"/><path d="m7.1 47.4h3.2v1.5h-3.2z" fill="#fff"/><path d="m11.8 39.5h3.2v1.6l-1.6 1.5-1.6-1.5z" fill="#a0b3ba"/><path d="m11.8 41.1h3.2v1.5h-3.2z" fill="#fff"/><path d="m1.6 55.3h56.8v1.6c0 1.7-1.4 3.2-3.2 3.2h-50.5c-1.7 0-3.2-1.4-3.2-3.2v-1.6z" fill="#9e5031"/><g fill="#40494d"><path d="m45.3 9.9c.6.6.6 1.6 0 2.2s-1.6.6-2.2 0-.6-1.6 0-2.2 1.6-.6 2.2 0z"/><path d="m51.6 9.9c.6.6.6 1.6 0 2.2s-1.6.6-2.2 0-.6-1.6 0-2.2 1.6-.6 2.2 0z"/><path d="m22.1 11.8h3.2v-1.6h-3.2zm12.6 0h3.2v-1.6h-3.2zm-6.3 0h3.2v-1.6h-3.2z"/><path d="m22.1 42.6h6.3v6.3h-6.3zm0-15.8h6.3v6.3h-6.3zm0-7.9h6.3v6.3h-6.3zm7.9 0h6.3v6.3h-6.3zm7.9 0h6.3v6.3h-6.3zm7.9 0h6.3v6.3h-6.3zm0 7.9h6.3v6.3h-6.3zm-7.9 0h6.3v6.3h-6.3zm-7.9 0h6.3v6.3h-6.3zm-7.9 7.9h6.3v6.3h-6.3zm7.9 0h6.3v6.3h-6.3zm7.9 0h6.3v6.3h-6.3zm7.9 0h6.3v6.3h-6.3zm0 7.9h6.3v6.3h-6.3zm-7.9 0h6.3v6.3h-6.3zm-7.9 0h6.3v6.3h-6.3z"/></g></svg>