<svg enable-background="new 0 0 60 60" height="60" viewBox="0 0 60 60" width="60" xmlns="http://www.w3.org/2000/svg"><path d="m19.2 23.1c1.1-1.4 2.9-1.6 2.8-1.8.4-.5.6-.8.7-1.1l10.1-10.6c.5-.5.9-1 .8-1.1s-.5.3-1 .8l-10.1 10.6c-.3.1-.7.4-1.2.9-.1-.2-1.3.6-2.8 2-1.6 1.4-3 2.9-3 3.3 0 .2.3.3.6.2.4-.1 1.8-1.5 3.1-3.2z" fill="#808184"/><path d="m29.9 10c.2-.1.5-.3.6-.5.1 0 .2-.1.2-.1l1.3.6c.1 0 .2 0 .2-.1s0-.2 0-.2l-1.3-.6c0-.1 0-.2 0-.3.1-.2.1-.5 0-.8s-.3-.3-.4-.1c-.1.1-.1.3-.1.5-.2 0-.3.1-.4.3s-.1.4 0 .6c-.2.1-.3.3-.3.4-.2.3-.1.4.2.3z" fill="#404041"/><path d="m34.2 5.1c-.8-.3-1.8.2-2.1 1.1l-.7 2.1c-.3.9.1 1.8 1 2.1.8.3 1.8-.2 2.1-1.1l.7-2.1c.3-.9-.2-1.8-1-2.1z" fill="#bbbdbf"/><path d="m17.2 2.2c-.5 1.5 7.1 3.5 17.1 4.5s18.5.7 19-.8-7.1-3.5-17.1-4.5-18.5-.6-19 .8z" fill="#00572c"/><path d="m31.5 1.8c0 .5 1.5 1 3.4 1.1s3.5-.2 3.5-.7-1.5-1-3.4-1.1-3.5.2-3.5.7z" fill="#f6921e"/><path d="m34.8 1.2c-.3 0-.6.1-.7.2v.3c0 .1.3.3.6.3.3 0 .6-.1.7-.2v-.3c0-.1-.3-.3-.6-.3z" fill="#bbbdbf"/><path d="m34.8 0c-.4 0-.8.5-.8 1.1s.3.7.7.6c.5 0 .9-.1.9-.7 0-.5-.3-1-.8-1z" fill="#d0d2d3"/><path d="m34.7 1.6c.5 0 .7-.3.7-.3.1 0-.4.3-.7.3-.4 0-.7-.3-.7-.3s.2.3.7.3z" fill="#e6e7e8"/><path d="m35.2.4c-.1-.1-.3 0-.4.2s-.2.3-.1.4.3 0 .4-.2.1-.4.1-.4z" fill="#e6e7e8"/><path d="m46.7 6.6c4.6-.7 2.7-2.4 2.7-2.4s1.3 1.3-1.9 1.9c-6.4 1.1-8.6 0-8.6.1 0 0 3.4 1.1 7.8.4z" fill="#fff" opacity=".5"/><path d="m25.4 18.6-5.9 3.1c-.2.1-.3.4-.2.6.1.2.4.3.7.2l5.9-3.1c.2-.1.3-.4.2-.6-.2-.3-.5-.4-.7-.2z" fill="#808184"/><path d="m15.3 18.8 5.9 3.1c.2.1.3.4.2.6-.1.2-.4.3-.7.2l-5.9-3.1c-.2-.1-.3-.4-.2-.6.1-.2.4-.3.7-.2z" fill="#808184"/><path d="m8.6 55.1c-.6-.1-1.1.5-1.2 1.3l-.7 3c-.1.8.9.5 1.5.6.9-.2 1.2-.5 1.2-1.3l.1-1.9c.2-.8-.3-1.6-.9-1.7z" fill="#231f20"/><path d="m22.6 36.1c-.2-.2-.4-.3-.5-.1l-7.2 11.7-1.7.4h-.1l-4.9 8c-.1.1 0 .4.2.6.2.2.4.3.4.2l4.7-7.6 1.5-.3c.1 0 .1 0 .2-.1l7.5-12.1c.1-.2 0-.5-.1-.7z" fill="#404041"/><path d="m30.8 54.8c.6-.1 1.2.5 1.2 1.2l.7 2.9c.1.8-.9.5-1.5.6-.9-.2-1.2-.5-1.2-1.2l-.2-1.8c-.1-.9.4-1.6 1-1.7z" fill="#231f20"/><path d="m16.7 36.6c.2-.2.4-.2.5-.1l7.2 11.2 1.7.4h.1l4.9 7.6c.1.1 0 .4-.2.6-.2.2-.4.3-.4.2l-4.7-7.3-1.5-.4c-.1 0-.1 0-.2-.1l-7.5-11.6c-.1 0 0-.3.1-.5z" fill="#404041"/><path d="m20.3 54.5c-.5-.1-1.1.4-1.1 1.1l-.2 2.6c0 .7.8.4 1.3.5.7-.2.9-.4.9-1.1v-1.7c0-.7-.4-1.3-.9-1.4z" fill="#231f20"/><path d="m19.7 45.8c.2.1.3.2.3.3l-.1 5.7.8 1.2v.1 3.9c0 .1-.1 0-.3-.1-.2-.1-.3-.2-.3-.3v-3.7l-.7-1.1-.1-.1.1-5.9c0-.1.1-.1.3 0z" fill="#404041"/><path d="m20 22.7c-.5 0-1 4.1-1 9v11.7c0 5 .4 9 1 9 .5 0 1-4.1 1-9v-11.7c-.1-5-.5-9-1-9z" fill="#bbbdbf"/><path d="m20 20.2c-.8 0-1.5.6-1.5 1.4v1.8c0 .8.7 1.4 1.5 1.4.8 0 1.5-.6 1.5-1.4v-1.8c0-.7-.6-1.4-1.5-1.4z" fill="#58595b"/><path d="m20.1 23.1c-.3 0-.5.2-.5.5v.6c0 .3.2.5.5.5.3 0 .5-.2.5-.5v-.6c0-.3-.2-.5-.5-.5z" fill="#404041"/><path d="m20.5 20.7c-.5 0-.9.4-.9.9v1.1c0 .5.4.9.9.9.5 0 .9-.4.9-.9v-1.1c.1-.5-.4-.9-.9-.9z" fill="#bbbdbf"/><path d="m20.1 39.9c-.3 0-.5.2-.5.5v.6c0 .3.2.5.5.5.3 0 .5-.2.5-.5v-.6c0-.3-.2-.5-.5-.5z" fill="#404041"/><g fill="#808184"><path d="m20.9 50.8-5.7-3.3c-.2-.1-.5-.1-.7.1-.1.2-.1.5.2.6l5.7 3.3c.2.1.5.1.7-.1.1-.2 0-.5-.2-.6z"/><path d="m24.7 47.6-5.9 3.1c-.2.1-.3.4-.2.6.1.2.4.3.7.2l5.9-3.1c.2-.1.3-.4.2-.6-.2-.3-.5-.3-.7-.2z"/></g></svg>