<svg enable-background="new 0 0 60 60" height="60" viewBox="0 0 60 60" width="60" xmlns="http://www.w3.org/2000/svg"><path d="m30.1 10.2c-.2-.1-.5-.3-.6-.5-.1 0-.1-.1-.2-.1l-1.3.5c-.1 0-.2 0-.2-.1s0-.2 0-.2l1.3-.6c0-.1 0-.2 0-.3-.1-.2-.1-.5 0-.8s.3-.3.4-.1c.1.1.1.3.1.5.2 0 .3.1.4.3s.1.4 0 .6c.2.1.3.3.3.4.2.3.1.5-.2.4z" fill="#404041"/><path d="m39.8 24.2c-1.1-1.4-1.9-2.6-1.8-2.8-.4-.5-.6-.8-.7-1.1l-10.1-10.5c-.5-.5-.9-1-.8-1.1s.5.3 1 .8l10 10.5c.3.1.7.4 1.2.9.1-.2 1.3.6 2.8 2 1.6 1.4 3 2.9 3 3.3 0 .2-1.3 1.3-1.6 1.2s-1.7-1.5-3-3.2z" fill="#808184"/><path d="m25.7 5.3c.9-.3 1.8.2 2.1 1.2l.7 2.3c.3 1-.2 2-1 2.3-.9.3-1.8-.2-2.1-1.2l-.7-2.3c-.3-1 .1-2 1-2.3z" fill="#bbbdbf"/><path d="m43.4 4.6c.6 1.2-6.8 3.2-16.6 4.6s-18.3 1.5-18.9.3c-.6-1.1 6.8-3.2 16.6-4.5s18.3-1.6 18.9-.4z" fill="#bb8f5a"/><ellipse cx="24.8" cy="4.3" fill="#fabe78" rx="18.1" ry="2.7" transform="matrix(.9953 -.09639341 .09639341 .9953 -.2998 2.4114)"/><ellipse cx="24.9" cy="2.2" fill="#f6921e" rx="5.8" ry=".9" transform="matrix(.9934 -.1143 .1143 .9934 -.083231 2.8611)"/><path d="m39.6 55.3c.5-.1 1 .4 1 1.1 0 0 .5 2.6.5 2.6.1.6-.9.5-1.3.5-.7-.1-1-.2-1-.9l-.1-1.9c0-.7.4-1.3.9-1.4z" fill="#231f20"/><path d="m34.6 18.7 5.8 3.1c.2.1.3.4.2.6-.1.2-.4.3-.7.2l-5.8-3.1c-.2-.1-.3-.4-.2-.6.2-.2.5-.3.7-.2z" fill="#808184"/><path d="m44.7 19-5.8 3c-.2.1-.3.4-.2.6.1.2.4.3.7.2l5.8-3.1c.2-.1.3-.4.2-.6-.1-.2-.4-.3-.7-.1z" fill="#808184"/><path d="m51.4 55.1c.6-.1 1.2.5 1.2 1.3l.7 3c.1.8-.9.5-1.5.6-.9-.2-1.2-.5-1.2-1.3l-.1-1.9c-.2-.8.2-1.6.9-1.7z" fill="#231f20"/><path d="m37.4 36.2c.2-.2.4-.3.5-.1l7.2 11.6 1.7.4h.1l4.9 7.9c.1.1 0 .4-.2.6-.2.2-.4.3-.4.2l-4.7-7.6-1.6-.2c-.1 0-.1 0-.2-.1l-7.4-12c-.1-.2-.1-.5.1-.7z" fill="#404041"/><path d="m37.2 36.2c.2-.2.4-.3.5-.1l7.2 11.6 1.7.4h.1l4.9 7.9c.1.1 0 .4-.2.6-.2.4-.4.5-.4.4l-4.7-7.6-1.6-.4c-.1 0-.1 0-.2-.1l-7.4-12c-.1-.2 0-.5.1-.7z" fill="#404041"/><path d="m29.2 54.8c-.6-.1-1.2.5-1.2 1.2l-.7 2.9c-.1.8.9.5 1.5.6.9-.2 1.2-.5 1.2-1.2l.1-1.8c.2-.9-.3-1.6-.9-1.7z" fill="#231f20"/><path d="m43.2 36.7c-.2-.2-.4-.2-.5-.1l-7.2 11.1-1.7.4h-.1l-4.9 7.6c-.1.1 0 .4.2.6.2.2.4.3.4.2l4.7-7.2 1.5-.4c.1 0 .1 0 .2-.1l7.5-11.5c.1-.1.1-.4-.1-.6z" fill="#404041"/><path d="m40.3 45.8c-.2.1-.3.2-.3.3l.1 5.7-.8 1.2v.1 3.9c0 .1.1 0 .3-.1.2-.1.3-.2.3-.3v-3.7l.7-1.1s.1-.1.1-.1l-.1-5.9c0-.1-.2-.1-.3 0z" fill="#404041"/><path d="m40 22.8c.5 0 1 4 1 9v11.7c0 4.9-.4 9-1 9-.5 0-1-4-1-9v-11.7c.1-4.9.5-9 1-9z" fill="#bbbdbf"/><path d="m39.9 20.4c.8 0 1.5.6 1.5 1.4v1.8c0 .8-.7 1.4-1.5 1.4-.8 0-1.5-.6-1.5-1.4v-1.8c0-.8.7-1.4 1.5-1.4z" fill="#58595b"/><path d="m39.9 23.3c.3 0 .5.2.5.5v.6c0 .3-.2.5-.5.5-.3 0-.5-.2-.5-.5v-.6c0-.3.2-.5.5-.5z" fill="#404041"/><path d="m37.6 21.3c.1.1.2.3.2.5 0 0 .1.1.1.2h1.1c.1 0 .1.1.1.1 0 .1 0 .1-.1.1h-1.1c0 .1-.1.1-.1.2 0 .2-.1.4-.2.5-.2.1-.3.1-.3-.1 0-.1 0-.2.1-.4-.1-.1-.2-.2-.2-.3s.1-.3.2-.4c-.1-.1-.1-.3-.1-.4s.1-.2.3 0z" fill="#404041"/><path d="m39.5 20.8c.5 0 .9.4.9.9v1.1c0 .5-.4.9-.9.9-.5 0-.9-.4-.9-.9v-1.1c-.1-.5.3-.9.9-.9z" fill="#bbbdbf"/><path d="m39.9 40c.3 0 .5.2.5.5v.5c0 .3-.2.5-.5.5-.3 0-.5-.2-.5-.5v-.6c0-.2.2-.4.5-.4z" fill="#404041"/><path d="m39.1 50.8 5.7-3.3c.2-.1.5-.1.7.1.1.2.1.5-.2.6l-5.7 3.3c-.2.1-.5.1-.7-.1-.1-.2 0-.5.2-.6z" fill="#808184"/><path d="m35.3 47.6 5.8 3.1c.2.1.3.4.2.6-.1.2-.4.3-.7.2l-5.8-3.1c-.2-.1-.3-.4-.2-.6.2-.2.5-.3.7-.2z" fill="#808184"/><path d="m25 1.4c.3-.1.6 0 .6.1l.1.4c0 .2-.2.4-.5.5-.3.1-.6 0-.6-.1l-.1-.4c0-.2.2-.4.5-.5z" fill="#bbbdbf"/><path d="m24.8 0c.4-.1.8.4.9 1.1s-.2.8-.6.9-.8.1-.9-.6c0-.7.2-1.3.6-1.4z" fill="#d0d2d3"/><g fill="#e6e7e8"><path d="m25.1 1.9c-.5.1-.7-.2-.7-.2 0-.1.5.2.7.2.4-.2.6-.5.6-.5s-.1.3-.6.5z"/><path d="m24.6.5c.1-.1.2 0 .4.1.1.2.2.3.1.4s-.2 0-.4-.1c-.1-.1-.2-.3-.1-.4z"/></g></svg>