<svg enable-background="new 0 0 60 60" height="60" viewBox="0 0 60 60" width="60" xmlns="http://www.w3.org/2000/svg"><path d="m35.9 24.5c-.9-1.4-1.4-2.6-1.4-2.8-.3-.5-.5-.8-.6-1.1l-7.8-10.5c-.4-.5-.7-1-.6-1.1s.4.3.8.8l7.8 10.4c.2.1.5.4.9.9.1-.2 1 .6 2.2 1.9 1.2 1.4 2.3 2.9 2.3 3.2 0 .2-1 1.3-1.2 1.2-.3.1-1.4-1.3-2.4-2.9z" fill="#808184"/><path d="m28.4 10.5c-.2-.1-.4-.3-.4-.5-.1 0-.1-.1-.2-.1l-1 .6c-.1 0-.1 0-.1-.1s0-.2 0-.2l1-.6c0-.1 0-.2 0-.3-.1-.2-.1-.5 0-.8.1-.2.2-.3.3-.1.1.1.1.3.1.5.1 0 .3.1.3.3.1.2.1.4 0 .6.1.1.2.3.3.4 0 .3-.1.4-.3.3z" fill="#404041"/><path d="m25 5.7c.6-.3 1.4.2 1.6 1.1l.5 2.1c.2.9-.1 1.8-.8 2.1-.6.3-1.4-.2-1.6-1.1l-.5-2.1c-.1-.9.2-1.8.8-2.1z" fill="#bbbdbf"/><ellipse cx="24.5" cy="3.8" fill="#c12127" rx="10.9" ry="3.4" transform="matrix(.9867 -.1626 .1626 .9867 -.2914 4.0334)"/><path d="m26.3 1.8c.1.5-.8 1.1-1.9 1.3s-2.1 0-2.2-.5.8-1.1 1.9-1.3c1.2-.2 2.2 0 2.2.5z" fill="#f6921e"/><path d="m24.2 1.7c.3-.1.5 0 .5.1l.1.3c0 .1-.2.3-.4.4-.3.1-.5 0-.5-.1l-.1-.4c0-.1.2-.3.4-.3z" fill="#bbbdbf"/><path d="m24 .5c.3-.1.7.3.8.9s-.1.7-.5.8c-.3.1-.7.1-.8-.5s.2-1.1.5-1.2z" fill="#d0d2d3"/><path d="m24.3 2.1c-.4.1-.6-.2-.6-.2s.4.2.6.2c.3-.2.5-.4.5-.4s-.1.3-.5.4z" fill="#e6e7e8"/><path d="m23.8.9c.1-.1.2 0 .3.1s.2.3.1.4-.2 0-.3-.1-.1-.3-.1-.4z" fill="#e6e7e8"/><path d="m32.1 1c2.8.7 2.1 1.8 2.1 1.8s.5-.9-1.5-1.4c-4-1.1-5-.4-5-.5-.1 0 1.6-.6 4.4.1z" fill="#fff" opacity=".5"/><path d="m35.7 55.2c.4-.1 1 .4 1 1.2l.3 2.7c0 .7-.6.4-1.1.5-.6-.2-.8-.4-.9-1.2v-1.7c0-.8.3-1.5.7-1.5z" fill="#231f20"/><path d="m31.8 19 4.5 3.1c.2.1.2.4.1.6-.1.2-.3.3-.5.2l-4.5-3.1c-.2-.1-.2-.4-.1-.6.1-.2.4-.3.5-.2z" fill="#808184"/><path d="m39.7 19.3-4.5 3.1c-.2.1-.2.4-.1.6.1.2.3.3.5.2l4.5-3.1c.2-.1.2-.4.1-.6-.1-.3-.3-.4-.5-.2z" fill="#808184"/><path d="m44.9 55.2c.5-.1.9.5.9 1.3l.5 3c0 .8-.7.5-1.2.6-.7-.2-.9-.5-.9-1.3l-.1-1.9c0-.9.3-1.6.8-1.7z" fill="#231f20"/><path d="m34 36.4c.1-.2.3-.2.4-.1l5.6 11.5 1.3.4h.1l3.8 7.9c.1.1 0 .4-.1.6-.1.2-.3.3-.3.2l-3.6-7.5-1.2-.4c-.1 0-.1 0-.1-.1l-5.9-11.8c-.1-.2-.1-.5 0-.7z" fill="#404041"/><path d="m27.7 54.9c-.5-.1-.9.4-.9 1.2l-.5 2.8c0 .8.7.5 1.2.6.7-.2.9-.4.9-1.2l.1-1.8c0-.8-.3-1.5-.8-1.6z" fill="#231f20"/><path d="m38.6 36.9c-.1-.2-.3-.2-.4-.1l-5.6 11-1.3.4h-.1l-3.8 7.5c-.1.1 0 .4.1.6.1.2.3.3.3.2l3.7-7.2 1.2-.4c.1 0 .1 0 .1-.1l5.8-11.4c.1 0 .1-.3 0-.5z" fill="#404041"/><path d="m36.3 45.9c-.1.1-.2.2-.2.3l.1 5.6-.7 1.2v.1 3.8c0 .1.1 0 .2-.1.1-.1.2-.2.2-.3v-3.7l.5-1.1v-.1l-.1-5.7c.2-.1.1-.1 0 0z" fill="#404041"/><path d="m36.1 23.1c.4 0 .8 4 .8 8.9v11.6c0 4.9-.3 8.9-.8 8.9-.4 0-.8-4-.8-8.9v-11.6c0-4.9.4-8.9.8-8.9z" fill="#bbbdbf"/><path d="m36 20.7c.6 0 1.2.6 1.2 1.4v1.8c0 .8-.5 1.4-1.2 1.4-.6 0-1.2-.6-1.2-1.4v-1.8c0-.8.6-1.4 1.2-1.4z" fill="#58595b"/><path d="m36 23.5c.2 0 .4.2.4.5v.6c0 .3-.2.5-.4.5-.2 0-.4-.2-.4-.5v-.6c0-.3.2-.5.4-.5z" fill="#404041"/><path d="m34.2 21.6c.1.1.2.3.2.5 0 0 .1.1.1.2h.8l.1.1c0 .1 0 .1-.1.1h-.8c0 .1 0 .1-.1.2 0 .2-.1.4-.2.5s-.2.1-.3-.1c0-.1 0-.2.1-.4-.1-.1-.1-.2-.1-.3s.1-.3.1-.4c-.1-.1-.1-.3-.1-.4.1-.1.2-.2.3 0z" fill="#404041"/><path d="m35.6 21.1c.4 0 .7.4.7.8v1.1c0 .5-.3.8-.7.8-.4 0-.7-.4-.7-.8v-1c0-.5.3-.9.7-.9z" fill="#bbbdbf"/><path d="m36 40.1c.2 0 .4.2.4.5v.6c0 .3-.2.5-.4.5-.2 0-.4-.2-.4-.5v-.6c0-.3.1-.5.4-.5z" fill="#404041"/><g fill="#808184"><path d="m35.3 50.9 4.4-3.3c.2-.1.4-.1.5.1.1.2.1.5-.1.6l-4.4 3.3c-.2.1-.4.1-.5-.1-.1-.2 0-.5.1-.6z"/><path d="m32.4 47.7 4.5 3.1c.2.1.2.4.1.6-.1.2-.3.3-.5.2l-4.5-3.1c-.2-.1-.2-.4-.1-.6.1-.2.3-.3.5-.2z"/></g></svg>