<svg height="106.121" width="60" xmlns="http://www.w3.org/2000/svg"><path d="m56.34 98.8c-.38 0-.74.06-1.1.17-6.26-7.4-12.53-14.82-18.8-22.23 0-16.83 0-33.66 0-50.5 3.33 2.9 6.67 5.8 10 8.72 1.4 1.2 3.43-.8 2.03-2.02-4.16-3.62-8.3-7.24-12.47-10.86 0 0 0 0-.02-.02-1.48-1.3-2.96-2.58-4.44-3.87 8.76-3.36 14.46-8.47 13.46-12.67-1.25-5.19-12.3-7.06-24.68-4.14-12.4 2.92-21.44 9.52-20.22 14.75 1.24 5.2 12.28 7.07 24.68 4.15 1.25-.3 2.47-.63 3.65-1 1.7 1.5 3.43 3 5.14 4.48v52.93c-7.14 7.45-14.3 14.9-21.43 22.35-.4-.15-.84-.23-1.3-.23-2.02 0-3.65 1.64-3.65 3.66s1.6 3.66 3.63 3.66 3.66-1.64 3.66-3.66c0-.5-.1-1-.3-1.44 6.45-6.73 12.9-13.47 19.37-20.2v11.23 2.28c0 1.84 2.86 1.84 2.86 0 0-4.4 0-8.78 0-13.17 5.55 6.55 11.1 13.1 16.64 19.66-.25.5-.4 1.05-.4 1.64 0 2.02 1.64 3.66 3.66 3.66s3.66-1.64 3.66-3.66-1.65-3.65-3.67-3.65z"/></svg>