<svg enable-background="new 0 0 60 60" height="60" viewBox="0 0 60 60" width="60" xmlns="http://www.w3.org/2000/svg"><path d="m20.9 24.1c1.2-1.4 3-1.5 2.9-1.7.4-.5.7-.8.8-1.1l10.7-10.3c.5-.5.9-1 .8-1-.1-.1-.6.3-1.1.8l-10.6 10.2c-.3.1-.7.4-1.3.9-.2-.2-1.4.6-3 1.9-1.7 1.4-3.1 2.8-3.2 3.2 0 .2.4.2.6.2.5-.1 2-1.5 3.4-3.1z" fill="#808184"/><path d="m32.2 11.4c.2-.1.5-.3.6-.4.1 0 .2-.1.2-.1l1.4.6c.1 0 .2 0 .2-.1s0-.2 0-.2l-1.4-.6c0-.1 0-.2 0-.3.1-.2.1-.5 0-.7s-.3-.3-.5-.1c-.1.1-.1.3-.1.5-.2 0-.3.1-.4.3s-.1.4 0 .6c-.2.1-.3.3-.4.4 0 .1.1.2.4.1z" fill="#404041"/><path d="m36.8 6.6c-.9-.3-1.9.2-2.2 1.1l-.7 2c-.3.9.2 1.8 1 2 .9.3 1.9-.2 2.2-1.1l.7-2c.3-.8-.1-1.7-1-2z" fill="#bbbdbf"/><ellipse cx="37.5" cy="4.2" fill="#249ac1" rx="3.7" ry="15.1" transform="matrix(.1404 -.9901 .9901 .1404 28.0429 40.7863)"/><path d="m35 2.8c-.1.5 1.1 1.1 2.7 1.3s2.9 0 3-.4c.1-.5-1.1-1.1-2.7-1.3s-2.9 0-3 .4z" fill="#f6921e"/><path d="m37.9 2.7c-.4-.1-.7 0-.7.1l-.1.3c0 .1.2.3.6.4.4.1.7 0 .7-.1l.1-.3c0-.2-.2-.3-.6-.4z" fill="#bbbdbf"/><path d="m38.2 1.5c-.5-.1-1 .3-1.1.9s.2.7.7.7c.5.1.9.1 1.1-.5s-.3-1-.7-1.1z" fill="#d0d2d3"/><path d="m37.8 3.1c.5.1.8-.2.8-.2s-.5.2-.8.2c-.5-.2-.7-.4-.7-.4s.1.3.7.4z" fill="#e6e7e8"/><path d="m38.4 2c-.1-.1-.3 0-.5.1s-.2.3-.2.4c.1.1.3 0 .5-.1.3-.2.3-.4.2-.4z" fill="#e6e7e8"/><path d="m48.3 7.7c3.9-.8 2.2-3 2.2-3.1s1.1 1.7-1.6 2.4c-5.4 1.4-7.2 0-7.2.1.1.1 2.9 1.4 6.6.6z" fill="#fff" opacity=".5"/><path d="m27.5 19.7-6.2 3c-.2.1-.3.4-.2.6.1.2.5.3.7.2l6.2-3c.2-.1.3-.4.2-.6-.2-.2-.5-.3-.7-.2z" fill="#808184"/><path d="m16.7 20 6.2 3c.2.1.3.4.2.6-.1.2-.5.3-.7.2l-6.2-3c-.2-.1-.3-.4-.2-.6.1-.3.4-.3.7-.2z" fill="#808184"/><path d="m9.6 55.2c-.6-.1-1.2.5-1.3 1.3l-.7 2.9c-.1.8.9.5 1.6.6.9-.2 1.2-.5 1.3-1.3l.2-1.9c0-.7-.5-1.5-1.1-1.6z" fill="#231f20"/><path d="m24.5 36.8c-.2-.2-.4-.2-.5-.1l-7.7 11.3-1.8.4h-.1l-5.2 7.7c-.1.1 0 .4.2.6.2.3.4.4.4.3l5-7.4 1.6-.4c.1 0 .1 0 .2-.1l7.9-11.7c.2-.1.1-.4 0-.6z" fill="#404041"/><path d="m33.2 55c.6-.1 1.2.4 1.3 1.2l.7 2.8c.1.8-.9.5-1.6.6-.9-.2-1.2-.4-1.3-1.2l-.2-1.8c-.1-.8.4-1.5 1.1-1.6z" fill="#231f20"/><path d="m18.2 37.3c.2-.2.4-.2.5-.1l7.7 10.9 1.8.4h.1l5.3 7.4c.1.1 0 .4-.2.6-.2.2-.4.3-.5.2l-5-7.1-1.6-.3c-.1 0-.1 0-.2-.1l-8-11.2c-.1-.2 0-.5.1-.7z" fill="#404041"/><path d="m22.1 55.4c-.5-.1-1.2.4-1.2 1.1l-.3 2.6c0 .7.8.4 1.3.5.8-.2 1-.4 1-1.1v-1.7c.2-.6-.2-1.3-.8-1.4z" fill="#231f20"/><path d="m21.4 46.2c.2.1.3.2.3.3l-.1 5.5.8 1.2v.1 3.7c0 .1-.1 0-.3-.1-.2-.1-.3-.2-.3-.3l.1-3.6-.8-1-.1-.1.1-5.7c0-.1.1-.1.3 0z" fill="#404041"/><path d="m21.7 23.7c-.6 0-1 4-1 8.8v11.4c0 4.8.5 8.8 1 8.8.6 0 1-4 1-8.8v-11.4c0-4.8-.5-8.8-1-8.8z" fill="#bbbdbf"/><path d="m21.7 21.4c-.9 0-1.6.6-1.6 1.4v1.8c0 .8.7 1.4 1.6 1.4.9 0 1.6-.6 1.6-1.4v-1.8c0-.8-.7-1.4-1.6-1.4z" fill="#58595b"/><path d="m21.8 24.2c-.3 0-.5.2-.5.5v.6c0 .3.2.5.5.5.3 0 .5-.2.5-.5v-.6c0-.3-.2-.5-.5-.5z" fill="#404041"/><path d="m22.3 21.8c-.5 0-1 .4-1 .8v1.1c0 .5.4.8 1 .8.5 0 1-.4 1-.8v-1.1c0-.4-.5-.8-1-.8z" fill="#bbbdbf"/><path d="m21.8 40.5c-.3 0-.5.2-.5.5v.6c0 .3.2.5.5.5.3 0 .5-.2.5-.5v-.6c.1-.3-.2-.5-.5-.5z" fill="#404041"/><g fill="#808184"><path d="m22.7 51-6.1-3.2c-.2-.1-.6-.1-.7.1-.2.2-.1.5.2.6l6.1 3.2c.2.1.6.1.7-.1.1-.2 0-.4-.2-.6z"/><path d="m26.7 47.9-6.2 3c-.2.1-.3.4-.2.6.1.2.5.3.7.2l6.2-3c.2-.1.3-.4.2-.6-.1-.2-.4-.3-.7-.2z"/></g></svg>