<svg enable-background="new 0 0 60 106.1" height="106.1" viewBox="0 0 60 106.1" width="60" xmlns="http://www.w3.org/2000/svg"><path d="m56.3 98.8c-.4 0-.7.1-1.1.2-6.2-7.4-12.5-14.8-18.8-22.3 0-16.8 0-33.7 0-50.5 3.3 2.9 6.7 5.8 10 8.7 1.4 1.2 3.4-.8 2-2-4.2-3.6-8.3-7.2-12.5-10.9-1.5-1.3-3-2.6-4.4-3.9 8.8-3.3 14.5-8.4 13.5-12.6-1.2-5.2-12.3-7.1-24.7-4.1-12.4 2.9-21.4 9.5-20.2 14.7s12.3 7.1 24.7 4.1c1.2-.3 2.5-.6 3.6-1l5.1 4.5v52.9c-7.1 7.5-14.2 15-21.4 22.4-.4-.2-.8-.2-1.3-.2-2 0-3.7 1.6-3.7 3.7 0 2 1.6 3.7 3.6 3.7s3.7-1.6 3.7-3.7c0-.5-.1-1-.3-1.4 6.4-6.7 12.9-13.5 19.4-20.2v11.2 2.3c0 1.8 2.9 1.8 2.9 0 0-4.4 0-8.8 0-13.2 5.6 6.5 11.1 13.1 16.6 19.6-.2.5-.4 1.1-.4 1.6 0 2 1.6 3.7 3.7 3.7s3.7-1.6 3.7-3.7c0-1.9-1.7-3.6-3.7-3.6z" fill="#c12127"/></svg>