<svg height="60" viewBox="0 0 60 60" width="60" xmlns="http://www.w3.org/2000/svg"><path d="m.8 27.6h47.3v12.7h-47.3z" fill="#231f20"/><path d="m.4 27.7 11.5-8h47.7l-11.5 8z" fill="#231f20"/><path d="m59.2 19.8-11.1 7.8h-47.3l11.1-7.8zm.8-.3h-48.2-.1l-11.1 7.9-.6.5h48.2.1l11.1-7.9s.6-.5.6-.5z" fill="#fff"/><path d="m48.3 40.3-.2-12.5.1-.1 10.9-8 .2.1v12.6.1l-10.8 7.9z" fill="#231f20"/><path d="m59.2 19.8v12.7l-10.8 7.8-.2-12.5zm-.2-.2-11 8v.2l.2 12.5.4.2 10.8-7.8.1-.2v-12.7z" fill="#fff"/><ellipse cx="10.2" cy="33.8" fill="#fff" rx="5.3" ry="5"/><path d="m10.2 39c-3 0-5.5-2.3-5.5-5.2s2.5-5.2 5.5-5.2 5.5 2.3 5.5 5.2-2.5 5.2-5.5 5.2zm0-9.9c-2.8 0-5 2.1-5 4.7s2.2 4.7 5 4.7 5-2.1 5-4.7-2.3-4.7-5-4.7z" fill="#231f20"/><ellipse cx="10.3" cy="35.6" fill="#231f20" rx="1.1" ry="1.1"/><path d="m10.3 36.9c-.8 0-1.4-.6-1.4-1.3s.6-1.3 1.4-1.3 1.4.6 1.4 1.3-.7 1.3-1.4 1.3zm0-2.1c-.5 0-.9.4-.9.8s.4.8.9.8.9-.4.9-.8-.4-.8-.9-.8z" fill="#fff"/><ellipse cx="7.8" cy="32.4" fill="#231f20" rx="1.1" ry="1.1"/><path d="m7.8 33.7c-.8 0-1.4-.6-1.4-1.3s.6-1.3 1.4-1.3 1.4.6 1.4 1.3-.6 1.3-1.4 1.3zm0-2.1c-.5 0-.8.4-.8.8s.4.8.9.8.9-.4.9-.8-.5-.8-1-.8z" fill="#fff"/><ellipse cx="12.7" cy="32.4" fill="#231f20" rx="1.1" ry="1.1"/><path d="m12.7 33.7c-.8 0-1.4-.6-1.4-1.3s.6-1.3 1.4-1.3 1.4.6 1.4 1.3-.6 1.3-1.4 1.3zm0-2.1c-.5 0-.9.4-.9.8s.4.8.9.8.9-.4.9-.8-.4-.8-.9-.8z" fill="#fff"/><ellipse cx="35.3" cy="33.5" fill="#fff" rx="5.3" ry="5"/><path d="m35.3 38.7c-3 0-5.5-2.3-5.5-5.2s2.5-5.2 5.5-5.2 5.5 2.3 5.5 5.2-2.5 5.2-5.5 5.2zm0-9.9c-2.8 0-5 2.1-5 4.7s2.2 4.7 5 4.7 5-2.1 5-4.7-2.3-4.7-5-4.7z" fill="#231f20"/><ellipse cx="35.4" cy="35.3" fill="#231f20" rx="1.1" ry="1.1"/><path d="m35.4 36.6c-.8 0-1.4-.6-1.4-1.3s.6-1.3 1.4-1.3 1.4.6 1.4 1.3-.7 1.3-1.4 1.3zm0-2.1c-.5 0-.9.4-.9.8s.4.8.9.8.9-.4.9-.8-.5-.8-.9-.8z" fill="#fff"/><ellipse cx="32.9" cy="32.1" fill="#231f20" rx="1.1" ry="1.1"/><path d="m32.9 33.4c-.8 0-1.4-.6-1.4-1.3s.6-1.3 1.4-1.3 1.4.6 1.4 1.3-.6 1.3-1.4 1.3zm0-2.1c-.5 0-.9.4-.9.8s.4.8.9.8.9-.4.9-.8-.4-.8-.9-.8z" fill="#fff"/><ellipse cx="37.8" cy="32.1" fill="#231f20" rx="1.1" ry="1.1"/><g fill="#fff"><path d="m37.8 33.4c-.8 0-1.4-.6-1.4-1.3s.6-1.3 1.4-1.3 1.4.6 1.4 1.3-.6 1.3-1.4 1.3zm0-2.1c-.5 0-.9.4-.9.8s.4.8.9.8.9-.4.9-.8-.4-.8-.9-.8z"/><path d="m21.4 20.6h7.9c1.6 0 2.7.1 3.4.2.7.2 1.1.4 1.3.7s.1.6-.3 1c-.3.4-.9.8-1.5 1.2-1.1.7-2.1 1.2-3.1 1.5-1 .4-2.1.7-3.2.9s-2.2.4-3.2.5c-1.3.1-2.5.2-3.4.1h-7.9s10-6.1 10-6.1zm3 1.4-5.5 3.4h1.3c1.1 0 2 0 2.6-.1s1.2-.2 1.9-.5c.6-.2 1.3-.6 2.2-1.1 1.1-.7 1.5-1.1 1.3-1.3s-1-.4-2.4-.4z"/><path d="m40.1 20.7h5.3l-10.1 6.2h-5.3z"/></g></svg>