<svg enable-background="new 0 0 60 60" height="60" viewBox="0 0 60 60" width="60" xmlns="http://www.w3.org/2000/svg"><path d="m2.3 13.9h56v32.3h-56z" fill="#af8424"/><path d="m.2 18.7h3.1v8.8h-3.1z" fill="#af8424"/><path d="m3.4 27.6h-3.4v-9.1h3.4zm-3.1-.3h2.7v-8.4h-2.7z" fill="#fff"/><path d="m.2 32.5h3.1v8.8h-3.1z" fill="#af8424"/><path d="m3.4 41.5h-3.4v-9.1h3.4zm-3.1-.3h2.7v-8.4h-2.7z" fill="#fff"/><path d="m56.8 18.7h3.1v8.8h-3.1z" fill="#af8424"/><path d="m60 27.6h-3.4v-9.1h3.4zm-3.1-.3h2.7v-8.4h-2.7z" fill="#fff"/><path d="m56.8 32.5h3.1v8.8h-3.1z" fill="#af8424"/><g fill="#fff"><path d="m60 41.5h-3.4v-9.1h3.4zm-3.1-.3h2.7v-8.4h-2.7z"/><path d="m15.2 20.3h8.9c1.7 0 3.2.2 4.2.7 1.1.5 2 1.2 2.7 2 .7.9 1.2 1.9 1.5 3.1s.5 2.4.5 3.7c0 2.1-.2 3.7-.7 4.8s-1.1 2.1-2 2.9c-.8.8-1.7 1.3-2.7 1.5-1.3.4-2.5.5-3.6.5h-8.9v-19.2zm6 4.4v10.5h1.5c1.2 0 2.1-.1 2.7-.4s.9-.8 1.2-1.4c.3-.7.4-1.8.4-3.4 0-2-.3-3.4-1-4.2s-1.8-1.1-3.3-1.1z"/><path d="m36.3 20.3h6v19.3h-6z"/></g></svg>