<svg enable-background="new 0 0 60 60" height="60" viewBox="0 0 60 60" width="60" xmlns="http://www.w3.org/2000/svg" xmlns:xlink="http://www.w3.org/1999/xlink"><linearGradient id="a"><stop offset="0" stop-color="#59595c"/><stop offset="1" stop-color="#221f1f"/></linearGradient><linearGradient id="b" gradientTransform="matrix(1 0 0 -1 0 60)" gradientUnits="userSpaceOnUse" x1="50.44" x2="50.44" xlink:href="#a" y1="52.2914" y2="49.3687"/><radialGradient id="c" cx="50.44" cy="54.5386" fx="52.9931" fy="55.2329" gradientTransform="matrix(1 0 0 -1 0 60)" gradientUnits="userSpaceOnUse" r="2.6459"><stop offset="0" stop-color="#221f1f"/><stop offset=".1844" stop-color="#101010"/><stop offset=".494" stop-color="#1e1e1e"/><stop offset=".7805" stop-color="#151515"/><stop offset="1"/></radialGradient><linearGradient id="d" gradientTransform="matrix(1 0 0 -1 0 60)" gradientUnits="userSpaceOnUse" x1="50.64" x2="50.64" xlink:href="#a" y1="40.1338" y2="38.7754"/><linearGradient id="e" gradientTransform="matrix(1 0 0 -1 0 60)" gradientUnits="userSpaceOnUse" x1="50.64" x2="50.64" xlink:href="#a" y1="35.8411" y2="34.4825"/><path d="m53.9 59.1c0 .5-.4.9-.9.9h-46c-.5 0-.9-.4-.9-.9v-54.9c0-.5.4-.9.9-.9h46c.5 0 .9.4.9.9z" fill="#ff5a00"/><path d="m46.7 0h-33.4c-.5 0-.9.4-.9.9v2.3 4 52.8h35.2v-52.8-4-2.3c0-.5-.4-.9-.9-.9z" fill="#020202"/><path d="m18.4 3.4h23.2v13.7h-23.2z" fill="#414141"/><ellipse cx="30" cy="39.4" fill="#fff" rx="16.8" ry="16.8"/><path d="m46.3 39.4c0 9-7.3 16.4-16.4 16.4s-16.4-7.3-16.4-16.4c0-9 7.3-16.4 16.4-16.4 9.1.1 16.4 7.4 16.4 16.4z" fill="#414141"/><path d="m45.9 39.4c0 8.8-7.2 16-16 16s-16-7.2-16-16 7.1-16 16-16c8.9.1 16 7.2 16 16z" fill="#817f7f"/><ellipse cx="30" cy="39.4" fill="#221f1f" rx="12.9" ry="12.9"/><path d="m42.4 39.4c0 6.9-5.6 12.4-12.4 12.4-6.9 0-12.4-5.6-12.4-12.4-.1-6.8 5.5-12.4 12.4-12.4 6.8 0 12.4 5.6 12.4 12.4z" fill="#636464"/><path d="m35 39.4c0 2.8-2.3 5.1-5.1 5.1s-5.1-2.3-5.1-5.1 2.3-5.1 5.1-5.1 5.1 2.3 5.1 5.1z" fill="#d7d7d7"/><path d="m34.8 39.4c0 2.7-2.2 4.9-4.9 4.9s-4.9-2.2-4.9-4.9 2.2-4.9 4.9-4.9c2.7.1 4.9 2.3 4.9 4.9z" fill="#221f1f"/><path d="m32.7 39.4c0 1.5-1.2 2.8-2.8 2.8-1.5 0-2.8-1.2-2.8-2.8 0-1.5 1.2-2.8 2.8-2.8 1.6.1 2.8 1.3 2.8 2.8z" fill="#babcbe"/><path d="m31.9 39.4c0 1-.9 1.9-1.9 1.9s-1.9-.8-1.9-1.9c0-1 .9-1.9 1.9-1.9s1.9.9 1.9 1.9z" fill="#464784"/><path d="m31.9 25c0 .6-.7 1.1-1.6 1.1s-1.6-.5-1.6-1.1.7-1.1 1.6-1.1c.9.1 1.6.6 1.6 1.1z" fill="#c6c5c4"/><path d="m41.5 30.6c-.4.4-1.3.3-1.9-.4-.6-.6-.8-1.5-.3-1.9s1.3-.3 1.9.4c.6.6.7 1.5.3 1.9z" fill="#c6c5c5"/><path d="m44.3 41.4c-.6 0-1.1-.7-1.1-1.6s.5-1.6 1.1-1.6 1.1.7 1.1 1.6c.1.9-.4 1.6-1.1 1.6z" fill="#c6c5c5"/><path d="m38.8 51c-.4-.4-.3-1.3.3-1.9s1.5-.8 1.9-.3.3 1.3-.3 1.9c-.6.5-1.5.7-1.9.3z" fill="#c6c5c5"/><path d="m28 53.8c0-.6.7-1.1 1.6-1.1s1.6.5 1.6 1.1-.7 1.1-1.6 1.1-1.6-.5-1.6-1.1z" fill="#c6c5c5"/><path d="m18.4 48.2c.4-.4 1.3-.3 1.9.3s.8 1.5.4 1.9-1.3.3-1.9-.3c-.7-.6-.8-1.4-.4-1.9z" fill="#c6c5c5"/><path d="m15.6 37.5c.6 0 1.1.7 1.1 1.6s-.5 1.6-1.1 1.6-1.1-.7-1.1-1.6.5-1.6 1.1-1.6z" fill="#c6c5c5"/><path d="m21.1 27.9c.4.4.3 1.3-.4 1.9-.6.6-1.5.8-1.9.4s-.3-1.3.4-1.9c.7-.7 1.5-.8 1.9-.4z" fill="#c6c5c5"/><path d="m37.3 26.9c-.2.6-1.1.7-1.9.4s-1.3-1.1-1-1.6 1.1-.7 1.9-.4 1.2 1 1 1.6z" fill="#c6c5c5"/><path d="m44 35.7c-.6.2-1.3-.2-1.6-1.1-.3-.8-.2-1.7.4-1.9s1.3.2 1.6 1.1.2 1.7-.4 1.9z" fill="#c6c5c5"/><path d="m42.5 46.8c-.6-.2-.7-1.1-.4-1.9s1.1-1.3 1.6-1 .7 1.1.4 1.9-1 1.2-1.6 1z" fill="#c6c5c5"/><path d="m33.7 53.5c-.2-.6.2-1.3 1.1-1.6.8-.3 1.7-.2 1.9.4s-.2 1.3-1.1 1.6-1.7.1-1.9-.4z" fill="#c6c5c5"/><path d="m22.6 52c.2-.6 1.1-.7 1.9-.4s1.3 1.1 1 1.6c-.2.6-1.1.7-1.9.4s-1.2-1.1-1-1.6z" fill="#c6c5c5"/><path d="m15.9 43.1c.6-.2 1.3.2 1.6 1.1.3.8.1 1.7-.4 1.9s-1.3-.2-1.6-1.1c-.3-.8-.1-1.6.4-1.9z" fill="#c6c5c5"/><path d="m17.4 32.1c.6.2.7 1.1.4 1.9s-1.1 1.3-1.6 1c-.6-.2-.7-1.1-.4-1.9.3-.7 1.1-1.2 1.6-1z" fill="#c6c5c5"/><path d="m26.3 25.4c.2.6-.2 1.3-1.1 1.6s-1.7.1-1.9-.4.2-1.3 1.1-1.6c.8-.3 1.6-.2 1.9.4z" fill="#c6c5c5"/><path d="m12.1 46.3c0 1.5-1.2 2.8-2.8 2.8-1.5 0-2.8-1.2-2.8-2.8 0-1.5 1.2-2.8 2.8-2.8 1.5 0 2.8 1.3 2.8 2.8z" fill="#221f1f"/><path d="m11.9 46.3c0 1.4-1.2 2.6-2.6 2.6s-2.6-1.2-2.6-2.6 1.2-2.6 2.6-2.6 2.6 1.1 2.6 2.6z" fill="#575757"/><path d="m12.1 53.3c0 1.5-1.2 2.8-2.8 2.8-1.5 0-2.8-1.2-2.8-2.8 0-1.5 1.2-2.8 2.8-2.8 1.5 0 2.8 1.3 2.8 2.8z" fill="#221f1f"/><path d="m11.9 53.3c0 1.4-1.2 2.6-2.6 2.6s-2.6-1.2-2.6-2.6 1.2-2.6 2.6-2.6 2.6 1.1 2.6 2.6z" fill="#575757"/><path d="m17.1 6.6c0 .1-.1.2-.1.2h-3.2c-.1 0-.1-.1-.1-.2v-1.3c0-.1.1-.2.1-.2h3.2c.1 0 .1.1.1.2z" fill="#49494a"/><path d="m22.2 2.5c0 .1-.1.2-.1.2h-3.2c-.1 0-.1-.1-.1-.2v-1.4c-.1-.1 0-.1 0-.1h3.2c.1 0 .1.1.1.1v1.4z" fill="#49494a"/><path d="m26.9 2.5c0 .1-.1.2-.1.2h-3.2c-.1 0-.1-.1-.1-.2v-1.4c0-.1 0-.1.1-.1h3.2c.1 0 .1.1.1.1z" fill="#49494a"/><path d="m31.7 2.5c0 .1-.1.2-.1.2h-3.2c-.1 0-.1-.1-.1-.2v-1.4c-.1-.1 0-.1.1-.1h3.2c.1 0 .1.1.1.1z" fill="#49494a"/><path d="m36.5 2.5c0 .1-.1.2-.2.2h-3.2c-.1 0-.2-.1-.2-.2v-1.4c.1-.1.2-.1.3-.1h3.2c.1 0 .2.1.2.1-.1 0-.1 1.4-.1 1.4z" fill="#49494a"/><path d="m41.3 2.5c0 .1-.1.2-.2.2h-3.2c-.1 0-.2-.1-.2-.2v-1.4c.1-.1.2-.1.2-.1h3.2c.1 0 .2.1.2.1z" fill="#49494a"/><path d="m17.1 9.8c0 .1-.1.1-.1.1h-3.2c-.1 0-.1-.1-.1-.1v-1.4c0-.1.1-.1.1-.1h3.2c.1 0 .1.1.1.1z" fill="#49494a"/><path d="m17.1 12.9c0 .1-.1.1-.1.1h-3.2c-.1 0-.1-.1-.1-.1v-1.3c0-.1.1-.1.1-.1h3.2c.1 0 .1.1.1.1z" fill="#49494a"/><path d="m17.1 16.1c0 .1-.1.1-.1.1h-3.2c-.1 0-.1-.1-.1-.1v-1.3c0-.1.1-.1.1-.1h3.2c.1 0 .1.1.1.1z" fill="#49494a"/><path d="m8.2 25.8c-.1 0-.2-.1-.2-.2v-1.5c0-.1.1-.2.2-.2h2c.1 0 .2.1.2.2v1.5c0 .1-.1.2-.2.2z" fill="#221f1f"/><path d="m10.4 25.6c0 .1-.1.2-.2.2h-2c-.1 0-.2-.1-.2-.2v-1.5c0-.1.1-.2.2-.2h2c.1 0 .2.1.2.2z" fill="#f68b21"/><path d="m8.2 28.6c-.1 0-.2-.1-.2-.2v-1.5c0-.1.1-.2.2-.2h2c.1 0 .2.1.2.2v1.5c0 .1-.1.2-.2.2z" fill="#221f1f"/><path d="m10.4 28.4c0 .1-.1.2-.2.2h-2c-.1 0-.2-.1-.2-.2v-1.5c0-.1.1-.2.2-.2h2c.1 0 .2.1.2.2z" fill="#f68b21"/><path d="m43.6 20.1c0 .5-.4.9-.9.9h-25.7c-.5 0-.9-.4-.9-.9 0-.5.4-.9.9-.9h25.7c.5 0 .9.4.9.9z" fill="#59595c"/><path d="m46.5 10.7c0 1-.8 1.9-1.9 1.9s-1.9-.8-1.9-1.9.8-1.9 1.9-1.9 1.9.9 1.9 1.9z" fill="#e9e0e2"/><path d="m46.2 10.9c.1-.1.1-.1.1-.2s0-.2-.1-.2c0-.1 0-.1 0-.2s.1-.2 0-.2c0-.1-.1-.1-.2-.2 0-.1-.1-.1-.1-.2s0-.2-.1-.2c-.1-.1-.2-.1-.2-.1s-.1-.1-.2-.1c0-.1-.1-.1-.2-.2s-.2 0-.2 0c-.1 0-.1 0-.2 0 0-.1-.1-.1-.2-.1s-.2.1-.2.1c-.1 0-.1 0-.2 0s-.2-.1-.2 0c-.1 0-.1.1-.2.2-.1 0-.1.1-.2.1s-.2 0-.2.1c-.1.1-.1.1-.1.2s-.1.1-.1.2c-.1 0-.2.1-.2.2v.2.2c-.1.1-.1.1-.1.2s0 .2.1.2v.2c0 .1-.1.2 0 .2 0 .1.1.1.2.2 0 .1.1.1.1.2s0 .2.1.2c.1.1.2.1.2.1s.1.1.2.1c0 .1.1.1.2.2h.2.2c0 .1.1.1.2.1s.2-.1.2-.1h.2c.1 0 .2.1.2 0s.1-.1.2-.2c.1 0 .1-.1.2-.1s.2 0 .2-.1c.1-.1.1-.1.1-.2s.1-.1.1-.2c.1 0 .2-.1.2-.2s0-.2 0-.2 0-.1 0-.2z" fill="#221f1f"/><path d="m46 10.7c0 .8-.6 1.4-1.4 1.4s-1.4-.6-1.4-1.4.6-1.4 1.4-1.4 1.4.6 1.4 1.4z" fill="#aeaeaf"/><path d="m15.6 22.7c0 .6-.5 1.1-1.1 1.1s-1.1-.5-1.1-1.1.5-1.1 1.1-1.1c.6-.1 1.1.4 1.1 1.1z" fill="#fef388"/><path d="m18.6 22.7c0 .6-.5 1.1-1.1 1.1s-1.1-.5-1.1-1.1.5-1.1 1.1-1.1 1.1.4 1.1 1.1z" fill="#fef388"/><path d="m10.2 7.9c0 .5-.4 1-.9 1s-1-.4-1-1c0-.5.4-.9.9-.9s1 .4 1 .9z" fill="#f68b21"/><path d="m10.1 7.9c0 .5-.4.9-.9.9s-.8-.4-.8-.9.4-.8.9-.8.8.4.8.8z" fill="#767576"/><path d="m7.8 37.2c-.6 0-1-.5-1-1s.4-1 1-1 1 .5 1 1-.5 1-1 1z" fill="#221f1f"/><path d="m10.7 37.2c-.6 0-1-.5-1-1s.4-1 1-1 1 .5 1 1-.4 1-1 1z" fill="#221f1f"/><path d="m7.8 40.8c-.6 0-1-.5-1-1s.4-1 1-1 1 .5 1 1-.5 1-1 1z" fill="#221f1f"/><path d="m10.7 40.8c-.6 0-1-.5-1-1s.4-1 1-1 1 .5 1 1-.4 1-1 1z" fill="#221f1f"/><path d="m15 25.6c0 .3-.2.5-.5.5s-.5-.2-.5-.5.2-.5.5-.5.5.2.5.5z" fill="#787878"/><path d="m20.5 22.6c0 .3-.2.5-.5.5s-.5-.2-.5-.5.2-.5.5-.5.5.2.5.5z" fill="#787878"/><path d="m15 27.3c0 .3-.2.5-.5.5s-.5-.2-.5-.5.2-.5.5-.5.5.2.5.5z" fill="#787878"/><path d="m51.3 32.9c0 .3-.3.6-.6.6s-.6-.3-.6-.6.3-.6.6-.6.6.3.6.6z" fill="#221f1f"/><path d="m51.2 32.9c0 .3-.2.6-.6.6-.3 0-.6-.2-.6-.6 0-.3.2-.6.6-.6.4.1.6.3.6.6z" fill="#8d8d8d"/><path d="m51.6 9c0 .6-.5 1.1-1.1 1.1s-1.1-.5-1.1-1.1.5-1.1 1.1-1.1 1.1.5 1.1 1.1z" fill="#a6ce3a"/><path d="m51.5 9c0 .6-.5 1-1 1-.6 0-1-.4-1-1s.5-1 1-1 1 .4 1 1z" fill="url(#b)"/><path d="m10.7 5.7c0 .1-.1.2-.1.2h-2.7c-.1 0-.2-.1-.2-.2v-1.1c0-.1.1-.2.2-.2h2.7c.1 0 .1.1.1.2z" fill="#414141"/><path d="m52.3 6.2c0 .1-.1.2-.2.2h-3.4c-.1 0-.2-.1-.2-.2v-1.4c0-.1.1-.2.2-.2h3.4c.1 0 .2.1.2.2z" fill="url(#c)"/><path d="m48.9 13.9c-.1 0-.2-.1-.2-.2v-1.1c0-.1.1-.2.2-.2h3.4c.1 0 .2.1.2.2v1.1c0 .1-.1.2-.2.2z" fill="#221f1f"/><path d="m52.5 13.7c0 .1-.1.2-.2.2h-3.4c-.1 0-.2-.1-.2-.2v-1.1c0-.1.1-.2.2-.2h3.4c.1 0 .2.1.2.2z" fill="#2babe2"/><path d="m48.9 16.4c-.1 0-.2-.1-.2-.2v-.9c0-.1.1-.2.2-.2h1.3c.1 0 .2.1.2.2v.9c0 .1-.1.2-.2.2z" fill="#221f1f"/><path d="m50.4 16.1c0 .1-.1.2-.2.2h-1.3c-.1 0-.2-.1-.2-.2v-.9c0-.1.1-.2.2-.2h1.3c.1 0 .2.1.2.2z" fill="#2babe2"/><path d="m50.9 16.4c-.1 0-.2-.1-.2-.2v-.9c0-.1.1-.2.2-.2h1.3c.1 0 .2.1.2.2v.9c0 .1-.1.2-.2.2z" fill="#221f1f"/><path d="m52.4 16.1c0 .1-.1.2-.2.2h-1.3c-.1 0-.2-.1-.2-.2v-.9c0-.1.1-.2.2-.2h1.3c.1 0 .2.1.2.2z" fill="#2babe2"/><path d="m51.9 57.2c0 .1-.1.1-.2.1h-2.1c-.1 0-.2-.1-.2-.1v-19.7c0-.1.1-.1.2-.1h2.1c.1 0 .2.1.2.1z" fill="#59595c"/><path d="m44.1 22.4c0 .4-.3.6-.6.6s-.6-.3-.6-.6c0-.4.3-.6.6-.6s.6.3.6.6z" fill="#2babe2"/><path d="m46.6 22.4c0 .4-.3.6-.6.6s-.6-.3-.6-.6c0-.4.3-.6.6-.6s.6.3.6.6z" fill="#2babe2"/><path d="m12.4 18h35.2v.4h-35.2z" fill="#a6a7aa"/><g fill="#fff"><path d="m49.4 38.4h2.4v.1h-2.4z"/><path d="m49.4 38.7h2.4v.1h-2.4z"/><path d="m49.4 39h2.4v.1h-2.4z"/><path d="m49.4 39.3h2.4v.1h-2.4z"/><path d="m49.4 39.5h2.4v.1h-2.4z"/><path d="m49.4 39.8h2.4v.1h-2.4z"/><path d="m49.4 40.1h2.4v.1h-2.4z"/><path d="m49.4 40.3h2.4v.1h-2.4z"/><path d="m49.4 40.6h2.4v.1h-2.4z"/><path d="m49.4 40.9h2.4v.1h-2.4z"/><path d="m49.4 41.2h2.4v.1h-2.4z"/><path d="m49.4 41.4h2.4v.1h-2.4z"/><path d="m49.4 41.7h2.4v.1h-2.4z"/><path d="m49.4 42h2.4v.1h-2.4z"/><path d="m49.4 42.3h2.4v.1h-2.4z"/><path d="m49.4 42.6h2.4v.1h-2.4z"/><path d="m49.4 42.9h2.4v.1h-2.4z"/><path d="m49.4 43.2h2.4v.1h-2.4z"/><path d="m49.4 43.4h2.4v.1h-2.4z"/><path d="m49.4 43.7h2.4v.1h-2.4z"/><path d="m49.4 44h2.4v.1h-2.4z"/><path d="m49.4 44.2h2.4v.1h-2.4z"/><path d="m49.4 44.5h2.4v.1h-2.4z"/><path d="m49.4 44.8h2.4v.1h-2.4z"/><path d="m49.4 45h2.4v.1h-2.4z"/><path d="m49.4 45.3h2.4v.1h-2.4z"/><path d="m49.4 45.6h2.4v.1h-2.4z"/><path d="m49.4 46h2.4v.1h-2.4z"/><path d="m49.4 46.2h2.4v.1h-2.4z"/><path d="m49.4 46.5h2.4v.1h-2.4z"/><path d="m49.4 46.8h2.4v.1h-2.4z"/><path d="m49.4 47h2.4v.1h-2.4z"/><path d="m49.4 47.3h2.4v.1h-2.4z"/><path d="m49.4 47.6h2.4v.1h-2.4z"/><path d="m49.4 47.8h2.4v.1h-2.4z"/><path d="m49.4 48.1h2.4v.1h-2.4z"/><path d="m49.4 48.4h2.4v.1h-2.4z"/><path d="m49.4 48.7h2.4v.1h-2.4z"/><path d="m49.4 48.9h2.4v.1h-2.4z"/><path d="m49.4 49.2h2.4v.1h-2.4z"/><path d="m49.4 49.6h2.4v.1h-2.4z"/><path d="m49.4 49.8h2.4v.1h-2.4z"/><path d="m49.4 50.1h2.4v.1h-2.4z"/><path d="m49.4 50.4h2.4v.1h-2.4z"/><path d="m49.4 50.7h2.4v.1h-2.4z"/><path d="m49.4 50.9h2.4v.1h-2.4z"/><path d="m49.4 51.2h2.4v.1h-2.4z"/><path d="m49.4 51.5h2.4v.1h-2.4z"/><path d="m49.4 51.7h2.4v.1h-2.4z"/><path d="m49.4 52h2.4v.1h-2.4z"/><path d="m49.4 52.3h2.4v.1h-2.4z"/><path d="m49.4 52.5h2.4v.1h-2.4z"/><path d="m49.4 52.8h2.4v.1h-2.4z"/><path d="m49.4 53.2h2.4v.1h-2.4z"/><path d="m49.4 53.5h2.4v.1h-2.4z"/><path d="m49.4 53.7h2.4v.1h-2.4z"/><path d="m49.4 54h2.4v.1h-2.4z"/><path d="m49.4 54.3h2.4v.1h-2.4z"/><path d="m49.4 54.5h2.4v.1h-2.4z"/><path d="m49.4 54.8h2.4v.1h-2.4z"/><path d="m49.4 55.1h2.4v.1h-2.4z"/><path d="m49.4 55.4h2.4v.1h-2.4z"/><path d="m49.4 55.6h2.4v.1h-2.4z"/><path d="m49.4 55.9h2.4v.1h-2.4z"/><path d="m49.4 56.2h2.4v.1h-2.4z"/></g><path d="m50.5 37.9h.3v18.7h-.3z"/><path d="m51.9 48.3c0 .1-.1.2-.2.2h-2.1c-.1 0-.2-.1-.2-.2v-1.7c0-.1.1-.2.2-.2h2.1c.1 0 .2.1.2.2z" fill="#221f1f"/><path d="m49.4 47.3h2.4v.4h-2.4z" fill="#fff"/><path d="m10.2 11.6c0 .5-.4.9-.9.9s-.9-.4-.9-.9.4-.9.9-.9c.4 0 .9.4.9.9z" fill="#f68b21"/><path d="m10.1 11.6c0 .5-.4.9-.9.9s-.9-.4-.9-.9.4-.9.9-.9.9.5.9.9z" fill="#767576"/><path d="m10.2 15.4c0 .5-.4 1-.9 1s-.9-.4-.9-.9.4-.9.9-.9c.4-.2.9.2.9.8z" fill="#f68b21"/><path d="m10.1 15.4c0 .5-.4.9-.9.9s-.9-.4-.9-.9.4-.9.9-.9.9.4.9.9z" fill="#767576"/><path d="m10.2 19.1c0 .5-.4 1-.9 1s-.9-.4-.9-1 .4-1 .9-1c.4 0 .9.4.9 1z" fill="#f68b21"/><path d="m10.1 19.1c0 .5-.4.9-.9.9s-.9-.4-.9-.9.4-.9.9-.9.9.4.9.9z" fill="#767576"/><path d="m8.5 52.7.6.3-.6.3z" fill="#fff"/><path d="m9 54h-.1l.8-1.5h.1z" fill="#fff"/><path d="m9.6 53.2h.2v.6h-.2z" fill="#fff"/><path d="m9.9 53.2h.2v.6h-.2z" fill="#fff"/><path d="m50.6 21.6c-.6 0-1.1-.5-1.1-1.1 0-.5.4-1 .9-1.1v-.1h.3v.1c.5.1.9.5.9 1.1.2.6-.4 1.1-1 1.1z" fill="#221f1f"/><path d="m50.7 19.5v-.1h-.2v.1c-.5 0-.9.5-.9 1 0 .6.5 1 1 1s1-.5 1-1c.1-.5-.4-1-.9-1z" fill="#fff"/><path d="m51.7 20.5c0 .6-.5 1-1 1s-1-.5-1-1c0-.6.5-1 1-1s1 .4 1 1z" fill="#414141"/><path d="m51.4 20.5c0 .4-.4.8-.8.8s-.8-.4-.8-.8.4-.8.8-.8c.5 0 .8.3.8.8z" fill="url(#d)"/><path d="m51.3 20.5c0 .4-.3.6-.6.6s-.6-.3-.6-.6c0-.4.3-.6.6-.6s.6.2.6.6z" fill="#808083"/><path d="m50.6 19.3h.2v.8h-.2z" fill="#fff"/><path d="m50.6 18.7h.1v.3h-.1z" fill="#fff"/><path d="m51.6 19.3h.3v.1h-.3z" fill="#fff" transform="matrix(.7069 -.7073 .7073 .7069 1.4831 42.2899)"/><path d="m52.1 20.5h.3v.1h-.3z" fill="#fff"/><path d="m51.6 21.5h.1l.2.2z" fill="#fff"/><path d="m49.5 19.2h.1v.3h-.1z" fill="#fff" transform="matrix(.7062 -.708 .708 .7062 .8407 40.7509)"/><path d="m49.2 20.5h-.3z" fill="#fff"/><path d="m49.4 21.6h.3v.1h-.3z" fill="#fff" transform="matrix(.7062 -.708 .708 .7062 -.7474 41.4069)"/><path d="m49.3 21v.1l-.3.1v-.1z" fill="#fff"/><path d="m49.1 19.7h.1v.3h-.1z" fill="#fff" transform="matrix(.3722 -.9281 .9281 .3722 12.4061 58.1228)"/><path d="m50.1 19.1-.1.1-.1-.3h.1z" fill="#fff"/><path d="m51.1 19h.3v.1h-.3z" fill="#fff" transform="matrix(.3674 -.9301 .9301 .3674 14.7439 59.6769)"/><path d="m52 20v-.1l.2-.1h.1z" fill="#fff"/><path d="m52 21 .3.1-.1.1z" fill="#fff"/><path d="m50.6 25.9c-.6 0-1.1-.5-1.1-1.1 0-.5.4-1 .9-1.1v-.1h.3v.1c.5.1.9.5.9 1.1.2.6-.4 1.1-1 1.1z" fill="#221f1f"/><path d="m50.7 23.8v-.1h-.2v.1c-.5 0-.9.5-.9 1 0 .6.5 1 1 1s1-.5 1-1c.1-.6-.4-1-.9-1z" fill="#fff"/><path d="m51.7 24.8c0 .6-.5 1-1 1s-1-.5-1-1c0-.6.5-1 1-1s1 .4 1 1z" fill="#414141"/><path d="m51.4 24.8c0 .4-.4.8-.8.8s-.8-.4-.8-.8.4-.8.8-.8c.5 0 .8.3.8.8z" fill="url(#e)"/><path d="m51.3 24.8c0 .4-.3.6-.6.6s-.6-.3-.6-.6c0-.4.3-.6.6-.6.3-.1.6.2.6.6z" fill="#808083"/><path d="m50.6 23.6h.2v.8h-.2z" fill="#fff"/><path d="m50.6 23h.1v.3h-.1z" fill="#fff"/><path d="m51.6 23.6h.3v.1h-.3z" fill="#fff" transform="matrix(.7071 -.7071 .7071 .7071 -1.5586 43.5316)"/><path d="m52.1 24.7h.3v.1h-.3z" fill="#fff"/><path d="m51.6 25.8h.1l.2.2z" fill="#fff"/><path d="m49.7 23.7-.1.1-.2-.2v-.1z" fill="#fff"/><path d="m48.9 24.7h.3v.1h-.3z" fill="#fff" transform="matrix(1 -.00184069 .00184069 1 -.045511 .090347)"/><path d="m49.6 25.8h.1l-.3.2z" fill="#fff"/><path d="m49.3 25.3v.1l-.3.1v-.1z" fill="#fff"/><path d="m49.3 24.2v.1l-.3-.2z" fill="#fff"/><path d="m50.1 23.5h-.1l-.1-.3h.1z" fill="#fff"/><path d="m51.1 23.3h.3v.1h-.3z" fill="#fff" transform="matrix(.3738 -.9275 .9275 .3738 10.479 62.1083)"/><path d="m52 24.1h.3v.1h-.3z" fill="#fff" transform="matrix(.9224 -.3863 .3863 .9224 -5.2888 22.0054)"/><path d="m52.1 25.2h.1v.3h-.1z" fill="#fff" transform="matrix(.3698 -.9291 .9291 .3698 9.2828 64.4135)"/><path d="m51.3 35.6c0 .3-.3.6-.6.6s-.6-.3-.6-.6.3-.6.6-.6.6.3.6.6z" fill="#221f1f"/><circle cx="50.6" cy="35.6" fill="#8d8d8d" r=".6"/><path d="m8.1 36.1-.2.1.2.2z" fill="#fff"/><path d="m7.8 36.1-.2.1.2.2z" fill="#fff"/><path d="m7.4 36h.1v.3h-.1z" fill="#fff"/><path d="m10.4 36.1.3.1-.3.2z" fill="#fff"/><path d="m10.7 36.1.3.1-.3.2z" fill="#fff"/><path d="m11 36h.1v.3h-.1z" fill="#fff"/><path d="m8.1 39.7-.3.1.3.2z" fill="#fff"/><path d="m7.7 39.7-.3.1.3.2z" fill="#fff"/><path d="m10.5 39.7.3.1-.3.2z" fill="#fff"/><path d="m10.8 39.7.3.1-.3.2z" fill="#fff"/><path d="m50.2 9.1.2-.5.3.5z" fill="#a6ce3a"/><path d="m50.2 9.1h.5v.1h-.5z" fill="#a6ce3a"/><path d="m50.4 6.6h.1v.5h-.1z" fill="#fff"/><path d="m49 6.6h.1v.5h-.1z" fill="#fff"/><path d="m51.7 6.6h.1v.5h-.1z" fill="#fff"/><path d="m17.5 19.6-.3 1-.2-1z" fill="#fff"/><path d="m42.7 19.6-.2 1-.2-1z" fill="#fff"/></svg>