<svg enable-background="new 0 0 60 60" height="60" viewBox="0 0 60 60" width="60" xmlns="http://www.w3.org/2000/svg" xmlns:xlink="http://www.w3.org/1999/xlink"><linearGradient id="a"><stop offset="0" stop-color="#59595c"/><stop offset="1" stop-color="#221f1f"/></linearGradient><linearGradient id="b" gradientUnits="userSpaceOnUse" x1="50.4353" x2="50.4353" xlink:href="#a" y1="7.7086" y2="10.6313"/><radialGradient id="c" cx="50.4397" cy="5.4614" fx="52.9931" fy="6.1558" gradientUnits="userSpaceOnUse" r="2.6462"><stop offset="0" stop-color="#221f1f"/><stop offset=".1844" stop-color="#101010"/><stop offset=".494" stop-color="#1e1e1e"/><stop offset=".7805" stop-color="#151515"/><stop offset="1"/></radialGradient><linearGradient id="d" gradientUnits="userSpaceOnUse" x1="50.6431" x2="50.6431" xlink:href="#a" y1="19.8662" y2="21.2246"/><linearGradient id="e" gradientUnits="userSpaceOnUse" x1="50.6431" x2="50.6431" xlink:href="#a" y1="24.1589" y2="25.5175"/><path d="m53.88 59.08c0 .51-.41.92-.92.92h-45.92c-.51 0-.92-.41-.92-.92v-54.9c0-.51.41-.92.92-.92h45.92c.51 0 .92.41.92.92z" fill="#414143"/><path d="m46.68 0h-33.36c-.51 0-.92.41-.92.92v2.33 3.97 52.78h35.21v-52.77-3.98-2.33c0-.51-.42-.92-.93-.92z" fill="#020202"/><path d="m18.37 3.42h23.22v13.69h-23.22z" fill="#414141"/><ellipse cx="29.96" cy="39.44" fill="#fff" rx="16.79" ry="16.79" transform="matrix(.0113 -.9999 .9999 .0113 -9.8187 68.9504)"/><path d="m46.34 39.44c0 9.05-7.34 16.38-16.38 16.38-9.05 0-16.38-7.34-16.38-16.38 0-9.05 7.34-16.38 16.38-16.38 9.05 0 16.38 7.33 16.38 16.38z" fill="#414141"/><path d="m45.94 39.44c0 8.82-7.15 15.98-15.98 15.98-8.82 0-15.98-7.15-15.98-15.98 0-8.82 7.15-15.98 15.98-15.98 8.82 0 15.98 7.16 15.98 15.98z" fill="#817f7f"/><ellipse cx="29.96" cy="39.44" fill="#221f1f" rx="12.87" ry="12.87" transform="matrix(.0277 -.9996 .9996 .0277 -10.2951 68.2972)"/><path d="m42.39 39.44c0 6.87-5.57 12.43-12.43 12.43-6.87 0-12.43-5.57-12.43-12.43 0-6.87 5.57-12.43 12.43-12.43s12.43 5.57 12.43 12.43z" fill="#636464"/><path d="m35.05 39.44c0 2.81-2.28 5.09-5.09 5.09s-5.09-2.28-5.09-5.09 2.28-5.09 5.09-5.09 5.09 2.28 5.09 5.09z" fill="#d7d7d7"/><path d="m34.82 39.44c0 2.68-2.17 4.86-4.86 4.86-2.68 0-4.86-2.17-4.86-4.86 0-2.68 2.18-4.86 4.86-4.86s4.86 2.18 4.86 4.86z" fill="#221f1f"/><path d="m32.72 39.44c0 1.52-1.23 2.76-2.76 2.76-1.52 0-2.76-1.23-2.76-2.76 0-1.52 1.23-2.76 2.76-2.76 1.52 0 2.76 1.24 2.76 2.76z" fill="#babcbe"/><path d="m31.87 39.44c0 1.05-.85 1.91-1.91 1.91-1.05 0-1.91-.85-1.91-1.91 0-1.05.85-1.91 1.91-1.91 1.05 0 1.91.86 1.91 1.91z" fill="#464784"/><path d="m31.88 25.05c0 .61-.71 1.1-1.6 1.1-.88 0-1.6-.49-1.6-1.1s.71-1.1 1.6-1.1 1.6.5 1.6 1.1z" fill="#c6c5c4"/><path d="m41.49 30.63c-.43.43-1.28.27-1.91-.35-.62-.62-.78-1.48-.35-1.91s1.28-.27 1.91.35c.62.62.78 1.48.35 1.91z" fill="#c6c5c5"/><path d="m44.35 41.36c-.61 0-1.1-.71-1.1-1.6 0-.88.49-1.6 1.1-1.6s1.1.71 1.1 1.6-.5 1.6-1.1 1.6z" fill="#c6c5c5"/><path d="m38.77 50.97c-.43-.43-.27-1.28.35-1.91.62-.62 1.48-.78 1.91-.35s.27 1.28-.35 1.91-1.48.78-1.91.35z" fill="#c6c5c5"/><path d="m28.04 53.83c0-.61.71-1.1 1.6-1.1.88 0 1.6.49 1.6 1.1s-.71 1.1-1.6 1.1-1.6-.49-1.6-1.1z" fill="#c6c5c5"/><path d="m18.43 48.25c.43-.43 1.28-.27 1.91.35.62.62.78 1.48.35 1.91s-1.28.27-1.91-.35-.78-1.48-.35-1.91z" fill="#c6c5c5"/><path d="m15.57 37.52c.61 0 1.1.72 1.1 1.6s-.49 1.6-1.1 1.6-1.1-.71-1.1-1.6.49-1.6 1.1-1.6z" fill="#c6c5c5"/><path d="m21.14 27.91c.43.43.27 1.28-.35 1.91-.62.62-1.48.78-1.91.35s-.27-1.28.35-1.91c.63-.62 1.48-.78 1.91-.35z" fill="#c6c5c5"/><path d="m37.27 26.9c-.23.56-1.08.74-1.9.4-.81-.34-1.28-1.07-1.05-1.63s1.08-.74 1.9-.4 1.29 1.07 1.05 1.63z" fill="#c6c5c5"/><path d="m44 35.74c-.56.23-1.29-.24-1.62-1.06-.34-.82-.15-1.66.41-1.89s1.29.24 1.62 1.06.15 1.66-.41 1.89z" fill="#c6c5c5"/><path d="m42.5 46.75c-.56-.23-.74-1.08-.4-1.9.34-.81 1.07-1.28 1.63-1.05s.74 1.08.4 1.9-1.07 1.29-1.63 1.05z" fill="#c6c5c5"/><path d="m33.66 53.48c-.23-.56.24-1.29 1.06-1.62.82-.34 1.66-.15 1.89.41s-.24 1.29-1.06 1.62-1.66.15-1.89-.41z" fill="#c6c5c5"/><path d="m22.65 51.98c.23-.56 1.08-.74 1.9-.4.81.34 1.28 1.07 1.05 1.63s-1.08.74-1.9.4-1.29-1.07-1.05-1.63z" fill="#c6c5c5"/><path d="m15.92 43.14c.56-.23 1.29.24 1.62 1.06.34.81.15 1.66-.41 1.89s-1.29-.24-1.62-1.06c-.33-.81-.15-1.66.41-1.89z" fill="#c6c5c5"/><path d="m17.42 32.13c.56.23.74 1.08.4 1.9-.34.81-1.07 1.28-1.63 1.05s-.74-1.08-.4-1.9 1.07-1.28 1.63-1.05z" fill="#c6c5c5"/><path d="m26.26 25.4c.23.56-.24 1.29-1.06 1.63s-1.66.15-1.89-.41.24-1.29 1.06-1.62c.81-.34 1.66-.16 1.89.4z" fill="#c6c5c5"/><path d="m12.07 46.28c0 1.52-1.23 2.76-2.76 2.76-1.52 0-2.76-1.23-2.76-2.76 0-1.52 1.23-2.76 2.76-2.76 1.52 0 2.76 1.24 2.76 2.76z" fill="#221f1f"/><path d="m11.9 46.28c0 1.43-1.16 2.59-2.59 2.59s-2.6-1.16-2.6-2.59 1.16-2.59 2.6-2.59c1.43 0 2.59 1.16 2.59 2.59z" fill="#575757"/><path d="m12.07 53.28c0 1.52-1.23 2.76-2.76 2.76-1.52 0-2.76-1.23-2.76-2.76 0-1.52 1.23-2.76 2.76-2.76 1.52 0 2.76 1.24 2.76 2.76z" fill="#221f1f"/><path d="m11.9 53.28c0 1.43-1.16 2.59-2.59 2.59s-2.6-1.16-2.6-2.59 1.16-2.59 2.6-2.59c1.43 0 2.59 1.16 2.59 2.59z" fill="#575757"/><path d="m17.06 6.63c0 .08-.07.15-.15.15h-3.17c-.08 0-.15-.07-.15-.15v-1.34c0-.08.07-.15.15-.15h3.17c.08 0 .15.07.15.15z" fill="#49494a"/><path d="m22.16 2.46c0 .08-.07.15-.15.15h-3.17c-.08 0-.15-.07-.15-.15v-1.34c0-.08.07-.15.15-.15h3.17c.08 0 .15.07.15.15z" fill="#49494a"/><path d="m26.94 2.46c0 .08-.07.15-.15.15h-3.17c-.08 0-.15-.07-.15-.15v-1.34c0-.08.07-.15.15-.15h3.17c.08 0 .15.07.15.15z" fill="#49494a"/><path d="m31.71 2.46c0 .08-.07.15-.15.15h-3.17c-.08 0-.15-.07-.15-.15v-1.34c0-.08.07-.15.15-.15h3.17c.08 0 .15.07.15.15z" fill="#49494a"/><path d="m36.48 2.46c0 .08-.07.15-.15.15h-3.17c-.08 0-.15-.07-.15-.15v-1.34c0-.08.07-.15.15-.15h3.17c.08 0 .15.07.15.15z" fill="#49494a"/><path d="m41.26 2.46c0 .08-.07.15-.15.15h-3.17c-.08 0-.15-.07-.15-.15v-1.34c0-.08.07-.15.15-.15h3.17c.08 0 .15.07.15.15z" fill="#49494a"/><path d="m17.06 9.77c0 .08-.07.15-.15.15h-3.17c-.08 0-.15-.07-.15-.15v-1.34c0-.08.07-.15.15-.15h3.17c.08 0 .15.07.15.15z" fill="#49494a"/><path d="m17.06 12.91c0 .08-.07.15-.15.15h-3.17c-.08 0-.15-.07-.15-.15v-1.34c0-.08.07-.15.15-.15h3.17c.08 0 .15.07.15.15z" fill="#49494a"/><path d="m17.06 16.12c0 .08-.07.15-.15.15h-3.17c-.08 0-.15-.07-.15-.15v-1.34c0-.08.07-.15.15-.15h3.17c.08 0 .15.07.15.15z" fill="#49494a"/><path d="m8.16 25.8c-.13 0-.23-.1-.23-.23v-1.49c0-.13.1-.23.23-.23h2.02c.13 0 .23.1.23.23v1.49c0 .13-.1.23-.23.23z" fill="#221f1f"/><path d="m10.37 25.57c0 .1-.08.18-.18.18h-2.03c-.1 0-.18-.08-.18-.18v-1.49c0-.1.08-.18.18-.18h2.02c.1 0 .18.08.18.18v1.49z" fill="#f68b21"/><path d="m8.16 28.61c-.13 0-.23-.1-.23-.23v-1.49c0-.13.1-.23.23-.23h2.02c.13 0 .23.1.23.23v1.49c0 .13-.1.23-.23.23z" fill="#221f1f"/><path d="m10.37 28.38c0 .1-.08.18-.18.18h-2.03c-.1 0-.18-.08-.18-.18v-1.49c0-.1.08-.18.18-.18h2.02c.1 0 .18.08.18.18v1.49z" fill="#f68b21"/><path d="m43.6 20.09c0 .48-.39.87-.87.87h-25.7c-.48 0-.87-.39-.87-.87 0-.48.39-.87.87-.87h25.7c.48 0 .87.39.87.87z" fill="#59595c"/><path d="m46.49 10.71c0 1.03-.83 1.86-1.86 1.86s-1.86-.83-1.86-1.86.83-1.86 1.86-1.86 1.86.83 1.86 1.86z" fill="#e9e0e2"/><path d="m46.22 10.92c.07-.05.11-.13.11-.22s-.05-.17-.11-.22c-.01-.06-.02-.13-.04-.19.04-.07.06-.16.02-.24-.03-.08-.11-.14-.19-.16-.03-.06-.07-.11-.11-.16.01-.08-.01-.17-.07-.23-.07-.06-.15-.09-.23-.07-.05-.04-.1-.07-.16-.11-.02-.08-.07-.15-.16-.19s-.17-.02-.24.02c-.06-.02-.12-.03-.19-.04-.05-.07-.13-.11-.22-.11s-.17.05-.22.11c-.06.01-.13.02-.19.04-.07-.04-.16-.06-.24-.02-.09.03-.14.11-.16.19-.06.03-.11.07-.16.11-.08-.01-.17.01-.24.07s-.09.15-.07.23c-.04.05-.07.1-.11.16-.08.02-.15.07-.19.16-.04.08-.02.17.02.24-.02.06-.03.12-.04.19-.07.05-.12.13-.12.22s.05.17.12.22c.01.06.02.13.04.19-.04.07-.06.16-.02.25.03.09.11.14.19.16.03.06.07.11.11.16-.01.08.01.17.07.24.06.06.15.09.23.07.05.04.1.07.16.11.02.08.07.15.16.19.08.03.17.02.24-.02.06.02.12.03.19.04.05.07.13.12.22.12s.17-.05.22-.12c.06-.01.13-.02.19-.04.07.04.16.06.24.02s.14-.11.16-.19c.06-.03.11-.07.16-.11.08.01.17-.01.23-.07s.09-.15.07-.23c.04-.05.08-.1.11-.16.08-.02.15-.07.19-.16.04-.08.02-.17-.02-.24.03-.08.04-.14.05-.21z" fill="#221f1f"/><path d="m46.01 10.71c0 .76-.62 1.38-1.38 1.38s-1.38-.62-1.38-1.38.62-1.38 1.38-1.38 1.38.61 1.38 1.38z" fill="#aeaeaf"/><path d="m15.6 22.66c0 .62-.5 1.13-1.13 1.13-.62 0-1.13-.5-1.13-1.13 0-.62.5-1.13 1.13-1.13.62 0 1.13.51 1.13 1.13z" fill="#fef388"/><path d="m18.57 22.66c0 .62-.5 1.13-1.13 1.13s-1.13-.5-1.13-1.13c0-.62.5-1.13 1.13-1.13s1.13.51 1.13 1.13z" fill="#fef388"/><path d="m10.16 7.93c0 .53-.43.95-.95.95s-.95-.42-.95-.95c0-.52.43-.95.95-.95s.95.43.95.95z" fill="#f68b21"/><path d="m10.06 7.93c0 .47-.38.86-.85.86s-.85-.38-.85-.86c0-.47.38-.85.85-.85s.85.38.85.85z" fill="#767576"/><path d="m7.79 37.19c-.55 0-.99-.45-.99-.99 0-.55.45-.99.99-.99.55 0 .99.45.99.99s-.44.99-.99.99z" fill="#221f1f"/><path d="m10.74 37.19c-.55 0-.99-.45-.99-.99 0-.55.45-.99.99-.99.55 0 .99.45.99.99.01.54-.44.99-.99.99z" fill="#221f1f"/><path d="m7.79 40.77c-.55 0-.99-.45-.99-.99 0-.55.45-.99.99-.99.55 0 .99.45.99.99 0 .55-.44.99-.99.99z" fill="#221f1f"/><path d="m10.74 40.77c-.55 0-.99-.45-.99-.99 0-.55.45-.99.99-.99.55 0 .99.45.99.99.01.55-.44.99-.99.99z" fill="#221f1f"/><path d="m14.96 25.58c0 .27-.22.49-.49.49s-.49-.22-.49-.49.22-.49.49-.49.49.22.49.49z" fill="#787878"/><path d="m20.55 22.58c0 .27-.22.49-.49.49s-.49-.22-.49-.49.22-.49.49-.49c.28 0 .49.22.49.49z" fill="#787878"/><path d="m14.96 27.32c0 .27-.22.49-.49.49s-.49-.22-.49-.49.22-.49.49-.49.49.22.49.49z" fill="#787878"/><path d="m51.27 32.93c0 .35-.28.63-.63.63s-.63-.28-.63-.63.28-.63.63-.63.63.29.63.63z" fill="#221f1f"/><path d="m51.21 32.93c0 .31-.25.57-.57.57-.31 0-.57-.25-.57-.57 0-.31.25-.57.57-.57.32.01.57.26.57.57z" fill="#8d8d8d"/><path d="m51.56 9.01c0 .62-.5 1.13-1.13 1.13-.62 0-1.13-.5-1.13-1.13 0-.62.5-1.13 1.13-1.13s1.13.5 1.13 1.13z" fill="#a6ce3a"/><path d="m51.45 9.01c0 .56-.45 1.01-1.01 1.01s-1.01-.45-1.01-1.01.45-1.01 1.01-1.01c.56-.01 1.01.45 1.01 1.01z" fill="url(#b)"/><path d="m10.68 5.66c0 .08-.07.15-.15.15h-2.66c-.08 0-.15-.07-.15-.15v-1.11c0-.08.07-.15.15-.15h2.67c.08 0 .15.07.15.15v1.11z" fill="#414141"/><path d="m52.33 6.17c0 .1-.08.19-.18.19h-3.42c-.1 0-.18-.08-.18-.19v-1.42c0-.1.08-.18.18-.18h3.42c.1 0 .18.08.18.18z" fill="url(#c)"/><path d="m48.93 13.94c-.13 0-.23-.1-.23-.23v-1.1c0-.13.1-.23.23-.23h3.42c.13 0 .23.1.23.23v1.1c0 .13-.1.23-.23.23z" fill="#221f1f"/><path d="m52.54 13.71c0 .1-.08.19-.18.19h-3.42c-.1 0-.18-.08-.18-.19v-1.1c0-.1.08-.19.18-.19h3.42c.1 0 .18.08.18.19z" fill="#2babe2"/><path d="m48.93 16.37c-.13 0-.23-.1-.23-.23v-.88c0-.13.1-.23.23-.23h1.32c.13 0 .23.1.23.23v.88c0 .13-.1.23-.23.23z" fill="#221f1f"/><path d="m50.44 16.14c0 .1-.08.19-.18.19h-1.32c-.1 0-.18-.08-.18-.19v-.88c0-.1.08-.19.18-.19h1.32c.1 0 .18.08.18.19z" fill="#2babe2"/><path d="m50.93 16.37c-.13 0-.23-.1-.23-.23v-.88c0-.13.1-.23.23-.23h1.32c.13 0 .23.1.23.23v.88c0 .13-.1.23-.23.23z" fill="#221f1f"/><path d="m52.44 16.14c0 .1-.08.19-.18.19h-1.32c-.1 0-.18-.08-.18-.19v-.88c0-.1.08-.19.18-.19h1.32c.1 0 .18.08.18.19z" fill="#2babe2"/><path d="m51.86 57.23c0 .08-.08.14-.18.14h-2.07c-.1 0-.18-.06-.18-.14v-19.75c0-.08.08-.14.18-.14h2.07c.1 0 .18.06.18.14z" fill="#59595c"/><path d="m44.07 22.42c0 .35-.29.64-.64.64s-.64-.29-.64-.64.29-.64.64-.64c.36-.01.64.28.64.64z" fill="#2babe2"/><path d="m46.58 22.42c0 .35-.29.64-.64.64s-.64-.29-.64-.64.29-.64.64-.64c.35-.01.64.28.64.64z" fill="#2babe2"/><path d="m12.39 18.03h35.21v.44h-35.21z" fill="#a6a7aa"/><g fill="#fff"><path d="m49.42 38.38h2.44v.14h-2.44z"/><path d="m49.42 38.73h2.44v.07h-2.44z"/><path d="m49.42 39h2.44v.07h-2.44z"/><path d="m49.42 39.27h2.44v.07h-2.44z"/><path d="m49.42 39.54h2.44v.07h-2.44z"/><path d="m49.42 39.81h2.44v.07h-2.44z"/><path d="m49.42 40.08h2.44v.07h-2.44z"/><path d="m49.42 40.35h2.44v.07h-2.44z"/><path d="m49.42 40.62h2.44v.07h-2.44z"/><path d="m49.42 40.89h2.44v.07h-2.44z"/><path d="m49.42 41.16h2.44v.07h-2.44z"/><path d="m49.42 41.43h2.44v.07h-2.44z"/><path d="m49.42 41.7h2.44v.07h-2.44z"/><path d="m49.42 42h2.44v.14h-2.44z"/><path d="m49.42 42.34h2.44v.07h-2.44z"/><path d="m49.42 42.61h2.44v.07h-2.44z"/><path d="m49.42 42.88h2.44v.07h-2.44z"/><path d="m49.42 43.15h2.44v.07h-2.44z"/><path d="m49.42 43.42h2.44v.07h-2.44z"/><path d="m49.42 43.69h2.44v.07h-2.44z"/><path d="m49.42 43.96h2.44v.07h-2.44z"/><path d="m49.42 44.23h2.44v.07h-2.44z"/><path d="m49.42 44.51h2.44v.07h-2.44z"/><path d="m49.42 44.78h2.44v.07h-2.44z"/><path d="m49.42 45.05h2.44v.07h-2.44z"/><path d="m49.42 45.32h2.44v.07h-2.44z"/><path d="m49.42 45.62h2.44v.14h-2.44z"/><path d="m49.42 45.96h2.44v.07h-2.44z"/><path d="m49.42 46.23h2.44v.07h-2.44z"/><path d="m49.42 46.5h2.44v.07h-2.44z"/><path d="m49.42 46.77h2.44v.07h-2.44z"/><path d="m49.42 47.04h2.44v.07h-2.44z"/><path d="m49.42 47.31h2.44v.07h-2.44z"/><path d="m49.42 47.58h2.44v.07h-2.44z"/><path d="m49.42 47.85h2.44v.07h-2.44z"/><path d="m49.42 48.12h2.44v.07h-2.44z"/><path d="m49.42 48.39h2.44v.07h-2.44z"/><path d="m49.42 48.66h2.44v.07h-2.44z"/><path d="m49.42 48.93h2.44v.07h-2.44z"/><path d="m49.42 49.23h2.44v.14h-2.44z"/><path d="m49.42 49.58h2.44v.07h-2.44z"/><path d="m49.42 49.85h2.44v.07h-2.44z"/><path d="m49.42 50.12h2.44v.07h-2.44z"/><path d="m49.42 50.39h2.44v.07h-2.44z"/><path d="m49.42 50.66h2.44v.07h-2.44z"/><path d="m49.42 50.93h2.44v.07h-2.44z"/><path d="m49.42 51.2h2.44v.07h-2.44z"/><path d="m49.42 51.47h2.44v.07h-2.44z"/><path d="m49.42 51.74h2.44v.07h-2.44z"/><path d="m49.42 52.01h2.44v.07h-2.44z"/><path d="m49.42 52.28h2.44v.07h-2.44z"/><path d="m49.42 52.55h2.44v.07h-2.44z"/><path d="m49.42 52.85h2.44v.14h-2.44z"/><path d="m49.42 53.2h2.44v.07h-2.44z"/><path d="m49.42 53.47h2.44v.07h-2.44z"/><path d="m49.42 53.74h2.44v.07h-2.44z"/><path d="m49.42 54.01h2.44v.07h-2.44z"/><path d="m49.42 54.28h2.44v.07h-2.44z"/><path d="m49.42 54.55h2.44v.07h-2.44z"/><path d="m49.42 54.82h2.44v.07h-2.44z"/><path d="m49.42 55.09h2.44v.07h-2.44z"/><path d="m49.42 55.36h2.44v.07h-2.44z"/><path d="m49.42 55.63h2.44v.07h-2.44z"/><path d="m49.42 55.9h2.44v.07h-2.44z"/><path d="m49.42 56.17h2.44v.07h-2.44z"/></g><path d="m50.49 37.93h.31v18.74h-.31z"/><path d="m51.86 48.28c0 .1-.08.18-.18.18h-2.07c-.1 0-.18-.08-.18-.18v-1.67c0-.1.08-.18.18-.18h2.07c.1 0 .18.08.18.18z" fill="#221f1f"/><path d="m49.42 47.26h2.44v.39h-2.44z" fill="#fff"/><path d="m10.16 11.64c0 .52-.43.95-.95.95s-.95-.43-.95-.95.43-.95.95-.95.95.43.95.95z" fill="#f68b21"/><path d="m10.06 11.64c0 .47-.38.85-.85.85s-.85-.38-.85-.85.38-.85.85-.85.85.38.85.85z" fill="#767576"/><path d="m10.16 15.35c0 .52-.43.95-.95.95s-.95-.42-.95-.95c0-.52.43-.95.95-.95s.95.43.95.95z" fill="#f68b21"/><path d="m10.06 15.35c0 .47-.38.85-.85.85s-.85-.38-.85-.85.38-.85.85-.85.85.38.85.85z" fill="#767576"/><path d="m10.16 19.06c0 .52-.43.95-.95.95s-.95-.43-.95-.95.43-.95.95-.95.95.42.95.95z" fill="#f68b21"/><path d="m10.06 19.06c0 .47-.38.85-.85.85s-.85-.38-.85-.85.38-.85.85-.85c.47-.01.85.38.85.85z" fill="#767576"/><path d="m8.53 52.66.6.34-.6.35z" fill="#fff"/><path d="m9.01 53.98h-.06l.74-1.47h.06z" fill="#fff"/><path d="m9.64 53.22h.2v.59h-.2z" fill="#fff"/><path d="m9.89 53.22h.2v.59h-.2z" fill="#fff"/><path d="m50.64 21.58c-.61 0-1.1-.49-1.1-1.1 0-.54.4-1.01.93-1.09v-.14h.34v.14c.53.08.93.55.93 1.09.01.61-.49 1.1-1.1 1.1z" fill="#221f1f"/><path d="m50.73 19.46v-.13h-.18v.13c-.52.04-.93.48-.93 1.02 0 .56.46 1.02 1.02 1.02s1.02-.46 1.02-1.02c.01-.53-.41-.97-.93-1.02z" fill="#fff"/><path d="m51.67 20.48c0 .56-.46 1.02-1.02 1.02s-1.02-.46-1.02-1.02.46-1.02 1.02-1.02 1.02.46 1.02 1.02z" fill="#414141"/><path d="m51.44 20.48c0 .44-.36.8-.8.8s-.8-.36-.8-.8.36-.8.8-.8.8.36.8.8z" fill="url(#d)"/><path d="m51.28 20.48c0 .35-.28.63-.64.63-.35 0-.63-.28-.63-.63s.28-.63.63-.63.64.28.64.63z" fill="#808083"/><path d="m50.56 19.33h.18v.82h-.18z" fill="#fff"/><path d="m50.61 18.73h.06v.32h-.06z" fill="#fff"/><path d="m51.61 19.33h.32v.06h-.32z" fill="#fff" transform="matrix(.7069 -.7073 .7073 .7069 1.48 42.2868)"/><path d="m52.07 20.45h.32v.06h-.32z" fill="#fff"/><path d="m51.63 21.51.05-.04.22.22-.04.05z" fill="#fff"/><path d="m49.49 19.2h.06v.32h-.06z" fill="#fff" transform="matrix(.7062 -.708 .708 .7062 .8447 40.7506)"/><path d="m49.21 20.45v.06h-.31v-.06z" fill="#fff"/><path d="m49.36 21.57h.32v.06h-.32z" fill="#fff" transform="matrix(.7062 -.708 .708 .7062 -.7448 41.4103)"/><path d="m49.32 21.01.02.06-.29.12-.02-.05z" fill="#fff"/><path d="m49.14 19.73h.06v.32h-.06z" fill="#fff" transform="matrix(.3722 -.9281 .9281 .3722 12.408 58.1221)"/><path d="m50.11 19.15-.06.03-.12-.29.06-.03z" fill="#fff"/><path d="m51.08 18.98h.32v.06h-.32z" fill="#fff" transform="matrix(.3674 -.9301 .9301 .3674 14.7337 59.6743)"/><path d="m51.97 19.96-.02-.06.29-.12.03.06z" fill="#fff"/><path d="m51.96 21.04.02-.06.29.12-.02.06z" fill="#fff"/><path d="m50.64 25.87c-.61 0-1.1-.49-1.1-1.1 0-.54.4-1.01.93-1.09v-.14h.34v.14c.53.08.93.55.93 1.09.01.61-.49 1.1-1.1 1.1z" fill="#221f1f"/><path d="m50.73 23.76v-.13h-.18v.13c-.52.04-.93.48-.93 1.02 0 .56.46 1.02 1.02 1.02s1.02-.46 1.02-1.02c.01-.54-.41-.98-.93-1.02z" fill="#fff"/><path d="m51.67 24.77c0 .56-.46 1.02-1.02 1.02s-1.02-.46-1.02-1.02.46-1.02 1.02-1.02 1.02.46 1.02 1.02z" fill="#414141"/><path d="m51.44 24.77c0 .44-.36.8-.8.8s-.8-.36-.8-.8.36-.8.8-.8.8.36.8.8z" fill="url(#e)"/><path d="m51.28 24.77c0 .35-.28.64-.64.64-.35 0-.63-.28-.63-.64 0-.35.28-.63.63-.63s.64.28.64.63z" fill="#808083"/><path d="m50.56 23.62h.18v.82h-.18z" fill="#fff"/><path d="m50.61 23.03h.06v.32h-.06z" fill="#fff"/><path d="m51.61 23.62h.32v.06h-.32z" fill="#fff" transform="matrix(.7071 -.7071 .7071 .7071 -1.5615 43.5309)"/><path d="m52.07 24.74h.32v.06h-.32z" fill="#fff"/><path d="m51.63 25.81.05-.05.22.23-.04.04z" fill="#fff"/><path d="m49.65 23.74-.04.04-.22-.22.04-.04z" fill="#fff"/><path d="m48.9 24.74h.32v.06h-.32z" fill="#fff" transform="matrix(1 -.0018407 .0018407 1 -.0455 .0903)"/><path d="m49.61 25.76.04.05-.22.22-.04-.04z" fill="#fff"/><path d="m49.32 25.31.02.05-.29.13-.02-.06z" fill="#fff"/><path d="m49.33 24.21-.02.06-.3-.12.02-.06z" fill="#fff"/><path d="m50.11 23.45-.06.02-.12-.29.06-.02z" fill="#fff"/><path d="m51.08 23.27h.32v.06h-.32z" fill="#fff" transform="matrix(.3738 -.9275 .9275 .3738 10.4719 62.1091)"/><path d="m51.95 24.13h.32v.06h-.32z" fill="#fff" transform="matrix(.9224 -.3863 .3863 .9224 -5.2887 22.0076)"/><path d="m52.09 25.21h.06v.32h-.06z" fill="#fff" transform="matrix(.3698 -.9291 .9291 .3698 9.2792 64.4067)"/><path d="m51.27 35.6c0 .35-.28.63-.63.63s-.63-.28-.63-.63.28-.63.63-.63.63.29.63.63z" fill="#221f1f"/><circle cx="50.64" cy="35.6" fill="#8d8d8d" r=".57"/><path d="m8.14 36.07-.27.15.27.16z" fill="#fff"/><path d="m7.81 36.07-.26.15.26.16z" fill="#fff"/><path d="m7.42 36.05h.08v.35h-.08z" fill="#fff"/><path d="m10.4 36.07.27.15-.27.16z" fill="#fff"/><path d="m10.73 36.07.26.15-.26.16z" fill="#fff"/><path d="m11.03 36.05h.08v.35h-.08z" fill="#fff"/><path d="m8.05 39.65-.27.16.27.15z" fill="#fff"/><path d="m7.72 39.65-.27.16.27.15z" fill="#fff"/><path d="m10.5 39.65.26.16-.26.15z" fill="#fff"/><path d="m10.82 39.65.27.16-.27.15z" fill="#fff"/><path d="m50.19 9.05.25-.43.24.43z" fill="#a6ce3a"/><path d="m50.19 9.15h.49v.11h-.49z" fill="#a6ce3a"/><path d="m50.36 6.6h.1v.47h-.1z" fill="#fff"/><path d="m49.04 6.6h.1v.47h-.1z" fill="#fff"/><path d="m51.69 6.6h.1v.47h-.1z" fill="#fff"/><path d="m17.48 19.58-.24 1.02-.23-1.02z" fill="#fff"/><path d="m42.74 19.58-.23 1.02-.23-1.02z" fill="#fff"/><path d="m17.7 19.75h.03v.62h-.03z" fill="#fff"/><path d="m18.4 19.75h.03v.62h-.03z" fill="#fff"/><path d="m19.1 19.75h.03v.62h-.03z" fill="#fff"/><path d="m19.79 19.75h.03v.62h-.03z" fill="#fff"/><path d="m20.49 19.75h.03v.62h-.03z" fill="#fff"/><path d="m21.19 19.75h.03v.62h-.03z" fill="#fff"/><path d="m21.88 19.75h.03v.62h-.03z" fill="#fff"/><path d="m22.58 19.75h.03v.62h-.03z" fill="#fff"/><path d="m23.28 19.75h.03v.62h-.03z" fill="#fff"/><path d="m23.97 19.75h.03v.62h-.03z" fill="#fff"/><path d="m24.67 19.75h.03v.62h-.03z" fill="#fff"/><path d="m25.37 19.75h.03v.62h-.03z" fill="#fff"/><path d="m26.06 19.75h.03v.62h-.03z" fill="#fff"/><path d="m26.76 19.75h.03v.62h-.03z" fill="#fff"/><path d="m27.46 19.75h.03v.62h-.03z" fill="#fff"/><path d="m28.15 19.75h.03v.62h-.03z" fill="#fff"/><path d="m28.85 19.75h.03v.62h-.03z" fill="#fff"/><path d="m29.55 19.75h.03v.62h-.03z" fill="#fff"/><path d="m30.24 19.75h.03v.62h-.03z" fill="#fff"/><path d="m30.94 19.75h.03v.62h-.03z" fill="#fff"/><path d="m31.64 19.75h.03v.62h-.03z" fill="#fff"/><path d="m32.33 19.75h.03v.62h-.03z" fill="#fff"/><path d="m33.03 19.75h.03v.62h-.03z" fill="#fff"/><path d="m33.73 19.75h.03v.62h-.03z" fill="#fff"/><path d="m34.42 19.75h.03v.62h-.03z" fill="#fff"/><path d="m35.12 19.75h.03v.62h-.03z" fill="#fff"/><path d="m35.82 19.75h.03v.62h-.03z" fill="#fff"/><path d="m36.51 19.75h.03v.62h-.03z" fill="#fff"/><path d="m37.21 19.75h.03v.62h-.03z" fill="#fff"/><path d="m37.91 19.75h.03v.62h-.03z" fill="#fff"/><path d="m38.6 19.75h.03v.62h-.03z" fill="#fff"/><path d="m39.3 19.75h.03v.62h-.03z" fill="#fff"/><path d="m40 19.75h.03v.62h-.03z" fill="#fff"/><path d="m40.69 19.75h.03v.62h-.03z" fill="#fff"/><path d="m41.39 19.75h.03v.62h-.03z" fill="#fff"/><path d="m42.09 19.75h.03v.62h-.03z" fill="#fff"/></svg>