<svg xmlns="http://www.w3.org/2000/svg" width="60" height="60"><ellipse cx="30" cy="7.742" fill="#fff" rx="18.4" ry="7.741"/><path d="M43.12 2.15C39.62.75 34.95 0 30 0c-4.95 0-9.6.76-13.12 2.15-3.58 1.4-5.55 3.3-5.55 5.35 0 .72.25 1.42.72 2.1l3.7 15.9c.73 3.16 2.83 5.7 5.57 7.1l-3.74 19.5c-.8 4.1 6.16 7.9 10.34 7.9h3.24c4.18 0 10.98-3.8 10.2-7.9L37.7 33.04c3.2-1.24 5.72-4 6.54-7.54l3.7-15.9c.47-.68.72-1.38.72-2.1 0-2.04-1.97-3.94-5.55-5.35zm-.17 10.28C39.5 13.8 34.9 14.55 30 14.55c-4.9 0-9.5-.75-12.96-2.12-3.38-1.33-5.25-3.08-5.25-4.93 0-1.17.74-2.3 2.17-3.33-.43.52-.66 1.08-.66 1.66 0 3.25 7.33 5.8 16.7 5.8s16.7-2.55 16.7-5.8c0-.58-.26-1.14-.7-1.66 1.44 1.02 2.2 2.16 2.2 3.33 0 1.85-1.87 3.6-5.26 4.93z"/></svg>