<svg enable-background="new 0 0 60 60" height="60" viewBox="0 0 60 60" width="60" xmlns="http://www.w3.org/2000/svg"><ellipse cx="30" cy="7.7" fill="#fff" rx="18.4" ry="7.7"/><path d="m43.1 2.2c-3.5-1.4-8.1-2.2-13.1-2.2s-9.6.8-13.1 2.2c-3.6 1.4-5.6 3.3-5.6 5.3 0 .7.2 1.4.7 2.1l3.7 15.9c.7 3.2 2.8 5.7 5.6 7.1l-3.7 19.5c-.8 4.1 6.2 7.9 10.3 7.9h3.2c4.2 0 11-3.8 10.2-7.9l-3.6-19.1c3.2-1.2 5.7-4 6.5-7.5l3.7-15.9c.5-.7.7-1.4.7-2.1.1-2-1.9-3.9-5.5-5.3zm-.1 10.2c-3.5 1.4-8 2.1-13 2.1s-9.5-.8-13-2.1c-3.4-1.3-5.2-3.1-5.2-4.9 0-1.2.7-2.3 2.2-3.3-.4.5-.7 1.1-.7 1.7 0 3.2 7.3 5.8 16.7 5.8s16.7-2.6 16.7-5.8c0-.6-.3-1.1-.7-1.7 1.4 1 2.2 2.2 2.2 3.3 0 1.9-1.9 3.6-5.2 4.9z" fill="#00572c"/></svg>