<svg enable-background="new 0 0 60 60" height="60" viewBox="0 0 60 60" width="60" xmlns="http://www.w3.org/2000/svg"><path d="m20.9 1.55v-1.33c0-.12-.1-.22-.22-.22h-.67c-.12 0-.22.1-.22.22v1.33z" fill="#755f00"/><path d="m19.4 1.55v-1.33c0-.12-.1-.22-.23-.22h-.67c-.12 0-.22.1-.22.22v1.33z" fill="#755f00"/><path d="m41.59 1.55v-1.33c0-.12-.1-.22-.22-.22h-.67c-.12 0-.22.1-.22.22v1.33z" fill="#755f00"/><path d="m40.09 1.55v-1.33c0-.12-.1-.22-.22-.22h-.67c-.12 0-.22.1-.22.22v1.33z" fill="#755f00"/><path d="m47.97 59.29c0 .39-.32.71-.71.71h-34.52c-.39 0-.71-.32-.71-.71v-57.38c0-.39.32-.71.71-.71h34.52c.39 0 .71.32.71.71z" fill="#4c5751"/><circle cx="20.36" cy="6.77" fill="#aaa" r="1.4"/><circle cx="20.36" cy="6.77" fill="#919395" r="1.01"/><circle cx="20.36" cy="6.77" fill="#414141" r=".88"/><path d="m20.24 5.09h.23v1.14h-.23z" fill="#fff"/><circle cx="20.36" cy="12.04" fill="#aaa" r="1.4"/><circle cx="20.36" cy="12.04" fill="#919395" r="1.01"/><circle cx="20.36" cy="12.04" fill="#414141" r=".88"/><path d="m20.24 10.35h.23v1.14h-.23z" fill="#fff"/><circle cx="20.36" cy="17.3" fill="#aaa" r="1.4"/><circle cx="20.36" cy="17.3" fill="#919395" r="1.01"/><circle cx="20.36" cy="17.3" fill="#414141" r=".88"/><path d="m20.24 15.61h.23v1.14h-.23z" fill="#fff"/><circle cx="20.36" cy="22.56" fill="#aaa" r="1.4"/><circle cx="20.36" cy="22.56" fill="#919395" r="1.01"/><circle cx="20.36" cy="22.56" fill="#414141" r=".88"/><path d="m20.24 20.88h.23v1.14h-.23z" fill="#fff"/><circle cx="20.36" cy="27.83" fill="#aaa" r="1.4"/><circle cx="20.36" cy="27.83" fill="#919395" r="1.01"/><path d="m21.24 27.83c0 .49-.39.88-.88.88s-.88-.39-.88-.88.39-.88.88-.88c.48-.01.88.39.88.88z" fill="#414141"/><path d="m20.24 26.14h.23v1.14h-.23z" fill="#fff"/><circle cx="30" cy="6.77" fill="#aaa" r="1.4"/><circle cx="30" cy="6.77" fill="#919395" r="1.01"/><path d="m30.88 6.77c0 .49-.39.88-.88.88s-.88-.4-.88-.88c0-.49.39-.88.88-.88s.88.4.88.88z" fill="#414141"/><path d="m29.88 5.09h.23v1.14h-.23z" fill="#fff"/><circle cx="30" cy="12.04" fill="#aaa" r="1.4"/><circle cx="30" cy="12.04" fill="#919395" r="1.01"/><path d="m30.88 12.04c0 .49-.39.88-.88.88s-.88-.4-.88-.88c0-.49.39-.88.88-.88.49-.01.88.39.88.88z" fill="#414141"/><path d="m29.88 10.35h.23v1.14h-.23z" fill="#fff"/><circle cx="30" cy="17.3" fill="#aaa" r="1.4"/><circle cx="30" cy="17.3" fill="#919395" r="1.01"/><path d="m30.88 17.3c0 .49-.39.88-.88.88s-.88-.4-.88-.88c0-.49.39-.88.88-.88s.88.39.88.88z" fill="#414141"/><path d="m29.88 15.61h.23v1.14h-.23z" fill="#fff"/><circle cx="30" cy="22.56" fill="#aaa" r="1.4"/><circle cx="30" cy="22.56" fill="#919395" r="1.01"/><path d="m30.88 22.56c0 .49-.39.88-.88.88s-.88-.4-.88-.88c0-.49.39-.88.88-.88s.88.4.88.88z" fill="#414141"/><path d="m29.88 20.88h.23v1.14h-.23z" fill="#fff"/><circle cx="30" cy="27.83" fill="#aaa" r="1.4"/><circle cx="30" cy="27.83" fill="#919395" r="1.01"/><path d="m30.88 27.83c0 .49-.39.88-.88.88s-.88-.39-.88-.88.39-.88.88-.88c.49-.01.88.39.88.88z" fill="#414141"/><path d="m29.88 26.14h.23v1.14h-.23z" fill="#fff"/><circle cx="30" cy="35.78" fill="#aaa" r="1.4"/><circle cx="30" cy="35.78" fill="#919395" r="1.01"/><path d="m30.88 35.78c0 .49-.39.88-.88.88s-.88-.4-.88-.88c0-.49.39-.88.88-.88s.88.4.88.88z" fill="#414141"/><path d="m29.88 34.1h.23v1.14h-.23z" fill="#fff"/><circle cx="39.65" cy="6.77" fill="#aaa" r="1.4"/><circle cx="39.65" cy="6.77" fill="#919395" r="1.01"/><path d="m40.53 6.77c0 .49-.39.88-.88.88s-.88-.4-.88-.88c0-.49.39-.88.88-.88.48 0 .88.4.88.88z" fill="#414141"/><path d="m39.53 5.09h.23v1.14h-.23z" fill="#fff"/><circle cx="39.65" cy="12.04" fill="#aaa" r="1.4"/><circle cx="39.65" cy="12.04" fill="#919395" r="1.01"/><path d="m40.53 12.04c0 .49-.39.88-.88.88s-.88-.4-.88-.88c0-.49.39-.88.88-.88.48-.01.88.39.88.88z" fill="#414141"/><path d="m39.53 10.35h.23v1.14h-.23z" fill="#fff"/><circle cx="39.65" cy="17.3" fill="#aaa" r="1.4"/><circle cx="39.65" cy="17.3" fill="#919395" r="1.01"/><path d="m40.53 17.3c0 .49-.39.88-.88.88s-.88-.4-.88-.88c0-.49.39-.88.88-.88.48 0 .88.39.88.88z" fill="#414141"/><path d="m39.53 15.61h.23v1.14h-.23z" fill="#fff"/><circle cx="39.65" cy="22.56" fill="#aaa" r="1.4"/><circle cx="39.65" cy="22.56" fill="#919395" r="1.01"/><path d="m40.53 22.56c0 .49-.39.88-.88.88s-.88-.4-.88-.88c0-.49.39-.88.88-.88.48 0 .88.4.88.88z" fill="#414141"/><path d="m39.53 20.88h.23v1.14h-.23z" fill="#fff"/><circle cx="39.65" cy="27.83" fill="#aaa" r="1.4"/><circle cx="39.65" cy="27.83" fill="#919395" r="1.01"/><path d="m40.53 27.83c0 .49-.39.88-.88.88s-.88-.39-.88-.88.39-.88.88-.88c.48-.01.88.39.88.88z" fill="#414141"/><path d="m39.53 26.14h.23v1.14h-.23z" fill="#fff"/><path d="m22.53 31.79c0 .06-.05.11-.11.11h-4.19c-.06 0-.11-.05-.11-.11v-.87c0-.06.05-.11.11-.11h4.19c.06 0 .11.05.11.11z" fill="#cfd1d2"/><path d="m41.66 31.79c0 .06-.05.11-.11.11h-4.19c-.06 0-.11-.05-.11-.11v-.87c0-.06.05-.11.11-.11h4.19c.06 0 .11.05.11.11z" fill="#cfd1d2"/><path d="m21.37 54.78h16.41v.35h-16.41z" fill="#282d2a"/><path d="m28.66 52.12h1.09v5.52h-1.09z" fill="#282d2a"/><path d="m29.04 52.12h.32v5.52h-.32z" fill="#a6a7aa"/><path d="m20.06 33.1h.26v12.25h-.26z" fill="#282d2a"/><g fill="#cfd1d2"><path d="m17.67 33.35h1.87v.05h-1.87z"/><path d="m20.86 33.35h1.87v.05h-1.87z"/><path d="m17.67 34h1.87v.05h-1.87z"/><path d="m20.86 34h1.87v.05h-1.87z"/><path d="m17.67 34.64h1.87v.05h-1.87z"/><path d="m20.86 34.64h1.87v.05h-1.87z"/><path d="m17.67 35.29h1.87v.05h-1.87z"/><path d="m20.86 35.29h1.87v.05h-1.87z"/><path d="m17.67 35.94h1.87v.05h-1.87z"/><path d="m20.86 35.94h1.87v.05h-1.87z"/><path d="m17.67 36.59h1.87v.05h-1.87z"/><path d="m20.86 36.59h1.87v.05h-1.87z"/><path d="m17.67 37.24h1.87v.05h-1.87z"/><path d="m20.86 37.24h1.87v.05h-1.87z"/><path d="m17.67 37.88h1.87v.05h-1.87z"/><path d="m20.86 37.88h1.87v.05h-1.87z"/><path d="m17.67 38.53h1.87v.05h-1.87z"/><path d="m20.86 38.53h1.87v.05h-1.87z"/><path d="m17.67 39.18h1.87v.05h-1.87z"/><path d="m20.86 39.18h1.87v.05h-1.87z"/><path d="m17.67 39.83h1.87v.05h-1.87z"/><path d="m20.86 39.83h1.87v.05h-1.87z"/><path d="m17.67 40.48h1.87v.05h-1.87z"/><path d="m20.86 40.48h1.87v.05h-1.87z"/><path d="m17.67 41.12h1.87v.05h-1.87z"/><path d="m20.86 41.12h1.87v.05h-1.87z"/><path d="m17.67 41.77h1.87v.05h-1.87z"/><path d="m20.86 41.77h1.87v.05h-1.87z"/><path d="m17.67 42.42h1.87v.05h-1.87z"/><path d="m20.86 42.42h1.87v.05h-1.87z"/><path d="m17.67 43.07h1.87v.05h-1.87z"/><path d="m20.86 43.07h1.87v.05h-1.87z"/><path d="m17.67 43.72h1.87v.05h-1.87z"/><path d="m20.86 43.72h1.87v.05h-1.87z"/><path d="m17.67 44.36h1.87v.05h-1.87z"/><path d="m20.86 44.36h1.87v.05h-1.87z"/><path d="m17.67 45.01h1.87v.05h-1.87z"/><path d="m20.86 45.01h1.87v.05h-1.87z"/></g><path d="m18.4 38.66h3.58v.78h-3.58z" fill="#282d2a"/><path d="m39.32 33.1h.26v12.25h-.26z" fill="#282d2a"/><path d="m36.93 33.35h1.87v.05h-1.87z" fill="#cfd1d2"/><path d="m40.12 33.35h1.87v.05h-1.87z" fill="#cfd1d2"/><path d="m36.93 34h1.87v.05h-1.87z" fill="#cfd1d2"/><path d="m40.12 34h1.87v.05h-1.87z" fill="#cfd1d2"/><path d="m36.93 34.64h1.87v.05h-1.87z" fill="#cfd1d2"/><path d="m40.12 34.64h1.87v.05h-1.87z" fill="#cfd1d2"/><path d="m36.93 35.29h1.87v.05h-1.87z" fill="#cfd1d2"/><path d="m40.12 35.29h1.87v.05h-1.87z" fill="#cfd1d2"/><path d="m36.93 35.94h1.87v.05h-1.87z" fill="#cfd1d2"/><path d="m40.12 35.94h1.87v.05h-1.87z" fill="#cfd1d2"/><path d="m36.93 36.59h1.87v.05h-1.87z" fill="#cfd1d2"/><path d="m40.12 36.59h1.87v.05h-1.87z" fill="#cfd1d2"/><path d="m36.93 37.24h1.87v.05h-1.87z" fill="#cfd1d2"/><path d="m40.12 37.24h1.87v.05h-1.87z" fill="#cfd1d2"/><path d="m36.93 37.88h1.87v.05h-1.87z" fill="#cfd1d2"/><path d="m40.12 37.88h1.87v.05h-1.87z" fill="#cfd1d2"/><path d="m36.93 38.53h1.87v.05h-1.87z" fill="#cfd1d2"/><path d="m40.12 38.53h1.87v.05h-1.87z" fill="#cfd1d2"/><path d="m36.93 39.18h1.87v.05h-1.87z" fill="#cfd1d2"/><path d="m40.12 39.18h1.87v.05h-1.87z" fill="#cfd1d2"/><path d="m36.93 39.83h1.87v.05h-1.87z" fill="#cfd1d2"/><path d="m40.12 39.83h1.87v.05h-1.87z" fill="#cfd1d2"/><path d="m36.93 40.48h1.87v.05h-1.87z" fill="#cfd1d2"/><path d="m40.12 40.48h1.87v.05h-1.87z" fill="#cfd1d2"/><path d="m36.93 41.12h1.87v.05h-1.87z" fill="#cfd1d2"/><path d="m40.12 41.12h1.87v.05h-1.87z" fill="#cfd1d2"/><path d="m36.93 41.77h1.87v.05h-1.87z" fill="#cfd1d2"/><path d="m40.12 41.77h1.87v.05h-1.87z" fill="#cfd1d2"/><path d="m36.93 42.42h1.87v.05h-1.87z" fill="#cfd1d2"/><path d="m40.12 42.42h1.87v.05h-1.87z" fill="#cfd1d2"/><path d="m36.93 43.07h1.87v.05h-1.87z" fill="#cfd1d2"/><path d="m40.12 43.07h1.87v.05h-1.87z" fill="#cfd1d2"/><path d="m36.93 43.72h1.87v.05h-1.87z" fill="#cfd1d2"/><path d="m40.12 43.72h1.87v.05h-1.87z" fill="#cfd1d2"/><path d="m36.93 44.36h1.87v.05h-1.87z" fill="#cfd1d2"/><path d="m40.12 44.36h1.87v.05h-1.87z" fill="#cfd1d2"/><path d="m36.93 45.01h1.87v.05h-1.87z" fill="#cfd1d2"/><path d="m40.12 45.01h1.87v.05h-1.87z" fill="#cfd1d2"/><path d="m37.66 38.66h3.58v.78h-3.58z" fill="#282d2a"/><path d="m30.94 41.31c0 .1-.08.18-.18.18h-1.54c-.1 0-.18-.08-.18-.18v-1.44c0-.1.08-.18.18-.18h1.54c.1 0 .18.08.18.18z" fill="#bc202e"/><path d="m30.94 44.86c0 .1-.08.18-.18.18h-1.54c-.1 0-.18-.08-.18-.18v-1.44c0-.1.08-.18.18-.18h1.54c.1 0 .18.08.18.18z" fill="#bc202e"/><path d="m39.8 58.07h-20.51c-.12 0-.23-.1-.23-.23v-6c0-.12.1-.23.23-.23h20.51c.12 0 .23.1.23.23v6c-.01.13-.11.23-.23.23zm-20.51-6.38c-.08 0-.15.07-.15.15v6c0 .08.07.15.15.15h20.51c.08 0 .15-.07.15-.15v-6c0-.08-.07-.15-.15-.15z" fill="#fff"/></svg>