<svg height="60" width="60" xmlns="http://www.w3.org/2000/svg"><path d="m3 3.8c0-2.1 1.7-3.8 3.8-3.8h47.4c2.1 0 3.8 1.7 3.8 3.8v52.4c0 2.1-1.7 3.8-3.8 3.8h-47.4c-2.1 0-3.8-1.7-3.8-3.8z"/><g fill="#fff"><path d="m13.5 3.63c.7 0 1.5.43 1.5.96v23c0 .5-.8.94-1.5.94s-1.5-.43-1.5-.96v-23c0-.54.8-.97 1.5-.97zm32.7 16.37h.8v7.6c0 .52.8.95 1.5.95s1.5-.43 1.5-.96v-7.59h1.66c.25 0 .44-.94.44-1.5s-.2-1.5-.44-1.5h-1.66v-12.4c0-.54-.8-.97-1.5-.97s-1.5.43-1.5.96v12.41h-.8c-.23 0-.43.94-.43 1.5s.2 1.5.44 1.5zm-11.4-3h1.2v10.6c0 .52.8.95 1.5.95s1.5-.43 1.5-.96v-10.59h1.25c.24 0 .44-.44.44-1s-.2-1-.46-1h-1.23v-10.4c0-.54-.8-.97-1.5-.97s-1.5.43-1.5.96v10.41h-1.2c-.25 0-.44.44-.44 1s.2 1 .44 1zm-12.7-3h1.9v13.6c0 .52.3.95 1 .95s1-.43 1-.96v-13.59h1.56c.24 0 .44-.94.44-1.5s-.2-1.5-.44-1.5h-1.56v-6.4c0-.54-.3-.97-1-.97s-1 .43-1 .96v6.41h-1.9c-.23 0-.43.94-.43 1.5s.2 1.5.44 1.5zm-5.52 2c0 .56-.2 1-.43 1h-5.45c-.25 0-.44-.44-.44-1s.2-1 .44-1h5.45c.24 0 .43.44.43 1z"/><circle cx="48.939" cy="54.104" r="2.132"/><circle cx="48.939" cy="45.857" r="2.132"/><circle cx="48.939" cy="37.613" r="2.132"/><circle cx="37.522" cy="54.104" r="2.132"/><circle cx="37.522" cy="45.857" r="2.132"/><circle cx="37.522" cy="37.613" r="2.132"/><circle cx="24.837" cy="54.104" r="2.132"/><circle cx="24.837" cy="45.857" r="2.132"/><circle cx="24.837" cy="37.613" r="2.132"/><circle cx="13.42" cy="54.104" r="2.132"/><circle cx="13.42" cy="45.857" r="2.132"/><circle cx="13.42" cy="37.613" r="2.132"/></g></svg>