<svg enable-background="new 0 0 60 60" height="60" viewBox="0 0 60 60" width="60" xmlns="http://www.w3.org/2000/svg"><path d="m3 3.8c0-2.1 1.7-3.8 3.8-3.8h47.4c2.1 0 3.8 1.7 3.8 3.8v52.4c0 2.1-1.7 3.8-3.8 3.8h-47.4c-2.1 0-3.8-1.7-3.8-3.8z" fill="#ff5a00"/><g fill="#fff"><path d="m13.5 3.6c.7 0 1.5.4 1.5 1v23c0 .5-.8.9-1.5.9s-1.5-.4-1.5-1v-23c0-.5.8-.9 1.5-.9zm32.7 16.4h.8v7.6c0 .5.8 1 1.5 1s1.5-.4 1.5-1v-7.6h1.7c.2 0 .4-.9.4-1.5s-.2-1.5-.4-1.5h-1.7v-12.4c0-.5-.8-1-1.5-1s-1.5.5-1.5 1v12.4h-.8c-.2 0-.4.9-.4 1.5s.2 1.5.4 1.5zm-11.4-3h1.2v10.6c0 .5.8 1 1.5 1s1.5-.4 1.5-1v-10.6h1.2c.2 0 .4-.4.4-1s-.2-1-.5-1h-1.1v-10.4c0-.5-.8-1-1.5-1s-1.5.5-1.5 1v10.4h-1.2c-.2 0-.4.4-.4 1s.2 1 .4 1zm-12.7-3h1.9v13.6c0 .5.3 1 1 1s1-.4 1-1v-13.6h1.6c.2 0 .4-.9.4-1.5s-.2-1.5-.4-1.5h-1.6v-6.4c0-.5-.3-1-1-1s-1 .4-1 1v6.4h-1.9c-.2 0-.4.9-.4 1.5s.2 1.5.4 1.5zm-5.5 2c0 .6-.2 1-.4 1h-5.5c-.2 0-.4-.4-.4-1s.2-1 .4-1h5.4c.3 0 .5.4.5 1z"/><circle cx="48.9" cy="54.1" r="2.1"/><circle cx="48.9" cy="45.9" r="2.1"/><circle cx="48.9" cy="37.6" r="2.1"/><circle cx="37.5" cy="54.1" r="2.1"/><circle cx="37.5" cy="45.9" r="2.1"/><circle cx="37.5" cy="37.6" r="2.1"/><circle cx="24.8" cy="54.1" r="2.1"/><circle cx="24.8" cy="45.9" r="2.1"/><circle cx="24.8" cy="37.6" r="2.1"/><circle cx="13.4" cy="54.1" r="2.1"/><circle cx="13.4" cy="45.9" r="2.1"/><circle cx="13.4" cy="37.6" r="2.1"/></g></svg>