<svg enable-background="new 0 0 60 60" height="60" viewBox="0 0 60 60" width="60" xmlns="http://www.w3.org/2000/svg"><g fill="#755f00"><path d="m20.9 1.5v-1.3c0-.1-.1-.2-.2-.2h-.7c-.1 0-.2.1-.2.2v1.3c0 .1 1.1.1 1.1 0z"/><path d="m19.4 1.5v-1.3c0-.1-.1-.2-.2-.2h-.7c-.1 0-.2.1-.2.2v1.3c0 .1 1.1.1 1.1 0z"/><path d="m41.6 1.5v-1.3c0-.1-.1-.2-.2-.2h-.7c-.1 0-.2.1-.2.2v1.3c0 .1 1.1.1 1.1 0z"/><path d="m40.1 1.5v-1.3c0-.1-.1-.2-.2-.2h-.7c-.1 0-.2.1-.2.2v1.3c0 .1 1.1.1 1.1 0z"/></g><path d="m48 59.3c0 .4-.3.7-.7.7h-34.6c-.4 0-.7-.3-.7-.7v-57.4c0-.4.3-.7.7-.7h34.5c.4 0 .7.3.7.7v57.4z" fill="#063e89"/><circle cx="20.4" cy="6.8" fill="#aaa" r="1.4"/><circle cx="20.4" cy="6.8" fill="#919395" r="1"/><circle cx="20.4" cy="6.8" fill="#414141" r=".9"/><path d="m20.2 5.1h.2v1.1h-.2z" fill="#fff"/><circle cx="20.4" cy="12" fill="#aaa" r="1.4"/><circle cx="20.4" cy="12" fill="#919395" r="1"/><circle cx="20.4" cy="12" fill="#414141" r=".9"/><path d="m20.2 10.4h.2v1.1h-.2z" fill="#fff"/><circle cx="20.4" cy="17.3" fill="#aaa" r="1.4"/><circle cx="20.4" cy="17.3" fill="#919395" r="1"/><circle cx="20.4" cy="17.3" fill="#414141" r=".9"/><path d="m20.2 15.6h.2v1.1h-.2z" fill="#fff"/><circle cx="20.4" cy="22.6" fill="#aaa" r="1.4"/><circle cx="20.4" cy="22.6" fill="#919395" r="1"/><circle cx="20.4" cy="22.6" fill="#414141" r=".9"/><path d="m20.2 20.9h.2v1.1h-.2z" fill="#fff"/><circle cx="20.4" cy="27.8" fill="#aaa" r="1.4"/><circle cx="20.4" cy="27.8" fill="#919395" r="1"/><path d="m21.2 27.8c0 .5-.4.9-.9.9s-.9-.4-.9-.9.4-.9.9-.9.9.4.9.9z" fill="#414141"/><path d="m20.2 26.1h.2v1.1h-.2z" fill="#fff"/><circle cx="30" cy="6.8" fill="#aaa" r="1.4"/><circle cx="30" cy="6.8" fill="#919395" r="1"/><path d="m30.9 6.8c0 .5-.4.9-.9.9s-.9-.4-.9-.9.4-.9.9-.9.9.4.9.9z" fill="#414141"/><path d="m29.9 5.1h.2v1.1h-.2z" fill="#fff"/><circle cx="30" cy="12" fill="#aaa" r="1.4"/><circle cx="30" cy="12" fill="#919395" r="1"/><path d="m30.9 12c0 .5-.4.9-.9.9s-.9-.4-.9-.9.4-.9.9-.9.9.5.9.9z" fill="#414141"/><path d="m29.9 10.4h.2v1.1h-.2z" fill="#fff"/><circle cx="30" cy="17.3" fill="#aaa" r="1.4"/><circle cx="30" cy="17.3" fill="#919395" r="1"/><path d="m30.9 17.3c0 .5-.4.9-.9.9s-.9-.4-.9-.9.4-.9.9-.9.9.4.9.9z" fill="#414141"/><path d="m29.9 15.6h.2v1.1h-.2z" fill="#fff"/><circle cx="30" cy="22.6" fill="#aaa" r="1.4"/><circle cx="30" cy="22.6" fill="#919395" r="1"/><path d="m30.9 22.6c0 .5-.4.9-.9.9s-.9-.4-.9-.9.4-.9.9-.9.9.4.9.9z" fill="#414141"/><path d="m29.9 20.9h.2v1.1h-.2z" fill="#fff"/><circle cx="30" cy="27.8" fill="#aaa" r="1.4"/><circle cx="30" cy="27.8" fill="#919395" r="1"/><path d="m30.9 27.8c0 .5-.4.9-.9.9s-.9-.4-.9-.9.4-.8.9-.8c.5-.1.9.3.9.8z" fill="#414141"/><path d="m29.9 26.1h.2v1.1h-.2z" fill="#fff"/><circle cx="30" cy="35.8" fill="#aaa" r="1.4"/><circle cx="30" cy="35.8" fill="#919395" r="1"/><path d="m30.9 35.8c0 .5-.4.9-.9.9s-.9-.4-.9-.9.4-.9.9-.9.9.4.9.9z" fill="#414141"/><path d="m29.9 34.1h.2v1.1h-.2z" fill="#fff"/><circle cx="39.7" cy="6.8" fill="#aaa" r="1.4"/><circle cx="39.7" cy="6.8" fill="#919395" r="1"/><path d="m40.5 6.8c0 .5-.4.9-.9.9s-.9-.4-.9-.9.4-.9.9-.9.9.4.9.9z" fill="#414141"/><path d="m39.5 5.1h.2v1.1h-.2z" fill="#fff"/><circle cx="39.7" cy="12" fill="#aaa" r="1.4"/><circle cx="39.7" cy="12" fill="#919395" r="1"/><path d="m40.5 12c0 .5-.4.9-.9.9s-.9-.4-.9-.9.4-.9.9-.9.9.5.9.9z" fill="#414141"/><path d="m39.5 10.4h.2v1.1h-.2z" fill="#fff"/><circle cx="39.7" cy="17.3" fill="#aaa" r="1.4"/><circle cx="39.7" cy="17.3" fill="#919395" r="1"/><path d="m40.5 17.3c0 .5-.4.9-.9.9s-.9-.4-.9-.9.4-.9.9-.9.9.4.9.9z" fill="#414141"/><path d="m39.5 15.6h.2v1.1h-.2z" fill="#fff"/><circle cx="39.7" cy="22.6" fill="#aaa" r="1.4"/><circle cx="39.7" cy="22.6" fill="#919395" r="1"/><path d="m40.5 22.6c0 .5-.4.9-.9.9s-.9-.4-.9-.9.4-.9.9-.9.9.4.9.9z" fill="#414141"/><path d="m39.5 20.9h.2v1.1h-.2z" fill="#fff"/><circle cx="39.7" cy="27.8" fill="#aaa" r="1.4"/><circle cx="39.7" cy="27.8" fill="#919395" r="1"/><path d="m40.5 27.8c0 .5-.4.9-.9.9s-.9-.4-.9-.9.4-.9.9-.9.9.4.9.9z" fill="#414141"/><path d="m39.5 26.1h.2v1.1h-.2z" fill="#fff"/><path d="m22.5 31.8c0 .1 0 .1-.1.1h-4.2c-.1 0-.1 0-.1-.1v-.9c0-.1 0-.1.1-.1h4.2c.1 0 .1 0 .1.1z" fill="#cfd1d2"/><path d="m41.7 31.8c0 .1 0 .1-.1.1h-4.2c-.1 0-.1 0-.1-.1v-.9c0-.1 0-.1.1-.1h4.2c.1 0 .1 0 .1.1z" fill="#cfd1d2"/><path d="m21.4 54.8h16.4v.3h-16.4z" fill="#282d2a"/><path d="m28.7 52.1h1.1v5.5h-1.1z" fill="#282d2a"/><path d="m29 52.1h.3v5.5h-.3z" fill="#a6a7aa"/><path d="m20.1 33.1h.3v12.2h-.3z" fill="#282d2a"/><path d="m18.4 38.7h3.6v.8h-3.6z" fill="#282d2a"/><path d="m39.3 33.1h.3v12.2h-.3z" fill="#282d2a"/><path d="m37.7 38.7h3.6v.8h-3.6z" fill="#282d2a"/><path d="m30.9 41.3c0 .1-.1.2-.2.2h-1.5c-.1 0-.2-.1-.2-.2v-1.4c0-.1.1-.2.2-.2h1.5c.1 0 .2.1.2.2z" fill="#bc202e"/><path d="m30.9 44.9c0 .1-.1.2-.2.2h-1.5c-.1-.1-.2-.1-.2-.2v-1.4c0-.1.1-.2.2-.2h1.5c.1 0 .2.1.2.2 0-.1 0 1.4 0 1.4z" fill="#bc202e"/><path d="m39.8 58.1h-20.5c-.1 0-.2-.1-.2-.2v-6c0-.1.1-.2.2-.2h20.5c.1 0 .2.1.2.2v6c0 .1-.1.2-.2.2zm-20.5-6.4c-.1 0-.1.1-.1.2v6c0 .1.1.2.1.2h20.5c.1 0 .2-.1.2-.2v-6c0-.1-.1-.2-.2-.2z" fill="#fff"/></svg>