<svg enable-background="new 0 0 60 60" height="60" viewBox="0 0 60 60" width="60" xmlns="http://www.w3.org/2000/svg"><circle cx="17.7" cy="42.5" fill="#fff" r="10.4"/><g fill="#00572c"><path d="m23.6 57.9c4.4-4.6 3-14.7 10.1-16.6 0 0 11.1-2.9 2.2-13.8l15.7-16.3.2.2c.4.4 1.1.4 1.5 0l6-6.8c.4-.4.4-1.1 0-1.5l-2.7-2.7c-.4-.4-1.1-.4-1.5 0l-6.7 6.1c-.4.5-.4 1.2 0 1.6l.2.2-16.1 15.8c-10.9-8.8-13.8 2.3-13.8 2.3-1.8 7.1-12 5.7-16.5 10.2-3 3-2.4 7.7-.5 11.4 2.1 4.1 6.3 8.3 10.4 10.4 3.8 1.9 8.6 2.5 11.5-.5zm33.8-53.6c.2.2.2.4 0 .6l-4.1 4.1c-.2.2-.4.2-.6 0s-.2-.4 0-.6l4.1-4.1c.2-.1.4-.1.6 0zm-1.9-1.8c.2.2.2.4 0 .6l-4.1 4.1c-.2.2-.4.2-.6 0s-.2-.4 0-.6l4.1-4.1c.2-.2.5-.2.6 0zm-44.7 46.9c-3.8-3.8-3.8-10 0-13.8s10-3.8 13.8 0 3.8 10 0 13.8-10 3.8-13.8 0z"/><path d="m53 1.1c.3.3.7.3.9 0 .3-.3.3-.7 0-.9-.3-.3-.7-.3-.9 0s-.2.7 0 .9z"/><path d="m50.9 2.9c.3.3.7.3.9 0 .3-.3.3-.7 0-.9-.3-.3-.7-.3-.9 0-.2.2-.2.6 0 .9z"/><path d="m49 4.6c.3.3.7.3.9 0 .3-.3.3-.7 0-.9-.3-.3-.7-.3-.9 0-.2.2-.2.6 0 .9z"/><path d="m58.8 6.8c.3.3.7.3.9 0 .3-.3.3-.7 0-.9-.3-.3-.7-.3-.9 0-.3.2-.3.7 0 .9z"/><path d="m57 8c-.3.3-.3.7 0 .9.3.3.7.3.9 0 .3-.3.3-.7 0-.9-.2-.3-.6-.3-.9 0z"/><path d="m56.2 9.9c-.3-.3-.7-.3-.9 0-.3.3-.3.7 0 .9.3.3.7.3.9 0 .3-.2.3-.6 0-.9z"/><path d="m22 46.1h.8v2.2h-.8z" transform="matrix(.6855 -.7281 .7281 .6855 -27.3348 31.1369)"/><path d="m23.6 44h.8v2.2h-.8z" transform="matrix(.5015 -.8652 .8652 .5015 -27.0283 43.2109)"/><path d="m20.1 47.7h.8v2.2h-.8z" transform="matrix(.8333 -.5528 .5528 .8333 -23.5597 19.4613)"/><path d="m12.3 36.9h.8v2.2h-.8z" transform="matrix(.6855 -.7281 .7281 .6855 -23.6562 21.2213)"/><path d="m10.7 38.9h.8v2.2h-.8z" transform="matrix(.5015 -.8652 .8652 .5015 -29.0793 29.5549)"/><path d="m14.2 35.2h.8v2.2h-.8z" transform="matrix(.8333 -.5528 .5528 .8333 -17.6351 14.1203)"/><path d="m11.9 47.1h2.2v.8h-2.2z" transform="matrix(.6855 -.7281 .7281 .6855 -30.4838 24.4097)"/><path d="m13.9 48.7h2.2v.8h-2.2z" transform="matrix(.5015 -.8652 .8652 .5015 -34.9783 37.4679)"/><path d="m10.2 45.1h2.2v.8h-2.2z" transform="matrix(.8333 -.5528 .5528 .8333 -23.2717 13.8257)"/><path d="m21.1 37.3h2.2v.8h-2.2z" transform="matrix(.6855 -.7281 .7281 .6855 -20.4482 28.0292)"/><path d="m19.1 35.8h2.2v.8h-2.2z" transform="matrix(.5015 -.8652 .8652 .5015 -21.2377 35.5392)"/><path d="m22.8 39.2h2.2v.8h-2.2z" transform="matrix(.8333 -.5528 .5528 .8333 -17.905 19.8053)"/><path d="m20.1 44.6h.5v1.2h-.5z" transform="matrix(.6855 -.7281 .7281 .6855 -26.5152 29.0371)"/><path d="m21 43.4h.5v1.2h-.5z" transform="matrix(.5015 -.8652 .8652 .5015 -27.4291 40.3204)"/><path d="m19 45.6h.5v1.2h-.5z" transform="matrix(.8333 -.5528 .5528 .8333 -22.3376 18.3424)"/><path d="m14.6 39.4h.5v1.2h-.5z" transform="matrix(.6855 -.7281 .7281 .6855 -24.4323 23.3978)"/><path d="m13.7 40.6h.5v1.2h-.5z" transform="matrix(.5015 -.8652 .8652 .5015 -28.7016 32.6448)"/><path d="m15.7 38.4h.5v1.2h-.5z" transform="matrix(.8333 -.5528 .5528 .8333 -18.8987 15.3235)"/><path d="m14.5 45.1h1.2v.5h-1.2z" transform="matrix(.6855 -.7281 .7281 .6855 -28.2569 25.2631)"/><path d="m15.6 46h1.2v.5h-1.2z" transform="matrix(.5015 -.8652 .8652 .5015 -31.9106 37.1125)"/><path d="m13.5 44h1.2v.5h-1.2z" transform="matrix(.8333 -.5528 .5528 .8333 -22.1058 15.176)"/><path d="m19.5 39.6h1.2v.5h-1.2z" transform="matrix(.6855 -.7281 .7281 .6855 -22.7034 27.1745)"/><path d="m18.4 38.7h1.2v.5h-1.2z" transform="matrix(.5015 -.8652 .8652 .5015 -24.2428 35.8123)"/><path d="m20.6 40.7h1.2v.5h-1.2z" transform="matrix(.8333 -.5528 .5528 .8333 -19.1036 18.5531)"/></g><g fill="#fff"><path d="m30.6 26.1v-.3c0-.2-.1-.4-.2-.7-.4-.8-1.8-.5-3.2.3-1.3.7-1.8 1.5-2.1 2.1l-.3-.2c-.1-.1-.2-.1-.3 0s-.1.2 0 .3l.4.3v.1c-.3.8-.6 1.4-1.7 2-1 .6-1.9.7-2.1.3-.1-.1-.1-.3 0-.5.1 0 .2-.1.2-.2.1-.2 0-.5-.2-.6s-.5 0-.6.2v.2c-.1.4-.1.8.1 1.2.4.8 2 .6 3.5-.3.9-.5 1.5-1.1 1.8-1.6l.1.3c.1.1.2.1.3 0s.1-.2 0-.3l-.3-.3c.1-.2.2-.5.3-.7.3-.8.7-1.4 1.7-2 .8-.4 1.7-.7 1.9-.3 0 .1.1.1.1.2-.1 0-.1.1-.2.2-.1.2 0 .5.2.6.2.2.5.1.6-.3z"/><path d="m33.3 28.3h.3c.2 0 .4.1.6.2.8.5.5 1.8-.3 3.2-.8 1.3-1.5 1.8-2.1 2l.2.3c.1.1.1.2 0 .3s-.2.1-.3 0l-.4-.3h-.1c-.8.3-1.4.6-2 1.7-.6 1-.8 1.9-.3 2.1.1.1.3.1.5 0 0-.1.1-.2.2-.2.2-.1.5 0 .6.2s0 .5-.2.6h-.2c-.4.1-.8.1-1.2-.1-.8-.4-.6-2 .3-3.5.6-.9 1.1-1.4 1.6-1.8l-.2-.3c-.1-.1-.1-.2 0-.3s.2-.1.3 0l.3.4c.2-.1.5-.2.7-.3.8-.3 1.4-.6 2-1.7.5-.8.7-1.7.3-1.9-.1 0-.1-.1-.2-.1 0 .1-.1.1-.2.2-.2.1-.5 0-.6-.2-.1-.1 0-.4.4-.5-.1 0-.1 0 0 0z"/></g></svg>