<svg enable-background="new 0 0 60 60" height="60" viewBox="0 0 60 60" width="60" xmlns="http://www.w3.org/2000/svg"><path d="m40 44.4c0 4.4-1.7 7.6-10 7.7-.5 0-.9 0-1.3 0-4.4-.2-6.7-1.4-7.9-3.3-.7-1.2-1-2.6-1-4.3s1.9-3.7 2-5.3c.1-1.3-.1-1.9-.3-2.6 1.2.1 1.2.3 2-.8.6-.8.9-1.9 1-2.9 0-.5 0-1.3-.2-1.8-.2-.6-.5-1.4-1.7-.9-.4.2.8-.9.5-1.9s-.7-2.3-.8-2.8c-.3-4 1.8-7.6 7.3-7.6h.2c5.5-.1 7.8 3.4 7.5 7.5 0 .6-.4 1.9-.7 2.8-.3 1 1 2 .6 1.8-1-.4-1.4.3-1.6.9-.2.5-.2 1.3-.2 1.8.1 1 .4 2.1 1 2.9.8 1 .6 1 1.9 1-.3.7-.3 1-.2 2.4 0 1.7 1.9 3.7 1.9 5.4z" fill="#af8424"/><path d="m38.2 39.1c-.1-1.3-.1-1.9.1-2.6-1.3.1-1.2 0-1.8-.9-.6-.8-1-1.9-1-2.9 0-.5 0-1.3.2-1.8.2-.7.7-1.2 1.8-.8.4.2-1-1.1-.7-2 .3-1 .7-2.3.7-2.9.2-4-2-7.5-7.6-7.5-5.6 0-7.8 3.5-7.5 7.6 0 .6.5 1.9.8 2.9s-.9 2.2-.5 2.1c1-.4 1.4.1 1.6.7.2.5.3 1.3.2 1.8-.1 1-.4 2.1-1 3-.8 1.1-.8.8-2 .7.3.7.4 1.4.3 2.7-.1 1.6-2 3.7-2 5.4 0 1.6.2 2.9.9 4.1 1.1 2 3.5 3.3 8.3 3.4h1.2c8.4-.1 10.2-3.1 10.2-7.6-.2-1.7-2.1-3.8-2.2-5.4zm-8.2 12.8c-.4 0-.7 0-1 0-4.8-.1-7.2-1.4-8.2-3.4-.6-1.1-.7-2.3-.8-3.8 0-.8.5-1.8 1-2.7s1-1.8 1-2.7c.1-1.1.1-1.8-.1-2.3 0 0 1 .1 1.7-1 .5-.8.9-1.9 1-3.1 0-.5 0-1.3-.2-1.9-.4-1.1-1-1.3-1.5-1.4.3-.4.5-.9.3-1.4l.1-.2c-.3-.9-.7-2.1-.7-2.7-.2-2.1.4-3.9 1.6-5.2 1.3-1.4 3.2-2.1 5.7-2.1h.1c2.4 0 4.3.7 5.6 2 1.2 1.3 1.8 3.1 1.6 5.2 0 .5-.4 1.8-.7 2.7l-.1.2c-.2.6.1 1.1.4 1.4-.5 0-1.1.3-1.4 1.4-.2.6-.3 1.4-.2 1.9.1 1.2.5 2.3 1.1 3.1s1.4 1 1.5 1c-.2.5.1 1.1.2 2.2.1.9.6 1.8 1 2.7.5.9 1 1.9 1 2.7 0 4.4-1.7 7.3-10 7.4z" fill="#af8424"/><path d="m30.7 51.2v-1.5h.1c.5 0 .9-.2.9-.4s-.3-.3-.7-.4c0-.2-.1-3.1.2-4.1.2-.6 1.3-2.3 1.3-2.3s-1.8-.2-2.4-.2-2.6.2-2.6.2 1.2 1.7 1.4 2.3c.4 1 .4 4.1.4 4.1-.4 0-.6.2-.6.3 0 .2.4.4.9.4h.1v1.5c-.6.1-1 .3-1 .5 0 .3.7.6 1.5.6s1.5-.2 1.5-.6c0-.1-.4-.3-1-.4z" fill="#404041"/><path d="m27.1 31.4c.2-.1.3-.3.2-.6s-.3-.4-.5-.3c-.1.1-.2.2-.2.4-.3.1-.8.6-.3 2.3.2.7.2 1.3.1 1.9-.1 0-.2 0-.3 0-.3.1-.5.4-.5.8-.5.2-1.1.8-1.3 2.8-.1 1.1-.5 1.9-.9 2.5-.1-.1-.2-.1-.4-.1-.6 0-1.1.5-1.1 1.2 0 .6.3 1.4 1.1 1.4 1 0 1.2-1.2 1.4-1.9.4-1.3.4-2.6.6-3.9.1-.5.2-1 .4-1.5 0-.1.1-.2.2-.3.1.2.3.5.5.5h.1.1s.2 0 .3-.1c.6-.3.5-1.1.4-1.6-.1-.9-.4-1.8-.6-2.7-.1-.3-.1-.7-.1-1 0-.1.1-.4.1-.5v.1c.3.5.5.7.7.6z" fill="#58595b"/><path d="m33 31.4c-.2-.1-.3-.3-.2-.6s.3-.4.5-.3c.1.1.2.2.2.4.3.1.8.6.3 2.3-.2.7-.2 1.3-.1 1.9h.3c.3.1.5.4.5.8.5.2 1.1.8 1.3 2.8.1 1.1.5 1.9.9 2.5.1-.1.2-.1.4-.1.6 0 1.1.5 1.1 1.2 0 .6-.3 1.4-1.1 1.4-1 0-1.2-1.2-1.4-1.9-.4-1.3-.4-2.6-.6-3.9-.1-.5-.2-1-.4-1.5 0-.1-.1-.2-.2-.3-.1.2-.3.5-.5.5h-.1s0 0-.1 0-.2 0-.3-.1c-.6-.3-.5-1.1-.4-1.6.1-.9.4-1.8.6-2.7.1-.3.1-.7.1-1 0-.1-.1-.4-.1-.5v.1c-.3.5-.5.6-.7.6z" fill="#58595b"/><path d="m32.3 37.2h-4.6c-.2 0-.3.2-.3.4s.1.4.3.4h4.6c.2 0 .3-.2.3-.4 0-.3-.1-.4-.3-.4z" fill="#e6e7e8"/><path d="m31.3 33.9-.8-24.4h.1v-2.5h-.2-1.4-.1v2.5h.1l-.3 24.4z" fill="#404041"/><path d="m30.7 4.6c0-.6-.4-1.2-.9-1.2s-.9.5-.9 1.2v1.2 1.2c0 .6.4 1.2.9 1.2s.9-.5.9-1.2l.1-1.2z" fill="#754c28"/><g fill="#404041"><path d="m29.6 4h-1.7c0-.4-.2-.7-.4-.7-.3 0-.9.4-.9 1s.6.9.9.9.4-.3.4-.7h1.7c.1 0 .1-.1.1-.3 0-.1 0-.2-.1-.2z"/><path d="m29.3 6.7h-1.6c0-.4-.2-.7-.4-.7-.3 0-.8.4-.8 1s.5 1 .8 1 .4-.3.4-.7h1.6s.1-.1.1-.3 0-.3-.1-.3z"/><path d="m29.9 4.5h1.6c0-.4.2-.7.4-.7.3 0 .8.4.8 1s-.5.9-.8.9-.4-.3-.4-.7h-1.6s-.1-.1-.1-.3c0-.1.1-.2.1-.2z"/><path d="m29.9 6.7h1.6c.1-.5.2-.7.5-.7s.9.4.8 1c0 .6-.6.9-.9.9s-.4-.3-.4-.7h-1.6s-.1-.1-.1-.3c0-.1.1-.2.1-.2z"/></g><path d="m31 1.4c0-.8-.5-1.4-1.2-1.4s-1.2.6-1.2 1.4c0 .6.3 1.1.8 1.3v1.1h.8v-1c.4-.2.8-.7.8-1.4z" fill="#3b2314"/><ellipse cx="29.8" cy="1.5" fill="#af8424" rx="1.5" ry="1"/><path d="m29.8 1.5c-.7 0-1.3-.3-1.3.1s.6.6 1.3.6 1.3-.3 1.3-.6-.6-.1-1.3-.1z" fill="#e6e7e8"/><path d="m30.7 3.8c-.1 0-.1.1-.1.2v3.6c0 .1.1.2.1.2s.1-.1.1-.2v-3.6c0-.1-.1-.2-.1-.2z" fill="#a87c4f"/><path d="m28.9 3.8c-.1 0-.1.1-.1.2v3.6c0 .1.1.2.1.2s.1-.1.1-.2v-3.6c0-.1 0-.2-.1-.2z" fill="#a87c4f"/><path d="m30.1 7 1.2 34.6c0 1 .1 1.7.1 1.7s0-.8 0-1.8l-1.1-34.5c0-1-.1-1.7-.1-1.7-.1-.1-.1.7-.1 1.7z" fill="#d0d2d3"/><path d="m29.4 7.2-.7 34.4c0 1-.1 1.7-.1 1.7s-.1-.8 0-1.7l.7-34.4c0-1 .1-1.7.1-1.7z" fill="#d0d2d3"/><path d="m29.8 5 .6 36.5c0 1 .1 1.8.1 1.8s.1-.8 0-1.8l-.6-36.5c0-1-.1-1.8-.1-1.8 0-.1 0 .8 0 1.8z" fill="#d0d2d3"/><path d="m29.6 43.4s.1-.8.1-1.8v-36.5c0-1 0-1.8-.1-1.8 0 0-.1.8-.1 1.8v36.5z" fill="#d0d2d3"/><path d="m30.5 57.6c0-.2 0-2.7.1-3.6.1-.5.3-2 .3-2s-.5-.2-.6-.2c-.2 0-.7.1-.7.1s.3 1.5.4 2c.1.9.1 3.6.1 3.6-.1 0-.2.2-.2.3 0 .2.1.3.2.3v1.6c0 .1.1.2.1.2.1 0 .1-.1.1-.2v-1.6h.1c.1 0 .2-.1.2-.3.1-.1 0-.2-.1-.2z" fill="#404041"/><path d="m31.1 42.3h-2.2c-.5 0-.9.3-.9.6s.4.6.9.6h2.2c.5 0 .9-.3.9-.6s-.4-.6-.9-.6z" fill="#6d6e70"/><path d="m28.5 42.9h3v.3h-3z" fill="#603813"/><path d="m30.2 43.8c-.1 0-.1 2.9-.1 6.5s.1 6.5.2 6.5.1-2.9.1-6.5c-.1-3.6-.1-6.5-.2-6.5z" fill="#e6e7e8"/><path d="m36.4 15c-.1 0-.2.1-.2.3l-2 28.4c0 .2.1.3.2.4.1 0 .2-.1.2-.3l2-28.4c.1-.2 0-.4-.2-.4z" fill="#c3996b"/><path d="m34 43.3c.2 1.9.1 3.8-.4 5.5.2.1.4.1.7.2-.1-1.9.1-3.7.6-5.4-.3-.2-.6-.2-.9-.3z" fill="#603813"/><path d="m37.2 12.5c0-.2-.2-.3-.4-.4 0-.1-.1-.2-.1-.2-.1 0-.1.1-.2.2-.2 0-.4.1-.4.2s.1.2.3.3c-.1.4-.1.9-.2 1.4-.1 1.2 0 2.2.2 2.3.2 0 .4-.9.5-2.1 0-.5 0-1 0-1.4.1-.1.3-.1.3-.3z" fill="#404041"/></svg>