<svg enable-background="new 0 0 60 60" height="60" viewBox="0 0 60 60" width="60" xmlns="http://www.w3.org/2000/svg"><path d="m40.1 40.5c0-.5 0-1 .1-1.4.1-.2.4-.6.3-.9-.1-.2-.3-.1-.5-.1s-.4 0-.6 0c-.7-.1-1.1-.6-1.5-1-.7-.8-1.1-2-1.2-3 0-.5 0-1.3.3-1.8.2-.4.4-.8.9-1 .2-.1.5-.2.8-.2s.6 0 .5-.2c-.4-.4-1-.9-.8-1.5.4-1 .9-2.3.9-2.9.3-3.9-5.8-8.3-9-9.1-.1 0-.1 0-.2 0 0 0-.1 0-.2 0-.1 0-.1 0-.2 0 0 0-.1 0-.2 0-3.2.9-9.3 5.2-9 9.1 0 .6.5 1.9.9 2.9.2.4-.1.9-.5 1.2-.1.1-.3.3-.3.4s.3.1.5 0c.9 0 1.4.6 1.6 1.2.2.5.3 1.3.3 1.8-.1 1-.5 2.2-1.2 3-.3.3-.6.8-1.1 1-.2.1-.4.1-.6.1s-.6-.1-.8 0 .1.4.1.6c.2.6.3 1.2.2 1.8-.1 1.7-2.8 5.7-2.8 7.5 0 4.6 2.5 8.4 12.7 8.4h.2.2c10.2 0 12.7-3.8 12.7-8.4.3-1.8-2.3-5.8-2.5-7.5z" fill="#c12127"/><path d="m41.2 44.1c-.7-1.4-1.3-2.7-1.4-3.6-.1-1.1.1-1.6.3-2.1-.1 0-.1 0-.2 0-1.1 0-1.3-.3-2.1-1.2-.7-.8-1.1-1.9-1.3-3.1 0-.5 0-1.4.3-1.9.5-1.1 1.2-1.4 1.8-1.4-.3-.4-.6-.9-.4-1.5l.1-.2c.3-.9.8-2.2.8-2.7.1-1.6-1-3.6-3.1-5.5-1.7-1.5-4-2.9-5.7-3.3h-.1-.1c-1.7.5-3.9 1.8-5.7 3.3-2.1 1.9-3.2 3.8-3.1 5.5 0 .5.5 1.8.8 2.7l.1.2c.2.6-.1 1.1-.4 1.5.6 0 1.3.3 1.8 1.4.3.6.3 1.4.3 1.9-.1 1.2-.6 2.3-1.3 3.1-.8.9-1 1.2-2.1 1.2-.1 0-.1 0-.2 0 .2.5.3 1 .3 2.1-.1.8-.7 2.2-1.4 3.6-.7 1.5-1.4 3-1.4 3.8 0 2.5.8 4.4 2.4 5.7 2 1.6 5.3 2.4 9.9 2.4h.2.1.1.2c4.6 0 8-.8 9.9-2.4 1.6-1.3 2.4-3.2 2.4-5.7-.4-.8-1.1-2.3-1.8-3.8zm-1.3 9.3c-1.9 1.5-5.1 2.3-9.7 2.3-.1 0-.1 0-.2 0h-.1-.1c-.1 0-.1 0-.2 0-4.5 0-7.8-.8-9.7-2.3-1.5-1.2-2.3-3-2.3-5.5 0-.8.7-2.3 1.4-3.7s1.3-2.8 1.4-3.7c.1-.8 0-1.4-.1-1.8 1-.1 1.4-.5 2.1-1.3s1.2-2 1.3-3.3c.1-.6 0-1.5-.3-2.1-.4-.9-1-1.3-1.5-1.5.3-.5.3-.9.2-1.3l.1-.2c-.3-.9-.8-2.1-.8-2.6-.1-1.5.9-3.4 3-5.2 1.7-1.5 3.9-2.8 5.4-3.2h.2l.2-.1c1.6.5 3.8 1.7 5.4 3.2 2.1 1.8 3.1 3.7 3 5.2 0 .5-.5 1.8-.8 2.6l-.1.2c-.2.4-.1.9.2 1.3-.5.2-1.1.6-1.5 1.5-.3.6-.4 1.5-.3 2.1.1 1.3.6 2.5 1.3 3.3s1.1 1.2 2.1 1.3c-.1.4-.2 1-.1 1.8.1.9.7 2.3 1.4 3.7s1.4 2.9 1.4 3.7c0 2.6-.8 4.4-2.3 5.6z" fill="#1c1c1c"/><path d="m35.2 40.7c.3 0 .5.2.6.4.5.1 1.5.5 1.5 3.2 0 1.1.4 2.1.7 2.8.1-.1.3-.1.4-.1.7 0 1.2.6 1.2 1.4 0 .6-.5 1.5-1.4 1.4-1.1-.1-1.3-1.4-1.4-2.1-.3-1.4-.3-2.8-.3-4.2 0-.5-.1-1.1-.3-1.6-.1-.2-.4-.5-.4-.7v.1c0 .4-.3.8-.6.8s-.6-.3-.6-.8c0-.3.3-.6.6-.6z"/><path d="m36.6 23c-1-2.1-3.4-3.1-3.4-3.1s1.5 1.3 2.5 3.4 1.2 4.1 1.2 4.1.7-2.3-.3-4.4z" fill="#fcfcfc" opacity=".25"/><path d="m32.8 39.5h-5.8c-.2 0-.4.2-.4.4s.2.4.4.4h5.7c.2 0 .4-.2.4-.4.1-.2-.1-.4-.3-.4z" fill="#e6e7e8"/><path d="m24.8 41c-.3 0-.5.2-.6.4-.5.1-1.5.5-1.5 3.2 0 1.1-.4 2.1-.7 2.8-.1-.1-.3-.1-.4-.1-.7 0-1.2.6-1.2 1.4 0 .6.5 1.5 1.4 1.4 1.1-.1 1.3-1.4 1.4-2.1.3-1.4.3-2.8.3-4.2 0-.5.1-1.1.3-1.6.1-.2.4-.5.4-.7v.1c0 .4.3.8.6.8s.6-.3.6-.8c0-.3-.3-.6-.6-.6z"/><path d="m28.6 7.6-.4 27.7h3.4l-1.1-27.7z" fill="#404041"/><path d="m30.1 7.7 1.3 35.8c0 1 .1 1.8.2 1.8 0 0 .1-.8 0-1.8l-1.3-35.8c0-1-.1-1.8-.2-1.8 0-.1 0 .8 0 1.8z" fill="#d0d2d3"/><path d="m28.9 7.6-.5 35.9c0 1-.1 1.8-.1 1.8s-.1-.8-.1-1.8l.5-35.9c0-1 .1-1.8.1-1.8.1 0 .1.9.1 1.8z" fill="#d0d2d3"/><path d="m29.6 6.3.8 37.1c0 1 .1 1.9.1 1.9s.1-.8 0-1.9l-.7-37.1c0-1-.1-1.9-.1-1.9-.1 0-.1.8-.1 1.9z" fill="#d0d2d3"/><path d="m29.4 45.3s.1-.8.1-1.9l-.1-37.1c0-1 0-1.9-.1-1.9 0 0-.1.8-.1 1.9l.1 37.1z" fill="#d0d2d3"/><path d="m30.6 55.6c0-.3-.1-4.9.1-6.4.1-.9.8-3.6.8-3.6s-1.2-.3-1.5-.3c-.4 0-1.6.2-1.6.2s.8 2.7.9 3.6c.3 1.6.3 6.4.3 6.5-.2.1-.4.3-.4.5 0 .3.3.6.6.6v2.9c0 .2.1.3.3.3.1 0 .3-.1.3-.3v-2.9h.1c.3 0 .6-.3.6-.6-.1-.2-.3-.4-.5-.5z" fill="#404041"/><path d="m31.4 44.7h-2.8c-.6 0-1.1.3-1.1.6s.5.6 1.1.6h2.8c.6 0 1.1-.3 1.1-.6s-.5-.6-1.1-.6z" fill="#6d6e70"/><path d="m27.9 45.3h3.8v.3h-3.8z" fill="#603813"/><path d="m30 49.2c-.1 0-.1 2.2-.1 5s.1 5 .1 5c.1 0 .1-2.2.1-5 .1-2.8 0-5-.1-5z" fill="#e6e7e8"/><path d="m23.6 22.6c-1.2 2.1-.6 4.4-.6 4.4s.3-1.9 1.6-4 2.4-3 2.4-3-2.1.5-3.4 2.6z" fill="#fcfcfc" opacity=".25"/><path d="m31.1 1.5c0-.8-.7-1.5-1.6-1.5-.8 0-1.5.7-1.5 1.5 0 .6.4 1.2 1 1.4v1.1h1v-1.1c.7-.2 1.1-.8 1.1-1.4z" fill="#3b2314"/><path d="m29.4 3.3h.4c-.7 0-1.6.5-1.6 1.1v2.7c0 .6.6 1.1 1.3 1.1.7 0 1.4-.4 1.4-1.1v-2.8c0-.5-.8-1-1.5-1z" fill="#754c28"/><ellipse cx="29.5" cy="1.5" fill="#c12127" rx="2" ry="1"/><g fill="#404041"><path d="m28.9 4.6h-2c0-.4-.2-.7-.5-.7-.4 0-1 .4-1 1s.6 1 1 1c.3 0 .5-.3.5-.7h1.9c.1 0 .1-.1.1-.3.1-.1 0-.3 0-.3z"/><path d="m28.8 6.7h-2c0-.4-.2-.7-.5-.7-.4 0-1 .4-1 1s.6 1 1 1c.3 0 .5-.3.5-.7h1.9c.1 0 .1-.1.1-.3.1-.1.1-.3 0-.3z"/><path d="m30.2 4.6h2c0-.4.2-.7.5-.7.4 0 1 .4 1 1s-.6 1-1 1c-.3 0-.5-.3-.5-.7h-1.9c-.1 0-.1-.1-.1-.3-.1-.1 0-.3 0-.3z"/><path d="m30.2 6.7h2c0-.4.2-.7.5-.7.4 0 1 .4 1 1s-.6 1-1 1c-.3 0-.5-.3-.5-.7h-1.9c-.1 0-.1-.1-.1-.3-.1-.1 0-.3 0-.3z"/></g><path d="m30.9 3.9c-.1 0-.2.1-.2.2v3.7c0 .1.1.2.2.2s.2-.1.2-.2v-3.7c0-.1-.1-.2-.2-.2z" fill="#a87c4f"/><path d="m28.2 3.9c-.1 0-.2.1-.2.2v3.7c0 .1.1.2.2.2s.2-.1.2-.2v-3.7c0-.1-.1-.2-.2-.2z" fill="#a87c4f"/><path d="m29.5 1.5c-1 0-1.8-.3-1.8.1s.8.6 1.8.6 1.8-.3 1.8-.6c0-.4-.8-.1-1.8-.1z" fill="#e6e7e8"/><path d="m28.4 7.2v2.5h.3l-.1-2.5z" fill="#6d6e70"/><path d="m30.5 7.2h.2v2.5h-.2z" fill="#6d6e70"/><path d="m29.4 17.2c-.2 0-.3.1-.3.3l1 23.7c0 .1.1.3.3.3s.3-.1.3-.3l-1-23.7c0-.1-.1-.3-.3-.3z" fill="#84100a"/><path d="m29.9 39.1c.5 1.4.6 2.8.3 4.2h.7c-.4-1.4-.4-2.8 0-4.2-.3 0-.7 0-1 0z" fill="#603813"/><path d="m29.4 16.7c-.2 0-.4 1.1-.3 2.4s.3 2.4.5 2.4.4-1.1.3-2.4c0-1.3-.3-2.4-.5-2.4z" fill="#404041"/></svg>