<svg height="60" width="60" xmlns="http://www.w3.org/2000/svg"><path d="m28.54 4.1c.27 0 .5-.23.5-.5s-.23-.5-.5-.5-.5.22-.5.5.23.5.5.5zm2.63 1.58c0 .27.22.5.5.5.27 0 .5-.23.5-.5s-.23-.5-.5-.5c-.28 0-.5.23-.5.5zm.33-1.6c.28 0 .5-.2.5-.48s-.23-.5-.5-.5-.5.22-.5.5.23.5.5.5zm7.7 44.73c-.43-1.4-.47-3 .58-3.95-.08 0-.16 0-.23 0-.7-.02-2.86-.3-3.64-2.8-1.04-3.4 1.9-3.7 1.9-3.7-1-.8-1.17-2.2-1.07-3.4s.4-2.4.12-3.6c-.37-1.63-1.66-2.95-3.03-3.65-.76-.4-1.56-.6-2.37-.77-.1-.02-.17-.03-.25-.04l-.22-18.76-.3-6.86c.2-.06.35-.33.35-.65 0-.36-.17-.65-.4-.65h-1.2c-.22 0-.4.3-.4.65 0 .32.14.6.34.64l-.3 6.85-.2 18.7c-.9.14-1.8.4-2.65.84-1.38.7-2.67 2-3.03 3.64-.28 1.2 0 2.4.1 3.6s-.07 2.6-1.07 3.4c0 0 3.13.34 1.94 3.7-.92 2.55-3.18 2.8-3.77 2.8-.05 0-.1 0-.15 0 1.05.95 1 2.57.6 3.97s-1.14 2.8-1.04 4.2c.13 1.9 1.85 3.45 3.98 4.26 1.2.46 2.54.7 3.87.9.6.08 1.23.13 1.9.15-.08-1.27-.5-8.9-2-12.54h4.97c-1.5 3.65-1.94 11.28-2 12.55 2-.04 4.07-.4 5.75-1.05 2.1-.82 3.85-2.35 3.98-4.25.1-1.4-.63-2.8-1.04-4.2zm-12.3-9.4c.04-.12.12-.17.16-.2.06 0 .13 0 .18.05.02 0 .04.02.05.04 0 0 .02.02.03.02.03.03.06.04.1.05.07 0 .07 0 .1-.03.03-.04.05-.14 0-.2-.02-.1-.12-.14-.23-.16-.26-.04-.6.04-.82.22-.23.16-.4.44-.46.77-.06.3-.03.62.07.95.06.27.17.53.3.8.15.38.32.77.4 1.2.1.4.05.82-.1 1.2-.07.2-.2.4-.35.54-.12.12-.32.3-.63.35-.06 0-.12 0-.17 0-.06 0-.12 0-.18 0-.13-.03-.26-.1-.36-.2-.2-.2-.3-.56-.1-.84.1-.13.27-.2.4-.2.18 0 .37.08.38.25 0 .13-.1.2-.13.2 0 0-.02.03-.03.04-.02 0-.03.03-.03.05 0 .06.13.06.16.06.1 0 .25-.07.37-.17.2-.18.34-.46.37-.78.06-.4-.06-.8-.17-1.1-.06-.16-.13-.32-.2-.48-.1-.28-.23-.56-.32-.86-.13-.53-.1-1.07.1-1.53.1-.25.25-.45.44-.6.18-.15.4-.26.67-.34.25-.07.46-.1.66-.03.14.03.26.1.37.18.1.1.2.22.24.36.1.28.06.57-.1.8-.05.05-.1.1-.17.15-.1.06-.18.1-.26.1-.17.04-.36 0-.5-.1-.18-.1-.3-.35-.24-.54zm5.42 4.24h-4.64c-.13 0-.23-.1-.23-.23s.1-.2.23-.2h4.64c.13 0 .23.1.23.2s-.1.24-.23.24zm2.73 1.17c-.1.1-.22.17-.35.2-.06 0-.12 0-.2 0-.04 0-.1 0-.16 0-.3-.06-.5-.23-.63-.35-.13-.15-.25-.34-.34-.55-.13-.38-.17-.8-.1-1.2.1-.43.26-.82.42-1.2.12-.27.23-.53.3-.8.12-.33.14-.66.08-.96-.07-.32-.23-.6-.46-.76-.24-.18-.57-.26-.84-.22-.1.02-.2.07-.24.15-.03.1-.02.2 0 .23.05.04.05.04.1.03.05 0 .08-.02.12-.04 0 0 .02 0 .04-.02s.04-.03.05-.04c.05-.04.12-.06.18-.04.07.02.15.06.2.2.04.2-.08.44-.26.55-.13.1-.32.13-.5.1-.08-.02-.16-.05-.24-.1-.1-.06-.14-.1-.2-.17-.14-.22-.18-.5-.1-.78.06-.14.14-.27.26-.36.1-.1.22-.15.36-.18.2-.05.4-.04.65.03.27.08.5.2.67.34.2.15.34.35.46.6.2.45.22 1 .06 1.53-.1.3-.2.58-.32.86-.06.16-.13.32-.2.48-.1.3-.23.7-.18 1.1.04.34.17.6.37.8.12.1.26.15.37.15.03 0 .15 0 .16-.06 0-.03 0-.05-.03-.06 0 0-.02-.02-.03-.03-.04 0-.13-.07-.12-.2 0-.16.2-.25.36-.25.15 0 .3.08.4.2.22.3.12.67-.1.86zm-6.68-38.64c.28 0 .5-.22.5-.5 0-.26-.22-.48-.5-.48-.27 0-.5.2-.5.47s.23.5.5.5zm1.34 53.1.3.73.3-.72v-1h-.6v1zm5.69-59.03c-.13 0-.24.1-.24.24v.07h-.93c-.2 0-.35.15-.35.34 0 .2.16.35.35.35h.14v19.25h-.08c-.24 0-.43.18-.43.4v1.82c0 .22.2.4.4.4h.88v1.07c0 .1.1.22.24.22.13 0 .23-.1.23-.24v-23.67c0-.14-.1-.25-.24-.25zm-.24 20.25h-.72v-19.23h.72z"/></svg>