<svg enable-background="new 0 0 60 60" height="60" viewBox="0 0 60 60" width="60" xmlns="http://www.w3.org/2000/svg"><path d="m28.5 4.1c.3 0 .5-.2.5-.5s-.2-.5-.5-.5-.5.2-.5.5.3.5.5.5zm2.7 1.6c0 .3.2.5.5.5s.5-.2.5-.5-.2-.5-.5-.5-.5.2-.5.5zm.3-1.6c.3 0 .5-.2.5-.5s-.2-.5-.5-.5-.5.2-.5.5.2.5.5.5zm7.7 44.7c-.4-1.4-.5-3 .6-4-.1 0-.2 0-.2 0-.7 0-2.9-.3-3.6-2.8-1-3.4 1.9-3.7 1.9-3.7-1-.8-1.2-2.2-1.1-3.4s.4-2.4.1-3.6c-.4-1.6-1.7-3-3-3.6-.8-.4-1.6-.6-2.4-.8-.1 0-.2 0-.2 0l-.3-18.8-.3-6.9c.2 0 .3-.3.3-.6s-.1-.6-.4-.6h-1.2c-.2 0-.4.3-.4.6s.1.6.3.6l-.3 6.8-.2 18.7c-.9.1-1.8.4-2.6.8-1.4.7-2.7 2-3 3.6-.3 1.2 0 2.4.1 3.6s-.1 2.6-1.1 3.4c0 0 3.1.3 1.9 3.7-.9 2.5-3.2 2.8-3.8 2.8h-.1c1 1 1 2.6.6 4s-1.1 2.8-1 4.2c.1 1.9 1.9 3.5 4 4.3 1.2.5 2.5.7 3.9.9.6.1 1.2.1 1.9.2-.1-1.3-.5-8.9-2-12.5h5c-1.5 3.7-1.9 11.3-2 12.5 2 0 4.1-.4 5.8-1 2.1-.8 3.8-2.3 4-4.2 0-1.4-.8-2.8-1.2-4.2zm-12.3-9.4c0-.1.1-.2.2-.2h.2.1.1s0-.1 0-.2-.1-.1-.2-.2c-.3 0-.6 0-.8.2s-.4.4-.5.8c-.1.3 0 .6.1 1 .1.3.2.5.3.8.1.4.3.8.4 1.2s0 .8-.1 1.2c-.1.2-.2.4-.4.5-.1.3-.3.5-.6.5-.1 0-.1 0-.2 0s-.1 0-.2 0-.3-.1-.4-.2c-.2-.2-.3-.6-.1-.8.1-.1.3-.2.4-.2.2 0 .4.1.4.2s-.1.2-.1.2c0 .1.1.1.2.1s.2-.1.4-.2c.2-.2.3-.5.4-.8.1-.4-.1-.8-.2-1.1-.1-.2-.1-.3-.2-.5-.1-.3-.2-.6-.3-.9-.1-.5-.1-1.1.1-1.5.1-.2.2-.5.4-.6.2-.2.4-.3.7-.3.2-.1.5-.1.7 0 .1 0 .3.1.4.2s.2.2.2.4c.1.3.1.6-.1.8 0 0-.1.1-.2.2s-.2.1-.3.1c-.2 0-.4 0-.5-.1-.2-.1-.4-.4-.3-.6zm5.4 4.2h-4.6c-.1 0-.2-.1-.2-.2s.1-.2.2-.2h4.6c.1 0 .2.1.2.2s0 .3-.2.2zm2.7 1.2c0 .1-.2.2-.3.2s-.1 0-.2 0c0 0-.1 0-.2 0-.3-.1-.5-.2-.6-.3-.1-.2-.2-.3-.3-.5-.1-.4-.2-.8-.1-1.2s.3-.8.4-1.2c.1-.3.2-.5.3-.8s.1-.7.1-1c-.1-.3-.2-.6-.5-.8-.2-.2-.6-.3-.8-.2-.1 0-.2.1-.2.2v.2h.1.1s0 0 0 0 .1-.1.2 0c.1 0 .2.1.2.2 0 .2-.1.4-.3.5-.1.1-.3.1-.5.1-.1 0-.2 0-.2-.1-.1-.1-.1-.1-.2-.2-.1-.2-.2-.5-.1-.8.1-.1.1-.3.3-.4.1-.1.2-.2.4-.2h.7c.3.1.5.2.7.3.2.2.3.3.5.6.2.5.2 1 .1 1.5-.1.3-.2.6-.3.9-.1.2-.1.3-.2.5-.1.3-.2.7-.2 1.1 0 .3.2.6.4.8.1.1.3.2.4.2 0 0 .2 0 .2-.1 0 0 0 0 0-.1s-.1-.1-.1-.2c0-.2.2-.2.4-.2s.3.1.4.2c-.2.3-.3.7-.6.8zm-6.6-38.6c.3 0 .5-.2.5-.5s-.2-.5-.5-.5-.5.2-.5.5.2.5.5.5zm1.3 53.1.3.7.3-.7v-1h-.6zm5.7-59.1c-.1 0-.2.1-.2.2v.1h-.9c-.2 0-.3.2-.3.3 0 .2.2.4.3.4h.1v19.2h-.1c-.2 0-.4.2-.4.4v1.8c0 .2.2.4.4.4h.9v1.1c0 .1.1.2.2.2s.2-.1.2-.2v-23.6c0-.1-.1-.3-.2-.3zm-.2 20.3h-.7v-19.2h.7z" fill="#af8424"/></svg>