<svg enable-background="new 0 0 60 60" height="60" viewBox="0 0 60 60" width="60" xmlns="http://www.w3.org/2000/svg"><path d="m38.1 17c-1.9-.2-6.1-.4-8.2-.4s-6.3.2-8.3.6c-2.1.5-1.9 2-1.8 4.4s.3 4.8 2.5 4.8l15.9.3c1.5-.1 2.2-2.2 2.1-4.6s0-4.9-2.2-5.1z" fill="#063e89"/><path d="m20.5 26.8c0-.1.2-.3.5-.3.2 0 .7.3 1 .3 1.7.2 4.8 0 8.3 0 3.7 0 6.7 0 8.3-.2.3 0 .6-.1.8-.1.4.1.8 0 .8 0s-.1.1-.1.2c-.8.4-4.6.7-9.8.7-5.2.1-9.7 0-9.8-.6z" fill="#d0d2d3"/><path d="m19.7 18.4c0-.4.3-.7.7-.8 1.3-.5 5-.9 9.4-1 4.8-.1 8.8.3 9.8.9.4.1.6.3.7.6 0 .2-.1.5-.3.6v-.1c0-.2-.2-.3-.6-.4-.2-.1-.5-.1-.8-.2-1.8-.4-5-.6-8.7-.5-3.5.1-6.6.3-8.3.7-.4.1-.7.2-1 .3-.4.1-.5.3-.5.4-.3-.1-.4-.3-.4-.5z" fill="#bbbdbf"/><path d="m19.5 19.7c0-.4.3-.7.7-.8 1.3-.5 5.1-1 9.6-1 4.9-.1 9 .3 10.1.8.4.1.6.3.7.6 0 .2-.1.5-.3.6v-.1c0-.2-.2-.3-.6-.4-.2-.1-.5-.1-.8-.2-1.8-.4-5.1-.6-8.9-.5-3.6.1-6.8.3-8.5.7-.4.1-.8.2-1 .3-.4.1-.5.3-.5.4-.4 0-.5-.2-.5-.4z" fill="#bbbdbf"/><path d="m21.1 26.7c.3-.1.6-.1 1-.2 1.8-.2 4.9-.4 8.4-.4 3.7 0 6.9.1 8.6.3.3 0 .6 0 .8.1-.2 0-.4.1-.7.2-1.7.2-5 .2-8.7.2-3.6 0-6.6.1-8.4-.1-.4 0-.7-.1-1-.1z" fill="#bbbdbf"/><path d="m30.4 26.3c-3.5 0-6.3.1-6.3.3 0 .1 2.8.1 6.3.1s6.3 0 6.3-.1c0-.2-2.8-.3-6.3-.3z" fill="#ddbf9f"/><path d="m20.3 26.7c0-.2.3-.4.8-.5 1.3-.3 4.9-.5 9.2-.6 4.7 0 8.6.2 9.5.6.3 0 .6.2.6.4 0 .1-.4.2-.6.3l.1-.1c0-.1-.1-.1-.5-.2-.2 0-.5-.1-.8-.1-1.7-.2-4.6-.3-8.2-.3-3.4 0-6.4.2-8.2.4-.4.1-.7.1-1 .2-.4.1-.5.2-.5.3-.3-.2-.4-.3-.4-.4z" fill="#929497"/><path d="m25.8 24.2c-.2 0-.4.2-.4.3v.5c0 .2.2.3.4.3.2 0 .4-.2.4-.3v-.5c.1-.2-.1-.3-.4-.3z" fill="#929497"/><path d="m25.8 25.5c-.1 0-.3.1-.3.2v.3c0 .1.1.2.3.2.1 0 .3-.1.3-.2v-.3c0-.1-.1-.2-.3-.2z" fill="#bbbdbf"/><path d="m25.8 24.9c-.1 0-.1.1-.1.1v.2c0 .1.1.1.1.1.1 0 .1-.1.1-.1v-.2c.1-.1 0-.1-.1-.1z" fill="#404041"/><path d="m26.1 26.7c0-.1-.1-.2-.1-.2v-.1-1.1c0-.1 0-.1 0-.1s0 0 0 .1v1.1s0 .1-.1.1c0 0-.1.1-.2.3v.3s.1 0 .1-.1c0 .1.1.2.1.2s.1-.1.1-.2c.1 0 .1-.1.1-.3z" fill="#a6a8ab"/><path d="m20.4 24.1c-.2 0-.4.3-.4.5l.1.5c0 .2.2.4.5.3.2 0 .4-.3.4-.5l-.1-.5c0-.2-.2-.3-.5-.3z" fill="#929497"/><path d="m20.6 25.6c-.1 0-.3.2-.2.3v.3c0 .1.2.2.3.2.1 0 .3-.2.2-.3v-.3c0-.1-.1-.2-.3-.2z" fill="#bbbdbf"/><path d="m20.6 25c-.1 0-.1.1-.1.2v.2c0 .1.1.1.2.1.1 0 .1-.1.1-.2v-.2c-.1-.1-.2-.2-.2-.1z" fill="#404041"/><path d="m21.1 27c-.1-.2-.1-.3-.2-.3 0 0 0-.1-.1-.1l-.2-1.3c0-.1 0-.1-.1-.1s0 .1 0 .1l.2 1.3v.1s-.1.1-.1.3 0 .4.1.4c0 0 .1 0 .1-.1 0 .1.1.2.1.2s.1-.1.1-.2c0 .1.1.1.1.1.1 0 0-.2 0-.4z" fill="#a6a8ab"/><path d="m39.7 24.3c.2 0 .4.2.5.4v.5c0 .2-.2.4-.4.4-.2 0-.4-.2-.5-.4v-.5c-.1-.2.1-.4.4-.4z" fill="#929497"/><path d="m39.8 25.8c.2 0 .3.1.3.3v.3c0 .1-.1.3-.3.2-.2 0-.3-.1-.3-.3v-.3c0-.1.1-.2.3-.2z" fill="#bbbdbf"/><path d="m39.7 25.1c.1 0 .2.1.2.1v.2c0 .1-.1.1-.1.1-.1 0-.2-.1-.2-.1v-.2s0-.1.1-.1z" fill="#404041"/><path d="m39.6 27.2c0-.2.1-.3.1-.3 0-.1 0-.1 0-.1l-.1-1.3c0-.1 0-.1 0-.1v.1l.1 1.3s0 .1.1.1c0 0 .1.1.2.3s.1.4 0 .4c0 0-.1 0-.1-.1 0 .1 0 .2-.1.2 0 0-.1-.1-.1-.2 0 .1-.1.1-.1.1s0-.2 0-.4z" fill="#a6a8ab"/><path d="m34.6 24.2c-.2 0-.4.2-.4.3v.5c0 .2.2.3.4.3.2 0 .4-.2.4-.3v-.5c0-.2-.2-.3-.4-.3z" fill="#929497"/><path d="m34.6 25.5c-.1 0-.3.1-.3.2v.3c0 .1.1.2.3.2.1 0 .3-.1.3-.2v-.3c-.1-.1-.2-.2-.3-.2z" fill="#bbbdbf"/><path d="m34.6 24.9c-.1 0-.1.1-.1.1v.2c0 .1.1.1.1.1.1 0 .1-.1.1-.1v-.2c0-.1-.1-.1-.1-.1z" fill="#404041"/><path d="m34.8 26.7c0-.1-.1-.2-.1-.2v-.1-1.1c0-.1 0-.1 0-.1s0 0 0 .1v1.1s0 .1-.1.1c0 0-.1.1-.2.3v.3s.1 0 .1-.1c0 .1.1.2.1.2s.1-.1.1-.2c0 .1.1.1.1.1 0-.1 0-.2 0-.4z" fill="#a6a8ab"/><path d="m26 9c-1.4-.3-4.4-.7-5.9-.8s-4.6-.1-6.1.4c-1.6.5-1.5 2.3-1.6 5.2s-.1 5.8 1.5 5.9l11.6 1c1.1-.1 1.8-2.5 1.9-5.4-.1-3.1.2-6-1.4-6.3z" fill="#063e89"/><path d="m12.5 19.8c0-.1.1-.2.4-.3.2.1.4.2.6.2 1.2.4 3.4.7 5.9.8 2.6.1 4.9.1 6.1-.2.2 0 .4-.1.5-.1.3.1.4.2.4.4v.1c-.2.5-3.3.8-7 .6-3.8-.3-6.9-.9-6.9-1.5z" fill="#d0d2d3"/><path d="m12.5 9.4c0-.5.3-.8.6-.9 1.1-.4 3.7-.9 6.9-.8 3.5.1 6.2.9 7.1 1.4.2.2.4.4.4.8 0 .3-.1.5-.3.7v-.1c0-.2-.1-.4-.4-.5-.1-.1-.3-.2-.5-.3-1.2-.5-3.6-.9-6.3-1-2.6-.1-4.8.1-6.1.5-.3.1-.6.2-.7.3-.3.2-.3.3-.4.5-.3-.1-.3-.3-.3-.6z" fill="#bbbdbf"/><path d="m12.4 19.5c0-.3.3-.6.6-.6 1-.4 3.6-.5 6.6-.3 3.3.2 6.1.7 6.7 1.2.2.1.4.3.4.5s-.1.4-.3.4c0 0 0 0 0-.1s-.1-.2-.4-.4c-.1-.1-.3-.1-.5-.2-1.2-.4-3.4-.7-6-.8-2.5-.1-4.6-.1-5.9.1-.3.1-.5.1-.7.2-.3.1-.4.2-.4.3-.1 0-.1-.2-.1-.3z" fill="#929497"/><path d="m12.9 19.6c.2-.1.4-.1.7-.2 1.3-.2 3.4-.3 5.9-.2 2.6.1 4.8.5 6 .9.2.1.4.1.5.2-.1 0-.3.1-.5.1-1.2.3-3.5.3-6.1.2-2.5-.1-4.7-.5-5.9-.8-.2-.1-.5-.2-.6-.2z" fill="#bbbdbf"/><path d="m19.3 19.4c-2.5-.1-4.5 0-4.5.2s2 .6 4.4.8c2.5.1 4.5 0 4.5-.2s-1.9-.6-4.4-.8z" fill="#ddbf9f"/><path d="m12.8 16.1c-.4 0-.7.3-.6.7l.1.9c0 .4.4.6.7.6.4 0 .7-.3.6-.7l-.1-.9c0-.3-.3-.6-.7-.6z" fill="#929497"/><path d="m13 18.6c-.2 0-.4.2-.4.4v.5c0 .2.2.4.5.4.2 0 .4-.2.4-.4v-.5c0-.3-.2-.5-.5-.4z" fill="#bbbdbf"/><path d="m13 17.5c-.1 0-.2.1-.2.2v.3c0 .1.1.2.3.2.1 0 .2-.1.2-.2v-.3c-.1-.2-.2-.3-.3-.2z" fill="#404041"/><path d="m20.9 16c-.4 0-.7.3-.7.6v.9c0 .4.3.7.7.7.4 0 .7-.3.7-.6v-.9c0-.3-.3-.6-.7-.7z" fill="#929497"/><path d="m20.8 18.5c-.2 0-.4.2-.4.4v.5c0 .2.2.4.4.4.2 0 .4-.2.4-.4v-.5c0-.2-.1-.4-.4-.4z" fill="#bbbdbf"/><path d="m20.9 17.4c-.1 0-.2.1-.2.2v.3c0 .1.1.2.2.2.1 0 .2-.1.2-.2v-.3c0-.1-.1-.2-.2-.2z" fill="#404041"/><path d="m26.8 16.9c-.3 0-.6.2-.6.5l-.2.9c-.1.3.2.7.5.7.3 0 .6-.2.6-.5l.1-.8c.1-.4-.1-.7-.4-.8z" fill="#929497"/><path d="m26.4 19.3c-.2 0-.4.1-.4.3l-.1.5c0 .2.1.4.3.4.2 0 .4-.1.4-.3l.1-.5c0-.2-.1-.4-.3-.4z" fill="#bbbdbf"/><path d="m26.6 18.2c-.1 0-.2.1-.2.2v.3c0 .1.1.2.2.2.1 0 .2-.1.2-.2v-.3c0-.1-.1-.2-.2-.2z" fill="#404041"/><path d="m25.2 13.6c-.7 0-1.3.5-1.3 1.1v1.4c0 .6.6 1.1 1.3 1.1.7 0 1.3-.5 1.3-1.1v-1.4c0-.6-.6-1.1-1.3-1.1z" fill="#bbbdbf"/><path d="m34.4 8.9c1.3-.3 4-.6 5.3-.7 1.4-.1 4.1 0 5.5.4s1.3 2.1 1.5 4.7c.1 2.6.1 5.2-1.3 5.3l-10.4.8c-1-.1-1.6-2.3-1.7-4.8-.1-2.8-.3-5.4 1.1-5.7z" fill="#063e89"/><path d="m46.5 18.6c0-.1-.1-.2-.4-.3-.1.1-.3.1-.6.2-1.1.3-3 .6-5.2.7-2.3.1-4.3 0-5.4-.2-.2 0-.3-.1-.4-.1-.2.1-.3.2-.3.3v.1c.2.5 2.9.7 6.1.5 3.4-.1 6.1-.6 6.2-1.2z" fill="#d0d2d3"/><path d="m46.5 9.3c0-.4-.2-.7-.5-.8-1-.4-3.3-.8-6.2-.7-3.1.1-5.6.8-6.3 1.3-.2.1-.4.4-.4.7s.1.5.3.6v-.1c.1-.2.1-.3.3-.5.1-.1.3-.2.5-.2 1.1-.4 3.2-.8 5.6-.9 2.3-.1 4.3.1 5.5.5.3.1.5.2.7.3s.3.3.4.4c0-.2.1-.4.1-.6z" fill="#bbbdbf"/><path d="m46.6 18.3c0-.3-.2-.5-.5-.5-.9-.2-3.1-.5-5.8-.3-2.9.2-5.3.7-5.9 1.1-.2 0-.4.2-.4.4s.1.3.3.4c0 0 0 0 0-.1s.1-.2.3-.3c.1-.1.3-.1.5-.2 1-.3 3-.6 5.3-.8 2.2-.1 4.1 0 5.1.1.3 0 .5.1.6.2.2.1.3.2.4.3.1 0 .1-.1.1-.3z" fill="#929497"/><path d="m46.6 16.9c0-.3-.2-.5-.5-.5-.9-.2-3.2-.4-6-.3-3 .2-5.5.7-6.2 1.1-.2.1-.4.3-.4.5s.1.3.3.4c0 0 0 0 0-.1s.1-.2.4-.3c.1-.1.3-.1.5-.2 1.1-.3 3.1-.6 5.5-.8 2.2-.1 4.2-.1 5.4.1.3 0 .5.1.7.2s.4.2.4.3c-.1-.1-.1-.2-.1-.4z" fill="#929497"/><path d="m46.1 18.4c-.2-.1-.3-.1-.6-.2-1.1-.2-3-.3-5.2-.1-2.3.1-4.2.4-5.3.8-.2.1-.3.1-.5.2.1 0 .3.1.4.1 1.1.2 3.1.3 5.4.2 2.2-.1 4.1-.4 5.2-.7.3-.2.5-.2.6-.3z" fill="#bbbdbf"/><path d="m40.5 18.2c2.2-.1 3.9 0 3.9.2s-1.7.6-3.9.7-3.9 0-3.9-.2 1.7-.5 3.9-.7z" fill="#ddbf9f"/><path d="m44.3 13.4c-.4 0-.6.3-.6.6v.8c0 .3.3.6.7.6.4 0 .6-.3.6-.6v-.8c-.1-.3-.4-.6-.7-.6z" fill="#929497"/><path d="m44.4 15.8c-.2 0-.4.2-.4.4v.5c0 .2.2.4.4.4.2 0 .4-.2.4-.4v-.5c0-.3-.2-.4-.4-.4z" fill="#bbbdbf"/><path d="m44.4 14.7c-.1 0-.2.1-.2.2v.3c0 .1.1.2.2.2.1 0 .2-.1.2-.2v-.3c0-.1-.1-.2-.2-.2z" fill="#404041"/><path d="m36.5 13.9c.4 0 .7.2.7.5l.1.8c.1.3-.2.7-.5.7-.4 0-.7-.2-.7-.5l-.1-.8c-.1-.3.1-.6.5-.7z" fill="#929497"/><path d="m36.8 16.2c.2 0 .4.1.5.3l.1.5c0 .2-.1.4-.3.4-.2 0-.4-.1-.5-.3l-.1-.5c0-.1.1-.3.3-.4z" fill="#bbbdbf"/><path d="m36.7 15.2c.1 0 .2.1.3.2v.3c0 .1-.1.2-.2.2-.1 0-.2-.1-.3-.2v-.3c0-.1 0-.2.2-.2z" fill="#404041"/><path d="m34.8 14.2c-.4.1-.7.4-.6.8l.2.9c.1.4.5.7.9.6.4-.1.7-.4.6-.8l-.2-.9c-.2-.4-.5-.6-.9-.6z" fill="#bbbdbf"/><path d="m41.4 26.4c5.7-.6 10.9 3.9 11.5 9.9 0 .3 0 .6.1.9-.1 0-.2 0-.3 0 0-.1 0-.3 0-.4-.7-5.7-5.6-10.4-11-9.8-5.4.5-9.2 6-8.7 11.7.5 5.1 4.5 8.8 9.2 9.1v.5c-5.2-.2-9.6-4.4-10.1-10-.6-6 3.6-11.3 9.3-11.9z" fill="#d0d2d3"/><path d="m32.7 37.4c0 5 4 9.2 8.1 11.2 1.6.8 3.9 1.2 3.9 1.2l11.9-13.1-4.8-3.5c-1.5-3.9-5.1-6.6-9.3-6.6-5.6 0-9.8 4.8-9.8 10.8z" fill="#063e89"/><ellipse cx="48.7" cy="39.7" fill="#1e120a" rx="11" ry="11.2"/><ellipse cx="46.9" cy="39.3" fill="#231f20" rx="9.7" ry="7.9" transform="matrix(.05728913 -.9984 .9984 .05728913 4.9979 83.8103)"/><path d="m39.1 37.4c-.3.3-1 .3-1.7-.2l-1.6-1c-.7-.4-1-1-.8-1.4.3-.3 1-.3 1.7.2l1.6 1c.7.4 1.1 1.1.8 1.4z" fill="#929497"/><path d="m34.5 34.5c-.2.2-.6.2-1.1-.1l-1-.6c-.4-.2-.6-.6-.4-.8.2-.2.6-.2 1.1.1l1 .6c.4.2.6.6.4.8z" fill="#bbbdbf"/><path d="m36.6 35.8c-.1.1-.4.1-.6-.1l-.6-.3c-.2-.1-.3-.4-.3-.5.1-.1.4-.1.6.1l.6.3c.3.2.4.4.3.5z" fill="#404041"/><path d="m39.3 44.6c-.2.4-.9.5-1.5.3l-1.5-.5c-.6-.2-1-.7-.8-1.1.2-.4.9-.5 1.5-.3l1.5.5c.7.2 1 .7.8 1.1z" fill="#929497"/><path d="m35 43c-.1.2-.5.3-.9.2l-1-.3c-.4-.1-.6-.5-.5-.7.1-.2.5-.3.9-.2l1 .3c.3.2.6.5.5.7z" fill="#bbbdbf"/><path d="m37 43.7c-.1.1-.3.2-.5.1l-.5-.2c-.2-.1-.4-.3-.3-.4.1-.1.3-.2.5-.1l.5.2c.2.1.3.3.3.4z" fill="#404041"/><path d="m49.8 28.9c-.2.3-.9.3-1.5 0l-1.5-.7c-.6-.3-1-.8-.8-1.1.2-.3.9-.3 1.5 0l1.5.7c.6.3 1 .8.8 1.1z" fill="#929497"/><path d="m45.4 26.9c-.1.2-.5.2-.9 0l-1-.4c-.4-.2-.6-.5-.5-.7.1-.2.5-.2.9 0l1 .4c.3.2.6.5.5.7z" fill="#bbbdbf"/><path d="m47.4 27.8c-.1.1-.3.1-.5 0l-.5-.2c-.2-.1-.4-.3-.3-.4.1-.1.3-.1.5 0l.5.2c.2.1.3.3.3.4z" fill="#404041"/><path d="m42.8 31.5c-.2.3-.9.2-1.5-.1l-1.4-.9c-.6-.4-.9-.9-.7-1.2.2-.3.9-.2 1.5.1l1.4.9c.6.4.9 1 .7 1.2z" fill="#929497"/><path d="m38.6 29.1c-.1.2-.6.1-.9-.1l-.9-.5c-.4-.2-.6-.6-.4-.7.1-.2.6-.1.9.1l.9.5c.4.2.6.5.4.7z" fill="#bbbdbf"/><path d="m40.5 30.2c-.1.1-.3.1-.5 0l-.5-.3c-.2-.1-.3-.3-.2-.4.1-.1.3-.1.5 0l.5.3c.2.1.3.3.2.4z" fill="#404041"/><path d="m48.5 28c6.2-.1 11.4 5 11.5 11.4s-4.9 11.7-11.1 11.8-11.4-5-11.5-11.4 4.8-11.6 11.1-11.8zm.9 22.6c5.2-.7 9.4-4.7 9.3-10.5s-4-10.6-9.7-10.5-10.3 4.9-10.2 10.7 5.3 11.1 10.6 10.3z" fill="#d0d2d3"/><path d="m18.6 25.6c-5.7-.6-10.9 3.9-11.5 10 0 .3 0 .6-.1.9h.3c0-.1 0-.3 0-.4.6-5.8 5.5-10.4 10.9-9.9s9.2 6.1 8.7 11.8c-.5 5.2-4.5 8.8-9.2 9.2v.6c5.2-.2 9.6-4.4 10.1-10.1.7-6.1-3.5-11.5-9.2-12.1z" fill="#d0d2d3"/><path d="m27.3 36.7c0 5.1-4 9.2-8.1 11.2-1.6.8-3.9 1.2-3.9 1.2l-11.9-13.1 4.8-3.5c1.5-3.9 5.1-6.7 9.3-6.7 5.6 0 9.8 4.9 9.8 10.9z" fill="#063e89"/><ellipse cx="11.3" cy="39.1" fill="#1e120a" rx="11" ry="11.3"/><ellipse cx="13.1" cy="38.6" fill="#231f20" rx="7.9" ry="9.8" transform="matrix(.9985 -.05501761 .05501761 .9985 -2.104 .7792)"/><path d="m20.9 36.7c.3.3 1 .3 1.7-.2l1.6-1c.7-.4 1-1 .8-1.4-.3-.3-1-.3-1.7.2l-1.6 1c-.7.4-1.1 1.1-.8 1.4z" fill="#929497"/><path d="m25.5 33.8c.2.2.6.2 1.1-.1l1-.6c.4-.3.6-.7.5-.9-.2-.2-.6-.2-1.1.1l-1 .6c-.5.3-.7.7-.5.9z" fill="#bbbdbf"/><path d="m23.4 35.1c.1.1.4.1.6-.1l.6-.3c.2-.1.3-.4.3-.5-.1-.1-.4-.1-.6.1l-.6.3c-.3.2-.4.4-.3.5z" fill="#404041"/><path d="m20.7 43.9c.2.4.9.5 1.5.3l1.5-.6c.6-.2 1-.7.8-1.1-.2-.4-.9-.5-1.5-.3l-1.5.6c-.7.2-1 .8-.8 1.1z" fill="#929497"/><path d="m25 42.4c.1.2.5.3.9.2l1-.3c.4-.1.6-.5.5-.7-.1-.2-.5-.3-.9-.2l-1 .3c-.3.1-.6.4-.5.7z" fill="#bbbdbf"/><path d="m23 43.1c.1.1.3.2.5.1l.5-.2c.2-.1.4-.3.3-.4-.1-.1-.3-.2-.5-.1l-.5.2c-.2 0-.3.2-.3.4z" fill="#404041"/><path d="m10.2 28.1c.2.3.9.3 1.5 0l1.5-.7c.6-.3 1-.8.8-1.1-.2-.3-.9-.3-1.5 0l-1.4.7c-.7.3-1.1.8-.9 1.1z" fill="#929497"/><path d="m14.6 26.1c.1.2.5.2.9 0l1-.4c.4-.2.6-.5.5-.7-.1-.2-.5-.2-.9 0l-1 .4c-.3.2-.6.5-.5.7z" fill="#bbbdbf"/><path d="m12.6 27c.1.1.3.1.5 0l.5-.2c.2-.1.4-.3.3-.4-.1-.1-.3-.1-.5 0l-.5.2c-.2.1-.3.3-.3.4z" fill="#404041"/><path d="m17.2 30.8c.2.3.9.2 1.5-.1l1.4-.9c.6-.4.9-.9.7-1.2-.2-.3-.9-.2-1.5.1l-1.3.9c-.7.4-1 .9-.8 1.2z" fill="#929497"/><path d="m21.4 28.3c.1.2.6.1.9-.1l.9-.5c.4-.2.6-.6.4-.7-.1-.2-.6-.1-.9.1l-.9.5c-.4.2-.6.5-.4.7z" fill="#bbbdbf"/><path d="m19.5 29.4c.1.1.3.1.5 0l.5-.3c.2-.1.3-.3.2-.4-.1-.1-.3-.1-.5 0l-.5.3c-.2.1-.3.3-.2.4z" fill="#404041"/><path d="m11.5 27.3c-6.2-.1-11.4 5-11.5 11.5s4.9 11.8 11.1 11.9 11.4-5 11.5-11.5-4.8-11.8-11.1-11.9zm-.9 22.7c-5.2-.7-9.4-4.7-9.3-10.6.1-5.8 4-10.7 9.7-10.6s10.3 4.9 10.2 10.8-5.3 11.2-10.6 10.4z" fill="#d0d2d3"/><path d="m30 13.6c-.4 0-.7 2.1-.7 4.6v5.9c0 2.5.3 4.6.7 4.6.4 0 .7-2.1.7-4.6v-5.9c0-2.5-.3-4.6-.7-4.6z" fill="#bbbdbf"/><path d="m35 26.1-5.4 2c-.2.1-.3.3-.2.4.1.1.4.2.6.1l5.4-2c.2-.1.3-.3.2-.4-.1-.1-.4-.2-.6-.1z" fill="#808184"/><path d="m25.6 26.3 5.4 2c.2.1.3.3.2.4-.1.1-.4.2-.6.1l-5.4-2c-.2-.1-.3-.3-.2-.4.1-.1.4-.2.6-.1z" fill="#808184"/><path d="m19.8 49.2c-.6-.1-1 .3-1.1.8l-.6 1.8c-.1.5.8.3 1.4.4.8-.1 1-.3 1.1-.8l.1-1.2c.1-.5-.3-1-.9-1z" fill="#231f20"/><path d="m32.7 37.5c-.1-.1-.3-.2-.4-.1l-6.5 7.2-1.5.2h-.1l-4.5 4.9c-.1.1 0 .2.2.4.1.1.3.2.4.1l4.3-4.7 1.4-.2c.1 0 .1 0 .2-.1l6.8-7.4c-.2 0-.2-.2-.3-.3z" fill="#404041"/><path d="m40.1 49.3c.6-.1 1.1.3 1.1.8l.6 1.8c.1.5-.8.3-1.4.4-.8-.1-1.1-.3-1.1-.8l-.1-1.2c-.1-.5.4-.9.9-1z" fill="#231f20"/><path d="m27.2 37.8c.1-.1.3-.2.4-.1l6.7 7.1 1.5.2h.1l4.6 4.8c.1.1 0 .2-.2.4-.2.1-.3.2-.4.1l-4.4-4.6-1.4-.2c-.1 0-.1 0-.2-.1l-6.9-7.3s0-.2.2-.3z" fill="#404041"/><path d="m30.3 49.4c.6 0 1.1.3 1.1.6l.3 1.3c.1.4-.5.3-1.1.4-.8-.1-1.4.1-1.4-.3l.1-1.3c0-.3.4-.6 1-.7z" fill="#231f20"/><path d="m29.7 43.4c.1.1.3.2.3.2l-.1 3.6.7.8v2.5s-.1 0-.3-.1c-.2-.1-.3-.1-.3-.2v-2.3l-.6-.7-.1-.1.1-3.7c.1-.1.2-.1.3 0z" fill="#404041"/><path d="m30 28.7c-.5 0-.9 2.6-.9 5.7v7.5c0 3.2.4 5.7.9 5.7.5 0 .9-2.6.9-5.7v-7.5c0-3.1-.4-5.7-.9-5.7z" fill="#bbbdbf"/><path d="m30.1 27.2c-.8 0-1.4.4-1.4.9v1.2c0 .5.6.9 1.4.9.8 0 1.4-.4 1.4-.9v-1.2c-.1-.5-.7-.9-1.4-.9z" fill="#58595b"/><path d="m30.1 29c-.3 0-.5.1-.5.3v.4c0 .2.2.3.5.3.3 0 .5-.1.5-.3v-.4c0-.1-.2-.3-.5-.3z" fill="#404041"/><path d="m32.2 27.8c-.1 0-.2.2-.2.3l-.1.1h-1c-.1 0-.1 0-.1.1 0 0 0 .1.1.1h1l.1.1c0 .1.1.2.2.3s.3.1.3 0 0-.2-.1-.2c.1 0 .2-.1.2-.2s-.1-.2-.2-.2c.1-.1.1-.2.1-.2 0-.3-.1-.3-.3-.2z" fill="#404041"/><path d="m30.5 27.5c-.5 0-.9.2-.9.5v.7c0 .3.4.5.9.5.5 0 .9-.2.9-.5v-.7c0-.3-.4-.5-.9-.5z" fill="#bbbdbf"/><path d="m30.1 39.7c-.3 0-.5.1-.5.3v.4c0 .2.2.3.5.3.3 0 .5-.1.5-.3v-.4c0-.2-.2-.3-.5-.3z" fill="#404041"/><g fill="#808184"><path d="m30.9 46.6-5.3-2.1c-.2-.1-.5 0-.6.1-.1.1-.1.3.1.4l5.3 2.1c.2.1.5 0 .6-.1.1-.2.1-.4-.1-.4z"/><path d="m34.4 44.5-5.4 2c-.2.1-.3.3-.2.4.1.1.4.2.6.1l5.4-2c.2-.1.3-.3.2-.4-.1-.1-.4-.1-.6-.1z"/><path d="m34.5 15.3-4.8 1.2c-.2 0-.3.1-.2.2.1.1.4.1.6.1l4.8-1.2c.2 0 .3-.1.2-.2-.1-.1-.4-.1-.6-.1z"/><path d="m25.6 15.3 5.6 1.3c.2.1.3.2.2.3-.1.1-.4.1-.6.1l-5.6-1.3c-.2-.1-.3-.2-.2-.3.1-.2.4-.2.6-.1z"/></g><path d="m30.2 15.9c-.8 0-1.4.3-1.4.6v.8c0 .3.6.6 1.4.6.8 0 1.4-.3 1.4-.6v-.8c0-.4-.6-.6-1.4-.6z" fill="#58595b"/><path d="m30.2 17.1c-.3 0-.5.1-.5.2v.3c0 .1.2.2.5.2.3 0 .5-.1.5-.2v-.3c0-.1-.2-.2-.5-.2z" fill="#404041"/><path d="m30.7 16.1c-.5 0-.9.2-.9.4v.5c0 .2.4.4.9.4.5 0 .9-.2.9-.4v-.5c0-.3-.4-.4-.9-.4z" fill="#bbbdbf"/></svg>