<svg enable-background="new 0 0 60 60" height="60" viewBox="0 0 60 60" width="60" xmlns="http://www.w3.org/2000/svg"><ellipse cx="13.6" cy="16.7" fill="#781d77" rx="2.9" ry="9.5" transform="matrix(.1369 -.9906 .9906 .1369 -4.8133 27.9248)"/><path d="m13.9 14.6c-5.3-.7-9.1 0-9.3 1.1s3.3 2.8 8.6 3.6 9.1 0 9.2-1.1c.2-1.1-3.3-2.8-8.5-3.6z" fill="#fff"/><ellipse cx="46" cy="16.7" fill="#781d77" rx="9.5" ry="2.9" transform="matrix(.9906 -.1369 .1369 .9906 -1.8533 6.4599)"/><path d="m45.8 14.6c5.3-.7 9.1 0 9.2 1.1s-3.3 2.8-8.6 3.6-9.1 0-9.2-1.1 3.3-2.8 8.6-3.6z" fill="#fff"/><g fill="#781d77"><path d="m53 55.5c-.1-2-.1-3.9-.2-5.9 0-1.2 0-2.5-.3-3.7-.7-2.2-2.1-3.9-4.1-5.1 0 0-.1 0-.1-.1 0-.5.1-1.1.1-1.7 0-9.7-7.5-17.6-16.9-18.5v-6.8h4.8l.4 2.9c1.3-1.5 5.2-2.7 9-3.3 3.8-.5 7.9-.4 9.5.7l-1.7-11c-.5-3.4-6.3-3.3-9.8-2.9h-.1c-3.4.5-9.1 2-8.6 5.4l1 6.5h-12.4l.9-6.5c.5-3.4-5.2-4.9-8.6-5.4h-.1c-3.4-.4-9.2-.5-9.7 2.9l-1.5 11.2c1.6-1.1 5.7-1.2 9.5-.7s7.7 1.8 8.9 3.3l.4-2.9h4.8v6.8c-9.5.8-16.9 8.8-16.9 18.4 0 .5 0 1.1.1 1.7 0 0-.1 0-.1.1-2 1.2-3.4 2.9-4.1 5.1-.4 1.2-.3 2.5-.3 3.7-.1 2-.1 3.9-.2 5.9-.9.3-1.5 1.2-1.5 2.1 0 1.3 1 2.3 2.3 2.3s2.3-1 2.3-2.3c0-.9-.6-1.7-1.4-2.1.1-1.6.1-3.3.1-4.9 0-.9 0-1.8.1-2.7.1-2.2 1.2-4 3-5.2 1.7 8.5 9.2 14.9 18.2 14.9s16.5-6.5 18.2-15c1.7 1.2 2.9 3 3 5.2 0 .9 0 1.8.1 2.7 0 1.6.1 3.3.1 4.9-.8.4-1.4 1.2-1.4 2.1 0 1.3 1 2.3 2.3 2.3s2.3-1 2.3-2.3c0-.9-.6-1.8-1.4-2.1zm-23.2.6c-9.4 0-17-7.6-17-17s7.6-17 17-17 17 7.6 17 17-7.6 17-17 17z"/><circle cx="29.8" cy="39.1" r="13.4"/></g></svg>