<svg xmlns="http://www.w3.org/2000/svg" width="60" height="60"><path d="M59.9 17.74c-.3-.72-1.13-1.06-1.85-.77L5.37 38.8c-.45.18-.75.58-.84 1.03-.6-.16-1.5-.06-2.4.3-1.45.6-2.37 1.67-2.07 2.4.3.7 1.7.8 3.14.2.9-.36 1.6-.92 1.92-1.47.38.26.88.32 1.33.14l52.68-21.82c.72-.3 1.06-1.13.76-1.84zM10 52c.7-.7 1.13-1.5 1.2-2.12.46.1.94-.03 1.3-.38L52.8 9.18c.56-.55.56-1.44 0-2-.54-.54-1.43-.54-1.98 0L10.5 47.52c-.35.36-.47.84-.38 1.3-.63.07-1.42.5-2.1 1.2-1.1 1.1-1.56 2.44-1 3 .54.54 1.88.1 2.98-1z"/></svg>