<svg height="60" width="60" xmlns="http://www.w3.org/2000/svg"><path d="m47.8 47.56c.12-.13.12-.33 0-.46l-4.1-4.1v-5c3.67 0 6.58-.54 6.6-1.2v-5.1c0-.67-3.1-1.22-6.95-1.23-3.83 0-6.94.53-6.94 1.2v.65c-.55-.7-1.2-1.3-1.93-1.85.78-.02 1.62-.1 2.5-.18 3.55-.4 6.37-1.23 6.3-1.85l-1.23-11c-.06-.63-3-.8-6.53-.42s-6.35 1.23-6.3 1.85l.07.48.32 2.86c-.17.05-.33.13-.48.26-.32.3-.5.7-.5 1.27v4.66c-.15 0-.3 0-.46 0-.15 0-.3 0-.44 0v-4.66c0-.56-.16-1-.48-1.27-.16-.14-.33-.22-.5-.28l.34-2.86.06-.5c.07-.6-2.74-1.44-6.28-1.84-3.54-.42-6.47-.25-6.54.37l-1.27 11c-.07.62 2.74 1.45 6.28 1.86.9.1 1.74.17 2.52.2-1.23.9-2.26 2.05-3.02 3.4v-1.6c0-.53-2.5-1-5.58-1-3.1-.02-5.6.4-5.6.95v.45l-.08 3.38c-.2.02-.35.18-.35.37v11.13c0 .18.16.34.35.34.2 0 .36-.16.36-.35v-3.24c.8.34 2.63.6 4.82.63v4.6c0 .2.15.36.34.36.2 0 .36-.16.36-.35v-4.6c2.25 0 4.14-.26 4.9-.6v3.2c0 .2.16.36.36.36s.36-.16.36-.36v-2.68c1.9 2.97 5.23 4.95 9.02 4.96 5.9 0 10.7-4.77 10.72-10.68 0-.48-.03-.94-.08-1.4 1.14.18 2.6.3 4.23.3v5.03l-4.07 4.08c-.15.1-.15.3 0 .43.1.13.3.13.43 0l3.62-3.6v4.95c0 .2.15.35.35.35s.38-.16.38-.36v-5l3.65 3.66c.13.12.34.12.46 0zm-18.48-23.83c0-.34.08-.6.24-.73.03-.03.06-.05.1-.07l.62 5.67c-.33-.07-.65-.12-.98-.16v-4.7zm-2.68-.8c.03 0 .07.03.1.06.16.13.25.37.24.7v4.7c-.35.06-.68.1-1 .17l.65-5.66zm1.46 25.27c-5.03 0-9.1-4.1-9.1-9.14s4.1-9.12 9.14-9.1c5.04 0 9.12 4.1 9.1 9.14 0 5.04-4.1 9.1-9.13 9.1zm31.1-19.7c.5-.07.8-.16.8-.26 0-.28-3.9-.72-5.78-.8-.03-.07-.4-.18-.54-.18-.16 0-.5.1-.54.18-.3 0-.63.03-.98.06l.02-11.6 3.63 3.04c.1.08.27.07.35-.03s.07-.23-.03-.3l-3.92-3.3v-.37c0-.2-.16-.37-.36-.37-.13 0-.25.07-.3.18l-5.3-4.4c3.8-1 6.68-2.07 6.6-2.45-.1-.4-5.17.2-7.4.66-.05-.06-.44-.08-.57-.05-.15.05-.45.24-.48.3-2.5.75-6.9 2.5-6.8 2.9s3.6-.1 7.8-1.17c.1-.02.2-.04.28-.07l5.8 4.84-.03 12.26c-1.94.18-4.03.5-4.03.7 0 .1.2.16.58.23-.37.05-.57.13-.57.2 0 .2 2.1.6 4.03.84l-.03 16.82-4.07 4.05c-.13.14-.13.34 0 .47.12.12.32.12.45 0l1.85-1.84c.03 0 .06-.03.1-.06l1.68-1.68v4.92c0 .2.15.36.35.36s.36-.17.36-.37l.02-5 1.2 1.2v1.9c0 .2.16.37.36.37s.36-.17.36-.37v-1.17l1.73 1.73c.13.12.34.12.46 0 .13-.13.13-.33 0-.46l-2.18-2.2v-2.9l3.6 3.69c.12.12.32.12.45 0 .13-.13.13-.33 0-.46l-4.1-4.1.03-14.74c1.8-.07 5.92-.63 5.92-.9 0-.1-.3-.2-.8-.3zm-5.9 19.03-1.07-1.07 1.07-1.08zm0-3.05-1.2 1.2.04-16.05c.43.04.84.07 1.2.08l-.04 14.79zm-48.37 1.8.07-31.08 5.14-4.25c.26.07.5.14.77.2 5.63 1.43 10.3 2.14 10.43 1.6.13-.52-5.7-2.9-9.04-3.88-.04-.1-.45-.36-.66-.4-.16-.05-.68-.04-.76.05-2.98-.62-9.74-1.46-9.88-.95-.12.5 3.62 1.9 8.6 3.24l-4.65 3.86c-.06-.1-.18-.18-.32-.18-.2 0-.36.16-.36.36v.38l-3.94 3.25c-.1.08-.1.23-.03.33s.23.1.33.04l3.64-3.02-.06 30.43-4.1 4.1c-.12.12-.12.33 0 .45.13.13.33.13.46 0l3.66-3.64v5c0 .2.16.35.36.35s.36-.16.36-.36v-4.96l3.62 3.6c.12.13.32.13.45 0s.1-.32 0-.44l-4.06-4.08z"/></svg>