<svg height="60" width="60" xmlns="http://www.w3.org/2000/svg"><ellipse cx="13.607" cy="16.721" rx="9.499" ry="2.916" transform="matrix(.991 .137 -.137 .991 2.425 -1.71)"/><path d="m13.9 14.65c-5.27-.73-9.1 0-9.26 1.1-.15 1.1 3.35 2.83 8.6 3.56s9.1.03 9.25-1.07c.14-1.1-3.36-2.84-8.6-3.57z" fill="#fff"/><ellipse cx="46.04" cy="16.721" rx="9.499" ry="2.916" transform="matrix(-.991 .137 -.137 -.991 93.94 26.963)"/><path d="m45.75 14.65c5.26-.73 9.1 0 9.25 1.1s-3.34 2.83-8.6 3.56c-5.26.75-9.1.03-9.25-1.07s3.34-2.84 8.6-3.57z" fill="#fff"/><path d="m53 55.45c-.07-1.96-.13-3.93-.18-5.9-.04-1.2.02-2.5-.35-3.67-.68-2.2-2.07-3.92-4.07-5.08-.04-.03-.1-.04-.13-.06.05-.55.07-1.1.07-1.66 0-9.68-7.45-17.64-16.92-18.45v-6.76h4.82l.4 2.94c1.27-1.5 5.16-2.73 8.96-3.26 3.8-.52 7.88-.38 9.5.72l-1.56-11.27c-.48-3.43-6.34-3.33-9.76-2.86h-.07c-3.42.5-9.07 1.98-8.6 5.4l.9 6.5h-12.36l.9-6.5c.48-3.42-5.18-4.9-8.6-5.4h-.08c-3.43-.47-9.31-.57-9.77 2.86l-1.54 11.25c1.62-1.1 5.7-1.24 9.5-.7 3.8.5 7.7 1.76 8.94 3.26l.4-2.92h4.82v6.76c-9.46.8-16.92 8.77-16.92 18.45 0 .55.03 1.1.08 1.65-.04.02-.1.03-.13.06-2 1.17-3.4 2.88-4.08 5.1-.36 1.16-.3 2.46-.34 3.67-.06 1.97-.12 3.93-.17 5.9-.86.33-1.47 1.16-1.47 2.14 0 1.28 1 2.3 2.3 2.3 1.26 0 2.3-1.02 2.3-2.3 0-.92-.56-1.72-1.35-2.1.05-1.63.1-3.27.14-4.92.02-.9.04-1.8.07-2.7.06-2.18 1.23-4 2.98-5.2 1.68 8.5 9.18 14.93 18.16 14.93s16.54-6.45 18.21-14.93c1.74 1.2 2.9 3 2.97 5.2.02.9.05 1.8.08 2.7.04 1.64.1 3.28.14 4.93-.8.38-1.36 1.18-1.36 2.1 0 1.28 1.03 2.3 2.3 2.3s2.3-1.02 2.3-2.3c0-.97-.6-1.8-1.46-2.14zm-23.18.65c-9.4 0-17.02-7.62-17.02-17.02s7.62-17.03 17.02-17.03 17.02 7.62 17.02 17.03c0 9.4-7.62 17.02-17.02 17.02z"/><circle cx="29.823" cy="39.076" r="13.401"/></svg>