<svg xmlns="http://www.w3.org/2000/svg" width="60" height="60"><path d="M39.05 51.2c-.18-.18-.47-.17-.65.02l-2.58-2.7c2.2-2.5 3.56-5.86 3.56-9.56 0-7.36-5.38-13.4-12.2-13.9v-6.52h1.42v2.5c-.26 0-.47.22-.47.5 0 .27.2.5.47.5h10.3c.27 0 .48-.23.48-.5 0-.28-.2-.5-.47-.5v-5.48c.28 0 .5-.23.5-.5 0-.28-.2-.5-.48-.5H28.6c-.26 0-.47.22-.47.5 0 .27.2.5.46.5v2h-1.4c0-.56-.44-1-.96-1s-.94.44-.94 1h-1.4v-2c.26 0 .48-.23.48-.5 0-.28-.22-.5-.47-.5H11.74c-.26 0-.47.22-.47.5 0 .27.2.5.47.5v5.47c-.26 0-.47.23-.47.5 0 .28.2.5.47.5h12.2c.24 0 .46-.22.46-.5 0-.27-.2-.5-.48-.5v-2.5h1.4v6.53c-6.8.5-12.17 6.54-12.17 13.9 0 3.7 1.35 7.05 3.55 9.55l-2.56 2.74h-.02c-.17-.2-.46-.2-.65-.02l-.85.85c-.3.3-.1.86.32.86h1.4c.14 0 .26-.04.34-.14l.12-.13c.18-.2.18-.5 0-.7l2.57-2.73c2.34 2.3 5.46 3.7 8.9 3.7 3.44 0 6.57-1.4 8.9-3.7l2.57 2.74c-.18.2-.18.5 0 .7l.12.12c.08.1.2.15.33.15h1.4c.43 0 .63-.55.32-.85l-.85-.84zm-25-12.24c0-7.14 5.48-12.95 12.2-12.95 6.72.03 12.2 5.83 12.2 12.97 0 7.15-5.48 12.96-12.2 12.96-6.72 0-12.2-5.8-12.2-12.96zm33.05 8.2c-.17-.18-.43-.18-.6 0l-4.3-1.9V32.97h4.67c1.04 0 1.88-.9 1.88-2v-1.5c0-.28-.2-.5-.47-.5-.26 0-.47.22-.47.5v.5h-.45V25h.47c.27 0 .48-.23.48-.5s-.2-.5-.47-.5H34.7c-.27 0-.48.23-.48.5 0 .28.2.5.47.5h.45v2.38c1.17 1.02 2.18 2.24 2.98 3.6h9.67c0 .55-.4 1-.92 1h-8.2c.17.32.32.65.46 1h1.17v12.24l-1.6.72c-.26.5-.54.98-.83 1.44l2.52-1.1c.12.37.46.64.86.64s.74-.27.88-.65l3.63 1.6c-.16.2-.16.5.02.68l.1.13c.1.1.2.15.33.15h1.42c.43 0 .63-.55.32-.86l-.86-.85zm-34.84-6.7c-.05-.5-.07-1-.07-1.5 0-3.92 1.4-7.48 3.73-10.15v-4.27h.47c.26 0 .48-.22.48-.5 0-.27-.2-.5-.47-.5H.5c-.26 0-.47.23-.47.5 0 .28.2.5.48.5h.47v14.95H.47c-.26 0-.47.22-.47.5 0 .27.2.5.47.5h.94v6.96c-.24 0-.45.23-.45.5v2c0 .27.2.5.47.5h.95c.25 0 .46-.23.46-.5v-2c0-.27-.2-.5-.46-.5v-6.97h9.92zm39.2-27.96H60c0-.87-3.88-1.6-6.65-1.88-.24-.56-.97-1-1.88-1.08V7.6c0-.3-.2-.5-.47-.5-.26 0-.47.2-.47.5v1.97c-.82.13-1.47.53-1.7 1.05-2.76.27-6.64 1-6.64 1.9h8.32v1.04H42.2c0 .88 3.87 1.62 6.64 1.9.18.4.63.75 1.23.93v22.06l-6.83 4.83c-.13.1-.2.24-.2.4v.24c0 .27.2.5.46.5h.03c.3 0 .58-.06.85-.18l5.75-2.38h1.74l3.65 1.6c-.17.18-.17.5 0 .67l.12.13c.1.1.2.14.33.14h1.42c.4 0 .6-.55.3-.86l-.85-.84c-.18-.17-.44-.17-.62 0l-4.3-1.9v-24.4c.68-.16 1.2-.53 1.4-1 2.78-.26 6.66-1 6.66-1.88h-8.54V12.5zm-1.4 28.46l-5.62 2.5 5.63-4v1.5z"/><ellipse cx="26.251" cy="46.687" rx="3.516" ry="3.737"/></svg>