<svg enable-background="new 0 0 60 60" height="60" viewBox="0 0 60 60" width="60" xmlns="http://www.w3.org/2000/svg"><path d="m47.8 47.6c.1-.1.1-.3 0-.5l-4.1-4.1v-5c3.7 0 6.6-.5 6.6-1.2v-5.1c0-.7-3.1-1.2-7-1.2-3.8 0-6.9.5-6.9 1.2v.6c-.5-.7-1.2-1.3-1.9-1.9.8 0 1.6-.1 2.5-.2 3.5-.4 6.4-1.2 6.3-1.9l-1.2-11c-.1-.6-3-.8-6.5-.4s-6.4 1.2-6.3 1.9l.1.5.3 2.9c-.2 0-.3.1-.5.3-.3.3-.5.7-.5 1.3v4.7c-.1 0-.3 0-.5 0-.1 0-.3 0-.4 0v-4.7c0-.6-.2-1-.5-1.3-.2-.1-.3-.2-.5-.3l.3-2.9.1-.5c.1-.6-2.7-1.4-6.3-1.8-3.5-.4-6.5-.2-6.5.4l-1.3 11c-.1.6 2.7 1.5 6.3 1.9.9.1 1.7.2 2.5.2-1.2.9-2.3 2.1-3 3.4v-1.6c0-.5-2.5-1-5.6-1s-5.6.4-5.6 1v.5l-.1 3.2c-.2 0-.3.2-.3.4v11.1c0 .2.2.3.3.3.2 0 .4-.2.4-.3v-3.2c.8.3 2.6.6 4.8.6v4.6c0 .2.1.4.3.4s.4-.2.4-.3v-4.6c2.2 0 4.1-.3 4.9-.6v3.2c0 .2.2.4.4.4s.4-.2.4-.4v-2.7c1.9 3 5.2 5 9 5 5.9 0 10.7-4.8 10.7-10.7 0-.5 0-.9-.1-1.4 1.1.2 2.6.3 4.2.3v5l-4.1 4.1c-.2.1-.2.3 0 .4.1.1.3.1.4 0l3.6-3.6v5c0 .2.2.3.3.3.2 0 .4-.2.4-.4v-5l3.7 3.7zm-18.5-23.9c0-.3.1-.6.2-.7 0 0 .1 0 .1-.1l.6 5.7c-.3-.1-.6-.1-1-.2zm-2.7-.8s.1 0 .1.1c.2.1.2.4.2.7v4.7c-.4.1-.7.1-1 .2zm1.5 25.3c-5 0-9.1-4.1-9.1-9.1s4.1-9.1 9.1-9.1 9.1 4.1 9.1 9.1-4.1 9.1-9.1 9.1zm31.1-19.7c.5-.1.8-.2.8-.3 0-.3-3.9-.7-5.8-.8 0-.1-.4-.2-.5-.2-.2 0-.5.1-.5.2-.3 0-.6 0-1 .1v-11.6l3.6 3c.1.1.3.1.3 0s.1-.2 0-.3l-3.9-3.3v-.4c0-.2-.2-.4-.4-.4-.1 0-.2.1-.3.2l-5.3-4.4c3.8-1 6.7-2.1 6.6-2.4-.1-.4-5.2.2-7.4.7 0-.1-.4-.1-.6-.1-.2.1-.5.2-.5.3-2.5.8-6.9 2.5-6.8 2.9s3.6-.1 7.8-1.2c.1 0 .2 0 .3-.1l5.8 4.8v12.3c-1.9.2-4 .5-4 .7 0 .1.2.2.6.2-.4 0-.6.1-.6.2 0 .2 2.1.6 4 .8v16.8l-4.1 4c-.1.1-.1.3 0 .5.1.1.3.1.5 0l1.8-1.8s.1 0 .1-.1l1.7-1.7v4.9c0 .2.2.4.3.4.2 0 .4-.2.4-.4v-5l1.2 1.2v1.9c0 .2.2.4.4.4s.4-.2.4-.4v-1.2l1.7 1.7c.1.1.3.1.5 0 .1-.1.1-.3 0-.5l-2.2-2.2v-2.9l3.6 3.7c.1.1.3.1.5 0 .1-.1.1-.3 0-.5l-4.1-4.1v-14.7c1.8-.1 5.9-.6 5.9-.9 0 .2-.3.1-.8 0zm-5.9 19-1.1-1.1 1.1-1.1zm0-3-1.2 1.2v-16c.4 0 .8.1 1.2.1zm-48.4 1.8.1-31.1 5.1-4.2c.3.1.5.1.8.2 5.6 1.4 10.3 2.1 10.4 1.6s-5.7-2.9-9-3.9c0-.1-.4-.4-.7-.4-.2-.1-.7 0-.8.1-3-.6-9.7-1.5-9.9-1-.1.5 3.6 1.9 8.6 3.2l-4.5 3.9c-.1-.1-.2-.2-.3-.2-.2 0-.4.2-.4.4v.4l-3.9 3.2c-.1.1-.1.2 0 .3s.2.1.3 0l3.6-3-.1 30.5-4.1 4.1c-.1.1-.1.3 0 .5.1.1.3.1.5 0l3.7-3.6v5c0 .2.2.3.4.3s.4-.2.4-.4v-5l3.6 3.6c.1.1.3.1.4 0s.1-.3 0-.4z" fill="#781d77"/></svg>