<svg enable-background="new 0 0 60 60" height="60" viewBox="0 0 60 60" width="60" xmlns="http://www.w3.org/2000/svg"><g stroke="#063e89"><path d="m48.9 51.6.9.6-4.7 6.9-.9-.6zm5.4 6.9-.9.6-4.7-6.9.9-.6z" fill="#fff" stroke-width=".292"/><path d="m48.8 12.8h1v46.3h-1.1z" fill="none" stroke-width=".359"/><path d="m40.8 30.3v8.1c0 1.3 3.8 2.3 8.4 2.3s8.4-1 8.4-2.3v-8.1z" fill="#fff" stroke-width=".348"/></g><ellipse cx="49.3" cy="30.3" fill="#063e89" rx="8.4" ry="2.3" stroke="#000" stroke-width=".348"/><path d="m57.7 31.4c0 1.3-3.8 2.3-8.4 2.3s-8.4-1-8.4-2.3m16.8 6c0 1.3-3.8 2.3-8.4 2.3s-8.4-1-8.4-2.3" fill="none" stroke="#063e89" stroke-width=".348"/><path d="m50.6 53c0 .2-.2.3-.5.3h-1.7c-.3 0-.5-.2-.5-.3v-1c0-.2.2-.3.5-.3h1.7c.3 0 .5.2.5.3z" fill="#fff" stroke="#063e89" stroke-width=".292"/><path d="m50.4 59.4c0 .2-.1.3-.3.3h-1.6c-.2 0-.3-.2-.3-.3v-.4c0-.2.2-.3.3-.3h1.6c.2 0 .3.2.3.3zm4.7 0c0 .2-.1.3-.3.3h-1.6c-.2 0-.3-.2-.3-.3v-.4c0-.2.1-.3.3-.3h1.6c.2 0 .3.2.3.3zm-9.2 0c0 .2-.2.3-.3.3h-1.6c-.2 0-.3-.2-.3-.3v-.4c0-.2.2-.3.3-.3h1.6c.2 0 .3.2.3.3z" stroke="#000" stroke-width=".292"/><path d="m9.6 51.6.9.6-4.7 6.9-.9-.6zm5.3 6.9-.9.6-4.7-6.9.8-.6z" fill="#fff" stroke="#063e89" stroke-width=".292"/><path d="m9.4 5.3h1v53.8h-1z" fill="none" stroke="#063e89" stroke-width=".388"/><path d="m1.5 30.3v8.1c0 1.3 3.8 2.3 8.4 2.3s8.4-1 8.4-2.3v-8.1z" fill="#fff" stroke="#063e89" stroke-width=".348"/><ellipse cx="9.9" cy="30.3" fill="#063e89" rx="8.4" ry="2.3" stroke="#000" stroke-width=".348"/><path d="m18.3 31.4c0 1.3-3.8 2.3-8.4 2.3s-8.4-1-8.4-2.3m16.8 6c0 1.3-3.8 2.3-8.4 2.3s-8.4-1-8.4-2.3" fill="none" stroke="#063e89" stroke-width=".348"/><path d="m11.3 53c0 .2-.2.3-.5.3h-1.7c-.3 0-.5-.2-.5-.3v-1c0-.2.2-.3.5-.3h1.7c.3 0 .5.2.5.3z" fill="#fff" stroke="#063e89" stroke-width=".292"/><path d="m11.1 59.4c0 .2-.1.3-.3.3h-1.7c-.2 0-.3-.2-.3-.3v-.4c0-.2.1-.3.3-.3h1.6c.2 0 .4.2.4.3zm4.7 0c0 .2-.2.3-.3.3h-1.6c-.2 0-.3-.2-.3-.3v-.4c0-.2.1-.3.3-.3h1.6c.2 0 .4.2.4.3zm-9.3 0c0 .2-.2.3-.3.3h-1.6c-.2 0-.3-.2-.3-.3v-.4c0-.2.2-.3.4-.3h1.6c.2 0 .3.2.3.3z" stroke="#000" stroke-width=".292"/><g stroke-width=".303"><path d="m31.9 18.1v9.7c0 1.1 3.3 2 7.3 2s7.3-.9 7.3-2v-9.7z" fill="#fff" stroke="#000"/><ellipse cx="39.2" cy="18.1" fill="#063e89" rx="7.3" ry="2" stroke="#000"/><path d="m46.6 19.1c0 1.1-3.3 2-7.3 2s-7.3-.9-7.3-2" fill="none" stroke="#063e89"/><path d="m46.6 27c0 1.1-3.3 2-7.3 2s-7.3-.9-7.3-2" fill="none" stroke="#063e89"/><path d="m12.6 18.1v9.7c0 1.1 3.3 2 7.3 2 4.1 0 7.3-.9 7.3-2v-9.7z" fill="#fff" stroke="#000"/><ellipse cx="19.9" cy="18.1" fill="#063e89" rx="7.3" ry="2" stroke="#000"/><path d="m27.3 19.1c0 1.1-3.3 2-7.3 2-4.1 0-7.4-.9-7.4-2m14.7 7.9c0 1.1-3.3 2-7.3 2-4.1 0-7.4-.9-7.4-2" fill="none" stroke="#063e89"/></g><g stroke-width=".292"><circle cx="29.6" cy="39.5" fill="#fff" r="16.9" stroke="#1d1d1b"/><circle cx="29.6" cy="42.1" fill="#fff" r="16.9" stroke="#1d1d1b"/><circle cx="29.6" cy="42.1" fill="#063e89" r="16.3" stroke="#000"/><g fill="#fff"><path d="m30.3 26.2c0 .2-.1.3-.3.3h-.8c-.2 0-.3-.1-.3-.3v-.8c0-.2.1-.3.3-.3h.8c.2 0 .3.1.3.3zm0 32.6c0 .2-.1.3-.3.3h-.8c-.2 0-.3-.2-.3-.3v-.8c0-.2.1-.3.3-.3h.8c.2 0 .3.2.3.3zm15.2-15.9c-.2 0-.3-.2-.3-.3v-.8c0-.2.2-.3.3-.3h.8c.2 0 .3.1.3.3v.8c0 .2-.2.3-.3.3zm-32.6 0c-.2 0-.3-.2-.3-.3v-.8c0-.2.1-.3.3-.3h.8c.2 0 .3.1.3.3v.8c0 .2-.1.3-.3.3zm28.5-11.5c-.1.1-.3.1-.5 0l-.6-.6c-.1-.1-.1-.3 0-.5l.6-.6c.1-.1.3-.1.5 0l.6.6c.1.1.1.3 0 .5zm-23.1 23.1c-.1.1-.3.1-.5 0l-.6-.6c-.1-.1-.1-.3 0-.5l.6-.6c.1-.1.4-.1.5 0l.6.6c.1.1.1.3 0 .5zm22-.6c-.1-.1-.1-.3 0-.5l.6-.6c.1-.1.3-.1.5 0l.6.6c.1.1.1.3 0 .5l-.6.6c-.1.1-.3.1-.5 0zm-23.1-23.1c-.1-.1-.1-.3 0-.5l.6-.6c.1-.1.3-.1.5 0l.6.6c.1.1.1.3 0 .5l-.6.6c-.1.1-.3.1-.5 0z" stroke="#1d1d1b"/><g stroke="#063e89"><ellipse cx="49.3" cy="12.8" rx="10.8" ry="2.5" transform="matrix(.9927 -.121 .121 .9927 -1.1899 6.0556)"/><ellipse cx="49.2" cy="11.8" rx="2.1" ry="1" transform="matrix(.9927 -.121 .121 .9927 -1.0705 6.0338)"/><ellipse cx="9.9" cy="5.3" rx="2.5" ry="10.8" transform="matrix(.4109 -.9117 .9117 .4109 1.0038 12.1549)"/><ellipse cx="10.3" cy="4.4" rx="1" ry="2.1" transform="matrix(.4109 -.9117 .9117 .4109 2.0782 11.992)"/></g></g></g></svg>