<svg enable-background="new 0 0 60 60" height="60" viewBox="0 0 60 60" width="60" xmlns="http://www.w3.org/2000/svg" xmlns:xlink="http://www.w3.org/1999/xlink"><linearGradient id="a"><stop offset="0" stop-color="#838383"/><stop offset=".06268554" stop-color="#9b9b9b"/><stop offset=".1333" stop-color="#b3b3b3"/><stop offset=".2788" stop-color="#e6e6e6"/><stop offset=".497" stop-color="#bfbfbf"/><stop offset=".7455" stop-color="#808080"/><stop offset=".8424" stop-color="#666"/><stop offset="1" stop-color="#4d4d4d"/></linearGradient><linearGradient id="b" gradientTransform="matrix(-1 0 0 -1 1068.9727 -1267.4092)" gradientUnits="userSpaceOnUse" x1="1015.7711" x2="1016.241" xlink:href="#a" y1="-1312.3842" y2="-1312.3842"/><linearGradient id="c"><stop offset="0" stop-color="#262626"/><stop offset=".2303" stop-color="#8c8c8c"/><stop offset=".5333" stop-color="#4d4d4d"/><stop offset=".602" stop-color="#484848"/><stop offset=".6836" stop-color="#393939"/><stop offset=".7091" stop-color="#333"/><stop offset=".9818" stop-color="#1a1a1a"/></linearGradient><linearGradient id="d" gradientTransform="matrix(0 -1.2687 -1 0 -616.0508 1536.6904)" gradientUnits="userSpaceOnUse" x1="1173.3525" x2="1173.3533" xlink:href="#c" y1="-669.2994" y2="-668.7517"/><linearGradient id="e" gradientUnits="userSpaceOnUse" x1="52.8369" x2="53.0675" y1="46.7625" y2="46.7625"><stop offset="0" stop-color="#333"/><stop offset=".01127499" stop-color="#313131"/><stop offset=".1333" stop-color="#1a1a1a"/><stop offset=".2788" stop-color="#404040"/><stop offset=".497" stop-color="#1a1a1a"/><stop offset=".7455"/><stop offset=".8909"/><stop offset="1" stop-color="#262626"/></linearGradient><linearGradient id="f" gradientTransform="matrix(-.8359 .5489 .5489 .8359 -1445.1096 941.4974)" gradientUnits="userSpaceOnUse" x1="-1740.9093" x2="-1740.1989" y1="74.0661" y2="75.2807"><stop offset="0" stop-color="#404040"/><stop offset=".2239" stop-color="#292929"/><stop offset=".4861" stop-color="#141414"/><stop offset=".6606" stop-color="#0d0d0d"/></linearGradient><linearGradient id="g" gradientUnits="userSpaceOnUse" x1="52.8039" x2="53.1175" y1="18.65" y2="18.65"><stop offset="0" stop-color="#fdffb8"/><stop offset=".5152" stop-color="#e0b209"/><stop offset=".7212" stop-color="#deae00"/><stop offset=".813" stop-color="#cc9b1d"/><stop offset=".91" stop-color="#bd8c35"/><stop offset=".9697" stop-color="#b7863e"/></linearGradient><linearGradient id="h"><stop offset="0" stop-color="#fdffb8"/><stop offset=".3273" stop-color="#d8a70a"/><stop offset=".4727" stop-color="#fdf3a4"/><stop offset=".5038" stop-color="#fbee98"/><stop offset=".5603" stop-color="#f5e078"/><stop offset=".6357" stop-color="#ebca43"/><stop offset=".7212" stop-color="#deae00"/><stop offset=".813" stop-color="#cc9b1d"/><stop offset=".91" stop-color="#bd8c35"/><stop offset=".9697" stop-color="#b7863e"/></linearGradient><linearGradient id="i" gradientUnits="userSpaceOnUse" x1="52.9576" x2="52.9494" xlink:href="#h" y1="17.283" y2="18.7104"/><linearGradient id="j" gradientTransform="matrix(1 0 0 -1 0 -278.457)" gradientUnits="userSpaceOnUse" x1="52.9576" x2="52.9494" xlink:href="#h" y1="-298.579" y2="-297.1516"/><linearGradient id="k" gradientTransform="matrix(-.8971 -.8971 -.7071 .7071 632.8773 1241.7935)" gradientUnits="userSpaceOnUse" x1="990.3967" x2="990.3975" xlink:href="#c" y1="-430.5435" y2="-429.9958"/><linearGradient id="l"><stop offset=".0121212" stop-color="#fff"/><stop offset=".02032122" stop-color="#fdfdfd"/><stop offset=".1091" stop-color="#e6e6e6"/><stop offset=".2618" stop-color="#f2f2f2"/><stop offset=".5939" stop-color="#d9d9d9"/><stop offset="1" stop-color="#a6a6a6"/></linearGradient><linearGradient id="m" gradientTransform="matrix(-.9873 .159 .159 .9873 -1012.2038 144.0831)" gradientUnits="userSpaceOnUse" x1="-1066.8445" x2="-1066.3497" xlink:href="#l" y1="52.5319" y2="52.5319"/><linearGradient id="n" gradientTransform="matrix(-.9873 .159 -.159 -.9873 -1057.5303 -133.9969)" gradientUnits="userSpaceOnUse" x1="-1067.3739" x2="-1066.8796" xlink:href="#l" y1="-337.3914" y2="-337.3914"/><linearGradient id="o" gradientTransform="matrix(.9873 -.159 .159 .9873 3.7089 -20.0423)" gradientUnits="userSpaceOnUse" x1="24.4658" x2="24.9603" xlink:href="#l" y1="53.0044" y2="53.0044"/><linearGradient id="p" gradientTransform="matrix(-.9873 .159 .159 .9873 -1012.2038 144.0831)" gradientUnits="userSpaceOnUse" x1="-1062.9613" x2="-1062.4667" xlink:href="#l" y1="52.5201" y2="52.5201"/><linearGradient id="q" gradientTransform="matrix(-.9873 .159 .159 .9873 -1012.2038 144.0831)" gradientUnits="userSpaceOnUse" x1="-1058.2531" x2="-1057.7587" xlink:href="#l" y1="52.5786" y2="52.5786"/><linearGradient id="r"><stop offset="0" stop-color="#a6a6a6"/><stop offset=".04824392" stop-color="#b5b5b5"/><stop offset=".1333" stop-color="#ccc"/><stop offset=".2788" stop-color="#e6e6e6"/><stop offset=".497" stop-color="#ccc"/><stop offset=".7455" stop-color="#919191"/><stop offset=".8485" stop-color="#808080"/><stop offset="1" stop-color="#666"/></linearGradient><linearGradient id="s" gradientTransform="matrix(.9873 -.159 -.159 -.9873 -737.4684 -56.911)" gradientUnits="userSpaceOnUse" x1="750.4567" x2="750.6931" xlink:href="#r" y1="-210.6904" y2="-210.6904"/><linearGradient id="t"><stop offset="0" stop-color="#e6e6e6"/><stop offset=".006150014" stop-color="#e3e3e3"/><stop offset=".0727273" stop-color="#ccc"/><stop offset=".2" stop-color="#fff"/><stop offset=".2409" stop-color="#f0f0f0"/><stop offset=".4182" stop-color="#b3b3b3"/><stop offset=".4238" stop-color="#b0b0b0"/><stop offset=".4939" stop-color="#969696"/><stop offset=".5568" stop-color="#868686"/><stop offset=".6061" stop-color="#818181"/><stop offset=".7697" stop-color="#999"/><stop offset=".8022" stop-color="#919191"/><stop offset=".9155" stop-color="#7b7b7b"/><stop offset=".9879" stop-color="#737373"/></linearGradient><linearGradient id="u" gradientTransform="matrix(-.159 -.9873 .9873 -.159 -165.2213 74.8896)" gradientUnits="userSpaceOnUse" x1="9.8042" x2="9.807" xlink:href="#t" y1="206.3236" y2="206.8261"/><linearGradient id="v"><stop offset="0" stop-color="#e6e6e6"/><stop offset=".01691253" stop-color="#e8e8e8"/><stop offset=".2" stop-color="#fff"/><stop offset=".2409" stop-color="#f0f0f0"/><stop offset=".4182" stop-color="#b3b3b3"/><stop offset=".4539" stop-color="#aeaeae"/><stop offset=".6309" stop-color="#9f9f9f"/><stop offset=".7697" stop-color="#999"/><stop offset=".8022" stop-color="#919191"/><stop offset=".9155" stop-color="#7b7b7b"/><stop offset=".9879" stop-color="#737373"/></linearGradient><linearGradient id="w" gradientTransform="matrix(-.159 -.9873 .9873 -.159 -165.2213 74.8896)" gradientUnits="userSpaceOnUse" x1="9.5904" x2="9.5932" xlink:href="#v" y1="206.3249" y2="206.8258"/><linearGradient id="x" gradientTransform="matrix(.9873 -.159 -.159 -.9873 -41.6182 -298.1239)" gradientUnits="userSpaceOnUse" x1="25.0091" x2="25.5036" xlink:href="#l" y1="-337.8655" y2="-337.8655"/><linearGradient id="y" gradientTransform="matrix(-.9878 .1556 -.1556 -.9878 -1057.7443 -142.071)" gradientUnits="userSpaceOnUse" x1="-1063.6436" x2="-1063.1493" xlink:href="#l" y1="-341.7473" y2="-341.7473"/><linearGradient id="z" gradientTransform="matrix(-.9878 .1556 -.1556 -.9878 -1057.7443 -142.071)" gradientUnits="userSpaceOnUse" x1="-1058.9354" x2="-1058.441" xlink:href="#l" y1="-341.7074" y2="-341.7074"/><linearGradient id="A" gradientTransform="matrix(-.2513 .385 .3045 .1988 319.1655 -446.2802)" gradientUnits="userSpaceOnUse" x1="1269.9117" x2="1270.3822" xlink:href="#a" y1="22.9285" y2="22.9285"/><linearGradient id="B" gradientTransform="matrix(.9892 .1465 -.1465 .9892 -727.1887 -154.5494)" gradientUnits="userSpaceOnUse" x1="749.5812" x2="749.8594" xlink:href="#r" y1="68.7102" y2="68.7102"/><linearGradient id="C" gradientTransform="matrix(.9892 .1465 -.1465 .9892 -28.3442 77.843)" gradientUnits="userSpaceOnUse" x1="24.0716" x2="24.6537" xlink:href="#l" y1="-58.3763" y2="-58.3763"/><linearGradient id="D" gradientTransform="matrix(-.9892 -.1465 -.1465 .9892 -309.5351 -93.2804)" gradientUnits="userSpaceOnUse" x1="-341.1161" x2="-340.8377" xlink:href="#r" y1="69.3338" y2="69.3338"/><linearGradient id="E" gradientTransform="matrix(-.1465 .9892 -.9892 -.1465 -815.3039 -391.67)" gradientUnits="userSpaceOnUse" x1="289.6942" x2="289.6975" xlink:href="#t" y1="-885.3046" y2="-884.7125"/><linearGradient id="F" gradientTransform="matrix(-.1465 .9892 -.9892 -.1465 -815.3039 -391.67)" gradientUnits="userSpaceOnUse" x1="289.4326" x2="289.4359" xlink:href="#v" y1="-885.3032" y2="-884.7131"/><linearGradient id="G" gradientTransform="matrix(-.9892 -.1465 -.1465 .9892 -1045.7372 -73.3668)" gradientUnits="userSpaceOnUse" x1="-1066.6171" x2="-1066.035" xlink:href="#l" y1="-57.9075" y2="-57.9075"/><linearGradient id="H" gradientTransform="matrix(.9887 .1498 -.1498 .9887 -658.1393 -145.5424)" gradientUnits="userSpaceOnUse" x1="689.6932" x2="689.9717" xlink:href="#r" y1="67.6224" y2="67.6224"/><linearGradient id="I" gradientTransform="matrix(-.1498 .9887 .9887 .1498 -87.1354 -282.6263)" gradientUnits="userSpaceOnUse" x1="287.9949" x2="287.9983" xlink:href="#t" y1="145.5038" y2="146.0965"/><linearGradient id="J" gradientTransform="matrix(-.1498 .9887 .9887 .1498 -87.1354 -282.6263)" gradientUnits="userSpaceOnUse" x1="287.7946" x2="287.7979" xlink:href="#v" y1="145.5049" y2="146.0951"/><linearGradient id="K" gradientTransform="matrix(-.9892 -.1465 -.1465 .9892 -1045.7372 -73.3668)" gradientUnits="userSpaceOnUse" x1="-1062.7388" x2="-1062.1566" xlink:href="#l" y1="-57.8454" y2="-57.8454"/><linearGradient id="L" gradientTransform="matrix(-.9892 -.1465 -.1465 .9892 -1045.7372 -73.3668)" gradientUnits="userSpaceOnUse" x1="-1057.1952" x2="-1056.6129" xlink:href="#l" y1="-57.831" y2="-57.831"/><linearGradient id="M" gradientTransform="matrix(.9892 .1465 .1465 -.9892 13.4062 -200.2738)" gradientUnits="userSpaceOnUse" x1="23.5065" x2="24.0887" xlink:href="#l" y1="-237.3871" y2="-237.3871"/><linearGradient id="N" gradientTransform="matrix(-.9892 -.1465 .1465 -.9892 -1003.9871 -351.4836)" gradientUnits="userSpaceOnUse" x1="-1066.0527" x2="-1065.4705" xlink:href="#l" y1="-237.8559" y2="-237.8559"/><linearGradient id="O" gradientTransform="matrix(-.9887 -.1498 .1498 -.9887 -1002.9101 -358.8941)" gradientUnits="userSpaceOnUse" x1="-1062.9987" x2="-1062.4164" xlink:href="#l" y1="-241.7786" y2="-241.7786"/><linearGradient id="P" gradientTransform="matrix(-.9887 -.1498 .1498 -.9887 -1002.9101 -358.8941)" gradientUnits="userSpaceOnUse" x1="-1057.4552" x2="-1056.8727" xlink:href="#l" y1="-241.7965" y2="-241.7965"/><linearGradient id="Q" gradientUnits="userSpaceOnUse" x1="28.2" x2="28.2" y1="51.1014" y2="27.1615"><stop offset="0" stop-color="#ccc"/><stop offset=".2061" stop-color="#d9d9d9"/><stop offset=".3545" stop-color="#979797"/><stop offset=".503" stop-color="#595959"/><stop offset=".6005" stop-color="#5c5c5c"/><stop offset=".6751" stop-color="#666"/><stop offset=".742" stop-color="#767676"/><stop offset=".7697" stop-color="#808080"/><stop offset=".7905" stop-color="#767676"/><stop offset=".8805" stop-color="#525252"/><stop offset=".9535" stop-color="#3b3b3b"/><stop offset="1" stop-color="#333"/></linearGradient><linearGradient id="R"><stop offset=".1576" stop-color="#d9d9d9"/><stop offset=".1847" stop-color="#d7d7d7"/><stop offset="1" stop-color="#999"/></linearGradient><radialGradient id="S" cx="23.1026" cy="-7.5317" gradientTransform="matrix(.926 -.3774 .3774 .926 21.3733 50.7851)" gradientUnits="userSpaceOnUse" r=".4079" xlink:href="#R"/><radialGradient id="T" cx="-327.4845" cy="151.2905" gradientTransform="matrix(.3879 -.9217 .9217 .3879 20.8902 -332.8227)" gradientUnits="userSpaceOnUse" r=".408" xlink:href="#R"/><radialGradient id="U" cx="-686.8989" cy="15.7712" gradientTransform="matrix(-.3774 -.926 .926 -.3774 -250.7984 -602.456)" gradientUnits="userSpaceOnUse" r=".4078" xlink:href="#R"/><radialGradient id="V" cx="-846.8885" cy="-334.5256" gradientTransform="matrix(-.9217 -.3879 .3879 -.9217 -634.4057 -601.9746)" gradientUnits="userSpaceOnUse" r=".408" xlink:href="#R"/><linearGradient id="W"><stop offset="0" stop-color="#ccc"/><stop offset=".02631494" stop-color="#bdbdbd"/><stop offset=".0727273" stop-color="#a6a6a6"/><stop offset=".2061" stop-color="#d9d9d9"/><stop offset=".2129" stop-color="#d7d7d7"/><stop offset=".4182" stop-color="#999"/><stop offset=".4461" stop-color="#898989"/><stop offset=".5006" stop-color="#6f6f6f"/><stop offset=".5496" stop-color="#5f5f5f"/><stop offset=".5879" stop-color="#595959"/><stop offset=".6543" stop-color="#5c5c5c"/><stop offset=".7052" stop-color="#666"/><stop offset=".7508" stop-color="#767676"/><stop offset=".7697" stop-color="#808080"/><stop offset=".7774" stop-color="#767676"/><stop offset=".8105" stop-color="#525252"/><stop offset=".8374" stop-color="#3b3b3b"/><stop offset=".8545" stop-color="#333"/><stop offset=".8852" stop-color="#363636"/><stop offset=".9099" stop-color="#404040"/><stop offset=".9273" stop-color="#4d4d4d"/><stop offset=".9512" stop-color="#4a4a4a"/><stop offset=".967" stop-color="#414141"/><stop offset=".9803" stop-color="#323232"/><stop offset=".9923" stop-color="#1d1d1d"/><stop offset=".9939" stop-color="#1a1a1a"/></linearGradient><linearGradient id="X" gradientTransform="matrix(.727 -.6288 .6642 .7288 -320.7936 86.6638)" gradientUnits="userSpaceOnUse" x1="308.2814" x2="314.7978" xlink:href="#W" y1="167.9434" y2="178.2808"/><linearGradient id="Y" gradientTransform="matrix(.9392 .3433 -.3433 .9392 -69.572 163.2046)" gradientUnits="userSpaceOnUse" x1="29.3832" x2="39.37" y1="-160.7779" y2="-160.7779"><stop offset="0" stop-color="#575756"/><stop offset=".121" stop-color="#636362"/><stop offset=".3398" stop-color="#838382"/><stop offset=".4909" stop-color="#9d9d9c"/><stop offset="1" stop-color="#575756"/></linearGradient><linearGradient id="Z"><stop offset="0" stop-color="#e0d6c6"/><stop offset=".3335" stop-color="#ded3c2"/><stop offset=".6446" stop-color="#d8cbb7"/><stop offset=".946" stop-color="#cdbea4"/><stop offset="1" stop-color="#cbbba0"/></linearGradient><linearGradient id="aa" gradientTransform="matrix(-.1416 -.9955 -.9904 .1458 -709.3332 -54.4517)" gradientUnits="userSpaceOnUse" x1="-184.0408" x2="-179.2267" xlink:href="#Z" y1="-710.1593" y2="-704.2009"/><linearGradient id="ab" gradientTransform="matrix(.9392 .3433 -.3433 .9392 -69.572 163.2046)" gradientUnits="userSpaceOnUse" x1="28.3744" x2="28.8721" xlink:href="#l" y1="-167.511" y2="-167.511"/><linearGradient id="ac" gradientTransform="matrix(-.9392 -.3433 -.3433 .9392 -1035.3516 -190.0128)" gradientUnits="userSpaceOnUse" x1="-1068.6812" x2="-1068.1837" xlink:href="#l" y1="-167.347" y2="-167.347"/><linearGradient id="ad" gradientTransform="matrix(.9392 .3433 -.3433 .9392 -69.572 163.2046)" gradientUnits="userSpaceOnUse" x1="31.3358" x2="31.7798" xlink:href="#l" y1="-170.3937" y2="-170.3937"/><linearGradient id="ae" gradientTransform="matrix(-.9392 -.3433 -.3433 .9392 -971.5449 -166.6906)" gradientUnits="userSpaceOnUse" x1="-997.7343" x2="-997.2901" xlink:href="#l" y1="-170.3183" y2="-170.3183"/><linearGradient id="af" gradientTransform="matrix(-.9392 -.3433 .3433 -.9392 -858.875 -474.3535)" gradientUnits="userSpaceOnUse" x1="-997.5355" x2="-997.0914" xlink:href="#l" y1="-163.3012" y2="-163.3012"/><linearGradient id="ag" gradientTransform="matrix(.9392 .3433 .3433 -.9392 108.28 -120.6327)" gradientUnits="userSpaceOnUse" x1="-38.2847" x2="-37.8406" xlink:href="#l" y1="-163.1319" y2="-163.1319"/><linearGradient id="ah" gradientTransform="matrix(.9392 .3433 .3433 -.9392 27.0874 -100.6561)" gradientUnits="userSpaceOnUse" x1="28.1752" x2="28.673" xlink:href="#l" y1="-118.8364" y2="-118.8364"/><linearGradient id="ai" gradientTransform="matrix(-.9392 -.3433 .3433 -.9392 -938.6924 -453.8711)" gradientUnits="userSpaceOnUse" x1="-1068.4817" x2="-1067.984" xlink:href="#l" y1="-118.9638" y2="-118.9638"/><linearGradient id="aj" gradientTransform="matrix(-.727 -.6288 -.6642 .7288 -144.6927 86.6638)" gradientUnits="userSpaceOnUse" x1="-92.9453" x2="-87.2405" xlink:href="#W" y1="-177.1946" y2="-168.1448"/><linearGradient id="ak" gradientTransform="matrix(-.9392 .3433 .3433 .9392 -395.9131 163.2046)" gradientUnits="userSpaceOnUse" x1="-460.6302" x2="-460.1946" xlink:href="#l" y1="11.9229" y2="11.9229"/><linearGradient id="al" gradientTransform="matrix(.9392 -.3433 .3433 .9392 569.8662 -190.0128)" gradientUnits="userSpaceOnUse" x1="-578.1896" x2="-577.7539" xlink:href="#l" y1="12.1534" y2="12.1534"/><linearGradient id="am" gradientTransform="matrix(-.9392 .3433 .3433 .9392 -395.9131 163.2046)" gradientUnits="userSpaceOnUse" x1="-458.0376" x2="-457.6489" xlink:href="#l" y1="9.3617" y2="9.3617"/><linearGradient id="an" gradientTransform="matrix(.9392 -.3433 .3433 .9392 506.0595 -166.6906)" gradientUnits="userSpaceOnUse" x1="-507.6174" x2="-507.2285" xlink:href="#l" y1="9.5986" y2="9.5986"/><linearGradient id="ao" gradientTransform="matrix(.1416 -.9955 .9904 .1458 243.8479 -54.4517)" gradientUnits="userSpaceOnUse" x1="-107.6293" x2="-103.4149" xlink:href="#Z" y1="-194.6075" y2="-189.3913"/><linearGradient id="ap" gradientTransform="matrix(.9392 -.3433 -.3433 -.9392 393.3897 -474.3535)" gradientUnits="userSpaceOnUse" x1="-507.4216" x2="-507.033" xlink:href="#l" y1="-342.0846" y2="-342.0846"/><linearGradient id="aq" gradientTransform="matrix(-.9392 .3433 -.3433 -.9392 -573.7656 -120.6327)" gradientUnits="userSpaceOnUse" x1="-527.6535" x2="-527.2645" xlink:href="#l" y1="-341.8478" y2="-341.8478"/><linearGradient id="ar" gradientTransform="matrix(-.9392 .3433 -.3433 -.9392 -492.5722 -100.6561)" gradientUnits="userSpaceOnUse" x1="-460.8264" x2="-460.3904" xlink:href="#l" y1="-297.2425" y2="-297.2425"/><linearGradient id="as" gradientTransform="matrix(.9392 -.3433 -.3433 -.9392 473.2068 -453.8711)" gradientUnits="userSpaceOnUse" x1="-577.9926" x2="-577.557" xlink:href="#l" y1="-297.4709" y2="-297.4709"/><linearGradient id="at" gradientTransform="matrix(.9303 .3667 -.3667 .9303 -87.1439 153.6306)" gradientUnits="userSpaceOnUse" x1="36.7773" x2="36.7691" xlink:href="#h" y1="-163.54" y2="-162.1124"/><linearGradient id="au" gradientTransform="matrix(.935 -.3547 .3547 .935 77.8167 102.8111)" gradientUnits="userSpaceOnUse" x1="-.3735" x2="-.3817" xlink:href="#h" y1="-100.7378" y2="-99.3104"/><path d="m53.1 10.1c0-.3-.2-.3-.2 0s0 9.5 0 10.6h.2s0-10.5 0-10.6z" fill="#9b9b9b"/><path d="m53.3 20.5c0-.5-.7-.5-.7 0v16.1h.7c0-.1 0-16 0-16.1z" fill="#9b9b9b"/><path d="m52.7 48.3c0 .2.5.2.5 0s0-5.6 0-6.8c0 0-.5.2-.5.4z" fill="url(#b)"/><path d="m53.2 47.8c-.1 0-.1.1-.2.1s-.2 0-.2-.1v.3c0 .1.4.1.5 0-.1 0-.1-.2-.1-.3z" fill="#808285"/><path d="m53 47.9c-.1 0-.2 0-.3-.1v.3.2c.1.2.5.1.5 0 0 0 0-.5 0-.6 0 .2-.1.2-.2.2z" fill="url(#d)"/><path d="m53.1 45.3c0-.1-.2-.1-.2 0s0 2.7 0 3h.2z" fill="url(#e)"/><path d="m53.4 35.6c0-.3-.9-.3-.9 0s0 8.8 0 9.7h.9s0-9.6 0-9.7z" fill="#9b9b9b"/><path d="m52.4 44.8v.5c.1.2 1.1.1 1.1 0s0-.3 0-.5h-.1c-.1.1-.2.1-.5.1-.2 0-.3 0-.5-.1z" fill="#808285"/><path d="m52.4 44.8v.7c.1.2 1 .2 1.1 0s0-.5 0-.7c-.1.1-.3.1-.5.1s-.4 0-.6-.1z" fill="#bbb"/><path d="m52.4 43.3v.5c.1.2 1.1.1 1.1 0s0-.3 0-.5h-.1c-.1.1-.2.1-.5.1-.2 0-.3 0-.5-.1.1-.1 0-.1 0 0z" fill="#808285"/><path d="m52.4 43.3v.7c.1.2 1 .2 1.1 0s0-.5 0-.7c-.1.1-.3.1-.5.1s-.4 0-.6-.1z" fill="#bbb"/><path d="m47.7 48.8c-.2.2-.5-.2-.3-.3l5.1-5.1s.2.5 0 .6c-1.2 1.2-4.7 4.8-4.8 4.8z" fill="#9b9b9b"/><path d="m47.7 48.1c-.1.1-.2.2-.2.2 0 .1.3.4.4.4s.1-.1.2-.2c-.1 0-.1-.1-.2-.1 0-.2-.1-.2-.2-.3.1 0 .1 0 0 0z" fill="#808285"/><path d="m47.7 48.1-.4.4c-.1.1.2.4.4.3l.2-.2.2-.2c-.1 0-.2 0-.2-.1-.1 0-.2-.1-.2-.2z" fill="#666"/><path d="m50.3 45.5c-.1.1-.2.2-.2.2 0 .1.4.4.4.4s.1-.1.2-.2c-.1 0-.1-.1-.2-.1-.1-.1-.2-.2-.2-.3z" fill="#808285"/><path d="m50.3 45.5-.2.2c0 .1.3.5.4.4l.2-.2c-.1 0-.2-.1-.2-.2-.1 0-.2-.1-.2-.2z" fill="#bbb"/><path d="m50.4 46.1c-.1 0 0-.2.1-.3.4-.1 1.4-.5 2-.7.2-.1.1.2 0 .2-.8.3-2 .8-2.1.8z" fill="#999"/><path d="m58.2 48.8c.2.2.5-.2.3-.3-.1-.1-4.2-4.2-5.1-5.1 0 0-.2.5 0 .6 1.3 1.2 4.8 4.8 4.8 4.8z" fill="#9b9b9b"/><path d="m58.2 48.1c0 .1-.1.1-.1.2-.1.1-.1.1-.2.1.1.1.2.2.2.2s.4-.2.4-.4c-.1.1-.2 0-.3-.1z" fill="#808285"/><path d="m58.1 48.3c-.1.1-.2.1-.2.1.1.1.2.2.2.2l.2.2c.2.1.4-.2.4-.3l-.4-.4c-.1.1-.1.2-.2.2z" fill="#666"/><path d="m55.6 45.5c0 .1-.1.1-.1.2-.1.1-.1.1-.2.1.1.1.2.2.2.2s.4-.3.4-.4c0 .1-.1 0-.3-.1z" fill="#808285"/><path d="m55.5 45.7c-.1.1-.2.2-.2.2.1.1.2.2.2.2.1.1.4-.3.4-.4l-.2-.2c0 .1-.1.2-.2.2z" fill="#bbb"/><path d="m55.5 46.1c.1 0 0-.2-.1-.3-.4-.1-1.4-.5-2-.7-.2-.1-.1.2 0 .2.8.3 2.1.8 2.1.8z" fill="#999"/><path d="m52.4 20v.5c.1.2 1.1.1 1.1 0s0-.3 0-.5h-.1c-.1 0-.2 0-.4 0s-.3 0-.5-.1c0 0-.1 0-.1.1z" fill="#808285"/><path d="m52.4 20v.7c.1.2 1 .2 1.1 0s0-.5 0-.7c-.1.1-.3.1-.5.1s-.4 0-.6-.1z" fill="#bbb"/><path d="m52.5 35.4v.4c.1.2.9.1.9 0s0-.3 0-.4h-.1c-.1.1-.2.1-.4.1-.1-.1-.2-.1-.4-.1.1-.1 0-.1 0 0z" fill="#808285"/><path d="m52.5 35.4v.5c.1.2.9.2.9 0s0-.4 0-.5c-.1.1-.3.1-.4.1-.2 0-.4-.1-.5-.1z" fill="#bbb"/><path d="m53.5 48.8c.3-.1 0-.9-.6-.9-.1 0-.9 0-1.2-.1 0 0-.4-.1-.6-.1-.2.1-2.9.6-2.9.6s-.2.1-.2.2c0 .2.2.3.4.2s2.4-.5 2.7-.4c.2 0 .4.2.6.3.3.3 1.5.3 1.8.2z" fill="url(#f)"/><path d="m52.9 48c-.1 0-.9 0-1.1-.1 0 0-.4-.1-.6-.1-.2.1-2.9.6-2.9.6s-.2.1-.2.2c0-.2.2-.2.2-.2s2.7-.6 2.9-.6c.2-.1.6.1.6.1.3.1 1 .1 1.1.1.4-.1.7.3.7.6 0-.2-.3-.6-.7-.6z" fill="#999"/><path d="m48.2 48.7c.1 0 .2.1.3 0 .2-.1 2.4-.5 2.6-.4.2 0 .4.2.6.3s1 .2 1.8.1c-.3.1-1.5.1-1.7 0s-.4-.3-.6-.3-2.5.4-2.6.4c-.3.1-.4-.1-.4-.1z" fill="#1d1d1b"/><path d="m52.8 17.8h.3v1.7h-.3z" fill="url(#g)"/><path d="m60 18.6h-14.1c0-.4 2-.7 5.4-.7.3 0 .8-.5 1.6-.5s1.3.5 1.6.5c3.5 0 5.5.3 5.5.7z" fill="url(#i)"/><path d="m51.6 17.9c.4-.2.8-.5 1.4-.5s1 .3 1.3.4c0 0 .1 0 .1.1 0 0 0-.1-.1-.1-.3-.2-.7-.4-1.3-.4s-1 .3-1.3.4c-.1 0-.1.1-.1.1z" fill="#fdf3a4"/><path d="m51.4 17.9c-3.4.1-5.4.4-5.4.7.3-.3 2.2-.6 5.4-.7.3.1.3 0 0 0z" fill="#fdf3a4"/><path d="m54.6 17.9c-.3 0-.3.1 0 0 3.1.1 5.1.4 5.4.7 0-.3-2-.6-5.4-.7z" fill="#fdf3a4"/><path d="m60 18.8h-14.1c0 .4 2 .7 5.4.7.3 0 .8.5 1.6.5s1.3-.5 1.6-.5c3.5 0 5.5-.3 5.5-.7z" fill="url(#j)"/><path d="m51.6 19.5s0 .1 0 0c.4.2.8.5 1.4.5s1-.3 1.3-.4c0 0 .1 0 .1-.1 0 0 0 .1-.1.1-.3.2-.7.4-1.3.4s-1-.3-1.3-.4c-.1 0-.1-.1-.1-.1z" fill="#fdf3a4"/><path d="m51.4 19.5c-3.4-.1-5.4-.4-5.4-.7.3.3 2.2.6 5.4.7.3-.1.3 0 0 0z" fill="#fdf3a4"/><path d="m54.6 19.5c-.3 0-.3-.1 0 0 3.1-.1 5.1-.4 5.4-.7 0 .3-2 .6-5.4.7z" fill="#fdf3a4"/><path d="m43.8 33.5c0-.4-.9-.4-.9 0s0 13.1 0 14.5h.9c0 .1 0-14.3 0-14.5z" fill="#999"/><path d="m42.8 47.4v.5c.1.2 1.1.1 1.1 0s0-.3 0-.5h-.1c-.1.1-.2.1-.5.1-.2 0-.3 0-.5-.1z" fill="#808285"/><path d="m42.8 47.4v.7c.1.2 1 .2 1.1 0s0-.5 0-.7c-.1.1-.3.1-.5.1s-.4 0-.6-.1z" fill="#bbb"/><path d="m42.8 43.8v.5c.1.2 1.1.1 1.1 0s0-.3 0-.5h-.1c-.1.1-.2.1-.5.1-.2 0-.3 0-.5-.1z" fill="#808285"/><path d="m42.8 43.8v.7c.1.2 1 .2 1.1 0s0-.5 0-.7c-.1.1-.3.1-.5.1s-.4 0-.6-.1z" fill="#bbb"/><path d="m48.6 49.3c.2.2.5-.2.3-.3-.1-.1-4.2-4.2-5.1-5.1 0 0-.2.5 0 .6 1.2 1.3 4.7 4.8 4.8 4.8z" fill="#9b9b9b"/><path d="m48.5 48.6c0 .1-.1.1-.1.2-.1.1-.1.1-.2.1.1.1.2.2.2.2s.4-.2.4-.3c0 0-.2-.1-.3-.2z" fill="#808285"/><path d="m48.4 48.9c-.1.1-.2.1-.2.1.1.1.2.2.2.2l.2.2c.2.1.4-.2.4-.3l-.4-.4s-.1.1-.2.2z" fill="url(#k)"/><path d="m46 46.1c0 .1-.1.1-.1.2-.1.1-.1.1-.2.1.1.1.2.2.2.2s.4-.3.4-.4c-.1.1-.2-.1-.3-.1 0-.1 0 0 0 0z" fill="#808285"/><path d="m45.9 46.3c-.1.1-.2.2-.2.2.1.1.2.2.2.2.1.1.4-.3.4-.4l-.2-.2c-.1 0-.1.1-.2.2z" fill="#bbb"/><path d="m45.9 46.6c.1 0-.2-.2-.2-.1-.3.2-1.2.8-1.8 1.2-.1.1-.1.3-.1.3.6-.4 2.1-1.3 2.1-1.4z" fill="#999"/><path d="m38.1 49.3c-.2.2-.5-.2-.3-.3.1-.1 4.2-4.2 5.1-5.1 0 0 .2.5 0 .6-1.2 1.3-4.7 4.8-4.8 4.8z" fill="#9b9b9b"/><path d="m38.2 48.6c-.1.1-.2.2-.2.2 0 .1.3.4.4.4s.1-.1.2-.2c-.1 0-.1-.1-.2-.1-.1-.1-.2-.2-.2-.3z" fill="#808285"/><path d="m38.2 48.6-.4.4c-.1.1.2.4.4.3l.2-.2.2-.2c-.1 0-.2 0-.2-.1-.2 0-.2-.1-.2-.2z" fill="#666"/><path d="m40.7 46c-.1.1-.2.2-.2.2 0 .1.4.4.4.4s.1-.1.2-.2c-.1 0-.1-.1-.2-.1-.1-.1-.1-.2-.2-.3z" fill="#808285"/><path d="m40.7 46-.2.2c0 .1.3.5.4.4l.2-.2c-.1 0-.2-.1-.2-.2-.1 0-.2-.1-.2-.2z" fill="#bbb"/><path d="m40.8 46.6c-.1 0 .2-.2.2-.1.3.2 1.2.8 1.8 1.2.2.1.2.3.1.3-.5-.4-2-1.4-2.1-1.4z" fill="#999"/><path d="m42.8 33.8v.5c.1.2 1.1.1 1.1 0s0-.3 0-.5h-.1c-.1.1-.2.1-.5.1-.2 0-.3 0-.5-.1z" fill="#808285"/><path d="m42.8 33.8v.7c.1.2 1 .2 1.1 0s0-.5 0-.7c-.1.1-.3.1-.5.1s-.4 0-.6-.1z" fill="#bbb"/><path d="m36.9 30.6c-.2-.1-.4.3-.2.4s5.2 3 6.3 3.5c0 0 0-.5-.1-.6-1.6-.9-5.9-3.3-6-3.3z" fill="#9b9b9b"/><path d="m48.6 29.1c.2-.2.5.2.3.3-.1.1-4.2 4.2-5.1 5.1 0 0-.2-.5 0-.6 1.3-1.3 4.8-4.8 4.8-4.8z" fill="#9b9b9b"/><path d="m49 25.6s.2-.1.2 0l.1.9s-.2.1-.2 0z" fill="#aaa"/><path d="m48.8 25.3h.5v.3h-.5z" fill="#aaa" transform="matrix(.9873 -.1588 .1588 .9873 -3.4192 8.1122)"/><path d="m49.4 26.3c0-.1-.5 0-.5.1v.1z" fill="url(#m)"/><path d="m49.3 27.7c.5-.1.3-1.5.3-1.5 0-.1-.5 0-.5.1z" fill="#999"/><path d="m49.7 30.3h.2l-.1-.9h-.2c0-.1.1.8.1.9z" fill="#aaa"/><path d="m49.6 30.2h.5v.3h-.5z" fill="#aaa" transform="matrix(.9873 -.1587 .1587 .9873 -4.1847 8.2959)"/><path d="m49.9 29.4c0 .1-.5.2-.5.1v-.1z" fill="url(#n)"/><path d="m49.2 28.1c.5-.1.7 1.3.7 1.3 0 .1-.5.2-.5.1z" fill="#999"/><path d="m48.9 25.8.7 4.7-12.1 2-.8-4.8z" fill="#c12127"/><path d="m48.3 25.9.7 4.7h-.2l-.7-4.7z" fill="none"/><path d="m47.8 26 .7 4.6-1.4.3-.7-4.7z" fill="#fff" opacity=".2"/><path d="m39.1 27.3.8 4.8-2 .3-.8-4.8z" opacity=".2"/><path d="m36.5 27.6h-.2l.1.9h.2c.1 0-.1-.9-.1-.9z" fill="#aaa"/><path d="m36.1 27.3h.5v.3h-.5z" fill="#aaa" transform="matrix(.9872 -.1597 .1597 .9872 -3.9173 6.1572)"/><path d="m36.3 28.4c0-.1.5-.2.5-.1v.1z" fill="url(#o)"/><path d="m37 29.7c-.5.1-.7-1.3-.7-1.3 0-.1.5-.2.5-.1z" fill="#aaa"/><path d="m36.5 26.2h12.5v.5h-12.5z" fill="#999" transform="matrix(.9875 -.1576 .1576 .9875 -3.6343 7.0681)"/><path d="m36.6 27.6.1.2 12.2-2v-.1z" fill="#777"/><path d="m45.4 26.1h-.2l.1.9h.2c0 .1-.1-.9-.1-.9z" fill="#aaa"/><path d="m45 25.9h.5v.3h-.5z" fill="#aaa" transform="matrix(.9878 -.1559 .1559 .9878 -3.508 7.3732)"/><path d="m45.6 26.9c0-.1-.5 0-.5.1v.1z" fill="url(#p)"/><path d="m45.6 28.3c.2 0 0-1.4 0-1.4 0-.1-.5 0-.5.1 0 0 .2 1.4.5 1.3z" fill="#999"/><path d="m40.7 26.9h-.2l.1.9h.2c.1 0-.1-.9-.1-.9z" fill="#aaa"/><path d="m40.3 26.7h.5v.3h-.5z" fill="#aaa" transform="matrix(.9878 -.1555 .1555 .9878 -3.6821 6.6321)"/><path d="m41 27.7c0-.1-.5 0-.5.1v.1z" fill="url(#q)"/><path d="m40.9 29.1c.2 0 0-1.4 0-1.4 0-.1-.5 0-.5.1.1 0 .3 1.3.5 1.3z" fill="#999"/><path d="m37.3 32.2s-.2.1-.2 0l-.1-.9s.2-.1.2 0c-.1 0 .1.9.1.9z" fill="url(#s)"/><path d="m37.4 32.2v.3l-.4.1-.1-.4z" fill="url(#u)"/><path d="m37.4 32.5-.1.1h-.2-.1z" fill="url(#w)"/><path d="m36.8 31.5c0 .1.5 0 .5-.1v-.1z" fill="url(#x)"/><path d="m37.1 30c-.5.1-.3 1.5-.3 1.5 0 .1.5 0 .5-.1z" fill="#aaa"/><path d="m37.3 31.1h12.5v.5h-12.5z" fill="#999" transform="matrix(.9875 -.1574 .1574 .9875 -4.3915 7.2456)"/><path d="m46.1 30.8s-.2.1-.2 0l-.1-.9s.2-.1.2 0c-.1 0 .1.9.1.9z" fill="#aaa"/><path d="m45.8 30.8h.5v.3h-.5z" fill="#aaa" transform="matrix(.9872 -.1592 .1592 .9872 -4.3398 7.7261)"/><path d="m46.1 30c0 .1-.5.2-.5.1v-.1z" fill="url(#y)"/><path d="m45.6 28.7c.2 0 .5 1.3.5 1.3 0 .1-.5.2-.5.1 0 0-.2-1.4 0-1.4z" fill="#999"/><path d="m41.4 31.5s-.2.1-.2 0l-.1-.9s.2-.1.2 0c0 0 .1.9.1.9z" fill="#aaa"/><path d="m41.1 31.5h.5v.3h-.5z" fill="#aaa" transform="matrix(.9872 -.1596 .1596 .9872 -4.5213 7.0052)"/><path d="m41.4 30.7c0 .1-.5.2-.5.1v-.1z" fill="url(#z)"/><path d="m41 29.4c.2 0 .5 1.3.5 1.3 0 .1-.5.2-.5.1 0 0-.3-1.4 0-1.4z" fill="#999"/><path d="m8.8 41.9c0-.2-.9-.2-.9 0s0 5.7 0 6.3h.9c0-.1 0-6.3 0-6.3z" fill="#999"/><path d="m7.8 47.5v.5c.1.2 1.1.1 1.1 0s0-.3 0-.5h-.1c-.1.1-.2.1-.5.1-.2 0-.3 0-.5-.1.1-.1 0-.1 0 0z" fill="#808285"/><path d="m7.8 47.5v.7c.1.2 1 .2 1.1 0s0-.5 0-.7c-.1.1-.3.1-.5.1s-.4 0-.6-.1z" fill="#bbb"/><path d="m7.8 43.9v.5c.1.2 1.1.1 1.1 0s0-.3 0-.5h-.1c-.1.1-.2.1-.5.1-.2 0-.3 0-.5-.1.1-.1 0-.1 0 0z" fill="#808285"/><path d="m7.8 43.9v.7c.1.2 1 .2 1.1 0s0-.5 0-.7c-.1.1-.3.1-.5.1s-.4 0-.6-.1z" fill="#bbb"/><path d="m13.6 49.4c.2.2.5-.2.3-.3-.1-.1-4.2-4.2-5.1-5.1 0 0-.2.5 0 .6 1.2 1.2 4.8 4.8 4.8 4.8z" fill="#999"/><path d="m13.5 48.7c0 .1-.1.1-.1.2-.1.1-.1.1-.2.1.1.1.2.2.2.2s.4-.2.4-.3c0 0-.2-.1-.3-.2z" fill="#808285"/><path d="m13.4 48.9c0 .1-.1.1-.2.1.1.1.2.2.2.2l.2.2c.2.1.4-.2.4-.3l-.4-.4c0 .1-.1.2-.2.2z" fill="#666"/><path d="m11 46.1c0 .1-.1.1-.1.2-.1.1-.1.1-.2.1.1.1.2.2.2.2s.4-.3.4-.4c-.1.1-.2 0-.3-.1z" fill="#808285"/><path d="m10.9 46.3c-.1.1-.2.2-.2.2.1.1.2.2.2.2.1.1.4-.3.4-.4l-.2-.2c-.1.1-.1.2-.2.2z" fill="#bbb"/><path d="m10.9 46.7c.1 0-.2-.2-.2-.1-.3.2-1.2.8-1.8 1.2-.1.1-.1.3-.1.3.6-.4 2.1-1.4 2.1-1.4z" fill="#999"/><path d="m3.1 49.4c-.2.2-.5-.2-.3-.3.2-.2 4.3-4.3 5.1-5.1 0 0 .2.5 0 .6-1.2 1.2-4.7 4.7-4.8 4.8z" fill="#999"/><path d="m3.2 48.7c-.1.1-.2.2-.2.2 0 .1.3.4.4.4s.1-.1.2-.2c-.1 0-.1-.1-.2-.1-.1-.2-.2-.3-.2-.3z" fill="#808285"/><path d="m3.2 48.7-.4.4c-.1.1.2.4.4.3l.2-.2.2-.2c-.1 0-.2 0-.2-.1-.2-.1-.2-.1-.2-.2z" fill="#666"/><path d="m5.7 46.1c-.1.1-.2.2-.2.2 0 .1.4.4.4.4s.1-.1.2-.2c-.1 0-.1-.1-.2-.1-.1-.1-.1-.2-.2-.3z" fill="#808285"/><path d="m5.7 46.1-.2.2c0 .1.3.5.4.4l.2-.2c-.1 0-.2-.1-.2-.2-.1 0-.2-.1-.2-.2z" fill="#bbb"/><path d="m5.9 46.7c-.1 0 .2-.2.2-.1.3.2 1.2.8 1.8 1.2.1 0 .1.3 0 .2-.5-.3-2-1.3-2-1.3z" fill="url(#A)"/><path d="m7.8 42.3v.5c.1.2 1.1.1 1.1 0s0-.3 0-.5h-.1c-.1.1-.2.1-.5.1-.2 0-.3 0-.5-.1z" fill="#808285"/><path d="m7.8 42.3v.7c.1.2 1 .2 1.1 0s0-.5 0-.7c-.1.1-.3.1-.5.1s-.4 0-.6-.1z" fill="#bbb"/><path d="m14.8 39.1c.2-.1.4.3.2.4s-5.2 3-6.3 3.5c0 0 0-.5.1-.6 1.7-.9 6-3.3 6-3.3z" fill="#999"/><path d="m3.2 37.6c-.2-.2-.5.2-.3.3.1.2 4.2 4.3 5 5.1 0 0 .2-.5 0-.6-1.2-1.3-4.7-4.8-4.7-4.8z" fill="#999"/><path d="m1.6 25.7h16.4v12.8h-16.4z" fill="#c12127" transform="matrix(.1473 -.9891 .9891 .1473 -23.442 37.0317)"/><path d="m-2.8 30.6h16.4v1.5h-16.4z" fill="#fff" opacity=".2" transform="matrix(.1473 -.9891 .9891 .1473 -26.4498 32.1031)"/><path d="m6.4 31.9h16.4v2.1h-16.4z" opacity=".2" transform="matrix(.1473 -.9891 .9891 .1473 -20.1283 42.5096)"/><path d="m4.6 22.7s-.3-.1-.3 0l-.2 1.1s.3.1.3 0c0 0 .2-1 .2-1.1z" fill="url(#B)"/><path d="m4.3 22.2h.4v.6h-.4z" fill="#aaa" transform="matrix(.1466 -.9892 .9892 .1466 -18.4354 23.7254)"/><path d="m4 23.6c0-.1.6 0 .6.1v.1z" fill="url(#C)"/><path d="m4.4 25.3c-.6 0-.4-1.7-.4-1.7 0-.1.6 0 .6.1z" fill="#aaa"/><path d="m17.5 24.7h.3l-.2 1.1h-.3c.1 0 .2-1.1.2-1.1z" fill="url(#D)"/><path d="m17.4 24.7v-.4l.6.1v.4z" fill="url(#E)"/><path d="m17.4 24.3.2-.1.3.1.1.1z" fill="url(#F)"/><path d="m17.8 25.6c0-.1-.6-.2-.6-.1v.1z" fill="url(#G)"/><path d="m10.8 17.1h.6v13h-.6z" fill="#999" transform="matrix(.1482 -.989 .989 .1482 -13.8581 31.0413)"/><path d="m4.6 22.9.1.2 12.7 1.9.1-.2z" fill="#aaa"/><path d="m4.7 22.3 12.8 1.9v-.2l-12.7-1.9z" fill="#888"/><path d="m14 24.1s-.3-.1-.3 0l-.2 1.1s.3.1.3 0z" fill="url(#H)"/><path d="m14.1 24.2.1-.4h-.6v.3z" fill="url(#I)"/><path d="m14.2 23.8-.1-.1h-.3l-.2.1z" fill="url(#J)"/><path d="m14 25.1c0-.1-.6-.2-.6-.1v.1z" fill="url(#K)"/><path d="m13.5 26.7c.3 0 .5-1.6.5-1.6 0-.1-.6-.2-.6-.1 0 0-.2 1.6.1 1.7z" fill="#999"/><path d="m8.5 23.4s-.3-.1-.3 0l-.2 1.1s.3.1.3 0 .2-1.1.2-1.1z" fill="#aaa"/><path d="m8.2 22.9h.4v.6h-.4z" fill="#aaa" transform="matrix(.1501 -.9887 .9887 .1501 -15.765 28.0019)"/><path d="m8.5 24.3c0-.1-.6-.2-.6-.1v.1z" fill="url(#L)"/><path d="m8 25.9c.3 0 .5-1.6.5-1.6 0-.1-.6-.2-.6-.1 0 0-.2 1.6.1 1.7z" fill="#aaa"/><path d="m2.1 39.2h-.3l.2-1.2h.3z" fill="#aaa"/><path d="m1.9 38.8h.4v.6h-.4z" fill="#aaa" transform="matrix(.1459 -.9893 .9893 .1459 -36.9148 35.4624)"/><path d="m1.9 38c0 .1.6.2.6.1v-.1z" fill="url(#M)"/><path d="m2.7 36.4c-.6-.1-.9 1.7-.9 1.7 0 .1.6.2.6.1z" fill="#aaa"/><path d="m15.1 40.9s.3.1.3 0l.2-1.1s-.3-.1-.3 0c0 0-.2 1.1-.2 1.1z" fill="#aaa"/><path d="m15.1 40.7h.4v.6h-.4z" fill="#aaa" transform="matrix(.1465 -.9892 .9892 .1465 -27.5188 50.1526)"/><path d="m15.7 40c0 .1-.6 0-.6-.1v-.1z" fill="url(#N)"/><path d="m15.4 38.3c.6.1.3 1.7.3 1.7 0 .1-.6 0-.6-.1z" fill="#aaa"/><path d="m8.3 33.6h.6v13h-.6z" fill="#999" transform="matrix(.1485 -.9889 .9889 .1485 -32.3089 42.7136)"/><path d="m2.2 38.8 12.9 2-.1-.2-12.6-1.9z" fill="#999"/><path d="m11.6 40.3h-.3l.2-1.1h.3c-.1.1-.2 1.1-.2 1.1z" fill="#aaa"/><path d="m11.3 40.2h.4v.6h-.4z" fill="#aaa" transform="matrix(.1464 -.9892 .9892 .1464 -30.2899 45.9198)"/><path d="m11.8 39.4c0 .1-.6 0-.6-.1v-.1z" fill="url(#O)"/><path d="m11.8 37.8c.3 0 0 1.6 0 1.6 0 .1-.6 0-.6-.1.1 0 .3-1.6.6-1.5z" fill="#999"/><path d="m6.1 39.5h-.3l.2-1.1h.3c-.1 0-.2 1.1-.2 1.1z" fill="#aaa"/><path d="m5.7 39.3h.4v.6h-.4z" fill="#aaa" transform="matrix(.146 -.9893 .9893 .146 -34.181 39.6868)"/><path d="m6.4 38.6c0 .1-.6 0-.6-.1v-.1z" fill="url(#P)"/><path d="m6.3 36.9c.3 0 0 1.6 0 1.6 0 .1-.6 0-.6-.1.1.1.4-1.5.6-1.5z" fill="#999"/><path d="m41.1 52.5c.1.2.6 0 .5-.2s-3-6.4-3.5-7.7c0 0-.4.5-.3.7.9 1.9 3.3 7.2 3.3 7.2z" fill="#999"/><path d="m41.4 51.7c0 .1-.1.1-.2.2-.1 0-.2.1-.3 0v.1c.1.1.1.3.1.3 0 .1.5-.1.5-.2s-.1-.3-.1-.4z" fill="#808285"/><path d="m41.2 51.9c-.1 0-.2.1-.3 0 0 .1.2.4.2.4l.1.3c.2.2.6-.1.6-.2l-.3-.6c-.1 0-.2.1-.3.1z" fill="#666"/><path d="m39.6 47.8c0 .1-.1.1-.2.2s-.2.1-.3.1c.1.1.1.3.1.3 0 .1.6-.1.6-.3 0 0-.1-.1-.2-.3z" fill="#808285"/><path d="m39.4 48c-.1.1-.3.1-.3.1 0 .1.2.4.2.4.1.1.6-.1.6-.3 0 0-.1-.3-.2-.4-.1.1-.2.2-.3.2z" fill="#bbb"/><path d="m39.2 48.4c.1 0-.1-.2-.2-.2-.4.1-1.7.4-2.5.6-.2 0-.3.3-.2.3.9-.2 2.9-.7 2.9-.7z" fill="#999"/><path d="m15.2 52.5c-.1.2-.6 0-.5-.2s3-6.4 3.5-7.7c0 0 .4.5.3.7-.8 1.8-3.3 7.2-3.3 7.2z" fill="#999"/><path d="m14.9 51.7c0 .1-.1.3-.1.3 0 .1.5.3.5.2s.1-.2.1-.3v-.1c-.1 0-.2 0-.3 0 0 0-.1 0-.2-.1z" fill="#808285"/><path d="m14.9 51.7c0 .1-.3.6-.3.6 0 .2.4.4.6.2l.1-.3s.1-.3.2-.4c-.1 0-.2 0-.3 0-.1.1-.2 0-.3-.1z" fill="#666"/><path d="m16.7 47.8c-.1.1-.1.3-.1.3 0 .2.6.3.6.3s.1-.2.1-.3c-.1 0-.2 0-.3-.1-.1 0-.2-.1-.3-.2z" fill="#808285"/><path d="m16.7 47.8c0 .1-.2.4-.2.4 0 .2.5.4.6.3s.1-.3.2-.4c-.1 0-.2 0-.3-.1-.2 0-.3-.1-.3-.2z" fill="#bbb"/><path d="m17.1 48.4c-.1 0 .1-.2.2-.2.4.1 1.7.4 2.5.6.2 0 .3.3.2.3-.8-.2-2.9-.7-2.9-.7z" fill="#999"/><path d="m40.3 39.2c0 6.9-5.4 12.4-12.2 12.4-6.7 0-12.2-5.6-12.2-12.4 0-6.9 5.4-12.4 12.2-12.4s12.2 5.6 12.2 12.4z" fill="#fff"/><path d="m40.3 39.3c0 6.8-5.4 12.4-12.2 12.4-6.7 0-12.2-5.5-12.2-12.4 0-6.8 5.4-12.4 12.2-12.4s12.2 5.5 12.2 12.4z" fill="#888"/><ellipse cx="28.2" cy="39.3" fill="#fff" rx="11.5" ry="11.8"/><ellipse cx="28.2" cy="39.2" fill="url(#Q)" rx="11.5" ry="11.8"/><ellipse cx="28.2" cy="38.6" fill="#c12127" rx="11.4" ry="11"/><path d="m28.8 20.3c0-.2-1.4-.2-1.4 0s0 6.8 0 7.5h1.4z" fill="#999"/><path d="m28.8 20.3c0-.2-1.4-.2-1.4 0 .1.2 1.4.1 1.4 0z" fill="#9b9b9b"/><path d="m27.3 26.9v.8c.2.3 1.7.2 1.7 0s0-.5 0-.8l-.1-.1c-.2.1-.4.1-.7.1s-.5 0-.7-.2c-.1.1-.2.1-.2.2z" fill="#808285"/><path d="m27.3 26.8v1c.2.3 1.6.3 1.7 0s0-.8 0-1c-.1.2-.5.2-.9.2-.3 0-.6 0-.8-.2z" fill="#bbb"/><path d="m27.3 21.3v.8c.2.3 1.7.2 1.7 0s0-.5 0-.8l-.1-.1c-.2.1-.4.1-.7.1s-.5 0-.7-.2c-.1.1-.2.1-.2.2z" fill="#808285"/><path d="m27.3 21.3v1c.2.3 1.6.3 1.7 0s0-.8 0-1c-.1.1-.5.2-.8.2-.4-.1-.7-.1-.9-.2z" fill="#bbb"/><path d="m27.4 21.4c-.1 0-1.9 0-4.1 0v.7h4.1c.3.1.3-.7 0-.7z" fill="#999"/><path d="m28.9 21.4h4.1v.7c-2.2 0-4 0-4.1 0-.3.1-.3-.7 0-.7z" fill="#999"/><path d="m40.2 35.9c.2.4-.7.7-.9.3l-.5-1.3c-.2-.4.7-.7.9-.3z" fill="#777"/><path d="m40.5 35c.1.3 0 .6-.3.7s-.6 0-.7-.3 0-.6.3-.7.6 0 .7.3z" fill="#e6e6e6"/><path d="m40.5 35c.1.3 0 .5-.3.7-.3.1-.5 0-.7-.3-.1-.3 0-.5.3-.7.3-.1.6 0 .7.3z" fill="#999"/><path d="m40.3 35.1c.1.2 0 .3-.2.4s-.3 0-.4-.2 0-.3.2-.4.3 0 .4.2z" fill="url(#S)"/><path d="m34 28.1c.4.2 0 1-.4.8l-1.3-.6c-.4-.2 0-1 .4-.8z" fill="#777"/><path d="m33.6 27.2c.3.1.4.4.3.7s-.4.4-.7.3-.4-.4-.3-.7c.2-.3.5-.4.7-.3z" fill="#e6e6e6"/><path d="m33.6 27.2c.3.1.4.4.3.7s-.4.4-.7.3-.4-.4-.3-.7c.2-.2.5-.4.7-.3z" fill="#999"/><path d="m33.6 27.4c.2.1.2.2.2.4-.1.2-.3.2-.5.2-.2-.1-.2-.2-.2-.4.1-.2.3-.2.5-.2z" fill="url(#T)"/><path d="m23.8 27.4c.4-.2.7.7.3.9l-1.3.5c-.4.2-.7-.7-.3-.9z" fill="#777"/><path d="m22.9 27.1c.3-.1.6 0 .7.3s0 .6-.3.7-.6 0-.7-.3.1-.6.3-.7z" fill="#e6e6e6"/><path d="m22.9 27.1c.3-.1.5 0 .7.3.1.3 0 .5-.3.7-.3.1-.5 0-.7-.3 0-.3.1-.6.3-.7z" fill="#999"/><path d="m23 27.3c.2-.1.3 0 .4.2s0 .3-.2.4-.3 0-.4-.2c0-.2.1-.4.2-.4z" fill="url(#U)"/><path d="m16.8 34.1c.2-.4 1 0 .8.4l-.6 1.3c-.2.4-1 0-.8-.4z" fill="#777"/><path d="m15.9 34.5c.1-.3.4-.4.7-.3s.4.4.3.7-.4.4-.7.3-.4-.4-.3-.7z" fill="#e6e6e6"/><path d="m15.9 34.5c.1-.3.4-.4.7-.3s.4.4.3.7-.4.4-.7.3c-.2-.1-.4-.4-.3-.7z" fill="#999"/><path d="m16.1 34.6c.1-.2.2-.2.4-.2.2.1.2.2.2.4-.1.2-.2.2-.4.2-.2-.1-.2-.2-.2-.4z" fill="url(#V)"/><g fill="#bbb"><path d="m23.4 27.5c-.1-.3-.6-.2-.5.1l.3 1.2.5-.1s-.3-1.2-.3-1.2z"/><path d="m16.2 34.8c-.1-.3.4-.5.5-.2l.4 1.2-.5.2z"/><path d="m40.2 35.3c.2-.3-.2-.6-.4-.3l-.8 1s.4.4.4.3c.1 0 .8-1 .8-1z"/><path d="m33.7 27.8c.1-.3-.3-.5-.5-.2l-.5 1.1.5.2z"/></g><ellipse cx="28.2" cy="40.3" fill="#fff" rx="12.2" ry="12.2"/><ellipse cx="28.2" cy="40.4" fill="#999" rx="12.2" ry="12.1"/><circle cx="28.2" cy="40.4" fill="#fff" r="11.5"/><path d="m39.7 40.4c0 6.4-5.2 11.5-11.5 11.5-6.4 0-11.5-5.2-11.5-11.5 0-6.4 5.2-11.5 11.5-11.5 6.3-.1 11.5 5.1 11.5 11.5z" fill="#777"/><ellipse cx="28.2" cy="40.3" fill="#b7a797" rx="11.4" ry="11.4"/><path d="m17.8 43.3c-.4-1.1-.6-2.3-.6-3.5 0-5.7 4.9-10.4 10.9-10.4 4.5 0 8.4 2.6 10.1 6.3-.4 8-15.4.7-20.4 7.6z" fill="#fff" opacity=".2"/><path d="m39.8 36.4c.2.4-.7.7-.9.4l-.5-1.3c-.2-.4.7-.7.9-.4z" fill="#777"/><path d="m40.1 35.5c.1.3 0 .6-.3.7s-.6 0-.7-.3 0-.6.3-.7.6 0 .7.3z" fill="#e6e6e6"/><path d="m40.1 35.5c.1.3 0 .6-.3.7s-.6 0-.7-.3 0-.6.3-.7.6.1.7.3z" fill="#999"/><path d="m33.6 29.4c.4.2 0 1-.4.9l-1.3-.6c-.4-.2 0-1 .4-.9z" fill="#777"/><path d="m33.2 28.5c.3.1.4.4.3.7s-.4.4-.7.3-.4-.4-.3-.7.4-.4.7-.3z" fill="#e6e6e6"/><path d="m33.2 28.5c.3.1.4.4.3.7s-.4.4-.7.3-.4-.4-.3-.7.4-.4.7-.3z" fill="#999"/><path d="m24.2 28.8c.4-.2.7.7.4.9l-1.3.5c-.4.2-.7-.7-.4-.9z" fill="#777"/><path d="m23.3 28.4c.3-.1.6 0 .7.3s0 .6-.3.7-.6 0-.7-.3 0-.6.3-.7z" fill="#e6e6e6"/><path d="m23.3 28.4c.3-.1.6 0 .7.3s0 .6-.3.7-.6 0-.7-.3 0-.6.3-.7z" fill="#999"/><path d="m17.1 35c.2-.4 1 0 .9.4l-.6 1.3c-.2.4-1 0-.9-.4z" fill="#777"/><path d="m16.2 35.4c.1-.3.4-.4.7-.3s.4.4.3.7-.4.4-.7.3-.4-.5-.3-.7z" fill="#e6e6e6"/><path d="m16.2 35.4c.1-.3.4-.4.7-.3s.4.4.3.7-.4.4-.7.3c-.2-.2-.4-.5-.3-.7z" fill="#999"/><path d="m16.5 44.4c-.2-.4.7-.7.9-.4l.5 1.3c.2.4-.7.7-.9.3z" fill="#777"/><path d="m16.2 45.3c-.1-.3 0-.6.3-.7s.6 0 .7.3 0 .6-.3.7-.6 0-.7-.3z" fill="#e6e6e6"/><path d="m16.2 45.3c-.1-.3 0-.6.3-.7s.6 0 .7.3 0 .6-.3.7-.6-.1-.7-.3z" fill="#999"/><path d="m22.7 51.4c-.4-.2 0-1 .4-.9l1.3.6c.4.2 0 1-.4.9z" fill="#777"/><path d="m23.1 52.3c-.3-.1-.4-.4-.3-.7s.4-.4.7-.3.4.4.3.7-.4.4-.7.3z" fill="#e6e6e6"/><path d="m23.1 52.3c-.3-.1-.4-.4-.3-.7s.4-.4.7-.3.4.4.3.7-.4.4-.7.3z" fill="#999"/><path d="m32.1 52c-.4.2-.7-.7-.4-.9l1.3-.5c.4-.2.7.7.4.9z" fill="#777"/><path d="m33 52.4c-.3.1-.6 0-.7-.3s0-.6.3-.7.6 0 .7.3 0 .6-.3.7z" fill="#e6e6e6"/><path d="m33 52.4c-.3.1-.6 0-.7-.3s0-.6.3-.7.6 0 .7.3 0 .6-.3.7z" fill="#999"/><path d="m39.2 45.8c-.2.4-1 0-.9-.4l.6-1.3c.2-.4 1 0 .9.4z" fill="#777"/><path d="m40.1 45.4c-.1.3-.4.4-.7.3s-.4-.4-.3-.7.4-.4.7-.3.4.5.3.7z" fill="#e6e6e6"/><path d="m40.1 45.4c-.1.3-.4.4-.7.3s-.4-.4-.3-.7.4-.4.7-.3c.2.2.4.5.3.7z" fill="#999"/><path d="m22.2 13.8c2.8 1.2 4.3 3.5 3.4 5.1s-4 2-6.8.8-4.3-3.5-3.4-5.1c1-1.7 4-2 6.8-.8z" fill="#999"/><path d="m22.1 14c2.8 1.2 4.3 3.4 3.4 5s-3.9 1.9-6.7.7-4.3-3.4-3.4-5c1-1.6 3.9-1.9 6.7-.7z" fill="#fff"/><path d="m22.1 14c2.8 1.2 4.3 3.4 3.4 5s-3.9 1.9-6.7.7-4.3-3.4-3.4-5c.9-1.5 3.9-1.8 6.7-.7z" fill="url(#X)"/><path d="m23 25.8 2.5-6.9c.3-1.1-.5-2.3-1.7-3.3-2.2-1.8-5.6-2.4-7.6-1.3-.5.3-.8.5-1 1.1l-2.4 6.6z" fill="#c12127"/><path d="m16.7 14.1-3 8.3 1.2.4 3.3-9c-.5 0-1 .1-1.5.3z" fill="#fff" opacity=".2"/><path d="m24.3 16.1-3.3 8.9 1.7.6 2.8-7.7c-.2-.6-.6-1.3-1.2-1.8z" opacity=".2"/><path d="m19.4 20.9c3 1.2 4.5 3.3 3.6 4.9s-3.8 2-6.7.8c-2.8-1.2-4.3-3.4-3.5-5 .7-1.6 3.8-1.7 6.6-.7z" fill="#999"/><path d="m19.4 21.3c2.8 1.1 4.4 3.3 3.6 4.8s-3.7 1.8-6.5.7-4.4-3.3-3.6-4.8c.8-1.6 3.7-1.9 6.5-.7z" fill="#999"/><path d="m19.3 21.3c2.8 1.1 4.4 3.3 3.6 4.8s-3.7 1.8-6.5.7-4.4-3.3-3.6-4.8 3.7-1.8 6.5-.7z" fill="#999"/><path d="m19.2 21.6c2.4 1 3.9 2.9 3.2 4.2s-3.3 1.6-5.7.6-3.9-2.9-3.2-4.2 3.2-1.6 5.7-.6z" fill="#d9d9d9"/><path d="m19.2 21.5c2.5 1 4 3 3.3 4.4s-3.4 1.6-5.9.6-4-3-3.3-4.4 3.4-1.6 5.9-.6z" fill="url(#Y)"/><path d="m19.2 21.5c2.5 1 4 2.9 3.4 4.3-.7 1.3-3.3 1.5-5.9.5-2.5-1-4-2.9-3.4-4.3.7-1.3 3.4-1.5 5.9-.5z" fill="#ab9178"/><path d="m18.5 21.3c-2.6-.9-5-.4-5.3 1s1.6 3.3 4.2 4.1c2.6.9 5 .4 5.3-1s-1.5-3.3-4.2-4.1z" fill="#a3977e"/><path d="m18.5 21.3c-2.6-.9-5-.4-5.3 1s1.6 3.3 4.2 4.1c2.6.9 3.8-4.3 1.1-5.1z" fill="url(#aa)"/><path d="m15.2 14.9-.2-.1-.3.9.2.1z" fill="#aaa"/><path d="m15 14.5h.3v.5h-.3z" fill="#aaa" transform="matrix(.3425 -.9395 .9395 .3425 -3.9146 23.8788)"/><path d="m14.6 15.6c0-.1.5.1.5.2v.1z" fill="url(#ab)"/><path d="m14.6 17.1c-.5-.2 0-1.5 0-1.5 0-.1.5.1.5.2z" fill="#aaa"/><path d="m25.7 18.8.2.1-.3.9-.2-.1s.3-.9.3-.9z" fill="#aaa"/><path d="m25.8 18.5h.3v.5h-.3z" fill="#aaa" transform="matrix(.3427 -.9395 .9395 .3427 -.5662 36.6541)"/><path d="m25.8 19.7c0-.1-.4-.3-.5-.2v.1z" fill="url(#ac)"/><path d="m24.9 20.8c.5.2.9-1.1.9-1.1 0-.1-.4-.3-.5-.2z" fill="#aaa"/><path d="m18.9 13.3-.2-.1-.3.9.2.1c0-.1.3-.9.3-.9z" fill="#aaa"/><path d="m19.1 13.3v-.3l-.4.1-.1.2z" fill="#aaa"/><path d="m18.4 13.9c0-.1.5.1.4.2v.1z" fill="url(#ad)"/><path d="m18.3 15.4c-.4-.1.1-1.5.1-1.5 0-.1.5.1.4.2z" fill="#aaa"/><path d="m24 15s.2 0 .2.1l-.3.9s-.2 0-.2-.1c-.1 0 .3-.9.3-.9z" fill="#aaa"/><path d="m23.9 14.9v-.2l.4.3-.1.2z" fill="#aaa"/><path d="m24 15.9c0-.1-.4-.3-.4-.2v.1z" fill="url(#ae)"/><path d="m23.1 17.1c.4.2.9-1.2.9-1.2 0-.1-.4-.3-.4-.2z" fill="#aaa"/><path d="m21.6 22.2s-.2 0-.2-.1l.3-.9s.2 0 .2.1c0 0-.3.9-.3.9z" fill="#aaa"/><path d="m21.7 22.2-.1.3-.4-.2.1-.3z" fill="#aaa"/><path d="m21.9 21.5c0 .1-.5-.1-.4-.2v-.1z" fill="url(#af)"/><path d="m22 20c.4.1-.1 1.5-.1 1.5 0 .1-.5-.1-.4-.2z" fill="#aaa"/><path d="m16.1 20.3.2.1s.3-.9.4-1l-.2-.1z" fill="#aaa"/><path d="m16 20.3-.1.3h.5l.1-.3z" fill="#aaa"/><path d="m16.3 19.4c0 .1.4.3.4.2v-.1z" fill="url(#ag)"/><path d="m17.2 18.2c-.4-.2-.9 1.2-.9 1.2 0 .1.4.3.4.2z" fill="#aaa"/><path d="m12.8 21.5-.2-.1.3-.9.2.1z" fill="#aaa"/><path d="m12.4 21.3h.3v.5h-.3z" fill="#aaa" transform="matrix(.3427 -.9394 .9394 .3427 -11.9706 25.9962)"/><path d="m12.7 20.6c0 .1.4.3.5.2v-.1z" fill="url(#ah)"/><path d="m13.7 19.5c-.5-.2-.9 1.1-.9 1.1 0 .1.4.3.5.2z" fill="#aaa"/><path d="m23.3 25.4.2.1.3-.9-.2-.1c.1 0-.3.9-.3.9z" fill="#aaa"/><path d="m23.3 25.2h.3v.5h-.3z" fill="#aaa" transform="matrix(.3427 -.9395 .9395 .3427 -8.5472 38.7516)"/><path d="m24 24.7c0 .1-.5-.1-.5-.2v-.1z" fill="url(#ai)"/><path d="m24 23.2c.5.2 0 1.5 0 1.5 0 .1-.5-.1-.5-.2z" fill="#aaa"/><path d="m34.2 14.7c-2.5 1-3.8 3-3 4.5.8 1.4 3.5 1.8 5.9.7 2.5-1 3.8-3 3-4.5-.8-1.4-3.5-1.7-5.9-.7z" fill="#999"/><path d="m34.2 14.9c-2.4 1-3.8 3-3 4.4s3.4 1.7 5.8.6c2.4-1 3.8-3 3-4.4-.7-1.3-3.3-1.6-5.8-.6z" fill="#fff"/><path d="m34.2 15c-2.4 1-3.8 3-3 4.3.8 1.4 3.4 1.6 5.8.6s3.8-3 3-4.3c-.7-1.4-3.3-1.7-5.8-.6z" fill="url(#aj)"/><path d="m42.2 21.2-1.8-5c-.2-.5-.5-.7-.9-.9-1.8-1-4.8-.4-6.7 1.1-1.1.9-1.7 1.9-1.5 2.9l2 5.4z" fill="#c12127"/><path d="m39 15 2.6 7.2-1 .4-2.9-7.9c.4.1.9.2 1.3.3z" fill="#fff" opacity=".2"/><path d="m32.3 16.7 2.9 7.8-1.5.5-2.5-6.7c.2-.5.6-1.1 1.1-1.6z" opacity=".2"/><path d="m40.3 15.8.2-.1.3.8-.2.1c0-.1-.3-.8-.3-.8z" fill="#aaa"/><path d="m40.1 15.5h.4v.3h-.4z" fill="#aaa" transform="matrix(.9393 -.343 .343 .9393 -2.925 14.7717)"/><path d="m40.8 16.3c0-.1-.4.1-.4.1z" fill="url(#ak)"/><path d="m40.8 17.6c.4-.1 0-1.3 0-1.3 0-.1-.4.1-.4.1z" fill="#aaa"/><path d="m31.1 19.1s-.2 0-.2.1l.3.8s.2 0 .2-.1c-.1 0-.3-.8-.3-.8z" fill="#aaa"/><path d="m30.7 18.9h.4v.3h-.4z" fill="#aaa" transform="matrix(.939 -.3438 .3438 .939 -4.6661 11.7837)"/><path d="m31 19.9c0-.1.4-.2.4-.1z" fill="url(#al)"/><path d="m31.8 20.9c-.4.2-.8-1-.8-1 0-.1.4-.2.4-.1z" fill="#aaa"/><path d="m37 14.3.2-.1.3.8-.2.1z" fill="#aaa"/><path d="m36.9 14.3-.1-.2h.5v.2z" fill="#aaa"/><path d="m37.5 14.8c0-.1-.4 0-.4.1z" fill="url(#am)"/><path d="m37.6 16.1c.4-.1-.1-1.3-.1-1.3 0-.1-.4 0-.4.1z" fill="#aaa"/><path d="m32.6 15.8s-.2 0-.2.1l.3.8s.2 0 .2-.1c0 0-.3-.8-.3-.8z" fill="#aaa"/><path d="m32.7 15.8-.1-.2-.3.2.1.2z" fill="#aaa"/><path d="m32.6 16.6c0-.1.3-.2.4-.1z" fill="url(#an)"/><path d="m33.4 17.6c-.4.1-.8-1-.8-1 0-.1.3-.2.4-.1z" fill="#aaa"/><path d="m36.5 20.6c-2.7 1.1-3.9 2.9-3.2 4.3s3.4 1.7 5.8.7c2.5-1 3.8-3 3.1-4.4-.6-1.4-3.3-1.6-5.7-.6z" fill="#999"/><path d="m36.5 20.9c-2.4 1-3.8 2.9-3.1 4.2s3.3 1.6 5.7.6 3.8-2.9 3.1-4.2c-.7-1.4-3.3-1.6-5.7-.6z" fill="#fff"/><path d="m36.5 20.9c-2.4 1-3.8 2.9-3.1 4.2s3.2 1.6 5.7.6c2.4-1 3.8-2.9 3.1-4.2s-3.2-1.6-5.7-.6z" fill="#999"/><path d="m36.7 21.2c-2.1.9-3.4 2.5-2.8 3.7s2.8 1.4 5 .5c2.1-.9 3.4-2.5 2.8-3.7-.7-1.1-2.9-1.4-5-.5z" fill="#d9d9d9"/><path d="m36.6 21.1c-2.2.9-3.5 2.6-2.9 3.8s3 1.4 5.2.5 3.5-2.6 2.9-3.8-3-1.4-5.2-.5z" fill="#777"/><path d="m36.6 21.1c-2.2.9-3.5 2.6-2.9 3.7s2.9 1.3 5.1.4 3.5-2.6 2.9-3.7c-.5-1.1-2.8-1.3-5.1-.4z" fill="#ab9178"/><path d="m37.2 20.9c2.3-.7 4.4-.3 4.6.9.3 1.3-1.4 2.9-3.7 3.6s-4.4.3-4.6-.9c-.2-1.3 1.4-2.9 3.7-3.6z" fill="#a3977e"/><path d="m37.2 20.9c2.3-.7 4.4-.3 4.6.9.3 1.3-1.4 2.9-3.7 3.6-2.2.7-3.2-3.8-.9-4.5z" fill="url(#ao)"/><path d="m34.6 21.7s.2 0 .2-.1l-.3-.8s-.2 0-.2.1c0 0 .3.8.3.8z" fill="#aaa"/><path d="m34.5 21.7.1.3.3-.3-.1-.2z" fill="#aaa"/><path d="m34.2 21.1c0 .1.4 0 .4-.1z" fill="url(#ap)"/><path d="m34.2 19.7c-.4.1.1 1.3.1 1.3 0 .1.4 0 .4-.1z" fill="#aaa"/><path d="m39.3 20-.2.1-.3-.8.2-.1z" fill="#aaa"/><path d="m39.4 20 .1.3h-.4l-.1-.3z" fill="#aaa"/><path d="m39.1 19.3c0 .1-.3.2-.4.1z" fill="url(#aq)"/><path d="m38.4 18.2c.4-.1.8 1 .8 1 0 .1-.3.2-.4.1z" fill="#aaa"/><path d="m42.2 21.1s.2 0 .2-.1l-.3-.8s-.2 0-.2.1c0 0 .3.8.3.8z" fill="#aaa"/><path d="m42.1 21h.4v.3h-.4z" fill="#aaa" transform="matrix(.9394 -.3428 .3428 .9394 -4.6883 15.7801)"/><path d="m42.3 20.3c0 .1-.4.2-.4.1z" fill="url(#ar)"/><path d="m41.4 19.3c.4-.2.8 1 .8 1 0 .1-.4.2-.4.1z" fill="#aaa"/><path d="m33 24.5-.2.1-.3-.8.2-.1s.3.7.3.8z" fill="#aaa"/><path d="m32.7 24.4h.4v.3h-.4z" fill="#aaa" transform="matrix(.9394 -.3429 .3429 .9394 -6.4232 12.7675)"/><path d="m32.5 23.9c0 .1.4-.1.4-.1z" fill="url(#as)"/><path d="m32.5 22.6c-.4.1 0 1.3 0 1.3 0 .1.4-.1.4-.1z" fill="#aaa"/><path d="m6.9 16.4c0-.3-.6-.3-.6 0v8.5h.6c0-.1 0-8.5 0-8.5z" fill="#999"/><path d="m6.9 24.1c0-.5-.7-.5-.7 0v16.1h.7s0-15.9 0-16.1z" fill="#999"/><path d="m7 39.3c0-.4-.9-.4-.9 0v11.9h.9s0-11.8 0-11.9z" fill="#999"/><path d="m6 50.6v.5c.1.2 1.1.1 1.1 0s0-.3 0-.5h-.1c-.1.1-.2.1-.5.1-.2 0-.3 0-.5-.1.1-.1 0-.1 0 0z" fill="#808285"/><path d="m6 50.6v.7c.1.2 1 .2 1.1 0s0-.5 0-.7c-.1.1-.3.1-.5.1-.3 0-.5 0-.6-.1z" fill="#bbb"/><path d="m6 47v.5c.1.2 1.1.1 1.1 0s0-.3 0-.5h-.1c-.1 0-.3 0-.5 0s-.3 0-.5 0c.1-.1 0-.1 0 0z" fill="#808285"/><path d="m6 47v.7c.1.2 1 .2 1.1 0s0-.5 0-.7c-.1 0-.3.1-.6.1-.2 0-.4 0-.5-.1z" fill="#bbb"/><path d="m11.7 52.5c.2.2.5-.2.3-.3-.1-.2-4.2-4.3-5-5.1 0 0-.2.5 0 .6 1.2 1.2 4.7 4.8 4.7 4.8z" fill="#999"/><path d="m11.7 51.8c0 .1-.1.1-.1.2-.1.1-.1.1-.2.1.1.1.2.2.2.2s.4-.2.4-.4c-.1.1-.2 0-.3-.1z" fill="#808285"/><path d="m11.6 52c-.1.1-.2.1-.2.1.1.1.2.2.2.2l.2.2c.2.1.4-.2.4-.3l-.4-.4c-.1.1-.1.2-.2.2z" fill="#666"/><path d="m9.1 49.2c0 .1-.1.1-.1.2-.1.1-.1.1-.2.1.1.2.2.3.2.3s.4-.3.4-.4c0 0-.1-.1-.3-.2z" fill="#808285"/><path d="m9 49.4c-.1.1-.2.2-.2.2 0 .1.2.2.2.2.1.1.4-.3.4-.4l-.2-.2c0 .1-.1.2-.2.2z" fill="#bbb"/><path d="m9 49.8c.1 0-.2-.2-.2-.1-.3.2-1.2.8-1.8 1.2-.1.1-.1.3-.1.3.6-.4 2.1-1.4 2.1-1.4z" fill="#999"/><path d="m1.3 52.5c-.2.2-.5-.2-.3-.3l5.1-5.1s.2.5 0 .6c-1.3 1.2-4.8 4.7-4.8 4.8z" fill="#999"/><path d="m1.3 51.8c-.1 0-.2.2-.2.2 0 .1.3.4.4.4s.1-.1.2-.2c-.1 0-.1-.1-.2-.1-.1-.2-.1-.3-.2-.3z" fill="#808285"/><path d="m1.3 51.8-.4.4c-.1.1.2.4.4.3l.2-.2.2-.2c-.1 0-.2 0-.2-.1-.1-.1-.2-.1-.2-.2z" fill="#666"/><path d="m3.8 49.2c-.1.1-.2.2-.2.2 0 .1.4.4.4.4s.1-.1.2-.2c-.1 0-.1-.1-.2-.1 0-.1-.1-.2-.2-.3.1 0 .1 0 0 0z" fill="#808285"/><path d="m3.8 49.2-.2.2c0 .1.3.5.4.4l.2-.2c-.1 0-.2-.1-.2-.2-.1 0-.1-.1-.2-.2z" fill="#bbb"/><path d="m4 49.8c-.1 0 .2-.2.2-.1.3.2 1.2.8 1.8 1.2.1.1.1.3.1.3-.6-.4-2.1-1.4-2.1-1.4z" fill="#999"/><path d="m6.2 23.7v.3c.1.1.7.1.7 0s0-.2 0-.4h-.1c-.1.1-.2.1-.3.1-.1.1-.2.1-.3 0z" fill="#808285"/><path d="m6.2 23.7v.4c.1.1.7.1.7 0s0-.3 0-.4c0 .1-.2.1-.4.1-.1 0-.2 0-.3-.1z" fill="#bbb"/><path d="m6.3 16v.3c.1.1.6.1.6 0s0-.2 0-.3c-.1 0-.1.1-.2.1-.2 0-.3 0-.4-.1z" fill="#808285"/><path d="m6.3 16v.4c.1.1.6.1.6 0s0-.3 0-.4c0 .1-.2.1-.3.1s-.3 0-.3-.1z" fill="#bbb"/><path d="m6.1 39.1v.4c.1.2.9.1.9 0s0-.3 0-.4h-.1c-.1.1-.2.1-.4.1-.1-.1-.2-.1-.4-.1.1-.1 0-.1 0 0z" fill="#808285"/><path d="m6.1 39.1v.5c.1.2.9.2.9 0s0-.4 0-.5c-.1.1-.3.1-.4.1-.2 0-.4-.1-.5-.1z" fill="#bbb"/><path d="m13.1 18.8-13.1-5.2c.1-.4 2.1.1 5.3 1.3.3.1.9-.2 1.7.1s1 1 1.3 1.1c3.2 1.3 4.9 2.3 4.8 2.7z" fill="url(#at)"/><path d="m5.5 15c.1 0 .1 0 0 0 .5 0 .9-.2 1.5.1.6.2.8.6 1 .9v.1-.1c-.2-.3-.5-.6-1-.9-.6-.2-1-.1-1.5-.1z" fill="#fdf3a4"/><path d="m5.3 15c-3.2-1.2-5.2-1.7-5.3-1.3.4-.2 2.3.2 5.3 1.3.3.1.3.1 0 0z" fill="#fdf3a4"/><path d="m8.3 16.1c-.3-.1-.3 0 0 0 2.9 1.3 4.6 2.2 4.7 2.6.2-.2-1.5-1.3-4.7-2.6z" fill="#fdf3a4"/><path d="m48.8 12.2c0-.4-.6-.4-.6 0v11.8h.6s0-11.7 0-11.8z" fill="#999"/><path d="m48.9 24.1c0-.5-.7-.5-.7 0v16.1h.7c0-.1 0-16 0-16.1z" fill="#999"/><path d="m49 39.3c0-.4-.9-.4-.9 0v11.9h.9c0-.1 0-11.8 0-11.9z" fill="#9b9b9b"/><path d="m47.9 50.5v.5c.1.2 1.1.1 1.1 0s0-.3 0-.5h-.1c-.1.1-.2.1-.5.1-.2 0-.3 0-.5-.1z" fill="#808285"/><path d="m47.9 50.5v.7c.1.2 1 .2 1.1 0s0-.5 0-.7c-.1.1-.3.1-.5.1s-.4 0-.6-.1z" fill="#bbb"/><path d="m47.9 46.9v.5c.1.2 1.1.1 1.1 0s0-.3 0-.5h-.1c-.1.1-.2.1-.5.1-.2 0-.3 0-.5-.1.2-.1 0 0 0 0z" fill="#808285"/><path d="m47.9 46.9v.7c.1.2 1 .2 1.1 0s0-.5 0-.7c0 .1-.3.1-.5.1s-.4 0-.6-.1z" fill="#bbb"/><path d="m53.7 52.4c.2.2.5-.2.3-.3-.1-.1-4.2-4.2-5.1-5.1 0 0-.2.5 0 .6 1.3 1.3 4.8 4.8 4.8 4.8z" fill="#9b9b9b"/><path d="m53.6 51.7c0 .1-.1.1-.1.2s-.1.1-.2.1c.1.1.2.2.2.2s.4-.2.4-.4c0 .1-.1 0-.3-.1z" fill="#808285"/><path d="m53.6 51.9c-.1.1-.2.1-.2.1.1.1.2.2.2.2l.2.2c.2.1.4-.2.4-.3l-.4-.4c-.1.1-.2.2-.2.2z" fill="#666"/><path d="m51.1 49.2c0 .1-.1.1-.1.2-.1.1-.1.1-.2.1.1.1.2.2.2.2s.4-.3.4-.4c0 0-.2-.1-.3-.1.1-.1 0 0 0 0z" fill="#808285"/><path d="m51 49.4c-.1.1-.2.2-.2.2.1.1.2.2.2.2.1.1.4-.3.4-.4l-.2-.2c-.1 0-.1.1-.2.2z" fill="#bbb"/><path d="m51 49.7c.1 0-.2-.2-.2-.1-.3.2-1.2.8-1.8 1.2-.1.1-.1.3-.1.3.6-.4 2.1-1.4 2.1-1.4z" fill="#999"/><path d="m52.9 14.3c.3.1.4-.1.1-.3-.3-.1-8-3.2-10.7-4.3-.3-.1-.4.1-.1.3 2.8 1.2 10.6 4.3 10.7 4.3z" fill="#999"/><path d="m52.8 14v.1c0 .1-.1.1-.1.1.1 0 .2.1.2.1s.2-.2.1-.3c0 .1-.1 0-.2 0z" fill="#808285"/><path d="m52.8 14.2c0 .1-.1.1-.1.1l.2.1.1.1c.1 0 .2-.2.1-.3 0 0-.3-.1-.4-.1.2 0 .2 0 .1.1z" fill="#bbb"/><path d="m43.3 52.4c-.2.2-.5-.2-.3-.3.1-.1 4.2-4.2 5.1-5.1 0 0 .2.5 0 .6-1.3 1.3-4.8 4.8-4.8 4.8z" fill="#9b9b9b"/><path d="m43.3 51.7c-.1.1-.2.2-.2.2 0 .1.3.4.4.4s.1-.1.2-.2c-.1 0-.1-.1-.2-.1-.1-.2-.2-.2-.2-.3z" fill="#808285"/><path d="m43.3 51.7-.4.4c-.1.1.2.4.4.3l.2-.2.2-.2c-.1 0-.2 0-.2-.1-.2 0-.2-.1-.2-.2z" fill="#666"/><path d="m45.8 49.1c-.1.1-.2.2-.2.2 0 .1.4.4.4.4s.1-.1.2-.2c-.1 0-.1-.1-.2-.1-.1-.1-.1-.2-.2-.3z" fill="#808285"/><path d="m45.8 49.1-.2.2c0 .1.3.5.4.4l.2-.2c-.1 0-.2-.1-.2-.2-.1 0-.2-.1-.2-.2z" fill="#bbb"/><path d="m46 49.7c-.1 0 .2-.2.2-.1.3.2 1.2.8 1.8 1.2.1.1.1.3.1.3-.6-.4-2.1-1.4-2.1-1.4z" fill="#999"/><path d="m48.2 23.7v.3c.1.1.7.1.7 0s0-.2 0-.4h-.1c-.1.1-.2.1-.3.1s-.2 0-.3 0c0-.1 0-.1 0 0z" fill="#808285"/><path d="m48.2 23.7v.4c.1.1.7.1.7 0s0-.3 0-.4c0 .1-.2.1-.4.1-.1-.1-.2-.1-.3-.1z" fill="#bbb"/><path d="m48.2 12.1v.3c.1.1.7.1.7 0s0-.2 0-.4h-.1c-.1.1-.2.1-.3.1-.1.1-.2.1-.3 0z" fill="#808285"/><path d="m48.2 12.1v.6c.1.2.7.2.7 0s0-.5 0-.6c0 .1-.2.1-.4.1-.1 0-.3 0-.3-.1z" fill="#bbb"/><path d="m48.1 39v.4c.1.2.9.1.9 0s0-.3 0-.4h-.1c-.1 0-.2 0-.4 0-.1 0-.3 0-.4 0 0-.1 0 0 0 0z" fill="#808285"/><path d="m48.1 39v.5c.1.2.9.2.9 0s0-.4 0-.5c-.1.1-.3.1-.4.1-.3 0-.4 0-.5-.1z" fill="#bbb"/><path d="m48.8 7.5-13.2 5c-.1-.4 1.7-1.4 4.8-2.6.3-.1.5-.8 1.3-1.1s1.4 0 1.7-.1c3.3-1.1 5.3-1.6 5.4-1.2z" fill="url(#au)"/><path d="m40.7 9.8c.3-.3.5-.7 1.1-1 .6-.2 1-.1 1.4-.1h.1s0-.1-.1-.1c-.3 0-.8-.2-1.4.1s-.8.7-1.1.9z" fill="#fdf3a4"/><path d="m40.5 9.9c-3.2 1.3-5 2.3-4.8 2.6.2-.4 1.9-1.4 4.8-2.6.3 0 .3-.1 0 0z" fill="#fdf3a4"/><path d="m43.5 8.8c-.3.1-.2.1 0 0 3-1 4.9-1.4 5.3-1.2-.1-.4-2.1 0-5.3 1.2z" fill="#fdf3a4"/></svg>