<svg enable-background="new 0 0 60 60" height="60" viewBox="0 0 60 60" width="60" xmlns="http://www.w3.org/2000/svg"><g fill="#781d77"><path d="m39 51.2c-.2-.2-.5-.2-.7 0l-2.6-2.7c2.2-2.5 3.6-5.9 3.6-9.6 0-7.4-5.4-13.4-12.2-13.9v-6.5h1.4v2.5c-.3 0-.5.2-.5.5s.2.5.5.5h10.3c.3 0 .5-.2.5-.5s-.2-.5-.5-.5v-5.5c.3 0 .5-.2.5-.5s-.2-.5-.5-.5h-10.2c-.3 0-.5.2-.5.5s.2.5.5.5v2h-1.4c0-.6-.4-1-1-1s-.9.4-.9 1h-1.4v-2c.3 0 .5-.2.5-.5s-.2-.5-.5-.5h-12.2c-.3 0-.5.2-.5.5s.2.5.5.5v5.5c-.3 0-.5.2-.5.5s.2.5.5.5h12.2c.2 0 .5-.2.5-.5s-.2-.5-.5-.5v-2.5h1.4v6.5c-6.8.5-12.2 6.5-12.2 13.9 0 3.7 1.4 7 3.5 9.5l-2.6 2.7c-.2-.2-.5-.2-.6 0l-.9.8c-.3.3-.1.9.3.9h1.4c.1 0 .3 0 .3-.1l.1-.1c.2-.2.2-.5 0-.7l2.6-2.7c2.3 2.3 5.5 3.7 8.9 3.7s6.6-1.4 8.9-3.7l2.6 2.7c-.2.2-.2.5 0 .7l.1.1c.1.1.2.2.3.2h1.4c.4 0 .6-.5.3-.8zm-25-12.2c0-7.1 5.5-13 12.2-13s12.2 5.8 12.2 13-5.5 13-12.2 13-12.1-5.9-12.2-13zm33.1 8.2c-.2-.2-.4-.2-.6 0l-4.3-1.9v-12.3h4.7c1 0 1.9-.9 1.9-2v-1.5c0-.3-.2-.5-.5-.5s-.5.2-.5.5v.5h-.5v-5h.5c.3 0 .5-.2.5-.5s-.2-.5-.5-.5h-13.1c-.3 0-.5.2-.5.5s.2.5.5.5h.5v2.4c1.2 1 2.2 2.2 3 3.6h9.7c0 .5-.4 1-.9 1h-8.2c.2.3.3.6.5 1h1.2v12.2l-1.6.7c-.3.5-.5 1-.8 1.4l2.5-1.1c.1.4.5.6.9.6s.7-.3.9-.7l3.6 1.6c-.2.2-.2.5 0 .7l.1.1c.1.1.2.2.3.2h1.4c.4 0 .6-.5.3-.9zm-34.8-6.7c-.1-.5-.1-1-.1-1.5 0-3.9 1.4-7.5 3.7-10.1v-4.3h.5c.3 0 .5-.2.5-.5s-.2-.5-.5-.5h-15.9c-.3-.1-.5.2-.5.4 0 .3.2.5.5.5h.5v14.9h-.5c-.3.1-.5.3-.5.6s.2.5.5.5h.9v7c-.2 0-.4.2-.4.5v2c0 .3.2.5.5.5h.9c.2 0 .5-.2.5-.5v-2c0-.3-.2-.5-.5-.5v-7zm39.2-28h8.5c0-.9-3.9-1.6-6.7-1.9-.2-.6-1-1-1.9-1.1v-1.9c0-.3-.2-.5-.5-.5s-.5.2-.5.5v2c-.8.1-1.5.5-1.7 1.1-2.8.3-6.6 1-6.6 1.9h8.3v1h-8.3c0 .9 3.9 1.6 6.6 1.9.2.4.6.8 1.2.9v22.1l-6.8 4.8c-.1.1-.2.2-.2.4v.2c0 .3.2.5.5.5s.6-.1.8-.2l5.8-2.4h1.7l3.7 1.6c-.2.2-.2.5 0 .7l.1.1c.1.1.2.1.3.1h1.4c.4 0 .6-.5.3-.9l-.8-.8c-.2-.2-.4-.2-.6 0l-4.3-1.9v-24.3c.7-.2 1.2-.5 1.4-1 2.8-.3 6.7-1 6.7-1.9h-8.5zm-1.4 28.5-5.6 2.5 5.6-4z"/><ellipse cx="26.3" cy="46.7" rx="3.5" ry="3.7"/></g></svg>