<svg enable-background="new 0 0 60 60" height="60" viewBox="0 0 60 60" width="60" xmlns="http://www.w3.org/2000/svg" xmlns:xlink="http://www.w3.org/1999/xlink"><linearGradient id="a"><stop offset="0" stop-color="#838383"/><stop offset=".06268554" stop-color="#9b9b9b"/><stop offset=".1333" stop-color="#b3b3b3"/><stop offset=".2788" stop-color="#e6e6e6"/><stop offset=".497" stop-color="#bfbfbf"/><stop offset=".7455" stop-color="#808080"/><stop offset=".8424" stop-color="#666"/><stop offset="1" stop-color="#4d4d4d"/></linearGradient><linearGradient id="b" gradientTransform="matrix(-1 0 0 -1 1058.9727 -1267.4092)" gradientUnits="userSpaceOnUse" x1="1005.7711" x2="1006.241" xlink:href="#a" y1="-1312.3842" y2="-1312.3842"/><linearGradient id="c"><stop offset="0" stop-color="#262626"/><stop offset=".2303" stop-color="#8c8c8c"/><stop offset=".5333" stop-color="#4d4d4d"/><stop offset=".602" stop-color="#484848"/><stop offset=".6836" stop-color="#393939"/><stop offset=".7091" stop-color="#333"/><stop offset=".9818" stop-color="#1a1a1a"/></linearGradient><linearGradient id="d" gradientTransform="matrix(0 -1.2687 -1 0 -616.0508 1525.3469)" gradientUnits="userSpaceOnUse" x1="1164.4115" x2="1164.4122" xlink:href="#c" y1="-669.2994" y2="-668.7517"/><linearGradient id="e" gradientUnits="userSpaceOnUse" x1="52.8369" x2="53.0675" y1="46.7625" y2="46.7625"><stop offset="0" stop-color="#333"/><stop offset=".01127499" stop-color="#313131"/><stop offset=".1333" stop-color="#1a1a1a"/><stop offset=".2788" stop-color="#404040"/><stop offset=".497" stop-color="#1a1a1a"/><stop offset=".7455"/><stop offset=".8909"/><stop offset="1" stop-color="#262626"/></linearGradient><linearGradient id="f" gradientTransform="matrix(-.8359 .5489 .5489 .8359 -1457.0336 935.0624)" gradientUnits="userSpaceOnUse" x1="-1747.3442" x2="-1746.6338" y1="85.99" y2="87.2046"><stop offset="0" stop-color="#404040"/><stop offset=".2239" stop-color="#292929"/><stop offset=".4861" stop-color="#141414"/><stop offset=".6606" stop-color="#0d0d0d"/></linearGradient><linearGradient id="g" gradientUnits="userSpaceOnUse" x1="52.8039" x2="53.1175" y1="18.65" y2="18.65"><stop offset="0" stop-color="#fdffb8"/><stop offset=".5152" stop-color="#e0b209"/><stop offset=".7212" stop-color="#deae00"/><stop offset=".813" stop-color="#cc9b1d"/><stop offset=".91" stop-color="#bd8c35"/><stop offset=".9697" stop-color="#b7863e"/></linearGradient><linearGradient id="h"><stop offset="0" stop-color="#fdffb8"/><stop offset=".3273" stop-color="#d8a70a"/><stop offset=".4727" stop-color="#fdf3a4"/><stop offset=".5038" stop-color="#fbee98"/><stop offset=".5603" stop-color="#f5e078"/><stop offset=".6357" stop-color="#ebca43"/><stop offset=".7212" stop-color="#deae00"/><stop offset=".813" stop-color="#cc9b1d"/><stop offset=".91" stop-color="#bd8c35"/><stop offset=".9697" stop-color="#b7863e"/></linearGradient><linearGradient id="i" gradientUnits="userSpaceOnUse" x1="52.9576" x2="52.9494" xlink:href="#h" y1="17.283" y2="18.7104"/><linearGradient id="j" gradientTransform="matrix(1 0 0 -1 0 60)" gradientUnits="userSpaceOnUse" x1="52.9576" x2="52.9494" xlink:href="#h" y1="39.878" y2="41.3054"/><linearGradient id="k" gradientTransform="matrix(-.8971 -.8971 -.7071 .7071 626.9273 1228.7725)" gradientUnits="userSpaceOnUse" x1="979.8232" x2="979.824" xlink:href="#c" y1="-425.5435" y2="-424.9958"/><linearGradient id="l"><stop offset=".0121212" stop-color="#fff"/><stop offset=".02032122" stop-color="#fdfdfd"/><stop offset=".1091" stop-color="#e6e6e6"/><stop offset=".2618" stop-color="#f2f2f2"/><stop offset=".5939" stop-color="#d9d9d9"/><stop offset="1" stop-color="#a6a6a6"/></linearGradient><linearGradient id="m" gradientTransform="matrix(-.9873 .159 .159 .9873 -1022.9353 134.9416)" gradientUnits="userSpaceOnUse" x1="-1075.9858" x2="-1075.4911" xlink:href="#l" y1="63.2632" y2="63.2632"/><linearGradient id="n" gradientTransform="matrix(-.9873 .159 -.159 -.9873 -1066.6718 -133.2654)" gradientUnits="userSpaceOnUse" x1="-1076.5153" x2="-1076.021" xlink:href="#l" y1="-338.1226" y2="-338.1226"/><linearGradient id="o" gradientTransform="matrix(.9873 -.159 .159 .9873 2.8504 -30.7738)" gradientUnits="userSpaceOnUse" x1="23.6071" x2="24.1016" xlink:href="#l" y1="63.7357" y2="63.7357"/><linearGradient id="p" gradientTransform="matrix(-.9873 .159 .159 .9873 -1022.9353 134.9416)" gradientUnits="userSpaceOnUse" x1="-1072.1027" x2="-1071.608" xlink:href="#l" y1="63.2514" y2="63.2514"/><linearGradient id="q" gradientTransform="matrix(-.9873 .159 .159 .9873 -1022.9353 134.9416)" gradientUnits="userSpaceOnUse" x1="-1067.3944" x2="-1066.9" xlink:href="#l" y1="63.3098" y2="63.3098"/><linearGradient id="r"><stop offset="0" stop-color="#a6a6a6"/><stop offset=".04824392" stop-color="#b5b5b5"/><stop offset=".1333" stop-color="#ccc"/><stop offset=".2788" stop-color="#e6e6e6"/><stop offset=".497" stop-color="#ccc"/><stop offset=".7455" stop-color="#919191"/><stop offset=".8485" stop-color="#808080"/><stop offset="1" stop-color="#666"/></linearGradient><linearGradient id="s" gradientTransform="matrix(.9873 -.159 -.159 -.9873 -736.7369 -57.7695)" gradientUnits="userSpaceOnUse" x1="749.598" x2="749.8344" xlink:href="#r" y1="-211.4217" y2="-211.4217"/><linearGradient id="t"><stop offset="0" stop-color="#e6e6e6"/><stop offset=".006150014" stop-color="#e3e3e3"/><stop offset=".0727273" stop-color="#ccc"/><stop offset=".2" stop-color="#fff"/><stop offset=".2409" stop-color="#f0f0f0"/><stop offset=".4182" stop-color="#b3b3b3"/><stop offset=".4238" stop-color="#b0b0b0"/><stop offset=".4939" stop-color="#969696"/><stop offset=".5568" stop-color="#868686"/><stop offset=".6061" stop-color="#818181"/><stop offset=".7697" stop-color="#999"/><stop offset=".8022" stop-color="#919191"/><stop offset=".9155" stop-color="#7b7b7b"/><stop offset=".9879" stop-color="#737373"/></linearGradient><linearGradient id="u" gradientTransform="matrix(-.159 -.9873 .9873 -.159 -175.9528 65.7481)" gradientUnits="userSpaceOnUse" x1="-.9271" x2="-.9243" xlink:href="#t" y1="215.4649" y2="215.9674"/><linearGradient id="v"><stop offset="0" stop-color="#e6e6e6"/><stop offset=".01691253" stop-color="#e8e8e8"/><stop offset=".2" stop-color="#fff"/><stop offset=".2409" stop-color="#f0f0f0"/><stop offset=".4182" stop-color="#b3b3b3"/><stop offset=".4539" stop-color="#aeaeae"/><stop offset=".6309" stop-color="#9f9f9f"/><stop offset=".7697" stop-color="#999"/><stop offset=".8022" stop-color="#919191"/><stop offset=".9155" stop-color="#7b7b7b"/><stop offset=".9879" stop-color="#737373"/></linearGradient><linearGradient id="w" gradientTransform="matrix(-.159 -.9873 .9873 -.159 -175.9528 65.7481)" gradientUnits="userSpaceOnUse" x1="-1.1408" x2="-1.138" xlink:href="#v" y1="215.4662" y2="215.9671"/><linearGradient id="x" gradientTransform="matrix(.9873 -.159 -.159 -.9873 -40.8867 -298.9824)" gradientUnits="userSpaceOnUse" x1="24.1504" x2="24.6449" xlink:href="#l" y1="-338.5967" y2="-338.5967"/><linearGradient id="y" gradientTransform="matrix(-.9878 .1556 -.1556 -.9878 -1066.9052 -141.354)" gradientUnits="userSpaceOnUse" x1="-1072.8047" x2="-1072.3104" xlink:href="#l" y1="-342.4645" y2="-342.4645"/><linearGradient id="z" gradientTransform="matrix(-.9878 .1556 -.1556 -.9878 -1066.9052 -141.354)" gradientUnits="userSpaceOnUse" x1="-1068.0966" x2="-1067.6022" xlink:href="#l" y1="-342.4247" y2="-342.4247"/><linearGradient id="A" gradientTransform="matrix(-.2513 .385 .3045 .1988 311.3865 -450.3492)" gradientUnits="userSpaceOnUse" x1="1268.0728" x2="1268.5432" xlink:href="#a" y1="46.9576" y2="46.9576"/><linearGradient id="B" gradientTransform="matrix(.9892 .1465 -.1465 .9892 -726.5102 -163.7629)" gradientUnits="userSpaceOnUse" x1="750.2598" x2="750.538" xlink:href="#r" y1="77.9238" y2="77.9238"/><linearGradient id="C" gradientTransform="matrix(.9892 .1465 -.1465 .9892 -27.6657 68.6295)" gradientUnits="userSpaceOnUse" x1="24.7502" x2="25.3323" xlink:href="#l" y1="-49.1627" y2="-49.1627"/><linearGradient id="D" gradientTransform="matrix(-.9892 -.1465 -.1465 .9892 -318.7486 -103.9589)" gradientUnits="userSpaceOnUse" x1="-351.7947" x2="-351.5163" xlink:href="#r" y1="78.5474" y2="78.5474"/><linearGradient id="E" gradientTransform="matrix(-.1465 .9892 -.9892 -.1465 -816.0904 -390.9915)" gradientUnits="userSpaceOnUse" x1="288.9078" x2="288.9111" xlink:href="#t" y1="-885.9833" y2="-885.3912"/><linearGradient id="F" gradientTransform="matrix(-.1465 .9892 -.9892 -.1465 -816.0904 -390.9915)" gradientUnits="userSpaceOnUse" x1="288.6461" x2="288.6494" xlink:href="#v" y1="-885.9819" y2="-885.3918"/><linearGradient id="G" gradientTransform="matrix(-.9892 -.1465 -.1465 .9892 -1054.9507 -84.0453)" gradientUnits="userSpaceOnUse" x1="-1077.2957" x2="-1076.7136" xlink:href="#l" y1="-48.6939" y2="-48.6939"/><linearGradient id="H" gradientTransform="matrix(.9887 .1498 -.1498 .9887 -657.4468 -154.7369)" gradientUnits="userSpaceOnUse" x1="690.3859" x2="690.6644" xlink:href="#r" y1="76.817" y2="76.817"/><linearGradient id="I" gradientTransform="matrix(-.1498 .9887 .9887 .1498 -97.8279 -283.4318)" gradientUnits="userSpaceOnUse" x1="287.1895" x2="287.1929" xlink:href="#t" y1="156.1965" y2="156.7892"/><linearGradient id="J" gradientTransform="matrix(-.1498 .9887 .9887 .1498 -97.8279 -283.4318)" gradientUnits="userSpaceOnUse" x1="286.9892" x2="286.9925" xlink:href="#v" y1="156.1976" y2="156.7878"/><linearGradient id="K" gradientTransform="matrix(-.9892 -.1465 -.1465 .9892 -1054.9507 -84.0453)" gradientUnits="userSpaceOnUse" x1="-1073.4174" x2="-1072.8352" xlink:href="#l" y1="-48.6318" y2="-48.6318"/><linearGradient id="L" gradientTransform="matrix(-.9892 -.1465 -.1465 .9892 -1054.9507 -84.0453)" gradientUnits="userSpaceOnUse" x1="-1067.8738" x2="-1067.2915" xlink:href="#l" y1="-48.6174" y2="-48.6174"/><linearGradient id="M" gradientTransform="matrix(.9892 .1465 .1465 -.9892 12.6197 -199.5953)" gradientUnits="userSpaceOnUse" x1="24.1851" x2="24.7673" xlink:href="#l" y1="-236.6007" y2="-236.6007"/><linearGradient id="N" gradientTransform="matrix(-.9892 -.1465 .1465 -.9892 -1014.6656 -352.2701)" gradientUnits="userSpaceOnUse" x1="-1076.7313" x2="-1076.149" xlink:href="#l" y1="-237.0695" y2="-237.0695"/><linearGradient id="O" gradientTransform="matrix(-.9887 -.1498 .1498 -.9887 -1013.6026 -359.6996)" gradientUnits="userSpaceOnUse" x1="-1073.6913" x2="-1073.109" xlink:href="#l" y1="-240.9732" y2="-240.9732"/><linearGradient id="P" gradientTransform="matrix(-.9887 -.1498 .1498 -.9887 -1013.6026 -359.6996)" gradientUnits="userSpaceOnUse" x1="-1068.1478" x2="-1067.5653" xlink:href="#l" y1="-240.9912" y2="-240.9912"/><linearGradient id="Q" gradientUnits="userSpaceOnUse" x1="28.2" x2="28.2" y1="51.1014" y2="27.1615"><stop offset="0" stop-color="#ccc"/><stop offset=".2061" stop-color="#d9d9d9"/><stop offset=".3545" stop-color="#979797"/><stop offset=".503" stop-color="#595959"/><stop offset=".6005" stop-color="#5c5c5c"/><stop offset=".6751" stop-color="#666"/><stop offset=".742" stop-color="#767676"/><stop offset=".7697" stop-color="#808080"/><stop offset=".7905" stop-color="#767676"/><stop offset=".8805" stop-color="#525252"/><stop offset=".9535" stop-color="#3b3b3b"/><stop offset="1" stop-color="#333"/></linearGradient><linearGradient id="R"><stop offset=".1576" stop-color="#d9d9d9"/><stop offset=".1847" stop-color="#d7d7d7"/><stop offset="1" stop-color="#999"/></linearGradient><radialGradient id="S" cx="20.8459" cy="3.9859" gradientTransform="matrix(.926 -.3774 .3774 .926 19.1163 39.2681)" gradientUnits="userSpaceOnUse" r=".4079" xlink:href="#R"/><radialGradient id="T" cx="-335.1535" cy="162.8385" gradientTransform="matrix(.3879 -.9217 .9217 .3879 13.2212 -344.3707)" gradientUnits="userSpaceOnUse" r=".408" xlink:href="#R"/><radialGradient id="U" cx="-698.4165" cy="23.5145" gradientTransform="matrix(-.3774 -.926 .926 -.3774 -262.3154 -610.199)" gradientUnits="userSpaceOnUse" r=".4078" xlink:href="#R"/><radialGradient id="V" cx="-858.4366" cy="-332.1946" gradientTransform="matrix(-.9217 -.3879 .3879 -.9217 -645.9537 -604.3056)" gradientUnits="userSpaceOnUse" r=".408" xlink:href="#R"/><linearGradient id="W"><stop offset="0" stop-color="#e0d6c6"/><stop offset=".3335" stop-color="#ded3c2"/><stop offset=".6446" stop-color="#d8cbb7"/><stop offset=".946" stop-color="#cdbea4"/><stop offset="1" stop-color="#cbbba0"/></linearGradient><linearGradient id="X" gradientTransform="matrix(-.1416 -.9955 -.9904 .1458 -710.0892 -65.1582)" gradientUnits="userSpaceOnUse" x1="-194.6846" x2="-189.8705" xlink:href="#W" y1="-709.4008" y2="-703.4424"/><linearGradient id="Y" gradientTransform="matrix(.9392 .3433 -.3433 .9392 -68.1595 155.2251)" gradientUnits="userSpaceOnUse" x1="29.7872" x2="30.2849" xlink:href="#l" y1="-159.5313" y2="-159.5313"/><linearGradient id="Z" gradientTransform="matrix(-.9392 -.3433 -.3433 .9392 -1043.3311 -201.4253)" gradientUnits="userSpaceOnUse" x1="-1080.094" x2="-1079.5966" xlink:href="#l" y1="-159.3673" y2="-159.3673"/><linearGradient id="aa" gradientTransform="matrix(.9392 .3433 -.3433 .9392 -68.1595 155.2251)" gradientUnits="userSpaceOnUse" x1="32.7486" x2="33.1926" xlink:href="#l" y1="-162.414" y2="-162.414"/><linearGradient id="ab" gradientTransform="matrix(-.9392 -.3433 -.3433 .9392 -979.5244 -178.1031)" gradientUnits="userSpaceOnUse" x1="-1009.1471" x2="-1008.7029" xlink:href="#l" y1="-162.3387" y2="-162.3387"/><linearGradient id="ac" gradientTransform="matrix(-.9392 -.3433 .3433 -.9392 -870.2875 -476.374)" gradientUnits="userSpaceOnUse" x1="-1008.9483" x2="-1008.5042" xlink:href="#l" y1="-161.2808" y2="-161.2808"/><linearGradient id="ad" gradientTransform="matrix(.9392 .3433 .3433 -.9392 106.2595 -119.2202)" gradientUnits="userSpaceOnUse" x1="-36.8719" x2="-36.4278" xlink:href="#l" y1="-161.1116" y2="-161.1116"/><linearGradient id="ae" gradientTransform="matrix(.9392 .3433 .3433 -.9392 25.0669 -99.2436)" gradientUnits="userSpaceOnUse" x1="29.588" x2="30.0858" xlink:href="#l" y1="-116.8161" y2="-116.8161"/><linearGradient id="af" gradientTransform="matrix(-.9392 -.3433 .3433 -.9392 -950.1049 -455.8916)" gradientUnits="userSpaceOnUse" x1="-1079.8945" x2="-1079.3969" xlink:href="#l" y1="-116.9434" y2="-116.9434"/><linearGradient id="ag" gradientTransform="matrix(-.9392 .3433 .3433 .9392 -407.3256 155.2251)" gradientUnits="userSpaceOnUse" x1="-468.6099" x2="-468.1743" xlink:href="#l" y1="23.3357" y2="23.3357"/><linearGradient id="ah" gradientTransform="matrix(.9392 -.3433 .3433 .9392 567.8457 -201.4253)" gradientUnits="userSpaceOnUse" x1="-580.21" x2="-579.7743" xlink:href="#l" y1="23.5662" y2="23.5662"/><linearGradient id="ai" gradientTransform="matrix(-.9392 .3433 .3433 .9392 -407.3256 155.2251)" gradientUnits="userSpaceOnUse" x1="-466.0172" x2="-465.6285" xlink:href="#l" y1="20.7745" y2="20.7745"/><linearGradient id="aj" gradientTransform="matrix(.9392 -.3433 .3433 .9392 504.039 -178.1031)" gradientUnits="userSpaceOnUse" x1="-509.6378" x2="-509.2489" xlink:href="#l" y1="21.0115" y2="21.0115"/><linearGradient id="ak" gradientTransform="matrix(.1416 -.9955 .9904 .1458 234.6039 -65.1582)" gradientUnits="userSpaceOnUse" x1="-116.8246" x2="-112.6102" xlink:href="#W" y1="-183.9592" y2="-178.743"/><linearGradient id="al" gradientTransform="matrix(.9392 -.3433 -.3433 -.9392 394.8022 -476.374)" gradientUnits="userSpaceOnUse" x1="-509.442" x2="-509.0533" xlink:href="#l" y1="-343.4974" y2="-343.4974"/><linearGradient id="am" gradientTransform="matrix(-.9392 .3433 -.3433 -.9392 -581.7451 -119.2202)" gradientUnits="userSpaceOnUse" x1="-535.6331" x2="-535.2441" xlink:href="#l" y1="-343.2606" y2="-343.2606"/><linearGradient id="an" gradientTransform="matrix(-.9392 .3433 -.3433 -.9392 -500.5517 -99.2436)" gradientUnits="userSpaceOnUse" x1="-468.806" x2="-468.3701" xlink:href="#l" y1="-298.6553" y2="-298.6553"/><linearGradient id="ao" gradientTransform="matrix(.9392 -.3433 -.3433 -.9392 474.6193 -455.8916)" gradientUnits="userSpaceOnUse" x1="-580.013" x2="-579.5774" xlink:href="#l" y1="-298.8837" y2="-298.8837"/><linearGradient id="ap" gradientTransform="matrix(.9303 .3667 -.3667 .9303 -85.6589 145.8126)" gradientUnits="userSpaceOnUse" x1="38.2628" x2="38.2546" xlink:href="#h" y1="-155.7218" y2="-154.2942"/><linearGradient id="aq" gradientTransform="matrix(.935 -.3547 .3547 .935 75.7182 91.3626)" gradientUnits="userSpaceOnUse" x1="-2.4721" x2="-2.4803" xlink:href="#h" y1="-89.2895" y2="-87.8621"/><path d="m53.1 10.1c0-.3-.2-.3-.2 0s0 9.5 0 10.6h.2s0-10.5 0-10.6z" fill="#9b9b9b"/><path d="m53.3 20.5c0-.5-.7-.5-.7 0v16.1h.7c0-.1 0-16 0-16.1z" fill="#9b9b9b"/><path d="m52.7 48.3c0 .2.5.2.5 0s0-5.6 0-6.8c0 0-.5.2-.5.4z" fill="url(#b)"/><path d="m53.2 47.8c-.1 0-.1.1-.2.1s-.2 0-.2-.1v.3c0 .1.4.1.5 0-.1 0-.1-.2-.1-.3z" fill="#808285"/><path d="m53 47.9c-.1 0-.2 0-.3-.1v.3.2c.1.2.5.1.5 0 0 0 0-.5 0-.6 0 .2-.1.2-.2.2z" fill="url(#d)"/><path d="m53.1 45.3c0-.1-.2-.1-.2 0s0 2.7 0 3h.2z" fill="url(#e)"/><path d="m53.4 35.6c0-.3-.9-.3-.9 0s0 8.8 0 9.7h.9s0-9.6 0-9.7z" fill="#9b9b9b"/><path d="m52.4 44.8v.5c.1.2 1.1.1 1.1 0s0-.3 0-.5h-.1c-.1.1-.2.1-.5.1-.2 0-.3 0-.5-.1z" fill="#808285"/><path d="m52.4 44.8v.7c.1.2 1 .2 1.1 0s0-.5 0-.7c-.1.1-.3.1-.5.1s-.4 0-.6-.1z" fill="#bbb"/><path d="m52.4 43.3v.5c.1.2 1.1.1 1.1 0s0-.3 0-.5h-.1c-.1.1-.2.1-.5.1-.2 0-.3 0-.5-.1.1-.1 0-.1 0 0z" fill="#808285"/><path d="m52.4 43.3v.7c.1.2 1 .2 1.1 0s0-.5 0-.7c-.1.1-.3.1-.5.1s-.4 0-.6-.1z" fill="#bbb"/><path d="m47.7 48.8c-.2.2-.5-.2-.3-.3l5.1-5.1s.2.5 0 .6c-1.2 1.2-4.7 4.8-4.8 4.8z" fill="#9b9b9b"/><path d="m47.7 48.1c-.1.1-.2.2-.2.2 0 .1.3.4.4.4s.1-.1.2-.2c-.1 0-.1-.1-.2-.1 0-.2-.1-.2-.2-.3.1 0 .1 0 0 0z" fill="#808285"/><path d="m47.7 48.1-.4.4c-.1.1.2.4.4.3l.2-.2.2-.2c-.1 0-.2 0-.2-.1-.1 0-.2-.1-.2-.2z" fill="#666"/><path d="m50.3 45.5c-.1.1-.2.2-.2.2 0 .1.4.4.4.4s.1-.1.2-.2c-.1 0-.1-.1-.2-.1-.1-.1-.2-.2-.2-.3z" fill="#808285"/><path d="m50.3 45.5-.2.2c0 .1.3.5.4.4l.2-.2c-.1 0-.2-.1-.2-.2-.1 0-.2-.1-.2-.2z" fill="#bbb"/><path d="m50.4 46.1c-.1 0 0-.2.1-.3.4-.1 1.4-.5 2-.7.2-.1.1.2 0 .2-.8.3-2 .8-2.1.8z" fill="#999"/><path d="m58.2 48.8c.2.2.5-.2.3-.3-.1-.1-4.2-4.2-5.1-5.1 0 0-.2.5 0 .6 1.3 1.2 4.8 4.8 4.8 4.8z" fill="#9b9b9b"/><path d="m58.2 48.1c0 .1-.1.1-.1.2-.1.1-.1.1-.2.1.1.1.2.2.2.2s.4-.2.4-.4c-.1.1-.2 0-.3-.1z" fill="#808285"/><path d="m58.1 48.3c-.1.1-.2.1-.2.1.1.1.2.2.2.2l.2.2c.2.1.4-.2.4-.3l-.4-.4c-.1.1-.1.2-.2.2z" fill="#666"/><path d="m55.6 45.5c0 .1-.1.1-.1.2-.1.1-.1.1-.2.1.1.1.2.2.2.2s.4-.3.4-.4c0 .1-.1 0-.3-.1z" fill="#808285"/><path d="m55.5 45.7c-.1.1-.2.2-.2.2.1.1.2.2.2.2.1.1.4-.3.4-.4l-.2-.2c0 .1-.1.2-.2.2z" fill="#bbb"/><path d="m55.5 46.1c.1 0 0-.2-.1-.3-.4-.1-1.4-.5-2-.7-.2-.1-.1.2 0 .2.8.3 2.1.8 2.1.8z" fill="#999"/><path d="m52.4 20v.5c.1.2 1.1.1 1.1 0s0-.3 0-.5h-.1c-.1 0-.2 0-.4 0s-.3 0-.5-.1c0 0-.1 0-.1.1z" fill="#808285"/><path d="m52.4 20v.7c.1.2 1 .2 1.1 0s0-.5 0-.7c-.1.1-.3.1-.5.1s-.4 0-.6-.1z" fill="#bbb"/><path d="m52.5 35.4v.4c.1.2.9.1.9 0s0-.3 0-.4h-.1c-.1.1-.2.1-.4.1-.1-.1-.2-.1-.4-.1.1-.1 0-.1 0 0z" fill="#808285"/><path d="m52.5 35.4v.5c.1.2.9.2.9 0s0-.4 0-.5c-.1.1-.3.1-.4.1-.2 0-.4-.1-.5-.1z" fill="#bbb"/><path d="m53.5 48.8c.3-.1 0-.9-.6-.9-.1 0-.9 0-1.2-.1 0 0-.4-.1-.6-.1-.2.1-2.9.6-2.9.6s-.2.1-.2.2c0 .2.2.3.4.2s2.4-.5 2.7-.4c.2 0 .4.2.6.3.3.3 1.5.3 1.8.2z" fill="url(#f)"/><path d="m52.9 48c-.1 0-.9 0-1.1-.1 0 0-.4-.1-.6-.1-.2.1-2.9.6-2.9.6s-.2.1-.2.2c0-.2.2-.2.2-.2s2.7-.6 2.9-.6c.2-.1.6.1.6.1.3.1 1 .1 1.1.1.4-.1.7.3.7.6 0-.2-.3-.6-.7-.6z" fill="#999"/><path d="m48.2 48.7c.1 0 .2.1.3 0 .2-.1 2.4-.5 2.6-.4.2 0 .4.2.6.3s1 .2 1.8.1c-.3.1-1.5.1-1.7 0s-.4-.3-.6-.3-2.5.4-2.6.4c-.3.1-.4-.1-.4-.1z" fill="#1d1d1b"/><path d="m52.8 17.8h.3v1.7h-.3z" fill="url(#g)"/><path d="m60 18.6h-14.1c0-.4 2-.7 5.4-.7.3 0 .8-.5 1.6-.5s1.3.5 1.6.5c3.5 0 5.5.3 5.5.7z" fill="url(#i)"/><path d="m51.6 17.9c.4-.2.8-.5 1.4-.5s1 .3 1.3.4c0 0 .1 0 .1.1 0 0 0-.1-.1-.1-.3-.2-.7-.4-1.3-.4s-1 .3-1.3.4c-.1 0-.1.1-.1.1z" fill="#fdf3a4"/><path d="m51.4 17.9c-3.4.1-5.4.4-5.4.7.3-.3 2.2-.6 5.4-.7.3.1.3 0 0 0z" fill="#fdf3a4"/><path d="m60 18.8h-14.1c0 .4 2 .7 5.4.7.3 0 .8.5 1.6.5s1.3-.5 1.6-.5c3.5 0 5.5-.3 5.5-.7z" fill="url(#j)"/><path d="m51.6 19.5s0 .1 0 0c.4.2.8.5 1.4.5s1-.3 1.3-.4c0 0 .1 0 .1-.1 0 0 0 .1-.1.1-.3.2-.7.4-1.3.4s-1-.3-1.3-.4c-.1 0-.1-.1-.1-.1z" fill="#fdf3a4"/><path d="m51.4 19.5c-3.4-.1-5.4-.4-5.4-.7.3.3 2.2.6 5.4.7.3-.1.3 0 0 0z" fill="#fdf3a4"/><path d="m54.6 19.5c-.3 0-.3-.1 0 0 3.1-.1 5.1-.4 5.4-.7 0 .3-2 .6-5.4.7z" fill="#fdf3a4"/><path d="m43.8 33.5c0-.4-.9-.4-.9 0s0 13.1 0 14.5h.9c0 .1 0-14.3 0-14.5z" fill="#999"/><path d="m42.8 47.4v.5c.1.2 1.1.1 1.1 0s0-.3 0-.5h-.1c-.1.1-.2.1-.5.1-.2 0-.3 0-.5-.1z" fill="#808285"/><path d="m42.8 47.4v.7c.1.2 1 .2 1.1 0s0-.5 0-.7c-.1.1-.3.1-.5.1s-.4 0-.6-.1z" fill="#bbb"/><path d="m42.8 43.8v.5c.1.2 1.1.1 1.1 0s0-.3 0-.5h-.1c-.1.1-.2.1-.5.1-.2 0-.3 0-.5-.1z" fill="#808285"/><path d="m42.8 43.8v.7c.1.2 1 .2 1.1 0s0-.5 0-.7c-.1.1-.3.1-.5.1s-.4 0-.6-.1z" fill="#bbb"/><path d="m48.6 49.3c.2.2.5-.2.3-.3-.1-.1-4.2-4.2-5.1-5.1 0 0-.2.5 0 .6 1.2 1.3 4.7 4.8 4.8 4.8z" fill="#9b9b9b"/><path d="m48.5 48.6c0 .1-.1.1-.1.2-.1.1-.1.1-.2.1.1.1.2.2.2.2s.4-.2.4-.3c0 0-.2-.1-.3-.2z" fill="#808285"/><path d="m48.4 48.9c-.1.1-.2.1-.2.1.1.1.2.2.2.2l.2.2c.2.1.4-.2.4-.3l-.4-.4s-.1.1-.2.2z" fill="url(#k)"/><path d="m46 46.1c0 .1-.1.1-.1.2-.1.1-.1.1-.2.1.1.1.2.2.2.2s.4-.3.4-.4c-.1.1-.2-.1-.3-.1 0-.1 0 0 0 0z" fill="#808285"/><path d="m45.9 46.3c-.1.1-.2.2-.2.2.1.1.2.2.2.2.1.1.4-.3.4-.4l-.2-.2c-.1 0-.1.1-.2.2z" fill="#bbb"/><path d="m45.9 46.6c.1 0-.2-.2-.2-.1-.3.2-1.2.8-1.8 1.2-.1.1-.1.3-.1.3.6-.4 2.1-1.3 2.1-1.4z" fill="#999"/><path d="m38.1 49.3c-.2.2-.5-.2-.3-.3.1-.1 4.2-4.2 5.1-5.1 0 0 .2.5 0 .6-1.2 1.3-4.7 4.8-4.8 4.8z" fill="#9b9b9b"/><path d="m38.2 48.6c-.1.1-.2.2-.2.2 0 .1.3.4.4.4s.1-.1.2-.2c-.1 0-.1-.1-.2-.1-.1-.1-.2-.2-.2-.3z" fill="#808285"/><path d="m38.2 48.6-.4.4c-.1.1.2.4.4.3l.2-.2.2-.2c-.1 0-.2 0-.2-.1-.2 0-.2-.1-.2-.2z" fill="#666"/><path d="m40.7 46c-.1.1-.2.2-.2.2 0 .1.4.4.4.4s.1-.1.2-.2c-.1 0-.1-.1-.2-.1-.1-.1-.1-.2-.2-.3z" fill="#808285"/><path d="m40.7 46-.2.2c0 .1.3.5.4.4l.2-.2c-.1 0-.2-.1-.2-.2-.1 0-.2-.1-.2-.2z" fill="#bbb"/><path d="m40.8 46.6c-.1 0 .2-.2.2-.1.3.2 1.2.8 1.8 1.2.2.1.2.3.1.3-.5-.4-2-1.4-2.1-1.4z" fill="#999"/><path d="m42.8 33.8v.5c.1.2 1.1.1 1.1 0s0-.3 0-.5h-.1c-.1.1-.2.1-.5.1-.2 0-.3 0-.5-.1z" fill="#808285"/><path d="m42.8 33.8v.7c.1.2 1 .2 1.1 0s0-.5 0-.7c-.1.1-.3.1-.5.1s-.4 0-.6-.1z" fill="#bbb"/><path d="m36.9 30.6c-.2-.1-.4.3-.2.4s5.2 3 6.3 3.5c0 0 0-.5-.1-.6-1.6-.9-5.9-3.3-6-3.3z" fill="#9b9b9b"/><path d="m48.6 29.1c.2-.2.5.2.3.3-.1.1-4.2 4.2-5.1 5.1 0 0-.2-.5 0-.6 1.3-1.3 4.8-4.8 4.8-4.8z" fill="#9b9b9b"/><path d="m49 25.6s.2-.1.2 0l.1.9s-.2.1-.2 0z" fill="#aaa"/><path d="m48.8 25.3.5-.1v.3l-.5.1z" fill="#aaa"/><path d="m49.4 26.3c0-.1-.5 0-.5.1v.1z" fill="url(#m)"/><path d="m49.3 27.7c.5-.1.3-1.5.3-1.5 0-.1-.5 0-.5.1z" fill="#999"/><path d="m49.7 30.3h.2l-.1-.9h-.2c0-.1.1.8.1.9z" fill="#aaa"/><path d="m49.6 30.2.5-.1v.3l-.5.1z" fill="#aaa"/><path d="m49.9 29.4c0 .1-.5.2-.5.1v-.1z" fill="url(#n)"/><path d="m49.2 28.1c.5-.1.7 1.3.7 1.3 0 .1-.5.2-.5.1z" fill="#999"/><path d="m48.9 25.8.7 4.7-12.1 2-.8-4.8z" fill="#d3001a"/><path d="m48.3 25.9.7 4.7h-.2l-.7-4.7z" fill="none"/><path d="m47.8 26 .7 4.6-1.4.3-.7-4.7z" fill="#fff" opacity=".2"/><path d="m39.1 27.3.8 4.8-2 .3-.8-4.8z" opacity=".2"/><path d="m36.5 27.6h-.2l.1.9h.2c.1 0-.1-.9-.1-.9z" fill="#aaa"/><path d="m36.1 27.3.5-.1v.3l-.5.1z" fill="#aaa"/><path d="m36.3 28.4c0-.1.5-.2.5-.1v.1z" fill="url(#o)"/><path d="m37 29.7c-.5.1-.7-1.3-.7-1.3 0-.1.5-.2.5-.1z" fill="#aaa"/><path d="m36.5 27.2 12.3-2 .1.5-12.3 2z" fill="#999"/><path d="m36.6 27.6.1.2 12.2-2v-.1z" fill="#777"/><path d="m45.4 26.1h-.2l.1.9h.2c0 .1-.1-.9-.1-.9z" fill="#aaa"/><path d="m45 25.9.5-.1v.3l-.5.1z" fill="#aaa"/><path d="m45.6 26.9c0-.1-.5 0-.5.1v.1z" fill="url(#p)"/><path d="m45.6 28.3c.2 0 0-1.4 0-1.4 0-.1-.5 0-.5.1 0 0 .2 1.4.5 1.3z" fill="#999"/><path d="m40.7 26.9h-.2l.1.9h.2c.1 0-.1-.9-.1-.9z" fill="#aaa"/><path d="m40.3 26.7.5-.1v.3l-.5.1z" fill="#aaa"/><path d="m41 27.7c0-.1-.5 0-.5.1v.1z" fill="url(#q)"/><path d="m40.9 29.1c.2 0 0-1.4 0-1.4 0-.1-.5 0-.5.1.1 0 .3 1.3.5 1.3z" fill="#999"/><path d="m37.3 32.2s-.2.1-.2 0l-.1-.9s.2-.1.2 0c-.1 0 .1.9.1.9z" fill="url(#s)"/><path d="m37.4 32.2v.3l-.4.1-.1-.4z" fill="url(#u)"/><path d="m37.4 32.5-.3.1h-.1z" fill="url(#w)"/><path d="m36.8 31.5c0 .1.5 0 .5-.1v-.1z" fill="url(#x)"/><path d="m37.1 30c-.5.1-.3 1.5-.3 1.5 0 .1.5 0 .5-.1z" fill="#aaa"/><path d="m37.3 32.1 12.3-2 .1.5-12.3 2z" fill="#999"/><path d="m46.1 30.8s-.2.1-.2 0l-.1-.9s.2-.1.2 0c-.1 0 .1.9.1.9z" fill="#aaa"/><path d="m45.8 30.8.5-.1v.3l-.5.1z" fill="#aaa"/><path d="m46.1 30c0 .1-.5.2-.5.1v-.1z" fill="url(#y)"/><path d="m45.6 28.7c.2 0 .5 1.3.5 1.3 0 .1-.5.2-.5.1 0 0-.2-1.4 0-1.4z" fill="#999"/><path d="m41.4 31.5s-.2.1-.2 0l-.1-.9s.2-.1.2 0z" fill="#aaa"/><path d="m41.1 31.5.5-.1v.3l-.5.1z" fill="#aaa"/><path d="m41.4 30.7c0 .1-.5.2-.5.1v-.1z" fill="url(#z)"/><path d="m41 29.4c.2 0 .5 1.3.5 1.3 0 .1-.5.2-.5.1 0 0-.3-1.4 0-1.4z" fill="#999"/><path d="m8.8 41.9c0-.2-.9-.2-.9 0s0 5.7 0 6.3h.9c0-.1 0-6.3 0-6.3z" fill="#999"/><path d="m7.8 47.5v.5c.1.2 1.1.1 1.1 0s0-.3 0-.5h-.1c-.1.1-.2.1-.5.1-.2 0-.3 0-.5-.1.1-.1 0-.1 0 0z" fill="#808285"/><path d="m7.8 47.5v.7c.1.2 1 .2 1.1 0s0-.5 0-.7c-.1.1-.3.1-.5.1s-.4 0-.6-.1z" fill="#bbb"/><path d="m7.8 43.9v.5c.1.2 1.1.1 1.1 0s0-.3 0-.5h-.1c-.1.1-.2.1-.5.1-.2 0-.3 0-.5-.1.1-.1 0-.1 0 0z" fill="#808285"/><path d="m7.8 43.9v.7c.1.2 1 .2 1.1 0s0-.5 0-.7c-.1.1-.3.1-.5.1s-.4 0-.6-.1z" fill="#bbb"/><path d="m13.6 49.4c.2.2.5-.2.3-.3-.1-.1-4.2-4.2-5.1-5.1 0 0-.2.5 0 .6 1.2 1.2 4.8 4.8 4.8 4.8z" fill="#999"/><path d="m13.5 48.7c0 .1-.1.1-.1.2-.1.1-.1.1-.2.1.1.1.2.2.2.2s.4-.2.4-.3c0 0-.2-.1-.3-.2z" fill="#808285"/><path d="m13.4 48.9c0 .1-.1.1-.2.1.1.1.2.2.2.2l.2.2c.2.1.4-.2.4-.3l-.4-.4c0 .1-.1.2-.2.2z" fill="#666"/><path d="m11 46.1c0 .1-.1.1-.1.2-.1.1-.1.1-.2.1.1.1.2.2.2.2s.4-.3.4-.4c-.1.1-.2 0-.3-.1z" fill="#808285"/><path d="m10.9 46.3c-.1.1-.2.2-.2.2.1.1.2.2.2.2.1.1.4-.3.4-.4l-.2-.2c-.1.1-.1.2-.2.2z" fill="#bbb"/><path d="m10.9 46.7c.1 0-.2-.2-.2-.1-.3.2-1.2.8-1.8 1.2-.1.1-.1.3-.1.3.6-.4 2.1-1.4 2.1-1.4z" fill="#999"/><path d="m3.1 49.4c-.2.2-.5-.2-.3-.3.2-.2 4.3-4.3 5.1-5.1 0 0 .2.5 0 .6-1.2 1.2-4.7 4.7-4.8 4.8z" fill="#999"/><path d="m3.2 48.7c-.1.1-.2.2-.2.2 0 .1.3.4.4.4s.1-.1.2-.2c-.1 0-.1-.1-.2-.1-.1-.2-.2-.3-.2-.3z" fill="#808285"/><path d="m3.2 48.7-.4.4c-.1.1.2.4.4.3l.2-.2.2-.2c-.1 0-.2 0-.2-.1-.2-.1-.2-.1-.2-.2z" fill="#666"/><path d="m5.7 46.1c-.1.1-.2.2-.2.2 0 .1.4.4.4.4s.1-.1.2-.2c-.1 0-.1-.1-.2-.1-.1-.1-.1-.2-.2-.3z" fill="#808285"/><path d="m5.7 46.1-.2.2c0 .1.3.5.4.4l.2-.2c-.1 0-.2-.1-.2-.2-.1 0-.2-.1-.2-.2z" fill="#bbb"/><path d="m5.9 46.7c-.1 0 .2-.2.2-.1.3.2 1.2.8 1.8 1.2.1 0 .1.3 0 .2-.5-.3-2-1.3-2-1.3z" fill="url(#A)"/><path d="m7.8 42.3v.5c.1.2 1.1.1 1.1 0s0-.3 0-.5h-.1c-.1.1-.2.1-.5.1-.2 0-.3 0-.5-.1z" fill="#808285"/><path d="m7.8 42.3v.7c.1.2 1 .2 1.1 0s0-.5 0-.7c-.1.1-.3.1-.5.1s-.4 0-.6-.1z" fill="#bbb"/><path d="m14.8 39.1c.2-.1.4.3.2.4s-5.2 3-6.3 3.5c0 0 0-.5.1-.6 1.7-.9 6-3.3 6-3.3z" fill="#999"/><path d="m3.2 37.6c-.2-.2-.5.2-.3.3.1.2 4.2 4.3 5 5.1 0 0 .2-.5 0-.6-1.2-1.3-4.7-4.8-4.7-4.8z" fill="#999"/><path d="m2.2 39.3 2.4-16.2 12.7 1.9-2.4 16.2z" fill="#d3001a"/><path d="m3.4 39.4 2.4-16.2 1.5.2-2.4 16.2z" fill="#fff" opacity=".2"/><path d="m12.3 40.9 2.4-16.2 2.1.3-2.4 16.2z" opacity=".2"/><path d="m4.6 22.7s-.3-.1-.3 0l-.2 1.1s.3.1.3 0c0 0 .2-1 .2-1.1z" fill="url(#B)"/><path d="m4.2 22.7.1-.4.6.1-.1.4z" fill="#aaa"/><path d="m4 23.6c0-.1.6 0 .6.1v.1z" fill="url(#C)"/><path d="m4.4 25.3c-.6 0-.4-1.7-.4-1.7 0-.1.6 0 .6.1z" fill="#aaa"/><path d="m17.5 24.7h.3l-.2 1.1h-.3c.1 0 .2-1.1.2-1.1z" fill="url(#D)"/><path d="m17.4 24.7v-.4l.6.1v.4z" fill="url(#E)"/><path d="m17.4 24.3.2-.1.3.1.1.1z" fill="url(#F)"/><path d="m17.8 25.6c0-.1-.6-.2-.6-.1v.1z" fill="url(#G)"/><path d="m4.6 22.9.1-.6 12.9 1.9-.1.6z" fill="#999"/><path d="m4.6 22.9.1.2 12.7 1.9.1-.2z" fill="#aaa"/><path d="m4.7 22.3 12.8 1.9v-.2l-12.7-1.9z" fill="#888"/><path d="m14 24.1s-.3-.1-.3 0l-.2 1.1s.3.1.3 0z" fill="url(#H)"/><path d="m14.1 24.2.1-.4h-.6v.3z" fill="url(#I)"/><path d="m14.2 23.8-.1-.1h-.3l-.2.1z" fill="url(#J)"/><path d="m14 25.1c0-.1-.6-.2-.6-.1v.1z" fill="url(#K)"/><path d="m13.5 26.7c.3 0 .5-1.6.5-1.6 0-.1-.6-.2-.6-.1 0 0-.2 1.6.1 1.7z" fill="#999"/><path d="m8.5 23.4s-.3-.1-.3 0l-.2 1.1s.3.1.3 0 .2-1.1.2-1.1z" fill="#aaa"/><path d="m8.1 23.3.1-.4.5.1-.1.4z" fill="#aaa"/><path d="m8.5 24.3c0-.1-.6-.2-.6-.1v.1z" fill="url(#L)"/><path d="m8 25.9c.3 0 .5-1.6.5-1.6 0-.1-.6-.2-.6-.1 0 0-.2 1.6.1 1.7z" fill="#aaa"/><path d="m2.1 39.2h-.3l.2-1.2h.3z" fill="#aaa"/><path d="m1.8 39.3.1-.4.5.1-.1.4z" fill="#aaa"/><path d="m1.9 38c0 .1.6.2.6.1v-.1z" fill="url(#M)"/><path d="m2.7 36.4c-.6-.1-.9 1.7-.9 1.7 0 .1.6.2.6.1z" fill="#aaa"/><path d="m15.1 40.9s.3.1.3 0l.2-1.1s-.3-.1-.3 0z" fill="#aaa"/><path d="m15 41.2.1-.4.6.1-.1.4z" fill="#aaa"/><path d="m15.7 40c0 .1-.6 0-.6-.1v-.1z" fill="url(#N)"/><path d="m15.4 38.3c.6.1.3 1.7.3 1.7 0 .1-.6 0-.6-.1z" fill="#aaa"/><path d="m2.2 39.4.1-.6 12.9 1.9-.2.7z" fill="#999"/><path d="m11.6 40.3h-.3l.2-1.1h.3c-.1.1-.2 1.1-.2 1.1z" fill="#aaa"/><path d="m11.1 40.7.1-.4.6.1-.1.4z" fill="#aaa"/><path d="m11.8 39.4c0 .1-.6 0-.6-.1v-.1z" fill="url(#O)"/><path d="m11.8 37.8c.3 0 0 1.6 0 1.6 0 .1-.6 0-.6-.1.1 0 .3-1.6.6-1.5z" fill="#999"/><path d="m6.1 39.5h-.3l.2-1.1h.3c-.1 0-.2 1.1-.2 1.1z" fill="#aaa"/><path d="m5.6 39.8.1-.4.6.1-.1.4z" fill="#aaa"/><path d="m6.4 38.6c0 .1-.6 0-.6-.1v-.1z" fill="url(#P)"/><path d="m6.3 36.9c.3 0 0 1.6 0 1.6 0 .1-.6 0-.6-.1.1.1.4-1.5.6-1.5z" fill="#999"/><path d="m41.1 52.5c.1.2.6 0 .5-.2s-3-6.4-3.5-7.7c0 0-.4.5-.3.7.9 1.9 3.3 7.2 3.3 7.2z" fill="#999"/><path d="m41.4 51.7c0 .1-.1.1-.2.2-.1 0-.2.1-.3 0v.1c.1.1.1.3.1.3 0 .1.5-.1.5-.2s-.1-.3-.1-.4z" fill="#808285"/><path d="m41.2 51.9c-.1 0-.2.1-.3 0 0 .1.2.4.2.4l.1.3c.2.2.6-.1.6-.2l-.3-.6c-.1 0-.2.1-.3.1z" fill="#666"/><path d="m39.6 47.8c0 .1-.1.1-.2.2s-.2.1-.3.1c.1.1.1.3.1.3 0 .1.6-.1.6-.3 0 0-.1-.1-.2-.3z" fill="#808285"/><path d="m39.4 48c-.1.1-.3.1-.3.1 0 .1.2.4.2.4.1.1.6-.1.6-.3 0 0-.1-.3-.2-.4-.1.1-.2.2-.3.2z" fill="#bbb"/><path d="m39.2 48.4c.1 0-.1-.2-.2-.2-.4.1-1.7.4-2.5.6-.2 0-.3.3-.2.3.9-.2 2.9-.7 2.9-.7z" fill="#999"/><path d="m15.2 52.5c-.1.2-.6 0-.5-.2s3-6.4 3.5-7.7c0 0 .4.5.3.7-.8 1.8-3.3 7.2-3.3 7.2z" fill="#999"/><path d="m14.9 51.7c0 .1-.1.3-.1.3 0 .1.5.3.5.2s.1-.2.1-.3v-.1c-.1 0-.2 0-.3 0 0 0-.1 0-.2-.1z" fill="#808285"/><path d="m14.9 51.7c0 .1-.3.6-.3.6 0 .2.4.4.6.2l.1-.3s.1-.3.2-.4c-.1 0-.2 0-.3 0-.1.1-.2 0-.3-.1z" fill="#666"/><path d="m16.7 47.8c-.1.1-.1.3-.1.3 0 .2.6.3.6.3s.1-.2.1-.3c-.1 0-.2 0-.3-.1-.1 0-.2-.1-.3-.2z" fill="#808285"/><path d="m16.7 47.8c0 .1-.2.4-.2.4 0 .2.5.4.6.3s.1-.3.2-.4c-.1 0-.2 0-.3-.1-.2 0-.3-.1-.3-.2z" fill="#bbb"/><path d="m17.1 48.4c-.1 0 .1-.2.2-.2.4.1 1.7.4 2.5.6.2 0 .3.3.2.3-.8-.2-2.9-.7-2.9-.7z" fill="#999"/><path d="m40.3 39.2c0 6.9-5.4 12.4-12.2 12.4-6.7 0-12.2-5.6-12.2-12.4 0-6.9 5.4-12.4 12.2-12.4s12.2 5.6 12.2 12.4z" fill="#fff"/><path d="m40.3 39.3c0 6.8-5.4 12.4-12.2 12.4-6.7 0-12.2-5.5-12.2-12.4 0-6.8 5.4-12.4 12.2-12.4s12.2 5.5 12.2 12.4z" fill="#888"/><ellipse cx="28.2" cy="39.3" fill="#fff" rx="11.5" ry="11.8"/><ellipse cx="28.2" cy="39.2" fill="url(#Q)" rx="11.5" ry="11.8"/><ellipse cx="28.2" cy="38.6" fill="#d3001a" rx="11.4" ry="11"/><path d="m28.8 20.3c0-.2-1.4-.2-1.4 0s0 6.8 0 7.5h1.4z" fill="#999"/><path d="m28.8 20.3c0-.2-1.4-.2-1.4 0 .1.2 1.4.1 1.4 0z" fill="#9b9b9b"/><path d="m27.3 26.9v.8c.2.3 1.7.2 1.7 0s0-.5 0-.8l-.1-.1c-.2.1-.4.1-.7.1s-.5 0-.7-.2c-.1.1-.2.1-.2.2z" fill="#808285"/><path d="m27.3 26.8v1c.2.3 1.6.3 1.7 0s0-.8 0-1c-.1.2-.5.2-.9.2-.3 0-.6 0-.8-.2z" fill="#bbb"/><path d="m27.3 21.3v.8c.2.3 1.7.2 1.7 0s0-.5 0-.8l-.1-.1c-.2.1-.4.1-.7.1s-.5 0-.7-.2c-.1.1-.2.1-.2.2z" fill="#808285"/><path d="m27.3 21.3v1c.2.3 1.6.3 1.7 0s0-.8 0-1c-.1.1-.5.2-.8.2-.4-.1-.7-.1-.9-.2z" fill="#bbb"/><path d="m27.4 21.4c-.1 0-1.9 0-4.1 0v.7h4.1c.3.1.3-.7 0-.7z" fill="#999"/><path d="m28.9 21.4h4.1v.7c-2.2 0-4 0-4.1 0-.3.1-.3-.7 0-.7z" fill="#999"/><path d="m40.2 35.9c.2.4-.7.7-.9.3l-.5-1.3c-.2-.4.7-.7.9-.3z" fill="#777"/><path d="m40.5 35c.1.3 0 .6-.3.7s-.6 0-.7-.3 0-.6.3-.7.6 0 .7.3z" fill="#e6e6e6"/><path d="m40.5 35c.1.3 0 .5-.3.7-.3.1-.5 0-.7-.3-.1-.3 0-.5.3-.7.3-.1.6 0 .7.3z" fill="#999"/><path d="m40.3 35.1c.1.2 0 .3-.2.4s-.3 0-.4-.2 0-.3.2-.4.3 0 .4.2z" fill="url(#S)"/><path d="m34 28.1c.4.2 0 1-.4.8l-1.3-.6c-.4-.2 0-1 .4-.8z" fill="#777"/><path d="m33.6 27.2c.3.1.4.4.3.7s-.4.4-.7.3-.4-.4-.3-.7c.2-.3.5-.4.7-.3z" fill="#e6e6e6"/><path d="m33.6 27.2c.3.1.4.4.3.7s-.4.4-.7.3-.4-.4-.3-.7c.2-.2.5-.4.7-.3z" fill="#999"/><path d="m33.6 27.4c.2.1.2.2.2.4-.1.2-.3.2-.5.2-.2-.1-.2-.2-.2-.4.1-.2.3-.2.5-.2z" fill="url(#T)"/><path d="m23.8 27.4c.4-.2.7.7.3.9l-1.3.5c-.4.2-.7-.7-.3-.9z" fill="#777"/><path d="m22.9 27.1c.3-.1.6 0 .7.3s0 .6-.3.7-.6 0-.7-.3.1-.6.3-.7z" fill="#e6e6e6"/><path d="m22.9 27.1c.3-.1.5 0 .7.3.1.3 0 .5-.3.7-.3.1-.5 0-.7-.3 0-.3.1-.6.3-.7z" fill="#999"/><path d="m23 27.3c.2-.1.3 0 .4.2s0 .3-.2.4-.3 0-.4-.2c0-.2.1-.4.2-.4z" fill="url(#U)"/><path d="m16.8 34.1c.2-.4 1 0 .8.4l-.6 1.3c-.2.4-1 0-.8-.4z" fill="#777"/><path d="m15.9 34.5c.1-.3.4-.4.7-.3s.4.4.3.7-.4.4-.7.3-.4-.4-.3-.7z" fill="#e6e6e6"/><path d="m15.9 34.5c.1-.3.4-.4.7-.3s.4.4.3.7-.4.4-.7.3c-.2-.1-.4-.4-.3-.7z" fill="#999"/><path d="m16.1 34.6c.1-.2.2-.2.4-.2.2.1.2.2.2.4-.1.2-.2.2-.4.2-.2-.1-.2-.2-.2-.4z" fill="url(#V)"/><g fill="#bbb"><path d="m23.4 27.5c-.1-.3-.6-.2-.5.1l.3 1.2.5-.1z"/><path d="m16.2 34.8c-.1-.3.4-.5.5-.2l.4 1.2-.5.2z"/><path d="m40.2 35.3c.2-.3-.2-.6-.4-.3l-.8 1s.4.4.4.3c.1 0 .8-1 .8-1z"/><path d="m33.7 27.8c.1-.3-.3-.5-.5-.2l-.5 1.1.5.2z"/></g><ellipse cx="28.2" cy="40.3" fill="#fff" rx="12.2" ry="12.2"/><ellipse cx="28.2" cy="40.4" fill="#999" rx="12.2" ry="12.1"/><circle cx="28.2" cy="40.4" fill="#fff" r="11.5"/><path d="m39.7 40.4c0 6.4-5.2 11.5-11.5 11.5-6.4 0-11.5-5.2-11.5-11.5 0-6.4 5.2-11.5 11.5-11.5 6.3-.1 11.5 5.1 11.5 11.5z" fill="#b7a797"/><path d="m17.8 43.3c-.4-1.1-.6-2.3-.6-3.5 0-5.7 4.9-10.4 10.9-10.4 4.5 0 8.4 2.6 10.1 6.3-.4 8-15.4.7-20.4 7.6z" fill="#fff" opacity=".2"/><path d="m39.8 36.4c.2.4-.7.7-.9.4l-.5-1.3c-.2-.4.7-.7.9-.4z" fill="#777"/><path d="m40.1 35.5c.1.3 0 .6-.3.7s-.6 0-.7-.3 0-.6.3-.7.6 0 .7.3z" fill="#e6e6e6"/><path d="m40.1 35.5c.1.3 0 .6-.3.7s-.6 0-.7-.3 0-.6.3-.7.6.1.7.3z" fill="#999"/><path d="m33.6 29.4c.4.2 0 1-.4.9l-1.3-.6c-.4-.2 0-1 .4-.9z" fill="#777"/><path d="m33.2 28.5c.3.1.4.4.3.7s-.4.4-.7.3-.4-.4-.3-.7.4-.4.7-.3z" fill="#e6e6e6"/><path d="m33.2 28.5c.3.1.4.4.3.7s-.4.4-.7.3-.4-.4-.3-.7.4-.4.7-.3z" fill="#999"/><path d="m24.2 28.8c.4-.2.7.7.4.9l-1.3.5c-.4.2-.7-.7-.4-.9z" fill="#777"/><path d="m23.3 28.4c.3-.1.6 0 .7.3s0 .6-.3.7-.6 0-.7-.3 0-.6.3-.7z" fill="#e6e6e6"/><path d="m23.3 28.4c.3-.1.6 0 .7.3s0 .6-.3.7-.6 0-.7-.3 0-.6.3-.7z" fill="#999"/><path d="m17.1 35c.2-.4 1 0 .9.4l-.6 1.3c-.2.4-1 0-.9-.4z" fill="#777"/><path d="m16.2 35.4c.1-.3.4-.4.7-.3s.4.4.3.7-.4.4-.7.3-.4-.5-.3-.7z" fill="#e6e6e6"/><path d="m16.2 35.4c.1-.3.4-.4.7-.3s.4.4.3.7-.4.4-.7.3c-.2-.2-.4-.5-.3-.7z" fill="#999"/><path d="m16.5 44.4c-.2-.4.7-.7.9-.4l.5 1.3c.2.4-.7.7-.9.3z" fill="#777"/><path d="m16.2 45.3c-.1-.3 0-.6.3-.7s.6 0 .7.3 0 .6-.3.7-.6 0-.7-.3z" fill="#e6e6e6"/><path d="m16.2 45.3c-.1-.3 0-.6.3-.7s.6 0 .7.3 0 .6-.3.7-.6-.1-.7-.3z" fill="#999"/><path d="m22.7 51.4c-.4-.2 0-1 .4-.9l1.3.6c.4.2 0 1-.4.9z" fill="#777"/><path d="m23.1 52.3c-.3-.1-.4-.4-.3-.7s.4-.4.7-.3.4.4.3.7-.4.4-.7.3z" fill="#e6e6e6"/><path d="m23.1 52.3c-.3-.1-.4-.4-.3-.7s.4-.4.7-.3.4.4.3.7-.4.4-.7.3z" fill="#999"/><path d="m32.1 52c-.4.2-.7-.7-.4-.9l1.3-.5c.4-.2.7.7.4.9z" fill="#777"/><path d="m33 52.4c-.3.1-.6 0-.7-.3s0-.6.3-.7.6 0 .7.3 0 .6-.3.7z" fill="#e6e6e6"/><path d="m33 52.4c-.3.1-.6 0-.7-.3s0-.6.3-.7.6 0 .7.3 0 .6-.3.7z" fill="#999"/><path d="m39.2 45.8c-.2.4-1 0-.9-.4l.6-1.3c.2-.4 1 0 .9.4z" fill="#777"/><path d="m40.1 45.4c-.1.3-.4.4-.7.3s-.4-.4-.3-.7.4-.4.7-.3.4.5.3.7z" fill="#e6e6e6"/><path d="m40.1 45.4c-.1.3-.4.4-.7.3s-.4-.4-.3-.7.4-.4.7-.3c.2.2.4.5.3.7z" fill="#999"/><path d="m22.1 14c2.8 1.2 4.3 3.4 3.4 5s-3.9 1.9-6.7.7-4.3-3.4-3.4-5c1-1.6 3.9-1.9 6.7-.7z" fill="#fff"/><path d="m22.1 14c2.8 1.2 4.3 3.4 3.4 5s-3.9 1.9-6.7.7-4.3-3.4-3.4-5c.9-1.5 3.9-1.8 6.7-.7z" fill="#999"/><path d="m23 25.8 2.5-6.9c.3-1.1-.5-2.3-1.7-3.3-2.2-1.8-5.6-2.4-7.6-1.3-.5.3-.8.5-1 1.1l-2.4 6.6z" fill="#d3001a"/><path d="m16.7 14.1-3 8.3 1.2.4 3.3-9c-.5 0-1 .1-1.5.3z" fill="#fff" opacity=".2"/><path d="m24.3 16.1-3.3 8.9 1.7.6 2.8-7.7c-.2-.6-.6-1.3-1.2-1.8z" opacity=".2"/><path d="m19.4 20.9c3 1.2 4.5 3.3 3.6 4.9s-3.8 2-6.7.8c-2.8-1.2-4.3-3.4-3.5-5 .7-1.6 3.8-1.7 6.6-.7z" fill="#999"/><path d="m19.4 21.3c2.8 1.1 4.4 3.3 3.6 4.8s-3.7 1.8-6.5.7-4.4-3.3-3.6-4.8c.8-1.6 3.7-1.9 6.5-.7z" fill="#999"/><path d="m19.3 21.3c2.8 1.1 4.4 3.3 3.6 4.8s-3.7 1.8-6.5.7-4.4-3.3-3.6-4.8 3.7-1.8 6.5-.7z" fill="#999"/><path d="m19.2 21.6c2.4 1 3.9 2.9 3.2 4.2s-3.3 1.6-5.7.6-3.9-2.9-3.2-4.2 3.2-1.6 5.7-.6z" fill="#d9d9d9"/><path d="m19.2 21.5c2.5 1 4 3 3.3 4.4s-3.4 1.6-5.9.6-4-3-3.3-4.4 3.4-1.6 5.9-.6z" fill="#6d6d6d"/><path d="m19.2 21.5c2.5 1 4 2.9 3.4 4.3-.7 1.3-3.3 1.5-5.9.5-2.5-1-4-2.9-3.4-4.3.7-1.3 3.4-1.5 5.9-.5z" fill="#b7a797"/><path d="m18.5 21.3c-2.6-.9-5-.4-5.3 1s1.6 3.3 4.2 4.1c2.6.9 3.8-4.3 1.1-5.1z" fill="url(#X)"/><path d="m15.2 14.9-.2-.1-.3.9.2.1z" fill="#aaa"/><path d="m14.8 14.8.1-.3.5.2-.1.3z" fill="#aaa"/><path d="m14.6 15.6c0-.1.5.1.5.2v.1z" fill="url(#Y)"/><path d="m14.6 17.1c-.5-.2 0-1.5 0-1.5 0-.1.5.1.5.2z" fill="#aaa"/><path d="m25.7 18.8.2.1-.3.9-.2-.1z" fill="#aaa"/><path d="m25.6 18.8.1-.3.5.2-.1.3z" fill="#aaa"/><path d="m25.8 19.7c0-.1-.4-.3-.5-.2v.1z" fill="url(#Z)"/><path d="m24.9 20.8c.5.2.9-1.1.9-1.1 0-.1-.4-.3-.5-.2z" fill="#aaa"/><path d="m18.9 13.3-.2-.1-.3.9.2.1c0-.1.3-.9.3-.9z" fill="#aaa"/><path d="m18.4 13.9c0-.1.5.1.4.2v.1z" fill="url(#aa)"/><path d="m18.3 15.4c-.4-.1.1-1.5.1-1.5 0-.1.5.1.4.2z" fill="#aaa"/><path d="m24 15s.2 0 .2.1l-.3.9s-.2 0-.2-.1c-.1 0 .3-.9.3-.9z" fill="#aaa"/><path d="m24 15.9c0-.1-.4-.3-.4-.2v.1z" fill="url(#ab)"/><path d="m23.1 17.1c.4.2.9-1.2.9-1.2 0-.1-.4-.3-.4-.2z" fill="#aaa"/><path d="m21.6 22.2s-.2 0-.2-.1l.3-.9s.2 0 .2.1z" fill="#aaa"/><path d="m21.7 22.2-.1.3-.4-.2.1-.3z" fill="#aaa"/><path d="m21.9 21.5c0 .1-.5-.1-.4-.2v-.1z" fill="url(#ac)"/><path d="m22 20c.4.1-.1 1.5-.1 1.5 0 .1-.5-.1-.4-.2z" fill="#aaa"/><path d="m16.1 20.3.2.1s.3-.9.4-1l-.2-.1z" fill="#aaa"/><path d="m16 20.3-.1.3h.5l.1-.3z" fill="#aaa"/><path d="m16.3 19.4c0 .1.4.3.4.2v-.1z" fill="url(#ad)"/><path d="m17.2 18.2c-.4-.2-.9 1.2-.9 1.2 0 .1.4.3.4.2z" fill="#aaa"/><path d="m12.8 21.5-.2-.1.3-.9.2.1z" fill="#aaa"/><path d="m12.3 21.6.1-.3.5.2-.1.3z" fill="#aaa"/><path d="m12.7 20.6c0 .1.4.3.5.2v-.1z" fill="url(#ae)"/><path d="m13.7 19.5c-.5-.2-.9 1.1-.9 1.1 0 .1.4.3.5.2z" fill="#aaa"/><path d="m23.3 25.4.2.1.3-.9-.2-.1c.1 0-.3.9-.3.9z" fill="#aaa"/><path d="m23.1 25.5.1-.3.5.2-.1.3z" fill="#aaa"/><path d="m24 24.7c0 .1-.5-.1-.5-.2v-.1z" fill="url(#af)"/><path d="m24 23.2c.5.2 0 1.5 0 1.5 0 .1-.5-.1-.5-.2z" fill="#aaa"/><path d="m34.2 14.9c-2.4 1-3.8 3-3 4.4s3.4 1.7 5.8.6c2.4-1 3.8-3 3-4.4-.7-1.3-3.3-1.6-5.8-.6z" fill="#fff"/><path d="m34.2 15c-2.4 1-3.8 3-3 4.3.8 1.4 3.4 1.6 5.8.6s3.8-3 3-4.3c-.7-1.4-3.3-1.7-5.8-.6z" fill="#999"/><path d="m42.2 21.2-1.8-5c-.2-.5-.5-.7-.9-.9-1.8-1-4.8-.4-6.7 1.1-1.1.9-1.7 1.9-1.5 2.9l2 5.4z" fill="#d3001a"/><path d="m39 15 2.6 7.2-1 .4-2.9-7.9c.4.1.9.2 1.3.3z" fill="#fff" opacity=".2"/><path d="m32.3 16.7 2.9 7.8-1.5.5-2.5-6.7c.2-.5.6-1.1 1.1-1.6z" opacity=".2"/><path d="m40.3 15.8.2-.1.3.8-.2.1c0-.1-.3-.8-.3-.8z" fill="#aaa"/><path d="m40.1 15.6.4-.1.1.3-.4.1z" fill="#aaa"/><path d="m40.8 16.3c0-.1-.4.1-.4.1z" fill="url(#ag)"/><path d="m40.8 17.6c.4-.1 0-1.3 0-1.3 0-.1-.4.1-.4.1z" fill="#aaa"/><path d="m31.1 19.1s-.2 0-.2.1l.3.8s.2 0 .2-.1c-.1 0-.3-.8-.3-.8z" fill="#aaa"/><path d="m30.7 19 .4-.1.1.3-.4.1z" fill="#aaa"/><path d="m31 19.9c0-.1.4-.2.4-.1z" fill="url(#ah)"/><path d="m31.8 20.9c-.4.2-.8-1-.8-1 0-.1.4-.2.4-.1z" fill="#aaa"/><path d="m37 14.3.2-.1.3.8-.2.1z" fill="#aaa"/><path d="m37.5 14.8c0-.1-.4 0-.4.1z" fill="url(#ai)"/><path d="m37.6 16.1c.4-.1-.1-1.3-.1-1.3 0-.1-.4 0-.4.1z" fill="#aaa"/><path d="m32.6 15.8s-.2 0-.2.1l.3.8s.2 0 .2-.1z" fill="#aaa"/><path d="m32.6 16.6c0-.1.3-.2.4-.1z" fill="url(#aj)"/><path d="m33.4 17.6c-.4.1-.8-1-.8-1 0-.1.3-.2.4-.1z" fill="#aaa"/><path d="m36.5 20.6c-2.7 1.1-3.9 2.9-3.2 4.3s3.4 1.7 5.8.7c2.5-1 3.8-3 3.1-4.4-.6-1.4-3.3-1.6-5.7-.6z" fill="#999"/><path d="m36.5 20.9c-2.4 1-3.8 2.9-3.1 4.2s3.3 1.6 5.7.6 3.8-2.9 3.1-4.2c-.7-1.4-3.3-1.6-5.7-.6z" fill="#fff"/><path d="m36.5 20.9c-2.4 1-3.8 2.9-3.1 4.2s3.2 1.6 5.7.6c2.4-1 3.8-2.9 3.1-4.2s-3.2-1.6-5.7-.6z" fill="#999"/><path d="m36.7 21.2c-2.1.9-3.4 2.5-2.8 3.7s2.8 1.4 5 .5c2.1-.9 3.4-2.5 2.8-3.7-.7-1.1-2.9-1.4-5-.5z" fill="#d9d9d9"/><path d="m36.6 21.1c-2.2.9-3.5 2.6-2.9 3.8s3 1.4 5.2.5 3.5-2.6 2.9-3.8-3-1.4-5.2-.5z" fill="#777"/><path d="m36.6 21.1c-2.2.9-3.5 2.6-2.9 3.7s2.9 1.3 5.1.4 3.5-2.6 2.9-3.7c-.5-1.1-2.8-1.3-5.1-.4z" fill="#b7a797"/><path d="m37.2 20.9c2.3-.7 4.4-.3 4.6.9.3 1.3-1.4 2.9-3.7 3.6-2.2.7-3.2-3.8-.9-4.5z" fill="url(#ak)"/><path d="m34.6 21.7s.2 0 .2-.1l-.3-.8s-.2 0-.2.1z" fill="#aaa"/><path d="m34.5 21.7.1.3.3-.3-.1-.2z" fill="#aaa"/><path d="m34.2 21.1c0 .1.4 0 .4-.1z" fill="url(#al)"/><path d="m34.2 19.7c-.4.1.1 1.3.1 1.3 0 .1.4 0 .4-.1z" fill="#aaa"/><path d="m39.3 20-.2.1-.3-.8.2-.1z" fill="#aaa"/><path d="m39.4 20 .1.3h-.4l-.1-.3z" fill="#aaa"/><path d="m39.1 19.3c0 .1-.3.2-.4.1z" fill="url(#am)"/><path d="m38.4 18.2c.4-.1.8 1 .8 1 0 .1-.3.2-.4.1z" fill="#aaa"/><path d="m42.2 21.1s.2 0 .2-.1l-.3-.8s-.2 0-.2.1z" fill="#aaa"/><path d="m42.1 21.1.4-.1.1.3-.4.1z" fill="#aaa"/><path d="m42.3 20.3c0 .1-.4.2-.4.1z" fill="url(#an)"/><path d="m41.4 19.3c.4-.2.8 1 .8 1 0 .1-.4.2-.4.1z" fill="#aaa"/><path d="m33 24.5-.2.1-.3-.8.2-.1s.3.7.3.8z" fill="#aaa"/><path d="m32.7 24.5.4-.1.1.3-.4.1z" fill="#aaa"/><path d="m32.5 23.9c0 .1.4-.1.4-.1z" fill="url(#ao)"/><path d="m32.5 22.6c-.4.1 0 1.3 0 1.3 0 .1.4-.1.4-.1z" fill="#aaa"/><path d="m6.9 16.4c0-.3-.6-.3-.6 0v8.5h.6c0-.1 0-8.5 0-8.5z" fill="#999"/><path d="m6.9 24.1c0-.5-.7-.5-.7 0v16.1h.7s0-15.9 0-16.1z" fill="#999"/><path d="m7 39.3c0-.4-.9-.4-.9 0v11.9h.9s0-11.8 0-11.9z" fill="#999"/><path d="m6 50.6v.5c.1.2 1.1.1 1.1 0s0-.3 0-.5h-.1c-.1.1-.2.1-.5.1-.2 0-.3 0-.5-.1.1-.1 0-.1 0 0z" fill="#808285"/><path d="m6 50.6v.7c.1.2 1 .2 1.1 0s0-.5 0-.7c-.1.1-.3.1-.5.1-.3 0-.5 0-.6-.1z" fill="#bbb"/><path d="m6 47v.5c.1.2 1.1.1 1.1 0s0-.3 0-.5h-.1c-.1 0-.3 0-.5 0s-.3 0-.5 0c.1-.1 0-.1 0 0z" fill="#808285"/><path d="m6 47v.7c.1.2 1 .2 1.1 0s0-.5 0-.7c-.1 0-.3.1-.6.1-.2 0-.4 0-.5-.1z" fill="#bbb"/><path d="m11.7 52.5c.2.2.5-.2.3-.3-.1-.2-4.2-4.3-5-5.1 0 0-.2.5 0 .6 1.2 1.2 4.7 4.8 4.7 4.8z" fill="#999"/><path d="m11.7 51.8c0 .1-.1.1-.1.2-.1.1-.1.1-.2.1.1.1.2.2.2.2s.4-.2.4-.4c-.1.1-.2 0-.3-.1z" fill="#808285"/><path d="m11.6 52c-.1.1-.2.1-.2.1.1.1.2.2.2.2l.2.2c.2.1.4-.2.4-.3l-.4-.4c-.1.1-.1.2-.2.2z" fill="#666"/><path d="m9.1 49.2c0 .1-.1.1-.1.2-.1.1-.1.1-.2.1.1.2.2.3.2.3s.4-.3.4-.4c0 0-.1-.1-.3-.2z" fill="#808285"/><path d="m9 49.4c-.1.1-.2.2-.2.2 0 .1.2.2.2.2.1.1.4-.3.4-.4l-.2-.2c0 .1-.1.2-.2.2z" fill="#bbb"/><path d="m9 49.8c.1 0-.2-.2-.2-.1-.3.2-1.2.8-1.8 1.2-.1.1-.1.3-.1.3.6-.4 2.1-1.4 2.1-1.4z" fill="#999"/><path d="m1.3 52.5c-.2.2-.5-.2-.3-.3l5.1-5.1s.2.5 0 .6c-1.3 1.2-4.8 4.7-4.8 4.8z" fill="#999"/><path d="m1.3 51.8c-.1 0-.2.2-.2.2 0 .1.3.4.4.4s.1-.1.2-.2c-.1 0-.1-.1-.2-.1-.1-.2-.1-.3-.2-.3z" fill="#808285"/><path d="m1.3 51.8-.4.4c-.1.1.2.4.4.3l.2-.2.2-.2c-.1 0-.2 0-.2-.1-.1-.1-.2-.1-.2-.2z" fill="#666"/><path d="m3.8 49.2c-.1.1-.2.2-.2.2 0 .1.4.4.4.4s.1-.1.2-.2c-.1 0-.1-.1-.2-.1 0-.1-.1-.2-.2-.3.1 0 .1 0 0 0z" fill="#808285"/><path d="m3.8 49.2-.2.2c0 .1.3.5.4.4l.2-.2c-.1 0-.2-.1-.2-.2-.1 0-.1-.1-.2-.2z" fill="#bbb"/><path d="m4 49.8c-.1 0 .2-.2.2-.1.3.2 1.2.8 1.8 1.2.1.1.1.3.1.3-.6-.4-2.1-1.4-2.1-1.4z" fill="#999"/><path d="m6.2 23.7v.3c.1.1.7.1.7 0s0-.2 0-.4h-.1c-.1.1-.2.1-.3.1-.1.1-.2.1-.3 0z" fill="#808285"/><path d="m6.2 23.7v.4c.1.1.7.1.7 0s0-.3 0-.4c0 .1-.2.1-.4.1-.1 0-.2 0-.3-.1z" fill="#bbb"/><path d="m6.3 16v.3c.1.1.6.1.6 0s0-.2 0-.3c-.1 0-.1.1-.2.1-.2 0-.3 0-.4-.1z" fill="#808285"/><path d="m6.3 16v.4c.1.1.6.1.6 0s0-.3 0-.4c0 .1-.2.1-.3.1s-.3 0-.3-.1z" fill="#bbb"/><path d="m6.1 39.1v.4c.1.2.9.1.9 0s0-.3 0-.4h-.1c-.1.1-.2.1-.4.1-.1-.1-.2-.1-.4-.1.1-.1 0-.1 0 0z" fill="#808285"/><path d="m6.1 39.1v.5c.1.2.9.2.9 0s0-.4 0-.5c-.1.1-.3.1-.4.1-.2 0-.4-.1-.5-.1z" fill="#bbb"/><path d="m13.1 18.8-13.1-5.2c.1-.4 2.1.1 5.3 1.3.3.1.9-.2 1.7.1s1 1 1.3 1.1c3.2 1.3 4.9 2.3 4.8 2.7z" fill="url(#ap)"/><path d="m48.8 12.2c0-.4-.6-.4-.6 0v11.8h.6s0-11.7 0-11.8z" fill="#999"/><path d="m48.9 24.1c0-.5-.7-.5-.7 0v16.1h.7c0-.1 0-16 0-16.1z" fill="#999"/><path d="m49 39.3c0-.4-.9-.4-.9 0v11.9h.9c0-.1 0-11.8 0-11.9z" fill="#9b9b9b"/><path d="m47.9 50.5v.5c.1.2 1.1.1 1.1 0s0-.3 0-.5h-.1c-.1.1-.2.1-.5.1-.2 0-.3 0-.5-.1z" fill="#808285"/><path d="m47.9 50.5v.7c.1.2 1 .2 1.1 0s0-.5 0-.7c-.1.1-.3.1-.5.1s-.4 0-.6-.1z" fill="#bbb"/><path d="m47.9 46.9v.5c.1.2 1.1.1 1.1 0s0-.3 0-.5h-.1c-.1.1-.2.1-.5.1-.2 0-.3 0-.5-.1.2-.1 0 0 0 0z" fill="#808285"/><path d="m47.9 46.9v.7c.1.2 1 .2 1.1 0s0-.5 0-.7c0 .1-.3.1-.5.1s-.4 0-.6-.1z" fill="#bbb"/><path d="m53.7 52.4c.2.2.5-.2.3-.3-.1-.1-4.2-4.2-5.1-5.1 0 0-.2.5 0 .6 1.3 1.3 4.8 4.8 4.8 4.8z" fill="#9b9b9b"/><path d="m53.6 51.7c0 .1-.1.1-.1.2s-.1.1-.2.1c.1.1.2.2.2.2s.4-.2.4-.4c0 .1-.1 0-.3-.1z" fill="#808285"/><path d="m53.6 51.9c-.1.1-.2.1-.2.1.1.1.2.2.2.2l.2.2c.2.1.4-.2.4-.3l-.4-.4c-.1.1-.2.2-.2.2z" fill="#666"/><path d="m51.1 49.2c0 .1-.1.1-.1.2-.1.1-.1.1-.2.1.1.1.2.2.2.2s.4-.3.4-.4c0 0-.2-.1-.3-.1.1-.1 0 0 0 0z" fill="#808285"/><path d="m51 49.4c-.1.1-.2.2-.2.2.1.1.2.2.2.2.1.1.4-.3.4-.4l-.2-.2c-.1 0-.1.1-.2.2z" fill="#bbb"/><path d="m51 49.7c.1 0-.2-.2-.2-.1-.3.2-1.2.8-1.8 1.2-.1.1-.1.3-.1.3.6-.4 2.1-1.4 2.1-1.4z" fill="#999"/><path d="m52.9 14.3c.3.1.4-.1.1-.3-.3-.1-8-3.2-10.7-4.3-.3-.1-.4.1-.1.3 2.8 1.2 10.6 4.3 10.7 4.3z" fill="#999"/><path d="m52.8 14v.1c0 .1-.1.1-.1.1.1 0 .2.1.2.1s.2-.2.1-.3c0 .1-.1 0-.2 0z" fill="#808285"/><path d="m52.8 14.2c0 .1-.1.1-.1.1l.2.1.1.1c.1 0 .2-.2.1-.3 0 0-.3-.1-.4-.1.2 0 .2 0 .1.1z" fill="#bbb"/><path d="m43.3 52.4c-.2.2-.5-.2-.3-.3.1-.1 4.2-4.2 5.1-5.1 0 0 .2.5 0 .6-1.3 1.3-4.8 4.8-4.8 4.8z" fill="#9b9b9b"/><path d="m43.3 51.7c-.1.1-.2.2-.2.2 0 .1.3.4.4.4s.1-.1.2-.2c-.1 0-.1-.1-.2-.1-.1-.2-.2-.2-.2-.3z" fill="#808285"/><path d="m43.3 51.7-.4.4c-.1.1.2.4.4.3l.2-.2.2-.2c-.1 0-.2 0-.2-.1-.2 0-.2-.1-.2-.2z" fill="#666"/><path d="m45.8 49.1c-.1.1-.2.2-.2.2 0 .1.4.4.4.4s.1-.1.2-.2c-.1 0-.1-.1-.2-.1-.1-.1-.1-.2-.2-.3z" fill="#808285"/><path d="m45.8 49.1-.2.2c0 .1.3.5.4.4l.2-.2c-.1 0-.2-.1-.2-.2-.1 0-.2-.1-.2-.2z" fill="#bbb"/><path d="m46 49.7c-.1 0 .2-.2.2-.1.3.2 1.2.8 1.8 1.2.1.1.1.3.1.3-.6-.4-2.1-1.4-2.1-1.4z" fill="#999"/><path d="m48.2 23.7v.3c.1.1.7.1.7 0s0-.2 0-.4h-.1c-.1.1-.2.1-.3.1s-.2 0-.3 0c0-.1 0-.1 0 0z" fill="#808285"/><path d="m48.2 23.7v.4c.1.1.7.1.7 0s0-.3 0-.4c0 .1-.2.1-.4.1-.1-.1-.2-.1-.3-.1z" fill="#bbb"/><path d="m48.2 12.1v.3c.1.1.7.1.7 0s0-.2 0-.4h-.1c-.1.1-.2.1-.3.1-.1.1-.2.1-.3 0z" fill="#808285"/><path d="m48.2 12.1v.6c.1.2.7.2.7 0s0-.5 0-.6c0 .1-.2.1-.4.1-.1 0-.3 0-.3-.1z" fill="#bbb"/><path d="m48.1 39v.4c.1.2.9.1.9 0s0-.3 0-.4h-.1c-.1 0-.2 0-.4 0-.1 0-.3 0-.4 0 0-.1 0 0 0 0z" fill="#808285"/><path d="m48.1 39v.5c.1.2.9.2.9 0s0-.4 0-.5c-.1.1-.3.1-.4.1-.3 0-.4 0-.5-.1z" fill="#bbb"/><path d="m48.8 7.5-13.2 5c-.1-.4 1.7-1.4 4.8-2.6.3-.1.5-.8 1.3-1.1s1.4 0 1.7-.1c3.3-1.1 5.3-1.6 5.4-1.2z" fill="url(#aq)"/></svg>