<svg height="60" width="60" xmlns="http://www.w3.org/2000/svg"><path d="m48.93 51.6.86.6-4.7 6.87-.86-.58zm5.37 6.9-.87.57-4.68-6.88.86-.6z" fill="#fff" stroke="#000" stroke-width=".292"/><path d="m48.75 12.8h1.04v46.27h-1.06z" fill="none" stroke="#000" stroke-width=".359"/><path d="m40.85 30.28v8.08c0 1.27 3.77 2.3 8.42 2.3s8.42-1.03 8.42-2.3v-8.08h-16.86z" fill="#fff" stroke="#1d1d1b" stroke-width=".348"/><ellipse cx="49.271" cy="30.278" rx="8.419" ry="2.297" stroke="#000" stroke-width=".348"/><path d="m57.7 31.43c0 1.27-3.78 2.3-8.43 2.3s-8.42-1.03-8.42-2.3m16.85 5.95c0 1.27-3.78 2.3-8.43 2.3s-8.42-1.03-8.42-2.3" fill="none" stroke="#000" stroke-width=".348"/><path d="m50.63 53.03c0 .2-.23.34-.5.34h-1.73c-.26 0-.48-.15-.48-.34v-1c0-.18.22-.33.5-.33h1.7c.28 0 .5.15.5.33v1z" fill="#fff" stroke="#1d1d1b" stroke-width=".292"/><g stroke="#000"><path d="m50.4 59.36c.03.2-.12.34-.3.34h-1.63c-.2 0-.34-.15-.34-.34v-.36c0-.18.15-.33.34-.33h1.62c.2 0 .33.15.33.33v.36zm4.7 0c0 .2-.14.34-.33.34h-1.62c-.2 0-.33-.15-.33-.34v-.36c0-.18.14-.33.33-.33h1.62c.2 0 .34.15.34.33v.36zm-9.23 0c0 .2-.15.34-.34.34h-1.63c-.17 0-.32-.15-.32-.34v-.36c0-.18.15-.33.33-.33h1.64c.2 0 .34.15.34.33v.36z" stroke-width=".292"/><path d="m9.56 51.6.86.6-4.68 6.87-.86-.58zm5.37 6.88-.86.6-4.68-6.9.83-.57z" fill="#fff" stroke-width=".292"/><path d="m9.4 5.3h1.03v53.77h-1.03z" fill="none" stroke-width=".388"/><path d="m1.5 30.28v8.08c0 1.27 3.76 2.3 8.4 2.3s8.42-1.03 8.42-2.3v-8.08z" fill="#fff" stroke-width=".348"/><ellipse cx="9.905" cy="30.278" rx="8.418" ry="2.297" stroke-width=".348"/><path d="m18.32 31.43c0 1.27-3.77 2.3-8.4 2.3s-8.42-1.03-8.42-2.3m16.82 5.95c0 1.27-3.77 2.3-8.4 2.3s-8.43-1.03-8.43-2.3" fill="none" stroke-width=".348"/></g><path d="m11.26 53.03c0 .2-.22.34-.5.34h-1.7c-.3 0-.5-.15-.5-.34v-1c0-.18.2-.33.5-.33h1.7c.28 0 .5.15.5.33z" fill="#fff" stroke="#1d1d1b" stroke-width=".292"/><path d="m11.05 59.36c0 .2-.15.34-.34.34h-1.61c-.2 0-.33-.15-.33-.34v-.36c0-.18.15-.33.33-.33h1.6c.2 0 .35.15.35.33zm4.7 0c0 .2-.16.34-.34.34h-1.6c-.18 0-.33-.15-.33-.34v-.36c0-.18.15-.33.34-.33h1.6c.2 0 .35.15.35.33v.36zm-9.25 0c0 .2-.15.34-.33.34h-1.62c-.2 0-.34-.15-.34-.34v-.36c0-.18.17-.33.36-.33h1.62c.18 0 .33.15.33.33v.36z" stroke="#000" stroke-width=".292"/><g stroke-width=".303"><g stroke="#000"><path d="m31.9 18.15v9.68c0 1.1 3.28 2 7.34 2 4.05 0 7.34-.9 7.34-2v-9.68z" fill="#fff"/><ellipse cx="39.241" cy="18.15" rx="7.343" ry="2.002"/><path d="m46.58 19.15c0 1.1-3.28 2-7.34 2s-7.34-.9-7.34-2" fill="none"/></g><path d="m46.58 26.98c0 1.1-3.28 2-7.34 2s-7.34-.9-7.34-2" fill="none" stroke="#1d1d1b"/><path d="m12.6 18.15v9.68c0 1.1 3.28 2 7.34 2 4.05 0 7.34-.9 7.34-2v-9.68h-14.7z" fill="#fff" stroke="#000"/><ellipse cx="19.935" cy="18.15" rx="7.344" ry="2.002" stroke="#000"/><path d="m27.28 19.15c0 1.1-3.3 2-7.34 2-4.06 0-7.35-.9-7.35-2m14.68 7.83c0 1.1-3.3 2-7.34 2-4.06 0-7.35-.9-7.35-2" fill="none" stroke="#000"/></g><g stroke-width=".292"><circle cx="29.588" cy="39.524" fill="#fff" r="16.941" stroke="#1d1d1b"/><circle cx="29.588" cy="42.128" fill="#fff" r="16.941" stroke="#1d1d1b"/><circle cx="29.588" cy="42.128" r="16.301" stroke="#000"/><g fill="#fff"><path d="m30.34 26.25c0 .18-.15.33-.34.33h-.83c-.18 0-.33-.15-.33-.33v-.84c0-.16.15-.3.33-.3h.83c.2 0 .34.14.34.32v.85zm0 32.6c0 .18-.15.33-.34.33h-.83c-.18 0-.33-.15-.33-.33v-.85c0-.17.15-.32.33-.32h.83c.2 0 .34.15.34.33v.86zm15.13-15.97c-.18 0-.33-.15-.33-.33v-.84c0-.16.15-.3.33-.3h.83c.2 0 .34.14.34.32v.85c0 .18-.15.33-.34.33h-.83zm-32.6 0c-.18 0-.33-.15-.33-.33v-.84c0-.16.15-.3.33-.3h.83c.2 0 .34.14.34.32v.85c0 .18-.15.33-.34.33h-.83zm28.48-11.45c-.13.13-.34.13-.47 0l-.6-.6c-.12-.12-.12-.33 0-.46l.6-.6c.13-.13.34-.13.47 0l.6.6c.12.13.12.34 0 .47l-.6.6zm-23.05 23.05c-.13.13-.34.13-.48 0l-.6-.6c-.12-.12-.12-.33 0-.46l.6-.6c.14-.12.35-.12.48 0l.6.6c.12.13.12.34 0 .47l-.6.57zm22-.58c-.14-.14-.14-.35 0-.48l.58-.6c.13-.12.34-.12.47 0l.6.6c.12.13.12.34 0 .47l-.6.57c-.13.13-.34.13-.47 0l-.6-.6zm-23.07-23.06c-.13-.13-.13-.34 0-.47l.6-.6c.13-.12.34-.12.47 0l.6.6c.12.13.12.34 0 .47l-.6.6c-.13.12-.34.12-.48 0l-.6-.6z" stroke="#1d1d1b"/><ellipse cx="49.27" cy="12.809" rx="10.805" ry="2.504" stroke="#000" transform="matrix(.993 -.121 .121 .993 -1.19 6.071)"/><ellipse cx="49.149" cy="11.815" rx="2.087" ry=".976" stroke="#1d1d1b" transform="matrix(.993 -.121 .121 .993 -1.07 6.049)"/><ellipse cx="9.905" cy="5.298" rx="10.805" ry="2.504" stroke="#000" transform="matrix(.912 .411 -.411 .912 3.051 -3.602)"/><ellipse cx="10.316" cy="4.385" rx="2.086" ry=".975" stroke="#1d1d1b" transform="matrix(.912 .411 -.411 .912 2.712 -3.851)"/></g></g></svg>