<svg enable-background="new 0 0 60 60" height="60" viewBox="0 0 60 60" width="60" xmlns="http://www.w3.org/2000/svg"><path d="m25.81 5.55v-4.19c0-.75.61-1.36 1.36-1.36h5.65c.75 0 1.36.61 1.36 1.36v4.19z" fill="#4b4d4d"/><path d="m28.71 33.32h2.58v20.84h-2.58z" fill="#c3c3c3"/><path d="m40.67 57.2h-7.69l-.26-1.04-.5-1.99h-4.45l-.76 3.03h-7.69c-.75 0-1.36.61-1.36 1.36v1.44h24.06v-1.44c.01-.75-.6-1.36-1.35-1.36z" fill="#636464"/><path d="m34.2 5.55h-8.4c-.23 0-.4.18-.38.41l1.56 25.15c.01.22.21.41.43.41h.13l.77 2.09h3.37l.38-1.04.38-1.04h.13c.23 0 .42-.18.43-.41l1.56-25.15c.03-.24-.14-.42-.36-.42z" fill="#696b6b"/><g fill="#4b4d4d"><path d="m32.54 10.95c0 .25-.2.45-.45.45h-4.18c-.25 0-.45-.2-.45-.45 0-.25.2-.45.45-.45h4.18c.25 0 .45.2.45.45z"/><path d="m32.88 9.07c0 .25-.2.45-.45.45h-4.86c-.25 0-.45-.2-.45-.45 0-.25.2-.45.45-.45h4.86c.25-.01.45.2.45.45z"/><path d="m32.2 12.83c0 .25-.2.45-.45.45h-3.5c-.25 0-.45-.2-.45-.45 0-.25.2-.45.45-.45h3.5c.25 0 .45.2.45.45z"/><path d="m35.49 57.2v-.33c0-.15.12-.27.27-.27h2.48c.15 0 .27.12.27.27v.33z"/></g></svg>