<svg enable-background="new 0 0 60 60" height="60" viewBox="0 0 60 60" width="60" xmlns="http://www.w3.org/2000/svg"><path d="m25.8 5.6v-4.2c0-.8.6-1.4 1.4-1.4h5.6c.8 0 1.4.6 1.4 1.4v4.2z" fill="#4b4d4d"/><path d="m28.7 33.3h2.6v20.8h-2.6z" fill="#c3c3c3"/><path d="m40.7 57.2h-7.7l-.3-1-.5-2h-4.5l-.8 3h-7.7c-.8 0-1.4.6-1.4 1.4v1.4h24.2v-1.4c0-.8-.6-1.4-1.3-1.4z" fill="#af8424"/><path d="m34.2 5.6h-8.4c-.2 0-.4.2-.4.4l1.6 25.1c0 .2.2.4.4.4h.1l.8 2.1h3.4l.4-1 .4-1h.1c.2 0 .4-.2.4-.4l1.6-25.2c0-.3-.2-.4-.4-.4z" fill="#af8424"/><g fill="#4b4d4d"><path d="m32.5 10.9c0 .2-.2.4-.5.4h-4.2c-.2 0-.5-.2-.5-.4 0-.2.2-.4.5-.4h4.2c.3 0 .5.2.5.4z"/><path d="m32.9 9.1c0 .2-.2.4-.5.4h-4.9c-.2 0-.5-.2-.5-.4 0-.2.2-.4.5-.4h4.9c.3-.1.5.1.5.4z"/><path d="m32.2 12.8c0 .2-.2.4-.5.4h-3.5c-.2 0-.5-.2-.5-.4 0-.2.2-.4.5-.4h3.5c.3 0 .5.2.5.4z"/><path d="m35.5 57.2v-.3c0-.2.1-.3.3-.3h2.5c.2 0 .3.1.3.3v.3z"/></g></svg>