<svg enable-background="new 0 0 60 60" height="60" viewBox="0 0 60 60" width="60" xmlns="http://www.w3.org/2000/svg"><g fill="#af8424"><path d="m58.3 2.2-.1-.2c-.2-.3-.8-.8-1.6-.4l-8.1 4.2c-.6.2-.7 1.1-.3 1.6l-.6.6.9.9-.9-.9-25.2 25.9c-1 1.1-1.9.7-2.5 0-1.2-1.3-.3-2.2.3-4.3.3-1.1-.2-2-1-2.3s-1.3 0-1.9.7-1.4 2.3-1.9 4.6c-.3 1.2-.9 2.5-1.5 3-2 1.6-3.8 1.6-4.7 1.7-2.1.1-3.9.8-5.4 2.4-3.3 3.3-2.9 8.4 0 12.2.2.3.5.6.8 1v-.2c.2-1.2.6-2.1 1.4-2.7.7-.6 1.6-.8 2.3-.7 7 .9 10.4.2 14.9-5.6.4-.4 1.2-1 2.5-.3.7.4 1.4 1 2.2 2l.2.2c1.3-.6 1.8-.8 2.2-1 .7-.3 1.1-1.2.9-2-.3-.8-1.1-1.2-1.9-.9-1.1.4-3.5.8-4.2 0-.8-.8-1-1.7-.6-2.7.3-.9.9-1.7.9-1.7l24.6-26.5.6-.6c.3.4.9.4 1.2 0l6.2-6.4c.4-.4.6-1 .3-1.6zm-41.6 45.6c-.4.4-.9.4-1.3 0l-3.1-3.3c-.3-.4-.3-1 0-1.3.4-.4.9-.4 1.3 0l3.2 3.3c.3.4.3 1-.1 1.3zm3.8-4-1.9 2c-.2.2-.5.2-.6 0l-3.8-4c-.2-.2-.2-.5 0-.7l1.9-2c.2-.2.5-.2.6 0l3.8 4c.2.2.2.5 0 .7zm1.6-1.6c-.2.2-.5.2-.6 0l-3.8-4c-.2-.2-.2-.5 0-.7s.5-.2.6 0l3.8 4c.1.2.1.5 0 .7zm-14.5 9.9c-.2.2-.2.5 0 .7s.4.2.6 0 .2-.5 0-.7c-.1-.2-.4-.2-.6 0zm16.4-7.9c-4.8 6.1-8.5 6.9-15.8 6-1.8-.2-2.8 1.5-2.8 3.6l-.3.3c-.2.2-.2.5 0 .7l.6.7c.2.2.4.2.6 0s.4-.2.6 0c.8.8 1.5 1.5 2.2 2 6.6 5.4 10.5.9 11.7-2.7.6-1.7.3-3.6 2.8-6.3 1.1-1.1 2.5-2 3.8-2.7-1.5-1.7-2.6-2.5-3.4-1.6zm-15.2 9.3c-.5.5-1.4.5-1.9 0s-.5-1.4 0-2 1.4-.6 1.9 0c.6.5.6 1.4 0 2zm5.7 2.6c-.3.4-.9.4-1.2 0s-.3-1 0-1.3c.4-.4.9-.4 1.3 0 .3.4.3.9-.1 1.3zm2.2-2.3c-.4.3-.9.3-1.3 0-.4-.4-.4-1 0-1.3s.9-.4 1.3 0c.4.3.4.9 0 1.3z"/><ellipse cx="55" cy=".9" rx=".9" ry=".9"/><ellipse cx="52.9" cy="1.9" rx=".9" ry=".9"/><path d="m50.9 3.8c.5 0 .9-.4.9-.9s-.4-.9-.9-.9-.9.4-.9.9c0 .6.4 1 .9.9z"/><ellipse cx="48.9" cy="3.9" rx=".9" ry=".9"/></g></svg>