<svg height="60" width="60" xmlns="http://www.w3.org/2000/svg"><path d="m58.35 2.18-.12-.18c-.2-.26-.76-.8-1.62-.38l-8.1 4.22c-.57.25-.73 1.1-.3 1.56l-.6.64.86.9-.84-.9-25.23 25.86c-1 1.06-1.9.66-2.53 0-1.2-1.26-.3-2.23.32-4.3.3-1.15-.2-2.05-.97-2.33s-1.33.03-1.9.66c-.6.68-1.43 2.32-1.93 4.6-.26 1.2-.93 2.53-1.52 3.03-1.97 1.64-3.78 1.63-4.73 1.65-2.05.07-3.88.8-5.43 2.43-3.2 3.35-2.8 8.5.07 12.23.22.3.5.64.75.98l.04-.22c.2-1.2.63-2.1 1.37-2.73.67-.6 1.55-.78 2.35-.67 7 .94 10.37.18 14.95-5.63l.03-.03.04-.03c.4-.4 1.23-1 2.5-.28.66.37 1.37 1.05 2.22 1.95l.23.25c1.27-.62 1.8-.82 2.16-1 .74-.35 1.15-1.17.87-1.98-.3-.8-1.14-1.22-1.9-.94-1.1.4-3.46.83-4.2.04-.8-.82-.96-1.7-.64-2.65.3-.92.93-1.66.93-1.66l24.6-26.5.6-.64c.34.36.9.36 1.25 0l6.1-6.32c.4-.43.6-1.02.25-1.56zm-41.63 45.64c-.35.36-.9.36-1.26 0l-3.15-3.3c-.33-.38-.33-.98 0-1.34.36-.37.93-.37 1.28 0l3.15 3.3c.35.38.35.98 0 1.34zm3.78-3.98-1.9 2c-.16.17-.45.17-.62 0l-3.78-4c-.17-.17-.17-.47 0-.65l1.9-2c.16-.2.45-.2.62 0l3.78 3.97c.18.18.18.48 0 .66zm1.58-1.66c-.17.2-.46.2-.63 0l-3.78-3.97c-.18-.17-.18-.46 0-.65.17-.18.45-.18.63 0l3.78 3.98c.17.18.17.48 0 .66zm-14.5 9.95c-.17.18-.17.48 0 .66.17.16.46.16.63 0 .2-.2.2-.5 0-.68-.15-.2-.44-.2-.6 0zm16.4-7.96c-4.8 6.08-8.53 6.86-15.77 5.97-1.83-.23-2.82 1.5-2.8 3.64l-.33.34c-.17.18-.17.47 0 .66l.63.66c.16.2.45.2.62 0 .18-.18.45-.18.63 0 .77.77 1.53 1.5 2.2 2.05 6.57 5.4 10.46.86 11.67-2.73.58-1.74.26-3.6 2.83-6.3 1.06-1.1 2.45-1.98 3.8-2.65-1.6-1.67-2.65-2.53-3.48-1.66zm-15.15 9.28c-.52.55-1.37.55-1.9 0-.5-.55-.5-1.43 0-1.98.53-.56 1.38-.56 1.9 0 .52.55.52 1.43 0 1.98zm5.67 2.65c-.32.37-.9.37-1.24 0-.34-.36-.34-.96 0-1.32.35-.37.92-.37 1.26 0 .36.37.36.96 0 1.32zm2.23-2.3c-.35.35-.9.35-1.26 0-.35-.38-.35-.97 0-1.34s.9-.37 1.26 0c.35.37.35.96 0 1.33z"/><ellipse cx="54.959" cy=".938" rx=".893" ry=".938"/><ellipse cx="52.944" cy="1.924" rx=".892" ry=".938"/><path d="m50.93 3.85c.5 0 .9-.42.9-.94 0-.5-.4-.92-.9-.92s-.9.42-.9.94c0 .53.4.95.9.95z"/><ellipse cx="48.915" cy="3.897" rx=".893" ry=".938"/></svg>