<svg enable-background="new 0 0 60 60" height="60" viewBox="0 0 60 60" width="60" xmlns="http://www.w3.org/2000/svg"><path d="m56.3 1.2-.2-.2c.2-.2.3-.5.2-.7-.2-.3-.6-.4-.9-.2-.4.2-.5.5-.4.8.1.2.4.3.7.3l.3.2-1.4.8-.3-.2c.2-.2.3-.5.2-.7-.1-.3-.5-.4-.8-.2s-.5.5-.3.8c.1.2.4.3.7.2l.2.2-1.4.8-.3-.1c.2-.2.3-.5.2-.7-.2-.3-.5-.4-.9-.2-.3.2-.5.5-.3.8.1.2.4.3.7.2l.2.2-1.4.8-.2-.1c.2-.2.3-.5.2-.7-.2-.3-.6-.3-.9-.2-.3.2-.5.5-.3.8.1.2.4.3.7.2l.2.2-1.5.8-.2-.2c.2-.2.3-.5.2-.7-.2-.3-.5-.4-.9-.2-.3.4-.4.7-.3 1 .1.2.4.3.7.3l.2.1-1.4.8-.2-.2c.2-.2.3-.5.2-.7-.2-.2-.6-.3-.9-.1s-.5.6-.3.8c.1.2.4.3.7.2l.2.2-1.4.8c-.2.1-.4.4-.3.7l.2 1.3-18.6 19.1c-.2.2-.5.3-.8.3-.2 0-.5-.1-.6-.1-.9-.5-2.3-2.1-1.8-3.7.6-1.5 2.1-3.3 2.1-3.3.4-.8 0-1.7-.8-1.9l-.3-.1s-2.1-.1-3.9 1.8-2.9 3.9-3.9 5.9-1.9 4.4-5.2 5.8-11 4.7-11.6 9.2c-.6 4.5 1.6 8 5.3 11.4s7.5 7.4 12.1 6c4.6-1.3 6.6-6.7 7.1-7.9.5-1.3 1.6-6.7 3.7-7.7 2-1 5-2.2 6-3.6 1.1-1.4 1.6-2.4 1.4-3.4 0-.1-.1-.3-.1-.4-.3-.7-1.1-.9-1.7-.5-.8.6-1.9 1.3-2.7 1.5-1 .2-3.2-.6-3.7-2.4-.1-.5 0-1 .3-1.3l19.5-21.8c.3-.3.7-.6 1-.9.4-.3.8-.6 1.2-.7.7-.2 1.6 0 2 .1.1 0 .2 0 .2-.1.2-.3.8-1 1.2-1.6s1.6-2.7 2.1-3.6c.2-.3.5-.4.8-.4l.4.1c.5.1 1 0 1.6-.1 1.2-.4 1.7-1.7 1.2-2.8-.4-1.1-1.9-1.5-3-.9z" fill="#249ac1"/></svg>