<svg xmlns="http://www.w3.org/2000/svg" width="60" height="60"><path d="M56.3 1.2l-.2-.22c.22-.2.3-.48.18-.7-.18-.28-.58-.38-.9-.18-.33.17-.48.54-.33.8.13.24.4.33.7.25l.23.23-1.42.8-.22-.2c.2-.2.3-.48.17-.7-.14-.28-.53-.36-.85-.18-.33.18-.47.55-.32.82.12.23.4.32.7.25l.2.2-1.4.82-.22-.2c.23-.2.3-.5.2-.7-.15-.3-.54-.38-.87-.2-.32.2-.47.55-.32.82.14.23.4.32.7.24l.2.2-1.43.84-.2-.17c.22-.2.3-.48.18-.7-.15-.28-.54-.36-.86-.18-.34.18-.5.54-.33.82.12.22.4.32.7.24l.18.2-1.46.85-.2-.16c.23-.2.3-.5.2-.7-.16-.3-.55-.37-.88-.2-.32.18-.47.55-.32.8.13.25.42.34.7.27l.18.16-1.42.82-.16-.15c.2-.2.3-.5.17-.72-.15-.27-.54-.35-.86-.18-.3.18-.46.55-.3.82.12.23.4.32.7.25l.15.15-1.36.78c-.25.14-.38.42-.34.7l.18 1.3-18.5 19.12c-.2.2-.5.33-.8.32-.23-.02-.45-.06-.6-.15-.88-.47-2.33-2.1-1.75-3.67.6-1.54 2.12-3.3 2.12-3.3.4-.76 0-1.7-.83-1.9l-.28-.07s-2.1-.1-3.93 1.8c-1.83 1.88-2.9 3.93-3.9 5.94-.97 2.02-1.93 4.4-5.24 5.8C8.76 34.5 1 37.78.43 42.25c-.57 4.46 1.65 8.02 5.33 11.44 3.7 3.4 7.47 7.4 12.06 6.05 4.6-1.33 6.6-6.66 7.12-7.94.5-1.26 1.64-6.66 3.68-7.7 2.03-1 5-2.24 6.05-3.6 1.06-1.38 1.58-2.43 1.37-3.36-.03-.14-.06-.26-.1-.38-.28-.68-1.13-.92-1.72-.48-.77.6-1.9 1.35-2.68 1.48-1 .17-3.2-.6-3.7-2.4-.12-.47.02-.97.34-1.32l19.54-21.8c.3-.33.65-.64 1.02-.9.4-.3.85-.57 1.23-.7.66-.2 1.6.04 1.97.15.1 0 .2 0 .25-.1.22-.3.8-1.02 1.2-1.64.36-.6 1.6-2.66 2.13-3.56.15-.26.45-.4.75-.36l.36.06c.52.07 1.05.03 1.56-.13h.03c1.16-.38 1.73-1.7 1.2-2.8v-.04c-.56-1.2-2-1.66-3.14-1.03z"/></svg>