<svg enable-background="new 0 0 60 60" height="60" viewBox="0 0 60 60" width="60" xmlns="http://www.w3.org/2000/svg"><path d="m56.8 57c0 1.5-.6 3-2.2 3h-50.2c-1.6 0-2.8-1.5-2.8-3v-54c0-1.5 1.2-1.4 2.8-1.4h50.3c1.6 0 2.2-.1 2.2 1.4v54z" fill="#fff"/><g fill="#c12127"><path d="m54.7 60h-50.4c-2.5 0-2.8-1.7-2.8-3v-54c0-1.4.3-3 2.8-3h50.3c2.3 0 3.8 1.2 3.8 3v54c0 1.8-1.5 3-3.7 3zm-50.4-58.4c-1 0-1.2.1-1.2 1.4v54c0 1.3.3 1.5 1.2 1.5h50.3c1 0 2.2-.4 2.2-1.5v-54c0-1.3-1.8-1.4-2.2-1.4z"/><path d="m28.1 8.8c.2-.5.9-.8 1.4-.7l7.8 1.7c.5.1.7.6.4 1l-8.3 12.7c-.3.5-.1.8.5.7l12.7-1.6c.5 0 .8.3.5.7l-12.1 19.9c-.3.5-.1.9.5.9h3.4c.5 0 .6.3.2.6l-11.3 8.4c-.4.3-.8.1-.8-.4l.1-13.1c0-.5.3-.7.7-.3l2.2 2.3c.4.4.9.3 1.1-.2l5.3-10.2c.2-.5 0-.8-.5-.8l-13.6 1.4c-.5.1-.8-.3-.6-.8z"/></g></svg>