<svg height="60" width="60" xmlns="http://www.w3.org/2000/svg"><path d="m56.84 56.96c0 1.5-.62 3.04-2.2 3.04h-50.28c-1.58 0-2.78-1.54-2.78-3.04v-53.98c0-1.5 1.2-1.4 2.78-1.4h50.28c1.58 0 2.2-.1 2.2 1.4z" fill="#fff"/><path d="m54.65 60h-50.3c-2.48 0-2.77-1.73-2.77-3.04v-53.98c0-1.4.3-2.98 2.78-2.98h50.28c2.26 0 3.78 1.2 3.78 2.98v53.98c0 1.8-1.55 3.04-3.77 3.04zm-50.3-58.42c-.95 0-1.2.14-1.2 1.4v53.98c0 1.28.26 1.46 1.2 1.46h50.3c1 0 2.2-.38 2.2-1.46v-53.98c0-1.33-1.84-1.4-2.2-1.4z"/><path d="m28.1 8.8c.23-.5.86-.82 1.4-.7l7.78 1.7c.53.12.73.58.43 1.04l-8.3 12.7c-.3.45-.1.77.45.7l12.73-1.6c.54-.05.75.27.47.74l-12.06 19.82c-.28.48-.07.87.48.88l3.4.04c.55 0 .64.28.2.6l-11.32 8.38c-.44.32-.8.14-.8-.4l.14-13.14c0-.54.32-.67.7-.27l2.18 2.33c.38.4.9.32 1.14-.16l5.28-10.16c.25-.5 0-.83-.53-.77l-13.6 1.37c-.53.07-.8-.3-.56-.8z" fill="#0d0d0d"/></svg>