<svg enable-background="new 0 0 60 60" height="60" viewBox="0 0 60 60" width="60" xmlns="http://www.w3.org/2000/svg" xmlns:xlink="http://www.w3.org/1999/xlink"><radialGradient id="a" cx="26.5553" cy="49.7304" gradientTransform="matrix(.7071 .7071 -.7071 .7071 27.9324 -7.4265)" gradientUnits="userSpaceOnUse" r="5.6964"><stop offset="0" stop-color="#cfcfcf"/><stop offset=".9977"/></radialGradient><path d="m58.9 6c.3-.3.5-.8.6-1.2.5-.8.7-1.6.3-2-.3-.3-1.1-.2-1.9.2-.5 0-1.1.1-1.5.5s-.7 1-.6 1.6c-.2.4-.3.8-.3 1.1l-1.5 1.6.7.7 1.6-1.6c.4.1.9-.1 1.3-.3.4 0 .9-.2 1.3-.6z" fill="#000002"/><path d="m57.8 4.9c-.6-.6-.7-1.5-1.1-1s-.3 1.3.2 1.9c.6.6 1.5.7 1.9.2.4-.4-.4-.6-1-1.1z" fill="#e6e7e8"/><path d="m48.4 12.6c0 .3 0 .8.3 1.3.4.2 1 .3 1.3.3.6-.1.8-.5 1.1-.8l3.8-3.8c.8-.8 1.1-1.9.5-2.5s-1.6-.3-2.5.5l-3.8 3.8c-.3.3-.7.7-.7 1.2z"/><path d="m29.4 48.3c.6-.7 1.1-1.7 2-2.1-2-1.8-.9-3.7.4-5.2.6-.7 3.9-2.9 4.4-1.6.2.6.3-1 1.4-1.6s2.4-1.6 2.9-2c3.3-3 4.2-7.6.5-12.1-.1-.4-.5-.8-.8-1.1-.4-.4-.9-.7-1.3-.8-.7-.2-1.4.4-1.8.8-1.1 1.3-3.1 3.1-4.8 4.6-2.3 2.1-4.6 4.4-6.8 6.6s-4.5 4.5-6.7 6.7c-1.1 1.1-2.2 2.2-3.3 3.4-1.5 1.4-5.5 6.1-5.5 6.1s.3 1.5.7 2c0 0 0 0 .1.1.6.7 5.2 4.1 5.8 4.3 1.6.7 3.3 1.1 4.8.9 4.9-1 5.6-5.9 8-9zm12.8-18.7c0 3.1-3.7 5.8-5.9 7.2-1.4.9-3 1.6-4.8 1.6-1.3 0-2.2-.4-3-1.1.2-.2.4-.4.6-.6 2.2-2.2 4.5-4.5 6.6-6.8 1.6-1.6 3.4-3.5 4.6-4.8.1-.1.2-.2.3-.3 1 1.8 1.7 3.3 1.6 4.8zm-20.2 25.2c-2.8 1.3-5.7-1.1-8.2-3.3 1.5-1.3 4-3.5 5-4.5 1.1-1.1 2.2-2.2 3.4-3.3 1.7-1.7 3.4-3.4 5.2-5.2.9.9 2 1.8 1.9 2.4-.6 5.3-2.3 11.5-7.3 13.9z" fill="#af8424"/><path d="m27.9 37.2-1.3-1.2-1.2-1.2 23.3-23 2 2.1z" fill="#201c1b"/><g fill="#404041"><path d="m56.9 9c-.2-.2-.5 0-1.2.6l-1.1-1.1c-.1.1-.2.2-.3.3-.3.2-.4.2-.5.3l1.1 1.1c-.6.6-.8 1-.6 1.2s1 .2 1.8-.7c.9-.6.9-1.5.8-1.7z"/><path d="m53.1 6.1c.2.2 0 .5-.6 1.2l1.1 1.1c-.1.1-.2.2-.3.3-.1.3-.2.3-.3.4l-1.1-1.1c-.6.6-1 .8-1.2.6s-.2-1 .7-1.8c.7-.9 1.5-.9 1.7-.7z"/><path d="m54.3 11.7c-.2-.2-.5 0-1.2.6l-1.1-1.1c-.1.1-.2.2-.3.3-.2.2-.2.2-.3.3l1.1 1.1c-.6.6-.8 1-.6 1.2s1 .2 1.8-.7c.7-.8.7-1.6.6-1.7z"/><path d="m50.5 8.7c.2.2 0 .5-.6 1.2l1.1 1.1c-.1.1-.2.2-.3.3-.2.2-.2.2-.3.3l-1.1-1.1c-.6.6-1 .8-1.2.6s-.2-1 .7-1.8c.6-.7 1.5-.8 1.7-.6z"/></g><path d="m53.8 6.8c-.1-.1-.2 0-.3.2l-6.2 6.2c-.2.2-.2.3-.2.3.1.1.2 0 .3-.2l6.2-6.2c.3 0 .3-.2.2-.3z" fill="#0a0818"/><path d="m55.7 8.7c-.1-.1-.2 0-.3.2l-6.2 6.2c-.2.2-.2.3-.2.3.1.1.2 0 .3-.2l6.3-6.2c.1-.1.1-.3.1-.3z" fill="#0a0818"/><path d="m13.1 47.4c.2-.5.4-.9.6-1.4.2-.7.2-1.5-.1-2.2-.2-1.2-.8-2.3-1.7-3.2-.7-.7-2.4-1.7-3.1-.8-1 1.3-1.5 3.3-1.6 4.9-.5 3.8 2.5 6.5 5.2 8.5.6.4.9.9 1.1.8.4-.2.7-1.3.7-1.8.1-.7-.2-1.4-.6-2-.2-.6-.7-1.2-.7-1.9 0-.2 0-.6.2-.9z" fill="url(#a)"/><path d="m52.9 10.2-32.6 32.8c-.9.9-1.6 1.6-1.6 1.7 0 0 .8-.7 1.7-1.6l32.5-32.9c1-.8 1.7-1.6 1.6-1.6.1-.1-.7.7-1.6 1.6z" fill="#d0d2d3"/><path d="m18 44.1s.8-.7 1.7-1.6l32.4-32.5c.9-.9 1.6-1.6 1.6-1.7 0 0-.8.7-1.7 1.6l-32.4 32.5z" fill="#d0d2d3"/><path d="m50.7 10.7s-.7.6-1.6 1.5l-30.2 29.6.1.1 30.2-29.7c.8-.7 1.5-1.4 1.5-1.5z" fill="#d0d2d3"/><path d="m50.9 13.1c.8-.8 1.5-1.6 1.5-1.6s-.8.5-1.5 1.6l-30.2 30.6.1.1z" fill="#d0d2d3"/><path d="m16.1 47.2.7-.7.1.1c.2.2.6.4.7.3s0-.3-.2-.6c.1-.1 1.6-1.7 2.3-2 .4-.2 2-.5 2-.5s-.9-1.1-1.1-1.5c0 0 0 0-.1-.1 0 0 0 0-.1-.1-.4-.3-1.5-1.1-1.5-1.1s-.3 1.5-.5 2c-.3.7-1.9 2.2-2 2.3-.2-.2-.5-.3-.6-.2s.1.4.3.7l.1.1-.7.7c-.4-.2-.7-.4-.9-.2s.1.6.6 1.1l.1.1.1.1c.4.4.9.7 1.1.6.1-.4-.1-.7-.4-1.1z" fill="#404041"/><path d="m21 42.8-1.2-1.2c-.2-.2-.7-.3-.8-.2-.2.2-.1.6.2.8l1.2 1.2c.2.2.7.3.8.2s0-.5-.2-.8z" fill="#6d6e70"/><path d="m19.4 41.6-.1.1 1.5 1.8.2-.2z" fill="#603813"/><path d="m24.4 40.7-2.4-2.5c-.1-.1-.2-.1-.4.1-.1.1-.2.3-.1.4l2.5 2.5c.1.1.2.1.4-.1 0-.1.1-.3 0-.4z" fill="#e6e7e8"/><path d="m25 53.7c-.2.5-1.1 1.1-1.5 1.3-.6.4-1.1.7-1.8.8-1.3.3-2.7.2-3.7-.4.8 1 2.4 1.2 3.8 1 0 0 .1-.1.2 0 0 0 .1-.1.2 0 1.2-.5 2.6-1.5 2.8-2.7z" fill="#fff" opacity=".25"/><path d="m6.1 37c-.2-.2-.1-.4.1-.6l33.9-25.2c.2-.2.4-.1.6.1.2.2.1.4-.1.6l-33.9 25.2c-.1.1-.5.1-.6-.1z" fill="#0a0818"/><path d="m45.2 9.2c.2-.2.2-.6.1-1.1.3-.3.4-.6.3-.7s-.3 0-.7.2c-.3-.3-.7-.4-.9-.2s-.2.6-.1.8c-.5.3-1.1.7-1.7 1.2-1.8 1.3-3.1 2.6-2.9 2.9.2.2 1.8-.7 3.6-2 .7-.5 1.2-.9 1.6-1.3.2.4.6.4.7.2z" fill="#d0d2d3"/><path d="m0 41c.1.1.2.2.2.4.1.1.2.2.2.4 2-2 4.3-3.5 6.8-4.7-.1-.1-.2-.4-.4-.6s-.3-.5-.5-.7c-1.7 2.1-3.8 3.9-6.3 5.2z" fill="#404041"/></svg>