<svg enable-background="new 0 0 60 60" height="60" viewBox="0 0 60 60" width="60" xmlns="http://www.w3.org/2000/svg"><path d="m59.7 14.5h-59.4c-.1 0-.3.1-.3.3v30.5c0 .1.1.3.3.3h59.5c.1 0 .3-.1.3-.3v-30.6c-.1-.1-.2-.2-.4-.2z"/><path d="m1.6 29.7h1.7c.4 0 .6.3.6.7s-.3.7-.6.7h-1.7c-.4 0-.6-.3-.6-.7s.3-.7.6-.7z" fill="#fff"/><g fill="#969695"><path d="m3.1 39.1c0 .1-.1.3-.3.3s-.3-.1-.3-.3c0-.1.1-.3.3-.3s.3.2.3.3z"/><path d="m6.4 39.1c0 .1-.1.3-.3.3s-.3-.1-.3-.3c0-.1.1-.3.3-.3s.3.2.3.3z"/><path d="m9.8 39.1c0 .1-.1.3-.3.3s-.3-.1-.3-.3c0-.1.1-.3.3-.3s.3.2.3.3z"/><path d="m13.1 39.1c0 .1-.1.3-.3.3s-.3-.1-.3-.3c0-.1.1-.3.3-.3s.3.2.3.3z"/><path d="m16.5 39.1c0 .1-.1.3-.3.3s-.3-.1-.3-.3c0-.1.1-.3.3-.3s.3.2.3.3z"/><path d="m19.8 39.1c0 .1-.1.3-.3.3s-.3-.1-.3-.3c0-.1.1-.3.3-.3s.3.2.3.3z"/><path d="m23.2 39.1c0 .1-.1.3-.3.3s-.3-.1-.3-.3c0-.1.1-.3.3-.3s.3.2.3.3z"/><path d="m26.5 39.1c0 .1-.1.3-.3.3s-.3-.1-.3-.3c0-.1.1-.3.3-.3s.3.2.3.3z"/><path d="m29.9 39.1c0 .1-.1.3-.3.3s-.3-.1-.3-.3c0-.1.1-.3.3-.3s.3.2.3.3z"/><path d="m33.2 39.1c0 .1-.1.3-.3.3s-.3-.1-.3-.3c0-.1.1-.3.3-.3s.3.2.3.3z"/><path d="m36.5 39.1c0 .1-.1.3-.3.3s-.3-.1-.3-.3c0-.1.1-.3.3-.3s.3.2.3.3z"/><path d="m39.9 39.1c0 .1-.1.3-.3.3s-.3-.1-.3-.3c0-.1.1-.3.3-.3s.3.2.3.3z"/><path d="m43.2 39.1c0 .1-.1.3-.3.3s-.3-.1-.3-.3c0-.1.1-.3.3-.3s.3.2.3.3z"/><path d="m46.6 39.1c0 .1-.1.3-.3.3s-.3-.1-.3-.3c0-.1.1-.3.3-.3s.3.2.3.3z"/><path d="m49.9 39.1c0 .1-.1.3-.3.3s-.3-.1-.3-.3c0-.1.1-.3.3-.3s.3.2.3.3z"/><path d="m53.3 39.1c0 .1-.1.3-.3.3s-.3-.1-.3-.3c0-.1.1-.3.3-.3s.3.2.3.3z"/><path d="m24.2 22.9c0 .1-.1.3-.3.3s-.3-.1-.3-.3c0-.1.1-.3.3-.3s.3.2.3.3z"/><path d="m55.4 39.8c0 .1-.1.3-.3.3s-.3-.1-.3-.3c0-.1.1-.3.3-.3s.3.2.3.3z"/><path d="m56.4 39.8c0 .1-.1.3-.3.3s-.3-.1-.3-.3c0-.1.1-.3.3-.3s.3.2.3.3z"/><path d="m57.5 39.8c0 .1-.1.3-.3.3s-.3-.1-.3-.3c0-.1.1-.3.3-.3s.3.2.3.3z"/><path d="m58.5 39.8c0 .1-.1.3-.3.3s-.3-.1-.3-.3c0-.1.1-.3.3-.3s.3.2.3.3z"/><path d="m53.7 33.5c0 .1-.1.3-.3.3s-.3-.1-.3-.3c0-.1.1-.3.3-.3s.3.2.3.3z"/><path d="m57.1 33.5c0 .1-.1.3-.3.3s-.3-.1-.3-.3c0-.1.1-.3.3-.3s.3.2.3.3z"/></g><path d="m4.2 41.7c0 .8-.6 1.4-1.4 1.4s-1.4-.6-1.4-1.4.6-1.4 1.4-1.4 1.4.6 1.4 1.4z" fill="#706e71"/><path d="m7.6 41.7c0 .8-.6 1.4-1.4 1.4s-1.4-.6-1.4-1.4.6-1.4 1.4-1.4 1.4.6 1.4 1.4z" fill="#706e71"/><path d="m10.9 41.7c0 .8-.6 1.4-1.4 1.4s-1.4-.6-1.4-1.4.6-1.4 1.4-1.4 1.4.6 1.4 1.4z" fill="#706e71"/><path d="m14.4 41.7c0 .8-.6 1.4-1.4 1.4s-1.4-.6-1.4-1.4.6-1.4 1.4-1.4 1.4.6 1.4 1.4z" fill="#706e71"/><path d="m17.6 41.7c0 .8-.6 1.4-1.4 1.4s-1.4-.6-1.4-1.4.6-1.4 1.4-1.4 1.4.6 1.4 1.4z" fill="#706e71"/><path d="m21 41.7c0 .8-.6 1.4-1.4 1.4s-1.4-.6-1.4-1.4.6-1.4 1.4-1.4 1.4.6 1.4 1.4z" fill="#706e71"/><path d="m24.3 41.7c0 .8-.6 1.4-1.4 1.4s-1.4-.6-1.4-1.4.6-1.4 1.4-1.4 1.4.6 1.4 1.4z" fill="#706e71"/><path d="m27.7 41.7c0 .8-.6 1.4-1.4 1.4s-1.4-.6-1.4-1.4.6-1.4 1.4-1.4 1.4.6 1.4 1.4z" fill="#706e71"/><path d="m31 41.7c0 .8-.6 1.4-1.4 1.4s-1.4-.6-1.4-1.4.6-1.4 1.4-1.4 1.4.6 1.4 1.4z" fill="#706e71"/><path d="m34.4 41.7c0 .8-.6 1.4-1.4 1.4s-1.4-.6-1.4-1.4.6-1.4 1.4-1.4 1.4.6 1.4 1.4z" fill="#706e71"/><path d="m37.7 41.7c0 .8-.6 1.4-1.4 1.4s-1.4-.6-1.4-1.4.6-1.4 1.4-1.4 1.4.6 1.4 1.4z" fill="#706e71"/><path d="m41.1 41.7c0 .8-.6 1.4-1.4 1.4s-1.4-.6-1.4-1.4.6-1.4 1.4-1.4 1.4.6 1.4 1.4z" fill="#706e71"/><path d="m44.5 41.7c0 .8-.6 1.4-1.4 1.4s-1.4-.6-1.4-1.4.6-1.4 1.4-1.4c.7 0 1.4.6 1.4 1.4z" fill="#706e71"/><path d="m47.8 41.7c0 .8-.6 1.4-1.4 1.4s-1.4-.6-1.4-1.4.6-1.4 1.4-1.4 1.4.6 1.4 1.4z" fill="#706e71"/><path d="m51.2 41.7c0 .8-.6 1.4-1.4 1.4s-1.4-.6-1.4-1.4.6-1.4 1.4-1.4c.7 0 1.4.6 1.4 1.4z" fill="#706e71"/><path d="m54.5 41.7c0 .8-.6 1.4-1.4 1.4s-1.4-.6-1.4-1.4.6-1.4 1.4-1.4 1.4.6 1.4 1.4z" fill="#706e71"/><path d="m55.6 41h1.7c.4 0 .6.3.6.7s-.3.7-.6.7h-1.7c-.4 0-.6-.3-.6-.7s.3-.7.6-.7z" fill="#706e71"/><path d="m56 34.7h1.7c.4 0 .6.3.6.7s-.3.7-.6.7h-1.7c-.4 0-.6-.3-.6-.7-.1-.4.2-.7.6-.7z" fill="#706e71"/><path d="m23.6 33.4h1.7c.4 0 .6.3.6.7s-.3.7-.6.7h-1.7c-.4 0-.6-.3-.6-.7s.2-.7.6-.7z" fill="#706e71"/><path d="m1.6 34.7h1.7c.4 0 .6.3.6.7s-.3.7-.6.7h-1.7c-.3-.1-.6-.4-.6-.7 0-.4.3-.7.6-.7z" fill="#706e71"/><path d="m1.6 24.9h1.7c.4 0 .6.3.6.7s-.3.7-.6.7h-1.7c-.4 0-.6-.3-.6-.7s.3-.7.6-.7z" fill="#706e71"/><path d="m52.6 34.7h1.7c.4 0 .6.3.6.7s-.3.7-.6.7h-1.7c-.4 0-.6-.3-.6-.7s.3-.7.6-.7z" fill="#706e71"/><path d="m44.3 34.6h1.7c.4 0 .7.3.7.7s-.3.7-.7.7h-1.7c-.4 0-.7-.3-.7-.7s.4-.7.7-.7z" fill="#706e71"/><path d="m41 34.6h1.7c.4 0 .7.3.7.7s-.4.7-.7.7h-1.7c-.4 0-.7-.3-.7-.7s.3-.7.7-.7z" fill="#f51e1b"/><path d="m47.6 34.6h1.7c.4 0 .7.3.7.7s-.3.7-.7.7h-1.7c-.4 0-.7-.3-.7-.7.1-.4.4-.7.7-.7z" fill="#fff"/><ellipse cx="23.9" cy="24.6" fill="#706e71" rx=".9" ry=".9"/><path d="m44.5 20.1c0 .6-.5 1.1-1.1 1.1s-1.1-.5-1.1-1.1.5-1.1 1.1-1.1 1.1.5 1.1 1.1z" fill="#706e71"/><path d="m24.9 20.1c0 .6-.5 1.1-1.1 1.1s-1.1-.5-1.1-1.1.5-1.1 1.1-1.1 1.1.5 1.1 1.1z" fill="#706e71"/><path d="m49.1 20.1c0 .6-.5 1.1-1.1 1.1s-1.1-.5-1.1-1.1.5-1.1 1.1-1.1 1.1.5 1.1 1.1z" fill="#706e71"/><path d="m53.7 20.1c0 .6-.5 1.1-1.1 1.1s-1.1-.5-1.1-1.1.5-1.1 1.1-1.1 1.1.5 1.1 1.1z" fill="#706e71"/><path d="m58.3 20.1c0 .6-.5 1.1-1.1 1.1s-1.1-.5-1.1-1.1.5-1.1 1.1-1.1 1.1.5 1.1 1.1z" fill="#706e71"/><path d="m44.5 24.7c0 .6-.5 1.1-1.1 1.1s-1.1-.5-1.1-1.1.5-1.1 1.1-1.1 1.1.5 1.1 1.1z" fill="#706e71"/><path d="m6 18.2c0 .6-.5 1.1-1.1 1.1s-1.1-.5-1.1-1.1.5-1.1 1.1-1.1 1.1.5 1.1 1.1z" fill="#706e71"/><path d="m49.1 24.7c0 .6-.5 1.1-1.1 1.1s-1.1-.5-1.1-1.1.5-1.1 1.1-1.1 1.1.5 1.1 1.1z" fill="#706e71"/><path d="m53.7 24.7c0 .6-.5 1.1-1.1 1.1s-1.1-.5-1.1-1.1.5-1.1 1.1-1.1 1.1.5 1.1 1.1z" fill="#706e71"/><path d="m58.3 24.7c0 .6-.5 1.1-1.1 1.1s-1.1-.5-1.1-1.1.5-1.1 1.1-1.1 1.1.5 1.1 1.1z" fill="#706e71"/><path d="m5.1 17.4c0 .1-.1.1-.1.1l-.1-.1c0-.1.1-.1.1-.1s.1 0 .1.1" fill="#fff"/><path d="m36.4 27.8c0 .5-.4.9-.9.9s-.9-.4-.9-.9.4-.9.9-.9.9.5.9.9z" fill="#706e71"/><path d="m29.2 27.9c0 .5-.4.9-.9.9s-.9-.4-.9-.9.4-.9.9-.9.9.5.9.9z" fill="#d0cbd3"/><path d="m29.2 30.6c0 .5-.4.9-.9.9s-.9-.4-.9-.9.4-.9.9-.9.9.5.9.9z" fill="#d0cbd3"/><path d="m36.4 30.7c0 .5-.4.9-.9.9s-.9-.4-.9-.9.4-.9.9-.9.9.4.9.9z" fill="#706e71"/><path d="m33.6 30.7c0 .5-.4.9-.9.9s-.9-.4-.9-.9.4-.9.9-.9.9.4.9.9z" fill="#706e71"/><path d="m37.5 30.7c0-.5.4-.9.9-.9s.9.4.9.9-.4.9-.9.9-.9-.5-.9-.9z" fill="#706e71"/><path d="m8.7 18.1c0 .1-.1.3-.3.3s-.3-.1-.3-.3c0-.1.1-.3.3-.3s.3.2.3.3z" fill="#969695"/><path d="m9.3 19.9c0 .5-.4.9-.9.9s-.9-.4-.9-.9.4-.9.9-.9.9.4.9.9z" fill="#c2c6c9"/><path d="m10.9 18.1c0 .1-.1.3-.3.3s-.3-.1-.3-.3c0-.1.1-.3.3-.3s.3.2.3.3z" fill="#969695"/><path d="m11.5 19.9c0 .5-.4.9-.9.9s-.9-.4-.9-.9.4-.9.9-.9.9.4.9.9z" fill="#c2c6c9"/><path d="m13.1 18.1c0 .1-.1.3-.3.3s-.3-.1-.3-.3c0-.1.1-.3.3-.3s.3.2.3.3z" fill="#969695"/><path d="m13.7 19.9c0 .5-.4.9-.9.9s-.9-.4-.9-.9.4-.9.9-.9.9.4.9.9z" fill="#c2c6c9"/><path d="m15.3 18.1c0 .1-.1.3-.3.3s-.3-.1-.3-.3c0-.1.1-.3.3-.3s.3.2.3.3z" fill="#969695"/><path d="m15.9 19.9c0 .5-.4.9-.9.9s-.9-.4-.9-.9.4-.9.9-.9.9.4.9.9z" fill="#c2c6c9"/><path d="m17.6 18.1c0 .1-.1.3-.3.3s-.3-.1-.3-.3c0-.1.1-.3.3-.3s.3.2.3.3z" fill="#969695"/><path d="m18.2 19.9c0 .5-.4.9-.9.9s-.9-.4-.9-.9.4-.9.9-.9.9.4.9.9z" fill="#c2c6c9"/><path d="m29.3 33.5c0 .1-.1.3-.3.3s-.3-.1-.3-.3c0-.1.1-.3.3-.3s.3.2.3.3z" fill="#969695"/><path d="m29.9 35.3c0 .5-.4.9-.9.9s-.9-.4-.9-.9.4-.9.9-.9.9.4.9.9z" fill="#c2c6c9"/><path d="m31.6 33.5c0 .1-.1.3-.3.3s-.3-.1-.3-.3c0-.1.1-.3.3-.3s.3.2.3.3z" fill="#969695"/><path d="m32.2 35.3c0 .5-.4.9-.9.9s-.9-.4-.9-.9.4-.9.9-.9.9.4.9.9z" fill="#c2c6c9"/><path d="m33.8 33.5c0 .1-.1.3-.3.3s-.3-.1-.3-.3c0-.1.1-.3.3-.3s.3.2.3.3z" fill="#969695"/><path d="m34.4 35.3c0 .5-.4.9-.9.9s-.9-.4-.9-.9.4-.9.9-.9.9.4.9.9z" fill="#c2c6c9"/><path d="m36 33.5c0 .1-.1.3-.3.3s-.3-.1-.3-.3c0-.1.1-.3.3-.3s.3.2.3.3z" fill="#969695"/><path d="m36.6 35.3c0 .5-.4.9-.9.9s-.9-.4-.9-.9.4-.9.9-.9.9.4.9.9z" fill="#c2c6c9"/><path d="m38.2 33.5c0 .1-.1.3-.3.3s-.3-.1-.3-.3c0-.1.1-.3.3-.3s.3.2.3.3z" fill="#969695"/><path d="m38.8 35.3c0 .5-.4.9-.9.9s-.9-.4-.9-.9.4-.9.9-.9.9.4.9.9z" fill="#c2c6c9"/><path d="m43.8 27.4c0 .1-.1.3-.3.3s-.3-.1-.3-.3c0-.1.1-.3.3-.3s.3.2.3.3z" fill="#969695"/><path d="m44.4 29.2c0 .5-.4.9-.9.9s-.9-.4-.9-.9.4-.9.9-.9.9.4.9.9z" fill="#c2c6c9"/><path d="m46.6 27.4c0 .1-.1.3-.3.3s-.3-.1-.3-.3c0-.1.1-.3.3-.3s.3.2.3.3z" fill="#969695"/><path d="m47.2 29.2c0 .5-.4.9-.9.9s-.9-.4-.9-.9.4-.9.9-.9.9.4.9.9z" fill="#c2c6c9"/><path d="m49.4 27.4c0 .1-.1.3-.3.3s-.3-.1-.3-.3c0-.1.1-.3.3-.3s.3.2.3.3z" fill="#969695"/><path d="m50 29.2c0 .5-.4.9-.9.9s-.9-.4-.9-.9.4-.9.9-.9.9.4.9.9z" fill="#c2c6c9"/><path d="m52.2 27.4c0 .1-.1.3-.3.3s-.3-.1-.3-.3c0-.1.1-.3.3-.3s.3.2.3.3z" fill="#969695"/><path d="m52.8 29.2c0 .5-.4.9-.9.9s-.9-.4-.9-.9.4-.9.9-.9.9.4.9.9z" fill="#c2c6c9"/><path d="m55.1 27.4c0 .1-.1.3-.3.3s-.3-.1-.3-.3c0-.1.1-.3.3-.3s.3.2.3.3z" fill="#969695"/><path d="m55.7 29.2c0 .5-.4.9-.9.9s-.9-.4-.9-.9.4-.9.9-.9.9.4.9.9z" fill="#c2c6c9"/><path d="m57.9 27.4c0 .1-.1.3-.3.3s-.3-.1-.3-.3c0-.1.1-.3.3-.3s.3.2.3.3z" fill="#969695"/><path d="m58.5 29.2c0 .5-.4.9-.9.9s-.9-.4-.9-.9.4-.9.9-.9.9.4.9.9z" fill="#c2c6c9"/><path d="m27.9 20.6h11.3v3.6h-11.3z" fill="#e9e9e9"/><path d="m5.5 27.1c-.2 0-.3-.1-.3-.3v-2.7c0-.2.1-.3.3-.3h2.7c.2 0 .3.1.3.3v2.7c0 .2-.1.3-.3.3z" fill="#ccc"/><path d="m10 27.1c-.2 0-.3-.1-.3-.3v-2.7c0-.2.1-.3.3-.3h2.7c.2 0 .3.1.3.3v2.7c0 .2-.1.3-.3.3z" fill="#ccc"/><path d="m14.2 27.1c-.2 0-.3-.1-.3-.3v-2.7c0-.2.1-.3.3-.3h2.7c.2 0 .3.1.3.3v2.7c0 .2-.1.3-.3.3z" fill="#ccc"/><path d="m5.5 32.1c-.2 0-.3-.1-.3-.3v-2.7c0-.2.1-.3.3-.3h2.7c.2 0 .3.1.3.3v2.7c0 .2-.1.3-.3.3z" fill="#ccc"/><path d="m10 32.1c-.2 0-.3-.1-.3-.3v-2.7c0-.2.1-.3.3-.3h2.7c.2 0 .3.1.3.3v2.7c0 .2-.1.3-.3.3z" fill="#ccc"/><path d="m14.2 32.1c-.2 0-.3-.1-.3-.3v-2.7c0-.2.1-.3.3-.3h2.7c.2 0 .3.1.3.3v2.7c0 .2-.1.3-.3.3z" fill="#ccc"/><path d="m9.9 37.1c-.2 0-.3-.1-.3-.3v-2.7c0-.2.1-.3.3-.3h2.7c.2 0 .3.1.3.3v2.7c0 .2-.1.3-.3.3z" fill="#ccc"/><path d="m14.1 37.1c-.2 0-.3-.1-.3-.3v-2.7c0-.2.1-.3.3-.3h2.7c.2 0 .3.1.3.3v2.7c0 .2-.1.3-.3.3z" fill="#ccc"/><path d="m5.5 37.1c-.2 0-.3-.1-.3-.3v-2.7c0-.2.1-.3.3-.3h2.7c.2 0 .3.1.3.3v2.7c0 .2-.1.3-.3.3z" fill="#ffb04d"/><path d="m26.6 18.5v7.4h13.8v-7.4zm12.4 5.7h-11v-3.5h11z" fill="#2c2c2c"/></svg>