<svg enable-background="new 0 0 60 60" height="60" viewBox="0 0 60 60" width="60" xmlns="http://www.w3.org/2000/svg"><path d="m59.7 14.5h-59.4c-.1 0-.3.1-.3.3v30.5c0 .1.1.3.3.3h59.5c.1 0 .3-.1.3-.3v-30.6c-.1-.1-.2-.2-.4-.2z" fill="#af8424"/><path d="m1.6 29.7h1.7c.4 0 .6.3.6.7s-.3.7-.6.7h-1.7c-.4 0-.6-.3-.6-.7s.3-.7.6-.7z" fill="#fff"/><path d="m3.3 29.8c.3 0 .6.3.6.6 0 .4-.3.6-.6.6h-1.7c-.3 0-.6-.2-.6-.6s.3-.6.6-.6zm0-.1h-1.7c-.3 0-.6.3-.6.7s.3.7.6.7h1.7c.4 0 .6-.3.6-.7s-.3-.7-.6-.7z" fill="#fff" opacity=".21"/><path d="m3.3 29.7c.4 0 .6.3.6.7s-.3.7-.6.7h-1.7c-.4 0-.6-.3-.6-.7s.3-.7.6-.7zm0 0h-1.7c-.3 0-.6.3-.6.7s.3.7.7.7h1.7c.4 0 .7-.3.7-.7s-.4-.7-.8-.7z" fill="#151516"/><path d="m8.7 18.2c0 .1-.1.3-.3.3s-.3-.1-.3-.3c0-.1.1-.3.3-.3s.3.2.3.3z" fill="#969695"/><path d="m8.4 18c.1 0 .3.1.3.3 0 .1-.1.3-.3.3s-.3-.1-.3-.3.2-.3.3-.3m0-.1c-.2 0-.3.1-.3.3s.1.3.3.3.3-.1.3-.3c0-.1-.1-.3-.3-.3z"/><path d="m8.6 18.1c0 .1 0 .2-.1.2-.1.1-.1.1-.2.1h.1c.2.1.3 0 .2-.3.1.1 0 .1 0 0z" fill="#969695"/><path d="m11.1 18.2c0 .1-.1.3-.3.3s-.3-.1-.3-.3c0-.1.1-.3.3-.3s.3.2.3.3z" fill="#969695"/><path d="m10.9 18c.1 0 .3.1.3.3 0 .1-.1.3-.3.3s-.3-.1-.3-.3.1-.3.3-.3m0-.1c-.2 0-.3.1-.3.3s.1.3.3.3.3-.1.3-.3c0-.1-.2-.3-.3-.3z"/><path d="m11.1 18.1c0 .1 0 .2-.1.2-.1.1-.1.1-.2.1h.1c.1.1.2 0 .2-.3 0 .1 0 .1 0 0z" fill="#969695"/><path d="m13.6 18.2c0 .1-.1.3-.3.3-.1 0-.3-.1-.3-.3 0-.1.1-.3.3-.3.2.1.3.2.3.3z" fill="#969695"/><path d="m13.3 18c.1 0 .3.1.3.3 0 .1-.1.3-.3.3-.1 0-.3-.1-.3-.3s.2-.3.3-.3m0-.1c-.2 0-.3.1-.3.3s.1.3.3.3.3-.1.3-.3c0-.1-.1-.3-.3-.3z" fill="#969695"/><path d="m13.5 18.1c0 .1 0 .2-.1.2-.1.1-.1.1-.2.1h.1c.2.1.3 0 .2-.3 0 .1 0 .1 0 0z" fill="#969695"/><path d="m16 18.2c0 .1-.1.3-.3.3s-.3-.1-.3-.3c0-.1.1-.3.3-.3s.3.2.3.3z" fill="#969695"/><path d="m15.7 18c.1 0 .3.1.3.3 0 .1-.1.3-.3.3s-.3-.1-.3-.3c.1-.2.2-.3.3-.3m0-.1c-.2 0-.3.1-.3.3s.1.3.3.3.3-.1.3-.3c0-.1-.1-.3-.3-.3z"/><path d="m16 18.1c0 .1 0 .2-.1.2-.1.1-.1.1-.2.1h.1c.1.1.2 0 .2-.3 0 .1 0 .1 0 0z" fill="#969695"/><path d="m18.5 18.2c0 .1-.1.3-.3.3s-.3-.1-.3-.3c0-.1.1-.3.3-.3s.3.2.3.3z" fill="#969695"/><path d="m18.2 18c.1 0 .3.1.3.3 0 .1-.1.3-.3.3s-.3-.1-.3-.3.1-.3.3-.3m0-.1c-.2 0-.3.1-.3.3s.1.3.3.3.3-.1.3-.3c0-.1-.1-.3-.3-.3z"/><path d="m18.4 18.1c0 .1 0 .2-.1.2-.1.1-.1.1-.2.1h.1c.1.1.3 0 .2-.3 0 .1 0 .1 0 0z" fill="#969695"/><path d="m24.2 22.8c0 .1-.1.3-.3.3s-.3-.1-.3-.3.1-.3.3-.3.3.2.3.3z" fill="#969695"/><path d="m23.9 22.5c.1 0 .3.1.3.3s-.1.3-.3.3-.3-.1-.3-.3.1-.3.3-.3m0 0c-.2 0-.3.1-.3.3s.1.3.3.3.3-.1.3-.3c0-.1-.2-.3-.3-.3z" fill="#969695"/><path d="m24.1 22.7c0 .1 0 .2-.1.2-.1.1-.1.1-.2.1h.1c.1.1.2 0 .2-.3 0 .1 0 .1 0 0z" fill="#969695"/><path d="m23.6 22.9c0-.1.1-.3.3-.3.1 0 .2 0 .2.1 0-.1-.1-.2-.2-.2-.2 0-.3.2-.3.4v.1c.1 0 0-.1 0-.1z" fill="#969695"/><path d="m24.7 37c0 .1-.1.3-.3.3s-.3-.1-.3-.3.1-.3.3-.3.3.1.3.3z" fill="#969695"/><path d="m24.4 36.7c.1 0 .3.1.3.3s-.1.3-.3.3-.3-.1-.3-.3.2-.3.3-.3m0 0c-.2 0-.3.1-.3.3s.1.3.3.3.3-.1.3-.3-.1-.3-.3-.3z"/><path d="m24.7 36.9c0 .1 0 .2-.1.2-.1.1-.1.1-.2.1h.1c.1 0 .2-.1.2-.3z" fill="#969695"/><path d="m42.1 33.5c0 .1-.1.3-.3.3s-.3-.1-.3-.3c0-.1.1-.3.3-.3s.3.2.3.3z" fill="#969695"/><path d="m41.8 33.2c.1 0 .3.1.3.3 0 .1-.1.3-.3.3s-.3-.1-.3-.3c0-.1.1-.3.3-.3m0 0c-.2 0-.3.1-.3.3s.1.3.3.3.3-.1.3-.3-.1-.3-.3-.3z" fill="#969695"/><path d="m42 33.4c0 .1 0 .2-.1.2-.1.1-.1.1-.2.1h.1c.1 0 .2-.1.2-.3z" fill="#969695"/><path d="m41.6 33.5c0-.1.1-.3.3-.3.1 0 .2 0 .2.1 0-.1-.1-.2-.2-.2-.2.1-.4.3-.3.4 0 .1 0 .1 0 0z" fill="#969695"/><path d="m3.1 39.4c0 .1-.1.3-.3.3s-.3-.1-.3-.3c0-.1.1-.3.3-.3s.3.2.3.3z" fill="#969695"/><path d="m2.8 39.1c.1 0 .3.1.3.3 0 .1-.1.3-.3.3s-.3-.1-.3-.3c0-.1.2-.3.3-.3m0 0c-.2 0-.3.1-.3.3s.1.3.3.3.3-.1.3-.3-.1-.3-.3-.3z"/><path d="m3 39.3c0 .1 0 .2-.1.2-.1.1-.1.1-.2.1h.1c.2 0 .3-.1.2-.3.1.1.1 0 0 0z" fill="#969695"/><path d="m28 35.4c0 .1-.1.3-.3.3-.1 0-.3-.1-.3-.3 0-.1.1-.3.3-.3.2.1.3.2.3.3z" fill="#969695"/><path d="m27.8 35.2c.1 0 .3.1.3.3 0 .1-.1.3-.3.3-.1 0-.3-.1-.3-.3s.1-.3.3-.3m0-.1c-.2 0-.3.1-.3.3s.1.3.3.3.3-.1.3-.3-.2-.3-.3-.3z"/><path d="m28 35.4c0 .1 0 .2-.1.2-.1.1-.1.1-.2.1h.1c.1 0 .2-.1.2-.3z" fill="#969695"/><path d="m30.9 35.4c0 .1-.1.3-.3.3s-.3-.1-.3-.3c0-.1.1-.3.3-.3s.3.2.3.3z" fill="#969695"/><path d="m30.6 35.2c.1 0 .3.1.3.3 0 .1-.1.3-.3.3s-.3-.1-.3-.3.2-.3.3-.3m0-.1c-.2 0-.3.1-.3.3s.1.3.3.3.3-.1.3-.3-.1-.3-.3-.3z"/><path d="m30.8 35.4c0 .1 0 .2-.1.2-.1.1-.1.1-.2.1h.1c.2 0 .3-.1.2-.3.1 0 .1 0 0 0z" fill="#969695"/><path d="m33.7 35.4c0 .1-.1.3-.3.3-.1 0-.3-.1-.3-.3 0-.1.1-.3.3-.3.2.1.3.2.3.3z" fill="#969695"/><path d="m33.4 35.2c.1 0 .3.1.3.3 0 .1-.1.3-.3.3-.1 0-.3-.1-.3-.3.1-.2.2-.3.3-.3m0-.1c-.2 0-.3.1-.3.3s.1.3.3.3.3-.1.3-.3-.1-.3-.3-.3z"/><path d="m33.7 35.4c0 .1 0 .2-.1.2-.1.1-.1.1-.2.1h.1c.1 0 .2-.1.2-.3z" fill="#969695"/><path d="m36.5 35.4c0 .1-.1.3-.3.3s-.2-.1-.2-.3c0-.1.1-.3.3-.3s.2.2.2.3z" fill="#969695"/><path d="m36.3 35.2c.1 0 .3.1.3.3 0 .1-.1.3-.3.3s-.3-.2-.3-.4c0-.1.1-.2.3-.2m0-.1c-.2 0-.3.1-.3.3s.1.3.3.3.3-.1.3-.3c0-.1-.2-.3-.3-.3z"/><path d="m36.5 35.4c0 .1 0 .2-.1.2-.1.1-.1.1-.2.1h.1c.1 0 .2-.1.2-.3z" fill="#969695"/><path d="m37.6 33.5c0 .1-.1.3-.3.3s-.3-.2-.3-.3.1-.3.3-.3.3.1.3.3z" fill="#969695"/><path d="m37.3 33.2c.1 0 .3.1.3.3 0 .1-.1.3-.3.3s-.3-.2-.3-.3c0-.2.2-.3.3-.3m0 0c-.2 0-.3.1-.3.3s.1.3.3.3.3-.1.3-.3-.1-.3-.3-.3z"/><path d="m37.5 33.4c0 .1 0 .2-.1.2-.1.1-.1.1-.2.1h.1c.2 0 .3-.1.2-.3.1.1 0 0 0 0z" fill="#969695"/><path d="m37.6 34.5c0 .1-.1.3-.3.3s-.3-.1-.3-.3c0-.1.1-.3.3-.3s.3.2.3.3z" fill="#969695"/><path d="m37.3 34.3c.1 0 .3.1.3.3s-.1.3-.3.3-.3-.2-.3-.4.2-.2.3-.2m0 0c-.2 0-.3.1-.3.3s.1.3.3.3.3-.1.3-.3-.1-.3-.3-.3z"/><path d="m37.5 34.5c0 .1 0 .2-.1.2-.1.1-.1.1-.2.1h.1c.2 0 .3-.1.2-.3z" fill="#969695"/><path d="m44.4 27.4c0 .1-.1.3-.3.3-.1 0-.3-.1-.3-.3s.1-.3.3-.3.3.2.3.3z" fill="#969695"/><path d="m44.1 27.1c.1 0 .3.1.3.3s-.1.3-.3.3c-.1 0-.3-.1-.3-.3s.2-.3.3-.3m0 0c-.2 0-.3.1-.3.3s.1.3.3.3.3-.1.3-.3-.1-.3-.3-.3z"/><path d="m44.3 27.3c0 .1 0 .2-.1.2-.1.1-.1.1-.2.1h.1c.1 0 .3-.1.2-.3.1.1 0 .1 0 0z" fill="#969695"/><path d="m46.8 27.4c0 .1-.1.3-.3.3s-.3-.1-.3-.3.1-.3.3-.3.3.2.3.3z" fill="#969695"/><path d="m46.6 27.1c.1 0 .3.1.3.3s-.1.3-.3.3-.3-.1-.3-.3c0-.1.1-.3.3-.3m0 0c-.2 0-.3.1-.3.3s.1.3.3.3.3-.1.3-.3-.2-.3-.3-.3z"/><path d="m46.8 27.3c0 .1 0 .2-.1.2-.1.1-.1.1-.2.1h.1c.1 0 .2-.1.2-.3 0 .1 0 .1 0 0z" fill="#969695"/><path d="m49.3 27.4c0 .1-.1.3-.3.3s-.3-.1-.3-.3.1-.3.3-.3.3.2.3.3z" fill="#969695"/><path d="m49 27.1c.1 0 .3.1.3.3s-.1.3-.3.3-.3-.1-.3-.3.2-.3.3-.3m0 0c-.2 0-.3.1-.3.3s.1.3.3.3.3-.1.3-.3-.1-.3-.3-.3z"/><path d="m49.3 27.3c0 .1 0 .2-.1.2-.1.1-.1.1-.2.1h.1c.1 0 .2-.1.2-.3 0 .1 0 .1 0 0z" fill="#969695"/><path d="m51.8 27.4c0 .1-.1.3-.3.3s-.3-.1-.3-.3.1-.3.3-.3.3.2.3.3z" fill="#969695"/><path d="m51.5 27.1c.1 0 .3.1.3.3s-.1.3-.3.3-.3-.1-.3-.3c0-.1.2-.3.3-.3m0 0c-.2 0-.3.1-.3.3s.1.3.3.3.3-.1.3-.3-.1-.3-.3-.3z"/><path d="m51.7 27.3c0 .1 0 .2-.1.2-.1.1-.1.1-.2.1h.1c.2 0 .3-.1.2-.3.1.1.1.1 0 0z" fill="#969695"/><path d="m54.3 27.4c0 .1-.1.3-.3.3s-.3-.1-.3-.3.1-.3.3-.3.3.2.3.3z" fill="#969695"/><path d="m54 27.1c.1 0 .3.1.3.3s-.1.3-.3.3-.3-.1-.3-.3.1-.3.3-.3m0 0c-.2 0-.3.1-.3.3s.1.3.3.3.3-.1.3-.3-.1-.3-.3-.3z"/><path d="m54.2 27.3c0 .1 0 .2-.1.2-.1.1-.1.1-.2.1h.1c.1 0 .2-.1.2-.3 0 .1 0 .1 0 0z" fill="#969695"/><path d="m56.7 27.4c0 .1-.1.3-.3.3-.1 0-.3-.1-.3-.3s.1-.3.3-.3.3.2.3.3z" fill="#969695"/><path d="m56.5 27.1c.1 0 .3.1.3.3s-.1.3-.3.3c-.1 0-.3-.1-.3-.3s.1-.3.3-.3m0 0c-.2 0-.3.1-.3.3s.1.3.3.3.3-.1.3-.3-.2-.3-.3-.3z"/><path d="m56.7 27.3c0 .1 0 .2-.1.2-.1.1-.1.1-.2.1h.1c.1 0 .2-.1.2-.3 0 .1 0 .1 0 0z" fill="#969695"/><path d="m53.7 33.5c0 .1-.1.3-.3.3s-.3-.1-.3-.3c0-.1.1-.3.3-.3s.3.2.3.3z" fill="#969695"/><path d="m53.5 33.2c.1 0 .3.1.3.3 0 .1-.1.3-.3.3s-.3-.1-.3-.3c0-.1.1-.3.3-.3m0 0c-.2 0-.3.1-.3.3s.1.3.3.3.3-.1.3-.3-.2-.3-.3-.3z"/><path d="m53.7 33.4c0 .1 0 .2-.1.2-.1.1-.1.1-.2.1h.1c.1 0 .2-.1.2-.3z" fill="#969695"/><path d="m57.1 33.5c0 .1-.1.3-.3.3s-.3-.1-.3-.3c0-.1.1-.3.3-.3s.3.2.3.3z" fill="#969695"/><path d="m56.8 33.2c.1 0 .3.1.3.3 0 .1-.1.3-.3.3s-.3-.1-.3-.3c0-.1.2-.3.3-.3m0 0c-.2 0-.3.1-.3.3s.1.3.3.3.3-.1.3-.3-.1-.3-.3-.3z"/><path d="m57 33.4c0 .1 0 .2-.1.2-.1.1-.1.1-.2.1h.1c.2 0 .3-.1.2-.3.1.1 0 0 0 0z" fill="#969695"/><path d="m55.3 39.8c0 .1-.1.3-.3.3s-.3-.1-.3-.3c0-.1.1-.3.3-.3s.3.1.3.3z" fill="#969695"/><path d="m55 39.5c.1 0 .3.1.3.3 0 .1-.1.3-.3.3s-.3-.1-.3-.3.2-.3.3-.3m0 0c-.2 0-.3.1-.3.3s.1.3.3.3.3-.1.3-.3-.1-.3-.3-.3z" fill="#969695"/><path d="m55.2 39.7c0 .1 0 .2-.1.2-.1.1-.1.1-.2.1h.1c.1 0 .3-.1.2-.3z" fill="#969695"/><path d="m54.8 39.8c0-.1.1-.3.3-.3.1 0 .2 0 .2.1 0-.1-.1-.2-.2-.2-.2.1-.4.2-.3.4 0 .1 0 .1 0 0z" fill="#969695"/><path d="m56.2 39.8c0 .1-.1.3-.3.3s-.3-.1-.3-.3c0-.1.1-.3.3-.3s.3.1.3.3z" fill="#969695"/><path d="m56 39.5c.1 0 .3.1.3.3 0 .1-.1.3-.3.3s-.3-.1-.3-.3.1-.3.3-.3m0 0c-.2 0-.3.1-.3.3s.1.3.3.3.3-.1.3-.3-.2-.3-.3-.3z"/><path d="m56.2 39.7c0 .1 0 .2-.1.2-.1.1-.1.1-.2.1h.1c.1 0 .2-.1.2-.3z" fill="#969695"/><path d="m57.2 39.8c0 .1-.1.3-.3.3-.1 0-.3-.1-.3-.3 0-.1.1-.3.3-.3s.3.1.3.3z" fill="#969695"/><path d="m56.9 39.5c.1 0 .3.1.3.3 0 .1-.1.3-.3.3-.1 0-.3-.1-.3-.3.1-.2.2-.3.3-.3m0 0c-.2 0-.3.1-.3.3s.1.3.3.3.3-.1.3-.3-.1-.3-.3-.3z"/><path d="m57.2 39.7c0 .1 0 .2-.1.2-.1.1-.2.1-.3.1h.1c.2 0 .3-.1.3-.3z" fill="#969695"/><path d="m58.2 39.8c0 .1-.1.3-.3.3s-.3-.1-.3-.3c0-.1.1-.3.3-.3s.3.1.3.3z" fill="#969695"/><path d="m57.9 39.5c.1 0 .3.1.3.3 0 .1-.1.3-.3.3s-.3-.1-.3-.3.2-.3.3-.3m0 0c-.2 0-.3.1-.3.3s.1.3.3.3.3-.1.3-.3-.1-.3-.3-.3z"/><path d="m58.1 39.7c0 .1 0 .2-.1.2 0 .1-.1.1-.2.1h.1c.2 0 .3-.1.2-.3.1 0 .1 0 0 0z" fill="#969695"/><path d="m4.2 41.7c0 .8-.6 1.4-1.4 1.4s-1.4-.6-1.4-1.4.6-1.4 1.4-1.4 1.4.6 1.4 1.4z" fill="#706e71"/><path d="m6.5 39.4c0 .1-.1.3-.3.3-.1 0-.3-.1-.3-.3 0-.1.1-.3.3-.3.1 0 .3.2.3.3z" fill="#969695"/><path d="m6.2 39.1c.1 0 .3.1.3.3 0 .1-.1.3-.3.3-.1 0-.3-.1-.3-.3 0-.1.1-.3.3-.3m0 0c-.2 0-.3.1-.3.3s.1.3.3.3.3-.1.3-.3-.2-.3-.3-.3z"/><path d="m6.4 39.3c0 .1 0 .2-.1.2-.1.1-.1.1-.2.1h.1c.1 0 .2-.1.2-.3z" fill="#969695"/><path d="m7.6 41.7c0 .8-.6 1.4-1.4 1.4s-1.4-.6-1.4-1.4.6-1.4 1.4-1.4 1.4.6 1.4 1.4z" fill="#706e71"/><path d="m9.8 39.4c0 .1-.1.3-.3.3-.1 0-.3-.1-.3-.3 0-.1.1-.3.3-.3s.3.2.3.3z" fill="#969695"/><path d="m9.5 39.1c.1 0 .3.1.3.3 0 .1-.1.3-.3.3-.1 0-.3-.1-.3-.3.1-.1.2-.3.3-.3m0 0c-.2 0-.3.1-.3.3s.1.3.3.3.3-.1.3-.3-.1-.3-.3-.3z"/><path d="m9.8 39.3c0 .1 0 .2-.1.2s-.1.1-.2.1h.1c.1 0 .2-.1.2-.3z" fill="#969695"/><path d="m10.9 41.7c0 .8-.6 1.4-1.4 1.4s-1.4-.6-1.4-1.4.6-1.4 1.4-1.4 1.4.6 1.4 1.4z" fill="#706e71"/><path d="m13.2 39.4c0 .1-.1.3-.3.3s-.3-.1-.3-.3c0-.1.1-.3.3-.3s.3.2.3.3z" fill="#969695"/><path d="m12.9 39.1c.1 0 .3.1.3.3 0 .1-.1.3-.3.3s-.3-.1-.3-.3c0-.1.1-.3.3-.3m0 0c-.2 0-.3.1-.3.3s.1.3.3.3.3-.1.3-.3-.2-.3-.3-.3z"/><path d="m13.1 39.3c0 .1 0 .2-.1.2s-.1.1-.2.1h.1c.1 0 .2-.1.2-.3z" fill="#969695"/><path d="m14.3 41.7c0 .8-.6 1.4-1.4 1.4s-1.4-.6-1.4-1.4.6-1.4 1.4-1.4 1.4.6 1.4 1.4z" fill="#706e71"/><path d="m16.5 39.4c0 .1-.1.3-.3.3-.1 0-.3-.1-.3-.3 0-.1.1-.3.3-.3s.3.2.3.3z" fill="#969695"/><path d="m16.2 39.1c.1 0 .3.1.3.3 0 .1-.1.3-.3.3-.1 0-.3-.1-.3-.3.1-.1.2-.3.3-.3m0 0c-.2 0-.3.1-.3.3s.1.3.3.3.3-.1.3-.3-.1-.3-.3-.3z"/><path d="m16.5 39.3c0 .1 0 .2-.1.2-.1.1-.1.1-.2.1h.1c.1 0 .2-.1.2-.3z" fill="#969695"/><path d="m17.6 41.7c0 .8-.6 1.4-1.4 1.4s-1.4-.6-1.4-1.4.6-1.4 1.4-1.4 1.4.6 1.4 1.4z" fill="#706e71"/><path d="m19.9 39.4c0 .1-.1.3-.3.3s-.3-.1-.3-.3c0-.1.1-.3.3-.3s.3.2.3.3z" fill="#969695"/><path d="m19.6 39.1c.1 0 .3.1.3.3 0 .1-.1.3-.3.3s-.3-.1-.3-.3c0-.1.1-.3.3-.3m0 0c-.2 0-.3.1-.3.3s.1.3.3.3.3-.1.3-.3-.1-.3-.3-.3z"/><path d="m19.8 39.3c0 .1 0 .2-.1.2-.1.1-.1.1-.2.1h.1c.1 0 .2-.1.2-.3z" fill="#969695"/><path d="m21 41.7c0 .8-.6 1.4-1.4 1.4s-1.4-.6-1.4-1.4.6-1.4 1.4-1.4 1.4.6 1.4 1.4z" fill="#706e71"/><path d="m23.2 39.4c0 .1-.1.3-.3.3s-.3-.1-.3-.3c0-.1.1-.3.3-.3s.3.2.3.3z" fill="#969695"/><path d="m22.9 39.1c.1 0 .3.1.3.3 0 .1-.1.3-.3.3s-.3-.1-.3-.3c.1-.1.2-.3.3-.3m0 0c-.2 0-.3.1-.3.3s.1.3.3.3.3-.1.3-.3-.1-.3-.3-.3z"/><path d="m23.2 39.3c0 .1 0 .2-.1.2-.1.1-.1.1-.2.1h.1c.1 0 .2-.1.2-.3z" fill="#969695"/><path d="m24.3 41.7c0 .8-.6 1.4-1.4 1.4s-1.4-.6-1.4-1.4.6-1.4 1.4-1.4 1.4.6 1.4 1.4z" fill="#706e71"/><path d="m26.6 39.4c0 .1-.1.3-.3.3s-.3-.2-.3-.3.1-.3.3-.3.3.2.3.3z" fill="#969695"/><path d="m26.3 39.1c.1 0 .3.1.3.3 0 .1-.1.3-.3.3s-.3-.2-.3-.3.1-.3.3-.3m0 0c-.2 0-.3.1-.3.3s.1.3.3.3.3-.1.3-.3-.1-.3-.3-.3z"/><path d="m26.5 39.3c0 .1 0 .2-.1.2-.1.1-.1.1-.2.1h.1c.1 0 .2-.1.2-.3z" fill="#969695"/><path d="m27.7 41.7c0 .8-.6 1.4-1.4 1.4s-1.4-.6-1.4-1.4.6-1.4 1.4-1.4 1.4.6 1.4 1.4z" fill="#706e71"/><path d="m29.9 39.4c0 .1-.1.3-.3.3-.1 0-.3-.1-.3-.3 0-.1.1-.3.3-.3s.3.2.3.3z" fill="#969695"/><path d="m29.6 39.1c.1 0 .3.1.3.3 0 .1-.1.3-.3.3-.1 0-.3-.1-.3-.3.1-.1.2-.3.3-.3m0 0c-.2 0-.3.1-.3.3s.1.3.3.3.3-.1.3-.3-.1-.3-.3-.3z"/><path d="m29.9 39.3c0 .1 0 .2-.1.2-.1.1-.1.1-.2.1h.1c.1 0 .2-.1.2-.3z" fill="#969695"/><path d="m31 41.7c0 .8-.6 1.4-1.4 1.4s-1.4-.6-1.4-1.4.6-1.4 1.4-1.4 1.4.6 1.4 1.4z" fill="#706e71"/><path d="m33.3 39.4c0 .1-.1.3-.3.3s-.3-.1-.3-.3c0-.1.1-.3.3-.3s.3.2.3.3z" fill="#969695"/><path d="m33 39.1c.1 0 .3.1.3.3 0 .1-.1.3-.3.3s-.3-.1-.3-.3c0-.1.2-.3.3-.3m0 0c-.2 0-.3.1-.3.3s.1.3.3.3.3-.1.3-.3-.1-.3-.3-.3z"/><path d="m33.2 39.3c0 .1 0 .2-.1.2-.1.1-.1.1-.2.1h.1c.1 0 .3-.1.2-.3z" fill="#969695"/><path d="m34.4 41.7c0 .8-.6 1.4-1.4 1.4s-1.4-.6-1.4-1.4.6-1.4 1.4-1.4 1.4.6 1.4 1.4z" fill="#706e71"/><path d="m36.6 39.4c0 .1-.1.3-.3.3s-.3-.1-.3-.3c0-.1.1-.3.3-.3s.3.2.3.3z" fill="#969695"/><path d="m36.4 39.1c.1 0 .3.1.3.3 0 .1-.1.3-.3.3s-.3-.1-.3-.3c0-.1.1-.3.3-.3m0 0c-.2 0-.3.1-.3.3s.1.3.3.3.3-.1.3-.3c-.1-.2-.2-.3-.3-.3z"/><path d="m36.6 39.3c0 .1 0 .2-.1.2-.1.1-.1.1-.2.1h.1c.1 0 .2-.1.2-.3z" fill="#969695"/><path d="m37.7 41.7c0 .8-.6 1.4-1.4 1.4s-1.4-.6-1.4-1.4.6-1.4 1.4-1.4 1.4.6 1.4 1.4z" fill="#706e71"/><path d="m40 39.4c0 .1-.1.3-.3.3s-.3-.1-.3-.3c0-.1.1-.3.3-.3s.3.2.3.3z" fill="#969695"/><path d="m39.7 39.1c.1 0 .3.1.3.3 0 .1-.1.3-.3.3s-.3-.1-.3-.3c0-.1.1-.3.3-.3m0 0c-.2 0-.3.1-.3.3s.1.3.3.3.3-.1.3-.3-.1-.3-.3-.3z"/><path d="m39.9 39.3c0 .1 0 .2-.1.2-.1.1-.1.1-.2.1h.1c.1 0 .3-.1.2-.3.1.1 0 0 0 0z" fill="#969695"/><path d="m41.1 41.7c0 .8-.6 1.4-1.4 1.4s-1.4-.6-1.4-1.4.6-1.4 1.4-1.4 1.4.6 1.4 1.4z" fill="#706e71"/><path d="m43.3 39.4c0 .1-.1.3-.3.3s-.3-.1-.3-.3c0-.1.1-.3.3-.3s.3.2.3.3z" fill="#969695"/><path d="m43 39.1c.1 0 .3.1.3.3 0 .1-.1.3-.3.3s-.3-.1-.3-.3c.1-.1.2-.3.3-.3m0 0c-.2 0-.3.1-.3.3s.1.3.3.3.3-.1.3-.3-.1-.3-.3-.3z"/><path d="m43.3 39.3c0 .1 0 .2-.1.2-.1.1-.1.1-.2.1h.1c.1 0 .2-.1.2-.3z" fill="#969695"/><path d="m44.5 41.7c0 .8-.6 1.4-1.4 1.4s-1.4-.6-1.4-1.4.6-1.4 1.4-1.4c.7 0 1.4.6 1.4 1.4z" fill="#706e71"/><path d="m46.7 39.4c0 .1-.1.3-.3.3s-.3-.1-.3-.3c0-.1.1-.3.3-.3s.3.2.3.3z" fill="#969695"/><path d="m46.4 39.1c.1 0 .3.1.3.3 0 .1-.1.3-.3.3s-.3-.1-.3-.3c0-.1.2-.3.3-.3m0 0c-.2 0-.3.1-.3.3s.1.3.3.3.3-.1.3-.3-.1-.3-.3-.3z"/><path d="m46.6 39.3c0 .1 0 .2-.1.2s-.1.1-.2.1h.1c.1 0 .3-.1.2-.3z" fill="#969695"/><path d="m47.8 41.7c0 .8-.6 1.4-1.4 1.4s-1.4-.6-1.4-1.4.6-1.4 1.4-1.4 1.4.6 1.4 1.4z" fill="#706e71"/><path d="m50 39.4c0 .1-.1.3-.3.3s-.3-.1-.3-.3c0-.1.1-.3.3-.3s.3.2.3.3z" fill="#969695"/><path d="m49.8 39.1c.1 0 .3.1.3.3 0 .1-.1.3-.3.3s-.3-.1-.3-.3c0-.1.1-.3.3-.3m0 0c-.2 0-.3.1-.3.3s.1.3.3.3.3-.1.3-.3-.2-.3-.3-.3z"/><path d="m50 39.3c0 .1 0 .2-.1.2-.1.1-.1.1-.2.1h.1c.1 0 .2-.1.2-.3z" fill="#969695"/><path d="m51.2 41.7c0 .8-.6 1.4-1.4 1.4s-1.4-.6-1.4-1.4.6-1.4 1.4-1.4c.7 0 1.4.6 1.4 1.4z" fill="#706e71"/><path d="m53.4 39.4c0 .1-.1.3-.3.3s-.3-.1-.3-.3c0-.1.1-.3.3-.3s.3.2.3.3z" fill="#969695"/><path d="m53.1 39.1c.1 0 .3.1.3.3 0 .1-.1.3-.3.3s-.3-.1-.3-.3c0-.1.2-.3.3-.3m0 0c-.2 0-.3.1-.3.3s.1.3.3.3.3-.1.3-.3-.1-.3-.3-.3z"/><path d="m53.3 39.3c0 .1 0 .2-.1.2-.1.1-.1.1-.2.1h.1c.2 0 .3-.1.2-.3.1.1 0 0 0 0z" fill="#969695"/><path d="m54.5 41.7c0 .8-.6 1.4-1.4 1.4s-1.4-.6-1.4-1.4.6-1.4 1.4-1.4 1.4.6 1.4 1.4z" fill="#706e71"/><path d="m55.6 41h1.7c.4 0 .6.3.6.7s-.3.7-.6.7h-1.7c-.4 0-.6-.3-.6-.7s.3-.7.6-.7z" fill="#706e71"/><path d="m56 34.7h1.7c.4 0 .6.3.6.7s-.3.7-.6.7h-1.7c-.4 0-.6-.3-.6-.7-.1-.4.2-.7.6-.7z" fill="#706e71"/><path d="m23.6 33.4h1.7c.4 0 .6.3.6.7s-.3.7-.6.7h-1.7c-.4 0-.6-.3-.6-.7s.2-.7.6-.7z" fill="#706e71"/><path d="m1.6 34.7h1.7c.4 0 .6.3.6.7s-.3.7-.6.7h-1.7c-.3-.1-.6-.4-.6-.7 0-.4.3-.7.6-.7z" fill="#706e71"/><path d="m1.6 24.9h1.7c.4 0 .6.3.6.7s-.3.7-.6.7h-1.7c-.4 0-.6-.3-.6-.7s.3-.7.6-.7z" fill="#706e71"/><path d="m52.6 34.7h1.7c.4 0 .6.3.6.7s-.3.7-.6.7h-1.7c-.4 0-.6-.3-.6-.7s.3-.7.6-.7z" fill="#706e71"/><path d="m44.3 34.6h1.7c.4 0 .7.3.7.7s-.3.7-.7.7h-1.7c-.4 0-.7-.3-.7-.7s.4-.7.7-.7z" fill="#706e71"/><path d="m46 34.6c.4 0 .7.3.7.7s-.3.7-.7.7h-1.7c-.4 0-.7-.3-.7-.7s.3-.7.7-.7zm0 0h-1.7c-.4 0-.7.3-.7.7s.4.7.7.7h1.7c.4 0 .7-.3.7-.7s-.3-.7-.7-.7z" fill="#262421"/><path d="m41 34.6h1.7c.4 0 .7.3.7.7s-.4.7-.7.7h-1.7c-.4 0-.7-.3-.7-.7s.3-.7.7-.7z" fill="#f51e1b"/><path d="m47.6 34.6h1.7c.4 0 .7.3.7.7s-.3.7-.7.7h-1.7c-.4 0-.7-.3-.7-.7.1-.4.4-.7.7-.7z" fill="#fff"/><path d="m49.3 34.6c.4 0 .7.3.7.7s-.3.7-.7.7h-1.7c-.4 0-.7-.3-.7-.7s.3-.7.7-.7zm0 0h-1.7c-.4 0-.7.3-.7.7s.3.7.7.7h1.7c.4 0 .7-.3.7-.7s-.3-.7-.7-.7z" fill="#262421"/><ellipse cx="46.6" cy="29.3" fill="#706e71" rx=".9" ry=".9"/><ellipse cx="27.8" cy="37" fill="#706e71" rx=".9" ry=".9"/><ellipse cx="30.6" cy="37" fill="#706e71" rx=".9" ry=".9"/><ellipse cx="33.4" cy="37" fill="#706e71" rx=".9" ry=".9"/><ellipse cx="36.3" cy="37" fill="#706e71" rx=".9" ry=".9"/><ellipse cx="23.9" cy="24.6" fill="#706e71" rx=".9" ry=".9"/><ellipse cx="49" cy="29.3" fill="#706e71" rx=".9" ry=".9"/><ellipse cx="51.5" cy="29.3" fill="#706e71" rx=".9" ry=".9"/><ellipse cx="54" cy="29.3" fill="#706e71" rx=".9" ry=".9"/><ellipse cx="56.5" cy="29.3" fill="#706e71" rx=".9" ry=".9"/><path d="m45 29.3c0 .5-.4.9-.9.9s-.9-.4-.9-.9.4-.9.9-.9.9.4.9.9z" fill="#c2c6c9"/><path d="m44.1 28.5c.4 0 .8.4.8.8s-.4.8-.8.8-.8-.4-.8-.8c0-.5.4-.8.8-.8m0-.1c-.5 0-.9.4-.9.9s.4.9.9.9.9-.4.9-.9-.4-.9-.9-.9z" fill="#8f8f8f" opacity=".21"/><path d="m44.1 28.4c.5 0 .9.4.9.9s-.4.9-.9.9-.9-.4-.9-.9c.1-.5.4-.9.9-.9m0 0c-.5 0-.9.4-.9.9s.4.9.9.9.9-.4.9-.9-.4-.9-.9-.9z" fill="#8f8f8f" opacity=".21"/><path d="m44.5 20.1c0 .6-.5 1.1-1.1 1.1s-1.1-.5-1.1-1.1.5-1.1 1.1-1.1 1.1.5 1.1 1.1z" fill="#706e71"/><path d="m24.9 20.1c0 .6-.5 1.1-1.1 1.1s-1.1-.5-1.1-1.1.5-1.1 1.1-1.1 1.1.5 1.1 1.1z" fill="#706e71"/><path d="m49.1 20.1c0 .6-.5 1.1-1.1 1.1s-1.1-.5-1.1-1.1.5-1.1 1.1-1.1 1.1.5 1.1 1.1z" fill="#706e71"/><path d="m53.7 20.1c0 .6-.5 1.1-1.1 1.1s-1.1-.5-1.1-1.1.5-1.1 1.1-1.1 1.1.5 1.1 1.1z" fill="#706e71"/><path d="m58.3 20.1c0 .6-.5 1.1-1.1 1.1s-1.1-.5-1.1-1.1.5-1.1 1.1-1.1 1.1.5 1.1 1.1z" fill="#706e71"/><path d="m44.5 24.7c0 .6-.5 1.1-1.1 1.1s-1.1-.5-1.1-1.1.5-1.1 1.1-1.1 1.1.5 1.1 1.1z" fill="#706e71"/><path d="m6 18.2c0 .6-.5 1.1-1.1 1.1s-1.1-.5-1.1-1.1.5-1.1 1.1-1.1 1.1.5 1.1 1.1z" fill="#706e71"/><path d="m49.1 24.7c0 .6-.5 1.1-1.1 1.1s-1.1-.5-1.1-1.1.5-1.1 1.1-1.1 1.1.5 1.1 1.1z" fill="#706e71"/><path d="m53.7 24.7c0 .6-.5 1.1-1.1 1.1s-1.1-.5-1.1-1.1.5-1.1 1.1-1.1 1.1.5 1.1 1.1z" fill="#706e71"/><path d="m58.3 24.7c0 .6-.5 1.1-1.1 1.1s-1.1-.5-1.1-1.1.5-1.1 1.1-1.1 1.1.5 1.1 1.1z" fill="#706e71"/><path d="m5.1 17.4c0 .1-.1.1-.1.1l-.1-.1c0-.1.1-.1.1-.1s.1 0 .1.1" fill="#fff"/><path d="m36.4 27.8c0 .5-.4.9-.9.9s-.9-.4-.9-.9.4-.9.9-.9.9.5.9.9z" fill="#706e71"/><path d="m36.4 30.7c0 .5-.4.9-.9.9s-.9-.4-.9-.9.4-.9.9-.9.9.4.9.9z" fill="#706e71"/><path d="m33.6 30.7c0 .5-.4.9-.9.9s-.9-.4-.9-.9.4-.9.9-.9.9.4.9.9z" fill="#706e71"/><path d="m29.7 27.8c0 .5-.4.9-.9.9s-.9-.4-.9-.9.4-.9.9-.9c.5.1.9.5.9.9z" fill="#c2c6c9"/><path d="m28.8 27c.4 0 .8.4.8.8s-.4.8-.8.8-.8-.4-.8-.8.4-.8.8-.8m0 0c-.5 0-.9.4-.9.9s.4.9.9.9.9-.4.9-.9-.4-.9-.9-.9z" fill="#8f8f8f" opacity=".21"/><path d="m28.8 27c.5 0 .9.4.9.9s-.4.9-.9.9-.9-.4-.9-.9.5-.9.9-.9m0 0c-.5 0-.9.4-.9.9s.4.9.9.9.9-.4.9-.9-.4-.9-.9-.9z" fill="#262421"/><path d="m29.7 30.7c0 .5-.4.9-.9.9s-.9-.4-.9-.9.4-.9.9-.9.9.4.9.9z" fill="#c2c6c9"/><path d="m28.9 29.9c.4 0 .8.4.8.8s-.4.8-.8.8-.8-.4-.8-.8c-.1-.5.3-.8.8-.8m0-.1c-.5 0-.9.4-.9.9s.4.9.9.9.9-.4.9-.9c-.1-.5-.5-.9-.9-.9z" fill="#8f8f8f" opacity=".21"/><path d="m28.9 29.8c.5 0 .9.4.9.9s-.4.9-.9.9-.9-.4-.9-.9.4-.9.9-.9m0 0c-.5 0-.9.4-.9.9s.4.9.9.9.9-.4.9-.9c-.1-.5-.5-.9-.9-.9z" fill="#262421"/><path d="m37.5 30.7c0-.5.4-.9.9-.9s.9.4.9.9-.4.9-.9.9-.9-.5-.9-.9z" fill="#706e71"/><path d="m19.1 20.1c0 .5-.4.9-.9.9s-.9-.4-.9-.9.4-.9.9-.9.9.4.9.9z" fill="#c2c6c9"/><path d="m18.2 19.3c.4 0 .8.4.8.8s-.4.8-.8.8-.8-.4-.8-.8c0-.5.3-.8.8-.8m0-.1c-.5 0-.9.4-.9.9s.4.9.9.9.9-.4.9-.9-.4-.9-.9-.9z" fill="#8f8f8f" opacity=".21"/><path d="m18.2 19.2c.5 0 .9.4.9.9s-.4.9-.9.9-.9-.4-.9-.9.4-.9.9-.9m0 0c-.5 0-.9.4-.9.9s.4.9.9.9.9-.4.9-.9-.4-.9-.9-.9z" fill="#262421"/><path d="m16.6 20.1c0 .5-.4.9-.9.9s-.9-.4-.9-.9.4-.9.9-.9.9.4.9.9z" fill="#c2c6c9"/><path d="m15.7 19.3c.4 0 .8.4.8.8s-.4.8-.8.8-.8-.4-.8-.8c0-.5.4-.8.8-.8m0-.1c-.5 0-.9.4-.9.9s.4.9.9.9.9-.4.9-.9-.4-.9-.9-.9z" fill="#8f8f8f" opacity=".21"/><path d="m15.7 19.2c.5 0 .9.4.9.9s-.4.9-.9.9-.9-.4-.9-.9c.1-.5.5-.9.9-.9m0 0c-.5 0-.9.4-.9.9s.4.9.9.9.9-.4.9-.9-.4-.9-.9-.9z" fill="#262421"/><path d="m14.2 20.1c0 .5-.4.9-.9.9s-.9-.4-.9-.9.4-.9.9-.9.9.4.9.9z" fill="#c2c6c9"/><path d="m13.3 19.3c.4 0 .8.4.8.8s-.4.8-.8.8-.8-.4-.8-.8c0-.5.4-.8.8-.8m0-.1c-.5 0-.9.4-.9.9s.4.9.9.9.9-.4.9-.9-.4-.9-.9-.9z" fill="#8f8f8f" opacity=".21"/><path d="m13.3 19.2c.5 0 .9.4.9.9s-.4.9-.9.9-.9-.4-.9-.9.4-.9.9-.9m0 0c-.5 0-.9.4-.9.9s.4.9.9.9.9-.4.9-.9-.4-.9-.9-.9z" fill="#262421"/><path d="m11.7 20.1c0 .5-.4.9-.9.9s-.9-.4-.9-.9.4-.9.9-.9.9.4.9.9z" fill="#c2c6c9"/><path d="m10.9 19.3c.4 0 .8.4.8.8s-.4.8-.8.8-.8-.4-.8-.8c0-.5.3-.8.8-.8m0-.1c-.5 0-.9.4-.9.9s.4.9.9.9.9-.4.9-.9c-.1-.5-.5-.9-.9-.9z" fill="#8f8f8f" opacity=".21"/><path d="m10.9 19.2c.5 0 .9.4.9.9s-.4.9-.9.9-.9-.4-.9-.9.4-.9.9-.9m0 0c-.5 0-.9.4-.9.9s.4.9.9.9.9-.4.9-.9c-.1-.5-.4-.9-.9-.9z" fill="#262421"/><path d="m9.3 20.1c0 .5-.4.9-.9.9s-.9-.4-.9-.9.4-.9.9-.9.9.4.9.9z" fill="#706e71"/><path d="m8.4 19.2c.5 0 .9.4.9.9s-.4.9-.9.9-.9-.4-.9-.9.4-.9.9-.9m0 0c-.5 0-.9.4-.9.9s.4.9.9.9.9-.4.9-.9-.4-.9-.9-.9z" fill="#262421"/><path d="m34.1 18.9h-2v1.5h2zm-4.5.2h-1.6v1.1h1.7v-1.1zm-1.7 5.4v.8h8.2v-.8z" fill="#d9d8d6"/><path d="m27.9 20.6h11.3v3.6h-11.3z" fill="#e9e9e9"/><g fill="#ccc"><path d="m9.8 27.1c-.2 0-.3-.1-.3-.3v-2.7c0-.2.1-.3.3-.3h2.7c.2 0 .3.1.3.3v2.7c0 .2-.1.3-.3.3z"/><path d="m12.5 23.9c.1 0 .2.1.2.2v2.7c0 .1-.1.2-.2.2h-2.7c-.1 0-.2-.1-.2-.2v-2.7c0-.1.1-.2.2-.2zm0-.1h-2.7c-.2 0-.3.1-.3.3v2.7c0 .2.1.3.3.3h2.7c.2 0 .3-.1.3-.3v-2.7c0-.2-.2-.3-.3-.3z"/><path d="m14 27.1c-.2 0-.3-.1-.3-.3v-2.7c0-.2.1-.3.3-.3h2.7c.2 0 .3.1.3.3v2.7c0 .2-.1.3-.3.3z"/><path d="m16.7 23.9c.1 0 .2.1.2.2v2.7c0 .1-.1.2-.2.2h-2.7c-.1 0-.2-.1-.2-.2v-2.7c0-.1.1-.2.2-.2zm0-.1h-2.7c-.2 0-.3.1-.3.3v2.7c0 .2.1.3.3.3h2.7c.2 0 .3-.1.3-.3v-2.7c0-.2-.1-.3-.3-.3z"/><path d="m18.2 27.1c-.2 0-.3-.1-.3-.3v-2.7c0-.2.1-.3.3-.3h2.7c.2 0 .3.1.3.3v2.7c0 .2-.1.3-.3.3z"/><path d="m20.9 23.9c.1 0 .2.1.2.2v2.7c0 .1-.1.2-.2.2h-2.7c-.1 0-.2-.1-.2-.2v-2.7c0-.1.1-.2.2-.2zm0-.1h-2.7c-.2 0-.3.1-.3.3v2.7c0 .2.1.3.3.3h2.7c.2 0 .3-.1.3-.3v-2.7c.1-.2-.1-.3-.3-.3z"/><path d="m5.5 27.1c-.2 0-.3-.1-.3-.3v-2.7c0-.2.1-.3.3-.3h2.7c.2 0 .3.1.3.3v2.7c0 .2-.1.3-.3.3z"/><path d="m8.2 23.9c.1 0 .2.1.2.2v2.7c0 .1-.1.2-.2.2h-2.7c-.1 0-.2-.1-.2-.2v-2.7c0-.1.1-.2.2-.2zm0-.1h-2.7c-.2 0-.3.1-.3.3v2.7c0 .2.1.3.3.3h2.7c.2 0 .3-.1.3-.3v-2.7c.1-.2-.1-.3-.3-.3z"/><path d="m9.8 32c-.2 0-.3-.1-.3-.3v-2.7c0-.2.1-.3.3-.3h2.7c.2 0 .3.1.3.3v2.7c0 .2-.1.3-.3.3z"/><path d="m12.5 28.8c.1 0 .2.1.2.2v2.7c0 .1-.1.2-.2.2h-2.7c-.1 0-.2-.1-.2-.2v-2.7c0-.1.1-.2.2-.2zm0-.1h-2.7c-.2 0-.3.1-.3.3v2.7c0 .2.1.3.3.3h2.7c.2 0 .3-.1.3-.3v-2.7c0-.1-.2-.3-.3-.3z"/><path d="m14 32c-.2 0-.3-.1-.3-.3v-2.7c0-.2.1-.3.3-.3h2.7c.2 0 .3.1.3.3v2.7c0 .2-.1.3-.3.3z"/><path d="m16.7 28.8c.1 0 .2.1.2.2v2.7c0 .1-.1.2-.2.2h-2.7c-.1 0-.2-.1-.2-.2v-2.7c0-.1.1-.2.2-.2zm0-.1h-2.7c-.2 0-.3.1-.3.3v2.7c0 .2.1.3.3.3h2.7c.2 0 .3-.1.3-.3v-2.7c0-.1-.1-.3-.3-.3z"/><path d="m18.2 32c-.2 0-.3-.1-.3-.3v-2.7c0-.2.1-.3.3-.3h2.7c.2 0 .3.1.3.3v2.7c0 .2-.1.3-.3.3z"/><path d="m20.9 28.8c.1 0 .2.1.2.2v2.7c0 .1-.1.2-.2.2h-2.7c-.1 0-.2-.1-.2-.2v-2.7c0-.1.1-.2.2-.2zm0-.1h-2.7c-.2 0-.3.1-.3.3v2.7c0 .2.1.3.3.3h2.7c.2 0 .3-.1.3-.3v-2.7c.1-.1-.1-.3-.3-.3z"/><path d="m5.5 32c-.2 0-.3-.1-.3-.3v-2.7c0-.2.1-.3.3-.3h2.7c.2 0 .3.1.3.3v2.7c0 .2-.1.3-.3.3z"/><path d="m8.2 28.8c.1 0 .2.1.2.2v2.7c0 .1-.1.2-.2.2h-2.7c-.1 0-.2-.1-.2-.2v-2.7c0-.1.1-.2.2-.2zm0-.1h-2.7c-.2 0-.3.1-.3.3v2.7c0 .2.1.3.3.3h2.7c.2 0 .3-.1.3-.3v-2.7c.1-.1-.1-.3-.3-.3z"/><path d="m9.8 37c-.2 0-.3-.1-.3-.3v-2.7c0-.2.1-.3.3-.3h2.7c.2 0 .3.1.3.3v2.7c0 .2-.1.3-.3.3z"/><path d="m12.5 33.8c.1 0 .2.1.2.2v2.7c0 .1-.1.2-.2.2h-2.7c-.1 0-.2-.1-.2-.2v-2.7c0-.1.1-.2.2-.2zm0-.1h-2.7c-.2 0-.3.1-.3.3v2.7c0 .2.1.3.3.3h2.7c.2 0 .3-.1.3-.3v-2.7c0-.2-.2-.3-.3-.3z"/><path d="m14 37c-.2 0-.3-.1-.3-.3v-2.7c0-.2.1-.3.3-.3h2.7c.2 0 .3.1.3.3v2.7c0 .2-.1.3-.3.3z"/><path d="m16.7 33.8c.1 0 .2.1.2.2v2.7c0 .1-.1.2-.2.2h-2.7c-.1 0-.2-.1-.2-.2v-2.7c0-.1.1-.2.2-.2zm0-.1h-2.7c-.2 0-.3.1-.3.3v2.7c0 .2.1.3.3.3h2.7c.2 0 .3-.1.3-.3v-2.7c0-.2-.1-.3-.3-.3z"/><path d="m18.2 37c-.2 0-.3-.1-.3-.3v-2.7c0-.2.1-.3.3-.3h2.7c.2 0 .3.1.3.3v2.7c0 .2-.1.3-.3.3z"/><path d="m20.9 33.8c.1 0 .2.1.2.2v2.7c0 .1-.1.2-.2.2h-2.7c-.1 0-.2-.1-.2-.2v-2.7c0-.1.1-.2.2-.2zm0-.1h-2.7c-.2 0-.3.1-.3.3v2.7c0 .2.1.3.3.3h2.7c.2 0 .3-.1.3-.3v-2.7c.1-.2-.1-.3-.3-.3z"/></g><path d="m5.5 37c-.2 0-.3-.1-.3-.3v-2.7c0-.2.1-.3.3-.3h2.7c.2 0 .3.1.3.3v2.7c0 .2-.1.3-.3.3z" fill="#ffb04d"/><path d="m8.2 33.8c.1 0 .2.1.2.2v2.7c0 .1-.1.2-.2.2h-2.7c-.1 0-.2-.1-.2-.2v-2.7c0-.1.1-.2.2-.2zm0-.1h-2.7c-.2 0-.3.1-.3.3v2.7c0 .2.1.3.3.3h2.7c.2 0 .3-.1.3-.3v-2.7c.1-.2-.1-.3-.3-.3z" fill="#ffb04d"/><path d="m26.7 18.5v7.4h13.8v-7.4zm12.4 5.7h-11v-3.5h11z" fill="#2c2c2c"/></svg>