<svg height="60" width="60" xmlns="http://www.w3.org/2000/svg"><path d="m.57 48.37c-.66.35-.9.67.16 1.38 7.27 4.8 15.87 7.2 23.14 8.15.85.1 1.2-.28 1.32-.7.4-1.6 2.5-7.78 2.97-9.5.4-1.37 1.2-2.25 2.25-3 1.06-.8 9.74-7.2 10.6-7.7.93-.58 1.28-2.2-1.05-1.73-2.25.46-5 .65-6.82.85-1.65.17-1.78-1.84-1.43-2.8.2-.56-.6-.98-.95-1.1-.5-.16-2.3-.24-2.3-.24s-.9.4-2.22-.02c-1.3-.4-1.93-.7-2.72.7-.8 1.37-2.23 4.04-2.74 5.04-.52 1-1.22 1.56-2.12 1.95-.92.4-15.56 7.38-18.1 8.72zm50.86-43.67c-.05-.15-.13-.05-.15-.13 0-.03.05-.07.1-.15.2-.27-.04-.58 0-.8.05-.24-.02-.18-.2-.17-.2 0-.23-.05-.46.02-.25.07-.24.13-.44.2-.2.05-.16.15-.05.25.2.18.1.54.43.68.15.07.16 0 .2.1 0 .02-.1.07-.07.15.05.2.68.03.63-.15zm-.05.63-.16-.48-.16.05.15.47zm1.54-1.03c-.04-.15-.13-.04-.15-.13 0-.03.05-.07.1-.15.2-.26-.04-.58 0-.8.06-.24-.02-.18-.2-.17-.2 0-.23-.05-.46.02-.24.07-.23.14-.42.2-.2.05-.17.15-.06.25.2.2.1.54.44.7.14.05.15 0 .18.07 0 .02-.08.07-.06.16.06.2.7.02.64-.16zm-.05.64-.16-.48-.15.04.15.47zm1.5-1.04c-.05-.16-.13-.06-.16-.15 0-.02.07-.07.12-.14.2-.26-.04-.58 0-.8.05-.23-.02-.17-.2-.16-.2 0-.24-.05-.46 0-.26.1-.25.15-.44.2-.2.07-.16.17-.05.27.2.2.1.54.43.7.15.06.16 0 .2.08 0 .03-.1.07-.07.16.06.2.7.03.64-.15zm-.06.62-.14-.48-.17.04.15.48zm1.69-1.17c-.04-.16-.12-.05-.14-.14 0-.02.05-.06.1-.14.2-.27-.04-.58 0-.8.05-.24-.02-.18-.2-.17-.2 0-.24-.06-.46 0-.26.08-.24.15-.44.2-.2.06-.16.16-.05.26.2.18.1.54.44.7.15.05.16 0 .2.08 0 .02-.1.07-.07.16.06.2.7.02.64-.15zm-.04.63-.16-.48-.17.04.15.47z"/><path d="m23.65 39.28s2.97 2.2 3.23 2.44c.1.1.17.23.05.38-.24.32-1.62 2.18-1.62 2.18l-1.4 2.26 1.53 1.2s14.9-10.8 15.5-11.18c.6-.4.5-1.12-.46-.97-1.05.16-6.37 1.14-7.63 1.36-1.4.25-1.85-.27-1.85-.27s-.95 1.24-1.35 1.74c-.22.28-.38.3-.6.15-.3-.24-3.12-2.33-3.12-2.33l-2.28 3zm-5.7 4.47c.2-.25.42-.4.5-.34l4.86 3.65c.1.06 0 .32-.18.58-.2.25-.4.4-.5.34l-4.86-3.64c-.08-.06 0-.32.2-.58zm1.89-1.79c.15-.2.44-.25.64-.1l3.55 2.67c.2.15.25.44.1.64-.16.2-.44.25-.65.1l-3.55-2.67c-.2-.15-.24-.44-.1-.64zm.91-1.36 1.44-1.9c.05-.1.18-.12.27-.05l4.2 3.15c.08.06.1.2.04.28l-1.43 1.9c-.06.1-.2.1-.28.05l-4.2-3.15c-.1-.07-.1-.2-.05-.28z" fill="#fff"/><path d="m21.3 40.88 1.3-1.76c.04-.05.12-.06.17-.02l3.38 2.53c.05.04.06.1.02.17l-1.3 1.76c-.05.05-.13.06-.18.02l-3.4-2.53c-.04-.04-.05-.12 0-.17zm27-35.23c-.04-.16-.12-.05-.14-.14 0-.02.05-.06.1-.14.2-.27-.04-.58 0-.8.05-.24-.02-.18-.2-.17-.2 0-.23-.05-.46 0-.25.08-.24.15-.44.2-.2.06-.16.16-.05.26.2.2.12.54.44.7.15.05.16 0 .2.08 0 .03-.1.07-.07.16.06.2.7.03.64-.15zm-.04.63-.16-.48-.16.04.15.47z"/><circle cx="22.033" cy="40.801" fill="#fff" r=".226"/><circle cx="22.523" cy="41.169" fill="#fff" r=".226"/><circle cx="23.045" cy="41.56" fill="#fff" r=".225"/><circle cx="23.604" cy="41.979" fill="#fff" r=".225"/><circle cx="24.163" cy="42.398" fill="#fff" r=".225"/><circle cx="24.688" cy="42.792" fill="#fff" r=".225"/><path d="m24.94 35 1.43-1.9c.07-.1.2-.1.3-.04l4.18 3.15c.1.07.1.2.04.3l-1.44 1.9c-.06.1-.2.1-.28.04l-4.2-3.15c-.1-.07-.1-.2-.04-.3z" fill="#fff"/><path d="m25.48 35.3 1.3-1.77c.05-.05.13-.06.18-.02l3.38 2.54c.05.04.06.12.02.17l-1.3 1.77c-.05.05-.13.06-.18.02l-3.38-2.54c-.05-.04-.07-.12-.02-.17z"/><g fill="#fff"><circle cx="26.961" cy="34.31" r=".225"/><circle cx="27.434" cy="34.671" r=".226"/><circle cx="27.952" cy="35.066" r=".225"/><circle cx="28.488" cy="35.46" r=".225"/><circle cx="29" cy="35.844" r=".226"/><circle cx="29.505" cy="36.222" r=".225"/><circle cx="22.354" cy="51.554" r=".791"/><circle cx="25.06" cy="49.679" r=".79"/></g><circle cx="37.119" cy="37.488" r=".539"/><circle cx="37.119" cy="37.488" fill="#fff" r=".252"/><path d="m37.04 37.57-.54-.3s-.22-.1-.1-.27c.14-.2.33 0 .33 0l.42.4s.07.08.02.14c-.06.1-.13.03-.13.03z"/><path d="m36.44 37.27c-.1-.08-.13-.18-.06-.3.04-.04.08-.08.14-.1.07 0 .14.04.18.07.03.02.04.04.04.04l.42.4c.03.04.08.1.03.17-.07.08-.14.06-.17.04l-.54-.3s-.03 0-.06-.03zm.24-.3c-.04-.02-.1-.05-.15-.04-.04 0-.08.03-.1.08-.08.12-.02.2.04.24.02 0 .04.02.04.02l.55.3s.06.03.1-.03c.04-.05-.02-.1-.02-.1l-.44-.44s0 0-.02-.02z" fill="#fff"/><path d="m20.42 42.43.02-.03c.05-.06.13-.07.2-.03l.23.18c.06.05.07.13.03.2l-.03.03c-.04.06-.13.07-.2.02l-.22-.17c-.07-.05-.08-.14-.03-.2zm.51.39.03-.03c.04-.07.13-.1.2-.04l.22.18c.07.04.08.13.03.2v.02c-.06.06-.14.07-.2.03l-.24-.2c-.06-.03-.07-.12-.03-.18zm.52.38.03-.02c.04-.06.13-.07.2-.03l.23.18c.07.04.08.13.03.2l-.02.02c-.03.06-.12.08-.18.03l-.24-.17c-.06-.04-.07-.13-.03-.2zm.55.42.02-.04c.05-.06.13-.07.2-.02l.23.17c.06.05.07.14.03.2l-.03.03c-.04.06-.13.07-.2.03l-.22-.2c-.07-.03-.08-.12-.03-.18zm.58.42.02-.04c.05-.06.13-.07.2-.02l.23.17c.06.05.07.14.03.2l-.02.03c-.05.06-.14.07-.2.03l-.23-.17c-.05-.04-.07-.13-.02-.2zm.52.4.02-.03c.05-.05.14-.06.2-.02l.23.18c.06.05.08.13.03.2l-.02.03c-.05.05-.14.06-.2 0l-.23-.16c-.06-.05-.08-.14-.03-.2z"/><circle cx="20.125" cy="42.173" r=".128"/><circle cx="23.892" cy="44.997" r=".128"/><path d="m18.86 44.8c-.08-.05-.1-.16-.04-.24l.17-.23c.02-.04.07-.06.1-.07.06 0 .1 0 .15.03l3.1 2.3c.08.08.1.2.03.27l-.17.23c-.02.04-.06.06-.1.07-.06 0-.1 0-.14-.04zm3.46 1.85-3.1-2.32c-.03-.02-.06-.03-.1-.03s-.07.03-.1.06l-.16.23c-.05.05-.04.13.02.18v.02-.02l3.1 2.32c.03.02.07.03.1.03.04 0 .07-.03.1-.06l.17-.23c.04-.06.03-.14-.03-.2z"/><circle cx="18.391" cy="44.058" r=".384"/><circle cx="22.697" cy="47.305" r=".384"/><circle cx="19.679" cy="53.442" fill="#fff" r=".791"/><path d="m20.42 42.43.02-.03c.05-.06.13-.07.2-.03l.23.18c.06.05.07.13.03.2l-.03.03c-.04.06-.13.07-.2.02l-.22-.17c-.07-.05-.08-.14-.03-.2zm.51.39.03-.03c.04-.07.13-.1.2-.04l.22.18c.07.04.08.13.03.2v.02c-.06.06-.14.07-.2.03l-.24-.2c-.06-.03-.07-.12-.03-.18zm.52.38.03-.02c.04-.06.13-.07.2-.03l.23.18c.07.04.08.13.03.2l-.02.02c-.03.06-.12.08-.18.03l-.24-.17c-.06-.04-.07-.13-.03-.2zm.55.42.02-.04c.05-.06.13-.07.2-.02l.23.17c.06.05.07.14.03.2l-.03.03c-.04.06-.13.07-.2.03l-.22-.2c-.07-.03-.08-.12-.03-.18zm.58.42.02-.04c.05-.06.13-.07.2-.02l.23.17c.06.05.07.14.03.2l-.02.03c-.05.06-.14.07-.2.03l-.23-.17c-.05-.04-.07-.13-.02-.2zm.52.4.02-.03c.05-.05.14-.06.2-.02l.23.18c.06.05.08.13.03.2l-.02.03c-.05.05-.14.06-.2 0l-.23-.16c-.06-.05-.08-.14-.03-.2z"/><circle cx="20.125" cy="42.173" r=".128"/><circle cx="23.892" cy="44.997" r=".128"/><path d="m18.86 44.8c-.08-.05-.1-.16-.04-.24l.17-.23c.02-.04.07-.06.1-.07.06 0 .1 0 .15.03l3.1 2.3c.08.08.1.2.03.27l-.17.23c-.02.04-.06.06-.1.07-.06 0-.1 0-.14-.04zm3.46 1.85-3.1-2.32c-.03-.02-.06-.03-.1-.03s-.07.03-.1.06l-.16.23c-.05.05-.04.13.02.18v.02-.02l3.1 2.32c.03.02.07.03.1.03.04 0 .07-.03.1-.06l.17-.23c.04-.06.03-.14-.03-.2z"/><circle cx="18.391" cy="44.058" r=".384"/><circle cx="22.697" cy="47.305" r=".384"/><path d="m49.85 5.16c-.05-.16-.13-.05-.16-.14 0-.03.05-.07.1-.14.2-.27-.04-.6 0-.82.05-.22-.02-.17-.2-.16-.2 0-.24-.04-.46.02-.25.07-.25.14-.44.2-.2.05-.16.15-.05.25.2.2.1.54.43.7.15.05.16 0 .2.08 0 .03-.1.07-.07.16.07.2.7.04.65-.14zm-.05.64-.16-.5-.17.05.16.47zm-22.46 27.66 2.96 2.2s18.04-24.76 18.47-25.33c.83-.57 2.1-1.28 3.7-2.12 3.18-1.65 5.3-2.65 6.5-2.87 1.06-.2 1.2-1.02.73-1.52-1.45-1.6-4.03-.2-7 .65-2.42.7-5.35 1.5-6.34 1.9-.1.05.92 1.18.02 2.26-1.38 1.64-19.04 24.84-19.04 24.84z"/><g fill="#fff"><path d="m27.28 33.47.03-.04c.19-.23 17.69-23.23 19.05-24.85.68-.8.23-1.66.04-2.02-.08-.12-.1-.17-.1-.2.02-.02.03-.03.04-.04.83-.34 3.03-.97 5.15-1.57.4-.1.8-.23 1.2-.34.6-.16 1.2-.36 1.76-.55 2.03-.68 3.78-1.26 4.97-.35.1.08.2.17.3.28.24.26.33.6.23.9-.12.35-.46.6-.97.7-1.1.2-2.98 1.03-6.5 2.86-1.8.93-2.94 1.6-3.7 2.1-.52.7-18.28 25.1-18.46 25.36l-.03.03-3.02-2.26zm19.12-27.07c0 .02.04.07.06.12.2.37.67 1.26-.05 2.12-1.32 1.6-18.2 23.78-19 24.8l2.9 2.17c.78-1.07 18.02-24.76 18.43-25.3v-.02c.77-.52 1.92-1.18 3.73-2.12 3.53-1.84 5.4-2.67 6.5-2.88.5-.1.8-.3.9-.63.1-.27.03-.58-.2-.82-.08-.1-.18-.2-.28-.27-1.15-.87-2.9-.3-4.9.37-.56.2-1.16.4-1.77.56-.38.1-.78.22-1.2.33-2.1.6-4.25 1.2-5.1 1.56zm-.13 2.3.16-.2c0-.03.03-.03.05-.02l2.3 1.72c0 .02.02.04 0 .06l-.15.2c-.02.02-.04.03-.06 0l-2.3-1.7c0-.02-.02-.04 0-.06zm-1.49 2.1.07.04.16.1.16.1.15.1.15.1.15.1.22.16.2.16.15.1.15.1.14.1.15.12.16.12.15.1.16.13.08.06c.04.02.1.02.1 0 .03-.04 0-.08-.03-.1l-.06-.07-.16-.12-.15-.1-.15-.12-.14-.1-.15-.1-.16-.12-.14-.1-.2-.16-.23-.15-.15-.1-.15-.1-.15-.1-.15-.1-.15-.12-.08-.05c-.04-.03-.1-.03-.1 0-.02.03 0 .08.04.1zm-1.35 1.75.08.06.16.12.15.1.15.1.22.17.28.2.3.2.2.16.15.1.15.1.15.12.16.1.16.12.08.06c.04.03.1.03.1 0 .02-.03 0-.08-.04-.1l-.08-.06-.16-.12-.15-.1-.16-.1-.13-.12-.15-.1-.22-.16-.28-.2-.28-.2-.22-.17-.14-.1-.15-.1-.16-.12-.07-.05c-.04-.03-.1-.03-.1 0-.03.03 0 .08.03.1zm-1.28 1.71.05.03.08.04.12.1.16.1.15.1.17.12.14.1.23.16.3.2.2.17.16.1.13.1.16.12.14.1.16.13.08.06c.04.04.1.04.1 0 .03-.02 0-.07-.03-.1l-.08-.05-.16-.12-.14-.12-.16-.1-.14-.1-.15-.1-.2-.17-.3-.2-.22-.17-.15-.1-.15-.1-.15-.12-.16-.12-.12-.08-.1-.06-.03-.03c-.04-.03-.1-.02-.1 0-.02.04 0 .08.03.1zm-1.21 1.6.08.06.16.12.16.12.16.1.16.12.15.1.23.18.3.2.3.22.22.17.16.1.16.12.16.1.08.07c.04.02.1.02.1 0 .03-.03 0-.08-.03-.1l-.08-.07-.17-.1-.15-.12-.16-.1-.22-.17-.3-.2-.3-.23-.22-.16-.16-.12-.15-.1-.16-.12-.15-.12-.16-.12-.1-.06c-.04-.03-.08-.03-.1 0s0 .07.04.1zm-1.14 1.44.03.04.1.06.07.07.08.06.08.05.08.06.1.1.16.1.15.1.22.18.22.16.13.1.15.12.15.1.12.1.08.06.08.06.1.06.07.06.1.06.08.07.1.06.03.04c.04.03.1.03.1 0 .03-.03 0-.08-.03-.1l-.04-.04-.08-.06-.1-.07-.08-.06-.08-.06-.08-.06-.08-.06-.08-.06-.12-.1-.15-.1-.14-.1-.14-.12-.22-.16-.22-.17-.14-.1-.16-.12-.1-.1-.1-.04-.07-.07-.08-.06-.1-.07-.07-.06-.04-.03c-.04-.02-.1-.02-.1 0-.03.04 0 .08.03.1zm-1.1 1.42.14.1.3.23.3.23.22.16.15.12.16.1.16.13.15.1.16.13.17.12.16.13.18.13.17.14.1.06c.04.03.1.03.1 0 .03-.02 0-.07-.03-.1l-.08-.06-.2-.13-.16-.12-.17-.13-.16-.12-.15-.12-.16-.1-.16-.13-.16-.1-.15-.12-.22-.17-.3-.23-.28-.22-.15-.1c-.04-.04-.1-.04-.1 0-.03.02 0 .06.03.1zm-.98 1.31.15.1.3.23.3.23.22.16.14.1.15.13.15.1.15.13.16.12.17.13.17.12.17.13.13.1.1.07.04.03c.04.03.1.03.1 0s0-.07-.03-.1l-.03-.03-.1-.07-.13-.1-.17-.13-.17-.12-.16-.13-.16-.12-.16-.12-.16-.1-.15-.13-.14-.1-.22-.18-.3-.24-.3-.22-.15-.1c-.05-.04-.1-.04-.12-.02-.02.03 0 .08.04.1zm-1 1.31.15.1.3.24.3.22.23.18.16.1.15.13.17.13.16.12.16.13.16.12.17.13.17.13.14.1.1.07.04.03c.03.03.08.03.1 0 .02-.02 0-.07-.03-.1l-.05-.03-.1-.07-.12-.1-.18-.13-.17-.13-.17-.12-.16-.13-.16-.12-.16-.12-.15-.1-.15-.12-.23-.18-.3-.23-.3-.22-.16-.1c-.05-.04-.1-.04-.12-.02-.02.03 0 .08.04.1zm-.92 1.16.16.12.3.23.32.23.22.17.16.12.15.12.17.1.16.13.17.12.17.13.17.13.18.14.13.1.1.07.04.05c.03.03.08.03.1 0s0-.07-.04-.1l-.04-.04-.1-.06-.13-.1-.19-.16-.16-.12-.17-.12-.16-.13-.15-.12-.16-.1-.17-.13-.15-.12-.23-.17-.3-.23-.3-.23-.16-.1c-.05-.04-.1-.04-.12-.02-.02.03 0 .08.03.1zm-.84 1.1.08.07.15.12.22.16.3.23.24.17.16.12.16.1.16.13.16.13.17.13.17.12.18.13.13.1.1.07.08.07.1.06.05.03c.04.02.08.02.1 0 .02-.04 0-.08-.03-.1l-.05-.05-.1-.07-.08-.06-.1-.07-.13-.1-.2-.13-.15-.13-.17-.14-.16-.12-.17-.13-.15-.1-.16-.13-.23-.18-.3-.24-.23-.18-.16-.1-.07-.07c-.04-.02-.08-.02-.1 0-.02.04 0 .08.03.1zm-.83 1.07.07.05.16.12.24.18.3.24.25.18.16.12.17.13.16.1.17.14.17.13.17.13.18.13.14.1.1.08.1.07.08.08.05.03c.03.03.08.03.1 0 .02-.02 0-.07-.04-.1l-.05-.04-.08-.07-.1-.07-.1-.06-.12-.1-.18-.14-.18-.13-.17-.13-.16-.13-.16-.1-.16-.14-.16-.12-.23-.18-.33-.24-.23-.18-.16-.12-.08-.06c-.04-.03-.1-.03-.1 0-.03.03 0 .08.03.1zm-.73 1 .07.06.16.1.24.2.3.23.25.18.15.12.17.13.16.1.17.14.17.13.17.13.2.14.13.1.1.07.08.08.1.07.06.03c.04.03.1.03.1 0 .03-.02 0-.07-.03-.1l-.05-.03-.1-.07-.1-.07-.08-.06-.14-.1-.17-.14-.2-.13-.16-.13-.16-.12-.17-.13-.15-.13-.16-.13-.25-.18-.3-.24-.25-.18-.16-.1-.07-.07c-.04-.03-.1-.03-.1 0-.03.02-.02.07.02.1zm-.73.93.08.07.16.12.24.16.32.25.24.2.16.1.16.14.17.12.16.13.17.12.17.14.18.13.14.1.1.07.1.07.1.07.04.05c.04.02.1.02.1 0 .02-.03 0-.08-.03-.1l-.05-.04-.1-.06-.1-.07-.08-.07-.14-.1-.18-.14-.18-.13-.17-.14-.17-.13-.16-.13-.16-.12-.16-.13-.24-.2-.32-.23-.24-.18-.16-.13-.08-.06c-.04-.02-.1-.02-.1 0-.03.03 0 .08.03.1zm-.7.94.1.06.14.12.25.17.32.24.24.18.17.12.16.13.17.12.16.12.18.13.17.14.2.12.13.1.1.08.1.07.1.07.04.04c.04.03.08.03.1 0s0-.08-.03-.1l-.05-.04-.1-.07-.1-.07-.1-.07-.13-.1-.2-.14-.16-.14-.16-.13-.17-.13-.16-.13-.16-.13-.16-.12-.24-.18-.32-.24-.23-.18-.17-.12-.08-.06c-.04-.03-.1-.03-.1 0-.03.02-.02.07.02.1zm-.64.81.1.06.15.13.16.12.16.12.16.12.16.12.16.12.16.13.17.13.18.13.17.13.17.13.18.13.14.1.1.07.08.08.1.07.1.07.1.07.05.03c.04.02.08.02.1 0 .02-.03 0-.08-.03-.1l-.05-.04-.1-.08-.1-.07-.1-.08-.1-.06-.1-.06-.13-.1-.17-.14-.18-.14-.17-.13-.16-.13-.18-.13-.16-.12-.16-.13-.17-.12-.16-.13-.16-.12-.15-.12-.16-.12-.1-.05c-.04-.03-.08-.03-.1 0-.02.02 0 .07.03.1zm-.59.79.08.06.17.12.15.12.16.12.17.12.16.13.16.13.15.13.17.13.16.12.17.13.18.14.18.12.14.1.1.08.1.07.1.07.08.07.1.08.05.04c.04.03.1.03.1 0s0-.07-.03-.1l-.04-.04-.1-.07-.1-.06-.1-.07-.1-.07-.08-.07-.14-.1-.18-.14-.17-.15-.17-.13-.17-.13-.17-.14-.16-.12-.17-.13-.16-.12-.16-.12-.16-.12-.16-.12-.17-.12-.1-.06c-.03-.03-.08-.03-.1 0s0 .07.04.1zm-.61.76.16.12.32.25.33.24.25.2.17.13.17.13.17.13.2.12.17.13.18.14.2.13.13.1.1.08.1.1.1.06.05.04c.03.03.08.03.1 0s0-.07-.03-.1l-.05-.04-.1-.08-.1-.07-.1-.06-.14-.1-.18-.15-.18-.14-.18-.14-.17-.13-.2-.14-.16-.13-.17-.13-.24-.2-.33-.23-.33-.25-.17-.13c-.04-.04-.1-.04-.1 0-.03.02 0 .06.03.1zm-.53.7.16.13.33.25.32.24.25.2.17.12.17.13.18.13.18.13.18.14.18.13.2.14.13.1.1.08.1.08.1.07.05.04c.04.04.08.04.1 0 .02-.02 0-.06-.03-.1l-.05-.03-.1-.07-.1-.08-.1-.07-.14-.1-.2-.15-.17-.13-.17-.14-.17-.13-.18-.13-.17-.13-.15-.13-.25-.17-.33-.25-.33-.25-.17-.12c-.04-.02-.1-.02-.1 0-.03.03 0 .08.03.1zm-.5.68.16.12.33.25.32.25.25.2.16.1.18.14.18.13.17.14.18.14.18.14.2.14.15.1.1.08.1.07.1.07.04.04c.03.03.08.03.1 0 .02-.02 0-.07-.03-.1l-.06-.04-.1-.07-.1-.07-.08-.07-.15-.1-.18-.15-.2-.14-.17-.13-.18-.13-.17-.12-.17-.13-.16-.13-.25-.2-.34-.25-.33-.24-.17-.12c-.03-.03-.08-.03-.1 0s0 .07.03.1zm-.52.64.1.06.15.13.25.2.34.25.25.2.17.12.17.13.2.13.16.14.2.13.17.14.2.15.13.1.1.07.1.07.1.08.06.04c.04.03.08.03.1 0s0-.07-.03-.1l-.06-.04-.1-.08-.1-.07-.1-.07-.15-.1-.2-.16-.18-.14-.18-.13-.18-.14-.17-.13-.2-.13-.15-.13-.26-.2-.34-.24-.25-.2-.16-.12-.1-.06c-.03-.03-.07-.03-.1 0s0 .07.04.1zm-.43.58.1.06.15.12.25.2.34.24.24.2.17.12.18.13.18.14.17.14.2.14.17.14.2.14.14.1.1.08.1.08.1.07.05.03c.03.03.07.03.1 0 0-.02 0-.07-.04-.1l-.05-.03-.1-.08-.1-.08-.1-.07-.14-.1-.2-.15-.17-.14-.2-.14-.17-.13-.17-.13-.18-.13-.17-.13-.24-.18-.33-.25-.25-.2-.17-.1-.08-.08c-.04-.03-.08-.04-.1 0-.02.02 0 .07.03.1zm-.41.55.08.06.17.14.24.18.33.26.26.2.16.12.17.13.17.13.18.14.18.13.2.14.18.14.14.12.1.08.1.07.1.08.05.03c.04.03.1.03.1 0s0-.07-.02-.1l-.06-.03-.1-.08-.1-.07-.1-.08-.15-.1-.2-.15-.17-.14-.2-.13-.16-.14-.18-.13-.17-.13-.17-.13-.25-.2-.34-.25-.24-.18-.17-.13-.1-.05c-.03-.03-.08-.03-.1 0-.02.02 0 .07.04.1zm-8.26 11.33 1.1-1.8 25.82-33.83 1.86-2.4.12.1-1.85 2.4-25.83 33.83-1.1 1.8zm1.02.76 1.1-1.78 25.73-34.02 3.87-3.75.06.07-3.86 3.74-25.7 34.04-1.12 1.77zm.53.4 1.18-1.72 25.56-34.16 4.95-4.58.07.07-4.95 4.57-25.54 34.15-1.2 1.73zm.53.4 1.17-1.62 25.47-34.32 6.1-5.3.03.04-6.1 5.3-25.43 34.31-1.2 1.63zm.57.43 1.13-1.66 25.34-34.44 7.23-5.97.03.02-7.23 5.97-25.33 34.43-1.13 1.66z"/><circle cx="22.736" cy="39.875" r=".225"/><circle cx="23.226" cy="40.242" r=".226"/><circle cx="23.749" cy="40.633" r=".225"/><circle cx="24.307" cy="41.052" r=".225"/><path d="m25.05 41.6c-.08.1-.22.13-.32.05-.1-.07-.12-.2-.04-.3.06-.12.2-.13.3-.06s.12.2.05.3z"/><circle cx="25.391" cy="41.864" r=".225"/><circle cx="26.261" cy="35.227" r=".225"/><circle cx="26.758" cy="35.606" r=".225"/><circle cx="27.217" cy="35.956" r=".225"/><circle cx="27.796" cy="36.368" r=".225"/><circle cx="28.312" cy="36.761" r=".225"/><circle cx="28.819" cy="37.148" r=".225"/><circle cx="55.685" cy="4.183" r=".384"/></g><path d="m55.5 4.48c-.15-.1-.18-.32-.08-.46.06-.07.13-.12.22-.13s.18 0 .25.05c.13.1.16.32.05.46-.1.16-.3.2-.46.08zm.34-.46c-.06-.04-.12-.05-.2-.05-.05 0-.1.05-.14.1-.08.1-.06.25.04.33l-.03.04.04-.03c.1.1.26.06.34-.04s.06-.26-.04-.34z"/><circle cx="55.685" cy="4.183" r=".17"/><circle cx="54.104" cy="4.633" fill="#fff" r=".384"/><path d="m53.9 4.92c-.13-.1-.16-.3-.05-.45.05-.07.12-.12.2-.13.1-.02.2 0 .26.06.15.1.18.32.07.46-.05.07-.13.12-.2.13-.1 0-.2-.02-.26-.07zm.36-.45c-.06-.04-.12-.05-.18-.05-.07 0-.13.05-.16.1-.08.1-.06.26.04.33l-.02.04.02-.04c.06.03.12.05.18.04.07 0 .12-.04.16-.1.08-.1.06-.25-.04-.33z"/><circle cx="54.105" cy="4.632" r=".169"/><circle cx="52.612" cy="5.115" fill="#fff" r=".385"/><path d="m52.42 5.4c-.15-.1-.18-.3-.07-.45.1-.15.32-.18.46-.07.16.1.2.32.08.46-.05.08-.13.12-.22.13-.08.02-.17 0-.24-.06zm.34-.45c-.1-.08-.26-.06-.34.05-.08.1-.06.26.05.34l-.03.03.03-.03c.05.04.1.05.18.05.06-.02.12-.06.16-.1.1-.12.07-.27-.04-.34z"/><circle cx="52.612" cy="5.115" r=".169"/><circle cx="51.137" cy="5.596" fill="#fff" r=".384"/><path d="m50.94 5.9c-.14-.12-.17-.33-.06-.47.05-.07.13-.12.2-.13.1 0 .2 0 .26.06.14.1.17.32.06.46-.1.15-.3.18-.46.07zm.35-.47c-.07-.04-.13-.05-.2-.04-.06 0-.1.03-.15.08-.08.1-.06.26.04.34l-.03.03.03-.03c.1.08.25.06.33-.05.08-.1.06-.25-.04-.33z"/><circle cx="51.135" cy="5.596" r=".17"/><circle cx="49.602" cy="6.029" fill="#fff" r=".384"/><path d="m49.4 6.32c-.14-.1-.16-.3-.06-.46.1-.14.32-.17.46-.06.15.1.18.3.07.46-.1.14-.3.17-.46.06zm.35-.45c-.1-.08-.26-.06-.34.05-.07.1-.05.25.06.33l-.03.04.03-.05c.1.08.26.06.34-.05.08-.1.06-.25-.05-.33z"/><circle cx="49.603" cy="6.029" r=".17"/><circle cx="48.147" cy="6.548" fill="#fff" r=".384"/><path d="m47.95 6.84c-.14-.1-.17-.3-.06-.46.1-.14.3-.17.45-.06.15.1.17.3.07.46-.06.07-.13.1-.22.13-.1.02-.18 0-.25-.06zm.35-.45c-.1-.1-.26-.07-.34.03s-.06.26.04.34l-.02.04.03-.03c.06.04.12.06.2.05.05 0 .1-.05.15-.1.07-.1.05-.25-.05-.33z"/><circle cx="48.148" cy="6.548" r=".17"/><circle cx="24.333" cy="46.442" r=".161"/><circle cx="25.455" cy="47.334" r=".161"/><circle cx="30.476" cy="43.621" r=".161"/><circle cx="35.625" cy="39.871" r=".161"/><path d="m34.8 37.08c-.05.07-.15.08-.22.03s-.1-.15-.03-.22.15-.08.22-.03.1.16.03.23z"/><circle cx="40.871" cy="36.014" r=".161"/><circle cx="31.062" cy="37.242" r=".161"/><circle cx="25.02" cy="37.933" r=".161"/><g fill="#fff"><path d="m20 44.78 1.1-1.8 25.75-33.96 2.84-3.04.1.1-2.84 3.04-25.72 33.97-1.1 1.78z"/><circle cx="44.043" cy="14.208" r=".222"/><circle cx="41.633" cy="17.414" r=".221"/><circle cx="39.516" cy="20.238" r=".222"/><circle cx="37.589" cy="22.799" r=".222"/><circle cx="34.488" cy="25.628" r=".222"/><circle cx="35.795" cy="26.626" r=".221"/><circle cx="33.024" cy="28.882" r=".222"/><circle cx="31.825" cy="30.453" r=".223"/><circle cx="30.761" cy="31.904" r=".222"/><circle cx="29.782" cy="33.168" r=".222"/></g></svg>