<svg enable-background="new 0 0 60 60" height="60" viewBox="0 0 60 60" width="60" xmlns="http://www.w3.org/2000/svg"><path d="m.6 48.4c-.7.3-.9.7.2 1.4 7.2 4.7 15.8 7.2 23.1 8.1.9.1 1.2-.3 1.3-.7.4-1.6 2.5-7.8 3-9.5.4-1.4 1.2-2.2 2.2-3 1.1-.8 9.7-7.2 10.6-7.7.9-.6 1.3-2.2-1-1.7-2.2.5-5 .7-6.8.8-1.6.2-1.8-1.8-1.4-2.8.2-.6-.6-1-1-1.1-.5-.2-2.3-.2-2.3-.2s-.9.4-2.2 0-1.9-.7-2.7.7-2.2 4-2.7 5-1.2 1.6-2.1 2c-1.1.4-15.7 7.3-18.2 8.7zm50.8-43.7c0-.2-.1-.1-.2-.1 0 0 0-.1.1-.2.2-.3 0-.6 0-.8s0-.2-.2-.2-.2 0-.5 0c-.2.1-.2.1-.4.2-.2 0-.2.2 0 .2.2.2.1.5.4.7.2.1.2 0 .2.1 0 0-.1.1-.1.2.1.2.8.1.7-.1zm0 .6-.2-.5-.2.1.2.5zm1.5-1c0-.2-.1 0-.2-.1 0 0 0-.1.1-.2.2-.3 0-.6 0-.8.1-.2 0-.2-.1-.2-.2 0-.2 0-.5 0-.2.1-.2.2-.4.3-.2 0-.2.2-.1.2.2.2.1.5.4.7.1.1.2 0 .2.1 0 0-.1.1-.1.2.1.1.8 0 .7-.2zm0 .6-.2-.5h-.2l.2.6zm1.5-1c0-.2-.1-.1-.2-.2 0 0 .1-.1.1-.1.2-.3 0-.6 0-.8s0-.2-.2-.2-.2 0-.5 0c-.3.1-.2.2-.4.2-.2.1-.2.2 0 .3.2.2.1.5.4.7.2.1.2 0 .2.1 0 0-.1.1-.1.2.1.2.7 0 .7-.2zm-.1.6-.1-.5h-.2l.2.5zm1.7-1.2c0-.2-.1 0-.1-.1 0 0 0-.1.1-.1.2-.3 0-.6 0-.8s0-.2-.2-.2-.2-.1-.5 0-.2.2-.4.2c-.2.1-.2.2 0 .3.2.2.1.5.4.7.2 0 .2 0 .2.1 0 0-.1.1-.1.2s.7-.1.6-.3zm0 .7-.2-.5h-.2l.2.5z" fill="#af8424"/><path d="m23.6 39.3s3 2.2 3.2 2.4c.1.1.2.2 0 .4-.2.3-1.6 2.2-1.6 2.2l-1.4 2.3 1.5 1.2s14.9-10.8 15.5-11.2.5-1.1-.5-1c-1 .2-6.4 1.1-7.6 1.4-1.4.2-1.9-.3-1.9-.3s-1 1.2-1.4 1.7c-.2.3-.4.3-.6.2-.3-.2-3.1-2.3-3.1-2.3zm-5.6 4.5c.2-.2.4-.4.5-.3l4.9 3.7c.1.1 0 .3-.2.6-.2.2-.4.4-.5.3l-4.9-3.6c-.1-.2 0-.5.2-.7zm1.8-1.8c.1-.2.4-.2.6-.1l3.5 2.7c.2.2.2.4.1.6-.2.2-.4.2-.6.1l-3.5-2.7c-.2-.2-.2-.4-.1-.6zm1-1.4 1.4-1.9c0-.1.2-.1.3 0l4.2 3.2c.1.1.1.2 0 .3l-1.4 1.8c-.1.1-.2.1-.3 0l-4.2-3.2c-.1 0-.1-.1 0-.2z" fill="#fff"/><path d="m21.3 40.9 1.3-1.8s.1-.1.2 0l3.4 2.5s.1.1 0 .2l-1.3 1.8s-.1.1-.2 0l-3.4-2.6c-.1 0-.1-.1 0-.1zm27-35.2c0-.2-.1-.1-.1-.1s0-.1.1-.1c.2-.3 0-.6 0-.8s0-.2-.2-.2-.2-.1-.5 0c-.2.1-.2.2-.4.2-.2.1-.2.2 0 .3.2.2.1.5.4.7.2.1.2 0 .2.1 0 0-.1.1-.1.2 0 0 .7-.2.6-.3zm0 .6-.2-.5h-.2l.2.5z" fill="#af8424"/><circle cx="22" cy="40.8" fill="#fff" r=".2"/><circle cx="22.5" cy="41.2" fill="#fff" r=".2"/><circle cx="23" cy="41.6" fill="#fff" r=".2"/><circle cx="23.6" cy="42" fill="#fff" r=".2"/><circle cx="24.2" cy="42.4" fill="#fff" r=".2"/><circle cx="24.7" cy="42.8" fill="#fff" r=".2"/><path d="m24.9 35 1.4-1.9c.1-.1.2-.1.3 0l4.2 3.2c.1.1.1.2 0 .3l-1.4 1.9c-.1.1-.2.1-.3 0l-4.1-3.2c-.1-.1-.1-.2-.1-.3z" fill="#fff"/><path d="m25.5 35.3 1.3-1.8s.1-.1.2 0l3.4 2.5s.1.1 0 .2l-1.3 1.8s-.1.1-.2 0l-3.4-2.5c0-.1-.1-.2 0-.2z" fill="#af8424"/><g fill="#fff"><circle cx="27" cy="34.3" r=".2"/><circle cx="27.4" cy="34.7" r=".2"/><circle cx="28" cy="35.1" r=".2"/><circle cx="28.5" cy="35.5" r=".2"/><circle cx="29" cy="35.8" r=".2"/><circle cx="29.5" cy="36.2" r=".2"/><circle cx="22.4" cy="51.6" r=".8"/><circle cx="25.1" cy="49.7" r=".8"/></g><circle cx="37.1" cy="37.5" r=".5"/><circle cx="37.1" cy="37.5" fill="#fff" r=".3"/><path d="m37 37.6-.5-.3s-.2-.1-.1-.3.3 0 .3 0l.4.4s.1.1 0 .1c0 .1-.1.1-.1.1z"/><path d="m36.4 37.3c-.1-.1-.1-.2-.1-.3 0 0 .1-.1.1-.1.1 0 .1 0 .2.1l.4.4s.1.1 0 .2-.1.1-.2 0zm.3-.3s-.1 0-.2 0c0 0-.1 0-.1.1-.1.1 0 .2 0 .2l.5.3h.1v-.1z" fill="#fff"/><path d="m20.4 42.4c.1-.1.1-.1.2-.1l.2.2c.1 0 .1.1 0 .2 0 .1-.1.1-.2 0l-.2-.2c0 .1 0 0 0-.1zm.5.4c.1-.1.2-.1.2-.1l.2.2c.1 0 .1.1 0 .2s-.1.1-.2 0l-.1-.1c-.1 0-.1-.1-.1-.2zm.6.4c.1-.1.2-.1.2 0l.2.2c.1 0 .1.1 0 .2 0 .1-.1.1-.2 0l-.2-.2c-.1 0-.1-.1 0-.2zm.5.4c.1-.1.1-.1.2-.1l.2.2c.1 0 .1.1 0 .2 0 .1-.1.1-.2 0l-.2-.1s0-.1 0-.2zm.6.4c.1-.1.1-.1.2-.1l.2.2c.1 0 .1.1 0 .2 0 .1-.1.1-.2 0l-.2-.2c0 .1-.1 0 0-.1zm.5.4c.1-.1.2-.1.2 0l.2.2c.1 0 .1.1 0 .2s-.1.1-.2 0l-.2-.2s0-.1 0-.2z"/><circle cx="20.1" cy="42.2" r=".1"/><circle cx="23.9" cy="45" r=".1"/><path d="m18.9 44.8c-.1 0-.1-.2 0-.2l.2-.2s.1-.1.1-.1h.1l3.1 2.3c.1.1.1.2 0 .3l-.2.2s-.1.1-.1.1c-.1 0-.1 0-.1 0 0-.1-3.1-2.4-3.1-2.4zm3.4 1.8-3.1-2.3h-.1s-.1 0-.1.1l-.2.2v.2l3.1 2.3h.1s.1 0 .1-.1l.2-.2c.1 0 .1-.1 0-.2z"/><circle cx="18.4" cy="44.1" r=".4"/><circle cx="22.7" cy="47.3" r=".4"/><circle cx="19.7" cy="53.4" fill="#fff" r=".8"/><path d="m20.4 42.4c.1-.1.1-.1.2-.1l.2.2c.1 0 .1.1 0 .2 0 .1-.1.1-.2 0l-.2-.2c0 .1 0 0 0-.1zm.5.4c.1-.1.2-.1.2-.1l.2.2c.1 0 .1.1 0 .2s-.1.1-.2 0l-.1-.1c-.1 0-.1-.1-.1-.2zm.6.4c.1-.1.2-.1.2 0l.2.2c.1 0 .1.1 0 .2 0 .1-.1.1-.2 0l-.2-.2c-.1 0-.1-.1 0-.2zm.5.4c.1-.1.1-.1.2-.1l.2.2c.1 0 .1.1 0 .2 0 .1-.1.1-.2 0l-.2-.1s0-.1 0-.2zm.6.4c.1-.1.1-.1.2-.1l.2.2c.1 0 .1.1 0 .2 0 .1-.1.1-.2 0l-.2-.2c0 .1-.1 0 0-.1zm.5.4c.1-.1.2-.1.2 0l.2.2c.1 0 .1.1 0 .2s-.1.1-.2 0l-.2-.2s0-.1 0-.2z"/><circle cx="20.1" cy="42.2" r=".1"/><circle cx="23.9" cy="45" r=".1"/><path d="m18.9 44.8c-.1 0-.1-.2 0-.2l.2-.2s.1-.1.1-.1h.1l3.1 2.3c.1.1.1.2 0 .3l-.2.2s-.1.1-.1.1c-.1 0-.1 0-.1 0 0-.1-3.1-2.4-3.1-2.4zm3.4 1.8-3.1-2.3h-.1s-.1 0-.1.1l-.2.2v.2l3.1 2.3h.1s.1 0 .1-.1l.2-.2c.1 0 .1-.1 0-.2z"/><circle cx="18.4" cy="44.1" r=".4"/><circle cx="22.7" cy="47.3" r=".4"/><path d="m49.8 5.2c0-.2-.1-.1-.2-.1 0 0 0-.1.1-.1.2-.3 0-.6 0-.8s0-.2-.2-.2-.2 0-.5 0c-.2.1-.2.1-.4.2s-.2.2 0 .2c.2.2.1.5.4.7.2.1.2 0 .2.1 0 0-.1.1-.1.2.2.1.8-.1.7-.2zm0 .6-.2-.5-.2.1.2.5zm-22.5 27.7 3 2.2s18-24.8 18.5-25.3c.8-.6 2.1-1.3 3.7-2.1 3.2-1.7 5.3-2.7 6.5-2.9 1.1-.2 1.2-1 .7-1.5-1.5-1.6-4-.2-7 .7-2.4.7-5.3 1.5-6.3 1.9-.1.1.9 1.2 0 2.3-1.4 1.5-19.1 24.7-19.1 24.7z" fill="#af8424"/><g fill="#fff"><path d="m27.3 33.5c.2-.3 17.7-23.3 19.1-24.9.7-.8.2-1.7 0-2-.1-.1-.1-.2-.1-.2.8-.3 3-1 5.2-1.6.4-.1.8-.2 1.2-.3.6-.2 1.2-.4 1.8-.5 2-.7 3.8-1.3 5-.3.1.1.2.2.3.3.2.1.3.4.2.7s-.5.6-1 .7c-1.1.2-3 1-6.5 2.9-1.8.9-2.9 1.6-3.7 2.1-.5.7-18.3 25.1-18.5 25.4zm19.1-27.1s0 .1.1.1c.2.4.7 1.3 0 2.1-1.3 1.6-18.2 23.8-19 24.8l2.9 2.2c.8-1.1 18-24.8 18.4-25.3.8-.5 1.9-1.2 3.7-2.1 3.5-1.9 5.4-2.7 6.5-2.9.5-.1.8-.3.9-.6s0-.6-.2-.8c-.1-.1-.2-.2-.3-.3-1.2-.9-2.9-.3-4.9.4-.6.2-1.2.4-1.8.6-.4.1-.8.2-1.2.3-2.1.5-4.2 1.1-5.1 1.5zm-.1 2.3.2-.2 2.3 1.7v.1l-.2.2s0 0-.1 0zm-1.5 2.1.2.1.2.1.2.1.2.1.2.1.2.2.2.2.2.1.2.1.1.1.2.1.2.1.2.1.2.1.1.1h.1v-.1l-.1-.1-.6-.1-.2-.1-.1-.1-.1-.1-.2-.1-.2-.1-.1-.1-.2-.2-.2-.1-.2-.1-.2-.1v-.1l-.2-.1-.1-.2-.1-.1h-.1zm-1.4 1.8.2.2.2.1.2.1.2.2.3.2.3.2.2.2.2.1.2.1.2.1.2.1.2.1.1.1h.1v-.1l-.1-.1-.5-.2-.2-.1-.2-.1-.1-.1-.2-.1-.2-.2-.3-.2-.1-.2-.2-.2-.1-.1-.2-.1-.2-.1-.1-.1s-.1 0-.1.2c0-.1 0-.1 0 0zm-1.2 1.7.1.1.1.1.2.1.2.1.2.1.1.1.2.2.3.2.2.2.2.1.1.1.2.1.1.1.2.1.1.1h.1v-.1l-.1-.1-.2-.1-.1-.1-.2-.1-.2-.2-.2-.1-.2-.2-.3-.2-.2-.2-.2-.1-.2-.1-.2-.1-.2-.1-.1-.1-.1-.1h-.1c.1.1.1.1.2.2zm-1.3 1.6.2.2.2.1.2.1.2.1.2.1.2.2.3.2.3.2.2.2.2.1.2.1.2.1.1.1h.1v-.1l-.1-.1-.2-.1-.2-.1-.2-.1-.3-.2-.3-.2-.3-.2-.2-.2-.2-.1-.2-.1-.2-.1-.2-.1-.2-.1.1-.1h-.1zm-1.1 1.4.1.1.1.1.1.1h.1l.1.1.1.1.2.1.2.1.2.2.2.2.1.1.2.1.2.1.1.1.1.1.1.1.1.1.1.1.1.1.1.1.1.1h.1v-.1l-.4-.4-.1-.1-.1-.1-.1-.1-.1-.1-.1-.1-.1-.1-.2-.1-.1-.1-.1-.1-.2-.1-.2-.2-.1-.1-.2-.1-.1-.1h-.1l-.1-.1-.1-.1h-.1l-.1-.1h-.1zm-1.1 1.4.1.1.3.2.3.2.2.2.2.1.2.1.2.1.2.1.2.1.2.1.2.1.2.1.2.1.1.1h.1v-.1l-.1-.1-.5.1-.2-.1-.2-.1-.2-.1-.2-.1-.2-.1v-.2l-.2-.1-.2-.1-.2-.2-.2-.2-.3-.2-.2-.1c0-.1 0-.1 0 0zm-1 1.3.2.1.3.2.3.2.2.2.1.1.2.2.2.1.2.1.2.1.2.1.2.1.2.1.1.1.1.1h.1s0-.1 0-.1l-.1-.1h-.4l-.2-.1-.2-.1-.2-.1-.2-.1v-.2l-.2-.1-.2-.1-.1-.1-.2-.2-.3-.2-.3-.3-.2-.1h-.1c.1 0 .1.1.1.1zm-1 1.3.2.1.3.2.3.2.2.2.2.1.2.1.2.1.2.1.2.1.2.1.2.1.2.1.1.1.1.1h.1v-.1l-.1-.1-.4.2-.2-.1-.2-.1-.2-.1-.2-.1-.2-.1-.2-.1-.2-.1.1-.3-.2-.2-.3-.2-.3-.2-.3-.1c0-.1 0-.1 0 0zm-.9 1.2.2.1.3.2.3.2.2.2.2.1.2.1.2.1.2.1.2.1.2.1.2.1.2.1.1.1.1.1h.1v-.1l-.1-.1-.1-.1-.5.1-.2-.1-.2-.1-.2-.1-.2-.1-.2-.1v-.2l-.2-.1-.1-.2-.3-.2-.3-.2-.3-.1c0-.1 0-.1 0 0 0-.1 0 0 0 0zm-.8 1.1.2.2.2.2.3.2.2.2.2.1.2.1.2.1.2.1.2.1.2.1.2.1.1.1.1.1.1.1.1.1h.1v-.1l-.1-.1-.1-.1-.1-.1-.1-.1h-.4l-.2-.1-.2-.1-.2-.1-.2-.1-.2-.1v-.3l-.2-.2-.3-.2-.2-.2-.2-.1-.1-.1h-.1c0 .1 0 .1.1.2zm-.9 1.1.2.2.2.2.3.2.2.2.2.1.2.1.2.1.2.1.2.1.2.1.2.1.1.1.1.1.1.1.1.1h.1v-.1l-.1-.1-.1-.1-.1-.1-.1-.1-.2-.1h-.3l-.2-.1-.2-.1-.2-.1-.2-.1-.2-.1v-.3l-.3-.2-.2-.2-.2-.1-.1-.1h-.1zm-.7 1 .2.2.2.2.3.2.2.2.2.1.2.1.2.1.2.1.2.1.2.1.2.1.1.1.1.1.1.1.1.1h.1.1v-.1h-.3l-.1-.1-.1-.1-.1-.1-.2-.1-.2-.1-.2-.1-.1-.2-.2-.1-.2-.1-.2-.1-.2-.2-.2-.3-.2-.2-.2-.1-.2.1c0-.2 0-.2 0 0 0-.1 0-.1 0 0zm-.7.9.2.2.2.2.3.2.2.2.2.1.2.1.2.1.2.1.2.1.2.1.2.1.1.1.1.1.1.1.1.1h.1v-.1l-.1-.1-.1-.1-.1-.1-.2.1-.2-.1-.2-.1-.2-.1-.2-.1-.2-.1-.2-.1-.2-.1-.2-.2-.3-.2-.1-.4-.2-.1-.1-.1h-.1s0 .1.1.1zm-.7.9.1.1.1.1.2.2.3.2.2.2.2.1.2.1.2.1.2.1.2.1.2.1.2.1.1.1.1.1.1.1.1.1h.1v-.1l-.1-.1-.1-.1-.1-.1-.1-.1-.3.1-.2-.1-.2-.1-.2-.1-.2-.1-.2-.1-.2-.1v-.4l-.3-.2-.2-.2-.2-.1-.1-.1h-.1c-.1 0 0 .1 0 .1zm-.7.9.1.1.1.1.2.1.2.1.2.1.2.1.2.1.2.1.2.1.2.1.2.1.2.1.2.1.1.1.1.1.1.1.1.1.1.1.1.1h.1v-.1h-.4l-.1-.1-.1-.1h-.1l-.1-.1-.1-.1-.2-.1-.2-.1-.1-.2-.2-.1-.2-.1-.1-.2-.2-.1-.2-.1-.1-.1-.2-.1-.1-.1-.2-.1h-.1-.1c0-.1 0-.1 0 0zm-.6.7.2.2.1.1.2.1.2.1.2.1.2.1.1.1.2.1.2.1.2.1.2.1.2.1.1.1.1.1.1.1.1.1.1.1.1.1h.1s0-.1 0-.1l-.2.1-.1-.1-.1-.1-.1-.1h-.1l-.1-.1-.2-.1-.2-.1-.2-.1-.2-.1-.1-.2-.2-.1-.2-.1-.2-.1-.2-.1-.2-.1-.2-.1-.2-.1.2-.3h-.1s0 .1 0 .1zm-.6.8.2.1.3.2.3.2.2.2.2.1.2.1.2.1.2.1.2.1.2.1.2.1.1.1.1.1.1.1.1.1h.1s0-.1 0-.1l-.1-.1-.1-.1-.1-.1-.1-.1-.2-.1-.2-.1-.2.1-.2-.1-.2-.1-.2-.1-.2-.1-.2-.3-.3-.2-.3-.2-.2-.1h-.1c0-.1 0-.1 0 0zm-.5.7.2.1.3.2.3.2.2.2.2.1.2.1.2.1.2.1.2.1.2.1.2.1.1.1.1.1.1.1.1.1h.1v-.1l-.1-.1-.1-.1-.1-.1-.2.3-.2-.2-.2-.1-.2-.1-.2-.1-.2-.1-.2-.1-.1-.1-.2-.2-.3-.2-.3-.2-.3-.3c.1-.1 0-.1 0 0zm-.5.7.2.1.3.2.3.2.2.2.2.1.2.1.2.1.2.1.2.1.2.1.2.1.1.1.1.1.1.1.1.1h.1v-.1h-.1l-.1-.1-.1-.1-.1.2-.1-.1-.2-.2-.2-.1-.2-.1-.2-.1-.2-.1-.2-.1v-.2l-.3-.2-.3-.2-.3-.2-.3-.1c0-.1 0-.1 0 0-.1-.1 0 0 0 0zm-.5.6.1.1.1.1.2.2.3.2.2.2.2.1.3.2.2.1.2.1.2.1.2.1.2.2.1.1.1.1.1.1.1.1h.1.1s0-.1 0-.1h-.1l-.1-.1-.1-.1-.1-.1h-.2l-.2-.2-.2-.1-.2-.1-.2-.2-.2-.1-.2-.1-.1-.1-.3-.2-.3-.2-.2-.3-.2-.1-.1-.1h-.1s0 .1.1.1zm-.5.6.1.1.1.1.2.2.3.2.2.2.2.1.2.1.2.1.2.1.2.1.2.1.2.1.1.1.1.1.1.1.1.1h.1v-.1h-.1l-.1-.1-.1-.1-.1-.1-.1-.1v.1l-.2-.1-.2-.2-.2-.1-.2-.1-.2-.1-.2-.1-.1-.3-.3-.2-.2-.2-.2-.1h-.3c.1-.1 0-.1 0 0 0-.1 0 0 0 0zm-.4.5.2.2.2.2.3.3.3.2.3.1.2.1.2.1.2.1.2.1.2.1.2.1.1.1.1.1.1.1.1.1h.1s0-.1 0-.1h-.1l-.1.1-.1-.1-.1-.1-.1-.1-.2-.2-.2-.1-.2-.1-.2-.1-.2-.2-.2-.1-.2-.1-.2-.2-.3-.2-.3-.2-.1-.2h-.2c0-.1 0-.1 0 0-.1 0 0 0 0 0zm-8.2 11.4 1.1-1.8 25.8-33.8 1.9-2.4.1.1-1.8 2.4-25.9 33.8-1.1 1.8zm1 .7 1.1-1.8 25.7-34 3.9-3.8.1.1-3.9 3.7-25.7 34zm.5.4 1.2-1.7 25.6-34.1 5-4.6.1.1-5 4.6-25.6 34.1zm.6.4 1.2-1.6 25.4-34.3 6.1-5.3-6.1 5.3-25.4 34.3zm.5.5 1.1-1.7 25.3-34.4 7.2-6-7.2 6-25.2 34.4z"/><circle cx="22.7" cy="39.9" r=".2"/><circle cx="23.2" cy="40.2" r=".2"/><circle cx="23.7" cy="40.6" r=".2"/><circle cx="24.3" cy="41.1" r=".2"/><path d="m25 41.6c-.1.1-.2.1-.3 0s-.1-.2 0-.3.2-.1.3-.1c.1.2.1.3 0 .4z"/><circle cx="25.4" cy="41.9" r=".2"/><circle cx="26.3" cy="35.2" r=".2"/><circle cx="26.8" cy="35.6" r=".2"/><circle cx="27.2" cy="36" r=".2"/><circle cx="27.8" cy="36.4" r=".2"/><circle cx="28.3" cy="36.8" r=".2"/><circle cx="28.8" cy="37.1" r=".2"/><circle cx="55.7" cy="4.2" r=".4"/></g><path d="m55.5 4.5c-.2-.1-.2-.3-.1-.5.1-.1.1-.1.2-.1s.2 0 .2 0c.2.1.2.4.1.5-.1.2-.3.2-.4.1zm.3-.5c-.1 0-.1 0-.2 0 0 0-.1 0-.1.1-.1.1-.1.2 0 .3s.3.1.3 0 .2-.3 0-.4z"/><circle cx="55.7" cy="4.2" r=".2"/><circle cx="54.1" cy="4.6" fill="#fff" r=".4"/><path d="m53.9 4.9c-.1-.1-.2-.3 0-.4 0-.1.1-.1.2-.1s.2 0 .3.1c.2.1.2.3.1.5 0 .1-.1.1-.2.1-.2-.1-.3-.1-.4-.2zm.4-.4c-.1 0-.1-.1-.2-.1s-.1.1-.2.1c-.1.1-.1.3 0 .3s.1.1.2 0c.1 0 .1 0 .2-.1.1 0 .1-.2 0-.2z"/><circle cx="54.1" cy="4.6" r=".2"/><circle cx="52.6" cy="5.1" fill="#fff" r=".4"/><path d="m52.4 5.4c-.2-.1-.2-.3-.1-.4.1-.2.3-.2.5-.1s.2.3.1.4c0 .1-.1.1-.2.1-.1.1-.2.1-.3 0zm.4-.4c-.1-.1-.3-.1-.3.1-.1.1-.1.3 0 .3s.1.1.2.1.1-.1.2-.1c0-.2 0-.4-.1-.4z"/><circle cx="52.6" cy="5.1" r=".2"/><circle cx="51.1" cy="5.6" fill="#fff" r=".4"/><path d="m50.9 5.9c-.1-.1-.2-.3-.1-.5 0-.1.1-.1.2-.1s.2 0 .3.1.2.3.1.5c-.1.1-.3.1-.5 0zm.4-.5c-.1 0-.1-.1-.2 0-.1 0-.1 0-.2.1s-.1.3 0 .3c.1.1.2.1.3-.1.2 0 .2-.2.1-.3z"/><circle cx="51.1" cy="5.6" r=".2"/><circle cx="49.6" cy="6" fill="#fff" r=".4"/><path d="m49.4 6.3c-.1-.1-.2-.3-.1-.5.1-.1.3-.2.5-.1.2.2.2.4.1.6-.1.1-.3.1-.5 0zm.4-.4c-.1-.1-.3-.1-.3.1-.1.1 0 .2.1.3v-.1c.1.1.3.1.3-.1 0 0 0-.2-.1-.2z"/><circle cx="49.6" cy="6" r=".2"/><circle cx="48.1" cy="6.5" fill="#fff" r=".4"/><path d="m48 6.8c-.1-.1-.2-.3-.1-.5.1-.1.3-.2.5-.1s.2.3.1.5c-.1.1-.1.1-.2.1-.2.1-.3.1-.3 0zm.3-.4c-.1-.1-.3-.1-.3 0-.1.1-.1.3 0 .3s.1.1.2.1c0 0 .1-.1.2-.1 0-.1 0-.2-.1-.3z"/><circle cx="48.1" cy="6.5" r=".2"/><circle cx="24.3" cy="46.4" r=".2"/><circle cx="25.5" cy="47.3" r=".2"/><circle cx="30.5" cy="43.6" r=".2"/><circle cx="35.6" cy="39.9" r=".2"/><path d="m34.8 37.1c0 .1-.2.1-.2 0s-.1-.2 0-.2.2-.1.2 0 .1.1 0 .2z"/><circle cx="40.9" cy="36" r=".2"/><circle cx="31.1" cy="37.2" r=".2"/><circle cx="25" cy="37.9" r=".2"/><g fill="#fff"><path d="m20 44.8 1.1-1.8 25.7-34 2.8-3 .1.1-2.8 3-25.7 34-1.1 1.8z"/><circle cx="44" cy="14.2" r=".2"/><circle cx="41.6" cy="17.4" r=".2"/><circle cx="39.5" cy="20.2" r=".2"/><circle cx="37.6" cy="22.8" r=".2"/><circle cx="34.5" cy="25.6" r=".2"/><circle cx="35.8" cy="26.6" r=".2"/><circle cx="33" cy="28.9" r=".2"/><circle cx="31.8" cy="30.5" r=".2"/><circle cx="30.8" cy="31.9" r=".2"/><circle cx="29.8" cy="33.2" r=".2"/></g></svg>