<svg enable-background="new 0 0 60 60" height="60" viewBox="0 0 60 60" width="60" xmlns="http://www.w3.org/2000/svg"><path d="m47.7 10.6c-.5.5-.5 1.3 0 1.8s1.3.5 1.8 0l1.2-1.2-1.8-1.8zm11.5-8.8-1-1c-1.1-1.1-2.9-1.1-4 0l-3.7 3.7c-.3.3-.3.7 0 1-.3-.3-.7-.3-1 0s-.3.7 0 1l-8.8 8.8c-.3-.3-.7-.3-1 0s-.3.7 0 1l-3.9 3.9c-.3.3-.3.7 0 1l-22.8 22.8-.2-.2c-.2-.2-.5-.2-.7 0l-3 3-.2-.2c-.3-.3-.7-.3-1 0s-.3.7 0 1l.5.5c-3.6 3.5-5.1 4.3-5.9 4.6-.3.1-.7 0-1-.2-.3-.3-.9-.4-1.2-.2-.5.3-.5 1-.1 1.4l5.9 5.9c.3.3.9.4 1.2.1.5-.3.5-1 .1-1.4l-.1-.1c-.2-.2-.3-.6-.2-1 .3-.8 1.1-2.3 4.6-5.9l.5.5c.3.3.7.3 1 0s.3-.7 0-1l-.2-.2 3-3c.2-.2.2-.5 0-.7v.1l22.8-22.8c.3.3.7.3 1 0l3.9-3.9c.3.3.7.3 1 0s.3-.7 0-1l8.8-8.8c.3.3.7.3 1 0s.3-.7 0-1c.3.3.7.3 1 0l3.6-3.6c1.2-1.2 1.2-3 .1-4.1zm-45.9 46.2c-.4.3-1 .3-1.3 0s-.4-1 0-1.3c.4-.4 1-.4 1.3 0 .4.3.4.9 0 1.3zm3.3-3.3c-.4.4-1 .4-1.3 0-.4-.4-.4-1 0-1.3s1-.4 1.3 0 .4 1 0 1.3zm3.3-3.3c-.4.4-1 .4-1.3 0s-.4-1 0-1.3 1-.4 1.3 0 .3 1 0 1.3zm3.3-3.2c-.4.4-1 .4-1.3 0s-.4-1 0-1.3 1-.4 1.3 0c.3.3.3.9 0 1.3zm3.3-3.3c-.4.4-1 .4-1.3 0s-.4-1 0-1.3 1-.4 1.3 0 .3.9 0 1.3zm3.2-3.3c-.4.4-1 .4-1.3 0-.4-.4-.4-1 0-1.3s1-.4 1.3 0c.4.3.4.9 0 1.3zm3.3-3.3c-.4.4-1 .4-1.3 0-.4-.4-.4-1 0-1.3.4-.4 1-.4 1.3 0s.4 1 0 1.3zm17-15.3c-.8.8-2.2.8-3 0s-.8-2.2 0-3l2.1-2.1 3 3z" fill="#af8424"/></svg>