<svg enable-background="new 0 0 60 60" height="60" viewBox="0 0 60 60" width="60" xmlns="http://www.w3.org/2000/svg"><path d="m28 26.7s-.4.4-1.5.4c-.5 0-.7.1-.9.2-3.4 1.8-22.4 12.2-24.4 13.2-2.2 1.1-1 2.9.9 2.6 1.2-.2 9.9-1.5 11.7-1.5 1.6 0 2.4 1.5 2.2 2.9-.2 1.7-1.4 11.5-1.7 13.5-.3 1.8 1.5 2.3 2.3 1s13.2-26.5 13.5-27 .3-.7.3-1.1c0-.8.2-1.4.8-2.2z" fill="#c12127"/><path d="m14.6 38.2c.2-.2.5-.3.6-.3l4.3 4.3c.1.1 0 .3-.3.6-.2.2-.5.4-.5.3l-4.3-4.3c-.2-.1-.1-.3.2-.6zm2.1-1.5c.2-.2.5-.2.6 0l3.2 3.2c.2.2.2.5 0 .7s-.5.2-.6 0l-3.2-3.2c-.2-.2-.2-.5 0-.7zm1.1-1.2 1.7-1.7c.1-.1.2-.1.3 0l3.7 3.7c.1.1.1.2 0 .3l-1.7 1.7c-.1.1-.2.1-.3 0l-3.7-3.7c-.1-.1-.1-.2 0-.3z" fill="#fff"/><path d="m18.3 35.8 1.6-1.6h.2l3 3v.2l-1.6 1.6s-.1 0-.2 0l-3-3c-.1 0-.1-.1 0-.2z" fill="#c12127"/><g fill="#fff"><circle cx="19" cy="35.9" r=".2"/><circle cx="19.5" cy="36.3" r=".2"/><circle cx="19.9" cy="36.8" r=".2"/><path d="m20.6 37.4c-.1.1-.2.1-.3 0s-.1-.2 0-.3.2-.1.3 0 .1.2 0 .3z"/><circle cx="20.9" cy="37.8" r=".2"/><circle cx="21.4" cy="38.2" r=".2"/><path d="m22.8 30.5 1.7-1.7c.1-.1.2-.1.3 0l3.7 3.7c.1.1.1.2 0 .3l-1.7 1.7c-.1.1-.2.1-.3 0l-3.7-3.7c-.1-.1-.1-.2 0-.3z"/></g><path d="m23.3 30.9 1.6-1.6h.2l3 3v.2l-1.6 1.6s-.1 0-.2 0l-3-3c-.1-.1-.1-.2 0-.2z" fill="#c12127"/><g fill="#fff"><circle cx="24.8" cy="30.1" r=".2"/><circle cx="25.3" cy="30.5" r=".2"/><circle cx="25.7" cy="31" r=".2"/><circle cx="26.2" cy="31.5" r=".2"/><circle cx="26.7" cy="31.9" r=".2"/><circle cx="27.1" cy="32.4" r=".2"/><circle cx="18.6" cy="49.7" r=".8"/><circle cx="21.6" cy="43.1" r=".8"/><circle cx="20.4" cy="46" r=".8"/><circle cx="17.7" cy="46.9" r=".5"/></g><circle cx="17.7" cy="46.9" r=".3"/><path d="m17.6 47-.6-.2s-.2-.1-.1-.3.3 0 .3 0l.5.3s.1.1 0 .1c0 .1-.1.1-.1.1z" fill="#fff"/><path d="m17.6 47-.6-.2s-.2-.1-.1-.3.3 0 .3 0l.5.3s.1.1 0 .1c0 .1-.1.1-.1.1z" fill="none" stroke="#000"/><path d="m17.2 37.3c.1-.1.2-.1.2 0l.2.2c.1.1.1.2 0 .2 0 .1-.1.1-.2 0l-.2-.2c0-.1 0-.2 0-.2zm.5.4c.1-.1.2-.1.2 0l.2.2v.2s-.1 0-.2 0l-.2-.2c-.1 0-.1-.1 0-.2zm.4.5c.1-.1.2-.1.2 0l.2.2c.1.1.1.2 0 .2-.1.1-.1.1-.2 0l-.2-.2c0-.1 0-.2 0-.2zm.5.5c.1-.1.2-.1.2 0l.2.2c.1.1.1.2 0 .2-.1.1-.1.1-.2 0l-.2-.2c0-.1 0-.2 0-.2zm.5.5c.1-.1.2-.1.2 0l.2.2c.1.1.1.2 0 .2-.1.1-.1.1-.2 0l-.2-.2c0-.1 0-.2 0-.2zm.5.4c.1-.1.2-.1.2 0l.2.2c.1 0 .1.1 0 .2s-.1.1-.2 0l-.2-.2c-.1 0-.1-.1 0-.2z"/><circle cx="17" cy="37" r=".1"/><circle cx="20.3" cy="40.3" r=".1"/><path d="m18.1 42.2-2.8-2.8c-.1-.1-.1-.2 0-.3l.2-.2c.1-.1.2-.1.3 0l2.7 2.8c.1.1.1.2 0 .2l-.2.2c-.1.1-.2.1-.2.1zm-2.3-3.2c-.1 0-.1 0-.2 0l-.2.2c-.1.1-.1.2 0 .2l2.8 2.8c.1.1.1.1.2 0l.2-.2c.1-.1.1-.2 0-.2-.1-.1-2.8-2.8-2.8-2.8z"/><circle cx="15" cy="38.6" fill="#c12127" r=".4"/><path d="m19.1 42.7c-.1.2-.4.2-.5 0s-.1-.4 0-.5c.2-.2.4-.2.6 0 0 .1 0 .4-.1.5zm6.3-13.4 2.6 2.6s21.5-22.1 22-22.6 1.6-1.3 3.3-.6c2-2.2 4.2-4.9 5.3-6.3 1.3-1.8-.1-2.5-1-2.1-5.3 2.3-8 3.6-8.9 4.1-.1 0 .7 1.3-.8 2.8-1.6 1.6-22.5 22.1-22.5 22.1z" fill="#c12127"/><path d="m25.3 29.3c.2-.2 21-20.5 22.5-22 1.2-1.2 1-2.2.8-2.6 0-.1-.1-.2 0-.2 1.1-.6 3.8-1.9 8.9-4.1.5-.2 1-.1 1.3.2.4.4.3 1.1-.3 1.9-1.2 1.5-3.4 4.1-5.3 6.3-1.7-.7-2.8.1-3.3.6s-21.8 22.4-22 22.6zm23.4-24.8v.1c0 .2.2.5.1 1-.1.6-.4 1.1-.9 1.7-1.5 1.5-21.8 21.3-22.5 22l2.6 2.6c.7-.7 21.5-22.1 22-22.6s1.6-1.3 3.3-.6c1.9-2.1 4.2-4.8 5.3-6.3.6-.8.7-1.5.3-1.9-.3-.3-.8-.4-1.3-.2-5.1 2.3-7.8 3.6-8.9 4.2zm-23.4 24.8c.2-.2 21-20.5 22.5-22 1.2-1.2 1-2.2.8-2.6 0-.1-.1-.2 0-.2 1.1-.6 3.8-1.9 8.9-4.1.5-.2 1-.1 1.3.2.4.4.3 1.1-.3 1.9-1.2 1.5-3.4 4.1-5.3 6.3-1.7-.7-2.8.1-3.3.6s-21.8 22.4-22 22.6zm23.4-24.8v.1c0 .2.2.5.1 1-.1.6-.4 1.1-.9 1.7-1.5 1.5-21.8 21.3-22.5 22l2.6 2.6c.7-.7 21.5-22.1 22-22.6s1.6-1.3 3.3-.6c1.9-2.1 4.2-4.8 5.3-6.3.6-.8.7-1.5.3-1.9-.3-.3-.8-.4-1.3-.2-5.1 2.3-7.8 3.6-8.9 4.2z" fill="#fff"/><path d="m55.6 6.8c.1.1.1-.1.2 0v.2c0 .3.4.4.5.6s.1.1.3 0c.1-.1.2-.1.3-.3s.1-.3.2-.4c.1-.2 0-.2-.1-.2-.3 0-.4-.3-.8-.2-.2 0-.1.1-.2 0 0 0 0-.1-.1-.2s-.4.4-.3.5zm-.3-.5.4.3.1-.1-.4-.3zm-1 2.2c.1.1.1-.1.2 0v.2c0 .4.4.4.5.6s.1.1.3 0c.1-.1.2-.1.3-.3.2-.2.1-.3.2-.4.1-.2 0-.2-.1-.2-.3 0-.4-.3-.8-.2-.2 0-.1.1-.2.1 0 0 0-.1-.1-.2-.1-.2-.4.3-.3.4zm-.3-.5.4.3.1-.1-.4-.3zm2.9-2.8c.1.1.1-.1.2 0v.2c0 .3.4.4.5.6s.1.1.3 0c.1-.1.2-.1.3-.3s.1-.3.2-.4c.1-.2 0-.2-.1-.2-.3 0-.4-.3-.8-.2-.2.1-.1.1-.2.1 0 0 0-.1-.1-.2-.1-.2-.4.3-.3.4zm-.4-.5.5.3.1-.1-.5-.3zm-4.4-2.5c-.1-.1-.2 0-.2-.1 0 0 0-.1.1-.2.1-.3-.2-.6-.2-.8s0-.2-.2-.1c-.2 0-.2 0-.4.1s-.2.2-.4.3-.1.2 0 .3c.2.1.2.5.5.6h.2s-.1.1 0 .2c.1.2.7-.1.6-.3zm.1.6-.3-.4-.2.1.3.4zm2-1.6c-.1-.1-.1 0-.2-.1 0 0 0-.1.1-.2.2-.2-.1-.5-.1-.7s-.1-.2-.2-.1c-.2 0-.2 0-.4.1s-.2.2-.4.3-.1.2 0 .3c.2.1.2.5.6.6h.2s-.1.1 0 .2c0 .1.6-.2.4-.4zm.1.7-.3-.4-.2.1.3.4zm-4.3 1.3c-.1-.2-.1 0-.2-.1 0 0 0-.1.1-.2.1-.3-.2-.6-.2-.8s0-.2-.2-.1c-.2 0-.2 0-.4.1s-.2.2-.4.3-.1.2 0 .3c.2.1.2.5.6.6.2 0 .2 0 .2.1 0 0-.1.1 0 .2 0 .1.6-.2.5-.4zm.1.7-.3-.4-.2.1.3.4z" fill="#c12127"/><path d="m47.7 7.4.2-.2h.1l2 2v.1l-.2.2s0 0-.1 0zm-1.8 1.8.2.2.1.1.1.1.1.1.1.1.2.2.2.2.1.1.1.1.1.1.1.1.1.1.1.1.1.1v.1h.1v-.1l-.1-.1.3.2-.1-.1-.1-.1-.1-.1-.1-.1-.1-.1-.1-.1-.2-.2-.2-.2-.1-.1-.1-.1-.1-.1-.1-.1-.1-.1-.5-.3c.1-.1 0-.1 0 0zm-1.6 1.6.2.2.1.1.1.1.2.2.2.2.2.2.2.2.1.1.1.1.1.1.2.1.2.1.1.1h.1v-.1l-.1-.1-.1-.1-.1-.1-.1-.1-.1-.1h-.1l-.2-.2-.2-.2-.2-.2-.2-.2-.1-.1-.1-.1-.1-.1-.4-.1c.1-.1 0-.1 0 0 0-.1 0 0 0 0zm-1.5 1.5.1.1.1.1.2.1.1.1.1.1.1.1.2.2.3.2.2.2.1.1.1.1.1.1.1.1.1.1.1.1c0 .1.1.1.1 0s0-.1 0-.1l.1.3-.1-.1-.1-.2-.1-.1-.1-.1-.1-.1-.2-.2-.2-.2-.4-.3-.1-.1-.1-.1-.1-.1-.2-.1-.2-.2v-.1h-.2c.1-.1 0-.1 0 0zm-1.4 1.5.2.2.1.1.2.1.1.1.1.1.2.2.3.2.3.3.2.2.2.1.1.1.1.1.1.1h.1v-.1l-.1-.1-.1-.1-.1-.1-.1-.1-.3-.1-.3-.2-.3-.2-.2-.2-.1-.1-.1-.2-.2-.2-.1-.1-.1-.1h-.2c.1-.1 0-.1 0 0 0-.1 0 0 0 0zm-1.4 1.2.1.1.1.1.1.1.1.1.1.1.1.1.1.1.3.3.2.2.1.1.1.1.1.1.1.1.1.1.1.1.1.1.1.1.1.1.1.1.1.1h.1v-.1l-.2-.2-.1-.1-.1-.1v-.1l-.1-.1-.1-.1-.1-.1-.1-.1-.1-.1-.1-.1-.2-.2-.2-.2-.1-.1-.1-.1-.1-.1-.1-.1-.1-.1-.1-.1-.2-.1h-.2c.1-.1.1-.1 0 0zm-1.2 1.3.1.1.3.3.3.3.2.2.1.1.1.1.1.1.1.1.1.1.2.1.2.1.2.1.2.2.1.1h.1v-.1l-.2.1-.2-.2-.1-.1-.2-.1-.2-.1-.1-.1-.1-.1-.1-.3-.1-.1-.1-.1-.2-.2-.2-.3-.4-.3h-.2c.1-.1 0-.1 0-.1-.1 0-.1 0 0 .1zm-1.2 1.1.1.1.3.3.3.3.2.2.1.1.1.1.1.1.2.2.1.1.2.1.2.1.2.1.1.1.1.1h.1v-.1l-.1-.1-.1-.1-.2-.1-.2-.1-.2-.1-.2-.1v-.1l-.1-.1-.1-.1-.1-.1-.3-.3-.3-.2-.3-.3-.2-.1c0-.1 0-.1 0 0-.1 0 0 0 0 0zm-1.2 1.2.1.1.3.3.3.3.2.2.1.1.1.1.1.1.1.1.1.1.2.1.2.1.2.1.1.1.1.1h.1v-.1l-.1-.1-.1-.1-.1-.1-.2-.2-.2-.2-.2-.1-.2-.2-.2-.1-.1-.1-.1-.1-.1-.1-.2-.2-.3-.3-.3-.3-.1-.1h-.1c.3.4.3.5.3.5zm-1 1 .1.1.3.3.3.3.2.2.2.1.1.1.1.1.1.1.2.1.1.1.2.1.2.2.1.1.1.1h.1v-.1l-.1-.1-.1-.1-.2-.2-.2-.2-.2.2-.1-.1-.2-.2-.1-.1-.1-.1-.1-.1-.2-.2-.3-.3-.3-.3-.1-.1h-.1c-.1-.1-.1 0 0 0zm-1.1 1 .2.2.2.2.3.3.2.2.1.1.1.1.2.1.1.1.2.1.2.1.2.2.1.1.1.1.1.1.1.1h.1v-.1l-.1-.1-.1-.1-.1-.1-.1-.1-.2-.1-.2-.2-.1.1-.1-.1-.1-.1-.2-.1-.1-.1-.2-.2-.3-.3-.2-.2-.2-.1-.1-.1h-.1c0-.2 0-.1 0-.1zm-.9.9.2.2.2.2.3.3.2.2.2.1.1.1.1.1.2.1.2.1.2.1.2.2.1.1.1.1.1.1.1.1h.1v-.1l-.1-.1-.1-.1-.1-.1-.1-.1-.2-.2-.2-.2-.2.2-.2-.1-.1-.1-.1-.1-.2-.1-.2-.2-.3-.3-.2-.2-.1-.1-.1-.1h-.1zm-.9.9.2.2.2.2.3.3.2.2.2.1.2.1.1.1.2.1.1.1.2.2.2.2.1.1.1.1.1.1.1.1h.1v-.1l-.1-.1-.1-.1-.1-.1-.1-.1-.2-.1h-.3l-.2-.1-.2-.1-.1-.1-.2-.1-.1-.1-.2-.2-.2-.5-.2-.2-.1-.1-.2-.1c0-.1 0-.1 0 0-.1 0 0 0 0 0zm-.9.9.2.2.2.2.3.3.2.2.2.2.2.1.2.1.2.2.2.1.2.2.2.1.1.1.1.1.1.1.1.1h.1v-.1h-.1l-.3-.1-.1-.1-.1-.1-.1-.1-.2-.1-.2-.1-.2-.2-.1-.2-.2-.1-.1-.2-.2-.1-.2-.2-.3-.3-.2-.2-.1-.1-.1-.1h-.1c.1-.1.1 0 .1.1zm-.8.8.2.2.2.2.3.3.2.2.1.2.1.1.2.1.2.1.2.2.2.2.2.2.1.1.1.1.1.1.1.1h.1v-.1l-.1-.1-.1-.1-.2-.1-.1-.1-.2-.2-.2-.2-.2-.1-.1-.1-.2-.1v-.2l-.1-.1-.2-.2-.3-.3-.2-.2-.2-.2-.1-.1h-.1zm-.7.7.2.2.1.1.1.1.1.1.1.1.1.1.1.1.1.1.1.1.1.1.1.1.2.2.1.1.1.1.1.1.1.1.1.1.1.1h.1v-.1l.2.3-.1-.1-.1-.1-.1-.1-.1-.1v-.1l-.2-.2-.2-.2-.1-.1-.1-.1-.2-.1-.1-.1-.1-.2-.1-.1-.1-.1-.1-.1-.1-.1-.1-.1-.1-.1h-.1c-.3-.2-.2-.1-.2-.1zm-.7.7.2.2.1.1.1.1.1.1.1.1.1.1.1.1.1.1.1.1.1.1.1.2.2.2.1.1.1.1.1.1.1.1.1.1.1.1v.1h.1s0-.1 0-.1l-.1-.1-.1-.1-.1-.1-.1-.1-.1-.1-.1-.1-.2-.2-.1-.2-.1-.2-.1-.1-.1-.1-.1-.1-.1-.1-.1-.1-.1-.1-.1-.1-.1-.1-.1-.1-.1-.1h-.1c-.1 0-.1.1 0 .1zm-.8.7.1.1.3.3.3.3.2.2.2.1.1.1.2.2.1.1.2.2.2.2.2.2.1.1.1.1.1.1.1.1h.1v-.1l-.1-.1-.1-.1-.1-.1-.1-.1-.2-.1-.2-.2-.2-.1-.1-.2-.1-.2-.2-.1-.1-.2-.2-.2-.3-.3-.3-.3-.2-.1s0-.1-.1.1c0-.1 0-.1 0 0zm-.6.6.1.1.3.3.3.3.2.2.2.2.1.2.1.1.2.2.1.2.2.2.2.1.1.1.1.1.1.1.1.1h.1v-.1l-.1-.1v-.1l-.1-.1-.1-.1-.2-.2-.2-.2-.2-.2-.1-.2h-.1l-.1-.1-.1-.1-.2-.2-.3-.3-.3-.3-.4-.2c.1-.1 0-.1 0 0 0-.1 0 0 0 0zm-.6.6.1.1.3.3.3.3.2.2.2.1.1.2.1.1.3.3.1.2.2.2.2.1.1.1.1.1.1.1.1.1h.1v-.1l-.1-.1-.1-.1-.1-.1-.1-.1-.2-.2-.2-.2-.1-.2-.2-.2-.1-.1-.1-.1-.1-.1-.3-.3-.3-.3-.3-.3-.1-.1h-.1c-.1 0-.1.1-.1.1zm-.6.6.2.2.2.2.3.3.2.2.1.1.1.2.1.2.2.2.2.2.2.2.2.2.1.1.1.1.1.1.1.1h.1v-.1h-.1l-.1-.1-.1-.1-.1-.1.1-.2-.2-.2-.2-.2-.2-.2-.2-.2-.2-.1v-.1l-.1-.2-.2-.2-.3-.3-.2-.2-.2-.1h-.2c.1-.1 0-.1 0 0 0-.1 0 0 0 0zm-.5.5.2.2.2.2.3.3.2.2.1.2.2.1.1.1.2.2.2.2.2.2.2.2.1.1.1.1.1.1.1.1h.1v-.1h-.1l-.1-.1-.1-.1-.1-.1-.1-.1-.2-.2-.1-.2-.1-.2-.2-.2-.1-.2-.2-.1-.1-.1-.2-.2-.3-.3-.2-.2-.1-.1-.1-.1h-.1c-.2 0-.2 0-.1.1zm-.5.5.2.2.2.2.3.3.2.2.1.2.2.1.1.1.2.2.2.2.2.2.2.2.1.1.1.1.1.1.1.1h.1v-.1h-.1l-.1-.1-.1-.1v-.2l-.1-.1-.2-.2-.2-.2-.2-.2-.2-.2-.2-.1-.1-.1-.2-.2-.3-.3-.2-.2-.2-.3-.1-.1h-.1z" fill="#fff"/><circle cx="56" cy="3.9" fill="#fff" r=".4"/><path d="m55.8 4.1c-.1-.1-.1-.3 0-.5.1-.1.3-.1.5 0 .1.1.1.3 0 .5s-.4.2-.5 0zm.4-.4c-.1-.1-.2-.1-.3 0s-.1.2 0 .3.2.1.3 0 .1-.2 0-.3z"/><circle cx="56" cy="3.9" r=".2"/><circle cx="54.7" cy="5.6" fill="#fff" r=".4"/><path d="m54.5 5.8c-.1-.1-.1-.3 0-.5.1-.1.3-.1.5 0s.1.3 0 .5c-.2.2-.4.2-.5 0zm.4-.4c-.1-.1-.2-.1-.3 0s-.1.2 0 .3.2.1.3 0 .1-.2 0-.3z"/><circle cx="54.7" cy="5.6" r=".2"/><circle cx="53.3" cy="7.2" fill="#fff" r=".4"/><path d="m53 7.5c-.1-.1-.1-.3 0-.5.1-.1.3-.1.5 0 .1.1.1.3 0 .5s-.3.1-.5 0zm.4-.4c-.1-.1-.2-.1-.3 0s-.1.2 0 .3.2.1.3 0 .1-.2 0-.3z"/><circle cx="53.3" cy="7.2" r=".2"/><circle cx="54.6" cy="2.6" fill="#fff" r=".4"/><path d="m54.3 2.8c-.1-.1-.1-.3 0-.5.1-.1.3-.1.5 0s.1.3 0 .5c-.1.1-.4.1-.5 0zm.4-.4c-.1-.1-.2-.1-.3 0s-.1.2 0 .3.2.1.3 0c.1 0 .1-.2 0-.3z"/><circle cx="54.6" cy="2.6" r=".2"/><circle cx="52.5" cy="3.6" fill="#fff" r=".4"/><path d="m52.2 3.8c-.1-.1-.1-.3 0-.5.1-.1.3-.1.5 0 .1.1.1.3 0 .5s-.4.2-.5 0zm.4-.4c-.1-.1-.2-.1-.3 0s-.1.2 0 .3.2.1.3 0c.1 0 .1-.2 0-.3z"/><circle cx="52.5" cy="3.6" r=".2"/><circle cx="50.4" cy="4.5" fill="#fff" r=".4"/><path d="m50.1 4.8c-.1-.1-.1-.3 0-.5s.3-.1.5 0c.1.1.1.3 0 .5-.1.1-.4.1-.5 0zm.4-.4c-.1-.1-.2-.1-.3 0s-.1.2 0 .3.2.1.3 0 .1-.2 0-.3z"/><circle cx="50.4" cy="4.5" r=".2"/><g fill="#fff"><path d="m48.2 7.4c.2-.2.9-1 1-1.6 0 0 0-.1 1.2-.5.7-.2 1.4-.5 1.9-.6.6-.2 1-.2 1.1 0 .2.2.1.5-.2 1.1s-.9 1.3-1.1 1.7c-.1.2-.7 1-.8 1-.8 0-1.3.5-1.4.5s-1.7-1.6-1.7-1.6zm1.1-1.6c0 .2-.2.8-.9 1.6l1.6 1.6c.1-.1.6-.5 1.5-.6.1-.1 1.3-1.7 1.9-2.6.3-.5.3-.8.2-1-.2-.2-.5-.2-1.1 0-1.1.2-3.1.9-3.2 1z"/><circle cx="44.7" cy="12.5" r=".2"/><circle cx="41.9" cy="15.4" r=".2"/><circle cx="39.4" cy="17.9" r=".2"/><circle cx="37.1" cy="20.2" r=".2"/><circle cx="33.6" cy="22.4" r=".2"/><circle cx="34.9" cy="23.7" r=".2"/><circle cx="31.7" cy="25.6" r=".2"/><circle cx="30.3" cy="27" r=".2"/><circle cx="29" cy="28.3" r=".2"/><circle cx="27.9" cy="29.4" r=".2"/><path d="m16 38.8 32.1-31.5 2.1-2.9h.1l-2.2 2.9zm.4.5 32-31.6 4.2-4.1-4.2 4.1zm.4.5 32-31.7 5.9-5.7-5.9 5.7zm.5.5 31.8-31.8 7.1-4.6v.1l-7 4.6zm.6.5 31.6-32 5.3-3.4v.1l-5.3 3.4zm.4.5 31.5-32.2 3.5-2v.1l-3.5 2z"/></g></svg>