<svg height="60" width="60" xmlns="http://www.w3.org/2000/svg"><path d="m28 26.68s-.4.37-1.47.38c-.5 0-.7.1-.92.23-3.43 1.84-22.4 12.18-24.43 13.24-2.17 1.13-1 2.94.88 2.62 1.17-.2 9.95-1.48 11.7-1.46 1.6.02 2.4 1.48 2.23 2.88-.2 1.73-1.4 11.52-1.68 13.5-.26 1.8 1.48 2.3 2.3 1.05s13.22-26.62 13.49-27.17c.27-.54.3-.7.3-1.13.02-.75.2-1.4.78-2.25l-3.17-1.9z"/><path d="m14.57 38.22c.23-.23.47-.35.55-.27l4.3 4.3c.1.1-.03.33-.26.56-.22.23-.47.36-.54.28l-4.32-4.3c-.08-.1.04-.34.27-.56zm2.13-1.52c.18-.18.47-.18.65 0l3.16 3.16c.2.18.2.47 0 .65-.17.2-.46.2-.64 0l-3.16-3.15c-.18-.18-.18-.47 0-.65zm1.1-1.22 1.7-1.7c.08-.07.2-.07.3 0l3.72 3.73c.07.1.07.22 0 .3l-1.7 1.7c-.08.07-.2.07-.3 0l-3.7-3.73c-.1-.08-.1-.2 0-.3z" fill="#fff"/><path d="m18.3 35.84 1.56-1.57c.04-.04.12-.04.17 0l3 3c.04.05.04.13 0 .17l-1.56 1.56c-.05.05-.13.05-.18 0l-3-3c-.05-.04-.05-.12 0-.16z"/><g fill="#fff"><circle cx="19.049" cy="35.862" r=".226"/><circle cx="19.485" cy="36.298" r=".226"/><circle cx="19.948" cy="36.762" r=".227"/><path d="m20.6 37.42c-.08.1-.23.1-.32 0-.08-.1-.08-.23 0-.32.1-.1.24-.1.32 0 .1.1.1.23 0 .32z"/><circle cx="20.941" cy="37.754" r=".226"/><circle cx="21.406" cy="38.219" r=".227"/><path d="m22.77 30.52 1.7-1.7c.07-.08.2-.08.28 0l3.73 3.73c.08.08.08.2 0 .28l-1.7 1.7c-.08.08-.2.08-.3 0l-3.7-3.73c-.1-.07-.1-.2 0-.28z"/></g><path d="m23.26 30.87 1.56-1.56c.05-.04.12-.04.17 0l3 3c.04.06.04.13 0 .18l-1.57 1.56c-.05.05-.13.05-.17 0l-3-3c-.05-.04-.05-.12 0-.17z"/><g fill="#fff"><circle cx="24.836" cy="30.077" r=".227"/><circle cx="25.272" cy="30.512" r=".227"/><circle cx="25.735" cy="30.975" r=".227"/><circle cx="26.23" cy="31.47" r=".225"/><circle cx="26.685" cy="31.925" r=".226"/><circle cx="27.133" cy="32.372" r=".227"/><circle cx="18.59" cy="49.664" r=".795"/><circle cx="21.588" cy="43.107" r=".794"/><circle cx="20.412" cy="45.997" r=".794"/><circle cx="17.668" cy="46.851" r=".541"/></g><circle cx="17.669" cy="46.852" r=".252"/><path d="m17.6 46.95-.58-.2s-.23-.08-.14-.28c.1-.23.32-.05.32-.05l.48.35s.08.06.04.13c-.05.1-.13.05-.13.05z" fill="#fff"/><path d="m17.6 46.95-.58-.2s-.23-.08-.14-.28c.1-.23.32-.05.32-.05l.48.35s.08.06.04.13c-.05.1-.13.05-.13.05z" fill="none" stroke="#000"/><path d="m17.2 37.26.04-.03c.05-.06.14-.06.2 0l.2.2c.06.06.06.15 0 .2l-.03.03c-.04.06-.13.06-.18 0l-.2-.2c-.06-.06-.06-.15 0-.2zm.47.44.03-.02c.05-.05.14-.05.2 0l.2.2c.05.07.05.16 0 .2l-.03.04c-.05.05-.14.05-.2 0l-.2-.2c-.06-.07-.06-.15 0-.2zm.46.48.03-.03c.06-.06.14-.06.2 0l.2.2c.06.06.06.15 0 .2l-.02.03c-.06.06-.15.06-.2 0l-.2-.2c-.06-.06-.06-.15 0-.2zm.47.48.04-.03c.06-.06.14-.06.2 0l.2.2c.06.06.06.15 0 .2l-.02.03c-.06.06-.15.06-.2 0l-.2-.2c-.06-.06-.06-.15 0-.2zm.53.5.03-.03c.05-.05.14-.05.2 0l.2.2c.06.06.06.15 0 .2l-.02.03c-.06.06-.15.06-.2 0l-.2-.2c-.06-.06-.06-.15 0-.2zm.47.48.02-.03c.05-.05.14-.05.2 0l.2.22c.06.05.06.14 0 .2l-.02.02c-.06.06-.15.06-.2 0l-.2-.2c-.06-.06-.06-.15 0-.2z"/><circle cx="16.956" cy="36.956" r=".129"/><circle cx="20.302" cy="40.301" r=".128"/><path d="m18.07 42.15-2.75-2.75c-.07-.07-.07-.18 0-.26l.2-.2c.08-.07.2-.07.27 0l2.73 2.75c.07.06.08.18 0 .25l-.2.2c-.07.07-.2.07-.26 0zm-2.32-3.18c-.05-.05-.14-.05-.2 0l-.2.2c-.05.06-.05.15 0 .2l2.75 2.75c.06.06.15.06.2 0l.2-.2c.06-.06.06-.15 0-.2z"/><circle cx="14.964" cy="38.583" r=".385"/><path d="m19.06 42.7c-.15.15-.4.15-.55 0-.14-.15-.14-.4 0-.55.16-.15.4-.15.56 0 .15.15.15.4 0 .55zm6.32-13.41 2.62 2.61s21.5-22.07 22-22.57 1.63-1.27 3.3-.57c2.03-2.23 4.23-4.86 5.32-6.27 1.34-1.79-.1-2.49-1-2.11-5.34 2.33-8 3.64-8.93 4.12-.1.04.68 1.26-.85 2.78-1.52 1.52-22.48 22-22.48 22z"/><path d="m25.34 29.29.02-.03c.2-.2 20.97-20.5 22.48-22 1.22-1.22.95-2.24.85-2.62-.04-.1-.06-.16-.02-.17 1.13-.58 3.8-1.88 8.94-4.1.45-.2 1-.13 1.3.18.43.42.3 1.12-.3 1.93-1.17 1.5-3.4 4.15-5.3 6.27h-.04c-1.66-.7-2.77.05-3.28.56-.5.5-21.76 22.37-21.98 22.6l-2.68-2.64zm23.36-24.81c0 .03.02.08.03.14.05.2.15.54.07 1-.1.57-.4 1.13-.93 1.66-1.5 1.48-21.78 21.32-22.46 21.98l2.6 2.6c.7-.7 21.48-22.1 21.97-22.58.52-.52 1.64-1.27 3.3-.57 1.92-2.12 4.15-4.75 5.3-6.26.6-.8.73-1.48.33-1.88-.3-.3-.83-.38-1.27-.2-5.12 2.23-7.8 3.53-8.93 4.1zm-23.36 24.81.02-.03c.2-.2 20.97-20.5 22.48-22 1.22-1.22.95-2.24.85-2.62-.04-.1-.06-.16-.02-.17 1.13-.58 3.8-1.88 8.94-4.1.45-.2 1-.13 1.3.18.43.42.3 1.12-.3 1.93-1.17 1.5-3.4 4.15-5.3 6.27h-.04c-1.66-.7-2.77.05-3.28.56-.5.5-21.76 22.37-21.98 22.6l-2.68-2.64zm23.36-24.81c0 .03.02.08.03.14.05.2.15.54.07 1-.1.57-.4 1.13-.93 1.66-1.5 1.48-21.78 21.32-22.46 21.98l2.6 2.6c.7-.7 21.48-22.1 21.97-22.58.52-.52 1.64-1.27 3.3-.57 1.92-2.12 4.15-4.75 5.3-6.26.6-.8.73-1.48.33-1.88-.3-.3-.83-.38-1.27-.2-5.12 2.23-7.8 3.53-8.93 4.1z" fill="#fff"/><path d="m55.64 6.82c.14.1.13-.05.2 0 .03.02 0 .1.02.18.03.34.43.4.54.6.12.22.14.12.27 0 .14-.14.2-.12.33-.32.14-.22.1-.27.2-.44s0-.23-.14-.23c-.27 0-.44-.32-.78-.2-.15.03-.12.08-.2.04-.03 0 .02-.1-.06-.16-.2-.1-.54.44-.38.54zm-.38-.52.44.27.1-.14-.44-.26zm-.91 2.23c.14.1.13-.05.2 0 .04.02.02.1.03.18.02.35.42.42.54.63.1.2.13.1.27-.03.12-.13.2-.1.3-.3.15-.23.1-.28.2-.45.12-.17.03-.23-.12-.23-.27 0-.44-.33-.78-.22-.16.04-.13.1-.2.05-.03 0 .02-.1-.06-.16-.2-.12-.54.43-.4.53zm-.38-.51.44.26.1-.14-.42-.26zm2.96-2.8c.14.1.13-.05.2 0 .03.02 0 .1.02.18.03.34.43.4.55.6.1.22.13.12.26 0 .14-.14.2-.13.33-.32.13-.23.08-.27.2-.44.1-.18 0-.23-.14-.23-.27 0-.44-.32-.78-.22-.16.05-.13.1-.2.06-.03 0 0-.1-.07-.16-.17-.1-.53.44-.37.54zm-.38-.52.44.27.1-.14-.45-.26zm-4.45-2.5c-.1-.14-.15-.02-.2-.1 0-.03.05-.1.1-.17.13-.3-.2-.56-.2-.8 0-.23-.05-.16-.24-.1-.18.04-.23 0-.43.1-.24.13-.2.2-.4.3-.17.1-.12.18 0 .26.25.13.23.5.6.57.14.03.14-.03.2.04 0 .04-.08.1-.04.18.1.2.68-.12.6-.28zm.08.63-.26-.44-.16.07.26.43zm2.06-1.6c-.08-.14-.14-.02-.18-.1-.02-.03.03-.1.07-.17.14-.3-.17-.56-.17-.8 0-.23-.07-.16-.25-.1-.17.04-.22 0-.42.1-.24.13-.22.2-.4.3-.17.1-.12.18 0 .26.25.14.23.5.58.58.16.03.16-.03.2.04.02.03-.06.1-.02.18.1.18.7-.13.6-.3zm.09.63-.27-.44-.15.08.27.43zm-4.33 1.39c-.08-.15-.14-.03-.2-.1 0-.03.05-.1.1-.17.13-.3-.18-.57-.2-.8 0-.24-.05-.16-.23-.1-.18.04-.23 0-.44.1-.23.13-.2.2-.4.3-.17.1-.1.18.02.26.23.13.22.5.57.57.16.05.16 0 .2.06.02.03-.07.1-.02.17.1.2.68-.12.6-.28zm.08.63-.26-.44-.15.08.25.43z"/><path d="m47.73 7.4.18-.2h.07l2.02 2.04c.02 0 .02.04 0 .05l-.18.18c0 .02-.04.02-.06 0l-2.03-2.04c-.02 0-.02-.04 0-.05zm-1.79 1.85.07.06.15.14.14.12.12.12.14.12.12.13.2.18.2.2.12.12.12.12.13.13.13.13.14.13.13.14.14.13.05.08c.04.03.08.04.1.02.04-.03.03-.07 0-.1l-.08-.08-.13-.14-.14-.14-.13-.13-.13-.12-.13-.13-.12-.12-.13-.13-.2-.18-.18-.2-.13-.1-.14-.13-.13-.14-.14-.12-.14-.13-.08-.05c-.03-.03-.08-.04-.1 0-.02.02 0 .06.02.1zm-1.59 1.55.07.08.14.13.13.14.12.13.2.18.25.25.25.24.2.2.12.12.14.12.13.13.15.14.15.14.07.07c.04.03.1.04.1 0 .03 0 .02-.06-.02-.1l-.07-.06-.14-.15-.14-.13-.14-.13-.13-.13-.14-.13-.2-.18-.25-.25-.25-.24-.2-.18-.13-.13-.13-.13-.13-.13-.06-.08c-.04-.03-.1-.04-.1 0-.03 0-.02.06 0 .1zm-1.51 1.53.04.03.07.07.1.1.16.14.14.13.14.12.13.13.2.2.26.24.2.18.13.13.12.14.14.13.14.13.14.14.07.07c.05.05.1.05.12.03s0-.07-.02-.1l-.08-.08-.14-.14-.14-.12-.13-.13-.13-.14-.13-.1-.2-.2-.25-.25-.2-.2-.14-.12-.14-.13-.13-.13-.16-.13-.1-.1-.08-.07-.04-.04c-.03-.03-.08-.04-.1 0-.02.02 0 .06.02.1zm-1.44 1.42.07.07.15.14.14.14.15.14.14.13.14.13.2.2.26.25.27.26.2.2.15.13.14.13.13.14.07.06c.04.04.1.04.1.02.03-.03.02-.08 0-.1l-.1-.08-.13-.13-.14-.13-.13-.13-.2-.2-.27-.24-.27-.25-.2-.2-.13-.12-.14-.13-.15-.14-.14-.13-.14-.14-.08-.07c-.03-.04-.08-.04-.1-.02-.03.02-.02.07.02.1zm-1.35 1.28.04.03.07.08.07.07.07.08.12.1.14.14.13.14.12.13.2.18.2.2.12.12.13.13.14.14.1.1.08.07.07.07.07.08.08.08.07.07.08.08.08.1.04.03c.03.03.08.04.1 0 .03 0 .02-.06-.02-.1l-.04-.03-.06-.08-.08-.08-.08-.07-.07-.08-.06-.08-.08-.07-.07-.07-.1-.1-.14-.13-.14-.14-.12-.12-.2-.2-.2-.18-.12-.13-.14-.14-.14-.13-.1-.1-.07-.08-.08-.07-.07-.08-.04-.03c-.04-.04-.08-.05-.1-.02-.03.02-.02.07 0 .1zm-1.28 1.24.13.13.26.27.27.26.2.2.13.13.13.14.13.14.14.14.14.14.16.15.15.15.16.15.15.16.1.08c.03.04.08.05.1.02.02-.02.02-.07-.02-.1l-.08-.08-.15-.16-.16-.15-.15-.15-.15-.14-.14-.15-.14-.15-.14-.13-.13-.14-.14-.13-.2-.2-.25-.27-.26-.26-.15-.13c-.03-.04-.08-.05-.1-.03-.03.02-.02.07.02.1zm-1.17 1.16.14.14.26.26.27.27.2.2.13.14.14.13.13.14.15.16.14.14.15.15.16.15.15.15.13.12.08.08.05.04c.03.02.08.03.1 0 .03-.02.02-.06-.02-.1l-.04-.04-.1-.08-.1-.12-.16-.15-.15-.14-.15-.15-.15-.13-.14-.14-.13-.14-.14-.15-.14-.14-.2-.2-.27-.25-.27-.27-.14-.13c-.04-.04-.1-.05-.1-.02-.04.02-.03.07 0 .1zm-1.17 1.17.14.13.26.27.27.26.2.2.14.15.14.15.14.14.14.13.14.15.15.15.15.15.16.15.12.12.08.08.04.04c.03.04.08.05.1.02.03-.03.02-.08 0-.1l-.06-.06-.08-.07-.12-.12-.15-.16-.16-.16-.15-.15-.15-.16-.15-.14-.14-.14-.13-.14-.14-.14-.2-.2-.28-.27-.27-.26-.14-.13c-.02-.03-.07-.04-.1 0 0 0 0 .06.03.1zm-1.07 1.03.13.13.27.27.26.27.2.2.15.15.14.14.14.13.14.14.15.15.14.15.15.15.15.16.13.12.08.08.05.04c.03.04.08.05.1.02.03-.02.02-.07-.02-.1l-.04-.04-.1-.1-.1-.1-.17-.16-.15-.16-.15-.14-.14-.15-.16-.16-.14-.14-.14-.14-.13-.14-.2-.2-.28-.27-.27-.27-.14-.14c-.03-.03-.08-.04-.1-.02-.02.03-.02.07.02.1zm-1.01.97.07.08.14.13.2.22.28.27.2.2.14.15.14.14.15.13.14.15.16.15.15.15.17.16.12.12.07.08.08.08.08.1.04.03c.04.03.1.04.1.02.03-.03.03-.08 0-.1l-.05-.05-.08-.1-.1-.07-.07-.08-.1-.12-.17-.15-.15-.16-.15-.15-.14-.15-.14-.15-.15-.14-.13-.14-.2-.2-.28-.3-.2-.2-.15-.14-.06-.06c-.03-.04-.08-.05-.1-.02-.03.02-.02.07 0 .1zm-.97.94.06.07.15.14.2.2.27.3.2.2.16.15.14.14.14.15.16.14.15.15.17.15.15.16.12.13.1.08.07.1.1.08.04.04c.03.03.08.04.1.02.03-.03.02-.08-.02-.1l-.04-.05-.08-.1-.1-.08-.07-.08-.12-.12-.15-.16-.15-.16-.15-.15-.15-.15-.14-.15-.14-.14-.15-.13-.2-.22-.3-.28-.2-.2-.14-.15-.07-.07c-.03-.04-.08-.04-.1-.02-.03.02-.02.07.02.1zm-.88.89.07.07.14.14.22.2.28.3.2.2.15.14.15.15.14.15.15.15.14.15.15.16.15.16.12.12.1.08.07.1.1.07.03.04c.03.05.08.05.1.03.03-.02.02-.07-.02-.1l-.04-.05-.07-.08-.1-.08-.07-.08-.12-.13-.16-.15-.15-.15-.15-.15-.15-.15-.14-.15-.16-.15-.14-.14-.2-.22-.3-.28-.2-.2-.14-.15-.07-.06c-.05-.04-.1-.04-.12-.02-.02.03 0 .07.02.1zm-.85.83.07.07.14.14.2.2.3.3.2.2.15.16.15.15.15.14.15.16.15.15.15.16.16.15.13.12.1.1.07.07.1.1.03.03c.04.03.08.04.1.02.03-.04.02-.1 0-.12l-.06-.04-.08-.1-.1-.07-.08-.08-.12-.14-.16-.16-.16-.15-.15-.16-.14-.16-.16-.15-.14-.16-.15-.14-.2-.22-.3-.28-.2-.22-.15-.14-.07-.07c-.03-.03-.08-.04-.1-.02-.03.03-.02.08.02.1zm-.83.84.08.06.14.14.2.2.3.3.2.2.15.16.13.14.15.15.15.15.15.16.15.16.16.16.1.12.1.08.08.1.1.07.03.05c.05.03.1.04.12 0 .02 0 0-.06-.02-.1l-.04-.04-.1-.08-.07-.08-.1-.1-.12-.1-.16-.17-.15-.16-.16-.15-.13-.15-.15-.15-.15-.15-.14-.15-.2-.22-.3-.28-.2-.2-.15-.15-.07-.07c-.02-.04-.07-.04-.1-.02-.02.02 0 .07.02.1zm-.75.7.08.07.14.14.14.15.14.15.14.14.14.15.15.14.15.15.15.14.14.15.15.15.15.15.16.17.13.12.08.07.1.1.08.07.1.1.07.07.05.05c.03.04.08.05.1.02.03-.02.02-.07-.02-.1l-.04-.05-.1-.08-.07-.1-.1-.07-.07-.08-.1-.1-.1-.12-.16-.16-.16-.16-.15-.15-.14-.15-.16-.15-.14-.15-.15-.15-.14-.14-.13-.15-.15-.13-.14-.15-.15-.14-.07-.07c-.04-.03-.08-.03-.1 0-.03.02-.02.06 0 .1zm-.7.7.07.07.15.15.13.14.15.14.14.15.14.14.14.14.15.15.14.14.14.15.15.15.14.16.16.17.12.12.1.08.07.08.07.08.1.1.08.07.04.06c.03.03.07.04.1 0s0-.06-.02-.1l-.05-.04-.08-.08-.1-.08-.07-.1-.1-.07-.07-.1-.1-.1-.17-.17-.15-.16-.15-.16-.15-.14-.14-.15-.15-.14-.15-.15-.14-.14-.14-.14-.14-.15-.15-.14-.14-.14-.08-.1c-.03-.02-.08-.03-.1 0-.02.02 0 .07.02.1zm-.72.66.15.15.3.3.3.3.2.22.16.15.15.15.16.16.15.15.17.16.17.16.16.16.13.13.08.08.1.1.1.08.03.05c.04.04.1.05.1.02.03-.02.03-.07 0-.1l-.05-.05-.1-.08-.08-.1-.1-.08-.1-.12-.18-.17-.16-.16-.16-.15-.15-.16-.16-.16-.16-.15-.14-.16-.23-.23-.3-.28-.28-.3-.16-.14c-.03-.03-.08-.04-.1-.02-.03.02-.02.07 0 .1zm-.63.64.15.14.3.3.3.3.2.2.16.16.15.16.15.15.16.17.14.16.17.16.17.15.13.13.1.1.07.07.1.1.04.03c.04.04.1.05.1.02.04-.02.03-.07 0-.1l-.05-.05-.1-.08-.08-.1-.08-.08-.14-.13-.17-.17-.17-.16-.16-.16-.15-.16-.16-.15-.14-.15-.15-.15-.23-.23-.3-.3-.28-.28-.15-.15c-.02-.02-.07-.03-.1 0-.02.02 0 .07.02.1zm-.59.6.14.15.3.3.3.28.2.22.16.15.15.16.15.15.16.17.15.16.16.16.17.15.13.13.1.1.07.07.1.1.04.04c.04.02.1.03.1 0 .04-.02.03-.07 0-.1l-.05-.05-.1-.08-.08-.1-.08-.08-.14-.13-.16-.17-.17-.16-.15-.16-.16-.16-.15-.15-.15-.15-.15-.15-.22-.23-.3-.3-.3-.28-.13-.15c-.04-.02-.1-.03-.1 0-.04.02-.03.06 0 .1zm-.61.56.08.07.15.15.22.23.3.3.22.23.14.15.15.16.15.16.16.16.17.16.16.16.17.17.13.13.1.1.07.08.1.1.04.03c.04.03.08.03.1 0 .03 0 .02-.06 0-.1l-.06-.04-.1-.1-.08-.08-.08-.1-.11-.08-.18-.18-.16-.17-.16-.16-.16-.16-.16-.15-.15-.15-.15-.16-.22-.22-.3-.3-.22-.22-.15-.15-.1-.08c-.02-.03-.07-.04-.1 0-.02 0 0 .06.02.1zm-.5.51.07.08.14.14.22.22.3.3.22.22.15.16.16.15.14.15.16.17.16.16.17.16.16.16.12.13.1.08.08.1.1.08.03.04c.04.03.1.04.1.02.03-.02.03-.07 0-.1l-.06-.05-.1-.1-.07-.08-.1-.1-.12-.12-.17-.17-.15-.16-.16-.16-.17-.16-.15-.16-.16-.15-.15-.14-.22-.23-.3-.3-.22-.22-.15-.14-.08-.08c-.03-.03-.08-.04-.1 0-.03 0-.02.06.02.1zm-.49.49.07.08.15.15.22.2.3.3.22.23.14.16.16.14.15.15.16.16.17.16.16.16.17.17.13.13.1.1.08.07.1.1.04.04c.04.03.08.03.1 0 .03 0 .02-.06 0-.1l-.06-.04-.1-.1-.08-.08-.08-.1-.13-.12-.18-.16-.16-.17-.16-.16-.16-.16-.16-.15-.15-.15-.15-.15-.22-.23-.3-.3-.22-.22-.15-.15-.1-.08c-.02-.03-.07-.04-.1 0-.02 0 0 .06.03.1z" fill="#fff"/><circle cx="56.038" cy="3.878" fill="#fff" r=".386"/><path d="m55.8 4.14c-.12-.13-.12-.34 0-.46.13-.13.34-.13.47 0 .13.12.13.33 0 .46s-.34.13-.47 0zm.4-.4c-.1-.1-.24-.1-.34 0s-.1.25 0 .34c.1.1.25.1.35 0s.1-.25 0-.34z"/><circle cx="56.038" cy="3.877" r=".17"/><circle cx="54.704" cy="5.554" fill="#fff" r=".386"/><path d="m54.47 5.82c-.13-.13-.13-.34 0-.47s.34-.13.47 0 .13.34 0 .47-.34.13-.47 0zm.4-.4c-.1-.1-.24-.1-.34 0s-.1.24 0 .34.25.1.35 0 .1-.25 0-.35z"/><circle cx="54.704" cy="5.554" r=".171"/><circle cx="53.271" cy="7.194" fill="#fff" r=".387"/><path d="m53.04 7.46c-.13-.13-.13-.34 0-.47.13-.14.34-.14.46 0 .13.12.13.33 0 .46s-.33.13-.46 0zm.4-.4c-.1-.1-.25-.1-.34 0-.1.1-.1.24 0 .34s.24.1.34 0 .1-.25 0-.35z"/><circle cx="53.271" cy="7.194" r=".171"/><circle cx="54.552" cy="2.557" fill="#fff" r=".386"/><path d="m54.32 2.82c-.13-.13-.13-.34 0-.47.13-.12.34-.12.47 0s.12.34 0 .47c-.14.13-.35.13-.48 0zm.4-.4c-.1-.1-.25-.1-.34 0-.1.1-.1.25 0 .34.1.1.25.1.34 0 .1-.1.1-.25 0-.34z"/><circle cx="54.553" cy="2.557" r=".17"/><circle cx="52.454" cy="3.578" fill="#fff" r=".386"/><path d="m52.22 3.84c-.13-.13-.13-.34 0-.46.13-.13.34-.13.47 0 .12.13.12.34 0 .46-.14.13-.35.13-.48 0zm.4-.4c-.1-.1-.24-.1-.34 0s-.1.25 0 .34c.1.1.25.1.34 0 .1-.1.1-.25 0-.34z"/><circle cx="52.453" cy="3.579" r=".171"/><circle cx="50.353" cy="4.509" fill="#fff" r=".387"/><path d="m50.12 4.77c-.13-.12-.13-.34 0-.46s.34-.12.47 0c.12.13.12.34 0 .47-.14.13-.35.13-.48 0zm.4-.4c-.1-.1-.24-.1-.34 0s-.1.25 0 .34c.1.1.25.1.34 0 .1-.08.1-.24 0-.33z"/><circle cx="50.353" cy="4.509" r=".17"/><g fill="#fff"><path d="m48.24 7.38.02-.03c.2-.2.86-.97.94-1.6 0-.03 0-.1 1.24-.5.66-.23 1.44-.48 1.94-.62.58-.16.96-.15 1.14.03.2.18.13.54-.16 1.06-.32.56-.88 1.35-1.1 1.66-.13.17-.73 1-.8 1-.98.14-1.5.62-1.52.62l-.02.02zm1.02-1.62c-.02.22-.17.8-.93 1.62l1.6 1.55c.1-.1.63-.5 1.5-.62.1-.07 1.34-1.67 1.87-2.6.28-.5.34-.83.18-1-.16-.16-.53-.16-1.08 0-1 .27-3.02.94-3.14 1.06z"/><circle cx="44.736" cy="12.538" r=".223"/><circle cx="41.918" cy="15.357" r=".223"/><circle cx="39.41" cy="17.886" r=".222"/><circle cx="37.077" cy="20.174" r=".223"/><circle cx="33.565" cy="22.423" r=".223"/><circle cx="34.875" cy="23.731" r=".223"/><circle cx="31.656" cy="25.553" r=".223"/><circle cx="30.291" cy="26.988" r=".223"/><circle cx="28.992" cy="28.261" r=".223"/><circle cx="27.86" cy="29.418" r=".223"/><path d="m15.97 38.8-.05-.03 32.22-31.44 2.14-2.9.06.04-2.15 2.9zm.43.54-.04-.05 32-31.55 4.2-4.07.04.04-4.2 4.08zm.43.5-.05-.05 31.98-31.67 5.92-5.67.04.05-5.9 5.67zm.5.51-.05-.05 31.84-31.82 7.06-4.64.04.06-7.05 4.63zm.53.45 31.6-32 5.35-3.4.04.06-5.34 3.4-31.6 31.98zm.41.48 31.56-32.22 3.54-2.02.04.06-3.53 2-31.55 32.23z"/></g></svg>