<svg height="60" viewBox="0 0 60 60" width="60" xmlns="http://www.w3.org/2000/svg"><path d="m60 43.3v-3h-.7v-15.9h-5.3v-1.6h-7.2v1.6h-6.1v-4.9h-17.9v4.9h-13.4c-4.4 0-5.9 1.6-5.9 5.9v2.5l1.4 3.8h-4.9v4.9h6.7l2.7 7.5h49.8v-2.9h.8v-1.5h-.7v-1.3zm-35-22.3h13.6v3.5h-13.6z" fill="#063e89"/><g fill="#fff"><path d="m12.4 39.6c-.2 0-.4-.2-.5-.4l-1.6-11.9c0-.3.1-.5.4-.5s.5.1.5.4l1.6 11.9c.1.3-.1.5-.4.5z"/><path d="m16 39.6c-.2 0-.4-.2-.5-.4l-1.6-11.9c0-.3.1-.5.4-.5s.5.1.5.4l1.6 11.9c.1.3-.1.5-.4.5z"/><path d="m19.6 39.6c-.2 0-.4-.2-.5-.4l-1.6-11.9c0-.3.1-.5.4-.5s.5.1.5.4l1.6 11.9c.1.3-.1.5-.4.5z"/><path d="m23.2 39.6c-.2 0-.4-.2-.5-.4l-1.6-11.9c0-.3.1-.5.4-.5s.5.1.5.4l1.6 11.9c.1.3-.1.5-.4.5.1 0 .1 0 0 0z"/></g><path d="m30.6 9.6h5.9v31.7h-5.9z" fill="#063e89" transform="matrix(.9948 .102 -.102 .9948 2.7716 -3.2914)"/><g fill="#fff"><path d="m35.1 41.9-6.5-.7v-.3l3.4-31.9 6.5.7v.3zm-5.8-1.2 5.3.5 3.2-31-5.3-.5z"/><circle cx="32.2" cy="38.1" r=".9"/></g></svg>