<svg enable-background="new 0 0 60 60" height="60" viewBox="0 0 60 60" width="60" xmlns="http://www.w3.org/2000/svg"><g fill="#af8424"><path d="m59.8 24.4h-1.7v-3.7c0-1.1-.8-2-1.9-2v-6.6c0-.5-.2-.9-.5-1.2-.4-.4-.9-.5-1.3-.6v-.7h-51.1v.8c-.3.1-.7.2-1 .5s-.5.7-.5 1.2v6.6c-1.1.1-1.9 1-1.9 2.1v27.6c0 1.1.9 2 2 2h54.3c1.1 0 2-.9 2-2v-19h1.7v-5zm-57.1-13c.2-.2.4-.2.6-.3v1h51.1v-1.1c.3 0 .6.1.9.4.2.2.3.4.3.7v6.6h-2.5v-1.5h-2.6v1.5h-2.5v-1.5h-2.6v1.5h-8.7v-1.5h-2.2v1.5h-.3v-1.5h-2.2v1.5h-.3v-1.5h-2.2v1.5h-.3v-1.5h-2.2v1.5h-.3v-1.5h-2.2v1.5h-.3v-1.5h-2.2v1.5h-6v-1.5h-2.6v1.5h-1.6v-1.5h-2.5v1.5h-2.7v-1.5h-2.5v1.5h-1.7v-6.6c0-.3.1-.5.3-.7zm7.6 35.2c-4.7 0-8.5-3.8-8.5-8.5s3.8-8.5 8.5-8.5 8.5 3.8 8.5 8.5-3.8 8.5-8.5 8.5zm11-15.7h15.4v8.3h-15.4zm16 17.1h-16.7v-3.2h16.7zm10.4-1.4c-4.7 0-8.5-3.8-8.5-8.5s3.8-8.5 8.5-8.5 8.5 3.8 8.5 8.5-3.8 8.5-8.5 8.5z"/><circle cx="10.3" cy="38.1" r="7.7"/><circle cx="47.7" cy="38.1" r="7.7"/></g></svg>