<svg xmlns="http://www.w3.org/2000/svg" width="60" height="60"><path d="M59.8 24.4h-1.65v-3.7c0-1.1-.85-1.98-1.93-2.03V12.1c0-.5-.17-.9-.5-1.2-.38-.37-.9-.5-1.3-.56v-.72H3.26v.77c-.35.05-.74.2-1.05.5-.3.3-.47.7-.47 1.2v6.56C.66 18.72-.2 19.6-.2 20.7v27.65c0 1.12.9 2.03 2.03 2.03h54.3c1.12 0 2.02-.9 2.02-2.03v-18.9h1.65V24.4zm-57.1-13c.15-.16.37-.25.57-.3v1H54.4v-1.07c.3.04.64.15.87.37.2.17.27.4.27.7v6.56h-2.48V17.2H50.5v1.46H48V17.2h-2.56v1.46h-8.67V17.2h-2.2v1.46h-.32V17.2h-2.2v1.46h-.33V17.2h-2.2v1.46h-.33V17.2H27v1.46h-.33V17.2h-2.2v1.46h-.33V17.2h-2.2v1.46h-5.9V17.2h-2.58v1.46h-1.62V17.2H9.27v1.46H6.62V17.2H4.05v1.46H2.42V12.1c0-.3.1-.53.27-.7zm7.6 35.23c-4.7 0-8.53-3.8-8.53-8.52 0-4.7 3.82-8.5 8.52-8.5 4.7 0 8.5 3.8 8.5 8.53 0 4.7-3.8 8.5-8.5 8.5zM21.26 30.9h15.4v8.33h-15.4V30.9zm16.06 17.13h-16.7V44.8h16.7v3.23zm10.34-1.4c-4.7 0-8.52-3.8-8.52-8.52 0-4.7 3.82-8.5 8.52-8.5s8.5 3.8 8.5 8.53c0 4.7-3.8 8.5-8.5 8.5z"/><circle cx="10.287" cy="38.114" r="7.661"/><circle cx="47.667" cy="38.114" r="7.661"/></svg>