<svg enable-background="new 0 0 60 60" height="60" viewBox="0 0 60 60" width="60" xmlns="http://www.w3.org/2000/svg"><path d="m15.4 18.3h1.1v5.6h-1.1z" fill="#424143"/><path d="m43.5 32.3h1.1v5.6h-1.1z" fill="#424143"/><path d="m43.5 55.8c0 2.3-1.9 4.2-4.2 4.2h-18.5c-2.3 0-4.2-1.9-4.2-4.2v-51.6c0-2.3 1.9-4.2 4.2-4.2h18.5c2.3 0 4.2 1.9 4.2 4.2z" fill="#c12127"/><g fill="#e9ecf1"><path d="m18.5 33.6c0-1.2 0-2.4 0-3.6.6-.1 1.2-.2 1.8-.2v.8c-.4 0-.5.1-.9.1v.8c.3 0 .5 0 .8-.1v.8c-.3 0-.5 0-.8 0v1.4c-.4 0-.5 0-.9 0z"/><path d="m20.5 33.6c0-1.3 0-2.6 0-3.8.3 0 .5-.1.9-.1v3.1h.9v.9c-.6-.1-1.2-.1-1.8-.1z"/><path d="m24.1 33.6c-.1-.4-.1-.6-.2-1-.3 0-.4 0-.7 0-.1.4-.1.6-.2 1-.3 0-.5 0-.9 0 .3-1.4.6-2.8.9-4.2.4-.1.6-.1 1-.1.3 1.4.6 2.9.9 4.3-.3 0-.5 0-.8 0zm-.4-1.9c-.1-.3-.1-.5-.2-.8 0 0 0-.1 0-.2 0 .2-.1.5-.2 1z"/><path d="m25.7 33.6c-.3 0-.6-.1-.8-.2 0 0 0 0-.1 0 0-.4 0-.6 0-1.1.1 0 .1.1.2.1.2.2.5.3.6.3s.2 0 .2-.1.1-.1.1-.3c0-.1 0-.2-.1-.3s-.2-.2-.3-.3c-.2-.1-.3-.2-.4-.4-.1-.1-.1-.3-.2-.4 0-.2-.1-.3-.1-.5 0-.4.1-.7.3-1s.4-.4.7-.5c.3 0 .6 0 .8.2 0 0 0 0 .1.1-.1.4-.2.6-.3.9 0 0-.1 0-.1-.1-.1 0-.1-.1-.2-.1s-.1 0-.2 0-.1.1-.2.1c0 .1-.1.2-.1.3s0 .2.1.3l.3.3c.2.2.4.4.5.6s.1.5.1.7c0 .4-.1.8-.3 1 0 .3-.2.4-.6.4z"/><path d="m28.5 33.6c0-.7 0-1.3 0-2-.3 0-.4 0-.6 0v2c-.3 0-.5 0-.9 0 0-1.6 0-3.1 0-4.7.3 0 .5-.1.9-.1v1.8c.3 0 .4 0 .6-.1 0-.6 0-1.2 0-1.8.3 0 .5-.1.9-.1v5c-.4 0-.6 0-.9 0z"/><path d="m29.6 33.6c0-1.7 0-3.3 0-5 .4-.1.6-.1 1-.1.4-.1.7 0 .8.2.2.2.3.6.3 1 0 .3 0 .6-.1.8-.1.1-.1.2-.2.3l.3.3c.1.2.1.5.1.8 0 .5-.1.9-.3 1.2s-.4.4-.8.4c-.4.1-.7.1-1.1.1zm1-1.1c.1 0 .2 0 .2-.1s.1-.2.1-.4c0-.4-.2-.5-.3-.5s-.1 0-.2 0v1zm0-2.1c.1 0 .2 0 .2-.1s.1-.2.1-.4 0-.3-.1-.3c0-.1-.1-.1-.2-.1s-.1 0-.2 0v.9z"/><path d="m33.7 33.6c-.1-.5-.1-.8-.2-1.3-.3 0-.4 0-.7 0-.1.5-.1.8-.2 1.3-.3 0-.5 0-.9 0 .3-1.8.6-3.6.9-5.4.4-.1.6-.1 1-.1.3 1.9.6 3.7.9 5.6-.3-.1-.5-.1-.8-.1zm-.4-2.5c-.1-.4-.1-.6-.2-1 0 0 0-.1 0-.3 0 .3-.1.7-.2 1.3z"/><path d="m35.8 33.6c-.4 0-.8-.3-1-.8-.3-.6-.3-1.4-.3-2.1s.1-1.5.3-2.2c.2-.6.6-.9 1-.9h.4c.1 0 .3.1.4.3 0 0 0 0 .1.1-.1.5-.2.7-.3 1.2l-.1-.1c-.1-.1-.1-.1-.2-.2-.1 0-.1-.1-.2-.1s-.3.2-.3.5c-.1.3-.1.8-.1 1.4 0 .5 0 1.6.5 1.7.1 0 .3-.1.5-.3l.2-.2v1.3.1c-.4.2-.6.3-.9.3z"/><path d="m38.3 33.6c-.2-.8-.4-1.5-.5-2.3 0 .1-.1.1-.1.2v2.1c-.3 0-.5 0-.9 0 0-2 0-4 0-6 .3 0 .5-.1.9-.1v2.2s0 0 0-.1c.2-.7.4-1.4.6-2.2.4 0 .6-.1.9-.1-.3.9-.6 1.9-.9 2.8.3 1.2.6 2.3.8 3.5-.3 0-.4 0-.8 0z"/><path d="m40 33.6c-.3-1.2-.6-2.4-.8-3.6.3-.9.6-1.9.8-2.8.4 0 .6-.1.9-.1-.3 1-.6 1.9-.9 2.9.3 1.2.6 2.4.8 3.6-.3 0-.5 0-.8 0z"/><path d="m19.2 14.8h-.3v-1.6h.7v.3h-.4v.5h.4v.3h-.4z"/><path d="m20.5 14.8h-.7v-1.6h.7v.3h-.4v.4h.4v.3h-.4v.4h.4z"/><path d="m21.4 14.8h-.7v-1.6h.7v.3h-.4v.4h.4v.3h-.4v.4h.4z"/><path d="m22.6 14c0 .3-.1.5-.2.6s-.3.2-.5.2h-.4v-1.6h.4c.2 0 .3.1.4.2.3.2.3.4.3.6zm-.3 0c0-.3-.1-.5-.3-.5h-.1v1.1h.1c.1 0 .2 0 .2-.1.1-.1.1-.3.1-.5z"/><path d="m22.9 13.3h.4c.2 0 .3 0 .4.1s.1.2.1.3 0 .2-.1.2c0 .1-.1.1-.2.1.1 0 .2.1.2.1 0 .1.1.1.1.2s0 .3-.1.3c-.1.1-.2.1-.3.1h-.5zm.2.6h.1.1v-.1c0-.1 0-.1 0-.1h-.1-.1zm0 .2v.4h.1c.1 0 .1 0 .1-.1 0 0 0-.1 0-.2s-.1-.2-.2-.2z"/><path d="m24.7 14.8-.1-.4h-.4l-.1.4h-.3l.4-1.6h.4l.4 1.6zm-.1-.6-.1-.4s0-.1 0-.2 0-.1 0-.2v.2c0 .1-.1.2-.1.5z"/><path d="m25.7 13.5c-.1 0-.1 0-.2.1 0 .1-.1.2-.1.4 0 .4.1.5.3.5.1 0 .2 0 .3-.1v.3c-.1.1-.2.1-.3.1-.2 0-.3-.1-.4-.2s-.1-.3-.1-.6 0-.5.1-.6.2-.2.4-.2h.2c.1 0 .1 0 .2.1l-.1.2s-.1 0-.1-.1c-.2.1-.2.1-.2.1z"/><path d="m27.1 14.8h-.3l-.3-.7-.1.1v.5h-.3v-1.6h.3v.9l.1-.2.3-.5h.3l-.4.7z"/><path d="m33.2 14.8h-.3v-1.6h.7v.3h-.4v.5h.4v.3h-.4z"/><path d="m34.7 14.8h-.3l-.2-.6-.2.6h-.3l.3-.8-.3-.7h.3l.2.5.2-.5h.3l-.4.7z"/><path d="m35.3 14.8v-1.6h.3v1.3h.4v.3z"/><path d="m36.9 14.8h-.7v-1.6h.7v.3h-.4v.4h.4v.3h-.4v.4h.4z"/><path d="m37.8 13.3h.3l-.4 1.6h-.4l-.3-1.6h.3l.2 1c0 .1 0 .2.1.3 0-.1 0-.2.1-.3z"/><path d="m38.9 14.8h-.7v-1.6h.7v.3h-.4v.4h.4v.3h-.4v.4h.4z"/><path d="m39.2 14.8v-1.6h.3v1.3h.4v.3z"/><path d="m28.2 2.5c0 .3-.1.5-.2.6s-.3.2-.5.2h-.4v-1.6h.4c.2 0 .3.1.4.2.2.2.3.3.3.6zm-.3 0c0-.3-.1-.5-.3-.5h-.1v1h.1c.1 0 .2 0 .2-.1s.1-.2.1-.4z"/><path d="m29.1 3.3h-.7v-1.6h.7v.3h-.4v.4h.4v.3h-.4v.3h.4z"/><path d="m29.3 3.3v-1.6h.3v1.3h.4v.3z"/><path d="m30.9 3.3-.1-.4h-.4l-.1.4h-.3l.4-1.6h.4l.4 1.6zm-.1-.7-.1-.4s0-.1 0-.2 0-.1 0-.2v.2c0 .1-.1.2-.1.5h.2z"/><path d="m31.7 2.3.2-.6h.3l-.4.9v.6h-.3v-.5l-.4-.9h.3z"/><path d="m33.7 35.1-.2-1v.2.8h-.2v-1.1h.3l.2.9.2-.9h.3v1.1h-.2v-.8c0-.1 0-.1 0-.2l-.2 1z"/><path d="m34.6 35.1v-1.1h.2v1.1z"/><path d="m35.8 35.1h-.3l-.3-.8v.2.6h-.2v-1.1h.3l.3.8c0-.1 0-.1 0-.2v-.6h.2z"/><path d="m36 35.1v-1.1h.2v1.1z"/><path d="m37.6 34.6c0 .2 0 .3-.1.4s-.2.1-.3.1h-.3v-1.1h.3c.1 0 .2 0 .3.1 0 .1.1.3.1.5zm-.3 0c0-.3-.1-.4-.2-.4h-.1v.8h.1c.1 0 .1 0 .2-.1 0-.1 0-.2 0-.3z"/><path d="m38.2 35.1h-.5v-1.1h.5v.2h-.3v.3h.3v.2h-.3v.3z"/><path d="m38.4 35.1v-1.1h.2v.9h.3v.2z"/><path d="m39.5 35.1-.1-.3h-.3l-.1.3h-.2l.3-1.1h.3l.3 1.1zm-.1-.4-.1-.3v-.1c0-.1 0-.1 0-.1v.1c0 .1 0 .2-.1.4z"/><path d="m40.1 34.4.1-.4h.2l-.3.7v.5h-.1v-.4l-.3-.8h.3z"/></g><path d="m20.8 16.1c-2.3 1.3-3 4.3-1.7 6.6s4.3 3 6.6 1.7 3-4.3 1.7-6.6c-1.4-2.3-4.3-3-6.6-1.7zm6.3 2.4s-.1-.1-.2-.1l-.4-.1c-.5-.2-1-.8-1.2-1.3l-.1-.4v-.1c.7.3 1.3.9 1.7 1.6 0 .1.1.3.2.4zm-2.9-2.3-.4.2c-.5.3-1.2.3-1.7.1l-.4-.1s0 0-.1 0c.9-.3 1.8-.4 2.6-.2zm-3.5.8-.1.5c-.1.5-.5 1.2-1 1.4l-.3.2s-.1 0-.1.1c.3-.9.8-1.7 1.5-2.2zm-1.6 3.2.3.4c.4.4.6 1.1.5 1.6l-.1.4v.2c-.1-.1-.2-.2-.2-.3-.4-.8-.5-1.6-.5-2.3zm1.4 3.2h.2.4c.5 0 1.3.2 1.6.6l.3.3.2.2c-1-.1-1.9-.4-2.7-1.1zm3.5 1 .2-.2.2-.3c.3-.4 1-.8 1.5-.9h.4c.1 0 .2 0 .3-.1-.3.4-.7.7-1.1 1-.6.2-1 .4-1.5.5zm3-2.2c0-.1 0-.2 0-.3l-.1-.4c-.2-.5-.1-1.3.2-1.7l.2-.3c0-.1.1-.1.1-.2.2 1 0 2.1-.4 2.9z" fill="#080a0c"/><path d="m22.3 18.2c.1.2.1.4-.1.5-.1.1-.3 0-.4-.2l-1.1-1.9c-.1-.2-.1-.4.1-.5.1-.1.3 0 .4.2z" fill="#fff"/><path d="m37.5 15.7c-2.5-.7-5.2.7-5.9 3.3-.7 2.5.7 5.2 3.3 5.9 2.5.7 5.2-.7 5.9-3.3.8-2.6-.7-5.2-3.3-5.9zm2.6 6.1c0-.1 0-.1-.1-.2l-.1-.4c-.2-.5-.2-1.3.1-1.7l.2-.3v-.1c.2.7.2 1.5 0 2.3 0 .2 0 .3-.1.4zm-.3-3.7-.4-.1c-.5-.1-1.1-.7-1.3-1.1l-.1-.4s0 0 0-.1c.7.4 1.4 1 1.8 1.7zm-3-2-.4.3c-.4.3-1.2.4-1.7.3l-.4-.1h-.1c.8-.5 1.7-.6 2.6-.5zm-3.4 1v.1.4c0 .5-.4 1.2-.8 1.5l-.3.2c-.1 0-.1.1-.1.1 0-.1.1-.3.1-.4.1-.7.5-1.3 1.1-1.9zm-1.4 3.3c0 .1.1.1.1.2l.3.3c.4.4.7 1.1.7 1.6v.4.3c-.6-.8-1-1.8-1.1-2.8zm1.7 3.2h.3l.4-.1c.5-.1 1.3.1 1.7.5l.3.3c.1.1.2.1.2.1-.5 0-1 0-1.5-.1s-1-.4-1.4-.7zm3.6.7c.1-.1.1-.1.2-.2l.2-.3c.3-.5.9-.9 1.4-1l.4-.1c.1 0 .1 0 .2-.1-.6.8-1.4 1.4-2.4 1.7z" fill="#080a0c"/><path d="m37.1 18.2c-.1.2-.2.3-.4.3-.1 0-.2-.2-.2-.4l.6-2.1c.1-.2.2-.3.4-.3.1 0 .2.2.2.4z" fill="#fff"/><path d="m33.5 5.8c-1.6-2.1-4.6-2.5-6.7-.9s-2.5 4.6-.9 6.7 4.6 2.5 6.7.9 2.5-4.6.9-6.7zm-1.6 6.5c0-.1 0-.1.1-.2l.1-.4c.1-.5.6-1.1 1.1-1.3l.4-.2s.1 0 .1-.1c-.3.7-.7 1.4-1.4 1.9-.2.1-.3.2-.4.3zm1.9-3.2-.3-.4c-.3-.4-.5-1.2-.3-1.7l.1-.4s0 0 0-.1c.5.9.6 1.8.5 2.6zm-1.2-3.4h-.5c-.5 0-1.2-.4-1.5-.8l-.2-.3s0 0-.1-.1c.9.2 1.7.6 2.3 1.2zm-3.3-1.2s-.1.1 0 0l-.3.4c-.3.4-1 .7-1.6.7h-.4c-.1 0-.1 0-.2 0 .1-.1.2-.2.3-.3.7-.5 1.4-.7 2.2-.8zm-3.1 1.8v.2l.1.4c.1.5-.1 1.3-.4 1.7l-.3.3c-.1.1-.1.1-.1.2-.1-1 .1-2 .7-2.8zm-.6 3.6c.1.1.1.1.2.2l.3.2c.5.2.9.9 1 1.4l.1.4c0 .1.1.2.1.3-.4-.3-.8-.6-1.1-1-.2-.6-.4-1-.6-1.5zm2.6 2.7c.1 0 .2 0 .3-.1l.4-.2c.5-.2 1.3-.2 1.7 0l.3.2c.1 0 .1.1.2.1-1 .4-2 .3-2.9 0z" fill="#080a0c"/><path d="m31.6 7.5c-.2.1-.4.1-.5 0s0-.3.1-.4l1.8-1.3c.2-.1.4-.1.5 0s0 .3-.1.4z" fill="#fff"/><path d="m27.9 52.9-2.1-3.6 2.1-3.6h4.2l2.1 3.6-2.1 3.6z" fill="#e4dec4"/><path d="m32.2 53.1h-4.4l-2.2-3.8 2.2-3.8h4.4l2.2 3.8zm-4.2-.3h4l2-3.5-2-3.5h-4l-2 3.5z" fill="#bdb7a0"/><path d="m32.8 49.3c0 1.5-1.2 2.8-2.8 2.8-1.5 0-2.8-1.2-2.8-2.8 0-1.5 1.2-2.8 2.8-2.8 1.5 0 2.8 1.3 2.8 2.8z" fill="#e4dec4"/><path d="m30 52.2c-1.6 0-2.9-1.3-2.9-2.9s1.3-2.9 2.9-2.9 2.9 1.3 2.9 2.9-1.3 2.9-2.9 2.9zm0-5.5c-1.4 0-2.6 1.2-2.6 2.6s1.2 2.6 2.6 2.6 2.6-1.2 2.6-2.6-1.2-2.6-2.6-2.6z" fill="#bdb7a0"/><path d="m31.2 16.8c0 .7-.6 1.2-1.2 1.2-.7 0-1.2-.6-1.2-1.2 0-.7.5-1.2 1.2-1.2s1.2.6 1.2 1.2z" fill="#d2d3d4"/><path d="m30 18.3c-.8 0-1.5-.7-1.5-1.5s.7-1.5 1.5-1.5 1.5.7 1.5 1.5c0 .9-.7 1.5-1.5 1.5zm0-2.4c-.5 0-1 .4-1 1 0 .5.4 1 1 1 .5 0 1-.4 1-1s-.5-1-1-1z" fill="#424143"/></svg>