<svg enable-background="new 0 0 60 60" height="60" viewBox="0 0 60 60" width="60" xmlns="http://www.w3.org/2000/svg"><path d="m48.2 56.5c0 .5-.4.9-.9.9h-34.6c-.5 0-.9-.4-.9-.9v-55.3c0-.5.4-.9.9-.9h34.6c.5 0 .9.4.9.9z" fill="#ff5a00"/><path d="m47.3 57.7h-34.6c-.7 0-1.2-.5-1.2-1.2v-55.3c0-.7.5-1.2 1.2-1.2h34.6c.7 0 1.2.5 1.2 1.2v55.3c0 .6-.5 1.2-1.2 1.2zm-34.6-57.1c-.3 0-.6.3-.6.6v55.3c0 .3.3.6.6.6h34.6c.3 0 .6-.3.6-.6v-55.3c0-.3-.3-.6-.6-.6z" fill="#988f81"/><path d="m13.5 21.6c-.2 0-.3-.1-.3-.3v-19.4c0-.2.1-.3.3-.3h33.2c.2 0 .3.1.3.3v19.5c0 .2-.1.3-.3.3h-33.2z" fill="#424143"/><path d="m46.6 1.7c.1 0 .1.1.1.1v19.5c0 .1-.1.1-.1.1h-33.1c-.1 0-.1-.1-.1-.1v-19.4c0-.1.1-.1.1-.1zm0-.3h-33.1c-.2 0-.4.2-.4.4v19.5c0 .2.2.4.4.4h33.2c.2 0 .4-.2.4-.4v-19.4c0-.3-.2-.5-.5-.5z" fill="#f2f2f2"/><path d="m27.7 60-.4-2.6h5.3l-.3 2.6z" fill="#424143"/><path d="m48.5 23.5h1.1v5.3h-1.1z" fill="#424143"/><path d="m10.4 23.5h1.1v5.3h-1.1z" fill="#424143"/><path d="m13.7 6.6h.2v-.2h.1v.2h.2v.1h-.2v.3h-.1v-.2h-.2z" fill="#fffef9"/><path d="m14.4 6.4s.1 0 .1-.1l.1-.1h.1v.8h-.2v-.6s-.1 0-.1.1h-.1z" fill="#fffef9"/><path d="m15.5 6.8c0-.1 0-.1-.1-.1h-.1s-.1 0-.2 0c0-.1 0-.2 0-.2 0-.1 0-.1 0-.2h.4v.1h-.3v.1.1c.1 0 .2 0 .3.2.1-.1.1 0 0 0l.1.2s0 .1-.1.1c0 0-.1 0-.1.1h-.1s0 0-.1 0c0 0 0 0-.1 0 0 0 0 0-.1 0v-.1h.1.1.1c.1-.2.1-.2.2-.3 0 .1 0 .1 0 0z" fill="#fffef9"/><path d="m15.4 12.5c0 .1 0 .3-.1.3-.1.1-.1.1-.2.1s-.2 0-.2-.1c-.1-.1-.1-.2-.1-.3s0-.1 0-.2 0-.1.1-.1l.1-.1h.1c.1 0 .2 0 .2.1.1.1.1.2.1.3zm-.2 0v-.1-.1-.1s0 0-.1 0h-.1v.1.1.1.1.1.1h.1.1s0 0 0-.1v-.1s0 0 0-.1z" fill="#fffef9"/><path d="m13.7 18.4h.2v-.2h.1v.2h.2v.1h-.2v.2h-.1v-.2h-.2z" fill="#fffef9"/><path d="m14.4 18.1s.1 0 .1-.1l.1-.1h.1v.9h-.2v-.7z" fill="#fffef9"/><path d="m15.5 18.6c0-.1 0-.1 0 0 0-.1 0-.1-.1-.1h-.1s-.1 0-.2 0c0-.1 0-.2 0-.2 0-.1 0-.1 0-.2h.4v.1h-.3v.1.1c.1 0 .2 0 .3.1.1 0 .1.1.1.2v.1s0 .1-.1.1c0 0-.1 0-.1.1h-.1s0 0-.1 0c0 0 0 0-.1 0 0 0 0 0-.1 0v-.1h.1.1.1c.1-.2.1-.2.2-.3z" fill="#fffef9"/><path d="m42.3 5.1c0 .4-.3.7-.7.7s-.7-.3-.7-.7.3-.7.7-.7c.4.1.7.4.7.7z" fill="#ca604c"/><path d="m48.2 56.5c0 .5-.4.9-.9.9h-34.6c-.5 0-.9-.4-.9-.9v-32.6c0-.5.4-.9.9-.9h34.6c.5 0 .9.4.9.9z" fill="#ff5a00"/><path d="m47.3 57.7h-34.6c-.7 0-1.2-.5-1.2-1.2v-32.6c0-.7.5-1.2 1.2-1.2h34.6c.7 0 1.2.5 1.2 1.2v32.6c0 .6-.5 1.2-1.2 1.2zm-34.6-34.4c-.3 0-.6.3-.6.6v32.6c0 .3.3.6.6.6h34.6c.3 0 .6-.3.6-.6v-32.6c0-.3-.3-.6-.6-.6z" fill="#988f81"/><path d="m46.6 55.3c0 .2-.2.4-.4.4h-32.4c-.2 0-.4-.2-.4-.4v-16.9c0-.2.2-.4.4-.4h32.4c.2 0 .4.2.4.4z" fill="#424143"/><path d="m18.2 26.1c0 .1 0 .2-.1.3 0 .1-.1.2-.1.2-.1.1-.1.1-.2.1s-.2 0-.3 0-.2 0-.3 0-.2-.1-.2-.1c-.1-.1-.1-.1-.1-.2s-.1-.2-.1-.3 0-.2.1-.3c0-.1.1-.2.2-.2.1-.1.1-.1.2-.1h.3.3c.1 0 .2.1.2.1.1.1.1.1.1.2zm-1.1 0v.2c0 .1 0 .1.1.2l.1.1h.2.2c.1 0 .1-.1.1-.1s.1-.1.1-.2 0-.1 0-.2 0-.1 0-.2 0-.1-.1-.2l-.1-.1c-.1 0-.1 0-.2 0s-.1 0-.2 0-.1.1-.1.1-.1.1-.1.2z" fill="#424143"/><path d="m19 26.9c-.1 0-.2 0-.3 0s-.1-.1-.2-.1c0-.1-.1-.1-.1-.2s0-.1 0-.2v-.9h.3v.9.2s0 .1.1.1l.1.1h.1.1s.1 0 .1-.1c0 0 0-.1.1-.1 0 0 0-.1 0-.2v-.9h.3v.9.2c0 .1-.1.1-.1.2s-.1.1-.2.1-.2 0-.3 0z" fill="#424143"/><path d="m20.9 25.4v.2h-.4v1.2h-.3v-1.2h-.4v-.2z" fill="#424143"/><path d="m21.5 25.4c.2 0 .4 0 .5.1s.2.2.2.4v.2c0 .1-.1.1-.1.1-.1 0-.1.1-.2.1s-.2 0-.3 0h-.1v.5h-.3v-1.4zm0 .2c-.1 0-.1 0-.2 0v.5h.1c.1 0 .2 0 .3-.1.1 0 .1-.1.1-.2v-.1s0-.1-.1-.1h-.2c.1.1.1 0 0 0z" fill="#424143"/><path d="m22.9 26.9c-.1 0-.2 0-.3 0s-.1-.1-.2-.1c0-.1-.1-.1-.1-.2s0-.1 0-.2v-.9h.3v.9.2s0 .1.1.1l.1.1h.1.1s.1 0 .1-.1c0 0 0-.1.1-.1 0 0 0-.1 0-.2v-.9h.3v.9.2c0 .1-.1.1-.1.2s-.1.1-.2.1-.2 0-.3 0z" fill="#424143"/><path d="m24.8 25.4v.2h-.4v1.2h-.3v-1.2h-.4v-.2z" fill="#424143"/><path d="m15.8 25.9h-1.5l.6-.6c.1-.1.1-.3 0-.4s-.3-.1-.4 0l-1 1c-.2.2-.2.4 0 .6l1 1c.1.1.1.1.2.1s.1 0 .2-.1.1-.3 0-.4l-.6-.6h1.5c.1 0 .3-.1.3-.3s-.1-.3-.3-.3z" fill="#424143"/><path d="m37.3 25.4h.3v1.4h-.3z" fill="#424143"/><path d="m38.8 26.9c0-.1-.1-.2-.2-.3s-.1-.2-.2-.3-.1-.2-.2-.3-.1-.2-.2-.2v1h-.3v-1.4h.2l.2.2c.1.1.1.2.2.2.1.1.1.2.2.3s.1.2.2.2v-.9h.3v1.4z" fill="#424143"/><path d="m39.8 25.4c.2 0 .4 0 .5.1s.2.2.2.4v.2c0 .1-.1.1-.1.1-.1 0-.1.1-.2.1s-.2 0-.3 0h-.1v.5h-.3v-1.4zm0 .2c-.1 0-.1 0-.2 0v.5h.1c.1 0 .2 0 .3-.1.1 0 .1-.1.1-.2v-.1s0-.1-.1-.1h-.2c.1 0 .1 0 0 0z" fill="#424143"/><path d="m41.2 26.9c-.1 0-.2 0-.3 0s-.1-.1-.2-.1c0-.1-.1-.1-.1-.2s0-.1 0-.2v-.9h.3v.9.2s0 .1.1.1l.1.1h.1.1s.1 0 .1-.1c0 0 0-.1.1-.1 0 0 0-.1 0-.2v-.9h.3v.9.2c0 .1-.1.1-.1.2s-.1.1-.2.1-.2 0-.3 0z" fill="#424143"/><path d="m43.1 25.4v.2h-.4v1.2h-.3v-1.2h-.4v-.2z" fill="#424143"/><path d="m46.3 25.9h-1.5l.6-.6c.1-.1.1-.3 0-.4s-.3-.1-.4 0l-1 1c-.2.2-.2.4 0 .6l1 1c.1.1.1.1.2.1s.1 0 .2-.1.1-.3 0-.4l-.6-.6h1.5c.1 0 .3-.1.3-.3-.1-.2-.2-.3-.3-.3z" fill="#424143"/><path d="m41.8 34.2h-.5v-1.2c0-.8.7-1.5 1.6-1.5h1.3v.5h-1.3c-.6 0-1.1.4-1.1 1z" fill="#424143"/><path d="m40.5 33.1c0-.1 0-.2 0-.3 0-.8-.7-1.4-1.6-1.4s-1.6.6-1.6 1.4.7 1.4 1.6 1.4c.6 0 1-.2 1.3-.6h-.8c-.2.1-.3.1-.5.1-.5 0-.9-.3-1.1-.6zm-2.7-.5c.1-.4.6-.8 1.1-.8.6 0 1 .3 1.1.8z" fill="#424143"/><path d="m31.2 30.6h.5v3.6h-.5z" fill="#424143"/><path d="m36.8 31.4h-3v.5h2.1l-2.1 1.8v.5h3v-.5h-2.1l2.1-1.8z" fill="#424143"/><path d="m17.5 30.8h2.3v-.5h-2.3c-.9 0-1.6.7-1.6 1.5v.6c0 .8.7 1.5 1.6 1.5h2.3v-.5h-2.3c-.6 0-1.1-.4-1.1-1v-.1h3.3v-.5h-3.3v-.1c0-.4.5-.9 1.1-.9z" fill="#424143"/><path d="m27 31.4v1.4c0 .8-.7 1.4-1.6 1.4s-1.6-.6-1.6-1.4c0-.2 0-1.4 0-1.4h.5v1.6c.1.4.6.8 1.1.8.6 0 1-.3 1.1-.8v-1.6z" fill="#424143"/><path d="m30.4 31.4c-.3 0-1.4 0-1.6 0-.9 0-1.6.6-1.6 1.4s.7 1.4 1.6 1.4h.6v-.5s-.5 0-.6 0c-.5 0-.9-.3-1.1-.6-.1-.2-.1-.5-.1-.5.1-.4.6-.8 1.1-.8h1.1v2.4h.5v-2.4l.1-.4c.1 0 .1 0 0 0z" fill="#424143"/><path d="m21.8 31.4c-.9 0-1.6.6-1.6 1.4s.7 1.4 1.6 1.4h.6v-.5s-.5 0-.6 0c-.5 0-.9-.3-1.1-.6-.1-.2-.1-.5-.1-.5.1-.4.6-.8 1.1-.8.6 0 1 .3 1.1.8v.2 2.4h.5v-2.4c.2-.8-.6-1.4-1.5-1.4z" fill="#424143"/><path d="m32.5 31.4h.5v2.9h-.5z" fill="#424143"/><path d="m32.7 31.1c.1 0 .3-.1.3-.3 0-.1-.1-.3-.3-.3-.1 0-.3.1-.3.3.1.2.2.3.3.3z" fill="#424143"/><path d="m17.7 18.3c0 .7-.4 1.3-1 1.3-.5 0-1-.6-1-1.3v-11.4c0-.7.4-1.3 1-1.3.5 0 1 .6 1 1.3z" fill="#231f20"/><path d="m21.5 18.3c0 .7-.4 1.3-1 1.3-.5 0-1-.6-1-1.3v-11.4c0-.7.4-1.3 1-1.3.5 0 1 .6 1 1.3z" fill="#231f20"/><path d="m25.3 18.3c0 .7-.4 1.3-1 1.3-.5 0-1-.6-1-1.3v-11.4c0-.7.4-1.3 1-1.3.5 0 1 .6 1 1.3z" fill="#231f20"/><path d="m29 18.3c0 .7-.4 1.3-1 1.3-.5 0-1-.6-1-1.3v-11.4c0-.7.4-1.3 1-1.3.5 0 1 .6 1 1.3z" fill="#231f20"/><path d="m32.8 18.3c0 .7-.4 1.3-1 1.3-.5 0-1-.6-1-1.3v-11.4c0-.7.4-1.3 1-1.3.5 0 1 .6 1 1.3z" fill="#231f20"/><path d="m36.6 18.3c0 .7-.4 1.3-1 1.3-.5 0-1-.6-1-1.3v-11.4c0-.7.4-1.3 1-1.3.5 0 1 .6 1 1.3z" fill="#231f20"/><path d="m40.4 18.3c0 .7-.4 1.3-1 1.3-.5 0-1-.6-1-1.3v-11.4c0-.7.4-1.3 1-1.3.5 0 1 .6 1 1.3z" fill="#231f20"/><path d="m44.9 18.3c0 .7-.4 1.3-1 1.3-.5 0-1-.6-1-1.3v-11.4c0-.7.4-1.3 1-1.3.5 0 1 .6 1 1.3z" fill="#231f20"/><g fill="#fffef9"><path d="m14.5 8.4h1v.2h-1z"/><path d="m14.3 8.5c0 .1-.1.1-.1.1-.2 0-.2-.1-.2-.1 0-.1.1-.1.1-.1.1-.1.2 0 .2.1z"/><path d="m14.5 10.4h1v.2h-1z"/><path d="m14.3 10.5c0 .1-.1.1-.1.1-.1 0-.1-.1-.1-.1 0-.1.1-.1.1-.1z"/><path d="m14.5 14.5h1v.2h-1z"/><path d="m14.3 14.6c0 .1-.1.1-.1.1-.1 0-.1-.1-.1-.1 0-.1.1-.1.1-.1z"/><path d="m14.5 16.6h1v.2h-1z"/><path d="m14.3 16.7c0 .1-.1.1-.1.1-.1 0-.1-.1-.1-.1 0-.1.1-.1.1-.1s.1 0 .1.1z"/><path d="m13.9 12.4h.4v.4h-.4z"/><path d="m18.2 8.4h1.1v.2h-1.1z"/><path d="m18.2 10.4h1.1v.2h-1.1z"/><path d="m18 12.4h1.3v.4h-1.3z"/><path d="m18 6.5h1.3v.4h-1.3z"/><path d="m18 18.3h1.3v.4h-1.3z"/><path d="m18.2 14.5h1.1v.2h-1.1z"/><path d="m18.2 16.6h1.1v.2h-1.1z"/><path d="m22 8.4h1.1v.2h-1.1z"/><path d="m22 10.4h1.1v.2h-1.1z"/><path d="m21.8 12.4h1.3v.4h-1.3z"/><path d="m21.8 6.5h1.3v.4h-1.3z"/><path d="m21.8 18.3h1.3v.4h-1.3z"/><path d="m22 14.5h1.1v.2h-1.1z"/><path d="m22 16.6h1.1v.2h-1.1z"/><path d="m25.8 8.4h1.1v.2h-1.1z"/><path d="m25.8 10.4h1.1v.2h-1.1z"/><path d="m25.6 12.4h1.3v.4h-1.3z"/><path d="m25.6 6.5h1.3v.4h-1.3z"/><path d="m25.6 18.3h1.3v.4h-1.3z"/><path d="m25.8 14.5h1.1v.2h-1.1z"/><path d="m25.8 16.6h1.1v.2h-1.1z"/><path d="m29.5 8.4h1.1v.2h-1.1z"/><path d="m29.5 10.4h1.1v.2h-1.1z"/><path d="m29.4 12.4h1.3v.4h-1.3z"/><path d="m29.4 6.5h1.3v.4h-1.3z"/><path d="m29.4 18.3h1.3v.4h-1.3z"/><path d="m29.5 14.5h1.1v.2h-1.1z"/><path d="m29.5 16.6h1.1v.2h-1.1z"/><path d="m33.3 8.4h1.1v.2h-1.1z"/><path d="m33.3 10.4h1.1v.2h-1.1z"/><path d="m33.2 12.4h1.3v.4h-1.3z"/><path d="m33.2 6.5h1.3v.4h-1.3z"/><path d="m33.2 18.3h1.3v.4h-1.3z"/><path d="m33.3 14.5h1.1v.2h-1.1z"/><path d="m33.3 16.6h1.1v.2h-1.1z"/><path d="m37.1 8.4h1.1v.2h-1.1z"/><path d="m37.1 10.4h1.1v.2h-1.1z"/><path d="m37 12.4h1.3v.4h-1.3z"/><path d="m37 6.5h1.3v.4h-1.3z"/><path d="m37 18.3h1.3v.4h-1.3z"/><path d="m37.1 14.5h1.1v.2h-1.1z"/><path d="m37.1 16.6h1.1v.2h-1.1z"/><path d="m45.4 10.4h.5v.2h-.5z"/><path d="m45.4 8.4h.5v.2h-.5z"/><path d="m45.4 14.5h.5v.2h-.5z"/><path d="m45.2 18.3h.6v.4h-.6z"/><path d="m45.2 12.4h.6v.4h-.6z"/><path d="m45.4 16.6h.5v.2h-.5z"/><path d="m45.2 6.5h.6v.4h-.6z"/><path d="m41.6 6.5h.2v12.1h-.2z"/><path d="m15.8 5.2-1-1.1h2.9v.1h-2.7z"/><path d="m19.5 5.2-1-1.1h2.9v.1h-2.7z"/><path d="m27.3 5.2-1-1.1h2.9v.1h-2.7z"/><path d="m34.9 5.2-1-1.1h2.9v.1h-2.7l.9.9z"/><path d="m38.7 5.2-1-1.1h2.9v.1h-2.7l.9.9z"/><path d="m43.5 5.2-1-1.1h2.9v.1h-2.7z"/><path d="m23.4 5.2-1-1.1h2.9v.1h-2.7z"/><path d="m31.2 5.2-1.1-1.1h2.9v.1h-2.7z"/></g><path d="m17.7 9.5c0 .6-.5 1-1 1-.6 0-1-.5-1-1v-1.2c0-.6.5-1 1-1 .6 0 1 .5 1 1z" fill="#f9fcf3"/><path d="m16.7 10.6c-.6 0-1.2-.5-1.2-1.2v-1.1c0-.6.5-1.2 1.2-1.2.6 0 1.2.5 1.2 1.2v1.1c0 .7-.5 1.2-1.2 1.2zm0-3.2c-.5 0-.9.4-.9.9v1.1c0 .5.4.9.9.9s.9-.4.9-.9v-1.1c0-.5-.4-.9-.9-.9z" fill="#d6d7d3"/><path d="m21.6 12.3c0 .6-.5 1-1 1-.6 0-1-.5-1-1v-1.1c0-.6.5-1 1-1 .6 0 1 .5 1 1z" fill="#f9fcf3"/><path d="m20.5 13.4c-.6 0-1.2-.5-1.2-1.2v-1.1c0-.6.5-1.2 1.2-1.2.6 0 1.2.5 1.2 1.2v1.1c0 .7-.5 1.2-1.2 1.2zm0-3.1c-.5 0-.9.4-.9.9v1.1c0 .5.4.9.9.9s.9-.4.9-.9v-1.1c0-.6-.4-.9-.9-.9z" fill="#d6d7d3"/><path d="m29.1 15.1c0 .6-.5 1-1 1-.6 0-1-.5-1-1v-1.1c0-.6.5-1 1-1 .6 0 1 .5 1 1z" fill="#f9fcf3"/><path d="m28.1 16.3c-.6 0-1.2-.5-1.2-1.2v-1.1c0-.6.5-1.2 1.2-1.2.6 0 1.2.5 1.2 1.2v1.1c0 .6-.5 1.2-1.2 1.2zm0-3.2c-.5 0-.9.4-.9.9v1.1c0 .5.4.9.9.9s.9-.4.9-.9v-1.1c0-.5-.4-.9-.9-.9z" fill="#d6d7d3"/><path d="m32.9 15.5c0 .6-.5 1-1 1-.6 0-1-.5-1-1v-1.1c0-.6.5-1 1-1 .6 0 1 .5 1 1z" fill="#f9fcf3"/><path d="m31.9 16.7c-.6 0-1.2-.5-1.2-1.2v-1.1c0-.6.5-1.2 1.2-1.2.6 0 1.2.5 1.2 1.2v1.1c0 .7-.5 1.2-1.2 1.2zm0-3.2c-.5 0-.9.4-.9.9v1.1c0 .5.4.9.9.9s.9-.4.9-.9v-1.1c0-.5-.4-.9-.9-.9z" fill="#d6d7d3"/><path d="m36.7 14.7c0 .6-.5 1-1 1-.6 0-1-.5-1-1v-1.1c0-.6.5-1 1-1 .6 0 1 .5 1 1z" fill="#f9fcf3"/><path d="m35.7 15.9c-.6 0-1.2-.5-1.2-1.2v-1.1c0-.6.5-1.2 1.2-1.2.6 0 1.2.5 1.2 1.2v1.1c0 .7-.6 1.2-1.2 1.2zm0-3.2c-.5 0-.9.4-.9.9v1.1c0 .5.4.9.9.9s.9-.4.9-.9v-1.1c-.1-.5-.4-.9-.9-.9z" fill="#d6d7d3"/><path d="m40.5 12.5c0 .6-.5 1-1 1-.6 0-1-.5-1-1v-1.1c0-.6.5-1 1-1 .6 0 1 .5 1 1z" fill="#f9fcf3"/><path d="m39.5 13.7c-.6 0-1.2-.5-1.2-1.2v-1.1c0-.6.5-1.2 1.2-1.2.6 0 1.2.5 1.2 1.2v1.1c-.1.6-.6 1.2-1.2 1.2zm0-3.2c-.5 0-.9.4-.9.9v1.1c0 .5.4.9.9.9s.9-.4.9-.9v-1.1c-.1-.5-.4-.9-.9-.9z" fill="#d6d7d3"/><path d="m45 10.2c0 .6-.5 1-1 1-.6 0-1-.5-1-1v-1.2c0-.6.5-1 1-1 .6 0 1 .5 1 1z" fill="#f9fcf3"/><path d="m44 11.4c-.6 0-1.2-.5-1.2-1.2v-1.2c0-.6.5-1.2 1.2-1.2.6 0 1.2.5 1.2 1.2v1.1c-.1.7-.6 1.3-1.2 1.3zm0-3.2c-.5 0-.9.4-.9.9v1.1c0 .5.4.9.9.9s.9-.4.9-.9v-1.2c-.1-.4-.5-.8-.9-.8z" fill="#d6d7d3"/></svg>