<svg enable-background="new 0 0 60 60" height="60" viewBox="0 0 60 60" width="60" xmlns="http://www.w3.org/2000/svg" xmlns:xlink="http://www.w3.org/1999/xlink"><radialGradient id="a" cx="29.95" cy="9.5123" gradientUnits="userSpaceOnUse" r="26.6489"><stop offset=".16" stop-color="#d3b669"/><stop offset=".84" stop-color="#c58f54"/></radialGradient><linearGradient id="b"><stop offset="0" stop-color="#fff"/><stop offset=".15" stop-color="#ded099"/><stop offset=".5" stop-color="#a68e60"/><stop offset="1" stop-color="#81592a"/></linearGradient><linearGradient id="c" gradientUnits="userSpaceOnUse" x1="22.4838" x2="23.3642" xlink:href="#b" y1="11.6162" y2="13.9932"/><linearGradient id="d" gradientUnits="userSpaceOnUse" x1="26.5863" x2="27.4668" xlink:href="#b" y1="11.6232" y2="14.0003"/><linearGradient id="e" gradientUnits="userSpaceOnUse" x1="30.7851" x2="31.6656" xlink:href="#b" y1="11.6199" y2="13.997"/><linearGradient id="f" gradientUnits="userSpaceOnUse" x1="34.9839" x2="35.8644" xlink:href="#b" y1="11.6167" y2="13.9937"/><linearGradient id="g" gradientUnits="userSpaceOnUse" x1="13.8749" x2="14.7554" xlink:href="#b" y1="11.6341" y2="14.0112"/><linearGradient id="h" gradientUnits="userSpaceOnUse" x1="18.0837" x2="18.964" xlink:href="#b" y1="11.6161" y2="13.9924"/><linearGradient id="i"><stop offset=".25" stop-color="#191919"/><stop offset=".75"/></linearGradient><linearGradient id="j" gradientUnits="userSpaceOnUse" x1="6.8258" x2="7.2928" xlink:href="#i" y1="9.8965" y2="10.9453"/><linearGradient id="k"><stop offset=".21" stop-color="#191919"/><stop offset=".79"/></linearGradient><linearGradient id="l" gradientUnits="userSpaceOnUse" x1="6.9426" x2="7.2298" xlink:href="#k" y1="9.993017" y2="10.8271"/><linearGradient id="m" gradientUnits="userSpaceOnUse" x1="6.8251" x2="7.2921" xlink:href="#i" y1="12.4948" y2="13.5438"/><linearGradient id="n" gradientUnits="userSpaceOnUse" x1="6.9127" x2="7.2" xlink:href="#k" y1="12.6013" y2="13.4355"/><path d="m5.5 52.7c.7 0 1.4.3 1.4.6 0 .4-.6.6-1.4.6s-1.4-.3-1.4-.6c.1-.3.7-.6 1.4-.6z" fill="#18161b" stroke="#000" stroke-miterlimit="2.4142" stroke-width=".080892"/><path d="m54 52.7c.7 0 1.4.3 1.4.6 0 .4-.6.6-1.4.6s-1.4-.3-1.4-.6c.1-.3.7-.6 1.4-.6z" fill="#18161b" stroke="#000" stroke-miterlimit="2.4142" stroke-width=".080892"/><path d="m1.6 6.6h56.7c.8 0 1.5.7 1.5 1.5v43.6c0 .8-.7 1.5-1.5 1.5h-56.7c-.8 0-1.5-.7-1.5-1.5v-43.6c0-.8.7-1.5 1.5-1.5z" fill="#78757f"/><path d="m1.9 6.9h56.2c.8 0 1.5.7 1.5 1.5v43.2c0 .8-.7 1.5-1.5 1.5-18.7 0-37.4 0-56.2 0-.8 0-1.5-.7-1.5-1.5 0-6.2 0-37 0-43.2 0-.9.7-1.5 1.5-1.5z" fill="#781d77"/><path d="m2.9 8.9h54.1v42.1h-54.1z" fill="#050508" stroke="#000" stroke-miterlimit="2.4142" stroke-width=".080892"/><path d="m3.5 9h53c.2 0 .3.1.3.3v41.2c0 .2-.1.3-.3.3h-53c-.2 0-.3-.1-.3-.3v-41.2c0-.1.1-.3.3-.3z" fill="#fff"/><path d="m3.4 9.2h53.1s.1 0 .1.1v41.3s0 .1-.1.1h-53.1s-.1 0-.1-.1z" stroke="#000" stroke-miterlimit="2.4142" stroke-width=".080892"/><path d="m2.6 9.4h-2.5c-.1 0-.1 0-.1-.1v-1.3c0-.8.7-1.5 1.5-1.5h1.5v2.5c0 .2-.2.4-.4.4z"/><path d="m2.6 9.4h-2.4c-.1 0-.2-.1-.2-.1v-1.3c0-.8.6-1.4 1.4-1.4h1.5v2.4c.1.2-.1.4-.3.4z" fill="#18161b"/><path d="m1 7.1c.5 0 .8.1 1 .5h.9c0-.3 0-.6 0-.9-1 0-1.1-.1-1.9.4z" fill="#a4a1b0" stroke="#000" stroke-miterlimit="2.4142" stroke-width=".080892"/><path d="m2.3 8.3c.3 0 .5.2.5.5s-.2.5-.5.5c-.3-.1-.5-.3-.5-.5 0-.3.2-.5.5-.5z"/><path d="m2.3 8.4c.2 0 .4.2.4.4s-.2.4-.4.4c-.2-.1-.4-.2-.4-.4 0-.3.2-.4.4-.4z" fill="#fff"/><path d="m2.3 8.5c.1 0 .2.1.2.1h-.1c-.1 0-.3.1-.3.3v.1s-.1-.1-.1-.2c0-.2.2-.3.3-.3z"/><path d="m57.4 9.4h2.5c.1 0 .1 0 .1-.1v-1.3c0-.8-.7-1.5-1.5-1.5h-1.5v2.5c0 .2.2.4.4.4z"/><path d="m57.4 9.4h2.4c.1 0 .1 0 .1-.1v-1.3c0-.8-.6-1.4-1.4-1.4h-1.5v2.4c0 .2.2.4.4.4z" fill="#18161b"/><path d="m59 7.1c-.5 0-.8.1-1 .5-.3 0-.6 0-.9 0 0-.3 0-.6 0-.9 1 0 1.1-.1 1.9.4z" fill="#a4a1b0" stroke="#000" stroke-miterlimit="2.4142" stroke-width=".080892"/><path d="m57.7 8.3c-.3 0-.5.2-.5.5s.2.5.5.5.5-.2.5-.5-.2-.5-.5-.5z"/><path d="m57.7 8.4c-.2 0-.4.2-.4.4s.2.4.4.4.4-.2.4-.4c0-.3-.2-.4-.4-.4z" fill="#fff"/><path d="m57.7 8.5c-.1 0-.2.1-.2.1h.1c.1 0 .3.1.3.3v.1s.1-.1.1-.2c0-.2-.2-.3-.3-.3z"/><path d="m2.6 50.4h-2.5c-.1 0-.1 0-.1.1v1.4c0 .8.7 1.5 1.5 1.5h1.5v-2.5c0-.3-.2-.5-.4-.5z"/><path d="m2.6 50.5h-2.4c-.1 0-.1 0-.1.1v1.3c0 .8.6 1.4 1.4 1.4h1.5v-2.4c0-.2-.2-.4-.4-.4z" fill="#18161b"/><path d="m1 52.7c.5 0 .8-.1 1-.5h.9v.9c-1 0-1.1.2-1.9-.4z" fill="#a4a1b0" stroke="#000" stroke-miterlimit="2.4142" stroke-width=".080892"/><path d="m2.3 51.6c.3 0 .5-.2.5-.5s-.2-.5-.5-.5-.5.2-.5.5.2.5.5.5z"/><path d="m2.3 51.5c.2 0 .4-.2.4-.4s-.2-.4-.4-.4-.4.2-.4.4.2.4.4.4z" fill="#fff"/><path d="m2.3 51.4c.1 0 .2-.1.2-.1s0 0-.1 0-.3-.2-.3-.3 0-.1 0-.1-.1.1-.1.2.2.3.3.3z"/><path d="m57.4 50.4h2.5c.1 0 .1 0 .1.1v1.4c0 .8-.7 1.5-1.5 1.5h-1.5v-2.5c0-.3.2-.5.4-.5z"/><path d="m57.4 50.5h2.4c.1 0 .1 0 .1.1v1.3c0 .8-.6 1.4-1.4 1.4h-1.5v-2.4c0-.2.2-.4.4-.4z" fill="#18161b"/><path d="m59 52.7c-.5 0-.8-.1-1-.5-.3 0-.6 0-.9 0v.9c1 0 1.1.2 1.9-.4z" fill="#a4a1b0" stroke="#000" stroke-miterlimit="2.4142" stroke-width=".080892"/><path d="m57.7 51.6c-.3 0-.5-.2-.5-.5s.2-.5.5-.5.5.2.5.5-.2.5-.5.5z"/><path d="m57.7 51.5c-.2 0-.4-.2-.4-.4s.2-.4.4-.4.4.2.4.4-.2.4-.4.4z" fill="#fff"/><path d="m57.7 51.4c-.1 0-.2-.1-.2-.1h.1c.1 0 .3-.2.3-.3s0-.1 0-.1c.1 0 .2.1.2.2-.1.1-.3.3-.4.3z"/><path d="m38.2 6.6c-1.4-.3-4.4-.6-7.8-.6s-6.3.2-7.7.6z" fill="#c9c7d6"/><path d="m24.3 6.6h12.4c-1.6-.2-3.8-.3-6.2-.3-2.5 0-4.7.1-6.2.3z" fill="#191919"/><path d="m56.9 51h-53.8v.1z" fill="#41424b"/><path d="m3.6 9h52.6c.2 0 .4.2.4.4v5.5h-53.3v-5.6c0-.2.2-.3.3-.3z" fill="url(#a)"/><path d="m3.4 14.8h53.2v.1.1h-53.2c0-.1 0-.1 0-.2z"/><path d="m26.8 11.4v-1.4h4.1v1.4h.1v-1.4h4.1v1.3h.1v-1.4h-.1-12.5v1.4h.1v-1.3h4v1.4z" fill="#1c100a"/><path d="m22.6 11.3c.5 0 .9.4.9.9s-.4.9-.9.9-.9-.4-.9-.9c.1-.5.5-.9.9-.9z" fill="#1c100a"/><path d="m22.6 11.5c.4-.1.8.2.8.6.1.4-.2.8-.6.8-.4.1-.8-.2-.8-.6-.1-.4.2-.8.6-.8z" fill="url(#c)"/><path d="m22.1 11.7.3.2z" fill="#17110f"/><path d="m27.6 12.3c-.1.5-.5.8-1 .7s-.8-.5-.7-1 .5-.8 1-.7.8.5.7 1z" fill="#1c100a"/><path d="m27.5 12.2c0 .4-.3.7-.7.7s-.7-.3-.7-.7.3-.7.7-.7.7.3.7.7z" fill="url(#d)"/><path d="m27.3 11.7-.3.3z" fill="#17110f"/><path d="m31.8 12.3c-.1.5-.5.8-1 .7s-.8-.5-.7-1 .5-.8 1-.7.8.5.7 1z" fill="#1c100a"/><path d="m35.3 11.3c.5.1.8.5.7 1s-.5.8-1 .7-.8-.5-.7-1c.1-.4.5-.8 1-.7z" fill="#1c100a"/><path d="m31.7 12.2c0 .4-.3.7-.7.7s-.7-.3-.7-.7.3-.7.7-.7.7.3.7.7z" fill="url(#e)"/><path d="m31.5 11.7-.3.3z" fill="#17110f"/><path d="m35.2 11.5c.4 0 .7.4.7.7 0 .4-.4.7-.7.7-.4 0-.7-.4-.7-.7-.1-.4.3-.8.7-.7z" fill="url(#f)"/><path d="m34.7 11.6.3.3z" fill="#17110f"/><path d="m15 12.2c0 .5-.5.9-.9.8-.5 0-.9-.5-.8-.9 0-.5.5-.9.9-.8.4 0 .8.5.8.9z" fill="#1c100a"/><path d="m14.8 12.1c0 .4-.3.7-.7.8-.4 0-.7-.3-.8-.7 0-.4.3-.7.7-.8.4 0 .8.3.8.7z" fill="url(#g)"/><path d="m14.6 11.7-.3.3z" fill="#17110f"/><path d="m18.4 13.1c-.5.1-.9-.2-1-.7s.2-.9.7-1 .9.2 1 .7c.1.4-.2.9-.7 1z" fill="#1c100a"/><path d="m18.5 12.9c-.4.1-.8-.1-.9-.5s.1-.8.5-.9.8.1.9.5-.2.8-.5.9z" fill="url(#h)"/><path d="m18.9 12.5c0 .1 0 .1 0 0l-.4-.2v-.1z" fill="#17110f"/><path d="m22 13.1s.1 0 0 0c.1 0 .1 0 0 0 .1-.1.1-.1.1 0s0 .1-.1 0c.1.1 0 .1 0 0 0 .1 0 .1 0 0zm.6-2.1v.2zm.8.7.2-.1zm.1.9.2.1-.2-.1c0 .1 0 .1 0 0zm-1.7.1-.2.1.2-.1c0-.1 0-.1 0 0zm0-1-.2-.1zm-.2.5h-.1.1c-.1 0-.1 0 0 0-.1 0 0 0 0 0 0-.1 0-.1 0-.1v.1c-.1 0-.1 0 0 0zm.5-.9v-.2zm1.1-.1c0 .1 0 .1 0 0v.1s0 0 0-.1c-.1 0-.1 0 0 0zm0 .1c0-.1 0 0 0 0zm.5.9c0-.1 0-.1 0 0 .1-.1.1-.1 0 0 .1-.1.1 0 0 0s.1 0 0 0c.1 0 .1 0 0 0 0 .1 0 .1 0 0zm0-.1s0 .1 0 0c0 .1 0 .1 0 0zm0 .1s0 .1 0 0zm-.6 1v-.1zm.1-.1c0-.1 0-.1 0 0 .1-.1.1-.1 0 0 .1-.1.1-.1.1 0s0 .1-.1 0c0 .1 0 .1 0 0zm0 0s0 .1 0 0c0 .1 0 .1 0 0 .1.1.1 0 0 0 .1 0 .1 0 0 0 0-.1 0-.1 0 0zm-1.2 0c0 .1 0 .1 0 0 0 .1.1.1 0 0 .1.1.1.1 0 0 .1 0 .1 0 0 0z"/><path d="m26.1 13.1c.1 0 .1 0 0 0 .1-.1.1-.1.1 0s0 .1-.1 0c0 .1 0 .1 0 0zm1.5-1.4.2-.1zm0 .9.2.1-.2-.1c0 .1 0 .1 0 0zm-1.6.1-.2.1.2-.1c0-.1 0-.1 0 0zm0-1-.2-.1zm-.3.5h-.1.1c-.1 0-.1 0 0 0 0-.1 0-.1 0-.1v.1c-.1 0-.1 0 0 0zm.5-.9v-.2zm1.2-.1c-.1 0-.1 0 0 0 0 .1 0 .1 0 0v.1s0 0 0-.1c-.1 0-.1 0 0 0zm-.1.1s.1 0 0 0c0-.1 0 0 0 0zm.5.9c0-.1 0-.1 0 0 .1-.1.1-.1 0 0 .1-.1.1 0 0 0 .1 0 .1 0 0 0 .1.1.1.1 0 0 0 .1 0 .1 0 0zm0-.1s0 .1 0 0c0 .1 0 .1 0 0 0 .1.1.1 0 0 .1.1.1 0 0 0 .1 0 .1 0 0 0zm0 .1s0 .1 0 0c.1.1.1 0 0 0 .1 0 .1 0 0 0zm-.6 1v-.1zm.1-.1c0-.1 0-.1 0 0 .1-.1.1-.1 0 0 .1-.1.1-.1.1 0s0 .1-.1 0c0 .1 0 .1 0 0zm0 0s0 .1 0 0c0 .1 0 .1 0 0 .1.1.1.1 0 0 .1.1.1 0 0 0 .1 0 .1 0 0 0 .1-.1.1-.1 0 0 0-.1 0-.1 0 0zm-1.1 0c0 .1 0 .1 0 0z"/><path d="m30.3 13.1c.1 0 .1 0 0 0 .1-.1.1-.1.1 0s0 .1-.1 0c0 .1 0 .1 0 0zm1.5-1.4.2-.1zm0 .9.2.1-.2-.1c0 .1 0 .1 0 0zm-1.6.1-.2.1.2-.1c0-.1 0-.1 0 0zm-.1-1-.2-.1.2.1c.1 0 .1 0 0 0zm-.2.5h-.1.1c-.1 0-.1 0 0 0 0-.1 0-.1 0-.1v.1c-.1 0-.1 0 0 0zm.5-.9v-.2zm1.2-.1c-.1 0-.1 0 0 0 0 .1 0 .1 0 0v.1s0 0 0-.1c-.2 0-.1 0 0 0-.1 0-.1 0 0 0zm-.1.1c0-.1 0 0 0 0zm.5.9c0-.1 0-.1 0 0 0-.1.1-.1 0 0 .1-.1.1-.1 0 0 .1-.1.1 0 0 0 .1 0 .1 0 0 0 .1.1 0 .1 0 0 0 .1 0 .1 0 0zm0-.1s0 .1 0 0c0 .1 0 .1 0 0 .1.1.1 0 0 0 .1 0 .1 0 0 0zm0 .1s0 .1 0 0c.1 0 .1 0 0 0zm-.6 1v-.1zm.1-.1c0-.1 0-.1 0 0 .1-.1.1-.1 0 0 .1-.1.1-.1.1 0s0 .1-.1 0c0 .1 0 .1 0 0zm0 0s0 .1 0 0c0 .1 0 .1 0 0 .1.1.1.1 0 0 .1.1.1 0 0 0 .1 0 .1 0 0 0 .1-.1.1-.1 0 0 0-.1 0-.1 0 0zm-1.1 0c0 .1 0 .1 0 0z"/><path d="m34.5 13.1c.1 0 .1 0 0 0 .1-.1.1-.1 0 0 .1.1.1.1 0 0 0 .1 0 .1 0 0zm.6-2.1v.2zm.8.7.2-.1zm.1.9.2.1-.2-.1c-.1.1-.1.1 0 0zm-1.7.1-.2.1.2-.1c0-.1 0-.1 0 0zm0-1-.2-.1zm-.2.5c-.1 0-.1 0 0 0 0-.1 0-.1 0-.1v.1c-.1 0-.1 0 0 0zm.5-.9v-.2zm1.1-.1c-.1 0-.1 0 0 0-.1 0 0 0 0 0 0 .1 0 .1 0 0v.1s0 0 0-.1c-.1 0-.1 0 0 0-.1 0 0 0 0 0zm-.1.1c.1 0 .1 0 0 0 .1 0 .1-.1 0 0 .1-.1.1 0 0 0zm.6.9c0-.1 0-.1 0 0 0-.1.1-.1 0 0 .1-.1 0 0 0 0 .1 0 .1 0 0 0 0 .1 0 .1 0 0-.1 0-.1 0 0 0zm0-.1s0 .1 0 0c0 .1 0 .1 0 0zm0 .1s0 .1 0 0zm-.6 1v-.1zm.1-.1c0-.1 0-.1 0 0 .1-.1.1-.1 0 0 .1.1.1.1 0 0 0 .1 0 .1 0 0zm0 0s0 .1 0 0c0 .1 0 .1 0 0s0-.1 0 0zm-1.2 0c0 .1 0 .1 0 0 .1.1.1.1 0 0 .1 0 .1 0 0 0z"/><path d="m13.5 13.1s.1 0 0 0c.1-.1.1-.1.1 0s0 .1-.1 0c0 .1 0 .1 0 0zm.6-2.1v.2zm.8.7.2-.1zm0 .9.2.1-.2-.1c0 .1 0 .1 0 0zm-1.6.1-.2.1.2-.1c0-.1 0-.1 0 0zm0-1-.2-.1zm-.3.5h-.1.1c0-.1 0-.1 0-.1zm.5-.9v-.2zm1.2-.1c-.1 0-.1 0 0 0 0 .1 0 .1 0 0v.1s0 0 0-.1c-.1 0-.1 0 0 0zm-.1.1s.1 0 0 0c.1 0 .1 0 0 0 .1 0 0-.1 0 0 0-.1 0 0 0 0zm.5.9c0-.1 0-.1 0 0 .1-.1.1-.1 0 0 .1-.1.1 0 0 0 .1 0 .1 0 0 0 .1.1.1.1 0 0 0 .1 0 .1 0 0zm0-.1s0 .1 0 0c0 .1.1.1 0 0 .1.1.1.1 0 0 .1.1.1 0 0 0 .1 0 .1 0 0 0zm0 .1s.1.1 0 0c.1.1.1 0 0 0 .1 0 .1 0 0 0zm-.5 1v-.1zm0-.1c0-.1.1-.1 0 0 .1-.1.1-.1 0 0 .1-.1.1-.1.1 0s0 .1-.1 0c.1.1 0 .1 0 0zm0 0s0 .1 0 0c.1.1.1.1 0 0 .1.1.1 0 0 0 .1 0 .1 0 0 0 .1-.1.1-.1 0 0zm-1.1 0c0 .1 0 .1 0 0z"/><path d="m17.6 13.1c.1 0 .1 0 0 0 .1-.1.1-.1.1 0s0 .1-.1 0c0 .1 0 .1 0 0zm.6-2.1v.2zm.8.7.2-.1zm.1.9.2.1-.2-.1c-.1.1-.1.1 0 0zm-1.7.1-.2.1.2-.1c0-.1 0-.1 0 0zm0-1-.2-.1zm-.2.5h-.1.1c-.1 0-.1 0 0 0 0-.1 0-.1 0-.1v.1c-.1 0-.1 0 0 0zm.5-.9v-.2zm1.1-.1c-.1 0-.1 0 0 0-.1 0 0 0 0 0 0 .1 0 .1 0 0v.1s0 0 0-.1c-.1 0-.1 0 0 0zm-.1.1c.1 0 .1 0 0 0 .1 0 .1-.1 0 0 .1-.1.1 0 0 0zm.6.9c0-.1 0-.1 0 0 0-.1.1-.1 0 0 .1-.1.1 0 0 0 .1 0 .1 0 0 0 0 .1 0 .1 0 0-.1 0-.1 0 0 0zm0-.1s0 .1 0 0c0 .1 0 .1 0 0zm0 .1s0 .1 0 0zm-.6 1v-.1zm.1-.1c0-.1 0-.1 0 0 0-.1.1-.1 0 0 .1-.1.1-.1.1 0s0 .1-.1 0c0 .1 0 .1 0 0zm0 0s0 .1 0 0c0 .1 0 .1 0 0s0-.1 0 0zm-1.2 0c0 .1 0 .1 0 0 .1.1.1.1 0 0 .1 0 .1 0 0 0z"/><path d="m49.8 10.1h2 .1v.1 2.5.1h-.1-2-.1v-.1-2.5zm2.1.1h-2v2.5h2v-2.5c0 .1 0 .1 0 0z" fill="#fee0c1"/><path d="m51.9 10.2h-2v2.5h2v-2.5c0 .1 0 .1 0 0z" fill="#180b0b"/><path d="m51.7 10.4h-1.7v2.1h1.7z" fill="#9a2734"/><path d="m51.7 10.4h-1.7v.6h1.7z" fill="#591010"/><path d="m51.7 11h-1.7v.1l1.7-.1c0 .1 0 .1 0 0z" fill="#fac3c5"/><path d="m53.5 10.1h2 .1v.1 2.5.1h-.1-2-.1v-.1-2.5zm2 .1h-2v2.5h2v-2.5c0 .1 0 .1 0 0z" fill="#fee0c1"/><path d="m55.5 10.2h-2v2.5h2v-2.5c0 .1 0 .1 0 0z" fill="#180b0b"/><path d="m55.3 12.6h-1.7v-2.1h1.7v2.1c.1 0 .1 0 0 0z" fill="#191922"/><path d="m55.3 12.6h-1.7v-.6h1.7v.6c.1 0 .1 0 0 0z" fill="#181112"/><path d="m55.3 12h-1.7v-.4h1.7v.4c.1 0 .1 0 0 0z" fill="#a3a0ac"/><path d="m50.2 14.1v-.3h.1v.1s0 0-.1 0h-.1zm.2-.2c0-.1 0-.1 0-.1h.1.1v.1.1.1.1s0 0-.1 0c0 0 0 0-.1 0 .1-.1 0-.2 0-.3 0 .1 0 .1 0 0zm0 0c0 .1.1.1 0 0 0 .1.1.1.1.1h.1v-.1-.1s0 0-.1 0zm.3.2-.1-.3v.2c.2 0 .2 0 .1.1 0-.1 0-.1 0-.1v-.2.2.1s0 0 0-.1v-.2.3l-.2-.3zm.3 0v-.3h.2-.2v.1h.1-.1v.2h.2zm.3 0v-.3h.1.1v.1s0 0-.1 0l-.1.2.1-.2z"/><path d="m53.7 14c.1.1.1.1.1.1 0-.1 0-.2-.1-.1.1-.1 0-.1 0 0 0-.1 0-.1 0 0 0-.1 0-.1 0-.1h.1l-.1.1h.2.1c-.2.1-.2.1-.3 0 0 .1 0 .1 0 0zm.3.1v-.3h-.1.2-.1zm.1 0 .1-.3.1.3v-.1zm.1-.1c.1-.1 0-.1 0-.2zm.2.1v-.3.3l.1-.3-.1.3v-.3zm.2 0v-.3h.1v.1l-.1.2c.1 0 .1 0 0 0zm.1 0c.1 0 .1 0 .1-.1v-.1h-.1zm.2 0v-.3h.1c0 .3 0 .3-.1.3zm0-.2c.1 0 .1 0 0 0 .1-.1.1-.1 0 0zm0 .2c.1 0 .1 0 0 0zm.3 0v-.1l-.1-.2.1.1v.2c0-.1 0-.1 0-.2v-.1.2z"/><path d="m50.7 9.7v-.1s0 0 0-.1h.1.1v.1.1.1.1s0 0-.1 0h-.1c0-.1 0-.1 0-.2zm0 0v.1h.1.1v-.1c0-.1 0-.1 0-.1s0 0-.1 0c0 0 0 0-.1 0z"/><path d="m50.8 13.5v-.3h.1s0 0 0-.1z"/><path d="m54.4 9.7v-.1s0 0 0-.1h.1.1v.1.1.1.1s0 0-.1 0h-.1c0-.1 0-.1 0-.2zm.1 0v.1h.1.1v-.1c0-.1 0-.1 0-.1s0 0-.1 0c0 0 0 0-.1 0z"/><path d="m54.6 13.5v-.3h.1s0 0 0-.1z"/><path d="m5.1 10v-.3.1h.1v-.1l-.1.3.1-.1h-.1zm.2 0v-.3zm.2-.1c.1.1 0 .1 0 .1s0 0-.1 0c0 0 0 0 .1-.1-.1 0-.1 0 0 0l-.1-.1s0 0 0-.1h.1c.1.1.1.1 0 .2.1-.1.1-.1 0-.1s-.1 0 0 .1c-.1 0-.1 0 0 0-.1.1-.1.1 0 0 0 .1 0 .1 0 0zm.1.1v-.3.1h.1v-.1l-.1.3.1-.1h-.1zm-.5 3.6v-.3zm.2-.1c0-.1 0-.1 0-.1h.1.1v.1.1.1.1s0 0-.1 0c0 0 0 0-.1 0 0-.2 0-.2 0-.3zm0 0c0 .1.1.1.1.1h.1v-.1s0 0 0-.1c-.1-.1-.1 0-.2.1 0-.1 0-.1 0 0zm.3.1-.1-.3v.2c.1 0 .1.1.1.1 0-.1 0-.1 0 0l.1-.3v.2l-.1.1c.1 0 .1 0 .1-.1v-.2l-.1.3v-.2z"/><path d="m7.1 9.7c.4 0 .7.3.7.7s-.3.7-.7.7-.7-.3-.7-.7.3-.7.7-.7z" fill="#0c0c09"/><path d="m7.1 9.8.2.1.3.2v.3.3l-.3.2-.2.1-.3-.1-.3-.2v-.3-.3l.3-.2z" fill="url(#j)"/><path d="m7.1 9.8.2.2.3.1v.3.3l-.3.2-.2.1-.3-.1-.2-.2v-.3-.3l.2-.1z" fill="#0c0c09"/><path d="m7.1 10c.1 0 .2 0 .3.1s.1.2.1.3 0 .2-.1.3-.2.1-.3.1-.2 0-.3-.1-.1-.2-.1-.3 0-.2.1-.3c0-.1.2-.1.3-.1zm0 .1c.1 0 .2 0 .3.1s.1.2.1.3 0 .2-.1.3-.2.1-.3.1-.2 0-.3-.1-.1-.2-.1-.3 0-.2.1-.3.2-.1.3-.1zm.2.1c-.1-.1-.1-.1-.2-.1s-.2 0-.2.1c-.1.1-.1.1-.1.2s0 .2.1.2c.1.1.1.1.2.1s.2 0 .2-.1c.1-.1.1-.1.1-.2s0-.2-.1-.2zm0-.1s-.1-.1-.2-.1-.2 0-.3.1-.1.2-.1.3 0 .2.1.3.2.1.3.1.2 0 .3-.1.1-.2.1-.3-.1-.2-.2-.3z" fill="url(#l)"/><path d="m7.1 12.3c.4 0 .7.3.7.7s-.3.7-.7.7-.7-.3-.7-.7.3-.7.7-.7z" fill="#0c0c09"/><path d="m7.1 12.4.2.1.3.2v.3.3l-.3.2-.2.1-.3-.1-.3-.2v-.3-.3l.3-.2z" fill="url(#m)"/><path d="m7.1 12.4.2.2.3.1v.3.3l-.3.2-.2.1-.3-.1-.2-.2v-.3-.3l.2-.1z" fill="#0c0c09"/><path d="m7.1 12.6c.1 0 .2 0 .3.1s.1.2.1.3 0 .2-.1.3-.2.1-.3.1-.2 0-.3-.1-.1-.2-.1-.3 0-.2.1-.3c0-.1.2-.1.3-.1zm0 .1c.1 0 .2 0 .3.1s.1.2.1.3 0 .2-.1.3-.2.1-.3.1-.2 0-.3-.1-.1-.2-.1-.3 0-.2.1-.3.2-.1.3-.1zm.2.1c-.1-.1-.1-.1-.2-.1s-.2 0-.2.1c-.1.1-.1.1-.1.2s0 .2.1.2c.1.1.1.1.2.1s.2 0 .2-.1c.1-.1.1-.1.1-.2s0-.2-.1-.2zm0-.1c-.1-.1-.2-.1-.3-.1s-.2 0-.3.1-.1.2-.1.3 0 .2.1.3.2.1.3.1.2 0 .3-.1.1-.2.1-.3 0-.2-.1-.3z" fill="url(#n)"/><path d="m5.4 10.1v3.1z"/><path d="m19.9 21.9c7.4 0 13.4 6 13.4 13.4s-6 13.4-13.4 13.4-13.4-6-13.4-13.4 6-13.4 13.4-13.4z" fill="#131313"/><path d="m19.9 23.3c-6.6 0-12 5.4-12 12s5.4 12 12 12 12-5.4 12-12-5.4-12-12-12zm0 18.3c-3.5 0-6.3-2.8-6.3-6.3s2.8-6.3 6.3-6.3 6.3 2.8 6.3 6.3-2.8 6.3-6.3 6.3z"/><path d="m12.9 46.9h-9.3v3.6h9.3z" fill="#d2b267"/></svg>