<svg enable-background="new 0 0 60 63.8" height="63.8" viewBox="0 0 60 63.8" width="60" xmlns="http://www.w3.org/2000/svg" xmlns:xlink="http://www.w3.org/1999/xlink"><linearGradient id="a"><stop offset=".07" stop-color="#94999c"/><stop offset=".93" stop-color="#4d4d4d"/></linearGradient><linearGradient id="b" gradientUnits="userSpaceOnUse" x1="53.7" x2="53.7" xlink:href="#a" y1="58.2917" y2="62.532"/><linearGradient id="c" gradientUnits="userSpaceOnUse" x1="6.3" x2="6.3" xlink:href="#a" y1="58.2917" y2="62.532"/><path d="m51.6 58.3h4.2v2.2c0 1.1-.9 2.1-2.1 2.1-1.1 0-2.1-.9-2.1-2.1zm2.1 1.2c.9 0 1.7.6 1.7 1.4s-.7 1.4-1.7 1.4c-.9 0-1.7-.6-1.7-1.4s.7-1.4 1.7-1.4z" fill="url(#b)"/><path d="m51.6 58.3h4.1v.7h-4.1z" fill="#4f4f4f"/><path d="m53.7 60c.5 0 .8.4.8.8v2.2c0 .5-.4.8-.8.8-.5 0-.8-.4-.8-.8v-2.2c-.1-.4.3-.8.8-.8z" fill="#1d1c21"/><path d="m53.7 60c.4 0 .7.3.7.7v2.3c0 .4-.3.7-.7.7s-.7-.3-.7-.7c0-.8 0-1.6 0-2.3-.1-.3.3-.7.7-.7z" fill="#242328"/><path d="m53.7 60.1c.3 0 .6.3.6.6v2.4c0 .3-.3.6-.6.6s-.6-.3-.6-.6c0-.8 0-1.6 0-2.4 0-.3.2-.6.6-.6z" fill="#2b2a2f"/><path d="m53.7 60.2c.3 0 .5.2.5.5v2.5c0 .3-.2.5-.5.5s-.5-.2-.5-.5c0-.8 0-1.7 0-2.5 0-.3.2-.5.5-.5z" fill="#313035"/><path d="m53.7 60.3c.2 0 .4.2.4.4v2.6c0 .2-.2.4-.4.4s-.4-.2-.4-.4v-2.6c0-.3.2-.4.4-.4z" fill="#38373c"/><path d="m1.6.2h56.7c.8 0 1.5.7 1.5 1.5v55c0 .8-.7 1.5-1.5 1.5h-56.7c-.8 0-1.5-.7-1.5-1.5v-55c0-.8.7-1.5 1.5-1.5z" fill="#8e8a98"/><path d="m1.8.4h56.4c.8 0 1.5.7 1.5 1.5v54.8c0 .8-.7 1.5-1.5 1.5-18.8 0-37.6 0-56.4 0-.8 0-1.5-.7-1.5-1.5 0-6.2 0-48.5 0-54.8-.1-.9.6-1.5 1.5-1.5z" fill="#7b7885"/><path d="m1.9.5h56.2c.8 0 1.5.7 1.5 1.5v54.6c0 .8-.7 1.5-1.5 1.5-18.7 0-37.4 0-56.2 0-.8 0-1.5-.7-1.5-1.5 0-6.2 0-48.4 0-54.6 0-.8.7-1.5 1.5-1.5z" fill="#781d77"/><path d="m2.9 2.5h54.1v53.5h-54.1z" fill="#010005" stroke="#000" stroke-miterlimit="2.4142" stroke-width=".1058"/><path d="m3.5 2.7h53c.2 0 .3.1.3.3v52.6c0 .2-.1.3-.3.3h-53c-.2 0-.3-.1-.3-.3v-52.6c0-.2.1-.3.3-.3z" fill="#fff"/><path d="m3.4 2.8h53.1s.1 0 .1.1v52.7s0 .1-.1.1h-53.1s-.1 0-.1-.1z" stroke="#000" stroke-miterlimit="2.4142" stroke-width=".1058"/><path d="m2.6 3.1h-2.5c-.1 0-.1-.1-.1-.1v-1.4c0-.8.7-1.5 1.5-1.5h1.5v2.5c0 .3-.2.5-.4.5z"/><path d="m2.6 3h-2.4c-.1 0-.2 0-.2-.1v-1.3c0-.8.6-1.4 1.4-1.4h1.5v2.4c.1.2-.1.4-.3.4z" fill="#17151a"/><path d="m1 .8c.5 0 .8.1 1 .5h.9c0-.3 0-.6 0-.9-1 0-1.1-.2-1.9.4z" fill="#a4a2b1" stroke="#000" stroke-miterlimit="2.4142" stroke-width=".1058"/><path d="m2.3 1.9c.3 0 .5.2.5.5s-.2.5-.5.5c-.3-.1-.5-.3-.5-.5 0-.3.2-.5.5-.5z"/><path d="m2.3 2c.2 0 .4.2.4.4s-.2.4-.4.4-.4-.2-.4-.4.2-.4.4-.4z" fill="#fff"/><path d="m2.3 2.1c.1 0 .2.1.2.1h-.1c-.1 0-.3.1-.3.3v.1s-.1-.1-.1-.2c0-.2.2-.3.3-.3z"/><path d="m57.4 3.1h2.5c.1 0 .1-.1.1-.1v-1.4c0-.8-.7-1.5-1.5-1.5h-1.5v2.5c0 .3.2.5.4.5z"/><path d="m57.4 3h2.4c.1 0 .2 0 .2-.1v-1.3c0-.8-.6-1.4-1.4-1.4h-1.5v2.4c-.1.2.1.4.3.4z" fill="#17151a"/><path d="m59 .8c-.5 0-.8.1-1 .5-.3 0-.6 0-.9 0 0-.3 0-.6 0-.9 1 0 1.1-.2 1.9.4z" fill="#a4a2b1" stroke="#000" stroke-miterlimit="2.4142" stroke-width=".1058"/><path d="m57.7 1.9c-.3 0-.5.2-.5.5s.2.5.5.5.5-.2.5-.5-.2-.5-.5-.5z"/><path d="m57.7 2c-.2 0-.4.2-.4.4s.2.4.4.4.4-.2.4-.4-.2-.4-.4-.4z" fill="#fff"/><path d="m57.7 2.1c-.1 0-.2.1-.2.1h.1c.1 0 .3.1.3.3v.1c.1 0 .2-.1.2-.2-.1-.2-.3-.3-.4-.3z"/><path d="m2.6 55.5h-2.5c-.1 0-.1 0-.1.1v1.4c0 .8.7 1.5 1.5 1.5h1.5v-2.5c0-.3-.2-.5-.4-.5z"/><path d="m2.6 55.5h-2.4c-.1 0-.1 0-.1.1v1.4c0 .8.6 1.4 1.4 1.4h1.5v-2.4c0-.3-.2-.5-.4-.5z" fill="#17151a"/><path d="m1 57.8c.5 0 .8-.1 1-.5h.9v.9c-1 0-1.1.1-1.9-.4z" fill="#a4a2b1" stroke="#000" stroke-miterlimit="2.4142" stroke-width=".1058"/><path d="m2.3 56.6c.3 0 .5-.2.5-.5s-.2-.5-.5-.5-.5.2-.5.5.2.5.5.5z"/><path d="m2.3 56.5c.2 0 .4-.2.4-.4s-.2-.4-.4-.4-.4.2-.4.4c0 .3.2.4.4.4z" fill="#fff"/><path d="m2.3 56.4c.1 0 .2-.1.2-.1s0 0-.1 0-.3-.2-.3-.3 0-.1 0-.1-.1.1-.1.3c0 .1.2.2.3.2z"/><path d="m57.4 55.5h2.5c.1 0 .1 0 .1.1v1.4c0 .8-.7 1.5-1.5 1.5h-1.5v-2.5c0-.3.2-.5.4-.5z"/><path d="m57.4 55.5h2.4c.1 0 .1 0 .1.1v1.4c0 .8-.6 1.4-1.4 1.4h-1.5v-2.4c0-.3.2-.5.4-.5z" fill="#17151a"/><path d="m59 57.8c-.5 0-.8-.1-1-.5-.3 0-.6 0-.9 0v.9c1 0 1.1.1 1.9-.4z" fill="#a4a2b1" stroke="#000" stroke-miterlimit="2.4142" stroke-width=".1058"/><path d="m57.7 56.6c-.3 0-.5-.2-.5-.5s.2-.5.5-.5.5.2.5.5-.2.5-.5.5z"/><path d="m57.7 56.5c-.2 0-.4-.2-.4-.4s.2-.4.4-.4.4.2.4.4c0 .3-.2.4-.4.4z" fill="#fff"/><path d="m57.7 56.4c-.1 0-.2-.1-.2-.1h.1c.1 0 .3-.2.3-.3s0-.1 0-.1c.1 0 .2.1.2.2-.1.2-.3.3-.4.3z"/><path d="m56.9 56.1h-53.8v.1z" fill="#41424b"/><path d="m8.9 53.3h-5.3v2h5.3z" fill="#d1b267"/><path d="m4.2 58.3h4.2v2.2c0 1.1-.9 2.1-2.1 2.1-1.1 0-2.1-.9-2.1-2.1zm2 1.2c.9 0 1.7.6 1.7 1.4s-.7 1.4-1.7 1.4c-.9 0-1.7-.6-1.7-1.4.1-.8.8-1.4 1.7-1.4z" fill="url(#c)"/><path d="m4.2 58.3h4.1v.7h-4.1z" fill="#4f4f4f"/><path d="m6.2 60c.5 0 .8.4.8.8v2.2c0 .5-.4.8-.8.8-.5 0-.8-.4-.8-.8v-2.2c0-.4.4-.8.8-.8z" fill="#1d1c21"/><path d="m6.2 60c.4 0 .8.4.8.8v2.3c0 .4-.3.7-.7.7s-.7-.3-.7-.7c0-.8 0-1.6 0-2.3-.1-.4.2-.8.6-.8z" fill="#242328"/><path d="m6.2 60.1c.3 0 .6.3.6.6v2.4c0 .3-.3.6-.6.6s-.6-.3-.6-.6c0-.8 0-1.6 0-2.4 0-.3.3-.6.6-.6z" fill="#2b2a2f"/><path d="m6.2 60.2c.3 0 .5.2.5.5v2.5c0 .3-.2.5-.5.5s-.5-.2-.5-.5c0-.8 0-1.7 0-2.5 0-.3.3-.5.5-.5z" fill="#313035"/><path d="m6.2 60.3c.2 0 .4.2.4.4v2.6c0 .2-.2.4-.4.4s-.4-.2-.4-.4v-2.6c.1-.3.2-.4.4-.4z" fill="#38373c"/></svg>