<svg enable-background="new 0 0 60 60" height="60" viewBox="0 0 60 60" width="60" xmlns="http://www.w3.org/2000/svg"><path d="m27.1 35s-1 1.7-.1 2.7c1 1.1 3.5.8 5 .4s1.9-.5 2-1c.2-.5-.5-.9-.2-1 .4-.2 1.5-.4 2.6-.2 1 .2 2.1.9 2.2 1.9.1.8-1.7 1.5-3.7 2.2-1.9.6-4.1 1.2-5.5 1.8-2.8 1.1-4 1.5-4.9 2.9-1 1.3-2.7 6.6-3.5 8.5s-2.4 6-6.3 4.8-6.9-3.7-8.6-3.5c-1.1.1-1.6.8-1.7.7s-.1-1.4-.8-2.6c-.7-1.3-2-3.4-2.9-5.8-1-2.4-.7-4.5 2-6s5.3-2.3 7.7-3.2 2.9-1.3 3.6-2 1-1.4 1.5-2.5c.4-1.1 1.1-2.8 1.4-3.5s.6-1.9 2.3-1.4c1.7.6 3.5 1.4 4.3 1.7 1.3.4 1.7.6 2.3.5.7-.1 1.1-.6 1.1-.6z" fill="#333"/><path d="m25.6 33.5-21.4 21.4c-.1-.4-.2-1.4-.8-2.5-.7-1.3-2-3.4-2.9-5.8-1-2.4-.7-4.5 2-6s5.3-2.3 7.7-3.2 2.9-1.3 3.6-2 1-1.4 1.5-2.5c.4-1.1 1.1-2.8 1.4-3.5s.6-1.9 2.3-1.4c1.7.6 3.5 1.4 4.3 1.7 1.3.4 1.7.6 2.3.5.7-.1 1.1-.6 1.1-.6z" fill="#781d77"/><path d="m4.5 54.6c-.1-.5-.2-1.4-.8-2.3-.1-.1-.1-.3-.2-.4-.7-1.3-1.8-3.2-2.7-5.4-1-2.6-.4-4.3 1.9-5.6 2.1-1.1 4.1-1.9 6-2.5.6-.2 1.1-.4 1.7-.6 2.4-.9 3-1.3 3.7-2.1s1.1-1.5 1.5-2.6c.2-.4.4-1 .6-1.5.3-.8.6-1.6.8-2 0-.1.1-.1.1-.2.3-.7.6-1.4 1.8-1 1 .3 1.9.7 2.8 1.1.6.3 1.2.5 1.6.6l.2.1c1.2.4 1.6.5 2.2.5.3 0 .6-.1.8-.3l.3 4.6c-.2.4-.9 1.9 0 2.9 0 0 0 .1.1.1 1.2 1.2 3.9.8 5.3.4h.1c1.5-.4 2-.6 2.2-1.2.1-.4-.1-.7-.2-.9.5-.1 1.3-.3 2.2-.1.6.1 1.2.4 1.5.8.3.3.4.5.4.8.1.7-2.5 1.5-3.5 1.9-.6.2-1.3.4-2 .6-1.3.4-2.6.8-3.5 1.2l-.4.2c-2.5 1-3.7 1.5-4.7 2.8-.7 1-1.7 3.6-2.6 6-.4 1.1-.7 2-1 2.6 0 .1-.1.2-.1.2-.4.9-1 2.4-1.9 3.4-1.1 1.2-2.4 1.5-3.9 1-1.8-.5-3.3-1.4-4.7-2.1-1.7-.9-3-1.6-4.1-1.4-.8 0-1.2.3-1.5.4z" fill="#781d77"/><path d="m57 3.1-.4-.5h.2z" fill="#b4b4b4"/><path d="m56.1 2.8c.1 0 .3 0 .6-.1s.4-.3.4-.4-.2-.4-.2-.4-.2-.1-.6.1-.4.3-.4.4c0 0 .2.4.2.4z" fill="#ccc"/><path d="m57 2.1c0-.1 0-.2-.1-.2 0 0-.2-.1-.6.1s-.4.3-.4.4c0 0 0 .1.1.2z" fill="#989898"/><path d="m56.1 2.6c0-.1-.1-.2-.1-.2s.1-.2.4-.3c.3-.2.4-.1.5-.1 0 0 0 .1.1.2v.1s-.1.2-.4.3c-.2.1-.4.1-.5 0 .1.1 0 0 0 0z" fill="#989898"/><path d="m57 2.1c0-.1-.1-.1-.1-.1s-.1 0-.5.1c-.3.1-.4.2-.4.3 0 0 0 .1.1.2z" fill="#ccc"/><path d="m55.4 3.8-.4-.4.2-.1z" fill="#b4b4b4"/><path d="m54.5 3.5c.1 0 .3 0 .6-.1s.4-.3.4-.4-.2-.4-.2-.4-.2-.1-.6.1-.4.3-.4.4.2.4.2.4z" fill="#ccc"/><path d="m55.5 2.8c0-.1-.1-.2-.1-.2s-.2-.1-.6.1-.4.3-.4.4c0 0 0 .1.1.2z" fill="#989898"/><path d="m54.5 3.3c0-.1-.1-.2-.1-.2s.1-.2.4-.3.4-.1.5-.1c0 0 0 .1.1.2v.1s-.1.2-.4.3c-.2.1-.4.1-.5 0 .1.1 0 .1 0 0z" fill="#989898"/><path d="m55.4 2.9c0-.1-.1-.1 0 0-.1-.1-.2-.1-.6 0-.3.1-.4.3-.4.3s0 .1.1.2z" fill="#ccc"/><path d="m53.9 4.6h-.2l-.2-.5.1-.1z" fill="#b4b4b4"/><path d="m53 4.3c.1 0 .3 0 .6-.1.3-.2.4-.4.4-.4 0-.1-.2-.4-.2-.4s-.2-.1-.6.1-.4.3-.4.4c0 0 .2.3.2.4z" fill="#ccc"/><path d="m53.9 3.6c0-.1-.1-.2-.1-.2s-.2-.1-.6.1-.4.3-.4.4c0 0 0 .1.1.2z" fill="#989898"/><path d="m53 4c0-.1-.1-.2-.1-.2s.1-.2.4-.3.4-.1.5-.1c0 0 0 .1.1.2 0 .1.1.1.1.2 0 0-.1.2-.4.3-.2.1-.4.1-.5.1 0 0-.1-.1-.1-.2z" fill="#989898"/><path d="m53.8 3.6c0-.1-.1-.1 0 0-.1-.1-.2-.1-.6 0-.3.1-.4.3-.4.3s0 .1.1.2z" fill="#ccc"/><path d="m52.5 5.2-.2.1-.2-.5.1-.1z" fill="#b4b4b4"/><path d="m51.6 4.9c.1 0 .3 0 .6-.1s.4-.3.4-.4-.2-.4-.2-.4-.2-.1-.6.1-.4.3-.4.4.1.4.2.4z" fill="#ccc"/><path d="m52.5 4.2c0-.1-.1-.2-.1-.2s-.2-.1-.6.1-.4.3-.4.4c0 0 0 .1.1.2z" fill="#989898"/><path d="m51.6 4.7c0-.1-.1-.2-.1-.2s.1-.2.4-.3.4-.1.5-.1c0 0 0 .1.1.2 0 .1.1.1.1.2 0 0-.1.2-.4.3-.2.1-.4.1-.5.1-.1-.1-.1-.1-.1-.2z" fill="#989898"/><path d="m52.4 4.3c0-.1-.1-.1 0 0-.1-.1-.2-.1-.6 0-.3.1-.4.3-.4.3s0 .1.1.2z" fill="#ccc"/><path d="m51 6h-.2l-.3-.5.2-.1z" fill="#b4b4b4"/><path d="m50.1 5.7c.1 0 .3 0 .6-.1s.4-.3.4-.4-.2-.4-.2-.4-.2-.1-.6.1-.4.3-.4.4c-.1 0 .1.3.2.4z" fill="#ccc"/><path d="m51 5c0-.1-.1-.2-.1-.2s-.2-.1-.6.1-.4.3-.4.4c0 0 0 .1.1.2z" fill="#989898"/><path d="m50 5.4c0-.1 0-.1 0 0 0-.1.1-.3.4-.4s.4-.1.5-.1c0 0 0 .1.1.2 0 .1.1.1.1.2 0 0-.1.2-.4.3-.2.1-.4.1-.5.1-.1-.1-.1-.2-.2-.3z" fill="#989898"/><path d="m50.9 5c0-.1-.1-.1 0 0-.1-.1-.2-.1-.6 0-.3.1-.3.2-.3.3 0 0 0 .1.1.2z" fill="#ccc"/><path d="m49.4 6.7-.4-.4.2-.1z" fill="#b4b4b4"/><path d="m48.5 6.5c.1 0 .3 0 .6-.1.3-.2.4-.4.4-.4 0-.1-.2-.4-.2-.4s-.2-.1-.6.1c-.3.1-.4.3-.4.3 0 .1.2.4.2.5z" fill="#ccc"/><path d="m49.5 5.7c0-.1-.1-.2-.1-.2s-.2-.1-.6.1-.5.4-.5.4 0 .1.1.2z" fill="#989898"/><path d="m48.5 6.2c0-.1-.1-.2-.1-.2s.1-.2.4-.3.4-.1.5-.1c0 0 0 .1.1.2 0 .1.1.1.1.2 0 0-.1.2-.4.3-.2.1-.4.1-.5.1 0-.1-.1-.1-.1-.2z" fill="#989898"/><path d="m49.4 5.8c0-.1-.1-.1 0 0-.1-.1-.2-.1-.6 0-.3.1-.3.2-.4.2 0 0 0 .1.1.2z" fill="#ccc"/><path d="m24.6 37.5-3-3.1 26.5-25.3 2 2z" fill="#4b1212"/><path d="m23.1 36-1.5-1.6 26.5-25.3 1 1z" fill="#672222"/><path d="m47.7 13.6-2.1-2.1.1-.1 2.1 2.1z" fill="#010101"/><path d="m45.9 15.4-2.1-2.1.1-.1 2.1 2.1z" fill="#010101"/><path d="m44.2 17.2-2.2-2.2.1-.1 2.2 2.2z" fill="#010101"/><path d="m42.6 18.8-2.3-2.3.1-.1 2.3 2.3z" fill="#010101"/><path d="m41.1 20.4-2.4-2.3.1-.1 2.4 2.3z" fill="#010101"/><path d="m39.7 21.9-2.4-2.4.1-.1 2.4 2.4z" fill="#010101"/><path d="m35.9 20.8 2.5 2.4-.1.1z" fill="#010101"/><path d="m34.5 22.1 2.6 2.5-.1.1z" fill="#010101"/><path d="m35.8 25.9-2.5-2.6.1-.1 2.5 2.6z" fill="#010101"/><path d="m34.7 27-2.6-2.6.1-.1 2.6 2.6z" fill="#010101"/><path d="m33.6 28.1-2.6-2.6.1-.1 2.6 2.6z" fill="#010101"/><path d="m32.7 29.2-2.7-2.7.1-.1 2.7 2.7z" fill="#010101"/><path d="m31.7 30.2-2.7-2.8.1-.1 2.7 2.8z" fill="#010101"/><path d="m30.8 31.1-2.8-2.7.1-.1 2.8 2.7z" fill="#010101"/><path d="m29.9 32-2.8-2.8.1-.1 2.8 2.8z" fill="#010101"/><path d="m29.2 32.8-2.9-2.8.1-.1 2.9 2.8z" fill="#010101"/><path d="m25.5 30.7 3 2.8-.1.1z" fill="#010101"/><path d="m27.5 34.5-2.9-2.9.1-.1 2.9 2.9z" fill="#010101"/><path d="m26.8 35.3-3-2.9.1-.1 3 2.9z" fill="#010101"/><path d="m26.1 35.9-2.9-2.9.1-.1 2.9 2.9z" fill="#010101"/><path d="m22 34.1 3 2.9v.1z" fill="#010101"/><path d="m22.5 33.6 3 2.9-.1.1z" fill="#010101"/><g fill="#ccc"><path d="m47.7 13.5-2.1-2 .1-.1 2.1 2z"/><path d="m46 15.3-2.2-2.1.1-.1z"/><path d="m44.2 17.2-2.2-2.3.1-.1 2.2 2.3z"/><path d="m42.7 18.8-2.3-2.3.1-.1 2.3 2.3z"/><path d="m41.1 20.4-2.3-2.4.1-.1 2.3 2.4z"/><path d="m39.7 21.8-2.4-2.4.1-.1 2.4 2.4z"/><path d="m35.9 20.8 2.5 2.4-.1.1z"/><path d="m34.6 22.1 2.6 2.5-.1.1z"/><path d="m35.9 25.9-2.6-2.6.1-.1 2.5 2.6z"/><path d="m34.8 27-2.7-2.6.1-.1 2.6 2.6z"/><path d="m33.7 28.1-2.7-2.7h.1l2.7 2.6z"/><path d="m32.7 29.1-2.7-2.7.1-.1 2.7 2.7z"/><path d="m29 27.4 2.8 2.7-.1.1z"/><path d="m30.8 31.1-2.8-2.8.1-.1 2.8 2.8z"/><path d="m30 31.9-2.8-2.7.1-.1 2.8 2.8z"/><path d="m29.2 32.8-2.8-2.9v-.1l2.9 2.9z"/><path d="m25.5 30.8 3 2.8-.1.1z"/><path d="m27.5 34.5-2.9-2.9.1-.1 2.9 2.9z"/><path d="m26.8 35.2-2.9-2.9.1-.1 2.9 3z"/><path d="m26.2 35.9-3-2.9.1-.1 3 2.9z"/><path d="m22.6 33.5 3 2.9-.1.1z"/><path d="m22 34.1 3 2.9z"/></g><path d="m48 9.2s.2-.2.2-.7c0-.4-.1-1.1.1-1.2.2-.2 9-4.6 9.5-4.6.2 0 0 .3.5.5.5.3 1.8 0 1.7.3-.1.2-3.4 2.6-4.8 4.3s-2.1 2.8-2.4 3c-.2.1-1.2-.1-1.8.1-.7.1-1 .4-1 .4z" fill="#333"/><path d="m48 9.2s.2-.2.2-.7c0-.4-.1-1.1.1-1.2.2-.2 9-4.6 9.5-4.6.2 0 0 .3.5.5l-9.3 7z" fill="#010101"/><path d="m48.3 9.1c.1-.1.1-.3.2-.6 0-.2 0-.4 0-.6s0-.4 0-.5c.7-.4 8-4.1 9.2-4.4 0 .1.1.2.2.3.1 0 .1.1.2.2.3.2.8.2 1.2.2-.2.2-.4.4-.7.6-1.1.9-2.8 2.2-3.7 3.3-.7.8-1.2 1.5-1.6 2-.3.4-.6.8-.7.9-.1 0-.4 0-.6 0-.4 0-.8 0-1.1 0-.4.1-.7.2-.9.3z" fill="#781d77"/><path d="m49.7 11.5-2-2.1.3-.2 2 2z" fill="#e6e6e5"/><path d="m49.7 11.5-2-2.1.1-.1 2.1 2.1z" fill="#c1c0c0"/><path d="m44.2 15.4c-.1.1-.2.1-.3 0s-.1-.2 0-.3.2-.1.3 0z" fill="#eedd84"/><path d="m40.9 18.5c-.1.1-.2.1-.3 0s-.1-.2 0-.3.2-.1.3 0 .1.3 0 .3z" fill="#eedd84"/><path d="m38 21.5c-.1.1-.2.1-.3 0s-.1-.2 0-.3.2-.1.3 0 .1.2 0 .3z" fill="#eedd84"/><path d="m35.4 24.1c-.1.1-.2.1-.3 0s-.1-.2 0-.3.2-.1.3 0c.1 0 .1.2 0 .3z" fill="#eedd84"/><path d="m32.7 28.1c-.1.1-.2.1-.3 0s-.1-.2 0-.3.2-.1.3 0 .1.2 0 .3z" fill="#eedd84"/><path d="m31.3 26.7c-.1.1-.2.1-.3 0s-.1-.2 0-.3.2-.1.3 0 .1.2 0 .3z" fill="#eedd84"/><path d="m24.6 34.8c-.1.1-.2.1-.3 0s-.1-.2 0-.3.2-.1.3 0 .1.3 0 .3z" fill="#eedd84"/><path d="m29.2 30.2c-.1.1-.2.1-.3 0s-.1-.2 0-.3.2-.1.3 0 .1.3 0 .3z" fill="#eedd84"/><path d="m27.6 31.9c-.1.1-.2.1-.3 0s-.1-.2 0-.3.2-.1.3 0c.1 0 .1.2 0 .3z" fill="#eedd84"/><path d="m25.9 33.5c-.1.1-.2.1-.3 0s-.1-.2 0-.3.2-.1.3 0 .1.2 0 .3z" fill="#eedd84"/><path d="m25.1 38.3c.1-.1.1-.2 0-.3l-4-4c-.1-.1-.2 0-.3 0l-1.9 2c-.1.1-.1.2 0 .3l4 4c.1.1.2 0 .3 0z" fill="#333"/><path d="m23.1 36-2-2h-.1s-.1 0-.1.1l-2 1.9-.1.1v.1l2 2z" fill="#010101"/><path d="m25 38.2c.1-.1.1-.2 0-.2l-3.9-3.9c-.1-.1-.2-.1-.2 0l-1.9 1.9c-.1.1-.1.2 0 .2l3.9 3.9c.1.1.2.1.2 0z"/><path d="m23 36.1-1.9-1.9h-.1-.1l-.9.9-1 .9v.1.1l1.9 1.9z" fill="#333"/><path d="m24.5 38c.1-.1.1-.2 0-.2l-3.2-3.2c-.1-.1-.2 0-.2 0l-1.6 1.6c-.1.1-.1.2 0 .2l3.2 3.2c.1.1.2 0 .2 0z" fill="#333"/><path d="m22.9 36.2-1.6-1.6h-.1s-.1 0-.1.1l-1.6 1.6s0 .1-.1.1 0 .1 0 .1l1.6 1.6z" fill="#010101"/><path d="m24.4 38s0-.1 0-.2l-3.1-3.1s-.1 0-.2 0l-1.5 1.5v.2l3.1 3.1h.2z" fill="#010101"/><path d="m22.8 36.3-1.6-1.6h-.1-.1l-.7.7-.7.7v.1.1l1.6 1.6z" fill="#333"/><path d="m19.4 36.1c0-.1-.1-.2-.2-.2s-.2.1-.2.2.1.2.2.2c.1-.1.2-.2.2-.2z" fill="#818181"/><path d="m21.1 34.5c.1-.1.1-.2 0-.2-.1-.1-.2-.1-.2 0-.1.1-.1.2 0 .2z" fill="#818181"/><path d="m20.2 35.4c.1 0 .2-.1.2-.2s-.1-.2-.2-.2-.2.1-.2.2.1.2.2.2z" fill="#818181"/><path d="m24.6 38c.1-.1.2-.1.2 0 .1.1.1.2 0 .2-.1.1-.2.1-.2 0 0 0 0-.1 0-.2z" fill="#333"/><path d="m23.7 38.9c0-.1.1-.2.2-.2s.2.1.2.2-.1.2-.2.2c-.2-.1-.2-.1-.2-.2z" fill="#333"/><path d="m23 39.7c.1 0 .2.1.2.1 0 .1-.1.2-.1.2-.1 0-.2-.1-.2-.1 0-.1 0-.2.1-.2z" fill="#333"/><path d="m19.4 36.1c0-.1 0-.1 0 0h-.3z" fill="#010101"/><path d="m21.1 34.4-.2-.2.2.2c0 .1 0 .1 0 0z" fill="#010101"/><path d="m20.2 35.4v-.3z" fill="#010101"/><path d="m24.6 38c.1 0 .1 0 0 0l.2.2z" fill="#010101"/><path d="m23.7 38.9h.3z" fill="#010101"/><path d="m23 39.7v.3z" fill="#010101"/><path d="m23.2 39.1c-.2.2-.5.2-.8-.1l-2.4-2.3c-.2-.2-.3-.6-.1-.8s.5-.2.8.1l2.4 2.4c.3.1.3.5.1.7z" fill="#333"/><path d="m23.2 39.1c-.2.2-.5.2-.8-.1l-2.4-2.3c-.2-.2-.3-.6-.1-.8s.5-.2.8.1l2.4 2.4c.3.1.3.5.1.7z" fill="#333"/><path d="m21.2 37.8-1.2-1.1c-.1-.1-.2-.3-.2-.4s0-.3.1-.4.2-.1.4-.1c.1 0 .3.1.4.2l1.2 1.2z" fill="#010101"/><path d="m20.1 36.6c-.2-.2-.2-.5-.1-.6.2-.2.4-.1.6.1l2.4 2.4c.2.2.2.5.1.6-.2.2-.4.1-.6-.1z" fill="#010101"/><path d="m20.1 36.6c-.1-.1-.1-.2-.1-.3s0-.2.1-.3.2-.1.3-.1.2.1.3.2l1.2 1.2-.6.6z" fill="#333"/><path d="m22.8 38.8c-.1 0-.1-.1-.1-.1 0-.1.1-.1.1-.1.1 0 .1.1.1.1s0 .1-.1.1z" fill="#676767"/><path d="m20.4 36.4c-.1 0-.1-.1-.1-.1 0-.1.1-.1.1-.1.1 0 .1.1.1.1 0 .1 0 .1-.1.1z" fill="#818181"/><path d="m22.3 38.3c-.1 0-.1-.1-.1-.1 0-.1.1-.1.1-.1.1 0 .1.1.1.1.1.1 0 .1-.1.1z" fill="#676767"/><path d="m20.9 36.9c-.1 0-.1-.1-.1-.1 0-.1.1-.1.1-.1.1 0 .1.1.1.1 0 .1 0 .1-.1.1z" fill="#818181"/><path d="m21.3 37.4c-.1 0-.1-.1-.1-.1 0-.1.1-.1.1-.1.1 0 .1.1.1.1.1 0 0 .1-.1.1z" fill="#818181"/><path d="m21.8 37.9c-.1 0-.1-.1-.1-.1 0-.1.1-.1.1-.1.1 0 .1.1.1.1.1 0 0 .1-.1.1z" fill="#676767"/><path d="m23.9 38.3c-.2.2-.5.2-.8-.1l-2.4-2.4c-.2-.2-.3-.6-.1-.8s.5-.2.8.1l2.4 2.4c.3.2.3.6.1.8z" fill="#333"/><path d="m23.9 38.3c-.2.2-.5.2-.8-.1l-2.4-2.4c-.2-.2-.3-.6-.1-.8s.5-.2.8.1l2.4 2.4c.3.2.3.6.1.8z" fill="#333"/><path d="m22 37.1-1.2-1.2c-.1-.1-.2-.3-.2-.4s0-.3.1-.4c.2-.1.3-.1.4-.1s.3.1.4.2l1.2 1.2z" fill="#010101"/><path d="m20.9 35.8c-.2-.2-.2-.5-.1-.6.2-.2.4-.1.6.1l2.4 2.4c.2.2.2.5.1.6-.2.2-.4.1-.6-.1z" fill="#010101"/><path d="m20.9 35.8c-.1-.1-.1-.2-.2-.3 0-.1 0-.2.1-.3s.2-.1.3-.1.2.1.3.2l1.2 1.2-.5.5z" fill="#333"/><path d="m23.5 38c-.1 0-.1-.1-.1-.1 0-.1.1-.1.1-.1.1 0 .1.1.1.1.1.1 0 .1-.1.1z" fill="#676767"/><path d="m21.2 35.7c-.1 0-.1-.1-.1-.1 0-.1.1-.1.1-.1.1 0 .1.1.1.1z" fill="#818181"/><path d="m23.1 37.6c-.1 0-.1-.1-.1-.1 0-.1.1-.1.1-.1.1 0 .1.1.1.1s0 .1-.1.1z" fill="#676767"/><path d="m21.6 36.2c-.1 0-.1-.1-.1-.1 0-.1.1-.1.1-.1.1 0 .1.1.1.1.1 0 0 .1-.1.1z" fill="#818181"/><path d="m22.1 36.6c-.1 0-.1-.1-.1-.1 0-.1.1-.1.1-.1.1 0 .1.1.1.1.1.1 0 .1-.1.1z" fill="#818181"/><path d="m22.6 37.1c-.1 0-.1-.1-.1-.1 0-.1.1-.1.1-.1.1 0 .1.1.1.1s0 .1-.1.1z" fill="#676767"/><path d="m20.7 42.7c.1-.1.1-.2 0-.3l-4-4c-.1-.1-.2 0-.3 0l-1.9 1.9c-.1.1-.1.2 0 .3l4 4c.1.1.2 0 .3 0z" fill="#333"/><path d="m18.7 40.4-2-2h-.1s-.1 0-.1.1l-1.9 1.9-.1.1v.1l2 2z" fill="#010101"/><path d="m20.6 42.7c.1-.1.1-.2 0-.2l-3.9-3.9c-.1-.1-.2-.1-.2 0l-1.8 1.8c-.1.1-.1.2 0 .2l3.9 3.9c.1.1.2.1.2 0z"/><path d="m18.6 40.5-1.9-1.9h-.1-.1l-.9.9-.9.9v.1.1l1.9 1.9z" fill="#333"/><path d="m20 42.4c.1-.1.1-.2 0-.2l-3.1-3.2c-.1-.1-.2 0-.2 0l-1.6 1.6c-.1.1-.1.2 0 .2l3.2 3.2c.1.1.2 0 .2 0z" fill="#333"/><path d="m18.5 40.6-1.6-1.6h-.1s-.1 0-.1.1l-1.6 1.6s0 .1-.1.1v.1l1.6 1.6z" fill="#010101"/><path d="m20 42.4s0-.1 0-.2l-3.1-3.1s-.1 0-.2 0l-1.5 1.5v.2l3.1 3.1h.2z" fill="#010101"/><path d="m18.4 40.7-1.6-1.6h-.1-.1l-.7.7-.7.7v.1.1l1.6 1.6z" fill="#333"/><path d="m15 40.5c0-.1-.1-.2-.2-.2s-.2.1-.2.2.1.2.2.2c.1-.1.2-.1.2-.2z" fill="#818181"/><path d="m16.7 38.9c.1-.1.1-.2 0-.2-.1-.1-.2-.1-.2 0-.1.1-.1.2 0 .2z" fill="#818181"/><path d="m15.8 39.8c.1 0 .2-.1.2-.2s-.1-.2-.2-.2-.2.1-.2.2c0 .2.1.2.2.2z" fill="#818181"/><path d="m20.2 42.4c.1-.1.2-.1.2 0 .1.1.1.2 0 .2-.1.1-.2.1-.2 0 0 0 0-.1 0-.2z" fill="#333"/><path d="m19.3 43.3c0-.1.1-.2.2-.2s.2.1.2.2-.1.2-.2.2c-.2 0-.2-.1-.2-.2z" fill="#333"/><path d="m18.6 44.1c.1 0 .2.1.2.1 0 .1-.1.2-.1.2-.1 0-.2-.1-.2-.1-.1-.1 0-.2.1-.2z" fill="#333"/><path d="m15 40.5h-.3z" fill="#010101"/><path d="m16.7 38.9-.2-.2.2.2c-.1 0 0 0 0 0z" fill="#010101"/><path d="m15.8 39.8v-.3z" fill="#010101"/><path d="m20.2 42.4.2.2z" fill="#010101"/><path d="m19.3 43.3h.3z" fill="#010101"/><path d="m18.6 44.1v.3z" fill="#010101"/><path d="m18.8 43.5c-.2.2-.5.2-.8-.1l-2.4-2.4c-.2-.2-.3-.6-.1-.8s.5-.2.8.1l2.4 2.4c.2.2.3.6.1.8z" fill="#333"/><path d="m18.8 43.5c-.2.2-.5.2-.8-.1l-2.4-2.4c-.2-.2-.3-.6-.1-.8s.5-.2.8.1l2.4 2.4c.2.2.3.6.1.8z" fill="#333"/><path d="m16.8 42.3-1.2-1.2c-.1-.1-.2-.3-.2-.4s0-.3.1-.4.2-.1.4-.1c.1 0 .3.1.4.2l1.2 1.2z" fill="#010101"/><path d="m15.7 41c-.2-.2-.2-.5-.1-.6.2-.2.4-.1.6.1l2.4 2.4c.2.2.2.5.1.6-.2.2-.4.1-.6-.1z" fill="#010101"/><path d="m15.7 41c-.1-.1-.1-.2-.2-.3 0-.1 0-.2.1-.3s.2-.1.3-.1.2.1.3.2l1.2 1.2-.6.6z" fill="#333"/><path d="m18.4 43.2c-.1 0-.1-.1-.1-.1 0-.1.1-.1.1-.1.1 0 .1.1.1.1 0 .1-.1.1-.1.1z" fill="#676767"/><path d="m16 40.9c-.1 0-.1-.1-.1-.1 0-.1.1-.1.1-.1.1 0 .1.1.1.1s0 .1-.1.1z" fill="#818181"/><path d="m17.9 42.8c-.1 0-.1-.1-.1-.1 0-.1.1-.1.1-.1.1 0 .1.1.1.1s0 .1-.1.1z" fill="#676767"/><path d="m16.5 41.3c-.1 0-.1-.1-.1-.1 0-.1.1-.1.1-.1.1 0 .1.1.1.1 0 .1-.1.1-.1.1z" fill="#818181"/><path d="m16.9 41.8c-.1 0-.1-.1-.1-.1 0-.1.1-.1.1-.1.1 0 .1.1.1.1.1 0 0 .1-.1.1z" fill="#818181"/><path d="m17.4 42.3c-.1 0-.1-.1-.1-.1 0-.1.1-.1.1-.1.1 0 .1.1.1.1.1 0 0 .1-.1.1z" fill="#676767"/><path d="m19.5 42.7c-.2.2-.5.2-.8-.1l-2.4-2.4c-.2-.2-.3-.6-.1-.8s.5-.2.8.1l2.4 2.4c.3.3.3.6.1.8z" fill="#333"/><path d="m19.5 42.7c-.2.2-.5.2-.8-.1l-2.4-2.4c-.2-.2-.3-.6-.1-.8s.5-.2.8.1l2.4 2.4c.3.3.3.6.1.8z" fill="#333"/><path d="m17.6 41.5-1.2-1.2c-.1-.1-.2-.3-.2-.4s0-.3.1-.4.2-.1.4-.1c.1 0 .3.1.4.2l1.2 1.2z" fill="#010101"/><path d="m16.5 40.2c-.2-.2-.2-.5-.1-.6.2-.2.4-.1.6.1l2.4 2.4c.2.2.2.5.1.6-.2.2-.4.1-.6-.1z" fill="#010101"/><path d="m16.5 40.2c-.1-.1-.1-.2-.2-.3 0-.1 0-.2.1-.3s.2-.1.3-.1.2.1.3.2l1.2 1.2-.6.6z" fill="#333"/><path d="m19.1 42.5c-.1 0-.1-.1-.1-.1 0-.1.1-.1.1-.1.1 0 .1.1.1.1.1 0 0 .1-.1.1z" fill="#676767"/><path d="m16.8 40.1c-.1 0-.1-.1-.1-.1 0-.1.1-.1.1-.1.1 0 .1.1.1.1z" fill="#818181"/><path d="m18.7 42c-.1 0-.1-.1-.1-.1 0-.1.1-.1.1-.1.1 0 .1.1.1.1z" fill="#676767"/><path d="m17.2 40.6c-.1 0-.1-.1-.1-.1 0-.1.1-.1.1-.1.1 0 .1.1.1.1.1 0 0 .1-.1.1z" fill="#818181"/><path d="m17.7 41c-.1 0-.1-.1-.1-.1 0-.1.1-.1.1-.1.1 0 .1.1.1.1 0 .1 0 .1-.1.1z" fill="#818181"/><path d="m18.2 41.5c-.1 0-.1-.1-.1-.1 0-.1.1-.1.1-.1.1 0 .1.1.1.1s0 .1-.1.1z" fill="#676767"/><path d="m12 44.8c0 .1-.1.1-.1.1-.1 0-.1-.1-.1-.1 0-.1.1-.1.1-.1s.1 0 .1.1z" fill="#010101"/><path d="m12.4 45.3c0 .1-.1.1-.1.1-.1 0-.1-.1-.1-.1 0-.1.1-.1.1-.1.1 0 .1 0 .1.1z" fill="#010101"/><path d="m12.9 45.8c0 .1-.1.1-.1.1-.1 0-.1-.1-.1-.1 0-.1.1-.1.1-.1.1 0 .1 0 .1.1z" fill="#010101"/><path d="m13.4 46.3c0 .1-.1.1-.1.1-.1 0-.1-.1-.1-.1 0-.1.1-.1.1-.1.1 0 .1 0 .1.1z" fill="#333"/><path d="m14 46.8c0 .1-.1.1-.1.1-.1 0-.1-.1-.1-.1 0-.1.1-.1.1-.1z" fill="#333"/><path d="m14.4 47.3c0 .1-.1.1-.1.1-.1 0-.1-.1-.1-.1 0-.1.1-.1.1-.1.1 0 .1 0 .1.1z" fill="#333"/><path d="m15.1 47.7c-.1.1-.3.1-.4 0l-3.3-3.3c-.1-.1-.1-.3 0-.4l1.7-1.7c.1-.1.3-.1.4 0l3.3 3.3c.1.1.1.3 0 .4z" fill="#333"/><path d="m13.1 46-1.6-1.6c-.1-.1-.1-.1-.1-.2s0-.2.1-.2l.9-.9.9-.9c.1-.1.1-.1.2-.1s.2 0 .2.1l1.6 1.6z"/><path d="m11.6 44.3c-.1-.1-.1-.1 0-.2l1.7-1.7c.1-.1.1-.1.2 0l3.3 3.3v.1.1l-1.8 1.6c-.1.1-.1.1-.2 0z"/><path d="m11.6 44.3c-.1 0-.1-.1 0 0 0-.1 0-.2 0-.2l.9-.9.9-.9h.1.1l1.6 1.6-1.9 1.9z" fill="#333"/><path d="m14.3 43.4c0 .1-.1.2-.2.2s-.2-.1-.2-.2.1-.2.2-.2c.2 0 .2.1.2.2z" fill="#010101"/><path d="m14.3 43.4c0 .1 0 .1-.1.1s-.1 0-.1-.1 0-.1.1-.1c0 0 .1 0 .1.1z" fill="#333"/><path d="m13.9 42.9c0 .1-.1.2-.2.2s-.2-.1-.2-.2.1-.2.2-.2c.1.1.2.1.2.2z" fill="#010101"/><path d="m13.8 42.9c0 .1 0 .1-.1.1s-.1 0-.1-.1 0-.1.1-.1z" fill="#333"/><path d="m14.8 43.9c0 .1-.1.2-.2.2s-.2-.1-.2-.2.1-.2.2-.2c.2 0 .2.1.2.2z" fill="#010101"/><path d="m14.8 43.9c0 .1 0 .1-.1.1s-.1 0-.1-.1 0-.1.1-.1c0 0 .1 0 .1.1z" fill="#333"/><path d="m15.3 44.4c0 .1-.1.2-.2.2s-.2-.1-.2-.2.1-.2.2-.2.2.1.2.2z" fill="#333"/><path d="m15.3 44.4c0 .1 0 .1-.1.1s-.1 0-.1-.1 0-.1.1-.1c0 0 .1 0 .1.1z" fill="#010101"/><path d="m15.9 44.9c0 .1-.1.2-.2.2s-.2-.1-.2-.2.1-.2.2-.2.2.1.2.2z" fill="#333"/><path d="m15.8 44.9c0 .1 0 .1-.1.1s-.1 0-.1-.1 0-.1.1-.1z" fill="#010101"/><path d="m16.3 45.4c0 .1-.1.2-.2.2s-.2-.1-.2-.2.1-.2.2-.2c.2 0 .2.1.2.2z" fill="#333"/><path d="m16.3 45.4c0 .1 0 .1-.1.1s-.1 0-.1-.1 0-.1.1-.1c0 0 .1 0 .1.1z" fill="#010101"/><path d="m12.7 44.4-.4-.4.7-.7.4.4z" fill="#1a1a1a"/><path d="m13.2 44.7-.4-.3.7-.7.4.4z" fill="#1a1a1a"/><path d="m13.3 44.8.7-.7.4.4-.7.7z" fill="#1a1a1a"/><path d="m14.3 45.7-.4-.4.7-.6.3.3z" fill="#1a1a1a"/><path d="m14.8 46.2-.4-.3.7-.7.4.4z" fill="#1a1a1a"/><path d="m15.3 46.7-.4-.3.7-.7.4.4z" fill="#1a1a1a"/><path d="m14.1 44.2.2-.2.4.4-.2.2z" fill="#010101"/><path d="m14.6 44.7.2-.2.4.4-.3.1z" fill="#333"/><path d="m15.1 45.2.2-.2.4.4-.2.2z" fill="#333"/><path d="m15.6 45.7.2-.2.4.4-.2.2z" fill="#333"/><path d="m13 43.3.2-.2.4.4-.2.2z" fill="#010101"/><path d="m13.5 43.7.2-.2.4.4-.2.1z" fill="#010101"/><path d="m12.7 44.1c-.1 0-.1 0-.2 0-.1-.1 0-.1 0-.2l.3-.3h.2c.1.1 0 .1 0 .2z" fill="#333"/><path d="m13.2 44.5c-.1 0-.1 0-.2 0-.1-.1 0-.1 0-.2l.3-.3h.2c.1.1 0 .1 0 .2z" fill="#333"/><path d="m13.7 45c-.1 0-.1 0-.2 0-.1-.1 0-.1 0-.2l.3-.3h.2c.1.1 0 .1 0 .2z" fill="#333"/><path d="m14.3 45.5c-.1 0-.1 0-.2 0-.1-.1 0-.1 0-.2l.3-.3h.2c.1.1 0 .1 0 .2z" fill="#333"/><path d="m14.8 46c-.1 0-.1 0-.2 0-.1-.1 0-.1 0-.2l.3-.3h.2c.1.1 0 .1 0 .2z" fill="#333"/><path d="m15.3 46.5c-.1 0-.1 0-.2 0-.1-.1 0-.1 0-.2l.3-.3h.2c.1.1 0 .1 0 .2z" fill="#333"/><path d="m13.2 45.1.2-.2.4.4-.2.2z" fill="#010101"/><path d="m13.7 45.6.2-.2.4.4-.3.1z" fill="#333"/><path d="m14.2 46.1.2-.2.4.4-.2.2z" fill="#333"/><path d="m14.7 46.6.2-.2.4.4-.3.2z" fill="#333"/><path d="m12.1 44.2.2-.2.4.4-.2.2z" fill="#010101"/><path d="m12.6 44.6.2-.2.4.4-.3.2z" fill="#010101"/><path d="m12.7 44c0 .1 0 .1-.1.1s-.1 0-.1-.1 0-.1.1-.1.2.1.1.1z" fill="#010101"/><path d="m13.3 44.4c0 .1 0 .1-.1.1s-.1 0-.1-.1 0-.1.1-.1z" fill="#010101"/><path d="m13.8 44.9c0 .1 0 .1-.1.1s-.1 0-.1-.1 0-.1.1-.1c0 0 .1 0 .1.1z" fill="#010101"/><path d="m14.3 45.4c0 .1 0 .1-.1.1s-.1 0-.1-.1 0-.1.1-.1c0 0 .1 0 .1.1z" fill="#010101"/><path d="m14.8 45.9c0 .1 0 .1-.1.1s-.1 0-.1-.1 0-.1.1-.1.1 0 .1.1z" fill="#010101"/><path d="m15.3 46.4c0 .1 0 .1-.1.1s-.1 0-.1-.1 0-.1.1-.1.1 0 .1.1z" fill="#010101"/><path d="m48 9.4-35.4 34.6 35.4-34.6 1.5-1.9.1-.1z" fill="none" stroke="#989898" stroke-miterlimit="10" stroke-width=".1"/><path d="m48.3 9.8-35.1 34.7 35.1-34.7 2.7-3.1h.1z" fill="none" stroke="#989898" stroke-miterlimit="10" stroke-width=".1"/><path d="m48.7 10.2-35 34.7 35-34.7 3.8-4.2h.1z" fill="none" stroke="#989898" stroke-miterlimit="10" stroke-width=".1"/><path d="m49.7 11.3-34.5 35.1 34.5-35.1 7.5-7.6h-.1z" fill="none" stroke="#989898" stroke-miterlimit="10" stroke-width=".1"/><path d="m49.4 10.9-34.6 35 34.6-35 6.3-6.5h-.1z" fill="none" stroke="#989898" stroke-miterlimit="10" stroke-width=".1"/><path d="m49 10.5-34.8 34.9 34.8-34.9 5.2-5.3h-.1z" fill="none" stroke="#989898" stroke-miterlimit="10" stroke-width=".1"/><path d="m57.4 4.2c-.2.1-.5.1-.6-.1s-.1-.5.1-.6.5-.1.6.1c.2.2.1.5-.1.6z" fill="#f3f3f3"/><path d="m57.3 4.1c-.1.1-.3 0-.4-.1s-.1-.3.1-.4c.1-.1.3-.1.4.1.1.1.1.3-.1.4z" fill="#b4b4b4"/><path d="m57.3 4c-.1.1-.2 0-.3 0-.1-.1 0-.2 0-.3.1-.1.2 0 .3 0 .1.1 0 .2 0 .3z" fill="#ccc"/><path d="m55.9 5c-.2.1-.5.1-.6-.1s-.1-.5.1-.6.5-.1.6.1c.1.1.1.4-.1.6z" fill="#f3f3f3"/><path d="m55.8 4.8c-.1.1-.3.1-.4-.1-.1-.1-.1-.3.1-.4.1-.1.3-.1.4.1s.1.3-.1.4z" fill="#b4b4b4"/><path d="m55.8 4.7c-.1.1-.2 0-.3 0-.1-.1 0-.2 0-.3.1-.1.2 0 .3 0z" fill="#ccc"/><path d="m54.4 5.7c-.2.1-.5.1-.6-.1s-.1-.5.1-.6.5-.1.6.1c.2.2.1.5-.1.6z" fill="#f3f3f3"/><path d="m54.3 5.6c-.1.1-.3.1-.4-.1-.1-.1-.1-.3.1-.4.1-.1.3-.1.4.1.1.1.1.3-.1.4z" fill="#b4b4b4"/><path d="m54.3 5.5c-.1.1-.2 0-.3 0-.1-.1 0-.2 0-.3.1-.1.2 0 .3 0 .1.1.1.2 0 .3z" fill="#ccc"/><path d="m52.9 6.5c-.2.1-.5.1-.6-.1s-.1-.5.1-.6.5-.1.6.1c.1.1.1.4-.1.6z" fill="#f3f3f3"/><path d="m52.8 6.3c-.1.1-.3.1-.4-.1-.1-.1-.1-.3.1-.4.1-.1.3-.1.4.1 0 .2 0 .3-.1.4z" fill="#b4b4b4"/><path d="m52.7 6.2c-.1.1-.2 0-.3 0-.1-.1 0-.2 0-.3.1-.1.2 0 .3 0 .1.2.1.3 0 .3z" fill="#ccc"/><path d="m51.4 7.2c-.2.1-.5.1-.6-.1s-.1-.5.1-.6.5-.1.6.1.1.4-.1.6z" fill="#f3f3f3"/><path d="m51.3 7.1c-.1.1-.3 0-.4-.1s-.1-.3.1-.4c.1-.1.3-.1.4.1 0 .1 0 .3-.1.4z" fill="#b4b4b4"/><path d="m51.2 7c-.1 0-.2 0-.2-.1-.1-.1 0-.2 0-.3.1-.1.2 0 .3 0 0 .2 0 .3-.1.4z" fill="#ccc"/><path d="m49.9 7.9c-.2.1-.5.1-.6-.1s-.1-.5.1-.6.5-.1.6.1.1.5-.1.6z" fill="#f3f3f3"/><path d="m49.8 7.8c-.1.1-.3.1-.4-.1-.1-.1-.1-.3.1-.4.1-.1.3-.1.4.1 0 .1 0 .3-.1.4z" fill="#b4b4b4"/><path d="m49.7 7.7c-.1.1-.2 0-.3 0-.1-.1 0-.2 0-.3.1-.1.2 0 .3 0 .1.2.1.3 0 .3z" fill="#ccc"/><path d="m18.1 48.5c-.4.4-.4 1.1 0 1.5s1.1.4 1.5 0 .4-1.1 0-1.5-1.1-.4-1.5 0z" fill="#010101"/><path d="m18.1 49.9c.4.4 1.1.4 1.5 0s.4-1.1 0-1.5z" fill="#333"/><path d="m19.3 49.7c-.3.3-.7.3-.9 0-.3-.3-.3-.7 0-.9.3-.3.7-.3.9 0 .3.2.3.6 0 .9z" fill="#010101"/><path d="m18.4 49.7c-.3-.3-.3-.7 0-.9.3-.3.7-.3.9 0z" fill="#333"/><circle cx="16.8" cy="53.9" fill="#010101" r="1"/><path d="m16 54.6c.4.4 1.1.4 1.5 0s.4-1.1 0-1.5z" fill="#333"/><path d="m17.2 54.4c-.3.3-.7.3-.9 0-.3-.3-.3-.7 0-.9.3-.3.7-.3.9 0 .3.2.3.6 0 .9z" fill="#010101"/><path d="m16.3 54.4c-.3-.3-.3-.7 0-.9.3-.3.7-.3.9 0z" fill="#333"/></svg>