<svg enable-background="new 0 0 60 60" height="60" viewBox="0 0 60 60" width="60" xmlns="http://www.w3.org/2000/svg"><path d="m43.7.2h-27.4c-1.7 0-3.1 1.4-3.1 3.1v53.7c0 1.7 1.4 3.1 3.1 3.1h27.5c1.7 0 3.1-1.4 3.1-3.1v-53.7c0-1.7-1.4-3.1-3.2-3.1z" fill="#249ac1"/><path d="m27.6 5.4c.6 0-.3.2 0 .5.6 0 .3-.5.8-.5-.3 0-.6-.5-.8-.2.8.2.3 0 0 .2z" fill="#7a2f53"/><path d="m25.6 18.2c.6-.4 1.1-1.2 2-1.4-.1.1-.2.2-.3.3.3-.4 3.7-1.9 1.7-1.9 0 0 2-1.4 2.3-1.8.6-.4.8-.9 1.1-1.8.6-1.8.3-2.8-2.8-3.5-.9-.1-3.7-1.1-3.2 1-.6-.5-.8-2.6-3.7-1.6-.8.2-1.7 2.8-1.4 3.7 1.1 4 3.1-2.1 4.8-1.9-.8 1.7-3.5 2.6-1.5 3.9.1.1.3.1.4.2 1 .3 4.1.9 2.8 1.7-.3-.3-1.6-1.1-2.8-1.7-.1 0-.2-.1-.3-.1l-.1-.1c-.7-.3-1.3-.5-1.6-.4-2.3.5.3 1.9-1.1 2.6 0-.4 0-.7 0-1.1-1.1.4-2.5.7-4 .9 0 .1.1.1.1.2.1 0 .1.1.2.1.5.3 1.5 1.4 1.7 2 .3.2.6.3.8.3h.3c.4-.2.8-.3 1.3-.3.4-.4-.2-1.2-.2-1.9.4.3 1.2 1.3 1.7 2.1.1 0 .2-.1.3-.1-.1.5.2.7.7.7h.1c.7-.1.7-.1.7-.1z" fill="none"/><path d="m39.7 8.2c1.5-.2 3.2-1.6 4.3-2.3-2.3-.5-3.7-1.2-5.7-1.2.3.9-.6 1.9-1.4 2.6 2.3.9.6 1.4 2.8.9z" fill="none"/><path d="m39.7 23.6c-.3.2-.8.5-.3.7.1-.4.9-.5.3-.7z" fill="none"/><path d="m34.7 30.6c1.6-1.1.3-2.5-1.7-3.3-3.1.4-6.2.5-4.5 2.8.8 1.4 2 2.3 4.8 1.2.6-.2 1-.5 1.4-.7z" fill="none"/><path d="m34.4 27.3c-.3-.2-.3-.4-.3-.5.3.4 3.1 2.1 3.1 2.3 0 .1-.1.2-.3.3 1.1-.8 1.5-.6 1.8-1.2-.1-1-.1-2.5-.1-2.8.1-.1.1-.2.2-.3 0-.3-.1-.6-.2-.6l-3.9-.5c-.3 0-.7 0-1-.1.2.1.4.3.4.4-2.5-.2-1 .8-1.7 1.6 0 .1.1.3.1.4.6.3.4.8 1.9 1zm0-3c0-.2.3 0 .3 0z" fill="none"/><path d="m44.3 33.9c-2.8.7-4 2.5-2.5 4.2 2.1-.9 3.4.5 5.2.7v-5.3c-.7 0-1.6.1-2.7.4z" fill="none"/><path d="m38.5 36.7c-.1-.2-.2-.5-.3-.8-.6-.9-1-2.1-1.9-2.5-.2-.1-.3-.1-.5-.1-2.7 0-2 3.1-1.5 3.9.1-.2.2-.3.3-.4.7-.7 2.9-.6 3.9-.1z" fill="none"/><path d="m25 39.2c-.6-2.1-.3-3.2-3.4-3.2-.6 2.6-1.7.5-4.5 1.8-1.6.7-.9 3.2 1 4.3h.2c.1-.1.2-.2.3-.3 0-.1 0-.2.2-.3 0-.1 1.3-.1 2.3-.1.5-.7 2.9-2.4 3.9-2.2z" fill="none"/><path d="m23 51.4-.2-.1c-.1 0-.1 0-.2 0 0 .1.2.1.4.1z" fill="none"/><path d="m38.9 40.2c-.2.2-.4.4-.6.6.7.1 1.3.1 2 0-.8-.9.3-1.8-.3-2.5-.8-.9-1.1-.4-2.3-.9.8.2 2.3.2 3.1.2 0-.4-.2-.7-.5-.9-.7.4-1.2.3-1.6-.1.1.2.1.4.1.5-.1-.2-.2-.3-.4-.4.1.2.1.3.1.4-1.4-.2-2.8-.2-4.2.2 0 0 0-.1-.1-.1-.2.6.3 1.4-.2 1.9 0 .3.1.5.3.8 1.4.5 3.7 1 4.6.3z" fill="none"/><path d="m38.2 35.9c.2.3.4.5.6.7 0-.1-.1-.2-.2-.2.8-.1 1.4 0 1.8.3.2-.1.3-.2.5-.3.6-.4.3-1.4.3-1.9.8-.5.8-.9 0-1.1-.6-.2-.6-.5-.6-.9-1.1 0-3.7-.2-4.5.7.1 0 .2.1.2.1.9.4 1.5 1.6 1.9 2.6z" fill="none"/><path d="m33.8 37.4c0-.1 0-.1 0-.2-.3-1.1.3-2.1-1.1-2.8-.3-.2-4.8-.5-4-.9.8.7 5.1.7 6.2-.5 2-2.5-4.8-1.1-7.1-.9 0-.7.6-.9.3-1.8 0-.7-.6-1.9-1.4-2.5-1.7-.9-3.1-.7-4 0-.8.5-.8 2.1-.8 2.1-.3-.4-.6-.5-1.1-.5-1.7 2.1-4.5 2.3-2 4.2.8 1.1 4 2.3 4.8 1.6-1.1-1.2 1.4-1.9 1.4-2.6 0-.5-3.7-2.6-2.3-3.2 0 .9 1.1 1.6 2.3 2.1.2.1 1.4.3 2.2.5 0-.1.2 0 .4.1.1 0 .2.1.2.1-.1-.1-.1-.1-.2-.1s-.3-.1-.4-.1c0 .2.4.7.8 1.1.1.1.3.2.4.3 0 0-.2-.1-.4-.3-2.2-1.6-4.6 1.3-3.6 2.6.8 1.1 1.7.4 3.4.4-.5.5-.7.9-.5 1.1.3.1.6.2.8.4 1.6.4 4.8-.2 5.7-.2zm-10.6-2.1h-.1zm5.5-1c.3.5-.3 1.6-.8 2.1 0-.6.5-1.6.8-2.1z" fill="none"/><path d="m46.2 48c.2.1.5.2.7.4v-.7c-.2.1-.4.2-.7.3z" fill="none"/><path d="m46 2.6c-1.4-.5-5.7-1.2-5.7.7-1.4-.2-2 .9-1.7 1.4.9-1 4.6.6 6.4-.6l.1-.1c.4-.4.7-.8.9-1.4z" fill="none"/><path d="m45.9 17.1c-.1 0-.1.1-.2.1.2.4.6.6 1.1.7v-1c-.3.2-.6.2-.9.2z" fill="none"/><path d="m44.8 11.7c4-.5.3-4.4-.3-5.4-2 .5-5.1 2.1-5.1 3.3.3 2.1 4 1.6 6.2 2.6-2.5.4 1.1 1.8.8 1.4.1.1.2.1.4.2v-2.2h-.1c-.2.1-1.6.4-1.9.1z" fill="none"/><path d="m44.7 19.7c-.7 1.6.5 3 2.2 4.1v-2.4c-.9-.5-1.7-1.1-2.2-1.7z" fill="none"/><path d="m45.3 18.1c0 .2.1.4-.4.4 0-.1-.1-.1-.4-.1-.1.1-.2.2-.2.3-.1.3.1.6.4 1.1.1-.1 0-.2.1-.4.7.1 1.4.4 2.1.8v-2c-.3 0-.4 0-.4 0-.3 0-.8-.1-1.2-.1z" fill="none"/><path d="m43.5 13.9c-.1 0-.1 0 0 0 0 .1-.1.1-.2.2-.6.6-.4 1.4-1.2 1.8.6-.5-.6-1.2 0-1.6.2-.1.9-.2 1.2-.2 0-.1.1-.1.2-.2.3-.4.8-1.4 1.4-1.9-2 0-3.4-1.1-5.4-.5.3-.3.3-.4.2-.5-.6-.1-.1-.2 0 0h.1c0-.2-.8-1.8-1.7-2.1-2-1.1-.8-1.2-3.1-.2-1.7.9-3.4 3.9-1.1 4.6.6-.2.3-.4-.3-.4 1.1-.4 3.1.1 3.9.6.2.1.5.1.7.2.6-.4-.1-1.1 1.1-1.6-.2.7-.3 1.4-.1 2 .4.2.7.4.6.7.2.2.5.3.8.4-1.6 0-1.4.8-.7 1.6.1.1.2.1.4.2.3.2.8.7 1 1h.1c.2.1.4.1.6.2.8 0 1.8.1 2.5.2.2-.2.5-.2.8-.2 0-.1.1-.2.4-.1 0-.2-.3-.4-.6-.4.2-.2.4-.3.6-.4l-.1-.1h.3c.3-.2.7-.4 1-.6v-2.2c-.9-.4-1.9-.8-2.6-.7-.4 0-.6.1-.8.2z" fill="none"/><path d="m45.2 3.9c-.8.6-1.3 1.2-1.7 1.8 1.2 0 1.9.7 2.2 1.5 0 0 0-.1.1-.1 1 .4.5.9 1.2 1.3v-5.4c-.7.2-1.3.6-1.8.9z" fill="none"/><path d="m19.1 14.7c2-.4 2.8-.9 2.8-1.9-1.1-.7-6.2-3.7-7.4-3.7-.1 1-.4 2.2-.4 3.2.2.6.5 1.3.6 1.9.7.6 2 .8 4.4.5z" fill="none"/><path d="m46.2 25.5c-1.1.2-2.5 1.4-3.4 1.4 0-1.8 1.7-.7 2.8-1.8s-.8-2.8-1.7-4h.4c0-.1-.1-.2-.1-.4-2.5.2-3.4 2.3-3.4 3.3.3 0 3.1.4 2.3 1.2-1.9-1.5-3.5-1.7-4.4-.3.1.8.1 2.2.1 2.4-.1.3-.1.6-.2.7 0 .5.1.9.2 1 .1 0 .2.1.4.1h.1c1.1.1 3.3-.1 4-.1 0-.2 0-.5-.3-.7-.3.2-.6.4-.8.4 1.1-.5.3-1.4 1.4-1.8.3 1.1-.3 1.1.6 1.8-2 1.2-2.8.7-3.1 2.5 0 1.1 0 1.1.6 1.8.3.4.8.5.6 1.1 1.7.2 1.4-.5 3.1-.7.5-.1 1-.1 1.5-.1v-2.8c-1-.5-2.2-.9-3.2-1.4 1.4-.2 2.2.5 3.2.9v-4.6c-.2.1-.5.1-.7.1z" fill="none"/><path d="m19.7 1.7c-2.7-.9-4.4.1-5.1 1.5 0 .3-.1.7-.3.9-.1.7-.1 1.4.3 1.9.5 0 1 .1 1.7.1 1.6-.3 3.7-.3 4.7.1.4 0 .8-.1 1-.1-1.2-1.4.2-3.5-2.3-4.4z" fill="none"/><path d="m44.4 18.4s.1 0 0 0c.1 0 .1 0 0 0z" fill="none"/><path d="m31.8 18.2c0-1-2-.9-2.3-2.1-.8.3-1.7.7-2.3 1-.7 1 .7 1.2 2.1 1.5.6-.3 1.5.1 2.3-.2 0-.1.1-.2.2-.2z" fill="none"/><path d="m42 18.2c-.2 0-.4 0-.5 0 0 .1-.1.1-.3 0h.3s0-.1-.1-.2c-.4-.2-1-.7-1.4-1.2-1.5-.6-1.2 0-3.3.2-1.4.2-.3 1.2-1.1 1.2 0-1.6-.8-.5-2-.9 1.7-.2 3.7-.7 4.8-1.2.9-.5 1.4-.9 1.4-1.3-.3-.2-.5-.5-.6-.7-.3-.1-.6-.3-1.1-.4-.1.1-.2.1-.3.1 0-.1-.2-.2-.4-.3-.1 0-.1 0-.2 0-2.3-.4-5.1-.4-6.5 1.1-1.1 1.1-.3 3.5 2.8 3 0 .1-1.3.4-1.7.7v.2s-.1 0-.1.1l.1.1c0-.2 2.8.4 2.8.4.3-.2.6-.5 1.7-.9 0 1.2 1.4 1.2 3.4 1.2 2.3.2.6 0 1.7-.5 0 .4 0 .7-.3 1.1 2.3.4 1.7 1.1 2.8 0 .3-.2.1-1.2.4-1.4-.4-.2-1.3-.2-2.3-.4z" fill="none"/><path d="m36.9 29.4c-.5.5-1.7 1.2-2.2 1.2.9 2.1 5.4 2.4 6.5.5.7-1.3-.4-1.7-1.8-1.8h-.1c-.8-.1-1.7 0-2.4.1z" fill="none"/><path d="m46.9 52.4v-.7c-.2 0-.4.1-.7.1.3.2.5.4.7.6z" fill="none"/><path d="m31.5 21.1c.8 0-.3-.4.3-.4 0-.2-.3 0-.6 0 .3.1.3.4.3.4z" fill="none"/><path d="m34.4 39.8c-.4-.2-.7-.3-.8-.5.3-.1.4-.2.6-.3-.1-.5-.1-1-.2-1.6-1.6.2-3.2.5-4.3 1.2.6 0 .6.2.6.5-.5-.4-1.2-1-1.9-1.4-.4-.1-.7-.2-.8-.4-.6-.2-1.3-.2-2 .1.6.9 1.4 1.8.8 2.8.6-2.6-3.1.2-4 .5 1.3.8 2.6 1.3 4.1 1.2 0-.1 0-.2-.1-.4h.7c-.3-.4-.9-1-.7-1.2.7.9.9 1.2 1.4 1.3 1.5-.7 2-.6 2.7-.3 1-.3 2-.9 2.4-1.5-1.1 0-1.7 0-2.3-.5.8.4 2.3.4 3.1.5.6 1.2-2.2 1.1-1.4 2.6.6.4 1.2.9 1.5 1.4.3.1.6.1 1 0 .8-.8 1.6-1.5 2.5-2.1.1-.2.1-.4.2-.5-2.1-.2-2.8-.8-3.1-1.4z" fill="none"/><path d="m33.2 60h.8.3.6c-.5-.2-1.1-.2-1.7 0z" fill="#7a2f53"/><path d="m31 59.1c.3-.4.6-.5 0-.7 0 .2-.6.5 0 .7z" fill="#7a2f53"/><path d="m28.1 59.1c-.3.4 0 .7-.3.9h1.4c-.8-.2-1.1-.4-1.1-.9z" fill="#7a2f53"/><path d="m30.1 60c.3-.2.6-.5.6-.7-.3-.4-.3.3-.6.7z" fill="#7a2f53"/><path d="m26.2 59.8v.2h1.7c-.9-.4-1.5.2-1.7-.2z" fill="#7a2f53"/><path d="m14 56.8c0 .2-.3.4-.3.2 0-.4.6-.7 1.1-.4 0-.2-.3-.4 0-.4 2 0 3.1 1.2 4 2.1.3-1.9-2.5-1.8-2.8-2.6.6.2.6.5 1.1.5-.3-.5-1.1-.5-1.4-1.2-.6 0-.6.2-.8.4.6.7-1.1.7-1.4 1.2 0 0 0 0-.3 0v.4s0 0 .3-.2v.4.4c.5-.1.8-.8.5-.8z" fill="#7a2f53"/><path d="m43 42.5c.3-.5 1.1-.5 1.7-.9-.8 0-2.3.6-1.7.9z" fill="#7a2f53"/><path d="m38.6 41.4s0 .1 0 0" fill="none"/><path d="m20.5 46.2c-1.1.2-1.4.5-2 .9-.6-.2-.6.4-1.1.2-.6-1.4-2.8-2.6-2-3.9-.3.2-.8.2-.8-.2.3.2.8.2.8-.2-.8-.2-1.7-.2-2.3-.2v.2c1.1.2 2 .5 1.4 1.2 0-.2 0-.2-.3-.2-.3.5-.8.9-1.1 1.1v.5c.6-.4 1.1-.7 1.4-.9.6.4.8 1.1 1.4 1.2-.3.7.8 1.6 1.4 2.1.8-.5 1.7-1.2 3.1-1.4.3.7.8 1.1 1.4 1.6-.2-.8-1.3-1.2-1.3-2z" fill="#7a2f53"/><path d="m14.6 58.9c-.3-.5-.6-.7-.6-.7 0 .2.3.6.6.7z" fill="#7a2f53"/><path d="m14.6 57.9c-.6 0-.8 0-.6.4.6-.1.3-.2.6-.4z" fill="#7a2f53"/><path d="m13.1 40.9c.8 0 1.1-.2 1.1-.5-.3 0-.6.2-1.1.2z" fill="#7a2f53"/><path d="m15.7 43.3s0 .1 0 0" fill="none"/><path d="m14 36.7c-.3 0-.6.2-.6.2v.4c.3-.2.6-.2.8-.2-.5 0 .4-.4-.2-.4z" fill="#7a2f53"/><path d="m22.5 60s0 0-.3 0" fill="none"/><path d="m23.1 58.7c.2.1.3.2.5.3-.2-.1-.4-.2-.5-.3z" fill="#7a2f53"/><path d="m44 59.6c0-.5 1.4-.2 2-.5 0-.4 0-.5-.3-.7-1.1.4-2 1.1-3.4 1.2-.8 0-2.5-.9-2.8.2h3.1c.3-.2 1.1-.3 1.4-.2z" fill="#7a2f53"/><path d="m25.9 59.6c-.8-.2-1.7-.4-2.3-.7.3.2.5.4.9.5-.5-.1-.8-.1-1 0 .5.2.8.5 1.3.1v.4h.2s0-.2.3-.2v.3h.3s.6-.2.3-.4z" fill="#7a2f53"/><path d="m22.5 58.8c.2-.1.4-.1.6 0-.1-.1-.3-.1-.4-.2 0 0-.1.1-.2.2z" fill="#7a2f53"/><path d="m22.7 58.5c0-.2-.3-.4-.5-.6.1.2.3.4.5.6z" fill="#7a2f53"/><path d="m22.2 60c.5 0 .8-.3 1.2-.5h-.1c-.3.1-.8.3-1.1.5z" fill="#7a2f53"/><path d="m23.2 35.3h-.1" fill="none"/><g fill="#7a2f53"><path d="m28.1 23.1c0 .2-1-.1-1.4-.2 0 0 0 .1.1.1.5.2 2.1.2 1.3.1z"/><path d="m34.4 24.3h.3c-.1 0-.3-.2-.3 0z"/><path d="m28.7 34.3c-.3.5-.8 1.6-.8 2.1.5-.6 1.1-1.6.8-2.1z"/><path d="m43.7 29.2c1 .4 2.2.9 3.2 1.4v-.5c-1-.4-1.8-1.1-3.2-.9z"/><path d="m38.8 25.1c-.1.1-.1.2-.2.3 0 .4 0 1.8.1 2.8.1-.2.1-.4.2-.7 0-.2 0-1.6-.1-2.4z"/><path d="m21.1 17.8c.7 0 1.1-.2 1.3-.3-.5 0-.9.1-1.3.3z"/><path d="m39.4 29.3c-.1 0-.1 0 0 0z"/><path d="m34.6 30.6c.1 0 .1 0 0 0z"/><path d="m18.3 42h.5c-.1-.1-.2-.1-.2-.2-.1 0-.2.1-.3.2z"/><path d="m38.8 25.1c.9-1.4 2.5-1.2 4.4.3.8-.9-2-1.2-2.3-1.2 0-1.1.8-3.2 3.4-3.3 0 .2.1.3.1.4-.1 0-.2-.1-.4 0 .8 1.2 2.8 3 1.7 4-1.1 1.1-2.8 0-2.8 1.8.8 0 2.3-1.2 3.4-1.4h.7v-1.7c-1.7-1.1-2.9-2.4-2.2-4.1-.4-.4-.6-.8-.4-1.1 0-.1.1-.2.2-.3 0 0 0 0-.1 0-.4.2-.2 1.2-.4 1.4-1.1 1.1-.6.4-2.8 0 .3-.4.3-.7.3-1.1-1.1.5.6.7-1.7.5-2 0-3.4 0-3.4-1.2-1.1.4-1.4.7-1.7.9 0 0-2.8-.5-2.8-.4-.1 0-.1-.1-.1-.1-.8.4-1.7-.1-2.3.2-1.4-.3-2.8-.5-2.1-1.5.6-.3 1.4-.7 2.3-1 .3 1.2 2.3 1.1 2.3 2.1.4-.3 1.7-.6 1.7-.7-3.1.5-4-1.9-2.8-3 1.4-1.4 4.2-1.4 6.5-1.1h.2c-.8-.4-2.8-1-3.9-.6.6 0 .8.2.3.4-2.3-.7-.6-3.7 1.1-4.6 2.3-1.1 1.1-.9 3.1.2.8.4 1.7 1.9 1.7 2.1h-.1c.1.1.1.3-.2.5 2-.5 3.4.5 5.4.5-.5.5-1.1 1.5-1.4 1.9.2-.1.4-.2.8-.3.7-.1 1.7.3 2.6.7v-.5c-.1-.1-.2-.1-.4-.2.3.4-3.4-1.1-.8-1.4-2.3-1.1-5.9-.5-6.2-2.6 0-1.2 3.1-2.8 5.1-3.3.6 1.1 4.2 4.9.3 5.4.3.4 1.7 0 2 0h.1v-3.2c-.7-.4-.3-.9-1.2-1.3-.1 0-.1 0-.1.1-.2-.7-1-1.5-2.2-1.5.4-.6.9-1.1 1.6-1.7-1.8 1.3-5.5-.4-6.4.6-.3-.5.3-1.6 1.7-1.4 0-1.9 4.2-1.2 5.7-.7-.1.6-.4 1.1-.8 1.4.5-.4 1.1-.7 1.7-1v-1.4c-.5-.2-.8-.5-.9-.8v.9c-.8 0-2-.2-2.8-.4 0 0-3.1-.7-1.7-.9-1.7.2-.6 1.8-2.3 2.6-1.4.7-8.8-1.4-7.6-2.6-1.4 0-2.5 0-4 0 .5.8 1.9-.3 3.1.6-.8-.3-1.1.4-1.2 1 .2-.3.6-.6 1.2-.8 1.1.7 2.8.9 3.7 1.8-.3-.2-.6-.2-.8-.2 2.5 1.8 4.8.5 4 2.6-.3.5-2 1.6-1.4 1.9-.6 0-.6.2-.3-.2-.6 0-1.1.9-1.7.9-1.4 0-2.3-.4-3.1-.5-1.1-.4-3.4-1.2-2.3-2.3-2.5 0-.6.5-.3.9-1.7-.2-.3.4-1.4.5.3-.9-.8.2-.8.2-.3 0-.6-.2-.8-.4.3.2.3.2.6 0-3.7-.9-2.8.4-3.7-1.6-.6-1.1-.8-2.6-.8-3.7 0 .2-.3.4-.6.5-.8-.4.3-.9.6-1.2-.8.2-1.1.5-2.3.7-.5-.1-.2-.1.1-.1-2.5-.2-4.8-.4-5.7 1.2.4 0 .6.5.6 1 .7-1.4 2.4-2.4 5.1-1.5 2.5.9 1.1 3 2.3 4.4-.2.1-.5.1-1 .1.2.1.3.1.4.2 1.1.7-.3 3.7-.3 4.6-2-.2-2.8-1.2-4-2.1-2-1.4-2.5-.5-2-2.5-2 .2-1.4 3.2-1.4 4.2 0 .4.2 1 .4 1.6 0-1 .3-2.2.4-3.2 1.1 0 6.2 3 7.4 3.7 0 1.1-.8 1.6-2.8 1.9-2.4.4-3.7.1-4.3-.6.2.9.1 1.7-1 1.8v.4c1.7 0 1.4-1.4 2.8-1.2 0 .2-.3.2-.3.4 1 0 1.1-.4 1.8 0 0-.1-.1-.1-.1-.2 1.4-.2 2.8-.5 4-.9v1.1c1.4-.7-1.1-2.1 1.1-2.6.3-.1.9.1 1.6.4-2-1.4.7-2.2 1.5-3.9-1.7-.2-3.7 6-4.8 1.9-.3-.9.6-3.5 1.4-3.7 2.8-1.1 3.1 1.1 3.7 1.6-.6-2.1 2.2-1.1 3.1-.9 3.1.7 3.4 1.8 2.8 3.5-.3.9-.6 1.4-1.1 1.8-.3.3-2.3 1.7-2.3 1.7 2 0-1.4 1.6-1.7 1.9.1-.1.1-.2.3-.3-.8.2-1.4 1.1-2 1.4 0 0 0 0-.6 0-.1 0-.1 0-.1 0 .9.1 2.3-.2 2.7.5-.3-.2-1.4 1.4-.3 1.2 0-2 1-.9 2.3-1.2 1.8.3 1.4.2 1.9 1.2.3 0 2-.5 3.1-.7.8 0 4.5.7 4.2.7 3.4.5 4 .7 2 2.6-1.4 1.4-1.7 1.4-4.8 1.4-.6 0-1 0-1.4 0l3.9.5c.2.1.2.3.3.7zm-1.9-17.8c.8-.7 1.7-1.8 1.4-2.6 2 0 3.4.7 5.7 1.2-1.1.7-2.8 2.1-4.2 2.3-2.3.5-.6 0-2.9-.9zm2.8 16.3c.6.2-.3.4-.3.7-.5-.2.1-.5.3-.7z"/><path d="m32.1 26.2c.2 0 .3.1.4.1 0-.1-.1-.3-.1-.4-.1.1-.2.2-.3.3z"/><path d="m33.5 23.8c.1 0 .1.1.2.1.4 0 .7 0 1 .1z"/><path d="m34.1 24.3c0-.1-.2-.3-.4-.4-.3 0-.6-.1-1-.1 0 0-.3-.7-.8-.9-.2-.1.3 1.8.6 3 .6-.8-1-1.8 1.6-1.6z"/><path d="m29.6 2.4c.1-.1.1-.3.2-.4-.1.1-.2.2-.3.3 0 0 0 0 .1.1z"/><path d="m14.7 14.1c-.1-.6-.4-1.2-.6-1.9 0 .8.2 1.4.6 1.9z"/><path d="m22.4 17.4c.4 0 .8.1.9.4.2 0 .4-.1.6-.2-.5-.8-1.4-1.7-1.7-2.1 0 .7.6 1.5.2 1.9z"/><path d="m24.2 17.5c-.1.1-.2.1-.3.1.3.4.5.8.5.9.8 0-.1-.3.4-.3-.4-.1-.7-.3-.6-.7z"/><path d="m19 18.4c-.1 0-.1.1 0 0-.1.1-.1 0 0 0z"/><path d="m46.9 16.9v-.4c-.3.2-.6.4-1 .6.3 0 .6 0 1-.2z"/><path d="m45.2 3.9c-.1.1-.1.1 0 0z"/><path d="m44.7 19.7c.5.5 1.3 1.1 2.2 1.6v-1.2c-.7-.4-1.4-.7-2.1-.8 0 .2 0 .3-.1.4z"/><path d="m14.6 3.2c-.1.3-.2.6-.3.9.2-.2.3-.6.3-.9z"/><path d="m44.8 18.5c.5 0 .4-.3.4-.4-.3 0-.6.1-.8.2-.7-.1-1.8-.1-2.5-.2 1 .3 1.9.2 2.4.2h.1c.3.1.4.1.4.2z"/><path d="m27.9 15c1.2-.8-1.8-1.4-2.8-1.7 1.1.6 2.4 1.4 2.8 1.7z"/><path d="m16.2 6c1.6.1 3.5.2 4.7.2-.9-.4-3-.4-4.7-.2z"/><path d="m14.3 4c-.1.1-.3.2-.6.1.3.5.6 1.4.6 2.3.4-.2 1.1-.3 2-.4-.6 0-1.2-.1-1.7-.1-.4-.5-.4-1.2-.3-1.9z"/><path d="m41.5 18.2c-.2 0-.3 0-.3 0z"/><path d="m45.7 17.1c0 .1.1.1.1.1.1 0 .1-.1.2-.1-.1 0-.2 0-.3 0z"/><path d="m39.7 11c-.2-.2-.7-.2 0 0z"/><path d="m31.8 18.2c-.1.1-.2.2-.1.2 0 0 .1 0 .1-.1z"/><path d="m42 18.2c-.2-.1-.4-.1-.6-.2h-.1c.1.1.1.2.1.2z"/><path d="m43.2 14.1c.1 0 .2-.1.2-.1s0 0 0-.1c0 .1-.1.1-.2.2z"/><path d="m24.5 25.5c0-.1-.1-.2-.1-.5-.2.3-.3.5-.4.7.1 0 .2-.1.5-.2z"/><path d="m41.4 17.9c-.2-.3-.7-.8-1-1-.2-.1-.3-.1-.4-.2.4.6 1 1.1 1.4 1.2z"/><path d="m37 18c.8-.4.6-1.3 1.2-1.8-.3.1-1 .1-1.2.2-.5.4.6 1.1 0 1.6z"/><path d="m33.5 39.3c.2.1.5.3.8.5-.1-.2-.2-.5-.3-.8 0 .1-.2.3-.5.3z"/><path d="m38.6 37.1c0-.1-.1-.2-.1-.4-.9-.5-3.1-.5-3.8 0-.2.1-.3.3-.3.4 0 0 0 .1.1.1 1.3-.3 2.7-.3 4.1-.1z"/><path d="m46.2 48c-.2 0-.4 0-.7 0 .5.3 1 .6 1.4.9v-.6c-.2-.1-.4-.2-.7-.3z"/><path d="m28.2 37.7c-.3-.2-.5-.3-.8-.4.1.2.4.4.8.4z"/><path d="m38.2 35.9c-.4-1-1-2.2-1.9-2.5.8.4 1.3 1.6 1.9 2.5z"/><path d="m33.5 39.9c-.8-.2-2.3-.2-3.1-.5.6.5 1.1.5 2.3.5-.4.7-1.4 1.2-2.4 1.5.3.2.7.4 1.3.7.2.1.4.2.6.3-.9-1.5 1.9-1.3 1.3-2.5z"/><path d="m46.9 39.9v-1c-1.8-.3-3.1-1.6-5.2-.7-1.4-1.8-.3-3.5 2.5-4.2 1.2-.3 2-.4 2.6-.3v-.3c-.5 0-1 0-1.5.1-1.7.2-1.4.9-3.1.7.3-.5-.3-.7-.6-1.1-.6-.7-.6-.7-.6-1.8.3-1.8 1.1-1.2 3.1-2.5-.8-.7-.3-.7-.6-1.8-1.1.4-.3 1.2-1.4 1.8.3 0 .6-.2.8-.4.3.2.3.5.3.7-.7 0-2.9.3-4 .1 1.4.1 2.5.5 1.8 1.8-1.1 1.9-5.6 1.6-6.5-.5-.4.2-.8.5-1.4.7-2.8 1.1-4 .2-4.8-1.2-1.7-2.3 1.4-2.5 4.5-2.8 2.1.9 3.4 2.2 1.7 3.3.5 0 1.7-.7 2.2-1.2.6-.1 1.5-.1 2.4-.1-.2 0-.3-.1-.4-.1-.1-.1-.2-.5-.2-1-.3.6-.7.4-1.8 1.2.1-.1.3-.3.3-.3 0-.2-2.8-1.9-3.1-2.3 0 .2 0 .4.3.5-1.4-.1-1.3-.7-1.9-.9.1.3.2.6.2.6-.3.4-3.4.9-4.2.9-.3 0-4.2-.7-4.5-1.2-.1-.2-.1-.5 0-.8-1 1-.4 3.7-3.2.6 1.4 1.6.8 2.1-1.7 1.8-1.4-.2-4.2-.7-5.4-1.1.6.5 6.2 1.8 7.1 1.6.3.5-1.4 2.1-1.4 1.9-1.7.5-2-.2-4-.7.3.2 2.5.9 2.5 1.8 0 .4-.6.7-1.4.9 1.6 1.9-1.7 1.5-3.4 1.5 1 .2 1.3.4 1.3.6.6-.3 1.7-.6 2.4-.6 1.1.2 3.7 1.9 4.2 2.5-1.4 1.2-4.2.4-6.2 1 .5 1 0 2.2-.6 2.8 1.4-.2 2.3 1.2 2.3 1.8-.6.2-.8.4-1.4.2.6.2.6.4.8.5.2-.5 1.3-.7 2.1-.8-1.9-1.1-2.6-3.6-1-4.3 2.8-1.2 4 .9 4.5-1.8 3.1 0 2.8 1.1 3.4 3.2-1-.2-3.5 1.5-3.9 2.2.7 0 1.4.1 1.4.1 2.3.4 2 .7 2.8 1.6.3.4.8 2.3.6 2.5.3.2.8.2 1.4.2-.8-.4-.8-.5 0-.9-2-.3-.9-1.8-1-2.8-1.5 0-2.8-.4-4.1-1.2.8-.4 4.5-3.2 4-.5.6-1.1-.3-1.9-.8-2.8.7-.3 1.4-.3 2-.1-.2-.2 0-.6.5-1.1-1.7 0-2.5.7-3.4-.4-1.1-1.3 1.4-4.2 3.6-2.6-.4-.4-.8-.9-.8-1.1-.8-.2-2-.4-2.2-.5-1.1-.5-2.3-1.2-2.3-2.1-1.4.5 2.3 2.6 2.3 3.2 0 .7-2.5 1.4-1.4 2.6-.8.7-4-.5-4.8-1.6-2.5-1.9.3-2.1 2-4.2.6 0 .8.2 1.1.5 0 0 0-1.6.8-2.1.8-.7 2.3-.9 4 0 .8.5 1.4 1.8 1.4 2.5.3.9-.3 1.1-.3 1.8 2.3-.2 9.1-1.6 7.1.9-1.1 1.2-5.4 1.2-6.2.5-.8.4 3.7.7 4 .9 1.4.7.8 1.8 1.1 2.8v.2c-.9 0-4.1.6-5.7.3.8.4 1.4 1 1.9 1.4 0-.4 0-.5-.6-.5 1.1-.7 2.7-1 4.3-1.2.5.3.5.8.6 1.3.5-.5 0-1.3.2-1.9-.6-.8-1.3-3.9 1.5-3.9.2 0 .4.1.5.1-.1 0-.2-.1-.2-.1.8-.9 3.4-.7 4.5-.7 0 .4 0 .7.6.9.8.2.8.5 0 1.1 0 .5.3 1.6-.3 1.9-.2.1-.3.2-.5.3.3.2.5.5.5.9-.8 0-2.3 0-3.1-.2 1.1.5 1.4 0 2.3.9.6.7-.6 1.6.3 2.5-.8.2-1.3.2-2 0l.6-.6c-.9.7-3.2.2-4.5-.4.3.6 1.1 1.2 2.8 1.5 0 .2-.1.4-.2.5.4-.3.8-.7 1.2-1 1.1.5 2.2 1 3.5 1.5-.8-.4-1.4-.7-1.7-1.2.5 0 .9 0 1.2.1-.2-.2-.3-.5-.4-.8 0-3 4.9-2.4 6-.5z"/><path d="m25 13.3c-.1-.1-.3-.1-.4-.2l.1.1c.1.1.2.1.3.1z"/><path d="m43.9 55.6c.6.8 1.5 1 3 1.1v-.9c-.7-.2-1.8-.2-3-.2z"/><path d="m43.4 54.7c.1.3.1.5 0 .7 0 .1 0 .1.1.2h.4c-.2-.2-.3-.5-.5-.9z"/><path d="m14 36.5c.4.3.6.6.8.9-.1-.4-.3-.7-.8-.9z"/><path d="m18.2 42.1c0-.1 0-.1.1-.1-.1 0-.2 0-.2 0 0 .1.1.1.1.1z"/><path d="m43 53.7c.1.3.3.6.4 1-.1-.3-.2-.6-.4-1z"/><path d="m27 23.2c0-.1-.1-.1-.2-.2 0 0 0-.1-.1-.1-.3-.6-.7-1.7.2-2.6-1.4.5-.6 1.9-1.4 2.8-.6-.4-4.8-1.1-5.1-.9.6 0 .6.2.8.5-2 0-1.7 1.1-3.7 1.1-4-.2-1.1-2.5-2.3-3.9-.3 1.1-1.7 4.4-.8 5.3.6-.7 2.5-2.1 4.2-.9-.3-.2-.6-.2-.8.2 2.3.2 1.7.9 2.5 1.8.8-1.4-2.3-1.8.6-2.8 1.1-.5 3.1-.2 3.7-.2 0 .5 0 .7-.8.5 0 .2.2.9.4 1.3.9-1.2 2.3-2.4 2.8-1.9z"/><path d="m27.2 32.1c.2 0 .3.1.4.1-.2-.1-.4-.1-.4-.1z"/><path d="m14.7 32.9c.6 0 1.3-.1 1.9-.3-.5-.1-1.3 0-1.9.3z"/><path d="m14.8 37.6c.1 0 .1 0 0 0 0-.1 0-.1-.1-.2.1.1.1.1.1.2z"/><path d="m27.7 32.2c.1 0 .1 0 .2.1 0 0-.1 0-.2-.1z"/><path d="m38.6 36.4.2.2c.4.3.9.5 1.6.1-.4-.3-1-.4-1.8-.3z"/><path d="m42 58.8c1.7.2 2.5-.9 4-.9.4 0 .7.1.9.2v-.7c-1.3.6-4 .9-4.9 1.4z"/><path d="m28.4 33.6c-.1-.1-.3-.2-.4-.3.3.2.4.3.4.3z"/><path d="m38.5 36.7c.2.1.4.2.4.4 0-.1 0-.3-.1-.5-.2-.2-.4-.4-.6-.7.1.3.2.5.3.8z"/><path d="m46.3 42.3c-.8.6-1.7 1.3-2.5 2.1 1-.2 2-1 2.5-2.1z"/><path d="m16.1 17.5c.8.2 2.3.4 2.8.4-1.1-.2-2-.8-2.8-.4z"/></g><path d="m40.1 28v.5h-4.6v-.5h-6.2v.4h-4.8v-.4h-4.7v.3h-5.2v7.1h5.2v.4h4.7v-.4h4.8v.4h6.2v-.7h4.6.6 4.3v-7.1z" fill="#15161b"/><path d="m42.9 16.2h-25.8c-1.8 0-3.3-1.5-3.3-3.3v-6.9c0-1.8 1.5-3.3 3.3-3.3h25.8c1.8 0 3.3 1.5 3.3 3.3v6.8c0 1.9-1.5 3.4-3.3 3.4z" fill="#15161b"/><path d="m19.5 32.4-.2.1v2.3h-.7l-.3-.4c-.2.1-.3.2-.5.3h-.1c-.2 0-.5.1-.8.1h-.1l-1.4-.5s0 0 0-.1c0 0 0 0 0-.1h-.1s0 0 0-.1c0 0 0 0 0-.1l.2.1h-.2v-.1-.1-1.3l.2-.1v-1-1.5c0-.3 0-.5.1-.6 0-.2.1-.3.3-.4.1-.1.3-.2.6-.2s.6 0 1.1 0h1.1c.3 0 .5.1.6.2s.2.2.3.4c0 .2.1.4.1.6v.9h-1.8v-1.1c0-.1 0-.1-.1-.2 0 0-.1-.1-.2-.1s-.2 0-.2.1c0 0-.1.1-.1.2v2 .3h-.3v1.4l-1.4.6h.1l1.4-.6v.4c0 .1 0 .1.1.2 0 0 .1.1.2.1s.2 0 .2-.1c0 0 .1-.1.1-.2v-.6l.2-.1v-.6h-.3v-.6h.1l1.9.4v.1zm-3.6 2.3c-.2-.1-.4-.2-.5-.4l1.4.5c-.4.1-.7 0-.9-.1zm2.1-3 .2-.1h1.3v.6l-1.8-.4h-.1-.1v-.2h.5z" fill="#eff1f8"/><path d="m20.3 34.4v-1.1h-.1v-1.3l1.7.9v.5.1.8zm2.5-.8-.2-.1v-.3l.6.3h.2l-.6-.3v-.5c0-.1 0-.2-.1-.2s-.2-.1-.3-.1c0 0 0 0-.1 0 0 0 0 0-.1 0v.5l-1.7-.9v-.6-.4l.3-.1-.3-.1-.2.1v-.1h.2v-2h2.1.8c.2 0 .4.1.6.1.1.1.2.1.3.2s.1.2.1.4l-.1.1v.1.1l-1.5.4h-.1-.1v-.1l.1-.1c0-.1 0-.2-.1-.3 0-.1-.2-.1-.4-.1h-.1v.9.5l-1-.2.5-.2-.5.1h-.1l-.2.1.4.1 1 .2v.3h.1.1.3c.1 0 .1-.1.1-.1l1.5.3c-.1.1-.3.2-.6.3.3.1.5.2.6.3s.2.3.2.6v.7h-.9l.9.1v.4h-.2-.1l-1.7.2v-.6zm-2.4.8 1.7-.2v.5h-1.7zm4.2-4.4v.8.4s-.1.2-.2.3l-1.5-.3v-.1-.7zm-1.8 4.2 1.7-.2v.8h-1.7z" fill="#eff1f8"/><path d="m29.6 32v1.6.5c0 .1-.1.2-.1.3l-1.4-.1-.2-2.1h-.2l.2 2-2.4-.1c0-.1 0-.2-.1-.3 0-.1 0-.2 0-.3v-1.2h.2v-3.4l1.7.3v3.2h-.2v1.3c0 .1 0 .2.1.2 0 0 .1.1.2.1s.2 0 .2-.1c0 0 .1-.1.1-.2v-1.4-3l1.1.2.6.2v2.3zm-2.3-3-1.7-.3h1.7zm1.9 5.4c-.1.1-.2.2-.4.3s-.4.1-.7.1c-.1 0-.2 0-.3 0s-.2 0-.3 0c-.3 0-.6 0-.9 0-.2 0-.4 0-.6-.1-.2 0-.3-.1-.4-.2s-.1-.2-.2-.3l2.2.1zm-.4-5.1-1.1-.4v-.1h1.8v.6zm-1.2-.3 1.1.4-1.1-.2zm1.3.3.6.1v.1z" fill="#eff1f8"/><path d="m30.5 34.6 1.5-.4v.6h-1.5zm2.6-5.9h1.5v2.7 2.1.4.8h-.4.1-1l-.3-.7.5-.1-.1-.1.9-.2-.8.2-1-1.3-.2-.8-.1-.1v.4l-1-1.2-.7-.7v-1.3h1.5l.8 2.4h.1l.2.6h.1v-.6zm-2 2.1 1 1.3v2.1l-1.5.4v-3.7h-.1v-.6l.4.5zm1.2 1.7 1 1.3-.6.1z" fill="#eff1f8"/><path d="m39.8 32.4-.2.1v2.3h-.7l-.3-.4c-.2.1-.3.2-.5.3h-.1c-.2 0-.5.1-.8.1h-.1l-1.4-.5s0 0 0-.1c0 0 0 0 0-.1h-.1s0 0 0-.1c0 0 0 0 0-.1l.2.1h-.3v-.1-.1-1.3l.2-.1v-1-1.5c0-.3 0-.5.1-.6 0-.2.1-.3.3-.4.1-.1.3-.2.6-.2s.6 0 1.1 0h1.1s.5.1.6.2.2.2.3.4c0 .2.1.4.1.6v.9h-1.9v-1.1c0-.1 0-.1-.1-.2 0 0-.1-.1-.2-.1s-.2 0-.2.1c0 0-.1.1-.1.2v2 .3h-.1v1.4l-1.5.6h.1l1.4-.6v.4c0 .1 0 .1.1.2 0 0 .1.1.2.1s.2 0 .2-.1c0 0 .1-.1.1-.2v-.6l.2-.1v-.6h-.3v-.6h.1zm-3.6 2.3c-.2-.1-.4-.2-.5-.4l1.4.5c-.4.1-.7 0-.9-.1zm2-3 .2-.1h1.3v.6l-1.8-.4h-.1-.1v-.2h.5z" fill="#eff1f8"/><path d="m42.4 31.1 1.1.3v.5h-1.1v2.1h1.1v.5h-.1v.2h-2.1-.7v-.1h-.1v-.4h.1v-3.7zm1-1.7.3.1v.1h-1v.9.5l-1.8-.5v-.8-.7h-.2v-.1h2.8zm0 1.7v.3l-1-.3z" fill="#eff1f8"/><path d="m16.5 11.7.2.1-.1.1v.1l-.1.1-.1.1v.1l-.1.1v.1l-.2-.1.1-.1v-.1l.1-.1.1-.1v-.1l.1-.1z" fill="#eff1f8"/><path d="m19.8 6h.2l-.1.1v.1l-.1.1v.2l-.1.1-.1.1v.1l-.2-.1.1-.1v-.1l.1-.1v-.1l.1-.1z" fill="#eff1f8"/><path d="m15.5 10.6.1.1-.1.1h-.1l-.1.1-.1.1h-.1l-.1.1-.1.1-.2-.2.2-.1h.1l.1-.1h.1l.1-.1h.1z" fill="#eff1f8"/><path d="m21.2 7.3.1.1-.1.1-.1.1h-.1l-.1.1h-.1l-.1.1-.1.1-.1-.2.1-.1h.1l.1-.1.1-.1h.1l.1-.1z" fill="#eff1f8"/><path d="m15.1 9.1.1.2h-.2-.1-.1-.1-.2-.1-.1v-.2h.1l.1.1.2-.1h.1.1z" fill="#eff1f8"/><path d="m21.8 9.1v.2h-.1-.2-.1-.1-.1-.1-.2v-.2h.2.1.1.1.1l.2.1z" fill="#eff1f8"/><path d="m15.6 7.7-.1.2-.1-.1-.1-.1h-.1l-.1-.1h-.1l-.1-.1-.1-.1v-.1h.2v.1l.2.1h.1l.1.1h.1z" fill="#eff1f8"/><path d="m21.3 11-.1.2-.1-.1-.1-.1h-.1l-.1-.1h-.1l-.1-.1-.1-.1.1-.1h.1l.1.1.1.1h.1l.1.1.1.1z" fill="#eff1f8"/><path d="m16.7 6.7-.2.1v-.1l-.1-.2v-.1h-.1l-.1-.2v-.1l-.1-.1.2-.1v.2l.1.1.1.2.1.1v.1z" fill="#eff1f8"/><path d="m20 12.4-.2.1v-.1l-.1-.1v-.1l-.1-.1-.1-.1v-.1l-.1-.1.2-.1v.1l.1.1v.1l.1.1v.1l.1.1z" fill="#eff1f8"/><path d="m18.1 6.3h-.1l-.1-.1.1-.1-.1-.1v-.1l.1-.2v-.1-.1h.1v.1.1.2.1.1z" fill="#eff1f8"/><path d="m17.1 11.8c-1.4-.5-2.1-2.1-1.6-3.5s2.1-2.1 3.5-1.6 2.1 2.1 1.6 3.5-2.1 2.1-3.5 1.6z" fill="#313237"/><path d="m18.9 9.7c-.1 0-.2-.2-.1-.3 0-.1.2-.2.3-.1l1.4.5c.1 0 .2.2.1.3 0 .1-.2.2-.3.1z" fill="#eff1f8"/><path d="m24.6 11.7.2.1-.1.1v.1l-.1.1-.1.1v.1l-.1.1v.1l-.2-.1.1-.1v-.1l.1-.1.1-.1v-.1l.1-.1z" fill="#eff1f8"/><path d="m27.9 6h.2l-.1.1v.1l-.1.1v.2l-.1.1-.1.1v.1l-.2-.1.1-.1v-.1l.1-.1v-.1l.1-.1z" fill="#eff1f8"/><path d="m23.6 10.6.1.1-.1.1h-.1l-.1.1-.1.1h-.1l-.1.1-.1.1-.2-.2.2-.1h.1l.1-.1h.1l.1-.1h.1z" fill="#eff1f8"/><path d="m29.3 7.3.1.1-.1.1-.1.1h-.1l-.1.1h-.1l-.1.1-.1.1-.1-.2.1-.1h.1l.1-.1.1-.1h.1l.1-.1z" fill="#eff1f8"/><path d="m23.2 9.1.1.2h-.2-.1-.1-.1-.1-.2-.1v-.2h.1l.2.1.1-.1h.1.1.1z" fill="#eff1f8"/><path d="m29.9 9.1v.2h-.1-.2-.1-.1-.1-.1-.1l-.1-.2h.2.1.1.1.1l.2.1z" fill="#eff1f8"/><path d="m23.7 7.7-.1.2-.1-.1-.1-.1h-.1l-.1-.1h-.1l-.1-.1-.1-.1.1-.1h.1l.1.1.1.1h.1l.1.1h.1z" fill="#eff1f8"/><path d="m29.4 11-.1.2-.1-.1-.1-.1h-.1l-.1-.1h-.1l-.1-.1-.1-.1.1-.1h.1l.1.1.1.1h.1l.1.1.1.1z" fill="#eff1f8"/><path d="m24.8 6.7-.2.1v-.1l-.1-.2v-.1h-.1l-.1-.2v-.1l-.1-.1.2-.1v.2l.1.1h.1v.2l.1.1v.1z" fill="#eff1f8"/><path d="m28.1 12.4-.2.1v-.1l-.1-.1v-.1l-.1-.1-.1-.1v-.1l-.1-.1.2-.1v.1l.1.1.1.1v.1l.1.1v.1z" fill="#eff1f8"/><path d="m26.2 6.3h-.1l-.1-.1.1-.1-.1-.1.1-.1v-.2-.1-.1h.1v.1.1.2l.1.1-.1.1z" fill="#eff1f8"/><path d="m26.5 11.9c-1.5.2-2.8-.9-3-2.4s.9-2.8 2.4-3 2.8.9 3 2.4c.1 1.5-.9 2.8-2.4 3z" fill="#313237"/><path d="m27.1 9.3c-.1 0-.2-.1-.2-.2s.1-.2.2-.2l1.5-.2c.1 0 .2.1.2.2s-.1.2-.2.2z" fill="#eff1f8"/><path d="m32.7 11.7.2.1-.1.1v.1l-.1.1-.1.1v.1l-.1.1v.1l-.2-.1.1-.1v-.1l.1-.1.1-.1v-.1l.1-.1z" fill="#eff1f8"/><path d="m36 6h.2l-.1.1v.1l-.1.1v.2l-.1.1v.1l-.1.1-.2-.1.1-.1v-.1l.1-.1.1-.1v-.1z" fill="#eff1f8"/><path d="m31.7 10.6.1.1-.1.1h-.1l-.1.1-.1.1h-.1l-.1.1-.1.1-.1-.2.1-.1h.1l.1-.1h.1l.1-.1h.1z" fill="#eff1f8"/><path d="m37.4 7.3v.2l-.1.1h-.1l-.1.1h-.1l-.1.1-.1.1-.1-.2.1-.1h.1l.1-.1.1-.1h.1z" fill="#eff1f8"/><path d="m31.3 9.1.1.2h-.2-.1-.1-.1-.1-.2-.1v-.2h.1l.2.1.1-.1h.1.1.1z" fill="#eff1f8"/><path d="m38 9.1v.2h-.1-.2-.1-.1-.1-.1-.1l-.1-.2h.2.1.1.1.1l.2.1z" fill="#eff1f8"/><path d="m31.8 7.7-.1.2-.1-.1-.1-.1h-.1l-.1-.1h-.1l-.1-.1-.1-.1.1-.1h.1l.1.1.1.1h.1l.1.1h.1z" fill="#eff1f8"/><path d="m37.5 11-.1.2-.1-.1-.1-.1h-.1l-.1-.1h-.1l-.1-.1-.1-.1.1-.1h.1l.1.1.1.1h.1l.1.1z" fill="#eff1f8"/><path d="m32.9 6.7-.2.1v-.1l-.1-.2v-.1h-.1l-.1-.2v-.1l-.1-.1.2-.1v.2l.1.1h.1v.2l.1.1z" fill="#eff1f8"/><path d="m36.2 12.4-.2.1v-.1l-.1-.1v-.1l-.1-.1v-.1l-.1-.1-.1-.1.2-.1v.1l.1.1.1.1v.1l.1.1v.1z" fill="#eff1f8"/><path d="m34.3 6.3-.2-.1.1-.1-.1-.1.1-.1v-.2-.1-.1h.1v.1.1.2l.1.1-.1.1z" fill="#eff1f8"/><path d="m36.3 11c-1 1.1-2.7 1.3-3.8.3s-1.3-2.7-.3-3.8 2.7-1.3 3.8-.3c1.2.9 1.3 2.6.3 3.8z" fill="#313237"/><path d="m35 8.6c-.1.1-.2.1-.3 0s-.1-.2 0-.3l1-1.2c.1-.1.2-.1.3 0s.1.2 0 .3z" fill="#eff1f8"/><path d="m40.8 11.7.2.1-.1.1v.1l-.1.1-.1.1v.1l-.1.1v.1l-.2-.1.1-.1v-.1l.1-.1.1-.1v-.1l.1-.1z" fill="#eff1f8"/><path d="m44.1 6h.2l-.1.1v.1l-.1.1v.2l-.1.1v.1l-.1.1-.2-.1.1-.1v-.1l.1-.1.1-.1v-.1z" fill="#eff1f8"/><path d="m39.8 10.6.1.1-.1.1h-.1l-.1.1-.1.1h-.1l-.1.1-.1.1-.1-.2.1-.1h.1l.1-.1h.1l.1-.1h.1z" fill="#eff1f8"/><path d="m45.5 7.3.2.1-.2.1-.1.1h-.1l-.1.1h-.1l-.1.1-.1.1-.1-.2.1-.1h.1l.1-.1.1-.1h.1z" fill="#eff1f8"/><path d="m39.5 9.1v.2h-.2-.1-.1-.1-.1-.2-.1v-.2h.1l.2.1.1-.1h.1.1.1z" fill="#eff1f8"/><path d="m46.1 9.1v.2h-.1-.1-.2-.1-.1-.1-.1l-.1-.2h.2.1.1.1.2l.1.1z" fill="#eff1f8"/><path d="m39.9 7.7-.1.2-.1-.1-.1-.1h-.1l-.1-.1h-.1l-.1-.1-.1-.1.1-.1h.1l.1.1.1.1h.1l.1.1z" fill="#eff1f8"/><path d="m45.6 11v.2l-.2-.1-.1-.1h-.1l-.1-.1h-.1l-.1-.1-.1-.1.1-.1h.1l.1.1.1.1h.1l.1.1.1.1z" fill="#eff1f8"/><path d="m41 6.7-.2.1v-.1l-.1-.2v-.1h-.1l-.1-.2v-.1l-.1-.1.2-.1v.2l.1.1h.1v.2l.1.1z" fill="#eff1f8"/><path d="m44.3 12.4-.2.1v-.1l-.1-.1v-.1l-.1-.1v-.1l-.1-.1-.1-.1.2-.1v.1l.1.1.1.1v.1l.1.1v.1z" fill="#eff1f8"/><path d="m42.4 6.3-.2-.1.1-.1-.1-.1.1-.1v-.2-.1-.1h.1v.1.1.2l.1.1v.1z" fill="#eff1f8"/><path d="m44.1 11.3c-1.1 1-2.9.8-3.8-.3-1-1.1-.8-2.9.3-3.8 1.1-1 2.9-.8 3.8.3 1 1.1.9 2.8-.3 3.8z" fill="#313237"/><path d="m43.2 8.8c-.1.1-.2.1-.3 0s-.1-.2 0-.3l1.2-1c.1-.1.2-.1.3 0s.1.2 0 .3z" fill="#eff1f8"/><path d="m45.2.8c.5 0 1 .4 1 1v15.9c0 .5-.4 1-1 1h-30.4c-.5 0-1-.4-1-1v-15.9c0-.5.4-1 1-1zm0-.6h-30.4c-.9 0-1.6.7-1.6 1.6v15.9c0 .9.7 1.6 1.6 1.6h30.5c.9 0 1.6-.7 1.6-1.6v-15.9c0-.9-.8-1.6-1.7-1.6z" fill="#57223e"/><path d="m45.2 26.4c.5 0 1 .4 1 1v31.1c0 .5-.4 1-1 1h-30.4c-.5 0-1-.4-1-1v-31.1c0-.5.4-1 1-1zm0-.6h-30.4c-.9 0-1.6.7-1.6 1.6v31.1c0 .9.7 1.6 1.6 1.6h30.5c.9 0 1.6-.7 1.6-1.6v-31.1c0-.9-.8-1.6-1.7-1.6z" fill="#57223e"/><path d="m36.1 59.3h-12.2c-5.4 0-9.9-4.4-9.9-9.9 0-5.4 4.4-9.9 9.9-9.9h12.3c5.4 0 9.9 4.4 9.9 9.9-.1 5.4-4.5 9.9-10 9.9z" fill="#201f26"/><path d="m12 25.3h1.1v5.6h-1.1z" fill="#424143"/><path d="m12 17h1.1v5.6h-1.1z" fill="#424143"/><path d="m46.9 20h1.1v5.6h-1.1z" fill="#424143"/></svg>