<svg enable-background="new 0 0 60 60" height="60" viewBox="0 0 60 60" width="60" xmlns="http://www.w3.org/2000/svg"><path d="m27.6 60-.3-2.6h5.3l-.3 2.6z" fill="#414042"/><path d="m48.5 23.5h1.1v5.3h-1.1z" fill="#414042"/><path d="m10.4 23.5h1.1v5.3h-1.1z" fill="#414042"/><path d="m48.2 56.5c0 .5-.4.9-.9.9h-34.6c-.5 0-.9-.4-.9-.9v-55.3c0-.5.4-.9.9-.9h34.6c.5 0 .9.4.9.9z" fill="#063e89"/><path d="m47.3 57.7h-34.6c-.7 0-1.2-.5-1.2-1.2v-55.3c0-.7.5-1.2 1.2-1.2h34.6c.7 0 1.2.5 1.2 1.2v55.3c0 .6-.6 1.2-1.2 1.2zm-34.6-57.1c-.3 0-.6.3-.6.6v55.3c0 .3.3.6.6.6h34.6c.3 0 .6-.3.6-.6v-55.3c0-.3-.3-.6-.6-.6z" fill="#bc9b31"/><path d="m28.3 8.8v.2h-.5v1.3h-.3v-1.3h-.5v-.2z" fill="#414042"/><path d="m29.9 9.6c0 .1 0 .2-.1.3 0 .1-.1.2-.2.2-.1.1-.1.1-.2.1s-.2.1-.3.1-.2 0-.3-.1c-.1 0-.2-.1-.2-.1-.1-.1-.1-.1-.2-.2 0-.1-.1-.2-.1-.3s0-.2.1-.3c0-.1.1-.2.2-.2l.2-.2c.1 0 .2-.1.3-.1s.2 0 .3.1c.1 0 .2.1.2.2l.2.2s.1.1.1.3zm-1.2 0v.2c0 .1 0 .1.1.2l.1.1h.2.2c.1 0 .1-.1.1-.1s.1-.1.1-.2 0-.1 0-.2 0-.2 0-.2c0-.1 0-.1-.1-.2l-.1-.1c-.1 0-.1 0-.2 0s-.1 0-.2 0-.1.1-.1.1-.1.1-.1.2z" fill="#414042"/><path d="m31.2 10.3c0-.1-.1-.2-.2-.3 0 0-.1-.1-.2-.2s-.1-.2-.2-.3-.1-.2-.2-.2v1.1h-.3v-1.6h.2c.1.1.1.1.2.2s.1.2.2.3.1.2.2.3.1.2.2.3v-1h.3v1.5h-.2z" fill="#414042"/><path d="m31.8 10.3v-1.5h1v.2h-.8v.4h.6v.2h-.6v.4h.7v.2h-.9z" fill="#414042"/><path d="m28.1 3c-.1 0-.2 0-.2 0-.1 0-.1-.1-.2-.1 0 0-.1-.1-.1-.2s0-.1 0-.2 0-.2 0-.2c0-.1.1-.1.1-.2 0 0 .1-.1.2-.1h.2.1.1.1l-.1.2h-.1s-.1 0-.2 0h-.1s-.1 0-.1.1l-.1.1v.2.2s0 .1.1.1l.1.1h.1.2.1.1s0 0-.1 0c0 0 0 0-.1 0z" fill="#414042"/><path d="m29.3 1.9h.2v1.1h-.2v-.5h-.5v.5h-.2v-1.1h.2v.4h.5z" fill="#414042"/><path d="m29.7 3v-1.1h.7v.2h-.5v.3h.4v.2h-.4v.3h.5v.1z" fill="#414042"/><path d="m31.1 3c-.1 0-.2 0-.2 0-.1 0-.1-.1-.2-.1 0 0-.1-.1-.1-.2s0-.1 0-.2 0-.2 0-.2c0-.1.1-.1.1-.2 0 0 .1-.1.2-.1h.2.1.1.1l-.1.2h-.1-.1-.1s-.1 0-.1.1l-.1.1v.2.2s0 .1.1.1l.1.1h.1.2.1s0 0-.1 0c0 0 0 0-.1 0z" fill="#414042"/><path d="m32.2 3-.2-.2-.1-.1-.1-.1v.4h-.2v-1.1h.2v.4l.1-.1.1-.1.1-.1.1-.1h.2l-.1.1-.1.1-.1.1-.1.1.1.1.1.1c0 .1.1.1.1.2s.1.1.1.2z" fill="#414042"/><path d="m30.6 4c0 .4-.3.7-.7.7s-.7-.3-.7-.7.3-.7.7-.7.7.3.7.7z" fill="#c95f4b"/><path d="m33.2 17.2c-.2.2-.5.3-.7.5s-.3.5-.6.7c-.2.1-.6.1-.8.2-.3.1-.5.3-.8.3s-.6-.1-.8-.2c-.3 0-.6.1-.9 0s-.4-.4-.7-.5c-.2-.2-.6-.2-.8-.4-.1-.2-.1-.5-.2-.8-.1-.2-.4-.4-.5-.7s0-.6 0-.9-.2-.6-.2-.8c0-.3.3-.5.4-.8s.1-.6.2-.8c.2-.2.5-.3.7-.5s.3-.5.6-.7c.2-.1.6-.1.8-.2.3-.1.5-.3.8-.3s.6.1.8.2c.3 0 .6-.1.9 0s.4.4.7.5c.2.2.6.2.8.4s.2.5.4.8c.1.2.4.4.5.7s0 .6 0 .9.2.6.2.8c0 .3-.3.5-.4.8-.3.2-.3.6-.4.8z" fill="#414042"/><path d="m31.1 12.9.5-.8.3.2-.5.8z" fill="#f1f2f2"/><path d="m29.9 17.7c-.5 0-.9-.1-1.3-.4-1.2-.8-1.5-2.3-.7-3.5.5-.8 1.3-1.2 2.2-1.2.5 0 .9.1 1.3.4 1.2.8 1.5 2.3.7 3.5-.5.7-1.3 1.2-2.2 1.2z" fill="#fbefc3"/><path d="m30 12.7c.4 0 .9.1 1.3.4 1.1.7 1.4 2.2.7 3.3-.5.7-1.2 1.1-2.1 1.1-.4 0-.9-.1-1.3-.4-1.1-.7-1.4-2.2-.7-3.3.5-.7 1.3-1.1 2.1-1.1m0-.3c-.9 0-1.8.5-2.3 1.3-.8 1.3-.5 3 .8 3.8.4.3.9.4 1.4.4.9 0 1.8-.5 2.3-1.3.8-1.3.5-3-.8-3.8-.4-.3-.9-.4-1.4-.4z" fill="#dbd1c1"/><path d="m48.2 56.5c0 .5-.4.9-.9.9h-34.6c-.5 0-.9-.4-.9-.9v-32.6c0-.5.4-.9.9-.9h34.6c.5 0 .9.4.9.9z" fill="#063e89"/><path d="m47.3 57.7h-34.6c-.7 0-1.2-.5-1.2-1.2v-32.6c0-.7.5-1.2 1.2-1.2h34.6c.7 0 1.2.5 1.2 1.2v32.6c0 .6-.6 1.2-1.2 1.2zm-34.6-34.4c-.3 0-.6.3-.6.6v32.6c0 .3.3.6.6.6h34.6c.3 0 .6-.3.6-.6v-32.6c0-.3-.3-.6-.6-.6z" fill="#bc9b31"/><g fill="#414042"><path d="m46.6 55.3c0 .2-.2.4-.4.4h-32.4c-.2 0-.4-.2-.4-.4v-16.9c0-.2.2-.4.4-.4h32.4c.2 0 .4.2.4.4z"/><path d="m16.2 31.2c.8 0 1.5.6 1.5 1.3s-.7 1.3-1.5 1.3-1.5-.6-1.5-1.3.7-1.3 1.5-1.3m0-.5c-1.1 0-2 .8-2 1.8s.9 1.8 2 1.8 2-.8 2-1.8-.9-1.8-2-1.8z"/><path d="m26.7 34.3h-.5v-1.3c0-.8.7-1.5 1.6-1.5h1.3v.5h-1.3c-.6 0-1.1.4-1.1 1z"/><path d="m35 34.3h-.5v-1.3c0-.8.7-1.5 1.6-1.5h1.3v.5h-1.3c-.6 0-1.1.4-1.1 1z"/><path d="m31.7 31.2c.8 0 1.5.6 1.5 1.3s-.7 1.3-1.5 1.3h-.7v.5h.7c1.1 0 2-.8 2-1.8s-.9-1.8-2-1.8h-.2c-.9 0-1.6.7-1.6 1.5v2.1h.5v-2.1c0-.5.5-1 1.1-1z"/><path d="m25.8 33.2c0-.1 0-.2 0-.3 0-.8-.7-1.4-1.6-1.4s-1.6.6-1.6 1.4.7 1.4 1.6 1.4c.5 0 1-.2 1.3-.6h-.8c-.2.1-.3.1-.5.1-.5 0-.9-.2-1-.6zm-2.7-.5c.1-.4.6-.7 1.1-.7s1 .3 1.1.7z"/><path d="m21.9 31.6-1.3 1.7-1.3-1.7h-.6l1.9 2.6 1.9-2.6z"/><path d="m45.7 33.2c0-.1 0-.2 0-.3 0-.8-.7-1.4-1.6-1.4s-1.6.6-1.6 1.4.7 1.4 1.6 1.4c.5 0 1-.2 1.3-.6h-.8c-.2.1-.3.1-.5.1-.5 0-.9-.2-1-.6zm-2.6-.5c.1-.4.6-.7 1.1-.7s1 .3 1.1.7z"/><path d="m41.8 31.6-1.3 1.7-1.3-1.7h-.6l1.9 2.6 1.9-2.6z"/><path d="m37.8 31.6h.5v2.7h-.5z"/><path d="m37.8 30.8h.5v.5h-.5z"/><path d="m18.1 26.1c0 .1 0 .2-.1.3 0 .1-.1.2-.1.2-.1.1-.1.1-.2.1s-.2 0-.3 0-.2 0-.3 0-.2-.1-.2-.1c-.1-.1-.1-.1-.1-.2s-.1-.2-.1-.3 0-.2.1-.3c0-.1.1-.2.2-.2.1-.1.1-.1.2-.1h.3.3c.1 0 .2.1.2.1.1.1.1.1.1.2zm-1.1 0v.2c0 .1 0 .1.1.2l.1.1h.2.2c.1 0 .1-.1.1-.1s.1-.1.1-.2 0-.1 0-.2 0-.1 0-.2 0-.1-.1-.2l-.1-.1c-.1 0-.1 0-.2 0s-.1 0-.2 0-.1.1-.1.1-.1.1-.1.2z"/><path d="m19 26.9c-.1 0-.2 0-.3 0s-.1-.1-.2-.1c0-.1-.1-.1-.1-.2s0-.1 0-.2v-.9h.3v.9.2s0 .1.1.1l.1.1h.1.1s.1 0 .1-.1c0 0 0-.1.1-.1 0 0 0-.1 0-.2v-.9h.3v.9.2c0 .1-.1.1-.1.2s-.1.1-.2.1-.2 0-.3 0z"/><path d="m20.9 25.4v.2h-.4v1.2h-.3v-1.2h-.4v-.2z"/><path d="m21.5 25.4c.2 0 .4 0 .5.1s.2.2.2.4v.2c0 .1-.1.1-.1.1-.1 0-.1.1-.2.1s-.2 0-.3 0h-.1v.5h-.3v-1.4h.3c-.2 0-.1 0 0 0zm0 .2c-.1 0-.1 0-.2 0v.5h.1c.1 0 .2 0 .3-.1.1 0 .1-.1.1-.2v-.1s0-.1-.1-.1h-.2c.1.1 0 0 0 0z"/><path d="m22.9 26.9c-.1 0-.2 0-.3 0s-.1-.1-.2-.1c0-.1-.1-.1-.1-.2s0-.1 0-.2v-.9h.3v.9.2s0 .1.1.1l.1.1h.1.1s.1 0 .1-.1c0 0 0-.1.1-.1 0 0 0-.1 0-.2v-.9h.3v.9.2c0 .1-.1.1-.1.2s-.1.1-.2.1-.2 0-.3 0z"/><path d="m24.8 25.4v.2h-.4v1.2h-.3v-1.2h-.4v-.2z"/><path d="m15.8 25.9h-1.5l.6-.6c.1-.1.1-.3 0-.4s-.3-.1-.4 0l-1 1c-.2.2-.2.4 0 .6l1 1c.1.1.1.1.2.1s.1 0 .2-.1.1-.3 0-.4l-.6-.6h1.5c.1 0 .3-.1.3-.3-.1-.2-.2-.3-.3-.3z"/><path d="m37.2 25.4h.3v1.4h-.3z"/><path d="m38.8 26.9c0-.1-.1-.2-.2-.3s-.1-.2-.2-.3-.1-.2-.2-.3-.1-.2-.2-.2v1h-.3v-1.4h.2l.2.2c.1.1.1.2.2.2.1.1.1.2.2.3s.1.2.2.2v-.9h.3v1.4z"/><path d="m39.8 25.4c.2 0 .4 0 .5.1s.2.2.2.4v.2c0 .1-.1.1-.1.1-.1 0-.1.1-.2.1s-.2 0-.3 0h-.1v.5h-.3v-1.4h.3c-.2 0-.1 0 0 0zm0 .2c-.1 0-.1 0-.2 0v.5h.1c.1 0 .2 0 .3-.1.1 0 .1-.1.1-.2v-.1s0-.1-.1-.1z"/><path d="m41.2 26.9c-.1 0-.2 0-.3 0s-.1-.1-.2-.1c0-.1-.1-.1-.1-.2s0-.1 0-.2v-.9h.3v.9.2s0 .1.1.1l.1.1h.1.1s.1 0 .1-.1c0 0 0-.1.1-.1 0 0 0-.1 0-.2v-.9h.3v.9.2c0 .1-.1.1-.1.2s-.1.1-.2.1-.2 0-.3 0z"/><path d="m43.1 25.4v.2h-.4v1.2h-.3v-1.2h-.4v-.2z"/><path d="m46.2 25.9h-1.5l.6-.6c.1-.1.1-.3 0-.4s-.3-.1-.4 0l-1 1c-.2.2-.2.4 0 .6l1 1c.1.1.1.1.2.1s.1 0 .2-.1.1-.3 0-.4l-.6-.6h1.5c.1 0 .3-.1.3-.3s-.1-.3-.3-.3z"/><path d="m17.5 18.3v.2h-1v-1.5h.3v1.3z"/><path d="m17.7 18.6v-1.6h1v.2h-.7v.4h.6v.2h-.6v.4h.7v.2h-1z"/><path d="m19.4 18.6c-.1-.2-.2-.5-.3-.7-.1-.3-.2-.5-.3-.8h.3c0 .1.1.2.1.3s.1.2.1.3.1.2.1.3.1.2.1.3c0-.1.1-.2.1-.3s.1-.2.1-.3.1-.2.1-.3.1-.2.1-.3h.3c-.1.3-.2.5-.3.8s-.2.5-.3.7z"/><path d="m20.5 18.6v-1.6h1v.2h-.7v.4h.6v.2h-.6v.4h.7v.2h-1z"/><path d="m22.7 18.3v.2h-1v-1.5h.3v1.3z"/><path d="m22.8 12.4c-.4.3-.9.3-1.4.5-.4.2-.8.7-1.3.8s-.9-.3-1.4-.4-1 .1-1.5-.1c-.4-.2-.6-.8-.9-1.1-.3-.4-.9-.5-1.1-1-.2-.4 0-1-.1-1.5s-.4-1-.3-1.4c.2-.5.6-.8.9-1.2.2-.4.2-1 .6-1.3s.9-.3 1.4-.5c.4-.2.8-.7 1.3-.8s.9.3 1.4.4 1-.1 1.5.1c.4.2.6.8.9 1.1.3.4.9.5 1.1 1 .2.4 0 1 .1 1.5s.4 1 .3 1.4c-.1.5-.6.8-.8 1.2-.3.4-.3 1-.7 1.3z"/></g><path d="m21.4 6.9 1.1-1 .3.3-1.1 1z" fill="#f1f2f2"/><path d="m17.5 10.9c-1-1.1-1-2.8.1-3.9s2.8-1.1 3.9 0c1 1.1 1 2.8-.1 3.9s-2.8 1.1-3.9 0z" fill="#fbefc3"/><path d="m21.4 7.2c1 1 .9 2.6-.1 3.6s-2.7 1-3.6 0c-1-1-.9-2.6.1-3.6s2.6-1 3.6 0m.2-.2c-1.1-1.1-2.9-1.1-4.1 0s-1.2 3-.1 4.1 2.9 1.1 4.1 0c1.2-1.2 1.2-3 .1-4.1z" fill="#dbd1c1"/><path d="m17.8 14.4c0 .2-.2.4-.4.4s-.4-.2-.4-.4.2-.4.4-.4c.3 0 .4.2.4.4z" fill="#414042"/><circle cx="19.5" cy="3.7" fill="#414042" r=".4"/><path d="m40.8 3.7c0 .2-.2.4-.4.4-.2-.1-.4-.2-.4-.4s.2-.4.4-.4.4.2.4.4z" fill="#414042"/><path d="m22 14.4c0 .2-.2.4-.4.4s-.4-.2-.4-.4.2-.4.4-.4.4.2.4.4z" fill="#414042"/><path d="m38.7 17.8c0 .1 0 .2-.1.3 0 .1-.1.2-.2.2-.1.1-.2.1-.3.1s-.2 0-.3 0-.1 0-.2 0-.2 0-.2 0v-1.5h.2.2.3c.1 0 .2.1.3.1l.2.2c.1.3.1.5.1.6zm-1 .5h.2c.2 0 .3 0 .4-.1s.1-.2.1-.4 0-.3-.1-.4-.2-.1-.4-.1c-.1 0-.1 0-.2 0z" fill="#414042"/><path d="m39.4 17c.2 0 .4 0 .5.1s.2.2.2.4-.1.3-.3.4l.1.1s.1.1.1.2.1.1.1.2.1.1.1.2h-.3c0-.1-.1-.1-.1-.2s-.1-.1-.1-.2-.1-.1-.1-.1l-.1-.1s0 0-.1 0h-.1v.6h-.3v-1.5h.2c.1-.1.1-.1.2-.1zm0 .3c-.1 0-.1 0-.2 0v.5h.1.2.1s.1 0 .1-.1v-.1-.1s0-.1-.1-.1l-.2-.1c.1 0 .1 0 0 0z" fill="#414042"/><path d="m40.4 17h.3v1.5h-.3z" fill="#414042"/><path d="m41.4 18.6c-.1-.2-.2-.5-.3-.7-.1-.3-.2-.5-.3-.8h.3c0 .1.1.2.1.3s.1.2.1.3.1.2.1.3.1.2.1.3c0-.1.1-.2.1-.3s.1-.2.1-.3.1-.2.1-.3.1-.2.1-.3h.3c-.1.3-.2.5-.3.8s-.2.5-.3.7z" fill="#414042"/><path d="m42.5 18.6v-1.6h1v.2h-.7v.4h.6v.2h-.6v.4h.7v.2h-1z" fill="#414042"/><path d="m42.6 4.9c.4.2.6.8.9 1.1s.9.5 1.1 1c.2.4 0 1 .1 1.5s.4 1 .3 1.4c-.1.5-.6.8-.8 1.2s-.2 1-.6 1.3c-.3.3-.9.3-1.4.5-.4.2-.8.7-1.3.7-.5.1-.9-.3-1.4-.4s-1 .1-1.5-.1c-.4-.2-.6-.8-.9-1.1s-.9-.5-1.1-1c-.2-.4 0-1-.1-1.5s-.4-1-.3-1.4c.1-.5.6-.8.8-1.2s.2-1 .6-1.3c.3-.3.9-.3 1.4-.5.4-.2.8-.7 1.3-.7.5-.1.9.3 1.4.4.5 0 1.1-.2 1.5.1z" fill="#414042"/><path d="m36.5 7.1.2-.4 1.3.7-.2.4z" fill="#f1f2f2"/><path d="m42.9 10.3c-.7 1.3-2.4 1.8-3.7 1.1-1.4-.7-1.9-2.4-1.2-3.7s2.4-1.8 3.7-1.1c1.3.8 1.9 2.4 1.2 3.7z" fill="#fbefc3"/><path d="m38.1 7.8c.7-1.2 2.2-1.7 3.5-1s1.8 2.2 1.1 3.5c-.7 1.2-2.2 1.7-3.5 1s-1.8-2.3-1.1-3.5m-.3-.2c-.7 1.4-.2 3.1 1.2 3.9s3.2.3 3.9-1.1.2-3.1-1.2-3.9-3.1-.3-3.9 1.1z" fill="#dbd1c1"/><path d="m38.7 14.4c0 .2-.2.4-.4.4s-.4-.2-.4-.4.2-.4.4-.4.4.2.4.4z" fill="#414042"/><path d="m42.8 14.4c0 .2-.2.4-.4.4s-.4-.2-.4-.4.2-.4.4-.4c.3 0 .4.2.4.4z" fill="#414042"/></svg>