<svg enable-background="new 0 0 60 60" height="60" viewBox="0 0 60 60" width="60" xmlns="http://www.w3.org/2000/svg"><path d="m36.3 0h5.5v1.1h-5.5z" fill="#424143"/><path d="m18.1 0h5.5v1.1h-5.5z" fill="#424143"/><path d="m45.4 58.9c0 .5-.4.9-.9.9h-29c-.5 0-.9-.4-.9-.9v-56.9c0-.5.4-.9.9-.9h29c.5 0 .9.4.9.9z" fill="#ff5a00"/><path d="m44.5 60h-29c-.6 0-1.1-.5-1.1-1.1v-56.9c0-.6.5-1.1 1.1-1.1h29c.6 0 1.1.5 1.1 1.1v56.9c0 .6-.5 1.1-1.1 1.1zm-29-58.7c-.4 0-.7.3-.7.7v56.9c0 .4.3.7.7.7h29c.4 0 .7-.3.7-.7v-56.9c0-.4-.3-.7-.7-.7z" fill="#ff5a00"/><g fill="#f7fcfe"><path d="m33.8 22.7c4.2-2.6 5.6-8 3-12.3-2-3.4-6.4-4.4-9.8-2.4-2.7 1.6-3.6 5.2-1.9 7.9 1.2 2 3.8 2.8 5.8 1.8z"/><path d="m22.4 46.7c.9-.3 1.5 0 1.5.8 0 .6-.3 1.7-1.3 2.3.5 0 .9.3.9 1s-.5 2.5-2.8 3.3l-2.8 1 1.4-7.3zm-1.8 5.9c.5-.2.8-.7.8-1.2 0-.2-.1-.4-.5-.2l-.6.2-.3 1.5zm.6-2.9c.4-.1.7-.6.7-1.1 0-.2-.1-.3-.5-.2l-.7.2-.3 1.3z"/><path d="m28.3 46.7c.2.2.4.5.4 1.2 0 .9-.4 2.1-1 3-.5.6-1.1 1.1-2 1.4-.4.1-1 .3-1.4 0s-.5-.7-.5-1.1c0-.8.3-2 .9-2.9.5-.7 1.2-1.3 2.1-1.7.6-.1 1.2-.2 1.5.1zm-1.2 1.1c-.1-.1-.3 0-.4 0-.4.1-.7.4-1 1.1-.2.5-.4 1.3-.4 1.9 0 .1 0 .4.2.5h.4c.2-.1.6-.3.9-1.1.2-.5.4-1.2.4-1.9.1-.2.1-.4-.1-.5z"/><path d="m32.6 46c.2.2.3.5.3 1 0 .8-.3 1.8-.8 2.5-.4.5-.9 1-1.6 1.2-.4.1-.8.2-1.2 0-.3-.2-.3-.6-.3-.9 0-.7.2-1.7.8-2.4.4-.6 1-1.1 1.8-1.4.3-.2.7-.3 1 0zm-.9.9c-.1-.1-.3 0-.3 0-.3.1-.6.4-.8.9-.2.4-.3 1.1-.3 1.6 0 .1 0 .4.1.4h.3c.2-.1.5-.2.8-.9.2-.4.3-1 .3-1.6 0-.1 0-.4-.1-.4z"/><path d="m35.9 46c-.3-.1-.6 0-.8 0-.1 0-.2.1-.3.2-.2.1-.2.3-.2.3 0 .1 0 .1.1.1.1.1.2.1.2 0h.4c.2 0 .5 0 .6.2.1.1.1.3.1.5 0 .3-.2.8-.6 1.3-.3.4-.8.7-1.3.9-.3.1-.6.2-.8.2s-.3 0-.5-.1l.5-.9c.1 0 .3.1.4.1.2 0 .4 0 .6-.1s.3-.1.4-.2c.2-.2.2-.3.2-.4s0-.1-.1-.1c0 0-.1 0-.2 0h-.4c-.3 0-.5-.1-.6-.2s-.1-.3-.1-.4c0-.3.1-.8.6-1.3.2-.2.6-.6 1.2-.8.3-.1.6-.2.8-.2s.3 0 .5.1z"/><path d="m38.8 45.3-.7.2-.5 2.6-.8.3.5-2.6-.7.2.1-.7 2.3-.8z"/><path d="m40.6 45-.8.3-.1.5.7-.2-.1.6-.7.2-.1.6.9-.3-.1.6-1.6.6.6-2.9 1.6-.6z"/><path d="m41.8 44.3c.2-.1.5-.2.7-.1.1.1.1.2.1.3 0 .2-.1.4-.2.6-.1.1-.2.3-.5.5.1.1.2.2.2.2s0 .1.1.3c0 .1.1.2.1.4l-.7.2-.1-.6c0-.2-.1-.2-.1-.2h-.1l-.2 1-.6.2.5-2.6zm-.2 1c.1 0 .2-.1.3-.2 0-.1.1-.1.1-.2s0-.2-.2-.1l-.2.1-.1.5z"/><path d="m18.4 43.2c.6 0 .9.1.7.7-.1.4-.2.7-.7.7h-.3l-.2 1h-.6l.4-2.4zm-.1 1c.2 0 .2-.1.3-.3.1-.3 0-.3-.2-.3h-.1l-.1.6z"/><path d="m20.3 43.2-.4 2.4h-.6l.4-2.4z"/><path d="m21.5 43.1c.4 0 .7.2.6.7v.2h-.6l.1-.3c0-.1 0-.2-.1-.2-.2 0-.2.1-.2.2l-.3 1.3c0 .1 0 .2.1.2.2 0 .2-.2.2-.2l.1-.4h.6l-.1.4c-.1.4-.4.7-.9.7-.4 0-.7-.3-.6-.7l.2-1.1c.1-.5.4-.8.9-.8z"/><path d="m23.1 43.2-.2 1 .6-1h.6l-.6 1 .2 1.4h-.6l-.1-.8-.2.2-.1.7h-.5l.4-2.4h.5z"/><path d="m25 43.2-.3 1.8c0 .1 0 .2.1.2.2 0 .2-.1.2-.2l.3-1.8h.6l-.3 1.8c-.1.4-.4.7-.9.7-.4 0-.7-.3-.6-.7l.3-1.8z"/><path d="m26.9 43.2c.6 0 .9.1.7.7-.1.4-.2.7-.7.7h-.3l-.2 1h-.6l.4-2.4zm0 1c.2 0 .2-.1.3-.3.1-.3 0-.3-.2-.3h-.1l-.1.6z"/><path d="m27.8 26.8h.6l-.2.8c-.1 0-.2.1-.3.1s-.2 0-.3 0c-.2 0-.3-.1-.4-.2s-.2-.3-.2-.5 0-.4.1-.5c.1-.2.2-.3.3-.4s.3-.1.5-.1.3 0 .4.1l-.1.3c-.1 0-.1-.1-.2-.1s-.1 0-.2 0-.2 0-.3.1-.2.1-.2.3c0 .1-.1.2-.1.4 0 .1 0 .2.1.3s.1.1.2.1h.2l.1-.3h-.3z"/><path d="m29.4 27.3h-.5l-.2.4h-.3l.8-1.6h.4l.2 1.6h-.3zm0-.2v-.4c0-.1 0-.2 0-.3 0 .1-.1.2-.1.3l-.2.4z"/><path d="m30 27.7.3-1.6h.3l-.3 1.6z"/><path d="m32 27.7h-.4l-.4-1.2c0 .2 0 .3-.1.4l-.1.8h-.3l.3-1.6h.4l.4 1.2c0-.1 0-.1 0-.2s.1-.4.2-.9h.3z"/><path d="m28.8 29.7c-.1 0-.2 0-.2-.1-.1-.1-.1-.2-.1-.3s0-.3.1-.4.1-.2.2-.3.2-.1.3-.1h.2l.1.1c0-.1 0-.1 0-.2l.1-.4h.3l-.4 1.7h-.2v-.2c-.1.1-.1.1-.2.1-.1.1-.2.1-.2.1zm.1-.3s.1 0 .1-.1c0 0 .1-.1.1-.2s0-.2 0-.3 0-.1 0-.1l-.1-.1s-.1 0-.1.1-.1.1-.1.2v.3c-.1.2 0 .2.1.2z"/><path d="m30.5 28.1c.2 0 .3 0 .4.1s.1.1.1.3c0 .1 0 .2-.1.3s-.1.1-.3.1c.1 0 .1.1.2.1 0 .1.1.1.1.2 0 .2-.1.3-.2.4s-.3.1-.5.1h-.6l.3-1.6zm-.4 1.3h.2c.1 0 .1 0 .2-.1 0 0 .1-.1.1-.2s-.1-.2-.2-.2h-.2zm.1-.7h.2c.1 0 .2 0 .2-.1l.1-.1c0-.1-.1-.1-.2-.1h-.2z"/><path d="m18.3 3.6c0 .2 0 .4-.1.5-.1.2-.2.3-.3.4s-.3.1-.4.1c-.2 0-.3-.1-.4-.2s-.2-.3-.2-.4c0-.2 0-.4.1-.5.1-.2.2-.3.3-.4s.2-.1.4-.1.3 0 .4.1.2.3.2.5zm-.6-.4c-.1 0-.2 0-.2.1-.1.1-.1.2-.2.3 0 .1-.1.2-.1.4 0 .1 0 .2.1.2 0 .1.1.1.2.1s.2 0 .2-.1c.1-.1.1-.2.2-.3 0-.1.1-.2.1-.4 0-.1 0-.2-.1-.2s-.1-.1-.2-.1z"/><path d="m19.9 3-.2 1c0 .2-.1.3-.2.4s-.3.1-.4.1c-.2 0-.3 0-.4-.1s-.1-.2-.1-.3 0-.1 0-.1l.2-1h.2l-.2 1v.1c0 .1.1.2.2.2s.2 0 .2-.1c.1-.1.1-.1.1-.2l.2-1z"/><path d="m20.5 4.6h-.3l.3-1.3h-.5l.1-.3h1.1l-.1.3h-.4z"/><path d="m22.3 3.5c0 .2-.1.3-.2.4s-.3.1-.5.1h-.1l-.1.6h-.3l.3-1.6h.4c.2 0 .3 0 .4.1 0 .1.1.2.1.4zm-.7.2c.2 0 .2 0 .3-.1.1 0 .1-.1.1-.2s-.1-.2-.2-.2h-.1z"/><path d="m23.8 3-.2 1c0 .2-.1.3-.2.4s-.3.1-.4.1c-.2 0-.3 0-.4-.1s-.1-.2-.1-.3 0-.1 0-.1l.2-1h.3l-.2 1v.1c0 .1.1.2.2.2s.2 0 .2-.1c.1-.1.1-.1.1-.2l.2-1z"/><path d="m24.4 4.6h-.3l.3-1.3h-.4v-.3h1.1l-.1.3h-.4z"/><path d="m35.9 4.6.4-1.6h.3l-.3 1.6z"/><path d="m37.9 4.6h-.4l-.4-1.2c0 .2 0 .3-.1.4l-.2.7h-.3l.5-1.5h.4l.4 1.2c0-.1 0-.1 0-.2s.1-.4.2-.9h.3z"/><path d="m39.5 3.5c0 .2-.1.3-.2.4s-.2.1-.5.1h-.1l-.1.6h-.3l.3-1.6h.4c.2 0 .3 0 .4.1s.1.2.1.4zm-.7.2c.2 0 .2 0 .3-.1.1 0 .1-.1.1-.2s-.1-.2-.2-.2h-.1z"/><path d="m41.1 3-.2 1c0 .2-.1.3-.2.4s-.3.1-.4.1c-.2 0-.3 0-.4-.1s-.1-.2-.1-.3 0-.1 0-.1l.2-1h.3l-.3 1v.1c0 .1.1.2.2.2s.2 0 .2-.1c.1-.1.1-.1.1-.2l.2-1z"/><path d="m41.7 4.6h-.3l.3-1.3h-.4v-.3h1.1l-.1.3h-.4z"/><path d="m29.4 6.3h-.4l.2-.9c0-.1.1-.2.1-.3 0 0 0 0-.1.1 0 0-.1.1-.3.2l-.1-.2.6-.4h.3z"/><path d="m29.9 5.8c0-.1 0-.3.1-.4 0-.1.1-.3.2-.4s.2-.2.3-.2c.1-.1.2-.1.4-.1h.2l-.1.3c-.1 0-.1 0-.2 0s-.3 0-.3.1c-.1.1-.2.2-.2.4.1-.1.2-.2.3-.2s.2 0 .3.1c0 0 .1.1.1.2s0 .2-.1.3-.1.2-.2.2c-.1.1-.2.1-.3.1-.2 0-.3 0-.3-.1-.1 0-.2-.2-.2-.3zm.5.2c.1 0 .1 0 .2-.1 0-.1.1-.2.1-.3s0-.1 0-.1h-.1-.1l-.1.1v.2z"/><path d="m24.9 24.4c0-.1 0-.3.1-.4 0-.1.1-.3.2-.4s.2-.2.3-.2c.1-.1.2-.1.4-.1h.2l-.1.3c-.1 0-.1 0-.2 0s-.3 0-.3.1c-.1.1-.2.2-.2.4.1-.1.2-.2.3-.2s.2 0 .3.1.1.2.1.3 0 .2-.1.3-.1.2-.2.2c-.1.1-.2.1-.3.1-.2 0-.3 0-.3-.1-.2-.1-.2-.2-.2-.4zm.5.3c.1 0 .1 0 .2-.1 0-.1.1-.2.1-.3s0-.1 0-.1h-.1-.1l-.1.1v.2z"/><path d="m34 24.9h-1v-.2l.5-.5c.1-.1.2-.2.3-.3 0-.1.1-.1.1-.2s0-.1 0-.1h-.1-.1s-.1.1-.2.1l-.2-.2c.1-.1.2-.1.3-.2.1 0 .2-.1.3-.1s.2 0 .3.1.1.2.1.3v.2c0 .1-.1.1-.1.2-.1.1-.2.2-.3.3l-.3.2h.4z"/><path d="m34.9 23.9c.1 0 .2 0 .3.1s.1.2.1.3 0 .2-.1.3-.1.2-.2.2-.2.1-.4.1c-.1 0-.2 0-.2 0-.1 0-.1 0-.2-.1v-.3c.1.1.2.1.4.1.1 0 .2 0 .3-.1s.1-.1.1-.2 0-.1-.1-.2c0 0-.1-.1-.2-.1s-.1 0-.2 0l-.1-.1.2-.8h.8l-.1.3h-.5l-.1.3c.1.2.1.2.2.2z"/><path d="m43.7 16.9h-.3l.2-.9c0-.1.1-.2.1-.3 0 0 0 0-.1.1 0 0-.1.1-.3.2l-.1-.2.6-.4h.2z"/><path d="m44.1 17.8c0 .3-.1.6-.2.8s-.3.3-.5.3c-.1 0-.2 0-.3-.1s-.1-.2-.1-.4 0-.4.1-.6.1-.3.2-.4.2-.1.4-.1c.3 0 .4.2.4.5zm-.5-.2c-.1 0-.1 0-.2.1 0 .1-.1.2-.1.3s-.1.3-.1.4v.2l.1.1c.1 0 .1 0 .2-.1 0-.1.1-.2.1-.3s0-.3 0-.4c.2-.2.2-.2 0-.3.1 0 .1 0 0 0z"/><path d="m43.9 20.8h-1v-.2l.5-.5c.1-.1.2-.2.3-.3 0-.1.1-.1.1-.2s0-.1 0-.1h-.1-.1s-.1.1-.2.1l-.2-.2c.1-.1.2-.1.3-.2.1 0 .2-.1.3-.1s.2 0 .3.1.1.2.1.3v.2c0 .1-.1.1-.1.2-.1.1-.2.2-.3.3l-.3.2h.6z"/><path d="m39.9 25.5c0 .2-.1.3-.2.4s-.3.1-.5.1h-.1l-.1.6h-.3l.3-1.6h.4c.2 0 .3 0 .4.1 0 .1.1.3.1.4zm-.7.3c.2 0 .2 0 .3-.1.1 0 .1-.1.1-.2s-.1-.2-.2-.2h-.1z"/><path d="m41 25.1-.9 1.6h-.3l.9-1.6z"/><path d="m42.3 25.1-.2 1c0 .2-.1.3-.2.4s-.3.1-.4.1c-.2 0-.3 0-.4-.1s-.1-.2-.1-.3 0-.1 0-.1l.2-1h.3l-.2 1v.1c0 .1.1.2.2.2s.2 0 .2-.1c.1-.1.1-.1.1-.2l.2-1z"/><path d="m39.2 28-.2.6h-.3l.3-1.6h.4c.2 0 .3 0 .4.1s.1.2.1.3 0 .2-.1.3-.1.1-.3.2l.3.7h-.4l-.1-.6zm0-.3c.2 0 .3 0 .3-.1.1 0 .1-.1.1-.2s0-.1-.1-.1c0 0-.1 0-.2 0h-.1z"/><path d="m40.6 28.6c-.1 0-.3 0-.3-.1-.1-.1-.1-.2-.1-.3s0-.3.1-.4.1-.2.2-.3.2-.1.3-.1.2 0 .3.1.1.1.1.2-.1.2-.2.3-.3.1-.5.1h-.1c0 .1 0 .1.1.2 0 0 .1.1.2.1h.2c.1 0 .1 0 .2-.1v.2c-.2.1-.4.1-.5.1zm.1-1c-.1 0-.1 0-.2.1s-.1.1-.1.2c.1 0 .2 0 .3-.1.1 0 .1-.1.1-.1.1-.1 0-.1-.1-.1z"/><path d="m42.1 28.2c0 .1 0 .2-.1.3s-.2.1-.4.1c-.1 0-.1 0-.2 0s-.1 0-.2-.1v-.3c.1.1.2.1.3.1h.1l.1-.1v-.1l-.1-.1c-.1 0-.1-.1-.2-.1 0 0-.1-.1-.1-.2s0-.2.1-.3.2-.1.3-.1.3 0 .4.1l-.1.2c-.1-.1-.2-.1-.3-.1h-.1v.1.1s.1 0 .1.1c.1 0 .2.1.2.1.2.1.2.2.2.3z"/></g><path d="m33.8 17.6c-1.6 2.2-4.8 2.7-7 1.1s-2.7-4.8-1.1-7 4.8-2.7 7-1.1c2.3 1.7 2.8 4.8 1.1 7z" fill="#010101"/><path d="m24 19c-.6-.5-.6-1.2-.1-1.7l9.6-8.8c.5-.5 1.3.1 1 .8l-5.5 11.7c-.3.7-1.1.9-1.7.5z" fill="#424143"/><path d="m28.1 21.9c-.3 0-.5-.1-.8-.3l-3.4-2.5c-.3-.2-.5-.6-.5-1s.2-.7.5-1l9.6-8.8c.4-.4 1-.3 1.3.2.2.2.2.5.1.8l-5.5 11.8c-.4.5-.8.8-1.3.8zm5.8-13.4c-.1 0-.3 0-.4.1l-9.5 8.8c-.2.2-.4.5-.4.8s.2.5.4.7l3.4 2.5c.2.1.4.2.6.2.4 0 .7-.2.8-.6l5.5-11.8c.1-.2.1-.4 0-.5 0-.1-.2-.2-.4-.2z" fill="#231f20"/><path d="m32.5 10.7 1.6-2.2.3.2-1.6 2.2z" fill="#f7fcfe"/><path d="m20.3 19.1c0 .4-.3.8-.8.8-.4 0-.8-.3-.8-.8 0-.4.3-.8.8-.8.4 0 .8.4.8.8z" fill="#76be69"/><path d="m39.7 16.1h2.2v4.2h-2.2z" fill="#010101"/><path d="m42 20.4h-2.5v-4.5h2.5zm-2.2-.3h1.9v-3.9h-1.9z" fill="#231f20"/><path d="m39.7 17.2h2.2v1.9h-2.2z" fill="#424143"/><path d="m42 19.3h-2.5v-2.3h2.5zm-2.2-.4h1.9v-1.6h-1.9z" fill="#231f20"/><path d="m41.9 13.8c0 .6-.5 1.1-1.1 1.1s-1.1-.5-1.1-1.1.5-1.1 1.1-1.1 1.1.5 1.1 1.1z" fill="#424143"/><path d="m40.8 15c-.7 0-1.3-.6-1.3-1.3s.6-1.3 1.3-1.3 1.3.6 1.3 1.3-.7 1.3-1.3 1.3zm0-2.2c-.5 0-.9.4-.9.9s.4.9.9.9.9-.4.9-.9-.4-.9-.9-.9z" fill="#231f20"/><path d="m41.9 22.7c0 .6-.5 1.1-1.1 1.1s-1.1-.5-1.1-1.1.5-1.1 1.1-1.1 1.1.5 1.1 1.1z" fill="#424143"/><path d="m40.8 24c-.7 0-1.3-.6-1.3-1.3s.6-1.3 1.3-1.3 1.3.6 1.3 1.3c-.1.7-.7 1.3-1.3 1.3zm0-2.2c-.5 0-.9.4-.9.9s.4.9.9.9.9-.4.9-.9-.4-.9-.9-.9z" fill="#231f20"/><path d="m28.1 42.3-2.1-3.6 2.1-3.5h4.1l2 3.5-2 3.6z" fill="#e4dec4"/><path d="m32.3 42.4h-4.3l-2.1-3.7 2.1-3.7h4.3l2.1 3.7zm-4.1-.3h3.9l2-3.4-2-3.4h-3.9l-2 3.4z" fill="#bdb7a0"/><path d="m32.8 38.7c0 1.5-1.2 2.7-2.7 2.7s-2.7-1.2-2.7-2.7 1.2-2.7 2.7-2.7 2.7 1.2 2.7 2.7z" fill="#e4dec4"/><path d="m30.1 41.6c-1.6 0-2.9-1.3-2.9-2.9s1.3-2.9 2.9-2.9 2.9 1.3 2.9 2.9-1.3 2.9-2.9 2.9zm0-5.4c-1.4 0-2.5 1.1-2.5 2.5s1.1 2.5 2.5 2.5 2.5-1.1 2.5-2.5c.1-1.4-1.1-2.5-2.5-2.5z" fill="#bdb7a0"/></svg>