<svg enable-background="new 0 0 60 60" height="60" viewBox="0 0 60 60" width="60" xmlns="http://www.w3.org/2000/svg" xmlns:xlink="http://www.w3.org/1999/xlink"><linearGradient id="a" gradientTransform="matrix(.7071 -.7071 -.7071 -.7071 -481.4447 627.5647)" gradientUnits="userSpaceOnUse" x1="769.3277" x2="769.6957" y1="62.2347" y2="62.2347"><stop offset=".005618" stop-color="#eac17d"/><stop offset=".3022" stop-color="#deb77c"/><stop offset=".6374" stop-color="#bf822b"/><stop offset=".9366" stop-color="#e1b16e"/><stop offset="1" stop-color="#eabe7f"/></linearGradient><path d="m5.8 55.4c-.2-.2-.3-.3-.5-.5l-.2-.2c-.2-.2-.3-.3-.5-.5-3.5-3.5-4.4-7-4.6-9.3-.2-3 .6-5.8 2.4-7.8 2.7-3.5 6.4-3.6 9.4-3.7 1.9-.1 3.5-.1 4.4-1.1.8-.8 1.1-1.8 1.5-2.8s.7-2.1 1.6-3c1.7-1.8 3.4-2.4 4.4-1.5 0 0 .1 0 .1.1.6.6.3 1.4.1 2.1-.1.3-.2.5-.2.7-.1.7-.1 1.4.6 2.1.1.1.2.2.3.2 1 .7 2.5.3 2.9.2l2.1 2.1c-.1.4-.6 2 .2 2.9.1.1.1.2.2.2.6.6 1.3.6 2.2.5.2 0 .5-.1.7-.2.7-.2 1.6-.5 2.1.1 0 0 0 .1.1.1.9 1.1.4 2.6-1.3 4.3-1.1 1-2.2 1.4-3.3 1.8-1 .3-1.9.7-2.7 1.4-.9.9-1 2.6-1.1 4.4-.1 3-.2 6.6-3.7 9.4-2 1.7-4.8 2.6-7.8 2.4-2.4 0-5.9-1-9.4-4.4z" fill="#333"/><path d="m5.2 54.7c-.1-.1-.3-.2-.4-.4-3.5-3.5-4.4-7-4.6-9.3-.2-3 .6-5.8 2.4-7.8 2.7-3.5 6.4-3.6 9.4-3.7 1.9-.1 3.5-.1 4.4-1.1.8-.8 1.1-1.8 1.5-2.8s.7-2.1 1.6-3c1.7-1.8 3.4-2.4 4.4-1.5 0 0 .1 0 .1.1.6.6.3 1.4.1 2.1-.1.3-.2.5-.2.7-.1.7-.1 1.4.6 2.1.1.1.2.2.3.2 1 .7 2.5.3 2.9.2l.9.9z" fill="#1a1a1a"/><path d="m6.1 55.2c-.1-.1-.3-.3-.4-.5l-.2-.2c-.2-.2-.3-.3-.5-.5-3.4-3.4-4.3-6.8-4.5-9.1-.2-2.9.6-5.6 2.3-7.6 2.7-3.4 6.3-3.5 9.2-3.6 2-.1 3.7-.1 4.6-1.1.8-.9 1.2-1.9 1.5-2.9s.7-2.1 1.5-2.9c1.6-1.7 3.1-2.2 4-1.5 0 0 0 0 .1.1.4.4.2 1.2 0 1.8-.1.3-.2.5-.2.8-.1.7-.1 1.6.6 2.3l.3.3c1 .7 2.4.4 3 .3l1.9 1.9c-.2.6-.5 2 .3 3 .1.1.1.2.2.3.7.7 1.6.7 2.4.6.2 0 .5-.1.8-.2.7-.2 1.4-.4 1.8 0 0 0 0 0 .1.1 1.1 1.2-.4 2.9-1.3 3.9-1 1-2.1 1.4-3.2 1.8-1 .4-2 .7-2.8 1.5-1 1-1.1 2.7-1.1 4.6-.1 2.9-.2 6.5-3.6 9.2-1.9 1.7-4.7 2.5-7.6 2.3-2.4-.4-5.8-1.3-9.2-4.7z" fill="#249ac1"/><path d="m57.2 6.4.4.2-.1.1z" fill="#989898"/><path d="m55.3 7.6-.1.2.5.5.1-.2z" fill="#989898"/><path d="m53.9 9.5-.2.2.4.4.2-.2z" fill="#989898"/><path d="m50.5 6-.2.1-.4-.4.2-.1z" fill="#b4b4b4"/><path d="m52.3 4.5-.2.1-.4-.5.1-.1z" fill="#b4b4b4"/><path d="m53.2 2.3.4.2-.1.1z" fill="#b4b4b4"/><path d="m56.4 7.2c1.9-1.7 3.5-2.3 3.5-2.3s-.7-.7-1-1.2c-.1-.3-.1-.6-.3-1-.1-.6-.7-.7-.7-.7s-.1-.6-.5-.8-.7-.1-1-.3c-.6-.2-1.4-.9-1.4-.9s-.7 1.5-2.3 3.5c-1.7 2-2.9 2.7-2.9 2.7s0 .5-.2 1.3c-.3 1.1-.9 1.5-.9 1.5l2.2 2.1s.5-.6 1.5-.8c.8-.2 1.3-.2 1.3-.2s.6-1.1 2.7-2.9z" fill="#6c2a2a"/><path d="m49.2 9c.2-.2.5-.7.7-1.4.2-.5.2-1 .2-1.2.4-.3 1.4-1 2.8-2.7 1.2-1.4 1.9-2.5 2.2-3.1.3.2.7.6 1 .7.2.1.4.1.6.2.2 0 .3.1.5.1 0 0 .1 0 .1.1.1.1.2.3.2.3v.2l.2.1c.1 0 .3.1.5.2l.1.1c.1.2.1.3.1.5s.1.4.2.6c.1.3.5.7.7 1-.6.3-1.8 1-3.1 2.2-1.7 1.5-2.4 2.5-2.7 2.8-.2 0-.7.1-1.2.2-.6.2-1.1.5-1.4.7z" fill="#4b1212"/><path d="m49.8 10 8.1-8s-.1-.6-.5-.8-.7-.1-1-.3c-.6-.2-1.4-.9-1.4-.9s-.7 1.5-2.3 3.5c-1.7 2-2.9 2.7-2.9 2.7s0 .5-.2 1.3c-.3 1.1-.9 1.5-.9 1.5z" fill="#4b1212"/><path d="m51.1 7c-.2.1-.5.1-.6-.1s-.1-.5.1-.6.5-.1.6.1c.2.2.1.5-.1.6z" fill="#b4b4b4"/><path d="m54.5 3.6c-.2.1-.5.1-.6-.1s-.1-.5.1-.6.5-.1.6.1.1.5-.1.6z" fill="#b4b4b4"/><path d="m57 6.1c-.2.1-.5.1-.6-.1s-.1-.5.1-.6.5-.1.6.1.1.4-.1.6z" fill="#b4b4b4"/><path d="m55.2 7.7c-.2.1-.5.1-.6-.1s-.1-.5.1-.6.5-.1.6.1.1.5-.1.6z" fill="#b4b4b4"/><path d="m52.8 5.4c-.2.1-.5.1-.6-.1s-.1-.5.1-.6.5-.1.6.1c.2.2.1.5-.1.6z" fill="#b4b4b4"/><path d="m53.5 9.5c-.2.1-.5.1-.6-.1s-.1-.5.1-.6.5-.1.6.1c.2.2.1.5-.1.6z" fill="#b4b4b4"/><path d="m28.6 34.4-3.2-3.3 23.1-21.9 2.1 2.2z" fill="#4b1212"/><path d="m49.5 10.3-1-1.1-23.1 21.9 1.6 1.6z" fill="#672222"/><path d="m49.1 13-2.3-2.2.1-.1 2.3 2.2z"/><path d="m47.5 14.7-2.3-2.3.1-.1 2.3 2.3z"/><path d="m46.1 16.1-2.4-2.3.1-.1z"/><path d="m44.7 17.6-2.4-2.5 2.5 2.4z"/><path d="m43.4 19-2.6-2.5.1-.1 2.5 2.5z"/><path d="m42.1 20.3-2.6-2.6.1-.1 2.6 2.6z"/><path d="m40.9 21.5-2.6-2.6.1-.1z"/><path d="m39.8 22.7-2.7-2.7.1-.1z"/><path d="m38.7 23.9-2.7-2.8.1-.1 2.7 2.8z"/><path d="m37.8 24.9-2.9-2.8.1-.1 2.8 2.8z"/><path d="m36.8 25.9-2.8-2.9.1-.1 2.8 2.9z"/><path d="m36 26.8-2.9-2.9v-.1l2.9 2.9z"/><path d="m35.1 27.7-2.9-3v-.1l3 3z"/><path d="m34.3 28.5-3-3h.1l3 2.9z"/><path d="m33.5 29.4-3.1-3.1h.1l3.1 3z"/><path d="m32.8 30.1-3.1-3 .1-.1 3 3z"/><path d="m32 30.9-3.1-3.1.1-.1 3.1 3.1z"/><path d="m31.3 31.6-3.1-3.1.1-.1 3.1 3.1z"/><path d="m30.6 32.3-3.1-3.1v-.1l3.2 3.1z"/><path d="m29.9 33.1-3.2-3.2.1-.1 3.2 3.2z"/><path d="m29.2 33.8-3.2-3.3h.1l3.2 3.2z"/><g fill="#e6e6e5"><path d="m49.1 13-2.2-2.3h.1l2.2 2.2z"/><path d="m47.6 14.6-2.4-2.3.1-.1 2.3 2.3z"/><path d="m46.2 16.1-2.5-2.4.1-.1 2.4 2.4z"/><path d="m44.8 17.6-2.5-2.5.1-.1 2.4 2.5z"/><path d="m43.4 19-2.5-2.5.1-.1 2.5 2.5z"/><path d="m42.2 20.3-2.6-2.6.1-.1 2.6 2.6z"/><path d="m41 21.5-2.7-2.6.1-.1 2.7 2.6z"/><path d="m39.8 22.7-2.7-2.7.1-.1 2.7 2.7z"/><path d="m38.8 23.8-2.8-2.7.1-.1 2.8 2.7z"/><path d="m37.8 24.8-2.8-2.8.1-.1z"/><path d="m36.9 25.8-2.9-2.8.1-.1 2.8 2.8z"/><path d="m36 26.7-2.9-2.9.1-.1 2.9 2.9z"/><path d="m35.1 27.6-2.9-2.9.1-.1 2.9 2.9z"/><path d="m34.3 28.5-3-3 .1-.1 3 3z"/><path d="m33.5 29.3-3-3 .1-.1 3 3z"/><path d="m32.8 30.1-3.1-3.1.1-.1 3.1 3.1z"/><path d="m32.1 30.8-3.1-3.1.1-.1 3.1 3.1z"/><path d="m31.4 31.6-3.2-3.1.1-.1 3.1 3.1z"/><path d="m30.7 32.3-3.2-3.2.1-.1 3.2 3.2z"/><path d="m29.9 33.1-3.2-3.2.1-.1 3.2 3.2z"/><path d="m29.3 33.7-3.2-3.2v-.1z"/><path d="m48.4 9.2.3-.3 2.2 2.2-.3.3z"/></g><path d="m57.6 7.6c.1 0 .4-.1.6-.3.3-.3.4-.5.3-.6 0-.1-.3-.4-.4-.4s-.3 0-.6.3c-.4.3-.4.5-.4.6.1 0 .4.4.5.4z" fill="#ccc"/><path d="m58.3 6.4c-.1-.1-.2-.2-.2-.2-.1 0-.3 0-.6.3-.4.3-.4.5-.4.6 0 0 .1.1.2.2z" fill="#989898"/><path d="m57.4 7.3c-.1-.1-.1-.1-.1-.2s0-.2.3-.5.5-.3.5-.3.1.1.2.1c.1.1.1.1.1.2 0 0-.1.2-.3.5-.2.2-.4.3-.5.3 0 0-.1 0-.2-.1z" fill="#989898"/><path d="m58.2 6.5c-.1-.1-.1-.1-.2-.1 0 0-.2 0-.5.3s-.3.4-.3.5c0 0 .1.1.1.2z" fill="#ccc"/><path d="m52.8 2.6c.1 0 .4-.1.6-.3.3-.3.4-.5.3-.6 0-.1-.3-.4-.4-.4s-.3 0-.6.3c-.4.3-.4.5-.4.6.1.1.4.4.5.4z" fill="#ccc"/><path d="m53.5 1.4c-.1-.1-.2-.2-.2-.2-.1 0-.3 0-.6.3-.4.3-.4.5-.4.6 0 0 .1.1.2.2z" fill="#989898"/><path d="m52.7 2.3c-.1-.1-.1-.1-.1-.2s0-.2.3-.5.5-.3.5-.3.1.1.2.1c.1.1.1.1.1.2 0 0-.1.2-.3.5-.2.2-.4.3-.5.3-.1.1-.2 0-.2-.1z" fill="#989898"/><path d="m53.5 1.5c-.1-.1-.1-.1-.2-.1 0 0-.2 0-.5.3s-.3.4-.3.5c0 0 .1.1.1.2z" fill="#ccc"/><path d="m51.2 4.5c.1 0 .4-.1.6-.3.3-.3.4-.5.3-.6 0-.1-.3-.4-.4-.4s-.3 0-.6.3c-.4.3-.4.5-.4.6.1.1.4.4.5.4z" fill="#ccc"/><path d="m51.9 3.3c-.1-.1-.2-.2-.2-.2-.1 0-.3 0-.6.3-.4.3-.4.5-.4.6 0 0 .1.1.2.2z" fill="#989898"/><path d="m51 4.2c-.1-.1-.1-.1-.1-.2s0-.2.3-.5.5-.3.5-.3.1.1.2.1c0 .2.1.3.1.3s-.1.2-.3.5c-.2.2-.4.3-.5.3 0 0-.1-.1-.2-.2z" fill="#989898"/><path d="m51.9 3.4c-.1-.1-.1-.1-.2-.1 0 0-.2 0-.5.3s-.3.4-.3.5c0 0 .1.1.1.2z" fill="#ccc"/><path d="m49.5 6c.1 0 .4-.1.6-.3.3-.3.4-.5.3-.6 0-.1-.3-.4-.4-.4s-.3 0-.6.3c-.4.3-.4.5-.4.6.1.1.4.4.5.4z" fill="#ccc"/><path d="m50.2 4.9c-.1-.1-.2-.2-.2-.2-.1 0-.3 0-.6.3-.4.3-.4.5-.4.6 0 0 .1.1.2.2z" fill="#989898"/><path d="m49.3 5.8c-.1-.1-.1-.1-.1-.2s0-.2.3-.5.5-.3.5-.3.1.1.2.1c.1.1.1.1.1.2 0 0-.1.2-.3.5-.2.2-.4.3-.5.3 0 0-.1 0-.2-.1z" fill="#989898"/><path d="m50.2 5c-.1-.1-.2-.2-.2-.2s-.2 0-.5.3-.3.4-.3.5c0 0 .1.1.1.2z" fill="#ccc"/><path d="m55.7 9.1c.1 0 .4-.1.6-.3.3-.3.4-.5.3-.6 0-.1-.3-.4-.4-.4s-.3 0-.6.3c-.4.3-.4.5-.4.6.1.1.5.4.5.4z" fill="#ccc"/><path d="m56.5 7.9c-.1-.1-.2-.2-.2-.2-.1 0-.3 0-.6.3-.4.3-.4.5-.4.6 0 0 .1.1.2.2z" fill="#989898"/><path d="m55.6 8.8c-.1-.1-.1-.1-.1-.2s0-.2.3-.5.5-.3.5-.3.1.1.2.1c.1.1.1.1.1.2 0 0-.1.2-.3.5-.3.3-.5.4-.5.4-.1 0-.1-.1-.2-.2z" fill="#989898"/><path d="m56.4 8c-.1-.1-.1-.1-.2-.1 0 0-.2 0-.5.3s-.3.4-.3.5c0 0 .1.1.1.2z" fill="#ccc"/><path d="m54.1 10.9c.1 0 .4-.1.6-.3.3-.3.4-.5.3-.6 0-.1-.3-.4-.4-.4s-.3 0-.6.3c-.4.3-.4.5-.4.6.1.1.4.4.5.4z" fill="#ccc"/><path d="m54.9 9.7c-.1-.1-.2-.2-.2-.2-.1 0-.3 0-.6.3-.4.3-.4.5-.4.6 0 0 .1.1.2.2z" fill="#989898"/><path d="m54 10.6c-.1-.1-.1-.1-.1-.2s0-.2.3-.5.5-.3.5-.3.1.1.2.1c.1.1.1.1.1.2 0 0-.1.2-.3.5-.2.2-.4.3-.5.3-.1.1-.1 0-.2-.1z" fill="#989898"/><path d="m54.8 9.8c-.1-.1-.1-.1-.2-.1 0 0-.2 0-.5.3s-.3.4-.3.5c0 0 .1.1.1.2z" fill="#ccc"/><path d="m16.2 35.5c-.2-.2-.4-.3-.8-.3-.3 0-.8.2-1.3.4-.6.2-1.5.6-2 .7s-1.2.1-1.2.1-.5.6-1 1-1.5 1-2 1.2-1.4.4-1.4.4.1-.4-.1-.6-.6-.3-.9 0-.2.7 0 1c.4.5 1.3.2 1.7 0 1-.3 1.3-.4 2.1-.7 1.1-.5 1.7-.4 1.7-.4s1-1.1 1.5-1.4c1.1-.7 2.5-1 2.9-1.1 0 0-.1.2.1.4s.4.2.6 0c.3-.2.3-.5.1-.7z" fill="#010101"/><path d="m5.8 39.3c-.2-.3-.3-.6-.1-.8s.4-.2.6 0 .1.4.1.4l-.1.3.3-.1s.9-.2 1.4-.4 1.5-.8 2-1.2c.4-.3.8-.8 1-.9.2 0 .7 0 1.1-.1.4 0 .8-.2 1.3-.4.3-.1.5-.2.7-.3l.2-.1c.5-.2.9-.3 1.1-.3.3 0 .4 0 .5.1 0 0 0 0 .1.1.1.2.1.4 0 .5s-.3.1-.4 0-.1-.2 0-.2l.1-.3h-.3c-.4.1-1.8.4-2.9 1.1-.5.3-1.3 1.2-1.5 1.4-.2 0-.8 0-1.7.4-.8.3-1.1.5-2.1.7h-.1c-.3.2-1 .4-1.3.1z"/><path d="m20.8 54.5c-.2-.2-.3-.4-.3-.8 0-.3.2-.8.4-1.3.2-.6.6-1.5.7-2s.1-1.2.1-1.2.6-.5 1-1 1-1.5 1.2-2 .4-1.4.4-1.4-.4.1-.6-.1-.3-.6 0-.9.7-.2 1 0c.5.4.2 1.3 0 1.7-.3 1-.4 1.3-.7 2.1-.5 1.1-.4 1.7-.4 1.7s-1.1 1-1.4 1.5c-.7 1.1-1 2.5-1.1 2.9 0 0 .2-.1.4.1s.2.4 0 .6c-.2.3-.5.3-.7.1z" fill="#333"/><path d="m24.6 44.1c-.3-.2-.6-.3-.8-.1s-.2.4 0 .6.4.1.4.1l.3-.1-.1.3s-.2.9-.4 1.4-.8 1.5-1.2 2c-.3.4-.8.8-.9 1 0 .2 0 .7-.1 1.1 0 .4-.2.8-.4 1.3-.1.3-.2.5-.3.7l-.1.2c-.2.5-.3.9-.3 1.1 0 .3 0 .4.1.5 0 0 0 0 .1.1.2.1.4.1.5 0s.1-.3 0-.4-.2-.1-.2 0l-.3.1v-.3c.1-.4.4-1.8 1.1-2.9.3-.5 1.2-1.3 1.4-1.5 0-.2 0-.8.4-1.7.3-.8.5-1.1.7-2.1v-.1c.2-.3.4-1 .1-1.3z" fill="#010101"/><path d="m20.5 43.9c-.2.2-.6.2-.8 0s-.2-.6 0-.8.6-.2.8 0 .2.5 0 .8z" fill="#010101"/><path d="m20.4 43.8c-.2.2-.5.2-.7 0s-.2-.5 0-.7.5-.2.7 0 .2.5 0 .7z" fill="#333"/><path d="m16.6 40.3c-.2.2-.6.2-.8 0s-.2-.6 0-.8.6-.2.8 0 .2.6 0 .8z" fill="#1a1a1a"/><path d="m16.5 40.2c-.2.2-.5.2-.7 0s-.2-.5 0-.7.5-.2.7 0 .2.6 0 .7z" fill="#4e4e4e"/><path d="m20.3 43.8c-.1.1-.4.1-.6 0l-3.7-3.6c-.2-.2-.2-.4-.1-.6l.1-.1c.1-.1.4-.1.6 0l3.8 3.5c.1.3.2.6-.1.8zm-.5-1-.3-.2-.4.4.3.2zm-.5-.5-.3-.2-.4.4.3.2zm-.6-.5-.3-.2-.3.4.3.2zm-.5-.4-.2-.3-.4.4.3.2zm-.5-.5-.3-.2-.4.4.3.2zm-.5-.5-.3-.2-.4.4.3.2z" fill="#010101"/><path d="m18.4 41.4-1.9-1.8c-.2-.2-.4-.2-.6 0l-.1.1c-.1.1-.1.4.1.6l1.9 1.7zm-1.9-.8.4-.4.3.2-.4.4zm.5.5.4-.4.3.2-.4.4zm1 0 .3.2-.4.4-.3-.2z" fill="#1a1a1a"/><path d="m29.1 33.9-8.7 8.8s1.4 1.1 2 2c.6.8 1 1.7 1.2 2.1.3.7 1.3 1 1.8 0 .3-.6.8-2.7 1.8-5.2.9-2.1 2.2-2.7 2.4-4.2.1-1-.2-1.3-.4-2.1-.2-.7-.1-1.4-.1-1.4z" fill="#4e4e4e"/><path d="m29.6 36.4c-.1-.4-.3-.7-.4-1.1-.2-.8-.1-1.4-.1-1.4l-8.7 8.8s.9.7 1.5 1.4z" fill="#333"/><path d="m24 47.1c-.1-.1-.2-.2-.2-.3-.2-.6-.6-1.4-1.2-2.2-.2-.2-.4-.5-.7-.8-.5-.5-1-.9-1.3-1.1l8.3-8.3c0 .3 0 .6.1 1 .1.2.1.4.2.6.2.4.3.7.2 1.4-.1.8-.5 1.3-1 1.9s-1 1.2-1.4 2.3c-.6 1.5-1 2.8-1.3 3.8-.2.7-.4 1.2-.5 1.4-.2.3-.4.5-.6.5-.2.1-.4 0-.6-.2z" fill="#333"/><path d="m45.3 13.2s.1.3 0 .6c-.1.2-.2.2-.2.2l.7.7s0-.1.3-.2.6 0 .6 0z" fill="#989898"/><path d="m45.3 13.2v.2.4c-.1.1-.1.2-.1.2h-.1l.3.3.5-.5z" fill="#ccc"/><path d="m42.5 16s.1.3 0 .6-.2.3-.2.3l.7.7s0-.1.3-.2.6 0 .6 0z" fill="#989898"/><path d="m42.5 16v.2.4c-.1.1-.1.2-.1.2h-.1l.3.3.5-.5z" fill="#ccc"/><path d="m39.8 18.6s.1.3.1.5c-.1.2-.1.2-.1.2l.7.7s0-.1.2-.1c.2-.1.5.1.5.1z" fill="#989898"/><path d="m39.8 18.6s0 .1.1.2v.3c0 .1-.1.2-.1.2h-.1l.3.3.4-.4z" fill="#ccc"/><path d="m36.5 22s.1.3.1.5c-.1.2-.1.2-.1.2l.7.7s0-.1.2-.1c.2-.1.5.1.5.1z" fill="#989898"/><path d="m36.5 22s0 .1.1.2v.3c0 .1-.1.2-.1.2h-.1l.3.3.4-.4z" fill="#ccc"/><path d="m33.6 24.9s.2.2.2.4-.1.1-.1.1l.7.7s0-.1.1-.1c.2 0 .4.2.4.2z" fill="#989898"/><path d="m33.6 24.9s0 .1.1.1c0 .1.1.2.1.3v.1l.3.3.2-.2z" fill="#ccc"/><path d="m31.9 26.6s.2.2.2.4-.1.1-.1.1l.7.7s0-.1.1-.1c.2 0 .4.2.4.2z" fill="#989898"/><path d="m31.9 26.6s0 .1.1.1c0 .1.1.2.1.3v.1l.3.3.2-.2z" fill="#ccc"/><path d="m30.4 28.1s.2.2.2.4-.1.1-.1.1l.7.7s0-.1.1-.1c.2 0 .4.2.4.2z" fill="#989898"/><path d="m30.4 28.1s0 .1.1.1c0 .1.1.2.1.3v.1l.3.3.2-.2z" fill="#ccc"/><path d="m29 29.5s.2.2.2.4-.1.1-.1.1l.7.7s0-.1.1-.1c.2 0 .4.2.4.2z" fill="#989898"/><path d="m29 29.5s0 .1.1.1c0 .1.1.2.1.3v.1l.3.3.2-.2z" fill="#ccc"/><path d="m27.5 31s.2.2.2.4-.1.1-.1.1l.7.7s0-.1.1-.1c.2 0 .4.2.4.2z" fill="#989898"/><path d="m27.5 31s0 .1.1.1c0 .1.1.2.1.3v.1l.3.3.2-.2z" fill="#ccc"/><path d="m16.2 39.7c.1 0 .2.1.2.2s-.1.2-.2.2-.2-.1-.2-.2.1-.2.2-.2z" fill="#818181"/><path d="m20.1 43.3c.1 0 .2.1.2.2s-.1.2-.2.2-.2-.1-.2-.2.1-.2.2-.2z" fill="#818181"/><path d="m18.8 39.3-.3.2.3-.2c.1.1.1 0 0 0z" fill="url(#a)"/><path d="m16.2 39.7v.3z" fill="#010101"/><path d="m20.1 43.3v.3z" fill="#010101"/><path d="m16.5 40.5.5.3v.1z" fill="#ccc"/><path d="m17.5 41.2-.4-.4h.1l.4.3z" fill="#ccc"/><path d="m17.8 41.2.5.3-.1.1z" fill="#ccc"/><path d="m18.5 42.3-.5-.4h.1l.4.3z" fill="#818181"/><path d="m18.7 42.3.5.3-.1.1z" fill="#818181"/><path d="m19.3 42.5.5.3-.1.1z" fill="#818181"/><path d="m18 51.2c-.4.4-.4.9 0 1.3s.9.4 1.3 0 .4-.9 0-1.3c-.4-.3-1-.3-1.3 0z" fill="#010101"/><path d="m18 52.6c.4.4.9.4 1.3 0s.4-.9 0-1.3z" fill="#333"/><path d="m19 52.3c-.2.2-.6.2-.8 0s-.2-.6 0-.8.6-.2.8 0c.3.2.3.6 0 .8z" fill="#010101"/><path d="m18.2 52.3c-.2-.2-.2-.6 0-.8s.6-.2.8 0z" fill="#333"/><path d="m23 52.2c-.4.4-.4.9 0 1.3s.9.4 1.3 0 .4-.9 0-1.3c-.3-.3-.9-.3-1.3 0z" fill="#010101"/><path d="m23 53.5c.4.4.9.4 1.3 0s.4-.9 0-1.3z" fill="#333"/><path d="m24.1 53.3c-.2.2-.6.2-.8 0s-.2-.6 0-.8.6-.2.8 0 .2.6 0 .8z" fill="#010101"/><path d="m23.3 53.3c-.2-.2-.2-.6 0-.8s.6-.2.8 0z" fill="#333"/><circle cx="15.6" cy="55.8" fill="#010101" r=".9"/><path d="m15 56.5c.4.4.9.4 1.3 0s.4-.9 0-1.3z" fill="#333"/><path d="m16 56.2c-.2.2-.6.2-.8 0s-.2-.6 0-.8.6-.2.8 0c.3.2.3.6 0 .8z" fill="#010101"/><path d="m15.2 56.2c-.2-.2-.2-.6 0-.8s.6-.2.8 0z" fill="#333"/><path d="m20 56.1c-.4.4-.4.9 0 1.3s.9.4 1.3 0 .4-.9 0-1.3c-.3-.3-.9-.3-1.3 0z" fill="#010101"/><path d="m20 57.4c.4.4.9.4 1.3 0s.4-.9 0-1.3z" fill="#333"/><path d="m21.1 57.2c-.2.2-.6.2-.8 0s-.2-.6 0-.8.6-.2.8 0 .2.6 0 .8z" fill="#010101"/><path d="m20.3 57.2c-.2-.2-.2-.6 0-.8s.6-.2.8 0z" fill="#333"/><path d="m51 6.9c-.1.1-.3.1-.3-.1-.1-.1-.1-.3 0-.3.1-.1.3-.1.3.1.1 0 .1.2 0 .3z" fill="#818181"/><path d="m54.4 3.4c-.1.1-.3.1-.3-.1-.1-.1-.1-.3 0-.3s.3 0 .4.1c0 .1 0 .3-.1.3z" fill="#818181"/><path d="m56.9 5.9c-.1.1-.3.1-.3 0-.1-.1-.1-.3 0-.3.1-.1.3-.1.3.1.1 0 .1.2 0 .2z" fill="#818181"/><path d="m55.1 7.5c-.1.1-.3.1-.3-.1-.1-.1-.1-.3 0-.3.1-.1.3-.1.3.1.1.1.1.3 0 .3z" fill="#818181"/><path d="m52.7 5.3c-.1.1-.3.1-.3-.1-.1-.1-.1-.3 0-.3.1-.1.3-.1.3.1.2 0 .1.2 0 .3z" fill="#818181"/><path d="m53.4 9.3c-.1.1-.3.1-.3-.1-.1 0-.1-.2 0-.2.1-.1.3-.1.3.1.1 0 .1.2 0 .2z" fill="#818181"/><path d="m28.9 35.1c.1-.1.1-.2 0-.3l-4-4c-.1-.1-.2 0-.3 0l-1.9 1.9c-.1.1-.1.2 0 .3l4 4c.1.1.2 0 .3 0z" fill="#333"/><path d="m26.9 32.9-2-2h-.1s-.1 0-.1.1l-1.9 1.9-.1.1v.1l2 2z" fill="#010101"/><path d="m28.8 35.1c.1-.1.1-.2 0-.2l-3.9-3.9c-.1-.1-.2-.1-.2 0l-1.8 1.8c-.1.1-.1.2 0 .2l3.8 3.8c.1.1.2.1.2 0z"/><path d="m26.8 32.9-1.9-1.9h-.1-.1l-.9.9-.9.9v.1.1l1.9 1.9z" fill="#333"/><path d="m28.3 34.9c.1-.1.1-.2 0-.2l-3.2-3.2c-.1-.1-.2 0-.2 0l-1.5 1.5c-.1.1-.1.2 0 .2l3.2 3.2c.1.1.2 0 .2 0z" fill="#333"/><path d="m26.7 33.1-1.6-1.6h-.1s-.1 0-.1.1l-1.5 1.4s0 .1-.1.1v.1l1.6 1.6z" fill="#010101"/><path d="m28.2 34.8s0-.1 0-.2l-3.1-3.1s-.1 0-.2 0l-1.5 1.5v.2l3.1 3.1h.2z" fill="#010101"/><path d="m26.6 33.1-1.5-1.5h-.1-.1l-.7.7-.7.7v.1.1l1.5 1.5z" fill="#333"/><path d="m23.3 32.9c0-.1-.1-.2-.2-.2s-.2.1-.2.2.1.2.2.2.2-.1.2-.2z" fill="#818181"/><path d="m24.9 31.3c.1-.1.1-.2 0-.2-.1-.1-.2-.1-.2 0-.1.1-.1.2 0 .2.1.1.2.1.2 0z" fill="#818181"/><path d="m24.1 32.3c.1 0 .2-.1.2-.2s-.1-.2-.2-.2-.2.1-.2.2.1.2.2.2z" fill="#818181"/><path d="m28.5 34.9c.1-.1.2-.1.2 0 .1.1.1.2 0 .2-.1.1-.2.1-.2 0-.1-.1-.1-.2 0-.2z" fill="#333"/><path d="m27.5 35.7c0-.1.1-.2.2-.2s.2.1.2.2-.1.2-.2.2-.2-.1-.2-.2z" fill="#333"/><path d="m26.8 36.5c.1 0 .2.1.2.1 0 .1-.1.2-.1.2-.1 0-.2-.1-.2-.1 0-.1.1-.2.1-.2z" fill="#333"/><path d="m23.3 32.9h-.3z" fill="#010101"/><path d="m24.9 31.3-.2-.2z" fill="#010101"/><path d="m24.1 32.3v-.3z" fill="#010101"/><path d="m28.5 34.9.2.2z" fill="#010101"/><path d="m27.5 35.7h.3z" fill="#010101"/><path d="m26.8 36.5c.1 0 .1 0 0 0v.3z" fill="#010101"/><path d="m26.7 36.2s-.1 0-.2 0l-3-3s0-.1 0-.2l1.4-1.4h.2l3 3v.2z" fill="#adadad"/><path d="m25.1 34.7-1.5-1.5v-.1-.1l.7-.7.7-.7h.1.1l1.5 1.5z" fill="#8b8a8b"/><path d="m26.7 36h-.1l-2.8-2.8v-.1l1.2-1.2h.1l2.8 2.8v.1z" fill="#d6d5d5"/><path d="m27.9 34.7-2.8-2.8h-.1l-.6.6v.1l2.8 2.8h.1z" fill="#fafbfc"/><path d="m25.1 32.5c-.1 0-.2-.1-.2-.2s.1-.2.2-.2.2.1.2.2c-.1.1-.1.2-.2.2z" fill="#b0b0b0"/><path d="m25.4 32.9c-.1-.1-.1-.2 0-.2.1-.1.2-.1.2 0 .1.1.1.2 0 .2 0 .1-.1.1-.2 0z" fill="#b0b0b0"/><path d="m27.6 34.8c-.1.1-.2.1-.2 0-.1-.1-.1-.2 0-.2.1-.1.2-.1.2 0z" fill="#b0b0b0"/><path d="m27 34.4c-.1 0-.2-.1-.2-.2s.1-.2.2-.2.2.1.2.2c0 .2-.1.2-.2.2z" fill="#b0b0b0"/><path d="m26.4 33.8c0-.1.1-.2.2-.2s.2.1.2.2-.1.2-.2.2-.2-.1-.2-.2z" fill="#b0b0b0"/><path d="m26 33.5c-.1 0-.2-.1-.2-.2s.1-.2.2-.2.2.1.2.2-.1.2-.2.2z" fill="#b0b0b0"/><path d="m25.1 32.5v-.3z" fill="#8b8a8b"/><path d="m25.4 32.9.2-.2z" fill="#8b8a8b"/><path d="m27.6 34.8c0 .1 0 .1 0 0l-.2-.2z" fill="#8b8a8b"/><path d="m27 34.4v-.3z" fill="#8b8a8b"/><path d="m26.4 33.8h.3z" fill="#8b8a8b"/><path d="m26 33.5v-.3z" fill="#8b8a8b"/><path d="m23.3 40.7c.1-.1.1-.2 0-.3l-4-4c-.1-.1-.2 0-.3 0l-1.9 1.9c-.1.1-.1.2 0 .3l4 4c.1.1.2 0 .3 0z" fill="#333"/><path d="m21.3 38.5-2-2h-.1s-.1 0-.1.1l-1.9 1.9-.1.1v.1l2 2z" fill="#010101"/><path d="m23.1 40.7c.1-.1.1-.2 0-.2l-3.8-3.8c-.1-.1-.2-.1-.2 0l-1.8 1.8c-.1.1-.1.2 0 .2l3.8 3.8c.1.1.2.1.2 0z"/><path d="m21.2 38.6-1.9-1.9h-.1-.1l-.9.9-.9.9v.1.1l1.9 1.9z" fill="#333"/><path d="m22.6 40.5c.1-.1.1-.2 0-.2l-3.2-3.2c-.1-.1-.2 0-.2 0l-1.5 1.5c-.1.1-.1.2 0 .2l3.2 3.2c.1.1.2 0 .2 0z" fill="#333"/><path d="m21.1 38.7-1.6-1.6h-.1s-.1 0-.1.1l-1.5 1.5s0 .1-.1.1v.1l1.6 1.6z" fill="#010101"/><path d="m22.5 40.5s0-.1 0-.2l-3.1-3.1s-.1 0-.2 0l-1.5 1.5v.2l3.1 3.1h.2z" fill="#010101"/><path d="m21 38.8-1.5-1.5h-.1-.1l-.7.7-.7.7v.1.1l1.5 1.5z" fill="#333"/><path d="m17.6 38.5c0-.1-.1-.2-.2-.2s-.2.1-.2.2.1.2.2.2c.2 0 .2-.1.2-.2z" fill="#818181"/><path d="m19.3 37c.1-.1.1-.2 0-.2-.1-.1-.2-.1-.2 0-.1.1-.1.2 0 .2z" fill="#818181"/><path d="m18.4 37.9c.1 0 .2-.1.2-.2s-.1-.2-.2-.2-.2.1-.2.2c.1.1.1.2.2.2z" fill="#818181"/><path d="m22.8 40.5c.1-.1.2-.1.2 0 .1.1.1.2 0 .2-.1.1-.2.1-.2 0 0 0 0-.1 0-.2z" fill="#333"/><path d="m21.9 41.4c0-.1.1-.2.2-.2s.2.1.2.2-.1.2-.2.2c-.2-.1-.2-.2-.2-.2z" fill="#333"/><path d="m21.2 42.2c.1 0 .2.1.2.1 0 .1-.1.2-.1.2-.1 0-.2-.1-.2-.1 0-.2 0-.2.1-.2z" fill="#333"/><path d="m17.6 38.5h-.3z" fill="#010101"/><path d="m19.3 37-.2-.2z" fill="#010101"/><path d="m18.4 37.9v-.3z" fill="#010101"/><path d="m22.8 40.5.2.2z" fill="#010101"/><path d="m21.9 41.3h.3-.3c0 .1 0 .1 0 0z" fill="#010101"/><path d="m21.2 42.2v.3z" fill="#010101"/><path d="m21.1 41.9s-.1 0-.2 0l-3-3s0-.1 0-.2l1.4-1.4h.2l3 3v.2z" fill="#adadad"/><path d="m19.4 40.4-1.5-1.5v-.1-.1l.7-.7.7-.7h.1.1l1.5 1.5z" fill="#8b8a8b"/><path d="m21.1 41.7h-.1l-2.8-2.8v-.1l1.2-1.2h.1l2.8 2.8v.1z" fill="#c9c9c9"/><path d="m22.3 40.3-2.8-2.8h-.1l-.6.6v.1l2.8 2.8h.1l.6-.7c0 .1 0 .1 0 0z" fill="#e6e6e6"/><path d="m19.4 38.1c-.1 0-.2-.1-.2-.2s.1-.2.2-.2.2.1.2.2c0 .2-.1.2-.2.2z" fill="#b0b0b0"/><path d="m19.8 38.6c-.1-.1-.1-.2 0-.2.1-.1.2-.1.2 0 .1.1.1.2 0 .2z" fill="#b0b0b0"/><path d="m21.9 40.5c-.1.1-.2.1-.2 0-.1-.1-.1-.2 0-.2.1-.1.2-.1.2 0 .1 0 .1.1 0 .2z" fill="#b0b0b0"/><path d="m21.4 40.1c-.1 0-.2-.1-.2-.2s.1-.2.2-.2.2.1.2.2c-.1.1-.1.2-.2.2z" fill="#b0b0b0"/><path d="m20.7 39.4c0-.1.1-.2.2-.2s.2.1.2.2-.1.2-.2.2-.2-.1-.2-.2z" fill="#b0b0b0"/><path d="m20.4 39.1c-.1 0-.2-.1-.2-.2s.1-.2.2-.2.2.1.2.2-.1.2-.2.2z" fill="#b0b0b0"/><path d="m19.4 38.1v-.3z" fill="#8b8a8b"/><path d="m19.8 38.6c0-.1 0-.1 0 0l.2-.2z" fill="#8b8a8b"/><path d="m21.9 40.5-.2-.2z" fill="#8b8a8b"/><path d="m21.4 40.1v-.3z" fill="#8b8a8b"/><path d="m20.7 39.4h.3z" fill="#8b8a8b"/><path d="m20.4 39.1v-.3z" fill="#8b8a8b"/><path d="m48.9 9.1-34.4 33.4h-.1l34.5-33.5 2-2.1.1-.1z" fill="none" stroke="#b3b3b3" stroke-miterlimit="10" stroke-width=".1"/><path d="m49.3 9.4-34.2 33.7 34.2-33.7 3.3-4.2h.1z" fill="none" stroke="#b3b3b3" stroke-miterlimit="10" stroke-width=".1"/><path d="m49.7 9.8-34 33.8 34-33.8 4.6-6.4h.1z" fill="none" stroke="#b3b3b3" stroke-miterlimit="10" stroke-width=".1"/><path d="m50.8 11-33.4 34.2 33.4-34.2 2.3-1.9v-.1z" fill="none" stroke="#b3b3b3" stroke-miterlimit="10" stroke-width=".1"/><path d="m50.4 10.6-33.6 34.1 33.6-34.1 4.3-3.3.1-.2z" fill="none" stroke="#b3b3b3" stroke-miterlimit="10" stroke-width=".1"/><path d="m50 10.2-33.8 34 33.8-34 6.6-4.6v-.1z" fill="none" stroke="#b3b3b3" stroke-miterlimit="10" stroke-width=".1"/><path d="m13.4 41.2c-.3.3-.2.5-.2.5l4.8 4.8s.1.1.5-.2c.3-.3.3-.5.3-.5l-4.8-4.8s-.3 0-.6.2z" fill="#010101"/><path d="m16.4 43.4 2.4 2.4s0 .2-.3.5-.5.2-.5.2l-2.4-2.4z" fill="#333"/><path d="m18.2 46.4s.1 0 .3-.2.2-.3.2-.3l-4.7-4.7c-.1 0-.2.1-.4.2-.1.1-.2.2-.2.3z" fill="#1a1a1a"/><path d="m16.3 43.5 2.3 2.3c0 .1-.1.2-.2.3s-.2.2-.3.2l-2.3-2.3z" fill="#010101"/><path d="m18.4 45.8c0-.2-.1-.3-.3-.3s-.3.1-.3.3.1.3.3.3c.2.1.3-.1.3-.3z" fill="#4e4e4e"/><path d="m14.1 41.9c.1-.1.1-.3 0-.5-.1-.1-.3-.1-.5 0-.1.1-.1.3 0 .5.2.1.4.2.5 0z" fill="#4e4e4e"/><path d="m18.4 45.8-.7-.1z" fill="#010101"/><path d="m14.1 41.9c.1 0 .1 0 0 0l-.4-.5z" fill="#010101"/></svg>