<svg enable-background="new 0 0 60 60" height="60" viewBox="0 0 60 60" width="60" xmlns="http://www.w3.org/2000/svg"><path d="m31.4 33s-.9 1.3-.2 2.2c.6.7 1.5.5 3.2.3s4.1-.5 4.6-.7c.5-.1 1-.1 1.4 0 0 0 1.9.2 2.3.2s.8.1-.1.5-5.1 2.3-6.6 3c-1.4.6-6 2.4-7 3.5-1.1 1.1-1.9 3.1-3.1 6-1.1 2.9-2.1 5.4-2.5 6.3s-.6 1.7-.9.9c-.3-.7-.9-2.3-1.1-2.7-.2-.5 0-.5 0-.7 0-.3-.1-1.8-.6-3.6-.4-1.5-.8-2.5-1.7-3.3-.7-.8-1.4-1.4-3.8-1.6s-5.1 0-6.3 0-5.2.3-5.4.4-.2.1-.7 0c-.4-.2-2.2-.8-2.5-.9-.3-.1-.8-.1-.2-.4s2-.9 3-1.3 3.9-1.7 4.9-2.1c1-.5 3.8-1.6 4.8-2 .9-.4 4.2-1.7 5.4-2.2s2.7-1 3.3-1.7c.6-.6 1.6-2.3 2.1-3.1.5-.7 2.2-3.5 2.4-3.8.2-.4.3-.6.8-.6.5-.1 1.7-.2 2-.3.3 0 .7-.1.4.2-.3.4-1.1 1.3-1.4 2.2s-.2 1.3.2 1.7c.7.7 2.2 0 2.2 0z" fill="#333"/><path d="m30.3 31.8-12.2 12.2c-.6-.4-1.3-.6-2.8-.7-2.4-.2-5.1 0-6.3 0s-5.2.3-5.4.4-.2.1-.7 0c-.4-.2-2.2-.8-2.5-.9-.3-.1-.8-.1-.2-.4s2-.9 3-1.3 3.9-1.7 4.9-2.1c1-.5 3.8-1.6 4.8-2 .9-.4 4.2-1.7 5.4-2.2s2.7-1 3.3-1.7c.6-.6 1.6-2.3 2.1-3.1.5-.7 2.2-3.5 2.4-3.8.2-.4.3-.6.8-.6.5-.1 1.7-.2 2-.3.3 0 .7-.1.4.2-.3.4-1.1 1.3-1.4 2.2s-.2 1.3.2 1.7c.7.7 2.2 0 2.2 0z" fill="#c12127"/><path d="m.6 42.6c.2-.1.4-.2.7-.3.6-.3 1.4-.6 2-.9s2-.9 3.3-1.4c.7-.3 1.3-.5 1.6-.7.6-.2 1.7-.7 2.7-1.1.8-.3 1.6-.7 2-.8.4-.2 1.4-.6 2.5-1 1.1-.5 2.3-.9 2.9-1.2.2-.1.5-.2.8-.3 1-.4 2.1-.9 2.6-1.4.6-.6 1.5-2 2-2.9l.1-.2c.5-.7 2.2-3.5 2.4-3.8 0-.1.1-.1.1-.2.2-.2.2-.3.5-.3.4 0 1.1-.2 1.5-.2.1 0 .3 0 .4-.1-.4.5-1 1.3-1.3 2-.3.9-.2 1.5.3 2 .7.7 1.7.4 2.2.2l1 3.2c-.2.4-.8 1.5-.1 2.4l.1.1c.6.6 1.5.5 3 .3.1 0 .2 0 .4-.1.4 0 .7-.1 1.1-.2 1.5-.2 3.1-.4 3.5-.5.5-.1 1-.1 1.3 0s1.4.1 2.1.2c-.5.2-1.8.8-3.2 1.4-1.3.6-2.7 1.2-3.4 1.5-.3.1-.6.3-1.1.5-2.1.9-5.2 2.2-6.1 3.2-1.1 1.2-2 3.1-3.1 6.1-.7 1.9-1.4 3.6-1.9 4.9-.2.6-.4 1.1-.6 1.4 0 .1-.1.2-.1.3-.1.2-.2.5-.3.7-.3-.8-.9-2.3-1.1-2.7-.1-.2-.1-.3 0-.4 0-.1 0-.1 0-.3 0 0 0-1.7-.6-3.7-.5-1.5-.9-2.5-1.7-3.4l-.1-.1c-.7-.7-1.5-1.4-3.9-1.6-1.9-.2-3.9-.1-5.3 0-.4 0-.8 0-1 0-.9 0-5.2.3-5.5.5h-.1s-.1 0-.3-.1-.7-.3-1.2-.5c-.4-.3-.9-.5-1.1-.5z" fill="#c12127"/><path d="m57.4 5.5-.3-.4h.1z" fill="#b3b3b3"/><path d="m56.7 5.3s.3 0 .5-.1c.3-.1.4-.3.4-.3 0-.1-.1-.3-.2-.3 0 0-.2-.1-.5.1s-.4.3-.4.3c0-.1.1.2.2.3z" fill="#ccc"/><path d="m57.5 4.6c0-.1-.1-.1-.1-.2 0 0-.2-.1-.5.1s-.4.3-.4.3 0 .1.1.2z" fill="#999"/><path d="m56.6 5.1c0-.1-.1-.1-.1-.2 0 0 .1-.1.3-.3.3-.1.4-.1.4-.1s0 .1.1.1c0 .1.1.1.1.1s-.1.1-.3.3c-.2.1-.4.1-.5.1.1.1.1 0 0 0z" fill="#999"/><path d="m57.4 4.7c0-.1-.1-.1 0 0-.1-.1-.2-.1-.5 0s-.3.2-.3.3c0 0 0 .1.1.1z" fill="#ccc"/><path d="m56.1 6.2h-.2l-.2-.4.1-.1z" fill="#b3b3b3"/><path d="m55.3 5.9s.3 0 .5-.1c.3-.1.4-.3.4-.3 0-.1-.1-.3-.2-.3 0 0-.2-.1-.5.1s-.4.3-.4.3z" fill="#ccc"/><path d="m56.1 5.3c0-.1-.1-.1-.1-.2 0 0-.2-.1-.5.1s-.4.3-.4.3 0 .1.1.2z" fill="#999"/><path d="m55.3 5.7c0-.1-.1-.1-.1-.2 0 0 .1-.1.3-.3.3-.1.4-.1.4-.1s0 .1.1.1c0 .1.1.1.1.1s-.1.1-.3.3c-.2.1-.4.1-.5.1 0 .1 0 .1 0 0z" fill="#999"/><path d="m56 5.3c0-.1-.1-.1 0 0-.1-.1-.2-.1-.5 0s-.3.2-.3.3c0 0 0 .1.1.1z" fill="#ccc"/><path d="m54.8 6.8h-.2l-.2-.4.1-.1z" fill="#b3b3b3"/><path d="m54 6.5s.3 0 .5-.1c.3-.1.4-.3.4-.3 0-.1-.1-.3-.2-.3 0 0-.2-.1-.5.1s-.4.3-.4.3z" fill="#ccc"/><path d="m54.8 5.9c0-.1-.1-.1-.1-.2 0 0-.2-.1-.5.1s-.4.3-.4.3 0 .1.1.2z" fill="#999"/><path d="m54 6.3c0-.1-.1-.1-.1-.2 0 0 .1-.1.3-.3.3-.1.4-.1.4-.1s0 .1.1.1c0 .1.1.1.1.1s-.1.1-.3.3c-.2.1-.4.1-.5.1 0 .1 0 .1 0 0z" fill="#999"/><path d="m54.7 6c0-.1-.1-.1 0 0-.1-.1-.2-.1-.5 0-.2 0-.3.1-.3.2 0 0 0 .1.1.1z" fill="#ccc"/><path d="m53.5 7.3-.3-.3.1-.1z" fill="#b3b3b3"/><path d="m52.8 7.1s.3 0 .5-.1c.3-.1.4-.3.4-.3 0-.1-.1-.3-.2-.3 0 0-.2-.1-.5.1s-.4.3-.4.3.1.3.2.3z" fill="#ccc"/><path d="m53.5 6.5c0-.1-.1-.1-.1-.2 0 0-.2-.1-.5.1s-.4.3-.4.3 0 .1.1.2z" fill="#999"/><path d="m52.7 6.9c0-.1-.1-.1-.1-.2 0 0 .1-.1.3-.3.3-.1.4-.1.4-.1s0 .1.1.1c0 .1.1.1.1.1s-.1.1-.3.3-.3.2-.5.1c.1.1.1.1 0 0z" fill="#999"/><path d="m53.5 6.5c0-.1-.1-.1 0 0-.1-.1-.2-.1-.5 0s-.3.2-.3.3c0 0 0 .1.1.1z" fill="#ccc"/><path d="m52.2 8-.3-.4.1-.1z" fill="#b3b3b3"/><path d="m51.5 7.7s.3 0 .5-.1c.3-.1.4-.3.4-.3 0-.1-.1-.3-.2-.3 0 0-.2-.1-.5.1s-.4.3-.4.3.1.3.2.3z" fill="#ccc"/><path d="m52.2 7.1c0-.1-.1-.1-.1-.2 0 0-.2-.1-.5.1s-.4.3-.4.3 0 .1.1.2z" fill="#999"/><path d="m51.4 7.5c0-.1-.1-.1-.1-.2 0 0 .1-.1.3-.3h.5s0 .1.1.1c0 .1.1.1.1.1s-.1.1-.3.3c-.2.1-.4.1-.4.1-.1 0-.1 0-.2-.1z" fill="#999"/><path d="m52.2 7.2c0-.1-.1-.1 0 0-.1-.1-.2-.1-.5 0s-.3.2-.3.3c0 0 0 .1.1.1z" fill="#ccc"/><path d="m50.9 8.7-.4-.4.2-.1z" fill="#b3b3b3"/><path d="m50.1 8.4s.3 0 .5-.1c.3-.1.4-.3.4-.3 0-.1-.1-.3-.2-.3 0 0-.2-.1-.5.1-.3.1-.3.2-.3.2-.1.1.1.4.1.4z" fill="#ccc"/><path d="m50.9 7.8c0-.1-.1-.1-.1-.2 0 0-.2-.1-.5.1s-.3.3-.3.3 0 .1.1.2z" fill="#999"/><path d="m50.1 8.2c0-.1-.1-.1-.1-.2 0 0 .1-.1.3-.3.3-.1.4-.1.4-.1s0 .1.1.1c0 .1.1.1.1.1s-.1.1-.3.3c-.2.1-.4.1-.5.1.1.1 0 .1 0 0z" fill="#999"/><path d="m50.8 7.8c0-.1-.1-.1 0 0-.1-.1-.2-.1-.5 0-.2.1-.2.2-.2.2s0 .1.1.1z" fill="#ccc"/><path d="m29.6 35.1-2.6-2.6 22.7-21.8 1.8 1.7z" fill="#4f0000"/><path d="m28.3 33.8-1.3-1.3 22.7-21.8.9.9z" fill="#662121"/><path d="m49.4 14.5-1.8-1.8h.1l1.8 1.7z"/><path d="m47.9 16.1-1.9-1.8.1-.1 1.9 1.8z"/><path d="m46.4 17.6-1.9-1.9.1-.1z"/><path d="m45.1 19-2-1.9.1-.1z"/><path d="m43.7 20.4-2-2 .1-.1 2 2z"/><path d="m42.5 21.7-2-2.1v-.1l2.1 2.1z"/><path d="m39.3 20.8 2.2 2-.1.1z"/><path d="m38.1 21.9 2.3 2.1h-.1z"/><path d="m39.2 25.1-2.2-2.2.1-.1 2.2 2.2z"/><path d="m38.3 26.1-2.3-2.2.1-.1 2.2 2.2z"/><path d="m37.3 27.1-2.2-2.3v-.1l2.3 2.3z"/><path d="m36.5 27.9-2.3-2.3.1-.1z"/><path d="m35.6 28.8-2.3-2.3.1-.1 2.3 2.3z"/><path d="m34.9 29.6-2.4-2.3.1-.1 2.3 2.3z"/><path d="m34.1 30.4-2.4-2.4.1-.1 2.4 2.4z"/><path d="m33.5 31.1-2.5-2.5h.1l2.5 2.4z"/><path d="m30.3 29.4 2.5 2.4-.1.1z"/><path d="m32.1 32.5-2.5-2.5z"/><path d="m31.4 33.2-2.5-2.5.1-.1 2.5 2.5z"/><path d="m30.9 33.8-2.6-2.6.1-.1 2.5 2.6z"/><path d="m27.4 32.2 2.6 2.5-.1.1z"/><path d="m27.8 31.7 2.6 2.5-.1.1z"/><g fill="#ccc"><path d="m49.4 14.5-1.8-1.8.1-.1 1.8 1.8z"/><path d="m47.9 16.1-1.8-1.9.1-.1 1.8 1.9z"/><path d="m46.4 17.6-1.9-1.9.1-.1 1.9 1.9z"/><path d="m45.1 19-2-2h.1l2 1.9z"/><path d="m43.8 20.4-2.1-2 .1-.1 2 2z"/><path d="m42.6 21.6-2.1-2 .1-.1 2.1 2z"/><path d="m39.2 20.7 2.2 2-.1.1z"/><path d="m38.1 21.8 2.3 2.1-.1.1z"/><path d="m39.2 25.1-2.2-2.2.1-.1 2.2 2.2z"/><path d="m38.3 26.1-2.3-2.3h.1z"/><path d="m37.4 27-2.3-2.3h.1z"/><path d="m36.5 27.9-2.3-2.3.1-.1 2.3 2.3z"/><path d="m33.3 26.4 2.4 2.3-.1.1z"/><path d="m34.9 29.6-2.4-2.4.1-.1 2.4 2.4z"/><path d="m34.2 30.3-2.4-2.4v-.1l2.5 2.4z"/><path d="m33.5 31-2.4-2.4v-.1l2.5 2.4z"/><path d="m30.3 29.2 2.5 2.4-.1.1z"/><path d="m32.1 32.5-2.5-2.5.1-.1z"/><path d="m31.4 33.2-2.5-2.5.1-.1 2.5 2.5z"/><path d="m30.9 33.7-2.5-2.5v-.1l2.6 2.5z"/><path d="m27.8 31.7 2.6 2.5-.1.1z"/><path d="m27.3 32.2 2.6 2.5-.1.1z"/></g><path d="m49.7 10.7s.2-.2.2-.6-.1-.9.1-1.1 7.8-4 8.2-3.9c.2 0 0 .2.4.5.5.3 1.5 0 1.5.2-.1.2-2.9 2.2-4.1 3.7-1.4 1.5-2 2.5-2.2 2.6s-1.1 0-1.5 0c-.6.1-.8.3-.8.3z" fill="#333"/><path d="m49.7 10.7s.2-.2.2-.6-.1-.9.1-1.1 7.8-4 8.2-3.9c.2 0 0 .2.4.5l-8 6z" fill="#c12127"/><path d="m50 10.7c.1-.1.1-.3.1-.5 0-.1 0-.3 0-.5 0-.1 0-.3 0-.4.6-.4 6.9-3.6 7.9-3.9 0 .1.1.2.2.2.1.1.1.1.2.2.3.2.7.2 1 .2-.2.1-.4.3-.6.5-.9.8-2.4 1.9-3.2 2.9-.6.7-1.1 1.3-1.4 1.8-.3.4-.5.7-.6.8-.1 0-.4 0-.5 0-.3 0-.7 0-.9 0-.3.1-.6.2-.7.3z" fill="#c12127"/><path d="m51.2 12.8-1.8-1.8.3-.3 1.7 1.8z" fill="#e6e6e6"/><path d="m51.2 12.8-1.8-1.8.1-.1 1.8 1.7z" fill="#c0c0c0"/><path d="m46.4 16.1c-.1.1-.2.1-.3 0s-.1-.2 0-.3.2-.1.3 0z" fill="#eddc84"/><path d="m43.6 18.8c-.1.1-.2.1-.3 0s-.1-.2 0-.3.2-.1.3 0 .1.2 0 .3z" fill="#eddc84"/><path d="m41.1 21.4c-.1.1-.2.1-.3 0s-.1-.2 0-.3.2-.1.3 0z" fill="#eddc84"/><path d="m38.9 23.5c-.1.1-.2.1-.3 0s-.1-.2 0-.3.2-.1.3 0z" fill="#eddc84"/><path d="m36.5 27.1c-.1.1-.2.1-.3 0s-.1-.2 0-.3.2-.1.3 0 .1.2 0 .3z" fill="#eddc84"/><path d="m35.3 25.8c-.1.1-.2.1-.3 0s-.1-.2 0-.3.2-.1.3 0 .1.3 0 .3z" fill="#eddc84"/><path d="m29.5 32.8c-.1.1-.2.1-.3 0s-.1-.2 0-.3.2-.1.3 0 .1.2 0 .3z" fill="#eddc84"/><path d="m33.5 28.9c-.1.1-.2.1-.3 0s-.1-.2 0-.3.2-.1.3 0 .1.2 0 .3z" fill="#eddc84"/><path d="m32.1 30.3c-.1.1-.2.1-.3 0s-.1-.2 0-.3.2-.1.3 0 .1.2 0 .3z" fill="#eddc84"/><path d="m30.7 31.7c-.1.1-.2.1-.3 0s-.1-.2 0-.3.2-.1.3 0 .1.2 0 .3z" fill="#eddc84"/><path d="m30 35.8c.1-.1.1-.2 0-.2l-3.5-3.5c-.1-.1-.2 0-.2 0l-1.7 1.7c-.1.1-.1.2 0 .2l3.5 3.5c.1.1.2 0 .2 0z" fill="#333"/><path d="m28.3 33.8-1.7-1.7h-.1s-.1 0-.1.1l-1.7 1.7s0 .1-.1.1v.1l1.7 1.7z"/><path d="m29.9 35.7c.1-.1.1-.1 0-.2l-3.3-3.3c-.1-.1-.1-.1-.2 0l-1.6 1.6c-.1.1-.1.1 0 .2l3.3 3.3c.1.1.1.1.2 0z"/><path d="m28.2 33.9-1.7-1.7h-.1-.1l-.8.8-.8.8v.1.1l1.7 1.7z" fill="#333"/><path d="m29.4 35.6s.1-.1 0-.2l-2.8-2.8s-.1 0-.2 0l-1.2 1.4s-.1.1 0 .2l2.8 2.8h.2z" fill="#333"/><path d="m28.1 34-1.4-1.4h-.1-.1l-1.3 1.4v.1.1l1.4 1.4z"/><path d="m29.3 35.6s0-.1 0-.2l-2.7-2.7s-.1 0-.2 0l-1.2 1.3v.2l2.7 2.7h.2z"/><path d="m28 34.1-1.3-1.3s0 0-.1 0h-.1l-.6.6-.7.6v.1.1l1.3 1.3z" fill="#333"/><path d="m25.1 33.9c0-.1-.1-.1-.1-.1-.1 0-.1.1-.1.1 0 .1.1.1.1.1z" fill="#808080"/><path d="m26.5 32.5c.1-.1.1-.1 0-.2s-.1-.1-.2 0-.1.1 0 .2z" fill="#808080"/><path d="m25.8 33.3c.1 0 .1-.1.1-.1 0-.1-.1-.1-.1-.1-.1 0-.1.1-.1.1-.1.1 0 .1.1.1z" fill="#808080"/><path d="m29.6 35.6c.1-.1.1-.1.2 0s.1.1 0 .2-.1.1-.2 0-.1-.2 0-.2z" fill="#333"/><path d="m28.8 36.3c0-.1.1-.1.1-.1.1 0 .1.1.1.1 0 .1-.1.1-.1.1-.1 0-.1 0-.1-.1z" fill="#333"/><path d="m28.2 37c.1 0 .1.1.1.1 0 .1-.1.1-.1.1-.1 0-.1-.1-.1-.1s0-.1.1-.1z" fill="#333"/><path d="m25.1 33.9h-.3z"/><path d="m26.5 32.5-.2-.2z"/><path d="m25.8 33.3v-.3z"/><path d="m29.6 35.6.2.2z"/><path d="m28.8 36.3h.3z"/><path d="m28.2 37v.3z"/><path d="m28.3 36.5c-.2.2-.5.1-.7 0l-2-2c-.2-.2-.2-.5 0-.7s.5-.1.7 0l2 2c.2.2.2.5 0 .7z" fill="#333"/><path d="m28.3 36.5c-.2.2-.5.1-.7 0l-2-2c-.2-.2-.2-.5 0-.7s.5-.1.7 0l2 2c.2.2.2.5 0 .7z" fill="#333"/><path d="m26.6 35.4-1-1c-.1-.1-.2-.2-.2-.3s0-.2.1-.3.2-.1.3-.1.2.1.3.2l1 1z"/><path d="m25.7 34.3c-.2-.2-.2-.4 0-.5.1-.1.4-.1.5 0l2 2c.2.2.2.4 0 .5-.1.1-.4.1-.5 0z"/><path d="m25.7 34.3c-.1-.1-.1-.2-.1-.3s0-.2.1-.3.2-.1.3-.1.2.1.3.1l1 1-.5.5z" fill="#333"/><path d="m28 36.2c-.1 0-.1-.1-.1-.1 0-.1.1-.1.1-.1.1 0 .1.1.1.1 0 .1-.1.1-.1.1z" fill="#666"/><path d="m25.9 34.2c-.1 0-.1-.1-.1-.1 0-.1.1-.1.1-.1.1 0 .1.1.1.1.1 0 0 .1-.1.1z" fill="#808080"/><path d="m27.6 35.8c-.1 0-.1-.1-.1-.1 0-.1.1-.1.1-.1.1 0 .1.1.1.1 0 .1-.1.1-.1.1z" fill="#666"/><path d="m26.4 34.6c-.1 0-.1-.1-.1-.1 0-.1.1-.1.1-.1.1 0 .1.1.1.1 0 .1-.1.1-.1.1z" fill="#808080"/><path d="m26.8 35c-.1 0-.1-.1-.1-.1 0-.1.1-.1.1-.1.1 0 .1.1.1.1 0 .1-.1.1-.1.1z" fill="#808080"/><path d="m27.2 35.4c-.1 0-.1-.1-.1-.1 0-.1.1-.1.1-.1.1 0 .1.1.1.1 0 .1-.1.1-.1.1z" fill="#666"/><path d="m29 35.8c-.2.2-.5.1-.7 0l-2-2c-.2-.2-.2-.5 0-.7s.5-.1.7 0l2 2c.1.2.2.5 0 .7z" fill="#333"/><path d="m29 35.8c-.2.2-.5.1-.7 0l-2-2c-.2-.2-.2-.5 0-.7s.5-.1.7 0l2 2c.1.2.2.5 0 .7z" fill="#333"/><path d="m27.3 34.8-1-1c-.1-.1-.2-.2-.2-.3s0-.2.1-.3.2-.1.3-.1.2.1.3.2l1 1z"/><path d="m26.3 33.7c-.2-.2-.2-.4 0-.5.1-.1.4-.1.5 0l2 2c.2.2.2.4 0 .5-.1.1-.4.1-.5 0z"/><path d="m26.3 33.7c-.1-.1-.1-.2-.1-.3s0-.2.1-.3.2-.1.3-.1.2.1.3.1l1 1-.5.5z" fill="#333"/><path d="m28.6 35.6c-.1 0-.1-.1-.1-.1 0-.1.1-.1.1-.1.1 0 .1.1.1.1.1 0 0 .1-.1.1z" fill="#666"/><path d="m26.6 33.5c-.1 0-.1-.1-.1-.1 0-.1.1-.1.1-.1.1 0 .1.1.1.1 0 .1 0 .1-.1.1z" fill="#808080"/><path d="m28.2 35.2c-.1 0-.1-.1-.1-.1 0-.1.1-.1.1-.1.1 0 .1.1.1.1.1 0 0 .1-.1.1z" fill="#666"/><path d="m27 34c-.1 0-.1-.1-.1-.1 0-.1.1-.1.1-.1.1 0 .1.1.1.1s0 .1-.1.1z" fill="#808080"/><path d="m27.4 34.4c-.1 0-.1-.1-.1-.1 0-.1.1-.1.1-.1.1 0 .1.1.1.1s0 .1-.1.1z" fill="#808080"/><path d="m27.8 34.8c-.1 0-.1-.1-.1-.1 0-.1.1-.1.1-.1.1 0 .1.1.1.1s0 .1-.1.1z" fill="#666"/><path d="m26.2 39.6c.1-.1.1-.2 0-.2l-3.5-3.5c-.1-.1-.2 0-.2 0l-1.7 1.7c-.1.1-.1.2 0 .2l3.5 3.5c.1.1.2 0 .2 0z" fill="#333"/><path d="m24.5 37.6-1.7-1.7h-.1s-.1 0-.1.1l-1.7 1.7s0 .1-.1.1v.1l1.7 1.7z"/><path d="m26.1 39.5c.1-.1.1-.1 0-.2l-3.4-3.3c-.1-.1-.1-.1-.2 0l-1.6 1.6c-.1.1-.1.1 0 .2l3.3 3.3c.1.1.1.1.2 0z"/><path d="m24.4 37.7-1.7-1.7h-.1-.1l-.8.8-.8.8v.1.1l1.7 1.7z" fill="#333"/><path d="m25.6 39.4s.1-.1 0-.2l-2.8-2.8s-.1 0-.2 0l-1.3 1.3s-.1.1 0 .2l2.8 2.8h.2z" fill="#333"/><path d="m24.3 37.8-1.4-1.4h-.1-.1l-1.3 1.3v.1.1l1.4 1.4z"/><path d="m25.6 39.3s0-.1 0-.2l-2.7-2.7s-.1 0-.2 0l-1.3 1.3v.2l2.7 2.7h.2z"/><path d="m24.2 37.9-1.3-1.3s0 0-.1 0h-.1l-.6.6-.6.6v.1.1l1.3 1.3z" fill="#333"/><path d="m21.3 37.7c0-.1-.1-.1-.1-.1-.1 0-.1.1-.1.1 0 .1.1.1.1.1z" fill="#808080"/><path d="m22.7 36.3c.1-.1.1-.1 0-.2s-.1-.1-.2 0-.1.1 0 .2z" fill="#808080"/><path d="m22 37.1c.1 0 .1-.1.1-.1 0-.1-.1-.1-.1-.1-.1 0-.1.1-.1.1-.1.1 0 .1.1.1z" fill="#808080"/><path d="m25.8 39.4c.1-.1.1-.1.2 0s.1.1 0 .2-.1.1-.2 0-.1-.2 0-.2z" fill="#333"/><path d="m25 40.1c0-.1 0-.1.1-.1s.1.1.1.1c0 .1-.1.1-.1.1-.1 0-.1 0-.1-.1z" fill="#333"/><path d="m24.4 40.8c.1 0 .1.1.1.1 0 .1-.1.1-.1.1-.1 0-.1-.1-.1-.1s0-.1.1-.1z" fill="#333"/><path d="m21.3 37.7h-.3z"/><path d="m22.7 36.3-.2-.2z"/><path d="m22 37.1v-.3z"/><path d="m25.8 39.4.2.2z"/><path d="m25 40.1h.3z"/><path d="m24.4 40.8v.3z"/><path d="m24.5 40.3c-.2.2-.5.1-.7 0l-2-2c-.2-.2-.2-.5 0-.7s.5-.1.7 0l2 2c.2.2.2.5 0 .7z" fill="#333"/><path d="m24.5 40.3c-.2.2-.5.1-.7 0l-2-2c-.2-.2-.2-.5 0-.7s.5-.1.7 0l2 2c.2.2.2.5 0 .7z" fill="#333"/><path d="m22.8 39.2-1-1c-.1-.1-.2-.2-.2-.3s0-.2.1-.3.2-.1.3-.1.2.1.3.2l1 1z"/><path d="m21.9 38.1c-.2-.2-.2-.4 0-.5.1-.1.4-.1.5 0l2 2c.2.2.2.4 0 .5-.1.1-.4.1-.5 0z"/><path d="m21.9 38.1c-.1-.1-.1-.2-.1-.3s0-.2.1-.3.2-.1.3-.1.2.1.3.1l1 1-.5.5z" fill="#333"/><path d="m24.2 40c-.1 0-.1-.1-.1-.1 0-.1.1-.1.1-.1.1 0 .1.1.1.1 0 .1 0 .1-.1.1z" fill="#666"/><path d="m22.1 38c-.1 0-.1-.1-.1-.1 0-.1.1-.1.1-.1.1 0 .1.1.1.1.1 0 0 .1-.1.1z" fill="#808080"/><path d="m23.8 39.6c-.1 0-.1-.1-.1-.1 0-.1.1-.1.1-.1.1 0 .1.1.1.1 0 .1 0 .1-.1.1z" fill="#666"/><path d="m22.6 38.4c-.1 0-.1-.1-.1-.1 0-.1.1-.1.1-.1.1 0 .1.1.1.1z" fill="#808080"/><path d="m23 38.8c-.1 0-.1-.1-.1-.1 0-.1.1-.1.1-.1.1 0 .1.1.1.1z" fill="#808080"/><path d="m23.4 39.2c-.1 0-.1-.1-.1-.1 0-.1.1-.1.1-.1.1 0 .1.1.1.1 0 .1-.1.1-.1.1z" fill="#666"/><path d="m25.2 39.6c-.2.2-.5.1-.7 0l-2-2c-.2-.2-.2-.5 0-.7s.5-.1.7 0l2 2c.1.2.2.5 0 .7z" fill="#333"/><path d="m25.2 39.6c-.2.2-.5.1-.7 0l-2-2c-.2-.2-.2-.5 0-.7s.5-.1.7 0l2 2c.1.2.2.5 0 .7z" fill="#333"/><path d="m23.5 38.5-1-1c-.1-.1-.2-.2-.2-.3s0-.2.1-.3.2-.1.3-.1.2.1.3.2l1 1z"/><path d="m22.6 37.5c-.2-.2-.2-.4 0-.5.1-.1.4-.1.5 0l2 2c.2.2.2.4 0 .5-.1.1-.4.1-.5 0z"/><path d="m22.6 37.5c-.1-.1-.1-.2-.1-.3s0-.2.1-.3.2-.1.3-.1.2.1.3.1l1 1-.5.5z" fill="#333"/><path d="m24.8 39.4c-.1 0-.1-.1-.1-.1 0-.1.1-.1.1-.1.1 0 .1.1.1.1.1 0 0 .1-.1.1z" fill="#666"/><path d="m22.8 37.3c-.1 0-.1-.1-.1-.1 0-.1.1-.1.1-.1.1 0 .1.1.1.1 0 .1 0 .1-.1.1z" fill="#808080"/><path d="m24.4 39c-.1 0-.1-.1-.1-.1 0-.1.1-.1.1-.1.1 0 .1.1.1.1.1 0 0 .1-.1.1z" fill="#666"/><path d="m23.2 37.7c-.1 0-.1-.1-.1-.1 0-.1.1-.1.1-.1.1 0 .1.1.1.1 0 .1 0 .1-.1.1z" fill="#808080"/><path d="m23.6 38.1c-.1 0-.1-.1-.1-.1 0-.1.1-.1.1-.1.1 0 .1.1.1.1 0 .1 0 .1-.1.1z" fill="#808080"/><path d="m24 38.6c-.1 0-.1-.1-.1-.1 0-.1.1-.1.1-.1.1 0 .1.1.1.1.1 0 0 .1-.1.1z" fill="#666"/><path d="m18.7 41.4c0 .1 0 .1-.1.1s-.1 0-.1-.1 0-.1.1-.1c0 0 .1 0 .1.1z"/><path d="m19.1 41.8c0 .1 0 .1-.1.1s-.1 0-.1-.1 0-.1.1-.1c0 0 .1 0 .1.1z"/><path d="m19.5 42.2c0 .1 0 .1-.1.1s-.1 0-.1-.1 0-.1.1-.1.1.1.1.1z"/><path d="m19.9 42.7c0 .1 0 .1-.1.1s-.1 0-.1-.1 0-.1.1-.1.1 0 .1.1z" fill="#333"/><path d="m20.4 43.1c0 .1 0 .1-.1.1s-.1 0-.1-.1 0-.1.1-.1z" fill="#333"/><path d="m20.8 43.5c0 .1 0 .1-.1.1s-.1 0-.1-.1 0-.1.1-.1z" fill="#333"/><path d="m21.4 43.8c-.1.1-.3.1-.4 0l-2.8-2.8c-.1-.1-.1-.3 0-.4l1.5-1.5c.1-.1.3-.1.4 0l2.8 2.8c.1.1.1.3 0 .4z" fill="#333"/><path d="m19.6 42.4-1.4-1.4s-.1-.1-.1-.2 0-.1.1-.2l.7-.7.7-.7c.1-.1.1-.1.2-.1s.1 0 .2.1l1.4 1.4z"/><path d="m18.3 40.9s0-.1 0-.2l1.5-1.5s.1-.1.2 0l2.8 2.8v.1.1l-1.5 1.5s-.1.1-.2 0z"/><path d="m18.3 40.9c0-.1 0-.1 0-.2l.7-.7.7-.7h.1.1l1.4 1.4-1.7 1.7z" fill="#333"/><path d="m20.7 40.2c0 .1-.1.1-.1.1-.1 0-.1-.1-.1-.1 0-.1.1-.1.1-.1.1-.1.1 0 .1.1z"/><path d="m20.7 40.2s-.1.1 0 0c-.1.1-.2.1-.2 0s0-.1.2 0c-.1-.1 0-.1 0 0z" fill="#333"/><path d="m20.3 39.8c0 .1-.1.1-.1.1-.1 0-.1-.1-.1-.1 0-.1.1-.1.1-.1 0-.1.1 0 .1.1z"/><path d="m20.3 39.8s-.1.1 0 0c-.1.1-.2.1-.2 0s0-.1.2 0c-.1-.1 0-.1 0 0z" fill="#333"/><path d="m21.1 40.6c0 .1-.1.1-.1.1-.1 0-.1-.1-.1-.1 0-.1.1-.1.1-.1.1-.1.1 0 .1.1z"/><path d="m21.1 40.6c0 .1-.1.1 0 0-.1.1-.2.1-.2 0s0-.1.2 0c-.1-.1 0-.1 0 0z" fill="#333"/><path d="m21.6 41c0 .1-.1.1-.1.1-.1 0-.1-.1-.1-.1 0-.1.1-.1.1-.1z" fill="#333"/><path d="m21.5 41c0 .1 0 .1 0 0-.1.1-.2.1-.2 0 0 0 .1-.1.2 0 0-.1 0 0 0 0z"/><path d="m22 41.5c0 .1-.1.1-.1.1-.1 0-.1-.1-.1-.1 0-.1.1-.1.1-.1.1-.1.1 0 .1.1z" fill="#333"/><path d="m22 41.5s-.1.1 0 0c-.1.1-.2.1-.2 0s0-.1.2 0c-.1-.1 0-.1 0 0z"/><path d="m22.4 41.9c0 .1-.1.1-.1.1-.1 0-.1-.1-.1-.1 0-.1.1-.1.1-.1.1 0 .1 0 .1.1z" fill="#333"/><path d="m22.4 41.9c0 .1-.1.1 0 0-.1.1-.2.1-.2 0 0 0 0-.1.2 0-.1-.1 0 0 0 0z"/><path d="m19.3 41-.3-.3.6-.6.3.3z" fill="#1a1a1a"/><path d="m19.7 41.3-.3-.3.6-.6.3.4z" fill="#1a1a1a"/><path d="m19.9 41.5.6-.6.4.4-.6.6z" fill="#1a1a1a"/><path d="m20.7 42.2-.4-.3.6-.6.3.3z" fill="#1a1a1a"/><path d="m21.1 42.6-.3-.3.6-.6.3.4z" fill="#1a1a1a"/><path d="m21.5 43-.3-.3.6-.6.3.4z" fill="#1a1a1a"/><path d="m20.5 40.8.2-.2.3.4-.2.2z"/><path d="m20.9 41.3.2-.2.4.4-.2.2z" fill="#333"/><path d="m21.4 41.7.2-.2.4.4-.2.2z" fill="#333"/><path d="m21.8 42.2.2-.2.4.4-.2.2z" fill="#333"/><path d="m19.5 40.1.2-.2.4.4-.2.2z"/><path d="m20 40.5.2-.2.4.4-.2.2z"/><path d="m19.3 40.8s-.1 0-.2 0c0-.1 0-.1 0-.2l.3-.2h.2v.2z" fill="#333"/><path d="m19.8 41.2s-.1 0-.2 0c0-.1 0-.1 0-.2l.3-.2h.2v.2z" fill="#333"/><path d="m20.2 41.6s-.1 0-.2 0c0-.1 0-.1 0-.2l.3-.2h.2v.2z" fill="#333"/><path d="m20.7 42s-.1 0-.2 0c0-.1 0-.1 0-.2l.3-.2h.2v.2z" fill="#333"/><path d="m21.1 42.4s-.1 0-.2 0c0-.1 0-.1 0-.2l.3-.2h.2v.2z" fill="#333"/><path d="m21.6 42.8s-.1 0-.2 0c0-.1 0-.1 0-.2l.3-.2h.2v.2z" fill="#333"/><path d="m19.6 41.6.2-.2.4.4-.2.1z"/><path d="m20.2 42 .2-.2.4.4-.2.2z" fill="#333"/><path d="m20.6 42.5.2-.2.4.4-.2.2z" fill="#333"/><path d="m21 42.9.2-.2.4.4-.2.2z" fill="#333"/><path d="m18.8 40.9.2-.2.4.4-.2.2z"/><path d="m19.2 41.1.2-.2.4.4-.2.2z"/><path d="m19.4 40.7c0 .1-.1.1 0 0-.1.1-.2 0-.2 0s0-.1.2 0c-.1-.1 0 0 0 0z"/><path d="m19.8 41.1c-.1.1-.2 0-.2 0 0-.1.1-.1.2 0 0-.1 0-.1 0 0z"/><path d="m20.2 41.5s0 .1 0 0c-.1.1-.2 0-.2 0 0-.1.1-.1.2 0 0-.1 0-.1 0 0z"/><path d="m20.7 41.9c0 .1-.1.1 0 0-.1.1-.2 0-.2 0s0-.1.2 0c-.1-.1 0 0 0 0z"/><path d="m21.2 42.3c0 .1-.1.1 0 0-.1.1-.2 0-.2 0s0-.1.2 0c-.1-.1 0 0 0 0z"/><path d="m21.6 42.8c-.1.1-.2 0-.2 0 0-.1 0-.1.2 0-.1-.1 0-.1 0 0z"/><path d="m49.6 11-30.3 29.7 30.3-29.7 1.3-1.6.1-.1z" fill="none" stroke="#999" stroke-miterlimit="10" stroke-width=".1"/><path d="m50 11.3-30.2 29.8 30.2-29.8 2.3-2.7h.1z" fill="none" stroke="#999" stroke-miterlimit="10" stroke-width=".1"/><path d="m50.3 11.6-30.1 29.9 30.1-29.9 3.3-3.6h.1z" fill="none" stroke="#999" stroke-miterlimit="10" stroke-width=".1"/><path d="m51.2 12.5-29.7 30.2 29.7-30.2 6.4-6.5h-.1z" fill="none" stroke="#999" stroke-miterlimit="10" stroke-width=".1"/><path d="m50.9 12.2-29.8 30.1 29.8-30.1 5.4-5.6h-.1z" fill="none" stroke="#999" stroke-miterlimit="10" stroke-width=".1"/><path d="m50.6 11.9-30 30 30-30 4.4-4.6h-.1z" fill="none" stroke="#999" stroke-miterlimit="10" stroke-width=".1"/><path d="m57.8 6.5c-.2.1-.4.1-.5-.1s-.1-.4.1-.5.4-.1.5.1c.1.1 0 .3-.1.5z" fill="#f2f2f2"/><path d="m57.7 6.4c-.1.1-.3.1-.4-.1 0-.1 0-.3.1-.3.1-.1.3-.1.4.1 0 0 0 .2-.1.3z" fill="#b3b3b3"/><path d="m57.6 6.3c-.1.1-.2 0-.2 0-.1-.1 0-.2 0-.2.1-.1.2 0 .2 0 .1 0 .1.1 0 .2z" fill="#ccc"/><path d="m56.5 7.1c-.2.1-.4.1-.5-.1s-.1-.4.1-.5.4-.1.5.1.1.4-.1.5z" fill="#f2f2f2"/><path d="m56.4 7c-.1.1-.3.1-.4 0 0-.2 0-.3.1-.4s.3-.1.4.1c0 .1 0 .2-.1.3z" fill="#b3b3b3"/><path d="m56.3 6.9c-.1.1-.2 0-.2 0-.1-.1 0-.2 0-.2.1-.1.2 0 .2 0 .1.1.1.2 0 .2z" fill="#ccc"/><path d="m55.2 7.8c-.2.1-.4.1-.5-.1s-.1-.4.1-.5.4-.1.5.1c.1.1.1.3-.1.5z" fill="#f2f2f2"/><path d="m55.1 7.7c-.1.1-.3.1-.4-.1-.1-.1-.1-.3.1-.4.1-.1.3-.1.4.1.1.1 0 .3-.1.4z" fill="#b3b3b3"/><path d="m55.1 7.6c-.1 0-.2 0-.2 0-.1-.1 0-.2 0-.2.1-.1.2 0 .2 0 .1 0 0 .1 0 .2z" fill="#ccc"/><path d="m53.9 8.4c-.2.1-.4.1-.5-.1s-.1-.4.1-.5.4-.1.5.1c.1.1 0 .4-.1.5z" fill="#f2f2f2"/><path d="m53.8 8.3c-.1.1-.3.1-.4-.1-.1-.1-.1-.3.1-.4.1-.1.3-.1.4.1 0 .2 0 .3-.1.4z" fill="#b3b3b3"/><path d="m53.7 8.2c-.1.1-.2 0-.2 0-.1-.1 0-.2 0-.2.1-.1.2 0 .2 0 .1.1.1.2 0 .2z" fill="#ccc"/><path d="m52.6 9c-.2.1-.4.1-.5-.1s-.1-.4.1-.5.4-.1.5.1.1.4-.1.5z" fill="#f2f2f2"/><path d="m52.5 8.9c-.1.1-.3.1-.4 0s-.1-.3.1-.4c.1-.1.3-.1.4.1 0 .1 0 .2-.1.3z" fill="#b3b3b3"/><path d="m52.4 8.8c-.1 0-.2 0-.2 0-.1-.1 0-.2 0-.2.1-.1.2 0 .2 0 .1.1.1.2 0 .2z" fill="#ccc"/><path d="m51.3 9.7c-.2.1-.4.1-.5-.1s-.1-.4.1-.5c.1-.2.3-.1.4 0 .2.2.1.5 0 .6z" fill="#f2f2f2"/><path d="m51.2 9.6c-.1.1-.3.1-.4-.1-.1-.1-.1-.3.1-.4.1-.1.3-.1.4.1 0 .1 0 .3-.1.4z" fill="#b3b3b3"/><path d="m51.1 9.5c-.1.1-.2 0-.2 0-.1-.1 0-.2 0-.2.1-.1.2 0 .2 0 .1.1.1.2 0 .2z" fill="#ccc"/><path d="m22.8 45.4c-.3.3-.3.9 0 1.3.3.3.9.3 1.3 0 .3-.3.3-.9 0-1.3s-.9-.4-1.3 0z"/><path d="m22.8 46.6c.3.3.9.3 1.3 0 .3-.3.3-.9 0-1.3z" fill="#333"/><path d="m23.9 46.4c-.2.2-.6.2-.8 0s-.2-.6 0-.8.6-.2.8 0 .2.6 0 .8z"/><path d="m23.1 46.4c-.2-.2-.2-.6 0-.8s.6-.2.8 0z" fill="#333"/><circle cx="23.2" cy="49.7" r=".9"/><path d="m22.6 50.3c.3.3.9.3 1.3 0 .3-.3.3-.9 0-1.3z" fill="#333"/><circle cx="23.2" cy="49.7" r=".6"/><path d="m22.8 50.1c-.2-.2-.2-.6 0-.8s.6-.2.8 0z" fill="#333"/></svg>