<svg enable-background="new 0 0 60 60" height="60" viewBox="0 0 60 60" width="60" xmlns="http://www.w3.org/2000/svg" xmlns:xlink="http://www.w3.org/1999/xlink"><linearGradient id="a" gradientTransform="matrix(.7071 .7071 .7071 -.7071 -572.2545 265.3247)" gradientUnits="userSpaceOnUse" x1="258.9307" x2="258.9307" y1="564.4967" y2="565.289"><stop offset="0" stop-color="#e5e2df"/><stop offset="0" stop-color="#dedad6"/><stop offset=".05801176" stop-color="#cfcac8"/><stop offset=".1688" stop-color="#aba6a8"/><stop offset=".264" stop-color="#8c888e"/><stop offset=".5225" stop-color="#f3f4f4"/><stop offset=".5836" stop-color="#e1e0e1"/><stop offset=".7008" stop-color="#b9b6b8"/><stop offset=".8611" stop-color="#858085"/><stop offset=".8764" stop-color="#817c80"/><stop offset="1" stop-color="#d2d3d4"/><stop offset="1" stop-color="#a8aaad"/></linearGradient><linearGradient id="b"><stop offset=".005618" stop-color="#afb1b8"/><stop offset=".239" stop-color="#acacad"/><stop offset=".3539" stop-color="#a9a8a7"/><stop offset=".4916" stop-color="#9b9d9f"/><stop offset=".6742" stop-color="#848d92"/><stop offset="1" stop-color="#657177"/></linearGradient><radialGradient id="c" cx="328.0575" cy="739.1773" gradientTransform="matrix(.5303 .5303 .5303 -.5303 -559.8785 268.5057)" gradientUnits="userSpaceOnUse" r=".2706" xlink:href="#b"/><radialGradient id="d" cx="329.06" cy="739.1773" gradientTransform="matrix(.5303 .5303 .5303 -.5303 -559.8785 268.5057)" gradientUnits="userSpaceOnUse" r=".2706" xlink:href="#b"/><radialGradient id="e" cx="330.0681" cy="739.1773" gradientTransform="matrix(.5303 .5303 .5303 -.5303 -559.8785 268.5057)" gradientUnits="userSpaceOnUse" r=".2706" xlink:href="#b"/><radialGradient id="f" cx="331.1125" cy="739.1773" gradientTransform="matrix(.5303 .5303 .5303 -.5303 -559.8785 268.5057)" gradientUnits="userSpaceOnUse" r=".2705" xlink:href="#b"/><radialGradient id="g" cx="332.1621" cy="739.1773" gradientTransform="matrix(.5303 .5303 .5303 -.5303 -559.8785 268.5057)" gradientUnits="userSpaceOnUse" r=".2706" xlink:href="#b"/><radialGradient id="h" cx="333.1046" cy="739.1773" gradientTransform="matrix(.5303 .5303 .5303 -.5303 -559.8785 268.5057)" gradientUnits="userSpaceOnUse" r=".2706" xlink:href="#b"/><path d="m52.7 2.3-.6-.4.1-.1z" fill="#b4b4b4"/><path d="m51.6 2.4c.1 0 .4-.1.7-.4s.4-.6.4-.7-.4-.4-.4-.5c-.1 0-.3 0-.7.4s-.4.6-.4.7c-.1.1.3.5.4.5z" fill="#ccc"/><path d="m52.5 1c-.1-.1-.2-.2-.2-.2-.1 0-.3 0-.7.4s-.4.6-.4.7c0 0 .1.2.2.3z" fill="#989898"/><path d="m51.4 2.1c-.1-.1-.2-.1-.2-.2s0-.2.4-.6c.4-.3.6-.3.6-.3s.1.1.2.2.1.2.2.2c0 .1-.1.3-.4.6s-.5.4-.6.4c0-.1-.1-.2-.2-.3z" fill="#989898"/><path d="m50.9 4.2-.2.2-.4-.5.1-.2z" fill="#b4b4b4"/><path d="m49.7 4.4c.1 0 .4-.1.7-.4s.4-.6.4-.7-.4-.4-.4-.5c-.1 0-.3 0-.7.4s-.4.6-.4.7c-.1.1.3.5.4.5z" fill="#ccc"/><path d="m50.6 3c-.1-.1-.2-.2-.2-.2-.1 0-.3 0-.7.4s-.4.6-.4.7c0 0 .1.2.2.3z" fill="#989898"/><path d="m49.6 4.1c-.1-.1-.2-.2-.2-.2 0-.1 0-.2.4-.6.4-.3.5-.4.6-.3 0 0 .1.1.2.2s.1.2.2.2c0 .1-.1.3-.4.6s-.5.4-.6.4c-.1-.2-.1-.2-.2-.3z" fill="#989898"/><path d="m48.9 6-.6-.4.1-.1z" fill="#b4b4b4"/><path d="m47.7 6.1c.1 0 .4-.1.7-.4s.4-.6.4-.7-.4-.4-.4-.5c-.1 0-.3 0-.7.4s-.4.6-.4.7.4.5.4.5z" fill="#ccc"/><path d="m48.7 4.7c-.1-.1-.2-.2-.2-.2-.1 0-.3 0-.7.4s-.4.6-.4.7c0 0 .1.2.2.3z" fill="#989898"/><path d="m47.6 5.8c-.1-.1-.2-.2-.2-.2 0-.1 0-.2.4-.6.4-.3.5-.4.6-.3 0 0 .1.1.2.2.1 0 .1.1.1.1 0 .1-.1.3-.4.6-.2.3-.4.4-.5.4s-.1-.1-.2-.2z" fill="#989898"/><path d="m58.2 5.9-.6-.4.1-.1z" fill="#b4b4b4"/><path d="m58 7c.1 0 .4-.1.7-.4s.4-.6.4-.7-.4-.4-.4-.5c-.1 0-.3 0-.7.4s-.4.6-.4.7.4.5.4.5z" fill="#ccc"/><path d="m59 5.6c-.1-.1-.2-.2-.2-.2-.1 0-.3 0-.7.4s-.4.6-.4.7c0 0 .1.2.2.3z" fill="#989898"/><path d="m57.9 6.7c-.1-.1-.2-.2-.2-.2 0-.1 0-.2.4-.6.4-.3.5-.4.6-.3 0 0 .1.1.2.2.1 0 .1.1.1.1 0 .1 0 .3-.3.6s-.5.4-.6.4c-.1-.1-.1-.1-.2-.2z" fill="#989898"/><path d="m56.3 7.9-.6-.4.1-.1z" fill="#b4b4b4"/><path d="m56.2 9c.1 0 .4-.1.7-.4s.4-.6.4-.7-.4-.4-.4-.5c-.1 0-.3 0-.7.4s-.4.6-.4.7c-.1.1.3.5.4.5z" fill="#ccc"/><path d="m57.1 7.6c-.1-.1-.2-.2-.2-.2-.1 0-.3 0-.7.4s-.4.6-.4.7c0 0 .1.2.2.3z" fill="#989898"/><path d="m56 8.7c-.1-.1-.2-.2-.2-.2 0-.1 0-.2.4-.6.4-.3.5-.4.6-.3 0 0 .1.1.2.2s.1.2.2.2c0 .1-.1.3-.4.6s-.5.4-.6.4c0-.2-.1-.2-.2-.3z" fill="#989898"/><path d="m54.5 10.1-.1.2-.5-.5.1-.2z" fill="#b4b4b4"/><path d="m54.4 11.3c.1 0 .4-.1.7-.4s.4-.6.4-.7-.4-.4-.4-.5c-.1 0-.3 0-.7.4s-.4.6-.4.7c-.1 0 .3.4.4.5z" fill="#ccc"/><path d="m55.3 9.9c-.1-.1-.2-.2-.2-.2-.1 0-.3 0-.7.4s-.4.6-.4.7c0 0 .1.2.2.3z" fill="#989898"/><path d="m54.2 10.9c-.1-.1-.2-.2-.2-.2 0-.1 0-.2.4-.6.4-.3.6-.3.6-.3s.1.1.2.2.1.2.2.2c0 .1-.1.3-.4.6s-.5.4-.6.4c0-.1-.1-.2-.2-.3z" fill="#989898"/><path d="m.6 46.4c-.6-1.7-.9-3.9 0-6.1 1.9-4.7 6.6-6.1 8.9-6.7s5.5-.9 6.6-2c1.7-1.7 1.8-4 3.1-5.7 1.3-1.6 4-3.5 4.8-2.7.4.4-1.4 2.6-1.4 5.5 0 3.4.8 4.3.8 4.3l1.7 2.8.9.8s1.3 1.3 3.4 1.9c2.6.8 4.8.2 4.8.9 0 .6-1.4 1.4-3.4 1.9-1.1.3-2.3 1.2-2.9 2-1.1 1.6-1.3 4.5-2 6.7-.7 2.3-1.8 5.3-4.5 7.4s-5.9 1.9-8.6 1c-2.6-.9-5.5-3.1-7.2-4.9-1.7-1.4-3.9-3.9-5-7.1z" fill="#781d77"/><path d="m26.4 43.2c0-2-.4-4.8-.4-4.8s-2.9 2.9-4.7 4.7-3.6 3.6-5.2 5.4-2.4 3.8-2.8 5.7c-.3 1.3-.3 3.4-.1 4.2 2.5.7 5.4.8 8-1.2 2.4-1.9 3.5-4.9 4.2-7.1.3-.9 1-4.1 1-6.9z" fill="#b2a05c"/><path d="m26.3 45.2c.1-.7.1-1.3.1-2 0-2-.4-4.8-.4-4.8s-2.9 2.9-4.7 4.7-3.6 3.6-5.2 5.4-2.4 3.8-2.8 5.7c-.3 1.3-.3 3.3-.1 4.1z" fill="#a48e3d"/><path d="m13.5 58.1c-.1-.9-.1-2.8.1-3.9.5-2.2 1.4-4 2.7-5.5 1.5-1.6 3.1-3.3 4.7-4.9l.5-.5 4.3-4.3c.1.9.3 2.8.3 4.2 0 2.7-.7 5.9-1 6.7-.7 2.3-1.8 5.1-4.1 6.9-2 1.7-4.5 2.1-7.5 1.3z" fill="#a48e3d"/><path d="m46.5 10.5s.4-.8.5-1.5.1-1.8.4-2.2 1.8-1.2 3-2.3c1.3-1.1 3.2-3.5 3.6-3.7.5-.2 1.7.2 2.9.5 1.5.5 3.1 1.3 3.1 1.8s-2.7 2.6-4.3 4.6-2.3 3.3-2.8 3.6-1.4.2-2.1.4c-1.1.2-2.2 1.1-2.2 1.1z" fill="#781d77"/><path d="m57.6 1.6c-.3-.1-.4-.2-.7-.3-1.2-.3-2.4-.6-2.9-.5-.4.1-2.3 2.6-3.5 3.7-1.2 1.2-2.6 2-3 2.3-.3.4-.3 1.5-.4 2.2s-.5 1.5-.5 1.5l1.1 1.1z" fill="#781d77"/><path d="m46.8 10.5c.1-.3.4-.9.5-1.4 0-.2.1-.5.1-.8 0-.5.1-1.1.3-1.3.1-.1.4-.4.8-.6.6-.4 1.4-1 2.1-1.7.6-.5 1.3-1.4 1.9-2.1s1.3-1.5 1.5-1.6c.4-.1 1.6.2 2.7.5h.1c1.2.4 2.3.9 2.8 1.3.1.1.1.2.1.2 0 .2-.8 1-1.5 1.6-.9.8-1.9 1.8-2.8 2.8-.7.9-1.3 1.6-1.7 2.2-.5.7-.8 1.1-1.1 1.3s-.8.2-1.3.2c-.3 0-.5 0-.7.1-.9.2-1.8.7-2.1 1z" fill="#781d77"/><path d="m46.5 10.6s2.2-2.6 3.8-3.9c1.8-1.4 3.7-2.6 5.1-2.9 1-.3 2.5-.2 2.5 0s-.7.1-2.8 1.9c-1.2 1.1-3 3-4.5 4.8-.7.9-1.9 2.2-1.9 2.2z" fill="#a48e3d"/><path d="m51.6 5.4c-.2.2-.5.1-.7-.1s-.1-.5.1-.7.5-.1.7.1c.1.3.1.6-.1.7z" fill="#ccc"/><path d="m49.3 7.3c-.2.2-.5.1-.7-.1s-.1-.5.1-.7.5-.1.7.1c.1.2.1.5-.1.7z" fill="#ccc"/><path d="m53.5 3.4c-.2.2-.5.1-.7-.1s-.1-.5.1-.7.5-.1.7.1.1.5-.1.7z" fill="#ccc"/><path d="m54.7 6.7c-.1.2-.1.5.1.6s.5.1.6-.1.1-.5-.1-.6-.5-.1-.6.1z" fill="#ccc"/><path d="m52.9 9.1c-.1.2-.1.5.1.6s.5.1.6-.1.1-.5-.1-.6c-.2-.2-.4-.1-.6.1z" fill="#ccc"/><path d="m56.7 4.7c-.1.2-.1.5.1.6s.5.1.6-.1.1-.5-.1-.6c-.2-.2-.5-.1-.6.1z" fill="#ccc"/><path d="m25.4 40.5c.1-.1.2-.1.3 0s.1.2 0 .3-.2.1-.3 0-.1-.2 0-.3z" fill="#010101"/><path d="m25.4 40.5s.1 0 0 0l.3.3z" fill="#818181"/><path d="m48.5 12c.1-.1.2-.1.3 0s.1.2 0 .3-.2.1-.3 0c0-.2 0-.3 0-.3z" fill="#010101"/><path d="m48.6 12c0-.1 0-.1 0 0l.3.2-.3-.2c-.1 0-.1 0 0 0z" fill="#818181"/><path d="m46.9 10.5c0-.1.1-.2.2-.2s.2.1.2.2-.1.2-.2.2-.2-.1-.2-.2z" fill="#010101"/><path d="m46.9 10.5h.4z" fill="#818181"/><path d="m11.8 51-3.6-3.5.6-.6 3.5 3.6z" fill="url(#a)"/><path d="m25.5 36.5c-.4.1-.8-.4-1.8-1.4s-1.1-1.3-1.1-1.7c.1-.3 23.9-22.9 23.9-22.9l2 2c.1.1-22.6 23.9-23 24z" fill="#967e32"/><path d="m23.9 35.3s-.9-1-1.1-1.2-.2-.4-.1-.6c0-.1 6-5.9 12-11.6s11.9-11.3 11.9-11.3l1 1z" fill="#b99b38"/><path d="m46.4 14.9-2.1-2.2h.1l2.1 2.1z" fill="#010101"/><path d="m44.8 16.5-2.2-2.2.1-.1 2.2 2.2z" fill="#010101"/><path d="m43.3 18.2-2.3-2.3.1-.1 2.2 2.3z" fill="#010101"/><path d="m41.8 19.7-2.3-2.4 2.4 2.3z" fill="#010101"/><path d="m40.4 21.2-2.4-2.4.1-.1 2.4 2.4z" fill="#010101"/><path d="m39.1 22.5-2.5-2.5.1-.1 2.5 2.5z" fill="#010101"/><path d="m35.3 21.3 2.6 2.5-.1.1z" fill="#010101"/><path d="m34.1 22.5 2.7 2.5-.1.1z" fill="#010101"/><path d="m35.6 26.2-2.7-2.6.1-.1 2.7 2.6z" fill="#010101"/><path d="m31.9 24.6 2.8 2.6-.1.1z" fill="#010101"/><path d="m33.6 28.3-2.7-2.8z" fill="#010101"/><path d="m32.7 29.2-2.8-2.8h.1l2.8 2.7z" fill="#010101"/><path d="m29 27.3 2.9 2.8-.1.1z" fill="#010101"/><path d="m30.9 31-2.8-2.8.1-.1 2.8 2.8z" fill="#010101"/><path d="m30.2 31.8-2.9-2.9h.1l2.9 2.8z" fill="#010101"/><path d="m29.4 32.5-2.9-2.8.1-.1 2.9 2.9z" fill="#010101"/><path d="m25.7 30.4 3 2.8-.1.1z" fill="#010101"/><path d="m27.9 34.1-2.9-2.9.1-.1 2.9 2.9z" fill="#010101"/><path d="m27.2 34.8-2.9-2.9v-.1l3 2.9z" fill="#010101"/><path d="m26.6 35.4-2.9-2.9.1-.1 2.9 2.9z" fill="#010101"/><path d="m23.2 33 3 2.9-.1.1z" fill="#010101"/><g fill="#ccc"><path d="m46.5 14.8-2.2-2.1.1-.1z"/><path d="m44.9 16.5-2.2-2.2v-.1l2.3 2.2z"/><path d="m43.3 18.2-2.3-2.3.1-.1 2.3 2.3z"/><path d="m41.8 19.7-2.3-2.4.1-.1 2.3 2.4z"/><path d="m40.4 21.1-2.4-2.4.1-.1z"/><path d="m39.2 22.5-2.5-2.5.1-.1 2.5 2.5z"/><path d="m35.4 21.3 2.6 2.5-.1.1z"/><path d="m34.1 22.4 2.7 2.5-.1.1z"/><path d="m35.6 26.2-2.6-2.7v-.1l2.7 2.7z"/><path d="m34.6 27.2-2.7-2.7h.1l2.7 2.6z"/><path d="m33.6 28.2-2.7-2.7.1-.1z"/><path d="m32.7 29.2-2.8-2.8.1-.1 2.8 2.8z"/><path d="m31.8 30.1-2.8-2.8.1-.1 2.8 2.8z"/><path d="m31 31-2.9-2.8.1-.1 2.8 2.8z"/><path d="m30.2 31.8-2.9-2.9.1-.1 2.9 2.9z"/><path d="m29.5 32.5-2.9-2.9.1-.1 2.9 2.9z"/><path d="m25.8 30.4 3 2.8-.1.1z"/><path d="m28 34.1-3-3h.1z"/><path d="m27.3 34.8-3-3h.1z"/><path d="m26.7 35.4-3-3 .1-.1 3 3z"/><path d="m23.1 33 3 2.9-.1.1z"/></g><path d="m43.1 16.4c-.1.1-.2.1-.3 0s-.1-.3 0-.3c.1-.1.2-.1.3 0 .1 0 .1.2 0 .3z" fill="#eedd84"/><path d="m40.1 19.4c-.1.1-.2.1-.3 0s-.1-.3 0-.3c.1-.1.2-.1.3 0 .1 0 .1.2 0 .3z" fill="#eedd84"/><path d="m37.5 22c-.1.1-.2.1-.3 0s-.1-.3 0-.3c.1-.1.2-.1.3 0 .1 0 .1.2 0 .3z" fill="#eedd84"/><path d="m35.1 24.4c-.1.1-.2.1-.3 0s-.1-.3 0-.3c.1-.1.2-.1.3 0s.1.2 0 .3z" fill="#eedd84"/><path d="m32.8 28.2c-.1.1-.2.1-.3 0s-.1-.3 0-.3c.1-.1.2-.1.3 0s.1.3 0 .3z" fill="#eedd84"/><path d="m31.2 26.7c-.1.1-.2.1-.3 0s-.1-.3 0-.3c.1-.1.2-.1.3 0 .1 0 .1.2 0 .3z" fill="#eedd84"/><path d="m29.4 30.1c-.1.1-.2.1-.3 0s-.1-.3 0-.3c.1-.1.2-.1.3 0 .1 0 .1.2 0 .3z" fill="#eedd84"/><path d="m27.9 31.6c-.1.1-.2.1-.3 0s-.1-.3 0-.3c.1-.1.2-.1.3 0s.1.2 0 .3z" fill="#eedd84"/><path d="m26.3 33.1c-.1.1-.2.1-.3 0s-.1-.3 0-.3c.1-.1.2-.1.3 0s.1.2 0 .3z" fill="#eedd84"/><path d="m25.2 34.3c-.1.1-.2.1-.3 0s-.1-.3 0-.3.2-.1.3 0z" fill="#eedd84"/><path d="m6.3 50.6c-.1.1-.2.1-.3 0s-.1-.2 0-.3.2-.1.3 0z" fill="url(#c)"/><path d="m6.8 51.2c-.1.1-.2.1-.3 0s-.1-.2 0-.3.2-.1.3 0c.1 0 .1.2 0 .3z" fill="url(#d)"/><path d="m7.3 51.7c-.1.1-.2.1-.3 0 0-.1 0-.2 0-.3.1-.1.2-.1.3 0s.1.2 0 .3z" fill="url(#e)"/><path d="m7.9 52.2c-.1.1-.2.1-.3 0s-.1-.2 0-.3.2-.1.3 0z" fill="url(#f)"/><path d="m8.4 52.8c-.1.1-.2.1-.3 0s-.1-.2 0-.3.2-.1.3 0 .1.2 0 .3z" fill="url(#g)"/><path d="m8.9 53.3c-.1.1-.2.1-.3 0s-.1-.2 0-.3.2-.1.3 0 .1.2 0 .3z" fill="url(#h)"/><circle cx="18.4" cy="51" fill="#010101" r="1.2"/><path d="m17.5 51.9c.5.5 1.3.5 1.7 0 .5-.5.5-1.3 0-1.7z" fill="#333"/><path d="m18.9 51.6c-.3.3-.8.3-1.1 0s-.3-.8 0-1.1.8-.3 1.1 0 .3.8 0 1.1z" fill="#010101"/><path d="m17.8 51.6c-.3-.3-.3-.8 0-1.1s.8-.3 1.1 0z" fill="#333"/><path d="m20.8 52c-.5.5-.5 1.3 0 1.7.5.5 1.3.5 1.7 0 .5-.5.5-1.3 0-1.7-.5-.5-1.3-.5-1.7 0z" fill="#010101"/><path d="m20.8 53.7c.5.5 1.3.5 1.7 0 .5-.5.5-1.3 0-1.7z" fill="#333"/><circle cx="21.6" cy="52.9" fill="#010101" r=".8"/><path d="m21.1 53.4c-.3-.3-.3-.8 0-1.1s.8-.3 1.1 0z" fill="#333"/><circle cx="15.8" cy="53.6" fill="#010101" r="1.2"/><path d="m14.9 54.5c.5.5 1.3.5 1.7 0 .5-.5.5-1.3 0-1.7z" fill="#333"/><path d="m16.3 54.2c-.3.3-.8.3-1.1 0s-.3-.8 0-1.1.8-.3 1.1 0 .3.8 0 1.1z" fill="#010101"/><path d="m15.2 54.2c-.3-.3-.3-.8 0-1.1s.8-.3 1.1 0z" fill="#333"/><path d="m18.2 54.6c-.5.5-.5 1.3 0 1.7s1.3.5 1.7 0c.5-.5.5-1.3 0-1.7-.5-.5-1.3-.5-1.7 0z" fill="#010101"/><path d="m18.2 56.3c.5.5 1.3.5 1.7 0 .5-.5.5-1.3 0-1.7z" fill="#333"/><circle cx="19" cy="55.5" fill="#010101" r=".8"/><path d="m18.5 56c-.3-.3-.3-.8 0-1.1s.8-.3 1.1 0z" fill="#333"/><path d="m25 46.9c.1-.1.2-.1.3 0s.1.2 0 .3-.2.1-.3 0c-.1 0-.1-.2 0-.3z" fill="#010101"/><path d="m25 46.9.3.3z" fill="#818181"/><path d="m22.3 54.5c.1-.1.2-.1.3 0s.1.2 0 .3-.2.1-.3 0c-.1 0-.1-.2 0-.3z" fill="#010101"/><path d="m22.3 54.5.3.3z" fill="#818181"/><path d="m13.8 57.7c.1-.1.2-.1.3 0s.1.2 0 .3-.2.1-.3 0c-.1 0-.1-.2 0-.3z" fill="#010101"/><path d="m13.8 57.7.3.3z" fill="#818181"/><path d="m16.7 46.9c-.2.2-.6.2-.8 0s-.2-.6 0-.8.6-.2.8 0 .2.6 0 .8z" fill="#010101"/><path d="m16.6 46.8c-.2.2-.5.2-.7 0s-.2-.5 0-.7.5-.2.7 0 .2.6 0 .7z" fill="#333"/><path d="m12.8 43.3c-.2.2-.6.2-.8 0s-.2-.6 0-.8.6-.2.8 0 .2.6 0 .8z" fill="#1a1a1a"/><path d="m12.7 43.3c-.2.2-.5.2-.7 0s-.2-.5 0-.7.5-.2.7 0 .2.5 0 .7z" fill="#4e4e4e"/><path d="m16.5 46.8c-.1.1-.4.1-.6 0l-3.8-3.5c-.2-.2-.2-.4-.1-.6l.1-.1c.1-.1.4-.1.6 0l3.8 3.5c.2.2.2.5 0 .7zm-.5-1-.3-.2-.4.4.3.2zm-.6-.5-.3-.2-.4.4.3.2zm-.5-.4-.3-.2-.4.4.3.2zm-.5-.5-.3-.2-.4.4.3.2zm-.5-.5-.3-.2-.4.4.3.2zm-.5-.5-.3-.2-.4.4.3.2z" fill="#010101"/><path d="m14.6 44.4-1.9-1.8c-.2-.2-.4-.2-.6 0l-.1.1c-.1.1-.1.4.1.6l1.9 1.7zm-1.9-.8.4-.4.3.2-.4.5zm.5.5.4-.4.3.2-.4.4zm1 .1.3.2-.5.5-.3-.2z" fill="#1a1a1a"/><path d="m12.4 42.8c.1 0 .2.1.2.2s-.1.2-.2.2-.2-.1-.2-.2c0-.2.1-.2.2-.2z" fill="#818181"/><path d="m16.3 46.3c.1 0 .2.1.2.2s-.1.2-.2.2-.2-.1-.2-.2.1-.2.2-.2z" fill="#818181"/><path d="m12.4 42.8v.3-.3c-.1 0 0 0 0 0z" fill="#010101"/><path d="m16.3 46.3v.3-.3c-.1 0 0 0 0 0z" fill="#010101"/><path d="m12.7 43.5.5.3-.1.1z" fill="#ccc"/><path d="m13.7 44.2-.4-.3v-.1l.5.4z" fill="#ccc"/><path d="m14.4 44.6-.4-.4.1-.1.4.4z" fill="#ccc"/><path d="m14.6 45.3-.4-.3.1-.1.4.4z" fill="#818181"/><path d="m14.8 45.4.5.3-.1.1z" fill="#818181"/><path d="m15.5 45.6.5.4z" fill="#818181"/><path d="m4.2 49.2.6-.6 5.7 5.7-.6.6z" fill="#ccc"/><path d="m4.1 49 .4-.4.1.1z" fill="#ccc"/><path d="m10 54.7.4-.4.1.1-.4.4z" fill="#ccc"/><path d="m4.2 49.1.3-.3 5.7 5.7-.3.3z" fill="#818181"/><path d="m4.2 48.9.2-.2.1.1z" fill="#818181"/><path d="m9.9 54.8.2-.2.1.1-.2.2z" fill="#818181"/><path d="m6.2 50.6c-.1.1-.2.1-.3 0s-.1-.2 0-.3.2-.1.3 0 .1.2 0 .3z" fill="#ccc"/><path d="m6.8 51.2c-.1.1-.2.1-.3 0s-.1-.2 0-.3.2-.1.3 0c.1 0 .1.2 0 .3z" fill="#ccc"/><path d="m7.3 51.7c-.1.1-.2.1-.3 0s-.1-.2 0-.3.2-.1.3 0 .1.2 0 .3z" fill="#ccc"/><path d="m7.8 52.2c-.1.1-.2.1-.3 0s-.1-.2 0-.3.2-.1.3 0 .1.2 0 .3z" fill="#ccc"/><path d="m8.4 52.8c-.1.1-.2.1-.3 0s-.1-.2 0-.3.2-.1.3 0c.1 0 .1.2 0 .3z" fill="#ccc"/><path d="m8.9 53.3c-.1.1-.2.1-.3 0s-.1-.2 0-.3.2-.1.3 0 .1.2 0 .3z" fill="#ccc"/><path d="m6.2 50.6c.1-.1.1-.2 0-.3s-.2-.1-.3 0z" fill="#818181"/><path d="m6.8 51.2c.1-.1.1-.2 0-.3s-.2-.1-.3 0z" fill="#818181"/><path d="m7.3 51.7c.1-.1.1-.2 0-.3s-.2-.1-.3 0z" fill="#818181"/><path d="m7.8 52.2c.1-.1.1-.2 0-.3s-.2-.1-.3 0z" fill="#818181"/><path d="m8.4 52.8c.1-.1.1-.2 0-.3s-.2-.1-.3 0z" fill="#818181"/><path d="m8.9 53.3c.1-.1.1-.2 0-.3s-.2-.1-.3 0z" fill="#818181"/><path d="m7 46.4.6-.6 5.6 5.6-.6.6z" fill="#ccc"/><path d="m7 46.1.5-.5.2.2-.5.5z" fill="#ccc"/><path d="m12.7 51.9.5-.5.2.2-.5.5z" fill="#ccc"/><path d="m7.1 46.4.4-.4 5.6 5.6-.4.4z" fill="#818181"/><path d="m7 46.2.3-.3.2.2-.3.3z" fill="#818181"/><path d="m12.8 51.9.3-.3.2.2-.3.3z" fill="#989898"/><path d="m13.7 49.8c-.2-.2-.6-.2-.8 0 0 0-4 4.1-4.3 4.3-.2.1-.7.2-1.7-.4-.5-.3-1.2-1-1.5-1.5-.6-1-.5-1.6-.4-1.7.2-.3 3.6-3.6 3.6-3.6.1-.1.1-.2 0-.3l-.5-.6c-.1-.1-.2-.1-.3 0l-3.8 3.9c-.1.1-.1.2 0 .3 0 0 .1.2.1.4 0 .5-.8 1-.3 2 .3.7.7 1.1 1.2 1.6s.9.8 1.5 1.2c1 .4 1.5-.4 2-.4.3 0 .4.1.4.1.1.1.2.1.3 0l4.5-4.5c.2-.3.2-.6 0-.8z" fill="#ccc"/><path d="m6.1 53c-.3-.3-.5-.6-.7-.9-.6-1-.5-1.6-.4-1.7.2-.3 3.6-3.6 3.6-3.6.1-.1.1-.2 0-.3l-.5-.5c-.1-.1-.2-.1-.3 0l-3.8 3.9c-.1.1-.1.2 0 .3 0 0 .1.2.1.4 0 .5-.8 1-.3 2 .3.7.7 1.1 1.2 1.6z" fill="#818181"/><path d="m5.1 54c-.5-.5-.9-.9-1.2-1.5-.3-.5-.1-.9.1-1.3.1-.2.2-.4.2-.6 0-.3-.1-.5-.1-.5 0-.1 0-.1 0-.1l3.9-3.9.6.6c-.1.1-3.4 3.3-3.7 3.7-.2.3-.2.9.4 1.9.1.3.4.6.7.9s.6.5.9.7c1 .6 1.6.5 1.9.4.2-.4 4-4.3 4.2-4.4.2-.2.4-.2.6 0s.2.4 0 .6l-4.5 4.5s0 0-.1 0-.2-.1-.5-.1c-.2 0-.4.1-.6.2-.4.2-.7.4-1.3.1-.6-.4-1-.7-1.5-1.2z" fill="#818181"/><path d="m6 53.1c-.3-.3-.6-.6-.7-.9-.6-1-.5-1.6-.4-1.9l3.7-3.7-.6-.5-3.9 3.9v.1s.1.2.1.5c0 .2-.1.4-.2.6-.2.4-.4.7-.1 1.3s.7 1 1.2 1.5z" fill="#ccc"/><path d="m11.5 54.6c-.1.1-.2.1-.3 0l-.4-.4c-.1-.1-.1-.2 0-.3 0 0 .7-.7.3-1.2 0 0-.5-.7-.1-1.3.4-.5.9-.8 1.4-.8s.9.1.9.4c0 .2-.3.3-.3.3v1.3s-.1.3-.5.8c-.3.6-1 1.2-1 1.2z" fill="#ccc"/><path d="m11 54.1c-.1 0-.1 0 0 0 .2-.3.6-1 .3-1.5 0 0-.4-.6-.1-1.1.4-.5.8-.7 1.3-.7s.7.1.7.1v.1c0 .1-.1.1-.2.1h-.1v.1 1.3c0 .1-.1.3-.5.7-.4.5-1.1 1.1-1.1 1.1s0 0-.1 0z" fill="#989898"/><path d="m20.3 47.6c1.2-1.4 1.9-2.6 1.9-2.6.2-.3.2-.6-.1-.8s-.6-.2-.8.1c0 0-.9 1.4-1.6 2.4-.8 1-2.1 2.4-3.2 3.3-1.2 1-2.4 1.4-2.8 1.5s-.6-.1-.6-.1c-.4-.4-1-.4-1.4 0-.5.4-.5 1.1-.1 1.5.3.4.7.4 1.3.3s2.7-1.1 4.3-2.3c1.6-1.3 2.1-2.1 3.1-3.3z" fill="#ccc"/><path d="m22.1 44.2c-.3-.2-.6-.2-.8.1 0 0-.9 1.4-1.6 2.4-.8 1-2.1 2.4-3.2 3.3-1.2 1-2.4 1.4-2.8 1.5s-.6-.1-.6-.1c-.4-.4-1-.4-1.4 0-.3.3-.4.7-.3 1 0 .1.7.2 1.7 0 1.2-.3 2.9-1.2 3.8-1.9.7-.5 1.9-1.6 2.9-2.8 1.2-1.7 2.3-3.5 2.3-3.5z" fill="#989898"/><path d="m22.1 44.4c.1.2.1.4 0 .6s-.8 1.2-1.9 2.6c-.1.1-.2.2-.3.4-.8 1-1.4 1.7-2.8 2.8-1.5 1.2-3.7 2.2-4.3 2.3s-.9.1-1.1-.2c-.3-.4-.3-1 .1-1.3.3-.3.9-.3 1.2 0l.2.1c.1.1.3.1.6.1.4-.1 1.6-.5 2.9-1.5 1.1-.9 2.5-2.3 3.2-3.3.7-.9 1.6-2.3 1.6-2.4.1-.1.2-.2.3-.2 0-.1.2-.1.3 0z" fill="#818181"/><path d="m16.8 50.5c-.9.8-2.2 1.4-3.3 1.7s-2.1.2-2.1.2c-.1-.3 0-.7.3-.9.3-.3.9-.3 1.2 0l.2.1c.1.1.3.1.6.1.4-.1 1.6-.5 2.9-1.5 1.1-.9 2.5-2.3 3.2-3.3.7-.9 1.6-2.3 1.6-2.4.1-.1.2-.2.3-.2s.2 0 .3.1c0 0-1.2 1.9-2.6 3.5-.9 1.1-2 2.1-2.6 2.6z" fill="#ccc"/><path d="m12.8 52.5c.1-.2.1-.5-.1-.6s-.5-.1-.6.1-.1.5.1.6.4.1.6-.1z" fill="#989898"/><path d="m12.8 52.5c0-.1 0-.1 0 0l-.7-.5.7.5c-.1 0 0 0 0 0z" fill="#ccc"/><path d="m9 47.7c-.1.1-.2.1-.3 0s-.1-.2 0-.3.2-.1.3 0 .1.2 0 .3z" fill="#ccc"/><path d="m9.5 48.2c-.1.1-.2.1-.3 0s-.1-.2 0-.3.2-.1.3 0 .1.3 0 .3z" fill="#ccc"/><path d="m10.1 48.8c-.1.1-.2.1-.3 0s-.1-.2 0-.3.2-.1.3 0c.1 0 .1.2 0 .3z" fill="#ccc"/><path d="m10.6 49.3c-.1.1-.2.1-.3 0s-.1-.2 0-.3.2-.1.3 0 .1.2 0 .3z" fill="#ccc"/><path d="m11.1 49.8c-.1.1-.2.1-.3 0s-.1-.2 0-.3.2-.1.3 0 .1.2 0 .3z" fill="#ccc"/><path d="m11.7 50.4c-.1.1-.2.1-.3 0s-.1-.2 0-.3.2-.1.3 0c.1 0 .1.2 0 .3z" fill="#ccc"/><path d="m9 47.7c.1-.1.1-.2 0-.3s-.2-.1-.3 0z" fill="#818181"/><path d="m9.5 48.2c.1-.1.1-.2 0-.3s-.2-.1-.3 0z" fill="#818181"/><path d="m10.1 48.8c.1-.1.1-.2 0-.3s-.2-.1-.3 0z" fill="#818181"/><path d="m10.6 49.3c.1-.1.1-.2 0-.3s-.2-.1-.3 0z" fill="#818181"/><path d="m11.1 49.8c.1-.1.1-.2 0-.3s-.2-.1-.3 0z" fill="#818181"/><path d="m11.7 50.4c.1-.1.1-.2 0-.3s-.2-.1-.3 0z" fill="#818181"/><path d="m26.6 38c.1-.1.1-.2 0-.3l-5.1-5.1c-.1-.1-.2 0-.3 0l-1.9 1.9c-.1.1-.1.2 0 .3l5.1 5.1c.1.1.2 0 .3 0z" fill="#ccc"/><path d="m24.1 35.1-2.6-2.6h-.1c-.1 0-.1 0-.1.1l-1.9 1.9-.1.1v.1l2.6 2.6z" fill="#989898"/><path d="m26.5 37.9c.1-.1.1-.2 0-.3l-5-5c-.1-.1-.2-.1-.3 0l-1.8 1.8c-.1.1-.1.2 0 .3l5 5c.1.1.2.1.3 0z" fill="#989898"/><path d="m24 35.2-2.5-2.5-.1-.1s-.1 0-.1.1l-.9.9-.9.9-.1.1s0 .1.1.1l2.5 2.5z" fill="#ccc"/><path d="m25.9 37.7c.1-.1.1-.2 0-.2l-4.2-4.2c-.1-.1-.2 0-.2 0l-1.5 1.4c-.1.1-.1.2 0 .2l4.2 4.2c.1.1.2 0 .2 0z" fill="#ccc"/><path d="m23.8 35.3-2.1-2.1h-.1s-.1 0-.1.1l-1.5 1.4-.1.1v.1l2.1 2.1z" fill="#989898"/><path d="m25.8 37.7c.1-.1.1-.1 0-.2l-4.1-4.1c-.1-.1-.1-.1-.2 0l-1.4 1.4c-.1.1-.1.1 0 .2l4.1 4.1c.1.1.1.1.2 0z" fill="#989898"/><path d="m23.8 35.4-2.1-2.1h-.1-.1l-.7.7-.7.7v.1.1l2.1 2.1z" fill="#ccc"/><path d="m19.9 34.5c0-.1-.1-.2-.2-.2s-.2.1-.2.2.1.2.2.2.2-.1.2-.2z" fill="#818181"/><path d="m21.5 33c.1-.1.1-.2 0-.2-.1-.1-.2-.1-.2 0-.1.1-.1.2 0 .2 0 .1.1.1.2 0z" fill="#818181"/><path d="m20.7 34c.1 0 .2-.1.2-.2s-.1-.2-.2-.2-.2.1-.2.2.1.2.2.2z" fill="#818181"/><path d="m26.1 37.7c.1-.1.2-.1.2 0 .1.1.1.2 0 .2-.1.1-.2.1-.2 0z" fill="#676767"/><path d="m25.2 38.5c0-.1.1-.2.2-.2s.2.1.2.2-.1.2-.2.2-.2-.1-.2-.2z" fill="#676767"/><path d="m24.6 39.3c.1 0 .2.1.2.2s-.1.2-.2.2-.2-.1-.2-.2.1-.2.2-.2z" fill="#676767"/><path d="m19.9 34.5h-.3z" fill="#ccc"/><path d="m21.5 33-.2-.3z" fill="#ccc"/><path d="m20.7 34v-.3z" fill="#ccc"/><path d="m26.1 37.7s.1 0 0 0l.3.2z" fill="#989898"/><path d="m25.2 38.5h.3z" fill="#989898"/><path d="m24.6 39.3v.3z" fill="#989898"/><path d="m24.4 38.7s-.1 0-.2 0l-3.8-3.8s-.1-.1 0-.2l1.1-1.1h.2l3.8 3.8s.1.1 0 .2z" fill="#b4b4b4"/><path d="m25.1 37.7c-.1.1-.3.1-.4 0l-3.2-3.2c-.1-.1-.1-.3 0-.4s.3-.1.4 0l3.2 3.2c.1.1.1.3 0 .4z" fill="#676767"/><path d="m25.1 37.7c-.1.1-.3.1-.4 0l-3.2-3.2c-.1-.1-.1-.3 0-.4z" fill="#ccc"/><path d="m25 37.6c-.1.1-.2.1-.3 0l-3.1-3.1c-.1-.1-.1-.2 0-.3s.2-.1.3 0l3.1 3.1c.1.1.1.2 0 .3z" fill="#9e9e9e"/><path d="m25 37.6c-.1.1-.2.1-.3 0l-3.1-3.1c-.1-.1-.1-.2 0-.3z" fill="#676767"/><path d="m24.5 38.3c-.1.1-.3.1-.4 0l-3.2-3.2c-.1-.1-.1-.3 0-.4s.3-.1.4 0l3.2 3.2c.1.1.1.3 0 .4z" fill="#676767"/><path d="m24.5 38.3c-.1.1-.3.1-.4 0l-3.2-3.2c-.1-.1-.1-.3 0-.4z" fill="#ccc"/><path d="m24.4 38.2c-.1.1-.2.1-.3 0l-3.1-3.1c-.1-.1-.1-.2 0-.3s.2-.1.3 0l3.1 3.1c.1.1.1.2 0 .3z" fill="#9e9e9e"/><path d="m24.4 38.2c-.1.1-.2.1-.3 0l-3.1-3.1c-.1-.1-.1-.2 0-.3z" fill="#676767"/><path d="m20.6 44c.1-.1.1-.2 0-.3l-5.1-5.1c-.1-.1-.2 0-.3 0l-1.9 1.9c-.1.1-.1.2 0 .3l5.1 5.1c.1.1.2 0 .3 0z" fill="#ccc"/><path d="m18 41.2-2.6-2.6h-.1c-.1 0-.1 0-.1.1l-1.9 1.9-.1.1v.1l2.6 2.6z" fill="#989898"/><path d="m20.4 44c.1-.1.1-.2 0-.3l-5-5c-.1-.1-.2-.1-.3 0l-1.8 1.8c-.1.1-.1.2 0 .3l5 5c.1.1.2.1.3 0z" fill="#989898"/><path d="m17.9 41.3-2.5-2.5-.1-.1s-.1 0-.1.1l-.9.9-.9.9-.1.1s0 .1.1.1l2.5 2.5z" fill="#ccc"/><path d="m19.8 43.8c.1-.1.1-.2 0-.2l-4.2-4.2c-.1-.1-.2 0-.2 0l-1.4 1.4c-.1.1-.1.2 0 .2l4.2 4.2c.1.1.2 0 .2 0z" fill="#ccc"/><path d="m17.8 41.4-2.1-2.1h-.1s-.1 0-.1.1l-1.5 1.4-.1.1v.1l2.1 2.1z" fill="#989898"/><path d="m19.7 43.8c.1-.1.1-.1 0-.2l-4.1-4.1c-.1-.1-.1-.1-.2 0l-1.4 1.4c-.1.1-.1.1 0 .2l4.1 4.1c.1.1.1.1.2 0z" fill="#989898"/><path d="m17.7 41.5-2.1-2.1h-.1-.1l-.7.7-.7.7v.1.1l2.1 2.1z" fill="#ccc"/><path d="m13.8 40.6c0-.1-.1-.2-.2-.2s-.2.1-.2.2.1.2.2.2c.2 0 .2-.1.2-.2z" fill="#818181"/><path d="m15.4 39.1c.1-.1.1-.2 0-.2-.1-.1-.2-.1-.2 0-.1.1-.1.2 0 .2 0 .1.1.1.2 0z" fill="#818181"/><path d="m14.6 40.1c.1 0 .2-.1.2-.2s-.1-.2-.2-.2-.2.1-.2.2.1.2.2.2z" fill="#818181"/><path d="m20.1 43.8c.1-.1.2-.1.2 0 .1.1.1.2 0 .2-.1.1-.2.1-.2 0-.1-.1-.1-.2 0-.2z" fill="#676767"/><path d="m19.1 44.6c0-.1.1-.2.2-.2s.2.1.2.2-.1.2-.2.2-.2-.1-.2-.2z" fill="#676767"/><path d="m18.5 45.4c.1 0 .2.1.2.2s-.1.2-.2.2-.2-.1-.2-.2c0-.2.1-.2.2-.2z" fill="#676767"/><path d="m13.8 40.6h-.3z" fill="#ccc"/><path d="m15.4 39.1-.2-.3z" fill="#ccc"/><path d="m14.6 40.1v-.3z" fill="#ccc"/><path d="m20.1 43.8.3.2-.3-.2c-.1 0-.1 0 0 0z" fill="#989898"/><path d="m19.1 44.6h.3z" fill="#989898"/><path d="m18.5 45.4v.3z" fill="#989898"/><path d="m18.3 44.8s-.1 0-.2 0l-3.7-3.8s-.1-.1 0-.2l1.1-1.1h.2l3.8 3.8s.1.1 0 .2z" fill="#b4b4b4"/><path d="m19 43.7c-.1.1-.3.1-.4 0l-3.2-3.2c-.1-.1-.1-.3 0-.4s.3-.1.4 0l3.2 3.2c.1.2.1.3 0 .4z" fill="#676767"/><path d="m19 43.7c-.1.1-.3.1-.4 0l-3.2-3.2c-.1-.1-.1-.3 0-.4z" fill="#ccc"/><path d="m18.9 43.7c-.1.1-.2.1-.3 0l-3.1-3.1c-.1-.1-.1-.2 0-.3s.2-.1.3 0l3.1 3.1c.1.1.1.2 0 .3z" fill="#9e9e9e"/><path d="m18.9 43.7c-.1.1-.2.1-.3 0l-3.1-3.1c-.1-.1-.1-.2 0-.3z" fill="#676767"/><path d="m18.4 44.3c-.1.1-.3.1-.4 0l-3.2-3.2c-.1-.1-.1-.3 0-.4s.3-.1.4 0l3.2 3.2c.1.2.1.3 0 .4z" fill="#676767"/><path d="m18.4 44.3c-.1.1-.3.1-.4 0l-3.2-3.2c-.1-.1-.1-.3 0-.4z" fill="#ccc"/><path d="m18.3 44.3c-.1.1-.2.1-.3 0l-3.1-3.1c-.1-.1-.1-.2 0-.3s.2-.1.3 0l3.1 3.1c.1.1.1.2 0 .3z" fill="#9e9e9e"/><path d="m18.3 44.3c-.1.1-.2.1-.3 0l-3.1-3.1c-.1-.1-.1-.2 0-.3z" fill="#676767"/><path d="m23.6 41c.1-.1.1-.2 0-.3l-5.1-5.1c-.1-.1-.2 0-.3 0l-1.9 1.9c-.1.1-.1.2 0 .3l5.1 5.1c.1.1.2 0 .3 0z" fill="#ccc"/><path d="m21.1 38.1-2.6-2.6h-.1c-.1 0-.1 0-.1.1l-1.9 1.9-.1.1v.1l2.6 2.6z" fill="#989898"/><path d="m23.5 41c.1-.1.1-.2 0-.3l-5-5c-.1-.1-.2-.1-.3 0l-1.8 1.8c-.1.1-.1.2 0 .3l5 5c.1.1.2.1.3 0z" fill="#989898"/><path d="m21 38.2-2.5-2.5-.1-.1s-.1 0-.1.1l-.9.9-.9.9-.1.1s0 .1.1.1l2.5 2.5z" fill="#ccc"/><path d="m22.9 40.7c.1-.1.1-.2 0-.2l-4.2-4.2c-.1-.1-.2 0-.2 0l-1.5 1.4c-.1.1-.1.2 0 .2l4.2 4.2c.1.1.2 0 .2 0z" fill="#ccc"/><path d="m20.8 38.4-2.1-2.1h-.1s-.1 0-.1.1l-1.5 1.3-.1.1v.1l2.1 2.1z" fill="#989898"/><path d="m22.8 40.7c.1-.1.1-.1 0-.2l-4.1-4.1c-.1-.1-.1-.1-.2 0l-1.4 1.4c-.1.1-.1.1 0 .2l4.1 4.1c.1.1.1.1.2 0z" fill="#989898"/><path d="m20.7 38.5-2.1-2.1h-.1-.1l-.7.7-.7.7v.1.1l2.1 2.1z" fill="#ccc"/><path d="m16.9 37.6c0-.1-.1-.2-.2-.2s-.2.1-.2.2.1.2.2.2.2-.1.2-.2z" fill="#818181"/><path d="m18.5 36.1c.1-.1.1-.2 0-.2-.1-.1-.2-.1-.2 0-.1.1-.1.2 0 .2 0 .1.1.1.2 0z" fill="#818181"/><path d="m17.6 37c.1 0 .2-.1.2-.2s-.1-.2-.2-.2-.2.1-.2.2c.1.1.1.2.2.2z" fill="#818181"/><path d="m23.1 40.7c.1-.1.2-.1.2 0 .1.1.1.2 0 .2-.1.1-.2.1-.2 0-.1 0-.1-.1 0-.2z" fill="#676767"/><path d="m22.2 41.5c0-.1.1-.2.2-.2s.2.1.2.2-.1.2-.2.2c-.2 0-.2-.1-.2-.2z" fill="#676767"/><path d="m21.6 42.3c.1 0 .2.1.2.2s-.1.2-.2.2-.2-.1-.2-.2.1-.2.2-.2z" fill="#676767"/><path d="m16.9 37.6h-.3z" fill="#ccc"/><path d="m18.5 36.1-.2-.3.2.3c-.1 0-.1 0 0 0z" fill="#ccc"/><path d="m17.6 37s.1 0 0 0v-.3z" fill="#ccc"/><path d="m23.1 40.7.3.2z" fill="#989898"/><path d="m22.2 41.5h.3z" fill="#989898"/><path d="m21.6 42.3v.3-.3c-.1 0 0 0 0 0z" fill="#989898"/><path d="m21.4 41.7s-.1 0-.2 0l-3.8-3.7s-.1-.1 0-.2l1.1-1.1h.2l3.8 3.8s.1.1 0 .2z" fill="#b4b4b4"/><path d="m22 40.7c-.1.1-.3.1-.4 0l-3.2-3.2c-.1-.1-.1-.3 0-.4s.3-.1.4 0l3.2 3.2c.1.1.1.3 0 .4z" fill="#676767"/><path d="m22 40.7c-.1.1-.3.1-.4 0l-3.2-3.2c-.1-.1-.1-.3 0-.4z" fill="#ccc"/><path d="m22 40.7c-.1.1-.2.1-.3 0l-3.1-3.1c-.1-.1-.1-.2 0-.3s.2-.1.3 0l3.1 3.1c.1 0 .1.2 0 .3z" fill="#9e9e9e"/><path d="m22 40.7c-.1.1-.2.1-.3 0l-3.1-3.1c-.1-.1-.1-.2 0-.3z" fill="#676767"/><path d="m21.4 41.3c-.1.1-.3.1-.4 0l-3.2-3.2c-.1-.1-.1-.3 0-.4s.3-.1.4 0l3.2 3.2c.1.1.1.3 0 .4z" fill="#676767"/><path d="m21.4 41.3c-.1.1-.3.1-.4 0l-3.2-3.2c-.1-.1-.1-.3 0-.4z" fill="#ccc"/><path d="m21.4 41.3c-.1.1-.2.1-.3 0l-3.1-3.1c-.1-.1-.1-.2 0-.3s.2-.1.3 0l3.1 3.1z" fill="#9e9e9e"/><path d="m21.4 41.3c-.1.1-.2.1-.3 0l-3.1-3.1c-.1-.1-.1-.2 0-.3z" fill="#676767"/><path d="m48.4 13-2.2-2.2.3-.3 2.2 2.2z" fill="#ccc"/><path d="m48.4 13-2.2-2.2.2-.1 2.1 2.1z" fill="#989898"/><path d="m6 50.5 40.5-39.6 2.7-3.8h-.1l-2.6 3.7z" fill="#676767"/><path d="m6.6 51 40.3-39.8 4.6-5.9h-.1l-4.5 5.9z" fill="#676767"/><path d="m7.1 51.5 40.2-39.9 6.1-8.4-6.2 8.4z" fill="#676767"/><path d="m8.8 53.2 39.6-40.4 4.9-3.6h-.1l-4.9 3.5-39.6 40.4z" fill="#676767"/><path d="m8.3 52.7 39.8-40.3 6.9-5.6h-.1l-6.9 5.6z" fill="#676767"/><path d="m7.7 52.1 40-40.1 9.3-7.2h-.1l-9.3 7.2z" fill="#676767"/><path d="m6 50.4 40.5-39.6 2.7-3.7h-.1l-2.6 3.7z" fill="none" stroke="#ccc" stroke-miterlimit="10" stroke-width=".1"/><path d="m6.5 51 40.4-39.8 4.6-6-.2.1-4.4 5.9z" fill="none" stroke="#ccc" stroke-miterlimit="10" stroke-width=".1"/><path d="m7.1 51.5 40.2-39.9 6.1-8.4h-.1l-6.1 8.4z" fill="none" stroke="#ccc" stroke-miterlimit="10" stroke-width=".1"/><path d="m8.7 53.1 39.7-40.3 4.9-3.7h-.2l-4.8 3.6z" fill="none" stroke="#ccc" stroke-miterlimit="10" stroke-width=".1"/><path d="m8.2 52.7 39.8-40.3 6.9-5.6h-.1l-6.8 5.5-39.8 40.3z" fill="none" stroke="#ccc" stroke-miterlimit="10" stroke-width=".1"/><path d="m7.7 52.1 39.9-40.1 9.4-7.2h-.1l-9.3 7.2z" fill="none" stroke="#ccc" stroke-miterlimit="10" stroke-width=".1"/><path d="m56.5 3.8c.1-.1.2-.1.3 0s.1.2 0 .3-.2.1-.3 0c-.1 0-.1-.2 0-.3z" fill="#010101"/><path d="m56.5 3.8.3.3z" fill="#818181"/><path d="m51.4 5.3c-.1.1-.3.1-.4-.1 0-.1 0-.3.1-.3.1-.1.3-.1.4.1.1 0 0 .2-.1.3z" fill="#818181"/><path d="m49.1 7.1c-.1.1-.2.1-.3-.1-.1-.1-.1-.3.1-.4.1-.1.3-.1.4.1 0 .2-.1.3-.2.4z" fill="#818181"/><path d="m53.4 3.2c-.1.1-.3.1-.4-.1-.1-.1 0-.2.1-.3s.3-.1.4.1c0 .1 0 .2-.1.3z" fill="#818181"/><path d="m54.8 6.8c-.1.1 0 .3.1.4s.3.1.4-.1c.1-.1 0-.3-.1-.4-.1 0-.3 0-.4.1z" fill="#818181"/><path d="m53.1 9.2c-.1.1 0 .3.1.4s.3.1.4-.1c.1-.1 0-.3-.1-.4-.2 0-.3 0-.4.1z" fill="#818181"/><path d="m56.8 4.8c-.1.1 0 .3.1.4s.3.1.4-.1c.1-.1 0-.3-.1-.4-.1 0-.3 0-.4.1z" fill="#818181"/></svg>