<svg enable-background="new 0 0 60 60" height="60" viewBox="0 0 60 60" width="60" xmlns="http://www.w3.org/2000/svg" xmlns:xlink="http://www.w3.org/1999/xlink"><linearGradient id="a" gradientTransform="matrix(.7071 .7071 -.7071 .7071 -534.8285 224.9697)" gradientUnits="userSpaceOnUse" x1="257.6505" x2="263.3329" y1="-513.0803" y2="-513.0803"><stop offset="0" stop-color="#fff"/><stop offset="1" stop-color="#fff"/></linearGradient><path d="m57 2.5-.4-.5.2-.1z" fill="#b4b4b4"/><path d="m56.1 2.2c.1 0 .3 0 .6-.1.3-.2.4-.4.5-.4 0-.1-.2-.4-.2-.4s-.2-.1-.6.1-.4.4-.5.4.1.4.2.4z" fill="#ccc"/><path d="m57 1.4c-.1-.1-.1-.2-.1-.2s-.2-.1-.6.1-.4.4-.5.4c0 0 0 .1.1.3z" fill="#989898"/><path d="m56 1.9c0-.1 0-.1-.1-.1 0-.1.1-.2.4-.3.3-.2.5-.1.5-.1s.1.1.1.2c.1-.1.1 0 .1 0s-.1.2-.4.3c-.2.1-.4.1-.5.1 0 .1 0 0-.1-.1z" fill="#989898"/><path d="m56.9 1.4c0-.1-.1-.1-.1-.2 0 0-.2 0-.5.1-.3.3-.3.4-.4.5 0 0 0 .1.1.2z" fill="#ccc"/><path d="m55.3 3.4-.4-.5.1-.1z" fill="#b4b4b4"/><path d="m54.4 3.1c.1 0 .3 0 .6-.1.3-.2.4-.4.5-.4 0-.1-.2-.4-.2-.4s-.2-.1-.6.1-.4.4-.5.4.1.3.2.4z" fill="#ccc"/><path d="m55.3 2.3c-.1-.1-.1-.2-.1-.2s-.2-.1-.6.1-.4.4-.5.4c0 0 0 .1.1.3z" fill="#989898"/><path d="m54.3 2.8c-.1-.1-.1-.2-.1-.2 0-.1.1-.2.4-.3.3-.2.5-.1.5-.1s.1.1.1.2.1.1.1.2c0 0-.1.2-.4.3-.2.1-.4.1-.5.1 0 0 0-.1-.1-.2z" fill="#989898"/><path d="m55.2 2.3c0-.1-.1-.1-.1-.2 0 0-.2 0-.5.1-.3.2-.4.3-.4.3s0 .1.1.2z" fill="#ccc"/><path d="m53.7 4.2-.4-.5h.1z" fill="#b4b4b4"/><path d="m52.7 3.9c.1 0 .3 0 .6-.1.3-.2.4-.4.5-.4 0-.1-.2-.4-.2-.4s-.2-.1-.6.1-.4.4-.5.4z" fill="#ccc"/><path d="m53.7 3.1c-.1-.1-.1-.2-.1-.2s-.2-.1-.6.1-.4.4-.5.4c0 0 0 .1.1.3z" fill="#989898"/><path d="m52.7 3.7c-.1-.1-.1-.2-.1-.2 0-.1.1-.2.4-.3.4-.2.5-.2.5-.2s.1.1.1.2.1.1.1.2c0 0-.1.2-.4.3-.2.1-.4.1-.6 0 .1.1 0 .1 0 0z" fill="#989898"/><path d="m53.6 3.2c0-.1-.1-.1-.1-.2 0 0-.2 0-.5.1-.3.2-.4.3-.4.3s0 .1.1.2z" fill="#ccc"/><path d="m52.2 5-.2.1-.3-.6.2-.1z" fill="#b4b4b4"/><path d="m51.2 4.7c.1 0 .3 0 .6-.1.3-.2.4-.4.5-.4 0-.1-.2-.4-.2-.4s-.2-.1-.6.1c-.5.1-.5.3-.5.3-.1.1.1.5.2.5z" fill="#ccc"/><path d="m52.2 3.9c-.1-.1-.1-.2-.1-.2s-.2-.1-.6.1c-.5.2-.5.4-.5.4s0 .1.1.3z" fill="#989898"/><path d="m51.2 4.4c-.1-.1-.1-.2-.1-.2 0-.1.1-.2.4-.3.3-.2.5-.1.5-.1s.1.1.1.2.1.1.1.2c0 0-.1.2-.4.3-.2.1-.4.1-.5.1s-.1-.1-.1-.2z" fill="#989898"/><path d="m52.1 3.9c-.1 0-.1-.1 0 0-.1-.1-.3-.1-.6 0-.3.2-.4.3-.4.3s0 .1.1.2z" fill="#ccc"/><path d="m50.6 5.9h-.2l-.3-.5.2-.1z" fill="#b4b4b4"/><path d="m49.6 5.6c.1 0 .3 0 .6-.1.3-.2.4-.4.5-.4 0-.1-.2-.4-.2-.4s-.2-.1-.6.1-.4.4-.5.4.1.3.2.4z" fill="#ccc"/><path d="m50.6 4.8c-.1-.1-.1-.2-.1-.2s-.2-.1-.6.1-.4.4-.5.4c0 0 0 .1.1.3z" fill="#989898"/><path d="m49.5 5.3c-.1-.1-.1-.2-.1-.2 0-.1.1-.2.4-.3.3-.2.5-.1.5-.1s.1.1.1.2.1.1.1.2c0 0-.1.2-.4.3-.2.1-.4.1-.5.1 0 0 0-.1-.1-.2z" fill="#989898"/><path d="m50.5 4.8c0-.1-.1-.1-.1-.2 0 0-.2 0-.5.1-.3.2-.4.3-.4.3s0 .1.1.2z" fill="#ccc"/><path d="m48.9 6.8-.2.1-.2-.6.1-.1z" fill="#b4b4b4"/><path d="m47.9 6.5c.1 0 .3 0 .6-.1.4-.2.5-.4.5-.5s-.2-.4-.2-.4-.2-.1-.6.1-.5.4-.5.4c0 .1.2.5.2.5z" fill="#ccc"/><path d="m48.9 5.7c-.1-.1-.1-.2-.1-.2s-.2-.1-.6.1-.5.4-.5.4 0 .1.1.3z" fill="#989898"/><path d="m47.9 6.2c-.1-.1-.1-.2-.1-.2 0-.1.1-.2.4-.3.3-.2.5-.1.5-.1s.1.1.1.2.1.1.1.2c0 0-.1.2-.4.3-.2.1-.4.1-.5.1 0 0-.1-.1-.1-.2z" fill="#989898"/><path d="m48.8 5.7c0-.1-.1-.1-.1-.2 0 0-.2 0-.5.1-.3.3-.4.4-.4.4s0 .1.1.2z" fill="#ccc"/><path d="m13.1 32.9c2.7-2.1 2.4-3.3 4.1-6.1 1.4-2.3 4.9-6.3 7-4.2 1.5 1.4-3.6 3-1.6 6.7.9 1.7 2.7 1 2.7 1s-1.1 6 .5 7.6c3.3 3.2 5.7-1.4 6.6 0 .7 1.1.1 2.6-1.2 3.8-3.2 2.9-5.2 2-6.9 4.1-1.6 1.8-1.9 6.2-4.5 9.4-3.5 4.4-8.1 5.9-15-2.2-7.2-8.4-5.3-12-2.8-14.4 3.3-2.6 8.3-3.5 11.1-5.7z" fill="#ff5a00"/><path d="m13.1 32.9c2.7-2.1 2.4-3.3 4.1-6.1 1.4-2.3 4.9-6.3 7-4.2 1.5 1.4-3.6 3-1.6 6.7.9 1.7 2.7 1 2.7 1l-.3 3.1-19.7 19.9c-7.2-8.4-5.5-12.2-3-14.6 3-2.7 8-3.6 10.8-5.8z" fill="#ff5a00"/><path d="m7.1 54.8c-.6-.6-1.1-1.2-1.7-1.9-3.2-3.8-4.8-6.8-4.9-9.3-.1-2.2 1-3.6 2.2-4.7 1.6-1.4 3.7-2.3 5.8-3.1 1.9-.8 3.7-1.5 5.1-2.6 1.8-1.5 2.3-2.5 3-3.9.3-.6.6-1.4 1.2-2.3 1-1.7 3.3-4.4 5.1-4.6.6-.1 1 .1 1.4.5s.1.7-.6 1.6c-1 1.1-2.3 2.7-1 5 .1.2.3.5.5.6.7.7 1.6.7 2.2.6-.2 1.4-.8 5.9.7 7.4 2.2 2.1 4.1 1 5.3.2.6-.4 1-.6 1.2-.4 0 0 0 0 .1.1.7 1.1-.2 2.5-1.2 3.4-1.6 1.4-2.9 1.9-4 2.3s-2 .7-2.9 1.8c-.8.9-1.2 2.2-1.8 3.8-.6 1.8-1.3 3.9-2.7 5.6-1.8 2.2-3.6 3.4-5.5 3.5-2.4.3-4.8-.9-7.5-3.6z" fill="#ff5a00"/><path d="m16.7 35.4c3.2-1.9 2.9-5.6 4.8-4.8.7.3.6 1 .9 1.9.3.8 1 2.7 1 2.7l-10.9 10.9s-3.4-2.3-3.2-5.1c.2-3 3.9-3.5 7.4-5.6z" fill="#e6e6e5"/><path d="m23.3 35.1s1.3 3.2 1.9 3.9c2.7 2.9 6.2-.9 6.7-.2.3.5 0 1.1-1.3 2.3-2.5 2.3-5.4 1.9-7 4.2-1.4 1.7-2.5 7-3.8 8.6-.7 1-1.9 1.5-2.4.7-.4-.8.4-3.3-1.2-5.3-1.3-1.6-3.5-3.6-3.5-3.6z" fill="#fff"/><path d="m17.6 54.8-.1-.1c-.1-.2-.1-.7-.1-1.2 0-1.2 0-2.8-1.1-4.2-.5-.7-1.1-1.3-1.7-2-.8-.8-1.6-1.5-2.3-2.1-.5-.5-1-.9-1.4-1.3-.9-.7-1.4-1.5-1.4-2.9.1-2 1.9-2.9 4.3-3.9 1-.4 2-.9 3-1.5 1.6-1 2.4-2.4 3-3.4.7-1.2.9-1.6 1.6-1.3.1 0 .1.1.2.1.2.2.2.5.3.8.1.2.1.5.2.8.2.6.4 1.2.7 1.8.7 2 1.4 4 2.2 4.9l.1.1c2 2 4.3.8 5.6.1.3-.2.8-.5.9-.4.2.2.2.7-1.3 2-1.2 1-2.4 1.5-3.5 2-1.3.5-2.6 1-3.5 2.3-.8.9-1.4 2.8-2 4.6-.6 1.6-1.2 3.3-1.8 4.1-.4.5-1 1-1.4 1-.2-.2-.4-.2-.5-.3z" fill="#ececec"/><path d="m12.6 45.9c-.5-.5-1.5-1.4-1.9-1.8-.6-.7-1.2-1.7-1.2-3.1.1-2 1.9-2.9 4.3-3.9 1-.4 2-.9 3-1.5 1.6-1 2.4-2.4 3-3.4.7-1.2.9-1.6 1.6-1.3.1 0 .1.1.2.1.2.2.2.5.3.8.1.2.1.5.2.8.2.6.8 2 1.1 2.7z" fill="#fff"/><path d="m21.3 31.4c-.1.1-.2.1-.3 0s-.1-.2 0-.3.2-.1.3 0 .1.2 0 .3z" fill="#ccc"/><path d="m21.3 31.4-.3-.3z" fill="#676767"/><path d="m31.6 39.4c0 .1-.1.2-.2.2s-.2-.1-.2-.2.1-.2.2-.2.2.1.2.2z" fill="#989898"/><path d="m31.6 39.4h-.4z" fill="#676767"/><path d="m18.8 34.9c-.1 0-.2-.1-.2-.2s.1-.2.2-.2.2.1.2.2-.1.2-.2.2z" fill="#ccc"/><path d="m18.8 34.9v-.4z" fill="#676767"/><path d="m14.7 37.4c-.1.1-.2.1-.3 0s-.1-.2 0-.3.2-.1.3 0 .1.2 0 .3z" fill="#ccc"/><path d="m14.7 37.4-.3-.3z" fill="#676767"/><path d="m10.7 39.4c0 .1-.1.2-.2.2s-.2-.1-.2-.2.1-.2.2-.2.2.1.2.2z" fill="#ccc"/><path d="m10.7 39.4h-.4z" fill="#676767"/><path d="m10.7 43.3c-.1.1-.2.1-.3 0s-.1-.2 0-.3.2-.1.3 0 .1.2 0 .3z" fill="#ccc"/><path d="m10.7 43.3-.3-.3.3.3c0-.1 0 0 0 0z" fill="#676767"/><path d="m15.9 48.1c-.1.1-.2.1-.3 0s-.1-.2 0-.3.2-.1.3 0z" fill="#989898"/><path d="m15.8 48.1-.3-.3.3.3c.1 0 .1 0 0 0z" fill="#676767"/><path d="m20.6 51.1c-.1.1-.2.1-.3 0s-.1-.2 0-.3.2-.1.3 0z" fill="#989898"/><path d="m20.6 51.1c-.1 0-.1 0 0 0l-.3-.3z" fill="#676767"/><path d="m24 38c.1.1.1.2 0 .3s-.2.1-.3 0-.1-.2 0-.3.2-.1.3 0z" fill="#989898"/><path d="m24 38-.3.3z" fill="#676767"/><path d="m27.2 42.6c-.1.1-.2.1-.3 0s-.1-.2 0-.3.2-.1.3 0 .1.3 0 .3z" fill="#989898"/><path d="m27.2 42.6-.3-.3z" fill="#676767"/><path d="m22.9 45.5c0 .1-.1.2-.2.2s-.2-.1-.2-.2.1-.2.2-.2.2 0 .2.2z" fill="#989898"/><path d="m22.9 45.5h-.4.4c0-.1 0 0 0 0z" fill="#676767"/><path d="m23.7 39.8c-.1 0-.2-.1-.2-.2s.1-.2.2-.2.2.1.2.2-.1.2-.2.2z" fill="#989898"/><path d="m23.7 39.8v-.4z" fill="#676767"/><path d="m15.8 38.3c-.1 0-.2-.1-.2-.2s.1-.2.2-.2.2.1.2.2 0 .2-.2.2z" fill="#ccc"/><path d="m15.8 38.3v-.4z" fill="#676767"/><path d="m12.9 41c-.1 0-.2-.1-.2-.2s.1-.2.2-.2.2.1.2.2-.1.2-.2.2z" fill="#ccc"/><path d="m12.9 41v-.4z" fill="#676767"/><path d="m20.6 42.9c-.1.1-.2.1-.3 0s-.1-.2 0-.3.2-.1.3 0 .1.2 0 .3z" fill="#989898"/><path d="m20.6 42.9-.3-.3z" fill="#676767"/><path d="m16.5 47c-.1 0-.2-.1-.2-.2s.1-.2.2-.2.2.1.2.2-.1.2-.2.2z" fill="#989898"/><path d="m16.5 47v-.4z" fill="#676767"/><path d="m9.8 46.2c0 .1-.1.1-.1.1-.1 0-.1-.1-.1-.1 0-.1.1-.1.1-.1s.1 0 .1.1z" fill="#ccc"/><path d="m10.3 46.7c0 .1-.1.1-.1.1-.1 0-.1-.1-.1-.1 0-.1.1-.1.1-.1z" fill="#ccc"/><path d="m10.8 47.3c0 .1-.1.1-.1.1-.1 0-.1-.1-.1-.1 0-.1.1-.1.1-.1.1-.1.1 0 .1.1z" fill="#ccc"/><path d="m11.4 47.8c0 .1-.1.1-.1.1-.1 0-.1-.1-.1-.1 0-.1.1-.1.1-.1s.1 0 .1.1z" fill="#ccc"/><path d="m12 48.4c0 .1-.1.1-.1.1-.1 0-.1-.1-.1-.1 0-.1.1-.1.1-.1s.1 0 .1.1z" fill="#ccc"/><path d="m12.5 48.9c0 .1-.1.1-.1.1-.1 0-.1-.1-.1-.1 0-.1.1-.1.1-.1s.1 0 .1.1z" fill="#ccc"/><path d="m13.2 49.3c-.1.1-.3.1-.5 0l-3.6-3.6c-.1-.1-.1-.3 0-.5l1.9-1.9c.1-.1.3-.1.5 0l3.6 3.6c.1.1.1.3 0 .5z" fill="url(#a)"/><path d="m13.2 49.3c-.1.1-.3.1-.5 0l-3.6-3.6c-.1-.1-.1-.3 0-.5l1.9-1.9c.1-.1.3-.1.5 0l3.6 3.6c.1.1.1.3 0 .5z" fill="#fff"/><path d="m11 47.5-1.8-1.8c-.1-.1-.1-.1-.1-.2s0-.2.1-.2l.9-.9.9-.9c.1-.1.1-.1.2-.1s.2 0 .2.1l1.8 1.8z" fill="#e6e6e5"/><path d="m9.3 45.6c-.1-.1-.1-.2 0-.2l1.9-1.9c.1-.1.2-.1.2 0l3.6 3.6v.1.1l-1.9 1.9c-.1.1-.2.1-.2 0z" fill="#e6e6e5"/><path d="m9.3 45.6v-.2l.9-.9.9-.9h.1.1l1.8 1.8-2.1 2.1z" fill="#fff"/><path d="m12.4 44.7c0 .1-.1.2-.2.2s-.2-.1-.2-.2.1-.2.2-.2.2.1.2.2z" fill="#ccc"/><path d="m12.3 44.7c0 .1-.1.1-.1.1-.1 0-.1-.1-.1-.1 0-.1.1-.1.1-.1s.1 0 .1.1z" fill="#989898"/><path d="m11.8 44.2c0 .1-.1.2-.2.2s-.2-.1-.2-.2.1-.2.2-.2c.2 0 .2.1.2.2z" fill="#ccc"/><path d="m11.8 44.2c0 .1-.1.1-.1.1-.1 0-.1-.1-.1-.1 0-.1.1-.1.1-.1 0-.1.1 0 .1.1z" fill="#989898"/><path d="m12.9 45.2c0 .1-.1.2-.2.2s-.2-.1-.2-.2.1-.2.2-.2.2.1.2.2z" fill="#ccc"/><path d="m12.8 45.2c0 .1-.1.1-.1.1-.1 0-.1-.1-.1-.1 0-.1.1-.1.1-.1.1 0 .1 0 .1.1z" fill="#989898"/><path d="m13.4 45.8c0 .1-.1.2-.2.2s-.2-.1-.2-.2.1-.2.2-.2c.2 0 .2.1.2.2z" fill="#fff"/><path d="m13.4 45.8c0 .1-.1.1-.1.1-.1 0-.1-.1-.1-.1 0-.1.1-.1.1-.1 0-.1.1 0 .1.1z" fill="#989898"/><path d="m14 46.3c0 .1-.1.2-.2.2s-.2-.1-.2-.2.1-.2.2-.2.2.1.2.2z" fill="#fff"/><path d="m14 46.3c0 .1-.1.1-.1.1-.1 0-.1-.1-.1-.1 0-.1.1-.1.1-.1z" fill="#989898"/><path d="m14.5 46.9c0 .1-.1.2-.2.2s-.2-.1-.2-.2.1-.2.2-.2c.2 0 .2.1.2.2z" fill="#fff"/><path d="m14.5 46.9c0 .1-.1.1-.1.1-.1 0-.1-.1-.1-.1 0-.1.1-.1.1-.1 0-.1.1 0 .1.1z" fill="#989898"/><path d="m10.5 45.7-.4-.4.8-.7.4.4z" fill="#a7a6a6"/><path d="m11.1 46.1-.4-.4.8-.7.4.4z" fill="#a7a6a6"/><path d="m11.3 46.3.7-.7.4.4-.7.7z" fill="#a7a6a6"/><path d="m12.3 47.2-.4-.4.7-.7.4.4z" fill="#a7a6a6"/><path d="m12.8 47.8-.4-.4.8-.8.4.4z" fill="#a7a6a6"/><path d="m13.4 48.3-.4-.4.7-.7.4.4z" fill="#a7a6a6"/><path d="m12 45.5.2-.2.4.4-.2.2z" fill="#ccc"/><path d="m12.7 46.1.2-.2.4.4-.2.2z" fill="#ccc"/><path d="m13.1 46.6.2-.2.4.4-.2.2z" fill="#ccc"/><path d="m13.8 47.2.2-.2.4.4-.2.2z" fill="#ccc"/><path d="m10.9 44.6.2-.2.4.4-.2.2z" fill="#ccc"/><path d="m11.5 45 .2-.2.4.4-.2.2z" fill="#ccc"/><path d="m10.6 45.5c-.1.1-.2 0-.2 0-.1-.1 0-.2 0-.2l.4-.3c.1-.1.2 0 .2 0 .1.1 0 .2 0 .2z" fill="#ccc"/><path d="m11.2 45.9c-.1.1-.2 0-.2 0-.1-.1-.1-.2 0-.2l.4-.3c.1-.1.2 0 .2 0 .1.1 0 .2 0 .2z" fill="#ccc"/><path d="m11.7 46.4c-.1.1-.2 0-.2 0-.1-.1-.1-.2 0-.2l.4-.3c.1-.1.2 0 .2 0 .1.1.1.2 0 .2z" fill="#ccc"/><path d="m12.3 47c-.1.1-.2 0-.2 0-.1-.1 0-.2 0-.2l.4-.3c.1-.1.2 0 .2 0 .1.1 0 .2 0 .2z" fill="#ccc"/><path d="m12.9 47.5c-.1.1-.2 0-.2 0-.1-.1 0-.2 0-.2l.4-.3c.1-.1.2 0 .2 0 .1.1.1.2 0 .2z" fill="#ccc"/><path d="m13.4 48.1c-.1.1-.2 0-.2 0-.1-.1 0-.2 0-.2l.4-.3c.1-.1.2 0 .2 0 .1.1 0 .2 0 .2z" fill="#ccc"/><path d="m9.8 46.1.4-.4.1.1z" fill="#ccc"/><path d="m10.3 46.6.4-.4.1.1z" fill="#ccc"/><path d="m10.8 47.1.4-.4h.1z" fill="#ccc"/><path d="m11.4 47.7.4-.5.1.1z" fill="#a3a3a3"/><path d="m12 48.2.4-.4.1.1z" fill="#a3a3a3"/><path d="m12.5 48.7.4-.4.1.1z" fill="#a3a3a3"/><path d="m11.1 46.5.2-.2.4.4-.2.2z" fill="#ccc"/><path d="m11.6 47 .2-.2.4.4-.2.2z" fill="#ccc"/><path d="m12.2 47.6.2-.2.4.4-.1.2z" fill="#ccc"/><path d="m12.7 48.1.2-.2.4.4-.2.2z" fill="#ccc"/><path d="m9.9 45.5.2-.2.4.4-.2.2z" fill="#ccc"/><path d="m10.4 45.9.2-.2.4.4-.2.2z" fill="#ccc"/><path d="m10.6 45.3c0 .1-.1.1-.1.1-.1 0-.1-.1-.1-.1 0-.1.1-.1.1-.1.1 0 .1.1.1.1z" fill="#818181"/><path d="m11.2 45.8c0 .1-.1.1-.1.1-.1 0-.1-.1-.1-.1 0-.1.1-.1.1-.1s.1 0 .1.1z" fill="#818181"/><path d="m11.7 46.3c0 .1-.1.1-.1.1-.1 0-.1-.1-.1-.1 0-.1.1-.1.1-.1.1 0 .1 0 .1.1z" fill="#818181"/><path d="m12.3 46.9c0 .1-.1.1-.1.1-.1 0-.1-.1-.1-.1 0-.1.1-.1.1-.1.1-.1.1 0 .1.1z" fill="#676767"/><path d="m12.9 47.4c0 .1-.1.1-.1.1-.1 0-.1-.1-.1-.1 0-.1.1-.1.1-.1.1 0 .1 0 .1.1z" fill="#676767"/><path d="m13.4 47.9c0 .1-.1.1-.1.1-.1 0-.1-.1-.1-.1 0-.1.1-.1.1-.1.1 0 .1.1.1.1z" fill="#676767"/><path d="m20.5 50.5h-.1l.1-1.9h.2z" fill="#676767"/><path d="m20.8 48.3c-.1.1-.2.1-.3 0s-.1-.2 0-.3.2-.1.3 0z" fill="#989898"/><path d="m20.8 48.3-.3-.3z" fill="#676767"/><path d="m20.6 49.1c0-.3-.1-.5-.1-.5-.1 0-.1.2-.1.5s.1.5.1.5c.1 0 .1-.2.1-.5z" fill="#fff"/><path d="m18.1 54.7c-.1.1-.2.1-.3 0s-.1-.2 0-.3.2-.1.3 0z" fill="#989898"/><path d="m18.1 54.7-.3-.3.3.3c0-.1 0 0 0 0z" fill="#676767"/><path d="m23.8 37.5c-.4.1-1-.3-1.9-1.2-1-1-1-1.4-.9-1.8.1-.3 26.5-25.4 26.5-25.4l2 2c0 .1-25.3 26.3-25.7 26.4z" fill="#a6832e"/><path d="m22 36.5c-1-1-1.2-1.3-1-2 0-.3 26.4-25.4 26.4-25.4l1 1z" fill="#b99b38"/><path d="m47.4 9.1s.1-.3.1-.8c0-.4-.2-.7-.1-1 .1-.2 2.5-1.4 4.9-2.7 2-1.1 4.1-2.3 5.1-2.6.6-.2 1.5-.2 2.1.5s.9 1.9-.3 2.7c-1.1.8-2 0-2.6.4-.9.6-3 4.6-3.5 4.8s-1-.4-2-.2c-.9.2-1.7.9-1.7.9z" fill="#e4cb4d"/><path d="m47.4 9.1s.1-.3.1-.8c0-.4-.2-.7-.1-1 .1-.2 2.5-1.4 4.9-2.7 2-1.1 4.1-2.3 5.1-2.6.6-.2 1.5-.2 2.1.5l-11.1 7.6z" fill="#d8b628"/><path d="m47.7 9.1c0-.2 0-.4 0-.7 0-.2 0-.4-.1-.5 0-.2 0-.3 0-.3.2-.2 1.4-.8 2.6-1.4.7-.3 1.4-.7 2.2-1.1.5-.3 1-.5 1.5-.8 1.5-.8 2.9-1.6 3.6-1.8.2-.1 1.1-.3 1.7.3l.1.1c.3.1.5.6.4 1.1 0 .4-.3.8-.7 1.1-.6.4-1.1.3-1.5.3s-.7-.1-1.1.1c-.5.3-1.3 1.6-2.1 2.9-.5.8-1.1 1.8-1.3 1.9-.1.1-.3 0-.6-.1s-.8-.2-1.3-.1c-.7.2-1.4.6-1.7.8z" fill="#d8b628"/><path d="m57.2 3.6c-.2.1-.5.1-.6-.1s-.1-.5.1-.6.5-.1.6.1.1.4-.1.6z" fill="#f3f3f3"/><path d="m55.6 4.5c-.2.1-.5.1-.6-.1s-.1-.5.1-.6.5-.1.6.1.1.4-.1.6z" fill="#f3f3f3"/><path d="m54.1 5.3c-.2.1-.5.1-.6-.1s-.1-.5.1-.6.5-.1.6.1.1.5-.1.6z" fill="#f3f3f3"/><path d="m52.5 6.2c-.2.1-.5.1-.6-.1s-.1-.5.1-.6.5-.1.6.1.1.5-.1.6z" fill="#f3f3f3"/><path d="m50.9 7.1c-.2.1-.5.1-.6-.1s-.1-.5.1-.6.5-.1.6.1.1.5-.1.6z" fill="#f3f3f3"/><path d="m49.3 8c-.2.1-.5.1-.6-.1s-.1-.5.1-.6.5-.1.6.1c.2.2.1.4-.1.6z" fill="#f3f3f3"/><path d="m49 11.6-2-2 .1-.2 2 2.1z" fill="#fff"/><path d="m44.9 11.6 2.2 2-.1.1z" fill="#4d4d4d"/><path d="m45.2 15.5-2.2-2.2.1-.1 2.2 2.2z" fill="#4d4d4d"/><path d="m43.5 17.4-2.3-2.3.1-.1 2.3 2.3z" fill="#4d4d4d"/><path d="m39.5 16.6 2.4 2.3-.1.1z" fill="#4d4d4d"/><path d="m37.9 18.2 2.5 2.3-.1.1z" fill="#4d4d4d"/><path d="m36.4 19.7 2.5 2.4-.1.1z" fill="#4d4d4d"/><path d="m34.9 21 2.6 2.5-.1.1z" fill="#4d4d4d"/><path d="m33.5 22.3 2.7 2.5-.1.2z" fill="#4d4d4d"/><path d="m34.9 26.2-2.6-2.6.1-.1 2.6 2.6z" fill="#4d4d4d"/><path d="m33.8 27.4-2.7-2.7.1-.1 2.7 2.7z" fill="#4d4d4d"/><path d="m32.7 28.5-2.7-2.7.1-.1 2.7 2.7z" fill="#4d4d4d"/><path d="m31.7 29.6-2.8-2.8.1-.1 2.8 2.8z" fill="#4d4d4d"/><path d="m27.9 27.8 2.9 2.8-.1.1z" fill="#4d4d4d"/><path d="m29.7 31.6-2.8-2.9.1-.1 2.8 2.9z" fill="#4d4d4d"/><path d="m28.9 32.4-2.9-2.8.1-.1 2.9 2.8z" fill="#4d4d4d"/><path d="m28.1 33.2-2.9-2.8.1-.1 2.9 2.9z" fill="#4d4d4d"/><path d="m24.3 31.1 3 2.8-.1.1z" fill="#4d4d4d"/><path d="m26.4 35-2.9-3 .1-.1 2.9 3z" fill="#4d4d4d"/><path d="m25.6 35.8-2.9-3 .1-.1 2.9 3z" fill="#4d4d4d"/><path d="m25 36.4-3-2.9.1-.1 3 2.9z" fill="#4d4d4d"/><path d="m21.3 34.1 3 2.9-.1.1z" fill="#4d4d4d"/><g fill="#ccc"><path d="m44.9 11.5 2.2 2-.1.1z"/><path d="m45.3 15.5-2.2-2.2.1-.1 2.2 2.2z"/><path d="m41.2 15.1 2.3 2.2-.1.1z"/><path d="m39.5 16.6 2.4 2.3v.1z"/><path d="m37.9 18.2 2.5 2.3-.1.1z"/><path d="m38.9 22.1-2.5-2.5.1-.1 2.5 2.5z"/><path d="m37.5 23.5-2.5-2.5.1-.1 2.5 2.5z"/><path d="m33.6 22.3 2.7 2.5-.1.1z"/><path d="m35 26.2-2.7-2.7.1-.1 2.7 2.7z"/><path d="m33.8 27.4-2.7-2.7.1-.1 2.7 2.7z"/><path d="m32.7 28.5-2.7-2.8.1-.1 2.7 2.8z"/><path d="m31.7 29.5-2.7-2.8.1-.1 2.7 2.8z"/><path d="m30.7 30.6-2.8-2.9.1-.1 2.8 2.9z"/><path d="m29.8 31.5-2.9-2.8.1-.1 2.9 2.8z"/><path d="m28.9 32.4-2.8-2.9.1-.1 2.8 2.9z"/><path d="m28.1 33.2-2.9-2.9.1-.1 2.9 2.9z"/><path d="m24.4 31.2 3 2.8-.1.1z"/><path d="m26.4 34.9-2.9-2.9.1-.1 2.9 2.9z"/><path d="m25.7 35.7-3-2.9.1-.1 3 2.9z"/><path d="m22.1 33.5 3 2.9h-.1z"/><path d="m21.5 34 3 2.9-.1.1z"/></g><path d="m49 9.8c-.3.3-.5.4-.7.3-.2-.2 0-.4.3-.7s.6-.2.6-.2.1.4-.2.6z" fill="#967e32"/><path d="m48.4 10.1c-.2-.2 0-.4.3-.7s.6-.2.6-.2z" fill="#b99b38"/><path d="m43.4 15.5c-.1.1-.3.1-.4 0s-.1-.3 0-.4.3-.1.4 0 .1.3 0 .4z" fill="#eedd84"/><path d="m40.1 18.8c-.1.1-.3.1-.4 0s-.1-.3 0-.4.3-.1.4 0c.1.2.1.3 0 .4z" fill="#eedd84"/><path d="m37.2 21.7c-.1.1-.3.1-.4 0s-.1-.3 0-.4.3-.1.4 0 .1.3 0 .4z" fill="#eedd84"/><path d="m34.5 24.4c-.1.1-.3.1-.4 0s-.1-.3 0-.4.3-.1.4 0 .1.3 0 .4z" fill="#eedd84"/><path d="m32 28.6c-.1.1-.3.1-.4 0s-.1-.3 0-.4.3-.1.4 0c.1.2.1.3 0 .4z" fill="#eedd84"/><path d="m30.3 26.9c-.1.1-.3.1-.4 0s-.1-.3 0-.4.3-.1.4 0c.1.2.1.3 0 .4z" fill="#eedd84"/><path d="m28.2 30.7c-.1.1-.3.1-.4 0s-.1-.3 0-.4.3-.1.4 0 .1.3 0 .4z" fill="#eedd84"/><path d="m26.5 32.4c-.1.1-.3.1-.4 0s-.1-.3 0-.4.3-.1.4 0 .1.3 0 .4z" fill="#eedd84"/><path d="m24.8 34.1c-.1.1-.3.1-.4 0s-.1-.3 0-.4.3-.1.4 0 .1.3 0 .4z" fill="#eedd84"/><path d="m23.5 35.4c-.1.1-.3.1-.4 0s-.1-.3 0-.4.3-.1.4 0 .1.3 0 .4z" fill="#eedd84"/><path d="m23.3 39.2c-.2.2-.7.2-.9-.1l-2.9-2.9c-.3-.3-.3-.7-.1-.9s.7-.2.9.1l2.9 2.9c.3.2.3.6.1.9z" fill="#fff"/><path d="m23.3 39.2c-.2.2-.7.2-.9-.1l-2.9-2.9c-.3-.3-.3-.7-.1-.9s.7-.2.9.1l2.9 2.9c.3.2.3.6.1.9z" fill="#fff"/><path d="m20.9 37.7-1.4-1.4c-.1-.1-.2-.3-.2-.5s0-.3.2-.5c.1-.1.3-.2.5-.2s.3.1.5.2l1.4 1.4z" fill="#c9c9c9"/><path d="m19.5 36.2c-.2-.2-.3-.6-.1-.8s.5-.2.8.1l2.9 2.9c.2.2.3.6.1.8s-.5.2-.8-.1z" fill="#c9c9c9"/><path d="m19.5 36.2c-.1-.1-.2-.3-.2-.4s0-.3.1-.4.2-.1.4-.1c.1 0 .3.1.4.2l1.4 1.4-.6.7z" fill="#fff"/><path d="m22.8 38.8c-.1 0-.2-.1-.2-.2s.1-.2.2-.2.2.1.2.2c0 .2-.1.2-.2.2z" fill="#676767"/><path d="m19.9 36c-.1 0-.2-.1-.2-.2s.1-.2.2-.2.2.1.2.2-.1.2-.2.2z" fill="#818181"/><path d="m22.2 38.3c-.1 0-.2-.1-.2-.2s.1-.2.2-.2.2.1.2.2-.1.2-.2.2z" fill="#676767"/><path d="m20.5 36.6c-.1 0-.2-.1-.2-.2s.1-.2.2-.2.2.1.2.2-.1.2-.2.2z" fill="#818181"/><path d="m21 37.1c-.1 0-.2-.1-.2-.2s.1-.2.2-.2.2.1.2.2-.1.2-.2.2z" fill="#818181"/><path d="m21.6 37.7c-.1 0-.2-.1-.2-.2s.1-.2.2-.2.2.1.2.2-.1.2-.2.2z" fill="#676767"/><path d="m20 42.4c-.2.2-.7.2-.9-.1l-2.9-2.9c-.3-.3-.3-.7-.1-.9s.7-.2.9.1l2.9 2.9c.4.2.4.6.1.9z" fill="#fff"/><path d="m20 42.4c-.2.2-.7.2-.9-.1l-2.9-2.9c-.3-.3-.3-.7-.1-.9s.7-.2.9.1l2.9 2.9c.4.2.4.6.1.9z" fill="#fff"/><path d="m17.7 40.9-1.4-1.4c-.2-.2-.3-.3-.3-.5s0-.3.2-.5c.1-.1.3-.2.5-.2s.3.1.5.2l1.4 1.4z" fill="#c9c9c9"/><path d="m16.3 39.4c-.2-.2-.3-.6-.1-.8s.5-.2.8.1l2.9 2.9c.2.2.3.6.1.8s-.5.2-.8-.1z" fill="#c9c9c9"/><path d="m16.3 39.4c-.1-.1-.2-.3-.2-.4s0-.3.1-.4.2-.1.4-.1c.1 0 .3.1.4.2l1.4 1.4-.7.7z" fill="#fff"/><path d="m19.6 42.1c-.1 0-.2-.1-.2-.2s.1-.2.2-.2.2.1.2.2c-.1.1-.1.2-.2.2z" fill="#676767"/><path d="m16.7 39.2c-.1 0-.2-.1-.2-.2s.1-.2.2-.2.2.1.2.2-.1.2-.2.2z" fill="#818181"/><path d="m19 41.5c-.1 0-.2-.1-.2-.2s.1-.2.2-.2.2.1.2.2-.1.2-.2.2z" fill="#676767"/><path d="m17.3 39.8c-.1 0-.2-.1-.2-.2s.1-.2.2-.2.2.1.2.2c-.1.1-.1.2-.2.2z" fill="#818181"/><path d="m17.8 40.3c-.1 0-.2-.1-.2-.2s.1-.2.2-.2.2.1.2.2c0 .2-.1.2-.2.2z" fill="#818181"/><path d="m18.4 40.9c-.1 0-.2-.1-.2-.2s.1-.2.2-.2.2.1.2.2-.1.2-.2.2z" fill="#676767"/><path d="m16.2 46.2c-.3.2-.7.1-.9-.3l-2.1-3.4c-.2-.3-.1-.7.2-.9s.7-.1.9.3l2.1 3.4c.2.3.1.7-.2.9z" fill="#fff"/><path d="m16.2 46.2c-.3.2-.7.1-.9-.3l-2.1-3.4c-.2-.3-.1-.7.2-.9s.7-.1.9.3l2.1 3.4c.2.3.1.7-.2.9z" fill="#fff"/><path d="m14.3 44.3-1.1-1.8c-.1-.2-.1-.4-.1-.5 0-.2.1-.3.3-.4.1-.1.3-.1.5-.1s.3.2.4.3l1 1.5z" fill="#c9c9c9"/><path d="m13.3 42.4c-.2-.3-.1-.6.1-.8.2-.1.6 0 .7.2l2.1 3.4c.2.3.1.6-.1.8-.2.1-.6 0-.7-.2z" fill="#c9c9c9"/><path d="m13.3 42.4c-.1-.1-.1-.3-.1-.4s.1-.3.2-.3c.1-.1.3-.1.4 0 .1 0 .3.1.3.3l1 1.6-.7.7z" fill="#fff"/><path d="m15.8 45.7c-.1 0-.2-.1-.1-.2 0-.1.1-.2.2-.1.1 0 .2.1.1.2 0 .1-.1.2-.2.1z" fill="#676767"/><path d="m13.6 42.3c-.1 0-.2-.1-.1-.2 0-.1.1-.2.2-.1.1 0 .2.1.1.2 0 0-.1.1-.2.1z" fill="#818181"/><path d="m15.4 45.1c-.1 0-.2-.1-.1-.2 0-.1.1-.2.2-.1.1 0 .2.1.1.2 0 0-.1.1-.2.1z" fill="#676767"/><path d="m14.1 43c-.1 0-.2-.1-.1-.2 0-.1.1-.2.2-.1.1 0 .2.1.1.2 0 0-.1.1-.2.1z" fill="#818181"/><path d="m14.5 43.7c-.1 0-.2-.1-.1-.2 0-.1.1-.2.2-.1.1 0 .2.1.1.2 0 0-.1.1-.2.1z" fill="#818181"/><path d="m14.9 44.4c-.1 0-.2-.1-.1-.2 0-.1.1-.2.2-.1.1 0 .2.1.1.2 0 0-.1.1-.2.1z" fill="#676767"/><path d="m47.1 9.6-36.7 35.8 36.7-35.8 1.9-1.7h.1z" fill="none" stroke="#c4c4c4" stroke-miterlimit="10" stroke-width=".12"/><path d="m47.5 10-36.5 35.8 36.5-35.8 3.1-3h.1z" fill="none" stroke="#c4c4c4" stroke-miterlimit="10" stroke-width=".12"/><path d="m47.9 10.4-36.3 36 36.3-36 4.2-4.2h.1z" fill="none" stroke="#c4c4c4" stroke-miterlimit="10" stroke-width=".12"/><path d="m48.9 11.5-35.7 36.4 35.7-36.4 8.1-8h-.1z" fill="none" stroke="#c4c4c4" stroke-miterlimit="10" stroke-width=".12"/><path d="m48.6 11.1-35.9 36.3 35.9-36.3 6.8-6.8h-.1z" fill="none" stroke="#c4c4c4" stroke-miterlimit="10" stroke-width=".12"/><path d="m48.2 10.7-36.1 36.2 36.1-36.2 5.7-5.5h-.1z" fill="none" stroke="#c4c4c4" stroke-miterlimit="10" stroke-width=".12"/><path d="m17.1 46.9c-.4.4-.4 1 0 1.3.4.4 1 .4 1.3 0 .4-.4.4-1 0-1.3-.3-.3-.9-.3-1.3 0z" fill="#d6d6d6"/><path d="m17.1 48.2c.4.4 1 .4 1.3 0 .4-.4.4-1 0-1.3z" fill="#fff"/><path d="m18.2 48c-.2.2-.6.2-.8 0s-.2-.6 0-.8.6-.2.8 0 .3.6 0 .8z" fill="#d6d6d6"/><path d="m17.4 48c-.2-.2-.2-.6 0-.8s.6-.2.8 0z" fill="#fff"/><path d="m17.8 49.5c-.4.4-.4 1 0 1.3.4.4 1 .4 1.3 0 .4-.4.4-1 0-1.3-.3-.4-.9-.4-1.3 0z" fill="#d6d6d6"/><path d="m17.8 50.8c.4.4 1 .4 1.3 0 .4-.4.4-1 0-1.3z" fill="#fff"/><path d="m18.9 50.6c-.2.2-.6.2-.8 0s-.2-.6 0-.8.6-.2.8 0 .2.6 0 .8z" fill="#d6d6d6"/><path d="m18 50.6c-.2-.2-.2-.6 0-.8s.6-.2.8 0z" fill="#fff"/><path d="m18 52.3c-.4.4-.4 1 0 1.3.4.4 1 .4 1.3 0 .4-.4.4-1 0-1.3-.3-.4-.9-.4-1.3 0z" fill="#d6d6d6"/><path d="m18 53.6c.4.4 1 .4 1.3 0 .4-.4.4-1 0-1.3z" fill="#fff"/><path d="m19.1 53.4c-.2.2-.6.2-.8 0s-.2-.6 0-.8.6-.2.8 0 .2.6 0 .8z" fill="#d6d6d6"/><path d="m18.2 53.4c-.2-.2-.2-.6 0-.8s.6-.2.8 0z" fill="#fff"/><path d="m50.8 7c-.1.1-.3.1-.4-.1-.1-.1-.1-.3.1-.4.1-.1.3-.1.4.1.1.1 0 .3-.1.4z" fill="#b4b4b4"/><path d="m50.7 6.9c-.1.1-.2 0-.2 0-.1-.1 0-.2 0-.2.1-.1.2 0 .2 0 .1 0 .1.1 0 .2z" fill="#ccc"/><path d="m49.3 7.9c-.1.1-.3.1-.4-.1-.1-.1-.1-.3.1-.4.1-.1.3-.1.4.1 0 .1 0 .3-.1.4z" fill="#b4b4b4"/><path d="m49.2 7.8c-.1.1-.2 0-.2 0-.1-.1 0-.2 0-.2.1-.1.2 0 .2 0 .1 0 .1.1 0 .2z" fill="#ccc"/><path d="m52.4 6.1c-.1.1-.3.1-.4-.1-.1-.1-.1-.3.1-.4.1-.1.3-.1.4.1 0 .1 0 .3-.1.4z" fill="#b4b4b4"/><path d="m52.3 6c-.1.1-.2 0-.2 0-.1-.1 0-.2 0-.2.1-.1.2 0 .2 0 .1.1.1.2 0 .2z" fill="#ccc"/><path d="m54 5.2c-.1.1-.3.1-.4-.1-.1-.1-.1-.3.1-.4.1-.1.3-.1.4.1 0 .1 0 .3-.1.4z" fill="#b4b4b4"/><path d="m53.9 5.1c-.1.1-.2 0-.2 0-.1-.1 0-.2 0-.2.1-.1.2 0 .2 0 .1.1.1.2 0 .2z" fill="#ccc"/><path d="m55.5 4.4c-.1.1-.3.1-.4-.1-.1-.1-.1-.3.1-.4.1-.1.3-.1.4.1.1.1 0 .3-.1.4z" fill="#b4b4b4"/><path d="m55.4 4.3c-.1.1-.2 0-.2 0-.1-.1 0-.2 0-.2.1-.1.2 0 .2 0 .1 0 .1.1 0 .2z" fill="#ccc"/><path d="m57.1 3.5c-.1.1-.3.1-.4-.1-.1-.1-.1-.3.1-.4.1-.1.3-.1.4.1.1.1 0 .3-.1.4z" fill="#b4b4b4"/><path d="m57 3.4c-.1.1-.2 0-.2 0-.1-.1 0-.2 0-.2.1-.1.2 0 .2 0 .1 0 .1.1 0 .2z" fill="#ccc"/></svg>