<svg enable-background="new 0 0 60 60" height="60" viewBox="0 0 60 60" width="60" xmlns="http://www.w3.org/2000/svg"><path d="m47 58.1c0 1-.8 1.9-1.9 1.9h-30.2c-1 0-1.9-.8-1.9-1.9v-56.2c0-1 .8-1.9 1.9-1.9h30.2c1 0 1.9.8 1.9 1.9z" fill="#af8424"/><g fill="#424143"><path d="m23 52v-.2s-.1.2-.5.2h-1.5c-.6 0-.9-.2-.9-.7v-.3c0-.4.2-.6.8-.6h1.5c.4 0 .5.2.5.2v-.4c0-.3-.2-.5-.6-.5h-1c-.6 0-.6.2-.6.4h-.4c0-.3 0-.7.9-.7h1.1c.7 0 1 .3 1 .9v1.7zm-.6-1.3h-1.3c-.5 0-.6.1-.6.4v.2c0 .2.1.4.6.4h1.3c.4 0 .6-.2.6-.5s-.2-.5-.6-.5z"/><path d="m26.8 52v-1.6c0-.5-.3-.7-.8-.7h-1c-.4 0-.8.3-.8.7v1.6h-.4v-2.6h.4v.4c.1-.2.4-.4.8-.4h1c.8 0 1.1.5 1.1 1.1v1.5z"/><path d="m30.5 52v-.2s-.1.2-.5.2h-1.5c-.6 0-.9-.2-.9-.7v-.3c0-.4.2-.6.8-.6h1.5c.4 0 .5.2.5.2v-.4c0-.3-.2-.5-.6-.5h-1c-.6 0-.6.2-.6.4h-.4c0-.3 0-.7.9-.7h1.1c.7 0 1 .3 1 .9v1.7zm-.5-1.3h-1.3c-.5 0-.6.1-.6.4v.2c0 .2.1.4.6.4h1.3c.4 0 .6-.2.6-.5-.1-.3-.3-.5-.6-.5z"/><path d="m31.7 52v-3.6h.4v3.6z"/><path d="m34.9 52h-1c-.8 0-1.1-.4-1.1-1v-.6c0-.6.3-1 1.1-1h1c.9 0 1.1.5 1.1 1v.6c0 .5-.3 1-1.1 1zm.7-1.6c0-.5-.3-.7-.8-.7h-1c-.5 0-.8.2-.8.7v.6c0 .5.3.7.8.7h1c.5 0 .8-.2.8-.7z"/><path d="m38.7 53.1h-1c-.6 0-1-.3-1-.7h.3c0 .2.2.4.6.4h1c.5 0 .7-.2.7-.5v-.6c0 .1-.3.3-.7.3h-1.1c-.7 0-1.1-.3-1.1-1v-.7c0-.6.3-1 1.1-1h1.1c.5 0 .7.2.7.3v-.3h.4v2.9c.1.5-.2.9-1 .9zm.7-2.7c0-.4-.2-.7-.8-.7h-.9c-.6 0-.9.2-.9.7v.6c0 .5.3.7.9.7h.9c.5 0 .8-.3.8-.7z"/><path d="m21.2 55.9h-1.2c-.7 0-1-.4-1-1v-.6c0-.6.3-1 1.1-1h1.1c1 0 1.1.7 1.1.9h-.4c0-.2-.1-.6-.7-.6h-1.1c-.4 0-.7.2-.7.7v.7c0 .4.3.6.7.6h1.1c.6 0 .7-.4.7-.6h.4c0 .2-.1.9-1.1.9z"/><path d="m25.7 55.9v-1.6c0-.5-.3-.7-.7-.7h-1c-.4 0-.8.2-.8.7v1.6h-.4v-3.6h.4v1.4s.1-.4.8-.4h1c.8 0 1.1.5 1.1 1v1.6z"/><path d="m28.7 55.9h-1c-.8 0-1.1-.4-1.1-1v-.6c0-.6.3-1 1.1-1h1c.9 0 1.1.5 1.1 1v.6c0 .5-.3 1-1.1 1zm.8-1.6c0-.5-.3-.7-.8-.7h-1c-.5 0-.8.2-.8.7v.6c0 .5.3.7.8.7h1c.5 0 .8-.2.8-.7z"/><path d="m32.9 54.4c0-.2-.1-.7-.8-.7h-.7c-.4 0-.7.3-.7.6v1.7h-.4v-2.6h.4v.3s.2-.3.7-.3h.7c1 0 1.1.7 1.1 1z"/><path d="m36.8 55.9v-.3c-.2.2-.5.3-.8.3h-1c-.8 0-1.1-.4-1.1-1v-1.6h.4v1.6c0 .5.3.7.8.7h1c.4 0 .8-.2.8-.6v-1.6h.4v2.6h-.5z"/><path d="m40 55.9h-1.4c-.7 0-.9-.3-.9-.6v-.2h.4v.1c0 .2.1.4.6.4h1.3c.4 0 .6-.1.6-.4v-.1c0-.2-.2-.4-.5-.4h-1.5c-.6 0-.9-.2-.9-.7 0-.4.3-.7.9-.7h1.2c1 0 1.1.4 1.1.6v.2h-.4v-.1c0-.1-.1-.3-.7-.3h-1.3c-.3 0-.5.1-.5.4v.1c0 .2.2.4.5.4h1.5c.6 0 .9.2.9.7v.1c.1.2-.2.5-.9.5z"/><path d="m15.1 30 1.1-.4-1.1-.4v-.5h1.5v.3h-1.2l1.2.5v.3l-1.2.5h1.2v.3h-1.5z"/><path d="m15.1 27.6c0-.5.2-.6.7-.6.7 0 .8.1.8.6s-.1.6-.8.6c-.5.1-.7-.1-.7-.6zm1.3 0c0-.3-.1-.3-.5-.3-.5 0-.5.1-.5.3 0 .3 0 .3.5.3.4.1.5 0 .5-.3z"/><path d="m15.1 26 1.2-.6h-1.2v-.3h1.5v.5l-1.2.6h1.2v.3h-1.5z"/><path d="m15.1 24c0-.5.2-.6.7-.6.7 0 .8.1.8.6s-.1.6-.8.6c-.5 0-.7-.1-.7-.6zm1.3 0c0-.3-.1-.3-.5-.3-.5 0-.5.1-.5.3 0 .3 0 .3.5.3.4 0 .5 0 .5-.3z"/><path d="m44 23.8v-.3h1.5v.3z"/><path d="m45.5 24.8-1.2.6h1.2v.3h-1.5v-.5l1.2-.6h-1.2v-.3h1.5z"/><path d="m44 26.4v-.3h1.5v.6c0 .4-.1.5-.5.5s-.5-.1-.5-.5v-.4zm.8 0v.3c0 .2 0 .3.2.3s.3-.1.3-.3v-.3z"/><path d="m45.5 28h-1c-.2 0-.3 0-.3.3s.1.3.3.3h1v.4h-1c-.4 0-.5-.1-.5-.6s.1-.6.5-.6h1z"/><path d="m44 30v-.3h1.2v-.4h.2v1.1h-.2v-.4z"/><path d="m36.5 37.3h-13c-1.3 0-2.3-1.1-2.3-2.3v-2.2c0-1.3 1.1-2.3 2.3-2.3h12.9c1.3 0 2.3 1.1 2.3 2.3v2.2c.1 1.3-.9 2.3-2.2 2.3zm-13-6.2c-.9 0-1.6.7-1.6 1.6v2.3c0 .9.7 1.6 1.6 1.6h12.9c.9 0 1.6-.7 1.6-1.6v-2.2c0-.9-.7-1.6-1.6-1.6z"/><path d="m47 24.2h1.1v5.6h-1.1z"/><path d="m11.9 24.2h1.1v5.6h-1.1z"/><path d="m16.6 42.1v.3h-1.2v.4h-.2v-1.1h.2v.4z"/><path d="m15.7 40.9v-.7h-.6v-.2h1.5v.3h-.6v.7h.6v.3h-1.5v-.3z"/><path d="m16.6 39.2v.3h-1.5v-.7c0-.3.1-.5.5-.5.2 0 .4 0 .4.3 0-.2.1-.2.3-.2h.3v.3h-.3c-.1 0-.2.1-.2.2v.4zm-.7 0v-.4c0-.2-.1-.2-.2-.2-.2 0-.3 0-.3.2v.4z"/><path d="m15.1 37.5h1c.2 0 .3 0 .3-.3s-.1-.3-.3-.3h-1v-.3h1c.4 0 .5.1.5.6s-.1.6-.5.6h-1z"/><path d="m11.9 36.9h1.1v5.6h-1.1z"/></g><path d="m27.9 46-2.1-3.6 2.1-3.6h4.2l2.1 3.6-2.1 3.6z" fill="#e4dec4"/><path d="m32.2 46.2h-4.4l-2.2-3.8 2.2-3.8h4.4l2.2 3.8zm-4.2-.3h4l2-3.5-2-3.5h-4l-2 3.5z" fill="#bdb7a0"/><path d="m32.8 42.4c0 1.5-1.2 2.8-2.8 2.8-1.5 0-2.8-1.2-2.8-2.8 0-1.5 1.2-2.8 2.8-2.8 1.5 0 2.8 1.3 2.8 2.8z" fill="#e4dec4"/><path d="m30 45.3c-1.6 0-2.9-1.3-2.9-2.9s1.3-2.9 2.9-2.9 2.9 1.3 2.9 2.9-1.3 2.9-2.9 2.9zm0-5.5c-1.4 0-2.6 1.2-2.6 2.6s1.2 2.6 2.6 2.6 2.6-1.2 2.6-2.6-1.2-2.6-2.6-2.6z" fill="#bdb7a0"/><path d="m31 28c0 .5-.4 1-1 1-.5 0-1-.4-1-1s.4-1 1-1c.5 0 1 .4 1 1z" fill="#f37055"/><path d="m30 29.2c-.7 0-1.2-.5-1.2-1.2s.5-1.2 1.2-1.2 1.2.5 1.2 1.2c0 .6-.5 1.2-1.2 1.2zm0-2c-.4 0-.7.3-.7.7s.3.7.7.7.7-.3.7-.7c0-.3-.3-.7-.7-.7z" fill="#424143"/><path d="m25 9.4c-2 .3-3.9-1-4.2-3s1-3.9 3-4.2 3.9 1 4.2 3-1.1 3.9-3 4.2z" fill="#424143"/><path d="m25.5 5.4 2.1-.4.1.6-2.1.4z" fill="#e6e7e7"/><path d="m38.1 7.3c-.8 1.8-2.9 2.7-4.8 1.9-1.8-.8-2.7-2.9-1.9-4.8.8-1.8 2.9-2.7 4.8-1.9s2.7 2.9 1.9 4.8z" fill="#424143"/><path d="m35 4.6.9-2 .6.2-.9 2z" fill="#e6e7e7"/><path d="m22.8 14.5c.4 2-.9 3.9-2.9 4.2-2 .4-3.9-.9-4.2-2.9-.4-2 .9-3.9 2.9-4.2 1.9-.4 3.8.9 4.2 2.9z" fill="#424143"/><path d="m18.3 11.9.6-.1.4 2.2h-.6z" fill="#e6e7e7"/><path d="m31.8 12.1c1.7 1.1 2.1 3.4 1 5-1.1 1.7-3.4 2.1-5 1-1.7-1.1-2.1-3.4-1-5s3.3-2.1 5-1z" fill="#424143"/><path d="m26.8 13.6.3-.5 1.8 1.2-.3.5z" fill="#e6e7e7"/><path d="m43 12.6c1.4 1.4 1.4 3.7-.1 5.1-1.4 1.4-3.7 1.4-5.1-.1-1.4-1.4-1.4-3.7.1-5.1 1.4-1.4 3.7-1.3 5.1.1z" fill="#424143"/><path d="m37.8 12.9.4-.4 1.5 1.6-.4.4z" fill="#e6e7e7"/><path d="m16.2 20.9h.7v.2h-1v-1.5h.3z" fill="#424143"/><path d="m17.5 20.2h.7v.2h-.7v.4h.7v.2h-1v-1.5h1v.2h-.7z" fill="#424143"/><path d="m18.8 19.6.4 1.2.4-1.2h.3l-.5 1.5h-.4l-.5-1.5z" fill="#424143"/><path d="m20.5 20.2h.7v.2h-.7v.4h.7v.2h-1v-1.5h1v.2h-.7z" fill="#424143"/><path d="m22 20.9h.7v.2h-1v-1.5h.3z" fill="#424143"/><path d="m22.1 11.6h.7v.2h-1v-1.5h.3z" fill="#424143"/><path d="m23.8 10.3c.5 0 .6.2.6.7 0 .7-.1.8-.6.8s-.6-.1-.6-.8c0-.5.1-.7.6-.7zm0 1.3c.3 0 .3-.1.3-.5 0-.5-.1-.5-.3-.5-.3 0-.3 0-.3.5-.1.4 0 .5.3.5z" fill="#424143"/><path d="m25 10.3.3 1.2.3-1.2h.4l.3 1.2.3-1.2h.3l-.4 1.5h-.4l-.3-1.1-.3 1.1h-.4l-.4-1.5z" fill="#424143"/><path d="m32.6 10.9h.7v-.6h.3v1.5h-.3v-.6h-.7v.6h-.3v-1.5h.3z" fill="#424143"/><path d="m34.4 11.8h-.3v-1.5h.3z" fill="#424143"/><path d="m36.1 11v.2c0 .5-.1.6-.6.6-.6 0-.6-.2-.6-.8 0-.5.1-.8.6-.8s.6.1.6.5h-.3c0-.2-.1-.2-.4-.2s-.4.1-.4.5 0 .5.4.5c.3 0 .4 0 .4-.3h-.4v-.2z" fill="#424143"/><path d="m36.8 10.9h.7v-.6h.3v1.5h-.3v-.6h-.7v.6h-.3v-1.5h.3z" fill="#424143"/><path d="m27.1 21.1h-.3v-1.5h.7c.3 0 .5.1.5.5 0 .2 0 .4-.3.4.2 0 .2.1.2.3v.3h-.3v-.3c0-.1-.1-.2-.2-.2h-.4zm0-.7h.4c.2 0 .2-.1.2-.2 0-.2 0-.3-.2-.3h-.4z" fill="#424143"/><path d="m28.8 20.8-.1.3h-.3l.5-1.5h.4l.5 1.5h-.3l-.1-.3zm.3-1-.3.8h.5z" fill="#424143"/><path d="m30.8 21.1h-.3v-1.2h-.5v-.2h1.1v.2h-.4z" fill="#424143"/><path d="m31.8 20.2h.7v.2h-.7v.4h.7v.2h-1v-1.5h1v.2h-.7z" fill="#424143"/><path d="m36.8 19.6h.7c.4 0 .6.2.6.7 0 .6-.1.8-.6.8h-.7zm.2 1.3h.3c.3 0 .4-.1.4-.5s-.1-.5-.3-.5h-.4z" fill="#424143"/><path d="m38.7 20.2h.7v.2h-.7v.4h.7v.2h-1v-1.5h1v.2h-.7z" fill="#424143"/><path d="m40.2 21.1h-.3v-1.5h.6c.4 0 .5.1.5.5s-.1.5-.5.5h-.4v.5zm0-.7h.3c.2 0 .3 0 .3-.2s-.1-.3-.3-.3h-.3z" fill="#424143"/><path d="m42.1 21.1h-.3v-1.2h-.4v-.2h1.1v.2h-.4z" fill="#424143"/><path d="m43.2 20.2h.7v-.6h.3v1.5h-.3v-.6h-.7v.6h-.3v-1.5h.3z" fill="#424143"/></svg>