<svg enable-background="new 0 0 60 60" height="60" viewBox="0 0 60 60" width="60" xmlns="http://www.w3.org/2000/svg"><path d="m48.2 56.5c0 .5-.4.9-.9.9h-34.6c-.5 0-.9-.4-.9-.9v-55.3c0-.5.4-.9.9-.9h34.6c.5 0 .9.4.9.9z" fill="#063e89"/><path d="m47.3 57.7h-34.6c-.7 0-1.2-.5-1.2-1.2v-55.3c0-.7.5-1.2 1.2-1.2h34.6c.7 0 1.2.5 1.2 1.2v55.3c0 .6-.5 1.2-1.2 1.2zm-34.6-57.1c-.3 0-.6.3-.6.6v55.3c0 .3.3.6.6.6h34.6c.3 0 .6-.3.6-.6v-55.3c0-.3-.3-.6-.6-.6z" fill="#5b3b4b"/><path d="m13.5 21.6c-.2 0-.3-.1-.3-.3v-19.4c0-.2.1-.3.3-.3h33.2c.2 0 .3.1.3.3v19.5c0 .2-.1.3-.3.3h-33.2z" fill="#414042"/><path d="m46.6 1.7c.1 0 .1.1.1.1v19.5c0 .1-.1.1-.1.1h-33.1c-.1 0-.1-.1-.1-.1v-19.4c0-.1.1-.1.1-.1zm0-.3h-33.1c-.2 0-.4.2-.4.4v19.5c0 .2.2.4.4.4h33.2c.2 0 .4-.2.4-.4v-19.4c0-.3-.2-.5-.5-.5z" fill="#f1f2f2"/><path d="m27.7 60-.3-2.6h5.2l-.3 2.6z" fill="#414042"/><path d="m48.5 23.5h1.1v5.3h-1.1z" fill="#414042"/><path d="m10.4 23.5h1.1v5.3h-1.1z" fill="#414042"/><g fill="#dce8c7"><path d="m15.6 7.6s0 .1.1.1c0 .1.1.1.1.2s.1.1.1.2.1.1.1.2c0-.1 0-.1.1-.2-.1-.1-.1-.1 0-.2 0-.1.1-.1.1-.2s.1-.1.1-.1h.2v.3.3.3.3h-.2c0-.1 0-.3 0-.4s0-.3 0-.4v.1.1s0 .1-.1.1c0 0 0 .1-.1.1v.1.1h-.1v-.1-.1s0-.1-.1-.1c0 0 0-.1-.1-.1v-.1-.1.4.4h-.2c0-.1 0-.2 0-.3s0-.2 0-.3 0-.2 0-.3 0-.2 0-.3z"/><path d="m17.4 8.7v-.1-.1h-.5v.1.1h-.2c0-.1.1-.2.1-.3s.1-.2.1-.3.1-.2.1-.2c0-.1.1-.2.1-.2h.2c0 .1.1.2.1.2 0 .1.1.2.1.2 0 .1.1.2.1.3s.1.2.1.3zm-.3-.9c0 .1-.1.1-.1.2s-.1.2-.1.3h.4c0-.1-.1-.2-.1-.3s-.1-.2-.1-.2z"/><path d="m18.5 8.7c0-.1-.1-.1-.1-.2s-.1-.1-.1-.2-.1-.1-.1-.2c-.1-.1-.2-.2-.2-.2v.8h-.2v-1.1h.2s.1.1.1.2.1.1.1.2.1.1.1.2.1.1.1.2v-.8h.2v1.1z"/><path d="m19.3 8.7c-.1 0-.1 0-.2 0s-.1-.1-.1-.1l-.1-.1c0-.1 0-.1 0-.2v-.7h.2v.7.1.1h.1.1.1.1s0 0 0-.1v-.1-.7h.2v.7.2c0 .1 0 .1-.1.1l-.1.1s-.1 0-.2 0z"/><path d="m20.7 8.7v-.1-.1h-.5v.1.1h-.2c0-.1.1-.2.1-.3s.1-.2.1-.3.1-.2.1-.2c0-.1.1-.2.1-.2h.2c0 .1.1.2.1.2 0 .1.1.2.1.2 0 .1.1.2.1.3s.1.2.1.3zm-.3-.9c0 .1-.1.1-.1.2s-.1.2-.1.3h.4c0-.1-.1-.2-.1-.3s-.1-.2-.1-.2z"/><path d="m21.7 8.5v.2h-.7v-1.1h.2v.9z"/><path d="m24.9 8.1v.2c0 .1-.1.1-.1.2-.1 0-.1.1-.2.1s-.2 0-.2 0h-.1c-.1 0-.1 0-.2 0v-1h.2.1.2c.1 0 .1.1.2.1s.1.1.1.2zm-.7.4h.1c.1 0 .2 0 .3-.1s.1-.2.1-.3 0-.2-.1-.3-.2-.1-.3-.1-.1 0-.1 0z"/><path d="m25.1 8.7v-1.1h.7v.2h-.5v.2h.4v.2h-.4v.3h.5v.2z"/><path d="m26.7 8.7v-.1-.1h-.5v.1.1h-.2c0-.1.1-.2.1-.3s.1-.2.1-.3.1-.2.1-.2c0-.1.1-.2.1-.2h.2c0 .1.1.2.1.2 0 .1.1.2.1.2 0 .1.1.2.1.3s.1.2.1.3zm-.3-.9c0 .1-.1.1-.1.2s-.1.2-.1.3h.4c0-.1-.1-.2-.1-.3s-.1-.2-.1-.2z"/><path d="m27.8 7.6v.2h-.3v.9h-.2v-1h-.3v-.1z"/><path d="m28.6 7.6h.2v1.1h-.2v-.5h-.5v.5h-.2v-1.1h.2v.4h.5z"/><path d="m32.6 7.6c.2 0 .3 0 .4.1s.1.1.1.3c0 .1-.1.2-.2.3 0 0 0 .1.1.1l.1.1.1.1s0 .1.1.1h-.2s0-.1-.1-.1c0 0 0-.1-.1-.1 0 0 0-.1-.1-.1 0 0 0-.1-.1-.1h-.1v.4h-.2v-1.1zm0 .1-.1.3h.1.1.1s0 0 .1-.1v-.1-.1s0 0-.1-.1z"/><path d="m34 8.7v-.1-.1h-.5v.1.1h-.2c0-.1.1-.2.1-.3s.1-.2.1-.3.1-.2.1-.2c0-.1.1-.2.1-.2h.2c0 .1.1.2.1.2-.1 0 0 .1 0 .2s.1.2.1.3.1.2.1.3zm-.3-.9c0 .1-.1.1-.1.2s-.1.2-.1.3h.4c0-.1-.1-.2-.1-.3s-.1-.2-.1-.2z"/><path d="m34.7 7.6c.2 0 .3 0 .4.1s.1.1.1.3v.2l-.1.1s-.1 0-.2.1c-.1 0-.1 0-.2 0h-.1v.4h-.2v-1.2zm0 .1-.1.4h.1.2c0-.1.1-.1.1-.2v-.1s0 0-.1-.1h-.1z"/><path d="m35.3 8.7v-1.1h.7v.2h-.5v.2h.5v.2h-.4v.3h.5v.2z"/><path d="m40.9 7.6c.2 0 .3 0 .4.1s.1.1.1.3c0 .1-.1.2-.2.3 0 0 0 .1.1.1l.1.1.1.1s0 .1.1.1h-.2s0-.1-.1-.1c0 0 0-.1-.1-.1 0 0 0-.1-.1-.1 0 0 0-.1-.1-.1h-.1v.4h-.2v-1.1zm0 .1-.1.3h.1.1.1s0 0 .1-.1v-.1-.1s0 0-.1-.1l-.2.1c.1 0 .1 0 0 0z"/><path d="m41.6 8.7v-1.1h.7v.2h-.5v.2h.4v.2h-.4v.3h.5v.2z"/><path d="m42.8 8.5h.2v-.1s0 0 0-.1c0 0 0 0 0-.1 0 0 0 0-.1 0h-.1-.1s-.1 0-.1-.1c0 0 0-.1-.1-.1v-.1c0-.1 0-.2.1-.2.1-.1.2-.1.3-.1h.2.1l-.1.2h-.1-.1c-.1 0-.1 0-.1 0v.1.1h.1.1c.1 0 .1 0 .1.1 0 0 .1 0 .1.1 0 0 0 .1.1.1v.1c0 .1 0 .2-.1.2-.1.1-.2.1-.3.1h-.1-.1-.1l.2-.2c-.1 0-.1 0 0 0z"/></g><path d="m30.7 5.2c0 .4-.3.7-.7.7s-.7-.3-.7-.7.3-.7.7-.7.7.3.7.7z" fill="#c95f4b"/><path d="m48.2 56.5c0 .5-.4.9-.9.9h-34.6c-.5 0-.9-.4-.9-.9v-32.6c0-.5.4-.9.9-.9h34.6c.5 0 .9.4.9.9z" fill="#063e89"/><path d="m47.3 57.7h-34.6c-.7 0-1.2-.5-1.2-1.2v-32.6c0-.7.5-1.2 1.2-1.2h34.6c.7 0 1.2.5 1.2 1.2v32.6c0 .6-.5 1.2-1.2 1.2zm-34.6-34.4c-.3 0-.6.3-.6.6v32.6c0 .3.3.6.6.6h34.6c.3 0 .6-.3.6-.6v-32.6c0-.3-.3-.6-.6-.6z" fill="#5b3b4b"/><path d="m46.6 55.3c0 .2-.2.4-.4.4h-32.4c-.2 0-.4-.2-.4-.4v-16.9c0-.2.2-.4.4-.4h32.4c.2 0 .4.2.4.4z" fill="#414042"/><path d="m18.2 26.1c0 .1 0 .2-.1.3 0 .1-.1.2-.1.2-.1.1-.1.1-.2.1s-.2 0-.3 0-.2 0-.3 0-.2-.1-.2-.1c-.1-.1-.1-.1-.1-.2s-.1-.2-.1-.3 0-.2.1-.3c0-.1.1-.2.2-.2.1-.1.1-.1.2-.1h.3.3c.1 0 .2.1.2.1.1.1.1.1.1.2zm-1.1 0v.2c0 .1 0 .1.1.2l.1.1h.2.2c.1 0 .1-.1.1-.1s.1-.1.1-.2 0-.1 0-.2 0-.1 0-.2 0-.1-.1-.2l-.1-.1c-.1 0-.1 0-.2 0s-.1 0-.2 0-.1.1-.1.1-.1.1-.1.2z" fill="#414042"/><path d="m19 26.9c-.1 0-.2 0-.3 0s-.1-.1-.2-.1c0-.1-.1-.1-.1-.2s0-.1 0-.2v-.9h.3v.9.2s0 .1.1.1l.1.1h.1.1s.1 0 .1-.1c0 0 0-.1.1-.1 0 0 0-.1 0-.2v-.9h.3v.9.2c0 .1-.1.1-.1.2s-.1.1-.2.1-.2 0-.3 0z" fill="#414042"/><path d="m20.9 25.4v.2h-.4v1.2h-.3v-1.2h-.4v-.2z" fill="#414042"/><path d="m21.5 25.4c.2 0 .4 0 .5.1s.2.2.2.4v.2c0 .1-.1.1-.1.1-.1 0-.1.1-.2.1s-.2 0-.3 0h-.1v.5h-.3v-1.4zm0 .2c-.1 0-.1 0-.2 0v.5h.1c.1 0 .2 0 .3-.1.1 0 .1-.1.1-.2v-.1s0-.1-.1-.1h-.2c.1.1.1 0 0 0z" fill="#414042"/><path d="m22.9 26.9c-.1 0-.2 0-.3 0s-.1-.1-.2-.1c0-.1-.1-.1-.1-.2s0-.1 0-.2v-.9h.3v.9.2s0 .1.1.1l.1.1h.1.1s.1 0 .1-.1c0 0 0-.1.1-.1 0 0 0-.1 0-.2v-.9h.3v.9.2c0 .1-.1.1-.1.2s-.1.1-.2.1-.2 0-.3 0z" fill="#414042"/><path d="m24.8 25.4v.2h-.4v1.2h-.3v-1.2h-.4v-.2z" fill="#414042"/><path d="m15.8 25.9h-1.5l.6-.6c.1-.1.1-.3 0-.4s-.3-.1-.4 0l-1 1c-.2.2-.2.4 0 .6l1 1c.1.1.1.1.2.1s.1 0 .2-.1.1-.3 0-.4l-.6-.6h1.5c.1 0 .3-.1.3-.3s-.1-.3-.3-.3z" fill="#414042"/><path d="m37.3 25.4h.3v1.4h-.3z" fill="#414042"/><path d="m38.8 26.9c0-.1-.1-.2-.2-.3s-.1-.2-.2-.3-.1-.2-.2-.3-.1-.2-.2-.2v1h-.3v-1.4h.2l.2.2c.1.1.1.2.2.2.1.1.1.2.2.3s.1.2.2.2v-.9h.3v1.4z" fill="#414042"/><path d="m39.8 25.4c.2 0 .4 0 .5.1s.2.2.2.4v.2c0 .1-.1.1-.1.1-.1 0-.1.1-.2.1s-.2 0-.3 0h-.1v.5h-.3v-1.4zm0 .2c-.1 0-.1 0-.2 0v.5h.1c.1 0 .2 0 .3-.1.1 0 .1-.1.1-.2v-.1s0-.1-.1-.1h-.2c.1 0 .1 0 0 0z" fill="#414042"/><path d="m41.2 26.9c-.1 0-.2 0-.3 0s-.1-.1-.2-.1c0-.1-.1-.1-.1-.2s0-.1 0-.2v-.9h.3v.9.2s0 .1.1.1l.1.1h.1.1s.1 0 .1-.1c0 0 0-.1.1-.1 0 0 0-.1 0-.2v-.9h.3v.9.2c0 .1-.1.1-.1.2s-.1.1-.2.1-.2 0-.3 0z" fill="#414042"/><path d="m43.1 25.4v.2h-.4v1.2h-.3v-1.2h-.4v-.2z" fill="#414042"/><path d="m46.3 25.9h-1.5l.6-.6c.1-.1.1-.3 0-.4s-.3-.1-.4 0l-1 1c-.2.2-.2.4 0 .6l1 1c.1.1.1.1.2.1s.1 0 .2-.1.1-.3 0-.4l-.6-.6h1.5c.1 0 .3-.1.3-.3-.1-.2-.2-.3-.3-.3z" fill="#414042"/><path d="m21 11c1 1.3.8 3.2-.5 4.3-1.3 1-3.2.8-4.3-.5-1-1.3-.8-3.2.5-4.3s3.3-.9 4.3.5z" fill="#dce8c7"/><path d="m18.6 16.2c-1 0-2-.5-2.6-1.3-1.2-1.4-.9-3.6.5-4.7.6-.5 1.3-.7 2.1-.7 1 0 2 .5 2.6 1.3 1.2 1.4.9 3.6-.5 4.7-.6.5-1.3.7-2.1.7zm0-6.1c-.6 0-1.2.2-1.7.6-1.2.9-1.4 2.7-.4 3.8.5.7 1.3 1 2.1 1 .6 0 1.2-.2 1.7-.6 1.2-.9 1.4-2.7.4-3.8-.5-.6-1.2-1-2.1-1z" fill="#231f20"/><path d="m16.4 10.6.5-.4 1.1 1.4-.5.4z" fill="#231f20"/><path d="m27.4 9.9c1.6.5 2.5 2.2 1.9 3.8-.5 1.6-2.2 2.5-3.8 1.9-1.6-.5-2.5-2.2-1.9-3.8.4-1.5 2.2-2.4 3.8-1.9z" fill="#dce8c7"/><path d="m26.4 16.2c-.4 0-.7-.1-1-.2-.9-.3-1.5-.9-1.9-1.7s-.5-1.7-.2-2.6c.5-1.4 1.7-2.3 3.2-2.3.4 0 .7.1 1 .2 1.8.6 2.7 2.5 2.1 4.2-.5 1.5-1.7 2.4-3.2 2.4zm0-6.1c-1.2 0-2.2.8-2.6 1.9-.2.7-.2 1.4.2 2.1.3.7.9 1.1 1.6 1.4.3.1.6.1.9.1 1.2 0 2.2-.8 2.6-1.9.5-1.4-.3-3-1.7-3.5-.4-.1-.7-.1-1-.1z" fill="#231f20"/><path d="m23.3 12.1.2-.6 1.7.6-.2.6z" fill="#231f20"/><path d="m36.3 14.9c-1.1 1.2-3.1 1.3-4.3.2s-1.3-3.1-.2-4.3 3.1-1.3 4.3-.2c1.3 1.2 1.4 3.1.2 4.3z" fill="#dce8c7"/><path d="m34.1 16.2c-.9 0-1.7-.3-2.3-.9-.7-.6-1-1.4-1.1-2.3 0-.9.3-1.8.9-2.4.6-.7 1.5-1.1 2.5-1.1.9 0 1.7.3 2.3.9 1.4 1.3 1.4 3.4.2 4.7-.7.7-1.6 1.1-2.5 1.1zm0-6.1c-.8 0-1.5.3-2 .9-.5.5-.8 1.2-.7 2 0 .7.3 1.4.9 1.9.5.5 1.2.7 1.9.7.8 0 1.5-.3 2-.9 1-1.1 1-2.8-.1-3.9-.6-.4-1.3-.7-2-.7z" fill="#231f20"/><path d="m34.8 11.7 1.2-1.3.4.4-1.2 1.3z" fill="#231f20"/><path d="m32.5 16.5c0 .2-.1.3-.3.3s-.3-.1-.3-.3.1-.3.3-.3.3.2.3.3z" fill="#bdc6ab"/><path d="m36.4 16.5c0 .2-.1.3-.3.3s-.3-.1-.3-.3.1-.3.3-.3c.1 0 .3.2.3.3z" fill="#bdc6ab"/><path d="m43.1 15.6c-1.5.7-3.3-.1-4-1.6s.1-3.3 1.6-4 3.3.1 4 1.6c.6 1.6-.1 3.4-1.6 4z" fill="#dce8c7"/><path d="m41.9 16.2c-1.3 0-2.6-.8-3.1-2-.7-1.7.1-3.7 1.8-4.4.4-.2.9-.3 1.3-.3 1.3 0 2.6.8 3.1 2 .4.8.4 1.7 0 2.6-.3.8-1 1.5-1.8 1.8-.4.2-.9.3-1.3.3zm0-6.1c-.4 0-.7.1-1.1.2-1.4.6-2 2.2-1.4 3.6.4 1 1.4 1.7 2.5 1.7.4 0 .7-.1 1.1-.2.7-.3 1.2-.8 1.5-1.5s.3-1.4 0-2.1c-.6-1-1.5-1.7-2.6-1.7z" fill="#231f20"/><path d="m42.9 12 1.7-.7.2.6-1.7.7z" fill="#231f20"/><path d="m28.1 4.3c-.1 0-.2 0-.2 0-.1 0-.1-.1-.2-.1 0 0-.1-.1-.1-.2s0-.1 0-.2 0-.2 0-.2c0-.1.1-.1.1-.2 0 0 .1-.1.2-.1h.2.1.1.1l-.1.2h-.1-.1-.1s-.1 0-.1.1l-.1.1v.2.2s0 .1.1.1l.1.1h.1.2.1l.1.2s0 0-.1 0c0 0 0 0-.1 0h-.1c0-.2 0-.2-.1-.2z" fill="#dce8c7"/><path d="m29.3 3.2h.2v1.1h-.2v-.5h-.5v.5h-.2v-1.1h.2v.4h.5z" fill="#dce8c7"/><path d="m29.7 4.2v-1h.7v.2h-.5v.3h.4v.2h-.4v.3h.5v.2h-.7z" fill="#dce8c7"/><path d="m31.1 4.3c-.1 0-.2 0-.2 0-.1 0-.1-.1-.2-.1 0 0-.1-.1-.1-.2s0-.1 0-.2 0-.2 0-.2c0-.1.1-.1.1-.2 0 0 .1-.1.2-.1h.2.1.1.1l-.1.2h-.1-.1-.1s-.1 0-.1.1l-.1.1v.2.2s0 .1.1.1l.1.1h.1.2.1l.1.2s0 0-.1 0c0 0 0 0-.1 0h-.1c0-.2-.1-.2-.1-.2z" fill="#dce8c7"/><path d="m32.3 4.2-.2-.2-.1-.1-.1-.1v.5h-.2v-1.1h.2v.4l.1-.1.1-.1.1-.1.1-.1h.2l-.1.1-.1.1-.1.1-.1.1.1.1.1.1c0 .1.1.1.1.2s.1.1.1.2z" fill="#dce8c7"/><path d="m39 33.8h-.5v-1.2c0-.8.7-1.5 1.6-1.5h1.3v.5h-1.4c-.6 0-1.1.4-1.1 1v1.2z" fill="#414042"/><path d="m38.1 32.7c0-.1 0-.2 0-.3 0-.8-.7-1.4-1.6-1.4s-1.6.6-1.6 1.4.7 1.4 1.6 1.4c.5 0 1-.2 1.3-.6h-.8c-.2.1-.3.1-.5.1-.5 0-.9-.2-1-.6zm-2.7-.5c.1-.4.6-.7 1.1-.7s1 .3 1.1.7z" fill="#414042"/><path d="m23.1 30.3h.5v3.5h-.5z" fill="#414042"/><path d="m20.2 30.8h2.2v-.5h-2.2c-.9 0-1.6.7-1.6 1.5v2.1h.5v-1.5h3.3v-.5h-3.3v-.1c0-.6.5-1 1.1-1z" fill="#414042"/><path d="m31 33.8s0-1.3 0-1.4c0-.8-.7-1.4-1.6-1.4s-1.6.6-1.6 1.4v1.4h.5v-1.6c.1-.4.6-.7 1.1-.7s1 .3 1.1.7v1.6z" fill="#414042"/><path d="m27.2 31c-.3 0-1.4 0-1.5 0-.9 0-1.6.6-1.6 1.4s.7 1.4 1.6 1.4h.6v-.5s-.5 0-.6 0c-.5 0-.9-.3-1-.6-.1-.2-.1-.5-.1-.5.1-.4.6-.7 1.1-.7h1.1v2.3h.5v-2.3l-.1-.5c.1 0 .1 0 0 0z" fill="#414042"/><path d="m34.5 32.1c-.1-.5-.5-.8-.9-1-.2-.1-.4-.1-.6-.1s-.4 0-.6.1c-.5.2-.8.6-.9 1v.3.2.1c0 .2.1.3.3.5 0 .1.1.1.2.2h.1c.1.1.1.1.2.1s.1.1.2.1h.1c.1 0 .2.1.3.1h.1.3.3.1c.1 0 .2 0 .3-.1h.1c.1 0 .1-.1.2-.1s.1-.1.1-.1v.3c-.2.3-.6.6-1 .6-.2 0-.4 0-.5-.1h-.8c.3.4.8.6 1.3.6.9 0 1.6-.6 1.6-1.4 0-.4 0-1.1 0-1.1-.4 0-.4-.1-.5-.2zm-1 1.1c-.1 0-.2.1-.2.1-.1 0-.2 0-.3 0s-.2 0-.3 0-.2 0-.2-.1c-.2-.1-.4-.3-.5-.5s-.1-.5-.1-.5c0-.2.2-.4.4-.5s.4-.2.7-.2.5.1.7.2.3.3.4.5c0 0 0 .3-.1.5s-.3.4-.5.5z" fill="#414042"/><path d="m40.3 16.5c0 .2-.1.3-.3.3s-.3-.1-.3-.3.1-.3.3-.3.3.2.3.3z" fill="#dce8c7"/><path d="m44.1 16.5c0 .2-.1.3-.3.3s-.3-.1-.3-.3.1-.3.3-.3.3.2.3.3z" fill="#bdc6ab"/><path d="m24.8 16.5c0 .2-.1.3-.3.3s-.3-.1-.3-.3.1-.3.3-.3c.1 0 .3.2.3.3z" fill="#dce8c7"/><path d="m28.6 16.5c0 .2-.1.3-.3.3s-.3-.1-.3-.3.1-.3.3-.3c.1 0 .3.2.3.3z" fill="#bdc6ab"/><path d="m17 16.5c0 .2-.1.3-.3.3s-.3-.1-.3-.3.1-.3.3-.3.3.2.3.3z" fill="#dce8c7"/><path d="m20.8 16.5c0 .2-.1.3-.3.3s-.3-.1-.3-.3.1-.3.3-.3.3.2.3.3z" fill="#bdc6ab"/></svg>