<svg enable-background="new 0 0 60 63" height="63" viewBox="0 0 60 63" width="60" xmlns="http://www.w3.org/2000/svg"><g clip-rule="evenodd" fill-rule="evenodd"><path d="m5.5 61.6c.7 0 1.4.3 1.4.6s-.6.6-1.4.6-1.4-.3-1.4-.6.7-.6 1.4-.6z" fill="#17151a" stroke="#000" stroke-miterlimit="2.4142" stroke-width=".1058"/><path d="m54 61.6c.7 0 1.4.3 1.4.6s-.6.6-1.4.6c-.7 0-1.4-.3-1.4-.6s.7-.6 1.4-.6z" fill="#17151a" stroke="#000" stroke-miterlimit="2.4142" stroke-width=".1058"/><path d="m1.6.2h56.7c.8 0 1.5.7 1.5 1.5v59c0 .8-.7 1.5-1.5 1.5h-56.7c-.8 0-1.5-.7-1.5-1.5v-59c0-.8.7-1.5 1.5-1.5z" fill="#8e8a98"/><path d="m1.8.3h56.4c.8 0 1.5.7 1.5 1.5v58.8c0 .8-.7 1.5-1.5 1.5-18.8 0-37.6 0-56.4 0-.8 0-1.5-.7-1.5-1.5 0-6.2 0-52.5 0-58.8-.1-.8.6-1.5 1.5-1.5z" fill="#7b7885"/><path d="m1.9.5h56.2c.8 0 1.5.7 1.5 1.5v58.6c0 .8-.7 1.5-1.5 1.5-18.7 0-37.4 0-56.2 0-.8 0-1.5-.7-1.5-1.5 0-6.2 0-52.4 0-58.6 0-.9.7-1.5 1.5-1.5z"/><path d="m2.1.6h56c.8 0 1.4.7 1.4 1.5v31.5h-58.9v-31.5c0-.8.7-1.5 1.5-1.5z" fill="#303540"/><path d="m2.9 2.5h54.1v57.5h-54.1z" fill="#010005" stroke="#000" stroke-miterlimit="2.4142" stroke-width=".1058"/><path d="m3.5 2.6h53c.2 0 .3.1.3.3v56.6c0 .2-.1.3-.3.3h-53c-.2 0-.3-.1-.3-.3v-56.5c0-.2.1-.4.3-.4z" fill="#fff"/><path d="m3.4 2.8h53.1s.1 0 .1.1v56.7s0 .1-.1.1h-53.1s-.1 0-.1-.1z" stroke="#000" stroke-miterlimit="2.4142" stroke-width=".1058"/><path d="m2.6 3h-2.5c-.1 0-.1 0-.1-.1v-1.3c0-.8.7-1.5 1.5-1.5h1.5v2.5c0 .2-.2.4-.4.4z"/><path d="m2.6 3h-2.4c-.1 0-.2-.1-.2-.1v-1.3c0-.8.6-1.4 1.4-1.4h1.5v2.4c.1.2-.1.4-.3.4z" fill="#17151a"/><path d="m2.3 1.9c.3 0 .5.2.5.5s-.2.5-.5.5c-.3-.1-.5-.3-.5-.5 0-.3.2-.5.5-.5z"/><path d="m2.3 2c.2 0 .4.2.4.4s-.2.4-.4.4-.4-.2-.4-.4.2-.4.4-.4z" fill="#fff"/><path d="m2.3 2.1c.1 0 .2.1.2.1h-.1c-.1 0-.3.1-.3.3v.1s-.1-.1-.1-.2c0-.2.2-.3.3-.3z"/><path d="m57.4 3h2.5c.1 0 .1 0 .1-.1v-1.3c0-.8-.7-1.5-1.5-1.5h-1.5v2.5c0 .2.2.4.4.4z"/><path d="m57.4 3h2.4c.1 0 .1 0 .1-.1v-1.3c0-.8-.6-1.4-1.4-1.4h-1.5v2.4c0 .2.2.4.4.4z" fill="#17151a"/><path d="m57.7 1.9c-.3 0-.5.2-.5.5s.2.5.5.5.5-.2.5-.5-.2-.5-.5-.5z"/><path d="m57.7 2c-.2 0-.4.2-.4.4s.2.4.4.4.4-.2.4-.4-.2-.4-.4-.4z" fill="#fff"/><path d="m57.7 2.1c-.1 0-.2.1-.2.1h.1c.1 0 .3.1.3.3v.1c.1 0 .2-.1.2-.2-.1-.2-.3-.3-.4-.3z"/><path d="m2.6 59.5h-2.5c-.1 0-.1 0-.1.1v1.4c0 .8.7 1.5 1.5 1.5h1.5v-2.5c0-.4-.2-.5-.4-.5z"/><path d="m2.6 59.5h-2.4c-.1 0-.1 0-.1.1v1.3c0 .8.6 1.4 1.4 1.4h1.5v-2.4c0-.2-.2-.4-.4-.4z" fill="#17151a"/><path d="m1 61.8c.5 0 .8-.1 1-.5h.9v.9c-1-.1-1.1.1-1.9-.4z" fill="#a4a2b1" stroke="#000" stroke-miterlimit="2.4142" stroke-width=".1058"/><path d="m2.3 60.6c.3 0 .5-.2.5-.5s-.2-.5-.5-.5-.5.2-.5.5.2.5.5.5z"/><path d="m2.3 60.5c.2 0 .4-.2.4-.4s-.2-.4-.4-.4-.4.2-.4.4.2.4.4.4z" fill="#fff"/><path d="m2.3 60.4c.1 0 .2-.1.2-.1s0 0-.1 0-.3-.2-.3-.3 0-.1 0-.1-.1.1-.1.2c0 .2.2.3.3.3z"/><path d="m57.4 59.5h2.5c.1 0 .1 0 .1.1v1.4c0 .8-.7 1.5-1.5 1.5h-1.5v-2.5c0-.4.2-.5.4-.5z"/><path d="m57.4 59.5h2.4c.1 0 .1 0 .1.1v1.3c0 .8-.6 1.4-1.4 1.4h-1.5v-2.4c0-.2.2-.4.4-.4z" fill="#17151a"/><path d="m59 61.8c-.5 0-.8-.1-1-.5-.3 0-.6 0-.9 0v.9c1-.1 1.1.1 1.9-.4z" fill="#a4a2b1" stroke="#000" stroke-miterlimit="2.4142" stroke-width=".1058"/><path d="m57.7 60.6c-.3 0-.5-.2-.5-.5s.2-.5.5-.5.5.2.5.5-.2.5-.5.5z"/><path d="m57.7 60.5c-.2 0-.4-.2-.4-.4s.2-.4.4-.4.4.2.4.4-.2.4-.4.4z" fill="#fff"/><path d="m57.7 60.4c-.1 0-.2-.1-.2-.1h.1c.1 0 .3-.2.3-.3s0-.1 0-.1c.1 0 .2.1.2.2-.1.2-.3.3-.4.3z"/><path d="m56.9 60h-53.8v.1h53.8z" fill="#41424b"/><path d="m8.9 57.4h-5.3v2.1h5.3z" fill="#d1b267"/></g></svg>