<svg enable-background="new 0 0 60 60" height="60" viewBox="0 0 60 60" width="60" xmlns="http://www.w3.org/2000/svg" xmlns:xlink="http://www.w3.org/1999/xlink"><linearGradient id="a" gradientTransform="matrix(58.3115 58.3225 57.6636 -57.6747 -15785.75 80474.3281)" gradientUnits="userSpaceOnUse" x1="-554.0676" x2="-554.0162" y1="834.6406" y2="834.6406"><stop offset="0" stop-color="#b99b38"/><stop offset=".5866" stop-color="#9f8534"/><stop offset="1" stop-color="#967e32"/></linearGradient><radialGradient id="b" cx="-517.7411" cy="1153.7976" gradientTransform="matrix(1.2564 2.6942 2.6942 -1.2564 -2441.7866 2887.8352)" gradientUnits="userSpaceOnUse" r=".06856"><stop offset="0" stop-color="#595a5c"/><stop offset=".5719" stop-color="#2c2e2e"/><stop offset="1" stop-color="#020202"/></radialGradient><linearGradient id="c" gradientTransform="matrix(3.3458 7.1752 7.1752 -3.3458 -5115.0996 7152.0186)" gradientUnits="userSpaceOnUse" x1="-539.8878" x2="-539.8364" y1="966.8989" y2="966.8989"><stop offset="0" stop-color="#020202"/><stop offset=".305" stop-color="#141515"/><stop offset=".9299" stop-color="#303130"/><stop offset="1" stop-color="#333"/></linearGradient><linearGradient id="d"><stop offset="0" stop-color="#fff"/><stop offset="1" stop-color="#fff"/></linearGradient><linearGradient id="e" gradientTransform="matrix(.7071 .7071 -.7071 .7071 -534.8285 224.9697)" gradientUnits="userSpaceOnUse" x1="257.9259" x2="263.9851" xlink:href="#d" y1="-515.2724" y2="-515.2724"/><linearGradient id="f" gradientTransform="matrix(.7071 .7071 -.7071 .7071 -534.8285 224.9697)" gradientUnits="userSpaceOnUse" x1="258.8851" x2="258.956" xlink:href="#d" y1="-511.9489" y2="-511.9489"/><linearGradient id="g" gradientTransform="matrix(.7071 .7071 -.7071 .7071 -534.8285 224.9697)" gradientUnits="userSpaceOnUse" x1="259.6869" x2="259.7531" xlink:href="#d" y1="-512.0197" y2="-512.0197"/><linearGradient id="h" gradientTransform="matrix(.7071 .7071 -.7071 .7071 -534.8285 224.9697)" gradientUnits="userSpaceOnUse" x1="260.4754" x2="260.5432" xlink:href="#d" y1="-512.0197" y2="-512.0197"/><linearGradient id="i" gradientTransform="matrix(.7071 .7071 -.7071 .7071 -534.8285 224.9697)" gradientUnits="userSpaceOnUse" x1="261.3907" x2="261.3907" xlink:href="#d" y1="-512.0197" y2="-512.0197"/><linearGradient id="j" gradientTransform="matrix(.7071 .7071 -.7071 .7071 -534.8285 224.9697)" gradientUnits="userSpaceOnUse" x1="262.2393" x2="262.2393" xlink:href="#d" y1="-512.0197" y2="-512.0197"/><linearGradient id="k" gradientTransform="matrix(.7071 .7071 -.7071 .7071 -534.8285 224.9697)" gradientUnits="userSpaceOnUse" x1="262.9311" x2="263.0062" xlink:href="#d" y1="-512.0197" y2="-512.0197"/><path d="m57.9 2.2-.5-.5.2-.1z" fill="#b4b4b4"/><path d="m56.9 1.9c.1 0 .4 0 .7-.2s.4-.4.4-.4c0-.1-.2-.4-.2-.5 0 0-.2-.1-.7.1s-.5.4-.5.5c0 0 .2.4.3.5z" fill="#ccc"/><path d="m57.9 1c-.1-.1-.1-.2-.1-.2s-.2-.1-.7.1c-.4.2-.5.4-.5.5 0 0 0 .2.1.3z" fill="#989898"/><path d="m56.9 1.6c-.1-.1-.1-.2-.1-.2 0-.1.1-.2.4-.4.4-.2.5-.1.5-.1s.1.1.1.2.1.2.1.2-.1.2-.4.4c-.3 0-.5.1-.5.1-.1-.1-.1-.1-.1-.2z" fill="#989898"/><path d="m57.8 1.1c0-.1-.1-.1-.1-.2 0 0-.2-.1-.5.1-.4.2-.4.3-.4.4 0 0 0 .1.1.2z" fill="#ccc"/><path d="m56.1 3.1-.2.1-.3-.6.2-.1z" fill="#b4b4b4"/><path d="m55.1 2.8c.1 0 .4 0 .7-.2s.5-.4.5-.5-.2-.4-.2-.5c0 0-.2-.1-.7.1s-.5.4-.5.5c-.1.2.1.6.2.6z" fill="#ccc"/><path d="m56.1 1.9c0-.1-.1-.2-.1-.2s-.2-.1-.7.1c-.4.2-.5.4-.5.5 0 0 0 .2.1.3z" fill="#989898"/><path d="m55 2.5c-.1-.1-.1-.2-.1-.2.1 0 .1-.2.5-.3.4-.2.5-.1.5-.1s.1.1.1.2.1.2.1.2-.1.2-.4.4c-.3.1-.5.2-.5.1-.1-.1-.1-.2-.2-.3z" fill="#989898"/><path d="m56 2c0-.1-.1-.1-.1-.2 0 0-.2-.1-.5.1-.4.2-.4.4-.5.4 0 0 0 .1.1.2z" fill="#ccc"/><path d="m54.4 4-.2.1-.3-.6.2-.1z" fill="#b4b4b4"/><path d="m53.3 3.7c.1 0 .4 0 .7-.2s.5-.4.5-.5-.2-.4-.2-.5c0 0-.2-.1-.7.1-.4.2-.5.4-.5.5 0 .2.2.6.2.6z" fill="#ccc"/><path d="m54.4 2.9c-.1-.1-.1-.2-.1-.2s-.2-.1-.7.1c-.4.2-.5.4-.5.5 0 0 0 .2.1.3z" fill="#989898"/><path d="m53.3 3.4c-.1-.1-.1-.2-.1-.2 0-.1.1-.2.4-.4.4-.2.5-.1.5-.1s.1.1.1.2.1.2.1.2-.1.2-.4.4c-.3.1-.5.2-.5.1 0 0-.1-.1-.1-.2z" fill="#989898"/><path d="m54.3 2.9c0-.1-.1-.1-.1-.2 0 0-.2-.1-.5.1-.4.2-.4.3-.4.4 0 0 0 .1.1.2z" fill="#ccc"/><path d="m52.7 4.8-.5-.5.2-.1z" fill="#b4b4b4"/><path d="m51.7 4.5c.1 0 .4 0 .7-.2s.5-.4.5-.5-.2-.4-.2-.5c0 0-.2-.1-.7.1-.5.4-.5.6-.6.6 0 .1.2.5.3.5z" fill="#ccc"/><path d="m52.7 3.7c-.1-.1-.1-.2-.1-.2s-.2-.1-.7.1c-.4.2-.4.4-.5.4 0 0 0 .2.1.3z" fill="#989898"/><path d="m51.7 4.3c-.1-.1-.1-.2-.1-.2 0-.1.1-.2.4-.4.4-.2.5-.1.5-.1s.1.1.1.2.1.2.1.2-.1.2-.4.4c-.3.1-.5.2-.5.1-.1-.1-.1-.2-.1-.2z" fill="#989898"/><path d="m52.6 3.7c0-.1-.1-.1-.1-.2 0 0-.2-.1-.5.1-.4.2-.4.3-.4.4 0 0 0 .1.1.2z" fill="#ccc"/><path d="m51 5.8-.2.1-.3-.6.2-.1z" fill="#b4b4b4"/><path d="m50 5.5c.1 0 .4 0 .7-.2s.5-.4.5-.5-.2-.4-.2-.5c0 0-.2-.1-.7.1-.4.2-.5.4-.5.5-.1.1.1.5.2.6z" fill="#ccc"/><path d="m51 4.6c-.1-.1-.1-.2-.1-.2s-.2-.1-.7.1c-.4.2-.5.4-.5.5 0 0 0 .2.1.3z" fill="#989898"/><path d="m49.9 5.2c0-.1-.1-.2-.1-.2 0-.1.1-.2.4-.4.4-.2.5-.1.5-.1s.1.1.1.2c.2.1.2.1.2.1s-.1.2-.4.4c-.3.1-.5.2-.5.1-.1 0-.1 0-.2-.1z" fill="#989898"/><path d="m50.9 4.7c0-.1-.1-.1-.1-.2 0 0-.2-.1-.5.1-.4.2-.4.3-.4.4 0 0 0 .1.1.2z" fill="#ccc"/><path d="m49.3 6.7-.2.1-.3-.6.1-.1z" fill="#b4b4b4"/><path d="m48.2 6.4c.1 0 .4 0 .7-.2s.5-.4.5-.5-.2-.4-.2-.5c0 0-.2-.1-.7.1-.5.4-.5.6-.5.6-.1.1.2.5.2.5z" fill="#ccc"/><path d="m49.3 5.6c-.1-.1-.1-.2-.1-.2s-.2-.1-.7.1-.5.4-.5.4 0 .2.1.3z" fill="#989898"/><path d="m48.2 6.2c-.1-.1-.1-.2-.1-.2 0-.1.1-.2.4-.4.4-.2.5-.2.5-.1 0 0 .1.1.1.2s.1.2.1.2-.1.2-.4.4c-.3.1-.5.2-.5.1s-.1-.2-.1-.2z" fill="#989898"/><path d="m49.2 5.6c0-.1-.1-.1-.1-.2 0 0-.2-.1-.5.1-.4.2-.4.3-.4.4 0 0 0 .1.1.2z" fill="#ccc"/><path d="m48 9.2s-.1-.4-.1-1.1c0-.4-.1-.7.4-1 .3-.2 3-1.6 5.1-2.7s3.6-2 4.3-2.3 1.5-.3 2 .7c.6 1.1-.4 2.2-1.3 2.4-.6.1-1 .1-1.3.4-.4.4-.4 1.7-1.5 2.5-1.1.9-2.5 1.2-3.5 1.9-1 .6-2.1 1.4-2.1 1.4z" fill="#e4cb4d"/><path d="m48 9.2s-.1-.4-.1-1.1c0-.4-.1-.7.4-1 .3-.2 3-1.6 5.1-2.7s3.6-2 4.3-2.3 1.5-.3 2 .7l-11 7.3z" fill="#d8b628"/><path d="m48.3 9.1c0-.2 0-.5 0-1v-.1c0-.4 0-.5.3-.7.1-.1.8-.4 1.7-.9 1-.5 2.3-1.2 3.4-1.8.8-.4 1.5-.8 2.1-1.1 1-.6 1.8-1 2.2-1.2s.9-.3 1.4.1c.1.1.2.3.3.5.2.5.1.9 0 1.1-.2.4-.7.8-1.1.9-.1 0-.2 0-.3 0-.5.1-1 .2-1.3.5-.2.2-.3.4-.4.8-.2.5-.4 1.2-1.1 1.7-.6.5-1.4.8-2.1 1.1-.5.2-1 .4-1.4.7-.8.5-1.6 1-1.9 1.3z" fill="#d8b628"/><path d="m5.2 54.2c2.1 2.1 3.7 3 6 4.2s6.1 1.5 9-1.8 2.2-6.7 4.9-10.1c1.4-1.8 4.1-1.8 6.4-3.6 1.9-1.5 2.3-3 2.3-3.6 0-.2-.2-1.4-1.3-1.4-.5 0-1.2.3-2.3.9-1.5.8-3.2.6-4-.3-.6-.7-.6-1.8.1-2.7 1.7-2-1.1-4.8-1.1-4.8s-.5.1-.9-.2c-.4-.4-.8-3.8-2.9-4.8s-4.4.2-5.8 2.7-1.4 4.2-3.3 5.7c-1.7 1.4-4.5 1.8-6.8 2.9s-5.9 3.9-5.5 8c.4 3.8 3.1 6.8 5.2 8.9z" fill="#b5b5b5"/><path d="m5.2 54.2 19.6-19.7.4-3.4s-.5.1-.9-.2c-.4-.4-.8-3.8-2.9-4.8s-4.4.2-5.8 2.7-1.4 4.2-3.3 5.7c-1.7 1.4-4.5 1.8-6.8 2.9s-5.9 3.9-5.5 8c.4 3.7 3.1 6.7 5.2 8.8z" fill="#c12127"/><path d="m5.4 54c-2.2-2.2-4.7-5.1-5-8.6-.3-1.8.3-3.4 1.6-5s3-2.5 3.7-2.8c.9-.4 1.8-.7 2.7-1 1.5-.5 3-1 4.1-1.9 1.3-1 1.8-2.1 2.3-3.4.3-.7.6-1.5 1.1-2.4 1.4-2.4 3.5-3.4 5.4-2.6.3.1.5.3.8.6.9.9 1.3 2.2 1.6 3.2.2.6.3.9.4 1 .3.3.7.4 1 .3.5.5 2.3 2.7 1 4.3-.8 1-.9 2.3-.1 3.1l.1.1c.8.8 2.6 1.2 4.3.3 1-.6 1.7-.9 2.1-.9.3 0 .5.1.7.3.3.3.3.7.4.8.1.6-.4 2-2.1 3.3-1 .8-2.1 1.3-3.2 1.7-1.2.5-2.4.9-3.2 1.9-1.4 1.7-1.9 3.3-2.4 5-.5 1.8-1.1 3.4-2.5 5.1-2.8 3.1-6.4 2.9-8.6 1.7-2.5-1.1-4.1-2-6.2-4.1z" fill="#c12127"/><path d="m33.2 39.5c0-.2-.1-.9-1-.9-.6 0-1.6.7-2.5 1.1-1.3.6-2.9.6-4.1-.7-1.4-1.5 0-3.3.6-4.1 0 0-1.5-2.7-3.2-3-1.6-.3-3.9.6-6.1 1.8-2.2 1.3-4 3.4-4.2 3.6s-1 1.2-.6 1.6c.1.1.8.8 1.6 1.7l.4-.4c.2-.2.4-.2.6 0l4.1 4.1c.2.2.2.4 0 .6l-.4.4s3.5 3.5 3.8 3.9c.4.4.6-.1.7-.4.2-.4.4-1.3 1.6-2.8 1.4-1.7 4.5-2.1 6.4-3.5 1.7-1.1 2.3-2.5 2.3-3z" fill="#333"/><path d="m25.5 33.8c-.6-.8-1.5-1.8-2.4-2-1.6-.3-3.9.6-6.1 1.8-2.2 1.3-4 3.4-4.2 3.6s-1 1.2-.6 1.6c.1.1.8.8 1.6 1.7l.4-.4c.2-.2.4-.2.6 0l2.2 2.2z" fill="#1a1a1a"/><path d="m22.5 49.2c-.4-.4-3.2-3.3-3.8-3.8l.3-.3c.2-.2.2-.6 0-.8l-4.1-4.1c-.2-.2-.6-.2-.8 0l-.2.2c-.8-.8-1.4-1.4-1.5-1.6-.3-.3.3-1.1.6-1.4 0 0 .1-.1.1-.2 1.4-1.6 2.8-2.7 4.1-3.5 2.5-1.5 4.6-2.1 6-1.8.5.1 1 .4 1.5 1 .7.7 1.3 1.6 1.4 1.9-1.4 1.7-1.6 3.1-.5 4.2l.1.1c1.1 1.1 2.5 1.3 4.2.6.3-.1.7-.3 1-.5.5-.3 1.1-.6 1.4-.6s.5.1.6.2c.2.2.2.4.2.5.1.4-.4 1.8-2 3-.8.6-1.9 1.1-2.9 1.5-1.3.5-2.7 1.1-3.5 2.1-1 1.2-1.3 2-1.5 2.5 0 .1-.1.2-.1.3v.1c-.1.1-.2.3-.2.4-.2.1-.3.1-.4 0z" fill="#1a1a1a"/><path d="m25.4 33.9c-.2-.3-.5-.6-.8-.9-.6-.6-1.1-.9-1.5-1-1.4-.3-3.5.3-6 1.8-1.3.7-2.6 1.9-4.1 3.5-.1.1-.1.1-.1.2-.3.3-.8 1.1-.6 1.4.1.1.7.7 1.5 1.6l.2-.2c.2-.2.6-.2.8 0l2.1 2.1z" fill="#333"/><path d="m24.1 38c-.4.1-1-.3-2-1.2-1-1-1-1.4-.9-1.8.1-.3 26.8-25.8 26.8-25.8l2 2.1c.1 0-25.5 26.6-25.9 26.7z" fill="url(#a)"/><path d="m22.4 37c-.5-.5-.9-1-1-1.3s-.1-.5-.1-.7 6.7-6.6 13.4-13 13.4-12.8 13.4-12.8l1 1z" fill="#b99b38"/><g fill="#010101"><path d="m47.7 13.8-2.2-2.2.1-.1 2.2 2.2z"/><path d="m45.9 15.7-2.3-2.3.1-.1 2.3 2.3z"/><path d="m44.1 17.5-2.3-2.3.1-.1 2.3 2.3z"/><path d="m42.5 19.2-2.4-2.4.1-.1 2.4 2.4z"/><path d="m40.9 20.9-2.5-2.5.1-.1 2.5 2.5z"/><path d="m39.4 22.4-2.5-2.5.1-.1 2.5 2.5z"/><path d="m35.4 21.3 2.6 2.5z"/><path d="m34 22.6 2.7 2.5-.1.1z"/><path d="m35.4 26.5-2.7-2.6.1-.1z"/><path d="m34.3 27.7-2.8-2.7.1-.1 2.8 2.7z"/><path d="m33.1 28.9-2.7-2.8.1-.1 2.7 2.8z"/><path d="m32.1 29.9-2.8-2.8.1-.1 2.8 2.8z"/><path d="m31.1 31-2.8-2.9.1-.1 2.8 2.9z"/><path d="m30.2 32-2.9-2.9.1-.1 2.8 2.9z"/><path d="m29.3 32.8-2.9-2.8.1-.1 2.9 2.8z"/><path d="m28.5 33.7-2.9-2.9v-.1l3 2.9z"/><path d="m24.6 31.6 3 2.9-.1.1z"/><path d="m26.8 35.4-3-2.9.1-.1 3 2.9z"/><path d="m26 36.2-3-2.9.1-.1 3 2.9z"/><path d="m25.3 36.9-3-3 .1-.1 3 3z"/><path d="m24.7 37.5-3-3h.1l3 2.9z"/></g><path d="m47.7 13.7-2.1-2.1.1-.1z" fill="#e6e6e5"/><path d="m45.9 15.6-2.2-2.2.1-.1 2.2 2.2z" fill="#e6e6e5"/><path d="m44.1 17.5-2.3-2.3.1-.1 2.3 2.3z" fill="#e6e6e5"/><path d="m42.5 19.2-2.4-2.4.1-.1 2.4 2.4z" fill="#e6e6e5"/><path d="m40.9 20.8-2.5-2.4.1-.1z" fill="#e6e6e5"/><path d="m39.5 22.3-2.5-2.5v-.1l2.6 2.5z" fill="#e6e6e5"/><path d="m35.5 21.3 2.6 2.5h-.1z" fill="#e6e6e5"/><path d="m34.1 22.6 2.7 2.5-.1.1z" fill="#e6e6e5"/><path d="m35.4 26.5-2.6-2.7.1-.1 2.6 2.7z" fill="#e6e6e5"/><path d="m34.3 27.7-2.7-2.7.1-.1 2.7 2.7z" fill="#e6e6e5"/><path d="m33.2 28.8-2.8-2.7.1-.1 2.8 2.7z" fill="#e6e6e5"/><path d="m32.2 29.9-2.8-2.8.1-.1 2.8 2.8z" fill="#e6e6e5"/><path d="m31.1 30.9-2.8-2.8.1-.1 2.8 2.8z" fill="#e6e6e5"/><path d="m30.2 31.9-2.9-2.8.1-.1 2.9 2.8z" fill="#e6e6e5"/><path d="m29.3 32.8-2.9-2.9.1-.1 2.9 2.9z" fill="#e6e6e5"/><path d="m28.5 33.6-2.9-2.9.1-.1 2.9 2.9z" fill="#e6e6e5"/><path d="m24.7 31.5 3 2.9-.1.1z" fill="#e6e6e5"/><path d="m26.8 35.4-3-3 .1-.1 3 3z" fill="#e6e6e5"/><path d="m26 36.2-3-3 .1-.1 3 3z" fill="#e6e6e5"/><path d="m25.3 36.9-2.9-3v-.1l3 3z" fill="#e6e6e5"/><path d="m21.7 34.5 3 2.9-.1.1z" fill="#e6e6e5"/><path d="m44.1 15.6c-.1.1-.3.1-.4 0s-.1-.3 0-.4.3-.1.4 0c.1.2.1.3 0 .4z" fill="#eedd84"/><path d="m40.7 19c-.1.1-.3.1-.4 0s-.1-.3 0-.4.3-.1.4 0c.1.2.1.3 0 .4z" fill="#eedd84"/><path d="m37.7 21.9c-.1.1-.3.1-.4 0s-.1-.3 0-.4.3-.1.4 0c.1.2.1.3 0 .4z" fill="#eedd84"/><path d="m35 24.7c-.1.1-.3.1-.4 0s-.1-.3 0-.4.3-.1.4 0 .1.3 0 .4z" fill="#eedd84"/><path d="m32.4 29c-.1.1-.3.1-.4 0s-.1-.3 0-.4.3-.1.4 0 .1.3 0 .4z" fill="#eedd84"/><path d="m30.7 27.3c-.1.1-.3.1-.4 0s-.1-.3 0-.4.3-.1.4 0 .1.3 0 .4z" fill="#eedd84"/><path d="m28.6 31.1c-.1.1-.3.1-.4 0s-.1-.3 0-.4.3-.1.4 0 .1.3 0 .4z" fill="#eedd84"/><path d="m26.9 32.8c-.1.1-.3.1-.4 0s-.1-.3 0-.4.3-.1.4 0 .1.3 0 .4z" fill="#eedd84"/><path d="m25.2 34.5c-.1.1-.3.1-.4 0s-.1-.3 0-.4.3-.1.4 0 .1.3 0 .4z" fill="#eedd84"/><path d="m23.8 35.9c-.1.1-.3.1-.4 0s-.1-.3 0-.4.3-.1.4 0 .1.3 0 .4z" fill="#eedd84"/><path d="m16.4 43.5c-.1 0-.2 0-.3-.1 0-.1 0-.2.1-.3.1 0 .2 0 .3.1s0 .3-.1.3z" fill="url(#b)"/><path d="m16.4 43.5-.2-.4z" fill="url(#c)"/><path d="m58.1 3.3c-.2.2-.5.1-.7-.1s-.1-.5.1-.7.5-.1.7.1c.2.3.1.6-.1.7z" fill="#f3f3f3"/><path d="m56.4 4.3c-.2.2-.5.1-.7-.1s-.1-.5.1-.7.5-.1.7.1c.1.2.1.5-.1.7z" fill="#f3f3f3"/><path d="m54.8 5.2c-.2.2-.5.1-.7-.1s-.1-.5.1-.7.5-.1.7.1c.1.3.1.6-.1.7z" fill="#f3f3f3"/><path d="m53.1 6.2c-.2.2-.5.1-.7-.1s-.1-.5.1-.7.5-.1.7.1c.1.2.1.5-.1.7z" fill="#f3f3f3"/><path d="m51.4 7.1c-.2.2-.5.1-.7-.1s-.1-.5.1-.7.5-.1.7.1c.1.2.1.5-.1.7z" fill="#f3f3f3"/><path d="m49.7 8c-.2.2-.5.1-.7-.1s-.1-.5.1-.7.5-.1.7.1c.2.3.1.6-.1.7z" fill="#f3f3f3"/><path d="m49.7 9.9c-.3.3-.5.5-.7.3s0-.4.3-.7.7-.3.7-.3 0 .4-.3.7z" fill="#967e32"/><path d="m49 10.1c-.2-.2 0-.4.3-.7.3-.2.7-.2.7-.2z" fill="#b99b38"/><path d="m51.3 7c-.1.1-.3.1-.4-.1-.1-.1-.1-.3.1-.4.1-.1.3-.1.4.1 0 .1 0 .3-.1.4z" fill="#b4b4b4"/><path d="m49.6 7.9c-.1.1-.3.1-.4-.1-.1-.1-.1-.3.1-.4.1-.1.3-.1.4.1.1.1.1.3-.1.4z" fill="#b4b4b4"/><path d="m53 6c-.1.1-.3.1-.4-.1-.1-.1-.1-.3.1-.4.1-.1.3-.1.4.1 0 .1 0 .3-.1.4z" fill="#b4b4b4"/><path d="m54.7 5.1c-.1.1-.3.1-.4-.1-.1-.1-.1-.3.1-.4.1-.1.3-.1.4.1 0 .1 0 .3-.1.4z" fill="#b4b4b4"/><path d="m56.3 4.2c-.1.1-.3.1-.4-.1-.1-.1-.1-.3.1-.4.1-.1.3-.1.4.1.1.1 0 .3-.1.4z" fill="#b4b4b4"/><path d="m58 3.2c-.1.1-.3.1-.4-.1-.1-.1-.1-.3.1-.4.1-.1.3-.1.4.1.1.1 0 .3-.1.4z" fill="#b4b4b4"/><path d="m49.9 11.7-2.2-2.2.3-.4 2.2 2.2z" fill="#ccc"/><path d="m49.9 11.7-2.2-2.2.1-.2 2.2 2.2z" fill="#989898"/><path d="m56.2 4.1c-.1.1-.2 0-.3 0-.1-.1 0-.2 0-.3.1-.1.2 0 .3 0 .1.1.1.2 0 .3z" fill="#ccc"/><path d="m57.9 3.1c-.1.1-.2 0-.3 0-.1-.1 0-.2 0-.3.1-.1.2 0 .3 0 .1.1.1.3 0 .3z" fill="#ccc"/><path d="m54.6 5c-.1.1-.2 0-.3 0-.1-.1 0-.2 0-.3.1-.1.2 0 .3 0 .1.1.1.2 0 .3z" fill="#ccc"/><path d="m52.9 5.9c-.1.1-.2 0-.3 0-.1-.1 0-.2 0-.3.1-.1.2 0 .3 0 .1.2.1.3 0 .3z" fill="#ccc"/><path d="m51.2 6.9c-.1.1-.2 0-.3 0-.1-.1 0-.2 0-.3.1-.1.2 0 .3 0 .1.1.1.2 0 .3z" fill="#ccc"/><path d="m49.6 7.8c-.1.1-.2 0-.3 0-.1-.1 0-.2 0-.3.1-.1.2 0 .3 0 .1.1 0 .2 0 .3z" fill="#ccc"/><path d="m23.5 39.5c-.2.2-.6.2-.8 0l-3-3c-.2-.2-.2-.6 0-.8s.6-.2.8 0l3 3c.3.2.3.6 0 .8z" fill="#676767"/><path d="m23.5 39.5c-.2.2-.6.2-.8 0l-3-3c-.2-.2-.2-.6 0-.8z" fill="#ccc"/><path d="m23.4 39.4c-.2.2-.4.2-.6 0l-3-3c-.2-.2-.2-.4 0-.6s.4-.2.6 0l3 3c.2.1.2.4 0 .6z" fill="#ccc"/><path d="m23.4 39.4c-.2.2-.4.2-.6 0l-3-3c-.2-.2-.2-.4 0-.6z" fill="#676767"/><path d="m10.1 46.4c0 .1-.1.1-.1.1-.1 0-.1-.1-.1-.1 0-.1.1-.1.1-.1s.1 0 .1.1z" fill="#ccc"/><path d="m10.6 46.9c0 .1-.1.1-.1.1-.1 0-.1-.1-.1-.1 0-.1.1-.1.1-.1.1 0 .1.1.1.1z" fill="#ccc"/><path d="m11.2 47.5c0 .1-.1.1-.1.1-.1 0-.1-.1-.1-.1 0-.1.1-.1.1-.1s.1 0 .1.1z" fill="#ccc"/><path d="m11.8 48.1c0 .1-.1.1-.1.1-.1 0-.1-.1-.1-.1 0-.1.1-.1.1-.1s.1 0 .1.1z" fill="#ccc"/><path d="m12.4 48.7c0 .1-.1.1-.1.1-.1 0-.1-.1-.1-.1 0-.1.1-.1.1-.1z" fill="#ccc"/><path d="m12.9 49.3c0 .1-.1.1-.1.1-.1 0-.1-.1-.1-.1 0-.1.1-.1.1-.1.1-.1.1 0 .1.1z" fill="#ccc"/><path d="m13.8 49.7c-.1.1-.4.1-.5 0l-3.8-3.8c-.1-.1-.1-.3 0-.5l4.8-4.8c.1-.1.4-.1.5 0l3.8 3.8c.1.1.1.3 0 .5z" fill="url(#e)"/><path d="m13.8 49.7c-.1.1-.4.1-.5 0l-3.8-3.8c-.1-.1-.1-.3 0-.5l4.8-4.8c.1-.1.4-.1.5 0l3.8 3.8c.1.1.1.3 0 .5z" fill="#ccc"/><path d="m11.4 47.8-1.9-1.9c-.1-.1-.1-.2-.1-.2 0-.1 0-.2.1-.2l1-1 3.8-3.8c.1-.1.2-.1.2-.1.1 0 .2 0 .2.1l1.9 1.9z" fill="#989898"/><path d="m9.6 45.8c-.1-.1-.1-.2 0-.2l4.8-4.8c.1-.1.2-.1.2 0l3.8 3.8v.1s0 .1-.1.1l-4.8 4.8c-.1.1-.2.1-.2 0z" fill="#989898"/><path d="m9.6 45.8c0-.1 0-.2.1-.2l1-1 3.8-3.8.1-.1h.1l1.9 1.9-5 5z" fill="#ccc"/><path d="m12.8 44.8c0 .1-.1.2-.2.2s-.2-.1-.2-.2.1-.2.2-.2.2.1.2.2z" fill="#e6e6e5"/><path d="m12.8 44.8c0 .1-.1.1-.1.1-.1 0-.1-.1-.1-.1 0-.1.1-.1.1-.1 0-.1.1 0 .1.1z" fill="#989898"/><path d="m12.3 44.2c0 .1-.1.2-.2.2s-.2-.1-.2-.2.1-.2.2-.2.2.1.2.2z" fill="#e6e6e5"/><path d="m12.2 44.2c0 .1-.1.1-.1.1-.1 0-.1-.1-.1-.1 0-.1.1-.1.1-.1.1 0 .1 0 .1.1z" fill="#989898"/><path d="m13.4 45.3c0 .1-.1.2-.2.2s-.2-.1-.2-.2.1-.2.2-.2.2.1.2.2z" fill="#e6e6e5"/><path d="m13.3 45.3c0 .1-.1.1-.1.1-.1 0-.1-.1-.1-.1 0-.1.1-.1.1-.1.1 0 .1 0 .1.1z" fill="#989898"/><path d="m14 45.9c0 .1-.1.2-.2.2s-.2-.1-.2-.2.1-.2.2-.2.2.1.2.2z" fill="#ccc"/><path d="m13.9 45.9c0 .1-.1.1-.1.1-.1 0-.1-.1-.1-.1 0-.1.1-.1.1-.1.1 0 .1 0 .1.1z" fill="#989898"/><path d="m14.6 46.5c0 .1-.1.2-.2.2s-.2-.1-.2-.2.1-.2.2-.2.2.1.2.2z" fill="#ccc"/><path d="m14.5 46.5c0 .1-.1.1-.1.1-.1 0-.1-.1-.1-.1 0-.1.1-.1.1-.1.1 0 .1 0 .1.1z" fill="#989898"/><path d="m15.2 47.1c0 .1-.1.2-.2.2s-.2-.1-.2-.2.1-.2.2-.2.2.1.2.2z" fill="#ccc"/><path d="m15.1 47.1c0 .1-.1.1-.1.1-.1 0-.1-.1-.1-.1 0-.1.1-.1.1-.1s.1 0 .1.1z" fill="#989898"/><path d="m10.9 45.9-.4-.5.8-.8.4.5z" fill="#a7a6a6"/><path d="m11.5 46.3-.4-.4.8-.8.4.4z" fill="#a7a6a6"/><path d="m11.7 46.5.8-.8.4.4-.8.8z" fill="#a7a6a6"/><path d="m12.8 47.4-.5-.4.8-.8.4.5z" fill="#a7a6a6"/><path d="m13.4 48.1-.5-.5.8-.8.4.5z" fill="#a7a6a6"/><path d="m13.9 48.6-.4-.4.8-.8.4.4z" fill="#a7a6a6"/><path d="m12.4 45.7.3-.3.4.4-.3.3z" fill="#e6e6e5"/><path d="m13.1 46.2.3-.3.4.4-.3.3z" fill="#ccc"/><path d="m13.7 46.8.3-.3.4.4-.3.3z" fill="#ccc"/><path d="m14.3 47.4.3-.3.4.4-.3.3z" fill="#ccc"/><path d="m11.2 44.7.3-.3.4.4-.3.3z" fill="#e6e6e5"/><path d="m11.9 45.1.3-.3.4.4-.3.3z" fill="#e6e6e5"/><path d="m11 45.6c-.1.1-.2 0-.2 0-.1-.1-.1-.2 0-.2l.4-.3c.1-.1.2 0 .2 0 .1.1.1.2 0 .2z" fill="#ccc"/><path d="m11.6 46.1c-.1.1-.2 0-.2 0-.1-.1-.1-.2 0-.2l.4-.3c.1-.1.2 0 .2 0 .1.1.1.2 0 .2z" fill="#ccc"/><path d="m12.2 46.6c-.1.1-.2 0-.2 0-.1-.1-.1-.2 0-.2l.4-.3c.1-.1.2 0 .2 0 .1.1.1.2 0 .2z" fill="#ccc"/><path d="m12.8 47.2c-.1.1-.2 0-.2 0-.1-.1-.1-.2 0-.2l.4-.3c.1-.1.2 0 .2 0 .1.1.1.2 0 .2z" fill="#ccc"/><path d="m13.4 47.8c-.1.1-.2 0-.2 0-.1-.1-.1-.2 0-.2l.4-.3c.1-.1.2 0 .2 0 .1.1.1.2 0 .2z" fill="#ccc"/><path d="m14 48.4c-.1.1-.2 0-.2 0-.1-.1-.1-.2 0-.2l.4-.3c.1-.1.2 0 .2 0 .1.1.1.2 0 .2z" fill="#ccc"/><path d="m10.1 46.3-.1-.1.4-.3h.1z" fill="url(#f)"/><path d="m10.7 46.8h-.1l.5-.5v.1z" fill="url(#g)"/><path d="m11.2 47.4.4-.5h.1z" fill="url(#h)"/><path d="m11.8 48 .5-.5z" fill="url(#i)"/><path d="m12.4 48.6.5-.5z" fill="url(#j)"/><path d="m13 49.1h-.1l.5-.5z" fill="url(#k)"/><path d="m11.5 46.7.3-.3.4.4-.3.3z" fill="#e6e6e5"/><path d="m12 47.3.3-.3.4.4-.3.3z" fill="#ccc"/><path d="m12.6 47.9.3-.3.4.4-.3.3z" fill="#ccc"/><path d="m13.2 48.4.3-.3.4.4-.3.3z" fill="#ccc"/><path d="m10.3 45.7.3-.3.4.4-.3.3z" fill="#e6e6e5"/><path d="m10.8 46.1.3-.3.4.4-.3.3z" fill="#e6e6e5"/><path d="m11 45.5c0 .1-.1.1-.1.1-.1 0-.1-.1-.1-.1 0-.1.1-.1.1-.1s.1 0 .1.1z" fill="#818181"/><path d="m11.6 45.9c0 .1-.1.1-.1.1-.1 0-.1-.1-.1-.1 0-.1.1-.1.1-.1z" fill="#818181"/><path d="m12.2 46.5c0 .1-.1.1-.1.1-.1 0-.1-.1-.1-.1 0-.1.1-.1.1-.1s.1 0 .1.1z" fill="#818181"/><path d="m12.8 47.1c0 .1-.1.1-.1.1-.1 0-.1-.1-.1-.1 0-.1.1-.1.1-.1s.1 0 .1.1z" fill="#676767"/><path d="m13.4 47.7c0 .1-.1.1-.1.1-.1 0-.1-.1-.1-.1 0-.1.1-.1.1-.1.1-.1.1 0 .1.1z" fill="#676767"/><path d="m14 48.2c0 .1-.1.1-.1.1-.1 0-.1-.1-.1-.1 0-.1.1-.1.1-.1z" fill="#676767"/><path d="m16.5 46.4c-.3.2-.7 0-.9-.4l-1.8-3.6c-.2-.4-.1-.8.2-.9.3-.2.7 0 .9.4l1.8 3.6c.2.3.1.7-.2.9z" fill="#333"/><path d="m16.5 46.4c-.3.2-.7 0-.9-.4l-1.8-3.6c-.2-.4-.1-.8.2-.9.3-.2.7 0 .9.4l1.8 3.6c.2.3.1.7-.2.9z" fill="#333"/><path d="m14.8 44.4-1-2c-.1-.2-.1-.4-.1-.5 0-.2.1-.3.3-.4s.3-.1.5 0 .3.2.4.4l.8 1.6z" fill="#010101"/><path d="m13.9 42.4c-.1-.3-.1-.6.2-.8.2-.1.6 0 .7.3l1.8 3.6c.1.3.1.6-.2.8-.2.1-.6 0-.7-.3z" fill="#010101"/><path d="m13.9 42.4c-.1-.1-.1-.3-.1-.4s.1-.3.2-.3c.1-.1.3-.1.4 0s.2.2.3.3l.8 1.7-.8.8z" fill="#333"/><path d="m16.1 46c-.1 0-.1-.1-.1-.2s.1-.1.2-.1.1.1.1.2c0 0-.1.1-.2.1z" fill="#676767"/><path d="m14.3 42.3c-.1 0-.1-.1-.1-.2s.1-.1.2-.1.1.1.1.2-.1.1-.2.1z" fill="#818181"/><path d="m15.7 45.2c-.1 0-.1-.1-.1-.2s.1-.1.2-.1.1.1.1.2-.1.2-.2.1z" fill="#676767"/><path d="m14.6 43c-.1 0-.1-.1-.1-.2s.1-.1.2-.1.1.1.1.2-.1.2-.2.1z" fill="#818181"/><path d="m15 43.7c-.1 0-.1-.1-.1-.2s.1-.1.2-.1.1.1.1.2-.1.2-.2.1z" fill="#818181"/><path d="m15.4 44.5c-.1 0-.1-.1-.1-.2s.1-.1.2-.1.1.1.1.2-.1.1-.2.1z" fill="#676767"/><path d="m47.8 9.6-37 36 37-36 1.6-1.9h.1z" fill="none" stroke="#e6e6e5" stroke-miterlimit="10" stroke-width=".11"/><path d="m48.2 10-36.7 36.1h-.1l36.8-36.1 2.9-3.3h.1z" fill="none" stroke="#e6e6e5" stroke-miterlimit="10" stroke-width=".11"/><path d="m48.6 10.4-36.6 36.3 37-36.6 3.9-4.2h.1z" fill="none" stroke="#e6e6e5" stroke-miterlimit="10" stroke-width=".11"/><path d="m49.6 11.5-36 36.7 36-36.7 8.4-8.5h-.1z" fill="none" stroke="#e6e6e5" stroke-miterlimit="10" stroke-width=".11"/><path d="m49.3 11.2-36.2 36.6 36.2-36.6 6.9-7.2h-.1z" fill="none" stroke="#e6e6e5" stroke-miterlimit="10" stroke-width=".11"/><path d="m48.9 10.8-36.4 36.4 36.4-36.4 5.7-5.8h-.1z" fill="none" stroke="#e6e6e5" stroke-miterlimit="10" stroke-width=".11"/><path d="m22.1 46.3c-.5-.5-1.3-.5-1.8 0l-6.8 6.8c-.5.5-.5 1.3 0 1.8s1.3.5 1.8 0l6.8-6.8c.5-.5.5-1.3 0-1.8z" fill="#333"/><path d="m22.1 46.3c-.5-.5-1.3-.5-1.8 0l-6.8 6.8c-.5.5-.5 1.3 0 1.8z" fill="#1a1a1a"/><path d="m22 46.4c-.5-.5-1.2-.5-1.7 0l-6.8 6.8c-.5.5-.5 1.2 0 1.7s1.2.5 1.7 0l6.8-6.8c.5-.5.5-1.2 0-1.7z" fill="#1a1a1a"/><path d="m22 46.4c-.5-.5-1.2-.5-1.7 0l-6.8 6.8c-.5.5-.5 1.2 0 1.7z" fill="#333"/><circle cx="17.8" cy="50.6" fill="#010101" r="1.1"/><path d="m17 51.4c.4.4 1.1.4 1.6 0 .4-.4.4-1.1 0-1.6z" fill="#333"/><path d="m18.3 51.1c-.3.3-.7.3-1 0s-.3-.7 0-1 .7-.3 1 0 .3.7 0 1z" fill="#010101"/><path d="m17.3 51.1c-.3-.3-.3-.7 0-1s.7-.3 1 0z" fill="#333"/><circle cx="15" cy="53.4" fill="#010101" r="1.1"/><path d="m14.2 54.2c.4.4 1.1.4 1.6 0 .4-.4.4-1.1 0-1.6z" fill="#333"/><path d="m15.5 53.9c-.3.3-.7.3-1 0s-.3-.7 0-1 .7-.3 1 0 .3.7 0 1z" fill="#010101"/><path d="m14.5 53.9c-.3-.3-.3-.7 0-1s.7-.3 1 0z" fill="#333"/><path d="m22.7 32.5c.1-.1.2-.1.3 0s.1.2 0 .3-.2.1-.3 0c-.1-.2-.1-.3 0-.3z" fill="#ccc"/><path d="m22.7 32.5c0-.1 0-.1 0 0l.3.3z" fill="#4e4e4e"/><path d="m22.8 48.5c.1-.1.1-.2 0-.3s-.2-.1-.3 0-.1.2 0 .3.2.1.3 0z" fill="#818181"/><path d="m22.8 48.5-.3-.3z" fill="#010101"/><path d="m19.8 45.5c.1-.1.1-.2 0-.3s-.2-.1-.3 0-.1.2 0 .3.3.1.3 0z" fill="#818181"/><path d="m19.8 45.5-.3-.3z" fill="#010101"/><path d="m17 34.4c.1-.1.2-.1.3 0s.1.2 0 .3-.2.1-.3 0c-.1-.2-.1-.3 0-.3z" fill="#ccc"/><path d="m17 34.3.3.3-.3-.3c0 .1 0 .1 0 0z" fill="#4e4e4e"/><path d="m12.8 38.4c.1-.1.2-.1.3 0s.1.2 0 .3-.2.1-.3 0-.1-.2 0-.3z" fill="#ccc"/><path d="m12.8 38.4.3.3-.3-.3c-.1 0-.1 0 0 0z" fill="#4e4e4e"/><path d="m32.4 39.6c.1-.1.1-.2 0-.3s-.2-.1-.3 0-.1.2 0 .3c.2.1.3.1.3 0z" fill="#818181"/><path d="m32.5 39.6-.3-.3.3.3c-.1 0-.1 0 0 0z" fill="#010101"/><path d="m29.3 43c.1-.1.1-.2 0-.3s-.2-.1-.3 0-.1.2 0 .3.2.1.3 0z" fill="#818181"/><path d="m29.3 43-.3-.2.3.2c0 .1 0 .1 0 0z" fill="#010101"/><path d="m24.7 45.4c.1-.1.1-.2 0-.3s-.2-.1-.3 0-.1.2 0 .3.2.1.3 0z" fill="#818181"/><path d="m24.7 45.4-.3-.3z" fill="#010101"/><path d="m24 40c.1-.1.1-.2 0-.3s-.2-.1-.3 0-.1.2 0 .3z" fill="#818181"/><path d="m24 40c0-.1 0-.1 0 0l-.3-.3z" fill="#010101"/><path d="m19.3 35.2c.1-.1.2-.1.3 0s.1.2 0 .3-.2.1-.3 0-.1-.2 0-.3z" fill="#ccc"/><path d="m19.3 35.2.3.3z" fill="#4e4e4e"/><path d="m26.4 40.4c.1-.1.1-.2 0-.3s-.2-.1-.3 0-.1.2 0 .3.2.1.3 0z" fill="#818181"/><path d="m26.4 40.4-.3-.3z" fill="#010101"/></svg>