<svg enable-background="new 0 0 60 60" height="60" viewBox="0 0 60 60" width="60" xmlns="http://www.w3.org/2000/svg"><path d="m45.2 33h1.1v5.5h-1.1z" fill="#424143"/><path d="m13.6 33h1.1v5.5h-1.1z" fill="#424143"/><path d="m45.1 57.4c0 1.4-1.1 2.5-2.5 2.5h-25.2c-1.4 0-2.5-1.1-2.5-2.5v-54.8c0-1.4 1.1-2.5 2.5-2.5h25.2c1.4 0 2.5 1.1 2.5 2.5z" fill="#063e89"/><path d="m42.6 60h-25.2c-1.5 0-2.6-1.2-2.6-2.6v-54.8c0-1.5 1.2-2.6 2.6-2.6h25.2c1.5 0 2.6 1.2 2.6 2.6v54.7c0 1.5-1.1 2.7-2.6 2.7zm-25.2-59.7c-1.3 0-2.3 1-2.3 2.3v54.7c0 1.3 1 2.3 2.3 2.3h25.2c1.3 0 2.3-1 2.3-2.3v-54.7c0-1.3-1-2.3-2.3-2.3 0 0-25.2 0-25.2 0z" fill="#3a3a3a" opacity=".5"/><g fill="#18151d"><path d="m21.1 12.8c-.1 0-.2 0-.3.1s-.1.2-.1.3v.2c0 .1 0 .1.1.1l.1.1h.2.1.1v-.4h.2v.6h-.1c-.1 0-.1 0-.2 0s-.2 0-.2 0c-.1 0-.1-.1-.2-.1 0-.1-.1-.1-.1-.2s0-.2 0-.3 0-.2 0-.3.1-.1.1-.2c.1-.1.1-.1.2-.1h.2.1.1.1l-.1.2s-.1 0-.1-.1c-.1.1-.1.1-.2.1z"/><path d="m22.5 13.8v-.1-.1h-.5v.1.1h-.2c0-.1.1-.2.1-.3s.1-.2.1-.3.1-.2.1-.3.1-.2.1-.2h.2c0 .1.1.2.1.2 0 .1.1.2.1.3s.1.2.1.3.1.2.1.3zm-.4-1c0 .1-.1.1-.1.2s-.1.2-.1.3h.4c0-.1-.1-.2-.1-.3 0 0-.1-.1-.1-.2z"/><path d="m22.8 12.6h.2v1.1h-.2z"/><path d="m24.1 13.8c0-.1-.1-.1-.1-.2s-.1-.1-.1-.2-.1-.1-.2-.2-.1-.1-.1-.2v.8h-.2v-1.1h.2s.1.1.1.2c.1.1.1.1.2.2s.1.1.1.2.1.1.1.2v-.8h.2v1.1z"/><path d="m35.7 13.6v.2h-.7v-1.1h.2v1z"/><path d="m35.9 13.8v-1.1h.7v.2h-.5v.3h.5v.2h-.5v.3h.6v.2z"/><path d="m37.2 13.8c-.1-.2-.2-.4-.2-.6-.1-.2-.1-.4-.2-.6h.2c0 .1.1.2.1.2 0 .1.1.2.1.2 0 .1.1.2.1.2 0 .1.1.1.1.2 0-.1.1-.1.1-.2s.1-.1.1-.2.1-.2.1-.2c0-.1.1-.2.1-.2h.2c-.1.2-.1.4-.2.6s-.2.4-.2.6z"/><path d="m38 13.8v-1.1h.7v.2h-.5v.3h.5v.2h-.5v.3h.6v.2z"/><path d="m39.7 13.6v.2h-.7v-1.1h.2v1z"/><path d="m28.8 25.5v.2h-.4v1h-.2v-1h-.4v-.2z"/><path d="m30 26v.3c0 .1-.1.1-.1.2-.1.1-.1.1-.2.1s-.1 0-.2 0-.1 0-.2 0-.1-.1-.2-.1c-.1-.1-.1-.1-.1-.2s0-.2 0-.3 0-.2 0-.3.1-.1.1-.2c.1-.1.1-.1.2-.1h.2.2c.1 0 .1.1.2.1.1.1.1.1.1.2-.1.1 0 .2 0 .3zm-.9 0v.2c0 .1 0 .1.1.1l.1.1h.1.1s.1 0 .1-.1l.1-.1c0-.1 0-.1 0-.2s0-.1 0-.2 0-.1-.1-.1l-.1-.1h-.1c-.1 0-.1 0-.1 0s-.1 0-.1.1l-.1.1z"/><path d="m31 26.6c0-.1-.1-.1-.1-.2s-.1-.1-.1-.2-.1-.1-.2-.2-.1-.1-.1-.2v.8h-.2v-1.1h.2s.1.1.1.2l.2.2c.1.1.1.1.1.2s.1.1.1.2v-.8h.2v1.1z"/><path d="m31.4 26.6v-1.1h.7v.2h-.5v.3h.5v.2h-.5v.3h.6v.2h-.8z"/><path d="m19 34.8c-.1 0-.1 0-.2 0s-.1-.1-.1-.1l-.1-.1c0-.1 0-.1 0-.2s0-.1 0-.2.1-.1.1-.1l.1-.1h.2.2c.1 0 .1.1.1.1l.1.1v.2.2c0 .1-.1.1-.1.1l-.1.1c-.1 0-.2 0-.2 0zm0-.7c-.1 0-.1 0-.1 0s-.1 0-.1.1l-.1.1v.1.1s0 .1.1.1c0 0 .1 0 .1.1h.1.1s.1 0 .1-.1l.1-.1v-.1-.1s0-.1-.1-.1c0 0-.1 0-.1-.1z"/><path d="m18.5 35.3c0-.1 0-.1 0-.2 0 0 0-.1.1-.1l.1-.1h.1.6v.2h-.6-.1-.1v.1.1.1.1h.1.1.6v.2h-.6c-.1 0-.1 0-.1 0s-.1 0-.1-.1l-.1-.1c0-.1 0-.1 0-.2z"/><path d="m19.4 36.5h-.1v-.3h-.8v-.2h.8v-.3h.1z"/><path d="m40.6 36.1v-.2h.9v.2z"/><path d="m41.5 35.1c-.1 0-.1.1-.2.1s-.1.1-.2.1-.1.1-.2.1-.1.1-.1.1h.7v.2h-.9v-.1l.1-.1c.1 0 .1-.1.2-.1s.1-.1.2-.1.1-.1.2-.1h-.6v-.2h.9v.1z"/><path d="m21.8 55.9v-3.1h2.3c.8 0 1.1.4 1.1 1.2v.7c0 .8-.4 1.2-1.1 1.2zm2-.9c.4 0 .4-.1.4-.3v-.7c0-.2 0-.3-.4-.3h-1v1.3z"/><path d="m28.1 55.9v-.6c0-.1 0-.2-.4-.2h-1.1v.8h-1v-3.1h2.3c.5 0 1.2.1 1.2 1.1 0 .3-.1.5-.2.7.2.1.3.3.3.5v.7zm-.3-1.7c.2 0 .2 0 .2-.3 0-.2 0-.3-.2-.3h-1.2v.5z"/><path d="m29.5 52.8h1v3.1h-1z"/><path d="m32.2 55.9-1.7-3.1h1.2l1.1 2.1 1.1-2.1h1.1l-1.6 3.1z"/><path d="m35 55.9v-3.1h3.2v.8h-2.2v.3h2.1v.8h-2.1v.3h2.2v.9z"/></g><path d="m29.2 50.9v.9h.7v.2h-1v-1.1zm.1-.2h-.2-.3-.2v.2 1.1.2h.2 1 .2v-.2-.2-.2h-.2-.5v-.7z" fill="#010101"/><path d="m31.1 50.9v.2h-.5v.9h-.3v-.9h-.5v-.2zm.2-.2h-.2-1.2-.2v.2.2.2h.2.3v.7.2h.2.3.2v-.2-.7h.3.2v-.2-.2z" fill="#010101"/><path d="m30 33.5 2.1 6.4h6.7l-5.5 3.9 2.1 6.4-5.4-3.9-5.4 3.9 2.1-6.4-5.5-3.9h6.7z" fill="#18151d"/><path d="m17.4 57.7v-29.1l-2.5-4v32.8c0 1.4 1.1 2.5 2.5 2.5h2.2c-2.1-.1-2.2-2.2-2.2-2.2z" fill="#3a3a3a" opacity=".5"/><path d="m42.6 57.7v-29.1l2.5-4v32.8c0 1.4-1.1 2.5-2.5 2.5h-2.2c2.1-.1 2.2-2.2 2.2-2.2z" fill="#3a3a3a" opacity=".5"/><path d="m34.9 20c0 2.7-2.2 4.9-4.9 4.9s-4.9-2.2-4.9-4.9 2.2-4.9 4.9-4.9 4.9 2.2 4.9 4.9z" fill="#18151d"/><path d="m27.6 7c0 2.7-2.2 4.9-4.9 4.9s-4.9-2.2-4.9-4.9 2.2-4.9 4.9-4.9 4.9 2.2 4.9 4.9z" fill="#18151d"/><path d="m42.2 7c0 2.7-2.2 4.9-4.9 4.9s-4.9-2.2-4.9-4.9 2.2-4.9 4.9-4.9 4.9 2.2 4.9 4.9z" fill="#18151d"/><path d="m33.6 42.7c0 2.1-1.7 3.7-3.7 3.7-2.1 0-3.7-1.7-3.7-3.7 0-2.1 1.7-3.7 3.7-3.7s3.7 1.7 3.7 3.7z" fill="#e4dec4"/><path d="m29.9 46.6c-2.1 0-3.9-1.7-3.9-3.9 0-2.1 1.7-3.9 3.9-3.9 2.1 0 3.9 1.7 3.9 3.9s-1.8 3.9-3.9 3.9zm0-7.4c-2 0-3.6 1.6-3.6 3.6s1.6 3.6 3.6 3.6 3.6-1.6 3.6-3.6c-.1-2-1.6-3.6-3.6-3.6z" fill="#bdb7a0"/><path d="m32.6 42.7c0 1.5-1.2 2.7-2.7 2.7s-2.8-1.2-2.8-2.7 1.2-2.8 2.8-2.8c1.5.1 2.7 1.3 2.7 2.8z" fill="#e4dec4"/><path d="m29.9 45.6c-1.6 0-2.9-1.3-2.9-2.9s1.3-2.9 2.9-2.9 2.9 1.3 2.9 2.9-1.3 2.9-2.9 2.9zm0-5.5c-1.4 0-2.6 1.2-2.6 2.6s1.2 2.6 2.6 2.6 2.6-1.2 2.6-2.6-1.2-2.6-2.6-2.6z" fill="#bdb7a0"/><path d="m30.9 2.3c0 .5-.4 1-1 1-.5 0-1-.4-1-1 0-.5.4-1 1-1s1 .5 1 1z" fill="#f37055"/><path d="m30 3.5c-.7 0-1.2-.5-1.2-1.2s.5-1.2 1.2-1.2 1.2.5 1.2 1.2-.6 1.2-1.2 1.2zm0-1.9c-.4 0-.7.3-.7.7s.3.7.7.7.7-.3.7-.7-.3-.7-.7-.7z" fill="#424143"/><path d="m25.8 8.9c-.2.4-.6.9-1.1 1l-1.7.6c-.4.1-1.1.1-1.5-.2l-1.5-.9c-.4-.2-.7-.8-.8-1.3l-.2-1.8c0-.5.2-1.1.5-1.4l1.3-1.2c.3-.3 1-.5 1.4-.5l1.8.2c.5.1 1 .4 1.3.8l.9 1.5c.2.4.3 1 .2 1.5z" fill="#424143"/><path d="m22.5 6.4c.2.1.2.2.2.4-.1.2-.2.3-.4.2l-2.8-1c-.2-.1-.2-.2-.2-.4.1-.2.2-.2.4-.2z" fill="#f2f2f2"/><path d="m33.7 7.9c-.2-.4-.3-1.1-.1-1.5l.7-1.6c.2-.4.7-.9 1.1-1l1.7-.5c.4-.1 1.1 0 1.5.2l1.5 1c.4.3.7.8.7 1.3l.1 1.8c0 .5-.2 1.1-.6 1.4l-1.3 1.1c-.3.3-1 .5-1.4.4l-1.7-.3c-.4-.1-1-.5-1.2-.8z" fill="#424143"/><path d="m37.8 7c-.1.1-.3 0-.4-.1s0-.3.1-.4l2.6-1.5c.1-.1.3 0 .4.1s0 .3-.1.4z" fill="#f2f2f2"/><path d="m29.1 23.5c-.5 0-1.1-.3-1.3-.6l-1.1-1.4c-.3-.4-.4-1-.3-1.4l.4-1.7c.1-.4.5-1 .9-1.2l1.6-.8c.4-.2 1.1-.2 1.5 0l1.6.8c.4.2.8.7.9 1.2l.4 1.7c.1.4 0 1.1-.3 1.4l-1.1 1.4c-.3.4-.9.6-1.3.6z" fill="#424143"/><path d="m30.4 19.6c0 .2-.1.3-.3.3s-.3-.1-.3-.3v-3c0-.2.1-.3.3-.3s.3.1.3.3z" fill="#f2f2f2"/></svg>