<svg enable-background="new 0 0 60 60" height="60" viewBox="0 0 60 60" width="60" xmlns="http://www.w3.org/2000/svg"><path d="m46.5 54.9c0 2.8-2.3 5.1-5.1 5.1h-22.8c-2.8 0-5.1-2.3-5.1-5.1v-49.8c0-2.8 2.3-5.1 5.1-5.1h22.8c2.8 0 5.1 2.3 5.1 5.1z" fill="#ff5a00"/><g fill="#fff"><path d="m40 31.6c.5.1.1.7.1 1-.6 0-.6.6-.9.9.4.1.4.2.9.1-.1.3-.2.6-.4.7.4.5.9.8.7 1.8-.4.1-.6.7-1.1.4.8 2.1 1 4.8 2.2 6.5.9 0 .5-1.3.9-1.8 1.7.1 1 2.5 1.1 3.8 1 1 1.6 1.9 1.5 3.1-.1 3.1-6.6 4.1-6.7.2 0-.6.4-1.3.3-2-.1-1.9-2.3-1.9-1.3-3.8.8-.2 1.3.3 2.1.4-.2-2.3-1.2-4.8-1.6-7.3-.1-.4-.4-.4-.6-.7 0-.8-.2-1.4-.4-2.1.5-.4.9-.8 1.6-.9-.1.2-.2.3-.2.4.1.1.3.1.4.3.4 0 .5-.4.6-.7.3.6-.5.9-1 1 .2-.2 0-.4-.3-.3 0-.3.2-.3.2-.5-.5.1-.8.4-1.1.7 1.1 1 1.9 2.1 2.5 3.6.4 0 .4-.3.7-.3-.1-.7-.2-1.4-.8-1.5.1-.3.2-.5.4-.7-.2.1-.4.1-.5.2-.2-.1.2-.4-.4-.3.2-.9 1.2-.9 1.1-2.2zm-2.7 3.2c.2.3.5.3.6.7.6 2.8 1.4 5.5 2 8.3.1.2.5.1.6.3-.2 0-.4 0-.6 0 0-.3-.2-.4-.2-.7-1 .4-.8 2.6-.3 3.4.3-.1.6-.2.8-.4.2.4.2.8.5 1.1.6 0 1.1-.2 1.5-.4-.2-.3-.3-.7-.4-1.1.3.2.7-.2 1-.2.1.8.2 1.7.7 2 0-.9-.4-1.4-.5-2.1.1 0 .1.1.3.1-.9-.9.6-3.7-.9-4.1-.2.5-.1 1.3-.4 1.6-.3.1-.8 0-.9.3-1.5-3.2-1.5-8.3-4.1-10.2.3.4.3.9.3 1.4z"/><path d="m20.2 54.1c0 .3-.2.6-.5.9s-.7.4-1 .4c-.2 0-.4 0-.7-.1s-.6-.1-.7-.1c-.2 0-.3 0-.4.1-.1 0-.1.1-.2.2s-.1.1-.2.1-.1 0-.2-.1c0-.1-.1-.1-.1-.2s.1-.2.2-.2c.1-.1.2-.1.3-.2s.2-.2.2-.3c.1-1.1.1-1.8.1-2 0-.3 0-.5 0-.7 0-.1-.1-.2-.2-.3s-.2-.2-.2-.3 0-.1.1-.2.1-.1.2-.1.3.1.4.2c.6-.1 1-.1 1.2-.1.4 0 .7.1 1 .2.3.2.5.5.5.8 0 .2-.1.3-.2.5s-.3.3-.4.3l-.1.1c.2.1.5.2.7.4.1.2.2.4.2.7zm-1.3-1.9c0-.2 0-.3-.1-.5s-.2-.3-.4-.3c0 0-.1 0-.2 0s-.1.1-.1.1c-.1.2-.1.5-.1.9v.3s0 0 0-.1v-.1c.1-.1.2-.1.2-.1.1 0 .1 0 .2.1s.1.1.1.1c.4 0 .4-.2.4-.4zm.1 2c0-.1 0-.2 0-.3s0-.2 0-.3-.1-.2-.3-.3c-.3-.1-.4-.2-.5-.3v.8c0 .9.1 1.3.4 1.3.1 0 .2-.1.3-.3 0-.3.1-.5.1-.6z"/><path d="m22 50.7c0 .1-.1.2-.2.3s-.2.2-.2.2c0 .4-.1 1.1-.1 2.1v1c0 .1.1.1.1.2.1.1.1.1.1.2s-.1.1-.2.2-.2.2-.2.2v.1.1c0 .1-.1.1-.2.1 0 0-.2-.1-.5-.3s-.4-.3-.4-.4c0 0 0-.1.1-.2s.1-.1.1-.1c0-.2.1-.6.1-1.2 0 .7 0 .3 0-1.2 0-.5-.1-.9-.2-1.2v-.1l.1-.1c.3 0 .4.1.6.2.1 0 .1-.1.2-.2s.2-.2.3-.2c.3.1.4.2.5.3z"/><path d="m24.7 54.6c-.1.1-.2.3-.2.5s-.1.3-.3.3c-.1 0-.2-.1-.4-.2s-.3-.2-.4-.2h-.1v.1.1.1c0 .1 0 .2-.1.2s-.3-.1-.5-.2c-.2-.2-.4-.3-.5-.3v-.1s0-.1.1-.2.1-.1.1-.2c0-.2 0-.4 0-.8 0-.3 0-.6 0-.9l-.1-.1c-.1-.1-.1-.1-.1-.1s0 0 0-.1c.1 0 .2-.2.2-.4s.1-.3.2-.3h.1c0 .1.2.1.4.3.2.1.3.2.3.3 0 0 0 .1-.1.2v.3.5.4c0 .2 0 .4-.1.6.1.1.2.1.3.1h.2c0-.1 0-.3 0-.5 0-.1 0-.2 0-.4s0-.3 0-.4 0-.2 0-.4c-.1-.1-.2-.1-.2-.2s.1-.2.2-.3.2-.2.2-.3v-.1c.1-.1.1-.1.2-.1s.1.1.3.2c.1.1.2.2.3.2.1.1.2.1.2.1 0 .1 0 .1-.1.2 0 .1-.1.1-.1.1v.9.7s0 .1.1.1c-.1.2-.1.3-.1.3z"/><path d="m27.2 53.1c0 .1-.1.2-.3.3-.3.2-.5.3-.6.4-.2.2-.3.4-.3.6.1 0 .2.1.3.1h.3s0-.1.1-.3c0-.1.1-.2.2-.2.2 0 .2.1.2.3 0 .3-.2.5-.5.8 0 .2-.1.2-.2.2s-.4-.1-.8-.3-.6-.3-.6-.3 0-.1.1-.2c0-.1.1-.1.1-.2s0-.3 0-.6c0-.2 0-.4 0-.6s0-.4-.1-.6c0 0 0-.1-.1-.1l-.1-.1c.1-.1.2-.1.4-.2.3-.1.4-.1.5-.2.2-.1.4-.2.5-.4.1 0 .3.2.5.6.3.6.4.9.4 1zm-.9.1c0-.1 0-.2-.1-.3s-.1-.2-.2-.3v.6c0 .1 0 .1.1.2.1-.1.2-.1.2-.2z"/><path d="m29.9 52.1c0 .1-.1.2-.2.3-.2.1-.2.2-.2.4-.1.1-.1.1-.2.1s-.2 0-.3-.1-.2-.2-.3-.2v.2c0 .1.1.2.3.3.2 0 .3.1.5.1.2.1.3.1.4.3v.4.4c0 .2 0 .3.1.4-.1.1-.2.2-.3.2-.2.1-.3.1-.3.1-.1.1-.2.2-.3.4 0 .1-.1.1-.2.1-.2 0-.3-.1-.5-.2s-.3-.2-.3-.2c-.1 0-.1 0-.2.1 0 .1.1.1.2.2.1 0 .2.1.2.2s0 .1-.1.2c-.1 0-.1.1-.2.1-.4 0-.5-.2-.5-.6 0-.1.1-.3.3-.4.2-.2.3-.3.3-.4.1 0 .2-.1.2-.1.1 0 .2.1.4.2s.3.2.4.2h.1s0-.1-.1-.3c0-.1-.1-.2-.2-.3-.2-.1-.4-.1-.6-.2-.1 0-.2-.1-.3-.2 0-.1-.1-.3-.1-.7 0-.1 0-.3-.1-.4 0-.1.1-.2.3-.2.1 0 .3 0 .4-.1.1 0 .2-.1.2-.3 0-.1.1-.1.2-.1s.2.1.4.2.4.1.7.1c-.1-.3-.1-.2-.1-.2z"/><path d="m36.5 55.6c0 .2-.1.4-.2.5s-.3.2-.6.2-.5-.1-.7-.4c-.2-.2-.2-.5-.2-.8 0-.1 0-.2-.1-.3 0-.1-.1-.2-.1-.2 0-.1 0-.1.1-.3 0-.1.1-.2.1-.3 0-.3 0-.5-.1-.6s-.3-.2-.5-.2-.3.1-.3.4c0 .8.2 1.2.5 1.2.1 0 .1 0 .2.1.1 0 .1.1.1.1 0 .1 0 .2-.1.2 0 0-.1 0-.3 0-.1 0-.3 0-.6-.1-.3 0-.5-.1-.6-.1-.3 0-.6.1-.8.3-.2 0-.3-.1-.3-.2 0-.2.1-.3.3-.4s.3-.3.3-.4c.1-.3.1-.8.1-1.4 0 0 0-.5 0-1.4 0 0-.1-.1-.3-.2-.1-.1-.2-.1-.2-.2s0-.1.1-.1.1-.1.2-.1h.4.5c.1 0 .2 0 .4-.1s.3-.1.4-.1.2.1.2.2-.1.2-.2.2c-.1.1-.2.2-.3.3-.1.2-.2.5-.2.8s.1.5.3.5.4-.2.5-.5.1-.6.2-.9.4-.5.8-.5c.2 0 .2 0 .2.1-.1.5-.2.8-.2 1s0 .4-.1.6-.2.3-.4.4c0 0 .1.1.2.2.2.1.3.2.4.4s.2.4.2.7c0 .1 0 .3-.1.6s-.1.5-.1.6 0 .2.1.3 0 0 0-.1v-.1c0-.1 0-.1.1-.2s.1-.1.2-.1.1 0 .2.1c.3.2.3.3.3.3z"/><path d="m37.7 54.6c0 .1-.1.2-.2.3s-.1.2-.1.4c-.1.1-.1.1-.2.1 0 0-.2-.1-.4-.2-.2-.2-.4-.3-.4-.3.1-.3.2-.6.2-1.1 0-.4 0-.6 0-.6 0-.3-.1-.4-.2-.5 0-.1.1-.2.2-.4.1-.1.2-.3.1-.4.1 0 .1-.1.2-.1s.2.1.3.2c.2.1.3.2.4.2v.1.1c-.1.2-.2.5-.2 1.1s.1 1 .3 1.1zm-.2-3.5c-.1 0-.2.1-.2.3-.1.2-.2.2-.2.2-.1 0-.1 0-.2-.1 0-.1-.1-.1-.2-.2s-.2-.1-.2-.2.1-.1.2-.2.2-.2.2-.3h.1c.1 0 .2.1.4.2 0 .1.1.2.1.3z"/><path d="m40.7 54.6c-.2.2-.3.2-.3.3-.1.1-.1.2-.1.4 0 .1-.1.1-.1.1h-.1c-.1 0-.2-.1-.4-.2-.2-.2-.3-.3-.3-.3 0-.1 0-.1.1-.2 0-.1.1-.2.1-.2 0-.1 0-.1 0-.2s0-.2 0-.2c0-.3 0-.7.1-1.2-.1-.1-.1-.1-.2-.1-.1-.1-.2-.1-.2-.1v.2.3.3.3.3.2.2c0 .1.1.1.2.1s.2.1.2.1-.1.1-.2.3c-.4 0-.5.1-.5.3 0 0-.1.1-.2.1 0 0 0 0-.1 0h-.1c0-.1-.2-.1-.4-.2s-.2-.2-.2-.3c0 0 0-.1.1-.2 0-.1.1-.1.1-.1 0-.2 0-.6 0-1.2 0-.2 0-.4 0-.5 0 0-.1-.1-.2-.1s-.1-.1-.1-.1 0 0 0-.1c.1 0 .2-.1.2-.2s0-.2.1-.3c0-.1.1-.1.3-.1.1 0 .2.1.4.2s.2.2.3.2.1-.1.1-.2c.1-.1.1-.1.2-.1s.2.1.4.2.4.2.5.2l.1.1s0 .1-.1.2c0 .1-.1.2-.1.2v.5.5c0 .3 0 .5.1.6 0 0 .1.1.2.1 0-.2.1-.1.1-.1z"/><path d="m43.5 55c0 .3-.1.6-.4.8-.2.1-.5.2-.7.4-.2.1-.3.3-.3.5-.1.1-.1.1-.2.1-.2 0-.4-.1-.7-.3s-.5-.3-.7-.3h-.1s0 .1.1.1.1.1.1.1c0 .2-.1.3-.4.3-.1 0-.2-.1-.3-.2s-.1-.2-.1-.3c0-.2.1-.4.2-.4 0 0 .2 0 .5-.1.2 0 .3-.1.4-.2h.1c.1 0 .3.1.5.2s.4.2.5.2.2 0 .3-.1.1-.2.1-.3 0-.2-.1-.3-.1-.2-.2-.2c-.2.1-.3.1-.3.2v.2c0 .1 0 .1-.1.1s-.3-.1-.5-.2-.3-.2-.4-.2c.2-.1.2-.2.2-.2 0-.1 0-.1.1-.2 0-.1.1-.2.1-.2 0-.1 0-.3 0-.5s0-.4 0-.5 0-.2-.1-.4c0-.2-.1-.3-.1-.4s0-.2.1-.2.2-.1.3-.1c.2 0 .3-.1.3-.1s.1-.1.2-.2.2-.2.2-.2h.1c.1.1.2.2.4.3s.3.1.5.2c-.1.5-.2.9-.2 1.2 0 .5.1.9.4 1.2.2.1.2.1.2.2zm-1.1-2.2s-.1 0-.2-.1-.1-.1-.2-.1c0 0-.1 0-.1.1s0 .3.1.6v.6c0 .2 0 .4-.1.6 0 0 .1 0 .2.1h.2.1v-.1c0-.1 0-.2 0-.3s0-.2 0-.3c-.1-.4-.1-.8 0-1.1z"/><path d="m19.1 20.5c-.1.3-.2.6-.3.7-.1.2-.4.3-.6.3-.1 0-.2 0-.3 0s-.2 0-.3 0c0 0-.1 0-.1.1-.1 0-.1.1-.1.1s0 0-.1 0c0 0 0 0 0-.1s0-.1.1-.2l.2-.2c0-.1.1-.4.1-.9 0-.1 0-.2 0-.3s-.1-.2-.2-.2c0 0-.1 0-.1-.1s0-.1.1-.1c0 0 .1 0 .1.1l.1.1h.3.3c.1 0 .3.1.4.2s.2.3.2.4c.1 0 .1.1.2.1zm-.6.2c0-.6-.1-.9-.4-.9-.1 0-.1.2-.1.6v.5c0 .2.1.4.1.5h.1c.1 0 .2-.1.2-.3.1-.1.1-.3.1-.4z"/><path d="m19.8 21.2s0 .1-.1.1c0 .1-.1.1-.1.2h-.1s-.1 0-.2-.1-.2-.1-.2-.1c.1-.1.1-.3.1-.5s0-.3 0-.3c0-.1 0-.2-.1-.2 0 0 0-.1.1-.2s.1-.1.1-.2h.1s.1 0 .2.1.1.1.2.1v.1.1c0 .1-.1.2-.1.5 0 .2.1.4.1.4zm0-1.5-.1.1c0 .1-.1.1-.1.1s-.1 0-.1-.1c0 0 0-.1-.1-.1l-.1-.1s0-.1.1-.1l.1-.1c.1 0 .1 0 .2.1 0 .1 0 .1.1.2z"/><path d="m21.2 20.1s0 .1-.1.1c-.1.1-.1.2-.1.2h-.1s-.1 0-.1-.1c-.1 0-.1-.1-.1-.1v.1c0 .1 0 .1.1.1s.2 0 .2.1c.1 0 .1.1.2.1v.2.2.2s-.1.1-.2.1-.1 0-.2 0-.1.1-.1.2c0 0 0 0-.1 0s-.1 0-.2-.1-.1-.1-.1-.1h-.1s0 .1.1.1.1 0 .1.1v.1h-.1c-.2 0-.2-.1-.2-.3 0-.1 0-.1.1-.2s.1-.1.1-.2h.1s.1 0 .2.1c.1 0 .1.1.2.1v-.1c0-.1 0-.1-.1-.1s-.2-.1-.3-.1-.1-.1-.1-.1 0-.1 0-.3c0-.1 0-.1-.1-.2 0-.1.1-.1.1-.1h.2c.1 0 .1-.1.1-.1h.1s.1 0 .2.1z"/><path d="m22.3 20s0 .1-.1.1l-.1.1v.1s0 0-.1 0h-.1v.3.3.3h.2c.1 0 .1 0 .1.1 0 0 0 .1-.1.1 0 .1-.1.1-.1.1s0 .1 0 0c0 0 0 0-.1 0 0 0-.1 0-.3-.1-.1-.1-.2-.1-.2-.1 0-.2.1-.5.1-.7 0-.1 0-.2 0-.3 0 0 0 0-.1 0 0 0-.1 0-.1-.1s0-.1.1-.1h.1s0 0 0-.1v-.1c0-.1 0-.1 0-.1h.1.1.1c.1-.1.2-.2.3-.2 0 0 .1 0 .1.1 0 0 0 .1-.1.2 0 .1-.1.1-.1.2v.1s0 .1.1.1c0 0 .1 0 .1-.1 0-.3 0-.3.1-.2-.1-.1 0-.1 0 0z"/><path d="m38.9 21c0 .2-.1.3-.2.4s-.3.2-.5.2c-.1 0-.2 0-.3 0s-.2 0-.3 0-.1 0-.2 0c0 0-.1 0-.1.1h-.1-.1v-.1s0-.1.1-.1.1-.1.2-.1.1-.1.1-.2c0-.5 0-.8 0-.9s0-.2 0-.3c0 0 0-.1-.1-.1s-.1-.1-.1-.1v-.1h.1c.1 0 .1 0 .2.1.3 0 .5-.1.6-.1.2 0 .3 0 .4.1s.2.2.2.4c0 .1 0 .2-.1.2-.1.1-.1.1-.2.2.1 0 .2.1.3.2.1 0 .1.1.1.2zm-.5-.8c0-.1 0-.2 0-.2 0-.1-.1-.1-.2-.1 0 0 0 0-.1 0v.4.2c.1 0 .1-.1.1-.1h.1l.1.1c-.1-.2 0-.2 0-.3zm0 .8v-.1c0-.1 0-.1 0-.1 0-.1 0-.1-.2-.2-.1-.1-.2-.1-.2-.1v.3c0 .4.1.6.2.6s.1 0 .1-.1c.1-.1.1-.2.1-.3z"/><path d="m40.3 21.2s0 .1-.1.1-.1.1-.1.1 0 0-.1 0-.2 0-.2-.1c-.1-.1-.1-.1-.1-.1h-.1v.1s0 0-.1 0c0 0-.1 0-.2-.1s-.2-.1-.2-.1-.1 0-.1-.1v-.1c.1 0 .1-.1.1-.3v-.1c0-.1 0-.1 0-.1s.1 0 .2-.1c.1 0 .2 0 .2-.1.1 0 .1-.1.1-.2s0-.1-.1-.1h-.1c-.1 0-.1 0-.1.1 0 0 0 0 .1.1l.1.1v.1h-.1c-.1 0-.1 0-.1-.1l-.1-.1c0-.1 0-.1.1-.2 0-.1.1-.1.1-.1s.1 0 .1-.1.1-.1.1-.1.1 0 .2.1.2.1.2.1v.1.3.3.3c.2.3.2.3.3.4 0-.1 0 0 0 0zm-.6-.2v-.1-.1s-.1 0-.1.1l.1.1-.1.1v.1c0 .1 0 .1.1.1 0-.1 0-.2 0-.3z"/><path d="m41.6 20.1s0 .1-.1.1c-.1.1-.1.1-.1.2h-.1s-.1 0-.1-.1c-.1 0-.1-.1-.1-.1v.1c0 .1 0 .1.1.1s.2 0 .2.1c.1 0 .1.1.2.1v.2.2.2s-.1.1-.2.1-.1 0-.2 0-.1.1-.1.2c0 0 0 0-.1 0s-.1 0-.2-.1-.1-.1-.1-.1h-.1s0 .1.1.1.1 0 .1.1v.1h-.1c-.2 0-.2-.1-.2-.3 0-.1 0-.1.1-.2s.1-.1.1-.2h.1s.1 0 .2.1c.1 0 .1.1.2.1v-.1c0-.1 0-.1-.1-.1s-.2-.1-.3-.1-.1-.1-.1-.1 0-.1 0-.3c0-.1 0-.1-.1-.2 0-.1.1-.1.1-.1h.2c.1 0 .1-.1.1-.1h.1s.1 0 .2.1z"/><path d="m42.9 20.1s0 .1-.1.1c-.1.1-.1.1-.1.2h-.1s-.1 0-.1-.1c-.1 0-.1-.1-.1-.1v.1c0 .1 0 .1.1.1s.2 0 .2.1c.1 0 .1.1.2.1v.2.2.2s-.1.1-.2.1-.1 0-.2 0-.1.1-.1.2c0 0 0 0-.1 0s-.1 0-.2-.1-.1-.1-.1-.1h-.1s0 .1.1.1.1 0 .1.1v.1h-.1c-.2 0-.2-.1-.2-.3 0-.1 0-.1.1-.2s.1-.1.1-.2h.1s.1 0 .2.1c.1 0 .1.1.2.1v-.1c0-.1 0-.1-.1-.1s-.2-.1-.3-.1-.1-.1-.1-.1 0-.1 0-.3c0-.1 0-.1-.1-.2 0-.1.1-.1.1-.1h.2c.1 0 .1-.1.1-.1h.1s.1 0 .2.1z"/><path d="m39.9 28.2s0 .1-.1.1h-.1c-.1 0-.2 0-.2-.1 0 0-.1-.1-.1-.2s-.1-.1-.1-.2c-.1.2-.3.2-.5.2-.3 0-.5-.1-.6-.3s-.2-.5-.2-.7v-.1c.1-.2.1-.4.2-.5s.2-.3.3-.3c.1-.1.3-.1.5-.1h.2.2.1.1c.1 0 .1 0 .1.1 0 0 0 .1-.1.1 0 .1-.1.1-.1.1v.2.2.2c0 .1 0 .1-.1.1h-.1s0-.1-.1-.3c0-.1 0-.3-.1-.3 0-.1-.1-.1-.2-.1s-.2.1-.3.2-.1.3-.1.4c0 .7.1 1 .3 1s.3-.1.3-.2c0 0 0-.2.1-.4 0-.1.1-.2.1-.2h.1v.2.1.1.3c0 .1.1.2.1.3h.1c.2-.1.3 0 .3.1z"/><path d="m41 27.6c0 .1 0 .1 0 0-.1.1-.1.1-.1.2s-.1.1-.1.1-.1 0-.2-.1-.1-.1-.2-.1 0 .1-.1.1-.1 0-.2-.1-.2-.1-.2-.1 0 0 0-.1v-.1c0-.1 0-.2 0-.4 0-.1 0-.3 0-.4 0 0 0 0-.1 0 0 0 0 0 0-.1 0 0 0 0 0-.1 0 0 .1-.1.1-.2s0-.1.1-.1h.1s.1.1.2.1.1.1.1.1v.1.1.2.2.3h.1.1c0-.1 0-.1 0-.2 0 0 0-.1 0-.2s0-.1 0-.2 0-.1 0-.2c-.1 0-.1-.1-.1-.1s0-.1.1-.1l.1-.1.1-.1s.1 0 .1.1c.1.1.1.1.1.1.1 0 .1 0 .1.1v.1.1.4.3c-.2.3-.2.3-.1.4z"/><path d="m42.1 26.4s0 .1-.1.1l-.1.1v.1s0 0-.1 0h-.1v.3.3.3h.2c.1 0 .1 0 .1.1 0 0 0 .1-.1.1 0 .1-.1.1-.1.1s0 .1 0 0c0 0 0 0-.1 0 0 0-.1 0-.3-.1-.1-.1-.2-.1-.2-.1 0-.2.1-.5.1-.7 0-.1 0-.2 0-.3 0 0 0 0-.1 0 0 0-.1 0-.1-.1s0-.1.1-.1h.1s0 0 0-.1v-.1c0-.1 0-.1 0-.1h.1.1.1c.1-.1.2-.2.3-.2 0 0 .1 0 .1.1 0 0 0 .1-.1.2 0 .1-.1.1-.1.2v.1s0 .1.1.1c0 0 .1 0 .1-.1 0-.3 0-.3.1-.2 0-.1 0-.1 0 0z"/><path d="m38 4c-.1.4-.2.6-.3.8-.2.2-.4.4-.7.4-.1 0-.2 0-.3 0s-.3 0-.3 0-.1 0-.1.1c-.1 0-.1.1-.1.1s0 0-.1 0c0 0 0 0 0-.1s0-.1.1-.2.2-.1.2-.2.1-.5.1-1c0-.2 0-.3 0-.3 0-.1-.1-.2-.2-.2l-.1-.1c0-.1 0-.1.1-.1 0 0 .1 0 .1.1.1 0 .1.1.1.1.1 0 .2 0 .3-.1.2-.3.4-.3.4-.3.1 0 .3.1.4.2s.2.3.3.4c.1.2.1.3.1.4zm-.6.2c0-.6-.1-.9-.4-.9-.1 0-.2.2-.2.6v.6c0 .2.1.4.1.5h.1c.1 0 .2-.1.2-.3.2-.2.2-.4.2-.5z"/><path d="m39.3 3.6s0 .1-.1.2-.1.1-.1.2c0 0 0 .1-.1.1s-.1 0-.1-.1 0-.1-.1-.1v.1.1.1c0 .2 0 .3-.1.4l.1.1c.1 0 .1 0 .1.1s0 .1-.1.1-.1 0-.1.1v.1c0 .1 0 .1-.1.1 0 0-.1 0-.2-.1-.1 0-.2-.1-.2-.1s0 0 0-.1 0-.2 0-.4 0-.4 0-.4 0 0-.1-.1l-.1-.1s0 0 0-.1c0 0 0-.1.1-.2 0-.1.1-.1.1-.1.2 0 .3.1.4.2 0 0 .1 0 .1-.1s0-.1.1-.1c0 0 .1 0 .2.1z"/><path d="m40.1 4.8s0 .1-.1.2c-.1 0-.1 0-.1.1h-.1s-.1 0-.2-.1-.2-.1-.2-.1c.1-.1.1-.3.1-.5s0-.3 0-.3c0-.1 0-.2-.1-.2 0 0 0-.1.1-.2s.1-.1.1-.2h.1s.1 0 .2.1h.1v.1.1c0 .1-.1.3-.1.5s.1.4.2.5zm-.1-1.7c-.1.2-.2.2-.2.2s-.1 0-.1-.1c0 0 0-.1-.1-.1l-.1-.1s0-.1.1-.1.1-.1.1-.1c.1 0 .1 0 .2.1 0 .1.1.1.1.2z"/><path d="m41.5 3.7c-.1.1-.1.2-.1.3v.3.2.2.2s-.1 0-.2.1c-.1 0-.2.1-.2.1s0 0-.1.1c0 .1 0 .1-.1.1s-.2 0-.3-.1-.2-.1-.3-.1c0 0 0 0 0-.1 0 0 0-.1.1-.1l.1-.1s0-.1 0-.2 0-.2 0-.2c0-.1 0-.2 0-.2 0-.1 0-.1-.1-.2v-.1s0 0 0-.1c.1-.1.2-.2.1-.3h.1s.1 0 .2.1.1.1.2.1v.1.1.1.2.2c0 .2 0 .3-.1.4h.1.1c0-.1 0-.2 0-.4s0-.3 0-.4c0 0 0 0-.1-.1l-.1-.1s0-.1.1-.1c.1-.1.1-.1.1-.1h.1s.1 0 .2.1c.2-.1.2 0 .2 0z"/><path d="m42.8 4s0 .1-.1.2c-.2.1-.3.1-.3.2-.1.1-.2.2-.2.3h.1.2v-.1c0-.1 0-.1.1-.1s.1 0 .1.1-.1.3-.2.4c0 .1 0 .1-.1.1s-.2 0-.4-.1-.3-.1-.3-.2c0 0 0 0 0-.1v-.1s0-.1 0-.3c0-.1 0-.2 0-.3s0-.2 0-.3c0 0 0 0 0-.1 0 0 0 0 0-.1s.1-.1.2-.1.2-.1.2-.1c.1 0 .2-.1.2-.2 0 0 .1.1.2.3.2.5.3.6.3.6zm-.5.1c0-.2-.1-.2-.1-.2v.3c0-.1 0 0 .1-.1z"/><path d="m28.4 13s0 .1-.1.1-.1.1-.1.1c0 .1-.1.1-.1.2s0 .1.1.3c0 .1.1.2.1.3s-.1.1-.2.1-.2 0-.2 0c-.1 0-.2 0-.4 0s-.3 0-.4 0-.2 0-.2.1c-.1 0-.1.1-.1.1-.1 0-.1 0-.1-.1 0 0 0-.1.1-.1l.1-.1s.1-.1.1-.2 0-.1 0-.3c0-.1 0-.2 0-.3 0 0 0-.1 0-.3 0-.1 0-.2 0-.3s0-.2 0-.2 0-.1-.1-.1-.1-.1-.1-.1c0-.1.1-.1.2-.1h.2.1.5s.1 0 .1-.1h.1c.1 0 .1 0 .1.1s-.1.1-.2.1c-.2 0-.3 0-.3 0-.1 0-.2.1-.2.3v.6c0 .2 0 .4.1.6 0 .1.1.1.1.1.1 0 .1-.1.2-.3.1-.3.1-.4.1-.5.1-.2.2-.3.3-.3.2.2.2.3.2.3z"/><path d="m29.7 13.1s0 .1-.1.2c-.2.1-.3.1-.3.2-.1.1-.2.2-.2.3h.1.2v-.1c0-.1 0-.1.1-.1s.1 0 .1.1-.1.3-.2.4c0 .1 0 .1-.1.1s-.2 0-.4-.1-.3-.1-.3-.2c0 0 0 0 0-.1v-.1s0-.1 0-.3c0-.1 0-.2 0-.3s0-.2 0-.3c0 0 0 0 0-.1 0 0 0 0 0-.1s.1-.1.2-.1.2-.1.2-.1c.1 0 .2-.1.2-.2 0 0 .1.1.2.3.2.4.3.5.3.6zm-.5 0v-.1c0-.1-.1-.1-.1-.1v.3s0 0 .1-.1c0 .1 0 .1 0 0z"/><path d="m31.1 12.7c-.1.1-.1.2-.2.3v.3.2.2.2s-.1 0-.2.1c-.1 0-.2.1-.2.1s0 0-.1.1c0 .1 0 .1-.1.1s-.2 0-.3-.1c0-.2 0-.3-.1-.3 0 0 0 0 0-.1 0 0 0-.1.1-.1l.1-.1s0-.1 0-.2 0-.2 0-.2c0-.1 0-.2 0-.2 0-.1 0-.1-.1-.2v-.1s0 0 0-.1c.1-.1.2-.2.1-.3h.1s.1 0 .2.1.1.1.2.1v.1.1.1.2.2c0 .2 0 .3-.1.4h.1.1c0-.1 0-.2 0-.4s0-.3 0-.4c0 0 0 0-.1-.1l-.1-.1s0-.1.1-.1c.1-.1.1-.1.1-.1h.1s.1 0 .2.1c0 .1.1.2.1.2z"/><path d="m32.3 13.1s0 .1-.1.2c-.2.1-.3.1-.3.2-.1.1-.2.2-.2.3h.1.2v-.1c0-.1 0-.1.1-.1s.1 0 .1.1-.1.3-.2.4c0 .1 0 .1-.1.1s-.2 0-.4-.1-.3-.1-.3-.2c0 0 0 0 0-.1v-.1s0-.1 0-.3c0-.1 0-.2 0-.3s0-.2 0-.3c0 0 0 0 0-.1 0 0 0 0 0-.1s.1-.1.2-.1.2-.1.2-.1c.1 0 .2-.1.2-.2 0 0 .1.1.2.3.2.4.3.5.3.6zm-.4 0v-.1c0-.1-.1-.1-.1-.1v.3c-.1 0 0 0 .1-.1-.1.1 0 .1 0 0z"/><path d="m33.2 11.9s0 .1-.1.1-.1.1-.1.1v1 .5s0 .1.1.1l.1.1s0 .1-.1.1c-.1.1-.1.1-.1.1v.1s0 0-.1 0c0 0-.1 0-.2-.1s-.2-.1-.2-.2c0 0 0 0 .1-.1 0 0 0 0 .1-.1 0-.1 0-.3 0-.6 0 .3 0 .2 0-.6 0-.2 0-.4-.1-.6s0 0 0-.1c.1 0 .2 0 .3.1 0 0 .1 0 .1-.1s.1-.1.1-.1c0 .3.1.3.1.3z"/><path d="m19.4 3.1v.7c0 .1 0 .2-.1.3s-.1.2-.2.2h-.1s-.1 0-.1-.1 0-.1.1-.1.1-.1.1-.2c0 0 0-.1-.1-.2 0-.1-.1-.2-.1-.2s0-.1-.1-.2-.1-.1-.1-.1c-.1 0-.1.3-.1.9 0 .1 0 .3.1.4 0 .2.1.3.2.3h.1v-.1h.1.1v.1s0 .1-.1.1l-.1.1s-.1 0-.2 0-.2 0-.3 0-.3 0-.3 0c-.1 0-.3 0-.4.1-.1 0-.1 0-.1-.1s0-.1.1-.2c0 0 .1 0 .2-.1.1 0 .1-.1.1-.1 0-.1 0-.3.1-.5 0 0 0-.2 0-.5 0-.2 0-.2 0-.2 0-.1 0-.2-.1-.2h-.1l-.1.1c0 .1-.1.1-.1.2v.1.2c0 .1 0 .1.1.2.1 0 .1 0 .1.1 0 0 0 .1-.1.1h-.1c-.1 0-.2-.1-.2-.2s0-.2 0-.3 0-.1 0-.2 0-.2 0-.2c0-.1 0-.2-.1-.3s0-.1.1-.1h.3.3.4.4.2c0 .1.1.1.2.2-.1-.1-.1-.1 0 0 0-.1 0 0 0 0z"/><path d="m20.7 4.8s-.1.1-.2.1-.2.1-.2.1c-.1 0-.1.1-.1.2h-.1c-.1 0-.2 0-.3-.1s-.2-.1-.3-.1c0 0 0 0 0-.1v-.1-.1-.5s0-.1 0-.2 0-.1 0-.2 0-.1.1-.1.1 0 .2-.1l.1-.1c0-.1.1-.1.1-.1s.1 0 .2.1.2.1.3.1v.1.1.1.4c.2.3.2.4.2.5zm-.4-.1c0-.1 0-.1 0-.2 0 0 0-.1 0-.2s0-.1 0-.2 0-.1 0-.2l-.1-.1v.3.1.1.1.1.1c0 .1 0 .1.1.1z"/><path d="m22.2 4.8c-.1.1-.1.1-.1.1-.1.1-.1.1-.1.2 0 0 0 0-.1 0s-.1 0-.2-.1-.1-.1-.1-.1v-.1-.1-.1-.1c0-.1 0-.3 0-.6 0 0-.1 0-.1-.1h-.1v.1.1.1.2.2.1.1s0 0 .1.1c0 0 .1 0 .1.1 0 0 0 .1-.1.1 0 0-.1 0-.1.1 0 0 0 0-.1 0s-.1-.1-.2-.1-.1-.1-.1-.1 0 0 0-.1c0 0 0 0 0-.1s0-.3 0-.6c0-.1 0-.2 0-.3 0 0 0 0-.1-.1 0 0-.1 0-.1-.1.1 0 .1 0 .1-.1v-.1l.1-.1c.1 0 .1 0 .2.1.1 0 .1.1.1.1s.1 0 .1-.1h.1s.1 0 .2.1c.3.1.3.1.4.1v.1.1.1.2.2.3c0 .1 0 .1.1.2 0-.1 0 0 0 0z"/><path d="m23.5 4s0 .1-.1.2c-.2.1-.3.1-.3.2-.1.1-.2.2-.2.3h.1.2v-.1c0-.1 0-.1.1-.1s.1 0 .1.1-.1.3-.2.4c0 .1 0 .1-.1.1s-.2 0-.4-.1-.3-.1-.3-.2c0 0 0 0 0-.1v-.1s0-.1 0-.3c0-.1 0-.2 0-.3s0-.2 0-.3c0 0 0 0 0-.1 0 0 0 0 0-.1s.1-.1.2-.1.2-.1.2-.1c.1 0 .2-.1.2-.2 0 0 .1.1.2.3.2.5.3.6.3.6zm-.4.1c0-.2-.1-.2-.1-.2v.3c-.1-.1 0 0 .1-.1-.1.1 0 0 0 0z"/></g><path d="m23.2 15.3c-2.4 1.4-5.6.6-7-1.8s-.6-5.6 1.8-7 5.6-.6 7 1.8c1.4 2.5.6 5.6-1.8 7z" fill="#dfca22"/><path d="m24.5 8.9c-.1.1-.2 0-.3-.1s0-.2.1-.3.2 0 .3.1c0 .1 0 .3-.1.3z" fill="#f6f3e9"/><path d="m42.9 14.6c-2 2-5.3 1.9-7.2-.1-2-2-1.9-5.3.1-7.2 2-2 5.3-1.9 7.2.1 2 2 2 5.3-.1 7.2z" fill="#dfca22"/><path d="m42.7 8.1c-.1.1-.2.1-.3 0s-.1-.2 0-.3.2-.1.3 0z" fill="#f6f3e9"/><path d="m33.8 16.9c1.9 2.1 1.6 5.3-.5 7.2s-5.3 1.6-7.2-.5-1.6-5.3.5-7.2c2.2-1.8 5.4-1.6 7.2.5z" fill="#dfca22"/><path d="m27.3 16.9c.1.1.1.2 0 .3s-.2.1-.3 0-.1-.2 0-.3.2-.1.3 0z" fill="#f6f3e9"/><path d="m21.2 23.2c.5.8.2 1.8-.6 2.3s-1.8.2-2.3-.6-.2-1.8.6-2.3 1.8-.2 2.3.6z" fill="#252522"/><path d="m19.3 23.7c-.1 0-.2-.1-.2-.1l-.3-.6c0-.1-.1-.1 0-.2 0-.1.1-.1.1-.2.1-.1.3 0 .4.1l.3.5c0 .1.1.1 0 .2 0 .1-.1.1-.1.2-.1.1-.1.1-.2.1zm-.3-.9c-.1 0-.1.1-.1.1v.1l.3.5c0 .1.1.1.2 0 0 0 0 0 .1-.1v-.1l-.3-.5c-.1 0-.1 0-.2 0z" fill="#424143"/><path d="m40.7 25.7c-.9.3-1.8-.2-2.1-1.1s.2-1.8 1.1-2.1 1.8.2 2.1 1.1c.3.8-.2 1.8-1.1 2.1z" fill="#252522"/><path d="m40.9 24.1c-.1 0-.2-.1-.3-.2 0-.1 0-.3.2-.4l.6-.2c.1 0 .3 0 .4.2 0 .2 0 .3-.2.4zm.6-.6-.6.2s-.1 0-.1.1v.1c0 .1.1.1.2.1l.6-.2s.1 0 .1-.1v-.1c-.1 0-.2-.1-.2-.1z" fill="#424143"/><path d="m23.5 8.9c.2.1.3.3.3.5l-.1 1c0 .2 0 .5.1.6l.3 1c.1.2 0 .4-.2.5l-.9.5c-.2.1-.4.3-.5.4l-.6.9c-.1.1-.3.2-.5.2l-1-.4c-.2-.1-.5-.1-.6-.1l-1.1.1c-.2 0-.4-.1-.4-.3l-.3-1c-.1-.2-.2-.4-.3-.6l-.7-.8c-.1-.1-.1-.4 0-.5l.6-.9c.1-.2.2-.4.2-.6l.2-1c0-.2.2-.3.4-.4l1-.1c.2 0 .5-.1.6-.2l.9-.5c.2-.1.4-.1.5.1l.6.9c.1.1.4.3.5.4z" fill="#e5d52e"/><path d="m21.5 14.8c-.1 0-.1 0-.2 0l-1-.4c-.1-.1-.4-.1-.6-.1l-1.1.1c-.2 0-.5-.2-.6-.4l-.3-1c-.1-.2-.2-.4-.3-.5l-.7-.8c-.2-.2-.2-.5-.1-.7l.6-.9c.1-.1.2-.4.2-.5l.2-1c0-.3.3-.5.5-.5l1-.1c.2 0 .4-.1.6-.2l.9-.5c.2-.1.5-.1.7.1l.7.8c.1.1.3.3.5.3l1 .4c.2.1.4.4.4.6l-.1 1v.6l.3 1c.1.2 0 .5-.3.7l-.8.5c-.1.1-.3.3-.4.4l-.6.8c-.2.2-.4.3-.5.3zm-1.7-.8c.2 0 .5 0 .6.1l1 .4c.1 0 .3 0 .3-.1l.6-.9c.1-.2.3-.4.5-.5l.9-.5c.1-.1.1-.2.1-.3l-.3-1c-.1-.2-.1-.5-.1-.7l.1-1c0-.1-.1-.2-.2-.3l-1-.4c-.2-.1-.5-.3-.6-.4l-.7-.8c-.1-.1-.2-.1-.3 0l-.8.4c-.2.1-.5.2-.7.2l-1 .1c-.1 0-.2.1-.2.2l-.2 1c0 .2-.1.5-.3.7l-.6.9c-.1.1 0 .2 0 .3l.7.8c.1.2.3.4.4.6l.3 1c0 .1.2.2.3.2h1.2c-.1 0-.1 0 0 0z" fill="#cfb444"/><path d="m21.8 10.5c-.1.1-.2 0-.3-.1s0-.2.1-.3l1.3-.7c.1-.1.2 0 .3.1s0 .2-.1.3z" fill="#f6f3e9"/><path d="m41.7 8.3c.2 0 .3.2.4.4l.1 1c0 .2.1.5.2.6l.5.9c.1.2.1.4-.1.5l-.7.7c-.1.1-.3.4-.4.5l-.4 1c-.1.2-.3.3-.4.3l-1-.1c-.2 0-.5 0-.6.1l-1 .3c-.2.1-.4 0-.5-.2l-.6-.9c-.1-.2-.3-.4-.5-.5l-.9-.6c-.2-.1-.2-.3-.2-.5l.3-1c.1-.2.1-.5.1-.6l-.1-1c0-.2.1-.4.3-.4l1-.3c.2-.1.4-.2.6-.3l.8-.7c.1-.1.4-.1.5-.1l.9.6c.2.1.4.2.6.2z" fill="#e5d52e"/><path d="m38.1 14.8c-.2 0-.4-.1-.5-.3l-.6-.9c-.1-.1-.3-.3-.4-.4l-.9-.6c-.2-.1-.3-.4-.2-.7l.3-1c.1-.2.1-.4.1-.6l-.1-1c0-.3.2-.5.4-.6l1-.3c.1-.1.4-.2.5-.3l.8-.7c.2-.2.5-.2.7-.1l.9.6c.2 0 .5.1.6.1l1 .2c.3 0 .5.3.5.5l.1 1c0 .2.1.4.2.6l.5.9c.1.2.1.5-.1.7l-.7.7c-.1.1-.3.3-.3.5l-.4 1c-.1.2-.4.4-.6.4l-1-.1c-.2 0-.4 0-.6.1l-1 .3c-.1 0-.1 0-.2 0zm.9-7.3c-.1 0-.1 0-.2.1l-.8.7c-.1.1-.4.3-.6.4l-1 .3c-.1 0-.2.2-.2.3l.1 1c0 .2 0 .5-.1.7l-.3 1c0 .1 0 .2.1.3l.9.6c.2.1.4.3.5.5l.6.9c.1.1.2.1.3.1l1-.3c.2-.1.5-.1.7-.1l1 .1c.1 0 .2-.1.3-.2l.4-1c.1-.2.2-.5.4-.6l.7-.7c.1-.1.1-.2 0-.3l-.5-.9c-.1-.2-.2-.5-.2-.7l-.1-1c0-.1-.1-.2-.2-.2l-1-.2c-.2 0-.5-.1-.7-.2l-.9-.6c-.1 0-.2 0-.2 0z" fill="#cfb444"/><path d="m40.4 10.2c-.1.1-.2.1-.3 0s-.1-.2 0-.3l1.1-1c.1-.1.2-.1.3 0s.1.2 0 .3z" fill="#f6f3e9"/><path d="m27.5 17.8c0-.2.2-.3.4-.3l1.1-.1c.2 0 .5-.1.6-.2l.9-.5c.2-.1.4 0 .5.1l.7.8c.1.1.4.3.5.4l1 .4c.2.1.3.3.2.5l-.2 1v.6l.3 1c0 .2 0 .4-.2.5l-.9.5c-.2.1-.4.3-.5.4l-.6.8c-.1.3-.3.4-.5.3l-1-.4c-.2-.1-.5-.1-.6-.1h-1.1c-.2 0-.4-.1-.4-.3l-.3-1c-.1-.2-.2-.4-.3-.6l-.7-.8c-.1-.1-.1-.4 0-.5l.6-.9c.1-.1.2-.4.3-.6z" fill="#e5d52e"/><path d="m31 24.2c-.1 0-.1 0-.2 0l-1-.4c-.1-.1-.4-.1-.5-.1h-1.1c-.3 0-.5-.2-.6-.4l-.3-1c0-.2-.2-.4-.3-.5l-.7-.8c-.2-.2-.2-.5 0-.7l.6-.9c.1-.1.2-.4.2-.5l.2-1c0-.3.3-.5.5-.5l1-.1c.2 0 .4-.1.6-.2l.9-.5c.2-.1.5-.1.7.1l.7.8c.1.1.3.3.5.3l1 .4c.2.1.4.4.3.6l-.2 1v.6l.3 1c.1.2-.1.5-.3.7l-.9.5c-.1.1-.3.3-.4.4l-.5 1c-.1.1-.3.2-.5.2zm-1.8-.8c.2 0 .5.1.7.1l1 .4c.1 0 .3 0 .3-.1l.6-.8c.1-.2.4-.4.5-.5l.9-.5c.1-.1.2-.2.1-.3l-.3-1c-.1-.2-.1-.5 0-.7l.2-1c0-.1-.1-.2-.2-.3l-1-.4c-.2-.1-.4-.3-.6-.4l-.5-.9c-.1-.1-.2-.1-.3-.1l-.9.5c-.2.1-.5.2-.7.2l-1.1.1c-.1 0-.2.1-.2.2l-.2 1c0 .2-.2.5-.3.7l-.6.9c-.1.1-.1.2 0 .3l.7.8c.1.2.3.4.3.6l.3 1c0 .1.2.2.3.2z" fill="#cfb444"/><path d="m29.3 19.2c.1.1.1.2 0 .3s-.2.1-.3 0l-1-1.1c-.1-.1-.1-.2 0-.3s.2-.1.3 0z" fill="#f6f3e9"/><path d="m32.2 4.9c0 1.1-.9 2-2 2s-2-.9-2-2 .9-2 2-2c1.2 0 2 .9 2 2z" fill="#e4dec4"/><path d="m30.3 6.9c-1.1 0-2.1-.9-2.1-2.1 0-1.1.9-2.1 2.1-2.1 1.1 0 2.1.9 2.1 2.1s-1 2.1-2.1 2.1zm0-3.9c-1 0-1.9.8-1.9 1.9 0 1 .8 1.9 1.9 1.9 1 0 1.9-.8 1.9-1.9-.1-1.1-.9-1.9-1.9-1.9z" fill="#bdb7a0"/><path d="m31.3 4.9c0 .6-.5 1-1 1-.6 0-1-.5-1-1 0-.6.5-1 1-1 .6-.1 1 .4 1 1z" fill="#a09a84"/><path d="m30.3 6c-.6 0-1.2-.5-1.2-1.2 0-.6.5-1.2 1.2-1.2.6 0 1.2.5 1.2 1.2-.1.7-.6 1.2-1.2 1.2zm0-2.1c-.5 0-.9.4-.9.9s.4.9.9.9.9-.4.9-.9-.4-.9-.9-.9z" fill="#bdb7a0"/><path d="m30 4.9c0 .4-.3.7-.7.7s-.7-.3-.7-.7.3-.7.7-.7.7.3.7.7z" fill="#e4dec4"/><path d="m29.3 5.7c-.4 0-.8-.4-.8-.8s.4-.8.8-.8.8.4.8.8-.4.8-.8.8zm0-1.4c-.3 0-.6.3-.6.6s.3.6.6.6.6-.3.6-.6c0-.4-.3-.6-.6-.6z" fill="#bdb7a0"/><path d="m35.5 43.2c0 2.9-2.3 5.2-5.2 5.2s-5.2-2.3-5.2-5.2 2.3-5.2 5.2-5.2c2.8 0 5.2 2.3 5.2 5.2z" fill="#d3d1cf"/><path d="m28.2 46.8-2.1-3.6 2.1-3.6h4.2l2.1 3.6-2.1 3.6z" fill="#e4dec4"/><path d="m32.5 47h-4.4l-2.2-3.8 2.2-3.8h4.4l2.2 3.8zm-4.2-.4h4l2-3.5-2-3.5h-4l-2 3.5z" fill="#bdb7a0"/><path d="m33 43.2c0 1.5-1.2 2.8-2.8 2.8-1.5 0-2.8-1.2-2.8-2.8 0-1.5 1.2-2.8 2.8-2.8s2.8 1.3 2.8 2.8z" fill="#e4dec4"/><path d="m30.3 46.1c-1.6 0-2.9-1.3-2.9-2.9s1.3-2.9 2.9-2.9 2.9 1.3 2.9 2.9-1.3 2.9-2.9 2.9zm0-5.5c-1.4 0-2.6 1.2-2.6 2.6s1.2 2.6 2.6 2.6 2.6-1.2 2.6-2.6-1.2-2.6-2.6-2.6z" fill="#bdb7a0"/><path d="m31.5 28.4c0 .9-.8 1.7-1.7 1.7s-1.7-.8-1.7-1.7.8-1.7 1.7-1.7 1.7.8 1.7 1.7z" fill="#f2f2f2"/><path d="m29.8 30.4c-1.1 0-2-.9-2-2s.9-2 2-2 2 .9 2 2c-.1 1.1-.9 2-2 2zm0-3.4c-.8 0-1.5.7-1.5 1.5s.7 1.5 1.5 1.5 1.5-.7 1.5-1.5c0-.9-.7-1.5-1.5-1.5z" fill="#424143"/><path d="m46.5 31.6h1.1v5.6h-1.1z" fill="#424143"/><path d="m12.4 31.6h1.1v5.6h-1.1z" fill="#424143"/></svg>