<svg enable-background="new 0 0 60 60" height="60" viewBox="0 0 60 60" width="60" xmlns="http://www.w3.org/2000/svg"><path d="m3.5 52.3c1.1 1.6 2.1 3.3 4.6 5.4 2.4 2.1 4.7 3 7 1.9s3.7-3.4 4.4-6.3c.6-3 1.3-4.8 2.4-6 1.2-1.2 5.1-2.2 7.2-4.7 1.7-2 1.9-3.9-1-5.4-2.9-1.4-1.7-3.8-1.1-4.5l-1.5-3.9s-1.1.5-1.6-.3c-.6-.9-.7-1.4-.1-4.8.2-1.1-.1-1.6-.5-1.9-.8-.8-2.5.2-3.6 1.6-1.6 2.1-3.1 5-3.7 6-1 1.8-2.1 2.6-3.9 3.2-1.7.6-5.4 1.5-7 2.4-1.7.9-4.2 2.9-4.9 6.3-.7 3.3.7 6.9 3.3 11z" fill="#af8424"/><path d="m4.1 53 21.8-21.6-.3-2.8s-1.1.5-1.6-.3c-.6-.9-.7-1.4-.1-4.8.2-1.1-.1-1.6-.5-1.9-.8-.8-2.5.2-3.6 1.6-1.6 2.1-3.1 5-3.7 6-1 1.8-2.1 2.6-3.9 3.2-1.7.6-5.4 1.5-7 2.4-1.7.9-4.2 2.9-4.9 6.3-.8 3.5.5 6.9 3.8 11.9z" fill="#af8424"/><path d="m7 56.2c-1.5-1.5-2.3-2.8-3.2-4-2.9-4.4-3.9-7.8-3.3-10.9.8-3.8 3.8-5.6 4.8-6.1 1.1-.6 3.2-1.2 4.9-1.7.8-.2 1.5-.5 2.1-.6 1.9-.6 3-1.6 4-3.3.1-.2.2-.4.4-.7.7-1.3 2-3.6 3.3-5.3.8-1 1.8-1.7 2.6-1.8.3 0 .5 0 .6.2.2.2.5.7.4 1.6-.5 3.4-.5 4 .2 5 0 .1.1.1.2.2.5.5 1.2.4 1.5.3l1.3 3.5c-.5.7-1.4 2.6.1 4 .3.3.7.6 1.2.8.6.3 1.1.6 1.4.9 1.1 1.1.9 2.4-.4 4-1.2 1.5-3.2 2.4-4.7 3.2-1 .5-1.9 1-2.4 1.4-1.3 1.3-1.9 3.3-2.5 6.1-.7 3-2.1 5.1-4.2 6.1-2 1-4.1.4-6.7-1.9-.8-.2-1.2-.6-1.6-1z" fill="#af8424"/><path d="m26.1 32.2c-.5.6-1.4 3.2.2 4.9 1.1 1.2 2 1 2.6 1.7.8.8.7 2-.4 3.3-1.9 2.2-4.8 3.1-6 3.8-1.7 1-2.8 2.5-3.5 5.3-.7 2.7-.7 3.7-1.5 4.2-.2.1-.6 0-1.1-.4-.5-.5-1.1-1.6-1-3.8.1-1.5.3-2.5.5-3.1.2-.8.2-1.1.2-1.7 0-.1 0-.4-.1-.6-.3-.6-1.3-1.4-2.1-2.2s-1.6-1.6-1.8-1.9c-.6-.6-.5-1.7.2-2.4s1.6-1.6 2.1-2.4c.5-.7 2.4-5.2 3.5-7.1 1.2-2.1 2.4-3.9 3.3-4.5s1.3.3 1.3.8 0 1.3.2 2.1.7 1.6 1 2 2.4 2 2.4 2z" fill="#333"/><path d="m25.5 31.6c-.5.7-11.7 11.8-11.7 11.8s-1.5-1.6-1.8-1.8c-.6-.6-.5-1.7.2-2.4s1.6-1.6 2.1-2.4c.5-.7 2.4-5.2 3.5-7.1 1.2-2.1 2.4-3.9 3.3-4.5s1.3.3 1.3.8 0 1.3.2 2.1.7 1.6 1 2c.4.5 1.9 1.5 1.9 1.5z" fill="#1a1a1a"/><path d="m16.5 54.6c-.7-.7-1-1.9-.9-3.6.1-1.2.2-2.1.4-2.7 0-.1.1-.3.1-.4.2-.8.2-1.1.2-1.8 0 0 0 0 0-.1 0-.2 0-.4-.1-.7-.2-.4-.6-.8-.9-1.1-.2-.2-.3-.3-.5-.5s-.3-.3-.5-.5c-.1-.1-.1-.1-.2-.2-.9-.9-1.6-1.6-1.8-1.9-.5-.5-.4-1.5.2-2.1.7-.7 1.6-1.6 2.1-2.4.2-.4.7-1.4 1.4-2.8.7-1.6 1.5-3.3 2.1-4.4 1.3-2.4 2.5-3.9 3.2-4.5.4-.3.6-.1.7 0 .2.2.2.4.2.6v.1c0 .5 0 1.3.2 2.1.2 1 .8 1.8 1 2.1l.3.3c.6.6 1.7 1.4 2.1 1.8-.6 1-1.2 3.3.3 5l.1.1c.6.6 1.2.9 1.6 1.1.3.1.6.2.8.5.7.7.5 1.8-.5 2.9-1.3 1.6-3.3 2.5-4.7 3.1-.5.2-.9.4-1.2.6-1.8 1.1-2.9 2.7-3.6 5.4-.2.7-.3 1.3-.4 1.8-.3 1.3-.4 1.9-.9 2.2 0 .5-.3.5-.8 0z" fill="#1a1a1a"/><path d="m14 43.2s-1.5-1.6-1.8-1.8c-.5-.5-.4-1.5.2-2.1.7-.7 1.6-1.6 2.1-2.4.2-.4.7-1.4 1.4-2.8.7-1.6 1.5-3.3 2.1-4.4 1.3-2.4 2.5-3.9 3.2-4.5.4-.3.6-.1.7 0 .2.2.2.4.2.6v.1c0 .5 0 1.3.2 2.1.2 1 .8 1.8 1 2.1l.3.3c.6.6 1.7 1.4 1.7 1.4z" fill="#333"/><path d="m25.6 36.7c.1-.1.1-.2 0-.3l-4.9-4.9c-.1-.1-.2 0-.3 0l-2.4 2.4c-.1.1-.1.2 0 .3l4.9 4.9c.1.1.2 0 .3 0z" fill="#333"/><path d="m23.2 33.9-2.5-2.5s-.1-.1-.2 0c-.1 0-.1 0-.2.1l-2.3 2.4s-.1.1-.1.2v.2l2.5 2.5z" fill="#010101"/><path d="m25.5 36.7c.1-.1.1-.2 0-.3l-4.8-4.8c-.1-.1-.2-.1-.3 0l-2.3 2.3c-.1.1-.1.2 0 .3l4.8 4.8c.1.1.2.1.3 0z"/><path d="m23.1 34-2.4-2.4-.1-.1s-.1 0-.1.1l-1.1 1.1-1.1 1.1-.1.1s0 .1.1.1l2.4 2.4z" fill="#333"/><path d="m24.9 36.4c.1-.1.1-.2 0-.3l-3.9-3.9c-.1-.1-.2 0-.3 0l-1.9 1.9c-.1.1-.1.2 0 .3l3.9 3.9c.1.1.2 0 .3 0z" fill="#333"/><path d="m22.9 34.2-2-2h-.1s-.1 0-.1.1l-1.9 1.9-.1.1v.1l2 2z" fill="#010101"/><path d="m24.7 36.4c.1-.1.1-.2 0-.2l-3.8-3.8c-.1-.1-.2-.1-.2 0l-1.8 1.8c-.1.1-.1.2 0 .2l3.8 3.8c.1.1.2.1.2 0z" fill="#010101"/><path d="m22.8 34.3-1.9-1.9h-.1-.1l-.9.9-.9.9v.1.1l1.9 1.9z" fill="#333"/><path d="m18.7 34c0-.1-.1-.2-.2-.2s-.2.1-.2.2.1.2.2.2.2-.1.2-.2z" fill="#818181"/><path d="m20.7 32c.1-.1.1-.2 0-.3s-.2-.1-.3 0-.1.2 0 .3.2.1.3 0z" fill="#818181"/><path d="m19.6 33.2c.1 0 .2-.1.2-.2s-.1-.2-.2-.2-.2.1-.2.2c.1.1.1.2.2.2z" fill="#818181"/><path d="m25.1 36.4c.1-.1.2-.1.3 0s.1.2 0 .3-.2.1-.3 0-.1-.2 0-.3z" fill="#333"/><path d="m23.9 37.4c0-.1.1-.2.2-.2s.2.1.2.2-.1.2-.2.2-.2-.1-.2-.2z" fill="#333"/><path d="m23.1 38.5c.1 0 .2.1.2.2s-.1.2-.2.2-.2-.1-.2-.2c0-.2.1-.2.2-.2z" fill="#333"/><path d="m18.7 34h-.4z" fill="#010101"/><path d="m20.7 32-.3-.3z" fill="#010101"/><path d="m19.6 33.2c.1 0 .1 0 0 0v-.4z" fill="#010101"/><path d="m25.1 36.4.3.3z" fill="#010101"/><path d="m23.9 37.4h.4z" fill="#010101"/><path d="m23.1 38.5v.4z" fill="#010101"/><path d="m22.9 38.1c-.1.1-.1.1-.2 0l-3.7-3.7c-.1-.1-.1-.1 0-.2l1.7-1.7c.1-.1.1-.1.2 0l3.7 3.7c.1.1.1.1 0 .2z" fill="#adadad"/><path d="m20.9 36.2-1.9-1.8v-.1-.1l.9-.9.9-.9h.1.1l1.9 1.9z" fill="#8b8a8b"/><path d="m22.9 37.8s-.1 0-.2 0l-3.4-3.4c-.1-.1-.1-.1 0-.2l1.5-1.5h.2l3.4 3.4c.1.1.1.1 0 .2z" fill="#d6d5d5"/><path d="m24.4 36.2-3.4-3.4c-.1-.1-.1-.1-.2 0l-.8.6v.2l3.4 3.4c.1.1.1.1.2 0z" fill="#fafbfc"/><path d="m20.9 33.5c-.1 0-.2-.1-.2-.2s.1-.2.2-.2.2.1.2.2-.1.2-.2.2z" fill="#b0b0b0"/><path d="m21.3 34c-.1-.1-.1-.2 0-.3s.2-.1.3 0 .1.2 0 .3-.2.1-.3 0z" fill="#b0b0b0"/><path d="m24 36.4c-.1.1-.2.1-.3 0s-.1-.2 0-.3.2-.1.3 0 .1.2 0 .3z" fill="#b0b0b0"/><path d="m23.3 35.9c-.1 0-.2-.1-.2-.2s.1-.2.2-.2.2.1.2.2-.1.2-.2.2z" fill="#b0b0b0"/><path d="m22.5 35.1c0-.1.1-.2.2-.2s.2.1.2.2-.1.2-.2.2-.2-.1-.2-.2z" fill="#b0b0b0"/><path d="m22.1 34.7c-.1 0-.2-.1-.2-.2s.1-.2.2-.2.2.1.2.2-.1.2-.2.2z" fill="#b0b0b0"/><path d="m20.9 33.5v-.4z" fill="#8b8a8b"/><path d="m21.3 34 .3-.3z" fill="#8b8a8b"/><path d="m24 36.4-.3-.3z" fill="#8b8a8b"/><path d="m23.3 35.9v-.4z" fill="#8b8a8b"/><path d="m22.5 35.1h.4z" fill="#8b8a8b"/><path d="m22.1 34.7v-.4z" fill="#8b8a8b"/><path d="m21.2 41.1c.1-.1.1-.2 0-.3l-4.9-4.9c-.1-.1-.2 0-.3 0l-2.4 2.4c-.1.1-.1.2 0 .3l4.9 4.9c.1.1.2 0 .3 0z" fill="#333"/><path d="m18.8 38.3-2.5-2.5s-.1-.1-.2 0c-.1 0-.1 0-.2.1l-2.4 2.4s-.1.1-.1.2v.2l2.5 2.5z" fill="#010101"/><path d="m21 41.1c.1-.1.1-.2 0-.3l-4.8-4.8c-.1-.1-.2-.1-.3 0l-2.3 2.3c-.1.1-.1.2 0 .3l4.8 4.8c.1.1.2.1.3 0z"/><path d="m18.7 38.4-2.4-2.4-.1-.1s-.1 0-.1.1l-1.1 1.1-1.1 1.1-.1.1s0 .1.1.1l2.4 2.4z" fill="#333"/><path d="m20.4 40.8c.1-.1.1-.2 0-.3l-3.9-3.9c-.1-.1-.2 0-.3 0l-1.9 1.9c-.1.1-.1.2 0 .3l3.9 3.9c.1.1.2 0 .3 0z" fill="#333"/><path d="m18.5 38.6-2-2h-.1s-.1 0-.1.1l-1.9 1.9-.1.1v.1l2 2z" fill="#010101"/><path d="m20.3 40.8c.1-.1.1-.2 0-.2l-3.8-3.8c-.1-.1-.2-.1-.2 0l-1.8 1.8c-.1.1-.1.2 0 .2l3.8 3.8c.1.1.2.1.2 0z" fill="#010101"/><path d="m18.4 38.7-1.9-1.9h-.1-.1l-.9.9-.9.9v.1.1l1.9 1.9z" fill="#333"/><path d="m14.2 38.4c0-.1-.1-.2-.2-.2s-.2.1-.2.2.1.2.2.2c.2 0 .2-.1.2-.2z" fill="#818181"/><path d="m16.3 36.4c.1-.1.1-.2 0-.3s-.2-.1-.3 0-.1.2 0 .3.2.1.3 0z" fill="#818181"/><path d="m15.2 37.6c.1 0 .2-.1.2-.2s-.1-.2-.2-.2-.2.1-.2.2.1.2.2.2z" fill="#818181"/><path d="m20.7 40.8c.1-.1.2-.1.3 0s.1.2 0 .3-.2.1-.3 0-.1-.2 0-.3z" fill="#333"/><path d="m19.5 41.9c0-.1.1-.2.2-.2s.2.1.2.2-.1.2-.2.2-.2-.1-.2-.2z" fill="#333"/><path d="m18.7 42.9c.1 0 .2.1.2.2s-.1.2-.2.2-.2-.1-.2-.2.1-.2.2-.2z" fill="#333"/><path d="m14.2 38.4h-.4z" fill="#010101"/><path d="m16.3 36.4-.3-.2z" fill="#010101"/><path d="m15.2 37.6v-.4z" fill="#010101"/><path d="m20.7 40.8.3.3-.3-.3c-.1 0-.1 0 0 0z" fill="#010101"/><path d="m19.5 41.9h.4z" fill="#010101"/><path d="m18.7 42.9v.4-.4c-.1 0 0 0 0 0z" fill="#010101"/><path d="m18.5 42.5c-.1.1-.1.1-.2 0l-3.7-3.7c-.1-.1-.1-.1 0-.2l1.7-1.7c.1-.1.1-.1.2 0l3.7 3.7c.1.1.1.1 0 .2z" fill="#adadad"/><path d="m16.4 40.6-1.9-1.9v-.1-.1l.9-.9.9-.9h.1.1l1.9 1.9z" fill="#8b8a8b"/><path d="m18.5 42.3s-.1 0-.2 0l-3.4-3.4c-.1-.1-.1-.1 0-.2l1.5-1.5h.2l3.4 3.4c.1.1.1.1 0 .2z" fill="#d6d5d5"/><path d="m19.9 40.6-3.4-3.4c-.1-.1-.1-.1-.2 0l-.7.7v.2l3.4 3.4c.1.1.1.1.2 0l.7-.7c.1-.1.1-.2 0-.2z" fill="#fafbfc"/><path d="m16.5 37.9c-.1 0-.2-.1-.2-.2s.1-.2.2-.2.2.1.2.2-.1.2-.2.2z" fill="#b0b0b0"/><path d="m16.9 38.4c-.1-.1-.1-.2 0-.3s.2-.1.3 0 .1.2 0 .3-.2.1-.3 0z" fill="#b0b0b0"/><path d="m19.6 40.8c-.1.1-.2.1-.3 0s-.1-.2 0-.3.2-.1.3 0z" fill="#b0b0b0"/><path d="m18.8 40.3c-.1 0-.2-.1-.2-.2s.1-.2.2-.2.2.1.2.2 0 .2-.2.2z" fill="#b0b0b0"/><path d="m18.1 39.5c0-.1.1-.2.2-.2s.2.1.2.2-.1.2-.2.2-.2-.1-.2-.2z" fill="#b0b0b0"/><path d="m17.7 39.1c-.1 0-.2-.1-.2-.2s.1-.2.2-.2.2.1.2.2-.1.2-.2.2z" fill="#b0b0b0"/><path d="m16.5 37.9v-.4z" fill="#8b8a8b"/><path d="m16.9 38.4.3-.3z" fill="#8b8a8b"/><path d="m19.6 40.8c-.1 0-.1 0 0 0l-.3-.3z" fill="#8b8a8b"/><path d="m18.8 40.3v-.4.4c.1 0 .1 0 0 0z" fill="#8b8a8b"/><path d="m18.1 39.5h.4z" fill="#8b8a8b"/><path d="m17.7 39.1c-.1 0-.1 0 0 0v-.4z" fill="#8b8a8b"/><path d="m56.9 1.4-.2.1-.3-.6.2-.1z" fill="#b4b4b4"/><path d="m55.8 1.1c.1 0 .4 0 .7-.2.3-.1.5-.3.5-.4s-.2-.4-.2-.5c0 0-.2-.1-.7.1-.4.2-.5.4-.5.5s.2.5.2.5z" fill="#ccc"/><path d="m56.9.2c-.1-.1-.1-.2-.1-.2s-.2-.1-.7.1c-.4.2-.5.4-.5.5 0 0 0 .2.1.3z" fill="#989898"/><path d="m55.8.8c-.1-.1-.1-.2-.1-.2 0-.1.1-.2.4-.4.4-.2.5-.1.5-.1s.1.1.1.2.1.2.1.2-.1.2-.4.4c-.2.1-.4.1-.5.1 0 0-.1-.1-.1-.2z" fill="#989898"/><path d="m56.8.3c0-.1-.1-.1-.1-.2 0 0-.2-.1-.5.1s-.4.3-.4.4c0 0 0 .1.1.2z" fill="#ccc"/><path d="m55.1 2.3-.2.1-.3-.6.1-.1z" fill="#b4b4b4"/><path d="m54 2c.1 0 .4 0 .7-.2s.5-.4.5-.5c0 .1-.2-.3-.3-.3 0 0-.2-.1-.7.1s-.5.4-.5.5c.1 0 .3.4.3.4z" fill="#ccc"/><path d="m55.1 1.2c-.1-.1-.2-.2-.2-.2s-.2-.1-.7.1c-.4.2-.5.4-.5.5 0 0 0 .2.1.3z" fill="#989898"/><path d="m54 1.8c-.1-.1-.1-.2-.1-.2 0-.1.1-.2.4-.4.4-.2.5-.1.5-.1s.1.1.1.2c.1 0 .1.1.1.1s-.1.2-.4.4c-.3.1-.5.2-.5.1 0 0-.1 0-.1-.1z" fill="#989898"/><path d="m55 1.2c0-.1-.1-.1-.1-.2 0 0-.2-.1-.5.1s-.4.3-.4.4c0 0 0 .1.1.2z" fill="#ccc"/><path d="m53.3 3.2-.4-.5h.1z" fill="#b4b4b4"/><path d="m52.3 2.9c.1 0 .4 0 .7-.2s.5-.4.5-.5-.2-.4-.2-.5c0 0-.2-.1-.7.1-.4.2-.5.4-.5.5-.1.2.1.6.2.6z" fill="#ccc"/><path d="m53.3 2.1c-.1-.1-.1-.2-.1-.2s-.2-.1-.7.1c-.4.2-.5.4-.5.5 0 0 0 .2.1.3z" fill="#989898"/><path d="m52.3 2.7c-.1-.1-.1-.2-.1-.2 0-.1.1-.2.4-.4.4-.2.5-.1.5-.1s.1.1.1.2.1.2.1.2-.1.2-.4.4c-.3.1-.5.2-.5.1s-.1-.1-.1-.2z" fill="#989898"/><path d="m53.2 2.1c0-.1-.1-.1-.1-.2 0 0-.2-.1-.5.1s-.4.3-.4.4c0 0 0 .1.1.2z" fill="#ccc"/><path d="m51.7 4.1h-.2l-.3-.6h.2z" fill="#b4b4b4"/><path d="m50.7 3.8c.1 0 .4 0 .7-.2s.5-.4.5-.5-.2-.4-.2-.5c0 0-.2-.1-.7.1-.4.2-.5.4-.5.5-.1.1.1.5.2.6z" fill="#ccc"/><path d="m51.7 2.9c-.1-.1-.1-.2-.1-.2s-.2-.1-.7.1c-.4.2-.5.4-.5.5 0 0 0 .2.1.3z" fill="#989898"/><path d="m50.6 3.5c-.1-.1-.1-.2-.1-.2 0-.1.1-.2.4-.4.4-.2.5-.1.5-.1s.1.1.1.2.1.2.1.2-.1.2-.4.4c-.3.1-.5.2-.5.1s0-.1-.1-.2z" fill="#989898"/><path d="m51.6 3c0-.1-.1-.1-.1-.2 0 0-.2-.1-.5.1s-.4.3-.4.4c0 0 0 .1.1.2z" fill="#ccc"/><path d="m50 5-.2.1-.3-.6.2-.1z" fill="#b4b4b4"/><path d="m49 4.7c.1 0 .4 0 .7-.2s.5-.4.5-.5-.2-.4-.2-.5c0 0-.2-.1-.7.1-.4.2-.5.4-.5.5-.1.2.1.6.2.6z" fill="#ccc"/><path d="m50 3.8c-.1-.1-.1-.2-.1-.2s-.2-.1-.7.1c-.4.2-.5.4-.5.5 0 0 0 .2.1.3z" fill="#989898"/><path d="m48.9 4.4c-.1-.1-.1-.2-.1-.2 0-.1.1-.2.4-.4.4-.2.5-.1.5-.1s.1.1.1.2c.1.1.2.1.2.2 0 0-.1.2-.4.4-.3.1-.5.2-.5.1-.1 0-.1-.1-.2-.2z" fill="#989898"/><path d="m49.9 3.9c0-.1-.1-.1-.1-.2 0 0-.2-.1-.5.1s-.4.3-.4.4c0 0 0 .1.1.2z" fill="#ccc"/><path d="m48.2 5.9-.4-.5h.1z" fill="#b4b4b4"/><path d="m47.2 5.6c.1 0 .4 0 .7-.2s.5-.4.5-.5-.2-.4-.2-.5c0 0-.2-.1-.7.1-.5.4-.5.6-.5.7-.1 0 .2.4.2.4z" fill="#ccc"/><path d="m48.2 4.8c-.1-.1-.1-.2-.1-.2s-.2-.1-.7.1c-.4.2-.4.4-.4.5 0 0 0 .2.1.3z" fill="#989898"/><path d="m47.2 5.4c-.1-.1-.1-.2-.1-.2 0-.1.1-.2.4-.4.4-.2.5-.1.5-.1s.1.1.1.2.1.2.1.2-.1.2-.4.4c-.3.1-.5.2-.5.1s-.1-.1-.1-.2z" fill="#989898"/><path d="m48.1 4.8c0-.1-.1-.1-.1-.2 0 0-.2-.1-.5.1s-.4.3-.4.4c0 0 0 .1.1.2z" fill="#ccc"/><path d="m46.7 8.5s.1-.3.1-.9c0-.5-.2-.7-.1-1s2.6-1.5 5.2-2.8c2.2-1.2 4.3-2.4 5.4-2.8.7-.2 1.6-.2 2.2.5s.9 2-.3 2.9c-1.1.8-2.1 0-2.8.4-.9.6-3.1 4.9-3.7 5.1-.5.2-1.1-.4-2.1-.2s-1.9.9-1.9.9z" fill="#e4cb4d"/><path d="m46.7 8.5s.1-.3.1-.9c0-.5-.2-.7-.1-1s2.6-1.5 5.2-2.8c2.2-1.2 4.3-2.4 5.4-2.8.7-.2 1.6-.2 2.2.5l-11.8 8z" fill="#d8b628"/><path d="m46.9 8.4c0-.2.1-.4 0-.8 0-.2 0-.4-.1-.5 0-.2-.1-.3 0-.4.2-.2 1.5-.9 2.8-1.5.7-.4 1.6-.8 2.4-1.2.5-.3 1.1-.6 1.6-.8 1.6-.8 3-1.6 3.8-1.9.3-.1 1.1-.3 1.8.3l.1.1c.3.3.5.8.5 1.4-.1.4-.3.8-.7 1.1-.6.4-1.1.4-1.6.3-.4 0-.8-.1-1.1.1-.6.4-1.4 1.7-2.2 3.1-.5.8-1.2 1.9-1.4 2s-.4 0-.6-.1c-.4-.1-.8-.3-1.4-.1-.7.2-1.4.6-1.8.8z" fill="#d8b628"/><path d="m57 2.6c-.2.2-.5.1-.7-.1s-.1-.5.1-.7.5-.1.7.1.1.5-.1.7z" fill="#f3f3f3"/><path d="m55.3 3.5c-.2.2-.5.1-.7-.1s-.1-.5.1-.7.5-.1.7.1c.2.3.1.6-.1.7z" fill="#f3f3f3"/><path d="m53.7 4.4c-.2.2-.5.1-.7-.1s-.1-.5.1-.7.5-.1.7.1c.2.3.1.6-.1.7z" fill="#f3f3f3"/><path d="m52 5.4c-.2.2-.5.1-.7-.1s-.1-.5.1-.7.5-.1.7.1.1.5-.1.7z" fill="#f3f3f3"/><path d="m50.4 6.3c-.2.2-.5.1-.7-.1s-.1-.5.1-.7.5-.1.7.1c.1.2.1.5-.1.7z" fill="#f3f3f3"/><path d="m48.7 7.2c-.2.2-.5.1-.7-.1s-.1-.5.1-.7.5-.1.7.1c.2.3.1.6-.1.7z" fill="#f3f3f3"/><path d="m48.4 9.2c-.3.3-.5.5-.7.3s0-.4.3-.7.7-.3.7-.3 0 .4-.3.7z" fill="#967e32"/><path d="m47.7 9.5c-.2-.2 0-.4.3-.7s.7-.3.7-.3z" fill="#b99b38"/><path d="m50.3 6.2c-.1.1-.3.1-.4-.1-.1-.1-.1-.3.1-.4.1-.1.3-.1.4.1 0 .1 0 .3-.1.4z" fill="#b4b4b4"/><path d="m48.6 7.1c-.1.1-.3.1-.4-.1-.1-.1-.1-.3.1-.4.1-.1.3-.1.4.1.1.1.1.3-.1.4z" fill="#b4b4b4"/><path d="m51.9 5.3c-.1.1-.3.1-.4-.1-.1-.1-.1-.3.1-.4.1-.1.3-.1.4.1.1.1.1.3-.1.4z" fill="#b4b4b4"/><path d="m53.6 4.3c-.1.1-.3.1-.4-.1-.1-.1-.1-.3.1-.4.1-.1.3-.1.4.1.1.1.1.3-.1.4z" fill="#b4b4b4"/><path d="m55.2 3.4c-.1.1-.3.1-.4-.1-.1-.1-.1-.3.1-.4.1-.1.3-.1.4.1.1.1.1.3-.1.4z" fill="#b4b4b4"/><path d="m56.9 2.4c-.1.1-.3.1-.4-.1-.1-.1-.1-.3.1-.4.1-.1.3 0 .4.1s.1.3-.1.4z" fill="#b4b4b4"/><path d="m48.5 10.9-2.1-2.2.3-.3 2.1 2.2z" fill="#ccc"/><path d="m48.5 10.9-2.1-2.2.1-.1 2.1 2.1z" fill="#989898"/><path d="m25.2 34.7c-.4.1-.9-.3-1.9-1.2-.9-.9-1-1.4-.9-1.7s24-23 24-23l2 2c.1-.1-22.8 23.8-23.2 23.9z" fill="#967e32"/><path d="m23.6 33.7c-.5-.5-.9-1-1-1.3s-.1-.5-.1-.7c0-.1 6-5.9 12-11.6s12-11.4 12-11.4l1 1z" fill="#b99b38"/><g fill="#010101"><path d="m46.3 13-2.1-2.1.1-.1 2.1 2.1z"/><path d="m44.7 14.7-2.2-2.2.1-.1 2.2 2.2z"/><path d="m43.1 16.4-2.3-2.3.1-.1 2.3 2.3z"/><path d="m41.6 17.9-2.3-2.3.1-.1 2.3 2.3z"/><path d="m40.2 19.4-2.4-2.4.1-.1 2.4 2.4z"/><path d="m38.9 20.7-2.4-2.4.1-.1 2.4 2.4z"/><path d="m35.2 19.5 2.5 2.4v.1z"/><path d="m33.9 20.7 2.6 2.5-.1.1z"/><path d="m35.3 24.4-2.6-2.6.1-.1 2.6 2.6z"/><path d="m34.3 25.5-2.6-2.6v-.1l2.7 2.6z"/><path d="m33.3 26.5-2.7-2.7.1-.1 2.7 2.7z"/><path d="m32.4 27.5-2.7-2.8h.1z"/><path d="m28.7 25.6 2.8 2.7-.1.1z"/><path d="m30.6 29.3-2.8-2.8.1-.1 2.8 2.8z"/><path d="m29.9 30.1-2.8-2.8v-.1l2.9 2.8z"/><path d="m29.1 30.8-2.8-2.8.1-.1 2.8 2.8z"/><path d="m25.5 28.8 3 2.8-.1.1z"/><path d="m27.6 32.4-2.9-2.9.1-.1 2.9 2.9z"/><path d="m26.9 33.1-2.9-2.9.1-.1 2.9 2.9z"/><path d="m26.3 33.7-2.9-2.9.1-.1 2.9 2.9z"/><path d="m22.8 31.3 3 2.8-.1.1z"/></g><path d="m46.3 13-2.1-2.1.1-.1 2.1 2.1z" fill="#e6e6e5"/><path d="m44.7 14.6-2.2-2.1.1-.1z" fill="#e6e6e5"/><path d="m43.1 16.3-2.2-2.2.1-.1 2.2 2.2z" fill="#e6e6e5"/><path d="m41.7 17.8-2.3-2.3v-.1l2.3 2.3z" fill="#e6e6e5"/><path d="m40.2 19.3-2.3-2.4 2.4 2.3z" fill="#e6e6e5"/><path d="m39 20.7-2.5-2.5.1-.1 2.4 2.5z" fill="#e6e6e5"/><path d="m35.2 19.5 2.5 2.4-.1.1z" fill="#e6e6e5"/><path d="m33.9 20.7 2.6 2.5-.1.1z" fill="#e6e6e5"/><path d="m35.4 24.4-2.6-2.6.1-.1 2.5 2.6z" fill="#e6e6e5"/><path d="m31.7 22.8 2.7 2.5-.1.1z" fill="#e6e6e5"/><path d="m33.3 26.5-2.6-2.7.1-.1 2.6 2.7z" fill="#e6e6e5"/><path d="m32.4 27.4-2.7-2.7.1-.1 2.7 2.7z" fill="#e6e6e5"/><path d="m28.8 25.6 2.8 2.7-.1.1z" fill="#e6e6e5"/><path d="m30.7 29.3-2.8-2.8.1-.1 2.8 2.8z" fill="#e6e6e5"/><path d="m29.9 30-2.8-2.8.1-.1 2.8 2.9z" fill="#e6e6e5"/><path d="m29.2 30.8-2.9-2.8.1-.1 2.9 2.8z" fill="#e6e6e5"/><path d="m25.6 28.7 3 2.8-.1.1z" fill="#e6e6e5"/><path d="m27.6 32.4-2.9-2.9.1-.1 2.9 2.9z" fill="#e6e6e5"/><path d="m26.9 33.1-2.9-2.9.1-.1 2.9 2.9z" fill="#e6e6e5"/><path d="m26.3 33.7-2.9-2.9.1-.1 2.9 2.9z" fill="#e6e6e5"/><path d="m22.9 31.3 3 2.8-.1.1z" fill="#e6e6e5"/><path d="m43 14.6c-.1.1-.3.1-.4 0s-.1-.3 0-.4.3-.1.4 0 .1.3 0 .4z" fill="#eedd84"/><path d="m39.9 17.6c-.1.1-.3.1-.4 0s-.1-.3 0-.4.3-.1.4 0c.1.2.1.3 0 .4z" fill="#eedd84"/><path d="m37.3 20.2c-.1.1-.3.1-.4 0s-.1-.3 0-.4.3-.1.4 0c.1.2.1.3 0 .4z" fill="#eedd84"/><path d="m34.9 22.7c-.1.1-.3.1-.4 0s-.1-.3 0-.4.3-.1.4 0 .1.3 0 .4z" fill="#eedd84"/><path d="m32.6 26.6c-.1.1-.3.1-.4 0s-.1-.3 0-.4.3-.1.4 0 .1.3 0 .4z" fill="#eedd84"/><path d="m31 24.9c-.1.1-.3.1-.4 0s-.1-.3 0-.4.3-.1.4 0c.1.2.1.4 0 .4z" fill="#eedd84"/><path d="m29.1 28.4c-.1.1-.3.1-.4 0s-.1-.3 0-.4.3-.1.4 0c.1.2.1.3 0 .4z" fill="#eedd84"/><path d="m27.6 29.9c-.1.1-.3.1-.4 0s-.1-.3 0-.4.3-.1.4 0c.1.2.1.4 0 .4z" fill="#eedd84"/><path d="m26.1 31.5c-.1.1-.3.1-.4 0s-.1-.3 0-.4.3-.1.4 0 .1.3 0 .4z" fill="#eedd84"/><path d="m24.9 32.7c-.1.1-.3.1-.4 0s-.1-.3 0-.4.3-.1.4 0 .1.3 0 .4z" fill="#eedd84"/><path d="m17.2 44.8c-.2.2-.6.2-.9 0-.2-.2-.2-.6 0-.9.2-.2.6-.2.9 0s.3.6 0 .9z" fill="#010101"/><path d="m17.1 44.7c-.2.2-.5.2-.8 0-.2-.2-.2-.5 0-.8.2-.2.5-.2.8 0 .2.3.2.6 0 .8z" fill="#333"/><path d="m13 41c-.2.2-.6.2-.9 0-.2-.2-.2-.6 0-.9.2-.2.6-.2.9 0s.3.6 0 .9z" fill="#1a1a1a"/><path d="m13 40.9c-.2.2-.5.2-.8 0-.2-.2-.2-.5 0-.8.2-.2.5-.2.8 0 .2.3.2.6 0 .8z" fill="#4e4e4e"/><path d="m17 44.7c-.1.2-.4.1-.6-.1l-4.1-3.7c-.2-.2-.2-.5-.1-.6l.1-.1c.1-.2.4-.1.6.1l4.1 3.7c.2.2.3.4 0 .7zm-.6-1.1-.3-.3-.4.5.3.3zm-.5-.5-.3-.3-.4.5.3.3zm-.6-.5-.3-.3-.4.5.3.3zm-.5-.5-.3-.3-.4.5.3.3zm-.6-.5-.3-.3-.4.5.3.3zm-.5-.5-.3-.3-.4.5.3.3z" fill="#010101"/><path d="m15 42.1-2-1.9c-.2-.2-.5-.2-.6-.1l-.1.1c-.1.2-.1.4.1.6l2 1.9zm-2.1-.8.4-.5.3.3-.4.5zm.6.5.4-.5.3.3-.4.5zm1 .1.3.3-.4.5-.3-.3z" fill="#1a1a1a"/><path d="m12.6 40.3c.1 0 .2.1.2.2s-.1.2-.2.2-.2-.1-.2-.2.1-.2.2-.2z" fill="#818181"/><path d="m16.8 44.2c.1 0 .2.1.2.2s-.1.2-.2.2-.2-.1-.2-.2c0-.2.1-.2.2-.2z" fill="#818181"/><path d="m12.6 40.3v.4z" fill="#010101"/><path d="m16.8 44.2v.4-.4c-.1 0 0 0 0 0z" fill="#010101"/><path d="m12.9 41.1.5.3-.1.1z" fill="#ccc"/><path d="m14 41.9-.4-.4.5.4z" fill="#ccc"/><path d="m14.3 41.8.5.3-.1.1z" fill="#ccc"/><path d="m15 43.1-.5-.4.1-.1.5.4z" fill="#818181"/><path d="m15.2 43 .5.3-.1.1z" fill="#818181"/><path d="m16 43.4.5.3-.1.1z" fill="#818181"/><path d="m46.7 8.8-37.1 36.2 37.1-36.2 1.7-1.7h.1z" fill="#818181"/><path d="m47.1 9.1-36.9 36.3 36.9-36.3 3-3.1h.1z" fill="#818181"/><path d="m47.5 9.5-36.8 36.4 37-36.7 4.1-4.2v.1z" fill="#818181"/><path d="m48.5 10.6-36.3 36.9 36.3-36.9 8.4-8.4h-.1z" fill="#818181"/><path d="m48.2 10.2-36.5 36.8 36.5-36.8 7-7.1h-.1z" fill="#818181"/><path d="m47.8 9.9-36.6 36.6 36.6-36.6 5.7-5.8h-.1z" fill="#818181"/><path d="m46.7 8.7-37.2 36.3 37.2-36.3 1.7-1.7h.1z" fill="none" stroke="#898c96" stroke-miterlimit="10" stroke-width=".12"/><path d="m47.1 9.1-37 36.3 37-36.3 3-3.1h.1z" fill="none" stroke="#898c96" stroke-miterlimit="10" stroke-width=".12"/><path d="m47.4 9.5-36.8 36.4 37.1-36.8 4.1-4.1v.1z" fill="none" stroke="#898c96" stroke-miterlimit="10" stroke-width=".12"/><path d="m48.4 10.6-36.2 36.8 36.2-36.8 8.4-8.4h-.1z" fill="none" stroke="#898c96" stroke-miterlimit="10" stroke-width=".12"/><path d="m48.1 10.2-36.4 36.8 36.4-36.8 7-7.1h-.1z" fill="none" stroke="#898c96" stroke-miterlimit="10" stroke-width=".12"/><path d="m47.7 9.8-36.6 36.6 36.6-36.6 5.7-5.8h-.1z" fill="none" stroke="#898c96" stroke-miterlimit="10" stroke-width=".12"/><circle cx="17.2" cy="50.9" fill="#010101" r="1.1"/><path d="m16.4 51.7c.4.4 1.2.4 1.6 0s.4-1.2 0-1.6z" fill="#333"/><circle cx="17.2" cy="50.9" fill="#010101" r=".7"/><path d="m16.7 51.4c-.3-.3-.3-.7 0-1s.7-.3 1 0z" fill="#333"/><path d="m17.4 46.2c-.4.4-.4 1.2 0 1.6s1.2.4 1.6 0 .4-1.2 0-1.6c-.5-.5-1.2-.5-1.6 0z" fill="#010101"/><path d="m17.4 47.8c.4.4 1.2.4 1.6 0s.4-1.2 0-1.6z" fill="#333"/><path d="m18.7 47.5c-.3.3-.7.3-1 0s-.3-.7 0-1 .7-.3 1 0c.2.3.2.7 0 1z" fill="#010101"/><path d="m17.6 47.5c-.3-.3-.3-.7 0-1s.7-.3 1 0z" fill="#333"/><path d="m7.9 43.2c-.3.3-.2.5-.2.5l5.7 5.7s.2.1.5-.2c.4-.3.3-.6.3-.6l-5.7-5.7s-.3 0-.6.3z" fill="#010101"/><path d="m11.4 45.8 2.8 2.8s0 .3-.3.6c-.4.3-.5.2-.5.2l-2.8-2.8z" fill="#313131"/><path d="m13.4 49.3s.2-.1.3-.2c.2-.2.2-.3.3-.4l-5.6-5.6c-.1 0-.3.1-.4.3s-.2.3-.2.3z" fill="#222"/><path d="m11.3 45.9 2.8 2.8c0 .1-.1.2-.3.4s-.3.2-.3.2l-2.8-2.8z" fill="#010101"/><path d="m13.8 48.6c0-.2-.2-.4-.4-.4s-.4.2-.4.4.2.4.4.4.4-.2.4-.4z" fill="#4e4e4e"/><path d="m8.7 44c.2-.1.2-.4 0-.6-.1-.2-.4-.2-.6 0-.1.2-.1.4.1.6.1.2.4.2.5 0z" fill="#4e4e4e"/><path d="m13.8 48.6-.8-.1z" fill="#010101"/><path d="m8.7 44s.1 0 0 0l-.5-.6z" fill="#010101"/><path d="m25.9 38.1c.1-.1.1-.2 0-.3s-.2-.1-.3 0-.1.2 0 .3.3.1.3 0z" fill="#818181"/><path d="m25.9 38.1c.1 0 .1 0 0 0l-.3-.3z" fill="#010101"/><path d="m22.7 30.1c.1-.1.2-.1.3 0s.1.2 0 .3-.2.1-.3 0-.1-.2 0-.3z" fill="#ccc"/><path d="m22.7 30.1.3.3z" fill="#4e4e4e"/><path d="m21.2 26c.1-.1.2-.1.3 0s.1.2 0 .3-.2.1-.3 0c0-.1 0-.2 0-.3z" fill="#ccc"/><path d="m21.2 26c.1 0 .1 0 0 0l.3.3z" fill="#4e4e4e"/><path d="m18.2 30.3c.1-.1.2-.1.3 0s.1.2 0 .3-.2.1-.3 0c0-.1 0-.2 0-.3z" fill="#ccc"/><path d="m18.2 30.3s.1 0 0 0l.3.3z" fill="#4e4e4e"/><path d="m16.6 33.9c.1-.1.2-.1.3 0s.1.2 0 .3-.2.1-.3 0-.1-.3 0-.3z" fill="#ccc"/><path d="m16.6 33.9c0-.1 0-.1 0 0l.3.3z" fill="#4e4e4e"/><path d="m28.5 40c.1-.1.1-.2 0-.3s-.2-.1-.3 0-.1.2 0 .3.2.1.3 0z" fill="#818181"/><path d="m28.5 40-.3-.3.3.3c0 .1 0 .1 0 0z" fill="#010101"/><path d="m25.5 43.3c.1-.1.1-.2 0-.3s-.2-.1-.3 0-.1.2 0 .3.2.1.3 0z" fill="#818181"/><path d="m25.5 43.3-.3-.3z" fill="#010101"/><path d="m21.4 45.5c.1-.1.1-.2 0-.3s-.2-.1-.3 0-.1.2 0 .3.2.1.3 0z" fill="#818181"/><path d="m21.4 45.5-.3-.3z" fill="#010101"/><path d="m17.2 54.4c.1-.1.1-.2 0-.3 0-.1-.2-.1-.2 0-.1.1-.1.2 0 .3 0 .1.2 0 .2 0z" fill="#818181"/><path d="m17.2 54.4-.2-.3z" fill="#010101"/><path d="m16.9 45.7c.1-.1.1-.2 0-.3s-.2-.1-.3 0-.1.2 0 .3.2.1.3 0z" fill="#818181"/><path d="m16.9 45.7-.3-.3z" fill="#010101"/><path d="m13 39.2c.1-.1.2-.1.3 0s.1.2 0 .3-.2.1-.3 0-.1-.2 0-.3z" fill="#ccc"/><path d="m13 39.2.3.3z" fill="#4e4e4e"/><path d="m55.2 3.3c-.1.1-.2 0-.3 0-.1-.1 0-.2 0-.3.1-.1.2 0 .3 0 .1.1.1.2 0 .3z" fill="#ccc"/><path d="m56.9 2.3c-.1.1-.2 0-.3 0-.1-.1 0-.2 0-.3.1-.1.2 0 .3 0 .1.2.1.3 0 .3z" fill="#ccc"/><path d="m53.6 4.2c-.1.1-.2 0-.3 0-.1-.1 0-.2 0-.3.1-.1.2 0 .3 0 .1.1 0 .2 0 .3z" fill="#ccc"/><path d="m51.9 5.2c-.1.1-.2 0-.3 0-.1-.1 0-.2 0-.3.1-.1.2 0 .3 0 .1.1 0 .2 0 .3z" fill="#ccc"/><path d="m50.2 6.1c-.1.1-.2 0-.3 0-.1-.1 0-.2 0-.3.1-.1.2 0 .3 0 .1.1.1.2 0 .3z" fill="#ccc"/><path d="m48.5 7c-.1.1-.2 0-.3 0-.1-.1 0-.2 0-.3.1-.1.2 0 .3 0 .1.1.1.2 0 .3z" fill="#ccc"/></svg>