<svg enable-background="new 0 0 60 60" height="60" viewBox="0 0 60 60" width="60" xmlns="http://www.w3.org/2000/svg"><path d="m13.6 0h5.5v1.1h-5.5z" fill="#424143"/><path d="m39.7 0h5.5v1.1h-5.5z" fill="#424143"/><path d="m54 58.4c0 .9-.7 1.6-1.6 1.6h-44.8c-.9 0-1.6-.7-1.6-1.6v-55.7c0-.9.7-1.6 1.6-1.6h44.9c.9 0 1.6.7 1.6 1.6v55.7z" fill="#063e89"/><path d="m18.1 50.9h.3c.1.1.2.2.3.2.1.3-.3.8.1 1 .5 0 .2-.7.4-1 .1 0 .1 0 .2-.1.8-.2.3 1 .9 1.1.4-.2 0-.7.1-1 .1 0 .3-.1.3-.2h.3c.9.8.3 2.9-.3 3.5-.3 0-.7.1-.9-.1-.3-.3.2-.9-.2-1-.4.1-.1.4-.2.9-1.3.7-1.6-1-1.8-1.9 0-.3 0-.5 0-.8.1-.2.3-.4.5-.6z" fill="#473434"/><path d="m22.8 50.9h.4v.1c1 .5 1.4 2 1.3 3.4-.4.2-1.1.2-1.3-.2-.1-.3.1-.7-.1-1-.6.1-.1.8-.3 1.2-.3.1-.7.1-1 .1-.6-1 .2-2.9 1-3.6zm.1 1.3c.4.2.4-.6.1-.5-.1.2-.2.3-.1.5z" fill="#473434"/><path d="m24.8 50.9h.2c.4.2.5.6.9.8.5-.1.7-.6 1-.8h.2v.1c.6.6-.4 1-.6 1.5-.1.6.3 1 .2 1.8-.1 0-.1.1-.2.2-.4-.1-1.1.1-1.3-.2-.3-.7.2-.8.2-1.5-.1-.7-1.4-1.4-.6-1.9z" fill="#473434"/><path d="m29.5 50.9h.2c.4.3-.2 1.1.4 1.2.6-.1 0-.9.4-1.2h.3c.6.8.9 2.2.9 3.4-.3.2-1.3.3-1.4-.1s.4-1-.2-1.1c-.5 0-.2.8-.1 1-.2.5-1.3.5-1.5 0 .1-1.2.2-2.5 1-3.2z" fill="#473434"/><path d="m36.7 50.9h.5v.1c.5-.1.8.5.6.8-.3.3-.3-.3-.7-.2-.2.2-.3 1.3.3 1.1.1-.4-.4-.3-.2-.6 1-.2 1.2.9 1.2 1.9-.3.6-1.7.2-2.5.3-.6-.8-.1-2.9.8-3.4z" fill="#473434"/><path d="m39.9 50.9h.6c.1.1.4.1.4.3 0 .4-.5.2-.7.4.1.6.7.1.9.5.1.5-.8 0-.8.5.6.3 1.4.2 1.4 1v.6c-.4.5-2.6.5-3 0 .2-1.4.2-2.8 1.2-3.3z" fill="#473434"/><path d="m33.3 51c.3.5-.4 1.5.3 1.7.9-.1-.2-1.4.5-1.7.9.2 1.5 3 .6 3.5-.8 0-1.6.1-2.3-.1-.5-.8-.3-3.2.9-3.4z" fill="#473434"/><path d="m23.3 8c-3.3-3.2-8.6-3.2-11.9 0-3.3 3.3-2.7 8.9 1.7 11.5l.3-.6c-2-1.1-3.4-3.2-3.4-5.6 0-3.5 2.9-6.4 6.4-6.4s6.4 2.9 6.4 6.4c0 2-.9 3.8-2.4 5l1.9 2.4c4.3-3 4.2-9.4 1-12.7z" fill="#473434"/><path d="m49.1 8c-3.3-3.3-8.6-3.3-11.8 0-3.3 3.3-2.7 8.9 1.7 11.5l.3-.6c-2-1.1-3.4-3.2-3.4-5.6 0-3.5 2.9-6.4 6.4-6.4s6.4 2.9 6.4 6.4c0 2-.9 3.8-2.4 5l1.9 2.4c4.3-3 4.2-9.4.9-12.7z" fill="#473434"/><path d="m15.4 3.8c0-.1 0-.2.1-.3 0-.1.1-.1.1-.2 0 0 .1-.1.2-.1h.3c.2 0 .3.1.4.2s.2.3.2.5-.1.3-.2.5c-.1.1-.2.2-.4.2s-.3-.1-.4-.2c-.2-.3-.3-.5-.3-.6zm.3 0c0 .1 0 .2.1.3s.1.1.2.1.2 0 .2-.1c.1-.1.1-.2.1-.3s0-.2-.1-.3-.1-.1-.2-.1-.2 0-.2.1c-.1 0-.1.1-.1.3z" fill="#f2f2f2"/><path d="m16.8 3.2h.2v.6.2s0 .1.1.1h.2.2l.1-.1s0-.1 0-.2v-.6h.2v.6.3c0 .1 0 .1-.1.1l-.1.1c-.1 0-.1 0-.2 0s-.2 0-.3 0-.1-.1-.1-.1l-.1-.1c0-.1 0-.2 0-.3v-.6z" fill="#f2f2f2"/><path d="m18.4 4.3v-1h-.4v-.1h1v.2h-.4v1h-.2z" fill="#f2f2f2"/><path d="m40.7 4.3v-1.1h.3v1.2h-.3z" fill="#f2f2f2"/><path d="m41.3 4.3v-1.1h.2l.5.8v-.8h.2v1.2h-.2l-.5-.8v.8h-.2z" fill="#f2f2f2"/><path d="m14.9 2.6-1.2.3.3.2-.3.4v.9h.4v-.7l.2-.2.3.3z" fill="#f2f2f2"/><path d="m42.9 4.4 1.1-.2-.3-.3.4-.3v-1h-.5v.7l-.2.3-.3-.3z" fill="#f2f2f2"/><path d="m28.3 48.6-2.1-3.5 2.1-3.6h4.1l2 3.6-2 3.5z" fill="#e4dec4"/><path d="m32.5 48.8h-4.3l-2.2-3.7 2.1-3.7h4.3l2.1 3.7zm-4.1-.3h3.9l2-3.4-2-3.4h-3.9l-2 3.4z" fill="#bdb7a0"/><path d="m33 45.1c0 1.5-1.2 2.7-2.7 2.7s-2.7-1.2-2.7-2.7 1.2-2.7 2.7-2.7 2.7 1.2 2.7 2.7z" fill="#e4dec4"/><path d="m30.3 48c-1.6 0-2.9-1.3-2.9-2.9s1.3-2.9 2.9-2.9 2.9 1.3 2.9 2.9-1.3 2.9-2.9 2.9zm0-5.5c-1.4 0-2.6 1.1-2.6 2.5s1.1 2.5 2.6 2.5c1.4 0 2.5-1.1 2.5-2.5.1-1.3-1.1-2.5-2.5-2.5z" fill="#bdb7a0"/><path d="m12.9 11c-.3-.2-.2-.5.1-.6l7.5-3.4c.3-.1.5 0 .5.4l-.9 8.3c0 .3-.3.5-.6.3z" fill="#424143"/><path d="m19.8 16.1c-.1 0-.2 0-.4-.1l-6.7-4.9c-.2-.1-.3-.3-.3-.5s.1-.3.4-.4l7.6-3.4c.2-.1.5-.1.6.1.1.1.1.2.1.5l-.9 8.3c.1.2-.1.4-.4.4zm1-9h-.1l-7.7 3.4c-.1 0-.2.1-.2.2s0 .1.1.2l6.7 4.9c.1 0 .1.1.2.1s.1-.1.1-.2l.9-8.3c.1-.2.1-.2 0-.3z" fill="#231f20"/><path d="m20.9 16.3c-1.8 2.4-5.2 3-7.6 1.2s-3-5.2-1.2-7.6 5.2-3 7.6-1.2c2.4 1.7 3 5.1 1.2 7.6z" fill="#424143"/><path d="m16.5 18.7c-1.2 0-2.3-.4-3.3-1.1-1.2-.9-2-2.2-2.2-3.7s.1-3 1-4.2c1.1-1.4 2.7-2.3 4.5-2.3 1.2 0 2.3.4 3.3 1.1 2.5 1.8 3 5.3 1.2 7.8-1 1.5-2.7 2.4-4.5 2.4zm0-10.9c-1.7 0-3.3.8-4.3 2.2-.8 1.1-1.2 2.5-1 3.9s1 2.6 2.1 3.5c.9.7 2 1 3.1 1 1.7 0 3.3-.8 4.3-2.2 1.7-2.4 1.2-5.7-1.1-7.4-.9-.7-2-1-3.1-1z" fill="#231f20"/><path d="m30.8 6.8c0 .5-.4.9-.9.9s-.9-.4-.9-.9.4-.9.9-.9c.4-.1.9.3.9.9z" fill="#f37055"/><path d="m29.8 7.9c-.7 0-1.2-.5-1.2-1.2s.5-1.2 1.2-1.2 1.2.6 1.2 1.3-.5 1.1-1.2 1.1zm0-1.9c-.4 0-.7.3-.7.7s.3.7.7.7.7-.3.7-.7c0-.3-.3-.7-.7-.7z" fill="#424143"/><path d="m43.4 9.1c.1-.3.4-.4.6-.1l5.3 6.4c.2.3.1.5-.2.6l-8.2 1.4c-.3.1-.5-.2-.4-.5z" fill="#424143"/><path d="m40.8 17.5c-.2 0-.3-.1-.4-.2s-.1-.3 0-.5l2.9-7.8c.1-.2.3-.4.5-.4s.3.1.4.2l5.3 6.4c.1.2.2.4.1.5-.1.2-.2.3-.4.3l-8.2 1.4c-.1.1-.2.1-.2.1zm2.9-8.5c-.1 0-.1.1-.2.2l-2.9 7.8v.2s.1.1.2.1h.1l8.2-1.4c.1 0 .2-.1.2-.1s0-.1-.1-.2l-5.3-6.4c-.1-.2-.1-.2-.2-.2z" fill="#231f20"/><path d="m40.4 18.2c-2.8-1.1-4.2-4.2-3.2-7 1.1-2.8 4.2-4.2 7-3.2 2.8 1.1 4.2 4.2 3.2 7-1 2.9-4.1 4.3-7 3.2z" fill="#424143"/><path d="m42.4 18.7c-.7 0-1.3-.1-2-.4-1.4-.5-2.5-1.6-3.1-2.9-.6-1.4-.7-2.9-.1-4.3.7-2.1 2.8-3.6 5.2-3.6.7 0 1.3.1 2 .4 1.4.5 2.5 1.6 3.1 2.9.6 1.4.7 2.9.1 4.3-.8 2.2-2.9 3.6-5.2 3.6zm0-10.9c-2.2 0-4.2 1.4-5 3.4-.5 1.3-.5 2.8.1 4 .6 1.3 1.6 2.3 3 2.8.6.2 1.2.3 1.9.3 2.2 0 4.2-1.4 5-3.4 1-2.7-.4-5.8-3.1-6.8-.7-.1-1.3-.3-1.9-.3z" fill="#231f20"/><path d="m15.1 29.3c.6.6.3 2-.6 2 1 .7.7 2.6.7 4.2-.6 0-1.2 0-1.8 0-.1-1 .2-2.4-.1-3.2-1 .3-.2 2.2-.4 3.2-.6-.1-1.5.1-1.9-.1 0-2.5-.1-4.6 0-6.9 1.3-.2 3.3-.1 4.1.6zm-2.2.2v1.3c.5-.1 1-.2 1-.7-.2-.3-.3-.7-1-.6z" fill="#473434"/><path d="m18.5 28.5c.3 0 .5 0 .6.1.2.3-.4.5 0 .6-.1.6-1.2 0-1.3.6 0 .6 1.1 0 1.3.4v.4c.1.6-.8.2-1.2.3v.7c.1.3.7.1 1 .1.3.9.1 2.5.1 3.7-1 0-2 0-3.1 0 0-2.3 0-4.7 0-7 .9.1 1.7.1 2.6.1z" fill="#473434"/><path d="m19.6 35.1c.2-2.1-.4-5 .3-6.6h.3.6c.6 0 1.1.2 1.6.3.4.4 1 .8 1.2 1.5.4 1.2.3 2.6.1 4.2-.4.6-.9 1-1.6 1.2-.2 0-.5 0-.7 0-.3 0-.7 0-1 0s-.6 0-.7-.1c-.1-.2-.1-.4-.1-.5zm1.9-5.4v2c.2.7 1.3 0 1.2-.6 0-.1 0-.2 0-.3.1-.7-.7-1.4-1.2-1.1z" fill="#473434"/><path d="m29.4 35.7c-1 0-1.9 0-2.9 0-.1-2.3.2-5-.1-7h1.9v3.1c0 .4.6.3 1 .3.1.3-.2 1.1.1 1.2z" fill="#473434"/><path d="m29.9 28.7h1.8c-.1.5.1.7.1 1v.1 2c.1.3.7.1 1 .1v3.7c-.5.1-1.8-.1-2.8 0-.1-1 .2-2.3-.1-3.1.2-.6.1-.9 0-1.6 0-.2 0-.5 0-.7 0-.5 0-1 0-1.5z" fill="#473434"/><path d="m34.2 29.1c.2 0 .2-.2.1-.4h2.5c.3 2.2.8 4.1 1.2 6.3 0 .2-.1.5.1.6-.3.3-1.2.1-1.8.1 0-.2.1-.5-.1-.6v-.1c0-.2.1-.5-.1-.6 0-.1 0-.2 0-.3s0-.2 0-.3c-.4.1-1.2-.2-1.3.1-.2.2-.1.6-.1 1-.3 0-.1.5-.1.7-.6 0-.9.2-1.3-.1.4-2 .7-4.2.9-6.4zm1.4 2.1c0-.4.1-.9-.3-.9v1h-.1v.7h.6c-.2-.2.1-.8-.2-.8z" fill="#473434"/><path d="m38.5 29.1c0-.1 0-.3 0-.4h2c0 .3 0 .5.1.6.1.5.1 1.1.4 1.5 0 .5.1.8.3 1 .3-.8.5-1.7.6-2.8.1 0 .2-.1.1-.3h2c.1.2-.2.8.1.7v.9 5.4c-.5 0-1.1 0-1.6 0 0-.9 0-1.8 0-2.8-.4-.1-.3.3-.3.6-.1.5-.3 1-.4 1.5.1.4-.2.4-.1.7-.3 0-.7 0-1 0 0-.2.1-.5-.1-.6 0-.9-.4-1.4-.4-2.3-.5.3.1 1.6-.1 2.5-.2 0-.1.3-.1.4-.4 0-.9 0-1.3 0-.1-1.2.2-2.8-.1-3.8-.1-.9-.1-1.9-.1-2.8z" fill="#473434"/><path d="m45.8 28.7c.9.1 2-.2 2.6.1.3 1.8.6 3.6 1 5.4-.1.6.4 1 0 1.5-.1 0-.2 0-.3 0s-.3 0-.4 0c-.2 0-.4 0-.6 0-.5-.1-.1-1-.4-1.2v-.1c0-.3 0-.6-.1-.7-.6 0-1.5-.2-1.3.6-.1.3-.2.7-.1 1.2-.1 0-.2.1-.1.3-.4 0-.8 0-1.2 0 0-.1 0-.3 0-.4.3-2.3.7-4.4.9-6.7zm.9 3.2h.6c-.1-.6-.1-1.3-.4-1.6-.1.6-.3.9-.2 1.6z" fill="#473434"/><g fill="#f2f2f2"><path d="m13.1 22.6c-.1-.2-.2-.4-.2-.5-.1-.2-.1-.4-.2-.6h.2c0 .1.1.2.1.2 0 .1.1.2.1.2 0 .1.1.1.1.2s.1.1.1.2c0-.1.1-.1.1-.2s.1-.1.1-.2.1-.2.1-.2c0-.1.1-.2.1-.2h.2c-.1.2-.1.4-.2.6s-.2.4-.2.5z"/><path d="m15.1 22.1v.3c0 .1-.1.1-.1.2 0 0-.1.1-.2.1s-.1 0-.2 0-.1 0-.2 0-.1-.1-.2-.1c0 0-.1-.1-.1-.2s0-.2 0-.3 0-.2 0-.3.1-.1.1-.2c0 0 .1-.1.2-.1h.2.2s.1.1.2.1c0 0 .1.1.1.2-.1.1 0 .2 0 .3zm-.9 0v.2s0 .1.1.1l.1.1h.1.1s.1 0 .1-.1l.1-.1s0-.1 0-.2 0-.1 0-.2c0 0 0-.1-.1-.1l-.1-.1h-.1c-.1 0-.1 0-.1 0s-.1 0-.1.1c0 0 0 .1-.1.1z"/><path d="m16.1 22.4v.2h-.7v-1.1h.2v.9z"/><path d="m16.8 22.6c-.1 0-.1 0-.2 0s-.1-.1-.1-.1l-.1-.1c0-.1 0-.1 0-.2v-.7h.2v.7.1.1h.1.1.1.1v-.1-.1-.7h.2v.7.2c0 .1 0 .1-.1.1l-.1.1c-.1 0-.1 0-.2 0z"/><path d="m17.9 21.5s0 .1.1.1c0 .1.1.1.1.2s.1.1.1.2.1.1.1.2c0-.1.1-.1.1-.2s.1-.1.1-.2.1-.1.1-.2.1-.1.1-.1h.2v.3.3.3.3h-.2c0-.1 0-.3 0-.4s0-.3 0-.4v.1s0 .1-.1.1c0 0 0 .1-.1.1 0 0 0 .1-.1.1v.1.1h-.2v-.1-.1s0-.1-.1-.1c0 0 0-.1-.1-.1 0 0 0-.1-.1-.1v-.1.4.4h-.2c0-.1 0-.2 0-.3s0-.2 0-.3 0-.2 0-.3 0-.2 0-.3z"/><path d="m19.2 22.6v-1.1h.7v.2h-.5v.3h.5v.2h-.5v.3h.5v.2h-.7z"/><path d="m40.9 22.1v.3c0 .1-.1.1-.1.2-.1 0-.1.1-.2.1s-.2 0-.3 0c0 0-.1 0-.2 0s-.1 0-.2 0v-1.1h.2.2.3c.1 0 .1.1.2.1s.1.1.1.2zm-.7.3c0 .1 0 .1 0 0 .2 0 .3 0 .4-.1s.1-.2.1-.3 0-.2-.1-.3-.2-.1-.3-.1-.1 0-.1 0z"/><path d="m41.6 21.5c.2 0 .3 0 .4.1s.1.1.1.3-.1.3-.2.3c0 0 0 .1.1.1l.1.1.1.1s0 .1.1.1h-.2s0-.1-.1-.1c0 0 0-.1-.1-.1 0 0 0-.1-.1-.1 0 0 0-.1-.1-.1h-.1v.4h-.2v-1.1zm0 .2-.1.3h.1.1.1s0 0 .1-.1v-.1-.1s0 0-.1-.1h-.1c0 .1-.1.1-.1.1z"/><path d="m42.5 21.5h.2v1.1h-.2z"/><path d="m43.4 22.6c-.1-.2-.2-.4-.2-.5-.1-.2-.1-.4-.2-.6h.2c0 .1.1.2.1.2 0 .1.1.2.1.2 0 .1.1.1.1.2s.1.1.1.2c0-.1.1-.1.1-.2s.1-.1.1-.2.1-.2.1-.2c0-.1.1-.2.1-.2-.1.2-.1.4-.2.6s-.2.4-.2.5z"/><path d="m44.3 22.6v-1.1h.7v.2h-.5v.3h.5v.2h-.5v.3h.5v.2h-.7z"/><path d="m25.2 39.9c0 .1 0 .2-.1.3 0 .1-.1.2-.2.2-.1.1-.1.1-.2.1s-.2.1-.3.1-.2 0-.3-.1c-.1 0-.2-.1-.2-.1-.1-.1-.1-.1-.2-.2 0-.1-.1-.2-.1-.3s0-.2.1-.3c0-.1.1-.2.2-.2l.2-.2c.1 0 .2-.1.3-.1s.2 0 .3.1c.1 0 .2.1.2.2l.2.2c0 .1.1.2.1.3zm-1.2 0v.2c0 .1 0 .1.1.2l.1.1h.2.2c.1 0 .1-.1.1-.1s.1-.1.1-.2 0-.1 0-.2 0-.2 0-.2c0-.1 0-.1-.1-.2l-.1-.1c-.1 0-.1 0-.2 0s-.1 0-.2 0-.1.1-.1.1-.1.1-.1.2z"/><path d="m26 40.7c-.1-.2-.2-.5-.3-.7-.1-.3-.2-.5-.3-.8h.3c0 .1.1.2.1.3s.1.2.1.3.1.2.1.3.1.2.1.3c0-.1.1-.2.1-.3s.1-.2.1-.3.1-.2.1-.3.1-.2.1-.3h.3c-.1.3-.2.5-.3.8s-.2.5-.3.7z"/><path d="m27.3 40.7v-1.5h1v.2h-.7v.4h.6v.2h-.6v.4h.7v.2z"/><path d="m29.1 39.1c.2 0 .4 0 .5.1s.2.2.2.4-.1.3-.3.4l.1.1s.1.1.1.2.1.1.1.2.1.1.1.2h-.3c0-.1-.1-.1-.1-.2s-.1-.1-.1-.2-.1-.1-.1-.1l-.1-.1s0 0-.1 0h-.1v.6h-.3v-1.5h.2c.1-.1.2-.1.2-.1zm.1.3c-.1 0-.1 0-.2 0v.5h.1.2.1s.1 0 .1-.1v-.1-.1s0-.1-.1-.1h-.1c0-.1-.1-.1-.1-.1z"/><path d="m31.6 39.9c0 .1 0 .2-.1.3 0 .1-.1.2-.2.2-.1.1-.2.1-.3.1s-.2 0-.3 0-.1 0-.2 0-.2 0-.2 0v-1.5h.2.2.3c.1 0 .2.1.3.1l.2.2c.1.4.1.5.1.6zm-1 .5h.2c.2 0 .3 0 .4-.1s.1-.2.1-.4 0-.3-.1-.4-.2-.1-.4-.1c-.1 0-.1 0-.2 0z"/><path d="m32.5 39.1c.2 0 .4 0 .5.1s.2.2.2.4-.1.3-.3.4l.1.1s.1.1.1.2.1.1.1.2.1.1.1.2h-.3c0-.1-.1-.1-.1-.2s-.1-.1-.1-.2-.1-.1-.1-.1l-.1-.1s0 0-.1 0h-.1v.6h-.3v-1.5h.2c0-.1.1-.1.2-.1zm0 .3c-.1 0-.1 0-.2 0v.5h.1.2.1s.1 0 .1-.1v-.1-.1s0-.1-.1-.1h-.1c0-.1-.1-.1-.1-.1z"/><path d="m33.6 39.2h.3v1.5h-.3z"/><path d="m34.9 40.7c-.1-.2-.2-.5-.3-.7-.1-.3-.2-.5-.3-.8h.3c0 .1.1.2.1.3s.1.2.1.3.1.2.1.3.1.2.1.3c0-.1.1-.2.1-.3s.1-.2.1-.3.1-.2.1-.3.1-.2.1-.3h.3c-.1.3-.2.5-.3.8s-.2.5-.3.7z"/><path d="m36.1 40.7v-1.5h1v.2h-.7v.4h.6v.2h-.6v.4h.7v.2z"/><path d="m27 3.8h.3v-.3h.2v.3h.3v.2h-.3v.3h-.2v-.3h-.3z"/><path d="m28.5 3.9c-.1 0-.1 0-.2 0s-.1 0-.2 0c0 0-.1 0-.1-.1l-.1-.1v-.1-.1s0-.1.1-.1l.1-.1h.2c.1 0 .2 0 .3.1s.1.2.1.4-.1.4-.2.5-.3.2-.5.2v-.2h.2c.1 0 .1 0 .1-.1l.1-.1c.1-.1.1-.2.1-.2zm-.1-.1s.1 0 0 0h.2v-.1-.1s0-.1-.1-.1h-.1-.1s0 0-.1 0v.1.1.1z"/><path d="m29.4 4.3c-.1-.2-.2-.4-.2-.5-.1-.2-.2-.4-.2-.6h.2c0 .1.1.2.1.2 0 .1.1.2.1.2 0 .1.1.1.1.2s.1.1.1.2c0-.1.1-.1.1-.2s.1-.1.1-.2.1-.2.1-.2c0-.1.1-.2.1-.2-.1.2-.1.4-.2.6s-.2.4-.2.5z"/><path d="m31.3 3.8v.3c0 .1-.1.1-.1.2-.1 0-.1.1-.2.1s-.2 0-.3 0c0 0-.1 0-.2 0s-.1 0-.2 0v-1.1h.2.2.3c.1 0 .1.1.2.1s.1.1.1.2zm-.8.4s.1 0 0 0h.1c.1 0 .2 0 .3-.1s.2-.2.2-.3 0-.2-.1-.3-.2-.1-.3-.1-.1 0-.1 0v.8z"/><path d="m32.1 4.4c-.1 0-.2 0-.2 0-.1 0-.1-.1-.2-.1 0 0-.1-.1-.1-.2s0-.2 0-.2c0-.1 0-.2 0-.2 0-.1.1-.1.1-.2 0 0 .1-.1.2-.1h.2.1.1.1l-.1.2h-.1s-.1 0-.2 0h-.1s-.1 0-.1.1l-.1.1v.2.2s0 .1.1.1l.1.1h.2.2.1l.1.2s0 0-.1 0c0 0 0 0-.1 0h-.1c0-.2 0-.2-.1-.2z"/></g></svg>