<svg enable-background="new 0 0 60 60" height="60" viewBox="0 0 60 60" width="60" xmlns="http://www.w3.org/2000/svg"><path d="m56.6 2.7-.2.1-.2-.6.1-.1z" fill="#b4b4b4"/><path d="m55.6 2.4c.1 0 .3 0 .6-.1.3-.2.4-.4.4-.4 0-.1-.2-.4-.2-.4s-.2-.1-.6.1-.4.4-.5.4c.1 0 .3.4.3.4z" fill="#ccc"/><path d="m56.6 1.6c0-.1-.1-.2-.1-.2s-.2-.1-.6.1-.4.4-.5.4c0 0 0 .1.1.2z" fill="#989898"/><path d="m55.6 2.2c-.1-.1-.1-.2-.1-.2 0-.1.1-.2.4-.3.3-.2.5-.1.5-.1s.1.1.1.2.1.1.1.2c0 0-.1.2-.4.3-.2.1-.4.1-.5.1 0-.1-.1-.2-.1-.2z" fill="#989898"/><path d="m56.5 1.7c0-.1-.1-.1-.1-.2 0 0-.2 0-.5.1-.3.2-.4.3-.4.3s0 .1.1.2z" fill="#ccc"/><path d="m54.9 3.6-.4-.5.1-.1z" fill="#b4b4b4"/><path d="m53.9 3.3c.1 0 .3 0 .6-.1.4-.2.5-.4.5-.5s-.2-.4-.2-.4-.2-.1-.6.1-.4.4-.5.4c0 .1.2.5.2.5z" fill="#ccc"/><path d="m54.9 2.5c0-.1-.1-.2-.1-.2s-.2-.1-.6.1-.4.4-.5.4c0 0 0 .1.1.2z" fill="#989898"/><path d="m53.9 3c-.1-.1-.1-.2-.1-.2 0-.1.1-.2.4-.3.3-.2.5-.1.5-.1s.1.1.1.2.1.1.1.2c0 0-.1.2-.4.3-.2.1-.4.1-.5.1 0 0 0-.1-.1-.2z" fill="#989898"/><path d="m54.8 2.5c0-.1-.1-.1-.1-.2 0 0-.2 0-.5.1-.3.2-.4.3-.4.3s0 .1.1.2z" fill="#ccc"/><path d="m53.3 4.4-.2.1-.3-.6h.2z" fill="#b4b4b4"/><path d="m52.3 4.1c.1 0 .3 0 .6-.1.3-.2.4-.4.4-.4 0-.1-.2-.4-.2-.4s-.2-.1-.6.1-.4.4-.5.4c.1 0 .3.4.3.4z" fill="#ccc"/><path d="m53.3 3.3c0-.1-.1-.2-.1-.2s-.2-.1-.6.1-.4.4-.5.4c0 0 0 .1.1.2z" fill="#989898"/><path d="m52.3 3.9c-.1-.1-.1-.2-.1-.2 0-.1.1-.2.4-.3.3-.2.5-.1.5-.1s.1.1.1.2.1.1.1.2c0 0-.1.2-.4.3-.2 0-.4 0-.5 0 0 0-.1 0-.1-.1z" fill="#989898"/><path d="m53.2 3.4c0-.1-.1-.1-.1-.2 0 0-.2 0-.5.1-.3.2-.4.3-.4.3s0 .1.1.2z" fill="#ccc"/><path d="m51.8 5.2-.2.1-.3-.6.2-.1z" fill="#b4b4b4"/><path d="m50.8 4.9c.1 0 .3 0 .6-.1.3-.2.4-.4.4-.4 0-.1-.2-.4-.2-.4s-.2-.1-.6.1-.4.4-.5.4c.1 0 .2.4.3.4z" fill="#ccc"/><path d="m51.8 4.1c0-.1-.1-.2-.1-.2s-.2-.1-.6.1-.4.4-.5.4c0 0 0 .1.1.2z" fill="#989898"/><path d="m50.8 4.6c-.1-.1-.1-.2-.1-.2 0-.1.1-.2.4-.3.3-.2.5-.1.5-.1s.1.1.1.2.1.1.1.2c0 0-.1.2-.4.3-.2.1-.4.1-.5.1s-.1-.1-.1-.2z" fill="#989898"/><path d="m51.7 4.1c0-.1-.1-.1-.1-.2 0 0-.2 0-.5.1-.3.2-.4.3-.4.3s0 .1.1.2z" fill="#ccc"/><path d="m50.2 6-.2.1-.3-.5.2-.1z" fill="#b4b4b4"/><path d="m49.2 5.8c.1 0 .3 0 .6-.1.3-.2.4-.4.4-.4 0-.1-.2-.4-.2-.4s-.2-.1-.6.1c-.4.1-.4.2-.4.3-.1.1.1.4.2.5z" fill="#ccc"/><path d="m50.2 5c0-.1-.1-.2-.1-.2s-.2-.1-.6.1c-.5.2-.5.3-.5.4 0 0 0 .1.1.2z" fill="#989898"/><path d="m49.2 5.5c-.1-.1-.1-.2-.1-.2 0-.1.1-.2.4-.3.3-.2.5-.1.5-.1s.1.1.1.2.1.1.1.2c0 0-.1.2-.4.3-.2.1-.4.1-.5.1-.1-.1-.1-.1-.1-.2z" fill="#989898"/><path d="m50.1 5c-.1-.1-.1-.1 0 0-.1-.1-.3-.1-.6 0-.3.2-.4.3-.4.3s0 .1.1.2z" fill="#ccc"/><path d="m48.5 6.9-.2.1-.3-.6.2-.1z" fill="#b4b4b4"/><path d="m47.5 6.6c.1 0 .3 0 .6-.1.3-.2.4-.4.4-.4 0-.1-.2-.4-.2-.4s-.2-.1-.6.1-.4.4-.5.4c.1 0 .3.4.3.4z" fill="#ccc"/><path d="m48.5 5.8c0-.1-.1-.2-.1-.2s-.2-.1-.6.1-.4.4-.5.4c0 0 0 .1.1.2z" fill="#989898"/><path d="m47.5 6.4c-.1-.1-.1-.2-.1-.2 0-.1.1-.2.4-.3.3-.2.5-.1.5-.1s.1.1.1.2h.1s-.1.2-.4.3c-.2.1-.4.1-.6.1.1.1 0 0 0 0z" fill="#989898"/><path d="m48.4 5.9c0-.1-.1-.1-.1-.2 0 0-.2 0-.5.1-.3.2-.4.3-.4.3s0 .1.1.2z" fill="#ccc"/><path d="m47.1 9.3s.2-.3.2-.8c.1-.4 0-1.1.2-1.3s9.8-5.4 10.3-5.3c.2 0 0 .3.5.5.6.3 1.9-.1 1.8.2s-3.7 2.9-5.3 4.8-2.4 3.1-2.7 3.3c-.2.1-1.3 0-1.9.2-.7.2-1 .5-1 .5z" fill="#333"/><path d="m47.1 9.3s.2-.3.2-.8c.1-.4 0-1.1.2-1.3s9.8-5.4 10.3-5.3c.2 0 0 .3.5.5l-10.3 7.9z" fill="#010101"/><path d="m47.4 9.2c.1-.2.2-.4.2-.7 0-.2 0-.4 0-.6s0-.4 0-.5c.7-.5 8.7-4.8 9.9-5.2 0 .1.1.2.2.3s.1.1.2.2c.3.2.9.2 1.3.2-.2.2-.5.4-.8.6-1.2 1-3 2.5-4.1 3.7-.8.9-1.4 1.7-1.8 2.2s-.7.9-.8 1c-.1 0-.4 0-.7 0-.4 0-.8 0-1.1.1-.4.1-.7.2-.9.4z" fill="#781d77"/><path d="m13 32.9c2.6-2.1 2.4-3.2 4.1-6 1.4-2.3 4.8-6.2 6.9-4.2 1.5 1.4-3.5 3-1.6 6.6.9 1.7 2.7 1 2.7 1s-1.1 6 .5 7.6c3.3 3.1 5.6-1.4 6.6 0 .7 1.1.1 2.6-1.2 3.8-3.2 2.8-5.2 2-6.8 4.1-1.6 1.8-1.9 6.2-4.4 9.4-3.5 4.4-8 5.9-14.9-2.2-7-8.5-5.2-12-2.7-14.4 3.1-2.6 8-3.5 10.8-5.7z" fill="#333"/><path d="m13 32.9c2.6-2.1 2.4-3.2 4.1-6 1.4-2.3 4.8-6.2 6.9-4.2 1.5 1.4-3.5 3-1.6 6.6.9 1.7 2.7 1 2.7 1l-.4 3.1-19.5 19.7c-7.1-8.3-5.5-12.1-3-14.5 3.1-2.6 8-3.5 10.8-5.7z" fill="#333"/><path d="m6.9 54.5c-.6-.6-1.1-1.2-1.7-1.9-3.2-3.7-4.8-6.7-4.9-9.2-.1-2.2 1-3.6 2.1-4.6 1.6-1.4 3.7-2.2 5.8-3.1 1.9-.8 3.7-1.5 5-2.6 1.8-1.5 2.3-2.5 2.9-3.8.3-.6.6-1.4 1.2-2.3 1-1.7 3.2-4.3 5.1-4.6.5-.1 1 .1 1.4.5.3.3.2.6-.6 1.5-1 1.1-2.3 2.7-1 5 .1.2.3.5.5.6.7.7 1.6.7 2.1.6-.2 1.5-.8 5.9.7 7.3 2.2 2.1 4.1 1 5.3.3.6-.4 1-.6 1.2-.4 0 0 0 0 .1.1.7 1.1-.2 2.5-1.2 3.3-1.6 1.4-2.9 1.9-4 2.3s-2 .7-2.9 1.8c-.8.9-1.2 2.2-1.8 3.8-.6 1.8-1.3 3.9-2.7 5.6-1.8 2.2-3.5 3.3-5.4 3.4-2.1.3-4.5-1-7.2-3.6z" fill="#781d77"/><path d="m24.5 33.8c0-1.3.2-2.4.3-3-.5.1-1.4.1-2.1-.6-.2-.2-.3-.4-.5-.6-1.3-2.3.1-3.9 1-5 .8-.9.9-1.2.6-1.5-.4-.4-.9-.5-1.4-.5-1.8.2-4 2.9-5.1 4.6-.5.9-.9 1.6-1.2 2.3-.6 1.3-1.1 2.4-2.9 3.8-1.3 1.1-3.1 1.8-5 2.6-2.1.9-4.2 1.8-5.8 3.1-1.1 1.1-2.2 2.4-2.1 4.6.1 2.4 1.7 5.4 4.9 9.2l.2.2z" fill="#781d77"/><path d="m7.9 54.1c-.5-.5-1-1.2-1.6-1.9-3-3.5-4-6.8-4.1-8.8-.1-1.4.5-2.3 1.5-3.2 1.3-1.1 3.3-2 5.3-2.7 2-.8 4-1.6 5.5-2.8 2.2-1.7 3-3.1 3.3-4.6 1.2-5.2 5.2-6.8 5.2-6.8s-4.2 3.4-1.9 7c1.1 1.6 3 .8 3.2.9-.1 1.1-.5 3.7 0 5.7 1.5 6.1 6.5 1.7 7.2 2s-1.4 3.2-4.4 4c-1.2.3-2.5.9-3.7 2.4-1 1.2-1.5 2.7-2 4.4-.6 1.8-1.2 3.6-2.4 5-1.4 1.8-3.7 2.9-5 2.9-1.6 0-3.8-1.2-6.1-3.5z" fill="#781d77"/><path d="m23.6 37.5c-.4.1-1-.3-1.9-1.2-.9-1-1-1.4-.9-1.8.1-.3 26.2-25.2 26.2-25.2l2 2c.1 0-25 26.1-25.4 26.2z" fill="#4b1212"/><path d="m21.9 36.4c-.9-1-1.2-1.3-1-1.9.1-.3 26.2-25.2 26.2-25.2l1 1z" fill="#6f2e2e"/><path d="m56.8 3.8c-.2.1-.5.1-.6-.1-.2-.2-.2-.5 0-.6s.5-.1.6.1c.2.2.2.4 0 .6z" fill="#f3f3f3"/><path d="m55.2 4.7c-.2.1-.5.1-.6-.1s-.1-.5.1-.6.5-.1.6.1.1.4-.1.6z" fill="#f3f3f3"/><path d="m53.7 5.5c-.2.1-.5.1-.6-.1s-.1-.5.1-.6.5-.1.6.1.1.5-.1.6z" fill="#f3f3f3"/><path d="m52.1 6.4c-.2.1-.5.1-.6-.1s-.1-.5.1-.6.5-.1.6.1.1.5-.1.6z" fill="#f3f3f3"/><path d="m50.5 7.3c-.2.1-.5.1-.6-.1-.2-.2-.1-.5.1-.6s.5-.1.6.1.1.4-.1.6z" fill="#f3f3f3"/><path d="m49 8.2c-.2.1-.5.1-.6-.1s-.1-.5.1-.6.5-.1.6.1c.1.1.1.4-.1.6z" fill="#f3f3f3"/><path d="m48.6 11.8-2-2.1.1-.1 2.1 2z" fill="#fff"/><path d="m44.6 11.7 2.2 2-.1.1z" fill="#4d4d4d"/><path d="m44.9 15.6-2.2-2.2h.1l2.2 2.1z" fill="#4d4d4d"/><path d="m43.1 17.5-2.2-2.3.1-.1 2.2 2.3z" fill="#4d4d4d"/><path d="m39.2 16.7 2.4 2.3-.1.1z" fill="#4d4d4d"/><path d="m37.6 18.3 2.5 2.3-.1.1z" fill="#4d4d4d"/><path d="m36.1 19.8 2.5 2.4-.1.1z" fill="#4d4d4d"/><path d="m34.6 21.1 2.6 2.5-.1.1z" fill="#4d4d4d"/><path d="m33.3 22.4 2.7 2.5-.1.1z" fill="#4d4d4d"/><path d="m34.6 26.3-2.6-2.7.1-.1 2.6 2.7z" fill="#4d4d4d"/><path d="m33.5 27.4-2.6-2.7v-.1l2.7 2.7z" fill="#4d4d4d"/><path d="m32.4 28.5-2.7-2.7.1-.1 2.7 2.7z" fill="#4d4d4d"/><path d="m31.4 29.6-2.7-2.8.1-.1 2.7 2.8z" fill="#4d4d4d"/><path d="m27.7 27.8 2.8 2.7-.1.1z" fill="#4d4d4d"/><path d="m29.5 31.6-2.8-2.9.1-.1 2.8 2.9z" fill="#4d4d4d"/><path d="m28.7 32.4-2.9-2.8.1-.1 2.9 2.8z" fill="#4d4d4d"/><path d="m27.9 33.2-2.9-2.8.1-.1 2.9 2.8z" fill="#4d4d4d"/><path d="m24.1 31.1 3 2.8-.1.1z" fill="#4d4d4d"/><path d="m26.2 34.9-2.9-2.9.1-.1 2.9 2.9z" fill="#4d4d4d"/><path d="m25.4 35.7-2.9-2.9.1-.1 2.9 2.9z" fill="#4d4d4d"/><path d="m24.8 36.4-3-3 .1-.1 3 3z" fill="#4d4d4d"/><path d="m21.2 34 3 2.9v.1z" fill="#4d4d4d"/><g fill="#ccc"><path d="m44.6 11.7 2.2 2-.1.1z"/><path d="m44.9 15.6-2.2-2.2.1-.1 2.2 2.2z"/><path d="m40.9 15.1 2.3 2.2-.1.1z"/><path d="m39.2 16.7 2.4 2.3-.1.1z"/><path d="m37.6 18.3 2.5 2.3-.1.1z"/><path d="m38.6 22.2-2.5-2.5.1-.1 2.5 2.5z"/><path d="m37.2 23.6-2.5-2.5.1-.1 2.5 2.5z"/><path d="m35.9 24.9-2.6-2.5.1-.1 2.6 2.5z"/><path d="m34.7 26.2-2.6-2.6.1-.1 2.6 2.6z"/><path d="m33.6 27.4-2.7-2.7.1-.1 2.7 2.7z"/><path d="m32.5 28.5-2.7-2.7.1-.1 2.7 2.7z"/><path d="m31.5 29.5-2.8-2.7.1-.1 2.8 2.7z"/><path d="m30.5 30.6-2.8-2.8.1-.1 2.8 2.8z"/><path d="m29.6 31.5-2.9-2.8.1-.1 2.8 2.8z"/><path d="m28.7 32.4-2.8-2.9.1-.1 2.8 2.9z"/><path d="m27.9 33.2-2.9-2.9.1-.1 2.9 2.9z"/><path d="m24.2 31.2 3 2.8-.1.1z"/><path d="m26.2 34.9-2.9-2.9.1-.1 2.9 2.9z"/><path d="m25.5 35.7-3-2.9.1-.1 3 2.9z"/><path d="m21.8 33.4 3 2.9-.1.1z"/><path d="m21.3 34 3 2.9v.1z"/></g><path d="m43.1 15.6c-.1.1-.3.1-.4 0s-.1-.3 0-.4.3-.1.4 0 .1.3 0 .4z" fill="#eedd84"/><path d="m39.8 18.9c-.1.1-.3.1-.4 0s-.1-.3 0-.4.3-.1.4 0 .1.3 0 .4z" fill="#eedd84"/><path d="m36.9 21.8c-.1.1-.3.1-.4 0s-.1-.3 0-.4.3-.1.4 0 .1.3 0 .4z" fill="#eedd84"/><path d="m34.2 24.4c-.1.1-.3.1-.4 0s-.1-.3 0-.4.3-.1.4 0c.1.2.1.3 0 .4z" fill="#eedd84"/><path d="m31.7 28.6c-.1.1-.3.1-.4 0s-.1-.3 0-.4.3-.1.4 0c.1.2.1.3 0 .4z" fill="#eedd84"/><path d="m30 27c-.1.1-.3.1-.4 0s-.1-.3 0-.4.3-.1.4 0 .1.3 0 .4z" fill="#eedd84"/><path d="m28 30.7c-.1.1-.3.1-.4 0s-.1-.3 0-.4.3-.1.4 0 .1.3 0 .4z" fill="#eedd84"/><path d="m26.3 32.4c-.1.1-.3.1-.4 0s-.1-.3 0-.4.3-.1.4 0 .1.3 0 .4z" fill="#eedd84"/><path d="m24.6 34c-.1.1-.3.1-.4 0s-.1-.3 0-.4.3-.1.4 0c.1.2.1.3 0 .4z" fill="#eedd84"/><path d="m23.3 35.3c-.1.1-.3.1-.4 0s-.1-.3 0-.4.3-.1.4 0c.1.2.1.3 0 .4z" fill="#eedd84"/><path d="m50.4 7.1c-.1.1-.3.1-.4-.1-.1-.1-.1-.3.1-.4.1-.1.3-.1.4.1s0 .4-.1.4z" fill="#b4b4b4"/><path d="m48.9 8c-.1.1-.3.1-.4-.1-.1-.1-.1-.3.1-.4.1-.1.3-.1.4.1 0 .2 0 .3-.1.4z" fill="#b4b4b4"/><path d="m52 6.3c-.1.1-.3.1-.4-.1-.1-.1-.1-.3.1-.4.1-.1.3 0 .3.1.1.1.1.3 0 .4z" fill="#b4b4b4"/><path d="m53.6 5.4c-.1.1-.3.1-.4-.1-.1-.1-.1-.3.1-.4.1-.1.3-.1.4.1 0 .1 0 .3-.1.4z" fill="#b4b4b4"/><path d="m55.1 4.6c-.1.1-.3.1-.4-.1-.1-.1-.1-.3.1-.4.1-.1.2-.1.3 0 .1.2.1.4 0 .5z" fill="#b4b4b4"/><path d="m56.7 3.7c-.1.1-.3.1-.4-.1-.1-.1-.1-.3.1-.4.1-.1.3-.1.4.1 0 .1 0 .3-.1.4z" fill="#b4b4b4"/><circle cx="15.6" cy="55.1" fill="#010101" r="1"/><path d="m14.9 55.8c.4.4 1 .4 1.4 0s.4-1 0-1.4z" fill="#333"/><path d="m16 55.5c-.3.3-.7.3-.9 0-.3-.3-.3-.7 0-.9.3-.3.7-.3.9 0 .3.3.3.7 0 .9z" fill="#010101"/><path d="m15.1 55.5c-.3-.3-.3-.7 0-.9.3-.3.7-.3.9 0z" fill="#333"/><path d="m17.5 49.6c-.4.4-.4 1 0 1.4s1 .4 1.4 0 .4-1 0-1.4c-.3-.4-1-.4-1.4 0z" fill="#010101"/><path d="m17.5 51.1c.4.4 1 .4 1.4 0s.4-1 0-1.4z" fill="#333"/><path d="m18.7 50.8c-.3.3-.7.3-.9 0-.3-.3-.3-.7 0-.9.3-.3.7-.3.9 0s.2.7 0 .9z" fill="#010101"/><path d="m17.8 50.8c-.3-.3-.3-.7 0-.9.3-.3.7-.3.9 0z" fill="#333"/><path d="m24.6 38.5c.1-.1.1-.2 0-.3l-4.6-4.6c-.1-.1-.2 0-.3 0l-2.2 2.2c-.1.1-.1.2 0 .3l4.6 4.6c.1.1.2 0 .3 0z" fill="#333"/><path d="m22.3 35.9-2.3-2.3h-.1c-.1 0-.1 0-.1.1l-2.2 2.2-.1.1v.1l2.3 2.3z" fill="#010101"/><path d="m24.4 38.5c.1-.1.1-.2 0-.3l-4.4-4.5c-.1-.1-.2-.1-.3 0l-2.1 2.1c-.1.1-.1.2 0 .3l4.5 4.5c.1.1.2.1.3 0z"/><path d="m22.2 36-2.2-2.3-.1-.1s-.1 0-.1.1l-1.1 1.1-1.1 1.1-.1.1s0 .1.1.1l2.2 2.2z" fill="#333"/><path d="m23.9 38.2c.1-.1.1-.2 0-.2l-3.7-3.7c-.1-.1-.2 0-.2 0l-1.8 1.8c-.1.1-.1.2 0 .2l3.7 3.7c.1.1.2 0 .2 0z" fill="#333"/><path d="m22.1 36.1-1.8-1.8h-.1s-.1 0-.1.1l-1.8 1.8-.1.1v.1l1.8 1.8z" fill="#010101"/><path d="m23.8 38.2c.1-.1.1-.1 0-.2l-3.6-3.6c-.1-.1-.1-.1-.2 0l-1.7 1.7c-.1.1-.1.1 0 .2l3.6 3.6c.1.1.1.1.2 0z" fill="#010101"/><path d="m22 36.2-1.8-1.8h-.1-.1l-.8.8-.8.8v.1.1l1.8 1.8z" fill="#333"/><path d="m18.1 35.9c0-.1-.1-.2-.2-.2s-.2.1-.2.2.1.2.2.2.2-.1.2-.2z" fill="#818181"/><path d="m20 34.1c.1-.1.1-.2 0-.2-.1-.1-.2-.1-.2 0-.1.1-.1.2 0 .2 0 .1.1.1.2 0z" fill="#818181"/><path d="m19 35.2c.1 0 .2-.1.2-.2s-.1-.2-.2-.2-.2.1-.2.2.1.2.2.2z" fill="#818181"/><path d="m24.1 38.2c.1-.1.2-.1.2 0 .1.1.1.2 0 .2-.1.1-.2.1-.2 0-.1 0-.1-.1 0-.2z" fill="#333"/><path d="m23 39.2c0-.1.1-.2.2-.2s.2.1.2.2-.1.2-.2.2-.2-.1-.2-.2z" fill="#333"/><path d="m22.2 40.1c.1 0 .2.1.2.2s-.1.2-.2.2-.2-.1-.2-.2.1-.2.2-.2z" fill="#333"/><path d="m18.1 35.9h-.4.4c0 .1 0 .1 0 0z" fill="#010101"/><path d="m20 34.1-.2-.3z" fill="#010101"/><path d="m19 35.2v-.3z" fill="#010101"/><path d="m24.1 38.2.3.2z" fill="#010101"/><path d="m23 39.2h.3z" fill="#010101"/><path d="m22.2 40.1v.3z" fill="#010101"/><path d="m22.1 39.8c-.1.1-.1.1-.2 0l-3.5-3.5c-.1-.1-.1-.1 0-.2l1.6-1.6c.1-.1.1-.1.2 0l3.5 3.5c.1.1.1.1 0 .2z" fill="#adadad"/><path d="m20.1 38.1-1.7-1.7v-.1-.1l.8-.8.8-.8h.1.1l1.7 1.7z" fill="#8b8a8b"/><path d="m22 39.6s-.1 0-.2 0l-3.2-3.2s-.1-.1 0-.2l1.4-1.4h.2l3.2 3.2s.1.1 0 .2z" fill="#c9c9c9"/><path d="m20.2 35.5c-.1 0-.2-.1-.2-.2s.1-.2.2-.2.2.1.2.2c-.1.1-.1.2-.2.2z" fill="#b0b0b0"/><path d="m20.6 36c-.1-.1-.1-.2 0-.3s.2-.1.3 0 .1.2 0 .3c-.1 0-.3 0-.3 0z" fill="#b0b0b0"/><path d="m23.1 38.2c-.1.1-.2.1-.3 0s-.1-.2 0-.3.2-.1.3 0z" fill="#b0b0b0"/><path d="m22.4 37.7c-.1 0-.2-.1-.2-.2s.1-.2.2-.2.2.1.2.2-.1.2-.2.2z" fill="#b0b0b0"/><ellipse cx="21.9" cy="37" fill="#b0b0b0" rx=".2" ry=".2"/><path d="m21.3 36.6c-.1 0-.2-.1-.2-.2s.1-.2.2-.2.2.1.2.2-.1.2-.2.2z" fill="#b0b0b0"/><path d="m20.2 35.5v-.4z" fill="#8b8a8b"/><path d="m20.6 36c0-.1 0-.1 0 0l.2-.3z" fill="#8b8a8b"/><path d="m23.1 38.2c-.1 0-.1 0 0 0l-.3-.2z" fill="#8b8a8b"/><path d="m22.4 37.7v-.4z" fill="#8b8a8b"/><path d="m21.7 37h.4z" fill="#8b8a8b"/><path d="m21.3 36.6v-.4z" fill="#8b8a8b"/><path d="m19.4 43.7c.1-.1.1-.2 0-.3l-4.6-4.6c-.1-.1-.2 0-.3 0l-2.2 2.2c-.1.1-.1.2 0 .3l4.6 4.6c.1.1.2 0 .3 0z" fill="#333"/><path d="m17.1 41.1-2.3-2.3h-.1c-.1 0-.1 0-.1.1l-2.3 2.1-.1.1v.1l2.3 2.3z" fill="#010101"/><path d="m19.3 43.6c.1-.1.1-.2 0-.3l-4.5-4.5c-.1-.1-.2-.1-.3 0l-2 2.2c-.1.1-.1.2 0 .3l4.5 4.5c.1.1.2.1.3 0z"/><path d="m17 41.1-2.2-2.2-.1-.1s-.1 0-.1.1l-1.1 1.1-1 1-.1.1s0 .1.1.1l2.2 2.2z" fill="#333"/><path d="m18.7 43.4c.1-.1.1-.2 0-.2l-3.7-3.7c-.1-.1-.2 0-.2 0l-1.8 1.8c-.1.1-.1.2 0 .2l3.7 3.7c.1.1.2 0 .2 0z" fill="#333"/><path d="m16.9 41.3-1.9-1.8h-.1s-.1 0-.1.1l-1.8 1.7-.1.1v.1l1.8 1.8z" fill="#010101"/><path d="m18.6 43.4c.1-.1.1-.1 0-.2l-3.6-3.6c-.1-.1-.1-.1-.2 0l-1.7 1.7c-.1.1-.1.1 0 .2l3.6 3.6c.1.1.1.1.2 0z" fill="#010101"/><path d="m16.8 41.4-1.8-1.8h-.1-.1l-.8.8-.8.8v.1.1l1.8 1.8z" fill="#333"/><path d="m12.9 41.1c0-.1-.1-.2-.2-.2s-.2.1-.2.2.1.2.2.2.2-.1.2-.2z" fill="#818181"/><path d="m14.8 39.3c.1-.1.1-.2 0-.2-.1-.1-.2-.1-.2 0-.1.1-.1.2 0 .2z" fill="#818181"/><path d="m13.8 40.4c.1 0 .2-.1.2-.2s-.1-.2-.2-.2-.2.1-.2.2.1.2.2.2z" fill="#818181"/><path d="m18.9 43.4c.1-.1.2-.1.2 0 .1.1.1.2 0 .2-.1.1-.2.1-.2 0-.1 0-.1-.2 0-.2z" fill="#333"/><path d="m17.8 44.4c0-.1.1-.2.2-.2s.2.1.2.2-.1.2-.2.2c-.1-.1-.2-.1-.2-.2z" fill="#333"/><path d="m17 45.3c.1 0 .2.1.2.2s-.1.2-.2.2-.2-.1-.2-.2c.1-.1.1-.2.2-.2z" fill="#333"/><path d="m12.9 41.1h-.4z" fill="#010101"/><path d="m14.8 39.3-.2-.3z" fill="#010101"/><path d="m13.8 40.4v-.3z" fill="#010101"/><path d="m18.9 43.4.3.2z" fill="#010101"/><path d="m17.8 44.4h.3z" fill="#010101"/><path d="m17 45.3c.1 0 .1 0 0 0v.3z" fill="#010101"/><path d="m16.9 45c-.1.1-.1.1-.2 0l-3.5-3.5c-.1-.1-.1-.1 0-.2l1.6-1.6c.1-.1.1-.1.2 0l3.5 3.5c.1.1.1.1 0 .2z" fill="#adadad"/><path d="m15 43.2-1.7-1.7v-.1-.1l.8-.8.8-.8h.1.1l1.7 1.7z" fill="#8b8a8b"/><path d="m16.9 44.7s-.1 0-.2 0l-3.2-3.2s-.1-.1 0-.2l1.4-1.4h.2l3.2 3.2s.1.1 0 .2z" fill="#c9c9c9"/><path d="m15 40.6c-.1 0-.2-.1-.2-.2s.1-.2.2-.2.2.1.2.2c0 .2-.1.2-.2.2z" fill="#b0b0b0"/><path d="m15.4 41.1c-.1-.1-.1-.2 0-.3s.2-.1.3 0 .1.2 0 .3-.2.1-.3 0z" fill="#b0b0b0"/><path d="m17.9 43.4c-.1.1-.2.1-.3 0s-.1-.2 0-.3.2-.1.3 0 .1.2 0 .3z" fill="#b0b0b0"/><path d="m17.2 42.9c-.1 0-.2-.1-.2-.2s.1-.2.2-.2.2.1.2.2-.1.2-.2.2z" fill="#b0b0b0"/><path d="m16.5 42.2c0-.1.1-.2.2-.2s.2.1.2.2-.1.2-.2.2c-.1-.1-.2-.1-.2-.2z" fill="#b0b0b0"/><path d="m16.1 41.8c-.1 0-.2-.1-.2-.2s.1-.2.2-.2.2.1.2.2-.1.2-.2.2z" fill="#b0b0b0"/><path d="m15 40.6v-.4z" fill="#8b8a8b"/><path d="m15.4 41.1.2-.3z" fill="#8b8a8b"/><path d="m17.9 43.4-.3-.2.3.2c0-.1 0 0 0 0z" fill="#8b8a8b"/><path d="m17.2 42.9v-.4z" fill="#8b8a8b"/><path d="m16.5 42.1h.4-.4c0 .1 0 .1 0 0z" fill="#8b8a8b"/><path d="m16.1 41.8v-.4z" fill="#8b8a8b"/><path d="m9.6 46.1c0 .1-.1.1-.1.1-.1 0-.1-.1-.1-.1 0-.1.1-.1.1-.1z" fill="#010101"/><path d="m10.1 46.6c0 .1-.1.1-.1.1-.1 0-.1-.1-.1-.1 0-.1.1-.1.1-.1.1 0 .1.1.1.1z" fill="#010101"/><path d="m10.6 47.2c0 .1-.1.1-.1.1-.1 0-.1-.1-.1-.1 0-.1.1-.1.1-.1.1-.1.1 0 .1.1z" fill="#010101"/><path d="m11.2 47.7c0 .1-.1.1-.1.1-.1 0-.1-.1-.1-.1 0-.1.1-.1.1-.1s.1 0 .1.1z" fill="#333"/><path d="m11.7 48.3c0 .1-.1.1-.1.1-.1 0-.1-.1-.1-.1 0-.1.1-.1.1-.1.1 0 .1 0 .1.1z" fill="#333"/><path d="m12.2 48.8c0 .1-.1.1-.1.1-.1 0-.1-.1-.1-.1 0-.1.1-.1.1-.1.1-.1.1 0 .1.1z" fill="#333"/><path d="m13 49.2c-.1.1-.3.1-.4 0l-3.5-3.5c-.1-.1-.1-.3 0-.4l1.9-1.9c.1-.1.3-.1.4 0l3.5 3.5c.1.1.1.3 0 .4z" fill="#333"/><path d="m10.8 47.4-1.7-1.8c-.1 0-.1-.1-.1-.1 0-.1 0-.2.1-.2l.9-.9.9-.9c.1-.1.1-.1.2-.1s.2 0 .2.1l1.7 1.8z"/><path d="m9.2 45.6c-.1-.1-.1-.2 0-.2l1.9-1.9c.1-.1.2-.1.2 0l3.5 3.5v.1.1l-1.9 1.9c-.1.1-.2.1-.2 0z"/><path d="m9.2 45.6v-.2l.9-.9.9-.9h.1.1l1.7 1.8-2.1 2.1z" fill="#333"/><path d="m12.1 44.6c0 .1-.1.2-.2.2s-.2-.1-.2-.2.1-.2.2-.2c.2 0 .2.1.2.2z" fill="#010101"/><path d="m12.1 44.6c0 .1-.1.1-.1.1-.1 0-.1-.1-.1-.1 0-.1.1-.1.1-.1z" fill="#333"/><path d="m11.6 44.1c0 .1-.1.2-.2.2s-.2-.1-.2-.2.1-.2.2-.2c.2 0 .2.1.2.2z" fill="#010101"/><path d="m11.6 44.1c0 .1-.1.1-.1.1-.1 0-.1-.1-.1-.1 0-.1.1-.1.1-.1z" fill="#333"/><path d="m12.7 45.1c0 .1-.1.2-.2.2s-.2-.1-.2-.2.1-.2.2-.2.2.1.2.2z" fill="#010101"/><path d="m12.6 45.1c0 .1-.1.1-.1.1-.1 0-.1-.1-.1-.1 0-.1.1-.1.1-.1.1 0 .1.1.1.1z" fill="#333"/><path d="m13.2 45.7c0 .1-.1.2-.2.2s-.2-.1-.2-.2.1-.2.2-.2.2.1.2.2z" fill="#333"/><path d="m13.1 45.7c0 .1-.1.1-.1.1-.1 0-.1-.1-.1-.1 0-.1.1-.1.1-.1.1 0 .1 0 .1.1z" fill="#010101"/><path d="m13.8 46.2c0 .1-.1.2-.2.2s-.2-.1-.2-.2.1-.2.2-.2c.1.1.2.1.2.2z" fill="#333"/><path d="m13.7 46.2c0 .1-.1.1-.1.1-.1 0-.1-.1-.1-.1 0-.1.1-.1.1-.1.1 0 .1.1.1.1z" fill="#010101"/><path d="m14.3 46.8c0 .1-.1.2-.2.2s-.2-.1-.2-.2.1-.2.2-.2.2.1.2.2z" fill="#333"/><path d="m14.2 46.8c0 .1-.1.1-.1.1-.1 0-.1-.1-.1-.1 0-.1.1-.1.1-.1.1 0 .1 0 .1.1z" fill="#010101"/><path d="m10.4 45.6-.4-.4.7-.7.4.4z" fill="#1a1a1a"/><path d="m10.9 46-.4-.4.8-.7.4.4z" fill="#1a1a1a"/><path d="m11 46.2.7-.7.4.4-.7.7z" fill="#1a1a1a"/><path d="m12.1 47.1-.4-.4.7-.7.4.4z" fill="#1a1a1a"/><path d="m12.6 47.7-.4-.4.8-.8.4.4z" fill="#1a1a1a"/><path d="m13.2 48.2-.4-.4.7-.7.4.4z" fill="#1a1a1a"/><path d="m11.8 45.4.2-.2.4.4-.2.2z" fill="#010101"/><path d="m12.4 46 .2-.2.4.4-.2.2z" fill="#333"/><path d="m12.9 46.5.2-.2.4.4-.2.2z" fill="#333"/><path d="m13.5 47.1.2-.2.4.4-.2.2z" fill="#333"/><path d="m10.7 44.5.2-.2.4.4-.2.2z" fill="#010101"/><path d="m11.2 44.9.2-.2.4.4-.2.2z" fill="#010101"/><path d="m10.4 45.4c-.1.1-.2 0-.2 0-.1-.1 0-.2 0-.2l.3-.3c.1-.1.2 0 .2 0 .1.1 0 .2 0 .2z" fill="#333"/><path d="m11 45.8c-.1.1-.2 0-.2 0-.1-.1 0-.2 0-.2l.3-.3c.1-.1.2 0 .2 0 .1.1 0 .2 0 .2z" fill="#333"/><path d="m11.5 46.3c-.1.1-.2 0-.2 0-.1-.1 0-.2 0-.2l.3-.3c.1-.1.2 0 .2 0 .1.1 0 .2 0 .2z" fill="#333"/><path d="m12.1 46.9c-.1.1-.2 0-.2 0-.1-.1 0-.2 0-.2l.3-.3c.1-.1.2 0 .2 0 .1.1 0 .2 0 .2z" fill="#333"/><path d="m12.7 47.4c-.1.1-.2 0-.2 0-.1-.1 0-.2 0-.2l.3-.3c.1-.1.2 0 .2 0 .1.1 0 .2 0 .2z" fill="#333"/><path d="m13.2 47.9c-.1.1-.2 0-.2 0-.1-.1 0-.2 0-.2l.3-.3c.1-.1.2 0 .2 0 .1.1 0 .2 0 .2z" fill="#333"/><path d="m10.9 46.4.2-.2.4.4-.2.2z" fill="#010101"/><path d="m11.4 46.9.2-.2.4.4-.2.2z" fill="#333"/><path d="m12 47.5.2-.2.4.4-.2.3z" fill="#333"/><path d="m12.5 48 .2-.2.4.4-.1.2z" fill="#333"/><path d="m9.8 45.5.2-.2.4.4-.2.2z" fill="#010101"/><path d="m10.3 45.9.2-.2.4.4-.2.2z" fill="#010101"/><path d="m10.5 45.3c0 .1 0 .1-.1.1s-.1 0-.1-.1 0-.1.1-.1c0 0 .1 0 .1.1z" fill="#010101"/><path d="m11 45.7c0 .1 0 .1-.1.1s-.1-.1-.1-.1c0-.1.1-.1.1-.1s.1 0 .1.1z" fill="#010101"/><path d="m11.5 46.2c0 .1 0 .1-.1.1s-.1 0-.1-.1.1-.1.1-.1c.1 0 .1.1.1.1z" fill="#010101"/><path d="m12.1 46.8c0 .1 0 .1-.1.1s-.1-.1-.1-.1c0-.1.1-.1.1-.1.1-.1.1 0 .1.1z" fill="#010101"/><path d="m12.7 47.3c0 .1 0 .1-.1.1s-.1-.1-.1-.1c0-.1 0-.1.1-.1 0 0 .1 0 .1.1z" fill="#010101"/><path d="m13.2 47.8c0 .1 0 .1-.1.1s-.1 0-.1-.1.1-.1.1-.1c.1 0 .1.1.1.1z" fill="#010101"/><path d="m46.8 9.8-36.4 35.5 36.4-35.5 1.9-1.7h.1z" fill="#333"/><path d="m47.2 10.2-36.2 35.5 36.2-35.5 3-3h.1z" fill="#333"/><path d="m47.6 10.5-36.1 35.7 36.1-35.7 4.2-4.2h.1z" fill="#333"/><path d="m48.6 11.6-35.5 36.2 35.5-36.2 8-7.9h-.1z" fill="#333"/><path d="m48.3 11.3-35.6 36 35.6-36 6.8-6.7h-.1z" fill="#333"/><path d="m47.9 10.9-35.9 35.9 35.9-35.9 5.6-5.5h-.1z" fill="#333"/><path d="m46.8 9.7-36.4 35.6 36.4-35.6 1.9-1.7h.1z" fill="none" stroke="#dbdada" stroke-miterlimit="10" stroke-width=".1"/><path d="m47.2 10.1-36.3 35.6 36.3-35.6 3-3h.1z" fill="none" stroke="#dbdada" stroke-miterlimit="10" stroke-width=".1"/><path d="m47.5 10.5-36 35.7 36-35.7 4.2-4.2h.1z" fill="none" stroke="#dbdada" stroke-miterlimit="10" stroke-width=".1"/><path d="m48.6 11.6-35.5 36.1 35.5-36.1 8-7.9h-.1z" fill="none" stroke="#fff" stroke-miterlimit="10" stroke-width=".1"/><path d="m48.2 11.2-35.6 36 35.6-36 6.8-6.7h-.1z" fill="none" stroke="#fff" stroke-miterlimit="10" stroke-width=".1"/><path d="m47.9 10.9-35.9 35.8 35.9-35.8 5.6-5.5h-.1z" fill="none" stroke="#fff" stroke-miterlimit="10" stroke-width=".1"/><path d="m50.3 7.1c-.1.1-.2 0-.2 0-.1-.1 0-.2 0-.2.1-.1.2 0 .2 0 .1 0 .1.1 0 .2z" fill="#ccc"/><path d="m48.8 7.9c-.1.1-.2 0-.2 0-.1-.1 0-.2 0-.2.1-.1.2 0 .2 0 .1.1.1.2 0 .2z" fill="#ccc"/><path d="m51.9 6.2c-.1.1-.2 0-.2 0-.1-.1 0-.2 0-.2.1-.1.2 0 .2 0 .1 0 .1.1 0 .2z" fill="#ccc"/><path d="m53.5 5.3c-.1.1-.2 0-.2 0-.1-.1 0-.2 0-.2.1-.1.2 0 .2 0 .1.1.1.2 0 .2z" fill="#ccc"/><path d="m55 4.5c-.1.1-.2 0-.2 0-.1-.1 0-.2 0-.2.1-.1.2 0 .2 0 .1 0 .1.1 0 .2z" fill="#ccc"/><path d="m56.6 3.6c-.1.1-.2 0-.2 0-.1-.1 0-.2 0-.2.1-.1.2 0 .2 0 .1 0 .1.1 0 .2z" fill="#ccc"/></svg>