<svg enable-background="new 0 0 60 60" height="60" viewBox="0 0 60 60" width="60" xmlns="http://www.w3.org/2000/svg"><path d="m14.9 0h5.5v1.1h-5.5z" fill="#424143"/><path d="m34.2 0h5.5v1.1h-5.5z" fill="#424143"/><path d="m42.9 0h5.5v1.1h-5.5z" fill="#424143"/><path d="m54 58.4c0 .9-.7 1.6-1.6 1.6h-44.8c-.9 0-1.6-.7-1.6-1.6v-55.7c0-.9.7-1.6 1.6-1.6h44.9c.9 0 1.6.7 1.6 1.6v55.7z" fill="#f6a32f"/><g fill="#333e70"><g clip-rule="evenodd" fill-rule="evenodd"><path d="m33.3 33.2c-.5 1.4-.8 3.1-1.7 4.2-1-.4-.8-2.1-1.2-3.2-.7.8-.6 2.4-1.4 3-1.1-.8-1-3-1.5-4.3 0-.2-.6 0-.7-.2 0-.2 0-.4 0-.7.7-.2 1.9-.2 2.2.3 0 .4-.3.5-.6.7.1.7.4 1.3.4 2.1.7-.6.6-2 1.2-2.8 1.6-.1.8 2 1.5 3 .2-.6.5-1.2.7-1.9 0-.5-.7-.3-.4-1 .5-.2 1.9-.3 2.2.1v.2c.1.4-.3.5-.7.5z"/><path d="m43.1 34.8c.4.6.3 1.8.9 2.2-.9 1.3-1.6-.7-1.5-1.8-.4-.1-.9-.2-1.5-.2-.3.2 0 .8-.1 1.2.3.2.9.1.7.8-.6.1-2.1.3-2.3-.2.1-.3.5-.7.8-.4 0-1.1 0-2.3 0-3.4-.2-.2-.6-.1-.7-.4 0-.2.1-.3.1-.4 1.2-.2 3.3-.3 4.1.3.4.6.1 1.9-.5 2.3zm-2.4-.6c.8.3 2.3.2 2.1-.9-.2-.6-1.2-.4-2-.4 0 .4-.1.7-.1 1.3z"/><path d="m49.8 32.6c-.1.2-.4.3-.7.3.1 1.1.2 2.2.3 3.2.2.2.8 0 .8.4-.1.8-2 .8-2.3.3 0-.4.2-.6.7-.6 0-.7-.2-1.2-.1-2-.6.6-.4 2-1.1 2.5-1.1-.2-1-1.6-1.5-2.3-.3.5.1 1.1 0 1.7.2.2.8.1.8.6-.2.6-1.6.6-2.2.4-.1-.5.3-.9.6-.7.1-1.2-.3-2-.2-3.2 0-.4-1 0-.8-.7.2-.5 1.3-.5 1.8-.3.4 1.1 1 1.9 1.3 3 .5-.9.6-2.1 1-3.1.4 0 1.7-.6 1.6.5z"/><path d="m13.9 35.3c.3.8.2 1.9.7 2.5-2.1 1.2-.4-3.2-2.9-2.4-.2.2-.2.7-.2 1.1.3.2.7.2.6.9-.6.1-2.1.2-2.2-.6-.1-.5.6-.2.8-.4.1-1.2.2-2.2.4-3.2-.2-.2-.6-.1-.7-.4 0-.3 0-.5.2-.6 1.9-.4 5.8.8 3.3 3.1zm-2.3-.8c2.5 1 2.8-1.8.2-1.3-.1.3 0 .9-.2 1.3z"/><path d="m17.1 32.6c.1.4-.3.3-.7.3v3.3c.2.2.7.1.7.6 0 .7-2.3.7-2.3 0 0-.4.4-.4.8-.4 0-1.1 0-2.2 0-3.3-.2-.2-.7-.1-.8-.4-.2-.9 2.4-1 2.3-.1z"/><path d="m26.7 34.9c.4 0 .9-.1 1.1.1.1.5-.2.6-.4.8 0 .5.2.9.1 1.5-.3.2-.6.1-.9-.1-.5.2-.7.5-1.1.6-4.4.8-4-6.7.2-5.2.3-.1.3-.4.8-.3.4.4.5 2.1.2 2.6zm-1.2-1.5c-1.8-1-2.8 1.7-2 3 .6 1.1 2.4.9 2.9-.4-.5-.1-1.2.4-1.4-.1-.2-.2.1-.2 0-.6.5-.2 1.2-.1 1.7-.3-1-.3-.6-1.3-1.2-1.6z"/><path d="m20.9 35.6c.3-.6-.1-1.3 0-2-.2-.2-.9-.1-.8-.7.2-.6 1.6-.5 2.2-.3 0 .4 0 .8-.6.7-.1 1.5.5 3.2 0 4.4-1.4-.7-1.9-2.2-2.8-3.4-.3.7 0 1.7 0 2.4.1.2.7 0 .8.3.1 1-2 .9-2.3.4-.1-.5.3-.5.7-.6 0-1.2-.1-2.2-.2-3.3-.2-.2-.7-.1-.8-.4.1-.1.1-.2.1-.4 2.5-.8 2.7 1.7 3.7 2.9z"/><path d="m34 33c.4-.5 1.1-1.1 1.7-1.2 3.5-.7 4.9 3.3 3.1 5.2-2.6 2.7-7-.9-4.8-4zm3.4-.3c-3.3-1.3-4.3 4.5-1.2 4.5 1.1 0 2.3-.7 2.2-2.4-.1 1.1-.5 1.8-1.3 2-3.7.8-3.1-4.5-.1-4 .9.1 1.3.8 1.7 1.9-.2-1.1-.5-1.7-1.3-2zm-1.4 3.6c.5.1 1.6-.2 1.5-1-.3.5-.4.7-.8.8-1.9.4-1.7-2.9.2-2.3.4.1.5.5.8 1-.4-3.4-4.3.8-1.7 1.5zm0-1.8c.2-.5 1-.3 1.2 0-.1-.9-1.6-.2-1.2 0zm.3 1.1c-.4-.1-.4-.5-.6-.9v.7c.3.4 1 .4 1.3 0-.2 0-.5.1-.7.2z"/><path d="m18.1 50.9h.3c.1.1.2.2.3.2.1.3-.3.8.1 1 .5 0 .2-.7.4-1 .1 0 .1 0 .2-.1.8-.2.3 1 .9 1.1.4-.2 0-.7.1-1 .1 0 .3-.1.3-.2h.3c.9.8.3 2.9-.3 3.5-.3 0-.7.1-.9-.1-.3-.3.2-.9-.2-1-.4.1-.1.4-.2.9-1.3.7-1.6-1-1.8-1.9 0-.3 0-.5 0-.8.1-.2.3-.4.5-.6z"/><path d="m22.8 50.9h.4v.1c1 .5 1.4 2 1.3 3.4-.4.2-1.1.2-1.3-.2-.1-.3.1-.7-.1-1-.6.1-.1.8-.3 1.2-.3.1-.7.1-1 .1-.6-1 .2-2.9 1-3.6zm.1 1.3c.4.2.4-.6.1-.5-.1.2-.2.3-.1.5z"/><path d="m24.8 50.9h.2c.4.2.5.6.9.8.5-.1.7-.6 1-.8h.2v.1c.6.6-.4 1-.6 1.5-.1.6.3 1 .2 1.8-.1 0-.1.1-.2.2-.4-.1-1.1.1-1.3-.2-.3-.7.2-.8.2-1.5-.1-.7-1.4-1.4-.6-1.9z"/><path d="m29.5 50.9h.2c.4.3-.2 1.1.4 1.2.6-.1 0-.9.4-1.2h.3c.6.8.9 2.2.9 3.4-.3.2-1.3.3-1.4-.1s.4-1-.2-1.1c-.5 0-.2.8-.1 1-.2.5-1.3.5-1.5 0 .1-1.2.2-2.5 1-3.2z"/><path d="m36.7 50.9h.5v.1c.5-.1.8.5.6.8-.3.3-.3-.3-.7-.2-.2.2-.3 1.3.3 1.1.1-.4-.4-.3-.2-.6 1-.2 1.2.9 1.2 1.9-.3.6-1.7.2-2.5.3-.6-.8-.1-2.9.8-3.4z"/><path d="m39.9 50.9h.6c.1.1.4.1.4.3 0 .4-.5.2-.7.4.1.6.7.1.9.5.1.5-.9 0-.8.5.6.3 1.4.2 1.4 1v.6c-.4.5-2.6.5-3 0 .2-1.4.2-2.8 1.2-3.3z"/><path d="m33.3 51c.3.5-.4 1.5.3 1.7.9-.1-.2-1.4.5-1.7.9.2 1.5 3 .6 3.5-.8 0-1.6.1-2.3-.1-.5-.8-.3-3.2.9-3.4z"/></g><path d="m23.3 8c-3.3-3.2-8.6-3.2-11.9 0-3.3 3.3-2.7 8.9 1.7 11.5l.3-.6c-2-1.1-3.4-3.2-3.4-5.6 0-3.5 2.9-6.4 6.4-6.4s6.4 2.9 6.4 6.4c0 2-.9 3.8-2.4 5l1.9 2.4c4.3-3 4.2-9.4 1-12.7z"/><path d="m49.1 8c-3.3-3.3-8.6-3.3-11.8 0-3.3 3.3-2.7 8.9 1.7 11.5l.3-.6c-2-1.1-3.4-3.2-3.4-5.6 0-3.5 2.9-6.4 6.4-6.4s6.4 2.9 6.4 6.4c0 2-.9 3.8-2.4 5l1.9 2.4c4.3-3 4.2-9.4.9-12.7z"/></g><path d="m22.2 27.7c0 1-.8 1.7-1.7 1.7-1 0-1.7-.8-1.7-1.7 0-1 .8-1.7 1.7-1.7s1.7.8 1.7 1.7z" fill="#424143"/><path d="m20.4 29.5c-1 0-1.8-.8-1.8-1.8s.8-1.8 1.8-1.8 1.8.8 1.8 1.8-.8 1.8-1.8 1.8zm0-3.5c-.9 0-1.7.8-1.7 1.7s.8 1.7 1.7 1.7 1.7-.8 1.7-1.7-.7-1.7-1.7-1.7z" fill="#231f20"/><path d="m21.4 28.6c-.5.5-1.3.6-1.9.1-.5-.5-.6-1.3-.1-1.9.5-.5 1.3-.6 1.9-.1s.6 1.4.1 1.9z" fill="#424143"/><path d="m19.5 28.8c-.6-.5-.6-1.4-.1-2s1.4-.6 2-.1.6 1.4.1 2-1.4.6-2 .1zm1.8-2c-.5-.5-1.3-.4-1.8.1s-.4 1.3.1 1.8 1.3.4 1.8-.1c.4-.5.4-1.3-.1-1.8z" fill="#231f20"/><g fill="#333e70"><path d="m18.9 29 .5.4-.5.4-.2-.2z"/><path d="m21.5 29.4.4-.4.3.6-.3.2z"/><path d="m20.7 25.8h-.6l.2-.6h.3z"/><path d="m21.2 25.9h-.2l.2-.4.1.1z"/><path d="m21.7 26.3-.1-.1.3-.3.1.1z"/><path d="m18.7 28.6.1.2-.4.1v-.1z"/><path d="m22.2 26.8-.1-.1.3-.2.1.1z"/><path d="m18.5 28v.2h-.3l-.1-.1z"/><path d="m22.4 27.5-.1-.2h.4v.1z"/><path d="m18.5 27.3v.2l-.4-.1.1-.1z"/><path d="m22.3 28.2.1-.2.3.1v.1z"/><path d="m18.8 26.7-.1.1-.3-.2v-.1z"/><path d="m22.1 28.8.1-.2.3.2-.1.1z"/><path d="m19.2 26.2-.1.1-.2-.3.1-.1z"/><path d="m19.8 25.9h-.1l-.1-.3.1-.1z"/></g><path d="m20.5 27h.9v.2h-.9z" fill="#e6e7e7" transform="matrix(.6695 -.7428 .7428 .6695 -13.2332 24.5377)"/><path d="m41 27.7c0 1-.8 1.7-1.7 1.7-1 0-1.7-.8-1.7-1.7 0-1 .8-1.7 1.7-1.7s1.7.8 1.7 1.7z" fill="#424143"/><path d="m39.2 29.5c-1 0-1.8-.8-1.8-1.8s.8-1.8 1.8-1.8 1.8.8 1.8 1.8-.8 1.8-1.8 1.8zm0-3.5c-.9 0-1.7.8-1.7 1.7s.8 1.7 1.7 1.7 1.7-.8 1.7-1.7-.8-1.7-1.7-1.7z" fill="#231f20"/><path d="m39.2 26.4c.7 0 1.3.6 1.4 1.3 0 .7-.6 1.3-1.3 1.4-.7 0-1.3-.6-1.4-1.3 0-.8.6-1.4 1.3-1.4z" fill="#424143"/><path d="m40.6 27.7c0 .8-.6 1.4-1.4 1.4s-1.4-.6-1.4-1.4.6-1.4 1.4-1.4 1.4.6 1.4 1.4zm-2.7.1c0 .7.6 1.3 1.3 1.3s1.3-.6 1.3-1.3-.6-1.3-1.3-1.3-1.3.6-1.3 1.3z" fill="#231f20"/><g fill="#333e70"><path d="m37.7 29 .5.4-.5.4-.2-.2z"/><path d="m40.3 29.4.4-.4.3.6-.3.2z"/><path d="m39.5 25.8h-.6l.1-.6h.4z"/><path d="m40 25.9h-.2l.2-.4.1.1z"/><path d="m40.5 26.3-.1-.1.3-.3v.1z"/><path d="m37.5 28.6.1.2-.4.1v-.1z"/><path d="m41 26.8-.1-.1.3-.2v.1z"/><path d="m37.3 28v.2h-.4v-.1z"/><path d="m41.2 27.5-.1-.2h.4v.1z"/><path d="m37.3 27.3v.2l-.4-.1v-.1z"/><path d="m41.1 28.2.1-.2.3.1v.1z"/><path d="m37.6 26.7-.1.1-.3-.2v-.1z"/><path d="m40.9 28.8.1-.2.2.2v.1z"/><path d="m38 26.2-.1.1-.2-.3.1-.1z"/><path d="m38.6 25.9h-.1l-.1-.3.1-.1z"/></g><path d="m38 27.6h.9v.2h-.9z" fill="#e6e7e7" transform="matrix(.9998 -.02051489 .02051489 .9998 -.5612 .794)"/><g fill="#333e70"><path d="m25.7 22.1c0 .1-.1.2-.2.2s-.2-.1-.2-.2.1-.2.2-.2.2.1.2.2z"/><path d="m27.6 24c0 .1-.1.2-.2.2s-.2-.1-.2-.2.1-.2.2-.2.2.1.2.2z"/><path d="m32.6 24c0-.1-.1-.2-.2-.2s-.2.1-.2.2.1.2.2.2.2-.1.2-.2z"/><path d="m34.4 22.1c0-.1-.1-.2-.2-.2s-.2.1-.2.2.1.2.2.2c.1.1.2 0 .2-.2z"/><path d="m14.3 21.3h.5.2.1s.1.1.1.1v.1.2s-.1.1-.1.1c.1 0 .1.1.2.1 0 .1.1.1.1.2v.2c0 .1-.1.1-.1.1s-.1 0-.2.1c0 0-.1 0-.3 0h-.4v-1.2zm.2.2v.3h.2.2.1v-.1-.1h-.1s-.1 0-.2 0h-.2zm0 .4v.3h.2.2.1v-.1-.1s0 0-.1-.1c0 0-.1 0-.2 0z"/><path d="m15.5 22.5v-1.2h.2v1h.6v.2z"/><path d="m16.6 22.5v-1.2h.9v.2h-.6v.3h.6v.2h-.6v.3h.7v.2z"/><path d="m17.8 22.5v-1.2h.2l.5.8v-.8h.2v1.2h-.2l-.5-.8v.8z"/><path d="m19.1 21.3h.4.2c.1 0 .1.1.2.1 0 .1.1.1.1.2v.3.3c0 .1-.1.2-.1.2s-.1.1-.2.1-.1 0-.2 0h-.5v-1.2zm.2.2v.8h.2.1.1s0-.1.1-.1c0-.1 0-.1 0-.2s0-.2 0-.2 0-.1-.1-.1c0 0-.1 0-.1-.1 0 0-.1 0-.2 0h-.1z"/><path d="m42.7 28.3h-.2v-.8h.2v.1c0-.1.1-.1.1-.1h.1.1l-.1.2h-.1-.1v.1.3z"/><path d="m43.3 27.7h-.2c0-.1.1-.1.1-.2.1 0 .1-.1.2-.1h.2s.1.1.1.1v.2.2.2.1h-.2s0 0 0-.1-.1.1-.1.1h-.1c-.1 0-.1 0-.2-.1 0 0-.1-.1-.1-.2v-.1s.1-.1.1-.1c.2.1.2.1.2 0 .2.1.2.1.3 0v-.1h-.1c-.1 0-.1 0-.2.1zm.3.2h-.1c-.1 0-.1 0-.1 0v.1.1h.1.1s0 0 .1-.1c-.1 0-.1 0-.1-.1z"/><path d="m44.4 27.5v.2h-.1v.3.1h.1v.2s-.1 0-.2 0h-.1-.1s0 0 0-.1v-.1-.4-.2h.1v-.2l.2-.1v.3z"/><path d="m45.1 28h.2c0 .1-.1.1-.1.2-.1 0-.1.1-.2.1s-.2 0-.3-.1-.1-.2-.1-.3 0-.2.1-.3.2-.1.3-.1.2 0 .3.1.1.2.1.4h-.5c0 .1 0 .1.1.1 0 0 .1.1.1.1-.1-.1 0-.1 0-.2 0 .1 0 .1 0 0zm.1-.2c0-.1 0-.1 0-.1h-.1s-.1 0-.1.1v.1h.2z"/><path d="m40.6 22.5v-1.2h.8v.2h-.6v.3h.5v.2h-.5v.5z"/><path d="m41.7 22.5v-1.2h.5.3c.1 0 .1.1.1.1 0 .1.1.1.1.2s0 .2-.1.2c-.1.1-.1.1-.2.1.1 0 .1.1.1.1s.1.1.1.2l.1.2h-.3l-.2-.3c-.1-.1-.1-.2-.1-.2s0 0-.1 0h-.1v.5h-.2zm.2-.7h.2.2s.1 0 .1-.1v-.1-.1h-.1s-.1 0-.2 0h-.2z"/><path d="m42.9 22.5v-1.2h.9v.2h-.6v.3h.6v.2h-.6v.3h.7v.2z"/><path d="m45.1 22.3c.1 0 .1.1.2.1l-.1.2h-.1s-.1 0-.2-.1c-.1 0-.2.1-.3.1-.2 0-.3-.1-.4-.2s-.2-.3-.2-.5.1-.3.2-.5c.1-.1.2-.2.4-.2s.3.1.4.2.2.3.2.5v.3c-.1 0-.1.1-.1.1zm-.2-.1s.1-.1.1-.1c0-.1 0-.1 0-.2s0-.2-.1-.3-.1-.1-.2-.1-.2 0-.2.1c-.1.1-.1.2-.1.3s0 .2.1.3.1.1.2.1h.1s-.1-.1-.1-.1l.1-.1c-.1 0 0 0 .1.1z"/><path d="m15.5 2.6-1.1.3.3.2-.4.4v.9h.5v-.7l.2-.2.3.3z"/><path d="m38.6 4.4 1.1-.2-.3-.3.4-.3v-1h-.5v.7l-.2.3-.3-.3z"/><path d="m46.7 4.4 1.2-.2-.3-.3.3-.3v-1h-.4v.7l-.3.3-.3-.3z"/></g><path d="m28 48.6-2.1-3.5 2.1-3.6h4l2.1 3.6-2.1 3.5z" fill="#e4dec4"/><path d="m32.1 48.8h-4.3l-2.1-3.7 2.1-3.7h4.3l2.1 3.7zm-4.1-.3h4l2-3.4-2-3.4h-4l-2 3.4z" fill="#bdb7a0"/><path d="m32.7 45.1c0 1.5-1.2 2.7-2.7 2.7s-2.7-1.2-2.7-2.7 1.2-2.7 2.7-2.7 2.7 1.2 2.7 2.7z" fill="#e4dec4"/><path d="m30 48c-1.6 0-2.9-1.3-2.9-2.9s1.3-2.9 2.9-2.9 2.9 1.3 2.9 2.9-1.3 2.9-2.9 2.9zm0-5.5c-1.4 0-2.6 1.1-2.6 2.5s1.1 2.5 2.6 2.5c1.4 0 2.5-1.1 2.5-2.5 0-1.3-1.1-2.5-2.5-2.5z" fill="#bdb7a0"/><path d="m13.2 15.8c-.3.2-.5.1-.6-.3l-.6-8.2c0-.3.2-.5.5-.4l7.5 3.5c.3.1.3.4.1.6z" fill="#6e6f72"/><path d="m13 16.1c-.3 0-.4-.2-.5-.5l-.7-8.3c0-.2 0-.3.1-.4.1-.2.4-.2.6-.1l7.5 3.5c.2.1.3.2.3.4s-.1.3-.3.5l-6.8 4.8s-.1.1-.2.1zm-.7-9.1c-.1 0-.1 0 0 0-.1.1-.1.1-.1.2l.7 8.3c0 .1 0 .2.1.2 0 0 .1 0 .2-.1l6.8-4.8c.1-.1.1-.1.1-.2s-.1-.1-.2-.2l-7.5-3.4z" fill="#231f20"/><path d="m20.9 10c1.7 2.5 1.1 5.9-1.4 7.6s-5.9 1.1-7.6-1.4-1.1-5.9 1.4-7.6 5.9-1.1 7.6 1.4z" fill="#424143"/><path d="m16.4 18.7c-1.8 0-3.6-.9-4.6-2.4-1.8-2.5-1.1-6 1.4-7.8.9-.7 2.1-1 3.2-1 1.8 0 3.6.9 4.6 2.4 1.8 2.5 1.1 6-1.4 7.8-.9.6-2 1-3.2 1zm0-10.9c-1.1 0-2.1.3-3 .9-2.4 1.7-3 5-1.3 7.4 1 1.4 2.6 2.3 4.3 2.3 1.1 0 2.1-.3 3-.9 2.4-1.7 3-5 1.3-7.4-.9-1.5-2.6-2.3-4.3-2.3z" fill="#231f20"/><path d="m30.8 6.8c0 .5-.4.9-.9.9s-.9-.4-.9-.9.4-.9.9-.9c.4-.1.9.3.9.9z" fill="#f37055"/><path d="m29.8 7.9c-.7 0-1.2-.5-1.2-1.2s.5-1.2 1.2-1.2 1.2.5 1.2 1.2-.5 1.2-1.2 1.2zm0-1.9c-.4 0-.7.3-.7.7s.3.7.7.7.7-.3.7-.7c0-.3-.3-.7-.7-.7z" fill="#424143"/><path d="m42.8 9c.1-.3.3-.4.6-.2l6.1 5.7c.3.2.2.5-.1.6l-8 2.4c-.3.1-.5-.1-.5-.4z" fill="#6e6f72"/><path d="m41.2 17.7c-.2 0-.3-.1-.4-.2s-.1-.3-.1-.5l1.9-8c.1-.3.2-.4.5-.4.1 0 .3.1.4.2l6.1 5.7c.2.2.2.3.2.5s-.2.3-.4.4l-8 2.4c-.1-.1-.1-.1-.2-.1zm1.9-8.9c-.1 0-.2.2-.2.2l-1.9 8.1v.2s.1.1.2 0l8-2.4c.1 0 .2-.1.2-.1 0-.1 0-.1-.1-.2l-6.1-5.7s-.1-.1-.1-.1z" fill="#231f20"/><path d="m41 18.5c-2.9-.7-4.8-3.6-4.1-6.5s3.6-4.8 6.5-4.1 4.8 3.6 4.1 6.5c-.6 2.9-3.5 4.7-6.5 4.1z" fill="#424143"/><path d="m42.3 18.8c-.4 0-.8 0-1.3-.1-3-.7-4.9-3.7-4.2-6.7.6-2.6 2.8-4.4 5.5-4.4.4 0 .8 0 1.3.1 3 .7 4.9 3.7 4.2 6.7-.7 2.6-2.9 4.4-5.5 4.4zm-.1-10.9c-2.5 0-4.6 1.7-5.2 4.1-.7 2.8 1.1 5.7 4 6.3.4.1.8.1 1.2.1 2.5 0 4.6-1.7 5.2-4.1.7-2.8-1.1-5.7-4-6.3-.4-.1-.8-.1-1.2-.1z" fill="#231f20"/><path d="m32.5 18.1c.2-.1.4 0 .4.2v5.8c0 .2-.2.3-.4.2l-5.1-2.9c-.2-.1-.2-.3 0-.4z" fill="#595a5c"/><path d="m32.7 24.6c-.1 0-.2 0-.2-.1l-5.1-2.9c-.2-.1-.2-.2-.2-.4 0-.1.1-.3.2-.4l5-3c.3-.2.6 0 .6.4v5.8c0 .1 0 .3-.1.3 0 .3-.1.3-.2.3zm0-6.4-5.1 3c-.1 0-.1.1-.1.1s0 .1.1.1l5.1 2.9c.1.1.1 0 .1 0s0 0 0-.1v-5.8c-.1-.1-.1-.2-.1-.2z" fill="#231f20"/><path d="m33.6 17.7c1.1 1.9.5 4.4-1.4 5.6-1.9 1.1-4.4.5-5.6-1.4-1.1-1.9-.5-4.4 1.4-5.6 2-1.1 4.5-.5 5.6 1.4z" fill="#424143"/><path d="m30.1 24c-1.5 0-2.9-.8-3.6-2.1-.6-1-.7-2.1-.4-3.2s1-2 1.9-2.6c.7-.4 1.4-.6 2.1-.6 1.5 0 2.9.8 3.6 2.1 1.2 2 .5 4.6-1.5 5.8-.6.4-1.3.6-2.1.6zm0-8.1c-.7 0-1.4.2-2 .5-.9.5-1.5 1.4-1.8 2.4s-.1 2.1.4 3c.7 1.2 2 1.9 3.4 1.9.7 0 1.4-.2 2-.5 1.9-1.1 2.5-3.5 1.4-5.3-.7-1.3-2-2-3.4-2z" fill="#231f20"/></svg>