<svg enable-background="new 0 0 60 60" height="60" viewBox="0 0 60 60" width="60" xmlns="http://www.w3.org/2000/svg"><path d="m47 58.1c0 1-.8 1.9-1.9 1.9h-30.2c-1 0-1.9-.8-1.9-1.9v-56.2c0-1 .8-1.9 1.9-1.9h30.2c1 0 1.9.8 1.9 1.9z" fill="#781d77"/><path d="m27.1 14.6c-.6.6-1.6.5-2.3.8s-1.4 1.1-2.2 1.1-1.4-.8-2.2-1.1c-.7-.3-1.7-.2-2.3-.8s-.5-1.6-.8-2.3-1.1-1.4-1.1-2.2.8-1.4 1.1-2.2c.3-.7.2-1.7.8-2.3s1.6-.5 2.3-.8 1.4-1.1 2.2-1.1 1.4.8 2.2 1.1c.7.3 1.7.2 2.3.8s.5 1.6.8 2.3 1.1 1.4 1.1 2.2-.8 1.4-1.1 2.2c-.4.7-.3 1.7-.8 2.3z" fill="#424143"/><path d="m23.6 8.8 3.1-3.1.4.4-3.1 3.1z" fill="#e6e7e7"/><path d="m35.2 16c-.8-.3-1.1-1.3-1.7-1.8s-1.6-.8-1.9-1.5.1-1.6.1-2.4-.5-1.7-.2-2.4c.3-.8 1.3-1.1 1.8-1.6.5-.6.8-1.6 1.5-1.9s1.6.1 2.4.1 1.6-.5 2.4-.2 1.1 1.3 1.7 1.8 1.6.8 1.9 1.5-.1 1.6-.1 2.4.5 1.7.2 2.4-1.3 1.1-1.8 1.6c-.5.6-.8 1.6-1.5 1.9s-1.6-.1-2.4-.1-1.7.5-2.4.2z" fill="#424143"/><path d="m38.8 10.9.2-.6 4.1 1.6-.2.6z" fill="#e6e7e7"/><g fill="#424143"><path d="m18 53.6v-.3s-.2.3-.6.3h-.6c-.6 0-.9-.3-.9-.8v-.4c0-.5.3-.8.9-.8h.6c.4 0 .6.3.6.3v-1.2h.7v3zm0-1.2c0-.2-.2-.4-.5-.4h-.5c-.4 0-.5.2-.5.4v.3c0 .3.1.4.5.4h.5c.3 0 .5-.2.5-.4z"/><path d="m20.8 53.6c-.4.8-.5.9-1.1.9h-.1v-.5h.1c.2 0 .3 0 .5-.4h-.2l-.9-2.1h.7l.6 1.5h.1l.7-1.5h.7z"/><path d="m24.2 53.6v-1.1c0-.4-.1-.5-.5-.5h-.3c-.4 0-.6.2-.6.6v1h-.8v-2.1h.7v.3s.1-.3.6-.3h.6c.6 0 .9.3.9.9v1.2z"/><path d="m27.4 53.6v-.2c-.1.2-.2.2-.4.2h-.9c-.4 0-.7-.2-.7-.5v-.3c0-.3.2-.6.9-.6h.9c.2 0 .3.1.4.2v-.3c0-.2-.1-.3-.4-.3h-.7c-.2 0-.3 0-.3.1v.1h-.7c0-.3.2-.6.9-.6h1c.7 0 .9.3.9.7v1.4zm-.3-.9h-.7c-.2 0-.3.1-.3.2 0 .2.1.2.3.2h.7c.3 0 .3-.1.3-.2s0-.2-.3-.2z"/><path d="m31.9 53.6h-1c-.6 0-.8-.4-.8-.8v-.5c0-.5.3-.8.9-.8h1c.7 0 1 .2 1 .7h-.7c0-.2-.1-.3-.3-.3h-.7c-.2 0-.4.1-.4.4v.4c0 .2.2.4.4.4h.7c.3 0 .3-.1.3-.3h.7c-.2.6-.4.8-1.1.8z"/><path d="m35.1 53.6h-1c-.6 0-.9-.3-.9-.8v-.4c0-.5.3-.8.9-.8h1c.6 0 .9.4.9.8v.4c0 .5-.3.8-.9.8zm.2-1.2c0-.2-.1-.4-.5-.4h-.5c-.3 0-.5.1-.5.4v.3c0 .3.2.4.5.4h.5c.3 0 .5-.1.5-.4z"/><path d="m40.3 53.6v-1.2c0-.3 0-.5-.5-.5h-.2c-.4 0-.5.2-.5.5v1.1h-.7v-1.1c0-.3-.1-.5-.5-.5h-.2c-.3 0-.5.2-.5.5v1.1h-.7v-2.1h.7v.3c.2-.2.3-.3.7-.3h.4c.5 0 .7.2.7.3.1-.2.3-.3.8-.3h.2c.7 0 .9.3.9.8v1.3h-.6z"/><path d="m43.3 53.6h-.6c-.3 0-.5-.2-.6-.3v1.1h-.7v-3h.7v.3c.1-.1.3-.3.6-.3h.6c.6 0 .9.3.9.8v.5c0 .6-.2.9-.9.9zm.2-1.2c0-.3-.2-.4-.5-.4h-.5c-.3 0-.5.1-.5.4v.3c0 .3.1.4.5.4h.5c.3 0 .5-.1.5-.4z"/><path d="m19.4 20.1h-.5c-.3 0-.4-.1-.4-.4v-.4c0-.3.1-.4.4-.4h.5c.3 0 .4.1.4.4v.4c0 .3-.1.4-.4.4zm.2-.7c0-.2-.1-.2-.2-.2h-.4c-.2 0-.2 0-.2.2v.3c0 .1 0 .2.2.2h.4c.2 0 .2 0 .2-.2z"/><path d="m20.9 20.1h-.5c-.3 0-.4-.1-.4-.4v-.7h.3v.7c0 .2.1.2.2.2h.4c.1 0 .2-.1.2-.2v-.7h.3v.7c-.1.3-.2.4-.5.4z"/><path d="m22.2 19.2v.9h-.3v-.9h-.5v-.2h1.2v.2z"/><path d="m23.6 19.8h-.6v.3h-.3v-1.1h.8c.3 0 .4.1.4.4s-.1.4-.3.4zm-.1-.6h-.5v.3h.5c.1 0 .2-.1.2-.2 0 0-.1-.1-.2-.1z"/><path d="m25 20.1h-.5c-.3 0-.4-.1-.4-.4v-.7h.3v.7c0 .2.1.2.2.2h.4c.1 0 .2-.1.2-.2v-.7h.3v.7c-.1.3-.2.4-.5.4z"/><path d="m26.3 19.2v.9h-.3v-.9h-.5v-.2h1.2v.2z"/><path d="m16.6 31.1v.5c0 .3-.1.4-.4.4h-.4c-.3 0-.4-.1-.4-.4v-.5c0-.3.1-.4.4-.4h.4c.3 0 .4.1.4.4zm-.7-.1c-.2 0-.2.1-.2.2v.4c0 .2 0 .2.2.2h.3c.1 0 .2 0 .2-.2v-.4c0-.2 0-.2-.2-.2z"/><path d="m16.6 29.6v.5c0 .3-.1.4-.4.4h-.7v-.3h.7c.2 0 .2-.1.2-.2v-.4c0-.1-.1-.2-.2-.2h-.7v-.3h.7c.3.1.4.2.4.5z"/><path d="m15.7 28.3h.9v.3h-.9v.5h-.2v-1.2h.2z"/><path d="m16.3 27v.5h.3v.3h-1.1v-.8c0-.3.1-.4.4-.4.2 0 .4.1.4.4zm-.6 0v.5h.3v-.5c0-.1-.1-.2-.2-.2s-.1.1-.1.2z"/><path d="m16.6 25.5v.5c0 .3-.1.4-.4.4h-.7v-.3h.7c.2 0 .2-.1.2-.2v-.4c0-.1-.1-.2-.2-.2h-.7v-.3h.7c.3.1.4.2.4.5z"/><path d="m15.7 24.3h.9v.3h-.9v.4h-.2v-1.2h.2z"/><path d="m44 24.9h1.1v.3h-1.1z"/><path d="m44 26.4.9-.7h-.9v-.3h1.1v.5l-.9.7h.9v.3h-1.1z"/><path d="m44.4 27.9v-.5h-.4v-.3h1.1v.8c0 .3-.1.4-.4.4-.2 0-.3-.2-.3-.4zm.5-.1v-.5h-.3v.5c0 .1.1.2.2.2s.1-.1.1-.2z"/><path d="m44 29.3v-.5c0-.3.1-.4.4-.4h.7v.3h-.7c-.2 0-.2.1-.2.2v.4c0 .1.1.2.2.2h.7v.3h-.7c-.3-.1-.4-.2-.4-.5z"/><path d="m44.9 30.6h-.9v-.3h.9v-.5h.2v1.2h-.2z"/><path d="m31.8 20.1h-.5c-.3 0-.4-.1-.4-.3h.3c0 .1.1.1.1.1h.5c.1 0 .2 0 .2-.1s0-.1-.2-.1h-.4c-.3 0-.4-.1-.4-.3s.1-.3.4-.3h.5c.3 0 .4.1.4.3h-.3c0-.1 0-.1-.1-.1h-.5c-.1 0-.1 0-.1.1s.1.1.1.1h.5c.3 0 .4 0 .4.3-.2.2-.3.3-.5.3z"/><path d="m32.3 20.1v-1.1h1.2v.2h-.9v.2h.9v.2h-.9v.3h.9v.2z"/><path d="m34.7 20.1-.7-.9v.9h-.3v-1.1h.5l.7.9v-.9h.3v1.1z"/><path d="m36.3 20.1h-.5c-.3 0-.4-.1-.4-.3h.3c0 .1.1.1.1.1h.5c.1 0 .2 0 .2-.1s0-.1-.2-.1h-.4c-.3 0-.4-.1-.4-.3s.1-.3.4-.3h.5c.3 0 .4.1.4.3h-.3c0-.1 0-.1-.1-.1h-.5c-.1 0-.1 0-.1.1s.1.1.1.1h.5c.3 0 .4 0 .4.3-.2.2-.3.3-.5.3z"/><path d="m36.9 20.1v-1.1h.3v1.1z"/><path d="m38.1 19.2v.9h-.3v-.9h-.5v-.2h1.2v.2z"/><path d="m38.7 20.1v-1.1h.3v1.1z"/><path d="m40.1 20.1h-.4l-.6-1.1h.3l.5.9.5-.9h.3z"/><path d="m40.9 20.1v-1.1h.3v1.1z"/><path d="m42.1 19.2v.9h-.3v-.9h-.5v-.2h1.2v.2z"/><path d="m43.4 19.7v.4h-.3v-.4l-.5-.7h.3l.4.5.4-.5h.3z"/><path d="m36.5 31.3h-13c-1.3 0-2.3-1.1-2.3-2.3v-2.2c0-1.3 1.1-2.3 2.3-2.3h12.9c1.3 0 2.3 1.1 2.3 2.3v2.2c.1 1.3-.9 2.3-2.2 2.3zm-13-6.2c-.9 0-1.6.7-1.6 1.6v2.3c0 .9.7 1.6 1.6 1.6h12.9c.9 0 1.6-.7 1.6-1.6v-2.2c0-.9-.7-1.6-1.6-1.6z"/><path d="m47 25.2h1.1v5.6h-1.1z"/><path d="m11.9 25.2h1.1v5.6h-1.1z"/></g><path d="m27.9 46-2.1-3.6 2.1-3.6h4.2l2.1 3.6-2.1 3.6z" fill="#e4dec4"/><path d="m32.2 46.2h-4.4l-2.2-3.8 2.2-3.8h4.4l2.2 3.8zm-4.2-.3h4l2-3.5-2-3.5h-4l-2 3.5z" fill="#bdb7a0"/><path d="m32.8 42.4c0 1.5-1.2 2.8-2.8 2.8-1.5 0-2.8-1.2-2.8-2.8 0-1.5 1.2-2.8 2.8-2.8 1.5 0 2.8 1.3 2.8 2.8z" fill="#e4dec4"/><path d="m30 45.3c-1.6 0-2.9-1.3-2.9-2.9s1.3-2.9 2.9-2.9 2.9 1.3 2.9 2.9-1.3 2.9-2.9 2.9zm0-5.5c-1.4 0-2.6 1.2-2.6 2.6s1.2 2.6 2.6 2.6 2.6-1.2 2.6-2.6-1.2-2.6-2.6-2.6z" fill="#bdb7a0"/><path d="m31 35.5c0 .5-.4 1-1 1-.5 0-1-.4-1-1 0-.5.4-1 1-1 .5 0 1 .5 1 1z" fill="#f37055"/><path d="m30 36.7c-.7 0-1.2-.5-1.2-1.2s.5-1.2 1.2-1.2 1.2.5 1.2 1.2c0 .6-.5 1.2-1.2 1.2zm0-1.9c-.4 0-.7.3-.7.7s.3.7.7.7.7-.3.7-.7-.3-.7-.7-.7z" fill="#424143"/></svg>