<svg enable-background="new 0 0 60 60" height="60" viewBox="0 0 60 60" width="60" xmlns="http://www.w3.org/2000/svg"><path d="m16.1 59.7c-.9 0-1.6-.7-1.6-1.6v-56.2c0-.9.7-1.6 1.6-1.6h27.8c.9 0 1.6.7 1.6 1.6v56.2c0 .9-.7 1.6-1.6 1.6z" fill="#abca37"/><path d="m43.9.5c.8 0 1.4.6 1.4 1.4v56.2c0 .8-.6 1.4-1.4 1.4h-27.8c-.8 0-1.4-.6-1.4-1.4v-56.2c0-.8.6-1.4 1.4-1.4zm0-.5h-27.8c-1 0-1.9.9-1.9 1.9v56.2c0 1 .9 1.9 1.9 1.9h27.8c1 0 1.9-.9 1.9-1.9v-56.2c0-1-.9-1.9-1.9-1.9z" fill="#869a3b"/><path d="m16.1 59.7c-.9 0-1.6-.7-1.6-1.6v-32.2c0-.9.7-1.6 1.6-1.6h27.8c.9 0 1.6.7 1.6 1.6v32.2c0 .9-.7 1.6-1.6 1.6z" fill="#abca37"/><path d="m43.9 24.5c.8 0 1.4.6 1.4 1.4v32.2c0 .8-.6 1.4-1.4 1.4h-27.8c-.8 0-1.4-.6-1.4-1.4v-32.2c0-.8.6-1.4 1.4-1.4zm0-.5h-27.8c-1 0-1.9.9-1.9 1.9v32.2c0 1 .9 1.9 1.9 1.9h27.8c1 0 1.9-.9 1.9-1.9v-32.2c0-1.1-.9-1.9-1.9-1.9z" fill="#869a3b"/><g fill="#181c1b"><path d="m19.1 3 2.1 3.6v-4.1c-.7 0-1.4.2-2.1.5z"/><path d="m22.5 7 3.6-2.1c-.4-.6-.9-1.1-1.5-1.5z"/><path d="m26.5 10.4c.3-.6.5-1.3.6-2.1h-4.2z"/><path d="m22.9 7.6h4.2c0-.8-.2-1.5-.6-2.1z"/><path d="m22.5 8.9 2.1 3.6c.6-.4 1.1-.9 1.5-1.5z"/><path d="m21.9 2.5v4.2l2.1-3.7c-.6-.3-1.3-.5-2.1-.5z"/><path d="m20.7 8.9-3.7 2.1c.4.6.9 1.1 1.5 1.5z"/><path d="m20.3 8.3h-4.2c0 .8.2 1.5.6 2.1z"/><path d="m20.7 7-2.1-3.6c-.6.4-1.1.9-1.5 1.5z"/><path d="m16.7 5.5c-.3.6-.5 1.3-.6 2.1h4.2z"/></g><path d="m24.4 11.1c-1.7 1.6-4.4 1.4-6-.3s-1.4-4.4.3-6 4.4-1.4 6 .3 1.5 4.4-.3 6z" fill="#373d40"/><path d="m23.7 10.3c-1.3 1.2-3.3 1.1-4.5-.2s-1.1-3.3.2-4.5 3.3-1.1 4.5.2 1.2 3.3-.2 4.5z" fill="#d7dbde"/><path d="m23 7.1c-.1.1-.3.1-.4 0s-.1-.3 0-.4l1.6-1.4c.1-.1.3-.1.4 0s.1.3 0 .4z" fill="#373d40"/><g fill="#181c1b"><path d="m36.4 3 2.1 3.6v-4.1c-.7 0-1.4.2-2.1.5z"/><path d="m39.8 7 3.6-2.1c-.4-.6-.9-1.1-1.5-1.5z"/><path d="m43.8 10.4c.3-.6.5-1.3.6-2.1h-4.2z"/><path d="m40.1 7.6h4.2c0-.8-.2-1.5-.6-2.1z"/><path d="m39.8 8.9 2.1 3.6c.6-.4 1.1-.9 1.5-1.5z"/><path d="m39.2 2.5v4.2l2.1-3.7c-.6-.3-1.3-.5-2.1-.5z"/><path d="m37.9 8.9-3.6 2.1c.4.6.9 1.1 1.5 1.5z"/><path d="m37.6 8.3h-4.2c0 .8.2 1.5.6 2.1z"/><path d="m37.9 7-2.1-3.6c-.6.4-1.1.9-1.5 1.5z"/><path d="m33.9 5.5c-.3.6-.5 1.3-.6 2.1h4.2z"/></g><path d="m42.8 6.4c.8 2.2-.2 4.6-2.4 5.5-2.2.8-4.6-.2-5.5-2.4-.8-2.2.2-4.6 2.4-5.5 2.2-.8 4.7.3 5.5 2.4z" fill="#373d40"/><path d="m41.8 6.8c.6 1.6-.2 3.5-1.8 4.1s-3.5-.2-4.1-1.8c-.7-1.6.1-3.5 1.8-4.1 1.6-.7 3.5.2 4.1 1.8z" fill="#d7dbde"/><path d="m38.6 6.3c.1.2 0 .3-.2.4s-.3 0-.4-.2l-.8-2c-.1-.2 0-.3.2-.4s.3 0 .4.2z" fill="#373d40"/><path d="m43.6 56.3c0 .6-.5 1.1-1.1 1.1h-24.5c-.6 0-1.1-.5-1.1-1.1v-28.2c0-.6.5-1.1 1.1-1.1h24.5c.6 0 1.1.5 1.1 1.1z" fill="#010101"/><path d="m42.1 38.8c0 .3-.2.5-.5.5h-22.9c-.3 0-.5-.2-.5-.5v-9.6c0-.3.2-.5.5-.5h22.9c.3 0 .5.2.5.5z" fill="#dadcdb"/><path d="m41.7 54.8c0 .3-.2.5-.5.5h-22c-.3 0-.5-.2-.5-.5v-13.4c0-.3.2-.5.5-.5h22c.3 0 .5.2.5.5z" fill="#dadcdb"/><g fill="#181c1b"><path d="m28.2 10.8 1.7 2.9v-3.4c-.6.1-1.1.3-1.7.5z"/><path d="m31 14 2.9-1.7c-.3-.5-.8-.9-1.2-1.2z"/><path d="m34.2 16.8c.3-.5.4-1.1.5-1.7h-3.4z"/><path d="m31.3 14.5h3.4c0-.6-.2-1.2-.5-1.7z"/><path d="m31 15.6 1.7 2.9c.5-.3.9-.8 1.2-1.2z"/><path d="m30.5 10.4v3.4l1.7-2.9c-.5-.3-1.1-.5-1.7-.5z"/><path d="m29.5 15.6-2.9 1.7c.3.5.8.9 1.2 1.2z"/><path d="m29.2 15.1h-3.4c0 .6.2 1.2.5 1.7z"/><path d="m29.5 14-1.7-2.9c-.5.3-.9.8-1.2 1.2z"/><path d="m26.2 12.8c-.3.5-.4 1.1-.5 1.7h3.4z"/></g><path d="m33.2 13.2c.9 1.7.3 3.7-1.4 4.6s-3.7.3-4.6-1.4-.3-3.7 1.4-4.6 3.7-.3 4.6 1.4z" fill="#373d40"/><path d="m32.5 13.6c.7 1.3.2 2.8-1.1 3.5s-2.8.2-3.5-1.1-.2-2.8 1.1-3.5 2.8-.2 3.5 1.1z" fill="#d7dbde"/><path d="m29.9 13.5c.1.1 0 .3-.1.3-.1.1-.3 0-.3-.1l-.8-1.5c-.1-.1 0-.3.1-.3.1-.1.3 0 .3.1z" fill="#373d40"/><g fill="#010101"><path d="m28.8 8.6v.8h-.1v-.8h-.2v-.2h.5v.1h-.2z"/><path d="m29.1 8.9c0-.1 0-.2.1-.3s.2-.1.3-.1.2 0 .3.1.1.2.1.3 0 .2-.1.3-.2.1-.3.1-.2 0-.3-.1c-.1 0-.1-.2-.1-.3zm.1 0c0 .1 0 .2.1.3s.1.1.2.1.2 0 .2-.1c.1-.1.1-.2.1-.2 0-.1 0-.2-.1-.2-.1-.1-.1-.1-.2-.1s-.2 0-.2.1c0-.1-.1 0-.1.1z"/><path d="m30.3 9.4v-1l.7.7v-.7h.1v1l-.7-.7v.7z"/><path d="m31.9 8.6h-.4v.2h.4v.1h-.4v.3h.4v.1h-.5v-.9h.5z"/><path d="m20.3 14.3v-.9h.2.2c.1 0 .1 0 .2.1s.1.2.1.3 0 .3-.2.3c-.1 0-.1.1-.2.1s-.1 0-.2 0h-.1zm.2-.1h.2s.1 0 .1-.1c.1-.1.1-.1.1-.2s0-.2-.1-.2c-.1-.1-.2-.1-.3-.1h-.1v.6z"/><path d="m21.4 13.4v.9h-.1v-.9z"/><path d="m22.2 13.5-.1.1s0-.1-.1-.1c0 0 0 0-.1 0h-.1v.1s0 .1.1.1h.1c.1 0 .1.1.2.1 0 0 .1.1.1.2s0 .2-.1.2c-.1.1-.1.1-.2.1s-.1 0-.2-.1c-.1 0-.1-.1-.1-.2h.1v.1s.1.1.1.1h.1v-.1s0 0-.1 0h-.1c-.1-.1-.2-.1-.2-.2s0-.1.1-.2c.1 0 .1-.1.2-.1.1-.2.2-.2.3-.1z"/><path d="m22.7 13.5v.8h-.1v-.8h-.2v-.1h.6v.1z"/><path d="m16.7 18.1h.3v.1s0 .1-.1.1c-.1.1-.2.1-.3.1s-.2 0-.3-.1-.1-.2-.1-.3 0-.2.1-.3.2-.1.3-.1h.2s.1.1.1.1v.3c-.1-.1-.1-.1-.2-.1s-.1 0-.2.1-.1.1-.1.2 0 .1.1.2c.1 0 .1.1.2.1s.1 0 .1-.1c0 0 .1-.1.1-.1h-.2z"/><path d="m17.6 18.3h-.3l-.1.2h-.1l.4-.8.3.8h-.1zm-.1-.1-.1-.2-.1.2z"/><path d="m18 17.8v.7h-.1v-.7z"/><path d="m18.2 18.5v-.8l.5.5v-.5h.1v.8l-.5-.5v.5z"/><path d="m41.7 18.5.2-.8.2.6.3-.6.1.8h-.1l-.1-.4-.2.5-.2-.5-.1.4z"/><path d="m42.8 17.8v.7h-.1v-.7z"/><path d="m43 18.5v-.7h.1.2s.1 0 .1.1c.1.1.1.2.1.3s0 .2-.1.3c0 0-.1.1-.1.1s-.1 0-.2 0h-.1zm.1-.1h.2s.1 0 .1-.1c.1 0 .1-.1.1-.2s0-.1-.1-.2c0 0-.1-.1-.2-.1v.6z"/><path d="m44.1 17.9c-.1 0-.1 0-.1 0s0 0-.1 0h-.1v.1s0 .1.1.1h.1c.1 0 .1.1.1.1v.1c0 .1 0 .1-.1.2 0 0-.1.1-.2.1s-.1 0-.2-.1c0 0-.1-.1-.1-.2h.1v.1h.1.1v-.1h-.1c-.1 0-.1-.1-.1-.2s0-.1.1-.1c0 0 .1-.1.2-.1.1-.1.2-.1.2 0z"/><path d="m37.3 13.4v.8h.3v.1h-.4v-.9z"/><path d="m38.2 13.5h-.4v.2h.4v.1h-.4v.3h.4v.1h-.5v-.9h.5z"/><path d="m38.5 13.4.3.6.3-.6h.2l-.4 1z"/><path d="m39.8 13.5h-.4v.2h.4v.1h-.4v.3h.4v.1h-.5v-.9h.5z"/><path d="m40.2 13.4v.8h.3v.1h-.4v-.9z"/></g><path d="m21.7 20.3c-1.1 0-2-.9-2-2s.9-2 2-2 2 .9 2 2-.9 2-2 2z" fill="#e4dec4"/><path d="m19.6 18.3c0-1.1.9-2.1 2.1-2.1 1.1 0 2.1.9 2.1 2.1 0 1.1-.9 2.1-2.1 2.1-1.1 0-2.1-.9-2.1-2.1zm4 0c0-1-.8-1.9-1.9-1.9-1 0-1.9.8-1.9 1.9 0 1 .8 1.9 1.9 1.9 1 0 1.9-.9 1.9-1.9z" fill="#bdb7a0"/><path d="m21.7 19.4c-.6 0-1.1-.5-1.1-1.1s.5-1.1 1.1-1.1 1.1.5 1.1 1.1-.5 1.1-1.1 1.1z" fill="#a09a84"/><path d="m20.6 18.3c0-.6.5-1.2 1.2-1.2.6 0 1.2.5 1.2 1.2 0 .6-.5 1.2-1.2 1.2s-1.2-.5-1.2-1.2zm2.1 0c0-.5-.4-.9-.9-.9s-.9.4-.9.9.4.9.9.9c.4.1.9-.4.9-.9z" fill="#bdb7a0"/><path d="m21.7 18c-.4 0-.7-.3-.7-.7s.3-.7.7-.7.7.3.7.7-.3.7-.7.7z" fill="#e4dec4"/><path d="m20.9 17.3c0-.4.4-.8.8-.8s.8.4.8.8-.4.8-.8.8-.8-.3-.8-.8zm1.4 0c0-.3-.3-.6-.6-.6s-.6.3-.6.6.3.6.6.6.6-.2.6-.6z" fill="#bdb7a0"/><path d="m39.1 20.3c-1.1 0-2-.9-2-2s.9-2 2-2 2 .9 2 2-.9 2-2 2z" fill="#e4dec4"/><path d="m37.1 18.3c0-1.1.9-2.1 2.1-2.1 1.1 0 2.1.9 2.1 2.1 0 1.1-.9 2.1-2.1 2.1s-2.1-.9-2.1-2.1zm3.9 0c0-1-.8-1.9-1.9-1.9-1 0-1.9.8-1.9 1.9 0 1 .8 1.9 1.9 1.9s1.9-.9 1.9-1.9z" fill="#bdb7a0"/><path d="m39.1 19.4c-.6 0-1.1-.5-1.1-1.1s.5-1.1 1.1-1.1 1.1.5 1.1 1.1-.5 1.1-1.1 1.1z" fill="#a09a84"/><path d="m38 18.3c0-.6.5-1.2 1.2-1.2.6 0 1.2.5 1.2 1.2 0 .6-.5 1.2-1.2 1.2s-1.2-.5-1.2-1.2zm2.1 0c0-.5-.4-.9-.9-.9s-.9.4-.9.9.4.9.9.9c.5.1.9-.4.9-.9z" fill="#bdb7a0"/><path d="m39.1 19.6c-.4 0-.7-.3-.7-.7s.3-.7.7-.7.7.3.7.7-.3.7-.7.7z" fill="#e4dec4"/><path d="m38.3 18.9c0-.4.4-.8.8-.8s.8.4.8.8-.4.8-.8.8-.8-.4-.8-.8zm1.4 0c0-.3-.3-.6-.6-.6s-.6.3-.6.6.3.6.6.6c.4 0 .6-.3.6-.6z" fill="#bdb7a0"/><path d="m13.1 24.4h1.1v5.6h-1.1z" fill="#424143"/><path d="m45.8 24.4h1.1v5.6h-1.1z" fill="#424143"/><path d="m40.4 42.8h-20.5c-.3 0-.5-.2-.5-.5s.2-.5.5-.5h20.5c.3 0 .5.2.5.5s-.2.5-.5.5z" fill="#b9bdba"/><path d="m40.4 44.5h-20.5c-.3 0-.5-.2-.5-.5s.2-.5.5-.5h20.5c.3 0 .5.2.5.5s-.2.5-.5.5z" fill="#b9bdba"/><path d="m40.4 46.1h-20.5c-.3 0-.5-.2-.5-.5s.2-.5.5-.5h20.5c.3 0 .5.2.5.5s-.2.5-.5.5z" fill="#b9bdba"/><path d="m40.4 47.8h-20.5c-.3 0-.5-.2-.5-.5s.2-.5.5-.5h20.5c.3 0 .5.2.5.5s-.2.5-.5.5z" fill="#b9bdba"/><path d="m40.4 49.5h-20.5c-.3 0-.5-.2-.5-.5s.2-.5.5-.5h20.5c.3 0 .5.2.5.5s-.2.5-.5.5z" fill="#b9bdba"/><path d="m40.4 51.1h-20.5c-.3 0-.5-.2-.5-.5s.2-.5.5-.5h20.5c.3 0 .5.2.5.5s-.2.5-.5.5z" fill="#b9bdba"/><path d="m40.4 52.8h-20.5c-.3 0-.5-.2-.5-.5s.2-.5.5-.5h20.5c.3 0 .5.2.5.5s-.2.5-.5.5z" fill="#b9bdba"/><path d="m40.4 54.5h-20.5c-.3 0-.5-.2-.5-.5s.2-.5.5-.5h20.5c.3 0 .5.2.5.5s-.2.5-.5.5z" fill="#b9bdba"/></svg>