<svg enable-background="new 0 0 60 60" height="60" viewBox="0 0 60 60" width="60" xmlns="http://www.w3.org/2000/svg" xmlns:xlink="http://www.w3.org/1999/xlink"><linearGradient id="a"><stop offset="0" stop-color="#e5e1df"/><stop offset="0" stop-color="#d7d3cf"/><stop offset="0" stop-color="#ccc7c2"/><stop offset=".06036747" stop-color="#bebab6"/><stop offset=".1461" stop-color="#a6a3a0"/><stop offset=".5225" stop-color="#e0e1e2"/><stop offset=".6249" stop-color="#d2d2d2"/><stop offset=".8208" stop-color="#b0adab"/><stop offset=".8764" stop-color="#a6a3a0"/><stop offset="1" stop-color="#d2d3d4"/><stop offset="1" stop-color="#a8aaad"/></linearGradient><linearGradient id="b" gradientTransform="matrix(.7071 .7071 -.7071 .7071 -1310.4709 379.2432)" gradientUnits="userSpaceOnUse" x1="699.2661" x2="702.5188" xlink:href="#a" y1="-1220.1345" y2="-1220.1345"/><linearGradient id="c" gradientTransform="matrix(.7071 .7071 -.7071 .7071 -1310.4709 379.2432)" gradientUnits="userSpaceOnUse" x1="699.2037" x2="702.5731" xlink:href="#a" y1="-1217.801" y2="-1217.801"/><linearGradient id="d" gradientTransform="matrix(.7071 .7071 -.7071 .7071 -1310.4709 379.2432)" gradientUnits="userSpaceOnUse" x1="699.148" x2="702.6199" xlink:href="#a" y1="-1215.6797" y2="-1215.6797"/><linearGradient id="e" gradientTransform="matrix(.7071 .7071 -.7071 .7071 -1310.4709 379.2432)" gradientUnits="userSpaceOnUse" x1="699.0955" x2="702.6669" xlink:href="#a" y1="-1213.629" y2="-1213.629"/><linearGradient id="f" gradientTransform="matrix(.7071 .7071 -.7071 .7071 -1310.4709 379.2432)" gradientUnits="userSpaceOnUse" x1="699.0415" x2="702.7121" xlink:href="#a" y1="-1211.5784" y2="-1211.5784"/><linearGradient id="g" gradientTransform="matrix(.7071 .7071 -.7071 .7071 -1310.4709 379.2432)" gradientUnits="userSpaceOnUse" x1="698.9927" x2="702.7517" xlink:href="#a" y1="-1209.8107" y2="-1209.8107"/><linearGradient id="h" gradientTransform="matrix(.7071 .7071 -.7071 .7071 -1310.4709 379.2432)" gradientUnits="userSpaceOnUse" x1="698.9453" x2="702.7907" xlink:href="#a" y1="-1208.0428" y2="-1208.0428"/><linearGradient id="i" gradientTransform="matrix(.7071 .7071 -.7071 .7071 -1310.4709 379.2432)" gradientUnits="userSpaceOnUse" x1="698.9007" x2="702.8302" xlink:href="#a" y1="-1206.3458" y2="-1206.3458"/><linearGradient id="j" gradientTransform="matrix(.7071 .7071 -.7071 .7071 -1310.4709 379.2432)" gradientUnits="userSpaceOnUse" x1="698.86" x2="702.8674" xlink:href="#a" y1="-1204.7194" y2="-1204.7194"/><linearGradient id="k" gradientTransform="matrix(.7071 .7071 -.7071 .7071 -1310.4709 379.2432)" gradientUnits="userSpaceOnUse" x1="698.8194" x2="702.8988" xlink:href="#a" y1="-1203.3052" y2="-1203.3052"/><linearGradient id="l" gradientTransform="matrix(.7071 .7071 -.7071 .7071 -1310.4709 379.2432)" gradientUnits="userSpaceOnUse" x1="698.7833" x2="702.9295" xlink:href="#a" y1="-1201.9263" y2="-1201.9263"/><linearGradient id="m" gradientTransform="matrix(.7071 .7071 -.7071 .7071 -1310.4709 379.2432)" gradientUnits="userSpaceOnUse" x1="698.7491" x2="702.9593" xlink:href="#a" y1="-1200.6182" y2="-1200.6182"/><linearGradient id="n" gradientTransform="matrix(.7071 .7071 -.7071 .7071 -1310.4709 379.2432)" gradientUnits="userSpaceOnUse" x1="698.7186" x2="702.9918" xlink:href="#a" y1="-1199.3453" y2="-1199.3453"/><linearGradient id="o" gradientTransform="matrix(.7071 .7071 -.7071 .7071 -1310.4709 379.2432)" gradientUnits="userSpaceOnUse" x1="698.6813" x2="703.0134" xlink:href="#a" y1="-1198.1432" y2="-1198.1432"/><linearGradient id="p" gradientTransform="matrix(.7071 .7071 -.7071 .7071 -1310.4709 379.2432)" gradientUnits="userSpaceOnUse" x1="698.6478" x2="703.0386" xlink:href="#a" y1="-1196.9058" y2="-1196.9058"/><linearGradient id="q" gradientTransform="matrix(.7071 .7071 -.7071 .7071 -1310.4709 379.2432)" gradientUnits="userSpaceOnUse" x1="698.6218" x2="703.0639" xlink:href="#a" y1="-1195.8805" y2="-1195.8805"/><linearGradient id="r" gradientTransform="matrix(.7071 .7071 -.7071 .7071 -1310.4709 379.2432)" gradientUnits="userSpaceOnUse" x1="698.5928" x2="703.0883" xlink:href="#a" y1="-1194.8198" y2="-1194.8198"/><linearGradient id="s" gradientTransform="matrix(.7071 .7071 -.7071 .7071 -1310.4709 379.2432)" gradientUnits="userSpaceOnUse" x1="698.5654" x2="703.1135" xlink:href="#a" y1="-1193.6885" y2="-1193.6885"/><linearGradient id="t" gradientTransform="matrix(.7071 .7071 -.7071 .7071 -1310.4709 379.2432)" gradientUnits="userSpaceOnUse" x1="698.5397" x2="703.1359" xlink:href="#a" y1="-1192.6985" y2="-1192.6985"/><linearGradient id="u" gradientTransform="matrix(.7071 .7071 -.7071 .7071 -1310.4709 379.2432)" gradientUnits="userSpaceOnUse" x1="698.5064" x2="703.157" xlink:href="#a" y1="-1191.6378" y2="-1191.6378"/><linearGradient id="v" gradientTransform="matrix(.7071 .7071 -.7071 .7071 -1310.4709 379.2432)" gradientUnits="userSpaceOnUse" x1="698.4838" x2="703.1812" xlink:href="#a" y1="-1190.6478" y2="-1190.6478"/><path d="m6.4 54.7c-.3-.3-.6-.6-.9-.9-2.1-2.3-3.6-4.5-4.5-6.7-.8-1.9-1.1-3.7-.9-5.4.4-3.5 2.6-5.5 3.6-6.1 2.9-1.8 5.8-2.6 8.1-3.2 2.1-.5 3.8-1 5-2 .8-.7 1.2-1.5 1.6-2.4.5-1 1-2.1 2.2-3.4 1.6-1.7 4.7-2.6 7.9-.6 1.3.8 2.1 1.5 2.4 1.8.1.1.2.2.2.2l.2 5.7s-1.1 2.6.7 4.5c.8.8 1.5.8 2.2.7.1 0 .2 0 .3-.1.5-.1 1-.2 1.4.2 0 0 0 0 .1.1.3.3.4.7.3 1.1-.2.9-1.1 2-2.1 2.4-.1 0-.2.1-.3.1-1.5.7-3.2 1.4-4.6 2.7-1.1 1.1-1.7 3-2.3 5.2-.6 2.3-1.4 4.8-2.9 7.1-1.6 2.4-3.8 3.8-6.4 4.1-3.7.5-7.5-1.3-11.3-5.1z" fill="#af8424"/><path d="m28.5 41c2.6-4.3 1.8-8.3 1.8-8.3l-1.6 1.5c.5 1.8.2 2.4-1.5 3.9s-2.5 1.7-4.2 1.1l-2.6 2.5c-.5.5-.6 1.1-.2 1.6 0 0 2.3 2.3 3.2 2.7.4.1.7 0 .9-.1.6-.2 1.8-.8 4.2-4.9z" fill="#4e4e4e"/><path d="m28.6 41c2.6-4.3 1.8-8.3 1.8-8.3l-.2-.8-9.7 9.8c-.5.5-.6 1.1-.2 1.6 0 0 2.3 2.3 3.2 2.7.4.1.7 0 .9-.1.6-.3 1.8-.9 4.2-4.9z" fill="#3a3a3a"/><path d="m57.2 6.6.4.2-.1.1z" fill="#989898"/><path d="m55.3 7.8-.1.2.5.5.2-.2z" fill="#989898"/><path d="m53.8 9.8-.1.1.4.4.1-.1z" fill="#989898"/><path d="m50.3 6.1-.5-.3.1-.1z" fill="#b4b4b4"/><path d="m52.2 4.6-.6-.4.1-.1z" fill="#b4b4b4"/><path d="m53.2 2.3.4.2-.1.1z" fill="#b4b4b4"/><path d="m56.4 7.3c2-1.7 3.6-2.4 3.6-2.4s-.7-.7-1-1.3c-.1-.3-.1-.6-.3-1.1-.2-.3-.8-.5-.8-.5s-.1-.6-.6-.8c-.4-.2-.7-.1-1.1-.3s-1.2-.9-1.2-.9-.7 1.6-2.4 3.6c-1.8 2.1-3 2.8-3 2.8s0 .6-.2 1.4c-.3 1.1-.9 1.5-.9 1.5l2.2 2.2s.5-.6 1.5-.9c.8-.2 1.4-.2 1.4-.2s.7-1.2 2.8-3.1z" fill="#6c2a2a"/><path d="m49.1 9.2c.2-.3.5-.7.7-1.4.2-.6.2-1 .2-1.3.4-.3 1.5-1.1 2.9-2.7 1.2-1.4 1.9-2.6 2.2-3.2.3.2.7.6 1 .7.2.1.4.1.6.2.2 0 .3.1.5.1 0 0 .1 0 .1.1.1.1.2.4.2.4v.2l.2.1c.1 0 .3.1.5.3l.1.1c.1.2.1.3.1.5s.1.4.2.6c.2.3.5.7.7 1-.6.3-1.8 1-3.2 2.2-1.7 1.5-2.5 2.5-2.7 2.9-.2 0-.7.1-1.2.2-.7.2-1.1.5-1.4.7z" fill="#4b1212"/><path d="m51 7.2c-.2.1-.5.1-.6-.1s-.1-.5.1-.6.5-.1.6.1c.2.2.1.5-.1.6z" fill="#b4b4b4"/><path d="m54.5 3.7c-.2.1-.5.1-.6-.1-.2-.2-.1-.5.1-.6s.5-.1.6.1.1.4-.1.6z" fill="#b4b4b4"/><path d="m57 6.2c-.2.1-.5.1-.6-.1s-.1-.5.1-.6.5-.1.6.1c.2.2.1.5-.1.6z" fill="#b4b4b4"/><path d="m55.2 7.9c-.2.1-.5.1-.7-.1-.1-.2-.1-.5.1-.6s.5-.1.6.1c.2.2.2.5 0 .6z" fill="#b4b4b4"/><path d="m52.8 5.6c-.2.1-.5.1-.6-.1-.2-.2-.1-.5 0-.7.2-.1.5-.1.6.1.2.2.2.5 0 .7z" fill="#b4b4b4"/><path d="m53.5 9.7c-.2.1-.5.1-.6-.1-.2-.2-.1-.4.1-.6.2-.1.5-.1.6.1s.1.5-.1.6z" fill="#b4b4b4"/><path d="m18.9 48.8c-.3-.9-7-7.7-7.9-7.9-.9-.3-1.3.4-1 1 .3.5 1.1.3 1.5 1s-.4 1.8 1.6 3.8 3 1.2 3.8 1.6.5 1.1 1 1.5c.6.3 1.3-.1 1-1z" fill="#2b2b2b"/><path d="m13.3 46.4c-1.3-1.3-1.3-2.1-1.4-2.8 0-.3 0-.6-.2-.9-.1-.1-.2-.3-.3-.4-.2-.2-.5-.3-.8-.4-.2-.1-.3-.1-.4-.2 0 0 0 0-.1-.1s-.1-.3 0-.4.3-.2.6-.1 1.8 1.4 4.1 3.6c2.2 2.2 3.5 3.8 3.6 4.1s.1.5-.1.6c-.1.1-.2.1-.4 0 0 0 0 0-.1-.1s-.1-.2-.2-.4-.2-.5-.4-.8c-.1-.1-.2-.2-.4-.3-.3-.2-.7-.2-1-.2-.4.2-1.2.1-2.5-1.2 0 .1 0 .1 0 0z" fill="#1a1a1a"/><path d="m15.2 44.6c-1.8-1.8-3.8-3.6-4.2-3.7-.9-.3-1.3.4-1 1 .3.5 1.1.3 1.5 1s-.4 1.8 1.6 3.8z" fill="#1a1a1a"/><path d="m15 44.8c-.1 0-.1 0 0 0-2.2-2.2-3.8-3.6-4.1-3.7s-.5-.1-.6.1c-.1.1-.1.2 0 .4 0 0 0 .1.1.1.1.1.2.1.4.2s.5.2.8.4c.1.1.2.2.3.4.2.3.2.6.2.9 0 .7.1 1.5 1.4 2.8z" fill="#2b2b2b"/><path d="m12.9 43.6.1-.1 3.5 3.5h-.1z" fill="#818181"/><path d="m13 43.5.1-.1 3.5 3.5-.1.1z" fill="#b4b4b4"/><path d="m28 35.3-3.3-3.4 23.6-22.4 2.2 2.2z" fill="#4b1212"/><path d="m49.4 10.5-1.1-1-23.6 22.4 1.6 1.7z" fill="#672222"/><path d="m48.9 13.4-2.3-2.3.1-.1 2.3 2.3z"/><path d="m47.3 15-2.4-2.3.1-.1 2.4 2.3z"/><path d="m45.9 16.6-2.5-2.5.1-.1 2.5 2.5z"/><path d="m44.5 18-2.6-2.5.1-.1z"/><path d="m43.1 19.5-2.6-2.6v-.1l2.6 2.6z"/><path d="m41.8 20.8-2.7-2.7h.1l2.7 2.6z"/><path d="m40.6 22.1-2.7-2.7v-.1l2.8 2.7z"/><path d="m39.4 23.3-2.8-2.8.1-.1 2.8 2.8z"/><path d="m38.3 24.5-2.8-2.9.1-.1 2.8 2.9z"/><path d="m37.3 25.5-2.9-2.9.1-.1 2.9 2.9z"/><path d="m36.4 26.5-3-2.9.1-.1 2.9 2.9z"/><path d="m35.5 27.4-3-2.9.1-.1z"/><path d="m34.6 28.4-3-3.1h.1l3 3z"/><path d="m33.8 29.2-3.1-3 .1-.1 3 3z"/><path d="m32.9 30.1-3.1-3.1.1-.1 3.1 3.1z"/><path d="m32.2 30.9-3.2-3.2h.1l3.2 3.1z"/><path d="m31.5 31.6-3.2-3.1.1-.1 3.1 3.1z"/><path d="m30.7 32.4-3.2-3.2.1-.1 3.2 3.2z"/><path d="m30 33.1-3.2-3.2v-.1l3.3 3.2z"/><path d="m29.3 33.9-3.3-3.2v-.1z"/><path d="m28.6 34.6-3.3-3.3.1-.1 3.3 3.3z"/><path d="m49 13.3-2.3-2.3.1-.1 2.3 2.3z" fill="url(#b)"/><path d="m47.4 15-2.4-2.4.1-.1 2.3 2.4z" fill="url(#c)"/><path d="m45.9 16.5-2.4-2.4v-.1l2.5 2.4z" fill="url(#d)"/><path d="m44.5 18-2.5-2.5.1-.1 2.5 2.5z" fill="url(#e)"/><path d="m43.1 19.5-2.6-2.6.1-.1 2.6 2.6z" fill="url(#f)"/><path d="m41.9 20.8-2.7-2.7.1-.1 2.6 2.7z" fill="url(#g)"/><path d="m40.6 22-2.7-2.7.1-.1z" fill="url(#h)"/><path d="m39.5 23.3-2.8-2.8.1-.1 2.7 2.8z" fill="url(#i)"/><path d="m38.3 24.4-2.8-2.8.1-.1 2.8 2.8z" fill="url(#j)"/><path d="m37.4 25.5-2.9-2.9.1-.1 2.8 2.9z" fill="url(#k)"/><path d="m36.4 26.5-2.9-3 .1-.1 2.9 3z" fill="url(#l)"/><path d="m35.5 27.4-3-3 .1-.1 3 3z" fill="url(#m)"/><path d="m34.6 28.3-3-3 .1-.1 3 3z" fill="url(#n)"/><path d="m33.8 29.2-3.1-3.1h.1l3.1 3z" fill="url(#o)"/><path d="m33 30-3.1-3v-.1z" fill="url(#p)"/><path d="m32.2 30.8-3.1-3.1.1-.1 3.1 3.1z" fill="url(#q)"/><path d="m31.5 31.6-3.2-3.2.1-.1 3.2 3.2z" fill="url(#r)"/><path d="m30.7 32.4-3.2-3.2.1-.1 3.2 3.2z" fill="url(#s)"/><path d="m30.1 33.1-3.3-3.2.1-.1 3.2 3.2z" fill="url(#t)"/><path d="m29.3 33.9-3.3-3.3.1-.1 3.3 3.3z" fill="url(#u)"/><path d="m28.6 34.6-3.3-3.3.1-.1 3.3 3.3z" fill="url(#v)"/><path d="m48.3 9.5.3-.3 2.3 2.3-.3.3z" fill="#e6e6e5"/><path d="m28.8 36.3c.1-.1.1-.2 0-.3l-4.9-4.9c-.1-.1-.2 0-.3 0l-2.4 2.4c-.1.1-.1.2 0 .3l4.9 4.9c.1.1.2 0 .3 0z" fill="#333"/><path d="m26.4 33.5-2.5-2.5s-.1-.1-.2 0c-.1 0-.1 0-.2.1l-2.4 2.4s-.1.1-.1.2v.2l2.5 2.5z" fill="#010101"/><path d="m28.6 36.3c.1-.1.1-.2 0-.3l-4.8-4.8c-.1-.1-.2-.1-.3 0l-2.3 2.3c-.1.1-.1.2 0 .3l4.8 4.8c.1.1.2.1.3 0z"/><path d="m26.3 33.6-2.4-2.4-.1-.1s-.1 0-.1.1l-1.1 1.1-1.1 1.1-.1.1s0 .1.1.1l2.4 2.4z" fill="#333"/><path d="m28 36c.1-.1.1-.2 0-.3l-4-4c-.1-.1-.2 0-.3 0l-1.9 1.9c-.1.1-.1.2 0 .3l4 4c.1.1.2 0 .3 0z" fill="#333"/><path d="m26.1 33.8-2-2h-.1s-.1 0-.1.1l-1.9 1.9-.1.1v.1l2 2z" fill="#010101"/><path d="m27.9 36c.1-.1.1-.2 0-.2l-3.8-3.8c-.1-.1-.2-.1-.2 0l-1.9 1.8v.2l3.8 3.8c.1.1.2.1.2 0z" fill="#010101"/><path d="m26 33.9-1.9-1.9h-.1-.1l-.9.9-1 .9v.1.1l1.9 1.9z" fill="#333"/><path d="m21.8 33.6c0-.1-.1-.2-.2-.2s-.2.1-.2.2.1.2.2.2.2-.1.2-.2z" fill="#818181"/><path d="m23.9 31.6c.1-.1.1-.2 0-.3s-.2-.1-.3 0-.1.2 0 .3.2.1.3 0z" fill="#818181"/><path d="m22.8 32.8c.1 0 .2-.1.2-.2s-.1-.2-.2-.2-.2.1-.2.2.1.2.2.2z" fill="#818181"/><path d="m28.3 36c.1-.1.2-.1.3 0s.1.2 0 .3-.2.1-.3 0-.1-.2 0-.3z" fill="#333"/><path d="m27.1 37.1c0-.1.1-.2.2-.2s.2.1.2.2-.1.2-.2.2-.2-.1-.2-.2z" fill="#333"/><path d="m26.2 38.1c.1 0 .2.1.2.2s-.1.2-.2.2-.2-.1-.2-.2c.1-.1.1-.2.2-.2z" fill="#333"/><path d="m21.8 33.6h-.4z" fill="#010101"/><path d="m23.9 31.6-.3-.3.3.3c-.1 0 0 0 0 0z" fill="#010101"/><path d="m22.8 32.8v-.4z" fill="#010101"/><path d="m28.3 36 .3.3-.3-.3c-.1 0 0 0 0 0z" fill="#010101"/><path d="m27.1 37.1h.4z" fill="#010101"/><path d="m26.2 38.1c.1 0 .1 0 0 0v.4z" fill="#010101"/><path d="m26.4 37.3c-.2.2-.7.2-.9-.1l-2.9-2.9c-.3-.3-.3-.7-.1-.9s.7-.2.9.1l2.9 2.9c.4.2.4.7.1.9z" fill="#333"/><path d="m26.4 37.3c-.2.2-.7.2-.9-.1l-2.9-2.9c-.3-.3-.3-.7-.1-.9s.7-.2.9.1l2.9 2.9c.4.2.4.7.1.9z" fill="#333"/><path d="m24 35.8-1.4-1.4c-.1-.1-.2-.3-.2-.5s0-.3.2-.5c.1-.1.3-.2.5-.2s.3.1.5.2l1.4 1.4z" fill="#010101"/><path d="m22.7 34.3c-.2-.2-.3-.6-.1-.8s.5-.2.8.1l2.9 2.9c.2.2.3.6.1.8s-.5.2-.8-.1z" fill="#010101"/><path d="m22.7 34.3c-.1-.1-.2-.3-.2-.4s0-.3.1-.4.2-.1.4-.1c.1 0 .3.1.4.2l1.4 1.4-.7.7z" fill="#333"/><path d="m25.9 37c-.1 0-.2-.1-.2-.2s.1-.2.2-.2.2.1.2.2-.1.2-.2.2z" fill="#676767"/><path d="m23 34.1c-.1 0-.2-.1-.2-.2s.1-.2.2-.2.2.1.2.2-.1.2-.2.2z" fill="#818181"/><path d="m25.4 36.4c-.1 0-.2-.1-.2-.2s.1-.2.2-.2.2.1.2.2-.1.2-.2.2z" fill="#676767"/><path d="m23.6 34.7c-.1 0-.2-.1-.2-.2s.1-.2.2-.2.2.1.2.2-.1.2-.2.2z" fill="#818181"/><path d="m24.2 35.2c-.1 0-.2-.1-.2-.2s.1-.2.2-.2.2.1.2.2c0 .2-.1.2-.2.2z" fill="#818181"/><path d="m24.8 35.8c-.1 0-.2-.1-.2-.2s.1-.2.2-.2.2.1.2.2c0 .2-.1.2-.2.2z" fill="#676767"/><path d="m27.4 36.4c-.2.2-.7.2-.9-.1l-2.9-2.9c-.3-.3-.3-.7-.1-.9s.7-.2.9.1l2.9 2.9c.3.2.3.6.1.9z" fill="#333"/><path d="m27.4 36.4c-.2.2-.7.2-.9-.1l-2.9-2.9c-.3-.3-.3-.7-.1-.9s.7-.2.9.1l2.9 2.9c.3.2.3.6.1.9z" fill="#333"/><path d="m25 34.9-1.4-1.4c-.1-.1-.2-.3-.2-.5s0-.3.2-.5c.1-.1.3-.2.5-.2s.3.1.5.2l1.4 1.4z" fill="#010101"/><path d="m23.6 33.3c-.2-.2-.3-.6-.1-.8s.5-.2.8.1l2.9 2.9c.2.2.3.6.1.8s-.5.2-.8-.1z" fill="#010101"/><path d="m23.6 33.3c-.1-.1-.2-.3-.2-.4s0-.3.1-.4.2-.1.4-.1c.1 0 .3.1.4.2l1.4 1.4-.7.7z" fill="#333"/><path d="m26.9 36.1c-.1 0-.2-.1-.2-.2s.1-.2.2-.2.2.1.2.2-.1.2-.2.2z" fill="#676767"/><path d="m24 33.1c-.1 0-.2-.1-.2-.2s.1-.2.2-.2.2.1.2.2c0 .2-.1.2-.2.2z" fill="#818181"/><path d="m26.3 35.5c-.1 0-.2-.1-.2-.2s.1-.2.2-.2.2.1.2.2-.1.2-.2.2z" fill="#676767"/><path d="m24.6 33.7c-.1 0-.2-.1-.2-.2s.1-.2.2-.2.2.1.2.2c-.1.1-.1.2-.2.2z" fill="#818181"/><path d="m25.1 34.3c-.1 0-.2-.1-.2-.2s.1-.2.2-.2.2.1.2.2-.1.2-.2.2z" fill="#818181"/><path d="m25.7 34.9c-.1 0-.2-.1-.2-.2s.1-.2.2-.2.2.1.2.2-.1.2-.2.2z" fill="#676767"/><path d="m22.4 42.7c.1-.1.1-.2 0-.3l-4.9-4.9c-.1-.1-.2 0-.3 0l-2.4 2.4c-.1.1-.1.2 0 .3l4.9 4.9c.1.1.2 0 .3 0z" fill="#333"/><path d="m20 39.9-2.5-2.5s-.1-.1-.2 0c-.1 0-.1 0-.2.1l-2.4 2.4s-.1.1-.1.2v.2l2.5 2.5z" fill="#010101"/><path d="m22.3 42.7c.1-.1.1-.2 0-.3l-4.8-4.8c-.1-.1-.2-.1-.3 0l-2.3 2.3c-.1.1-.1.2 0 .3l4.8 4.8c.1.1.2.1.3 0z"/><path d="m19.9 40-2.4-2.4-.1-.1s-.1 0-.1.1l-1.1 1.1-1.1 1.1-.1.1s0 .1.1.1l2.4 2.4z" fill="#333"/><path d="m21.6 42.4c.1-.1.1-.2 0-.3l-4-4c-.1-.1-.2 0-.3 0l-1.9 1.9c-.1.1-.1.2 0 .3l4 4c.1.1.2 0 .3 0z" fill="#333"/><path d="m19.7 40.2-2-2h-.1s-.1 0-.1.1l-1.9 1.9-.1.1v.1l2 2z" fill="#010101"/><path d="m21.5 42.4c.1-.1.1-.2 0-.2l-3.8-3.8c-.1-.1-.2-.1-.2 0l-1.8 1.8c-.1.1-.1.2 0 .2l3.8 3.8c.1.1.2.1.2 0z" fill="#010101"/><path d="m19.6 40.3-1.9-1.9h-.1-.1l-.9.9-.9.9v.1.1l1.9 1.9z" fill="#333"/><path d="m15.4 40c0-.1-.1-.2-.2-.2s-.2.1-.2.2.1.2.2.2.2-.1.2-.2z" fill="#818181"/><path d="m17.5 38c.1-.1.1-.2 0-.3s-.2-.1-.3 0-.1.2 0 .3.2.1.3 0z" fill="#818181"/><path d="m16.4 39.2c.1 0 .2-.1.2-.2s-.1-.2-.2-.2-.2.1-.2.2.1.2.2.2z" fill="#818181"/><path d="m21.9 42.4c.1-.1.2-.1.3 0s.1.2 0 .3-.2.1-.3 0-.1-.2 0-.3z" fill="#333"/><path d="m20.7 43.5c0-.1.1-.2.2-.2s.2.1.2.2-.1.2-.2.2-.2-.1-.2-.2z" fill="#333"/><path d="m19.9 44.5c.1 0 .2.1.2.2s-.1.2-.2.2-.2-.1-.2-.2.1-.2.2-.2z" fill="#333"/><path d="m15.4 40h-.4z" fill="#010101"/><path d="m17.5 38-.3-.3z" fill="#010101"/><path d="m16.4 39.2v-.4z" fill="#010101"/><path d="m21.9 42.4.3.3z" fill="#010101"/><path d="m20.7 43.5h.4z" fill="#010101"/><path d="m19.9 44.5v.4-.4c-.1 0 0 0 0 0z" fill="#010101"/><path d="m20 43.7c-.2.2-.7.2-.9-.1l-2.9-2.9c-.3-.3-.3-.7-.1-.9s.7-.2.9.1l2.9 2.9c.4.2.4.6.1.9z" fill="#333"/><path d="m20 43.7c-.2.2-.7.2-.9-.1l-2.9-2.9c-.3-.3-.3-.7-.1-.9s.7-.2.9.1l2.9 2.9c.4.2.4.6.1.9z" fill="#333"/><path d="m17.6 42.2-1.4-1.4c-.1-.1-.2-.3-.2-.5s0-.3.2-.5c.1-.1.3-.2.5-.2s.3.1.5.2l1.4 1.4z" fill="#010101"/><path d="m16.3 40.7c-.2-.2-.3-.6-.1-.8s.5-.2.8.1l2.9 2.9c.2.2.3.6.1.8s-.5.2-.8-.1z" fill="#010101"/><path d="m16.3 40.7c-.1-.1-.2-.3-.2-.4s0-.3.1-.4.2-.1.4-.1c.1 0 .3.1.4.2l1.4 1.4-.7.7z" fill="#333"/><path d="m19.6 43.4c-.1 0-.2-.1-.2-.2s.1-.2.2-.2.2.1.2.2c-.1.1-.1.2-.2.2z" fill="#676767"/><path d="m16.6 40.5c-.1 0-.2-.1-.2-.2s.1-.2.2-.2.2.1.2.2-.1.2-.2.2z" fill="#818181"/><path d="m19 42.8c-.1 0-.2-.1-.2-.2s.1-.2.2-.2.2.1.2.2-.1.2-.2.2z" fill="#676767"/><path d="m17.2 41.1c-.1 0-.2-.1-.2-.2s.1-.2.2-.2.2.1.2.2-.1.2-.2.2z" fill="#818181"/><path d="m17.8 41.6c-.1 0-.2-.1-.2-.2s.1-.2.2-.2.2.1.2.2-.1.2-.2.2z" fill="#818181"/><path d="m18.4 42.2c-.1 0-.2-.1-.2-.2s.1-.2.2-.2.2.1.2.2-.1.2-.2.2z" fill="#676767"/><path d="m21 42.8c-.3.2-.7.2-1-.1l-2.9-2.9c-.3-.3-.3-.7-.1-.9s.7-.2.9.1l2.9 2.9c.4.2.5.6.2.9z" fill="#333"/><path d="m21 42.8c-.3.2-.7.2-1-.1l-2.9-2.9c-.3-.3-.3-.7-.1-.9s.7-.2.9.1l2.9 2.9c.4.2.5.6.2.9z" fill="#333"/><path d="m18.6 41.3-1.4-1.4c-.1-.1-.2-.3-.2-.5s0-.3.2-.5c.1-.1.3-.2.5-.2s.3.1.5.2l1.4 1.4z" fill="#010101"/><path d="m17.2 39.7c-.2-.2-.2-.6 0-.7.2-.2.5-.2.8.1l2.9 2.9c.2.2.3.6.1.8s-.5.2-.8-.1z" fill="#010101"/><path d="m17.2 39.7c-.1-.1-.2-.3-.2-.4s0-.3.1-.4.2-.1.4-.1c.1 0 .3.1.4.2l1.4 1.4-.7.7z" fill="#333"/><path d="m20.5 42.4c-.1 0-.2-.1-.2-.2s.1-.2.2-.2.2.1.2.2c0 .2-.1.2-.2.2z" fill="#676767"/><path d="m17.6 39.5c-.1 0-.2-.1-.2-.2s.1-.2.2-.2.2.1.2.2-.1.2-.2.2z" fill="#818181"/><path d="m19.9 41.9c-.1 0-.2-.1-.2-.2s.1-.2.2-.2.2.1.2.2-.1.2-.2.2z" fill="#676767"/><path d="m18.2 40.1c-.1 0-.2-.1-.2-.2s.1-.2.2-.2.2.1.2.2-.1.2-.2.2z" fill="#818181"/><path d="m18.7 40.7c-.1 0-.2-.1-.2-.2s.1-.2.2-.2.2.1.2.2-.1.2-.2.2z" fill="#818181"/><path d="m19.3 41.3c-.1 0-.2-.1-.2-.2s.1-.2.2-.2.2.1.2.2-.1.2-.2.2z" fill="#676767"/><path d="m48.8 9.3-36 35-.1-.1 36-35 2.1-2.1.1-.1z" fill="#b3b3b3"/><path d="m49.1 9.7-35.7 35.1 35.7-35.1 3.4-4.3h.1z" stroke="#b3b3b3" stroke-miterlimit="10" stroke-width=".15"/><path d="m49.5 10.1-35.5 35.3 35.5-35.3 4.8-6.5h.1z" stroke="#b3b3b3" stroke-miterlimit="10" stroke-width=".1"/><path d="m50.6 11.3-34.9 35.7 34.9-35.7 2.4-2v-.1z" stroke="#b3b3b3" stroke-miterlimit="10" stroke-width=".08"/><path d="m50.3 10.9-35.1 35.6 35.1-35.6 4.4-3.4.1-.2z" stroke="#b3b3b3" stroke-miterlimit="10" stroke-width=".08"/><path d="m49.9 10.5-35.3 35.4 35.3-35.4 6.8-4.7v-.1z" stroke="#b3b3b3" stroke-miterlimit="10" stroke-width=".08"/><path d="m13.1 44.4c-.1.1-.3.1-.4 0s-.1-.3 0-.4.3-.1.4 0 .1.3 0 .4z" fill="#ccc"/><path d="m13.7 44.9c-.1.1-.3.1-.4 0s-.1-.3 0-.4.3-.1.4 0c.1.2.1.3 0 .4z" fill="#ccc"/><path d="m14.2 45.5c-.1.1-.3.1-.4 0s-.1-.3 0-.4.3-.1.4 0c.1.2.1.3 0 .4z" fill="#ccc"/><path d="m14.8 46.1c-.1.1-.3.1-.4 0s-.1-.3 0-.4.3-.1.4 0c.1.2.1.3 0 .4z" fill="#ccc"/><path d="m16 47.2c-.1.1-.3.1-.4 0s-.1-.3 0-.4.3-.1.4 0c.1.2.1.3 0 .4z" fill="#ccc"/><path d="m15.4 46.7c-.1.1-.3.1-.4 0s-.1-.3 0-.4.3-.1.4 0 .1.3 0 .4z" fill="#ccc"/><path d="m12.9 44.2h-.1v-.1l.1.1c.1 0 .1 0 0 0z" fill="#4e4e4e"/><path d="m13.5 44.8h-.1v-.1l.1.1c.1-.1.1 0 0 0z" fill="#4e4e4e"/><path d="m14.1 45.4h-.1v-.1l.1.1c.1-.1.1 0 0 0z" fill="#4e4e4e"/><path d="m14.7 46h-.1v-.1z" fill="#4e4e4e"/><path d="m15.8 47.1h-.1v-.1l.1.1c.1-.1.1 0 0 0z" fill="#4e4e4e"/><path d="m15.3 46.6h-.1v-.1z" fill="#4e4e4e"/><g fill="#333"><path d="m19.5 53h.1c0-.4.2-.8.5-1.1.7-.7 1.8-.7 2.4 0 .7.7.7 1.8 0 2.4-.2.2-.6.4-.9.5v.1c.4-.1.7-.2 1-.5.7-.7.7-1.9 0-2.6s-1.9-.7-2.6 0c-.3.4-.4.8-.5 1.2z"/><path d="m22.6 51.9.1.1.2-.2-.1-.1z"/><path d="m21.7 51.4.2.1v-.3h-.1z"/><path d="m20.7 51.5h.1v-.3l-.2.1z"/><path d="m19.9 52.1.1-.1-.2-.1-.1.1z"/><path d="m23.1 52.8.2-.2.1.2z"/><path d="m23 53.8.1-.1.2.1v.1z"/><path d="m22.4 54.6.1-.1.2.2-.1.1z"/><path d="m19.7 53-.3-.1v.1z"/><path d="m21.6 54.9h.2v.2l-.2.1z"/><path d="m20.2 52.1c-.6.6-.6 1.6 0 2.2s1.6.6 2.2 0 .6-1.6 0-2.2-1.6-.6-2.2 0z"/></g><path d="m20.3 52.2c-.6.6-.6 1.5 0 2 .6.6 1.5.6 2 0 .6-.6.6-1.5 0-2-.5-.6-1.4-.6-2 0z" fill="#1a1a1a"/><path d="m20.6 52.4c-.4.4-.4 1.1 0 1.6.4.4 1.1.4 1.6 0 .4-.4.4-1.1 0-1.6-.5-.4-1.2-.4-1.6 0z" fill="#333"/><path d="m20.5 53.3c-.1.1-.1.2 0 .3s.2.1.3 0 .1-.2 0-.3-.3-.1-.3 0z" fill="#1a1a1a"/><path d="m14.4 55.8h.1c0-.4.2-.8.5-1.1.7-.7 1.8-.7 2.4 0 .7.7.7 1.8 0 2.4-.2.2-.6.4-.9.5v.1c.4-.1.7-.2 1-.5.7-.7.7-1.9 0-2.6s-1.9-.7-2.6 0c-.2.4-.4.8-.5 1.2z" fill="#333"/><path d="m17.5 54.7.1.1.2-.1-.1-.1z" fill="#333"/><path d="m16.6 54.3h.2v-.3h-.1z" fill="#333"/><path d="m15.6 54.3h.2l-.1-.2h-.1z" fill="#333"/><path d="m14.8 55 .1-.1-.2-.2-.1.1z" fill="#333"/><path d="m18 55.7v-.2h.2l.1.1z" fill="#333"/><path d="m17.9 56.7.1-.2.2.1v.1z" fill="#333"/><path d="m17.3 57.5.1-.1.2.1-.1.1z" fill="#333"/><path d="m14.6 55.8-.3-.1v.1z" fill="#333"/><path d="m16.5 57.7h.2v.3h-.2z" fill="#333"/><path d="m15.1 54.9c-.6.6-.6 1.6 0 2.2s1.6.6 2.2 0 .6-1.6 0-2.2c-.5-.6-1.5-.6-2.2 0z" fill="#333"/><path d="m15.2 55c-.6.6-.6 1.5 0 2 .6.6 1.5.6 2 0 .6-.6.6-1.5 0-2-.5-.6-1.4-.6-2 0z" fill="#1a1a1a"/><path d="m15.5 55.2c-.4.4-.4 1.1 0 1.6.4.4 1.1.4 1.6 0 .4-.4.4-1.1 0-1.6-.5-.4-1.2-.4-1.6 0z" fill="#333"/><path d="m15.4 56.1c-.1.1-.1.2 0 .3s.2.1.3 0 .1-.2 0-.3c-.1 0-.2 0-.3 0z" fill="#1a1a1a"/><path d="m57.6 7.8c.1 0 .4-.1.6-.4.3-.3.4-.5.3-.6 0-.1-.3-.4-.4-.4s-.3 0-.6.3c-.4.4-.4.5-.4.6.1.1.4.4.5.5z" fill="#ccc"/><path d="m58.4 6.6c-.1-.1-.2-.2-.2-.2-.1 0-.3 0-.6.3-.4.4-.4.5-.4.6 0 0 .1.1.2.2z" fill="#989898"/><path d="m57.5 7.5c-.1-.1-.1-.2-.2-.2 0-.1 0-.2.3-.5s.5-.3.5-.3.1.1.2.1c.1.1.1.1.1.2 0 0-.1.2-.3.5-.2.2-.4.3-.6.2.1.1.1.1 0 0z" fill="#989898"/><path d="m58.3 6.7c-.1-.1-.1-.1-.2-.1 0 0-.2 0-.5.3s-.3.4-.3.5c0 0 .1.1.1.2z" fill="#ccc"/><path d="m52.7 2.7c.1 0 .4-.1.6-.4.3-.3.4-.5.3-.6 0-.1-.3-.4-.4-.4s-.3 0-.6.3c-.4.4-.4.5-.4.6.1.1.4.5.5.5z" fill="#ccc"/><path d="m53.5 1.5c-.1-.1-.2-.2-.2-.2-.1 0-.3 0-.6.3-.4.4-.4.5-.4.6 0 0 .1.1.2.2z" fill="#989898"/><path d="m52.6 2.4c-.1-.1-.1-.2-.2-.2 0-.1 0-.2.3-.5s.5-.3.5-.3.1.1.2.1c.1.1.1.1.1.2 0 0-.1.2-.3.5-.2.2-.4.3-.5.3 0 0 0 0-.1-.1z" fill="#989898"/><path d="m53.4 1.6c-.1-.1-.1-.1-.2-.1 0 0-.2 0-.5.3s-.3.4-.3.5c0 0 .1.1.1.2z" fill="#ccc"/><path d="m51.1 4.6c.1 0 .4-.1.6-.4.3-.2.3-.5.3-.6s-.3-.4-.4-.4-.3 0-.6.3c-.4.4-.4.5-.4.6.1.2.4.5.5.5z" fill="#ccc"/><path d="m51.9 3.4c-.1-.1-.2-.2-.2-.2-.1 0-.3 0-.6.3-.4.4-.4.5-.4.6 0 0 .1.1.2.2z" fill="#989898"/><path d="m50.9 4.3c-.1-.1-.1-.2-.2-.2 0-.1 0-.2.3-.5s.5-.3.5-.3.1.1.2.1c.1.1.1.1.1.2 0 0-.1.2-.3.5-.2.2-.4.3-.5.3.1.1 0 0-.1-.1z" fill="#989898"/><path d="m51.8 3.5c-.1-.1-.1-.1-.2-.1 0 0-.2 0-.5.3s-.3.4-.3.5c0 0 .1.1.1.2z" fill="#ccc"/><path d="m49.3 6.2c.1 0 .4-.1.6-.4.3-.3.4-.5.3-.6 0-.1-.3-.4-.4-.4s-.3 0-.6.3c-.4.4-.4.5-.4.6.1.1.4.5.5.5z" fill="#ccc"/><path d="m50.1 5c-.1-.1-.2-.2-.2-.2-.1 0-.3 0-.6.3-.4.4-.4.5-.4.6 0 0 .1.1.2.2z" fill="#989898"/><path d="m49.2 5.9c-.1-.1-.1-.2-.2-.2 0-.1 0-.2.3-.5.4-.2.5-.2.6-.2 0 0 .1.1.2.1.1.1.1.1.1.2 0 0-.1.2-.3.5-.2.2-.4.3-.5.3-.1-.1-.1-.1-.2-.2z" fill="#989898"/><path d="m50 5.1c-.1-.1-.1-.1 0 0-.1-.1-.3-.1-.6.2-.3.2-.4.4-.4.5 0 0 .1.1.1.2z" fill="#ccc"/><path d="m55.7 9.3c.1 0 .4-.1.6-.4.3-.3.4-.5.3-.6 0-.1-.3-.4-.4-.4s-.3 0-.6.3-.4.5-.4.6c.1.2.5.5.5.5z" fill="#ccc"/><path d="m56.5 8.1s-.1-.1-.2-.1-.3 0-.6.3-.4.5-.4.6c0 0 .1.1.2.2z" fill="#989898"/><path d="m55.6 9.1c-.1-.1-.1-.2-.2-.2 0-.1 0-.2.3-.5s.5-.3.5-.3.1.1.2.1c.1.1.1.1.1.2 0 0-.1.2-.3.5-.2.2-.4.3-.5.3.1 0 0-.1-.1-.1z" fill="#989898"/><path d="m56.4 8.2c-.1-.1-.1-.1-.2-.1 0 0-.2 0-.5.3s-.3.4-.3.5c0 0 .1.1.1.2z" fill="#ccc"/><path d="m54.1 11.2c.1 0 .4-.1.6-.4.3-.3.4-.5.3-.6 0-.1-.3-.4-.4-.4s-.3 0-.6.3c-.4.4-.4.5-.4.6.1.1.4.5.5.5z" fill="#ccc"/><path d="m54.9 10c-.1-.1-.2-.2-.2-.2-.1 0-.3 0-.6.3-.4.4-.4.5-.4.6 0 0 .1.1.2.2z" fill="#989898"/><path d="m54 10.9c-.1-.1-.1-.2-.2-.2 0-.1 0-.2.3-.5s.5-.3.5-.3.1.1.2.1c.1.1.1.1.1.2 0 0-.1.2-.3.5s-.4.3-.5.3c0 0-.1 0-.1-.1z" fill="#989898"/><path d="m54.8 10.1c-.1-.1-.1-.1-.2-.1 0 0-.2 0-.5.3s-.3.4-.3.5c0 0 .1.1.1.2z" fill="#ccc"/><path d="m50.9 7c-.1.1-.3.1-.3-.1-.1-.1-.1-.3 0-.3.1-.1.3-.1.3.1.1.1.1.3 0 .3z" fill="#818181"/><path d="m54.4 3.5c-.1.1-.3.1-.3-.1-.1-.1-.1-.3 0-.3.1-.1.3-.1.3.1.1.1.1.2 0 .3z" fill="#818181"/><path d="m56.9 6.1c-.1.1-.3.1-.3-.1-.1-.1-.1-.3 0-.3.1-.1.3-.1.3.1.2 0 .1.2 0 .3z" fill="#818181"/><path d="m55 7.7c-.1.1-.3.1-.3-.1-.1-.1-.1-.3 0-.3.1-.1.3-.1.3.1.2.1.1.3 0 .3z" fill="#818181"/><path d="m52.7 5.4c-.1.1-.3.1-.3-.1-.1-.1-.1-.3 0-.3.1-.1.3-.1.3.1.1.1.1.2 0 .3z" fill="#818181"/><path d="m53.4 9.6c-.1.1-.3.1-.3-.1-.1-.1-.1-.3 0-.3.1-.1.3-.1.3.1.1 0 .1.2 0 .3z" fill="#818181"/></svg>