<svg enable-background="new 0 0 60 60" height="60" viewBox="0 0 60 60" width="60" xmlns="http://www.w3.org/2000/svg"><path d="m6.4 54.7c-.3-.3-.6-.6-.9-.9-2.1-2.3-3.6-4.5-4.5-6.7-.8-1.9-1.1-3.7-.9-5.4.4-3.5 2.6-5.5 3.6-6.1 2.9-1.8 5.8-2.6 8.1-3.2 2.1-.5 3.8-1 5-2 .8-.7 1.2-1.5 1.6-2.4.5-1 1-2.1 2.2-3.4 1.6-1.7 4.7-2.6 7.9-.6 1.3.8 2.1 1.5 2.4 1.8.1.1.2.2.2.2l.2 5.7s-1.1 2.6.7 4.5c.8.8 1.5.8 2.2.7.1 0 .2 0 .3-.1.5-.1 1-.2 1.4.2 0 0 0 0 .1.1.3.3.4.7.3 1.1-.2.9-1.1 2-2.1 2.4-.1 0-.2.1-.3.1-1.5.7-3.2 1.4-4.6 2.7-1.1 1.1-1.7 3-2.3 5.2-.6 2.3-1.4 4.8-2.9 7.1-1.6 2.4-3.8 3.8-6.4 4.1-3.7.5-7.5-1.3-11.3-5.1z" fill="#063e89"/><path d="m28.5 41c2.6-4.3 1.8-8.3 1.8-8.3l-1.6 1.5c.5 1.8.2 2.4-1.5 3.9s-2.5 1.7-4.2 1.1l-2.6 2.5c-.5.5-.6 1.1-.2 1.6 0 0 2.3 2.3 3.2 2.7.4.1.7 0 .9-.1.6-.2 1.8-.8 4.2-4.9z" fill="#4d4d4d"/><path d="m28.6 41c2.6-4.3 1.8-8.3 1.8-8.3l-9.9 9c-.5.5-.6 1.1-.2 1.6 0 0 2.3 2.3 3.2 2.7.4.1.7 0 .9-.1.6-.3 1.8-.9 4.2-4.9z" fill="#232323"/><path d="m21.5 38.3c-1.7-1.7-1.7-4.5 0-6.3 1.7-1.7 4.5-1.7 6.3 0 1.7 1.7 1.7 4.5 0 6.3-1.7 1.7-4.6 1.7-6.3 0zm5.6-5.6c-1.4-1.4-3.6-1.4-5 0s-1.4 3.6 0 5 3.6 1.4 5 0 1.4-3.7 0-5z" fill="#d89900"/><path d="m22.2 37.7c-1.4-1.4-1.4-3.6 0-5s3.6-1.4 5 0l.6-.6c-1.7-1.7-4.5-1.7-6.3 0-1.7 1.7-1.7 4.5 0 6.3z" fill="#e4b84e"/><path d="m27.7 32.1c1.7 1.7 1.7 4.5 0 6.2s-4.5 1.7-6.2 0-1.7-4.5 0-6.2c1.8-1.7 4.5-1.7 6.2 0zm-5.6 5.6c1.4 1.4 3.7 1.4 5.1 0s1.4-3.7 0-5.1-3.7-1.4-5.1 0-1.4 3.7 0 5.1zm5.7-5.7c-1.7-1.7-4.6-1.7-6.3 0s-1.7 4.6 0 6.3 4.6 1.7 6.3 0c1.8-1.7 1.8-4.6 0-6.3zm-5.6 5.6c-1.4-1.4-1.4-3.6 0-4.9 1.4-1.4 3.6-1.4 4.9 0 1.4 1.4 1.4 3.6 0 4.9-1.3 1.4-3.6 1.4-4.9 0z" fill="#e4b84e"/><path d="m22.1 32.6c-1.4 1.4-1.4 3.7 0 5.1l.1-.1c-1.4-1.3-1.4-3.5-.1-5 1.4-1.3 3.6-1.3 5 .1l.1-.1c-1.4-1.4-3.7-1.4-5.1 0z" fill="#d89900"/><path d="m21.6 38.3c-1.7-1.7-1.7-4.5 0-6.2s4.5-1.7 6.2 0l.1-.1c-1.7-1.7-4.6-1.7-6.3 0-1.9 1.7-1.9 4.6 0 6.3z" fill="#d89900"/><path d="m27 37.5c-1.3 1.3-3.4 1.3-4.7 0s-1.3-3.4 0-4.7 3.4-1.3 4.7 0 1.3 3.4 0 4.7z" fill="#4d4d4d"/><path d="m27 32.8-.1-.1c1.2 1.3 1.2 3.3-.1 4.6s-3.3 1.3-4.6.1l.1.1c1.3 1.3 3.4 1.3 4.7 0s1.3-3.4 0-4.7z"/><path d="m57.2 6.6.4.2-.1.1z" fill="#999"/><path d="m55.3 7.8-.1.2.5.5.2-.2z" fill="#999"/><path d="m53.8 9.8-.1.1.4.4.1-.1z" fill="#999"/><path d="m50.3 6.1-.5-.3.1-.1z" fill="#b3b3b3"/><path d="m52.2 4.6-.6-.4.1-.1z" fill="#b3b3b3"/><path d="m53.2 2.3.4.2-.1.1z" fill="#b3b3b3"/><path d="m56.4 7.3c2-1.7 3.6-2.4 3.6-2.4s-.7-.7-1-1.3c-.1-.3-.1-.6-.3-1.1-.2-.3-.8-.5-.8-.5s-.1-.6-.6-.8c-.4-.2-.7-.1-1.1-.3s-1.2-.9-1.2-.9-.7 1.6-2.4 3.6c-1.8 2.1-3 2.8-3 2.8s0 .6-.2 1.4c-.3 1.1-.9 1.5-.9 1.5l2.2 2.2s.5-.6 1.5-.9c.8-.2 1.4-.2 1.4-.2s.7-1.2 2.8-3.1z" fill="#6b2929"/><path d="m49.1 9.2c.2-.3.5-.7.7-1.4.2-.6.2-1 .2-1.3.4-.3 1.5-1.1 2.9-2.7 1.2-1.4 1.9-2.6 2.2-3.2.3.2.7.6 1 .7.2.1.4.1.6.2.2 0 .3.1.5.1 0 0 .1 0 .1.1.1.1.2.4.2.4v.2l.2.1c.1 0 .3.1.5.3l.1.1c.1.2.1.3.1.5s.1.4.2.6c.2.3.5.7.7 1-.6.3-1.8 1-3.2 2.2-1.7 1.5-2.5 2.5-2.7 2.9-.2 0-.7.1-1.2.2-.7.2-1.1.5-1.4.7z" fill="#4f0000"/><path d="m51 7.2c-.2.1-.5.1-.6-.1s-.1-.5.1-.6.5-.1.6.1c.2.2.1.5-.1.6z" fill="#b3b3b3"/><path d="m54.5 3.7c-.2.1-.5.1-.6-.1-.2-.2-.1-.5.1-.6s.5-.1.6.1.1.4-.1.6z" fill="#b3b3b3"/><path d="m57 6.2c-.2.1-.5.1-.6-.1s-.1-.5.1-.6.5-.1.6.1c.2.2.1.5-.1.6z" fill="#b3b3b3"/><path d="m55.2 7.9c-.2.1-.5.1-.7-.1-.1-.2-.1-.5.1-.6s.5-.1.6.1c.2.2.2.5 0 .6z" fill="#b3b3b3"/><path d="m52.8 5.6c-.2.1-.5.1-.6-.1-.2-.2-.1-.5 0-.7.2-.1.5-.1.6.1.2.2.2.5 0 .7z" fill="#b3b3b3"/><path d="m53.5 9.7c-.2.1-.5.1-.6-.1-.2-.2-.1-.4.1-.6.2-.1.5-.1.6.1s.1.5-.1.6z" fill="#b3b3b3"/><path d="m20.4 47.3c-.3-.9-7-7.7-7.9-7.9-.9-.3-1.3.4-1 1 .3.5 1.1.3 1.5 1s-.4 1.8 1.6 3.8 3 1.2 3.8 1.6.5 1.1 1 1.5c.6.3 1.3-.1 1-1z" fill="#814949"/><path d="m14.8 44.9c-1.3-1.3-1.3-2.1-1.4-2.8 0-.3 0-.6-.2-.9-.1-.1-.2-.3-.3-.4-.2-.2-.5-.3-.8-.4-.2-.1-.3-.1-.4-.2 0 0 0 0-.1-.1s-.1-.3 0-.4.3-.2.6-.1 1.8 1.4 4.1 3.6c2.2 2.2 3.5 3.8 3.6 4.1s.1.5-.1.6c-.1.1-.2.1-.4 0 0 0 0 0-.1-.1s-.1-.2-.2-.4-.2-.5-.4-.8c-.1-.1-.2-.2-.4-.3-.3-.2-.7-.2-1-.2-.4.1-1.2.1-2.5-1.2z" fill="#6a2828"/><path d="m16.7 43.1c-1.8-1.8-3.8-3.6-4.2-3.7-.9-.3-1.3.4-1 1 .3.5 1.1.3 1.5 1s-.4 1.8 1.6 3.8z" fill="#6a2828"/><path d="m16.5 43.3c-2.2-2.2-3.8-3.6-4.1-3.7s-.5-.1-.6.1c-.1.1-.1.2 0 .4 0 0 0 .1.1.1.1.1.2.1.4.2s.5.2.8.4c.1.1.2.2.3.4.2.3.2.6.2.9 0 .7.1 1.5 1.4 2.8z" fill="#814949"/><path d="m14.4 42 .1-.1 3.5 3.5-.1.1z" fill="#808080"/><path d="m14.5 41.9.1-.1 3.5 3.5-.1.1z" fill="#b3b3b3"/><path d="m28 35.3-3.3-3.4 23.6-22.4 2.2 2.2z" fill="#4f0000"/><path d="m49.4 10.5-1.1-1-23.6 22.4 1.6 1.7z" fill="#662121"/><path d="m48.9 13.4-2.3-2.3.1-.1 2.3 2.3z"/><path d="m47.3 15-2.4-2.3.1-.1 2.4 2.3z"/><path d="m45.9 16.6-2.5-2.5.1-.1 2.5 2.5z"/><path d="m44.5 18-2.6-2.5.1-.1z"/><path d="m43.1 19.5-2.6-2.6v-.1l2.6 2.6z"/><path d="m41.8 20.8-2.7-2.7h.1l2.7 2.6z"/><path d="m40.6 22.1-2.7-2.7v-.1l2.8 2.7z"/><path d="m39.4 23.3-2.8-2.8.1-.1 2.8 2.8z"/><path d="m38.3 24.5-2.8-2.9.1-.1 2.8 2.9z"/><path d="m37.3 25.5-2.9-2.9.1-.1 2.9 2.9z"/><path d="m36.4 26.5-3-2.9.1-.1 2.9 2.9z"/><path d="m35.5 27.4-3-2.9.1-.1z"/><path d="m34.6 28.4-3-3.1h.1l3 3z"/><path d="m33.8 29.2-3.1-3 .1-.1 3 3z"/><path d="m32.9 30.1-3.1-3.1.1-.1 3.1 3.1z"/><path d="m32.2 30.9-3.2-3.2h.1l3.2 3.1z"/><path d="m31.5 31.6-3.2-3.1.1-.1 3.1 3.1z"/><path d="m30.7 32.4-3.2-3.2.1-.1 3.2 3.2z"/><path d="m30 33.1-3.2-3.2v-.1l3.3 3.2z"/><path d="m29.3 33.9-3.3-3.2v-.1z"/><path d="m28.6 34.6-3.3-3.3.1-.1 3.3 3.3z"/><g fill="#e6e6e6"><path d="m49 13.3-2.3-2.3.1-.1 2.3 2.3z"/><path d="m47.4 15-2.4-2.4.1-.1 2.3 2.4z"/><path d="m45.9 16.5-2.4-2.4v-.1l2.5 2.4z"/><path d="m44.5 18-2.5-2.5.1-.1 2.5 2.5z"/><path d="m43.1 19.5-2.6-2.6.1-.1 2.6 2.6z"/><path d="m41.9 20.8-2.7-2.7.1-.1 2.6 2.7z"/><path d="m40.6 22-2.7-2.7.1-.1z"/><path d="m39.5 23.3-2.8-2.8.1-.1 2.7 2.8z"/><path d="m38.3 24.4-2.8-2.8.1-.1 2.8 2.8z"/><path d="m37.4 25.5-2.9-2.9.1-.1 2.8 2.9z"/><path d="m36.4 26.5-2.9-3 .1-.1 2.9 3z"/><path d="m35.5 27.4-3-3 .1-.1 3 3z"/><path d="m34.6 28.3-3-3 .1-.1 3 3z"/><path d="m33.8 29.2-3.1-3.1h.1l3.1 3z"/><path d="m33 30-3.1-3v-.1z"/><path d="m32.2 30.8-3.1-3.1.1-.1 3.1 3.1z"/><path d="m31.5 31.6-3.2-3.2.1-.1 3.2 3.2z"/><path d="m30.7 32.4-3.2-3.2.1-.1 3.2 3.2z"/><path d="m30.1 33.1-3.3-3.2.1-.1 3.2 3.2z"/><path d="m29.3 33.9-3.3-3.3.1-.1 3.3 3.3z"/><path d="m28.6 34.6-3.3-3.3.1-.1 3.3 3.3z"/><path d="m48.3 9.5.3-.3 2.3 2.3-.3.3z"/></g><path d="m48.8 9.3-34.5 33.4 34.5-33.4 2-2.2.1-.1z" fill="none" stroke="#b3b3b3" stroke-miterlimit="10" stroke-width=".1"/><path d="m49.1 9.7-34.2 33.5 34.2-33.5 3.4-4.3h.1z" fill="none" stroke="#b3b3b3" stroke-miterlimit="10" stroke-width=".1"/><path d="m49.5 10.1-34 33.7 34-33.7 4.8-6.5h.1z" fill="none" stroke="#b3b3b3" stroke-miterlimit="10" stroke-width=".1"/><path d="m50.6 11.3-33.3 34.2 33.3-34.2 2.4-2v-.1z" fill="none" stroke="#b3b3b3" stroke-miterlimit="10" stroke-width=".1"/><path d="m50.3 10.9-33.6 34.1 33.6-34.1 4.4-3.4.1-.2z" fill="none" stroke="#b3b3b3" stroke-miterlimit="10" stroke-width=".1"/><path d="m49.9 10.5-33.8 33.9 33.8-33.9 6.8-4.7v-.1z" fill="none" stroke="#b3b3b3" stroke-miterlimit="10" stroke-width=".1"/><path d="m50.9 7c-.1.1-.3.1-.3-.1-.1-.1-.1-.3 0-.3.1-.1.3-.1.3.1.1.1.1.3 0 .3z" fill="#808080"/><path d="m54.4 3.5c-.1.1-.3.1-.3-.1-.1-.1-.1-.3 0-.3.1-.1.3-.1.3.1.1.1.1.2 0 .3z" fill="#808080"/><path d="m56.9 6.1c-.1.1-.3.1-.3-.1-.1-.1-.1-.3 0-.3.1-.1.3-.1.3.1.2 0 .1.2 0 .3z" fill="#808080"/><path d="m55 7.7c-.1.1-.3.1-.3-.1-.1-.1-.1-.3 0-.3.1-.1.3-.1.3.1.2.1.1.3 0 .3z" fill="#808080"/><path d="m52.7 5.4c-.1.1-.3.1-.3-.1-.1-.1-.1-.3 0-.3.1-.1.3-.1.3.1.1.1.1.2 0 .3z" fill="#808080"/><path d="m53.4 9.6c-.1.1-.3.1-.3-.1-.1-.1-.1-.3 0-.3.1-.1.3-.1.3.1.1 0 .1.2 0 .3z" fill="#808080"/><path d="m14.6 42.8c-.1.1-.3.1-.4 0s-.1-.3 0-.4.3-.1.4 0 .1.3 0 .4z" fill="#ccc"/><path d="m15.2 43.4c-.1.1-.3.1-.4 0s-.1-.3 0-.4.3-.1.4 0 .1.3 0 .4z" fill="#ccc"/><path d="m15.8 44c-.1.1-.3.1-.4 0s-.1-.3 0-.4.3-.1.4 0 .1.3 0 .4z" fill="#ccc"/><path d="m16.4 44.6c-.1.1-.3.1-.4 0s-.1-.3 0-.4.3-.1.4 0 .1.3 0 .4z" fill="#ccc"/><path d="m17.5 45.7c-.1.1-.3.1-.4 0s-.1-.3 0-.4.3-.1.4 0 .1.3 0 .4z" fill="#ccc"/><path d="m17 45.2c-.1.1-.3.1-.4 0s-.1-.3 0-.4.3-.1.4 0 .1.3 0 .4z" fill="#ccc"/><path d="m14.5 42.7h-.1v-.1z" fill="#4d4d4d"/><path d="m15.1 43.3h-.1v-.1z" fill="#4d4d4d"/><path d="m15.7 43.9h-.1v-.1z" fill="#4d4d4d"/><path d="m16.2 44.5h-.1v-.1l.1.1c.1-.1.1-.1 0 0z" fill="#4d4d4d"/><path d="m17.4 45.6h-.1v-.1z" fill="#4d4d4d"/><path d="m16.8 45h-.1v-.1l.1.1c.1 0 .1 0 0 0z" fill="#4d4d4d"/><path d="m57.6 7.8c.1 0 .4-.1.6-.4.3-.3.4-.5.3-.6 0-.1-.3-.4-.4-.4s-.3 0-.6.3c-.4.4-.4.5-.4.6.1.1.4.4.5.5z" fill="#ccc"/><path d="m58.4 6.6c-.1-.1-.2-.2-.2-.2-.1 0-.3 0-.6.3-.4.4-.4.5-.4.6 0 0 .1.1.2.2z" fill="#999"/><path d="m57.5 7.5c-.1-.1-.1-.2-.2-.2 0-.1 0-.2.3-.5s.5-.3.5-.3.1.1.2.1c.1.1.1.1.1.2 0 0-.1.2-.3.5-.2.2-.4.3-.6.2.1.1.1.1 0 0z" fill="#999"/><path d="m58.3 6.7c-.1-.1-.1-.1-.2-.1 0 0-.2 0-.5.3s-.3.4-.3.5c0 0 .1.1.1.2z" fill="#ccc"/><path d="m52.7 2.7c.1 0 .4-.1.6-.4.3-.3.4-.5.3-.6 0-.1-.3-.4-.4-.4s-.3 0-.6.3c-.4.4-.4.5-.4.6.1.1.4.4.5.5z" fill="#ccc"/><path d="m53.5 1.5c-.1-.1-.2-.2-.2-.2-.1 0-.3 0-.6.3-.4.4-.4.5-.4.6 0 0 .1.1.2.2z" fill="#999"/><path d="m52.6 2.4c-.1-.1-.1-.2-.2-.2 0-.1 0-.2.3-.5s.5-.3.5-.3.1.1.2.1c.1.1.1.1.1.2 0 0-.1.2-.3.5-.2.2-.4.3-.5.3 0 0 0 0-.1-.1z" fill="#999"/><path d="m53.4 1.6c-.1-.1-.1-.1-.2-.1 0 0-.2 0-.5.3s-.3.4-.3.5c0 0 .1.1.1.2z" fill="#ccc"/><path d="m51.1 4.6c.1 0 .4-.1.6-.4.3-.2.3-.5.3-.6s-.3-.4-.4-.4-.3 0-.6.3c-.4.4-.4.5-.4.6.1.2.4.5.5.5z" fill="#ccc"/><path d="m51.8 3.4c-.1-.1-.2-.2-.2-.2-.1 0-.3 0-.6.3-.4.4-.4.5-.4.6 0 0 .1.1.2.2z" fill="#999"/><path d="m50.9 4.3c-.1-.1-.1-.2-.2-.2 0-.1 0-.2.3-.5s.5-.3.5-.3.1.1.2.1c.1.1.1.1.1.2 0 0-.1.2-.3.5-.2.2-.4.3-.5.3.1.1 0 0-.1-.1z" fill="#999"/><path d="m51.8 3.5c-.1-.1-.1-.1-.2-.1 0 0-.2 0-.5.3s-.3.4-.3.5c0 0 .1.1.1.2z" fill="#ccc"/><path d="m49.3 6.2c.1 0 .4-.1.6-.4.3-.3.4-.5.3-.6 0-.1-.3-.4-.4-.4s-.3 0-.6.3c-.4.4-.4.5-.4.6.1.1.4.5.5.5z" fill="#ccc"/><path d="m50.1 5c-.1-.1-.2-.2-.2-.2-.1 0-.3 0-.6.3-.4.4-.4.5-.4.6 0 0 .1.1.2.2z" fill="#999"/><path d="m49.2 5.9c-.1-.1-.1-.2-.2-.2 0-.1 0-.2.3-.5.4-.2.5-.2.6-.2 0 0 .1.1.2.1.1.1.1.1.1.2 0 0-.1.2-.3.5-.2.2-.4.3-.5.3-.1-.1-.1-.1-.2-.2z" fill="#999"/><path d="m50 5.1c-.1-.1-.1-.1 0 0-.1-.1-.3-.1-.6.2-.3.2-.4.4-.4.5 0 0 .1.1.1.2z" fill="#ccc"/><path d="m55.8 9.3c.1 0 .4-.1.6-.4.3-.3.4-.5.3-.6 0-.1-.3-.4-.4-.4s-.3 0-.6.3c-.4.4-.4.5-.4.6 0 .2.4.5.5.5z" fill="#ccc"/><path d="m56.5 8.1s-.1-.1-.2-.1-.3 0-.6.3c-.4.4-.4.5-.4.6 0 0 .1.1.2.2z" fill="#999"/><path d="m55.6 9.1c-.1-.1-.1-.2-.2-.2 0-.1 0-.2.3-.5s.5-.3.5-.3.1.1.2.1c.1.1.1.1.1.2 0 0-.1.2-.3.5-.2.2-.4.3-.5.3.1 0 0-.1-.1-.1z" fill="#999"/><path d="m56.4 8.2c-.1-.1-.1-.1-.2-.1 0 0-.2 0-.5.3s-.3.4-.3.5c0 0 .1.1.1.2z" fill="#ccc"/><path d="m54.1 11.2c.1 0 .4-.1.6-.4.3-.3.4-.5.3-.6 0-.1-.3-.4-.4-.4s-.3 0-.6.3c-.4.4-.4.5-.4.6.1.1.4.5.5.5z" fill="#ccc"/><path d="m54.9 10c-.1-.1-.2-.2-.2-.2-.1 0-.3 0-.6.3-.4.4-.4.5-.4.6 0 0 .1.1.2.2z" fill="#999"/><path d="m54 10.9c-.1-.1-.1-.2-.2-.2 0-.1 0-.2.3-.5s.5-.3.5-.3.1.1.2.1c.1.1.1.1.1.2 0 0-.1.2-.3.5-.2.2-.4.3-.5.3 0 0-.1 0-.1-.1z" fill="#999"/><path d="m54.8 10.1c-.1-.1-.1-.1-.2-.1 0 0-.2 0-.5.3s-.3.4-.3.5c0 0 .1.1.1.2z" fill="#ccc"/></svg>