<svg enable-background="new 0 0 60 60" height="60" viewBox="0 0 60 60" width="60" xmlns="http://www.w3.org/2000/svg" xmlns:xlink="http://www.w3.org/1999/xlink"><linearGradient id="a" gradientTransform="matrix(.707 .7072 -.6992 .6993 -678.3019 781.529)" gradientUnits="userSpaceOnUse" x1="-31.1455" x2="-27.6045" y1="-1055.2201" y2="-1055.2201"><stop offset="0" stop-color="#333"/><stop offset=".5245" stop-color="#171717"/><stop offset="1" stop-color="#020202"/></linearGradient><path d="m56.9 8.4h-.2l-.1-.5h.2z" fill="#b4b4b4"/><path d="m56.2 7.9s.3.1.5 0c.3-.1.5-.2.5-.2 0-.1 0-.4-.1-.4 0 0-.2-.1-.5-.1-.4.1-.5.2-.5.2-.1.1 0 .5.1.5z" fill="#ccc"/><path d="m57.2 7.5c0-.1 0-.2-.1-.2 0 0-.2-.1-.5-.1-.4.1-.5.2-.5.2v.2z" fill="#989898"/><path d="m56.2 7.7c0-.1 0-.2 0-.2s.1-.1.4-.2.4 0 .4 0v.2.2s-.1.1-.4.2c-.2 0-.4 0-.4 0 0-.1 0-.1 0-.2z" fill="#989898"/><path d="m57.1 7.5c0-.1 0-.1 0-.2 0 0-.1-.1-.4 0s-.4.1-.4.2v.2z" fill="#ccc"/><path d="m55.4 8.6-.2-.5.1-.1z" fill="#b4b4b4"/><path d="m54.7 8.1s.3.1.5 0c.3-.1.5-.2.5-.2 0-.1 0-.4-.1-.4 0 0-.2-.1-.5-.1-.4.1-.5.2-.5.2 0 .1 0 .5.1.5z" fill="#ccc"/><path d="m55.7 7.7c0-.1 0-.2-.1-.2 0 0-.2-.1-.5-.1-.4.1-.5.2-.5.2v.2z" fill="#989898"/><path d="m54.7 7.9c0-.1 0-.2 0-.2s.1-.1.4-.2.4 0 .4 0v.2.2s-.1.1-.4.2c-.2 0-.4 0-.4 0 .1-.1 0-.1 0-.2z" fill="#989898"/><path d="m55.6 7.7c0-.1 0-.1 0-.2 0 0-.1-.1-.4 0s-.4.1-.4.2v.2z" fill="#ccc"/><path d="m53.9 8.8h-.2l-.1-.5h.2z" fill="#b4b4b4"/><path d="m53.2 8.3s.3.1.5 0c.3-.1.5-.2.5-.2 0-.1 0-.4-.1-.4 0 0-.2-.1-.5-.1-.4.1-.5.2-.5.2 0 .1 0 .5.1.5z" fill="#ccc"/><path d="m54.2 7.9c0-.1 0-.2-.1-.2 0 0-.2-.1-.5-.1-.4.1-.5.2-.5.2v.2z" fill="#989898"/><path d="m53.2 8.1c0-.1 0-.2 0-.2s.1-.1.4-.2.4 0 .4 0v.2.2s-.1.1-.4.2c-.2 0-.4 0-.4 0 0-.1 0-.1 0-.2z" fill="#989898"/><path d="m54.1 7.9c0-.1 0-.1 0-.2 0 0-.1-.1-.4 0s-.4.1-.4.2v.2z" fill="#ccc"/><path d="m52.4 9.1h-.2l-.1-.5.2-.1z" fill="#b4b4b4"/><path d="m51.6 8.6s.3.1.5 0c.3-.1.5-.2.5-.2 0-.1 0-.4-.1-.4 0 0-.2-.1-.5-.1-.4.1-.5.2-.5.2 0 .1.1.4.1.5z" fill="#ccc"/><path d="m52.6 8.2c0-.1 0-.2-.1-.2 0 0-.2-.1-.5-.1-.4.1-.5.2-.5.2v.2z" fill="#989898"/><path d="m51.7 8.4c0-.1 0-.2 0-.2s.1-.1.4-.2.4 0 .4 0v.2.2s-.1.1-.4.2c-.2 0-.4 0-.4 0 0-.1 0-.2 0-.2z" fill="#989898"/><path d="m52.5 8.2c0-.1 0-.1 0-.2 0 0-.1-.1-.4 0s-.4.1-.4.2v.2z" fill="#ccc"/><path d="m50.8 9.3h-.2l-.1-.5.2-.1z" fill="#b4b4b4"/><path d="m50.1 8.8s.3.1.5 0c.3-.1.5-.2.5-.2 0-.1 0-.4-.1-.4 0 0-.2-.1-.5-.1-.4.1-.5.2-.5.2 0 .1 0 .4.1.5z" fill="#ccc"/><path d="m51.1 8.4c0-.1 0-.2-.1-.2 0 0-.2-.1-.5-.1-.4.1-.5.2-.5.2v.2z" fill="#989898"/><path d="m50.1 8.6c0-.1 0-.2 0-.2s.1-.1.4-.2.4 0 .4 0v.2.2s-.1.1-.4.2c-.2 0-.4 0-.4 0 0-.1 0-.2 0-.2z" fill="#989898"/><path d="m51 8.4c0-.1 0-.1 0-.2 0 0-.1-.1-.4 0s-.4.1-.4.2v.2z" fill="#ccc"/><path d="m49.2 9.5-.2.1-.1-.6h.2z" fill="#b4b4b4"/><path d="m48.5 9.1s.3.1.5 0c.3-.1.5-.2.5-.2 0-.1 0-.4-.1-.4 0 0-.2-.1-.5-.1-.4.1-.5.2-.5.2 0 .1 0 .4.1.5z" fill="#ccc"/><path d="m49.5 8.6c0-.1 0-.2-.1-.2 0 0-.2-.1-.5-.1-.4.1-.5.2-.5.2v.2z" fill="#989898"/><path d="m48.5 8.8c0-.1 0-.2 0-.2s.1-.1.4-.2.4 0 .4 0v.2.2s-.1.1-.4.2c-.2 0-.4 0-.4 0s0-.1 0-.2z" fill="#989898"/><path d="m49.4 8.7c0-.1 0-.1 0-.2 0 0-.1-.1-.4 0s-.4.1-.4.2v.2z" fill="#ccc"/><path d="m32.7 31.3s-1.1 1.3-.5 2.4c.6 1 2.2 1 3.5 1.1 2 .1 3.5 0 4.4.1 1.1.1 1.9 1.1.4 1.8 0 0-4.5 2.2-7.1 3.6-2.7 1.4-4.6 2.2-5 2.6-.7.9-1.6 3.1-2.6 5.1-1 2.1-1.4 3.3-1.7 4-.3.6-.3 1.1-1.7.8s-3.8-.7-10.9-4.2c-4.1-2-9.5-5.7-10.7-6.6-.6-.5-1.6-1.1-.3-1.4s7-2.1 9.9-2.8c3.4-.9 8.7-2 9.8-2.9.7-.6 1.3-1.4 2.1-2.5s1.6-2 1.8-2.3.8-1.2 1.7-.9c.9.4 1.6.8 2.4.8.7 0 1.2-.4 1.2-.4z" fill="#333"/><path d="m31.5 30.1-18.9 18.9c-.2-.1-.8-.4-1-.4-4.1-2-9.5-5.7-10.7-6.6-.6-.5-1.6-1.1-.3-1.4s7-2.1 9.9-2.8c3.4-.9 8.7-2 9.8-2.9.7-.6 1.3-1.4 2.1-2.5s1.6-2 1.8-2.3.8-1.2 1.7-.9c.9.4 1.6.8 2.4.8.7 0 1.2-.4 1.2-.4z" fill="#1a1a1a"/><path d="m.4 41.2c-.1-.1-.1-.2-.1-.2s.1-.1.4-.2c.6-.2 2.1-.6 3.9-1.1 2.1-.6 4.5-1.3 6-1.7.8-.2 1.8-.5 2.8-.7 3.1-.8 6.2-1.5 7.1-2.2.6-.5 1.1-1.1 1.6-1.9.2-.2.3-.4.5-.6.3-.4.6-.8.9-1.2.4-.6.8-1 .9-1.2.3-.5.8-1 1.4-.8.2.1.4.2.6.3.6.3 1.2.6 1.9.6.6 0 1-.2 1.2-.3l2.7 1.5c-.3.5-.8 1.5-.3 2.4.1.1.2.3.3.4.7.7 2 .8 3.1.8h.3 2.7 1.7c.3 0 .6.2.8.3.1.1.2.2.1.3 0 .2-.3.4-.6.6-.1 0-4.5 2.2-7.1 3.6-.9.5-1.7.9-2.4 1.2-1.6.8-2.4 1.2-2.7 1.5-.6.7-1.3 2.3-2 3.9-.2.4-.4.8-.6 1.2-.6 1.4-1 2.4-1.3 3.1-.1.4-.3.7-.4.9 0 .1-.1.1-.1.2-.2.4-.3.7-1.3.4-.1 0-.2 0-.2 0-1.5-.3-3.9-.8-10.6-4.1-4-2-9.5-5.7-10.7-6.6-.1 0-.1-.1-.2-.1 0-.1-.2-.2-.3-.3z" fill="#c12127"/><path d="m32.3 35c.7.2 1.4.2 2 .2 1.8.1 4.9.1 5.7.1.5 0 1.2.5.3.9 0 0-5.6 2.6-8 3.8-1.8.9-6 2.8-7.4 3.5-.3.1-.4.1-.5 0-.2-.2-.6-.6-.9-.9-.4-.4-.5-.4-.2-.7.3-.4.4-.4 1.4-1.5.8-.9 1.3-1.3 1.4-1.5.2-.2.4-.3.1-.6s-.9-.9-1.5-1.5-.7-.7-.9-.9-.3-.3-.1-.5c.3-.3.7-.7 1.3-1.3s.6-.5.7-.7.3-.3.5 0l1.3 1.3c.4.4.7.7.9 1s.4.4.6.3c.2-.2 1.4-1.4 1.6-1.7.2-.2.3-.3.4-.2.3.3.6.7 1.3.9z" fill="#e6e6e5"/><path d="m47.9 11.9s.4-.3.3-.9c0-.3-.1-.7-.3-1.1 0-.1-.1-.2 0-.3s.2-.2.4-.2c.3 0 2.9-.4 4.8-.7.3-.1.7-.1 1.1-.2 1.9-.2 3.8-.5 4.7 0 .3.2.5.3.7.5s.3.4.4.4v.5c-.1.2-.3.3-.6.4-.1 0-.2 0-.3.1-.8.2-3 .6-4.5 1.2-1.9.7-3.9 1.6-4.6 2-.1.1-.3.2-.3.2z" fill="#333"/><path d="m47.9 11.9s.4-.3.3-.9c0-.3-.1-.7-.3-1.1 0-.1-.1-.2 0-.3s.2-.2.4-.2c.3 0 2.9-.4 4.8-.7.3-.1.7-.1 1.1-.2 1.9-.2 3.8-.5 4.7 0 .3.2.5.3.7.5 0 0-3.5.4-6.2 1.4-2.6.9-4.5 2.4-4.5 2.4z" fill="#010101"/><path d="m48 12s.5-.3.5-1c0-.6-.2-1-.3-1.2-.1-.1-.1-.2.2-.2s2.9-.4 4.8-.7 4.5-1 5.5-.3c.7.4.9.8 1 .9s.2.4-.4.5-3.1.6-4.8 1.2c-1.9.7-4 1.6-4.7 2.1-.1.1-.3.2-.3.2z" fill="#010101"/><path d="m48 12s.5-.3.5-1c0-.6-.2-1-.3-1.2-.1-.1-.1-.2.2-.2s2.9-.4 4.8-.7 4.5-1 5.5-.3c.2.1.4.3.5.4 0 0-2.7.3-6 1.4-2.6.9-4.5 2.4-4.5 2.4z" fill="#333"/><path d="m57.1 9.4c-.2.1-.4.1-.5-.1s-.1-.4.1-.5.4-.1.5.1.1.4-.1.5z" fill="#ccc"/><path d="m55.6 9.6c-.2.1-.4.1-.5-.1-.1-.1-.1-.4.1-.5s.4-.1.5.1.1.4-.1.5z" fill="#ccc"/><path d="m54.1 9.9c-.2.1-.4.1-.5-.1s-.1-.4.1-.5.4-.1.5.1c0 .1 0 .3-.1.5z" fill="#ccc"/><path d="m52.6 10.1c-.2.1-.4.1-.5-.1s-.1-.4.1-.5.4-.1.5.1c0 .2 0 .4-.1.5z" fill="#ccc"/><path d="m51.1 10.4c-.2.1-.4.1-.5-.1s-.1-.4.1-.5.4-.1.5.1c.1.1 0 .4-.1.5z" fill="#ccc"/><path d="m49.7 10.6c-.2.1-.4.1-.5-.1-.2-.2-.2-.4 0-.5s.4-.1.5.1c.1.1.1.4 0 .5z" fill="#ccc"/><path d="m24.7 43c.1 0 .1.1.1.1 0 .1-.1.1-.1.1-.1 0-.1-.1-.1-.1s0-.1.1-.1z" fill="#818181"/><path d="m24.7 43v.2z" fill="#4e4e4e"/><path d="m29.6 40.7c0-.1.1-.1.1-.1.1 0 .1.1.1.1 0 .1-.1.1-.1.1 0 .1-.1 0-.1-.1z" fill="#818181"/><path d="m29.6 40.7h.2z" fill="#4e4e4e"/><path d="m35 38.4c-.1 0-.1-.1 0 0-.1-.2 0-.2 0-.2.1 0 .1.1 0 .2.1-.1.1 0 0 0z" fill="#818181"/><path d="m35 38.4v-.2z" fill="#4e4e4e"/><path d="m35.5 35.7c0 .1-.1.1 0 0-.2.1-.2 0-.2 0 0-.1.1-.1.2 0-.1-.2 0-.1 0 0z" fill="#818181"/><path d="m35.5 35.7h-.2z" fill="#4e4e4e"/><path d="m31.2 34.8c0 .1-.1.1-.1.1-.1 0-.1-.1-.1-.1 0-.1.1-.1.1-.1 0-.1.1 0 .1.1z" fill="#818181"/><path d="m31.2 34.8h-.2z" fill="#4e4e4e"/><path d="m25.2 34.7c.1 0 .1.1.1.1 0 .1-.1.1-.1.1-.1 0-.1-.1-.1-.1z" fill="#818181"/><path d="m25.2 34.7s.1 0 0 0v.2z" fill="#4e4e4e"/><path d="m40.2 35.7c.1 0 .1.1 0 0 .1.2 0 .2 0 .2-.1 0-.1-.1 0-.2-.1 0-.1 0 0 0z" fill="#818181"/><path d="m40.2 35.7v.2z" fill="#4e4e4e"/><path d="m23.6 42.2c0-.1.1-.1.1-.1.1 0 .1.1.1.1 0 .1-.1.1-.1.1s-.1 0-.1-.1z" fill="#818181"/><path d="m23.6 42.2h.2z" fill="#4e4e4e"/><path d="m29.7 34.3-2.4-2.5 20.9-20 1.6 1.6z" fill="url(#a)"/><path d="m23.5 45.4c-.4.4-.4 1 0 1.4s1 .4 1.4 0 .4-1 0-1.4-1-.4-1.4 0z" fill="#010101"/><path d="m23.5 46.7c.4.4 1 .4 1.4 0s.4-1 0-1.4z" fill="#333"/><circle cx="24.2" cy="46" fill="#010101" r=".6"/><path d="m23.7 46.5c-.2-.2-.2-.6 0-.9.2-.2.6-.2.9 0z" fill="#333"/><path d="m20.1 46.3c-.4.4-.4 1 0 1.4s1 .4 1.4 0 .4-1 0-1.4c-.5-.4-1.1-.4-1.4 0z" fill="#010101"/><path d="m20.1 47.6c.4.4 1 .4 1.4 0s.4-1 0-1.4z" fill="#333"/><path d="m21.2 47.4c-.2.2-.6.2-.9 0-.2-.2-.2-.6 0-.9.2-.2.6-.2.9 0 .2.3.2.7 0 .9z" fill="#010101"/><path d="m20.3 47.4c-.2-.2-.2-.6 0-.9.2-.2.6-.2.9 0z" fill="#333"/><path d="m16.7 47c-.4.4-.4 1 0 1.4s1 .4 1.4 0 .4-1 0-1.4c-.5-.4-1.1-.4-1.4 0z" fill="#010101"/><path d="m16.7 48.4c.4.4 1 .4 1.4 0s.4-1 0-1.4z" fill="#333"/><path d="m17.8 48.1c-.2.2-.6.2-.9 0-.2-.2-.2-.6 0-.9.2-.2.6-.2.9 0 .2.3.2.7 0 .9z" fill="#010101"/><path d="m16.9 48.1c-.2-.2-.2-.6 0-.9.2-.2.6-.2.9 0z" fill="#333"/><path d="m26.3 38.8c.1-.1.1-.2 0-.2l-3.4-3.4c-.1-.1-.2 0-.2 0l-1.7 1.7c-.1.1-.1.2 0 .2l3.4 3.4c.1.1.2 0 .2 0z" fill="#333"/><path d="m24.6 36.9-1.7-1.7h-.1s-.1 0-.1.1l-1.7 1.6s0 .1-.1.1v.1l1.7 1.7z" fill="#010101"/><path d="m26.2 38.8c.1-.1.1-.1 0-.2l-3.3-3.3c-.1-.1-.1-.1-.2 0l-1.6 1.6c-.1.1-.1.1 0 .2l3.3 3.3c.1.1.1.1.2 0z"/><path d="m24.5 37-1.7-1.7h-.1-.1l-.8.8-.8.8v.1.1l1.7 1.7z" fill="#333"/><path d="m25.8 38.6s.1-.1 0-.2l-2.8-2.7s-.1 0-.2 0l-1.3 1.3s-.1.1 0 .2l2.8 2.8h.2z" fill="#333"/><path d="m24.4 37.1-1.4-1.4h-.1-.1l-1.3 1.3v.1.1l1.4 1.4z" fill="#010101"/><path d="m25.7 38.6s0-.1 0-.2l-2.7-2.6s-.1 0-.2 0l-1.3 1.3v.2l2.7 2.7h.2z" fill="#010101"/><path d="m24.4 37.1-1.4-1.3s0 0-.1 0h-.1l-.6.6-.6.6v.1.1l1.3 1.3z" fill="#333"/><path d="m21.4 36.9c0-.1-.1-.1-.1-.1-.1 0-.1.1-.1.1 0 .1.1.1.1.1.1.1.1 0 .1-.1z" fill="#818181"/><path d="m22.9 35.6c.1-.1.1-.1 0-.2s-.1-.1-.2 0-.1.1 0 .2z" fill="#818181"/><path d="m22.1 36.4c.1 0 .1-.1.1-.1 0-.1-.1-.1-.1-.1-.1 0-.1.1-.1.1z" fill="#818181"/><path d="m25.9 38.6c.1-.1.1-.1.2 0s.1.1 0 .2-.1.1-.2 0c0 0 0-.1 0-.2z" fill="#333"/><path d="m25.1 39.4c0-.1.1-.1.1-.1.1 0 .1.1.1.1 0 .1-.1.1-.1.1z" fill="#333"/><path d="m24.5 40.1c.1 0 .1.1.1.1 0 .1-.1.1-.1.1-.1 0-.1-.1-.1-.1 0-.1.1-.1.1-.1z" fill="#333"/><path d="m21.4 36.9h-.3z" fill="#010101"/><path d="m22.9 35.6-.2-.2z" fill="#010101"/><path d="m22.1 36.4v-.3z" fill="#010101"/><path d="m25.9 38.6.2.2z" fill="#010101"/><path d="m25.1 39.4h.3z" fill="#010101"/><path d="m24.5 40.1s.1 0 0 0v.3z" fill="#010101"/><path d="m24.4 39.8h-.1l-2.6-2.6v-.1l1.2-1.2h.1l2.6 2.6v.1z" fill="#adadad"/><path d="m23 38.5-1.3-1.3s0 0 0-.1v-.1l.6-.6.6-.6h.1.1l1.3 1.3z" fill="#8b8a8b"/><path d="m24.4 39.7h-.1l-2.4-2.4v-.1l1-1h.1l2.4 2.4v.1z" fill="#d6d5d5"/><path d="m25.4 38.5-2.4-2.4h-.1l-.5.5v.1l2.4 2.4h.1l.5-.6c.1.1.1 0 0 0z" fill="#fafbfc"/><path d="m23 36.6c-.1 0-.1-.1-.1-.1 0-.1.1-.1.1-.1.1 0 .1.1.1.1s0 .1-.1.1z" fill="#b0b0b0"/><path d="m23.3 37c-.1-.1-.1-.1 0-.2s.1-.1.2 0 .1.1 0 .2c-.1 0-.1 0-.2 0z" fill="#b0b0b0"/><path d="m25.2 38.6c-.1.1-.1.1-.2 0s-.1-.1 0-.2.1-.1.2 0z" fill="#b0b0b0"/><path d="m24.7 38.3c-.1 0-.1-.1-.1-.1 0-.1.1-.1.1-.1.1 0 .1.1.1.1z" fill="#b0b0b0"/><path d="m24.1 37.7c0-.1.1-.1.1-.1.1 0 .1.1.1.1 0 .1-.1.1-.1.1 0 .1-.1 0-.1-.1z" fill="#b0b0b0"/><path d="m23.8 37.4c-.1 0-.1-.1-.1-.1 0-.1.1-.1.1-.1.1 0 .1.1.1.1.1.1 0 .1-.1.1z" fill="#b0b0b0"/><path d="m23 36.6v-.3z" fill="#8b8a8b"/><path d="m23.3 37c0-.1 0-.1 0 0l.2-.2z" fill="#8b8a8b"/><path d="m25.2 38.6-.2-.2z" fill="#8b8a8b"/><path d="m24.7 38.3v-.3z" fill="#8b8a8b"/><path d="m24.1 37.7h.3z" fill="#8b8a8b"/><path d="m23.8 37.4v-.3z" fill="#8b8a8b"/><path d="m23.9 41.5c-.2.2-.5.2-.7 0s-.2-.5 0-.7.5-.2.7 0 .2.5 0 .7z" fill="#010101"/><path d="m23.9 41.4c-.2.2-.4.2-.6 0s-.2-.4 0-.6.4-.2.6 0 .1.5 0 .6z" fill="#333"/><path d="m20.6 38.4c-.2.2-.5.2-.7 0s-.2-.5 0-.7.5-.2.7 0 .2.5 0 .7z" fill="#1a1a1a"/><path d="m20.5 38.3c-.2.2-.4.2-.6 0s-.2-.4 0-.6.4-.2.6 0 .2.4 0 .6z" fill="#4e4e4e"/><path d="m23.8 41.4c-.1.1-.3.1-.5 0l-3.3-3.1c-.2-.2-.2-.4-.1-.5l.1-.1c.1-.1.3-.1.5 0l3.3 3.1c.1.2.2.4 0 .6zm-.5-.9-.2-.2-.4.4.2.2zm-.4-.4-.2-.2-.4.4.2.2zm-.5-.4-.2-.2-.4.4.2.2zm-.4-.4-.2-.2-.4.4.2.2zm-.5-.4-.2-.2-.3.4.2.2zm-.4-.4-.2-.2-.4.4.2.2z" fill="#010101"/><path d="m22.2 39.3-1.6-1.5c-.2-.2-.4-.2-.5 0h-.1c-.1.1-.1.3.1.5l1.6 1.5zm-1.7-.7.4-.4.2.2-.4.4zm.5.5.4-.4.2.2-.4.4zm.8 0 .2.2-.4.4-.2-.2z" fill="#1a1a1a"/><path d="m20.2 37.9c.1 0 .1.1.1.1 0 .1-.1.1-.1.1-.1 0-.1-.1-.1-.1 0-.1.1-.1.1-.1z" fill="#818181"/><path d="m23.6 41c.1 0 .1.1.1.1 0 .1-.1.1-.1.1-.1 0-.1-.1-.1-.1-.1-.1 0-.1.1-.1z" fill="#818181"/><path d="m20.2 37.9s.1 0 0 0v.3z" fill="#010101"/><path d="m23.6 41v.3z" fill="#010101"/><path d="m20.4 38.6.4.3-.1.1z" fill="#ccc"/><path d="m21.4 39.2-.4-.4h.1l.3.3z" fill="#ccc"/><path d="m22 39.4-.4-.3h.1l.4.3z" fill="#ccc"/><path d="m22.2 40.1-.4-.3v-.1z" fill="#818181"/><path d="m22.3 40.1.4.3-.1.1z" fill="#818181"/><path d="m22.9 40.3.4.3-.1.1z" fill="#818181"/><path d="m29.7 34.4-2.6-2.6 21-20 1.7 1.7z" fill="#010101"/><path d="m28.4 33.1-1.3-1.3 10.7-10.1 10.3-9.9.9.8z" fill="#333"/><path d="m48.2 15.2-1.8-1.8h.1l1.7 1.7z" fill="#010101"/><path d="m46.8 16.7-1.9-1.9h.1l1.8 1.8z" fill="#010101"/><path d="m45.4 18.1-1.9-1.9.1-.1 1.9 1.9z" fill="#010101"/><path d="m44.1 19.4-1.9-1.9v-.1z" fill="#010101"/><path d="m42.9 20.7-2-2v-.1l2.1 2z" fill="#010101"/><path d="m41.8 21.9-2.1-2.1.1-.1 2 2.1z" fill="#010101"/><path d="m38.5 20.9 2.2 2v.1z" fill="#010101"/><path d="m37.6 21.9 2.2 2.1-.1.1z" fill="#010101"/><path d="m38.7 25.1-2.2-2.2.1-.1 2.1 2.2z" fill="#010101"/><path d="m37.8 26-2.3-2.2.1-.1 2.2 2.2z" fill="#010101"/><path d="m36.9 26.9-2.2-2.3z" fill="#010101"/><path d="m36.1 27.7-2.3-2.3h.1z" fill="#010101"/><path d="m35.3 28.5-2.3-2.3.1-.1z" fill="#010101"/><path d="m34.6 29.3-2.4-2.3.1-.1 2.4 2.3z" fill="#010101"/><path d="m33.9 30-2.3-2.4v-.1l2.4 2.4z" fill="#010101"/><path d="m33.3 30.6-2.4-2.4h.1l2.4 2.4z" fill="#010101"/><path d="m30.2 28.9 2.5 2.4-.1.1z" fill="#010101"/><path d="m32 32-2.5-2.4.1-.1 2.5 2.4z" fill="#010101"/><path d="m31.4 32.6-2.5-2.4.1-.1 2.5 2.5z" fill="#010101"/><path d="m30.9 33.2-2.5-2.5v-.1l2.6 2.5z" fill="#010101"/><path d="m27.9 31.2 2.6 2.5-.1.1z" fill="#010101"/><g fill="#e6e6e5"><path d="m48.2 15.2-1.8-1.8.1-.1 1.8 1.8z"/><path d="m46.8 16.6-1.9-1.8.1-.1z"/><path d="m45.4 18.1-1.9-1.9.1-.1 1.9 1.9z"/><path d="m44.1 19.4-1.9-2h.1l1.9 1.9z"/><path d="m42.9 20.7-2-2 .1-.1 2 2z"/><path d="m41.8 21.8-2.1-2 .1-.1z"/><path d="m38.6 20.9 2.2 2-.1.1z"/><path d="m37.5 21.9 2.2 2.1h-.1z"/><path d="m38.7 25.1-2.2-2.2.1-.1 2.2 2.2z"/><path d="m35.6 23.8 2.3 2.1-.1.1z"/><path d="m36.9 26.9-2.2-2.3.1-.1 2.2 2.3z"/><path d="m36.1 27.7-2.2-2.3v-.1l2.3 2.3z"/><path d="m35.4 28.5-2.4-2.3.1-.1 2.3 2.3z"/><path d="m34.6 29.3-2.3-2.4 2.4 2.3z"/><path d="m34 30-2.4-2.4.1-.1 2.3 2.4z"/><path d="m33.3 30.6-2.4-2.4.1-.1 2.4 2.4z"/><path d="m30.3 28.8 2.5 2.4-.1.1z"/><path d="m32 32-2.4-2.5v-.1l2.5 2.5z"/><path d="m31.4 32.6-2.5-2.5h.1l2.5 2.4z"/><path d="m30.9 33.1-2.5-2.5h.1l2.5 2.5z"/><path d="m27.9 31 2.6 2.5-.1.1z"/></g><path d="m44.8 15.7s.1.3 0 .5-.2.2-.2.2l.6.6s0-.1.2-.2.5 0 .5 0z" fill="#989898"/><path d="m44.8 15.7v.2.3c0 .1-.1.2-.1.2h-.1l.3.3.4-.4z" fill="#ccc"/><path d="m42.2 18.2s.1.3 0 .5-.2.2-.2.2l.6.6s0-.1.2-.2.5 0 .5 0z" fill="#989898"/><path d="m42.2 18.2v.2.3l-.1.2h-.1l.3.3.4-.4z" fill="#ccc"/><path d="m39.8 20.6s.1.2.1.4-.1.2-.1.2l.6.6s0-.1.2-.1.4.1.4.1z" fill="#989898"/><path d="m39.8 20.6s0 .1.1.1 0 .2 0 .3-.1.1-.1.2l.3.3.3-.3z" fill="#ccc"/><path d="m37.7 22.7s.1.2.1.4-.1.2-.1.2l.6.6s0-.1.2-.1.4.1.4.1z" fill="#989898"/><path d="m37.7 22.7s0 .1.1.1 0 .2 0 .3-.1.1-.1.2l.3.3.3-.3z" fill="#ccc"/><path d="m35 25.4s.1.2.1.3-.1.1-.1.1l.6.6s0-.1.1-.1.3.1.3.1z" fill="#989898"/><path d="m35 25.4s0 .1.1.1c0 .1.1.2.1.2v.1l.3.3.2-.2z" fill="#ccc"/><path d="m33.4 27s.1.2.1.3-.1.1-.1.1l.6.6s0-.1.1-.1.3.1.3.1z" fill="#989898"/><path d="m33.4 27s0 .1.1.1c0 .1.1.2.1.2v.1l.3.3.2-.2z" fill="#ccc"/><path d="m32 28.4s.1.2.1.3-.1.1-.1.1l.6.6s0-.1.1-.1.3.1.3.1z" fill="#989898"/><path d="m32 28.4s0 .1.1.1c0 .1.1.2.1.2v.1l.3.3.2-.2z" fill="#ccc"/><path d="m30.7 29.7s.1.2.1.3-.1.1-.1.1l.6.6s0-.1.1-.1.3.1.3.1z" fill="#989898"/><path d="m30.7 29.7s0 .1.1.1c0 .1.1.2.1.2v.1l.3.3.2-.2z" fill="#ccc"/><path d="m29 31.4s.1.2.1.3-.1.1-.1.1l.6.6s0-.1.1-.1.3.1.3.1z" fill="#989898"/><path d="m29 31.4s0 .1.1.1c0 .1.1.2.1.2v.1l.3.3.2-.2z" fill="#ccc"/><path d="m49.7 13.8-1.9-1.9.3-.2 1.8 1.8z" fill="#e6e6e5"/><path d="m49.7 13.8-1.9-1.9.2-.1 1.8 1.9z" fill="#b4b4b4"/><path d="m30.7 34.4c.1-.1.1-.2 0-.2l-3.4-3.4c-.1-.1-.2 0-.2 0l-1.7 1.7c-.1.1-.1.2 0 .2l3.4 3.4c.1.1.2 0 .2 0z" fill="#333"/><path d="m29 32.5-1.7-1.7h-.1s-.1 0-.1.1l-1.7 1.7s0 .1-.1.1v.1l1.7 1.7z" fill="#010101"/><path d="m30.6 34.4c.1-.1.1-.1 0-.2l-3.3-3.3c-.1-.1-.1-.1-.2 0l-1.6 1.6c-.1.1-.1.1 0 .2l3.3 3.3c.1.1.1.1.2 0z"/><path d="m29 32.5-1.7-1.7h-.1-.1l-.8.8-.8.8v.1.1l1.7 1.7z" fill="#333"/><path d="m30.2 34.2s.1-.1 0-.2l-2.8-2.8s-.1 0-.2 0l-1.2 1.4s-.1.1 0 .2l2.8 2.8h.2z" fill="#333"/><path d="m28.9 32.7-1.4-1.4h-.1-.1l-1.3 1.3v.1.1l1.4 1.4z" fill="#010101"/><path d="m30.1 34.2s0-.1 0-.2l-2.7-2.7s-.1 0-.2 0l-1.2 1.3v.2l2.7 2.7h.2z" fill="#010101"/><path d="m28.8 32.7-1.3-1.3s0 0-.1 0h-.1l-.6.6-.7.6v.1.1l1.3 1.3z" fill="#333"/><path d="m25.9 32.5c0-.1-.1-.1-.1-.1-.1 0-.1.1-.1.1 0 .1.1.1.1.1s.1 0 .1-.1z" fill="#818181"/><path d="m27.3 31.1c.1-.1.1-.1 0-.2s-.1-.1-.2 0-.1.1 0 .2.2.1.2 0z" fill="#818181"/><path d="m26.6 32c.1 0 .1-.1.1-.1 0-.1-.1-.1-.1-.1-.1 0-.1.1-.1.1-.1 0 0 .1.1.1z" fill="#818181"/><path d="m30.4 34.2c.1-.1.1-.1.2 0s.1.1 0 .2-.1.1-.2 0-.1-.1 0-.2z" fill="#333"/><path d="m29.5 34.9c0-.1.1-.1.1-.1.1 0 .1.1.1.1 0 .1-.1.1-.1.1 0 .1-.1 0-.1-.1z" fill="#333"/><path d="m29 35.7c.1 0 .1.1.1.1 0 .1-.1.1-.1.1-.1 0-.1-.1-.1-.1-.1-.1 0-.1.1-.1z" fill="#333"/><path d="m25.9 32.5h-.3z" fill="#010101"/><path d="m27.3 31.1-.2-.2z" fill="#010101"/><path d="m26.6 32v-.3z" fill="#010101"/><path d="m30.4 34.2.2.2z" fill="#010101"/><path d="m29.5 34.9h.3z" fill="#010101"/><path d="m29 35.7v.3z" fill="#010101"/><path d="m28.9 35.4h-.1l-2.6-2.6v-.1l1.2-1.2h.1l2.6 2.6v.1z" fill="#adadad"/><path d="m27.4 34.1-1.3-1.3s0 0 0-.1v-.1l.6-.6.6-.6h.1.1l1.3 1.3z" fill="#8b8a8b"/><path d="m28.8 35.2h-.1l-2.4-2.4v-.1l1-1h.1l2.4 2.4v.1z" fill="#d6d5d5"/><path d="m29.9 34.1-2.4-2.4h-.1l-.5.5v.1l2.4 2.4h.1z" fill="#fafbfc"/><path d="m27.4 32.2c-.1 0-.1-.1-.1-.1 0-.1.1-.1.1-.1.1 0 .1.1.1.1.1 0 0 .1-.1.1z" fill="#b0b0b0"/><path d="m27.7 32.5c-.1-.1-.1-.1 0-.2s.1-.1.2 0 .1.1 0 .2c0 .1-.1.1-.2 0z" fill="#b0b0b0"/><path d="m29.6 34.2c-.1.1-.1.1-.2 0s-.1-.1 0-.2.1-.1.2 0c.1 0 .1.1 0 .2z" fill="#b0b0b0"/><path d="m29.1 33.8c-.1 0-.1-.1-.1-.1 0-.1.1-.1.1-.1.1 0 .1.1.1.1 0 .1 0 .1-.1.1z" fill="#b0b0b0"/><path d="m28.6 33.3c0-.1.1-.1.1-.1.1 0 .1.1.1.1 0 .1-.1.1-.1.1-.1 0-.1 0-.1-.1z" fill="#b0b0b0"/><path d="m28.3 33c-.1 0-.1-.1-.1-.1 0-.1.1-.1.1-.1.1 0 .1.1.1.1z" fill="#b0b0b0"/><path d="m27.4 32.2v-.3z" fill="#8b8a8b"/><path d="m27.7 32.5.2-.2z" fill="#8b8a8b"/><path d="m29.6 34.2-.2-.2z" fill="#8b8a8b"/><path d="m29.1 33.8v-.3z" fill="#8b8a8b"/><path d="m28.6 33.3h.3z" fill="#8b8a8b"/><path d="m28.3 33v-.3z" fill="#8b8a8b"/><path d="m48.2 12-29 28.4v-.1l28.9-28.3 1.4-1.6.1-.1z" fill="#4e4e4e"/><path d="m48.4 12.4-28.8 28.4 28.8-28.4 2.5-2.3h.1z" fill="#4e4e4e"/><path d="m48.7 12.7-28.7 28.5v-.1l28.7-28.4 3.7-2.8h.1z" fill="#4e4e4e"/><path d="m49.6 13.5-28.4 28.8v.1l28.4-28.9 7.4-4.3v-.1z" fill="#4e4e4e"/><path d="m49.3 13.2-28.5 28.7 28.5-28.6 6.2-3.8.1-.2z" fill="#4e4e4e"/><path d="m49 13-28.6 28.5v.1l28.6-28.6 5-3.3v-.1z" fill="#4e4e4e"/><path d="m48.1 12-28.9 28.4v-.1l28.9-28.3 1.4-1.6.1-.1z" fill="none" stroke="#b4b4b4" stroke-miterlimit="10" stroke-width=".1"/><path d="m48.4 12.4-28.8 28.4-.1-.1 28.9-28.3 2.5-2.3h.1z" fill="none" stroke="#b4b4b4" stroke-miterlimit="10" stroke-width=".1"/><path d="m48.7 12.6-28.7 28.6-.1-.1 28.8-28.5 3.7-2.8z" fill="none" stroke="#b4b4b4" stroke-miterlimit="10" stroke-width=".1"/><path d="m49.6 13.5-28.4 28.8 28.4-28.8 7.4-4.3v-.1z" fill="none" stroke="#b4b4b4" stroke-miterlimit="10" stroke-width=".1"/><path d="m49.2 13.2-28.4 28.7 28.5-28.6 6.2-3.8v-.2z" fill="none" stroke="#b4b4b4" stroke-miterlimit="10" stroke-width=".1"/><path d="m49 12.9-28.6 28.6 28.6-28.5 4.9-3.3.1-.1z" fill="none" stroke="#b4b4b4" stroke-miterlimit="10" stroke-width=".1"/><path d="m18 39.1c-.2.3-.2.4-.2.4l4.1 4.1s.1.1.4-.2.3-.5.3-.5l-4.1-4.1c0 .1-.3.1-.5.3z" fill="#010101"/><path d="m20.6 41 2 2s0 .2-.3.5-.4.2-.4.2l-2-2z" fill="#333"/><path d="m22 43.5s.1 0 .3-.2c.2-.1.2-.3.2-.3l-4-4c-.1 0-.2.1-.3.2s-.1.2-.2.3z" fill="#1a1a1a"/><path d="m20.5 41.1 2 2c0 .1-.1.2-.2.3s-.2.2-.3.2l-2-2z" fill="#010101"/><path d="m22.3 43c0-.2-.1-.3-.3-.3s-.3.1-.3.3.1.3.3.3c.1 0 .2-.1.3-.3z" fill="#4e4e4e"/><path d="m18.7 39.8c.1-.1.1-.3 0-.4s-.3-.1-.4 0-.1.3 0 .4c0 .1.2.1.4 0z" fill="#4e4e4e"/><path d="m22.3 43h-.7.7c-.1 0 0 0 0 0z" fill="#010101"/><path d="m18.7 39.8-.4-.5.4.5c-.1 0 0 0 0 0z" fill="#010101"/><path d="m57 9.3c-.1.1-.2 0-.3-.1s-.1-.2 0-.3.2 0 .3.1.1.2 0 .3z" fill="#818181"/><path d="m55.5 9.5c-.1.1-.2 0-.3-.1s-.1-.2 0-.3.2 0 .3.1.1.2 0 .3z" fill="#818181"/><path d="m54 9.7c-.1.1-.2 0-.3-.1s-.1-.2 0-.3.2 0 .3.1 0 .3 0 .3z" fill="#818181"/><path d="m52.4 10c-.1.1-.2 0-.3-.1s-.1-.2 0-.3.2 0 .3.1c.2.1.1.2 0 .3z" fill="#818181"/><path d="m51 10.2c-.1.1-.2 0-.3-.1s-.1-.2 0-.3.2 0 .3.1c.1.2.1.3 0 .3z" fill="#818181"/><path d="m49.6 10.5c-.1.1-.2 0-.3-.1s-.1-.2 0-.3.2 0 .3.1 0 .2 0 .3z" fill="#818181"/></svg>