<svg enable-background="new 0 0 60 60" height="60" viewBox="0 0 60 60" width="60" xmlns="http://www.w3.org/2000/svg"><path d="m24.5 48.1c2.5-2 4.7-2 6.3-4.2 2.4-3.4 1.6-6.4 1.6-6.4s-1.6 1.9-3.1 1.2c-2.4-1.1-1.5-3.6-1.5-3.6l-2.9-2.9s-2.5.9-3.7-1.4c-.9-1.7 2.5-3.7 2.5-3.7s-3.3-1.7-7.1 1.5c-1.6 1.4-2.5 2.6-3.1 3.9-.5.9-.8 2-1.6 3.1-2.3 3-6.2.6-9.6 4-2.7 2.7-2.9 6.1-1.3 9 1.5 2.8 2.8 4.3 4.5 6s3.1 2.9 6 4.4c2.9 1.6 6.3 1.3 9-1.3 3.3-3.4 1-7.3 4-9.6z" fill="#ff5a00"/><path d="m26.3 33.7-1.4-1.4s-2.5.9-3.7-1.4c-.9-1.7 2.5-3.7 2.5-3.7s-3.3-1.7-7.1 1.5c-1.6 1.4-2.5 2.6-3.1 3.9-.5.9-.8 2-1.6 3.1-2.3 3-6.2.6-9.6 4-2.7 2.7-2.9 6.1-1.3 9 1.5 2.8 2.8 4.3 4.5 6z" fill="#ff5a00"/><path d="m24.2 47.2c1.7-1.3 4-1.8 5.6-3.7 1.5-1.8 1.9-4.7 1.9-4.7s-1.7 1.2-3 .6c-2.1-1-.9-4.3-.9-4.3l-2.8-2.8s-3.8 1.2-4.9-1.5c-.6-1.6 1.9-3.4 1.9-3.4s-2.5-.8-5.5 2.5c-2.4 2.6-2.1 5.4-4.3 7.7-2.3 2.4-6.2.5-9.2 3.6-2.4 2.4-2.6 5.5-1.2 8.1 1.4 2.5 2.5 3.9 4.1 5.4 1.5 1.5 2.8 2.6 5.4 4s5.8 1.2 8.1-1.2c3.4-3.7 2.1-8.3 4.8-10.3z" fill="#ff5a00"/><path d="m26.7 36.3-2.9-3 25.6-24.5 1.9 1.9z" fill="#4b1212"/><path d="m25.2 34.8-1.4-1.5 12.8-12.3 12.8-12.2 1 .9z" fill="#672222"/><path d="m49 13.1-2-2 .1-.1 2 2z" fill="#010101"/><path d="m47.3 14.8-2.1-2 .1-.1 2.1 2z" fill="#010101"/><path d="m45.7 16.6-2.2-2.2.1-.1 2.1 2.2z" fill="#010101"/><path d="m44.1 18.2-2.2-2.3h.1l2.2 2.2z" fill="#010101"/><path d="m42.6 19.7-2.3-2.3.1-.1 2.3 2.3z" fill="#010101"/><path d="m41.3 21.1-2.3-2.3v-.1l2.4 2.3z" fill="#010101"/><path d="m40 22.5-2.4-2.4.1-.1 2.4 2.4z" fill="#010101"/><path d="m36.3 21.3 2.5 2.3-.1.1z" fill="#010101"/><path d="m37.5 25-2.5-2.5.1-.1 2.5 2.5z" fill="#010101"/><path d="m36.5 26.1-2.6-2.5.1-.1 2.5 2.5z" fill="#010101"/><path d="m35.4 27.2-2.5-2.6.1-.1 2.5 2.6z" fill="#010101"/><path d="m34.5 28.2-2.6-2.6.1-.1 2.6 2.6z" fill="#010101"/><path d="m33.5 29.2-2.6-2.7.1-.1 2.6 2.7z" fill="#010101"/><path d="m32.6 30.1-2.7-2.7.1-.1 2.7 2.7z" fill="#010101"/><path d="m31.8 30.9-2.7-2.7.1-.1 2.7 2.7z" fill="#010101"/><path d="m31.1 31.7-2.8-2.7.1-.1 2.8 2.7z" fill="#010101"/><path d="m27.5 29.7 2.8 2.7-.1.1z" fill="#010101"/><path d="m29.5 33.3-2.8-2.7v-.1l2.9 2.8z" fill="#010101"/><path d="m28.7 34.1-2.8-2.8.1-.1 2.8 2.8z" fill="#010101"/><path d="m28.1 34.7-2.8-2.8.1-.1 2.8 2.9z" fill="#010101"/><path d="m24.7 32.4 3 2.8-.1.1z" fill="#010101"/><g fill="#e6e6e5"><path d="m49.1 13-2.1-2 .1-.1 2.1 2z"/><path d="m47.4 14.8-2.1-2.1.1-.1z"/><path d="m45.7 16.5-2.2-2.1.1-.1z"/><path d="m44.2 18.1-2.3-2.2.1-.1 2.3 2.2z"/><path d="m42.7 19.7-2.3-2.3.1-.1 2.3 2.3z"/><path d="m41.3 21.1-2.3-2.4h.1l2.3 2.3z"/><path d="m37.6 20 2.5 2.3-.1.1z"/><path d="m36.3 21.3 2.5 2.3-.1.1z"/><path d="m37.6 25-2.5-2.5.1-.1 2.4 2.5z"/><path d="m36.5 26.1-2.5-2.5.1-.1 2.5 2.5z"/><path d="m35.5 27.2-2.6-2.6.1-.1 2.5 2.6z"/><path d="m34.5 28.1-2.6-2.6.1-.1z"/><path d="m33.6 29.1-2.7-2.6.1-.1 2.6 2.6z"/><path d="m32.7 30.1-2.7-2.7.1-.1 2.7 2.7z"/><path d="m31.9 30.9-2.8-2.7.1-.1 2.8 2.7z"/><path d="m31.1 31.7-2.7-2.8v-.1l2.8 2.8z"/><path d="m27.5 29.7 2.8 2.7-.1.1z"/><path d="m29.5 33.3-2.8-2.8.1-.1 2.8 2.8z"/><path d="m28.8 34.1-2.9-2.8.1-.1 2.9 2.8z"/><path d="m28.2 34.7-2.9-2.8.1-.1 2.9 2.8z"/><path d="m24.7 32.5 3 2.8-.1.1z"/><path d="m50.9 11.1-1.9-2 .2-.2 1.9 2z"/></g><path d="m50.9 11.1-1.9-1.9.1-.1 1.9 1.9z" fill="#b4b4b4"/><path d="m11.7 42.6c-.7-.6-.7-1.4-.8-1.5v-.1l.1-.1s2.3-1.3 4.4-3.4c2.3-2.3 3.5-5.7 3.6-5.7l.1-.3.2.2s.8.8 1.7 1.2c1.2.5 3-.1 3-.1h.1l3.1 3.1v.1s-.9 2.8.5 4.1c.2.2.5.4.7.5 1.2.5 2.1-.4 2.1-.4l.5-.5-.2.7s-.4 1.9-1.4 3c-.9 1.1-1.9 1.6-3 2.2-.8.4-1.7.9-2.6 1.7-1.2.9-1.7 2.7-1.9 3.7v.1h-.1c-.1 0-.9.2-1.8-.7l-.1-.1c-.5-.5-.8-1.1-1.1-1.8-.4-.9-.9-1.9-1.9-3-.1-.1-.2-.2-.2-.2-.8-.7-1.9-1.2-2.9-1.6-1-.3-1.7-.6-2.1-1.1z" fill="#989898"/><path d="m25.7 34.3-1.5-1.5h-.1s-1.9.6-3 .1c-.9-.4-1.7-1.2-1.7-1.2l-.2-.2-.2.3s-1.3 3.4-3.6 5.7c-2.1 2.1-4.3 3.4-4.4 3.4l-.1.1v.1c0 .1.1.9.7 1.5.4.4 1.2.7 2 1.1.6.2 1.2.5 1.8.8z" fill="#e6e6e5"/><path d="m11.8 42.5c-.6-.6-.7-1.4-.7-1.4s2.3-1.4 4.4-3.5c2.3-2.3 3.6-5.7 3.6-5.8v-.1l.1.1s.9.8 1.8 1.2c1.2.6 3.1-.1 3.2-.1l3 3s-.9 2.9.5 4.3c.2.2.5.4.8.5 1.3.5 2.3-.4 2.3-.4l.1-.1v.2s-.4 1.9-1.4 3c-.9 1.1-1.9 1.6-3 2.2-.8.4-1.7.9-2.7 1.7-1.2 1-1.8 2.8-2 3.8s-.8.2-1.7-.6l-.1-.1c-.5-.5-.8-1.1-1.1-1.8-.4-.9-.9-2-2-3-.1-.1-.2-.2-.2-.2-.8-.8-1.9-1.2-2.9-1.6-.9-.6-1.6-.9-2-1.3z" fill="#1a1a1a"/><path d="m11.8 42.5c-.6-.6-.7-1.4-.7-1.4s2.3-1.4 4.4-3.5c2.3-2.3 3.6-5.7 3.6-5.8v-.1l.1.1s.9.8 1.8 1.2c1.2.6 3.1-.1 3.2-.1l1.5 1.5-10 10c-.7-.4-1.1-.5-1.9-.8-.9-.4-1.6-.7-2-1.1z" fill="#333"/><path d="m45.1 13.7s.1.3 0 .5c-.1.3-.2.3-.2.3l.7.7s0-.1.3-.2.5 0 .5 0z" fill="#989898"/><path d="m45.1 13.7v.2.4c0 .1-.1.2-.1.2h-.1l.3.3.5-.5z" fill="#ccc"/><path d="m42 16.8s.1.3 0 .5c-.1.3-.2.3-.2.3l.7.7s0-.1.3-.2.5 0 .5 0z" fill="#989898"/><path d="m42 16.8v.2.4c0 .1-.1.2-.1.2h-.1l.3.3.5-.5z" fill="#ccc"/><path d="m39.1 19.7s.1.3.1.5c-.1.2-.1.2-.1.2l.7.7s0-.1.2-.1c.2-.1.5.1.5.1z" fill="#989898"/><path d="m39.1 19.7s0 .1.1.2v.3c0 .1-.1.2-.1.2h-.1l.3.3.4-.4z" fill="#ccc"/><path d="m36.5 22.3s.1.3.1.5c-.1.2-.2.2-.2.2l.7.7s0-.1.2-.1c.2-.1.5.1.5.1z" fill="#989898"/><path d="m36.5 22.3s0 .1.1.2v.3c0 .1-.1.2-.1.2h-.1l.3.3.4-.4z" fill="#ccc"/><path d="m33.3 25.5s.2.2.2.4-.1.1-.1.1l.7.7s0-.1.1-.1c.2 0 .4.2.4.2z" fill="#989898"/><path d="m33.3 25.5s0 .1.1.1c0 .1.1.2.1.3v.1l.3.3.2-.2z" fill="#ccc"/><path d="m31.3 27.4s.2.2.2.4-.1.1-.1.1l.7.7s0-.1.1-.1c.2 0 .4.2.4.2z" fill="#989898"/><path d="m31.3 27.4s0 .1.1.1c0 .1.1.2.1.3v.1l.3.3.2-.2z" fill="#ccc"/><path d="m29.7 29.1s.2.2.2.4-.1.1-.1.1l.7.7s0-.1.1-.1c.2 0 .4.2.4.2z" fill="#989898"/><path d="m29.7 29.1s0 .1.1.1c0 .1.1.2.1.3v.1l.3.3.2-.2z" fill="#ccc"/><path d="m28 30.7s.2.2.2.4-.1.1-.1.1l.7.7s0-.1.1-.1c.2 0 .4.2.4.2z" fill="#989898"/><path d="m28 30.7s0 .1.1.1c0 .1.1.2.1.3v.1l.3.3.2-.2z" fill="#ccc"/><path d="m26 32.8s.2.2.2.4-.1.1-.1.1l.7.7s0-.1.1-.1c.2 0 .4.2.4.2z" fill="#989898"/><path d="m26 32.8s0 .1.1.1c0 .1.1.2.1.3v.1l.3.3.2-.2z" fill="#ccc"/><path d="m18.6 45.9c-.2.2-.6.2-.8 0s-.2-.6 0-.8.6-.2.8 0 .2.6 0 .8z" fill="#010101"/><path d="m18.5 45.8c-.2.2-.5.2-.7 0s-.2-.5 0-.7.5-.2.7 0 .2.5 0 .7z" fill="#333"/><path d="m14.8 42.3c-.2.2-.6.2-.8 0s-.2-.6 0-.8.6-.2.8 0c.2.3.2.6 0 .8z" fill="#1a1a1a"/><path d="m14.7 42.3c-.2.2-.5.2-.7 0s-.2-.5 0-.7.5-.2.7 0 .2.5 0 .7z" fill="#4e4e4e"/><path d="m18.4 45.8c-.1.1-.4.1-.6-.1l-3.7-3.5c-.2-.2-.2-.4-.1-.6l.1-.1c.1-.1.4-.1.6.1l3.7 3.5c.2.2.2.5 0 .7zm-.5-1-.3-.2-.4.4.3.2zm-.5-.5-.3-.2-.4.4.3.2zm-.5-.4-.3-.2-.4.4.3.2zm-.5-.5-.3-.2-.4.4.3.2zm-.5-.5-.3-.2-.4.4.3.2zm-.5-.5-.3-.2-.4.4.3.2z" fill="#010101"/><path d="m16.6 43.4-1.9-1.8c-.2-.2-.4-.2-.6-.1l-.1.1c-.1.1-.1.4.1.6l1.9 1.8zm-1.9-.8.4-.4.3.2-.4.4zm.5.5.4-.4.3.2-.4.4zm.9.1.3.2-.4.4-.3-.2z" fill="#1a1a1a"/><path d="m14.4 41.8c.1 0 .2.1.2.2s-.1.2-.2.2-.2-.1-.2-.2c0-.2.1-.2.2-.2z" fill="#818181"/><path d="m18.2 45.3c.1 0 .2.1.2.2s-.1.2-.2.2-.2-.1-.2-.2.1-.2.2-.2z" fill="#818181"/><path d="m14.4 41.8v.3z" fill="#010101"/><path d="m18.2 45.3v.3z" fill="#010101"/><path d="m14.7 42.5.5.3-.1.1z" fill="#ccc"/><path d="m15.7 43.2-.4-.3v-.1l.5.4z" fill="#ccc"/><path d="m16 43.2.5.3-.1.1z" fill="#ccc"/><path d="m16.6 44.3-.4-.4z" fill="#818181"/><path d="m16.8 44.3.5.3-.1.1z" fill="#818181"/><path d="m17.5 44.6.5.3v.1z" fill="#818181"/><circle cx="12.8" cy="55.4" fill="#010101" r="1.1"/><path d="m12.1 56.2c.4.4 1.1.4 1.5 0s.4-1.1 0-1.5z" fill="#333"/><circle cx="12.8" cy="55.4" fill="#010101" r=".7"/><path d="m12.3 55.9c-.3-.3-.3-.7 0-1s.7-.3 1 0z" fill="#333"/><path d="m17.3 54.8c-.4.4-.4 1.1 0 1.5s1.1.4 1.5 0 .4-1.1 0-1.5-1.1-.4-1.5 0z" fill="#010101"/><path d="m17.3 56.3c.4.4 1.1.4 1.5 0s.4-1.1 0-1.5z" fill="#333"/><circle cx="18.1" cy="55.6" fill="#010101" r=".7"/><path d="m17.6 56.1c-.3-.3-.3-.7 0-1s.7-.3 1 0z" fill="#333"/><path d="m14.1 56.7c-.4.4-.4 1.1 0 1.5s1.1.4 1.5 0 .4-1.1 0-1.5-1-.4-1.5 0z" fill="#010101"/><path d="m14.1 58.2c.4.4 1.1.4 1.5 0s.4-1.1 0-1.5z" fill="#333"/><path d="m15.4 58c-.3.3-.7.3-1 0s-.3-.7 0-1 .7-.3 1 0 .3.7 0 1z" fill="#010101"/><path d="m14.4 58c-.3-.3-.3-.7 0-1s.7-.3 1 0z" fill="#333"/><path d="m15 52.8c-.4.4-.4 1.1 0 1.5s1.1.4 1.5 0 .4-1.1 0-1.5-1.1-.4-1.5 0z" fill="#010101"/><path d="m15 54.4c.4.4 1.1.4 1.5 0s.4-1.1 0-1.5z" fill="#333"/><path d="m16.2 54.1c-.3.3-.7.3-1 0s-.3-.7 0-1 .7-.3 1 0 .3.7 0 1z" fill="#010101"/><path d="m15.3 54.1c-.3-.3-.3-.7 0-1s.7-.3 1 0z" fill="#333"/><path d="m21.7 42.4c.1-.1.1-.2 0-.3l-3.9-3.9c-.1-.1-.2 0-.3 0l-1.9 1.9c-.1.1-.1.2 0 .3l3.9 3.9c.1.1.2 0 .3 0z" fill="#333"/><path d="m19.8 40.2-2-2h-.1s-.1 0-.1.1l-1.9 1.9-.1.1v.1l2 2z" fill="#010101"/><path d="m21.6 42.4c.1-.1.1-.2 0-.2l-3.8-3.8c-.1-.1-.2-.1-.2 0l-1.8 1.8c-.1.1-.1.2 0 .2l3.8 3.8c.1.1.2.1.2 0z"/><path d="m19.7 40.3-1.9-1.9h-.1-.1l-.9.9-.9.9v.1.1l1.9 1.9z" fill="#333"/><path d="m21.1 42.2c.1-.1.1-.2 0-.2l-3.1-3.2c-.1-.1-.2 0-.2 0l-1.5 1.5c-.1.1-.1.2 0 .2l3.1 3.1c.1.1.2 0 .2 0z" fill="#333"/><path d="m19.6 40.4-1.6-1.6h-.1s-.1 0-.1.1l-1.5 1.5s0 .1-.1.1v.1l1.6 1.6z" fill="#010101"/><path d="m21 42.2s0-.1 0-.2l-3-3s-.1 0-.2 0l-1.4 1.4v.2l3 3h.2z" fill="#010101"/><path d="m19.5 40.5-1.5-1.6h-.1-.1l-.7.7-.7.7v.1.1l1.5 1.5z" fill="#333"/><path d="m16.2 40.2c0-.1-.1-.1-.1-.1-.1 0-.1.1-.1.1 0 .1.1.1.1.1 0 .1.1 0 .1-.1z" fill="#818181"/><path d="m17.8 38.7c.1-.1.1-.2 0-.2-.1-.1-.2-.1-.2 0-.1.1-.1.2 0 .2z" fill="#818181"/><path d="m17 39.6c.1 0 .1-.1.1-.1 0-.1-.1-.1-.1-.1-.1 0-.1.1-.1.1-.1.1 0 .1.1.1z" fill="#818181"/><path d="m21.3 42.2c.1-.1.2-.1.2 0 .1.1.1.2 0 .2-.1.1-.2.1-.2 0-.1-.1-.1-.2 0-.2z" fill="#333"/><path d="m20.4 43c0-.1.1-.1.1-.1.1 0 .1.1.1.1 0 .1-.1.1-.1.1-.1.1-.1 0-.1-.1z" fill="#333"/><path d="m19.7 43.8c.1 0 .2.1.2.1 0 .1-.1.2-.1.2-.1 0-.2-.1-.2-.1 0-.1 0-.2.1-.2z" fill="#333"/><path d="m16.2 40.2h-.3z" fill="#010101"/><path d="m17.8 38.7-.2-.2z" fill="#010101"/><path d="m17 39.6v-.3z" fill="#010101"/><path d="m21.3 42.2.2.2z" fill="#010101"/><path d="m20.4 43h.3z" fill="#010101"/><path d="m19.7 43.8v.3z" fill="#010101"/><path d="m19.6 43.5s-.1 0-.2 0l-3-3s0-.1 0-.2l1.4-1.4h.2l3 3v.2z" fill="#adadad"/><path d="m18 42-1.5-1.5v-.1-.1l.7-.7.7-.7h.1.1l1.5 1.5z" fill="#8b8a8b"/><path d="m19.6 43.3h-.1l-2.7-2.7v-.1l1.2-1.2h.1l2.7 2.7v.1z" fill="#d6d5d5"/><path d="m20.7 42-2.7-2.8h-.1l-.6.6v.1l2.7 2.7h.1l.6-.6c.1.1.1 0 0 0z" fill="#fafbfc"/><path d="m18 39.8c-.1 0-.2-.1-.2-.2s.1-.2.2-.2.2.1.2.2c-.1.2-.1.2-.2.2z" fill="#b0b0b0"/><path d="m18.3 40.2c-.1-.1-.1-.2 0-.2.1-.1.2-.1.2 0 .1.1.1.2 0 .2 0 .1-.1.1-.2 0z" fill="#b0b0b0"/><path d="m20.4 42.1c-.1.1-.2.1-.2 0-.1-.1-.1-.2 0-.2.1-.1.2-.1.2 0 .1.1.1.2 0 .2z" fill="#b0b0b0"/><path d="m19.9 41.7c-.1 0-.2-.1-.2-.2s.1-.2.2-.2.2.1.2.2c-.1.2-.1.2-.2.2z" fill="#b0b0b0"/><ellipse cx="19.4" cy="41.1" fill="#b0b0b0" rx=".2" ry=".2"/><path d="m18.9 40.8c-.1 0-.2-.1-.2-.2s.1-.2.2-.2.2.1.2.2-.1.2-.2.2z" fill="#b0b0b0"/><path d="m18 39.8v-.3z" fill="#8b8a8b"/><path d="m18.3 40.2.2-.2z" fill="#8b8a8b"/><path d="m20.4 42.1c0 .1 0 .1 0 0l-.2-.2z" fill="#8b8a8b"/><path d="m19.9 41.7v-.3z" fill="#8b8a8b"/><path d="m19.3 41.1h.3z" fill="#8b8a8b"/><path d="m18.9 40.8v-.3z" fill="#8b8a8b"/><path d="m26.6 37.6c.1-.1.1-.2 0-.3l-3.9-3.9c-.1-.1-.2 0-.3 0l-1.9 1.9c-.1.1-.1.2 0 .3l3.9 3.9c.1.1.2 0 .3 0z" fill="#333"/><path d="m24.6 35.4-2-2h-.1s-.1 0-.1.1l-1.9 1.9-.1.1v.1l2 2z" fill="#010101"/><path d="m26.5 37.5c.1-.1.1-.2 0-.2l-3.8-3.8c-.1-.1-.2-.1-.2 0l-1.8 1.8c-.1.1-.1.2 0 .2l3.8 3.8c.1.1.2.1.2 0z"/><path d="m24.6 35.4-1.9-1.9h-.1-.1l-.9.9-.9.9v.1.1l1.9 1.9z" fill="#333"/><path d="m26 37.3c.1-.1.1-.2 0-.2l-3.1-3.1c-.1-.1-.2 0-.2 0l-1.5 1.5c-.1.1-.1.2 0 .2l3.1 3.1c.1.1.2 0 .2 0z" fill="#333"/><path d="m24.4 35.6-1.5-1.6h-.1s-.1 0-.1.1l-1.5 1.5s0 .1-.1.1v.1l1.6 1.6z" fill="#010101"/><path d="m25.9 37.3s0-.1 0-.2l-3-3s-.1 0-.2 0l-1.4 1.4v.2l3 3h.2z" fill="#010101"/><path d="m24.4 35.6-1.5-1.5h-.1-.1l-.7.7-.7.7v.1.1l1.5 1.5z" fill="#333"/><path d="m21 35.4c0-.1-.1-.1-.1-.1-.1 0-.1.1-.1.1 0 .1.1.1.1.1.1.1.1 0 .1-.1z" fill="#818181"/><path d="m22.7 33.8c.1-.1.1-.2 0-.2-.1-.1-.2-.1-.2 0-.1.1-.1.2 0 .2 0 .1.1.1.2 0z" fill="#818181"/><path d="m21.8 34.8c.1 0 .1-.1.1-.1 0-.1-.1-.1-.1-.1-.1 0-.1.1-.1.1s0 .1.1.1z" fill="#818181"/><path d="m26.1 37.3c.1-.1.2-.1.2 0 .1.1.1.2 0 .2-.1.1-.2.1-.2 0 0 0 0-.1 0-.2z" fill="#333"/><path d="m25.2 38.2c0-.1.1-.1.1-.1.1 0 .1.1.1.1 0 .1-.1.1-.1.1z" fill="#333"/><path d="m24.5 39c.1 0 .2.1.2.1 0 .1-.1.2-.1.2-.1 0-.2-.1-.2-.1 0-.2.1-.2.1-.2z" fill="#333"/><path d="m21 35.4h-.3z" fill="#010101"/><path d="m22.7 33.8-.2-.2.2.2c-.1 0 0 0 0 0z" fill="#010101"/><path d="m21.8 34.8v-.3z" fill="#010101"/><path d="m26.1 37.3s.1 0 0 0l.2.2z" fill="#010101"/><path d="m25.2 38.2h.3z" fill="#010101"/><path d="m24.6 39v.3-.3c-.1 0-.1 0 0 0z" fill="#010101"/><path d="m24.4 38.7s-.1 0-.2 0l-3-3s0-.1 0-.2l1.4-1.4h.2l3 3v.2z" fill="#adadad"/><path d="m22.8 37.2-1.5-1.5v-.1-.1l.7-.7.7-.7h.1.1l1.5 1.5z" fill="#8b8a8b"/><path d="m24.4 38.5h-.1l-2.7-2.7v-.1l1.2-1.2h.1l2.7 2.7v.1z" fill="#d6d5d5"/><path d="m25.6 37.2-2.7-2.7h-.1l-.7.5v.1l2.7 2.7h.1l.6-.6c.1.1.1 0 .1 0z" fill="#fafbfc"/><path d="m22.8 35c-.1 0-.2-.1-.2-.2s.1-.2.2-.2.2.1.2.2-.1.2-.2.2z" fill="#b0b0b0"/><path d="m23.2 35.4c-.1-.1-.1-.2 0-.2.1-.1.2-.1.2 0 .1.1.1.2 0 .2-.1.1-.2.1-.2 0z" fill="#b0b0b0"/><path d="m25.3 37.3c-.1.1-.2.1-.2 0-.1-.1-.1-.2 0-.2.1-.1.2-.1.2 0z" fill="#b0b0b0"/><path d="m24.7 36.9c-.1 0-.2-.1-.2-.2s.1-.2.2-.2.2.1.2.2-.1.2-.2.2z" fill="#b0b0b0"/><path d="m24.1 36.3c0-.1.1-.2.2-.2s.2.1.2.2-.1.2-.2.2c-.1-.1-.2-.1-.2-.2z" fill="#b0b0b0"/><path d="m23.8 36c-.1 0-.2-.1-.2-.2s.1-.2.2-.2.2.1.2.2c-.1.1-.2.2-.2.2z" fill="#b0b0b0"/><path d="m22.8 35v-.3z" fill="#8b8a8b"/><path d="m23.2 35.4c-.1 0-.1 0 0 0l.2-.2z" fill="#8b8a8b"/><path d="m25.3 37.3-.3-.2z" fill="#8b8a8b"/><path d="m24.7 36.9v-.3z" fill="#8b8a8b"/><path d="m24.1 36.3h.3z" fill="#8b8a8b"/><path d="m23.8 36c-.1 0-.1-.1 0 0v-.3z" fill="#8b8a8b"/><path d="m57.4 6.3.4.2-.1.1z" fill="#989898"/><path d="m55.5 7.5-.1.2.5.5.1-.2z" fill="#989898"/><path d="m54.1 9.4-.1.2.4.4.1-.2z" fill="#989898"/><path d="m50.7 5.9-.5-.3.2-.1z" fill="#b4b4b4"/><path d="m52.5 4.4-.1.2-.5-.5.1-.2z" fill="#b4b4b4"/><path d="m53.5 2.2.4.2-.1.1z" fill="#b4b4b4"/><path d="m56.6 7.1c1.9-1.7 3.4-2.3 3.4-2.3s-.7-.7-.9-1.2c-.1-.3-.1-.6-.3-1-.2-.5-.8-.6-.8-.6s-.1-.6-.5-.7c-.4-.2-.7-.1-1-.3-.5-.3-1.2-1-1.2-1s-.7 1.5-2.3 3.5c-1.7 2-2.9 2.7-2.9 2.7s0 .5-.2 1.3c-.3 1-.8 1.5-.8 1.5l2 2s.6-.6 1.5-.8c.8-.2 1.3-.2 1.3-.2s.6-1.2 2.7-2.9z" fill="#ff5a00"/><path d="m49.5 8.9c.2-.2.5-.7.7-1.3.2-.5.2-1 .2-1.2.4-.3 1.4-1 2.8-2.6 1.2-1.4 1.8-2.5 2.1-3.1.3.2.7.5 1 .7.2.1.4.1.6.2.2 0 .3.1.5.1 0 0 .1 0 .1.1.1 0 .2.2.2.2v.2l.2.1c.1 0 .3.1.5.2l.1.1c.1.2.1.3.1.5s.1.4.2.6c.1.3.5.7.7 1-.6.3-1.8 1-3.1 2.1-1.7 1.4-2.4 2.4-2.6 2.8-.2 0-.6.1-1.2.2-.6.2-1.1.5-1.3.7z" fill="#ff5a00"/><path d="m51.4 6.9c-.2.1-.4.1-.6-.1-.1-.2-.1-.5.1-.6s.4-.1.6.1c.1.2.1.5-.1.6z" fill="#b4b4b4"/><path d="m54.7 3.6c-.2.1-.4.1-.6-.1-.1-.2-.1-.5.1-.6s.4-.1.6.1.1.4-.1.6z" fill="#b4b4b4"/><path d="m57.2 6c-.2.1-.4.1-.6-.1-.1-.2-.1-.5.1-.6s.4-.1.6.1c.1.2.1.5-.1.6z" fill="#b4b4b4"/><path d="m55.4 7.6c-.2.1-.4.1-.6-.1-.1-.2-.1-.5.1-.6s.4-.1.6.1c.1.2.1.5-.1.6z" fill="#b4b4b4"/><path d="m53.1 5.4c-.2.1-.4.1-.6-.1-.1-.2-.1-.5.1-.6s.4-.1.6.1c.1.2.1.4-.1.6z" fill="#b4b4b4"/><path d="m53.8 9.4c-.2.1-.4.1-.6-.1-.1-.2-.1-.5.1-.6s.4-.1.6.1c.1.2.1.4-.1.6z" fill="#b4b4b4"/><path d="m57.7 7.5c.1 0 .3-.1.6-.3.3-.3.3-.5.3-.6s-.3-.4-.4-.4-.3 0-.6.3c-.4.3-.4.5-.4.6.1 0 .4.4.5.4z" fill="#ccc"/><path d="m58.5 6.3c-.1-.1-.2-.2-.2-.2-.1 0-.3 0-.6.3-.4.3-.4.5-.4.6 0 0 .1.1.2.2z" fill="#989898"/><path d="m57.6 7.2c-.1-.1-.1-.1-.1-.2s0-.2.3-.5.4-.3.5-.3c0 0 .1.1.2.1.1.1.1.1.1.2 0 0-.1.2-.3.5-.2.2-.4.3-.5.3s-.1 0-.2-.1z" fill="#989898"/><path d="m58.4 6.4c-.1-.1-.1-.1-.2-.1 0 0-.2 0-.5.3s-.3.4-.3.5c0 0 .1.1.1.2z" fill="#ccc"/><path d="m53 2.6c.1 0 .3-.1.6-.3.3-.3.4-.6.3-.6 0-.1-.3-.4-.4-.4s-.3 0-.6.3c-.4.3-.4.5-.4.6.1.1.4.4.5.4z" fill="#ccc"/><path d="m53.8 1.4c-.1-.1-.2-.2-.2-.2-.1 0-.3 0-.6.3-.4.3-.4.5-.4.6 0 0 .1.1.2.2z" fill="#989898"/><path d="m52.9 2.3c-.1-.1-.1-.1-.1-.2s0-.2.3-.5.4-.3.5-.3c0 0 .1.1.2.1.1.1.1.1.1.2 0 0-.1.2-.3.5-.2.2-.4.3-.5.3s-.1 0-.2-.1z" fill="#989898"/><path d="m53.7 1.5c-.1-.1-.1-.1-.2-.1 0 0-.2 0-.5.3s-.3.4-.3.5c0 0 .1.1.1.2z" fill="#ccc"/><path d="m51.4 4.4c.1 0 .3-.1.6-.3.3-.3.3-.5.3-.6s-.3-.4-.4-.4-.3 0-.6.3c-.3.4-.3.6-.3.6 0 .1.4.4.4.4z" fill="#ccc"/><path d="m52.2 3.3c-.1-.1-.2-.1-.2-.2-.1 0-.3 0-.6.3-.4.4-.4.6-.4.6s.1.1.2.2z" fill="#989898"/><path d="m51.3 4.2c-.1-.1-.1-.2-.1-.2 0-.1 0-.2.3-.5s.4-.3.5-.3c0 0 .1.1.2.1.1.1.1.1.1.2 0 0-.1.2-.3.5-.2.2-.4.3-.5.3s-.1 0-.2-.1z" fill="#989898"/><path d="m52.1 3.4c-.1-.1-.1-.1 0 0-.1-.1-.3-.1-.6.2-.3.2-.3.4-.3.4s.1.1.1.2z" fill="#ccc"/><path d="m49.8 6c.1 0 .3-.1.6-.3.3-.3.3-.5.3-.6s-.3-.4-.4-.4-.3 0-.6.3c-.4.3-.4.5-.4.6.1 0 .4.4.5.4z" fill="#ccc"/><path d="m50.5 4.8c-.1-.1-.2-.2-.2-.2-.1 0-.3 0-.6.3-.4.3-.4.5-.4.6 0 0 .1.1.2.2z" fill="#989898"/><path d="m49.6 5.7c-.1-.1-.1-.1-.1-.2s0-.2.3-.5.4-.3.5-.3c0 0 .1.1.2.1 0 .2.1.2.1.3 0 0-.1.2-.3.5-.2.2-.4.3-.5.3 0-.1-.1-.1-.2-.2z" fill="#989898"/><path d="m50.4 4.9c-.1-.1-.1-.1-.2-.1 0 0-.2 0-.5.3s-.3.4-.3.5c0 0 .1.1.1.2z" fill="#ccc"/><path d="m55.9 9c.1 0 .3-.1.6-.3.3-.3.3-.5.3-.6s-.3-.4-.4-.4-.3 0-.6.3c-.4.3-.4.5-.4.6.1 0 .5.4.5.4z" fill="#ccc"/><path d="m56.7 7.8c-.1-.1-.2-.2-.2-.2-.1 0-.3 0-.6.3-.4.3-.4.5-.4.6 0 0 .1.1.2.2z" fill="#989898"/><path d="m55.8 8.7c-.1-.1-.1-.1-.1-.2s0-.2.3-.5.4-.3.5-.3c0 0 .1.1.2.1.1.1.1.1.1.2 0 0-.1.2-.3.5-.3.3-.5.3-.5.4-.1-.1-.1-.1-.2-.2z" fill="#989898"/><path d="m56.6 7.9c-.1-.1-.1-.1-.2-.1 0 0-.2 0-.5.3s-.3.4-.3.5c0 0 .1.1.1.2z" fill="#ccc"/><path d="m54.3 10.8c.1 0 .3-.1.6-.3.3-.3.3-.5.3-.6s-.3-.4-.4-.4-.3 0-.6.3c-.4.3-.4.5-.4.6.2 0 .5.3.5.4z" fill="#ccc"/><path d="m55.1 9.6c-.1-.1-.2-.2-.2-.2-.1 0-.3 0-.6.3-.4.3-.4.5-.4.6 0 0 .1.1.2.2z" fill="#989898"/><path d="m54.2 10.5c-.1-.1-.1-.1-.1-.2s0-.2.3-.5.4-.3.5-.3c0 0 .1.1.2.1.1.1.1.1.1.2 0 0-.1.2-.3.5-.2.2-.4.3-.5.3s-.1 0-.2-.1z" fill="#989898"/><path d="m55 9.7c-.1-.1-.1-.1-.2-.1 0 0-.2 0-.5.3s-.3.4-.3.5c0 0 .1.1.1.2z" fill="#ccc"/><path d="m49.2 8.9-36.5 35.6 36.5-35.6 2-2.1h.1z" fill="none" stroke="#b3b3b3" stroke-miterlimit="10" stroke-width=".1"/><path d="m49.6 9.3-36.3 35.7 36.3-35.7 3.3-4.1h.1z" fill="none" stroke="#b3b3b3" stroke-miterlimit="10" stroke-width=".1"/><path d="m50 9.7-36.1 35.9 36.1-35.9 4.6-6.3h.1z" fill="none" stroke="#b3b3b3" stroke-miterlimit="10" stroke-width=".1"/><path d="m51 10.8-35.5 36.3 35.5-36.3 2.3-1.8v-.1z" fill="none" stroke="#b3b3b3" stroke-miterlimit="10" stroke-width=".1"/><path d="m50.7 10.5-35.7 36.2 35.7-36.2 4.2-3.2.1-.2z" fill="none" stroke="#b3b3b3" stroke-miterlimit="10" stroke-width=".1"/><path d="m50.3 10.1-35.9 36 35.9-36 6.5-4.5v-.1z" fill="none" stroke="#b3b3b3" stroke-miterlimit="10" stroke-width=".1"/><path d="m51.3 6.8c-.1.1-.3 0-.3-.1-.1-.1-.1-.2 0-.3s.2-.1.3.1c.1.1.1.2 0 .3z" fill="#818181"/><path d="m54.6 3.4c-.1.1-.2.1-.3-.1-.1-.1-.1-.2 0-.3.1 0 .3 0 .4.1 0 .1 0 .2-.1.3z" fill="#818181"/><path d="m57.1 5.9c-.1.1-.2.1-.3-.1-.1-.1-.1-.2 0-.3s.2-.1.3.1c.1 0 .1.2 0 .3z" fill="#818181"/><path d="m55.3 7.4c-.1.1-.2.1-.3-.1-.1-.1-.1-.2 0-.3.1 0 .2 0 .3.1s.1.3 0 .3z" fill="#818181"/><path d="m53 5.2c-.1.1-.2.1-.3-.1-.1-.1-.1-.2 0-.3s.2-.1.3.1c.1.1.1.2 0 .3z" fill="#818181"/><path d="m53.7 9.2c-.1.1-.2.1-.3-.1-.1-.1-.1-.2 0-.3s.2-.1.3.1c.1.1.1.2 0 .3z" fill="#818181"/><path d="m11.1 43.4c-.3.3-.2.5-.2.5l5.2 5.2s.2.1.5-.2.3-.6.3-.6l-5.2-5.2s-.3 0-.6.3z" fill="#010101"/><path d="m14.3 45.8 2.6 2.6s0 .3-.3.6-.5.2-.5.2l-2.6-2.6z" fill="#1a1a1a"/><path d="m16.2 49s.1 0 .3-.2.2-.3.2-.4l-5.1-5.1c-.1 0-.2.1-.4.2-.1.1-.2.2-.2.3z" fill="#1a1a1a"/><path d="m14.2 45.9 2.5 2.5c0 .1-.1.2-.2.4-.1.1-.2.2-.3.2l-2.6-2.6z" fill="#010101"/><path d="m16.5 48.4c0-.2-.1-.4-.3-.4s-.4.1-.4.3.1.4.3.4c.3 0 .4-.1.4-.3z" fill="#4e4e4e"/><path d="m11.9 44.1c.1-.1.2-.4 0-.5-.1-.1-.4-.2-.5 0-.1.1-.2.4 0 .5.1.2.3.2.5 0z" fill="#4e4e4e"/><path d="m16.5 48.4-.7-.1z" fill="#010101"/><path d="m11.9 44.1-.5-.5.5.5c-.1.1 0 0 0 0z" fill="#010101"/><path d="m21.3 50.3c.1-.1.1-.2 0-.3s-.2-.1-.3 0-.1.2 0 .3.2.1.3 0z" fill="#818181"/><path d="m21.3 50.3-.2-.3z" fill="#010101"/><path d="m23.6 33.5c.1-.1.2-.1.3 0s.1.2 0 .3-.2.1-.3 0-.1-.2 0-.3z" fill="#ccc"/><path d="m23.6 33.5.3.2-.3-.2c-.1 0 0 0 0 0z" fill="#4e4e4e"/><path d="m23.5 46.7c.1-.1.1-.2 0-.3s-.2-.1-.3 0-.1.2 0 .3.2.1.3 0z" fill="#818181"/><path d="m23.5 46.7-.2-.3z" fill="#010101"/><path d="m27.2 44.5c.1-.1.1-.2 0-.3s-.2-.1-.3 0-.1.2 0 .3.2.1.3 0z" fill="#818181"/><path d="m27.2 44.5-.2-.3z" fill="#010101"/><path d="m29.9 41.5c.1-.1.1-.2 0-.3s-.2-.1-.3 0-.1.2 0 .3.2.1.3 0z" fill="#818181"/><path d="m29.9 41.5-.2-.3z" fill="#010101"/><path d="m26.6 36.5c.1-.1.1-.2 0-.3s-.2-.1-.3 0-.1.2 0 .3.2.1.3 0z" fill="#818181"/><path d="m26.6 36.5-.2-.3z" fill="#010101"/><path d="m19.3 32.6c.1-.1.2-.1.3 0s.1.2 0 .3-.2.1-.3 0-.1-.2 0-.3z" fill="#ccc"/><path d="m19.3 32.6.3.2z" fill="#4e4e4e"/><path d="m17.5 36.1c.1-.1.2-.1.3 0s.1.2 0 .3-.2.1-.3 0-.1-.2 0-.3z" fill="#ccc"/><path d="m17.5 36.1.3.2-.3-.2c-.1 0-.1 0 0 0z" fill="#4e4e4e"/><path d="m14.7 39c.1-.1.2-.1.3 0s.1.2 0 .3-.2.1-.3 0c0-.2 0-.3 0-.3z" fill="#ccc"/><path d="m14.7 39c0-.1 0-.1 0 0l.3.2z" fill="#4e4e4e"/><path d="m11.6 41.2c.1-.1.2-.1.3 0s.1.2 0 .2c-.1.1-.2.1-.3 0s-.1-.2 0-.2z" fill="#ccc"/><path d="m11.6 41.2.3.2z" fill="#4e4e4e"/></svg>