<svg enable-background="new 0 0 60 60" height="60" viewBox="0 0 60 60" width="60" xmlns="http://www.w3.org/2000/svg"><path d="m6.3 54.5c-.1-.1-.3-.3-.4-.4-2-2.1-3.6-4.3-4.6-6.6-.9-2.1-1.4-4.1-1.3-6 .1-2.6 1.2-4.7 3.2-6.2 2.8-2.1 5.7-2.6 8-2.9 1.9-.3 3.5-.6 4.6-1.6 1.2-1.2 1.7-2.3 2.2-3.3s.9-1.9 2-2.9c1.1-.9 2.3-1.4 3.7-1.4 1.1 0 2.3.2 3.6.8 2.1.9 3.7 2.3 3.7 2.3l2.6 2.6s1.4 1.6 2.3 3.7c.5 1.3.8 2.5.8 3.6 0 1.4-.5 2.6-1.4 3.7-1 1.1-1.9 1.5-2.9 2s-2.1 1-3.3 2.2c-1 1.1-1.3 2.7-1.7 4.6-.4 2.3-.9 5.1-3 7.9-1.6 2.1-3.9 3.3-6.6 3.4-3.8.1-7.8-1.9-11.5-5.5z" fill="#00572c"/><path d="m6.5 54.2c-.1-.1-.3-.3-.4-.4-2-2.1-3.5-4.3-4.5-6.5-.9-2.1-1.3-4-1.3-5.9.1-2.5 1.2-4.5 3-5.9 2.8-2 5.6-2.5 7.8-2.9 1.9-.3 3.6-.6 4.8-1.7 1.3-1.2 1.8-2.3 2.3-3.4.5-1 .9-1.9 1.9-2.8s2.2-1.3 3.5-1.3c1.1 0 2.2.2 3.4.7 2 .8 3.5 2.1 3.6 2.2l2.6 2.6c.1.1 1.4 1.6 2.2 3.6.5 1.2.8 2.4.7 3.4 0 1.3-.5 2.5-1.3 3.5-1 1-1.9 1.4-2.8 1.9-1 .5-2.1 1-3.4 2.3-1.1 1.1-1.4 2.8-1.8 4.8-.4 2.2-.9 5-2.9 7.8-1.5 2-3.8 3.1-6.4 3.2-3.4.3-7.4-1.6-11-5.2z" fill="#010101"/><path d="m5.9 54.1c-2-2.1-3.6-4.3-4.6-6.6-.9-2.1-1.4-4.1-1.3-6 .1-2.6 1.2-4.7 3.2-6.2 2.8-2.1 5.7-2.6 8-2.9 1.9-.3 3.5-.6 4.6-1.6 1.2-1.2 1.7-2.3 2.2-3.3s.9-1.9 2-2.9c1.1-.9 2.3-1.4 3.7-1.4 1.1 0 2.3.2 3.6.8 2.1.9 3.7 2.3 3.7 2.3l1.5 1.5c0-.1-26.6 26.3-26.6 26.3z" fill="#333"/><path d="m6.1 53.8c-2-2.1-3.5-4.3-4.5-6.5-.9-2.1-1.3-4-1.3-5.9.1-2.5 1.2-4.5 3-5.9 2.8-2 5.6-2.5 7.8-2.9 1.9-.3 3.6-.6 4.8-1.7 1.3-1.2 1.8-2.3 2.3-3.4.5-1 .9-1.9 1.9-2.8s2.2-1.3 3.5-1.3c1.1 0 2.2.2 3.4.7 2 .8 3.5 2.1 3.6 2.2l1.2 1.2z" fill="#00572c"/><path d="m50.5 6.3-.6-.3.2-.2z" fill="#b4b4b4"/><path d="m49.5 6.4c.1 0 .4-.1.6-.4.3-.3.4-.6.4-.6 0-.1-.3-.4-.4-.4s-.3 0-.7.3c-.4.4-.4.5-.4.6s.4.4.5.5z" fill="#ccc"/><path d="m50.3 5.1c-.1-.1-.2-.2-.2-.2-.1 0-.3 0-.7.3-.4.5-.4.6-.4.7 0 0 .1.2.2.3z" fill="#989898"/><path d="m49.3 6.1c-.1-.1-.1-.2-.2-.2 0-.1 0-.2.3-.5.4-.3.6-.3.6-.3s.1.1.2.2.1.1.1.2-.1.3-.3.5-.5.3-.5.3c0-.1-.1-.1-.2-.2z" fill="#989898"/><path d="m50.2 5.2c-.1-.1-.2-.1-.2-.1s-.2 0-.5.3-.3.5-.3.5.1.1.2.2z" fill="#ccc"/><path d="m52.3 4.3-.2.2-.5-.5.2-.2z" fill="#b4b4b4"/><path d="m51.1 4.4c.1 0 .4-.1.6-.4.3-.3.4-.6.4-.6 0-.1-.3-.4-.4-.4s-.3 0-.7.3c-.4.4-.4.6-.4.6.1.1.4.4.5.5z" fill="#ccc"/><path d="m51.9 3.1c-.1-.1-.2-.2-.2-.2-.1 0-.3 0-.7.3-.4.4-.4.6-.4.6s.1.2.2.3z" fill="#989898"/><path d="m51 4.1c-.1-.1-.1-.2-.2-.2 0-.1 0-.2.3-.5s.5-.3.5-.3.1.1.2.2c.1 0 .2.1.2.1 0 .1-.1.3-.3.5s-.5.3-.5.3c-.1 0-.2 0-.2-.1z" fill="#989898"/><path d="m51.8 3.2c-.1-.1-.1-.1-.2-.1 0 0-.2 0-.5.3s-.3.5-.3.5.1.1.2.2z" fill="#ccc"/><path d="m53.9 9.6-.2.1.5.5.1-.2z" fill="#989898"/><path d="m54.1 11c.1 0 .4-.1.6-.4.3-.3.4-.6.4-.6 0-.1-.3-.4-.4-.4s-.3 0-.7.3c-.4.4-.4.6-.4.6.1.2.5.5.5.5z" fill="#ccc"/><path d="m55 9.8c-.1-.1-.2-.2-.2-.2-.1 0-.3 0-.7.3-.4.4-.4.6-.4.6s.1.2.2.3z" fill="#989898"/><path d="m54 10.8c-.1-.1-.1-.2-.2-.2 0-.1 0-.2.3-.5s.5-.3.5-.3.1.1.2.2c.2 0 .2 0 .2.1s-.1.3-.3.5-.5.3-.5.3c-.1 0-.1-.1-.2-.1z" fill="#989898"/><path d="m54.9 9.9c-.1-.1-.1-.1-.2-.1 0 0-.2 0-.5.3s-.3.5-.3.5.1.1.2.2z" fill="#ccc"/><path d="m55.7 7.8-.1.2.5.5.1-.1z" fill="#989898"/><path d="m56.1 9.4c.1 0 .4-.1.6-.4.3-.3.4-.6.4-.6 0-.1-.3-.4-.4-.4s-.3 0-.7.3c-.4.4-.4.6-.4.6.1.1.5.5.5.5z" fill="#ccc"/><path d="m57 8.2c-.1-.1-.2-.2-.3-.2s-.3 0-.7.3c-.4.4-.4.6-.4.6s.1.2.2.3z" fill="#989898"/><path d="m56 9.1c-.1-.1-.1-.1-.2-.2 0-.1 0-.2.3-.5s.5-.3.5-.3.1.1.2.2c.2 0 .2.1.2.1 0 .1-.1.3-.3.5s-.5.3-.5.3c-.1.1-.1 0-.2-.1z" fill="#989898"/><path d="m56.9 8.3c-.1-.1-.1-.1-.2-.1 0 0-.2 0-.5.3s-.3.5-.3.5.1.1.2.2z" fill="#ccc"/><path d="m57.9 6.3.4.2-.1.1z" fill="#989898"/><path d="m58.3 7.6c.1 0 .4-.1.6-.4.3-.3.4-.6.4-.6 0-.1-.3-.4-.4-.4s-.3 0-.7.3c-.4.4-.4.6-.4.6 0 .1.4.5.5.5z" fill="#ccc"/><path d="m59.1 6.3c-.1-.1-.2-.2-.2-.2-.1 0-.3 0-.7.3-.4.4-.4.6-.4.6s.1.2.2.3z" fill="#989898"/><path d="m58.1 7.3c-.1-.1-.1-.2-.1-.2 0-.1 0-.2.3-.5s.5-.3.5-.3.1.1.2.2.1.1.1.2-.1.3-.3.5-.5.3-.5.3c0-.1-.1-.1-.2-.2z" fill="#989898"/><path d="m59 6.4c-.1-.1-.1-.1-.2-.1 0 0-.2 0-.5.3s-.3.5-.3.5.1.1.2.2z" fill="#ccc"/><path d="m53.4 1.9.1-.1.3.2-.1.1z" fill="#b4b4b4"/><path d="m52.9 2.2c.1 0 .4-.1.6-.4.3-.3.4-.6.4-.6 0-.1-.3-.4-.4-.4s-.3 0-.7.3c-.4.4-.4.6-.4.6.1.2.4.5.5.5z" fill="#ccc"/><path d="m53.7 1c-.1-.1-.2-.2-.2-.2-.1 0-.3 0-.7.3-.4.4-.4.6-.4.6s.1.2.2.3z" fill="#989898"/><path d="m52.8 1.9c-.1-.1-.1-.2-.2-.2 0-.1 0-.2.3-.5s.5-.3.5-.3.1.1.2.2.1.1.1.2-.1.3-.3.5-.4.3-.5.3c0 0 0-.1-.1-.2z" fill="#989898"/><path d="m53.6 1.1c-.1-.1-.1-.1-.2-.1 0 0-.2 0-.5.3s-.3.5-.3.5.1.1.2.2z" fill="#ccc"/><path d="m59.2 4.9c0-.1.3-.2.5-.3.1 0 .3-.1.3-.1l-.7-2.6s-.9 0-1-.1-.1-1-.1-1l-2.6-.7s-.1.2-.2.4-.2.4-.3.5c-.2.1-.4 0-.4 0l-5.8 6.8s.2.4.1.8-.3.7-.3.7l2.3 2.3s.3-.2.7-.3.8.1.8.1l6.8-5.8c-.1-.3-.2-.4-.1-.7z" fill="#333"/><path d="m58.3 1.8c-.1-.1-.1-1-.1-1l-2.6-.7s-.1.2-.2.4-.2.4-.3.5c-.2.1-.4 0-.4 0l-5.8 6.8s.2.4.1.8-.3.7-.3.7l1.1 1.1z" fill="#010101"/><path d="m7.5 53.8c-.1-.1-.3-.3-.4-.4-2.1-2.1-3.6-4.3-4.6-6.5-.9-2-1.4-3.8-1.3-5.5.1-2.1.9-3.8 2.4-4.9 2.6-1.8 5.2-2.2 7.5-2.6 2.3-.3 4.4-.6 5.9-2.2 1.5-1.5 2.2-2.8 2.7-4 .4-.9.8-1.7 1.6-2.4.7-.6 1.6-.9 2.5-.9s1.9.2 2.9.7c1.8.8 3.1 1.9 3.4 2.1l2.8 2.8c.2.3 1.4 1.7 2.1 3.4.5 1.1.7 2.1.7 2.9 0 1-.3 1.8-.9 2.5-.8.8-1.5 1.1-2.4 1.6-1.2.6-2.5 1.2-4 2.7-1.5 1.6-1.8 3.7-2.2 5.9-.4 2.3-.8 4.9-2.6 7.5-1.2 1.6-3.1 2.6-5.4 2.6-3.3.2-7.1-1.7-10.7-5.3z" fill="#00572c"/><path d="m31.4 28.5-1.2-1.2c-.3-.2-1.7-1.4-3.4-2.1-1.1-.5-2.1-.7-2.9-.7-1 0-1.8.3-2.5.9-.8.8-1.1 1.5-1.6 2.4-.5 1.2-1.2 2.5-2.7 4-1.6 1.5-3.7 1.8-5.9 2.2-2.3.3-5 .7-7.5 2.6-1.5 1.1-2.4 2.8-2.4 4.9 0 1.7.4 3.5 1.3 5.5 1.3 2.9 4.4 6.2 4.4 6.2z" fill="#00572c"/><path d="m33.2 29.7-9.4 9.4s1.3 1 1.8 1.8c.6.8.9 1.6 1 2 .3.7 1.2.9 1.8-.1.4-.7 1-2.7 2.2-5.3 1-2.2 2.4-2.8 2.7-4.4.2-1-.1-1.3-.2-2-.1-.8.1-1.4.1-1.4z" fill="#333"/><path d="m33.4 32.1c-.1-.4-.2-.6-.3-1-.1-.8 0-1.4 0-1.4l-9.4 9.4s.8.6 1.4 1.3z" fill="#010101"/><path d="m27 43.1c-.1-.1-.1-.2-.2-.3-.2-.5-.5-1.3-1-2-.1-.2-.3-.4-.6-.7-.4-.4-.9-.8-1.1-1l8.9-8.9v1c0 .2.1.4.2.6.1.4.2.7.1 1.3-.2.8-.6 1.3-1.1 2-.5.6-1.1 1.3-1.6 2.4-.7 1.5-1.2 2.9-1.6 3.8-.3.7-.4 1.2-.6 1.5s-.4.5-.7.6c-.3-.1-.5-.1-.7-.3z" fill="#010101"/><path d="m27.6 35.8-3.3-3.5 24.1-22.9 2.2 2.3z" fill="#4b1212"/><path d="m26 34-1.7-1.7 12-11.5 12.1-11.4 1.1 1.2z" fill="#6f2e2e"/><path d="m48.3 9.4.3-.3 2.3 2.3-.3.3z" fill="#e6e6e5"/><path d="m48.4 9.4.1-.1 2.3 2.3-.1.1z" fill="#989898"/><path d="m49 9.1c.1-.1.2-.3.2-.5.1-.3 0-.6 0-.8l5.6-6.6c.1 0 .3 0 .4-.1.2-.1.3-.3.3-.4s0-.1.1-.1c0 0 0-.1.1-.1l2.3.5c0 .1 0 .9.1 1l-.1.1c.1.1 1 .1 1.1.1l.6 2.2s-.1 0-.1.1c0 0-.1 0-.1.1-.2.1-.4.2-.4.3-.1.2-.1.3-.1.4l-6.6 5.6c-.2-.1-.5-.1-.8 0-.2.1-.4.2-.5.2z" fill="#010101"/><path d="m49 13.4-2.3-2.4h.1z"/><path d="m47.4 15.1-2.4-2.4.1-.1 2.4 2.4z"/><path d="m45.9 16.6-2.4-2.5v-.1l2.5 2.5z"/><path d="m44.5 18.1-2.5-2.6 2.6 2.5z"/><path d="m43.1 19.6-2.6-2.7h.1l2.6 2.6z"/><path d="m41.8 20.9-2.6-2.7v-.1l2.7 2.7z"/><path d="m40.6 22.2-2.7-2.8v-.1l2.8 2.8z"/><path d="m39.4 23.4-2.8-2.8.1-.1 2.8 2.8z"/><path d="m38.3 24.6-2.9-2.9.1-.1 2.9 2.9z"/><path d="m37.3 25.6-2.9-2.9.1-.1 2.9 2.9z"/><path d="m36.3 26.6-2.9-2.9.1-.1 2.9 2.9z"/><path d="m35.4 27.6-3-3 .1-.1 3 3z"/><path d="m34.5 28.5-3-3 .1-.1 3 3z"/><path d="m33.7 29.4-3.1-3.1.1-.1 3.1 3.1z"/><path d="m32.9 30.2-3.2-3.1.1-.1z"/><path d="m32.1 31-3.2-3.1.1-.1 3.2 3.1z"/><path d="m31.4 31.8-3.2-3.2.1-.1 3.2 3.2z"/><path d="m30.6 32.6-3.2-3.2.1-.1 3.2 3.2z"/><path d="m29.9 33.3-3.3-3.2.1-.1 3.3 3.2z"/><path d="m29.2 34.1-3.4-3.3.1-.1z"/><path d="m28.5 34.8-3.4-3.3.1-.1 3.4 3.3z"/><g fill="#e6e6e5"><path d="m49.1 13.3-2.4-2.3.1-.1 2.4 2.3z"/><path d="m47.4 15-2.4-2.4.1-.1 2.4 2.4z"/><path d="m46 16.5-2.5-2.4.1-.1z"/><path d="m44.5 18-2.5-2.5.1-.1z"/><path d="m43.1 19.5-2.6-2.6.1-.1 2.6 2.6z"/><path d="m41.9 20.8-2.7-2.6.1-.1 2.7 2.6z"/><path d="m40.6 22.1-2.7-2.7.1-.1 2.7 2.7z"/><path d="m39.5 23.4-2.8-2.8v-.1l2.8 2.8z"/><path d="m38.3 24.5-2.8-2.8.1-.1 2.8 2.8z"/><path d="m37.3 25.6-2.9-2.9.1-.1 2.9 2.9z"/><path d="m36.4 26.6-3-3 .1-.1 3 3z"/><path d="m35.5 27.5-3-3 .1-.1z"/><path d="m34.6 28.5-3.1-3.1.1-.1 3.1 3.1z"/><path d="m33.7 29.3-3.1-3 .1-.1z"/><path d="m32.9 30.2-3.1-3.1.1-.1 3.1 3.1z"/><path d="m32.2 31-3.2-3.2.1-.1 3.2 3.2z"/><path d="m31.4 31.8-3.2-3.2.1-.1 3.2 3.2z"/><path d="m30.7 32.6-3.3-3.3.1-.1 3.3 3.3z"/><path d="m30 33.3-3.3-3.3.1-.1 3.3 3.3z"/><path d="m29.2 34.1-3.3-3.3.1-.1 3.3 3.3z"/><path d="m28.5 34.8-3.3-3.4h.1l3.3 3.3z"/></g><path d="m51.3 7.1c-.2.1-.5.1-.6-.1-.2-.2-.1-.5.1-.6s.5-.1.6.1c.2.2.1.4-.1.6z" fill="#fff"/><path d="m54.8 3.2c-.2.1-.5.1-.6-.1-.2-.2-.1-.5.1-.6s.5-.1.6.1c.2.2.1.5-.1.6z" fill="#fff"/><path d="m57.5 5.9c-.2.2-.5.1-.7-.1s-.1-.5.1-.6.5-.1.6.1c.2.2.2.5 0 .6z" fill="#ccc"/><path d="m55.5 7.6c-.2.1-.5.1-.6-.1-.2-.2-.2-.5.1-.6.2-.1.5-.1.6.1s.1.5-.1.6z" fill="#ccc"/><path d="m53 5.2c-.2.1-.5.1-.6-.1-.2-.2-.1-.5.1-.6s.5-.1.6.1.1.4-.1.6z" fill="#fff"/><path d="m53.6 9.4c-.2.1-.5.1-.6-.1-.2-.2-.1-.5.1-.6s.5-.1.6.1.1.4-.1.6z" fill="#ccc"/><path d="m26 41.8c.3.2.6.5.6 1.2 0 .4-.1.9-.5 1.5s-.9 1.2-1.4 2.1c-.3.6-.6 1.3-.6 1.3s-.9.3-1.5.8c-.6.4-1.4 1.3-1.7 2-.5 1.2-.4 2.1-.4 2.1s.7-1 1.5-.6c.4.2.6.9 0 1.4-.5.4-1.3.4-1.8 0-.8-.7-.6-1.5-.4-2.1.2-.9.8-1.8 1.2-2.4.9-1.1 1.1-2.1 1.1-2.1s1.4-.7 2-1.2c1.1-1 1.8-2.3 1.7-3.1 0 0-.6.5-1.1.1-.4-.3-.3-.8 0-1s.8-.4 1.3 0z" fill="#010101"/><path d="m26.1 42.1c.2.2.3.5.4 1 0 .4-.1.9-.5 1.4-.1.2-.3.4-.4.6-.3.4-.7.9-1 1.5-.3.5-.5 1.1-.5 1.3-.2.1-.9.4-1.5.7-.7.5-1.5 1.3-1.8 2-.5 1.2-.4 2.1-.4 2.1v.3l.2-.3s.7-.9 1.3-.5l.1.1c.1.1.2.3.2.5s-.1.4-.3.6c-.4.4-1.2.4-1.6 0-.1 0-.1-.1-.1-.1-.6-.6-.4-1.3-.2-1.8.3-1.1 1-2.1 1.2-2.3.7-1 1-1.8 1.1-2.1.3-.1 1.4-.7 2-1.2 1.2-1 1.8-2.4 1.7-3.2v-.1h-.1c-.1 0-.1 0-.1.1-.3.2-.6.3-.9.1-.1-.1-.2-.2-.2-.4 0-.1.1-.3.2-.4.2-.2.6-.4 1.1 0 0 0 0 0 .1.1zm.1-.1c-.1-.1-.1-.1-.2-.2-.5-.4-1-.2-1.3 0s-.4.6-.1 1c.5.4 1-.1 1.1-.1.1.7-.5 2.1-1.7 3.1-.6.5-2 1.2-2 1.2s-.2 1-1.1 2.1c-.4.6-1 1.5-1.2 2.4-.2.6-.4 1.3.3 2 0 0 .1.1.2.1.5.4 1.3.4 1.8 0s.4-1 .1-1.3l-.1-.1c-.8-.4-1.5.6-1.5.6s-.1-.9.4-2.1c.3-.7 1.1-1.5 1.7-2 .6-.4 1.5-.8 1.5-.8s.2-.7.6-1.3c.5-.8 1-1.5 1.4-2.1s.5-1.1.5-1.5c0-.5-.2-.8-.4-1z" fill="#333"/><path d="m17.9 33.7c-.2-.3-.5-.6-1.2-.6-.4 0-.9.1-1.5.5s-1.2.9-2.1 1.4c-.6.3-1.3.6-1.3.6s-.3.9-.8 1.5c-.4.6-1.3 1.4-2 1.7-1.1.5-2 .4-2 .4s1-.7.6-1.5c-.2-.4-.9-.6-1.4 0-.4.5-.4 1.3 0 1.8.7.8 1.5.6 2.1.4.9-.2 1.8-.8 2.4-1.2 1.1-.9 2.1-1.1 2.1-1.1s.7-1.4 1.2-2c1-1.1 2.3-1.8 3.1-1.7 0 0-.5.6-.1 1.1.3.4.8.3 1 0 .1-.3.3-.7-.1-1.3z" fill="#141414"/><path d="m17.7 33.6c.1.1.1.1.1.2.3.5.1.9 0 1.1-.1.1-.3.2-.4.2s-.3 0-.4-.2c-.2-.3-.1-.6.1-.9 0-.1.1-.1.1-.1v-.1h-.1c-.7-.1-2.1.5-3.2 1.7-.4.5-1 1.7-1.2 2-.2.1-1.1.4-2.1 1.1-.3.2-1.3.9-2.3 1.2-.6.2-1.3.3-1.9-.2l-.1-.1c-.4-.4-.4-1.2 0-1.6.2-.2.4-.3.6-.3s.4.1.5.2l.1.1c.4.6-.5 1.3-.5 1.3l-.3.2h.3s1 .1 2.1-.4c.7-.3 1.5-1.1 2-1.8.4-.5.7-1.3.7-1.5.2-.1.8-.3 1.3-.5.6-.3 1.1-.7 1.5-1 .2-.1.4-.3.6-.4.5-.3 1-.5 1.4-.5.5 0 .9.1 1.1.3zm.1-.1c-.2-.2-.5-.4-1-.4-.4 0-.9.1-1.5.5-.7.4-1.3.9-2.2 1.4-.6.3-1.3.6-1.3.6s-.3.9-.8 1.5c-.4.6-1.3 1.4-2 1.7-1.1.5-2 .4-2 .4s1-.7.6-1.5c0-.1-.1-.1-.1-.1-.3-.3-.8-.4-1.3.1-.4.5-.4 1.3 0 1.8 0 .1.1.1.1.2.6.6 1.4.4 2 .3.9-.2 1.8-.8 2.4-1.2 1.1-.9 2.1-1.1 2.1-1.1s.7-1.4 1.2-2c1-1.1 2.3-1.8 3.1-1.7 0 0-.5.6-.1 1.1.3.3.8.2 1-.1s.4-.7 0-1.3c-.1 0-.2-.1-.2-.2z" fill="#5b5b5b"/><path d="m45.7 14.8c-.1.1-.3.1-.4 0s-.1-.3 0-.4.3-.1.4 0 .1.3 0 .4z" fill="#eedd84"/><path d="m42.8 17.6c-.1.1-.3.1-.4 0s-.1-.3 0-.4.3-.1.4 0c.1.2.1.3 0 .4z" fill="#eedd84"/><path d="m40.2 20.3c-.1.1-.3.1-.4 0s-.1-.3 0-.4.3-.1.4 0 0 .3 0 .4z" fill="#eedd84"/><path d="m37.7 22.7c-.1.1-.3.1-.4 0s-.1-.3 0-.4.3-.1.4 0c.1.2.1.3 0 .4z" fill="#eedd84"/><path d="m34.6 27.4c-.1.1-.3.1-.4 0s-.1-.3 0-.4.3-.1.4 0c.1.2.1.3 0 .4z" fill="#eedd84"/><path d="m33 25.9c-.1.1-.3.1-.4 0s-.1-.3 0-.4.3-.1.4 0 .1.3 0 .4z" fill="#eedd84"/><path d="m31.2 29.2c-.1.1-.3.1-.4 0s-.1-.3 0-.4.3-.1.4 0c.1.2.1.3 0 .4z" fill="#eedd84"/><path d="m29.7 30.7c-.1.1-.3.1-.4 0s-.1-.3 0-.4.3-.1.4 0c.1.2.1.3 0 .4z" fill="#eedd84"/><path d="m28.2 32.2c-.1.1-.3.1-.4 0s-.1-.3 0-.4.3-.1.4 0c.1.2.1.3 0 .4z" fill="#eedd84"/><path d="m18.5 46.4c-.2.2-.6.2-.9 0-.2-.2-.2-.6 0-.9.2-.2.6-.2.9 0s.3.6 0 .9z" fill="#b4b4b4"/><path d="m18.4 46.3c-.2.2-.5.2-.8 0-.2-.2-.2-.5 0-.8.2-.2.5-.2.8 0 .2.2.2.6 0 .8z" fill="#676767"/><path d="m14.3 42.5c-.2.2-.6.2-.9 0-.2-.2-.2-.6 0-.9.2-.2.6-.2.9 0 .3.3.3.7 0 .9z" fill="#e6e6e5"/><path d="m14.3 42.5c-.2.2-.5.2-.8 0-.2-.2-.2-.5 0-.8.2-.2.5-.2.8 0 .2.2.2.6 0 .8z" fill="#989898"/><path d="m18.3 46.3c-.1.2-.4.1-.6-.1l-4.1-3.8c-.2-.2-.2-.5-.1-.6l.1-.1c.1-.2.4-.1.6.1l4.1 3.8c.2.1.3.4 0 .7zm-.6-1.1-.3-.3-.4.5.3.3zm-.5-.5-.3-.3-.4.5.3.3zm-.6-.5-.3-.3-.4.5.3.3zm-.5-.5-.3-.3-.4.5.3.3zm-.6-.5-.3-.3-.4.5.3.3zm-.6-.6-.3-.3-.4.5.3.3z" fill="#878787"/><path d="m16.3 43.7-2.1-1.9c-.2-.2-.5-.2-.6-.1l-.1.1c-.1.2-.1.4.1.6l2 1.9zm-2.1-.9.4-.5.3.3-.4.5zm.6.6.4-.5.3.3-.4.5zm1 0 .3.3-.4.5-.3-.3z" fill="#b5b5b5"/><path d="m13.9 41.9c.1 0 .2.1.2.2s-.1.2-.2.2-.2-.1-.2-.2.1-.2.2-.2z" fill="#818181"/><path d="m18.1 45.7c.1 0 .2.1.2.2s-.1.2-.2.2-.2-.1-.2-.2.1-.2.2-.2z" fill="#4e4e4e"/><path d="m13.9 41.9v.4z" fill="#010101"/><path d="m18.1 45.7v.4-.4c-.1 0 0 0 0 0z" fill="#010101"/><path d="m14.2 42.7.5.3-.1.1z" fill="#989898"/><path d="m15.3 43.5-.4-.4v-.1l.5.4z" fill="#989898"/><path d="m15.6 43.5.5.3-.1.1z" fill="#989898"/><path d="m16.3 44.7-.5-.4.1-.1.5.4z" fill="#555554"/><path d="m16.6 44.6.5.3-.1.1z" fill="#555554"/><path d="m17.3 44.9.5.3-.1.1z" fill="#555554"/><path d="m6.5 55.5-2-2v-.1l.2-.2h.1l2 2v.1z" fill="#d7d7d7"/><path d="m6.5 55.5-1.1-1-1-1 .1-.1z" fill="#878787"/><path d="m10.3 45.2.5-.5 4.4 4.4-.5.5z" fill="#878787"/><path d="m10.3 45.2.5-.5 4.4 4.4-.5.5z" fill="#d7d7d7"/><path d="m10.2 44.9.4-.4.2.2-.4.4z" fill="#878787"/><path d="m10.2 45 .4-.4.1.1-.4.4z" fill="#d7d7d7"/><path d="m14.8 49.5.4-.4.1.1-.4.4z" fill="#d7d7d7"/><path d="m10.2 45.2.3-.3 4.4 4.4-.3.3z" fill="#878787"/><path d="m10.2 44.9.2-.2.1.1-.1.2z" fill="#878787"/><path d="m14.8 49.5.2-.2.1.1-.2.2z" fill="#989898"/><path d="m14.3 49.8s-2.2 1.6-3.4 2.5c-1.1.9-3.3 2.4-3.6 2.6-.3.3-.3.3-.5.2 0 0-.2-.2-.4-.4l-.4.4h-.1l-1-1.1v-.1l.4-.4c-.2-.2-.4-.4-.4-.4-.2-.1-.1-.1.1-.4s1.8-2.5 2.6-3.6c1-1.3 2.5-3.4 2.5-3.4l.5.5s-.2 1.1.8 2.2c1.1 1 2.2.8 2.2.8zm-3.4-.7c-.6-.7-.6-.9-.8-1.2 0 0 0-.1-.1-.1-.2-.2-.5-.1-.6.1 0 0-1.4 1.6-2.2 2.9-.4.6-.9 1.5-.2 2.2 0 0 0 0 .1.1.7.7 1.6.2 2.2-.2 1.3-.8 2.9-2.2 2.9-2.2.2-.2.2-.5.1-.6l-.1-.1c-.4-.3-.7-.3-1.3-.9zm3.6.7-.6-.6h-.1s-1.1.2-2.1-.8c-1-1.1-.8-2.1-.8-2.1v-.1l-.5-.5-.1-.1-.1.1s-1.6 2.2-2.5 3.4c-.6.8-1.5 2-2.1 2.8-.3.4-.5.7-.6.8-.2.3-.3.4-.1.6 0 0 .1.1.3.3l-.3.3c-.1.1-.1.2 0 .2l1.1 1.1c.1.1.2.1.2 0l.3-.3c.2.2.3.3.3.3.2.2.3.1.6-.1.1-.1.4-.3.8-.6.8-.6 2.1-1.5 2.8-2.1 1.3-1 3.4-2.5 3.4-2.5zm-3.7-.7c.5.5.8.6 1 .7.1 0 .1.1.2.1 0 0 .1 0 .1.1.1.1.1.4-.1.5-.1.1-1.6 1.4-2.9 2.2-.7.5-1.5.8-2.1.3-.6-.6-.2-1.4.2-2.1.8-1.3 2.2-2.9 2.3-3s.2-.1.3-.1.2 0 .2.1c0 0 0 0 .1.1 0 .1.1.1.1.2s.1.4.6.9z" fill="#d7d7d7"/><path d="m10 47.8c-.2-.2-.5-.1-.6.1 0 0-1.4 1.6-2.2 2.9-.4.6-.9 1.5-.2 2.2v-.1c-.6-.6-.2-1.4.2-2.1.8-1.2 2.2-2.8 2.3-2.9s.2-.1.3-.1h.2c-.1.1 0 .1 0 .1 0 .1.1.1.1.2.1.2.2.5.7 1l.1-.1c-.6-.6-.7-.8-.9-1.2.1.1 0 0 0 0z" fill="#878787"/><path d="m5.4 54.5-.5-.5v-.1l.4-.4c-.2-.2-.4-.4-.4-.4-.2-.1-.1-.1.1-.4s1.8-2.5 2.6-3.6c1-1.3 2.5-3.4 2.5-3.4l.5.5s-.2 1.1.8 2.2l.1-.1c-1-1.1-.8-2.1-.8-2.1v-.1l-.7-.7-.1.1s-1.6 2.2-2.5 3.4c-.6.8-1.5 2-2.1 2.8-.3.4-.5.7-.6.8-.2.3-.3.4-.1.6 0 0 .1.1.3.3l-.3.3c-.1.1-.1.2 0 .2z" fill="#878787"/><path d="m14.5 49.8s-.1 0-.2 0l-.5-.5s0-.1 0-.2l1-1h.2l.5.5v.2z" fill="#989898"/><path d="m11.5 45.9c-.1.1-.2.1-.3 0s-.1-.2 0-.3.2-.1.3 0 .1.2 0 .3z" fill="#d7d7d7"/><path d="m12 46.4c-.1.1-.2.1-.3 0s-.1-.2 0-.3.2-.1.3 0 .1.2 0 .3z" fill="#d7d7d7"/><path d="m12.6 46.9c-.1.1-.2.1-.3 0s-.1-.2 0-.3.2-.1.3 0z" fill="#d7d7d7"/><path d="m13.1 47.5c-.1.1-.2.1-.3 0s-.1-.2 0-.3.2-.1.3 0 .1.2 0 .3z" fill="#d7d7d7"/><path d="m13.7 48c-.1.1-.2.1-.3 0s-.1-.2 0-.3.2-.1.3 0z" fill="#d7d7d7"/><path d="m14.2 48.5c-.1.1-.2.1-.3 0s-.1-.2 0-.3.2-.1.3 0z" fill="#d7d7d7"/><path d="m11.5 45.9c.1-.1.1-.2 0-.3s-.2-.1-.3 0z" fill="#878787"/><path d="m12 46.4c.1-.1.1-.2 0-.3s-.2-.1-.3 0z" fill="#878787"/><path d="m12.6 46.9c.1-.1.1-.2 0-.3s-.2-.1-.3 0z" fill="#878787"/><path d="m13.1 47.5c.1-.1.1-.2 0-.3s-.2-.1-.3 0z" fill="#878787"/><path d="m13.7 48c.1-.1.1-.2 0-.3s-.2-.1-.3 0z" fill="#878787"/><path d="m14.2 48.5c.1-.1.1-.2 0-.3s-.2-.1-.3 0z" fill="#878787"/><path d="m10.8 46.2s-.1 0-.2 0l-.5-.5s0-.1 0-.2l1-1h.2l.5.5v.2z" fill="#878787"/><path d="m11.7 45.2c0-.1 0-.1 0-.2l-.2-.2-.2-.2s0 0-.1 0h-.1l-.4.4.5.5z" fill="#d7d7d7"/><path d="m14.5 49.8c-.1 0-.1 0 0 0-.1 0-.1 0-.2 0l-.3-.3-.3-.3s0 0 0-.1v-.1l.5-.5.7.7z" fill="#d7d7d7"/><path d="m15.1 50.4c-.1.1-.2.1-.2 0l-.3-.3c-.1-.1-.1-.2 0-.2 0 0 .4-.4 0-.9 0 0-.4-.7-.1-1.1.4-.5.8-.7 1.2-.7s.8.1.8.3-.2.2-.2.2v1.2s-.1.3-.4.7c-.4.4-.8.8-.8.8z" fill="#d7d7d7"/><path d="m14.6 50c0-.1 0-.1 0 0 .2-.2.4-.7.1-1.1 0 0-.4-.6-.1-1s.7-.6 1.1-.6.6.1.6.1v.1c0 .1-.1.1-.1.1h-.1v.1 1.2c0 .1-.1.3-.4.6-.4.4-.8.8-.8.8s0 0-.1 0z" fill="#989898"/><path d="m23.3 45.4c1.2-1.1 2.1-2 2.1-2 .2-.2.2-.5 0-.7s-.5-.2-.7 0c0 0-1 1.2-1.8 1.9-.8.8-2.2 1.8-3.2 2.5-1.2.7-2.4.9-2.7.9s-.5-.2-.5-.2c-.3-.4-.8-.5-1.2-.2s-.6.9-.3 1.3c.2.4.6.5 1.1.4.5 0 2.6-.6 4.1-1.5s2.1-1.5 3.1-2.4z" fill="#d7d7d7"/><path d="m25.4 42.7c-.2-.2-.5-.2-.7 0 0 0-1 1.2-1.8 1.9-.8.8-2.2 1.8-3.2 2.5-1.2.7-2.4.9-2.7.9s-.5-.2-.5-.2c-.3-.4-.8-.5-1.2-.2-.3.2-.5.5-.5.9 0 .1.6.3 1.5.2 1.1-.1 2.7-.6 3.6-1.2.7-.4 1.9-1.2 2.9-2.1 1.3-1.3 2.6-2.7 2.6-2.7z" fill="#989898"/><path d="m25.3 42.8c.1.2.1.4-.1.5s-.9.9-2.1 2c-.1.1-.2.2-.3.3-.9.8-1.5 1.3-2.9 2.1-1.5.9-3.6 1.4-4.1 1.5-.5 0-.8-.1-1-.4-.2-.4-.1-.9.3-1.2.3-.2.8-.1 1.1.2l.1.1c.1.1.3.1.5.1.4 0 1.5-.2 2.7-.9 1.1-.6 2.5-1.7 3.3-2.5.8-.7 1.7-1.8 1.8-1.9s.2-.1.3-.1c.2 0 .3.1.4.2z" fill="#878787"/><path d="m19.8 47.5c-.9.6-2.1 1-3.1 1.1s-1.9-.1-1.9-.1c0-.3.1-.6.4-.7.3-.2.8-.1 1.1.2l.1.1c.1.1.3.1.5.1.4 0 1.5-.2 2.7-.9 1.1-.6 2.5-1.7 3.3-2.5.8-.7 1.7-1.8 1.8-1.9s.2-.1.3-.1.2 0 .3.1c0 0-1.3 1.5-2.8 2.8-1 .7-2.1 1.4-2.7 1.8z" fill="#d7d7d7"/><path d="m16 48.7c.1-.1.1-.4 0-.5s-.4-.2-.5 0c-.1.1-.1.4 0 .5s.3.1.5 0z" fill="#989898"/><path d="m16 48.7c0-.1 0-.1 0 0l-.5-.6.5.6c-.1 0 0 0 0 0z" fill="#d7d7d7"/><path d="m14.3 49.8s-2.2 1.6-3.4 2.5c-1.1.9-3.3 2.4-3.6 2.6-.3.3-.3.3-.5.2 0 0-.2-.2-.4-.4l-.4.4h-.1l-1-1.1v-.1l.4-.4c-.2-.2-.4-.4-.4-.4-.2-.1-.1-.1.1-.4s1.8-2.5 2.6-3.6c1-1.3 2.5-3.4 2.5-3.4l.5.5s-.2 1.1.8 2.2c1.1 1 2.2.8 2.2.8zm-2.3.1c-.3-.2-.5-.2-1.2-.8-.6-.7-.6-.9-.8-1.2s-.5-.2-.7 0c0 0-1.4 1.6-2.2 2.9-.4.6-.9 1.5-.2 2.2.7.8 1.6.2 2.3-.2 1.3-.8 2.9-2.2 2.9-2.2.2-.2.2-.6-.1-.7z" fill="#878787"/><path d="m6.9 53c-.7-.8-.2-1.6.2-2.2.8-1.3 2.2-2.9 2.2-2.9.2-.2.6-.2.7 0 .2.3.2.5.8 1.2l.6-.6c-1-1.1-.8-2.2-.8-2.2l-.5-.5s-1.6 2.2-2.5 3.4c-.9 1.1-2.4 3.3-2.6 3.6-.2.2-.3.2-.1.3 0 0 .2.2.4.4l-.4.4v.1l.5.5z" fill="#d7d7d7"/><path d="m28.8 36.3c.1-.1.1-.2 0-.3l-4.7-4.7c-.1-.1-.2 0-.3 0l-2.3 2.3c-.1.1-.1.2 0 .3l4.7 4.7c.1.1.2 0 .3 0z" fill="#010101"/><path d="m28.8 36.2c.1-.1.1-.2 0-.3l-4.7-4.7c-.1-.1-.2 0-.3 0l-2.3 2.3c-.1.1-.1.2 0 .3l4.7 4.7c.1.1.2 0 .3 0z" fill="#333"/><path d="m26.5 33.5-2.3-2.3s-.1 0-.2 0-.1 0-.2.1l-2.3 2.3s-.1.1-.1.2v.2l2.3 2.3z" fill="#010101"/><path d="m28.6 36.1c.1-.1.1-.2 0-.3l-4.5-4.5c-.1-.1-.2-.1-.3 0l-2.2 2.2c-.1.1-.1.2 0 .3l4.5 4.5c.1.1.2.1.3 0z"/><path d="m26.4 33.6-2.3-2.3-.1-.1s-.1 0-.1.1l-1.1 1.1-1.1 1.1-.1.1s0 .1.1.1l2.3 2.3z" fill="#333"/><path d="m28 35.9c.1-.1.1-.2 0-.2l-3.7-3.7c-.1-.1-.2 0-.2 0l-1.8 1.8c-.1.1-.1.2 0 .2l3.7 3.7c.1.1.2 0 .2 0z" fill="#333"/><path d="m26.2 33.7-1.9-1.9h-.1s-.1 0-.1.1l-1.8 1.8-.1.1v.1l1.9 1.9z" fill="#010101"/><path d="m27.9 35.9c.1-.1.1-.2 0-.2l-3.6-3.7c-.1-.1-.2-.1-.2 0l-1.7 1.7c-.1.1-.1.2 0 .2l3.6 3.6c.1.1.2.1.2 0z" fill="#010101"/><path d="m26.1 33.8-1.8-1.8h-.1-.1l-.9.9-.9.9v.1.1l1.8 1.8z" fill="#333"/><path d="m22.1 33.6c0-.1-.1-.2-.2-.2s-.2.1-.2.2.1.2.2.2c.2-.1.2-.1.2-.2z" fill="#818181"/><path d="m24.1 31.7c.1-.1.1-.2 0-.3s-.2-.1-.3 0-.1.2 0 .3.2.1.3 0z" fill="#818181"/><path d="m23.1 32.8c.1 0 .2-.1.2-.2s-.1-.2-.2-.2-.2.1-.2.2.1.2.2.2z" fill="#818181"/><path d="m28.3 35.9c.1-.1.2-.1.3 0s.1.2 0 .3-.2.1-.3 0c-.1-.2-.1-.3 0-.3z" fill="#333"/><path d="m27.1 36.9c0-.1.1-.2.2-.2s.2.1.2.2-.1.2-.2.2-.2-.1-.2-.2z" fill="#333"/><path d="m26.4 37.8c.1 0 .2.1.2.2s-.1.2-.2.2-.2-.1-.2-.2.1-.2.2-.2z" fill="#333"/><path d="m22.1 33.6c0-.1 0-.1 0 0h-.4z" fill="#010101"/><path d="m24.1 31.7-.2-.3z" fill="#010101"/><path d="m23.1 32.8v-.4z" fill="#010101"/><path d="m28.3 35.9.3.2z" fill="#010101"/><path d="m27.1 36.9h.4z" fill="#010101"/><path d="m26.4 37.8v.4-.4c-.1 0 0 0 0 0z" fill="#010101"/><path d="m26.2 37.5c-.1.1-.1.1-.2 0l-3.5-3.5c-.1-.1-.1-.1 0-.2l1.6-1.6c.1-.1.1-.1.2 0l3.5 3.5c.1.1.1.1 0 .2z" fill="#adadad"/><path d="m24.2 35.7-1.8-1.8v-.1-.1l.8-.8.8-.8h.1.1l1.8 1.8z" fill="#8b8a8b"/><path d="m26.2 37.2s-.1 0-.2 0l-3.3-3.2c-.1-.1-.1-.1 0-.2l1.4-1.4h.2l3.3 3.3c.1.1.1.1 0 .2z" fill="#c9c9c9"/><path d="m27.6 35.7-3.3-3.3c-.1-.1-.1-.1-.2 0l-.6.6v.2l3.3 3.3c.1.1.1.1.2 0l.7-.7c-.1 0-.1-.1-.1-.1z" fill="#fff"/><path d="m24.3 33.1c-.1 0-.2-.1-.2-.2s.1-.2.2-.2.2.1.2.2-.1.2-.2.2z" fill="#b0b0b0"/><path d="m24.7 33.6c-.1-.1-.1-.2 0-.3s.2-.1.3 0 .1.2 0 .3c-.1 0-.2 0-.3 0z" fill="#b0b0b0"/><path d="m27.2 35.8c-.1.1-.2.1-.3 0s-.1-.2 0-.3.2-.1.3 0c.1.2.1.3 0 .3z" fill="#b0b0b0"/><path d="m26.5 35.4c-.1 0-.2-.1-.2-.2s.1-.2.2-.2.2.1.2.2-.1.2-.2.2z" fill="#b0b0b0"/><path d="m25.8 34.6c0-.1.1-.2.2-.2s.2.1.2.2-.1.2-.2.2-.2-.1-.2-.2z" fill="#b0b0b0"/><path d="m25.4 34.2c-.1 0-.2-.1-.2-.2s.1-.2.2-.2.2.1.2.2-.1.2-.2.2z" fill="#b0b0b0"/><path d="m24.3 33.1v-.4z" fill="#8b8a8b"/><path d="m24.7 33.6.3-.3z" fill="#8b8a8b"/><path d="m27.2 35.8c0 .1 0 .1 0 0l-.3-.3z" fill="#8b8a8b"/><path d="m26.5 35.4v-.4z" fill="#8b8a8b"/><path d="m25.8 34.6h.4z" fill="#8b8a8b"/><path d="m25.4 34.2v-.4z" fill="#8b8a8b"/><path d="m22 42.9c.1-.1.1-.2 0-.3l-4.7-4.7c-.1-.1-.2 0-.3 0l-2.3 2.3c-.1.1-.1.2 0 .3l4.7 4.7c.1.1.2 0 .3 0z" fill="#333"/><path d="m19.7 40.2-2.3-2.3s-.1 0-.2 0-.1 0-.2.1l-2.3 2.3s-.1.1-.1.2v.2l2.3 2.3z" fill="#010101"/><path d="m21.9 42.8c.1-.1.1-.2 0-.3l-4.5-4.5c-.1-.1-.2-.1-.3 0l-2.1 2.2c-.1.1-.1.2 0 .3l4.5 4.5c.1.1.2.1.3 0z"/><path d="m19.6 40.3-2.2-2.3-.1-.1s-.1 0-.1.1l-1.2 1.1-1 1.1-.1.1s0 .1.1.1l2.3 2.3z" fill="#333"/><path d="m21.3 42.6c.1-.1.1-.2 0-.2l-3.7-3.7c-.1-.1-.2 0-.2 0l-1.8 1.8c-.1.1-.1.2 0 .2l3.7 3.7c.1.1.2 0 .2 0z" fill="#333"/><path d="m19.5 40.5-1.9-1.9h-.1s-.1 0-.1.1l-1.8 1.8-.1.1v.1l1.9 1.9z" fill="#010101"/><path d="m21.2 42.6c.1-.1.1-.2 0-.2l-3.6-3.6c-.1-.1-.2-.1-.2 0l-1.7 1.7c-.1.1-.1.2 0 .2l3.6 3.6c.1.1.2.1.2 0z" fill="#010101"/><path d="m19.4 40.6-1.8-1.8h-.1-.1l-.9.9-.9.9v.1.1l1.8 1.8z" fill="#333"/><path d="m15.4 40.3c0-.1-.1-.2-.2-.2s-.2.1-.2.2.1.2.2.2.2-.1.2-.2z" fill="#818181"/><path d="m17.4 38.4c.1-.1.1-.2 0-.3s-.2-.1-.3 0-.1.2 0 .3.2.1.3 0z" fill="#818181"/><path d="m16.4 39.5c.1 0 .2-.1.2-.2s-.1-.2-.2-.2-.2.1-.2.2c0 .2.1.2.2.2z" fill="#818181"/><path d="m21.5 42.6c.1-.1.2-.1.3 0s.1.2 0 .3-.2.1-.3 0c0-.1 0-.2 0-.3z" fill="#333"/><path d="m20.4 43.6c0-.1.1-.2.2-.2s.2.1.2.2-.1.2-.2.2-.2-.1-.2-.2z" fill="#333"/><path d="m19.6 44.6c.1 0 .2.1.2.2s-.1.2-.2.2-.2-.1-.2-.2c.1-.2.1-.2.2-.2z" fill="#333"/><path d="m15.4 40.3h-.4z" fill="#010101"/><path d="m17.4 38.4-.2-.3z" fill="#010101"/><path d="m16.4 39.5v-.4.4c-.1 0 0 0 0 0z" fill="#010101"/><path d="m21.5 42.6s.1 0 0 0l.3.2z" fill="#010101"/><path d="m20.4 43.6h.4z" fill="#010101"/><path d="m19.6 44.6s.1 0 0 0v.4z" fill="#010101"/><path d="m19.5 44.2c-.1.1-.1.1-.2 0l-3.5-3.5c-.1-.1-.1-.1 0-.2l1.6-1.6c.1-.1.1-.1.2 0l3.5 3.5c.1.1.1.1 0 .2z" fill="#adadad"/><path d="m17.5 42.4-1.8-1.8v-.1-.1l.8-.8.8-.8h.1.1l1.8 1.8z" fill="#8b8a8b"/><path d="m19.5 44s-.1 0-.2 0l-3.3-3.3c-.1-.1-.1-.1 0-.2l1.4-1.4h.2l3.3 3.3c.1.1.1.1 0 .2z" fill="#c9c9c9"/><path d="m20.9 42.4-3.3-3.3c-.1-.1-.1-.1-.2 0l-.7.7v.2l3.3 3.3c.1.1.1.1.2 0l.7-.7c0-.1 0-.2 0-.2z" fill="#fff"/><path d="m17.5 39.8c-.1 0-.2-.1-.2-.2s.1-.2.2-.2.2.1.2.2 0 .2-.2.2z" fill="#b0b0b0"/><path d="m18 40.3c-.1-.1-.1-.2 0-.3s.2-.1.3 0 .1.2 0 .3-.3.1-.3 0z" fill="#b0b0b0"/><path d="m20.5 42.6c-.1.1-.2.1-.3 0s-.1-.2 0-.3.2-.1.3 0 .1.2 0 .3z" fill="#b0b0b0"/><path d="m19.8 42.1c-.1 0-.2-.1-.2-.2s.1-.2.2-.2.2.1.2.2-.1.2-.2.2z" fill="#b0b0b0"/><path d="m19.1 41.3c0-.1.1-.2.2-.2s.2.1.2.2-.1.2-.2.2-.2-.1-.2-.2z" fill="#b0b0b0"/><path d="m18.7 40.9c-.1 0-.2-.1-.2-.2s.1-.2.2-.2.2.1.2.2c0 .2-.1.2-.2.2z" fill="#b0b0b0"/><path d="m17.5 39.8v-.4z" fill="#8b8a8b"/><path d="m18 40.3c-.1 0-.1 0 0 0l.3-.3z" fill="#8b8a8b"/><path d="m20.5 42.6-.3-.3z" fill="#8b8a8b"/><path d="m19.8 42.1v-.4z" fill="#8b8a8b"/><path d="m19.1 41.3h.4z" fill="#8b8a8b"/><path d="m18.7 40.9v-.4z" fill="#8b8a8b"/><path d="m48.8 9.4-37.2 36.3 37.2-36.3 2.2-2.7z" fill="#676767"/><path d="m49.2 9.8-37.1 36.4 37.1-36.4 3.7-5 .1.1z" fill="#676767"/><path d="m49.5 10.3-36.9 36.5 36.9-36.5 5.1-7.3.1.1z" fill="#676767"/><path d="m50.7 11.5-36.5 36.8.1.1 36.5-36.9 2.7-2.3-.1-.1z" fill="#676767"/><path d="m50.4 11.1-36.7 36.6 36.7-36.6 4.8-4-.1-.1z" fill="#676767"/><path d="m50 10.6-36.9 36.6 36.9-36.6 7.3-5.2-.1-.1z" fill="#676767"/><path d="m48.7 9.3-37.2 36.3 37.2-36.3 2.3-2.7z" fill="none" stroke="#e6e6e5" stroke-miterlimit="10" stroke-width=".1"/><path d="m49.1 9.7-37.1 36.5 37.1-36.5 3.7-5 .1.1z" fill="none" stroke="#e6e6e5" stroke-miterlimit="10" stroke-width=".1"/><path d="m49.5 10.2-36.9 36.5 36.9-36.5 5.2-7.3-.1.1z" fill="none" stroke="#e6e6e5" stroke-miterlimit="10" stroke-width=".1"/><path d="m50.7 11.4-36.5 36.8v.1l36.5-36.9 2.7-2.3h-.1z" fill="none" stroke="#e6e6e5" stroke-miterlimit="10" stroke-width=".1"/><path d="m50.3 11-36.7 36.7 36.7-36.7 4.8-4z" fill="none" stroke="#e6e6e5" stroke-miterlimit="10" stroke-width=".1"/><path d="m49.9 10.6-36.8 36.6 36.8-36.6 7.3-5.2-.1-.1z" fill="none" stroke="#e6e6e5" stroke-miterlimit="10" stroke-width=".1"/><path d="m14.3 55.4c-.4.4-.4 1.1 0 1.6.4.4 1.1.4 1.6 0 .4-.4.4-1.1 0-1.6-.5-.4-1.2-.4-1.6 0z" fill="#010101"/><path d="m14.3 57c.4.4 1.1.4 1.6 0 .4-.4.4-1.1 0-1.6z" fill="#333"/><path d="m15.6 56.7c-.3.3-.7.3-1 0s-.3-.7 0-1 .7-.3 1 0 .3.7 0 1z" fill="#010101"/><path d="m14.6 56.7c-.3-.3-.3-.7 0-1s.7-.3 1 0z" fill="#333"/><path d="m18.7 55c-.4.4-.4 1.1 0 1.6.4.4 1.1.4 1.6 0 .4-.4.4-1.1 0-1.6-.5-.5-1.2-.5-1.6 0z" fill="#010101"/><path d="m18.7 56.5c.4.4 1.1.4 1.6 0 .4-.4.4-1.1 0-1.6z" fill="#333"/><path d="m20 56.2c-.3.3-.7.3-1 0s-.3-.7 0-1 .7-.3 1 0c.2.3.2.8 0 1z" fill="#010101"/><path d="m19 56.2c-.3-.3-.3-.7 0-1s.7-.3 1 0z" fill="#333"/><path d="m54.7 3.1c-.1.1-.3.1-.4-.1-.1-.1-.1-.3.1-.4.1-.1.3-.1.4.1 0 .1 0 .3-.1.4z" fill="#989898"/><path d="m57.4 5.7c-.1.1-.3.1-.4-.1-.1-.1-.1-.3.1-.4.1-.1.3-.1.4.1 0 .2 0 .4-.1.4z" fill="#818181"/><path d="m55.4 7.5c-.1.1-.3.1-.4-.1-.1-.1-.1-.3.1-.4.1 0 .2 0 .3.1s.1.3 0 .4z" fill="#818181"/><path d="m52.9 5c-.1.1-.3.1-.4-.1-.1-.1-.1-.3.1-.4.1-.1.3-.1.4.1 0 .2 0 .3-.1.4z" fill="#989898"/><path d="m51.2 6.9c-.1.1-.3.1-.3 0-.1-.1-.1-.3.1-.4.1-.1.3-.1.4.1 0 .1-.1.2-.2.3z" fill="#989898"/><path d="m53.5 9.2c-.1.1-.3.1-.4-.1-.1 0-.1-.2 0-.3s.3-.1.4.1c.1.1.1.2 0 .3z" fill="#818181"/></svg>