<svg enable-background="new 0 0 60 60" height="60" viewBox="0 0 60 60" width="60" xmlns="http://www.w3.org/2000/svg" xmlns:xlink="http://www.w3.org/1999/xlink"><radialGradient id="a" cx="150.2194" cy="-165.3147" gradientTransform="matrix(.6672 0 0 -.5574 -70.2764 -82.7255)" gradientUnits="userSpaceOnUse" r="39.943"><stop offset=".16" stop-color="#d3b669"/><stop offset=".84" stop-color="#c58f54"/></radialGradient><linearGradient id="b"><stop offset="0" stop-color="#fff"/><stop offset=".15" stop-color="#ded099"/><stop offset=".5" stop-color="#a68e60"/><stop offset="1" stop-color="#81592a"/></linearGradient><linearGradient id="c" gradientTransform="matrix(1 0 0 -1 0 60)" gradientUnits="userSpaceOnUse" x1="24.5156" x2="25.2523" xlink:href="#b" y1="48.9977" y2="47.009"/><linearGradient id="d" gradientTransform="matrix(1 0 0 -1 0 60)" gradientUnits="userSpaceOnUse" x1="28.7177" x2="29.4545" xlink:href="#b" y1="48.9922" y2="47.0032"/><linearGradient id="e" gradientTransform="matrix(1 0 0 -1 0 60)" gradientUnits="userSpaceOnUse" x1="33.0295" x2="33.7662" xlink:href="#b" y1="48.9765" y2="46.9874"/><linearGradient id="f" gradientTransform="matrix(1 0 0 -1 0 60)" gradientUnits="userSpaceOnUse" x1="37.6137" x2="38.3505" xlink:href="#b" y1="49.0029" y2="47.0138"/><linearGradient id="g" gradientTransform="matrix(1 0 0 -1 0 60)" gradientUnits="userSpaceOnUse" x1="15.1291" x2="15.8658" xlink:href="#b" y1="48.9989" y2="47.0099"/><linearGradient id="h" gradientTransform="matrix(1 0 0 -1 0 60)" gradientUnits="userSpaceOnUse" x1="19.7226" x2="20.4591" xlink:href="#b" y1="48.979" y2="46.9906"/><linearGradient id="i"><stop offset=".25" stop-color="#191919"/><stop offset=".75"/></linearGradient><linearGradient id="j" gradientTransform="matrix(1 0 0 -1 0 60)" gradientUnits="userSpaceOnUse" x1="6.2942" x2="6.7181" xlink:href="#i" y1="48.1623" y2="47.2102"/><linearGradient id="k"><stop offset=".21" stop-color="#191919"/><stop offset=".79"/></linearGradient><linearGradient id="l" gradientTransform="matrix(1 0 0 -1 0 60)" gradientUnits="userSpaceOnUse" x1="6.3589" x2="6.6197" xlink:href="#k" y1="48.0596" y2="47.3024"/><linearGradient id="m" gradientTransform="matrix(1 0 0 -1 0 60)" gradientUnits="userSpaceOnUse" x1="10.7738" x2="11.1977" xlink:href="#i" y1="48.1957" y2="47.2436"/><linearGradient id="n" gradientTransform="matrix(1 0 0 -1 0 60)" gradientUnits="userSpaceOnUse" x1="10.7594" x2="11.0201" xlink:href="#k" y1="48.0583" y2="47.3011"/><path d="m5.5 52.7c.8 0 1.3.3 1.3.7s-.5.6-1.3.6-1.3-.3-1.3-.7.6-.6 1.3-.6z" fill="#18161b" stroke="#000" stroke-miterlimit="2.4142" stroke-width=".061675"/><path d="m54 52.7c.8 0 1.3.3 1.3.7s-.5.6-1.3.6-1.3-.3-1.3-.7.6-.6 1.3-.6z" fill="#18161b" stroke="#000" stroke-miterlimit="2.4142" stroke-width=".061675"/><path d="m1.6 6.6h56.7c.8 0 1.5.7 1.5 1.5v43.6c0 .8-.7 1.5-1.5 1.5h-56.7c-.8 0-1.5-.7-1.5-1.5v-43.6c0-.8.7-1.5 1.5-1.5z" fill="#717072"/><path d="m1.8 6.7h56.4c.8 0 1.5.7 1.5 1.5v43.4c0 .8-.7 1.5-1.5 1.5-18.8 0-37.6 0-56.4 0-.8 0-1.5-.7-1.5-1.5 0-6.2 0-37.1 0-43.4-.1-.8.6-1.5 1.5-1.5z" fill="#af8424"/><path d="m3 8.9h54v42.1h-54z" fill="#050508" stroke="#000" stroke-miterlimit="2.4142" stroke-width=".061675"/><path d="m3.5 9h53c.2 0 .3.2.3.3v41.2c0 .2-.2.3-.3.3h-53c-.2 0-.3-.2-.3-.3v-41.2c0-.1.1-.3.3-.3z" fill="#fff"/><path d="m3.4 9.2h53.1s.1 0 .1.1v41.3s0 .1-.1.1h-53.1s-.1 0-.1-.1z" stroke="#000" stroke-miterlimit="2.4142" stroke-width=".061675"/><path d="m2.6 9.4h-2.5c-.1 0-.1 0-.1-.1v-1.4c0-.8.7-1.5 1.5-1.5h1.5v2.6c0 .2-.2.4-.4.4z"/><path d="m2.6 9.4h-2.4c-.1 0-.2-.1-.2-.1v-1.4c0-.8.6-1.4 1.4-1.4h1.5v2.5c.1.2-.1.4-.3.4z" fill="#18161b"/><path d="m1 7.1c.5 0 .8.1 1 .5h.9c0-.3 0-.6 0-.9-1 0-1.1-.1-1.9.4z" fill="#a4a1b0" stroke="#000" stroke-miterlimit="2.4142" stroke-width=".061675"/><path d="m2.3 8.3c.3 0 .5.2.5.5s-.2.4-.5.4-.5-.2-.5-.5.2-.4.5-.4z"/><path d="m2.3 8.4c.2 0 .4.2.4.4s-.2.4-.4.4-.4-.2-.4-.4c0-.3.2-.4.4-.4z" fill="#fff"/><path d="m2.3 8.5c.1 0 .2.1.2.1h-.1c-.1 0-.3.1-.3.3v.1s-.1-.1-.1-.3c0-.1.2-.2.3-.2z"/><path d="m57.4 9.4h2.5c.1 0 .1 0 .1-.1v-1.4c0-.8-.7-1.5-1.5-1.5h-1.5v2.6c0 .2.2.4.4.4z"/><path d="m57.4 9.4h2.4c.1 0 .1 0 .1-.1v-1.4c0-.8-.6-1.4-1.4-1.4h-1.5v2.5c0 .2.2.4.4.4z" fill="#18161b"/><path d="m59 7.1c-.5 0-.8.1-1 .5-.3 0-.6 0-.9 0 0-.3 0-.6 0-.9 1 0 1.1-.1 1.9.4z" fill="#a4a1b0" stroke="#000" stroke-miterlimit="2.4142" stroke-width=".061675"/><path d="m57.7 8.3c-.3 0-.5.2-.5.5s.2.5.5.5.5-.2.5-.5-.2-.5-.5-.5z"/><path d="m57.7 8.4c-.2 0-.4.2-.4.4s.2.4.4.4.4-.2.4-.4c0-.3-.2-.4-.4-.4z" fill="#fff"/><path d="m57.7 8.5c-.1 0-.2.1-.2.1h.1c.1 0 .3.1.3.3v.1s.1-.1.1-.3c0-.1-.2-.2-.3-.2z"/><path d="m2.6 50.4h-2.5c-.1 0-.1.1-.1.2v1.4c0 .8.7 1.5 1.5 1.5h1.5v-2.5c0-.4-.2-.6-.4-.6z"/><path d="m2.6 50.5h-2.4c-.1 0-.1 0-.1.1v1.3c0 .8.6 1.4 1.4 1.4h1.5v-2.4c0-.2-.2-.4-.4-.4z" fill="#18161b"/><path d="m1 52.7c.5 0 .8-.1 1-.5h.9v.9c-1 0-1.1.2-1.9-.4z" fill="#a4a1b0" stroke="#000" stroke-miterlimit="2.4142" stroke-width=".061675"/><path d="m2.3 51.6c.3 0 .5-.2.5-.5s-.2-.5-.5-.5-.5.2-.5.5.2.5.5.5z"/><path d="m2.3 51.5c.2 0 .4-.2.4-.4s-.2-.4-.4-.4-.4.2-.4.4.2.4.4.4z" fill="#fff"/><path d="m2.3 51.4c.1 0 .2-.1.2-.1s0 0-.1 0-.2-.2-.2-.3 0-.1 0-.1c-.1 0-.2.1-.2.2s.2.3.3.3z"/><path d="m57.4 50.4h2.5c.1 0 .1.1.1.1v1.4c0 .8-.7 1.5-1.5 1.5h-1.5v-2.5c0-.3.2-.5.4-.5z"/><path d="m57.4 50.5h2.4c.1 0 .1 0 .1.1v1.3c0 .8-.6 1.4-1.4 1.4h-1.5v-2.4c0-.2.2-.4.4-.4z" fill="#18161b"/><path d="m59 52.7c-.5 0-.8-.1-1-.5-.3 0-.6 0-.9 0v.9c1 0 1.1.2 1.9-.4z" fill="#a4a1b0" stroke="#000" stroke-miterlimit="2.4142" stroke-width=".061675"/><path d="m57.7 51.6c-.3 0-.5-.2-.5-.5s.2-.5.5-.5.5.2.5.5-.2.5-.5.5z"/><path d="m57.7 51.5c-.2 0-.4-.2-.4-.4s.2-.4.4-.4.4.2.4.4-.2.4-.4.4z" fill="#fff"/><path d="m57.7 51.4c-.1 0-.2-.1-.2-.1h.1c.1 0 .3-.2.3-.3s0-.1 0-.1c.1 0 .2.1.2.3-.1 0-.3.2-.4.2z"/><path d="m38.2 6.6c-1.4-.3-4.4-.6-7.7-.6s-6.3.2-7.7.6z" fill="#c9c7d6"/><path d="m24.3 6.6h12.4c-1.6-.2-3.8-.3-6.2-.3s-4.7.1-6.2.3z" fill="#191919"/><path d="m56.9 51h-53.8v.1z" fill="#41424b"/><path d="m3.6 9h52.6c.2 0 .4.1.4.3v4.6h-53.3v-4.6c0-.2.2-.3.3-.3z" fill="url(#a)"/><path d="m3.4 13.7h53.2v.1.1h-53.2c0-.1 0-.1 0-.2z"/><path d="m28.9 10.8v-1.2h4.3v1.2h.1v-1.2h4.5v1.2h.1v-1.2h-13.3v1.2h.1v-1.2h4.1z" fill="#1c100a"/><path d="m24.6 10.7c.4 0 .7.3.7.7s-.3.7-.7.7-.7-.3-.7-.7c0-.3.3-.7.7-.7z" fill="#1c100a"/><path d="m24.6 10.9c.3 0 .6.2.7.5 0 .3-.2.6-.5.7-.3 0-.6-.2-.7-.5-.1-.4.1-.7.5-.7z" fill="url(#c)"/><path d="m24.2 11.1.3.2z" fill="#17110f"/><path d="m29.6 11.6c-.1.4-.4.7-.8.6s-.7-.4-.6-.8.4-.7.8-.6c.4 0 .7.4.6.8z" fill="#1c100a"/><path d="m29.5 11.5c0 .3-.3.6-.6.6s-.6-.3-.6-.6.3-.6.6-.6.6.3.6.6z" fill="url(#d)"/><path d="m29.3 11.1-.2.3z" fill="#17110f"/><path d="m33.9 11.6c-.1.4-.4.7-.8.6s-.7-.4-.6-.8.4-.7.8-.6c.4 0 .7.4.6.8z" fill="#1c100a"/><path d="m37.8 10.8c.4.1.7.5.6.9s-.5.7-.9.6-.7-.5-.6-.9c.2-.4.5-.7.9-.6z" fill="#1c100a"/><path d="m33.8 11.5c0 .3-.3.6-.6.6s-.6-.3-.6-.6.3-.6.6-.6c.4 0 .6.3.6.6z" fill="url(#e)"/><path d="m33.7 11.1-.2.3z" fill="#17110f"/><path d="m37.8 10.9c.3 0 .6.3.6.6s-.3.6-.6.6-.6-.3-.6-.6c-.1-.4.2-.6.6-.6z" fill="url(#f)"/><path d="m37.3 11s.1 0 0 0l.2.2z" fill="#17110f"/><path d="m16 11.5c0 .4-.4.7-.8.7s-.7-.4-.7-.8.4-.7.8-.7c.4.1.7.4.7.8z" fill="#1c100a"/><path d="m15.9 11.4c0 .3-.2.6-.6.6-.3 0-.6-.2-.6-.6 0-.3.2-.6.6-.6.2.1.5.3.6.6z" fill="url(#g)"/><path d="m15.7 11-.2.3z" fill="#17110f"/><path d="m20 12.2c-.4.1-.8-.2-.9-.6s.2-.8.6-.8c.4-.1.8.2.9.6s-.2.7-.6.8z" fill="#1c100a"/><path d="m20.1 12.1c-.3.1-.7-.1-.8-.4s.1-.7.4-.8.7.1.8.4-.1.7-.4.8z" fill="url(#h)"/><path d="m20.4 11.8-.3-.1z" fill="#17110f"/><path d="m24.1 12.3c0-.1 0-.1 0 0 .1-.1.1-.1 0 0 .1 0 .1 0 0 0zm.5-1.8v.2zm.7.6.2-.1zm0 .8.2.1zm-1.3 0-.2.1zm0-.8-.2-.1zm-.2.4c-.1 0-.1 0 0 0 0-.1 0-.1 0-.1-.1 0-.1 0 0 .1l-.1-.1s0 0 .1.1c-.1 0-.1 0 0 0zm.4-.7v-.1zm.9-.1c0-.1 0-.1 0 0 0-.1 0 0 0 0s0 .1 0 0v.1-.1c0-.1 0-.1 0 0 0-.1 0 0 0 0zm0 0c0 .1 0 .1 0 0zm.4.8c0-.1 0-.1 0 0 0-.1.1-.1 0 0 .1-.1.1-.1 0 0 .1 0 .1 0 0 0zm0-.1c0 .1 0 .1 0 0 .1.1.1.1 0 0 .1 0 .1 0 0 0zm0 .1c.1 0 .1 0 0 0zm-.5.8v-.1.1c0-.1 0-.1 0 0v-.1zm.1 0c0-.1 0-.1 0 0 0-.1.1-.1 0 0zm0 0c.1 0 .1 0 0 0 .1-.1.1-.1 0 0 0-.1 0-.1 0 0zm-1 0c.1 0 .1 0 0 0 .1 0 .1-.1 0 0 .1-.1.1-.1 0 0 0-.1 0 0 0 0z"/><path d="m28.3 12.3c0-.1 0-.1 0 0 .1-.1.1-.1 0 0 .1 0 .1 0 0 0zm1.2-1.2.2-.1zm0 .8.2.1zm-1.3 0-.2.1zm0-.8-.2-.1zm-.2.4c-.1 0-.1 0 0 0 0-.1 0-.1 0-.1-.1 0-.1 0 0 .1l-.1-.1c.1 0 .1 0 .1.1-.1 0-.1 0 0 0zm.4-.7v-.1zm1-.1c-.1 0-.1 0 0 0-.1 0-.1-.1 0 0-.1-.1-.1-.1 0 0-.1-.1-.1 0 0 0-.1 0-.1 0 0 0s0 .1 0 0v.1c-.1 0-.1-.1 0-.1-.1 0-.1 0 0 0-.1-.1-.1-.1 0 0 0-.1 0 0 0 0zm-.1 0c0 .1 0 .1 0 0zm.4.8c0-.1 0-.1 0 0 0-.1.1-.1 0 0 .1-.1.1-.1 0 0 .1 0 .1 0 0 0zm0-.1c0 .1 0 .1 0 0 0 .1.1.1 0 0 .1.1.1.1 0 0 .1 0 .1 0 0 0zm0 .1c.1 0 .1 0 0 0zm-.4.8v-.1c-.1 0-.1 0 0 .1l-.1-.1zm0 0c0-.1 0-.1 0 0 .1-.1.1-.1 0 0 .1 0 .1 0 0 0zm0 0c.1 0 .1 0 0 0 .1-.1.1-.1 0 0 0-.1 0-.1 0 0zm-.9 0c0-.1 0-.1 0 0 0-.1 0 0 0 0z"/><path d="m32.7 12.3c0-.1 0-.1 0 0 0-.1.1-.1 0 0zm1.2-1.2.2-.1zm0 .8.2.1zm-1.3 0-.2.1.2-.1c-.1 0-.1 0 0 0zm-.1-.8-.2-.1zm-.2.4c-.1 0-.1 0 0 0-.1 0 0 0 0 0 0-.1 0-.1 0-.1s-.1 0 0 .1l-.1-.1c.1 0 .1 0 .1.1zm.5-.7v-.1zm.9-.1c0-.1 0-.1 0 0-.1-.1-.1 0 0 0-.1 0 0 0 0 0s0 .1 0 0v.1c-.1 0-.1-.1 0-.1-.1 0-.1 0 0 0 0-.1 0-.1 0 0 0-.1 0 0 0 0zm-.1 0c0 .1.1.1 0 0 .1.1.1.1 0 0 .1 0 .1 0 0 0zm.5.8c0-.1 0-.1 0 0 .1-.1.1-.1 0 0 .1 0 .1 0 0 0zm0-.1c0 .1 0 .1 0 0 .1 0 .1 0 0 0zm-.5.9v-.1.1c0-.1 0-.1 0 0l-.1-.1zm.1 0c0-.1 0-.1 0 0zm0 0c0-.1 0-.1 0 0zm-1 0c.1 0 .1 0 0 0 .1 0 .1-.1 0 0 0-.1 0-.1 0 0 0-.1 0 0 0 0z"/><path d="m37.2 12.3c0-.1 0-.1 0 0 .1-.1.1-.1 0 0 .1 0 .1 0 0 0zm.5-1.8v.2zm.7.6.2-.1zm0 .8.2.1zm-1.4 0-.1.1zm0-.8-.2-.1zm-.2.4c-.1 0 0 0 0 0 0-.1 0-.1 0-.1v.1l-.1-.1c.1 0 .1 0 .1.1zm.5-.7v-.1zm.9-.1c-.1-.1-.1-.1 0 0-.1-.1-.1 0 0 0-.1 0-.1 0 0 0s0 .1 0 0v.1c-.1 0-.1-.1 0-.1-.1 0-.1 0 0 0-.1-.1 0-.1 0 0 0-.1 0-.1 0 0 0-.1 0 0 0 0zm-.1 0c0 .1.1.1 0 0 .1.1.1.1 0 0 .1 0 .1 0 0 0zm.5.8c0-.1 0-.1 0 0 .1-.1.1-.1 0 0 .1 0 .1 0 0 0zm0-.1c0 .1 0 .1 0 0zm-.5.9v-.1.1c-.1-.1-.1-.1 0 0l-.1-.1zm.1 0c0-.1 0-.1 0 0zm0 0c0-.1 0-.1 0 0zm-1 0c.1 0 .1 0 0 0 .1 0 .1-.1 0 0 .1-.1 0-.1 0 0 0-.1 0-.1 0 0 0-.1 0 0 0 0z"/><path d="m14.7 12.3c0-.1 0-.1 0 0 .1-.1.1-.1 0 0 .1 0 .1 0 0 0zm.5-1.8v.2zm.7.6.2-.1zm0 .8.2.1zm-1.3 0-.2.1zm0-.8-.2-.1zm-.2.4c-.1 0-.1 0 0 0 0-.1 0-.1 0-.1-.1 0-.1 0 0 .1l-.1-.1c.1 0 .1 0 .1.1-.1 0-.1 0 0 0zm.4-.7v-.1zm1-.1c-.1 0-.1 0 0 0-.1 0-.1-.1 0 0-.1-.1-.1-.1 0 0-.1-.1-.1 0 0 0-.1 0-.1 0 0 0s0 .1 0 0v.1c-.1 0-.1-.1 0-.1-.1 0-.1 0 0 0-.1-.1-.1-.1 0 0 0-.1 0 0 0 0zm-.1 0c0 .1 0 .1 0 0zm.4.8c0-.1 0-.1 0 0 .1-.1.1-.1 0 0 .1 0 .1 0 0 0zm0-.1c0 .1 0 .1 0 0 .1.1.1.1 0 0 .1 0 .1 0 0 0zm0 .1c.1 0 .1 0 0 0zm-.5.8v-.1.1c0-.1 0-.1 0 0l-.1-.1zm.1 0c0-.1 0-.1 0 0 .1-.1.1-.1 0 0 .1 0 .1 0 0 0zm0 0c.1 0 .1 0 0 0 .1-.1.1-.1 0 0 0-.1 0-.1 0 0zm-1 0c.1 0 .1 0 0 0 .1 0 .1-.1 0 0 .1-.1.1-.1 0 0 .1-.1 0 0 0 0z"/><path d="m19.4 12.3c0-.1 0-.1 0 0zm.5-1.8v.2zm.7.6.2-.1zm0 .8.2.1zm-1.4 0-.2.1zm0-.8-.2-.1zm-.2.4c-.1 0-.1 0 0 0 0-.1 0-.1 0-.1-.1 0-.1 0 0 .1l-.1-.1s.1 0 .1.1c-.1 0-.1 0 0 0zm.4-.7v-.1zm1-.1s-.1-.1 0 0c-.1-.1-.1-.1 0 0-.1-.1-.1 0 0 0-.1 0-.1 0 0 0s0 .1 0 0v.1c-.1 0-.1-.1 0-.1-.1 0-.1 0 0 0-.1-.1-.1-.1 0 0 0-.1 0-.1 0 0 0-.1 0 0 0 0zm-.1 0c0 .1 0 .1 0 0 .1.1.1.1 0 0 .1 0 .1 0 0 0zm.5.8c-.1 0-.1 0 0 0-.1-.1-.1-.1 0 0 0-.1 0-.1 0 0s.1 0 0 0c.1 0 .1 0 0 0s0 0 0 0zm0-.1c0 .1 0 .1 0 0zm-.5.9v-.1s-.1 0 0 .1c-.1-.1-.1-.1 0 0l-.1-.1zm0 0c0-.1 0-.1 0 0 .1-.1.1-.1 0 0 .1 0 .1 0 0 0zm0 0c.1 0 .1 0 0 0 .1-.1.1-.1 0 0 0-.1 0-.1 0 0zm-.9 0c0-.1 0-.1 0 0 0-.1 0 0 0 0z"/><path d="m49.8 10.1h2 .1v.1 2.5.1h-.1-2-.1v-.1-2.5zm2.1.1h-2v2.5h2v-2.5c0 .1 0 .1 0 0z" fill="#fee0c1"/><path d="m51.9 10.2h-2v2.5h2v-2.5c0 .1 0 .1 0 0z" fill="#180b0b"/><path d="m51.7 10.4h-1.7v2.1h1.7z" fill="#9a2734"/><path d="m51.7 10.4h-1.7v.6h1.7z" fill="#591010"/><path d="m51.7 11h-1.7v.1z" fill="#fac3c5"/><path d="m53.5 10.1h2 .1v.1 2.5.1h-.1-2-.1v-.1-2.5zm2 .1h-2v2.5h2v-2.5c.1.1.1.1 0 0z" fill="#fee0c1"/><path d="m55.5 10.2h-2v2.5h2v-2.5c.1.1.1.1 0 0z" fill="#180b0b"/><path d="m55.3 12.6h-1.7v-2.1h1.7v2.1c.1 0 .1 0 0 0z" fill="#191922"/><path d="m55.3 12.6h-1.7v-.6h1.7v.6c.1 0 .1 0 0 0z" fill="#181112"/><path d="m55.3 12h-1.7v-.4h1.7v.4c.1 0 .1 0 0 0z" fill="#a3a0ac"/><path d="m50.7 9.7v-.1s0 0 0-.1h.1.1v.1.1.1.1s0 0-.1 0h-.1c0-.1 0-.1 0-.2zm0 0v.1h.1.1v-.1c0-.1 0-.1 0-.1s0 0-.1 0c0 0 0 0-.1 0z"/><path d="m50.8 13.5v-.3s0 0-.1 0h.1s0 0 0-.1z"/><path d="m16.7 24.4c6.9 0 12.5 5.6 12.5 12.5s-5.6 12.6-12.5 12.6-12.5-5.6-12.5-12.5c0-7 5.6-12.6 12.5-12.6z" fill="#131313"/><path d="m16.7 25.7c-6.2 0-11.2 5-11.2 11.2s5 11.2 11.2 11.2 11.2-5 11.2-11.2-5-11.2-11.2-11.2zm0 17.1c-3.2 0-5.9-2.6-5.9-5.9 0-3.2 2.6-5.9 5.9-5.9s5.9 2.6 5.9 5.9-2.7 5.9-5.9 5.9z"/><path d="m43.2 24.4c6.9 0 12.5 5.6 12.5 12.5s-5.6 12.5-12.5 12.5-12.6-5.6-12.6-12.5 5.6-12.5 12.6-12.5z" fill="#131313"/><path d="m43.2 25.7c-6.2 0-11.2 5-11.2 11.2s5 11.2 11.2 11.2 11.2-5 11.2-11.2-5-11.2-11.2-11.2zm0 17.1c-3.2 0-5.9-2.6-5.9-5.9 0-3.2 2.6-5.9 5.9-5.9 3.2 0 5.9 2.6 5.9 5.9-.1 3.3-2.7 5.9-5.9 5.9z"/><path d="m54.4 9.7v-.1s0 0 0-.1h.1.1v.1.1.1.1s0 0-.1 0h-.1c0-.1 0-.1 0-.2zm.1 0v.1h.1.1v-.1c0-.1 0-.1 0-.1s0 0-.1 0 0 0-.1 0z"/><path d="m54.6 13.5v-.3s0 0-.1 0h.1s0 0 0-.1z"/><path d="m6.1 11.3v-.3.1h.1v-.1l-.1.3.1-.1h-.1zm.2 0v-.3zm.2-.2c0 .1 0 .1 0 0v.1s-.1 0 0-.1c-.1.1-.1.1 0 0-.1.1-.1 0 0 0-.1 0-.1-.1-.1-.1s0 0 0-.1h.1c-.1.1-.1.2 0 .2-.1 0-.1 0 0 0-.1.1-.1.1 0 0-.1.1 0 .1 0 0 0 .1 0 .1 0 0zm.1.2v-.3.1h.1v-.1l-.1.3.1-.1h-.1zm4 0v-.3.3h.1zm.2-.1v-.1h.1v.1.1.1.1s-.1-.2-.1-.3zm0 0c0 .1.1.1.1.1s0 0 0-.1c0 0 0 0 0-.1-.1 0-.1 0-.1.1zm.2.1v-.3.3l.1-.3v.1.1s0 0 0-.1v-.2l-.1.4v-.3z"/><path d="m6.5 11.7c.4 0 .7.3.7.7s-.3.6-.7.6-.7-.3-.7-.7.3-.6.7-.6z" fill="#0c0c09"/><path d="m6.5 11.7.2.1.3.2v.3.3l-.3.1-.2.2-.3-.2-.2-.1v-.3-.3l.3-.1z" fill="url(#j)"/><path d="m6.5 11.8.2.1.3.1v.3.3l-.2.1-.2.1-.2-.1-.4-.1v-.3-.3l.2-.1z" fill="#0c0c09"/><path d="m6.5 11.9c.1 0 .2 0 .3.1s.1.2.1.3 0 .2-.1.3-.2.1-.3.1-.2 0-.3-.1-.1-.2-.1-.3 0-.2.1-.3c.1 0 .2-.1.3-.1zm0 .1c.1 0 .2 0 .2.1.1.1.1.1.1.2s0 .2-.1.2c-.1.1-.1.1-.2.1s-.2 0-.2-.1c-.1-.1-.1-.1-.1-.2s0-.2.1-.2c0-.1.1-.1.2-.1zm.2.1s-.1-.1-.2-.1-.2 0-.2.1c-.1.1-.1.1-.1.2s0 .2.1.2c.1.1.1.1.2.1s.2 0 .2-.1c.1-.1.1-.1.1-.2s0-.1-.1-.2zm.1 0c-.1-.1-.2-.1-.3-.1s-.2 0-.3.1-.1.2-.1.3 0 .2.1.3.2.1.3.1.2 0 .3-.1.1-.2.1-.3c0-.2-.1-.3-.1-.3z" fill="url(#l)"/><path d="m10.6 47.8h-7v2.7h7z" fill="#d2b267"/><path d="m10.9 11.7c.4 0 .7.3.7.7s-.3.6-.7.6-.7-.3-.7-.7.4-.6.7-.6z" fill="#0c0c09"/><path d="m10.9 11.7.3.1.3.1v.3.3l-.3.1-.3.2-.2-.2-.3-.1v-.3-.2l.3-.1z" fill="url(#m)"/><path d="m10.9 11.8.2.1.2.1v.3.3l-.2.1-.2.1-.2-.1-.2-.1v-.3-.3l.2-.1z" fill="#0c0c09"/><path d="m10.9 11.9c.1 0 .2 0 .3.1s.1.2.1.3 0 .2-.1.3-.2.1-.3.1-.2 0-.3-.1-.1-.2-.1-.3 0-.2.1-.3c.1 0 .2-.1.3-.1zm0 .1c.1 0 .2 0 .2.1.1.1.1.1.1.2s0 .2-.1.2c-.1.1-.1.1-.2.1s-.2 0-.2-.1c-.1-.1-.1-.1-.1-.2s0-.2.1-.2c0-.1.1-.1.2-.1zm.2.1s-.1-.1-.2-.1-.2 0-.2.1c-.1.1-.1.1-.1.2s0 .2.1.2c.1.1.1.1.2.1s.2 0 .2-.1c.1-.1.1-.1.1-.2s0-.1-.1-.2zm.1 0c-.1-.1-.2-.1-.3-.1s-.2 0-.3.1-.1.2-.1.3 0 .2.1.3.2.1.3.1.2 0 .3-.1.1-.2.1-.3c0-.2-.1-.3-.1-.3z" fill="url(#n)"/></svg>