<svg enable-background="new 0 0 60 60" height="60" viewBox="0 0 60 60" width="60" xmlns="http://www.w3.org/2000/svg"><path d="m56.3 1.5-.1.1-.3-.6h.1z" fill="#b4b4b4"/><path d="m55.4 1.2c.1 0 .3 0 .6-.2s.4-.4.4-.4c0-.1-.2-.4-.2-.4s-.2-.1-.6.1-.4.4-.5.4c0 .2.2.5.3.5z" fill="#ccc"/><path d="m56.3.4c-.1-.1-.1-.2-.1-.2s-.2-.1-.6.1-.4.4-.5.4c0 0 0 .1.1.2z" fill="#989898"/><path d="m55.3 1c-.1-.1-.1-.2-.1-.2 0-.1.1-.2.4-.3.3-.2.5-.1.5-.1s.1.1.1.2.1.1.1.2c0 0-.1.2-.4.3-.2.1-.4.2-.5.2 0-.2 0-.2-.1-.3z" fill="#989898"/><path d="m56.2.5c0-.1-.1-.1-.1-.2 0 0-.2 0-.5.1-.3.2-.4.3-.4.3s0 .1.1.2z" fill="#ccc"/><path d="m54.5 2.5-.2.1-.3-.5.2-.1z" fill="#b4b4b4"/><path d="m53.5 2.3c.1 0 .3 0 .6-.2s.4-.4.4-.4c0-.1-.2-.4-.2-.4s-.2-.1-.6.1-.4.4-.5.4c0 .1.2.4.3.5z" fill="#ccc"/><path d="m54.4 1.4c-.1-.1-.1-.2-.1-.2s-.2-.1-.6.1-.4.4-.5.4c0 0 0 .1.1.2z" fill="#989898"/><path d="m53.5 2c-.1-.1-.1-.2-.1-.2 0-.1.1-.2.4-.3.3-.2.5-.1.5-.1s.1.1.1.2.1.1.1.2c0 0-.1.2-.4.3-.2.1-.4.2-.5.2-.1-.1-.1-.2-.1-.3z" fill="#989898"/><path d="m54.3 1.5c0-.1-.1-.1-.1-.2 0 0-.2 0-.5.1-.3.2-.4.3-.4.3s0 .1.1.2z" fill="#ccc"/><path d="m52.5 3.6-.2.1-.3-.6.2-.1z" fill="#b4b4b4"/><path d="m51.5 3.3c.1 0 .3 0 .6-.2s.4-.4.4-.4c0-.1-.2-.4-.2-.4s-.2-.1-.6.1-.4.4-.5.4c0 .1.2.5.3.5z" fill="#ccc"/><path d="m52.5 2.5c-.1-.1-.1-.2-.1-.2s-.2-.1-.6.1-.4.4-.5.4c0 0 0 .1.1.2z" fill="#989898"/><path d="m51.5 3.1c-.1-.1-.1-.2-.1-.2 0-.1.1-.2.4-.3.3-.2.5-.1.5-.1s.1.1.1.2.1.1.1.2c0 0-.1.2-.4.3-.2.1-.4.2-.5.2-.1-.2-.1-.3-.1-.3z" fill="#989898"/><path d="m52.4 2.6c0-.1-.1-.1-.1-.2 0 0-.2 0-.5.1-.3.2-.4.3-.4.3s0 .1.1.2z" fill="#ccc"/><path d="m58.5 3.7v.2l.5.3.1-.2z" fill="#b4b4b4"/><path d="m58.8 4.7c0-.1 0-.3.2-.6s.4-.4.4-.4c.1 0 .4.2.4.2s.1.2-.1.6-.4.4-.4.5c-.1-.1-.5-.3-.5-.3z" fill="#989898"/><path d="m59.6 3.7c.1.1.2.1.2.1s.1.2-.1.6-.4.4-.4.5c0 0-.1 0-.2-.1z" fill="#ccc"/><path d="m59.1 4.7c.1.1.2.1.2.1.1 0 .2-.1.3-.4.2-.3.1-.5.1-.5s-.1-.1-.2-.1-.1-.1-.2-.1c0 0-.2.1-.3.4-.1.2-.2.4-.2.5.1 0 .2.1.3.1z" fill="#ccc"/><path d="m59.6 3.8c.1 0 .1.1.2.1 0 0 0 .2-.1.5-.2.3-.3.4-.3.4s-.1 0-.2-.1z" fill="#989898"/><path d="m57.5 5.6.5.4.1-.1z" fill="#b4b4b4"/><path d="m57.8 6.5c0-.1 0-.3.2-.6s.4-.4.4-.4c.1 0 .4.2.4.2s.1.2-.1.6-.4.4-.4.5c-.1 0-.5-.2-.5-.3z" fill="#989898"/><path d="m58.6 5.6c.1.1.2.1.2.1s.1.2-.1.6-.4.4-.4.5c0 0-.1 0-.2-.1z" fill="#ccc"/><path d="m58 6.6c.1.1.2.1.2.1.1 0 .2-.1.3-.4.2-.3.1-.5.1-.5s-.1-.1-.2-.1-.1-.1-.2-.1c0 0-.2.1-.3.4-.1.2-.2.4-.2.5.2 0 .2 0 .3.1z" fill="#ccc"/><path d="m58.5 5.7c.1 0 .1.1.2.1 0 0 0 .2-.1.5-.2.3-.3.4-.3.4s-.1 0-.2-.1z" fill="#989898"/><path d="m56.5 7.6.4.4.1-.1z" fill="#b4b4b4"/><path d="m56.7 8.5c0-.1 0-.3.2-.6s.4-.4.4-.4c.1 0 .4.2.4.2s.1.2-.1.6-.4.4-.4.5c-.1 0-.4-.2-.5-.3z" fill="#989898"/><path d="m57.5 7.6c.1.1.2.1.2.1s.1.2-.1.6-.4.4-.4.5c0 0-.1 0-.2-.1z" fill="#ccc"/><path d="m57 8.6c.1.1.2.1.2.1.1 0 .2-.1.3-.4.2-.3.1-.5.1-.5s-.1-.1-.2-.1-.1-.1-.2-.1c0 0-.2.1-.3.4-.1.2-.2.4-.2.5.1 0 .2 0 .3.1z" fill="#ccc"/><path d="m57.5 7.7c.1 0 .1.1.2.1 0 0 0 .2-.1.5-.2.3-.3.4-.3.4s-.1 0-.2-.1z" fill="#989898"/><path d="m56.1 8.6s3.5-6.3 3.8-7.1c.1-.4 0-.8-.2-1s-.1-.1-.1-.1c-.3-.2-.6-.3-1-.2-.8.3-7.2 3.7-7.2 3.7s-.1 0 0 .2.4.8.4 1.3c0 .8-.5 1.4-.5 1.4l1 1.1.1.1.8.8s.7-.4 1.5-.5c.6 0 1.1.3 1.3.4.1 0 .1-.1.1-.1z" fill="#333"/><path d="m59.7.4c-.3-.2-.6-.3-1-.2-.8.3-7.2 3.7-7.2 3.7s-.1 0 0 .2.4.8.4 1.3c0 .8-.5 1.4-.5 1.4l.9 1z" fill="#010101"/><path d="m52.5 7.8-1-1c.2-.3.5-.8.5-1.4 0-.5-.2-1-.3-1.3.8-.4 6.3-3.4 7.1-3.6.4-.1.6 0 .8.1.1.2.3.4.1.8-.2.6-2.5 4.8-3.7 7-.5-.3-1-.4-1.4-.4-.7 0-1.2.3-1.5.4z" fill="#010101"/><path d="m52.4 7.7-.9-.9c.2-.3.5-.8.5-1.4 0-.5-.2-1-.3-1.3.8-.4 6.3-3.4 7.1-3.6.4-.1.6 0 .8.1z" fill="#333"/><path d="m54.5 7.9c.3-.3.7-1.1 1-1.8s.5-1.5.3-1.9l-.1-.1c-.3-.2-1.2 0-1.9.3s-1.5.8-1.8 1c-.1.4 0 .6-.2.9s-.5.6-.5.6l1.8 1.8s.2-.3.6-.5c.4-.1.6 0 .8-.3z" fill="#ccc"/><path d="m55.9 4.2c-.1 0-.1 0 0 0-.4-.2-1.2 0-1.9.3s-1.5.8-1.8 1c-.3.3-.2.5-.4.8s-.5.6-.5.6l.8.8c.1.1 3.8-3.5 3.8-3.5z" fill="#989898"/><path d="m51.5 6.9c.1-.1.3-.3.4-.5.1-.1.1-.3.1-.4 0-.2.1-.3.2-.4.3-.3 1.1-.7 1.8-1s1.5-.4 1.7-.3c.1.2 0 1-.3 1.7s-.8 1.5-1 1.8c-.1.1-.2.2-.4.2-.1 0-.2.1-.4.1-.2.1-.4.3-.5.4z" fill="#989898"/><path d="m51.5 6.9c.1-.1.3-.3.4-.5.1-.1.1-.3.1-.4 0-.2.1-.3.2-.4.3-.3 1.1-.7 1.8-1s1.5-.4 1.7-.3l-3.5 3.4z" fill="#ccc"/><path d="m55.5 4.4c.1 0 .2.1.2.1 0 .1-.1.2-.1.2-.1 0-.2-.1-.2-.1-.1-.1 0-.2.1-.2z" fill="#333"/><path d="m55.5 4.4v.3-.3c-.1 0 0 0 0 0z" fill="#010101"/><path d="m51.9 6.7c.1 0 .2.1.2.1 0 .2-.1.2-.2.2s-.2-.1-.2-.1c.1-.1.1-.2.2-.2z" fill="#333"/><path d="m51.9 6.7.1.3z" fill="#010101"/><path d="m53.1 8c.1 0 .2.1.2.1 0 .1-.1.2-.1.2-.1 0-.2-.1-.2-.1 0-.2.1-.2.1-.2z" fill="#333"/><path d="m53.2 8v.3-.3c-.1 0-.1 0 0 0z" fill="#010101"/><path d="m52.9 4.4c-.2.1-.4.1-.5-.1s-.1-.4.1-.5.4-.1.5.1 0 .4-.1.5z" fill="#b4b4b4"/><path d="m56.8 2.5c-.2.1-.4.1-.5-.1s-.1-.4.1-.5.4-.1.5.1 0 .4-.1.5z" fill="#b4b4b4"/><path d="m54.8 3.4c-.2.1-.4.1-.5-.1s-.1-.4.1-.5.4-.1.5.1.1.4-.1.5z" fill="#b4b4b4"/><path d="m55.6 7.2c-.1.2-.1.4.1.5s.4.1.5-.1.1-.4-.1-.5c-.1-.1-.4-.1-.5.1z" fill="#b4b4b4"/><path d="m57.5 3.3c-.1.2-.1.4.1.5s.4.1.5-.1.1-.4-.1-.5c-.1-.1-.4-.1-.5.1z" fill="#b4b4b4"/><path d="m56.6 5.2c-.1.2-.1.4.1.5s.4.1.5-.1.1-.4-.1-.5c-.1-.1-.4-.1-.5.1z" fill="#b4b4b4"/><path d="m20.4 58.4 13-26.9c.2-.5 0-.9.2-1.6.2-.8.5-1.5.5-1.5l-2.5-2.5s-.8.2-1.5.4c-.8.2-1.1 0-1.6.2l-26.9 13s-.7.3-1.2.8-.4 1.5.4 1.9 4.3.1 7.7-.1 6.8-.4 7.4-.3c1.1.2 1.4.7 1.5.8 0 0 .5.4.7 1.5.1.6 0 4-.2 7.4s-.5 6.9-.1 7.7 1.4.9 1.9.4.7-1.2.7-1.2z" fill="#565656"/><path d="m32.8 27.1-1.2-1.2s-.8.2-1.5.4c-.8.2-1.1 0-1.6.2l-26.9 13s-.7.3-1.2.8-.4 1.5.4 1.9 4.3.1 7.7-.1 6.8-.4 7.4-.3c1.1.2 1.5.8 1.5.8z" fill="#545454"/><path d="m18.2 59.3c-.1-.1-.2-.2-.2-.3-.3-.7-.1-3.6 0-6.4 0-.4 0-.8.1-1.2.2-3.2.3-6.8.2-7.5-.2-.8-.5-1.3-.7-1.5l-.1-.1s-.1-.1-.1-.2c-.2-.2-.7-.6-1.5-.7-.6-.1-3.2 0-7.4.3h-.1c-.4 0-.8 0-1.2.1-2.8.2-5.7.3-6.4 0-.1-.1-.2-.1-.3-.2-.4-.4-.3-.9 0-1.2.4-.5 1.1-.7 1.1-.7l26.9-13c.2-.1.4-.1.6-.1s.5 0 .9-.1c.6-.1 1.1-.3 1.4-.3l2.3 2.3c-.1.3-.3.8-.4 1.3-.1.4-.1.7-.1.9 0 .3 0 .4-.1.6l-13 26.9s-.3.7-.7 1.1c-.3.3-.8.4-1.2 0z" fill="#249ac1"/><path d="m20.8 55.2c-.1-.3-1.9-8.4-2-8.7-.1-.4-.1-.4.2-.7l1.9-1.9c.8-.8 1.5-1.5 2.1-2.1.4-.4.4-.7 0-1.1-.6-.6-1.3-1.4-2.2-2.3-.3-.3-.7-.7-1.1-1.1l-.1-.1-.1-.1c-.2-.2-.4-.3-.8-.4-.7 0-1.7 0-2.6 0-1.3 0-2.8 0-3-.1v-.1s0-.1.1-.1l14.3-8.5c.1-.1.2-.1.3 0l4.5 4.5s.1.1 0 .3l-11.3 22.5s0 0-.1 0z" fill="#333"/><path d="m13 36.5c0-.1 0-.2.1-.2l14.3-8.5c.1-.1.2-.1.3 0l2.2 2.2-8.7 8.7c-.1-.1-.5-.5-1.5-1.4l-.1-.1-.1-.1c-.2-.2-.4-.3-.8-.4-.7 0-1.7 0-2.6 0-1.4-.1-2.9-.1-3.1-.2 0 .1 0 .1 0 0z" fill="#1a1a1a"/><path d="m21 54.8c-.4-1.6-1.9-8.1-1.9-8.4 0-.1-.1-.2 0-.2 0 0 0-.1.2-.2.5-.5 1.2-1.2 1.9-1.9l2.1-2.1c.4-.4.4-1 0-1.4-.6-.6-1.3-1.4-2.3-2.3-.3-.3-.7-.7-1.1-1.1l-.1-.1-.1-.1c-.2-.2-.4-.4-.9-.5-.7 0-1.7 0-2.6 0s-2.1 0-2.6 0l14-8.4 4.4 4.4z" fill="#1a1a1a"/><path d="m20.8 49.8c-.4.4-.4 1 0 1.4s1 .4 1.4 0 .4-1 0-1.4c-.4-.3-1.1-.3-1.4 0z" fill="#010101"/><path d="m20.8 51.3c.4.4 1 .4 1.4 0s.4-1 0-1.4z" fill="#333"/><circle cx="21.5" cy="50.6" fill="#010101" r=".6"/><path d="m21 51c-.2-.2-.2-.7 0-.9s.7-.2.9 0z" fill="#333"/><path d="m22.8 45.9c-.4.4-.4 1 0 1.4s1 .4 1.4 0 .4-1 0-1.4c-.3-.4-1-.4-1.4 0z" fill="#010101"/><path d="m22.8 47.3c.4.4 1 .4 1.4 0s.4-1 0-1.4z" fill="#333"/><circle cx="23.6" cy="46.6" fill="#010101" r=".6"/><path d="m23.1 47c-.2-.2-.2-.7 0-.9s.7-.2.9 0z" fill="#333"/><path d="m19.8 45.8c-.4.4-.4 1 0 1.4s1 .4 1.4 0 .4-1 0-1.4-1-.4-1.4 0z" fill="#010101"/><path d="m19.8 47.2c.4.4 1 .4 1.4 0s.4-1 0-1.4z" fill="#333"/><circle cx="20.5" cy="46.5" fill="#010101" r=".6"/><path d="m20.1 47c-.2-.2-.2-.7 0-.9s.7-.2.9 0z" fill="#333"/><path d="m30.4 32.1-2.6-2.7 23.4-22.5 1.8 1.8z" fill="#010101"/><path d="m29.1 30.7-1.3-1.3 11.7-11.2 11.7-11.3.9.9z" fill="#333"/><g fill="#010101"><path d="m50.9 10.9-1.9-1.9h.1z"/><path d="m49.3 12.5-1.9-1.9.1-.1 1.9 1.9z"/><path d="m47.8 14.1-2-2 .1-.1 2 2z"/><path d="m46.4 15.5-2-2 .1-.1z"/><path d="m45 17-2-2.1v-.1l2.1 2.1z"/><path d="m43.8 18.2-2.1-2.1.1-.1 2.1 2.1z"/><path d="m42.6 19.5-2.2-2.2.1-.1 2.2 2.2z"/><path d="m39.2 18.4 2.3 2.2-.1.1z"/><path d="m40.4 21.8-2.3-2.3.1-.1 2.3 2.3z"/><path d="m39.4 22.8-2.3-2.3.1-.1 2.3 2.3z"/><path d="m38.4 23.8-2.3-2.4h.1l2.3 2.3z"/><path d="m37.6 24.7-2.4-2.4.1-.1 2.4 2.4z"/><path d="m36.7 25.6-2.4-2.4.1-.1 2.4 2.4z"/><path d="m35.9 26.4-2.5-2.4.1-.1z"/><path d="m35.2 27.2-2.5-2.5.1-.1 2.4 2.5z"/><path d="m34.5 27.9-2.6-2.5.1-.1 2.6 2.5z"/><path d="m31.3 26.1 2.6 2.5-.1.1z"/><path d="m33 29.4-2.6-2.5.1-.1z"/><path d="m32.3 30.1-2.6-2.6h.1l2.6 2.5z"/><path d="m31.8 30.7-2.6-2.6v-.1l2.7 2.6z"/><path d="m28.6 28.6 2.7 2.5-.1.1z"/></g><path d="m50.9 10.9-1.8-1.9.1-.1 1.8 1.9z" fill="#e6e6e5"/><path d="m49.4 12.5-1.9-1.9v-.1l2 1.9z" fill="#e6e6e5"/><path d="m47.8 14.1-1.9-2v-.1l2 2z" fill="#e6e6e5"/><path d="m46.4 15.5-2-2 .1-.1 2 2z" fill="#e6e6e5"/><path d="m45.1 16.9-2.1-2.1h.1l2.1 2z" fill="#e6e6e5"/><path d="m43.8 18.2-2.1-2.1.1-.1 2.1 2.1z" fill="#e6e6e5"/><path d="m40.5 17.3 2.3 2.1-.1.1z" fill="#e6e6e5"/><path d="m39.3 18.4 2.3 2.2-.1.1z" fill="#e6e6e5"/><path d="m40.4 21.8-2.3-2.3.1-.1 2.3 2.3z" fill="#e6e6e5"/><path d="m39.4 22.8-2.3-2.3.1-.1 2.3 2.3z" fill="#e6e6e5"/><path d="m38.5 23.8-2.4-2.4.1-.1 2.4 2.4z" fill="#e6e6e5"/><path d="m37.6 24.7-2.4-2.4.1-.1 2.4 2.4z" fill="#e6e6e5"/><path d="m36.7 25.6-2.4-2.5h.1l2.4 2.4z" fill="#e6e6e5"/><path d="m35.9 26.4-2.4-2.4v-.1l2.5 2.4z" fill="#e6e6e5"/><path d="m35.2 27.2-2.5-2.5.1-.1 2.5 2.5z" fill="#e6e6e5"/><path d="m34.5 27.9-2.5-2.5.1-.1 2.5 2.5z" fill="#e6e6e5"/><path d="m31.2 26.1 2.6 2.5-.1.1z" fill="#e6e6e5"/><path d="m33 29.4-2.5-2.6 2.6 2.5z" fill="#e6e6e5"/><path d="m32.4 30.1-2.6-2.6v-.1l2.7 2.6z" fill="#e6e6e5"/><path d="m31.8 30.7-2.6-2.6.1-.1 2.6 2.6z" fill="#e6e6e5"/><path d="m28.6 28.6 2.7 2.5-.1.1z" fill="#e6e6e5"/><path d="m47.3 11.5s.1.3 0 .5-.2.2-.2.2l.6.6s0-.1.2-.2.5 0 .5 0z" fill="#989898"/><path d="m47.3 11.5v.2.3c0 .1-.1.2-.1.2h-.1l.3.3.5-.5z" fill="#ccc"/><path d="m44.4 14.3s.1.3 0 .5c0 .2-.1.2-.1.2l.6.6s0-.1.2-.2.5 0 .5 0z" fill="#989898"/><path d="m44.4 14.3v.2.3c0 .1-.1.2-.1.2h-.1l.3.3.5-.5z" fill="#ccc"/><path d="m41.8 16.9s.1.2.1.4c-.1.2-.1.2-.1.2l.6.6s0-.1.2-.1c.2-.1.4.1.4.1z" fill="#989898"/><path d="m41.8 16.9s0 .1.1.1v.3c0 .1-.1.1-.1.2l.3.3.3-.3z" fill="#ccc"/><path d="m39.4 19.3s.1.2.1.4c-.1.2-.1.2-.1.2l.6.6s0-.1.2-.1c.2-.1.4.1.4.1z" fill="#989898"/><path d="m39.4 19.3s0 .1.1.1v.3c0 .1-.1.1-.1.2s0 0 0 0l.3.3.3-.3z" fill="#ccc"/><path d="m36.5 22.3s.2.2.1.4c0 .1-.1.1-.1.1l.6.6s0-.1.1-.1.4.1.4.1z" fill="#989898"/><path d="m36.5 22.3s0 .1.1.1c0 .1.1.2.1.2v.1l.3.3.2-.2z" fill="#ccc"/><path d="m34.7 24s.1.2.1.4c0 .1-.1.1-.1.1l.6.6s0-.1.1-.1.4.1.4.1z" fill="#989898"/><path d="m34.7 24s0 .1.1.1c0 .1.1.2.1.2v.1l.3.3.2-.2z" fill="#ccc"/><path d="m33.2 25.5s.1.2.1.4c0 .1-.1.1-.1.1l.6.6s0-.1.1-.1.4.1.4.1z" fill="#989898"/><path d="m33.2 25.5s0 .1.1.1.1.2.1.2v.1l.3.3.2-.2z" fill="#ccc"/><path d="m31.7 27s.1.2.1.4c0 .1-.1.1-.1.1l.6.6s0-.1.1-.1.4.1.4.1z" fill="#989898"/><path d="m31.7 27s0 .1.1.1.1.2.1.2v.1l.3.3.2-.2z" fill="#ccc"/><path d="m29.8 28.9s.1.2.1.4c0 .1-.1.1-.1.1l.6.6s0-.1.1-.1.4.1.4.1z" fill="#989898"/><path d="m29.8 28.9s0 .1.1.1.1.2.1.2v.1l.3.3.2-.2z" fill="#ccc"/><path d="m24 40c-.2.2-.5.2-.7 0s-.2-.5 0-.7.5-.2.7 0c.2.1.2.5 0 .7z" fill="#010101"/><path d="m23.9 39.9c-.2.2-.5.2-.6 0-.2-.2-.2-.5 0-.6.2-.2.5-.2.6 0 .2.1.2.4 0 .6z" fill="#333"/><path d="m20.5 36.7c-.2.2-.5.2-.7 0s-.2-.5 0-.7.5-.2.7 0 .2.5 0 .7z" fill="#1a1a1a"/><path d="m20.5 36.6c-.2.2-.5.2-.6 0-.2-.2-.2-.5 0-.6.2-.2.5-.2.6 0 .2.2.1.5 0 .6z" fill="#4e4e4e"/><path d="m23.9 39.9c-.1.1-.4.1-.5 0l-3.4-3.3c-.2-.2-.2-.4-.1-.5l.1-.1c.1-.1.4-.1.5 0l3.4 3.2c.1.2.2.5 0 .7zm-.5-.9-.2-.2-.4.4.2.2zm-.5-.5-.2-.2-.4.4.2.2zm-.5-.4-.2-.2-.4.4.2.2zm-.4-.4-.2-.2-.4.4.2.2zm-.5-.5-.2-.2-.4.4.2.2zm-.5-.4-.2-.2-.4.4.2.2z" fill="#010101"/><path d="m22.2 37.7-1.7-1.6c-.2-.2-.4-.2-.5 0l-.1.1c-.1.1-.1.4.1.5l1.7 1.6zm-1.8-.7.4-.4.2.2-.4.4zm.5.4.4-.4.2.2-.4.4zm.9.1.2.2-.4.4-.2-.2z" fill="#1a1a1a"/><path d="m20.2 36.2c.1 0 .2.1.2.1 0 .1-.1.2-.1.2-.1 0-.2-.1-.2-.1-.1-.2 0-.2.1-.2z" fill="#818181"/><path d="m23.6 39.4c.1 0 .2.1.2.1 0 .1-.1.2-.1.2-.1 0-.2-.1-.2-.1 0-.1 0-.2.1-.2z" fill="#818181"/><path d="m20.2 36.2v.3-.3c-.1 0 0 0 0 0z" fill="#010101"/><path d="m23.6 39.4s.1 0 0 0v.3z" fill="#010101"/><path d="m20.4 36.8.4.3-.1.1z" fill="#ccc"/><path d="m21.4 37.5-.4-.3v-.1z" fill="#ccc"/><path d="m21.6 37.5.4.3z" fill="#ccc"/><path d="m21.8 38.2.4.3-.1.1z" fill="#818181"/><path d="m22.3 38.5.4.3-.1.1z" fill="#818181"/><path d="m23 38.8.4.3-.1.1z" fill="#818181"/><path d="m26.6 37.1c.1-.1.1-.2 0-.2l-3.6-3.6c-.1-.1-.2 0-.2 0l-1.8 1.7c-.1.1-.1.2 0 .2l3.6 3.6c.1.1.2 0 .2 0z" fill="#333"/><path d="m24.8 35.1-1.8-1.8h-.1s-.1 0-.1.1l-1.8 1.6s0 .1-.1.1v.1l1.8 1.8z" fill="#010101"/><path d="m26.5 37c.1-.1.1-.1 0-.2l-3.5-3.4c-.1-.1-.1-.1-.2 0l-1.7 1.6c-.1.1-.1.1 0 .2l3.5 3.5c.1.1.1.1.2 0z"/><path d="m24.7 35.1-1.7-1.7h-.1-.1l-.8.8-.9.8v.1.1l1.7 1.7z" fill="#333"/><path d="m26 36.9s.1-.1 0-.2l-2.9-2.9s-.1 0-.2 0l-1.4 1.4s-.1.1 0 .2l2.9 2.9h.2z" fill="#333"/><path d="m24.6 35.2-1.4-1.4h-.1-.1l-1.4 1.4v.1.1l1.4 1.4z" fill="#010101"/><path d="m25.9 36.8s0-.1 0-.2l-2.8-2.8s-.1 0-.2 0l-1.3 1.3v.2l2.8 2.8h.2z" fill="#010101"/><path d="m24.5 35.3-1.4-1.4h-.1-.1l-.7.7-.7.7v.1.1l1.4 1.4z" fill="#333"/><path d="m21.5 35.1c0-.1-.1-.1-.1-.1-.1 0-.1.1-.1.1 0 .1.1.1.1.1s.1 0 .1-.1z" fill="#818181"/><path d="m23 33.7c.1-.1.1-.1 0-.2s-.1-.1-.2 0-.1.1 0 .2z" fill="#818181"/><path d="m22.2 34.5c.1 0 .1-.1.1-.1 0-.1-.1-.1-.1-.1-.1 0-.1.1-.1.1 0 .1 0 .1.1.1z" fill="#818181"/><path d="m26.2 36.9c.1-.1.1-.1.2 0s.1.1 0 .2-.1.1-.2 0-.1-.2 0-.2z" fill="#333"/><path d="m25.3 37.6c0-.1.1-.1.1-.1.1 0 .1.1.1.1 0 .1-.1.1-.1.1 0 .1-.1 0-.1-.1z" fill="#333"/><path d="m24.7 38.4c.1 0 .1.1.1.1 0 .1-.1.1-.1.1-.1 0-.1-.1-.1-.1 0-.1 0-.1.1-.1z" fill="#333"/><path d="m21.5 35.1h-.3z" fill="#010101"/><path d="m23 33.7-.2-.2z" fill="#010101"/><path d="m22.2 34.5v-.3z" fill="#010101"/><path d="m26.2 36.9.2.2z" fill="#010101"/><path d="m25.3 37.6h.3z" fill="#010101"/><path d="m24.7 38.4v.3z" fill="#010101"/><path d="m24.6 38.1h-.1l-2.7-2.7v-.1l1.2-1.3h.1l2.7 2.7v.1z" fill="#adadad"/><path d="m23.1 36.7-1.4-1.4s0 0 0-.1v-.1l.6-.6.7-.5h.1.1l1.4 1.4z" fill="#8b8a8b"/><path d="m24.6 37.9h-.1l-2.5-2.5v-.1l1.1-1.1h.1l2.5 2.5v.1z" fill="#d6d5d5"/><path d="m25.7 36.7-2.5-2.5h-.1l-.5.5v.1l2.5 2.5h.1z" fill="#fafbfc"/><path d="m23.1 34.7c-.1 0-.1-.1-.1-.1 0-.1.1-.1.1-.1.1 0 .1.1.1.1.1.1 0 .1-.1.1z" fill="#b0b0b0"/><path d="m23.4 35.1c-.1-.1-.1-.1 0-.2s.1-.1.2 0 .1.1 0 .2c0 .1-.1.1-.2 0z" fill="#b0b0b0"/><path d="m25.4 36.8c-.1.1-.1.1-.2 0s-.1-.1 0-.2.1-.1.2 0z" fill="#b0b0b0"/><path d="m24.9 36.5c-.1 0-.1-.1-.1-.1 0-.1.1-.1.1-.1.1 0 .1.1.1.1z" fill="#b0b0b0"/><path d="m24.3 35.9c0-.1.1-.1.1-.1.1 0 .1.1.1.1 0 .1-.1.1-.1.1 0 .1-.1 0-.1-.1z" fill="#b0b0b0"/><path d="m24 35.6c-.1 0-.1-.1-.1-.1 0-.1.1-.1.1-.1.1 0 .1.1.1.1s0 .1-.1.1z" fill="#b0b0b0"/><path d="m23.1 34.7v-.3z" fill="#8b8a8b"/><path d="m23.4 35.1.2-.2z" fill="#8b8a8b"/><path d="m25.4 36.8s0 .1 0 0l-.2-.2z" fill="#8b8a8b"/><path d="m24.9 36.5c-.1 0-.1 0 0 0v-.3z" fill="#8b8a8b"/><path d="m24.3 35.9h.3z" fill="#8b8a8b"/><path d="m24 35.6v-.3z" fill="#8b8a8b"/><path d="m31.3 32.4c.1-.1.1-.2 0-.2l-3.6-3.6c-.1-.1-.2 0-.2 0l-1.7 1.7c-.1.1-.1.2 0 .2l3.6 3.6c.1.1.2 0 .2 0z" fill="#333"/><path d="m29.5 30.3-1.8-1.8h-.1s-.1 0-.1.1l-1.7 1.7s0 .1-.1.1v.1l1.8 1.8z" fill="#010101"/><path d="m31.2 32.3c.1-.1.1-.1 0-.2l-3.5-3.5c-.1-.1-.1-.1-.2 0l-1.6 1.6c-.1.1-.1.1 0 .2l3.5 3.5c.1.1.1.1.2 0z"/><path d="m29.4 30.4-1.7-1.7h-.1-.1l-.8.8-.8.8v.1.1l1.7 1.7z" fill="#333"/><path d="m30.7 32.2s.1-.1 0-.2l-2.9-2.9s-.1 0-.2 0l-1.4 1.4s-.1.1 0 .2l2.9 2.9h.2z" fill="#333"/><path d="m29.3 30.5-1.4-1.4h-.1-.1l-1.4 1.4v.1.1l1.4 1.4z" fill="#010101"/><path d="m30.6 32.1s0-.1 0-.2l-2.8-2.8s-.1 0-.2 0l-1.3 1.3v.2l2.8 2.8h.2z" fill="#010101"/><path d="m29.2 30.6-1.4-1.4h-.1-.1l-.6.7-.7.7v.1.1l1.4 1.4z" fill="#333"/><path d="m26.2 30.4c0-.1-.1-.1-.1-.1-.1 0-.1.1-.1.1 0 .1.1.1.1.1s.1 0 .1-.1z" fill="#818181"/><path d="m27.7 29c.1-.1.1-.1 0-.2s-.1-.1-.2 0-.1.1 0 .2z" fill="#818181"/><path d="m26.9 29.8c.1 0 .1-.1.1-.1 0-.1-.1-.1-.1-.1-.1 0-.1.1-.1.1 0 .1 0 .1.1.1z" fill="#818181"/><path d="m30.9 32.1c.1-.1.1-.1.2 0s.1.1 0 .2-.1.1-.2 0c-.1 0-.1-.1 0-.2z" fill="#333"/><path d="m30 32.9c0-.1.1-.1.1-.1.1 0 .1.1.1.1 0 .1-.1.1-.1.1 0 .1-.1 0-.1-.1z" fill="#333"/><path d="m29.4 33.7c.1 0 .1.1.1.1 0 .1-.1.1-.1.1-.1 0-.1-.1-.1-.1 0-.1.1-.1.1-.1z" fill="#333"/><path d="m26.2 30.4h-.3z" fill="#010101"/><path d="m27.7 29-.2-.2z" fill="#010101"/><path d="m26.9 29.8v-.3z" fill="#010101"/><path d="m30.9 32.1.2.2z" fill="#010101"/><path d="m30 32.9h.3z" fill="#010101"/><path d="m29.4 33.7v.3z" fill="#010101"/><path d="m29.3 33.4h-.1l-2.7-2.7v-.1l1.2-1.2h.1l2.7 2.7v.1z" fill="#adadad"/><path d="m27.8 32-1.4-1.4s0 0 0-.1v-.1l.6-.6.6-.6h.1.1l1.4 1.4z" fill="#8b8a8b"/><path d="m29.3 33.2h-.1l-2.5-2.5v-.1l1.1-1.1h.1l2.5 2.5v.1z" fill="#d6d5d5"/><path d="m30.4 32-2.5-2.5h-.1l-.6.5v.1l2.5 2.5h.1l.5-.5c.1 0 .1-.1.1-.1z" fill="#fafbfc"/><path d="m27.8 30c-.1 0-.1-.1-.1-.1 0-.1.1-.1.1-.1.1 0 .1.1.1.1.1.1 0 .1-.1.1z" fill="#b0b0b0"/><path d="m28.1 30.4c-.1-.1-.1-.1 0-.2s.1-.1.2 0 .1.1 0 .2c0 .1-.1.1-.2 0z" fill="#b0b0b0"/><path d="m30.1 32.1c-.1.1-.1.1-.2 0s-.1-.1 0-.2.1-.1.2 0z" fill="#b0b0b0"/><path d="m29.6 31.8c-.1 0-.1-.1-.1-.1 0-.1.1-.1.1-.1.1 0 .1.1.1.1z" fill="#b0b0b0"/><ellipse cx="29.2" cy="31.2" fill="#b0b0b0" rx=".1" ry=".1"/><path d="m28.7 30.9c-.1 0-.1-.1-.1-.1 0-.1.1-.1.1-.1.1 0 .1.1.1.1s0 .1-.1.1z" fill="#b0b0b0"/><path d="m27.8 30v-.3z" fill="#8b8a8b"/><path d="m28.1 30.4.2-.2z" fill="#8b8a8b"/><path d="m30.1 32.1-.2-.2z" fill="#8b8a8b"/><path d="m29.6 31.8v-.3z" fill="#8b8a8b"/><path d="m29 31.2h.3z" fill="#8b8a8b"/><path d="m28.7 30.9v-.3z" fill="#8b8a8b"/><path d="m31.6 32.7c.1-.1.1-.2 0-.2-.1-.1-.2-.1-.2 0-.1.1-.1.2 0 .2z" fill="#818181"/><path d="m31.6 32.7s.1 0 0 0l-.2-.2z" fill="#010101"/><path d="m27.3 28.2c.1-.1.2-.1.2 0 .1.1.1.2 0 .2-.1.1-.2.1-.2 0-.1 0-.1-.1 0-.2z" fill="#ccc"/><path d="m27.3 28.2.2.2z" fill="#4e4e4e"/><path d="m52.8 9.1-1.9-2 .3-.3 1.9 2z" fill="#e6e6e5"/><path d="m52.8 9.1-1.9-2 .2-.1 1.9 1.9z" fill="#b4b4b4"/><path d="m51.2 7.2-32.8 31.8h-.1l32.9-31.8 1.5-2.9.2-.1z" fill="#4e4e4e"/><path d="m51.5 7.5-32.6 32 32.6-32 3.1-4.3h.1z" fill="#4e4e4e"/><path d="m51.8 7.8-32.4 32.2 32.4-32.2 4.7-5.6h.1z" fill="#4e4e4e"/><path d="m52.7 8.8-31.7 32.6 31.7-32.6 3.2-1.4v-.1z" fill="#4e4e4e"/><path d="m52.4 8.5-31.9 32.4 31.9-32.4 4.4-3 .1-.1z" fill="#4e4e4e"/><path d="m52.1 8.2-32.1 32.3 32.1-32.3 5.7-4.5v-.1z" fill="#4e4e4e"/><path d="m18.3 38.9 32.8-31.7 1.6-2.9.1-.1" fill="none" stroke="#b4b4b4" stroke-miterlimit="10" stroke-width=".1"/><path d="m51.5 7.5-32.6 32 32.6-32 3.1-4.3h.1z" fill="none" stroke="#b4b4b4" stroke-miterlimit="10" stroke-width=".1"/><path d="m51.8 7.8-32.4 32.1 32.4-32.1 4.7-5.6h.1z" fill="none" stroke="#b4b4b4" stroke-miterlimit="10" stroke-width=".1"/><path d="m52.7 8.8-31.8 32.6 31.8-32.6 3.2-1.4v-.1z" fill="none" stroke="#b4b4b4" stroke-miterlimit="10" stroke-width=".1"/><path d="m52.4 8.5-31.9 32.4 31.9-32.4 4.4-3 .1-.1z" fill="none" stroke="#b4b4b4" stroke-miterlimit="10" stroke-width=".1"/><path d="m52.1 8.1-32.2 32.3 32.2-32.3 5.7-4.5v-.1z" fill="none" stroke="#b4b4b4" stroke-miterlimit="10" stroke-width=".1"/><path d="m52.8 4.3c-.1.1-.2 0-.3 0-.1-.1-.1-.2 0-.3s.2 0 .3 0c.1.1.1.2 0 .3z" fill="#818181"/><path d="m56.7 2.4c-.1.1-.2 0-.3 0-.1-.1-.1-.2 0-.3s.2 0 .3 0c.1.1.1.2 0 .3z" fill="#818181"/><path d="m54.7 3.3c-.1.1-.2 0-.3 0-.1-.1-.1-.2 0-.3s.2 0 .3 0c.1.1.1.2 0 .3z" fill="#818181"/><path d="m55.7 7.3c-.1.1 0 .2 0 .3.1.1.2.1.3 0s0-.2 0-.3c-.1-.1-.2-.1-.3 0z" fill="#818181"/><path d="m57.7 3.4c-.1.1 0 .2 0 .3.1.1.2.1.3 0s0-.2 0-.3c-.1-.1-.3-.1-.3 0z" fill="#818181"/><path d="m56.8 5.3c-.1.1 0 .2 0 .3.1.1.2.1.3 0s0-.2 0-.3c-.1-.1-.3-.1-.3 0z" fill="#818181"/><path d="m20.7 32.3c.1-.1.2-.1.2 0 .1.1.1.2 0 .2-.1.1-.2.1-.2 0-.1 0-.1-.2 0-.2z" fill="#ccc"/><path d="m20.7 32.3.2.2z" fill="#4e4e4e"/><path d="m14.3 36c.1-.1.2-.1.2 0 .1.1.1.2 0 .2-.1.1-.2.1-.2 0-.1 0-.1-.1 0-.2z" fill="#ccc"/><path d="m14.3 36 .2.2z" fill="#4e4e4e"/><path d="m18.8 36c.1-.1.2-.1.2 0 .1.1.1.2 0 .2-.1.1-.2.1-.2 0-.1 0-.1-.1 0-.2z" fill="#ccc"/><path d="m18.8 36 .2.2z" fill="#4e4e4e"/><path d="m28 39.7c.1-.1.1-.2 0-.2-.1-.1-.2-.1-.2 0-.1.1-.1.2 0 .2z" fill="#818181"/><path d="m28 39.7c0-.1 0-.1 0 0l-.2-.2z" fill="#010101"/><path d="m25 45.4c.1-.1.1-.2 0-.2-.1-.1-.2-.1-.2 0-.1.1-.1.2 0 .2z" fill="#818181"/><path d="m25 45.4-.2-.2z" fill="#010101"/><path d="m21.2 53.9c.1-.1.1-.2 0-.2-.1-.1-.2-.1-.2 0-.1.1-.1.2 0 .2z" fill="#818181"/><path d="m21.2 53.9c0-.1 0-.1 0 0l-.2-.3z" fill="#010101"/><path d="m20.3 48.9c.1-.1.1-.2 0-.2-.1-.1-.2-.1-.2 0-.1.1-.1.2 0 .2.1.1.2.1.2 0z" fill="#818181"/><path d="m20.3 48.9c.1 0 .1 0 0 0l-.2-.2z" fill="#010101"/><path d="m21.2 44.7c.1-.1.1-.2 0-.2-.1-.1-.2-.1-.2 0-.1.1-.1.2 0 .2 0 .1.1.1.2 0z" fill="#818181"/><path d="m21.2 44.7-.2-.2z" fill="#010101"/><path d="m23.8 41c.1-.1.1-.2 0-.2-.1-.1-.2-.1-.2 0-.1.1-.1.2 0 .2.1.1.2.1.2 0z" fill="#818181"/><path d="m23.8 41s.1 0 0 0l-.2-.2z" fill="#010101"/><path d="m17.7 37.7c-.3.3-.2.5-.2.5l4.3 4.3s.1.1.5-.2c.3-.3.3-.5.3-.5l-4.3-4.3c-.1-.1-.4-.1-.6.2z" fill="#010101"/><path d="m20.4 39.6 2.1 2.1s0 .2-.3.5-.5.2-.5.2l-2.1-2.1z" fill="#1a1a1a"/><path d="m21.8 42.3s.1 0 .3-.2.2-.3.2-.3l-4.2-4.2c-.1 0-.2.1-.3.2s-.2.2-.2.3z" fill="#1a1a1a"/><path d="m20.2 39.7 2.1 2.1c0 .1-.1.2-.2.3s-.2.2-.3.2l-2.1-2.1z" fill="#010101"/><path d="m22.1 41.7c0-.2-.1-.3-.3-.3s-.3.1-.3.3.1.3.3.3c.1 0 .3-.1.3-.3z" fill="#4e4e4e"/><path d="m18.4 38.4c.1-.1.1-.3 0-.5-.1-.1-.3-.1-.5 0-.1.1-.1.3 0 .5.1.1.3.1.5 0z" fill="#4e4e4e"/><path d="m22.1 41.7-.7-.1z" fill="#010101"/><path d="m18.4 38.4-.4-.5.4.5c-.1 0 0 0 0 0z" fill="#010101"/></svg>