<svg enable-background="new 0 0 60 60" height="60" viewBox="0 0 60 60" width="60" xmlns="http://www.w3.org/2000/svg" xmlns:xlink="http://www.w3.org/1999/xlink"><linearGradient id="a" gradientTransform="matrix(.7071 .7071 -.7071 .7071 -534.8285 224.9697)" gradientUnits="userSpaceOnUse" x1="261.0018" x2="261.0018" y1="-509.3151" y2="-510.1094"><stop offset="0" stop-color="#e5e2df"/><stop offset="0" stop-color="#ded9d6"/><stop offset=".06299578" stop-color="#cfcac9"/><stop offset=".1833" stop-color="#a8a4a7"/><stop offset=".264" stop-color="#8b878d"/><stop offset=".5225" stop-color="#f3f4f4"/><stop offset=".5842" stop-color="#e5e5e6"/><stop offset=".7027" stop-color="#c0bec0"/><stop offset=".8647" stop-color="#858085"/><stop offset=".8764" stop-color="#807b80"/><stop offset="1" stop-color="#d1d3d4"/><stop offset="1" stop-color="#a7a9ac"/></linearGradient><path d="m.5 46.4c-.6-1.7-.8-4 .1-6.2 2.1-4.8 6.9-6.4 9.2-7s5.7-1.1 6.8-2.2c1.8-1.8 1.9-4.2 3.3-5.9s4.1-3.6 5-2.8c1 .9-2 3.2-1.9 5.4.1 1.9 2.5 2.8 2.5 2.8l2.4 3.5s-.6 2.6 1.3 3.8 5.4-.9 5.7.8c.2.9-1.5 1.5-3.5 2-1.1.3-2.3 1.2-3 2.1-1.2 1.7-1.5 4.6-2.2 6.9-.8 2.4-1.9 5.5-4.7 7.6-2.8 2.2-6 2.1-8.8 1.2-2.6-.8-5.5-3.1-7.2-4.8-1.6-1.5-3.9-4-5-7.2z" fill="#474747"/><path d="m26.8 32.4-1.2-1.8s-2.4-1-2.5-2.8c-.1-2.2 2.9-4.5 1.9-5.4-.9-.8-3.6 1.1-5 2.8s-1.5 4.1-3.3 5.9c-1.1 1.1-4.4 1.6-6.8 2.2-2.3.6-7.1 2.2-9.2 7-1 2.2-.7 4.5-.1 6.2 1.1 3.2 3.3 5.6 4.9 7.3z" fill="#063e89"/><path d="m5.7 53.6c-1.7-1.7-3.8-4.1-4.9-7.2-.5-1.4-.9-3.7.1-6 2.1-5 7.3-6.4 9-6.8.6-.2 1.3-.3 2-.5 2-.4 4-.9 4.9-1.8 1-1 1.5-2.2 2-3.4.4-.9.7-1.8 1.3-2.5 1.2-1.4 3.1-2.8 4.1-2.9.2 0 .3 0 .4.1.2.2-.2 1-.7 1.7-.6 1-1.4 2.2-1.3 3.4 0 .7.4 1.4 1 2s1.4 1 1.6 1.1l2.2 3.3c-.1.5-.3 2.4.9 3.6.2.2.3.3.5.4 1 .6 2.3.5 3.5.3.8-.1 1.7-.2 1.9.1.1.1.1.2.1.3.1.7-2.1 1.3-3.2 1.7-1.2.3-2.5 1.3-3.2 2.2-.8 1.2-1.2 2.9-1.6 4.6-.2.8-.4 1.7-.6 2.5-.9 2.7-2 5.5-4.6 7.5-2.3 1.8-5.2 2.2-8.5 1.1-2.3-.9-5.1-3.1-6.9-4.8.1 0 .1 0 0 0z" fill="#063e89"/><path d="m26.6 32.7-1.3-1.9c-.3-.1-1-.5-1.6-1.1s-.9-1.3-1-2c-.1-1.2.7-2.4 1.3-3.4.5-.7 1-1.5.7-1.7-.1-.1-.2-.1-.4-.1-1 .1-2.9 1.4-4.1 2.9-.6.7-1 1.6-1.3 2.5-.5 1.2-1 2.4-2 3.4-.9.8-3 1.3-4.9 1.7-.7.2-1.4.3-2 .5-1.7.5-6.9 1.9-9 6.8-1 2.3-.6 4.5-.1 6 1.1 3.1 3.2 5.5 4.9 7.2z" fill="#063e89"/><path d="m52.7 2.3-.6-.4.1-.1z" fill="#b3b3b3"/><path d="m51.5 2.4c.1 0 .4-.1.7-.4s.4-.6.4-.7-.4-.4-.4-.5c-.1 0-.3 0-.7.4s-.4.6-.4.7.3.5.4.5z" fill="#ccc"/><path d="m52.5 1.1c-.1-.1-.2-.2-.2-.2-.1 0-.3 0-.7.4s-.4.6-.4.7c0 0 .1.2.2.3z" fill="#999"/><path d="m51.4 2.1c-.1-.1-.2-.1-.2-.2s0-.2.4-.6c.3-.3.5-.3.6-.3 0 0 .1.1.2.2s.1.2.2.2c0 .1-.1.3-.4.6s-.5.4-.6.4c-.1-.1-.1-.2-.2-.3z" fill="#999"/><path d="m52.4 1.2c-.1-.1-.2-.2-.2-.2s-.2 0-.6.4c-.4.3-.4.5-.4.6 0 0 .1.1.2.2z" fill="#ccc"/><path d="m50.9 4.3-.2.1-.5-.5.2-.1z" fill="#b3b3b3"/><path d="m49.7 4.4c.1 0 .4-.1.7-.4s.4-.6.4-.7-.4-.4-.4-.5c-.1 0-.3 0-.7.4s-.4.6-.4.7c-.1.1.3.5.4.5z" fill="#ccc"/><path d="m50.6 3c-.1-.1-.2-.2-.2-.2-.1 0-.3 0-.7.4s-.4.6-.4.7c0 0 .1.2.2.3z" fill="#999"/><path d="m49.5 4.1c-.1-.1-.2-.2-.2-.2 0-.1 0-.2.4-.6.4-.3.5-.4.6-.4 0 0 .1.1.2.2s.1.2.2.2c0 .1-.1.3-.4.6s-.5.4-.6.4c0-.1-.1-.1-.2-.2z" fill="#999"/><path d="m50.5 3.1c-.1-.1-.1-.1-.2-.2 0 0-.2 0-.6.4-.4.3-.4.5-.4.6 0 0 .1.1.2.2z" fill="#ccc"/><path d="m48.9 6-.2.2-.5-.5.2-.2z" fill="#b3b3b3"/><path d="m47.7 6.2c.1 0 .4-.1.7-.4s.4-.6.4-.7-.4-.4-.4-.5c-.1 0-.3 0-.7.4s-.4.6-.4.7c-.1.1.3.4.4.5z" fill="#ccc"/><path d="m48.6 4.8c-.1-.1-.2-.2-.2-.2-.1 0-.3 0-.7.4s-.4.6-.4.7c0 0 .1.2.2.3z" fill="#999"/><path d="m47.6 5.8c-.1-.1-.2-.2-.2-.2 0-.1 0-.2.4-.6.4-.3.5-.4.6-.4 0 0 .1.1.2.2 0 .2.1.2.1.3s-.1.3-.4.6c-.2.2-.5.3-.6.3 0 0 0-.1-.1-.2z" fill="#999"/><path d="m48.5 4.9c-.1-.1-.2-.1-.2-.2 0 0-.2 0-.6.4-.4.3-.4.5-.4.6 0 0 .1.1.2.2z" fill="#ccc"/><path d="m58.2 5.9-.6-.4.1-.1z" fill="#b3b3b3"/><path d="m58 7c.1 0 .4-.1.7-.4s.4-.6.4-.7-.4-.4-.4-.5c-.1 0-.3 0-.7.4s-.4.6-.4.7.4.5.4.5z" fill="#ccc"/><path d="m59 5.6c-.1-.1-.2-.2-.2-.2-.1 0-.3 0-.7.4s-.4.6-.4.7c0 0 .1.2.2.3z" fill="#999"/><path d="m57.9 6.7c-.1-.1-.2-.2-.2-.2 0-.1 0-.2.4-.6.4-.3.5-.4.6-.4 0 0 .1.1.2.2s.1.2.1.2c0 .1 0 .3-.3.6s-.5.4-.6.4-.1-.1-.2-.2z" fill="#999"/><path d="m58.9 5.7c-.1-.1-.2-.1-.2-.2 0 0-.2 0-.6.4-.4.3-.4.5-.4.6 0 0 .1.1.2.2z" fill="#ccc"/><path d="m56.3 7.9-.6-.4.1-.1z" fill="#b3b3b3"/><path d="m56.1 9c.1 0 .4-.1.7-.4s.4-.6.4-.7-.4-.4-.4-.5c-.1 0-.3 0-.7.4s-.4.6-.4.7.4.5.4.5z" fill="#ccc"/><path d="m57.1 7.6c-.1-.1-.2-.2-.2-.2-.1 0-.3 0-.7.4s-.4.6-.4.7c0 0 .1.2.2.3z" fill="#999"/><path d="m56 8.7c-.1-.1-.2-.2-.2-.2 0-.1 0-.2.4-.6.4-.3.5-.4.6-.4 0 0 .1.1.2.2s.1.2.2.2c0 .1-.1.3-.4.6s-.5.4-.6.4c0 0-.1-.1-.2-.2z" fill="#999"/><path d="m57 7.7c-.1-.1-.2-.1-.2-.2 0 0-.2 0-.6.4-.4.3-.4.5-.4.6 0 0 .1.1.2.2z" fill="#ccc"/><path d="m54.5 10.1-.1.2-.5-.5.1-.1z" fill="#b3b3b3"/><path d="m54.3 11.3c.1 0 .4-.1.7-.4s.4-.6.4-.7-.4-.4-.4-.5c-.1 0-.3 0-.7.4s-.4.6-.4.7.4.5.4.5z" fill="#ccc"/><path d="m55.3 9.9c-.1-.1-.2-.2-.2-.2-.1 0-.3 0-.7.4s-.4.6-.4.7c0 0 .1.2.2.3z" fill="#999"/><path d="m54.2 11c-.1-.1-.2-.2-.2-.2 0-.1 0-.2.4-.6.4-.3.5-.4.6-.4 0 0 .1.1.2.2s.1.2.2.2c0 .1-.1.3-.4.6s-.5.4-.6.4c-.1-.1-.1-.1-.2-.2z" fill="#999"/><path d="m55.2 10c-.1-.1-.2-.2-.2-.2s-.2 0-.6.4c-.4.3-.4.5-.4.6 0 0 .1.1.2.2z" fill="#ccc"/><path d="m6.9 52.4c-1.6-1.6-3.6-3.8-4.5-6.6-.4-1.2-.7-3 .1-4.8 1.8-4.2 6.4-5.5 7.9-5.9.6-.2 1.2-.3 1.9-.5 2.3-.5 4.5-1 5.7-2.3 1.3-1.3 1.5-3.7 2-5 .7-1.7 3.2-3.7 3.2-3.7s-2.6 4.1-.2 6.6c1 1.1 2.3.6 2.3.6l2 2.2c-.1 1.1-1.7 3.8.2 5.6 1.7 1.5 5.4-.1 5.6.5.3.6-4.1.7-6.2 2.6-1.3 1.2-1.6 3.3-2 5.1-.2.8-.4 1.6-.6 2.3-.8 2.5-1.8 5-4 6.7-1.9 1.5-4.2 1.8-7 .9-2.1-.6-4.7-2.6-6.4-4.3.1.1 0 0 0 0z" fill="#063e89"/><path d="m46.5 10.6s.4-.8.6-1.5c.1-.7.1-1.8.4-2.2s1.8-1.2 3-2.3c1.2-1.2 3.1-3.6 3.5-3.8.5-.2 1.7.2 2.9.6 1.5.4 3.1 1.2 3.1 1.7s-2.7 2.6-4.4 4.6-2.3 3.3-2.8 3.6c-.6.3-1.4.2-2.1.4-1.1.2-2.2 1.1-2.2 1.1z" fill="#4f4f4f"/><path d="m57.6 1.6c-.3-.1-.4-.2-.7-.3-1.2-.3-2.4-.6-2.9-.5-.4.1-2.3 2.6-3.5 3.7-1.2 1.2-2.6 2-3 2.3-.3.4-.3 1.5-.4 2.2s-.6 1.5-.6 1.5l1.1 1.1z" fill="#063e89"/><path d="m46.8 10.5c.1-.3.4-.9.5-1.4 0-.2.1-.5.1-.8 0-.5.1-1.1.3-1.3.1-.1.4-.4.8-.6.6-.4 1.4-1 2.1-1.7.6-.5 1.3-1.4 1.9-2.1s1.3-1.5 1.5-1.6c.4-.1 1.6.2 2.7.5h.1c1.2.4 2.3.9 2.8 1.3.1.1.1.2.1.2 0 .2-.8 1-1.5 1.6-.9.8-1.9 1.8-2.8 2.8-.7.9-1.3 1.7-1.7 2.3-.5.7-.8 1.2-1.1 1.3-.3.2-.8.2-1.3.2-.3 0-.5 0-.7.1-.9.2-1.8.7-2.1 1z" fill="#063e89"/><path d="m46.5 10.6s2.2-2.6 3.8-3.9c1.8-1.4 3.7-2.6 5.1-2.9 1-.3 2.5-.2 2.5 0s-.7.1-2.8 2c-1.2 1.1-3.1 3-4.5 4.8-.7.9-1.9 2.2-1.9 2.2z" fill="#fff"/><path d="m51.5 5.5c-.2.2-.5.1-.7-.1s-.1-.5.1-.7.5-.1.7.1.1.5-.1.7z" fill="#ccc"/><path d="m49.2 7.3c-.2.2-.5.1-.7-.1s-.1-.5.1-.7.5-.1.7.1.1.5-.1.7z" fill="#ccc"/><path d="m53.5 3.4c-.2.2-.5.1-.7-.1s-.1-.5.1-.7.5-.1.7.1c.1.2.1.5-.1.7z" fill="#ccc"/><path d="m54.6 6.7c-.1.2-.1.5.1.6s.5.1.7-.1c.1-.2.1-.5-.1-.6s-.5-.1-.7.1z" fill="#ccc"/><path d="m52.9 9.1c-.1.2-.1.5.1.6s.5.1.7-.1c.1-.2.1-.5-.1-.6-.3-.2-.6-.1-.7.1z" fill="#ccc"/><path d="m56.6 4.7c-.1.2-.1.5.1.6s.5.1.7-.1c.1-.2.1-.5-.1-.6-.2-.2-.5-.1-.7.1z" fill="#ccc"/><path d="m48.5 12c.1-.1.2-.1.3 0s.1.2 0 .3-.2.1-.3 0-.1-.2 0-.3z" fill="#808080"/><path d="m48.5 12 .3.2z" fill="#333"/><path d="m46.8 10.5c0-.1.1-.2.2-.2s.2.1.2.2-.1.2-.2.2-.2-.1-.2-.2z" fill="#808080"/><path d="m46.8 10.5h.4z" fill="#333"/><path d="m11.7 51.2-3.6-3.6.5-.6 3.6 3.6z" fill="url(#a)"/><path d="m25.4 36.6c-.4.1-.8-.4-1.8-1.4s-1.1-1.3-1.1-1.7c.1-.3 24-23 24-23l2 2c.1.2-22.7 24-23.1 24.1z" fill="#957d33"/><path d="m23.8 35.4s-.9-1-1.1-1.2-.2-.4-.1-.6c0-.1 6-5.9 12-11.6s12-11.4 12-11.4l1 1z" fill="#b99b3b"/><path d="m46.4 14.9-2.1-2.1.1-.1 2.1 2.1z"/><path d="m44.8 16.6-2.2-2.2.1-.1 2.2 2.2z"/><path d="m43.2 18.2-2.3-2.2.1-.1z"/><path d="m41.8 19.8-2.4-2.4.1-.1 2.4 2.4z"/><path d="m40.3 21.2-2.4-2.4.1-.1z"/><path d="m39.1 22.6-2.5-2.5.1-.1 2.5 2.5z"/><path d="m35.2 21.3 2.6 2.5-.1.1z"/><path d="m34 22.5 2.7 2.5-.1.1z"/><path d="m35.5 26.3-2.6-2.7v-.1l2.7 2.7z"/><path d="m31.7 24.6 2.8 2.6-.1.1z"/><path d="m33.5 28.4-2.7-2.8.1-.1 2.7 2.8z"/><path d="m32.6 29.3-2.8-2.8.1-.1 2.8 2.8z"/><path d="m28.9 27.4 2.9 2.8-.1.1z"/><path d="m30.9 31.1-2.9-2.8.1-.1 2.8 2.8z"/><path d="m30.1 31.9-2.9-2.9.1-.1 2.9 2.9z"/><path d="m29.4 32.6-2.9-2.9 3 2.8z"/><path d="m25.6 30.5 3 2.8-.1.1z"/><path d="m27.8 34.2-2.9-2.9.1-.1 2.9 2.9z"/><path d="m27.1 34.9-2.9-2.9.1-.1 2.9 2.9z"/><path d="m26.6 35.5-3-3h.1z"/><path d="m23 33.1 3 2.9z"/><g fill="#ccc"><path d="m46.4 14.9-2.1-2.2h.1l2.1 2.1z"/><path d="m44.8 16.5-2.2-2.2h.1z"/><path d="m43.2 18.2-2.2-2.3v-.1l2.3 2.3z"/><path d="m41.8 19.7-2.4-2.3.1-.1 2.4 2.3z"/><path d="m40.4 21.2-2.5-2.4.1-.1 2.5 2.4z"/><path d="m39.1 22.5-2.5-2.5h.1l2.5 2.4z"/><path d="m35.3 21.3 2.6 2.5-.1.1z"/><path d="m34.1 22.4 2.7 2.5-.1.1z"/><path d="m35.5 26.2-2.6-2.6.1-.1z"/><path d="m34.5 27.3-2.7-2.7.1-.1 2.7 2.7z"/><path d="m33.5 28.3-2.7-2.7.1-.1 2.7 2.7z"/><path d="m32.6 29.3-2.7-2.8v-.1l2.8 2.8z"/><path d="m31.7 30.2-2.8-2.8.1-.1 2.8 2.8z"/><path d="m30.9 31.1-2.9-2.9.1-.1 2.9 2.9z"/><path d="m30.1 31.9-2.9-2.9.1-.1 2.9 2.9z"/><path d="m29.4 32.6-2.9-2.9.1-.1 2.9 2.9z"/><path d="m25.7 30.4 3 2.8-.1.1z"/><path d="m27.9 34.2-3-3 .1-.1 3 3z"/><path d="m27.2 34.9-3-3 .1-.1 3 3z"/><path d="m26.6 35.5-3-3 .1-.1 3 3z"/><path d="m23 33.1 3 2.9z"/></g><path d="m43 16.4c-.1.1-.2.1-.3 0s-.1-.3 0-.3c.1-.1.2-.1.3 0s.1.2 0 .3z" fill="#eddc84"/><path d="m40 19.4c-.1.1-.2.1-.3 0s-.1-.3 0-.3c.1-.1.2-.1.3 0s.1.3 0 .3z" fill="#eddc84"/><path d="m37.4 22c-.1.1-.2.1-.3 0s-.1-.3 0-.3.2-.1.3 0 .1.2 0 .3z" fill="#eddc84"/><path d="m35 24.5c-.1.1-.2.1-.3 0s-.1-.3 0-.3c.1-.1.2-.1.3 0 .1 0 .1.2 0 .3z" fill="#eddc84"/><path d="m32.7 28.3c-.1.1-.2.1-.3 0s-.1-.3 0-.3c.1-.1.2-.1.3 0s.1.2 0 .3z" fill="#eddc84"/><path d="m31.2 26.8c-.1.1-.2.1-.3 0s-.1-.3 0-.3c.1-.1.2-.1.3 0z" fill="#eddc84"/><path d="m29.3 30.2c-.1.1-.2.1-.3 0s-.1-.3 0-.3c.1-.1.2-.1.3 0 .1 0 .1.2 0 .3z" fill="#eddc84"/><path d="m27.8 31.7c-.1.1-.2.1-.3 0s-.1-.3 0-.3c.1-.1.2-.1.3 0 .1 0 .1.2 0 .3z" fill="#eddc84"/><path d="m26.3 33.2c-.1.1-.2.1-.3 0s-.1-.3 0-.3c.1-.1.2-.1.3 0z" fill="#eddc84"/><path d="m25.1 34.4c-.1.1-.2.1-.3 0s-.1-.3 0-.3c.1-.1.2-.1.3 0s.1.2 0 .3z" fill="#eddc84"/><path d="m17.1 51.1c-.4.4-.4 1.1 0 1.6.4.4 1.1.4 1.6 0 .4-.4.4-1.1 0-1.6-.5-.4-1.2-.4-1.6 0z"/><path d="m17.1 52.7c.4.4 1.1.4 1.6 0 .4-.4.4-1.1 0-1.6z" fill="#333"/><path d="m18.4 52.4c-.3.3-.7.3-1 0s-.3-.7 0-1 .7-.3 1 0 .3.7 0 1z"/><path d="m17.4 52.4c-.3-.3-.3-.7 0-1s.7-.3 1 0z" fill="#333"/><path d="m20.2 52.2c-.4.4-.4 1.1 0 1.6.4.4 1.1.4 1.6 0 .4-.4.4-1.1 0-1.6-.5-.5-1.2-.5-1.6 0z"/><path d="m20.2 53.7c.4.4 1.1.4 1.6 0 .4-.4.4-1.1 0-1.6z" fill="#333"/><path d="m21.5 53.4c-.3.3-.7.3-1 0s-.3-.7 0-1 .7-.3 1 0 .3.8 0 1z"/><path d="m20.5 53.4c-.3-.3-.3-.7 0-1s.7-.3 1 0z" fill="#333"/><path d="m14.8 53.5c-.4.4-.4 1.1 0 1.6.4.4 1.1.4 1.6 0 .4-.4.4-1.1 0-1.6-.5-.5-1.2-.5-1.6 0z"/><path d="m14.8 55c.4.4 1.1.4 1.6 0 .4-.4.4-1.1 0-1.6z" fill="#333"/><path d="m16 54.7c-.3.3-.7.3-1 0s-.3-.7 0-1 .7-.3 1 0 .3.8 0 1z"/><path d="m15.1 54.7c-.3-.3-.3-.7 0-1s.7-.3 1 0z" fill="#333"/><path d="m17.9 54.5c-.4.4-.4 1.1 0 1.6.4.4 1.1.4 1.6 0 .4-.4.4-1.1 0-1.6-.5-.4-1.2-.4-1.6 0z"/><path d="m17.9 56.1c.4.4 1.1.4 1.6 0 .4-.4.4-1.1 0-1.6z" fill="#333"/><path d="m19.1 55.8c-.3.3-.7.3-1 0s-.3-.7 0-1 .7-.3 1 0 .3.7 0 1z"/><path d="m18.2 55.8c-.3-.3-.3-.7 0-1s.7-.3 1 0z" fill="#333"/><path d="m16.6 47c-.2.2-.6.2-.8 0s-.2-.6 0-.8.6-.2.8 0 .2.6 0 .8z"/><path d="m16.5 47c-.2.2-.5.2-.7 0s-.2-.5 0-.7.5-.2.7 0 .2.5 0 .7z" fill="#333"/><path d="m12.7 43.5c-.2.2-.6.2-.8 0s-.2-.6 0-.8.6-.2.8 0 .2.5 0 .8z" fill="#1a1a1a"/><path d="m12.6 43.4c-.2.2-.5.2-.7 0s-.2-.5 0-.7.5-.2.7 0 .2.5 0 .7z" fill="#4d4d4d"/><path d="m16.4 46.9c-.1.1-.4.1-.6 0l-3.8-3.5c-.2-.2-.2-.4-.1-.6l.1-.1c.1-.1.4-.1.6 0l3.8 3.5c.2.3.2.5 0 .7zm-.6-1-.3-.2-.4.4.3.2zm-.5-.4-.3-.2-.4.4.3.2zm-.5-.5-.3-.2-.4.4.3.2zm-.5-.5-.3-.2-.4.4.3.2zm-.5-.5-.3-.2-.4.4.3.2zm-.6-.4-.2-.3-.4.4.3.2z"/><path d="m14.5 44.5-1.9-1.8c-.2-.2-.4-.2-.6 0l-.1.1c-.1.1-.1.4.1.6l1.9 1.7zm-1.9-.7.4-.4.3.2-.5.4zm.5.4.4-.4.3.2-.4.4zm.9.1.3.2-.4.5-.3-.2z" fill="#1a1a1a"/><path d="m12.2 42.9c.1 0 .2.1.2.2s-.1.2-.2.2-.2-.1-.2-.2c.1-.2.1-.2.2-.2z" fill="#808080"/><path d="m16.1 46.4c.1 0 .2.1.2.2s-.1.2-.2.2-.2-.1-.2-.2c.1-.1.2-.2.2-.2z" fill="#808080"/><path d="m12.2 42.9c.1 0 .1 0 0 0v.3z"/><path d="m16.2 46.4v.3-.3c-.1 0-.1 0 0 0z"/><path d="m12.5 43.7.5.3z" fill="#ccc"/><path d="m13.6 44.4-.4-.4v-.1l.5.4z" fill="#ccc"/><path d="m13.9 44.3.5.3-.1.1z" fill="#ccc"/><path d="m14.5 45.5-.4-.4v-.1l.5.4z" fill="#808080"/><path d="m14.7 45.5.5.3-.1.1z" fill="#808080"/><path d="m15.4 45.7.5.3-.1.1z" fill="#808080"/><path d="m7 46.6.6-.6 5.6 5.6-.6.6z" fill="#4d4d4d"/><path d="m6.9 46.4.5-.5.2.2-.5.5z" fill="#4d4d4d"/><path d="m12.7 52.2.5-.5.2.2-.5.5z" fill="#4d4d4d"/><path d="m7.1 46.6.4-.4 5.6 5.6-.4.4z"/><path d="m7 46.3.2-.3.2.2-.3.3z"/><path d="m12.8 52.1.3-.3.2.2-.3.3z"/><path d="m9 47.9c-.1.1-.2.1-.3 0s-.1-.2 0-.3.2-.1.3 0z" fill="#4d4d4d"/><path d="m9.5 48.5c-.1.1-.2.1-.3 0s-.1-.2 0-.3.2-.1.3 0c.1 0 .1.2 0 .3z" fill="#4d4d4d"/><path d="m10 49c-.1.1-.2.1-.3 0s-.1-.2 0-.3.2-.1.3 0 .1.2 0 .3z" fill="#4d4d4d"/><path d="m10.6 49.5c-.1.1-.2.1-.3 0s-.1-.2 0-.3.2-.1.3 0z" fill="#4d4d4d"/><path d="m11.1 50.1c-.1.1-.2.1-.3 0s-.1-.2 0-.3.2-.1.3 0c.1 0 .1.2 0 .3z" fill="#4d4d4d"/><ellipse cx="11.5" cy="50.4" fill="#4d4d4d" rx=".2" ry=".2"/><path d="m9 47.9c0-.1 0-.2 0-.3-.1-.1-.2-.1-.3 0z"/><path d="m9.5 48.4c.1-.1.1-.2 0-.3s-.2-.1-.3 0z"/><path d="m10 49c.1-.1.1-.2 0-.3s-.2-.1-.3 0z"/><path d="m10.6 49.5c.1-.1.1-.2 0-.3s-.2-.1-.3 0z"/><path d="m11.1 50c.1-.1.1-.2 0-.3s-.2-.1-.3 0z"/><path d="m11.6 50.6c.1-.1.1-.2 0-.3s-.2-.1-.3 0z"/><path d="m48.3 13-2.1-2.2.3-.2 2.1 2.1z" fill="#ccc"/><path d="m48.3 13-2.1-2.2.1-.1 2.2 2.2z" fill="#999"/><path d="m56.5 3.9c.1-.1.2-.1.3 0s.1.2 0 .3-.2.1-.3 0-.1-.3 0-.3z" fill="#808080"/><path d="m56.5 3.9c0-.1 0-.1 0 0l.3.3z" fill="#333"/><path d="m26.5 37.7c.1-.1.1-.2 0-.3l-4.7-4.7c-.1-.1-.2 0-.3 0l-2.3 2.3c-.1.1-.1.2 0 .3l4.7 4.7c.1.1.2 0 .3 0z" fill="#333"/><path d="m24.2 35-2.4-2.4s-.1 0-.2 0-.1 0-.2.1l-2.2 2.3s-.1.1-.1.2v.2l2.4 2.4z"/><path d="m26.4 37.7c.1-.1.1-.2 0-.3l-4.6-4.6c-.1-.1-.2-.1-.3 0l-2.2 2.2c-.1.1-.1.2 0 .3l4.6 4.6c.1.1.2.1.3 0z"/><path d="m24.1 35.1-2.3-2.3-.1-.1s-.1 0-.1.1l-1.1 1.1-1.2 1.1-.1.1s0 .1.1.1l2.3 2.3z" fill="#333"/><path d="m25.8 37.4c.1-.1.1-.2 0-.3l-3.8-3.7c-.1-.1-.2 0-.3 0l-1.8 1.8c-.1.1-.1.2 0 .3l3.8 3.8c.1.1.2 0 .3 0z" fill="#333"/><path d="m23.9 35.3-1.9-1.9h-.1s-.1 0-.1.1l-1.8 1.8-.1.1v.1l1.9 1.9z"/><path d="m25.7 37.4c.1-.1.1-.2 0-.2l-3.7-3.7c-.1-.1-.2-.1-.2 0l-1.8 1.8c-.1.1-.1.2 0 .2l3.7 3.7c.1.1.2.1.2 0z"/><path d="m23.8 35.4-1.8-1.9h-.1-.1l-.9.9-.9.9v.1.1l1.8 1.8z" fill="#333"/><path d="m19.8 35.1c0-.1-.1-.2-.2-.2s-.2.1-.2.2.1.2.2.2.2-.1.2-.2z" fill="#808080"/><path d="m21.8 33.2c.1-.1.1-.2 0-.3s-.2-.1-.3 0-.1.2 0 .3.2.1.3 0z" fill="#808080"/><path d="m20.8 34.4c.1 0 .2-.1.2-.2s-.1-.2-.2-.2-.2.1-.2.2.1.2.2.2z" fill="#808080"/><path d="m26 37.4c.1-.1.2-.1.3 0s.1.2 0 .3-.2.1-.3 0-.1-.2 0-.3z" fill="#333"/><path d="m24.9 38.5c0-.1.1-.2.2-.2s.2.1.2.2-.1.2-.2.2c-.2-.1-.2-.1-.2-.2z" fill="#333"/><path d="m24.1 39.4c.1 0 .2.1.2.2s-.1.2-.2.2-.2-.1-.2-.2.1-.2.2-.2z" fill="#333"/><path d="m19.8 35.1h-.4z"/><path d="m21.8 33.2-.2-.3z"/><path d="m20.8 34.4v-.4.4c-.1-.1 0 0 0 0z"/><path d="m26 37.4.3.2z"/><path d="m24.9 38.5c0-.1 0-.1 0 0h.4z"/><path d="m24.1 39.4v.4z"/><path d="m23.9 39.1c-.1.1-.1.1-.2 0l-3.6-3.6c-.1-.1-.1-.1 0-.2l1.6-1.6c.1-.1.1-.1.2 0l3.6 3.6c.1.1.1.1 0 .2z" fill="#acacac"/><path d="m21.9 37.3-1.8-1.8v-.1-.1l.8-.8.8-.8h.1.1l1.8 1.8z" fill="#8a8a8a"/><path d="m23.9 38.8s-.1 0-.2 0l-3.3-3.3c-.1-.1-.1-.1 0-.2l1.4-1.4h.2l3.3 3.3c.1.1.1.1 0 .2z" fill="#c9c9c9"/><path d="m25.3 37.2-3.3-3.3c-.1-.1-.1-.1-.2 0l-.7.7v.2l3.3 3.3c.1.1.1.1.2 0l.7-.7c.1 0 .1-.1 0-.2z" fill="#fff"/><path d="m22 34.6c-.1 0-.2-.1-.2-.2s.1-.2.2-.2.2.1.2.2-.1.2-.2.2z" fill="#afafaf"/><path d="m22.4 35.1c-.1-.1-.1-.2 0-.3s.2-.1.3 0 .1.2 0 .3-.2.1-.3 0z" fill="#afafaf"/><path d="m25 37.4c-.1.1-.2.1-.3 0s-.1-.2 0-.3.2-.1.3 0z" fill="#afafaf"/><path d="m24.3 36.9c-.1 0-.2-.1-.2-.2s.1-.2.2-.2.2.1.2.2-.1.2-.2.2z" fill="#afafaf"/><path d="m23.5 36.2c0-.1.1-.2.2-.2s.2.1.2.2-.1.2-.2.2-.2-.1-.2-.2z" fill="#afafaf"/><path d="m23.1 35.8c-.1 0-.2-.1-.2-.2s.1-.2.2-.2.2.1.2.2-.1.2-.2.2z" fill="#afafaf"/><path d="m22 34.6v-.4z" fill="#8a8a8a"/><path d="m22.4 35.1.3-.3z" fill="#8a8a8a"/><path d="m24.9 37.4-.3-.3.3.3c.1 0 .1 0 0 0z" fill="#8a8a8a"/><path d="m24.3 36.9v-.4z" fill="#8a8a8a"/><path d="m23.5 36.2h.4z" fill="#8a8a8a"/><path d="m23.1 35.8v-.4z" fill="#8a8a8a"/><path d="m21.1 43.2c.1-.1.1-.2 0-.3l-4.7-4.7c-.1-.1-.2 0-.3 0l-2.3 2.3c-.1.1-.1.2 0 .3l4.7 4.7c.1.1.2 0 .3 0z" fill="#333"/><path d="m18.7 40.5-2.4-2.4s-.1 0-.2 0-.1 0-.2.1l-2.3 2.3s-.1.1-.1.2v.2l2.4 2.4z"/><path d="m20.9 43.2c.1-.1.1-.2 0-.3l-4.6-4.6c-.1-.1-.2-.1-.3 0l-2.2 2.2c-.1.1-.1.2 0 .3l4.6 4.6c.1.1.2.1.3 0z"/><path d="m18.6 40.6-2.3-2.3-.1-.1s-.1 0-.1.1l-1.1 1.1-1.1 1.1-.1.1s0 .1.1.1l2.3 2.3z" fill="#333"/><path d="m20.3 42.9c.1-.1.1-.2 0-.3l-3.8-3.8c-.1-.1-.2 0-.3 0l-1.8 1.8c-.1.1-.1.2 0 .3l3.8 3.8c.1.1.2 0 .3 0z" fill="#333"/><path d="m18.5 40.8-1.9-1.9h-.1s-.1 0-.1.1l-1.8 1.8-.1.1v.1l1.9 1.9z"/><path d="m20.2 42.9c.1-.1.1-.2 0-.2l-3.7-3.7c-.1-.1-.2-.1-.2 0l-1.7 1.7c-.1.1-.1.2 0 .2l3.7 3.7c.1.1.2.1.2 0z"/><path d="m18.4 40.8-1.9-1.8h-.1-.1l-.9.9-.9.9v.1.1l1.8 1.8z" fill="#333"/><path d="m14.3 40.6c0-.1-.1-.2-.2-.2s-.2.1-.2.2.1.2.2.2c.2 0 .2-.1.2-.2z" fill="#808080"/><path d="m16.3 38.7c.1-.1.1-.2 0-.3s-.2-.1-.3 0-.1.2 0 .3z" fill="#808080"/><path d="m15.3 39.8c.1 0 .2-.1.2-.2s-.1-.2-.2-.2-.2.1-.2.2.1.2.2.2z" fill="#808080"/><path d="m20.5 42.9c.1-.1.2-.1.3 0s.1.2 0 .3-.2.1-.3 0c0-.1 0-.2 0-.3z" fill="#333"/><path d="m19.4 43.9c0-.1.1-.2.2-.2s.2.1.2.2-.1.2-.2.2-.2-.1-.2-.2z" fill="#333"/><path d="m18.6 44.9c.1 0 .2.1.2.2s-.1.2-.2.2-.2-.1-.2-.2.1-.2.2-.2z" fill="#333"/><path d="m14.3 40.6h-.4z"/><path d="m16.3 38.7-.2-.3z"/><path d="m15.3 39.8v-.4z"/><path d="m20.5 42.9s.1 0 0 0l.3.2z"/><path d="m19.4 43.9h.4z"/><path d="m18.6 44.9v.4z"/><path d="m18.5 44.5c-.1.1-.1.1-.2 0l-3.6-3.5c-.1-.1-.1-.1 0-.2l1.6-1.6c.1-.1.1-.1.2 0l3.6 3.6c.1.1.1.1 0 .2z" fill="#acacac"/><path d="m16.5 42.7-1.8-1.7v-.1-.1l.8-.8.8-.8h.1.1l1.8 1.8z" fill="#8a8a8a"/><path d="m18.4 44.3s-.1 0-.2 0l-3.3-3.3c-.1-.1-.1-.1 0-.2l1.4-1.4h.2l3.3 3.3c.1.1.1.1 0 .2z" fill="#c9c9c9"/><path d="m19.9 42.7-3.3-3.3c-.1-.1-.1-.1-.2 0l-.7.6v.2l3.3 3.3c.1.1.1.1.2 0z" fill="#fff"/><path d="m16.5 40.1c-.1 0-.2-.1-.2-.2s.1-.2.2-.2.2.1.2.2-.1.2-.2.2z" fill="#afafaf"/><path d="m16.9 40.6c-.1-.1-.1-.2 0-.3s.2-.1.3 0 .1.2 0 .3-.2.1-.3 0z" fill="#afafaf"/><path d="m19.5 42.9c-.1.1-.2.1-.3 0s-.1-.2 0-.3.2-.1.3 0 .1.2 0 .3z" fill="#afafaf"/><path d="m18.8 42.4c-.1 0-.2-.1-.2-.2s.1-.2.2-.2.2.1.2.2-.1.2-.2.2z" fill="#afafaf"/><path d="m18.1 41.6c0-.1.1-.2.2-.2s.2.1.2.2-.1.2-.2.2c-.2 0-.2-.1-.2-.2z" fill="#afafaf"/><path d="m17.6 41.2c-.1 0-.2-.1-.2-.2s.1-.2.2-.2.2.1.2.2c0 .2 0 .2-.2.2z" fill="#afafaf"/><path d="m16.5 40.1v-.4z" fill="#8a8a8a"/><path d="m16.9 40.6.3-.3z" fill="#8a8a8a"/><path d="m19.5 42.9-.3-.3z" fill="#8a8a8a"/><path d="m18.8 42.4v-.4z" fill="#8a8a8a"/><path d="m18.1 41.6h.4z" fill="#8a8a8a"/><path d="m17.6 41.2v-.4.4c.1 0 .1 0 0 0z" fill="#8a8a8a"/><path d="m8.9 47.6h.1l37.5-36.7 2.7-3.8h-.1l-2.6 3.7z" fill="#666"/><path d="m9.5 48.1 37.4-36.8 4.6-6h-.1l-4.5 5.9z" fill="#666"/><path d="m10 48.6 37.3-36.9 6.1-8.5h-.1l-6.1 8.4z" fill="#666"/><path d="m11.6 50.3 36.8-37.5 4.9-3.6h-.1l-4.9 3.6z" fill="#666"/><path d="m11.1 49.8 36.9-37.3 7-5.6h-.1l-6.9 5.5-36.9 37.3z" fill="#666"/><path d="m10.6 49.2 37-37.1 9.4-7.3h-.1l-9.3 7.2z" fill="#666"/><path d="m8.9 47.5 37.6-36.6 2.6-3.8h-.1l-2.6 3.7z" fill="none" stroke="#ccc" stroke-miterlimit="10" stroke-width=".1"/><path d="m9.4 48.1h.1l37.4-36.9 4.5-5.9h-.1l-4.5 5.9z" fill="none" stroke="#ccc" stroke-miterlimit="10" stroke-width=".1"/><path d="m9.9 48.6h.1l37.3-37 6.1-8.4h-.1l-6.1 8.4z" fill="none" stroke="#ccc" stroke-miterlimit="10" stroke-width=".1"/><path d="m11.6 50.3 36.7-37.5 4.9-3.6h-.1l-4.8 3.5-36.7 37.5z" fill="none" stroke="#ccc" stroke-miterlimit="10" stroke-width=".1"/><path d="m11.1 49.8 36.9-37.4 6.9-5.6h-.1l-6.8 5.6-36.9 37.3z" fill="none" stroke="#ccc" stroke-miterlimit="10" stroke-width=".1"/><path d="m10.6 49.2 37-37.2 9.4-7.2h-.1l-9.3 7.2z" fill="none" stroke="#ccc" stroke-miterlimit="10" stroke-width=".1"/><path d="m51.4 5.3c-.1.1-.3.1-.4-.1 0-.1 0-.2.1-.3s.3-.1.4.1c0 0 0 .2-.1.3z" fill="#808080"/><path d="m49.1 7.1c-.1.1-.3.1-.4-.1-.1-.1-.1-.3.1-.4.1-.1.3-.1.4.1 0 .2 0 .3-.1.4z" fill="#808080"/><path d="m53.4 3.2c-.1.1-.3.1-.4-.1-.1-.1 0-.2.1-.3s.3-.1.4.1c0 .1 0 .2-.1.3z" fill="#808080"/><path d="m54.8 6.9c-.1.1 0 .3.1.4s.3.1.4-.1c.1-.1 0-.3-.1-.4s-.3-.1-.4.1z" fill="#808080"/><path d="m53.1 9.2c-.1.1 0 .3.1.4s.3.1.4-.1c.1-.1 0-.3-.1-.4-.2 0-.4 0-.4.1z" fill="#808080"/><path d="m56.8 4.8c-.1.1 0 .3.1.4s.3.1.4-.1c.1-.1 0-.3-.1-.4-.1 0-.3 0-.4.1z" fill="#808080"/></svg>