<svg enable-background="new 0 0 60 60" height="60" viewBox="0 0 60 60" width="60" xmlns="http://www.w3.org/2000/svg" xmlns:xlink="http://www.w3.org/1999/xlink"><linearGradient id="a"><stop offset=".033708" stop-color="#9a9a98"/><stop offset=".1168" stop-color="#a2a3a4"/><stop offset=".2191" stop-color="#afb1b8"/><stop offset=".3451" stop-color="#9ea2a9"/><stop offset=".5858" stop-color="#7a8289"/><stop offset=".7191" stop-color="#657177"/><stop offset="1" stop-color="#8b949b"/></linearGradient><linearGradient id="b" gradientTransform="matrix(.7203 .6936 -.6936 .7203 -546.3745 240.5454)" gradientUnits="userSpaceOnUse" x1="267.0243" x2="267.3138" xlink:href="#a" y1="-587.4081" y2="-587.4081"/><linearGradient id="c" gradientTransform="matrix(.7203 .6936 -.6936 .7203 -546.3745 240.5454)" gradientUnits="userSpaceOnUse" x1="267.011" x2="267.3007" xlink:href="#a" y1="-585.1483" y2="-585.1483"/><linearGradient id="d" gradientTransform="matrix(.7203 .6936 -.6936 .7203 -546.3745 240.5454)" gradientUnits="userSpaceOnUse" x1="267.0052" x2="267.295" xlink:href="#a" y1="-582.7765" y2="-582.7765"/><linearGradient id="e" gradientTransform="matrix(-.6936 -.7203 -.7203 .6936 915.6332 1702.5531)" gradientUnits="userSpaceOnUse" x1="1816.9125" x2="1817.202" xlink:href="#a" y1="-558.1749" y2="-558.1749"/><linearGradient id="f" gradientTransform="matrix(-.6936 -.7203 -.7203 .6936 915.6332 1702.5531)" gradientUnits="userSpaceOnUse" x1="1816.8992" x2="1817.189" xlink:href="#a" y1="-555.8764" y2="-555.8764"/><linearGradient id="g" gradientTransform="matrix(-.6936 -.7203 -.7203 .6936 915.6332 1702.5531)" gradientUnits="userSpaceOnUse" x1="1816.8936" x2="1817.1832" xlink:href="#a" y1="-553.5073" y2="-553.5073"/><path d="m5.9 54.8c-.1-.1-.3-.3-.4-.4-2-2.1-3.4-4.2-4.4-6.4-.8-2-1.2-4-1.1-5.9.2-2.5 1.3-4.7 3.3-6.2 2.8-2.1 5.7-2.7 8-3.1 1.9-.4 3.5-.7 4.6-1.7 1.3-1.2 1.8-2.3 2.3-3.3s1-1.9 2-2.9c1.1-.9 2.3-1.4 3.7-1.5 1.1-.1 2.3.2 3.5.7 2.1.8 3.6 2.2 3.6 2.2l2.5 2.5s1.4 1.6 2.2 3.6c.5 1.2.7 2.4.7 3.5-.1 1.4-.6 2.6-1.5 3.7-1 1.1-1.9 1.5-2.9 2s-2.1 1.1-3.3 2.3c-1.1 1.1-1.4 2.7-1.8 4.6-.5 2.3-1 5.1-3.1 7.9-1.6 2.1-3.9 3.3-6.6 3.5-3.8.3-7.8-1.5-11.3-5.1z" fill="#af8424"/><path d="m5.5 54.4c-2-2.1-3.4-4.2-4.4-6.4-.8-2-1.2-4-1.1-5.9.2-2.5 1.3-4.7 3.3-6.2 2.8-2.1 5.7-2.7 8-3.1 1.9-.4 3.5-.7 4.6-1.7 1.3-1.2 1.8-2.3 2.3-3.3s1-1.9 2-2.9c1.1-.9 2.3-1.4 3.7-1.5 1.1-.1 2.3.2 3.5.7 2.1.8 3.6 2.2 3.6 2.2l1.5 1.5c0-.1-27 26.6-27 26.6z" fill="#af8424"/><path d="m6.1 54.6c-.1-.1-.3-.3-.4-.4-1.9-2-3.4-4.1-4.3-6.3-.9-2-1.2-3.9-1.1-5.8.2-2.4 1.3-4.5 3.2-5.9 2.8-2.1 5.6-2.6 7.8-3.1 1.9-.4 3.6-.7 4.8-1.8 1.3-1.3 1.8-2.3 2.4-3.4.5-1 .9-1.9 2-2.8 1-.9 2.2-1.4 3.5-1.4 1-.1 2.2.2 3.3.6 2 .8 3.4 2 3.5 2.1l2.5 2.5c.1.1 1.3 1.6 2.1 3.5.5 1.2.7 2.3.6 3.3-.1 1.3-.5 2.4-1.4 3.5-1 1-1.9 1.5-2.8 2-1 .5-2.1 1.1-3.4 2.4-1.1 1.2-1.5 2.8-1.9 4.7-.4 2.2-1 5-3.1 7.8-1.5 2-3.8 3.2-6.4 3.4-3.5.3-7.4-1.5-10.9-4.9z" fill="#af8424"/><path d="m21.1 38.8c-1.8-1.8-1.8-4.6 0-6.4s4.6-1.8 6.3 0c1.8 1.8 1.8 4.6 0 6.4-1.7 1.8-4.6 1.8-6.3 0zm5.7-5.7c-1.4-1.4-3.7-1.4-5.1 0s-1.4 3.7 0 5.1 3.7 1.4 5.1 0 1.4-3.7 0-5.1z" fill="#d69929"/><path d="m21.7 38.2c-1.4-1.4-1.4-3.7 0-5.1s3.7-1.4 5.1 0l.6-.6c-1.8-1.7-4.6-1.7-6.3 0s-1.8 4.6 0 6.3z" fill="#e4b84d"/><path d="m27.4 32.5c1.7 1.7 1.7 4.5 0 6.3-1.7 1.7-4.5 1.7-6.3 0-1.7-1.7-1.7-4.5 0-6.3 1.8-1.7 4.6-1.7 6.3 0zm-5.7 5.7c1.4 1.4 3.7 1.4 5.1 0s1.4-3.7 0-5.1-3.7-1.4-5.1 0-1.4 3.7 0 5.1zm5.8-5.8c-1.8-1.8-4.7-1.8-6.4 0-1.8 1.8-1.8 4.7 0 6.4 1.8 1.8 4.7 1.8 6.4 0 1.7-1.7 1.7-4.6 0-6.4zm-5.7 5.7c-1.4-1.4-1.4-3.6 0-5s3.6-1.4 5 0 1.4 3.6 0 5-3.7 1.4-5 0z" fill="#e4b84d"/><path d="m21.7 33.1c-1.4 1.4-1.4 3.7 0 5.1l.1-.1c-1.4-1.4-1.4-3.6-.1-5 1.4-1.3 3.7-1.3 5.1.1l.1-.1c-1.5-1.5-3.8-1.5-5.2 0z" fill="#d69929"/><path d="m21.1 38.8c-1.7-1.7-1.7-4.5 0-6.3 1.7-1.7 4.5-1.7 6.3 0l.1-.1c-1.8-1.8-4.6-1.8-6.4 0s-1.8 4.7 0 6.4z" fill="#d69929"/><path d="m20.9 39c-1.9-1.9-1.9-4.9 0-6.8s4.9-1.9 6.8 0 1.9 4.9 0 6.8-4.9 1.9-6.8 0zm6.7-6.7c-1.8-1.8-4.8-1.8-6.7 0-1.8 1.8-1.8 4.8 0 6.7s4.8 1.8 6.7 0c1.9-1.9 1.9-4.9 0-6.7z" fill="#672222"/><path d="m20.9 38.9c-1.8-1.8-1.8-4.8 0-6.7 1.8-1.8 4.8-1.8 6.7 0l.1-.1c-1.9-1.9-4.9-1.9-6.8 0-1.9 2-1.9 5 0 6.8z" fill="#793c3c"/><path d="m27.6 35.9-3.4-3.6 24.4-23.2 2.3 2.3z" fill="#4b1212"/><path d="m25.9 34.1-1.7-1.8 12.2-11.6 12.2-11.6 1.2 1.2z" fill="#672222"/><path d="m26.6 38c-1.3 1.3-3.4 1.3-4.7 0s-1.3-3.4 0-4.7 3.4-1.3 4.7 0 1.3 3.4 0 4.7z" fill="#927449"/><path d="m26.6 33.3-.1-.1c1.2 1.3 1.1 3.3-.1 4.6-1.3 1.3-3.3 1.3-4.6.1l.1.1c1.3 1.3 3.4 1.3 4.7 0s1.3-3.4 0-4.7z" fill="#674118"/><path d="m9.1 41.1 1.6-1.6 9.7 9.7-1.6 1.6z" fill="#4b1212"/><path d="m18.8 50.8-4.9-4.9-4.8-4.8.7-.8 9.7 9.7z" fill="#2c1010"/><path d="m10.1 40.6c-.5.5-1 .5-1 .5l1.5-1.5c0-.1 0 .5-.5 1z" fill="#621b1b"/><path d="m19.2 49.8c-.5.5-.5 1-.5 1l1.5-1.5c.1-.1-.5-.1-1 .5z" fill="#621b1b"/><path d="m12.8 43.1.6-.6 4.2 4.2-.6.6z" fill="#7a2017"/><path d="m13.1 42.9.1-.1 4 4-.1.1z" fill="#e6e6e5"/><path d="m53.9 2.3c-.4.4-.5.5-.5.5-.1.1-.1.1-.2 0l-.1-.1s0-.1 0-.2c0 0 .1-.1.5-.6.4-.4.5-.5.5-.5.1-.1.1-.1.2 0l.1.1v.2c0 .1-.1.3-.5.6z" fill="#cfcfcf"/><path d="m58.1 6.5c-.4.3-.6.4-.6.4-.1 0-.1 0-.2 0l-.1-.1c0-.1 0-.1.1-.2 0 0 .1-.1.6-.4s.6-.4.6-.4h.2l.1.1c0 .1 0 .1-.1.2 0 0-.2.1-.6.4z" fill="#cfcfcf"/><path d="m56.4 8.1c-.4.4-.5.5-.5.5-.1.1-.1.1-.2 0l-.1-.1s0-.1 0-.2c0 0 .1-.1.5-.6.4-.4.5-.5.5-.5.1-.1.1-.1.2 0l.2.1v.2c-.1 0-.2.2-.6.6z" fill="#cfcfcf"/><path d="m54.8 9.7c-.3.4-.4.6-.4.6 0 .1-.1.1-.2.1l-.1-.1c-.1 0-.1-.1 0-.2 0 0 .1-.2.3-.7.3-.5.4-.6.4-.6 0-.1.1-.1.2-.1l.1.1c.1 0 .1.1 0 .2.1 0 0 .2-.3.7z" fill="#cfcfcf"/><path d="m52.3 4c-.5.2-.7.3-.7.3-.1 0-.1 0-.2 0l-.1-.1c0-.1 0-.1.1-.2 0 0 .1-.1.6-.4s.7-.3.7-.3h.2l.1.1c0 .1 0 .1-.1.2 0 0-.2.1-.6.4z" fill="#cfcfcf"/><path d="m50.7 5.6c-.3.4-.4.6-.4.6 0 .1-.1.1-.2.1l-.1-.1c0-.1-.1-.2 0-.2 0 0 .1-.2.4-.6.3-.5.4-.6.4-.6 0-.1.1-.1.2-.1l.1.1c.1 0 .1.1 0 .2 0 0-.1.2-.4.6z" fill="#cfcfcf"/><path d="m57.6 1.3c.2 0 .5.2.7.4s.4.5.4.7c.1 0 .2 0 .3-.1.2-.2.1-.7-.3-1.1s-.9-.5-1.1-.3z" fill="#672222"/><path d="m57.6 1.3c.2 0 .5.2.7.4l.4-.4c-.4-.4-.9-.5-1.1-.3z" fill="#4b1212"/><path d="m50.7 8.6.8-.8c-.2.2-.6.2-.8 0s-.2-.5-.1-.7l-.7.8c-.2.2-.2.6 0 .8.2.1.6.1.8-.1z" fill="#4b1212"/><path d="m54.7 2.7c.2-.2.5-.1.7 0 .2.2.2.6 0 .9l.3-.3c.2-.2.2-.6 0-.8s-.6-.2-.9.1z" fill="#4b1212"/><path d="m51.5 9.4.8-.8c-.2.2-.2.6 0 .8s.5.2.7.1l-.8.7c-.2.2-.6.2-.8 0-.1-.2-.1-.6.1-.8z" fill="#672222"/><path d="m57.4 5.3c.2-.2.1-.5 0-.7-.2-.2-.6-.2-.8 0l.3-.3c.2-.2.6-.2.8 0s.2.6-.1.8z" fill="#672222"/><path d="m54.7 4.3-.8-.8.4-.4.8.8z" fill="#c8c7c6"/><path d="m53.1 6-.8-.8.5-.5.8.8z" fill="#c8c7c6"/><path d="m51.5 7.7-.8-.8.5-.5.8.8z" fill="#c8c7c6"/><path d="m55.7 5.4.8.8.5-.5-.8-.7z" fill="#c8c7c6"/><path d="m54.1 6.9.8.8.4-.4-.8-.8z" fill="#c8c7c6"/><path d="m52.4 8.5.8.8.5-.4-.8-.8z" fill="#c8c7c6"/><path d="m54.7 4.3-.4-.4-.4-.4.2-.2.8.8z" fill="#989898"/><path d="m53.1 6-.4-.4-.4-.4.3-.2.7.8z" fill="#989898"/><path d="m51.5 7.7-.4-.4-.4-.4.3-.3.7.8z" fill="#989898"/><path d="m55.7 5.4.4.4.4.4.3-.2-.8-.8z" fill="#989898"/><path d="m54.1 6.9.4.4.4.4.2-.2-.8-.8z" fill="#989898"/><path d="m52.4 8.5.4.4.4.4.2-.2-.8-.8z" fill="#989898"/><path d="m53.3 3.1-.2-.2.6-.5.2.2z" fill="url(#b)"/><path d="m51.8 4.7-.3-.2.6-.5.2.2z" fill="url(#c)"/><path d="m50.1 6.4-.2-.2.5-.5.2.2z" fill="url(#d)"/><path d="m57 6.7.2.2.5-.5-.2-.2z" fill="url(#e)"/><path d="m55.3 8.3.2.2.6-.5-.2-.2z" fill="url(#f)"/><path d="m53.6 10 .2.2.6-.6-.2-.2z" fill="url(#g)"/><g fill="#676767"><path d="m53.1 2.9.2.1z"/><path d="m53.2 2.8.2.1-.1.1z"/><path d="m53.3 2.7.2.1-.1.1z"/><path d="m53.3 2.7.2.1-.1.1z"/><path d="m53.4 2.6.2.1-.1.1z"/><path d="m53.5 2.5.2.1-.1.1z"/><path d="m53.6 2.4.2.1-.1.1z"/><path d="m53.6 2.4.2.1-.1.1z"/><path d="m51.7 4.7-.1-.2.2.1z"/><path d="m51.6 4.5.2.1-.1.1z"/><path d="m51.7 4.3.2.1-.1.1z"/><path d="m51.7 4.3.2.1-.1.1z"/><path d="m51.8 4.2.2.1-.1.1z"/><path d="m51.9 4.1.2.1-.1.1z"/><path d="m52.2 4.2-.2-.1v-.1z"/><path d="m52 4 .2.1-.1.1z"/><path d="m49.9 6.2.2.1h-.1z"/><path d="m50 6.1.2.1-.1.1z"/><path d="m50 6.1.2.1-.1.1z"/><path d="m50.1 6h.2l-.1.1z"/><path d="m50.2 5.9.2.1h-.1z"/><path d="m50.3 5.9.2.1h-.1z"/><path d="m50.3 5.8.2.1-.1.1z"/><path d="m50.4 5.7.2.1-.1.1z"/><path d="m57 6.8.2.1-.1.1z"/><path d="m57.1 6.6.2.1-.1.1z"/><path d="m57.1 6.6.2.1-.1.1z"/><path d="m57.2 6.6.2.1-.1.1z"/><path d="m57.3 6.5.2.1-.1.1z"/><path d="m57.4 6.3.2.1-.1.1z"/><path d="m57.5 6.4.2.1-.1.1z"/><path d="m57.5 6.3.2.1-.1.1z"/><path d="m55.4 8.3.2.1-.1.1z"/><path d="m55.5 8.3.1.1h.1z"/><path d="m55.5 8.2.2.1-.1.1z"/><path d="m55.6 8.1.2.1-.1.1z"/><path d="m55.7 8 .2.1-.1.1z"/><path d="m55.7 8 .2.1-.1.1z"/><path d="m55.8 7.9.2.1h-.1z"/><path d="m55.9 7.8.2.1v.1z"/><path d="m53.7 10 .2.2v-.1l-.2-.2z"/><path d="m53.8 9.9.1.2.1-.1z"/><path d="m53.8 9.9.2.1z"/><path d="m53.9 9.8.2.1-.1.1z"/><path d="m54 9.7.2.2v-.1z"/><path d="m54.1 9.7.2.1-.1.1z"/><path d="m54.1 9.6.2.1-.1.1z"/><path d="m54.2 9.5.2.1-.1.1z"/></g><path d="m54.1 2.2c0-.1-.1-.1 0 0-.1-.1-.1-.2-.2-.2-.1-.1-.2-.1-.3 0s-.1.1-.1.2c0 0 .1.1.1 0s.1-.3.3-.2l-.2.3-.1.1v.1l.1.1h.1l.3-.4c.1.1.1 0 0 0z" fill="#989898"/><path d="m52.6 3.8c-.1-.1-.1-.1 0 0-.1-.1-.1-.2-.2-.2-.1-.1-.2-.1-.3 0s-.2.2-.1.2c0 0 .1.1.1 0s.1-.3.3-.2l-.2.3-.1.1v.1l.1.1h.1z" fill="#989898"/><path d="m50.9 5.5c-.1-.1-.1-.1 0 0-.1-.1-.1-.2-.2-.2-.1-.1-.2-.1-.3 0s-.1.1-.1.2c0 0 .1.1.1 0s.1-.3.3-.2l-.2.3-.1.1v.1l.1.2h.1z" fill="#989898"/><path d="m57.9 5.9c.1.1.1.1 0 .2 0 0 .1 0 .1.1.1.1.1.2 0 .3s-.1.1-.2.1c0 0-.1-.1 0-.1s.3-.1.2-.3l-.3.2-.1.1h-.1l-.1-.1v-.1l.5-.4c-.1 0 0 0 0 0z" fill="#989898"/><path d="m56.2 7.5c.1.1.1.1 0 0 .1.1.2.1.2.2.1.1.1.2 0 .3s-.1.1-.2.1c0 0-.1-.1 0-.1s.3-.1.2-.3l-.3.2c-.1 0-.1.1-.1.1h-.1l-.1-.1v-.1z" fill="#989898"/><path d="m54.5 9.2c.1.1.1.1.1.1s.1 0 .1.1c.1.1.1.2 0 .3s-.1.1-.2.1c0 0-.1-.1 0-.1s.3-.1.2-.3l-.3.2-.1.1h-.1l-.1-.1v-.1l.4-.3c0-.1 0-.1 0 0z" fill="#989898"/><path d="m53.9 2.3c-.1.1-.2.1-.2 0-.1-.1-.1-.2 0-.2 0-.1.1-.1.2-.1.1.1.1.2 0 .3z" fill="#e6e6e5"/><path d="m52.3 3.9c-.1.1-.2.1-.2 0-.1-.1-.1-.2 0-.2.1-.1.2-.1.2 0 .1 0 .1.1 0 .2z" fill="#e6e6e5"/><path d="m50.7 5.6c-.1.1-.2.1-.2 0-.1-.1-.1-.2 0-.2.1-.1.2-.1.2 0z" fill="#e6e6e5"/><path d="m57.8 6.2c-.1.1-.1.2 0 .2.1.1.2.1.2 0 .1-.1.1-.2 0-.2 0-.1-.1-.1-.2 0z" fill="#e6e6e5"/><path d="m56.2 7.8c-.1.1-.1.2 0 .2.1.1.2.1.2 0 .1-.1.1-.2 0-.2-.1-.1-.2-.1-.2 0z" fill="#e6e6e5"/><path d="m54.5 9.4c-.1.1-.1.2 0 .2.1.1.2.1.2 0 .1-.1.1-.2 0-.2-.1-.1-.2-.1-.2 0z" fill="#e6e6e5"/><path d="m48.6 9.1.3-.3 2.3 2.3-.3.3z" fill="#e6e6e5"/><path d="m48.6 9.2.1-.2 2.3 2.3-.1.1z" fill="#989898"/><path d="m59.2 4.2c0-.1.3-.2.5-.3.1-.1.3-.2.3-.2s-.2-.3-.3-.7-.1-.6-.2-1-.3-.7-.3-.7-.2 0-.4-.2c-.1-.1-.2-.4-.2-.4s-.3-.2-.7-.3-.6-.1-1-.2-.7-.3-.7-.3-.1.2-.2.4-.2.4-.3.5c-.2.1-.4 0-.4 0l-6.3 6.5s.2.4.1.8-.4.7-.4.7l2.3 2.3s.3-.2.7-.4c.4-.1.8.1.8.1l6.5-6.3c.2.1.1-.1.2-.3zm-9.3 4.4c-.2-.2-.2-.6 0-.8l5-5.3c.2-.2.6-.2.8 0s.2.6 0 .8l-5 5.3c-.2.2-.6.2-.8 0zm7.8-7.6c.2-.2.6 0 1 .3.4.4.5.8.3 1s-.6 0-1-.3c-.3-.3-.5-.8-.3-1zm-.1 4.2-5.3 5c-.2.2-.6.2-.8 0s-.2-.6 0-.8l5.3-5c.2-.2.6-.2.8 0s.2.6 0 .8z" fill="#4b1212"/><path d="m49.3 13.1-2.4-2.3.1-.1 2.4 2.3z"/><path d="m47.6 14.9-2.4-2.5.1-.1 2.4 2.5z"/><path d="m46.2 16.4-2.6-2.5.1-.1 2.5 2.5z"/><path d="m44.7 17.9-2.6-2.6h.1l2.6 2.5z"/><path d="m43.3 19.4-2.7-2.6.1-.1 2.7 2.6z"/><path d="m42 20.8-2.7-2.8h.1z"/><path d="m40.7 22.1-2.8-2.8.1-.1 2.8 2.8z"/><path d="m39.5 23.3-2.8-2.8.1-.1 2.8 2.8z"/><path d="m38.4 24.5-2.9-2.9.1-.1 2.9 2.9z"/><path d="m37.4 25.6-3-3 .1-.1 3 3z"/><path d="m36.4 26.6-3-3 .1-.1 3 3z"/><path d="m35.5 27.6-3.1-3.1.1-.1 3.1 3.1z"/><path d="m34.6 28.5-3.1-3.1.1-.1 3.1 3.1z"/><path d="m33.7 29.4-3.1-3.1.1-.1 3.1 3.1z"/><path d="m32.9 30.3-3.2-3.2.1-.1 3.2 3.2z"/><path d="m32.1 31.1-3.2-3.2.1-.1 3.2 3.2z"/><path d="m31.4 31.9-3.3-3.3.1-.1 3.3 3.3z"/><path d="m30.6 32.7-3.3-3.3.1-.1 3.3 3.3z"/><path d="m29.9 33.4-3.3-3.3.1-.1 3.3 3.3z"/><path d="m29.1 34.2-3.3-3.3v-.1l3.4 3.3z"/><path d="m28.5 34.9-3.4-3.4v-.1z"/><path d="m49.3 13.1-2.3-2.4.1-.1 2.3 2.4z" fill="none" stroke="#e6e6e5" stroke-miterlimit="10" stroke-width=".12"/><path d="m47.7 14.8-2.5-2.4.1-.1 2.5 2.4z" fill="none" stroke="#e6e6e5" stroke-miterlimit="10" stroke-width=".12"/><path d="m46.2 16.4-2.5-2.5.1-.1 2.5 2.5z" fill="none" stroke="#e6e6e5" stroke-miterlimit="10" stroke-width=".12"/><path d="m44.7 17.9-2.5-2.6v-.1l2.6 2.6z" fill="none" stroke="#e6e6e5" stroke-miterlimit="10" stroke-width=".12"/><path d="m43.3 19.4-2.6-2.7v-.1l2.7 2.7z" fill="none" stroke="#e6e6e5" stroke-miterlimit="10" stroke-width=".12"/><path d="m42 20.7-2.7-2.7.1-.1 2.7 2.7z" fill="none" stroke="#e6e6e5" stroke-miterlimit="10" stroke-width=".12"/><path d="m40.8 22-2.8-2.8h.1z" fill="none" stroke="#e6e6e5" stroke-miterlimit="10" stroke-width=".12"/><path d="m39.6 23.3-2.9-2.9h.1l2.9 2.8z" fill="none" stroke="#e6e6e5" stroke-miterlimit="10" stroke-width=".12"/><path d="m38.4 24.5-2.8-2.9v-.1l2.9 2.9z" fill="none" stroke="#e6e6e5" stroke-miterlimit="10" stroke-width=".12"/><path d="m37.4 25.5-2.9-2.9.1-.1 2.9 2.9z" fill="none" stroke="#e6e6e5" stroke-miterlimit="10" stroke-width=".12"/><path d="m36.4 26.6-3-3 .1-.1 3 3z" fill="none" stroke="#e6e6e5" stroke-miterlimit="10" stroke-width=".12"/><path d="m35.5 27.5-3-3 .1-.1 3 3z" fill="none" stroke="#e6e6e5" stroke-miterlimit="10" stroke-width=".12"/><path d="m34.6 28.5-3.1-3.1.1-.1 3.1 3.1z" fill="none" stroke="#e6e6e5" stroke-miterlimit="10" stroke-width=".12"/><path d="m33.8 29.4-3.2-3.2.1-.1 3.2 3.2z" fill="none" stroke="#e6e6e5" stroke-miterlimit="10" stroke-width=".12"/><path d="m32.9 30.2-3.1-3.1v-.1l3.2 3.1z" fill="none" stroke="#e6e6e5" stroke-miterlimit="10" stroke-width=".12"/><path d="m32.2 31-3.3-3.2.1-.1 3.3 3.2z" fill="none" stroke="#e6e6e5" stroke-miterlimit="10" stroke-width=".12"/><path d="m31.4 31.8-3.2-3.2.1-.1 3.2 3.2z" fill="none" stroke="#e6e6e5" stroke-miterlimit="10" stroke-width=".12"/><path d="m30.7 32.6-3.3-3.3v-.1z" fill="none" stroke="#e6e6e5" stroke-miterlimit="10" stroke-width=".12"/><path d="m30 33.4-3.4-3.4.1-.1z" fill="none" stroke="#e6e6e5" stroke-miterlimit="10" stroke-width=".12"/><path d="m29.2 34.2-3.4-3.4.1-.1 3.4 3.4z" fill="none" stroke="#e6e6e5" stroke-miterlimit="10" stroke-width=".12"/><path d="m28.5 34.9-3.4-3.4.1-.1 3.4 3.4z" fill="none" stroke="#e6e6e5" stroke-miterlimit="10" stroke-width=".12"/><path d="m49 9.1-36.2 34.9 36.2-34.9 2.3-2.6z" fill="none" stroke="#e6e6e5" stroke-miterlimit="10" stroke-width=".12"/><path d="m49.4 9.5-35.9 35.2 35.9-35.2 3.5-4.6h.1z" fill="none" stroke="#e6e6e5" stroke-miterlimit="10" stroke-width=".12"/><path d="m49.8 9.9-35.7 35.4 35.7-35.4 4.7-6.6.1.1z" fill="none" stroke="#e6e6e5" stroke-miterlimit="10" stroke-width=".12"/><path d="m51 11.2-35 35.9 35-35.9 2.6-2.3v-.1z" fill="none" stroke="#e6e6e5" stroke-miterlimit="10" stroke-width=".12"/><path d="m50.6 10.8-35.2 35.6 35.2-35.6 4.6-3.5-.1-.1z" fill="none" stroke="#e6e6e5" stroke-miterlimit="10" stroke-width=".12"/><path d="m50.2 10.3-35.5 35.6 35.5-35.6 6.6-4.8-.1-.1z" fill="none" stroke="#e6e6e5" stroke-miterlimit="10" stroke-width=".12"/><path d="m11.9 44.1.6-.6 4.2 4.2-.6.6z" fill="#7a2017"/><path d="m16 48.2-2.1-2.1-2.1-2.1.4-.3 4.1 4.2z" fill="#4b1212"/><path d="m12.3 44.3.6-.6c.1-.1.1-.1.2 0s.1.1 0 .2l-.6.6c-.1.1-.1.1-.2 0-.1 0-.1-.1 0-.2zm.6-.4-.6.6v.1h.1l.5-.7c.1 0 .1 0 0 0 0-.1 0-.1 0 0z" fill="#e6e6e5"/><path d="m12.9 45 .6-.6c.1-.1.1-.1.2 0s.1.1 0 .2l-.6.6c-.1.1-.1.1-.2 0 0-.1 0-.1 0-.2zm.6-.5-.5.6v.1h.1l.4-.7c.1.1.1 0 0 0z" fill="#e6e6e5"/><path d="m13.5 45.6.6-.6c.1-.1.1-.1.2 0s.1.1 0 .2l-.6.6c-.1.1-.1.1-.2 0s0-.1 0-.2zm.6-.5-.6.6v.1h.1l.5-.7c.1.1.1 0 0 0 .1 0 .1 0 0 0z" fill="#e6e6e5"/><path d="m14.2 46.3.6-.6c.1-.1.1-.1.2 0s.1.1 0 .2l-.6.6c-.1.1-.1.1-.2 0s-.1-.2 0-.2zm.6-.5-.6.6v.1h.1l.5-.7c.1 0 .1 0 0 0z" fill="#e6e6e5"/><path d="m14.8 46.9.6-.6c.1-.1.1-.1.2 0s.1.1 0 .2l-.6.6c-.1.1-.1.1-.2 0s-.1-.2 0-.2zm.6-.5-.6.6v.1h.1l.5-.7c.1 0 .1 0 0 0z" fill="#e6e6e5"/><path d="m15.4 47.5.6-.6c.1-.1.1-.1.2 0s.1.1 0 .2l-.6.6c-.1.1-.1.1-.2 0s-.1-.2 0-.2zm.6-.5-.6.6v.1h.1l.5-.7c.1.1.1 0 0 0z" fill="#e6e6e5"/><path d="m56 5.7c-.1-.1-.1-.1 0 0l.4-.5h.1v.1z" fill="#e6e6e5"/><path d="m56.1 5.7s-.1.1 0 0c-.1 0-.1 0 0 0l.4-.5h.1v.1z" fill="#e6e6e5"/><path d="m56.2 5.8c0 .1-.1.1 0 0-.1 0-.1 0 0 0l.4-.5h.1v.1z" fill="#e6e6e5"/><path d="m54 3.6c-.1 0-.1 0 0 0l.4-.5h.1v.1z" fill="#e6e6e5"/><path d="m54.1 3.7s-.1.1 0 0c-.1 0-.1 0 0 0l.4-.5h.1v.1z" fill="#e6e6e5"/><path d="m54.2 3.8c0 .1-.1.1 0 0-.1 0-.1 0 0 0l.4-.5h.1v.1z" fill="#e6e6e5"/><path d="m52.6 5.4c-.1 0-.1 0 0 0l.4-.5h.1v.1z" fill="#e6e6e5"/><path d="m52.6 5.5c-.1 0-.1-.1 0 0l.4-.5h.1v.1z" fill="#e6e6e5"/><path d="m52.7 5.6.4-.5h.1v.1z" fill="#e6e6e5"/><path d="m54.6 7.4c-.1 0-.1 0 0 0l.4-.5h.1v.1z" fill="#e6e6e5"/><path d="m54.7 7.5c-.1 0-.1 0 0 0l.3-.5h.1v.1z" fill="#e6e6e5"/><path d="m54.7 7.6.4-.5h.1v.1z" fill="#e6e6e5"/><path d="m52.9 9c0 .1 0 .1 0 0-.1 0-.1 0 0 0l.4-.5h.1v.1z" fill="#e6e6e5"/><path d="m53.1 9.2c-.1 0-.1-.1 0 0l.4-.5h.1v.1z" fill="#e6e6e5"/><path d="m52.8 8.9c0 .1 0 .1 0 0-.1 0-.1 0 0 0l.4-.5h.1v.1z" fill="#e6e6e5"/><path d="m50.9 7c-.1 0-.1 0 0 0l.4-.5h.1v.1z" fill="#e6e6e5"/><path d="m51 7.1c-.1 0-.1 0 0 0l.4-.5h.1v.1z" fill="#e6e6e5"/><path d="m51.2 7.3c-.1 0-.1-.1 0 0l.4-.5h.1v.1z" fill="#e6e6e5"/></svg>