<svg enable-background="new 0 0 60 60" height="60" viewBox="0 0 60 60" width="60" xmlns="http://www.w3.org/2000/svg"><path d="m45.7 27h1.1v5.4h-1.1z" fill="#424143"/><path d="m13.2 27h1.1v5.4h-1.1z" fill="#424143"/><path d="m45 1.1c-.2-.6-1-1.1-1.6-1.1h-26.9c-.7 0-1.4.5-1.6 1.1l-.2.5c-.2.6-.4 1.6-.4 2.3l-.1 51.3c0 .6.3 1.6.8 2.1l1.3 1.4c.4.5 1.3.9 2 .9l10.5.4h2.4l10.6-.3c.6 0 1.5-.4 2-.9l1.3-1.4c.4-.5.8-1.4.8-2.1l-.2-51.4c0-.6-.2-1.7-.4-2.3z" fill="#ff5a00"/><path d="m15.8 55v-27s-.8-1-.8-2.4c0-1.2-.1-19.2-.1-24.4l-.2.4c-.2.6-.4 1.6-.4 2.3l-.1 51.3c0 .6.3 1.6.8 2.1l1.3 1.4c.2.2.4.4.7.5z" fill="#494949"/><path d="m44.2 55v-27s.8-1 .8-2.4c0-1.2.1-19.2.1-24.4l.2.4c.2.6.4 1.6.4 2.3l.1 51.3c0 .6-.3 1.6-.8 2.1l-1.3 1.4c-.2.2-.4.4-.7.5z" fill="#494949"/><path d="m44.2 24.6c0 .5-.4.9-.9.9h-26.7c-.5 0-.9-.4-.9-.9v-22.1c0-.5.4-.9.9-.9h26.7c.5 0 .9.4.9.9z" fill="#52524b"/><g fill="#e8e8e3"><path d="m28.8 3.8h-.1-.1v-.8h.1.1.1.1.1c-.1 0-.1 0-.1 0s.1 0 .1.1v.1.1s0 0-.1.1c0 0 .1 0 .1.1v.1c0 .1 0 .1-.1.2 0 0-.1 0-.2 0zm-.1-.5h.2s0 0 0-.1v-.1h-.1s0 0-.1 0zm0 .1v.2h.1.1s0 0 0-.1v-.1h-.1z"/><path d="m29.8 3.5c0 .1 0 .2-.1.2 0 0-.1 0-.1.1h-.1-.1s-.1 0-.1-.1c0 0 0-.1-.1-.1v-.1-.1s0-.1.1-.1c0 0 .1 0 .1-.1h.1.1s.1 0 .1.1c0 0 0 .1.1.2zm-.1 0c0-.1 0-.1 0 0l-.1-.1h-.1v.1.1l.1.1s.1 0 .1-.2z"/><path d="m30.5 3.5c0 .1 0 .2-.1.2 0 0-.1 0-.1.1h-.1-.1s-.1 0-.1-.1c0 0 0-.1-.1-.1v-.1-.1s0-.1.1-.1c0 0 .1 0 .1-.1h.1.1s.1 0 .1.1c0 0 0 .1.1.2zm-.2 0c0-.1 0-.1 0 0l-.1-.1h-.1v.1.1l.1.1s.1 0 .1-.2z"/><path d="m30.8 3.7c.1 0 .1 0 .1-.1s0 0-.1.1c0-.1 0-.1-.1-.1 0 0 0 0-.1 0s0 0 0-.1 0-.1.1-.1h.2.1.1v.1s0 0-.1 0c0 0 0 0-.1 0 0 0 0 0-.1 0h.1.1v.1c0 .1 0 .1-.1.1 0 0-.1 0-.2 0s-.1 0-.1 0h-.1v-.1c.1.1.1.1.3.1-.1 0-.1 0 0 0z"/><path d="m31.1 3h.1v.2h.2v.1h-.2v.2.1h.1.1v.1s0 0-.1 0h-.1-.1s0 0-.1 0c0 0 0 0 0-.1v-.1-.5z"/><path d="m29.3 4.2s0 .1.1.1c0 0 0 .1.1.1 0 0 0 .1.1.1 0 0 0 .1.1.1 0 0 0-.1.1-.1 0 0 0-.1.1-.1 0 0 0-.1.1-.1 0 0 0-.1.1-.1h.1v.2.2.2.2h-.1c0-.1 0-.2 0-.3s0-.2 0-.3v.1.1.1.1.1.1h-.1s0 0 0-.1c0 0 0 0 0-.1v-.1-.1-.1s0 0 0-.1v.3.3h-.1c0-.1 0-.1 0-.2s0-.1 0-.2 0-.1 0-.2 0-.1 0-.2z"/><path d="m30.3 4.2c-.1.1-.1.1 0 0-.1.1-.1.1-.1.1s0 0 0-.1c0 0 0 0 0-.1-.1 0 0 0 .1.1-.1-.1-.1-.1 0 0 0-.1 0 0 0 0zm-.1.7h-.1v-.6h.1z"/><path d="m30.6 4.5.1-.2h.1l-.2.2c.1.1.1.2.2.3 0 .1.1.1.1.1h-.1s0 0 0-.1c0 0 0 0 0-.1s-.1.1-.1.1 0 .1-.1.1h-.1s0 0 0-.1c0 0 0 0 .1-.1 0 0 0-.1.1-.1 0 0 0 0 .1-.1l-.2-.3h.1z"/><path d="m29.4 5.7v.2s0 .1-.1.1l-.1.1c-.1 0-.1 0-.2 0h-.1-.1v-.8h.1.1.2c.1 0 .1 0 .1.1l.1.1c-.1.1 0 .1 0 .2zm-.6.3c.1 0 .1 0 0 0 .2 0 .2 0 .3-.1 0 0 .1-.1.1-.2s0-.2-.1-.2c0 0-.1-.1-.2-.1h-.1z"/><path d="m29.8 5.6c-.1 0-.1 0-.1 0v.5h-.1v-.6h.1z"/><path d="m30.1 5.3s0 .1 0 0c0 .1-.1.1 0 0-.1.1-.1.1-.1.1s0 0 0-.1c0 0 0 0 0-.1 0 0 0 0 .1.1-.1-.1 0-.1 0 0zm0 .8h-.1v-.6h.1z"/><path d="m30.4 6.1c0-.1-.1-.2-.1-.3s-.1-.2-.1-.3h.1v.1.1.1.1-.1-.1-.1-.1h.1c0 .1-.1.2-.1.3s-.1.2-.1.3z"/><path d="m30.8 5.8c0-.1 0-.1 0 0 0-.1 0-.2.1-.2 0 0 .1 0 .1-.1h.1c.1 0 .1 0 .2.1 0 0 .1.1.1.2h-.4v.1h.1.1.1v.1s0 0-.1 0c0 0 0 0-.1 0s-.1 0-.1 0-.1 0-.1-.1c0 0 0-.1-.1-.1zm.4-.1s-.1-.1 0 0c0-.1-.1-.1-.1-.1s0 0-.1 0c0 0 0 0-.1 0s0 0 0 0z"/><path d="m29 6.4 1 1 1-1z"/><path d="m20.9 13.1c-.1 0-.1 0-.2 0s-.1 0-.1 0v-1h.1.1.1.1.2.1s.1 0 .1.1v.1.1l-.1.1c.1 0 .1 0 .1.1v.1c0 .1 0 .2-.1.2-.1.2-.2.2-.4.2zm-.1-.6h.1.2l.1-.1s0-.1-.1-.1c0 0-.1 0-.2 0h-.1s0 0-.1 0v.2zm0 .1v.3h.1.1.1.1.1s0 0 0-.1 0-.1-.1-.1c0 0-.1 0-.2 0z"/><path d="m22.2 12.7v.2s0 .1-.1.1l-.1.1h-.1c-.1 0-.1 0-.1 0s-.1 0-.1-.1l-.1-.1s0-.1 0-.2 0-.1 0-.2c0 0 0-.1.1-.1l.1-.1h.1.1s.1 0 .1.1l.1.1zm-.2 0c0-.1 0-.1 0-.2l-.1-.1c-.1 0-.1 0-.1.1v.2.2l.1.1c.1 0 .1 0 .1-.1s0-.1 0-.2z"/><path d="m23.1 12.7v.2s0 .1-.1.1l-.1.1h-.1c-.1 0-.1 0-.1 0s-.1 0-.1-.1l-.1-.1s0-.1 0-.2 0-.1 0-.2c0 0 0-.1.1-.1l.1-.1h.1.1s.1 0 .1.1l.1.1zm-.2 0c0-.1 0-.1 0-.2l-.1-.1c-.1 0-.1 0-.1.1v.2.2l.1.1c.1 0 .1 0 .1-.1s0-.1 0-.2z"/><path d="m23.4 13c.1 0 .1 0 0 0 .1 0 .1 0 .1-.1 0 0 0 0 0-.1 0 0-.1 0-.1-.1h-.1s0 0-.1 0c0 0 0 0 0-.1v-.1c0-.1 0-.1.1-.2.1 0 .1-.1.2-.1h.1.1v.1s0 0-.1 0h-.1-.1v.1h.1.1.1v.1.1c0 .1 0 .1-.1.2-.1 0-.1.1-.2.1s-.1 0-.2 0h-.1v-.1h.1c.2.2.2.2.2.2z"/><path d="m23.9 12.1h.2v.2h.3v.1h-.3v.3.1h.1.1.1v.1s0 0-.1 0h-.1c-.1 0-.1 0-.1 0s-.1 0-.1-.1v-.1-.1-.5z"/><path d="m21.6 23.9v.2h-.3v.8h-.2v-.8h-.3v-.2z"/><path d="m22.4 24.5v.2s0 .1-.1.1l-.1.1h-.1c-.1 0-.1 0-.1 0s-.1 0-.1-.1l-.1-.1s0-.1 0-.2 0-.1 0-.2c0 0 0-.1.1-.1l.1-.1h.1.1s.1 0 .1.1l.1.1c-.1.1 0 .2 0 .2zm-.2 0c0-.1 0-.1 0-.2l-.1-.1c-.1 0-.1 0-.1.1v.2.2l.1.1c.1 0 .1 0 .1-.1 0 0 0-.1 0-.2z"/><path d="m22.5 24.2h.1.2.2s.1 0 .1.1c0 0 0 .1.1.1v.1.4h-.2v-.4-.1-.1s0 0-.1 0c0 0 0 0-.1 0 0 0 0 0-.1 0v.6h-.2z"/><path d="m23.3 24.5c0-.1 0-.1 0-.2 0 0 0-.1.1-.1l.1-.1h.1c.1 0 .2 0 .2.1.1.1.1.2.1.3h-.5c0 .1 0 .1.1.1h.2.1.1v.1s0 0-.1 0c0 0 0 0-.1 0h-.1c-.1 0-.1 0-.2 0 0 0-.1 0-.1-.2 0 .1 0 .1 0 0zm.5 0c0-.1 0-.1 0 0 0-.1 0-.1 0-.1s0 0-.1 0h-.1s0 0-.1 0 0 0 0 .1v.1h.3z"/><path d="m36.7 12.6v.2c0 .1-.1.1-.1.2 0 0-.1.1-.2.1s-.1 0-.2 0h-.1c-.1 0-.1 0-.1 0v-1h.1.1.2c.1 0 .1 0 .2.1 0 0 .1.1.1.2zm-.7.3c.1 0 .1 0 0 0 .2 0 .3 0 .4-.1s.1-.1.1-.3c0-.1 0-.2-.1-.3s-.1-.1-.3-.1c-.1 0-.1 0-.1 0z"/><path d="m37.3 12.5c-.1 0-.1 0 0 0-.1 0-.1 0-.2 0v.6h-.2v-.7h.1z"/><path d="m37.7 12.1c0 .1-.1.1 0 0-.1.1-.1.1-.1.1h-.1s0 0 0-.1v-.1h.1s0 0 .1.1c-.1 0 0 0 0 0zm-.1 1h-.2v-.7h.2z"/><path d="m38.1 13.1c0-.1-.1-.2-.1-.3-.1-.1-.1-.3-.1-.4h.1v.1.1.1.1-.1-.1-.1-.1h.2c0 .1-.1.3-.1.4s-.1.2 0 .3z"/><path d="m38.6 12.7c0-.1 0-.1 0-.2 0 0 0-.1.1-.1l.1-.1h.1c.1 0 .2 0 .2.1.1.1.1.2.1.3h-.6c.1.1.1.1.2.1h.2.1.1v.1s0 0-.1 0c0 0 0 0-.1 0 0 0 0 0-.1 0s-.1 0-.2 0c0 0-.1 0-.1-.1l-.1-.1c.1.1.1.1.1 0zm.5-.1c0-.1 0-.1 0-.1s0 0-.1 0c0 0 0 0-.1 0 0 0 0 0-.1 0v.1.1h.3z"/><path d="m36.5 24.7v.2h-.6v-1h.2v.8z"/><path d="m36.6 24.5c0-.1 0-.1 0-.2 0 0 0-.1.1-.1l.1-.1h.1c.1 0 .2 0 .2.1.1.1.1.2.1.3h-.6c.1.1.1.1.2.1h.2.1.1v.1s0 0-.1 0c0 0 0 0-.1 0h-.1c-.1 0-.1 0-.2 0 0 0-.1 0-.1-.2h-.1c.1.1.1.1.1 0zm.5 0c0-.1 0-.1 0 0 0-.1 0-.1 0-.1s0 0-.1 0h-.1s0 0-.1 0v.1.1h.3z"/><path d="m37.6 24.9c0-.1-.1-.2-.1-.3-.1-.1-.1-.3-.1-.4h.2v.1.1.1.1-.1-.1-.1-.1h.4c0 .1-.1.3-.1.4-.1.1-.1.2-.1.3z"/><path d="m38.1 24.5c0-.1 0-.1 0-.2 0 0 0-.1.1-.1l.1-.1h.1c.1 0 .2 0 .2.1.1.1.1.2.1.3h-.6c.1.1.1.1.2.1h.2.1.1v.1s0 0-.1 0c0 0 0 0-.1 0h-.1c-.1 0-.1 0-.2 0 0 0-.1 0-.1-.2h-.1c.1.1.1.1.1 0zm.5 0c0-.1 0-.1 0 0 0-.1 0-.1 0-.1s0 0-.1 0h-.1s0 0-.1 0v.1.1h.3z"/><path d="m39.2 24.9c-.1 0-.1 0 0 0h-.2s0 0 0-.1v-.1-.9h.2v.9.1h.1z"/><path d="m19.7 2.6.3-.2 5.2 8.9-.3.2z"/><path d="m19.7 11.3 5.2-8.9.3.2-5.2 8.9z"/><path d="m17.3 6.7h10.3v.4h-10.3z"/></g><path d="m25.8 9.8c-1.6 1.9-4.4 2.1-6.2.5-1.9-1.5-2.2-4.3-.6-6.2s4.4-2.1 6.2-.5c1.9 1.6 2.2 4.4.6 6.2z" fill="#171715"/><path d="m23.9 8.2c1-1.1 2-2.1 3-3-.3-.7-.7-1.4-1.4-1.9-.6-.5-1.3-.9-2.1-1-.6 1.2-1.4 2.3-2.4 3.5-1 1.1-2 2.1-3 3 .3.7.7 1.4 1.4 1.9.6.5 1.3.9 2.1 1 .6-1.2 1.4-2.4 2.4-3.5z" fill="#292926"/><path d="m23.3 5.7 2-2.4.3.3-2 2.4z" fill="#e8e8e3"/><path d="m19.6 14.4.3-.2 5.2 8.9-.3.2z" fill="#e8e8e3"/><path d="m19.7 23.2 5.2-8.9.3.2-5.2 8.9z" fill="#e8e8e3"/><path d="m17.3 18.6h10.3v.4h-10.3z" fill="#e8e8e3"/><path d="m25.5 15.6c1.8 1.7 1.8 4.5.1 6.3s-4.5 1.8-6.3.1-1.8-4.5-.1-6.3 4.5-1.8 6.3-.1z" fill="#171715"/><path d="m23.7 17.4c-1.1-1-2-2.1-2.8-3.2-.7.2-1.4.6-2 1.2s-1 1.3-1.2 2c1.1.8 2.3 1.7 3.3 2.7 1.1 1 2 2.1 2.8 3.2.7-.2 1.4-.6 2-1.2s1-1.3 1.2-2c-1.1-.8-2.2-1.7-3.3-2.7z" fill="#292926"/><path d="m18.9 15.7.3-.3 2.2 2.2-.3.3z" fill="#e8e8e3"/><path d="m34.8 2.6.3-.2 5.2 8.9-.3.2z" fill="#e8e8e3"/><path d="m34.7 11.3 5.2-8.9.3.2-5.2 8.9z" fill="#e8e8e3"/><path d="m32.3 6.7h10.3v.4h-10.3z" fill="#e8e8e3"/><path d="m38.1 11.3c-2.4.4-4.7-1.3-5-3.7-.4-2.4 1.3-4.7 3.7-5 2.4-.4 4.7 1.3 5 3.7.4 2.4-1.3 4.7-3.7 5z" fill="#171715"/><path d="m37.8 8.9c1.5-.2 2.9-.3 4.3-.3.3-.7.3-1.5.2-2.3s-.4-1.5-.9-2.1c-1.3.4-2.7.8-4.2 1s-2.9.3-4.3.3c-.3.7-.3 1.5-.2 2.3s.4 1.5.9 2.1c1.3-.5 2.7-.8 4.2-1z" fill="#292926"/><path d="m39 6.5 3-.4.1.4-3.1.4z" fill="#e8e8e3"/><path d="m34.7 14.4.3-.2 5.2 8.9-.3.2z" fill="#e8e8e3"/><path d="m34.8 23.2 5.2-8.9.3.2-5.2 8.9z" fill="#e8e8e3"/><path d="m32.3 18.6h10.3v.4h-10.3z" fill="#e8e8e3"/><path d="m41.8 19.7c-.5 2.4-2.9 3.9-5.3 3.4s-3.9-2.9-3.4-5.3 2.9-3.9 5.3-3.4c2.4.6 3.9 2.9 3.4 5.3z" fill="#171715"/><path d="m39.4 19.2c.3-1.4.7-2.8 1.3-4.1-.6-.5-1.3-.8-2.1-1s-1.6-.1-2.3.1c0 1.4-.2 2.8-.5 4.3-.3 1.4-.7 2.8-1.3 4.1.6.5 1.3.8 2.1 1s1.6.1 2.3-.1c0-1.4.2-2.9.5-4.3z" fill="#292926"/><path d="m37.7 17.2.6-3 .4.1-.6 3z" fill="#e8e8e3"/><path d="m17.8 29.4v.3c0 .1-.1.1-.1.2-.1.1-.1.1-.2.1s-.1 0-.2 0-.1 0-.2 0-.1-.1-.2-.1c-.1-.1-.1-.1-.1-.2s0-.2 0-.3 0-.2 0-.3.1-.1.1-.2c.1-.1.1-.1.2-.1h.2.2c.1 0 .1.1.2.1.1.1.1.1.1.2zm-.9 0v.2c0 .1 0 .1.1.1l.1.1h.1.1s.1 0 .1-.1l.1-.1c0-.1 0-.1 0-.2s0-.1 0-.2 0-.1-.1-.1l-.1-.1h-.1c-.1 0-.1 0-.1 0s-.1 0-.1.1l-.1.1z" fill="#485343"/><path d="m18.8 29.9s-.1 0-.2 0-.1 0-.2 0-.1 0-.2 0c0 0-.1 0-.1-.1 0 0 0-.1-.1-.1 0 0 0-.1 0-.2v-.5h.2v.5.2l.1.1h.1.1v-.7h.2v.8z" fill="#485343"/><path d="m19 28.9h.2v.3h.3v.2h-.3v.4.1h.1.1.1v.2h-.1-.1c-.1 0-.1 0-.2 0 0 0-.1 0-.1-.1 0 0 0-.1-.1-.1 0 0 0-.1 0-.2v-.8z" fill="#485343"/><path d="m26.7 30.4v.3c0 .1-.1.1-.1.2-.1.1-.1.1-.2.1s-.1 0-.2 0-.1 0-.2 0-.1-.1-.2-.1c-.1-.1-.1-.1-.1-.2s0-.2 0-.3 0-.2 0-.3.1-.1.1-.2c.1-.1.1-.1.2-.1h.2.2c.1 0 .1.1.2.1.1.1.1.1.1.2zm-.9 0v.2c0 .1 0 .1.1.1l.1.1h.1.1s.1 0 .1-.1l.1-.1c0-.1 0-.1 0-.2s0-.1 0-.2 0-.1-.1-.1l-.1-.1h-.1c-.1 0-.1 0-.1 0s-.1 0-.1.1l-.1.1z" fill="#485343"/><path d="m27.1 30.9c-.1-.1-.1-.2-.2-.4-.1-.1-.1-.3-.2-.5h.3v.2c0 .1 0 .1.1.2 0 .1 0 .1.1.2 0 .1 0 .1.1.1 0 0 0-.1.1-.1 0-.1 0-.1.1-.2 0-.1 0-.1.1-.2 0-.1 0-.1 0-.2h.2c0 .2-.1.3-.2.5-.1.1-.1.3-.2.4z" fill="#485343"/><path d="m27.7 30.5c0-.1 0-.1 0-.2s.1-.1.1-.1l.1-.1h.1c.1 0 .2 0 .3.1s.1.2.1.3h-.6c0 .1 0 .1.1.2 0 0 .1.1.2.1h.1.1v.2s0 0-.1 0h-.1-.1c-.1 0-.1 0-.2 0s-.1-.1-.1-.1l-.1-.1c.1-.2.1-.2.1-.3zm.6-.1c0-.1 0-.1 0-.1s0 0-.1 0c0 0 0 0-.1 0h-.1s0 0-.1 0v.1.1h.4z" fill="#485343"/><path d="m29.2 30.3c-.1 0-.1 0-.2 0 0 0 0 0-.1 0 0 0 0 0-.1 0v.7h-.2v-.8h.1.2.1.1z" fill="#485343"/><path d="m30.8 30.4v.3c0 .1-.1.1-.1.2-.1 0-.1.1-.2.1s-.2 0-.3 0c0 0-.1 0-.2 0s-.1 0-.2 0v-1.1h.2.2.3c.1 0 .1.1.2.1s.1.1.1.2zm-.8.4h.1c.1 0 .2 0 .3-.1s.1-.2.1-.3 0-.2-.1-.3c0-.1-.1-.1-.3-.1-.1 0-.1 0-.1 0z" fill="#485343"/><path d="m31.5 30.3s-.1-.1 0 0c-.1 0-.1 0-.2 0 0 0 0 0-.1 0 0 0 0 0-.1 0v.7h-.1v-.8h.1.2.1z" fill="#485343"/><path d="m31.9 29.8c0 .1 0 .1 0 0-.1.1-.1.1-.1.1h-.1v-.1-.1h.1s0 0 .1.1zm0 1.1h-.2v-.9h.2z" fill="#485343"/><path d="m32.3 30.9c-.1-.1-.1-.2-.2-.4-.1-.1-.1-.3-.2-.5h.2v.2c0 .1 0 .1.1.2 0 .1 0 .1.1.2 0 .1 0 .1.1.1 0 0 0-.1.1-.1 0-.1 0-.1.1-.2 0-.1 0-.1.1-.2 0-.1 0-.1 0-.2h.2c0 .2-.1.3-.2.5-.1.1-.1.3-.2.4z" fill="#485343"/><path d="m32.9 30.5c0-.1 0-.1 0-.2s.1-.1.1-.1l.1-.1h.1c.1 0 .2 0 .3.1s.1.2.1.3h-.7l.2.2s.1.1.2.1h.1.1v.2s0 0-.1 0h-.1-.1c-.1 0-.1 0-.2 0s-.1-.1-.1-.1l-.1-.1c.1-.2.1-.2.1-.3zm.6-.1c0-.1 0-.1 0-.1s0 0-.1 0c0 0 0 0-.1 0h-.1s0 0-.1 0v.1.1h.4z" fill="#485343"/><path d="m41.3 28.8h.2v1.2h-.2z" fill="#485343"/><path d="m41.7 29.1h.2.2.2s.1 0 .1.1c0 0 0 .1.1.1v.2.5h-.2v-.5-.1-.1s0 0-.1 0h-.1-.1s0 0-.1 0v.7h-.2z" fill="#485343"/><path d="m19.1 34.3h-1v-2.6h1c1.8 0 1.8 2.6 0 2.6zm-.6-.3h.7c1.3 0 1.3-2.1 0-2.1h-.7zm.6-2h-.6v2h.6c1.3 0 1.3-2 0-2zm-.3.3h.3c.8 0 .8 1.4 0 1.4h-.3z" fill="#485343"/><path d="m23.2 34.2-.8.1-.4-.8h-.3v.8c-.2 0-.5 0-.7 0 0-.9 0-1.8 0-2.6h1.2c1 0 1.2 1.2.6 1.7zm-1.1-.9.6.8-.4-.6-.1-.2c.7-.1.7-1.3-.1-1.3h-.8v2.1-.8zm0-.1h-.8v-1.2h.8c.8 0 .8 1.2 0 1.2zm0-.9c-.2 0-.3 0-.5 0v.7h.5c.4-.1.4-.7 0-.7z" fill="#485343"/><path d="m24.7 33.7v.6h-1.3v-.6h.3v-1.5h-.3v-.6h1.3v.6h-.3v1.5zm-1.1.3h.8-.4v-2h.4-.8.4v2z" fill="#485343"/><path d="m26.2 33.2.6-1.5h.6v.1l-1.1 2.6h-.3l-1.1-2.6v-.1h.6zm0 .7-.9-1.9.9 1.9.9-1.9z" fill="#485343"/><path d="m29.5 32.3c-.4 0-.6 0-1 0v.4h.9v.6h-.9v.5h1v.6c-.6 0-1.1 0-1.7 0 0-.9 0-1.8 0-2.6h1.6c.1.1.1.3.1.5zm-1.3 1.7h1.1-1.1c0-.4 0-.7 0-1.1h1-1v-.9h1-1.1c.1.7.1 1.3.1 2z" fill="#485343"/><path d="m32.4 31.7c.5 0 1.1.3 1.2 1-.2 0-.4 0-.7 0-.1-.3-.3-.4-.6-.4-.4 0-.7.3-.7.7s.3.7.7.7c.3 0 .5-.1.6-.4h.7c-.1.7-.7 1-1.2 1-.7 0-1.3-.4-1.3-1.3-.1-.9.6-1.3 1.3-1.3zm.8 1.8c-.2.4-.5.5-.8.5-.5 0-1-.4-1-1 0-.7.5-1 1-1 .3 0 .6.1.8.4-.2-.3-.5-.4-.8-.4-.5 0-1 .4-1 1.1s.5 1.1 1 1.1c.3-.1.6-.3.8-.7z" fill="#485343"/><path d="m34 33c0-1.8 2.7-1.8 2.7 0s-2.7 1.8-2.7 0zm2.3 0c0-1.4-2-1.4-2 0s2 1.4 2 0zm-2 0c0 1.4 2 1.3 2 0s-2-1.4-2 0zm1.7 0c0 1-1.3 1-1.3 0-.1-.9 1.3-.9 1.3 0z" fill="#485343"/><path d="m39.4 34.2-.8.1-.5-.8h-.3v.8c-.2 0-.5 0-.7 0 0-.9 0-1.8 0-2.6h1.2c1 0 1.2 1.2.6 1.7zm-1.1-.9s.1 0 0 0l.6.8-.4-.6-.2-.2c.8-.1.8-1.3 0-1.3h-.8v2.1-.8zm0-.1h-.8v-1.2h.8c.8 0 .8 1.2 0 1.2zm0-.9c-.2 0-.3 0-.5 0v.7h.5c.4-.1.4-.7 0-.7z" fill="#485343"/><path d="m41.4 32.3c-.4 0-.6 0-1 0v.4h.9v.6h-.9v.5h1v.6c-.6 0-1.1 0-1.7 0 0-.9 0-1.8 0-2.6h1.6c.1.1.1.3.1.5zm-1.3 1.7h1.1-1.1c0-.4 0-.7 0-1.1h1-1v-.9h1-1.1c.1.7.1 1.3.1 2z" fill="#485343"/><path d="m35.1 42c0 2.8-2.3 5.1-5.1 5.1s-5.1-2.3-5.1-5.1 2.3-5.1 5.1-5.1 5.1 2.3 5.1 5.1z" fill="#494949"/><path d="m28 45.4-2-3.5 2-3.5h4l2 3.5-2 3.5z" fill="#e4dec4"/><path d="m32.1 45.6h-4.2l-2.1-3.7 2.1-3.7h4.2l2.1 3.7zm-4-.4h3.9l1.9-3.3-1.9-3.3h-3.9l-1.9 3.3z" fill="#bdb7a0"/><path d="m32.7 41.9c0 1.5-1.2 2.7-2.7 2.7s-2.7-1.2-2.7-2.7 1.2-2.7 2.7-2.7 2.7 1.2 2.7 2.7z" fill="#e4dec4"/><path d="m30 44.7c-1.6 0-2.8-1.3-2.8-2.8 0-1.6 1.3-2.8 2.8-2.8 1.6 0 2.8 1.3 2.8 2.8 0 1.6-1.2 2.8-2.8 2.8zm0-5.3c-1.4 0-2.5 1.1-2.5 2.5s1.1 2.5 2.5 2.5 2.5-1.1 2.5-2.5-1.1-2.5-2.5-2.5z" fill="#bdb7a0"/><path d="m30.2 10.8c-.7 0-1.3-.6-1.3-1.3s.6-1.3 1.3-1.3 1.3.6 1.3 1.3c.1.7-.5 1.3-1.3 1.3z" fill="#e4dec4"/><path d="m28.8 9.5c0-.8.6-1.4 1.4-1.4s1.4.6 1.4 1.4-.6 1.4-1.4 1.4c-.7-.1-1.4-.7-1.4-1.4zm2.7 0c0-.7-.6-1.2-1.2-1.2-.7 0-1.2.6-1.2 1.2 0 .7.6 1.2 1.2 1.2s1.2-.6 1.2-1.2z" fill="#bdb7a0"/><path d="m30.2 10.2c-.4 0-.7-.3-.7-.7s.3-.7.7-.7.7.3.7.7c0 .3-.3.7-.7.7z" fill="#a09a84"/><path d="m29.5 9.5c0-.4.3-.8.8-.8.4 0 .7.3.7.8 0 .4-.3.8-.8.8-.4-.1-.7-.4-.7-.8zm1.4 0c0-.3-.3-.6-.6-.6s-.6.3-.6.6.3.6.6.6.6-.3.6-.6z" fill="#bdb7a0"/><path d="m30.2 9.3c-.3 0-.5-.2-.5-.5s.2-.5.5-.5.5.2.5.5-.2.5-.5.5z" fill="#e4dec4"/><path d="m29.7 8.8c0-.3.2-.5.5-.5s.5.2.5.5-.2.5-.5.5-.5-.2-.5-.5zm.9 0c0-.2-.2-.4-.4-.4s-.4.2-.4.4.2.4.4.4c.3 0 .4-.2.4-.4z" fill="#bdb7a0"/><path d="m31.5 19.9c0 .7-.6 1.2-1.2 1.2-.7 0-1.2-.6-1.2-1.2 0-.7.6-1.2 1.2-1.2s1.2.5 1.2 1.2z" fill="#f37055"/></svg>