<svg enable-background="new 0 0 60 60" height="60" viewBox="0 0 60 60" width="60" xmlns="http://www.w3.org/2000/svg"><path d="m46.1 27.6h1.1v5.5h-1.1z" fill="#424143"/><path d="m12.7 27.6h1.1v5.5h-1.1z" fill="#424143"/><path d="m46.1 55.7c0 2.3-1.9 4.2-4.2 4.2h-23.9c-2.3 0-4.2-1.9-4.2-4.2v-51.4c0-2.3 1.9-4.2 4.2-4.2h24c2.3 0 4.2 1.9 4.2 4.2v51.4z" fill="#ff5a00"/><path d="m41.9 60h-23.9c-2.4 0-4.3-1.9-4.3-4.3v-51.4c-.1-2.4 1.9-4.3 4.3-4.3h24c2.4 0 4.3 1.9 4.3 4.3v51.4c0 2.4-2 4.3-4.4 4.3zm-23.9-59.7c-2.2 0-4 1.8-4 4v51.4c0 2.2 1.8 4 4 4h24c2.2 0 4-1.8 4-4v-51.4c0-2.2-1.8-4-4-4z" fill="#939598"/><path d="m43 44.9c0 .7-.6 1.2-1.2 1.2h-23.7c-.7 0-1.2-.6-1.2-1.2v-38.8c0-.7.6-1.2 1.2-1.2h23.7c.7 0 1.2.6 1.2 1.2z" fill="#1f231f"/><g fill="#dee6e7"><path d="m18.5 26.9-.5.5v1.5l.5.5h1.7v.7h-1.9l-.3.8h1.9l.3-.6v.6h1l.5-.4v-1.5l-.5-.5h-1.8v-.7h1.8l.5-.9h-1.9l-.4.7v-.7z"/><path d="m22.5 31h1.4v-4.1h-1.4l-.3.9h.3z"/><path d="m33 26.9h-1.8l-.2.6v-.6h-1.5l-.3.9h.3v3.2h1.5v-3.2h1v3.2h1.4v-3.6z"/><path d="m34.2 31.7h-1.3l-.2.5v-.5h-1l-.2.7h.2v2.3h.9.1 1.4l.4-.4v-2.3zm-.8 2.4h-.5l-.3.4v-2.1h.8z"/><path d="m27.6 31.7h-1.3l-.2.5v-.5h-1l-.2.7h.1v2.3h1v-1h1.4l.4-.4v-1.3zm-.8 1.4h-.5l-.3.4v-1.2h.8z"/><path d="m25.3 26.9-.5.5v3.1l.5.5h2.9l.5-.5v-2h-1.7l-.4.9h.6v.7h-1v-2.3h2l.5-.9h-2.1l-.4.6v-.6z"/><path d="m36.9 31h1.3l-1.3-4.1h-.4-.9-.7l-.3.9h.3l-1 3.2h1.3l.2-.7h1.3zm-.9-1.7-.5.6.5-1.6.3 1z"/><path d="m30.2 34.7h1l-1-3h-.3-.6-.5l-.2.7h.2l-.8 2.3h1l.2-.5h.9zm-.6-1.2-.4.4.4-1.2.2.7z"/><path d="m40.2 30.1v-3.2h-1.5l-.3.9h.3v3.2h2.8l.4-.9z"/><path d="m17.8 36.7h-.2v-1.1h.9c.2 0 .3.1.3.3s-.1.3-.3.3h-.7zm0-.6h.7c.1 0 .2-.1.2-.2s-.1-.2-.2-.2h-.7z"/><path d="m20.3 36.7h-.2l-.1-.3h-.8l-.1.2h-.2l.6-1.1h.3zm-.6-1-.3.6h.6z"/><path d="m21.1 35.7c-.4 0-.4 0-.4.2 0 .1.1.2.4.2.5 0 .6.1.6.3 0 .3-.2.3-.6.3-.6 0-.6-.1-.6-.4h.2c0 .2 0 .2.4.2s.5 0 .5-.2c0-.1 0-.2-.4-.2-.5 0-.6-.1-.6-.3 0-.3.1-.3.6-.3s.6.1.6.4h-.2c-.1-.2-.1-.2-.5-.2z"/><path d="m22.6 35.7c-.4 0-.4 0-.4.2 0 .1.1.2.4.2.5 0 .6.1.6.3 0 .3-.2.3-.6.3-.6 0-.6-.1-.6-.4h.2c0 .2 0 .2.4.2s.5 0 .5-.2c0-.1 0-.2-.4-.2-.5 0-.6-.1-.6-.3 0-.3.1-.3.6-.3s.6.1.6.4h-.3c0-.2-.1-.2-.4-.2z"/><path d="m23.6 36.7h-.2v-1.1h.2z"/><path d="m25.3 35.6-.6 1.1h-.2l-.6-1.1h.1l.5.9.5-.9z"/><path d="m26.4 35.6-.9.1v.3h.9v.1h-.9v.3h.9v.1h-1v-1.1h1z"/><path d="m28.9 36.7h-.2l-.1-.2h-.8l-.1.2h-.2l.6-1.1h.3zm-.7-1-.3.6h.6z"/><path d="m30 35.6-.5.1v.9h-.2v-.9h-.5v-.1z"/><path d="m31.4 35.6-.5.1v.9h-.2v-.9h-.5v-.1z"/><path d="m32.6 35.6-.9.1v.3h.9v.1h-.9v.3h.9v.1h-1v-1.1h1z"/><path d="m33.2 35.6.9 1v-1h.2v1.1h-.3l-.8-1.1-.1 1.1h-.2v-1.1z"/><path d="m35.2 36.5c.4 0 .5 0 .5-.2v-.8h.2v.8c0 .3 0 .3-.6.3s-.6 0-.6-.3v-.8h.2v.8c-.2.2-.1.2.3.2z"/><path d="m37.4 36.7h-.2l-.1-.2h-.8l-.1.2h-.2l.6-1.1h.3zm-.7-1-.3.6h.6z"/><path d="m38.5 35.6-.5.1v.9h-.2v-.9h-.5v-.1z"/><path d="m39.4 35.5c.6 0 .6.1.6.6s-.1.6-.6.6-.6-.1-.6-.6c-.1-.5 0-.6.6-.6zm0 1c.4 0 .5 0 .5-.4s0-.4-.5-.4c-.4 0-.5 0-.5.4 0 .3 0 .4.5.4z"/><path d="m40.4 36.7h-.2v-1.1h1c.2 0 .3.1.3.3s-.1.2-.1.3c.1 0 .1.1.1.2v.3h-.2v-.3c0-.1-.1-.1-.2-.1h-.8v.4zm0-.6h.8c.1 0 .2 0 .2-.2s-.1-.2-.2-.2h-.8z"/></g><path d="m42 26-12.1-2.7-12 2.7v-4l12-2.7 12.1 2.7z" fill="#db6826"/><path d="m27 21-.6 1h-.2l-.6-1h.2l.5.9.5-.9z" fill="#1f231f"/><path d="m27.7 21c.5 0 .6.1.6.5 0 .5-.1.5-.6.5s-.6-.1-.6-.5c0-.5.1-.5.6-.5zm0 .9c.4 0 .4 0 .4-.4s0-.4-.4-.4-.4 0-.4.4c0 .3 0 .4.4.4z" fill="#1f231f"/><path d="m28.7 21.9h.8v.1h-.9v-1h.2v.9z" fill="#1f231f"/><path d="m30.2 21.9c.4 0 .4 0 .4-.2v-.7h.2v.7c0 .3 0 .3-.6.2-.5.1-.6.1-.6-.2v-.7h.2v.7c0 .2 0 .2.4.2z" fill="#1f231f"/><path d="m31.8 21.8.5-.8h.3v1h-.2v-.9l-.5.9h-.1l-.6-.9v.9h-.2v-1h.3z" fill="#1f231f"/><path d="m33.9 21v.1h-.9v.3h.8v.1h-.8v.3h.8v.2h-1v-1z" fill="#1f231f"/><path d="m44.3 32.5-.8.1v-.1z" fill="#1f231f"/><path d="m43.5 32.1.7-.7h-.7v-.1h.8v.2l-.8.6.8.1v.1h-.8z" fill="#1f231f"/><path d="m44.3 30.9v.1h-.8v-.7c0-.1.1-.2.3-.2s.3.1.3.2v.5h.2zm-.4 0v-.5c0-.1 0-.1-.1-.1s-.1 0-.1.1v.5z" fill="#1f231f"/><path d="m44.2 29.5c0-.3 0-.3-.1-.3h-.6v-.1h.6c.2 0 .2 0 .2.5 0 .4 0 .5-.2.5h-.6v-.1h.6c.1-.1.1-.2.1-.5z" fill="#1f231f"/><path d="m43.5 28.1.1.4h.7v.1h-.7v.4h-.1z" fill="#1f231f"/><path d="m16.3 31.2v.1l-.2.1v.6l.2.1v.1l-.8-.4v-.2zm-.7.5.4.3v-.5z" fill="#1f231f"/><path d="m16.2 30.4-.7-.4v-.2h.8v.1h-.7l.7.5v.1l-.7.5h.7v.1h-.8v-.2z" fill="#1f231f"/><path d="m16.3 29.5v.1h-.8v-.7c0-.1.1-.2.3-.2s.3.1.3.2v.5h.2zm-.4 0v-.5c0-.1 0-.1-.1-.1s-.1 0-.1.1v.5z" fill="#1f231f"/><path d="m42 12.6-12.1-2.7-12 2.7v-4.1l12-2.7 12.1 2.7z" fill="#db6826"/><path d="m42 19.3-12.1-2.7-12 2.7v-4.1l12-2.7 12.1 2.7z" fill="#db6826"/><path d="m17.9 31.7h6.2v3h-6.2z" fill="#db6826"/><path d="m35.7 31.7h6.3v3h-6.3z" fill="#db6826"/><path d="m33.8 16.8c-1.2 2.2-3.9 3-6 1.8-2.2-1.2-3-3.9-1.8-6 1.2-2.2 3.9-3 6-1.8 2.2 1.2 3 3.9 1.8 6z" fill="#424143"/><path d="m30.4 13.5 1.1-2.1.3.1-1.1 2.1z" fill="#dee6e7"/><path d="m27.6 45.2-2.1-3.6 2.1-3.6h4.2l2.1 3.6-2.1 3.6z" fill="#e4dec4"/><path d="m31.9 45.4h-4.3l-2.2-3.8 2.2-3.8h4.3l2.2 3.8zm-4.2-.4h4l2-3.4-2-3.4h-4l-2 3.4z" fill="#bdb7a0"/><path d="m32.4 41.6c0 1.5-1.2 2.7-2.7 2.7s-2.7-1.2-2.7-2.7 1.2-2.7 2.7-2.7 2.7 1.2 2.7 2.7z" fill="#e4dec4"/><path d="m29.7 44.5c-1.6 0-2.9-1.3-2.9-2.9s1.3-2.9 2.9-2.9 2.9 1.3 2.9 2.9-1.3 2.9-2.9 2.9zm0-5.5c-1.4 0-2.6 1.2-2.6 2.6s1.2 2.6 2.6 2.6 2.6-1.2 2.6-2.6-1.2-2.6-2.6-2.6z" fill="#bdb7a0"/><path d="m30.9 25c0 .5-.4 1-1 1-.5 0-1-.4-1-1 0-.5.4-1 1-1 .5 0 1 .5 1 1z" fill="#f37055"/><path d="m29.9 26.2c-.7 0-1.2-.5-1.2-1.2s.5-1.2 1.2-1.2 1.2.5 1.2 1.2c0 .6-.5 1.2-1.2 1.2zm0-1.9c-.4 0-.7.3-.7.7s.3.7.7.7.7-.3.7-.7-.3-.7-.7-.7z" fill="#424143"/><path d="m28 2.6c0 .3-.1.5-.2.6s-.3.2-.6.2v-.2h.2c.1 0 .1 0 .2-.1l.1-.1c0-.1.1-.1.1-.2h-.1-.1c-.1 0-.1 0-.2 0s-.1-.1-.1-.1l-.1-.1c0-.1 0-.1 0-.2 0 0 0-.1 0-.2s0-.1.1-.1l.1-.1h.2.2c.1 0 .1.1.1.1s.1.1.1.2zm-.4.1h.1.1c0-.1 0-.1 0-.2s0-.1 0-.1 0-.1-.1-.1h-.1-.1s-.1 0-.1.1v.1.1c0 .1 0 .2.1.2-.1-.1 0-.1.1-.1z" fill="#595a5c"/><path d="m29.6 2.1c0 .1-.1.3-.1.4s-.1.2-.1.3-.1.2-.1.3-.1.2-.1.3h-.2c0-.1-.1-.2-.1-.3s-.1-.2-.1-.3-.1-.2-.1-.3-.1-.3-.1-.4h.2c.1.2.1.4.2.6s.1.4.2.5c-.2-.2-.1-.4-.1-.5.1-.2.1-.4.2-.6z" fill="#595a5c"/><path d="m31.9 3.2c-.2.3-.5.5-.8.5-.5 0-.9-.4-.9-.9s.4-.9.9-.9c.3 0 .6.2.8.5l.2-.1c-.2-.4-.6-.6-1-.6-.7 0-1.2.5-1.2 1.2s.5 1.2 1.2 1.2c.4 0 .8-.2 1-.6z" fill="#595a5c"/><path d="m31 2c-.4 0-.7.3-.7.7s.3.7.7.7.7-.3.7-.7c.1-.4-.3-.7-.7-.7zm.4.8h-.8v-.2h.8z" fill="#595a5c"/><path d="m32.9 2.6h-.3v-.3h-.3v.3h-.2v.2h.2v.3h.3v-.3h.3z" fill="#595a5c"/></svg>