<svg enable-background="new 0 0 60 60" height="60" viewBox="0 0 60 60" width="60" xmlns="http://www.w3.org/2000/svg" xmlns:xlink="http://www.w3.org/1999/xlink"><linearGradient id="a" gradientTransform="matrix(1 0 0 -1 0 70)" gradientUnits="userSpaceOnUse" x1=".034695" x2="59.9889" y1="35.05" y2="35.05"><stop offset="0" stop-color="#f5c75e"/><stop offset=".1303" stop-color="#dfa440"/><stop offset=".2849" stop-color="#f6e59c"/><stop offset=".3364" stop-color="#f1d481"/><stop offset=".4073" stop-color="#ebc063"/><stop offset=".468" stop-color="#e7b451"/><stop offset=".5108" stop-color="#e6b04a"/><stop offset=".6324" stop-color="#f5c75e"/><stop offset=".8261" stop-color="#f7f5bd"/><stop offset=".9032" stop-color="#e7bd64"/><stop offset=".9842" stop-color="#f5c75e"/></linearGradient><linearGradient id="b" gradientTransform="matrix(1 0 0 -1 0 70)" gradientUnits="userSpaceOnUse" x1=".045394" x2="59.8738" y1="41.8" y2="41.8"><stop offset=".0158103" stop-color="#f5c75e"/><stop offset=".2043" stop-color="#f6de8e"/><stop offset=".3676" stop-color="#f5c75e"/><stop offset=".5968" stop-color="#f5d67d"/><stop offset=".7837" stop-color="#dfa440"/><stop offset=".8056" stop-color="#e1a947"/><stop offset=".8367" stop-color="#e5b659"/><stop offset=".873" stop-color="#edcb77"/><stop offset=".9086" stop-color="#f6e59c"/><stop offset="1" stop-color="#f5c75e"/></linearGradient><linearGradient id="c" gradientTransform="matrix(1 0 0 -1 0 70)" gradientUnits="userSpaceOnUse" x1="1.4639" x2="58.4361" y1="42.05" y2="42.05"><stop offset=".00678528" stop-color="#e6e6e6"/><stop offset=".0987718" stop-color="#c9c9c9"/><stop offset=".8369" stop-color="#ababab"/><stop offset="1" stop-color="#e2e2e2"/></linearGradient><linearGradient id="d"><stop offset="0" stop-color="#1d1d1b"/><stop offset=".2838" stop-color="#1f1f1d"/><stop offset=".4257" stop-color="#272725"/><stop offset=".5361" stop-color="#343432"/><stop offset=".6303" stop-color="#474745"/><stop offset=".7143" stop-color="#5f5f5d"/><stop offset=".7908" stop-color="#7c7c7b"/><stop offset=".8617" stop-color="#a0a09f"/><stop offset=".9283" stop-color="#c9c9c8"/><stop offset=".9891" stop-color="#f6f6f6"/><stop offset="1" stop-color="#fff"/></linearGradient><radialGradient id="e" cx="7.2313" cy="-818.3266" gradientTransform="matrix(.8274 0 0 -.2525 50.0291 -178.5829)" gradientUnits="userSpaceOnUse" r="1.2892" xlink:href="#d"/><linearGradient id="f"><stop offset="0" stop-color="#fff"/><stop offset=".7688" stop-color="#bfbfbf"/><stop offset=".9323" stop-color="#c7c7c7"/><stop offset="1" stop-color="#ccc"/></linearGradient><radialGradient id="g" cx="55.7167" cy="42.5365" gradientTransform="matrix(1 0 0 -1 0 70)" gradientUnits="userSpaceOnUse" r="1.031" xlink:href="#f"/><radialGradient id="h" cx="-55.8601" cy="-818.097" gradientTransform="matrix(.8274 0 0 -.2525 50.0291 -178.5829)" gradientUnits="userSpaceOnUse" r="1.2892" xlink:href="#d"/><radialGradient id="i" cx="3.5148" cy="42.5943" gradientTransform="matrix(1 0 0 -1 0 70)" gradientUnits="userSpaceOnUse" r="1.031" xlink:href="#f"/><path d="m5 33.4h49.9v2.4c0 .6-.5 1.1-1.1 1.1h-47.6c-.6 0-1.1-.5-1.1-1.1z" fill="#063e89"/><path d="m59.9 34.8-.4-.6s-.6 1.3-1 1.3c-5.9 0-49.1 0-57.3 0-.2 0-.7-1-.7-1.3l-.4.8s-.2.4.1.6c.1.1.3.3.6.3h58.5c.3 0 .5-.1.6-.3.2-.4 0-.8 0-.8z" fill="#f7f5bd"/><path d="m59.9 34.7-.4-.6s-.6 1.3-1 1.3c-5.9 0-49.1 0-57.3 0-.2 0-.7-1-.7-1.3l-.4.8s-.2.4.1.6c.1.1.3.3.6.3h58.5c.3 0 .5-.1.6-.3.2-.4 0-.8 0-.8z" fill="url(#a)"/><path d="m.5 32.4v1.7c0 .7.5 1.2 1.2 1.2h56.6c.7 0 1.2-.5 1.2-1.2v-1.7c0-.7-.5-1.2-1.2-1.2h-56.6c-.7 0-1.2.5-1.2 1.2z" fill="#a38d61"/><path d="m59.1 31.9c-.6 0-50.9 0-58.4 0-.6 0-.8-.2-.7-.6.6-1.6 2.2-5.9 2.3-6.2.1-.4.5-.6 1.2-.6s45.7 0 52.7 0c.6 0 1 .2 1.1.6.1.3 1.7 4.5 2.3 6.2.4.3.2.6-.5.6z" fill="url(#b)"/><path d="m7.2 32.4h2.3v2.3h-2.3z" fill="#b17f4a"/><path d="m7.2 32.5h2.2v2.2h-2.2z" fill="#432918"/><path d="m12 32.4h2.3v2.3h-2.3z" fill="#b17f4a"/><path d="m12 32.5h2.2v2.2h-2.2z" fill="#432918"/><path d="m16.8 32.4h2.3v2.3h-2.3z" fill="#b17f4a"/><path d="m16.9 32.5h2.2v2.2h-2.2z" fill="#432918"/><path d="m21.6 32.4h2.3v2.3h-2.3z" fill="#b17f4a"/><path d="m21.7 32.5h2.2v2.2h-2.2z" fill="#432918"/><path d="m26.4 32.4h2.3v2.3h-2.3z" fill="#b17f4a"/><path d="m26.5 32.5h2.2v2.2h-2.2z" fill="#432918"/><path d="m31.2 32.4h2.3v2.3h-2.3z" fill="#b17f4a"/><path d="m31.3 32.5h2.2v2.2h-2.2z" fill="#432918"/><path d="m36.1 32.4h2.3v2.3h-2.3z" fill="#b17f4a"/><path d="m36.1 32.5h2.2v2.2h-2.2z" fill="#432918"/><path d="m40.9 32.4h2.3v2.3h-2.3z" fill="#b17f4a"/><path d="m40.9 32.5h2.2v2.2h-2.2z" fill="#432918"/><path d="m45.7 32.4h2.3v2.3h-2.3z" fill="#b17f4a"/><path d="m45.8 32.5h2.2v2.2h-2.2z" fill="#432918"/><path d="m50.5 32.4h2.3v2.3h-2.3z" fill="#b17f4a"/><path d="m50.6 32.5h2.2v2.2h-2.2z" fill="#432918"/><path d="m58.5 29.9s-1.3-3.6-1.4-3.8-.3-.4-.7-.4-52.7 0-52.7 0c-.4 0-.7.1-.7.4-.1.2-1.4 3.7-1.4 3.7-.1.3.1.5.4.5h3.1v.6h49.9c0-.2 0-.6 0-.6h3.1c.3.1.5-.1.4-.4z" fill="#dfa440" opacity=".5"/><path d="m58.5 29.9c0 .2-.1.3-.4.3s-51.7 0-56.1 0c-.4 0-.5-.1-.4-.4v-.1c0 .1 0 .1-.1.2-.1.3.1.5.4.5h56.1c.4 0 .6-.2.5-.5z" fill="#999"/><path d="m58 30.2c-.3 0-51.7 0-56.1 0-.4 0-.5-.1-.4-.4.4-.9 1.3-3.5 1.4-3.7.1-.3.3-.4.7-.4s48.6 0 52.7 0c.3 0 .6.1.7.4.1.2 1 2.7 1.4 3.6.1.3 0 .5-.4.5z" fill="#fff"/><path d="m58 30.2c-.3 0-51.7 0-56.1 0-.4 0-.5-.1-.4-.4.4-.9 1.3-3.5 1.4-3.7.1-.3.3-.4.7-.4s48.6 0 52.7 0c.3 0 .6.1.7.4.1.2 1 2.7 1.4 3.6.1.3 0 .5-.4.5z" fill="url(#c)"/><path d="m57.1 28c0 .2-.5.3-1.1.3s-1.1-.1-1.1-.3.5-.3 1.1-.3 1.1.2 1.1.3z" fill="url(#e)" opacity=".3"/><path d="m56.9 28c0 .4-1.8.4-1.8 0s.4-.8.9-.8.9.3.9.8z" fill="#9d9d9c"/><path d="m56.9 27.9c0 .4-1.8.4-1.8 0s.4-.7.9-.7.9.3.9.7z" fill="url(#g)"/><path d="m4.9 28c0 .2-.5.3-1.1.3s-1.1-.1-1.1-.3.5-.3 1.1-.3 1.1.1 1.1.3z" fill="url(#h)" opacity=".3"/><path d="m4.7 27.9c0 .4-1.8.4-1.8 0s.4-.8.9-.8.9.4.9.8z" fill="#9d9d9c"/><path d="m4.7 27.9c0 .4-1.8.4-1.8 0s.4-.7.9-.7c.5-.1.9.2.9.7z" fill="url(#i)"/><g enable-background="new" fill="#063e89"><path d="m54.9 28.3-1.5-4.5c-.2-.4-.5-.6-1-.6h-22-.7-22c-.6 0-.9.3-1 .6l-1.5 4.5h25.2z"/><path d="m55.1 28.4h-50.1l1.6-4.7c.1-.4.6-.7 1.1-.7h44.7c.5 0 .9.2 1.1.7zm-49.7-.2h49.4l-1.4-4.3c-.2-.4-.4-.5-.9-.5h-44.8c-.6 0-.8.4-.9.5z"/></g></svg>