<svg enable-background="new 0 0 60 60" height="60" viewBox="0 0 60 60" width="60" xmlns="http://www.w3.org/2000/svg"><path d="m54.2 39.8v-.8c0-1.3-1-2.3-2.2-2.4v-15.9c0-3.1-1-6-2.8-8.6.5-.9.4-2.1-.3-3-4.4-4.8-11.3-7.7-18.6-7.7h-.5c-7.3 0-14.3 2.9-18.7 7.8-.8.8-.9 2-.3 3-1.8 2.5-2.8 5.4-2.8 8.5v15.9c-1.2.1-2.2 1.2-2.2 2.4v.8c-3.3.5-5.8 3.3-5.8 6.7s2.5 6.2 5.8 6.7v.9c0 1.3 1.1 2.4 2.5 2.4.7 0 1.2-.3 1.7-.7.3 1.5 1.6 2.7 3.3 2.7h.7c1.8 0 3.3-1.5 3.3-3.3v-17.5c0-1.8-1.5-3.3-3.3-3.3h-.8c-1.6 0-3 1.2-3.3 2.7v-16.4c0-2.6.8-5.1 2.3-7.3.2.1.5.1.7.1.7 0 1.4-.3 1.9-.9 3.4-3.8 9-6.1 14.9-6.1h.5c5.9 0 11.4 2.3 14.9 6 .7.7 1.7 1 2.6.7 1.5 2.2 2.3 4.7 2.3 7.3v16.5c-.3-1.5-1.6-2.7-3.2-2.7h-.8c-1.8 0-3.3 1.5-3.3 3.3v17.5c0 1.8 1.5 3.3 3.3 3.3h.8c1.6 0 3-1.2 3.3-2.7.4.4 1 .7 1.7.7 1.3 0 2.5-1.1 2.5-2.5v-.8c3.3-.5 5.8-3.3 5.8-6.7s-2.7-6.1-5.9-6.6z" fill="#249ac1"/></svg>