<svg xmlns="http://www.w3.org/2000/svg" width="60" height="60"><path d="M54.16 39.85V39c0-1.26-.95-2.3-2.17-2.44v-15.9c0-3.1-1-6.02-2.75-8.56.52-.93.42-2.13-.34-2.96C44.53 4.3 37.56 1.4 30.27 1.4h-.5c-7.32 0-14.3 2.9-18.7 7.76-.76.84-.85 2.03-.34 2.97-1.72 2.53-2.7 5.44-2.7 8.54v15.9c-1.22.13-2.2 1.16-2.2 2.43v.85C2.55 40.3 0 43.12 0 46.55s2.55 6.23 5.84 6.68v.86c0 1.33 1.12 2.44 2.47 2.44.67 0 1.25-.26 1.7-.68.3 1.54 1.64 2.72 3.26 2.72h.77c1.83-.02 3.32-1.5 3.32-3.34v-17.5c0-1.83-1.5-3.33-3.32-3.33h-.77c-1.6 0-2.97 1.18-3.26 2.7V20.68c0-2.64.82-5.13 2.27-7.3.23.05.46.1.7.1.7 0 1.4-.3 1.9-.85 3.44-3.8 9-6.06 14.88-6.06h.5c5.87 0 11.43 2.26 14.86 6.03.7.73 1.7 1 2.6.72 1.5 2.2 2.3 4.7 2.3 7.34v16.46c-.27-1.53-1.62-2.7-3.24-2.7H46c-1.84 0-3.33 1.5-3.33 3.32v17.5c0 1.84 1.5 3.33 3.32 3.33h.76c1.62 0 2.98-1.17 3.27-2.7.44.4 1.02.67 1.67.67 1.34 0 2.46-1.1 2.46-2.47v-.85c3.3-.45 5.84-3.27 5.84-6.7s-2.55-6.23-5.84-6.68z"/></svg>