<svg xmlns="http://www.w3.org/2000/svg" width="60" height="60"><path d="M59.5 24.75L48.06 13.3c-.27-.26-.72-.26-1 0-.27.3-.17.67 0 1 .58 1.1.48 2.7-.62 4.9-1.36 2.76-4.1 5.96-6.24 8.23.34 1.3.52 2.65.52 4.04 0 .74-.06 1.47-.15 2.2-.67 4.8-3.47 8.92-7.42 11.36-.02.02-.04.03-.07.05-.26.16-.52.3-.8.45.53-.18.93-.3 1.43-.54 1.4-.66 2.7-1.47 3.9-2.43 1.17-.98 2.16-1.97 3.13-3.14.55-.66 1.66-2.26 2.1-2.96.13-.2.12-.45-.04-.6l-.2-.2s6.3-6.7 11.18-9.14c1.66-.83 3.63-1.26 4.74-.8.36.15.73.28 1 0 .27-.27.27-.72 0-1zM39.74 30.4c-.5-7.43-6.56-13.44-14-13.9-7.9-.5-14.58 5.14-15.77 12.6l1.3 3.12c.37.14.67.42.83.8l.52 1.25-.87.36-.52-1.26c-.1-.24-.37-.35-.6-.25L6 21.92c-.07-.17-.22-.27-.4-.3-.15 0-.28-.12-.34-.27l-.8-1.92c-.07-.17-.04-.4.1-.52.3-.24.42-.67.26-1.05l-1.3-3.15c-.07-.16-.06-.33.04-.46s.14-.3.08-.47c-.1-.24-.38-.36-.62-.26l-.86.38-1.3.54-.87.37c-.25.1-.37.36-.27.6.07.17.22.27.4.3.15 0 .28.12.34.27l1.3 3.15c.17.38.55.6.94.57.2 0 .38.1.46.3l.8 1.9c.05.15.04.3-.06.45-.1.13-.13.3-.06.48l.53 1.3-.86.35-.16-.43c-.1-.24-.38-.35-.6-.25-.25.1-.37.36-.27.6l.72 1.73c.1.24.37.35.6.25.24-.1.36-.37.26-.6l-.18-.44.86-.36 3.73 9.04h-.03c-.23.1-.35.37-.27.6 2.3 6.68 8.5 11.53 15.9 11.83.23 0 .48.02.72.02 8.63 0 15.56-7.3 14.95-16.06zM24.1 40.04c-2.28 0-4.38-.8-6.05-2.1-2.3-1.8-3.8-4.6-3.8-7.75 0-5.45 4.4-9.85 9.85-9.85s9.84 4.4 9.84 9.84-4.4 9.83-9.84 9.83z"/></svg>