<svg enable-background="new 0 0 60 60" height="60" viewBox="0 0 60 60" width="60" xmlns="http://www.w3.org/2000/svg"><path d="m59.5 24.8-11.4-11.5c-.3-.3-.7-.3-1 0s-.2.7 0 1c.6 1.1.5 2.7-.6 4.9-1.4 2.8-4.1 6-6.2 8.2.3 1.3.5 2.6.5 4 0 .7-.1 1.5-.2 2.2-.7 4.8-3.5 8.9-7.4 11.4 0 0 0 0-.1 0-.3.2-.5.3-.8.5.5-.2.9-.3 1.4-.5 1.4-.7 2.7-1.5 3.9-2.4 1.2-1 2.2-2 3.1-3.1.5-.7 1.7-2.3 2.1-3 .1-.2.1-.5 0-.6l-.2-.2s6.3-6.7 11.2-9.1c1.7-.8 3.6-1.3 4.7-.8.4.1.7.3 1 0s.3-.8 0-1zm-19.8 5.6c-.5-7.4-6.6-13.4-14-13.9-7.9-.5-14.5 5.1-15.7 12.6l1.3 3.1c.4.1.7.4.8.8l.5 1.2-.9.4-.5-1.3c-.1-.2-.4-.3-.6-.2l-4.6-11.2c-.1-.2-.2-.3-.4-.3s-.3-.1-.3-.3l-.8-1.9c-.1-.2 0-.4.1-.5.3-.2.4-.7.3-1l-1.3-3.1c-.1-.2-.1-.3 0-.5s.1-.3.1-.5c-.1-.2-.4-.4-.6-.3l-.9.4-1.3.5-.9.4c-.2.1-.4.4-.3.6s.2.3.4.3.3.1.3.3l1.3 3.1c.2.4.6.6.9.6.2 0 .4.1.5.3l.9 1.9c0 .1 0 .3-.1.5-.1.1-.1.3-.1.5l.5 1.3-.9.4-.1-.6c-.1-.2-.4-.4-.6-.2-.2.1-.4.4-.3.6l.7 1.7c.1.2.4.4.6.2.3 0 .5-.3.4-.5l-.2-.4.8-.4 3.7 9c-.2.1-.4.4-.3.6 2.3 6.7 8.5 11.5 15.9 11.8h.7c8.7.1 15.6-7.2 15-16zm-15.6 9.6c-2.3 0-4.4-.8-6.1-2.1-2.3-1.8-3.8-4.6-3.8-7.8 0-5.5 4.4-9.9 9.8-9.9s9.8 4.4 9.8 9.8-4.3 10-9.7 10z" fill="#ff5a00"/></svg>