<svg enable-background="new 0 0 60 60" height="60" viewBox="0 0 60 60" width="60" xmlns="http://www.w3.org/2000/svg"><path d="m1.1 21.2h57.7v17.5h-57.7z" fill="#c12127"/><path d="m1.6 23.6h2.6v.7h-2.6z" fill="#fff"/><path d="m4.3 23.6h3.2v.7h-3.2z" fill="#fff"/><path d="m4.3 28.8h3.2v.3h-3.2z" fill="#fff"/><path d="m1.6 28.8h2.6v.3h-2.6z" fill="#fff"/><path d="m7.6 23.6h5.5v.7h-5.5z" fill="#184b7e"/><path d="m7.6 28.8h5.5v.3h-5.5z" fill="#184b7e"/><g fill="#c52921"><path d="m13.2 23.6h3.6v.7h-3.6z"/><path d="m13.2 28.8h3.6v.3h-3.6z"/><path d="m16.9 23.6h9.1v.7h-9.1z"/><path d="m16.9 28.8h9.1v.3h-9.1z"/><path d="m26.2 23.6h1.7v.7h-1.7z"/><path d="m26.2 28.8h1.7v.3h-1.7z"/><path d="m27.9 23.6h7.1v.7h-7.1z"/><path d="m27.9 28.8h7.1v.3h-7.1z"/><path d="m35.1 23.6h2.7v.7h-2.7z"/><path d="m35.1 28.8h2.7v.3h-2.7z"/><path d="m37.9 23.6h4.5v.7h-4.5z"/><path d="m37.9 28.8h4.5v.3h-4.5z"/><path d="m42.5 23.6h3.4v.7h-3.4z"/><path d="m42.5 28.8h3.4v.3h-3.4z"/></g><path d="m45.9 23.6h12.5v.7h-12.5z" fill="#174a7d"/><path d="m45.9 28.8h12.5v.3h-12.5z" fill="#174a7d"/><path d="m54.5 25.3h.9v.9h-.9z" fill="#fff"/><path d="m54.5 27.1h.9v.9h-.9z" fill="#fff"/><path d="m55.5 25.3h.9v.9h-.9z" fill="#fcff7d"/><path d="m56.5 25.3h.9v.9h-.9z" fill="#ff9f5c"/><path d="m52.2 27.1h.9v.9h-.9z" fill="#fff"/><path d="m53.1 27.1h.9v.9h-.9z" fill="#fff"/><path d="m50.3 27.1h.9v.9h-.9z" fill="#fff"/><path d="m51.2 27.1h.9v.9h-.9z" fill="#fff"/><path d="m48.4 27.1h.9v.9h-.9z" fill="#fff"/><path d="m49.3 27.1h.9v.9h-.9z" fill="#fff"/><path d="m52.2 25.3h.9v.9h-.9z" fill="#fff"/><path d="m53.1 25.3h.9v.9h-.9z" fill="#fff"/><path d="m50.3 25.3h.9v.9h-.9z" fill="#fff"/><path d="m51.2 25.3h.9v.9h-.9z" fill="#fff"/><path d="m49.3 25.3h.9v.9h-.9z" fill="#fff"/><path d="m46.5 27.1h.9v.9h-.9z" fill="#fff"/><path d="m47.4 27.1h.9v.9h-.9z" fill="#fff"/><path d="m56.5 27.1h.9v.9h-.9z" fill="#ff9f5c"/><path d="m46.5 24.9h1.8v1.1h-1.8z" fill="#492e33"/><path d="m2.4 26h.7v1h-.7z" fill="#3a3a3a"/><path d="m6.9 34.8h-1.9c-.1 0-.1 0-.1-.1v-.9c0-.1 0-.1.1-.1h2c.1 0 .1 0 .1.1l-.2 1c.1 0 .1 0 0 0z" fill="#fff"/><path d="m7.5 24.3v4.5z" fill="#fff"/><path d="m4.2 24.3v4.5z" fill="#fff"/><path d="m13.2 24.3v4.5z" fill="#fff"/><path d="m16.9 24.3v4.5z" fill="#fff"/><path d="m26.1 24.3v4.5z" fill="#fff"/><path d="m27.9 24.3v4.5z" fill="#fff"/><path d="m35 24.3v4.4z" fill="#fff"/><path d="m37.8 24.3v4.4z" fill="#fff"/><path d="m42.4 24.3v4.4z" fill="#fff"/><path d="m45.9 24.3v4.3z" fill="#fff"/><path d="m10.2 27c-.1 0-.2-.1-.2-.2v-.8c0-.1.1-.2.2-.2s.2.1.2.2v.8c0 .1-.1.2-.2.2z" fill="#3a3a3a"/><path d="m9.5 27c-.1 0-.2-.1-.2-.2v-.8c0-.1.1-.2.2-.2s.2.1.2.2v.8c0 .1 0 .2-.2.2z" fill="#3a3a3a"/><path d="m5.3 36.3h3v.4h-3z" fill="#3a3a3a"/><path d="m6.8 36.2c.2 0 .3.1.3.3s-.1.3-.3.3-.3-.1-.3-.3.1-.3.3-.3z" fill="#3a3a3a"/><circle cx="9.5" cy="26" fill="#fff" r=".2"/><path d="m16 26.9c-.1 0-.2-.1-.2-.2v-.7c0-.1.1-.2.2-.2s.2.1.2.2v.8c0 .1-.1.1-.2.1z" fill="#3a3a3a"/><circle cx="16" cy="26" fill="#fff" r=".2"/><path d="m19.8 26.9c-.1 0-.2-.1-.2-.2v-.7c0-.1.1-.2.2-.2s.2.1.2.2v.8c0 .1-.1.1-.2.1z" fill="#3a3a3a"/><path d="m19.7 25.9c.1 0 .2.1.2.2s-.1.2-.2.2-.2-.1-.2-.2.1-.2.2-.2z" fill="#fff"/><path d="m35.5 27c-.1 0-.2-.1-.2-.2v-.8c0-.1.1-.2.2-.2s.2.1.2.2v.8c0 .1-.1.2-.2.2z" fill="#3a3a3a"/><path d="m35.5 25.9c.1 0 .2.1.2.2s-.1.2-.2.2-.2-.1-.2-.2.1-.2.2-.2z" fill="#fff"/><path d="m10.2 26.1c.1 0 .2.1.2.2s-.1.2-.2.2-.2-.1-.2-.2.1-.2.2-.2z" fill="#fff"/><path d="m23.8 25.8h2.1z" fill="#fff"/><path d="m23.8 26h2.1z" fill="#fff"/><path d="m23.8 26.2h2.1z" fill="#fff"/><path d="m23.8 26.4h2.1z" fill="#fff"/><path d="m23.8 26.6h2.1z" fill="#fff"/><path d="m23.8 26.8h2.1z" fill="#fff"/><path d="m23.8 27h2.1z" fill="#fff"/><path d="m23.8 27.2h2.1z" fill="#fff"/><path d="m23.8 27.4h2.1z" fill="#fff"/><path d="m23.8 27.5h2.1z" fill="#fff"/><path d="m23.8 25.6h2.1z" fill="#fff"/><path d="m24.4 28.4c-.1 0-.1-.1-.1-.1v-2.8c0-.1.1-.1.1-.1.1 0 .1.1.1.1v2.8z" fill="#070707"/><path d="m25.3 28.4c-.1 0-.1-.1-.1-.1v-2.8c0-.1.1-.1.1-.1.1 0 .1.1.1.1v2.8s0 .1-.1.1z" fill="#070707"/><path d="m24.8 27.4h-.8s-.1 0-.1-.1v-.3s0-.1.1-.1h.8s.1 0 .1.1z" fill="#050505"/><path d="m23.9 27.2h.9v.1h-.9z" fill="#fff"/><path d="m25.7 26.6h-.8s-.1 0-.1-.1v-.3s0-.1.1-.1h.8s.1 0 .1.1z" fill="#050505"/><path d="m24.8 26.4h.9v.1h-.9z" fill="#fff"/><path d="m10.8 25.8h2.1z" fill="#fff"/><path d="m10.8 26h2.1z" fill="#fff"/><path d="m10.8 26.2h2.1z" fill="#fff"/><path d="m10.8 26.4h2.1z" fill="#fff"/><path d="m10.8 26.6h2.1z" fill="#fff"/><path d="m10.8 26.8h2.1z" fill="#fff"/><path d="m10.8 27h2.1z" fill="#fff"/><path d="m10.8 27.2h2.1z" fill="#fff"/><path d="m10.8 27.4h2.1z" fill="#fff"/><path d="m10.8 27.5h2.1z" fill="#fff"/><path d="m10.8 25.6h2.1z" fill="#fff"/><path d="m11.4 28.3c-.1 0-.1-.1-.1-.1v-2.8c0-.1.1-.1.1-.1.1 0 .1.1.1.1v2.8c0 .1-.1.1-.1.1z" fill="#070707"/><path d="m12.3 28.3c-.1 0-.1-.1 0 0l-.1-2.9c0-.1.1-.1.1-.1.1 0 .1.1.1.1v2.8c0 .1 0 .1-.1.1z" fill="#070707"/><path d="m11.8 27.4h-.8s-.1 0-.1-.1v-.3s0-.1.1-.1h.8s.1 0 .1.1l-.1.4c0-.1 0 0 0 0z" fill="#050505"/><path d="m10.9 27.2h.9v.1h-.9z" fill="#fff"/><path d="m12.7 26.6h-.8s-.1 0-.1-.1v-.3s0-.1.1-.1h.8s.1 0 .1.1z" fill="#050505"/><path d="m11.8 26.4h.9v.1h-.9z" fill="#fff"/><path d="m13.4 25.8h2.1z" fill="#fff"/><path d="m13.4 26h2.1z" fill="#fff"/><path d="m13.4 26.2h2.1z" fill="#fff"/><path d="m13.4 26.4h2.1z" fill="#fff"/><path d="m13.4 26.6h2.1z" fill="#fff"/><path d="m13.4 26.8h2.1z" fill="#fff"/><path d="m13.4 27h2.1z" fill="#fff"/><path d="m13.4 27.2h2.1z" fill="#fff"/><path d="m13.4 27.4h2.1z" fill="#fff"/><path d="m13.4 27.5h2.1z" fill="#fff"/><path d="m13.4 25.6h2.1z" fill="#fff"/><path d="m14 28.3c-.1 0-.1-.1-.1-.1v-2.8c0-.1.1-.1.1-.1.1 0 .1.1.1.1v2.8c.1.1 0 .1-.1.1z" fill="#070707"/><path d="m15 28.3c-.1 0-.1-.1-.1-.1v-2.8c0-.1.1-.1.1-.1.1 0 .1.1.1.1v2.8c0 .1-.1.1-.1.1z" fill="#070707"/><path d="m14.4 27.4h-.8s-.1 0-.1-.1v-.3s0-.1.1-.1h.8s.1 0 .1.1l-.1.4c.1-.1.1 0 0 0z" fill="#050505"/><path d="m13.6 27.2h.9v.1h-.9z" fill="#fff"/><path d="m15.4 26.6h-.8s-.1 0-.1-.1v-.3s0-.1.1-.1h.8s.1 0 .1.1z" fill="#050505"/><path d="m14.5 26.4h.9v.1h-.9z" fill="#fff"/><path d="m17.2 25.8h2.1z" fill="#fff"/><path d="m17.2 26h2.1z" fill="#fff"/><path d="m17.2 26.2h2.1z" fill="#fff"/><path d="m17.2 26.4h2.1z" fill="#fff"/><path d="m17.2 26.6h2.1z" fill="#fff"/><path d="m17.2 26.8h2.1z" fill="#fff"/><path d="m17.2 27h2.1z" fill="#fff"/><path d="m17.2 27.2h2.1z" fill="#fff"/><path d="m17.2 27.4h2.1z" fill="#fff"/><path d="m17.2 27.6h2.1z" fill="#fff"/><path d="m17.2 25.7h2.1z" fill="#fff"/><path d="m17.8 28.4c-.1 0-.1-.1-.1-.1v-2.8c0-.1.1-.1.1-.1.1 0 .1.1.1.1v2.8z" fill="#070707"/><path d="m18.7 28.4c-.1 0-.1-.1-.1-.1v-2.8c0-.1.1-.1.1-.1.1 0 .1.1.1.1v2.8s0 .1-.1.1z" fill="#070707"/><path d="m18.2 27.4h-.8s-.1 0-.1-.1v-.3s0-.1.1-.1h.8s.1 0 .1.1z" fill="#050505"/><path d="m17.3 27.2h.9v.1h-.9z" fill="#fff"/><path d="m19.1 26.6h-.8s-.1 0-.1-.1v-.3s0-.1.1-.1h.8s.1 0 .1.1z" fill="#050505"/><path d="m18.2 26.4h.9v.1h-.9z" fill="#fff"/><path d="m27 28.3c-.1 0-.1-.1-.1-.1v-2.8c0-.1.1-.1.1-.1l.1.1v2.8s0 .1-.1.1z" fill="#070707"/><path d="m27.4 26.5h-.8s-.1 0-.1-.1v-.3s0-.1.1-.1h.8s.1 0 .1.1z" fill="#050505"/><path d="m26.5 26.3h.9v.1h-.9z" fill="#fff"/><path d="m2.1 32.1h2.1z" fill="#fff"/><path d="m2.1 32.3h2.1z" fill="#fff"/><path d="m2.1 32.5h2.1z" fill="#fff"/><path d="m2.1 32.7h2.1z" fill="#fff"/><path d="m2.1 32.9h2.1z" fill="#fff"/><path d="m2.1 33.1h2.1z" fill="#fff"/><path d="m2.1 33.3h2.1z" fill="#fff"/><path d="m2.1 33.5h2.1z" fill="#fff"/><path d="m2.1 33.7h2.1z" fill="#fff"/><path d="m2.1 33.9h2.1z" fill="#fff"/><path d="m2.1 32h2.1z" fill="#fff"/><path d="m2.7 34.7c-.1 0-.1-.1 0 0l-.1-2.9c0-.1.1-.1.1-.1.1 0 .1.1.1.1l-.1 2.9c.1-.1.1 0 0 0z" fill="#070707"/><path d="m3.6 34.7c-.1 0-.1-.1 0 0l-.1-2.9c0-.1.1-.1.1-.1l.1.1-.1 2.9c.2-.1.1 0 0 0z" fill="#070707"/><path d="m3.1 33.7h-.8s-.1 0-.1-.1v-.3s0-.1.1-.1h.8s.1 0 .1.1z" fill="#050505"/><path d="m2.2 33.5h.9v.1z" fill="#fff"/><path d="m4 32.9h-.8s-.1 0-.1-.1v-.3s0-.1.1-.1h.8s.1 0 .1.1l-.1.4c.1 0 .1 0 0 0z" fill="#050505"/><path d="m3.2 32.7h.9v.1z" fill="#fff"/><path d="m28.1 25.9h2.1z" fill="#fff"/><path d="m28.1 26h2.1z" fill="#fff"/><path d="m28.1 26.2h2.1z" fill="#fff"/><path d="m28.1 26.4h2.1z" fill="#fff"/><path d="m28.1 26.6h2.1z" fill="#fff"/><path d="m28.1 26.8h2.1z" fill="#fff"/><path d="m28.1 27h2.1z" fill="#fff"/><path d="m28.1 27.2h2.1z" fill="#fff"/><path d="m28.1 27.4h2.1z" fill="#fff"/><path d="m28.1 27.6h2.1z" fill="#fff"/><path d="m28.1 25.7h2.1z" fill="#fff"/><path d="m28.7 28.4c-.1 0-.1-.1-.1-.1v-2.8c0-.1.1-.1.1-.1l.1.1v2.8z" fill="#070707"/><path d="m29.6 28.4c-.1 0-.1-.1-.1-.1v-2.8c0-.1.1-.1.1-.1l.1.1v2.8s0 .1-.1.1z" fill="#070707"/><path d="m29.1 27.7h-.8s-.1 0-.1-.1v-.3s0-.1.1-.1h.8s.1 0 .1.1z" fill="#050505"/><path d="m28.2 27.5h.9v.1h-.9z" fill="#fff"/><path d="m30 26.6h-.8s-.1 0-.1-.1v-.3s0-.1.1-.1h.8s.1 0 .1.1z" fill="#050505"/><path d="m29.2 26.4h.9v.1h-.9z" fill="#fff"/><path d="m7.1 31.5c.4 0 .7.3.7.7s-.3.7-.7.7-.7-.3-.7-.7.3-.7.7-.7z" fill="#3a3a3a"/><path d="m9 34c0 .1-.1.2-.2.2h-.8c-.1 0-.2-.1-.2-.2s.1-.2.2-.2h.8c.1 0 .2.1.2.2z" fill="#3a3a3a"/><path d="m1.2 30.3h57.7v.2h-57.7z" fill="#303030"/><path d="m20.6 38.5h-1.1c-.1 0-.1 0-.1-.1v-7.9h1.3z" fill="#fff"/><path d="m21.9 38.5h-1.1c-.1 0-.1 0-.1-.1v-7.9h1.3l-.1 8c.2 0 .1 0 0 0z" fill="#fff"/><path d="m23.3 38.5h-1.1c-.1 0-.1 0-.1-.1v-7.9h1.3l-.1 8c.1 0 .1 0 0 0z" fill="#fff"/><path d="m22.5 35.6h-.5s-.1 0-.1-.1v-4.9h.6v5c.1-.1.1 0 0 0z" fill="#020202"/><path d="m22.5 35.7h-.5c-.1 0-.2-.1-.2-.2v-5h.8v5c.1.1 0 .2-.1.2zm-.4-.2h.4v-4.7h-.4z" fill="#020202"/><path d="m20.9 35.6h-.5s-.1 0-.1-.1v-4.9h.7l-.1 5c.1-.1 0 0 0 0z" fill="#020202"/><path d="m20.9 35.7h-.5c-.1 0-.2-.1-.2-.2v-5h.8v5c.1.1 0 .2-.1.2zm-.4-.2h.4v-4.7h-.4z" fill="#020202"/><path d="m24.7 38.5h-1.1c-.1 0-.1 0-.1-.1v-7.9h1.3z" fill="#fff"/><path d="m26 38.5h-1.1c-.1 0-.1 0-.1-.1v-7.9h1.3l-.1 8c.1 0 .1 0 0 0z" fill="#fff"/><path d="m27.4 38.5h-1.1c-.1 0-.1 0-.1-.1v-7.9h1.3z" fill="#fff"/><path d="m24.9 35.6h-.5s-.1 0-.1-.1v-4.9h.7l-.1 5c.1-.1.1 0 0 0z" fill="#020202"/><path d="m24.9 35.7h-.5c-.1 0-.2-.1-.2-.2v-5h.8v5c.1.1 0 .2-.1.2zm-.4-.2h.4v-4.7h-.4z" fill="#020202"/><path d="m28.7 38.5h-1.1c-.1 0-.1 0-.1-.1v-7.9h1.3l-.1 8c.2 0 .1 0 0 0z" fill="#fff"/><path d="m30.1 38.5h-1.1c-.1 0-.1 0-.1-.1v-7.9h1.3l-.1 8c.1 0 .1 0 0 0z" fill="#fff"/><path d="m31.5 38.5h-1.1c-.1 0-.1 0-.1-.1v-7.9h1.3z" fill="#fff"/><path d="m32.8 38.5h-1.1c-.1 0-.1 0-.1-.1v-7.9h1.3l-.1 8c.1 0 .1 0 0 0z" fill="#fff"/><path d="m34.2 38.5h-1.1c-.1 0-.1 0-.1-.1v-7.9h1.3z" fill="#fff"/><path d="m35.5 38.5h-1.1c-.1 0-.1 0-.1-.1v-7.9h1.3l-.1 8c.1 0 .1 0 0 0z" fill="#fff"/><path d="m28 35.6h-.5s-.1 0-.1-.1v-4.9h.6v5c.1-.1 0 0 0 0z" fill="#020202"/><path d="m28 35.7h-.5c-.1 0-.2-.1-.2-.2v-5h.8v5c.1.1 0 .2-.1.2zm-.5-.2h.5v-4.7h-.4v4.7z" fill="#020202"/><path d="m30.4 35.6h-.4s-.1 0-.1-.1v-4.9h.6l-.1 5c.1-.1.1 0 0 0z" fill="#020202"/><path d="m30.4 35.7h-.4c-.1 0-.2-.1-.2-.2v-5h.8v5c0 .1-.1.2-.2.2zm-.4-.2h.4v-4.7h-.4z" fill="#020202"/><path d="m32.1 35.6h-.5s-.1 0-.1-.1v-4.9h.6v5c.1-.1 0 0 0 0z" fill="#020202"/><path d="m32.1 35.7h-.5c-.1 0-.2-.1-.2-.2v-5h.8v5c.1.1 0 .2-.1.2zm-.5-.2h.4v-4.7h-.4z" fill="#020202"/><path d="m34.4 35.6h-.5s-.1 0-.1-.1v-4.9h.6v5c.1-.1.1 0 0 0z" fill="#020202"/><path d="m34.4 35.7h-.5c-.1 0-.2-.1-.2-.2v-5h.8v5c.1.1 0 .2-.1.2zm-.4-.2h.4v-4.7h-.4z" fill="#020202"/><path d="m26.5 35.6h-.5s-.1 0-.1-.1v-4.9h.6v5c.1-.1 0 0 0 0z" fill="#020202"/><path d="m26.5 35.7h-.5c-.1 0-.2-.1-.2-.2v-5h.8v5c.1.1 0 .2-.1.2zm-.5-.2h.4v-4.7h-.4z" fill="#020202"/><path d="m36.9 38.5h-1.1c-.1 0-.1 0-.1-.1v-7.9h1.3l-.1 8c.1 0 .1 0 0 0z" fill="#fff"/><path d="m38.3 38.5h-1.1c-.1 0-.1 0-.1-.1v-7.9h1.3v7.9c0 .1-.1.1-.1.1z" fill="#fff"/><path d="m39.6 38.5h-1.1c-.1 0-.1 0-.1-.1v-7.9h1.3v7.9c0 .1 0 .1-.1.1z" fill="#fff"/><path d="m41 38.5h-1.1c-.1 0-.1 0-.1-.1v-7.9h1.3z" fill="#fff"/><path d="m42.3 38.5h-1.1c-.1 0-.1 0-.1-.1v-7.9h1.3v7.9c0 .1 0 .1-.1.1z" fill="#fff"/><path d="m43.7 38.5h-1.1c-.1 0-.1 0-.1-.1v-7.9h1.3l-.1 8c.1 0 .1 0 0 0z" fill="#fff"/><path d="m45.1 38.5h-1.1c-.1 0-.1 0-.1-.1v-7.9h1.3v7.9c0 .1-.1.1-.1.1z" fill="#fff"/><path d="m46.4 38.5h-1.1c-.1 0-.1 0-.1-.1v-7.9h1.3l-.1 8c.1 0 .1 0 0 0z" fill="#fff"/><path d="m47.8 38.5h-1.1c-.1 0-.1 0-.1-.1v-7.9h1.3v7.9c0 .1-.1.1-.1.1z" fill="#fff"/><path d="m58.7 38.5h-1.1c-.1 0-.1 0-.1-.1v-7.9h1.3z" fill="#fff"/><path d="m36 35.6h-.5s-.1 0-.1-.1v-4.9h.6v5c.1-.1 0 0 0 0z" fill="#020202"/><path d="m36 35.7h-.5c-.1 0-.2-.1-.2-.2v-5h.8v5c.1.1 0 .2-.1.2zm-.4-.2h.4v-4.7h-.4z" fill="#020202"/><path d="m37.5 35.6h-.5s-.1 0-.1-.1v-4.9h.6v5c.1-.1.1 0 0 0z" fill="#020202"/><path d="m37.5 35.7h-.5c-.1 0-.2-.1-.2-.2v-5h.8v5c.1.1 0 .2-.1.2zm-.4-.2h.4v-4.7h-.4z" fill="#020202"/><path d="m39.8 35.6h-.5s-.1 0-.1-.1v-4.9h.6v5c.1-.1.1 0 0 0z" fill="#020202"/><path d="m39.8 35.7h-.5c-.1 0-.2-.1-.2-.2v-5h.9v5c0 .1-.1.2-.2.2zm-.4-.2h.4v-4.7h-.4z" fill="#020202"/><path d="m41.5 35.6h-.5s-.1 0-.1-.1v-4.9h.6v5c.1-.1.1 0 0 0z" fill="#020202"/><path d="m41.5 35.7h-.5c-.1 0-.2-.1-.2-.2v-5h.8v5c.1.1 0 .2-.1.2zm-.4-.2h.4v-4.7h-.4z" fill="#020202"/><path d="m43.8 35.6h-.5s-.1 0-.1-.1v-4.9h.6v5c.1-.1.1 0 0 0z" fill="#020202"/><path d="m43.8 35.7h-.5c-.1 0-.2-.1-.2-.2v-5h.9v5c0 .1-.1.2-.2.2zm-.4-.2h.4v-4.7h-.4z" fill="#020202"/><path d="m45.4 35.6h-.4s-.1 0-.1-.1v-4.9h.6l-.1 5c.1-.1.1 0 0 0z" fill="#020202"/><path d="m45.4 35.7h-.4c-.1 0-.2-.1-.2-.2v-5h.8v5c0 .1-.1.2-.2.2zm-.4-.2h.4v-4.7h-.4z" fill="#020202"/><path d="m47 35.6h-.5s-.1 0-.1-.1v-4.9h.6v5c0-.1 0 0 0 0z" fill="#020202"/><path d="m47 35.7h-.5c-.1 0-.2-.1-.2-.2v-5h.8v5c0 .1 0 .2-.1.2zm-.5-.2h.4v-4.7h-.4z" fill="#020202"/><path d="m15.1 38.5h-1.1c-.1 0-.1 0-.1-.1v-7.9h1.3l-.1 8c.2 0 .1 0 0 0z" fill="#fff"/><path d="m16.5 38.5h-1.1c-.1 0-.1 0-.1-.1v-7.9h1.3l-.1 8c.1 0 .1 0 0 0z" fill="#fff"/><path d="m17.9 38.5h-1.1c-.1 0-.1 0-.1-.1v-7.9h1.3z" fill="#fff"/><path d="m19.2 38.5h-1.1c-.1 0-.1 0-.1-.1v-7.9h1.3l-.1 8c.1 0 .1 0 0 0z" fill="#fff"/><path d="m15.3 35.6h-.5s-.1 0-.1-.1v-4.9h.6v5c.1-.1.1 0 0 0z" fill="#020202"/><path d="m15.3 35.7h-.5c-.1 0-.2-.1-.2-.2v-5h.8v5c.1.1 0 .2-.1.2zm-.4-.2h.4v-4.7h-.4z" fill="#020202"/><path d="m16.9 35.6h-.5s-.1 0-.1-.1v-4.9h.7l-.1 5c.1-.1.1 0 0 0z" fill="#020202"/><path d="m16.9 35.7h-.5c-.1 0-.2-.1-.2-.2v-5h.8v5c.1.1 0 .2-.1.2zm-.4-.2h.4v-4.7h-.4z" fill="#020202"/><path d="m18.5 35.6h-.5s-.1 0-.1-.1v-4.9h.6v5c0-.1 0 0 0 0z" fill="#020202"/><path d="m18.5 35.7h-.5c-.1 0-.2-.1-.2-.2v-5h.8v5c0 .1 0 .2-.1.2zm-.5-.2h.4v-4.7h-.4z" fill="#020202"/><path d="m11.1 38.5h-1.1c-.1 0-.1 0-.1-.1v-7.9h1.3z" fill="#fff"/><path d="m12.4 38.5h-1.1c-.1 0-.1 0-.1-.1v-7.9h1.3l-.1 8c.1 0 .1 0 0 0z" fill="#fff"/><path d="m13.8 38.5h-1.1c-.1 0-.1 0-.1-.1v-7.9h1.3z" fill="#fff"/><path d="m13 35.6h-.5s-.1 0-.1-.1v-4.9h.6v5c.1-.1.1 0 0 0z" fill="#020202"/><path d="m13 35.7h-.5c-.1 0-.2-.1-.2-.2v-5h.8v5c.1.1 0 .2-.1.2zm-.4-.2h.4v-4.7h-.4z" fill="#020202"/><path d="m11.4 35.6h-.5s-.1 0-.1-.1v-4.9h.6v5c0-.1 0 0 0 0z" fill="#020202"/><path d="m11.4 35.7h-.5c-.1 0-.2-.1-.2-.2v-5h.8v5c.1.1 0 .2-.1.2zm-.5-.2h.4v-4.7h-.4z" fill="#020202"/><path d="m53.2 38.5h-1.1c-.1 0-.1 0-.1-.1v-7.9h1.3l-.1 8c.1 0 .1 0 0 0z" fill="#fff"/><path d="m54.6 38.5h-1.1c-.1 0-.1 0-.1-.1v-7.9h1.3v7.9c0 .1-.1.1-.1.1z" fill="#fff"/><path d="m55.9 38.5h-1.1c-.1 0-.1 0-.1-.1v-7.9h1.3l-.1 8c.1 0 .1 0 0 0z" fill="#fff"/><path d="m57.3 38.5h-1.1c-.1 0-.1 0-.1-.1v-7.9h1.3v7.9c0 .1 0 .1-.1.1z" fill="#fff"/><path d="m53.4 35.6h-.5s-.1 0-.1-.1v-4.9h.6v5c.1-.1.1 0 0 0z" fill="#020202"/><path d="m53.4 35.7h-.5c-.1 0-.2-.1-.2-.2v-5h.8v5c.1.1 0 .2-.1.2zm-.4-.2h.4v-4.7h-.4z" fill="#020202"/><path d="m55 35.6h-.5s-.1 0-.1-.1v-4.9h.6v5c.1-.1 0 0 0 0z" fill="#020202"/><path d="m55 35.7h-.5c-.1 0-.2-.1-.2-.2v-5h.8v5c.1.1 0 .2-.1.2zm-.4-.2h.4v-4.7h-.4z" fill="#020202"/><path d="m56.5 35.6h-.5s-.1 0-.1-.1v-4.9h.6v5c.1-.1.1 0 0 0z" fill="#020202"/><path d="m56.5 35.7h-.5c-.1 0-.2-.1-.2-.2v-5h.8v5c.1.1 0 .2-.1.2zm-.4-.2h.4v-4.7h-.4z" fill="#020202"/><path d="m49.1 38.5h-1.1c-.1 0-.1 0-.1-.1v-7.9h1.3v7.9c0 .1 0 .1-.1.1z" fill="#fff"/><path d="m50.5 38.5h-1.1c-.1 0-.1 0-.1-.1v-7.9h1.3l-.1 8c.1 0 .1 0 0 0z" fill="#fff"/><path d="m51.9 38.5h-1.1c-.1 0-.1 0-.1-.1v-7.9h1.3z" fill="#fff"/><path d="m51.1 35.6h-.5s-.1 0-.1-.1v-4.9h.6v5c.1-.1 0 0 0 0z" fill="#020202"/><path d="m51.1 35.7h-.5c-.1 0-.2-.1-.2-.2v-5h.8v5c.1.1 0 .2-.1.2zm-.5-.2h.4v-4.7h-.4z" fill="#020202"/><path d="m49.5 35.6h-.5s-.1 0-.1-.1v-4.9h.6v5c0-.1 0 0 0 0z" fill="#020202"/><path d="m49.5 35.7h-.5c-.1 0-.2-.1-.2-.2v-5h.8v5c0 .1 0 .2-.1.2zm-.5-.2h.4v-4.7h-.4z" fill="#020202"/><path d="m42.8 26.3h.9v.9h-.9z" fill="#fff"/><path d="m43.7 26.3h.9v.9h-.9z" fill="#fcff7d"/><path d="m44.7 26.3h.9v.9h-.9z" fill="#ff9f5c"/><path d="m44.2 25.6c.1 0 .2.1.2.2s-.1.2-.2.2-.2-.1-.2-.2.1-.2.2-.2z" fill="#661e1e"/><path d="m45.2 25.6c.1 0 .2.1.2.2s-.1.2-.2.2-.2-.1-.2-.2.1-.2.2-.2z" fill="#661e1e"/><path d="m56 24.7c.1 0 .2.1.2.2s-.1.2-.2.2-.2-.1-.2-.2.1-.2.2-.2z" fill="#661e1e"/><path d="m55 24.7c.1 0 .2.1.2.2s-.1.2-.2.2-.2-.1-.2-.2.1-.2.2-.2z" fill="#661e1e"/><path d="m56.9 24.7c.1 0 .2.1.2.2s-.1.2-.2.2-.2-.1-.2-.2.1-.2.2-.2z" fill="#661e1e"/><path d="m20.5 26.1h.9v.9h-.9z" fill="#fff"/><path d="m21.5 26.1h.9v.9h-.9z" fill="#fcff7d"/><path d="m22.4 26.1h.9v.9h-.9z" fill="#ff9f5c"/><path d="m22 25.5c.1 0 .2.1.2.2s-.1.2-.2.2-.2-.1-.2-.2.1-.2.2-.2z" fill="#661e1e"/><path d="m21 25.5c.1 0 .2.1.2.2s-.1.2-.2.2-.2-.1-.2-.2.1-.2.2-.2z" fill="#661e1e"/><path d="m22.9 25.5c.1 0 .2.1.2.2s-.1.2-.2.2-.2-.1-.2-.2.1-.2.2-.2z" fill="#661e1e"/><path d="m6.1 26.1h.9v.9h-.9z" fill="#fff"/><path d="m8.1 26.1h.9v.9h-.9z" fill="#ff9f5c"/><path d="m6.6 25.5c.1 0 .2.1.2.2s-.1.2-.2.2-.2-.1-.2-.2.1-.2.2-.2z" fill="#661e1e"/><path d="m4.7 26.1h.9v.9h-.9z" fill="#fff"/><path d="m5.2 25.5c.1 0 .2.1.2.2s-.1.2-.2.2-.2-.1-.2-.2.1-.2.2-.2z" fill="#661e1e"/><path d="m8.5 25.5c.1 0 .2.1.2.2s-.1.2-.2.2-.2-.1-.2-.2.1-.2.2-.2z" fill="#661e1e"/><path d="m36 25.8h1.7z" fill="#fff"/><path d="m36 26h1.7z" fill="#fff"/><path d="m36 26.2h1.7z" fill="#fff"/><path d="m36 26.4h1.7z" fill="#fff"/><path d="m36 26.6h1.7z" fill="#fff"/><path d="m36 26.8h1.7z" fill="#fff"/><path d="m36 27h1.7z" fill="#fff"/><path d="m36 27.2h1.7z" fill="#fff"/><path d="m36 27.4h1.7z" fill="#fff"/><path d="m36 27.5h1.7z" fill="#fff"/><path d="m36 25.6h1.7z" fill="#fff"/><path d="m36.8 28.4c-.1 0-.1-.1-.1-.1v-2.8c0-.1.1-.1.1-.1l.1.1v2.8s0 .1-.1.1z" fill="#070707"/><path d="m37.1 26.6h-.8s-.1 0-.1-.1v-.3s0-.1.1-.1h.8s.1 0 .1.1z" fill="#050505"/><path d="m36.2 26.4h.9v.1h-.9z" fill="#fff"/><path d="m38.1 25.8h2.1z" fill="#fff"/><path d="m38.1 26h2.1z" fill="#fff"/><path d="m38.1 26.2h2.1z" fill="#fff"/><path d="m38.1 26.4h2.1z" fill="#fff"/><path d="m38.1 26.6h2.1z" fill="#fff"/><path d="m38.1 26.8h2.1z" fill="#fff"/><path d="m38.1 27h2.1z" fill="#fff"/><path d="m38.1 27.2h2.1z" fill="#fff"/><path d="m38.1 27.3h2.1z" fill="#fff"/><path d="m38.1 27.5h2.1z" fill="#fff"/><path d="m38.1 25.6h2.1z" fill="#fff"/><path d="m38.7 28.3c-.1 0-.1-.1-.1-.1v-2.8c0-.1.1-.1.1-.1.1 0 .1.1.1.1z" fill="#070707"/><path d="m39.6 28.3c-.1 0-.1-.1 0 0l-.1-2.9c0-.1.1-.1.1-.1l.1.1v2.8c0 .1 0 .1-.1.1z" fill="#070707"/><path d="m39.1 27.4h-.8s-.1 0-.1-.1v-.3s0-.1.1-.1h.8s.1 0 .1.1l-.1.4c0-.1 0 0 0 0z" fill="#050505"/><path d="m38.2 27.2h.9v.1h-.9z" fill="#fff"/><path d="m40 26.6h-.8s-.1 0-.1-.1v-.3s0-.1.1-.1h.8s.1 0 .1.1z" fill="#050505"/><path d="m39.1 26.4h.9v.1h-.9z" fill="#fff"/><path d="m40.1 25.8h2.1z" fill="#fff"/><path d="m40.1 26h2.1z" fill="#fff"/><path d="m40.1 26.2h2.1z" fill="#fff"/><path d="m40.1 26.4h2.1z" fill="#fff"/><path d="m40.1 26.6h2.1z" fill="#fff"/><path d="m40.1 26.8h2.1z" fill="#fff"/><path d="m40.1 27h2.1z" fill="#fff"/><path d="m40.1 27.2h2.1z" fill="#fff"/><path d="m40.1 27.3h2.1z" fill="#fff"/><path d="m40.1 27.5h2.1z" fill="#fff"/><path d="m40.1 25.6h2.1z" fill="#fff"/><path d="m40.7 28.3c-.1 0-.1-.1-.1-.1v-2.8c0-.1.1-.1.1-.1l.1.1-.1 2.9c.1 0 .1 0 0 0z" fill="#070707"/><path d="m41.6 28.3c-.1 0-.1-.1 0 0l-.1-2.9c0-.1.1-.1.1-.1l.1.1v2.8c.1.1 0 .1-.1.1z" fill="#070707"/><path d="m41.1 27.4h-.8s-.1 0-.1-.1v-.3s0-.1.1-.1h.8s.1 0 .1.1l-.1.4c.1-.1 0 0 0 0z" fill="#050505"/><path d="m40.3 27.2h.9v.1h-.9z" fill="#fff"/><path d="m42 26.6h-.8s-.1 0-.1-.1v-.3s0-.1.1-.1h.8s.1 0 .1.1l-.1.4c.1 0 .1 0 0 0z" fill="#050505"/><path d="m41.2 26.4h.9v.1h-.9z" fill="#fff"/><path d="m32.8 25.8h2.1z" fill="#fff"/><path d="m32.8 26h2.1z" fill="#fff"/><path d="m32.8 26.1h2.1z" fill="#fff"/><path d="m32.8 26.3h2.1z" fill="#fff"/><path d="m32.8 26.5h2.1z" fill="#fff"/><path d="m32.8 26.7h2.1z" fill="#fff"/><path d="m32.8 26.9h2.1z" fill="#fff"/><path d="m32.8 27.1h2.1z" fill="#fff"/><path d="m32.8 27.3h2.1z" fill="#fff"/><path d="m32.8 27.5h2.1z" fill="#fff"/><path d="m32.8 25.6h2.1z" fill="#fff"/><path d="m33.4 28.3c-.1 0-.1-.1-.1-.1v-2.8c0-.1.1-.1.1-.1l.1.1z" fill="#070707"/><path d="m34.3 28.3c-.1 0-.1-.1 0 0l-.1-2.9c0-.1.1-.1.1-.1.1 0 .1.1.1.1v2.8s0 .1-.1.1z" fill="#070707"/><path d="m33.8 27.3h-.8s-.1 0-.1-.1v-.2s0-.1.1-.1h.8s.1 0 .1.1z" fill="#050505"/><path d="m32.9 27.1h.9v.1h-.9z" fill="#fff"/><path d="m34.7 26.6h-.8s-.1 0-.1-.1v-.3s0-.1.1-.1h.8s.1 0 .1.1l-.1.4c0-.1 0 0 0 0z" fill="#050505"/><path d="m33.9 26.3h.9v.1h-.9z" fill="#fff"/><path d="m31.1 25.8h1.7z" fill="#fff"/><path d="m31.1 26h1.7z" fill="#fff"/><path d="m31.1 26.1h1.7z" fill="#fff"/><path d="m31.1 26.3h1.7z" fill="#fff"/><path d="m31.1 26.5h1.7z" fill="#fff"/><path d="m31.1 26.7h1.7z" fill="#fff"/><path d="m31.1 26.9h1.7z" fill="#fff"/><path d="m31.1 27.1h1.7z" fill="#fff"/><path d="m31.1 27.3h1.7z" fill="#fff"/><path d="m31.1 27.5h1.7z" fill="#fff"/><path d="m31.1 25.6h1.7z" fill="#fff"/><path d="m31.9 28.3c-.1 0-.1-.1-.1-.1v-2.8c0-.1.1-.1.1-.1.1 0 .1.1.1.1l-.1 2.9c.2-.1.1 0 0 0z" fill="#070707"/><path d="m32.3 26.6h-.8s-.1 0-.1-.1v-.3s0-.1.1-.1h.8s.1 0 .1.1l-.1.4c.1-.1 0 0 0 0z" fill="#050505"/><path d="m31.5 26.3h.9v.1h-.9z" fill="#fff"/><path d="m30.7 27c-.1 0-.2-.1-.2-.2v-.8c0-.1.1-.2.2-.2s.2.1.2.2v.8c0 .1-.1.2-.2.2z" fill="#3a3a3a"/><circle cx="30.7" cy="26.5" fill="#fff" r=".2"/><path d="m59.9 39h-1s-.1 0-.1-.1v-17.8s0-.1.1-.1h1s.1 0 .1.1l-.1 17.9c.1 0 .1 0 0 0z" fill="#b96722"/><path d="m1.1 39h-1c-.1 0-.1 0-.1-.1v-17.8c0-.1 0-.1.1-.1h1s.1 0 .1.1z" fill="#b96722"/><path d="m8.3 33.8c.1 0 .2.1.2.2s-.1.2-.2.2-.2-.1-.2-.2.1-.2.2-.2z" fill="#fff"/><path d="m6.5 31.7.1-.1.3.4v.1z" fill="#c52921"/></svg>