<svg enable-background="new 0 0 60 60" height="60" viewBox="0 0 60 60" width="60" xmlns="http://www.w3.org/2000/svg"><path d="m2 37.8h56c1.1 0 2-.9 2-2v-11.6c0-1.1-.9-2-2-2h-56c-1.1 0-2 .9-2 2v11.6c0 1.1.9 2 2 2zm52.8-14.1h1.3c.2 0 .4.2.4.4v8.1h-1.3v-4.4c0-.2-.2-.4-.4-.4h-.4v-3.3c0-.2.1-.4.4-.4zm-2.7 0h1.3c.2 0 .4.2.4.4v3.3h-.4c-.2 0-.4.2-.4.4v4.4h-.5v-4.4c0-.2-.2-.4-.4-.4h-.4v-3.3c0-.2.2-.4.4-.4zm-2.6 0h1.3c.2 0 .4.2.4.4v3.3h-.4c-.2 0-.4.2-.4.4v4.4h-.5v-4.4c0-.2-.2-.4-.4-.4h-.4v-3.3c0-.2.2-.4.4-.4zm-3 .4c0-.2.2-.4.4-.4h1.3c.2 0 .4.2.4.4v3.3h-.4c-.2 0-.4.2-.4.4v4.4h-1.3zm-2.3-.4h1.3c.2 0 .4.2.4.4v8.1h-1.3v-4.4c0-.2-.2-.4-.4-.4h-.4v-3.3c0-.2.2-.4.4-.4zm-2.6 0h1.3c.2 0 .4.2.4.4v3.3h-.4c-.2 0-.4.2-.4.4v4.4h-.5v-4.4c0-.2-.2-.4-.4-.4h-.4v-3.3c0-.2.1-.4.4-.4zm-2.6 0h1.3c.2 0 .4.2.4.4v3.3h-.4c-.2 0-.4.2-.4.4v4.4h-.5v-4.4c0-.2-.2-.4-.4-.4h-.4v-3.3c-.1-.2.1-.4.4-.4zm-3.1.4c0-.2.2-.4.4-.4h1.3c.2 0 .4.2.4.4v3.3h-.4c-.2 0-.4.2-.4.4v4.4h-1.3zm-2.3-.4h1.3c.2 0 .4.2.4.4v8.1h-1.3v-4.4c0-.2-.2-.4-.4-.4h-.4v-3.3c0-.2.2-.4.4-.4zm-2.6 0h1.3c.2 0 .4.2.4.4v3.3h-.4c-.2 0-.4.2-.4.4v4.4h-.5v-4.4c0-.2-.2-.4-.4-.4h-.4v-3.3c0-.2.2-.4.4-.4zm-2.6 0h1.3c.2 0 .4.2.4.4v3.3h-.4c-.2 0-.4.2-.4.4v4.4h-.5v-4.4c0-.2-.2-.4-.4-.4h-.4v-3.3c0-.2.2-.4.4-.4zm-3 .4c0-.2.2-.4.4-.4h1.3c.2 0 .4.2.4.4v3.3h-.4c-.2 0-.4.2-.4.4v4.4h-1.3zm-2.3-.4h1.3c.2 0 .4.2.4.4v8.1h-1.4v-4.4c0-.2-.2-.4-.4-.4h-.4v-3.3c0-.2.2-.4.5-.4zm-2.7 0h1.3c.2 0 .4.2.4.4v3.3h-.4c-.2 0-.4.2-.4.4v4.4h-.5v-4.4c0-.2-.2-.4-.4-.4h-.4v-3.3c0-.2.2-.4.4-.4zm-2.6 0h1.3c.2 0 .4.2.4.4v3.3h-.4c-.2 0-.4.2-.4.4v4.4h-.5v-4.4c0-.2-.2-.4-.4-.4h-.4v-3.3c0-.2.2-.4.4-.4zm-3 .4c0-.2.2-.4.4-.4h1.3c.2 0 .4.2.4.4v3.3h-.4c-.2 0-.4.2-.4.4v4.4h-1.3zm-2.3-.4h1.3c.2 0 .4.2.4.4v8.1h-1.3v-4.4c0-.2-.2-.4-.4-.4h-.4v-3.3c0-.2.2-.4.4-.4zm-2.6 0h1.3c.2 0 .4.2.4.4v3.3h-.4c-.2 0-.4.2-.4.4v4.4h-.5v-4.4c0-.2-.2-.4-.4-.4h-.5v-3.3c0-.2.2-.4.5-.4zm-2.7 0h1.3c.2 0 .4.2.4.4v3.3h-.4c-.2 0-.4.2-.4.4v4.4h-.5v-4.4c0-.2-.2-.4-.4-.4h-.4v-3.3c0-.2.2-.4.4-.4zm-3 .4c0-.2.2-.4.4-.4h1.3c.2 0 .4.2.4.4v3.3h-.4c-.2 0-.4.2-.4.4v4.4h-1.3z" fill="#00572c"/></svg>