<svg enable-background="new 0 0 60 60" height="60" viewBox="0 0 60 60" width="60" xmlns="http://www.w3.org/2000/svg"><path d="m58.9 12.8h-57.8c-.6 0-1.1.5-1.1 1.1v32.2c0 .6.5 1.1 1.1 1.1h57.7c.6 0 1.1-.5 1.1-1.1v-32.2c.1-.6-.4-1.1-1-1.1z" fill="#c12127"/><path d="m58.1 31.7h-56.1c-.5 0-.9-.4-.9-.9v-14.8c0-.5.4-.9.9-.9h56.1c.5 0 .9.4.9.9v14.8c0 .5-.4.9-.9.9z" fill="#1a1a1a"/><path d="m3.8 28.4v1.2c0 .1-.1.1-.1.1h-.5c-.1 0-.1-.1-.1-.1v-1.2c0-.1.1-.1.1-.1h.5s.1 0 .1.1z" fill="#f7931e"/><path d="m5.3 28.4v1.2c0 .1-.1.1-.1.1h-.5c-.1 0-.1-.1-.1-.1v-1.2c0-.1.1-.1.1-.1h.5s.1 0 .1.1z" fill="#999"/><path d="m6.8 28.4v1.2c0 .1-.1.1-.1.1h-.5c-.1 0-.1-.1-.1-.1v-1.2c0-.1.1-.1.1-.1h.5c.1 0 .1 0 .1.1z" fill="#999"/><path d="m6.7 20.4h-3.5c-.1 0-.1-.1-.1-.1v-.9c0-.1.1-.1.1-.1h3.5c.1 0 .1.1.1.1v.9c0 .1-.1.1-.1.1z" fill="#999"/><path d="m6.7 22.5h-3.5c-.1 0-.1-.1-.1-.1v-.9c0-.1.1-.1.1-.1h3.5c.1 0 .1.1.1.1v.9z" fill="#999"/><path d="m6.7 18.4h-3.5c-.1 0-.1-.1-.1-.1v-.9c0-.1.1-.1.1-.1h3.5c.1 0 .1.1.1.1v.9c0 .1-.1.1-.1.1z" fill="#999"/><path d="m7.3 25.5h-4.8c-.2 0-.4-.2-.4-.4v-8.3c0-.2.2-.4.4-.4h4.8c.2 0 .4.2.4.4v8.2c.1.3-.1.5-.4.5zm-4.8-9.1c-.2 0-.3.1-.3.3v8.3c0 .2.1.3.3.3h4.8c.2 0 .3-.1.3-.3v-8.3c0-.2-.1-.3-.3-.3z" fill="#999"/><path d="m6.7 24.5h-3.5c-.1 0-.1-.1-.1-.1v-.9c0-.1.1-.1.1-.1h3.5c.1 0 .1.1.1.1v.9c0 .1-.1.1-.1.1z" fill="#999"/><circle cx="28.2" cy="28.8" fill="#f7931e" r="1.1"/><circle cx="27.6" cy="28.2" fill="#e6e6e6" r=".2"/><circle cx="33.9" cy="26.1" fill="#999" r="1.1"/><circle cx="34.4" cy="26.7" fill="#e6e6e6" r=".2"/><circle cx="37" cy="26.1" fill="#999" r="1.1"/><path d="m37.2 25.3c0 .1-.1.2-.2.2s-.2-.1-.2-.2.1-.2.2-.2.2.1.2.2z" fill="#e6e6e6"/><circle cx="40.1" cy="26.1" fill="#999" r="1.1"/><circle cx="40.7" cy="25.5" fill="#e6e6e6" r=".2"/><circle cx="43.2" cy="26.1" fill="#999" r="1.1"/><circle cx="42.4" cy="26.1" fill="#e6e6e6" r=".2"/><path d="m10.1 17.8h12.8v5.8h-12.8z" fill="#29abe2"/><path d="m29 23.5c-2 0-3.5-1.6-3.5-3.5 0-2 1.6-3.5 3.5-3.5s3.5 1.6 3.5 3.5-1.6 3.5-3.5 3.5zm0-6.9c-1.9 0-3.4 1.5-3.4 3.4s1.5 3.4 3.4 3.4 3.4-1.5 3.4-3.4c-.1-1.9-1.6-3.4-3.4-3.4z" fill="#999"/><path d="m27.1 22h-.1v-.1-.1c.1-.1.2-.1.2 0v.1.1s0 0-.1 0z" fill="#999"/><path d="m26.3 20.8c0-.1 0-.2.1-.2s.2 0 .2.1 0 .2-.1.2 0 0-.1 0-.1 0-.1-.1zm5.1.1c-.1 0-.1-.1-.1-.2s.1-.1.2-.1.1.1.1.2-.1.1-.2.1zm-5.1-1.2c-.1 0-.2-.1-.1-.2 0-.1.1-.2.2-.1.1 0 .2.1.1.2 0 .1 0 .1-.2.1.1 0 .1 0 0 0zm5.1-.1c0-.1 0-.2.1-.2s.2 0 .2.1 0 .2-.1.2-.2 0-.2-.1zm-4.7-1c-.1-.1-.1-.2 0-.2.1-.1.2-.1.2 0 .1.1.1.2 0 .2s0 0-.2 0c.1 0 .1 0 0 0zm4.2-.1c-.1-.1 0-.2 0-.2.1-.1.2 0 .2 0 .1.1 0 .2 0 .2h-.1c0 .1 0 .1-.1 0zm-3.3-.8c0-.1 0-.2.1-.2s.2 0 .2.1 0 .2-.1.2h-.1s-.1 0-.1-.1zm2.5.1c-.1 0-.1-.1-.1-.2s.1-.1.2-.1.1.1.1.2-.1.1-.2.1zm-1.3-.5c0-.1.1-.2.2-.2s.2.1.2.2-.1.2-.2.2-.2-.1-.2-.2z" fill="#999"/><path d="m30.8 22h-.1v-.1-.1c.1-.1.2-.1.2 0v.1.1s0 0-.1 0z" fill="#999"/><ellipse cx="29" cy="19.9" fill="#999" rx="2" ry="2"/><ellipse cx="29" cy="19.9" fill="#808080" rx="1.3" ry="1.3"/><path d="m29.2 19c0 .2-.1.3-.3.3s-.3-.1-.3-.3.1-.3.3-.3.3.1.3.3z" fill="#e6e6e6"/><path d="m31 17.5-2 2.5 3.1-.8c-.2-.7-.6-1.3-1.1-1.7z" fill="#333"/><path d="m25.9 20.7c.2.7.5 1.3 1.1 1.7l2-2.5z" fill="#333"/><path d="m38.1 23.5c-2 0-3.5-1.6-3.5-3.5 0-2 1.6-3.5 3.5-3.5 2 0 3.5 1.6 3.5 3.5s-1.5 3.5-3.5 3.5zm0-6.9c-1.9 0-3.4 1.5-3.4 3.4s1.5 3.4 3.4 3.4 3.4-1.5 3.4-3.4-1.5-3.4-3.4-3.4z" fill="#999"/><path d="m36.3 22-.1-.1v-.1c.1-.1.2-.1.2 0v.1.1c-.1 0-.1 0-.1 0z" fill="#999"/><path d="m35.5 20.8c0-.1 0-.2.1-.2s.2 0 .2.1 0 .2-.1.2 0 0-.1 0-.1 0-.1-.1zm5 .1c-.1 0-.1-.1-.1-.2s.1-.1.2-.1.1.1.1.2 0 .1-.2.1c.1 0 .1 0 0 0zm-5-1.2c-.1 0-.2-.1-.1-.2 0-.1.1-.2.2-.1.1 0 .2.1.1.2 0 .1-.1.1-.2.1zm5-.1c0-.1 0-.2.1-.2s.2 0 .2.1 0 .2-.1.2-.2 0-.2-.1zm-4.6-1c-.1-.1-.1-.2 0-.2.1-.1.2-.1.2 0 .1.1.1.2 0 .2s-.1 0-.2 0zm4.2-.1c-.1-.1 0-.2 0-.2.1-.1.2 0 .2 0 .1.1 0 .2 0 .2h-.1c0 .1-.1.1-.1 0zm-3.3-.8c0-.1 0-.2.1-.2s.2 0 .2.1 0 .2-.1.2h-.1s-.1 0-.1-.1zm2.4.1c-.1 0-.1-.1-.1-.2s.1-.1.2-.1.1.1.1.2-.1.1-.2.1zm-1.3-.5c0-.1.1-.2.2-.2s.2.1.2.2-.1.2-.2.2-.2-.1-.2-.2z" fill="#999"/><path d="m40 22-.1-.1v-.1c.1-.1.2-.1.2 0v.1.1c-.1 0-.1 0-.1 0z" fill="#999"/><circle cx="38.1" cy="20" fill="#999" r="2"/><ellipse cx="38.1" cy="20" fill="#808080" rx="1.3" ry="1.3"/><path d="m38.4 19c0 .2-.1.3-.3.3s-.3-.1-.3-.3.1-.3.3-.3.3.1.3.3z" fill="#e6e6e6"/><path d="m40.1 17.5-2 2.5 3.1-.8c-.2-.7-.5-1.3-1.1-1.7z" fill="#333"/><path d="m35 20.7c.2.7.5 1.3 1.1 1.7l2-2.5z" fill="#333"/><path d="m11.6 26.7h-.6c-.5 0-.9-.4-.9-.9s.4-.9.9-.9h.6c.5 0 .9.4.9.9s-.4.9-.9.9z" fill="#29abe2"/><path d="m22 26.7h-.6c-.5 0-.9-.4-.9-.9s.4-.9.9-.9h.6c.5 0 .9.4.9.9-.1.5-.5.9-.9.9z" fill="#29abe2"/><path d="m11.6 29.6h-.6c-.5 0-.9-.4-.9-.9s.4-.9.9-.9h.6c.5 0 .9.4.9.9s-.4.9-.9.9z" fill="#29abe2"/><path d="m17.9 29.6h-2.8c-.5 0-.9-.4-.9-.9s.4-.9.9-.9h2.8c.5 0 .9.4.9.9s-.4.9-.9.9z" fill="#29abe2"/><path d="m22 29.6h-.6c-.5 0-.9-.4-.9-.9s.4-.9.9-.9h.6c.5 0 .9.4.9.9-.1.5-.5.9-.9.9z" fill="#29abe2"/><path d="m32.9 28.3h1.9v1.8h-1.9z" fill="#29abe2"/><path d="m36 28.3h1.9v1.8h-1.9z" fill="#29abe2"/><path d="m39.1 28.3h1.9v1.8h-1.9z" fill="#29abe2"/><path d="m42.3 28.3h1.9v1.8h-1.9z" fill="#29abe2"/><path d="m45.4 28.3h1.9v1.8h-1.9z" fill="#29abe2"/><path d="m48.5 28.3h1.9v1.8h-1.9z" fill="#29abe2"/><path d="m51.7 28.3h1.9v1.8h-1.9z" fill="#29abe2"/><path d="m54.8 28.3h1.9v1.8h-1.9z" fill="#29abe2"/><path d="m56.1 23h-11.2c-.3 0-.6-.3-.6-.6v-5.1c0-.3.3-.6.6-.6h11.3c.3 0 .6.3.6.6v5.1c-.1.4-.3.6-.7.6z" fill="#999"/><path d="m45.1 17.5h.5v5h-.5z" fill="#333"/><path d="m46 19.9c0-.1-.1-.2-.1-.2v-.4c0-.1-.1-.2-.2-.2h-.5c-.1 0-.2.1-.2.2v.4c-.1 0-.1.1-.1.2s.1.2.1.2v.4c0 .1.1.2.2.2h.5c.1 0 .2-.1.2-.2v-.4s.1-.1.1-.2z" fill="#f7931e"/><path d="m44.7 19.9c0 .1.1.2.1.2v.4c0 .1.1.2.2.2h.5c.1 0 .2-.1.2-.2v-.4c.1 0 .1-.1.1-.2z" fill="#e6e6e6"/><path d="m46.9 17.5h.5v5h-.5z" fill="#333"/><path d="m47.7 18.7c0-.1-.1-.2-.1-.2v-.5c0-.1-.1-.2-.2-.2h-.5c-.1 0-.2.1-.2.2v.4c-.1 0-.1.1-.1.2s.1.2.1.2v.4c0 .1.1.2.2.2h.5c.1 0 .2-.1.2-.2v-.4c.1 0 .1-.1.1-.1z" fill="#f7931e"/><path d="m46.5 18.7c0 .1.1.2.1.2v.4c0 .1.1.2.2.2h.5c.1 0 .2-.1.2-.2v-.4c.1 0 .1-.1.1-.2z" fill="#e6e6e6"/><path d="m48.6 17.5h.5v5h-.5z" fill="#333"/><path d="m49.4 20.5c0-.1-.1-.2-.1-.2v-.4c0-.1-.1-.2-.2-.2h-.5c-.1 0-.2.1-.2.2v.4c-.1 0-.1.1-.1.2s.1.2.1.2v.4c0 .1.1.2.2.2h.4c.1 0 .2-.1.2-.2v-.4c.2 0 .2-.1.2-.2z" fill="#29abe2"/><path d="m48.2 20.5c0 .1.1.2.1.2v.4c0 .1.1.2.2.2h.5c.1 0 .2-.1.2-.2v-.4c.1 0 .1-.1.1-.2z" fill="#e6e6e6"/><path d="m50.3 17.5h.5v5h-.5z" fill="#333"/><path d="m51.1 21.1c0-.1-.1-.2-.1-.2v-.4c0-.1-.1-.2-.2-.2h-.5c-.1 0-.2.1-.2.2v.4c-.1 0-.1.1-.1.2s.1.2.1.2v.4c0 .1.1.2.2.2h.5c.1 0 .2-.1.2-.2v-.4c.1 0 .1-.1.1-.2z" fill="#29abe2"/><path d="m49.9 21.1c0 .1.1.2.1.2v.4c0 .1.1.2.2.2h.5c.1 0 .2-.1.2-.2v-.4c.1 0 .1-.1.1-.2z" fill="#e6e6e6"/><path d="m52 17.5h.5v5h-.5z" fill="#333"/><path d="m52.8 21.5c0-.1-.1-.2-.1-.2v-.4c0-.1-.1-.2-.2-.2h-.5c-.1 0-.2.1-.2.2v.4c-.1 0-.1.1-.1.2s.1.2.1.2v.4c0 .1.1.2.2.2h.5c.1 0 .2-.1.2-.2v-.4c.1 0 .1-.1.1-.2z" fill="#29abe2"/><path d="m51.6 21.5c0 .1.1.2.1.2v.4c0 .1.1.2.2.2h.5c.1 0 .2-.1.2-.2v-.4c.1 0 .1-.1.1-.2z" fill="#e6e6e6"/><path d="m53.7 17.5h.5v5h-.5z" fill="#333"/><path d="m54.5 20.7c0-.1-.1-.2-.1-.2v-.4c0-.1-.1-.2-.2-.2h-.5c-.1 0-.2.1-.2.2v.4c-.1 0-.1.1-.1.2s.1.2.1.2v.4c0 .1.1.2.2.2h.5c.1 0 .2-.1.2-.2v-.4c.1 0 .1-.1.1-.2z" fill="#29abe2"/><path d="m53.3 20.7c0 .1.1.2.1.2v.4c0 .1.1.2.2.2h.5c.1 0 .2-.1.2-.2v-.4c.1 0 .1-.1.1-.2z" fill="#e6e6e6"/><path d="m55.4 17.5h.5v5h-.5z" fill="#333"/><path d="m56.3 21.3c0-.1-.1-.2-.1-.2v-.4c0-.1-.1-.2-.2-.2h-.5c-.1 0-.2.1-.2.2v.4c-.1 0-.1.1-.1.2s.1.2.1.2v.5c0 .1.1.2.2.2h.5c.1 0 .2-.1.2-.2v-.4c0-.1.1-.2.1-.3z" fill="#29abe2"/><path d="m55 21.3c0 .1.1.2.1.2v.5c0 .1.1.2.2.2h.5c.1 0 .2-.1.2-.2v-.4c.1 0 .1-.1.1-.2z" fill="#e6e6e6"/><path d="m23.7 30.6h-14.5c-.2 0-.4-.2-.4-.4v-13.5c0-.2.2-.4.4-.4h14.5c.2 0 .4.2.4.4v13.5c0 .2-.2.4-.4.4zm-14.5-14.2c-.2 0-.3.1-.3.3v13.5c0 .2.1.3.3.3h14.5c.2 0 .3-.1.3-.3v-13.5c0-.2-.1-.3-.3-.3z" fill="#999"/><path d="m7.3 30.6h-4.8c-.2 0-.4-.2-.4-.4v-3.2c0-.2.2-.4.4-.4h4.8c.2 0 .4.2.4.4v3.1c.1.3-.1.5-.4.5zm-4.8-3.9c-.2 0-.3.1-.3.3v3.1c0 .2.1.3.3.3h4.8c.2 0 .3-.1.3-.3v-3.1c0-.2-.1-.3-.3-.3z" fill="#999"/><path d="m6.1 44.9h-3.1c-.2 0-.4-.2-.4-.4v-9.8c0-.2.2-.4.4-.4h3.1c.2 0 .4.2.4.4v9.8c.1.2-.1.4-.4.4zm-3.1-10.5c-.2 0-.3.1-.3.3v9.8c0 .2.1.3.3.3h3.1c.2 0 .3-.1.3-.3v-9.8c0-.2-.1-.3-.3-.3z" fill="#999"/><path d="m57.5 30.6h-31.5c-.2 0-.4-.2-.4-.4v-5.5c0-.2.2-.4.4-.4h31.5c.2 0 .4.2.4.4v5.5c0 .2-.2.4-.4.4zm-31.5-6.3c-.2 0-.3.1-.3.3v5.5c0 .2.1.3.3.3h31.5c.2 0 .3-.1.3-.3v-5.5c0-.2-.1-.3-.3-.3z" fill="#999"/><path d="m48.5 28.3h1.9v1.8h-1.9z" fill="#29abe2"/><path d="m51.7 28.3h1.9v1.8h-1.9z" fill="#29abe2"/><path d="m54.8 28.3h1.9v1.8h-1.9z" fill="#29abe2"/><path d="m50 26.5h-1c-.2 0-.4-.2-.4-.4s.2-.4.4-.4h1c.2 0 .4.2.4.4.1.3-.1.4-.4.4z" fill="#f7931e"/><path d="m28.7 26.5h-1.1c-.2 0-.4-.2-.4-.4s.2-.4.4-.4h1.1c.2 0 .4.2.4.4 0 .3-.2.4-.4.4z" fill="#29abe2"/><path d="m53.2 26.5h-1.1c-.2 0-.4-.2-.4-.4s.2-.4.4-.4h1.1c.2 0 .4.2.4.4 0 .3-.2.4-.4.4z" fill="#29abe2"/><path d="m56.3 26.5h-1.1c-.2 0-.4-.2-.4-.4s.2-.4.4-.4h1.1c.2 0 .4.2.4.4 0 .3-.2.4-.4.4z" fill="#29abe2"/><path d="m8.9 33.3h49.8v12.8h-49.8z" fill="#666"/><g fill="#fff"><path d="m11.1 33.3h-2.1v12.4c0 .1.1.1.1.1h1.9c.1 0 .1-.1.1-.1z"/><path d="m13.4 33.3h-2.1v12.4c0 .1.1.1.1.1h1.8c.1 0 .1-.1.1-.1z"/><path d="m15.6 33.3h-2.1v12.4c0 .1.1.1.1.1h1.8c.1 0 .1-.1.1-.1z"/><path d="m17.9 33.3h-2.1v12.4c0 .1.1.1.1.1h1.8c.1 0 .1-.1.1-.1v-12.4z"/><path d="m20.1 33.3h-2.1v12.4c0 .1.1.1.1.1h1.9c.1 0 .1-.1.1-.1z"/><path d="m22.4 33.3h-2.1v12.4c0 .1.1.1.1.1h1.8c.1 0 .1-.1.1-.1v-12.4z"/><path d="m24.6 33.3h-2.1v12.4c0 .1.1.1.1.1h1.8c.1 0 .1-.1.1-.1v-12.4z"/><path d="m26.9 33.3h-2.1v12.4c0 .1.1.1.1.1h1.8c.1 0 .1-.1.1-.1v-12.4z"/><path d="m29.1 33.3h-2.1v12.4c0 .1.1.1.1.1h1.9c.1 0 .1-.1.1-.1z"/><path d="m31.4 33.3h-2.1v12.4c0 .1.1.1.1.1h1.8c.1 0 .1-.1.1-.1v-12.4z"/><path d="m33.6 33.3h-2.1v12.4c0 .1.1.1.1.1h1.8c.1 0 .1-.1.1-.1v-12.4z"/><path d="m35.9 33.3h-2.1v12.4c0 .1.1.1.1.1h1.8c.1 0 .1-.1.1-.1v-12.4z"/><path d="m38.1 33.3h-2.1v12.4c0 .1.1.1.1.1h1.9c.1 0 .1-.1.1-.1z"/><path d="m40.4 33.3h-2.1v12.4c0 .1.1.1.1.1h1.8c.1 0 .1-.1.1-.1v-12.4z"/><path d="m42.6 33.3h-2.1v12.4c0 .1.1.1.1.1h1.8c.1 0 .1-.1.1-.1v-12.4z"/><path d="m44.9 33.3h-2.1v12.4c0 .1.1.1.1.1h1.8c.1 0 .1-.1.1-.1v-12.4z"/><path d="m47.1 33.3h-2.1v12.4c0 .1.1.1.1.1h1.9c.1 0 .1-.1.1-.1z"/><path d="m49.4 33.3h-2.1v12.4c0 .1.1.1.1.1h1.8c.1 0 .1-.1.1-.1v-12.4z"/><path d="m51.6 33.3h-2.1v12.4c0 .1.1.1.1.1h1.8c.1 0 .1-.1.1-.1v-12.4z"/><path d="m53.9 33.3h-2.1v12.4c0 .1.1.1.1.1h1.8c.1 0 .1-.1.1-.1v-12.4z"/><path d="m56.1 33.3h-2.1v12.4c0 .1.1.1.1.1h1.9c.1 0 .1-.1.1-.1z"/><path d="m58.4 33.3h-2.1v12.4c0 .1.1.1.1.1h1.8c.1 0 .1-.1.1-.1v-12.4z"/></g><path d="m10.5 33.3h1.3v8.1h-1.3z" fill="#666"/><path d="m10.7 33.3h1v7.9h-1z" fill="#1a1a1a"/><path d="m10.7 40.4h1v.8h-1z" fill="#333"/><path d="m12.8 33.3h1.3v8.1h-1.3z" fill="#666"/><path d="m12.9 33.3h1v7.9h-1z" fill="#1a1a1a"/><path d="m12.9 40.4h1v.8h-1z" fill="#333"/><path d="m17.3 33.3h1.3v8.1h-1.3z" fill="#666"/><path d="m17.4 33.3h1v7.9h-1z" fill="#1a1a1a"/><path d="m17.4 40.4h1v.8h-1z" fill="#333"/><path d="m19.5 33.3h1.3v8.1h-1.3z" fill="#666"/><path d="m19.7 33.3h1v7.9h-1z" fill="#1a1a1a"/><path d="m19.7 40.4h1v.8h-1z" fill="#333"/><path d="m21.8 33.3h1.3v8.1h-1.3z" fill="#666"/><path d="m21.9 33.3h1v7.9h-1z" fill="#1a1a1a"/><path d="m21.9 40.4h1v.8h-1z" fill="#333"/><path d="m26.3 33.3h1.3v8.1h-1.3z" fill="#666"/><path d="m26.5 33.3h1v7.9h-1z" fill="#1a1a1a"/><path d="m26.5 40.4h1v.8h-1z" fill="#333"/><path d="m28.5 33.3h1.3v8.1h-1.3z" fill="#666"/><path d="m28.7 33.3h1v7.9h-1z" fill="#1a1a1a"/><path d="m28.7 40.4h1v.8h-1z" fill="#333"/><path d="m33 33.3h1.3v8.1h-1.3z" fill="#666"/><path d="m33.2 33.3h1v7.9h-1z" fill="#1a1a1a"/><path d="m33.2 40.4h1v.8h-1z" fill="#333"/><path d="m35.3 33.3h1.3v8.1h-1.3z" fill="#666"/><path d="m35.5 33.3h1v7.9h-1z" fill="#1a1a1a"/><path d="m35.5 40.4h1v.8h-1z" fill="#333"/><path d="m37.5 33.3h1.3v8.1h-1.3z" fill="#666"/><path d="m37.7 33.3h1v7.9h-1z" fill="#1a1a1a"/><path d="m37.7 40.4h1v.8h-1z" fill="#333"/><path d="m42 33.3h1.3v8.1h-1.3z" fill="#666"/><path d="m42.2 33.3h1v7.9h-1z" fill="#1a1a1a"/><path d="m42.2 40.4h1v.8h-1z" fill="#333"/><path d="m44.3 33.3h1.3v8.1h-1.3z" fill="#666"/><path d="m44.5 33.3h1v7.9h-1z" fill="#1a1a1a"/><path d="m44.5 40.4h1v.8h-1z" fill="#333"/><path d="m48.8 33.3h1.3v8.1h-1.3z" fill="#666"/><path d="m49 33.3h1v7.9h-1z" fill="#1a1a1a"/><path d="m49 40.4h1v.8h-1z" fill="#333"/><path d="m51.1 33.3h1.3v8.1h-1.3z" fill="#666"/><path d="m51.2 33.3h1v7.9h-1z" fill="#1a1a1a"/><path d="m51.2 40.4h1v.8h-1z" fill="#333"/><path d="m53.3 33.3h1.3v8.1h-1.3z" fill="#666"/><path d="m53.5 33.3h1v7.9h-1z" fill="#1a1a1a"/><path d="m53.5 40.4h1v.8h-1z" fill="#333"/><path d="m5.2 44h-1.3c-.2 0-.3-.1-.3-.3v-8.2c0-.2.1-.3.3-.3h1.3c.2 0 .3.1.3.3v8.2c0 .1-.1.3-.3.3z" fill="#1a1a1a"/><path d="m15.9 25.8c0 .3-.2.5-.5.5s-.5-.2-.5-.5.2-.5.5-.5.5.2.5.5z" fill="#f7931e"/><path d="m18 25.8c0 .3-.2.5-.5.5s-.5-.2-.5-.5.2-.5.5-.5.5.2.5.5z" fill="#333"/></svg>