<svg enable-background="new 0 0 60 60" height="60" viewBox="0 0 60 60" width="60" xmlns="http://www.w3.org/2000/svg"><path d="m45 .5-44.5 44.5c-.7.7-.7 1.7 0 2.4l12.1 12.1c.7.7 1.7.7 2.4 0l44.5-44.5c.7-.7.7-1.7 0-2.4l-12.1-12.1c-.6-.7-1.7-.7-2.4 0z" fill="#00572c"/><path d="m9.8 53 43.2-43.2 5.4 5.4-43.1 43.3z" fill="#666"/><g fill="#fff"><path d="m10.8 52.1-.9.9 5.3 5.3h.1l.7-.7v-.1z"/><path d="m11.8 51.1-.9.9 5.3 5.3h.1l.7-.7v-.1z"/><path d="m12.8 50.2-.9.9 5.3 5.3h.1l.7-.7v-.1z"/><path d="m13.7 49.2-.9.9 5.3 5.3h.1l.7-.7v-.1z"/><path d="m14.7 48.3-.9.9 5.3 5.3h.1l.7-.7v-.1z"/><path d="m15.6 47.3-.9.9 5.3 5.3h.1l.7-.7v-.1z"/><path d="m16.6 46.4-.9.9 5.3 5.3h.1l.7-.7v-.1z"/><path d="m17.5 45.4-.9.9 5.3 5.3h.1l.7-.7v-.1z"/><path d="m18.5 44.4-.9.9 5.3 5.3h.1l.7-.7v-.1z"/><path d="m19.5 43.5-.9.9 5.3 5.3h.1l.7-.7v-.1z"/><path d="m20.4 42.5-.9.9 5.3 5.3h.1l.7-.7v-.1z"/><path d="m21.4 41.6-.9.9 5.3 5.3h.1l.7-.7v-.1z"/><path d="m22.3 40.6-.9.9 5.3 5.3h.1l.7-.7v-.1z"/><path d="m23.3 39.6-.9.9 5.3 5.3h.1l.7-.7v-.1z"/><path d="m24.2 38.7-.9.9 5.3 5.3h.1l.7-.7v-.1z"/><path d="m25.2 37.7-.9.9 5.3 5.3h.1l.7-.7v-.1z"/><path d="m26.2 36.8-.9.9 5.3 5.3h.1l.7-.7v-.1z"/><path d="m27.1 35.8-.9.9 5.3 5.3h.1l.7-.7v-.1z"/><path d="m28.1 34.9-.9.9 5.3 5.3h.1l.7-.7v-.1z"/><path d="m29 33.9-.9.9 5.3 5.3h.1l.7-.7v-.1z"/><path d="m30 32.9-.9.9 5.3 5.3h.1l.7-.7v-.1z"/><path d="m31 32-.9.9 5.3 5.3h.1l.7-.7v-.1z"/><path d="m31.9 31-.9.9 5.3 5.3h.1l.7-.7v-.1z"/><path d="m32.9 30.1-.9.9 5.3 5.3h.1l.7-.7v-.1z"/><path d="m33.8 29.1-.9.9 5.3 5.3h.1l.7-.7v-.1z"/><path d="m34.8 28.2-.9.8 5.3 5.3h.1l.7-.7v-.1z"/><path d="m35.7 27.2-.9.9 5.3 5.3h.1l.7-.7v-.1z"/><path d="m36.7 26.2-.9.9 5.3 5.3h.1l.7-.7v-.1z"/><path d="m37.7 25.3-.9.9 5.3 5.3h.1l.7-.7v-.1z"/><path d="m38.6 24.3-.9.9 5.3 5.3h.1l.7-.7v-.1z"/><path d="m39.6 23.4-.9.9 5.3 5.3h.1l.7-.7v-.1z"/><path d="m40.5 22.4-.9.9 5.3 5.3h.1l.7-.7v-.1z"/><path d="m41.5 21.4-.9.9 5.3 5.3h.1l.7-.7v-.1z"/><path d="m42.5 20.5-.9.9 5.3 5.3h.1l.7-.7v-.1z"/><path d="m43.4 19.5-.9.9 5.3 5.3h.1l.7-.7v-.1z"/><path d="m44.4 18.6-.9.9 5.3 5.3h.1l.7-.7v-.1z"/><path d="m45.3 17.6-.9.9 5.3 5.3h.1l.7-.7v-.1z"/><path d="m46.3 16.7-.9.9 5.3 5.3h.1l.7-.7v-.1z"/><path d="m47.2 15.7-.9.9 5.3 5.3h.1l.7-.7v-.1z"/><path d="m48.2 14.7-.9.9 5.3 5.3h.1l.7-.7v-.1z"/><path d="m49.2 13.8-.9.9 5.3 5.3h.1l.7-.7v-.1z"/><path d="m50.1 12.8-.9.9 5.3 5.3h.1l.7-.7v-.1z"/><path d="m51.1 11.9-.9.9 5.3 5.3h.1l.7-.7v-.1z"/><path d="m52 10.9-.9.9 5.3 5.3h.1l.7-.7v-.1z"/><path d="m53 9.9-.9.9 5.3 5.3h.1l.7-.7v-.1z"/></g><path d="m11.5 51.4.6-.6 3.5 3.5-.6.6z" fill="#666"/><path d="m11.6 51.3.4-.4 3.4 3.4-.4.4z" fill="#1a1a1a"/><path d="m13.5 49.5.6-.6 3.5 3.5-.6.5z" fill="#666"/><path d="m13.5 49.4.4-.4 3.4 3.4-.4.4z" fill="#1a1a1a"/><path d="m15.4 47.6.6-.6 3.5 3.5-.6.5z" fill="#666"/><path d="m15.4 47.5.4-.4 3.4 3.4-.4.4z" fill="#1a1a1a"/><path d="m16.3 46.6.6-.6 3.5 3.5-.6.6z" fill="#666"/><path d="m16.4 46.5.4-.4 3.4 3.4-.4.4z" fill="#1a1a1a"/><path d="m18.3 44.7.6-.6 3.5 3.5-.6.6z" fill="#666"/><path d="m18.3 44.6.4-.4 3.4 3.4-.4.4z" fill="#1a1a1a"/><path d="m19.2 43.7.6-.6 3.5 3.5-.6.6z" fill="#666"/><path d="m19.3 43.6.4-.4 3.4 3.4-.4.4z" fill="#1a1a1a"/><path d="m20.2 42.8.6-.6 3.5 3.5-.6.6z" fill="#666"/><path d="m20.2 42.7.4-.4 3.4 3.4-.4.4z" fill="#1a1a1a"/><path d="m22.1 40.9.6-.6 3.5 3.5-.6.6z" fill="#666"/><path d="m22.2 40.8.4-.4 3.4 3.4-.4.4z" fill="#1a1a1a"/><path d="m23 39.9.6-.6 3.5 3.5-.6.6z" fill="#666"/><path d="m23.1 39.8.4-.4 3.4 3.4-.4.4z" fill="#1a1a1a"/><path d="m25 38 .6-.6 3.5 3.5-.6.6z" fill="#666"/><path d="m25 37.9.4-.4 3.4 3.4-.4.4z" fill="#1a1a1a"/><path d="m25.9 37 .6-.6 3.5 3.5-.6.6z" fill="#666"/><path d="m26 36.9.4-.4 3.4 3.4-.4.4z" fill="#1a1a1a"/><path d="m26.9 36.1.6-.6 3.5 3.5-.6.6z" fill="#666"/><path d="m26.9 36 .4-.4 3.4 3.4-.4.4z" fill="#1a1a1a"/><path d="m28.8 34.2.6-.6 3.5 3.5-.6.6z" fill="#666"/><path d="m28.9 34.1.4-.4 3.4 3.4-.4.4z" fill="#1a1a1a"/><path d="m29.8 33.2.6-.6 3.5 3.5-.6.6z" fill="#666"/><path d="m29.8 33.1.4-.4 3.4 3.4-.4.4z" fill="#1a1a1a"/><path d="m31.7 31.3.6-.6 3.5 3.5-.6.6z" fill="#666"/><path d="m31.7 31.2.4-.4 3.4 3.4-.4.4z" fill="#1a1a1a"/><path d="m32.6 30.3.6-.6 3.5 3.5-.6.6z" fill="#666"/><path d="m32.7 30.2.4-.4 3.4 3.4-.4.4z" fill="#1a1a1a"/><path d="m33.6 29.4.6-.6 3.5 3.5-.6.6z" fill="#666"/><path d="m33.6 29.3.4-.4 3.4 3.4-.4.4z" fill="#1a1a1a"/><path d="m35.5 27.4.6-.6 3.5 3.5-.6.6z" fill="#666"/><path d="m35.6 27.4.4-.4 3.4 3.4-.4.4z" fill="#1a1a1a"/><path d="m36.5 26.5.6-.6 3.5 3.5-.6.5z" fill="#666"/><path d="m36.5 26.4.4-.4 3.4 3.4-.4.4z" fill="#1a1a1a"/><path d="m38.4 24.6.6-.6 3.5 3.5-.6.5z" fill="#666"/><path d="m38.4 24.5.4-.4 3.4 3.4-.4.4z" fill="#1a1a1a"/><path d="m39.3 23.6.6-.6 3.5 3.5-.6.6z" fill="#666"/><path d="m39.4 23.5.4-.4 3.4 3.4-.4.4z" fill="#1a1a1a"/><path d="m40.3 22.7.6-.6 3.5 3.5-.6.6z" fill="#666"/><path d="m40.4 22.6.4-.4 3.4 3.4-.4.4z" fill="#1a1a1a"/><path d="m42.2 20.7.6-.6 3.5 3.5-.6.6z" fill="#666"/><path d="m42.3 20.7.4-.4 3.4 3.4-.4.4z" fill="#1a1a1a"/><path d="m43.2 19.8.6-.6 3.5 3.5-.6.6z" fill="#666"/><path d="m43.2 19.7.4-.4 3.4 3.4-.4.4z" fill="#1a1a1a"/><path d="m45.1 17.9.6-.6 3.5 3.5-.6.6z" fill="#666"/><path d="m45.1 17.8.4-.4 3.4 3.4-.4.4z" fill="#1a1a1a"/><path d="m46 16.9.6-.6 3.5 3.5-.6.6z" fill="#666"/><path d="m46.1 16.8.4-.4 3.4 3.4-.4.4z" fill="#1a1a1a"/><path d="m47 15.9.6-.6 3.5 3.5-.6.6z" fill="#666"/><path d="m47.1 15.9.4-.4 3.4 3.4-.4.4z" fill="#1a1a1a"/><path d="m48.9 14 .6-.6 3.5 3.5-.6.6z" fill="#666"/><path d="m49 13.9.4-.4 3.4 3.4-.4.4z" fill="#1a1a1a"/><path d="m49.9 13.1.6-.6 3.5 3.5-.6.6z" fill="#666"/><path d="m49.9 13 .4-.4 3.4 3.4-.4.4z" fill="#1a1a1a"/><path d="m51.8 11.2.6-.6 3.5 3.5-.6.6z" fill="#666"/><path d="m51.9 11.1.4-.4 3.4 3.4-.4.4z" fill="#1a1a1a"/><path d="m12.5 50.4.6-.6 3.5 3.5-.6.6z" fill="#666"/><path d="m12.6 50.4.4-.4 3.4 3.4-.4.4z" fill="#1a1a1a"/><path d="m6.4 53.4 47-47 .9.9-47 47z" fill="#e6e6e6"/><path d="m13.6 37.8c.2.2.2.5 0 .7s-.5.2-.7 0-.2-.5 0-.7.5-.2.7 0z" fill="#999"/><path d="m13.5 37.9c.1.1.1.3 0 .4s-.3.1-.4 0-.1-.3 0-.4.3-.1.4 0z" fill="#333"/><circle cx="15.4" cy="40.3" fill="#999" r=".9"/><circle cx="15.4" cy="40.3" fill="#333" r=".8"/><circle cx="35" cy="17.8" fill="#999" r="1.4"/><circle cx="35" cy="17.8" fill="#333" r="1.2"/><circle cx="35" cy="17.8" fill="#1a1a1a" r=".7"/><path d="m37.3 14.3c.2.2.2.4 0 .6s-.4.2-.6 0-.2-.4 0-.6c.1-.2.4-.2.6 0z" fill="#666"/><path d="m37.2 14.3c.1.1.1.3 0 .4s-.3.1-.4 0-.1-.3 0-.4.3-.1.4 0z" fill="#f2f2f2"/><path d="m38.1 13.4c.2.2.2.4 0 .6s-.4.2-.6 0-.2-.4 0-.6.5-.2.6 0z" fill="#666"/><path d="m38.1 13.5c.1.1.1.3 0 .4s-.3.1-.4 0-.1-.3 0-.4c0-.2.2-.2.4 0z" fill="#f2f2f2"/><path d="m39 12.5c.2.2.2.4 0 .6s-.4.2-.6 0-.2-.4 0-.6c.2-.1.4-.1.6 0z" fill="#666"/><path d="m38.9 12.6c.1.1.1.3 0 .4s-.3.1-.4 0-.1-.3 0-.4.3-.1.4 0z" fill="#f2f2f2"/><path d="m38.1 15.1c.2.2.2.4 0 .6s-.4.2-.6 0-.2-.4 0-.6.4-.2.6 0z" fill="#666"/><path d="m38 15.2c.1.1.1.3 0 .4s-.3.1-.4 0-.1-.3 0-.4c.1-.2.3-.2.4 0z" fill="#f2f2f2"/><path d="m38.9 14.2c.2.2.2.4 0 .6s-.4.2-.6 0-.2-.4 0-.6c.2-.1.5-.1.6 0z" fill="#666"/><path d="m38.9 14.3c.1.1.1.3 0 .4s-.3.1-.4 0-.1-.3 0-.4.3-.1.4 0z" fill="#f2f2f2"/><path d="m39.8 13.3c.2.2.2.4 0 .6s-.4.2-.6 0-.2-.4 0-.6c.2-.1.5-.1.6 0z" fill="#666"/><path d="m39.8 13.4c.1.1.1.3 0 .4s-.3.1-.4 0-.1-.3 0-.4c0-.1.2-.1.4 0z" fill="#f2f2f2"/><path d="m38.9 15.9c.2.2.2.4 0 .6s-.4.2-.6 0-.2-.4 0-.6.4-.2.6 0z" fill="#666"/><path d="m38.8 16c.1.1.1.3 0 .4s-.3.1-.4 0-.1-.3 0-.4.3-.1.4 0z" fill="#f2f2f2"/><path d="m39.8 15c.2.2.2.4 0 .6s-.4.2-.6 0-.2-.4 0-.6c.2-.1.4-.1.6 0z" fill="#666"/><path d="m39.7 15.1c.1.1.1.3 0 .4s-.3.1-.4 0-.1-.3 0-.4.3-.1.4 0z" fill="#f2f2f2"/><path d="m40.6 14.2c.2.2.2.4 0 .6s-.4.2-.6 0-.2-.4 0-.6.5-.2.6 0z" fill="#666"/><path d="m40.6 14.2c.1.1.1.3 0 .4s-.3.1-.4 0-.1-.3 0-.4.3-.1.4 0z" fill="#f2f2f2"/><path d="m39.7 16.7c.2.2.2.4 0 .6s-.4.2-.6 0-.2-.4 0-.6c.2-.1.5-.1.6 0z" fill="#666"/><path d="m39.7 16.8c.1.1.1.3 0 .4s-.3.1-.4 0-.1-.3 0-.4c0-.1.2-.1.4 0z" fill="#f2f2f2"/><path d="m40.6 15.9c.2.2.2.4 0 .6s-.4.2-.6 0-.2-.4 0-.6.4-.2.6 0z" fill="#666"/><path d="m40.5 15.9c.1.1.1.3 0 .4s-.3.1-.4 0-.1-.3 0-.4.3-.1.4 0z" fill="#ed1c24"/><path d="m41.5 15c.2.2.2.4 0 .6s-.4.2-.6 0-.2-.4 0-.6c.1-.2.4-.2.6 0z" fill="#666"/><path d="m41.4 15.1c.1.1.1.3 0 .4s-.3.1-.4 0-.1-.3 0-.4c.1-.2.3-.2.4 0z" fill="#f2f2f2"/><path d="m16.4 34.6 1-1 .5.5-1 1z" fill="#666"/><path d="m16.5 34.6.8-.8.4.4-.8.8z" fill="#f7931e"/><path d="m18 32.9 1-1 .5.5-1 1z" fill="#666"/><path d="m18.2 32.9.8-.9.4.4-.8.8z" fill="#29abe2"/><path d="m19.7 31.3 1-1 .5.5-1 1z" fill="#666"/><path d="m19.8 31.3.8-.8.4.4-.8.8z" fill="#f2f2f2"/><path d="m29.4 21.5 1.3-1.3.6.6-1.3 1.3z" fill="#666"/><path d="m29.5 21.5 1.2-1.2.4.4-1.2 1.2z" fill="#f2f2f2"/><path d="m30.2 22.4 1.3-1.3.6.6-1.3 1.3z" fill="#666"/><path d="m30.4 22.4 1.2-1.2.4.4-1.2 1.2z" fill="#f2f2f2"/><path d="m31 23.2 1.3-1.3.6.6-1.3 1.3z" fill="#666"/><path d="m31.2 23.2 1.2-1.2.4.4-1.2 1.2z" fill="#f2f2f2"/><path d="m17.3 37.2 1-1 1.9 1.9-1 1z" fill="#666"/><path d="m17.5 37.2.8-.8 1.8 1.8-.8.8z" fill="#f2f2f2"/><path d="m18.7 36 1-1 1.9 1.9-1 1z" fill="#666"/><path d="m18.8 36 .8-.8 1.8 1.8-.8.8z" fill="#f2f2f2"/><path d="m19.9 34.8 1-1 1.9 1.9-1 1z" fill="#666"/><path d="m20 34.8.8-.8 1.8 1.8-.8.8z" fill="#f2f2f2"/><path d="m21.1 33.5 1-1 1.9 1.9-1 1z" fill="#666"/><path d="m21.2 33.5.8-.8 1.8 1.8-.8.8z" fill="#f2f2f2"/><path d="m22.4 32.3 1-1 1.9 1.9-1 1z" fill="#666"/><path d="m22.5 32.3.8-.8 1.8 1.8-.8.7z" fill="#f2f2f2"/><path d="m32.1 24.3 1-1 1 1-1 1z" fill="#666"/><path d="m32.3 24.3.8-.8.8.8-.8.8z" fill="#f2f2f2"/><path d="m33.3 23.1 1-1 1 1-1 1z" fill="#666"/><path d="m33.4 23.1.8-.8.8.8-.8.8z" fill="#f2f2f2"/><path d="m34.6 21.8 1-1 1 1-1 1z" fill="#666"/><path d="m34.8 21.8.8-.8.8.8-.8.8z" fill="#1a1a1a"/><path d="m35.8 20.5 1-1 1 1-1 1z" fill="#666"/><path d="m35.9 20.5.8-.8.8.8-.8.8z" fill="#f2f2f2"/><path d="m37.1 19.3 1-1 1 1-1 1z" fill="#666"/><path d="m37.2 19.3.8-.8.8.8-.8.8z" fill="#f2f2f2"/><path d="m23.2 27.8 4.5-4.5 3.7 3.7-4.5 4.5z" fill="#808080"/><path d="m23.4 27.7 4.3-4.3 3.5 3.5-4.3 4.3z" fill="#29abe2"/><path d="m13.5 44.8-6.3 6.3c-.5.5-1.3.5-1.8 0l-3.9-3.9c-.5-.5-.5-1.3 0-1.8l6.3-6.3c.5-.5 1.3-.5 1.8 0l3.9 3.9c.5.6.5 1.4 0 1.8z" fill="#808080"/><path d="m51 7.4-6.3 6.3c-.5.5-1.3.5-1.8 0l-3.9-3.9c-.5-.5-.5-1.3 0-1.8l6.3-6.3c.5-.5 1.3-.5 1.8 0l3.9 3.9c.5.5.5 1.3 0 1.8z" fill="#808080"/><path d="m13.6 33.6 20-20 .4.4-20 20z" fill="#808080"/><path d="m10.1 55.6.7-.7 2.1 2.1-.7.7z" fill="#666"/><path d="m10.2 55.6.6-.6 1.9 1.9-.6.6z" fill="#333"/><path d="m11.1 56.4.6-.6.2.2-.6.6z" fill="#29abe2"/></svg>