<svg xmlns="http://www.w3.org/2000/svg" width="60" height="60"><path d="M2 37.8h56c1.1 0 2-.9 2-2V24.2c0-1.1-.9-2-2-2H2c-1.1 0-2 .9-2 2v11.6c0 1.1.9 2 2 2zm52.76-14.1h1.3c.2 0 .4.2.4.4v8.13h-1.32v-4.4c0-.2-.18-.4-.4-.4h-.38V24.1c0-.2.18-.4.4-.4zm-2.63 0h1.3c.2 0 .4.2.4.4v3.34h-.38c-.22 0-.4.18-.4.4v4.4h-.54v-4.4c0-.22-.16-.4-.4-.4h-.36V24.1c0-.2.18-.4.4-.4zm-2.62 0h1.3c.2 0 .4.2.4.4v3.34h-.38c-.22 0-.4.18-.4.4v4.4h-.54v-4.4c0-.22-.18-.4-.4-.4h-.38V24.1c0-.2.2-.4.4-.4zm-3 .4c0-.2.17-.4.4-.4h1.27c.23 0 .4.2.4.4v3.34h-.37c-.23 0-.4.18-.4.4v4.4h-1.32V24.1zm-2.3-.4h1.3c.2 0 .4.2.4.4v8.13h-1.33v-4.4c0-.2-.18-.4-.4-.4h-.38V24.1c0-.2.17-.4.4-.4zm-2.64 0h1.3c.2 0 .4.2.4.4v3.34h-.38c-.22 0-.4.18-.4.4v4.4h-.54v-4.4c0-.22-.18-.4-.4-.4h-.38V24.1c0-.2.18-.4.4-.4zm-2.62 0h1.26c.23 0 .4.2.4.4v3.34h-.36c-.22 0-.4.18-.4.4v4.4h-.54v-4.4c0-.22-.18-.4-.4-.4h-.37V24.1c0-.2.18-.4.4-.4zm-3.03.4c0-.2.2-.4.4-.4h1.3c.22 0 .4.2.4.4v3.34h-.38c-.2 0-.4.18-.4.4v4.4h-1.3V24.1zm-2.3-.4h1.3c.2 0 .4.2.4.4v8.13H34v-4.4c0-.2-.2-.4-.4-.4h-.4V24.1c0-.2.2-.4.4-.4zm-2.6 0h1.27c.22 0 .4.2.4.4v3.34h-.37c-.23 0-.4.18-.4.4v4.4h-.55v-4.4c0-.22-.18-.4-.4-.4h-.37V24.1c0-.2.18-.4.4-.4zm-2.64 0h1.28c.23 0 .4.2.4.4v3.34h-.37c-.22 0-.4.18-.4.4v4.4h-.54v-4.4c0-.22-.18-.4-.4-.4h-.37V24.1c0-.2.18-.4.4-.4zm-3.03.4c0-.2.18-.4.4-.4h1.3c.2 0 .4.2.4.4v3.34h-.4c-.2 0-.4.18-.4.4v4.4h-1.3V24.1zm-2.3-.4h1.3c.2 0 .4.2.4.4v8.13H23.4v-4.4c0-.2-.17-.4-.4-.4h-.37V24.1c0-.2.18-.4.4-.4zm-2.62 0h1.3c.2 0 .4.2.4.4v3.34h-.38c-.2 0-.4.18-.4.4v4.4h-.53v-4.4c0-.22-.2-.4-.4-.4H20V24.1c0-.2.18-.4.4-.4zm-2.62 0h1.3c.2 0 .4.2.4.4v3.34h-.4c-.2 0-.4.18-.4.4v4.4h-.53v-4.4c0-.22-.18-.4-.4-.4h-.37V24.1c0-.2.18-.4.4-.4zm-3.03.4c0-.2.18-.4.4-.4h1.3c.2 0 .4.2.4.4v3.34h-.4c-.2 0-.4.18-.4.4v4.4h-1.3V24.1zm-2.3-.4h1.3c.2 0 .4.2.4.4v8.13h-1.32v-4.4c0-.2-.18-.4-.4-.4h-.38V24.1c0-.2.2-.4.4-.4zm-2.62 0h1.27c.22 0 .4.2.4.4v3.34h-.37c-.22 0-.4.18-.4.4v4.4h-.54v-4.4c0-.22-.2-.4-.4-.4h-.4V24.1c0-.2.2-.4.4-.4h.03zm-2.63 0h1.28c.22 0 .4.2.4.4v3.34H8.5c-.22 0-.4.18-.4.4v4.4h-.54v-4.4c0-.22-.18-.4-.4-.4H6.8V24.1c0-.2.16-.4.4-.4zm-3.04.4c0-.2.18-.4.4-.4h1.3c.2 0 .4.2.4.4v3.34h-.38c-.23 0-.4.18-.4.4v4.4H4.16V24.1z"/></svg>