<svg enable-background="new 0 0 60 60" height="60" viewBox="0 0 60 60" width="60" xmlns="http://www.w3.org/2000/svg"><path d="m45 .5-44.5 44.5c-.7.7-.7 1.7 0 2.4l12.1 12.1c.7.7 1.7.7 2.4 0l44.5-44.5c.7-.7.7-1.7 0-2.4l-12.1-12.1c-.6-.7-1.7-.7-2.4 0z" fill="#b3b3b3"/><path d="m3.6 30.3h61.1v7.7h-61.1z" fill="#666" transform="matrix(.7071 -.7071 .7071 .7071 -14.1377 34.1315)"/><g fill="#fff"><path d="m10.8 52.1-.9.9 5.3 5.3h.1l.7-.7v-.1z"/><path d="m11.8 51.1-.9.9 5.3 5.3h.1l.7-.7v-.1z"/><path d="m12.8 50.2-.9.9 5.3 5.3h.1l.7-.7v-.1z"/><path d="m13.7 49.2-.9.9 5.3 5.3h.1l.7-.7v-.1z"/><path d="m14.7 48.3-.9.9 5.3 5.3h.1l.7-.7v-.1z"/><path d="m15.6 47.3-.9.9 5.3 5.3h.1l.7-.7v-.1z"/><path d="m16.6 46.4-.9.9 5.3 5.3h.1l.7-.7v-.1z"/><path d="m17.5 45.4-.9.9 5.3 5.3h.1l.7-.7v-.1z"/><path d="m18.5 44.4-.9.9 5.3 5.3h.1l.7-.7v-.1z"/><path d="m19.5 43.5-.9.9 5.3 5.3h.1l.7-.7v-.1z"/><path d="m20.4 42.5-.9.9 5.3 5.3h.1l.7-.7v-.1z"/><path d="m21.4 41.6-.9.9 5.3 5.3h.1l.7-.7v-.1z"/><path d="m22.3 40.6-.9.9 5.3 5.3h.1l.7-.7v-.1z"/><path d="m23.3 39.6-.9.9 5.3 5.3h.1l.7-.7v-.1z"/><path d="m24.2 38.7-.9.9 5.3 5.3h.1l.7-.7v-.1z"/><path d="m25.2 37.7-.9.9 5.3 5.3h.1l.7-.7v-.1z"/><path d="m26.2 36.8-.9.9 5.3 5.3h.1l.7-.7v-.1z"/><path d="m27.1 35.8-.9.9 5.3 5.3h.1l.7-.7v-.1z"/><path d="m28.1 34.9-.9.9 5.3 5.3h.1l.7-.7v-.1z"/><path d="m29 33.9-.9.9 5.3 5.3h.1l.7-.7v-.1z"/><path d="m30 32.9-.9.9 5.3 5.3h.1l.7-.7v-.1z"/><path d="m31 32-.9.9 5.3 5.3h.1l.7-.7v-.1z"/><path d="m31.9 31-.9.9 5.3 5.3h.1l.7-.7v-.1z"/><path d="m32.9 30.1-.9.9 5.3 5.3h.1l.7-.7v-.1z"/><path d="m33.8 29.1-.9.9 5.3 5.3h.1l.7-.7v-.1z"/><path d="m34.8 28.2-.9.8 5.3 5.3h.1l.7-.7v-.1z"/><path d="m35.7 27.2-.9.9 5.3 5.3h.1l.7-.7v-.1z"/><path d="m36.7 26.2-.9.9 5.3 5.3h.1l.7-.7v-.1z"/><path d="m37.7 25.3-.9.9 5.3 5.3h.1l.7-.7v-.1z"/><path d="m38.6 24.3-.9.9 5.3 5.3h.1l.7-.7v-.1z"/><path d="m39.6 23.4-.9.9 5.3 5.3h.1l.7-.7v-.1z"/><path d="m40.5 22.4-.9.9 5.3 5.3h.1l.7-.7v-.1z"/><path d="m41.5 21.4-.9.9 5.3 5.3h.1l.7-.7v-.1z"/><path d="m42.5 20.5-.9.9 5.3 5.3h.1l.7-.7v-.1z"/><path d="m43.4 19.5-.9.9 5.3 5.3h.1l.7-.7v-.1z"/><path d="m44.4 18.6-.9.9 5.3 5.3h.1l.7-.7v-.1z"/><path d="m45.3 17.6-.9.9 5.3 5.3h.1l.7-.7v-.1z"/><path d="m46.3 16.7-.9.9 5.3 5.3h.1l.7-.7v-.1z"/><path d="m47.2 15.7-.9.9 5.3 5.3h.1l.7-.7v-.1z"/><path d="m48.2 14.7-.9.9 5.3 5.3h.1l.7-.7v-.1z"/><path d="m49.2 13.8-.9.9 5.3 5.3h.1l.7-.7v-.1z"/><path d="m50.1 12.8-.9.9 5.3 5.3h.1l.7-.7v-.1z"/><path d="m51.1 11.9-.9.9 5.3 5.3h.1l.7-.7v-.1z"/><path d="m52 10.9-.9.9 5.3 5.3h.1l.7-.7v-.1z"/><path d="m53 9.9-.9.9 5.3 5.3h.1l.7-.7v-.1z"/></g><path d="m13.1 50.4h.8v4.9h-.8z" fill="#666" transform="matrix(.7071 -.7071 .7071 .7071 -33.3898 25.0554)"/><path d="m13.2 50.4h.6v4.8h-.6z" fill="#1a1a1a" transform="matrix(.7071 -.7071 .7071 .7071 -33.3751 25.0199)"/><path d="m15.1 48.5h.8v4.9h-.8z" fill="#666" transform="matrix(.7071 -.7071 .7071 .7071 -31.4735 25.8491)"/><path d="m15.1 48.5h.6v4.8h-.6z" fill="#1a1a1a" transform="matrix(.7071 -.7071 .7071 .7071 -31.4588 25.8136)"/><path d="m17 46.6h.8v4.9h-.8z" fill="#666" transform="matrix(.7071 -.7071 .7071 .7071 -29.5573 26.6428)"/><path d="m17 46.6h.6v4.8h-.6z" fill="#1a1a1a" transform="matrix(.7071 -.7071 .7071 .7071 -29.5426 26.6074)"/><path d="m17.9 45.6h.8v4.9h-.8z" fill="#666" transform="matrix(.7071 -.7071 .7071 .7071 -28.5991 27.0397)"/><path d="m18 45.6h.6v4.8h-.6z" fill="#1a1a1a" transform="matrix(.7071 -.7071 .7071 .7071 -28.5844 27.0042)"/><path d="m19.9 43.7h.8v4.9h-.8z" fill="#666" transform="matrix(.7071 -.7071 .7071 .7071 -26.6829 27.8334)"/><path d="m19.9 43.7h.6v4.8h-.6z" fill="#1a1a1a" transform="matrix(.7071 -.7071 .7071 .7071 -26.6682 27.798)"/><path d="m20.8 42.7h.8v4.9h-.8z" fill="#666" transform="matrix(.7071 -.7071 .7071 .7071 -25.7248 28.2303)"/><path d="m20.9 42.7h.6v4.8h-.6z" fill="#1a1a1a" transform="matrix(.7071 -.7071 .7071 .7071 -25.7101 28.1948)"/><path d="m21.8 41.8h.8v4.9h-.8z" fill="#666" transform="matrix(.7071 -.7071 .7071 .7071 -24.7666 28.6272)"/><path d="m21.8 41.8h.6v4.8h-.6z" fill="#1a1a1a" transform="matrix(.7071 -.7071 .7071 .7071 -24.752 28.5917)"/><path d="m23.7 39.9h.8v4.9h-.8z" fill="#666" transform="matrix(.7071 -.7071 .7071 .7071 -22.8504 29.4209)"/><path d="m23.8 39.9h.6v4.8h-.6z" fill="#1a1a1a" transform="matrix(.7071 -.7071 .7071 .7071 -22.8357 29.3854)"/><path d="m24.6 38.9h.8v4.9h-.8z" fill="#666" transform="matrix(.7071 -.7071 .7071 .7071 -21.8923 29.8178)"/><path d="m24.7 38.9h.6v4.8h-.6z" fill="#1a1a1a" transform="matrix(.7071 -.7071 .7071 .7071 -21.8776 29.7823)"/><path d="m26.6 37h.8v4.9h-.8z" fill="#666" transform="matrix(.7071 -.7071 .7071 .7071 -19.976 30.6115)"/><path d="m26.6 37h.6v4.8h-.6z" fill="#1a1a1a" transform="matrix(.7071 -.7071 .7071 .7071 -19.9613 30.576)"/><path d="m27.5 36h.8v4.9h-.8z" fill="#666" transform="matrix(.7071 -.7071 .7071 .7071 -19.0179 31.0084)"/><path d="m27.6 36h.6v4.8h-.6z" fill="#1a1a1a" transform="matrix(.7071 -.7071 .7071 .7071 -19.0032 30.9729)"/><path d="m28.5 35.1h.8v4.9h-.8z" fill="#666" transform="matrix(.7071 -.7071 .7071 .7071 -18.0598 31.4053)"/><path d="m28.5 35.1h.6v4.8h-.6z" fill="#1a1a1a" transform="matrix(.7071 -.7071 .7071 .7071 -18.0451 31.3698)"/><path d="m30.4 33.2h.8v4.9h-.8z" fill="#666" transform="matrix(.7071 -.7071 .7071 .7071 -16.1435 32.199)"/><path d="m30.5 33.2h.6v4.8h-.6z" fill="#1a1a1a" transform="matrix(.7071 -.7071 .7071 .7071 -16.1288 32.1635)"/><path d="m31.4 32.2h.8v4.9h-.8z" fill="#666" transform="matrix(.7071 -.7071 .7071 .7071 -15.1854 32.5959)"/><path d="m31.4 32.2h.6v4.8h-.6z" fill="#1a1a1a" transform="matrix(.7071 -.7071 .7071 .7071 -15.1707 32.5604)"/><path d="m33.3 30.3h.8v4.9h-.8z" fill="#666" transform="matrix(.7071 -.7071 .7071 .7071 -13.2692 33.3896)"/><path d="m33.3 30.3h.6v4.8h-.6z" fill="#1a1a1a" transform="matrix(.7071 -.7071 .7071 .7071 -13.2545 33.3541)"/><path d="m34.2 29.3h.8v4.9h-.8z" fill="#666" transform="matrix(.7071 -.7071 .7071 .7071 -12.311 33.7865)"/><path d="m34.3 29.3h.6v4.8h-.6z" fill="#1a1a1a" transform="matrix(.7071 -.7071 .7071 .7071 -12.2963 33.751)"/><path d="m35.2 28.4h.8v4.9h-.8z" fill="#666" transform="matrix(.7071 -.7071 .7071 .7071 -11.3529 34.1833)"/><path d="m35.2 28.4h.6v4.8h-.6z" fill="#1a1a1a" transform="matrix(.7071 -.7071 .7071 .7071 -11.3382 34.1478)"/><path d="m37.1 26.4h.8v4.9h-.8z" fill="#666" transform="matrix(.7071 -.7071 .7071 .7071 -9.4367 34.9771)"/><path d="m37.2 26.5h.6v4.8h-.6z" fill="#1a1a1a" transform="matrix(.7071 -.7071 .7071 .7071 -9.422 34.9416)"/><path d="m38.1 25.5h.8v4.9h-.8z" fill="#666" transform="matrix(.7071 -.7071 .7071 .7071 -8.4786 35.3739)"/><path d="m38.1 25.5h.6v4.8h-.6z" fill="#1a1a1a" transform="matrix(.7071 -.7071 .7071 .7071 -8.4639 35.3384)"/><path d="m40 23.6h.8v4.9h-.8z" fill="#666" transform="matrix(.7071 -.7071 .7071 .7071 -6.5623 36.1677)"/><path d="m40 23.6h.6v4.8h-.6z" fill="#1a1a1a" transform="matrix(.7071 -.7071 .7071 .7071 -6.5476 36.1322)"/><path d="m40.9 22.6h.8v4.9h-.8z" fill="#666" transform="matrix(.7071 -.7071 .7071 .7071 -5.6042 36.5645)"/><path d="m41 22.6h.6v4.8h-.6z" fill="#1a1a1a" transform="matrix(.7071 -.7071 .7071 .7071 -5.5895 36.529)"/><path d="m41.9 21.7h.8v4.9h-.8z" fill="#666" transform="matrix(.7071 -.7071 .7071 .7071 -4.6461 36.9614)"/><path d="m42 21.7h.6v4.8h-.6z" fill="#1a1a1a" transform="matrix(.7071 -.7071 .7071 .7071 -4.6314 36.9259)"/><path d="m43.8 19.7h.8v4.9h-.8z" fill="#666" transform="matrix(.7071 -.7071 .7071 .7071 -2.7298 37.7551)"/><path d="m43.9 19.8h.6v4.8h-.6z" fill="#1a1a1a" transform="matrix(.7071 -.7071 .7071 .7071 -2.7151 37.7197)"/><path d="m44.8 18.8h.8v4.9h-.8z" fill="#666" transform="matrix(.7071 -.7071 .7071 .7071 -1.7717 38.152)"/><path d="m44.8 18.8h.6v4.8h-.6z" fill="#1a1a1a" transform="matrix(.7071 -.7071 .7071 .7071 -1.757 38.1165)"/><path d="m46.7 16.9h.8v4.9h-.8z" fill="#666" transform="matrix(.7071 -.7071 .7071 .7071 .1446 38.9457)"/><path d="m46.7 16.9h.6v4.8h-.6z" fill="#1a1a1a" transform="matrix(.7071 -.7071 .7071 .7071 .1593 38.9103)"/><path d="m47.6 15.9h.8v4.9h-.8z" fill="#666" transform="matrix(.7071 -.7071 .7071 .7071 1.1027 39.3426)"/><path d="m47.7 15.9h.6v4.8h-.6z" fill="#1a1a1a" transform="matrix(.7071 -.7071 .7071 .7071 1.1174 39.3071)"/><path d="m48.6 14.9h.8v4.9h-.8z" fill="#666" transform="matrix(.7071 -.7071 .7071 .7071 2.0608 39.7395)"/><path d="m48.7 15h.6v4.8h-.6z" fill="#1a1a1a" transform="matrix(.7071 -.7071 .7071 .7071 2.0755 39.704)"/><path d="m50.5 13h.8v4.9h-.8z" fill="#666" transform="matrix(.7071 -.7071 .7071 .7071 3.9771 40.5332)"/><path d="m50.6 13h.6v4.8h-.6z" fill="#1a1a1a" transform="matrix(.7071 -.7071 .7071 .7071 3.9918 40.4977)"/><path d="m51.5 12.1h.8v4.9h-.8z" fill="#666" transform="matrix(.7071 -.7071 .7071 .7071 4.9352 40.9301)"/><path d="m51.5 12.1h.6v4.8h-.6z" fill="#1a1a1a" transform="matrix(.7071 -.7071 .7071 .7071 4.9499 40.8946)"/><path d="m53.4 10.2h.8v4.9h-.8z" fill="#666" transform="matrix(.7071 -.7071 .7071 .7071 6.8514 41.7238)"/><path d="m53.5 10.2h.6v4.8h-.6z" fill="#1a1a1a" transform="matrix(.7071 -.7071 .7071 .7071 6.8661 41.6883)"/><path d="m14.1 49.4h.8v4.9h-.8z" fill="#666" transform="matrix(.7071 -.7071 .7071 .7071 -32.4316 25.4522)"/><path d="m14.2 49.5h.6v4.8h-.6z" fill="#1a1a1a" transform="matrix(.7071 -.7071 .7071 .7071 -32.4169 25.4168)"/><path d="m-2.9 29.7h66.4v1.3h-66.4z" fill="#e6e6e6" transform="matrix(.7071 -.7071 .7071 .7071 -12.5587 30.3194)"/><path d="m13.6 37.8c.2.2.2.5 0 .7s-.5.2-.7 0-.2-.5 0-.7.5-.2.7 0z" fill="#999"/><path d="m13.5 37.9c.1.1.1.3 0 .4s-.3.1-.4 0-.1-.3 0-.4.3-.1.4 0z" fill="#333"/><circle cx="15.4" cy="40.3" fill="#999" r=".9"/><circle cx="15.4" cy="40.3" fill="#333" r=".8"/><circle cx="35" cy="17.8" fill="#999" r="1.4"/><circle cx="35" cy="17.8" fill="#333" r="1.2"/><circle cx="35" cy="17.8" fill="#1a1a1a" r=".7"/><path d="m37.3 14.3c.2.2.2.4 0 .6s-.4.2-.6 0-.2-.4 0-.6c.1-.2.4-.2.6 0z" fill="#666"/><path d="m37.2 14.3c.1.1.1.3 0 .4s-.3.1-.4 0-.1-.3 0-.4.3-.1.4 0z" fill="#f2f2f2"/><path d="m38.1 13.4c.2.2.2.4 0 .6s-.4.2-.6 0-.2-.4 0-.6.5-.2.6 0z" fill="#666"/><path d="m38.1 13.5c.1.1.1.3 0 .4s-.3.1-.4 0-.1-.3 0-.4c0-.2.2-.2.4 0z" fill="#f2f2f2"/><path d="m39 12.5c.2.2.2.4 0 .6s-.4.2-.6 0-.2-.4 0-.6c.2-.1.4-.1.6 0z" fill="#666"/><path d="m38.9 12.6c.1.1.1.3 0 .4s-.3.1-.4 0-.1-.3 0-.4.3-.1.4 0z" fill="#f2f2f2"/><path d="m38.1 15.1c.2.2.2.4 0 .6s-.4.2-.6 0-.2-.4 0-.6.4-.2.6 0z" fill="#666"/><path d="m38 15.2c.1.1.1.3 0 .4s-.3.1-.4 0-.1-.3 0-.4c.1-.2.3-.2.4 0z" fill="#f2f2f2"/><path d="m38.9 14.2c.2.2.2.4 0 .6s-.4.2-.6 0-.2-.4 0-.6c.2-.1.5-.1.6 0z" fill="#666"/><path d="m38.9 14.3c.1.1.1.3 0 .4s-.3.1-.4 0-.1-.3 0-.4.3-.1.4 0z" fill="#f2f2f2"/><path d="m39.8 13.3c.2.2.2.4 0 .6s-.4.2-.6 0-.2-.4 0-.6c.2-.1.5-.1.6 0z" fill="#666"/><path d="m39.8 13.4c.1.1.1.3 0 .4s-.3.1-.4 0-.1-.3 0-.4c0-.1.2-.1.4 0z" fill="#f2f2f2"/><path d="m38.9 15.9c.2.2.2.4 0 .6s-.4.2-.6 0-.2-.4 0-.6.4-.2.6 0z" fill="#666"/><path d="m38.8 16c.1.1.1.3 0 .4s-.3.1-.4 0-.1-.3 0-.4.3-.1.4 0z" fill="#f2f2f2"/><path d="m39.8 15c.2.2.2.4 0 .6s-.4.2-.6 0-.2-.4 0-.6c.2-.1.4-.1.6 0z" fill="#666"/><path d="m39.7 15.1c.1.1.1.3 0 .4s-.3.1-.4 0-.1-.3 0-.4.3-.1.4 0z" fill="#f2f2f2"/><path d="m40.6 14.2c.2.2.2.4 0 .6s-.4.2-.6 0-.2-.4 0-.6.5-.2.6 0z" fill="#666"/><path d="m40.6 14.2c.1.1.1.3 0 .4s-.3.1-.4 0-.1-.3 0-.4.3-.1.4 0z" fill="#f2f2f2"/><path d="m39.7 16.7c.2.2.2.4 0 .6s-.4.2-.6 0-.2-.4 0-.6c.2-.1.5-.1.6 0z" fill="#666"/><path d="m39.7 16.8c.1.1.1.3 0 .4s-.3.1-.4 0-.1-.3 0-.4c0-.1.2-.1.4 0z" fill="#f2f2f2"/><path d="m40.6 15.9c.2.2.2.4 0 .6s-.4.2-.6 0-.2-.4 0-.6.4-.2.6 0z" fill="#666"/><path d="m40.5 15.9c.1.1.1.3 0 .4s-.3.1-.4 0-.1-.3 0-.4.3-.1.4 0z" fill="#ed1c24"/><path d="m41.5 15c.2.2.2.4 0 .6s-.4.2-.6 0-.2-.4 0-.6c.1-.2.4-.2.6 0z" fill="#666"/><path d="m41.4 15.1c.1.1.1.3 0 .4s-.3.1-.4 0-.1-.3 0-.4c.1-.2.3-.2.4 0z" fill="#f2f2f2"/><path d="m16.4 34h1.4v.7h-1.4z" fill="#666" transform="matrix(.7071 -.7071 .7071 .7071 -19.2424 22.1462)"/><path d="m16.5 34.1h1.2v.5h-1.2z" fill="#f7931e" transform="matrix(.7071 -.7071 .7071 .7071 -19.2424 22.1462)"/><path d="m18.1 32.3h1.4v.7h-1.4z" fill="#666" transform="matrix(.7071 -.7071 .7071 .7071 -17.5884 22.8313)"/><path d="m18.2 32.4h1.2v.5h-1.2z" fill="#29abe2" transform="matrix(.7071 -.7071 .7071 .7071 -17.5884 22.8313)"/><path d="m19.7 30.7h1.4v.7h-1.4z" fill="#666" transform="matrix(.7071 -.7071 .7071 .7071 -15.9344 23.5164)"/><path d="m19.8 30.8h1.2v.5h-1.2z" fill="#f2f2f2" transform="matrix(.7071 -.7071 .7071 .7071 -15.9344 23.5164)"/><path d="m29.4 20.7h1.9v.8h-1.9z" fill="#666" transform="matrix(.7071 -.7071 .7071 .7071 -6.0667 27.6661)"/><path d="m29.5 20.8h1.7v.6h-1.7z" fill="#f2f2f2" transform="matrix(.7071 -.7071 .7071 .7071 -6.0667 27.6661)"/><path d="m30.2 21.6h1.9v.8h-1.9z" fill="#666" transform="matrix(.7071 -.7071 .7071 .7071 -6.4077 28.4895)"/><path d="m30.3 21.7h1.7v.6h-1.7z" fill="#f2f2f2" transform="matrix(.7071 -.7071 .7071 .7071 -6.4077 28.4895)"/><path d="m31 22.4h1.9v.8h-1.9z" fill="#666" transform="matrix(.7071 -.7071 .7071 .7071 -6.7487 29.3128)"/><path d="m31.1 22.5h1.7v.6h-1.7z" fill="#f2f2f2" transform="matrix(.7071 -.7071 .7071 .7071 -6.7487 29.3128)"/><path d="m18.1 36.3h1.4v2.7h-1.4z" fill="#666" transform="matrix(.7071 -.7071 .7071 .7071 -21.1238 24.3492)"/><path d="m18.2 36.4h1.2v2.5h-1.2z" fill="#f2f2f2" transform="matrix(.7071 -.7071 .7071 .7071 -21.1238 24.3491)"/><path d="m19.4 35.1h1.4v2.7h-1.4z" fill="#666" transform="matrix(.7071 -.7071 .7071 .7071 -19.8833 24.863)"/><path d="m19.5 35.2h1.2v2.5h-1.2z" fill="#f2f2f2" transform="matrix(.7071 -.7071 .7071 .7071 -19.8833 24.863)"/><path d="m20.6 33.9h1.4v2.7h-1.4z" fill="#666" transform="matrix(.7071 -.7071 .7071 .7071 -18.6428 25.3768)"/><path d="m20.7 34h1.2v2.5h-1.2z" fill="#f2f2f2" transform="matrix(.7071 -.7071 .7071 .7071 -18.6428 25.3768)"/><path d="m21.8 32.6h1.4v2.7h-1.4z" fill="#666" transform="matrix(.7071 -.7071 .7071 .7071 -17.4023 25.8906)"/><path d="m21.9 32.7h1.2v2.5h-1.2z" fill="#f2f2f2" transform="matrix(.7071 -.7071 .7071 .7071 -17.4023 25.8906)"/><path d="m23.1 31.4h1.4v2.7h-1.4z" fill="#666" transform="matrix(.7071 -.7071 .7071 .7071 -16.1618 26.4045)"/><path d="m23.2 31.5h1.2v2.5h-1.2z" fill="#f2f2f2" transform="matrix(.7071 -.7071 .7071 .7071 -16.1618 26.4045)"/><path d="m32.4 23.6h1.4v1.4h-1.4z" fill="#666" transform="matrix(.7071 -.7071 .7071 .7071 -7.4601 30.5285)"/><path d="m32.5 23.7h1.2v1.2h-1.2z" fill="#f2f2f2" transform="matrix(.7071 -.7071 .7071 .7071 -7.4601 30.5285)"/><path d="m33.6 22.3h1.4v1.4h-1.4z" fill="#666" transform="matrix(.7071 -.7071 .7071 .7071 -6.2196 31.0423)"/><path d="m33.7 22.4h1.2v1.2h-1.2z" fill="#f2f2f2" transform="matrix(.7071 -.7071 .7071 .7071 -6.2197 31.0423)"/><path d="m34.9 21.1h1.4v1.4h-1.4z" fill="#666" transform="matrix(.7071 -.7071 .7071 .7071 -4.9791 31.5562)"/><path d="m35 21.2h1.2v1.2h-1.2z" fill="#1a1a1a" transform="matrix(.7071 -.7071 .7071 .7071 -4.9791 31.5562)"/><path d="m36.1 19.8h1.4v1.4h-1.4z" fill="#666" transform="matrix(.7071 -.7071 .7071 .7071 -3.7386 32.07)"/><path d="m36.2 19.9h1.2v1.2h-1.2z" fill="#f2f2f2" transform="matrix(.7071 -.7071 .7071 .7071 -3.7386 32.07)"/><path d="m37.4 18.6h1.4v1.4h-1.4z" fill="#666" transform="matrix(.7071 -.7071 .7071 .7071 -2.4981 32.5838)"/><path d="m37.5 18.7h1.2v1.2h-1.2z" fill="#f2f2f2" transform="matrix(.7071 -.7071 .7071 .7071 -2.4981 32.5838)"/><path d="m24.1 24.7h6.4v5.3h-6.4z" fill="#808080" transform="matrix(.7071 -.7071 .7071 .7071 -11.3189 27.3262)"/><path d="m24.3 24.8h6.1v5h-6.1z" fill="#29abe2" transform="matrix(.7071 -.7071 .7071 .7071 -11.3189 27.3262)"/><g fill="#808080"><path d="m13.5 44.8-6.3 6.3c-.5.5-1.3.5-1.8 0l-3.9-3.9c-.5-.5-.5-1.3 0-1.8l6.3-6.3c.5-.5 1.3-.5 1.8 0l3.9 3.9c.5.6.5 1.4 0 1.8z"/><path d="m51 7.4-6.3 6.3c-.5.5-1.3.5-1.8 0l-3.9-3.9c-.5-.5-.5-1.3 0-1.8l6.3-6.3c.5-.5 1.3-.5 1.8 0l3.9 3.9c.5.5.5 1.3 0 1.8z"/><path d="m9.6 23.5h28.3v.5h-28.3z" transform="matrix(.7071 -.7071 .7071 .7071 -9.8321 23.7367)"/></g><g transform="matrix(.7071 -.7071 .7071 .7071 -36.4414 24.6078)"><path d="m11 54.8h1v2.9h-1z" fill="#666"/><path d="m11.1 54.9h.8v2.7h-.8z" fill="#333"/><path d="m11.1 56.1h.8v.3h-.8z" fill="#29abe2"/></g></svg>