<svg enable-background="new 0 0 60 60" height="60" viewBox="0 0 60 60" width="60" xmlns="http://www.w3.org/2000/svg"><path d="m57.2 55.9h-54.4c-1.5 0-2.8-1-2.8-2.2v-47.4c0-1.2 1.2-2.2 2.8-2.2h54.5c1.5 0 2.8 1 2.8 2.2v47.4c-.1 1.2-1.3 2.2-2.9 2.2z" fill="#249ac1"/><g fill="#fff"><path d="m4 7.6h14.8v13.6h-14.8z"/><circle cx="6.8" cy="25.7" r="1.4"/><circle cx="11.4" cy="25.7" r="1.4"/><circle cx="15.9" cy="25.7" r="1.4"/><circle cx="6.8" cy="29.9" r="1.4"/><circle cx="11.4" cy="29.9" r="1.4"/><circle cx="15.9" cy="29.9" r="1.4"/><circle cx="6.8" cy="34" r="1.4"/><circle cx="11.4" cy="34" r="1.4"/><circle cx="15.9" cy="34" r="1.4"/><path d="m26.6 12.2h-.6v-4c0-.3-.4-.5-.7-.5s-.7.2-.7.5v4h-.5c-.1 0-.2.2-.2.5s.1.5.2.5h.5v7.5c0 .3.4.5.7.5s.7-.2.7-.5v-7.5h.6c.1 0 .2-.2.2-.5 0-.2-.1-.5-.2-.5z"/><path d="m31.1 14h-.6v-5.7c0-.3-.4-.5-.7-.5s-.7.2-.7.5v5.7h-.5c-.1 0-.2.2-.2.5s.1.5.2.5h.5v5.7c0 .3.4.5.7.5s.7-.2.7-.5v-5.7h.6c.1 0 .2-.2.2-.5-.1-.2-.1-.5-.2-.5z"/><path d="m35.5 15.2h-.6v-6.9c0-.3-.4-.5-.7-.5s-.7.2-.7.5v7h-.5c-.1 0-.2.2-.2.5s.1.5.2.5h.5v4.5c0 .3.4.5.7.5s.7-.2.7-.5v-4.5h.6c.1 0 .2-.2.2-.5 0-.4-.1-.6-.2-.6z"/><path d="m16 40.1c0 .8-.3 1.7-.6 1.7h-8.1c-.3 0-.6-.9-.6-1.7s.3-1.7.6-1.7h8.1c.4 0 .7.9.6 1.7z"/><path d="m8.8 52.7c-.8 0-1.7-.3-1.7-.6v-8.1c0-.3.9-.6 1.7-.6s1.7.3 1.7.6v8.1c0 .4-.9.7-1.7.6z"/><path d="m13.9 52.7c-.8 0-1.7-.3-1.7-.6v-8.1c0-.3.9-.6 1.7-.6s1.7.3 1.7.6v8.1c.1.4-.9.7-1.7.6z"/><path d="m28.1 28.1c-1.1 0-2-.9-2-2s.9-2 2-2 2 .9 2 2-.9 2-2 2zm0-3.4c-.8 0-1.4.6-1.4 1.4s.6 1.4 1.4 1.4 1.4-.6 1.4-1.4-.6-1.4-1.4-1.4z"/><path d="m33.5 28.1c-1.1 0-2-.9-2-2s.9-2 2-2 2 .9 2 2-.9 2-2 2zm0-3.4c-.8 0-1.4.6-1.4 1.4s.6 1.4 1.4 1.4 1.4-.6 1.4-1.4-.7-1.4-1.4-1.4z"/><path d="m38.8 28.1c-1.1 0-2-.9-2-2s.9-2 2-2 2 .9 2 2-.9 2-2 2zm0-3.4c-.8 0-1.4.6-1.4 1.4s.6 1.4 1.4 1.4 1.4-.6 1.4-1.4-.6-1.4-1.4-1.4z"/><path d="m44.2 28.1c-1.1 0-2-.9-2-2s.9-2 2-2 2 .9 2 2-.9 2-2 2zm0-3.4c-.8 0-1.4.6-1.4 1.4s.6 1.4 1.4 1.4 1.4-.6 1.4-1.4-.6-1.4-1.4-1.4z"/><path d="m49.6 28.1c-1.1 0-2-.9-2-2s.9-2 2-2 2 .9 2 2-.9 2-2 2zm0-3.4c-.8 0-1.4.6-1.4 1.4s.6 1.4 1.4 1.4 1.4-.6 1.4-1.4-.7-1.4-1.4-1.4z"/><path d="m41.6 13.1h-2.2c-.7 0-1.3-.5-1.3-1.2v-2.1c0-.7.6-1.2 1.3-1.2h2.2c.7 0 1.3.5 1.3 1.2v2.1c-.1.7-.6 1.2-1.3 1.2zm-2.3-3.9c-.4 0-.6.3-.6.6v2.1c0 .3.3.6.6.6h2.2c.4 0 .6-.3.6-.6v-2.1c0-.3-.3-.6-.6-.6z"/><path d="m48.2 13.1h-2.2c-.7 0-1.3-.5-1.3-1.2v-2.1c0-.7.6-1.2 1.3-1.2h2.2c.7 0 1.3.5 1.3 1.2v2.1c0 .7-.6 1.2-1.3 1.2zm-2.2-3.9c-.4 0-.6.3-.6.6v2.1c0 .3.3.6.6.6h2.2c.4 0 .6-.3.6-.6v-2.1c0-.3-.3-.6-.6-.6z"/><path d="m54.9 13.1h-2.2c-.7 0-1.3-.5-1.3-1.2v-2.1c0-.7.6-1.2 1.3-1.2h2.2c.7 0 1.3.5 1.3 1.2v2.1c0 .7-.6 1.2-1.3 1.2zm-2.2-3.9c-.4 0-.6.3-.6.6v2.1c0 .3.3.6.6.6h2.2c.4 0 .6-.3.6-.6v-2.1c0-.3-.3-.6-.6-.6z"/><path d="m41.6 20.3h-2.2c-.7 0-1.3-.5-1.3-1.2v-2.1c0-.7.6-1.2 1.3-1.2h2.2c.7 0 1.3.5 1.3 1.2v2.1c-.1.6-.6 1.2-1.3 1.2zm-2.3-3.9c-.4 0-.6.3-.6.6v2.1c0 .3.3.6.6.6h2.2c.4 0 .6-.3.6-.6v-2.1c0-.3-.3-.6-.6-.6z"/><path d="m48.2 20.3h-2.2c-.7 0-1.3-.5-1.3-1.2v-2.1c0-.7.6-1.2 1.3-1.2h2.2c.7 0 1.3.5 1.3 1.2v2.1c0 .6-.6 1.2-1.3 1.2zm-2.2-3.9c-.4 0-.6.3-.6.6v2.1c0 .3.3.6.6.6h2.2c.4 0 .6-.3.6-.6v-2.1c0-.3-.3-.6-.6-.6z"/><path d="m54.9 20.3h-2.2c-.7 0-1.3-.5-1.3-1.2v-2.1c0-.7.6-1.2 1.3-1.2h2.2c.7 0 1.3.5 1.3 1.2v2.1c0 .6-.6 1.2-1.3 1.2zm-2.2-3.9c-.4 0-.6.3-.6.6v2.1c0 .3.3.6.6.6h2.2c.4 0 .6-.3.6-.6v-2.1c0-.3-.3-.6-.6-.6z"/><path d="m30.8 53.3h-2.4c-.4 0-.7-.4-.7-.7v-11.6h.7c.4 0 .7-.3.7-.7v-9.4h1v9.4c0 .4.3.7.7.7h.7v11.6c0 .4-.4.7-.7.7z"/><path d="m36.4 52.6c0 .4-.3.7-.7.7h-2.4c-.4 0-.7-.4-.7-.7v-11.6h.7c.4 0 .7-.3.7-.7v-9.4h2.5z"/><path d="m40.7 53.3h-2.4c-.4 0-.7-.4-.7-.7v-21.8h2.4v9.4c0 .4.3.7.7.7h.7v11.6c0 .5-.3.8-.7.8z"/><path d="m45.6 53.3h-2.4c-.4 0-.7-.4-.7-.7v-11.6h.7c.4 0 .7-.3.7-.7v-9.4h1v9.4c0 .4.3.7.7.7h.7v11.6c.1.4-.3.7-.7.7z"/><path d="m50.5 53.3h-2.4c-.4 0-.7-.4-.7-.7v-11.6h.7c.4 0 .7-.3.7-.7v-9.4h1v9.4c0 .4.3.7.7.7h.7v11.6c.1.4-.3.7-.7.7z"/><path d="m56.2 52.6c0 .4-.4.7-.7.7h-2.5c-.4 0-.7-.4-.7-.7v-11.6h.7c.4 0 .7-.3.7-.7v-9.4h2.4z"/><path d="m22.7 52.6v-21.8h2.4v9.4c0 .4.4.7.7.7h.7v11.6c0 .4-.3.7-.7.7h-2.4c-.3.2-.7-.2-.7-.6z"/></g></svg>