<svg enable-background="new 0 0 60 60" height="60" viewBox="0 0 60 60" width="60" xmlns="http://www.w3.org/2000/svg"><path d="m3.3 43.2c-1.8 0-3.2-1.4-3.2-3.2v-20c0-1.8 1.4-3.2 3.2-3.2h53.3c1.8 0 3.2 1.4 3.2 3.2v20c0 1.8-1.4 3.2-3.2 3.2z" fill="#e6e6e6"/><g fill="#c12127"><path d="m56.7 17c1.7 0 3 1.4 3 3v20c0 1.7-1.4 3-3 3h-53.4c-1.7 0-3-1.4-3-3v-20c0-1.7 1.4-3 3-3zm0-.3h-53.4c-1.8 0-3.3 1.5-3.3 3.3v20c0 1.8 1.5 3.3 3.3 3.3h53.3c1.8 0 3.3-1.5 3.3-3.3v-20c.1-1.8-1.4-3.3-3.2-3.3z"/><path d="m48.3 21.7h6.7v6.6h-6.7z"/><path d="m48.3 31.7h6.7v6.6h-6.7z"/><path d="m38.3 31.7h6.7v6.6h-6.7z"/><path d="m28.3 31.7h6.7v6.6h-6.7z"/><path d="m18.3 31.7h6.7v6.6h-6.7z"/><path d="m38.3 21.7h6.7v6.6h-6.7z"/><path d="m28.3 21.7h6.7v6.6h-6.7z"/><path d="m18.3 21.7h6.7v6.6h-6.7z"/></g><path d="m5 21.7h10v6.6h-10z" fill="#78cae6"/><path d="m5 33.3h3.3v-1.6h-3.3z" fill="#222c30"/><path d="m11.7 33.3h3.3v-1.6h-3.3z" fill="#222c30"/><path d="m5 38.3h3.3v-1.6h-3.3z" fill="#d64564"/><path d="m11.7 38.3h3.3v-1.6h-3.3z" fill="#222c30"/><path d="m5 21.7h2.6l6.7 6.7h-2.6zm3.8 0h1.3l4.9 4.9v1.3z" fill="#fff"/></svg>