<svg enable-background="new 0 0 60 60" height="60" viewBox="0 0 60 60" width="60" xmlns="http://www.w3.org/2000/svg"><path clip-rule="evenodd" d="m4.1 0h3.2v3.2h-3.2zm48.6 0h3.2v3.2h-3.2zm-4.9 0h3.2v3.2h-3.2zm-38.9 0h3.2v3.2h-3.2z" fill="#647278" fill-rule="evenodd"/><path d="m59.2 1.6v58.4h-58.4v-58.4z" fill="#31383a"/><g clip-rule="evenodd" fill-rule="evenodd"><path d="m11.4 16.2h3.2v3.3h-3.2z" fill="#ffd900"/><path d="m16.2 16.2h3.3v3.3h-3.3z" fill="#fff"/><path d="m21.1 16.2h3.2v3.3h-3.2z" fill="#fff"/><path d="m25.9 16.2h3.3v3.3h-3.3z" fill="#a28bd9"/><path d="m30.8 16.2h3.3v3.3h-3.3z" fill="#ffd900"/><path d="m35.7 16.2h3.2v3.3h-3.2z" fill="#fff"/><path d="m40.5 16.2h3.3v3.3h-3.3z" fill="#fff"/><path d="m45.4 16.2h3.2v3.3h-3.2z" fill="#a28bd9"/><path d="m11.4 21.1h3.2v3.2h-3.2z" fill="#fff"/><path d="m16.2 21.1h3.3v3.2h-3.3z" fill="#ffd900"/><path d="m21.1 21.1h3.2v3.2h-3.2z" fill="#fff"/><path d="m25.9 21.1h3.3v3.2h-3.3z" fill="#a28bd9"/><path d="m30.8 21.1h3.3v3.2h-3.3z" fill="#fff"/><path d="m35.7 21.1h3.2v3.2h-3.2z" fill="#ffd900"/><path d="m40.5 21.1h3.3v3.2h-3.3z" fill="#fff"/><path d="m45.4 21.1h3.2v3.2h-3.2z" fill="#a28bd9"/><path d="m11.4 25.9h3.2v3.3h-3.2z" fill="#fff"/><path d="m16.2 25.9h3.3v3.3h-3.3z" fill="#fff"/><path d="m21.1 25.9h3.2v3.3h-3.2z" fill="#ffd900"/><path d="m25.9 25.9h3.3v3.3h-3.3z" fill="#a28bd9"/><path d="m30.8 25.9h3.3v3.3h-3.3z" fill="#fff"/><path d="m35.7 25.9h3.2v3.3h-3.2z" fill="#fff"/><path d="m40.5 25.9h3.3v3.3h-3.3z" fill="#ffd900"/><path d="m45.4 25.9h3.2v3.3h-3.2z" fill="#a28bd9"/><g fill="#fff"><path d="m11.4 30.8h3.2v3.3h-3.2z"/><path d="m16.2 30.8h3.3v3.3h-3.3z"/><path d="m21.1 30.8h3.2v3.3h-3.2z"/></g></g><path d="m25.9 30.8h3.3v3.3h-3.3z" fill="#9fc439"/><path clip-rule="evenodd" d="m30.8 30.8h3.3v3.3h-3.3z" fill="#fff" fill-rule="evenodd"/><path clip-rule="evenodd" d="m35.7 30.8h3.2v3.3h-3.2z" fill="#fff" fill-rule="evenodd"/><path clip-rule="evenodd" d="m40.5 30.8h3.3v3.3h-3.3z" fill="#fff" fill-rule="evenodd"/><path d="m45.4 30.8h3.2v3.3h-3.2z" fill="#9fc439"/><g clip-rule="evenodd" fill-rule="evenodd"><g fill="#78cae6"><path d="m11.4 35.7h3.2v3.2h-3.2z"/><path d="m16.2 35.7h3.3v3.2h-3.3z"/><path d="m21.1 35.7h3.2v3.2h-3.2z"/><path d="m25.9 35.7h3.3v3.2h-3.3z"/></g><path d="m30.8 35.7h3.3v3.2h-3.3z" fill="#ffd900"/><path d="m35.7 35.7h3.2v3.2h-3.2z" fill="#ffd900"/><path d="m40.5 35.7h3.3v3.2h-3.3z" fill="#ffd900"/><path d="m45.4 35.7h3.2v3.2h-3.2z" fill="#ffd900"/><g fill="#78cae6"><path d="m11.4 40.5h3.2v3.3h-3.2z"/><path d="m16.2 40.5h3.3v3.3h-3.3z"/><path d="m21.1 40.5h3.2v3.3h-3.2z"/><path d="m25.9 40.5h3.3v3.3h-3.3z"/></g><path d="m30.8 40.5h3.3v3.3h-3.3z" fill="#ffd900"/><path d="m35.7 40.5h3.2v3.3h-3.2z" fill="#ffd900"/><path d="m40.5 40.5h3.3v3.3h-3.3z" fill="#ffd900"/><path d="m45.4 40.5h3.2v3.3h-3.2z" fill="#ffd900"/><path d="m11.4 45.4h3.2v3.2h-3.2z" fill="#d64564"/><path d="m16.2 45.4h3.3v3.2h-3.3z" fill="#d64564"/><path d="m21.1 45.4h3.2v3.2h-3.2z" fill="#d64564"/><path d="m25.9 45.4h3.3v3.2h-3.3z" fill="#d64564"/><path d="m30.8 45.4h3.3v3.2h-3.3z" fill="#a28bd9"/><path d="m35.7 45.4h3.2v3.2h-3.2z" fill="#a28bd9"/><path d="m40.5 45.4h3.3v3.2h-3.3z" fill="#a28bd9"/><path d="m45.4 45.4h3.2v3.2h-3.2z" fill="#a28bd9"/><path d="m11.4 50.3h3.2v3.2h-3.2z" fill="#d64564"/><path d="m16.2 50.3h3.3v3.2h-3.3z" fill="#d64564"/><path d="m21.1 50.3h3.2v3.2h-3.2z" fill="#d64564"/><path d="m25.9 50.3h3.3v3.2h-3.3z" fill="#d64564"/><path d="m30.8 50.3h3.3v3.2h-3.3z" fill="#a28bd9"/><path d="m35.7 50.3h3.2v3.2h-3.2z" fill="#a28bd9"/><path d="m40.5 50.3h3.3v3.2h-3.3z" fill="#a28bd9"/><path d="m45.4 50.3h3.2v3.2h-3.2z" fill="#a28bd9"/><path d="m11.4 56.8h3.2v-1.6h-3.2zm34 0h3.2v-1.6h-3.2zm-4.9 0h3.2v-1.6h-3.2zm-4.8 0h3.2v-1.6h-3.2zm-4.9 0h3.2v-1.6h-3.2zm-4.9 0h3.2v-1.6h-3.2zm-4.8 0h3.2v-1.6h-3.2zm-4.9 0h3.2v-1.6h-3.2z" fill="#647278"/></g><path d="m10.5 4.9h39v6.5h-39z" fill="#a63c53"/><g clip-rule="evenodd" fill-rule="evenodd"><path d="m11.4 14.6h3.2v-1.6h-3.2zm34 0h3.2v-1.6h-3.2zm-4.9 0h3.2v-1.6h-3.2zm-4.8 0h3.2v-1.6h-3.2zm-4.9 0h3.2v-1.6h-3.2zm-4.9 0h3.2v-1.6h-3.2zm-4.8 0h3.2v-1.6h-3.2zm-4.9 0h3.2v-1.6h-3.2z" fill="#a0b3ba"/><path d="m13.8 4.9h2.5l6.5 6.5h-2.5zm13 0h4.1l6.5 6.5h-4.1zm5.3 0h2.9l6.5 6.5h-2.9zm-14.6 0h1.2l6.5 6.5h-1.2z" fill="#d64564"/><path d="m4.1 8.1c0-1.3 1.1-2.4 2.4-2.4s2.4 1.1 2.4 2.4-1.1 2.4-2.4 2.4-2.4-1-2.4-2.4z" fill="#647278"/><path d="m7.1 8.7c-.4.3-.9.3-1.2 0s-.3-.8 0-1.1l1.7-1.7c.3-.3.8-.3 1.1 0s.3.8 0 1.1z" fill="#fff"/><path d="m52.6 9.8c-.9-.9-.9-2.5 0-3.4s2.5-.9 3.4 0 .9 2.5 0 3.4c-.9 1-2.4 1-3.4 0z" fill="#647278"/><path d="m55.1 8.3c-.1.4-.6.7-1 .6s-.7-.6-.6-1l.6-2.3c.1-.4.6-.7 1-.6s.7.6.6 1z" fill="#fff"/><path d="m4.9 14.6h3.2v-1.6h-3.2zm0 42.2h3.2v-1.6h-3.2zm0-3.3h3.2v-3.2h-3.2zm0-4.9h3.2v-3.2h-3.2zm0-4.8h3.2v-3.2h-3.2zm0-4.9h3.2v-3.2h-3.2zm0-4.8h3.2v-3.2h-3.2zm0-4.9h3.2v-3.2h-3.2zm0-4.9h3.2v-3.2h-3.2zm0-4.8h3.2v-3.2h-3.2z" fill="#647278"/><path d="m52.7 14.6h3.2v-1.6h-3.2zm0 42.2h3.2v-1.6h-3.2zm0-22.7h3.2v-3.2h-3.2zm0-4.9h3.2v-3.2h-3.2zm0-4.9h3.2v-3.2h-3.2zm0-4.8h3.2v-3.2h-3.2z" fill="#647278"/><path d="m52.7 53.5h3.2v-1.6h-3.2z" fill="#a0b3ba"/><path d="m52.7 50.3h3.2v-1.7h-3.2z" fill="#a0b3ba"/><path d="m52.7 47h3.2v-1.6h-3.2z" fill="#a0b3ba"/><path d="m52.7 43.8h3.2v-1.6h-3.2z" fill="#a0b3ba"/><path d="m52.7 40.5h3.2v-1.6h-3.2z" fill="#a0b3ba"/><path d="m52.7 37.3h3.2v-1.6h-3.2z" fill="#647278"/></g></svg>