<svg enable-background="new 0 0 60 60" height="60" viewBox="0 0 60 60" width="60" xmlns="http://www.w3.org/2000/svg"><path d="m54 60h-48c-2.3 0-4.1-1.9-4.1-4.1v-51.8c0-2.2 1.9-4.1 4.1-4.1h48c2.3 0 4.1 1.9 4.1 4.1v51.7c0 2.3-1.9 4.2-4.1 4.2z" fill="#063e89"/><g fill="#fff"><path d="m5.9 50.1h49.4v7.1h-49.4z"/><circle cx="8" cy="4.9" r="1.8"/><path d="m5.9 8.3h4.1v4.1h-4.1z"/><path d="m5.9 13.4h4.1v4.1h-4.1z"/><path d="m5.9 18.4h4.1v4.1h-4.1z"/><path d="m5.9 23.5h4.1v4.1h-4.1z"/><path d="m5.9 28.6h4.1v4.1h-4.1z"/><path d="m5.9 33.6h4.1v4.1h-4.1z"/><path d="m5.9 38.7h4.1v4.1h-4.1z"/><path d="m5.9 43.8h4.1v4.1h-4.1z"/><circle cx="13.7" cy="4.9" r="1.8"/><path d="m11.7 8.3h4.1v4.1h-4.1z"/><path d="m11.7 13.4h4.1v4.1h-4.1z"/><path d="m11.7 18.4h4.1v4.1h-4.1z"/><path d="m11.7 23.5h4.1v4.1h-4.1z"/><path d="m11.7 28.6h4.1v4.1h-4.1z"/><path d="m11.7 33.6h4.1v4.1h-4.1z"/><path d="m11.7 38.7h4.1v4.1h-4.1z"/><path d="m11.7 43.8h4.1v4.1h-4.1z"/><circle cx="19.4" cy="4.9" r="1.8"/><path d="m17.4 8.3h4.1v4.1h-4.1z"/><path d="m17.4 13.4h4.1v4.1h-4.1z"/><path d="m17.4 18.4h4.1v4.1h-4.1z"/><path d="m17.4 23.5h4.1v4.1h-4.1z"/><path d="m17.4 28.6h4.1v4.1h-4.1z"/><path d="m17.4 33.6h4.1v4.1h-4.1z"/><path d="m17.4 38.7h4.1v4.1h-4.1z"/><path d="m17.4 43.8h4.1v4.1h-4.1z"/><circle cx="25.2" cy="4.9" r="1.8"/><path d="m23.1 8.3h4.1v4.1h-4.1z"/><path d="m23.1 13.4h4.1v4.1h-4.1z"/><path d="m23.1 18.4h4.1v4.1h-4.1z"/><path d="m23.1 23.5h4.1v4.1h-4.1z"/><path d="m23.1 28.6h4.1v4.1h-4.1z"/><path d="m23.1 33.6h4.1v4.1h-4.1z"/><path d="m23.1 38.7h4.1v4.1h-4.1z"/><path d="m23.1 43.8h4.1v4.1h-4.1z"/><circle cx="30.9" cy="4.9" r="1.8"/><path d="m28.9 8.3h4.1v4.1h-4.1z"/><path d="m28.9 13.4h4.1v4.1h-4.1z"/><path d="m28.9 18.4h4.1v4.1h-4.1z"/><path d="m28.9 23.5h4.1v4.1h-4.1z"/><path d="m28.9 28.6h4.1v4.1h-4.1z"/><path d="m28.9 33.6h4.1v4.1h-4.1z"/><path d="m28.9 38.7h4.1v4.1h-4.1z"/><path d="m28.9 43.8h4.1v4.1h-4.1z"/><circle cx="36.7" cy="4.9" r="1.8"/><path d="m34.6 8.3h4.1v4.1h-4.1z"/><path d="m34.6 13.4h4.1v4.1h-4.1z"/><path d="m34.6 18.4h4.1v4.1h-4.1z"/><path d="m34.6 23.5h4.1v4.1h-4.1z"/><path d="m34.6 28.6h4.1v4.1h-4.1z"/><path d="m34.6 33.6h4.1v4.1h-4.1z"/><path d="m34.6 38.7h4.1v4.1h-4.1z"/><path d="m34.6 43.8h4.1v4.1h-4.1z"/><circle cx="42.4" cy="4.9" r="1.8"/><path d="m40.4 8.3h4.1v4.1h-4.1z"/><path d="m40.4 13.4h4.1v4.1h-4.1z"/><path d="m40.4 18.4h4.1v4.1h-4.1z"/><path d="m40.4 23.5h4.1v4.1h-4.1z"/><path d="m40.4 28.6h4.1v4.1h-4.1z"/><path d="m40.4 33.6h4.1v4.1h-4.1z"/><path d="m40.4 38.7h4.1v4.1h-4.1z"/><path d="m40.4 43.8h4.1v4.1h-4.1z"/><circle cx="48.2" cy="4.9" r="1.8"/><path d="m46.1 8.3h4.1v4.1h-4.1z"/><path d="m46.1 13.4h4.1v4.1h-4.1z"/><path d="m46.1 18.4h4.1v4.1h-4.1z"/><path d="m46.1 23.5h4.1v4.1h-4.1z"/><path d="m46.1 28.6h4.1v4.1h-4.1z"/><path d="m46.1 33.6h4.1v4.1h-4.1z"/><path d="m46.1 38.7h4.1v4.1h-4.1z"/><path d="m46.1 43.8h4.1v4.1h-4.1z"/><circle cx="53.5" cy="10.2" r="1.8"/><circle cx="53.5" cy="15.3" r="1.8"/><circle cx="53.5" cy="20.5" r="1.8"/><circle cx="53.5" cy="25.6" r="1.8"/><circle cx="53.5" cy="30.7" r="1.8"/><circle cx="53.5" cy="35.8" r="1.8"/><circle cx="53.5" cy="41" r="1.8"/><circle cx="53.5" cy="46.1" r="1.8"/></g></svg>