<svg enable-background="new 0 0 60 60" height="60" viewBox="0 0 60 60" width="60" xmlns="http://www.w3.org/2000/svg"><path d="m27.1 31c-2.5-3-4.6-3.6-6.2-3.6-1.9 0-3.7 1.2-4.6 3.3-1 2.6-1.3 4.6-3.6 4.9-2.8.3-8.7.6-11.5 6.4-2.3 5-.7 9.7 3.2 13.7 5 5.2 10.7 5.8 15.4.7 3-3.2 2.8-6.4 3-9.1.3-3 1.2-3.4 3.4-4.1s3.6-2.1 3.9-3.2c.2-.8-.1-1.2-1.2-.9-1.2.2-3.2-.8-3-2.6.1-1.8 1.8-3.1 2.5-4 .8-.8-.3-1-.3-1z" fill="#00572c"/><path d="m8.8 44.2c.2-.2.5-.4.6-.3l4.9 4.9c.1.1-.1.4-.3.6-.3.3-.6.4-.6.3l-4.9-4.9c-.1 0 0-.3.3-.6zm2.4-1.7c.2-.2.6-.2.8 0l3.6 3.6c.2.2.2.5 0 .8-.2.2-.5.2-.7 0l-3.6-3.6c-.3-.2-.3-.6-.1-.8zm5.7 3.6s1.8 2.1 2.2 2.9 1.4.9 1.8-.1 3.8-8.3 4.3-9.4.4-1.3.3-2.1c-.2-.8-.2-1.2-.1-1.5s-.1 0-.1 0l-1.2 1.1s.5.5.6.6c.1.2.2.4 0 .5-.2.2-1.7 1.7-1.9 2-.2.2-.4.2-.5 0s-.5-.5-.5-.5l-3.1 3.3s.3.3.5.5c.1.2.1.4 0 .4-.1.1-2.3 2.3-2.3 2.3zm-4.4-5 1.9-1.9c.1-.1.2-.1.3 0l4.2 4.2c.1.1.1.2 0 .3l-1.9 1.9c-.1.1-.2.1-.3 0l-4.2-4.2c-.1-.1-.1-.2 0-.3z" fill="#fff"/><path d="m13 41.5 1.8-1.8c.1-.1.1-.1.2 0l3.4 3.4c.1 0 .1.1 0 .2l-1.8 1.8s-.1 0-.2 0l-3.4-3.4s0-.1 0-.2z"/><g fill="#fff"><circle cx="13.9" cy="41.6" r=".3"/><circle cx="14.4" cy="42.1" r=".3"/><circle cx="14.9" cy="42.6" r=".3"/><circle cx="15.5" cy="43.1" r=".3"/><circle cx="16" cy="43.7" r=".3"/><circle cx="16.6" cy="44.2" r=".3"/><path d="m18.1 35.5 1.9-1.9c.1-.1.2-.1.3 0l4.2 4.2c.1.1.1.2 0 .3l-1.8 1.9c-.1.1-.2.1-.3 0l-4.2-4.2c-.2-.1-.2-.3-.1-.3z"/></g><path d="m18.7 35.9 1.8-1.8c0-.1.1-.1.2 0l3.4 3.4c.1.1.1.2 0 .2l-1.8 1.8c0 .1-.1.1-.2 0l-3.4-3.4c-.1-.1-.1-.2 0-.2z"/><g fill="#fff"><circle cx="20.5" cy="35" r=".3"/><circle cx="21" cy="35.5" r=".3"/><circle cx="21.5" cy="36" r=".3"/><circle cx="22.1" cy="36.6" r=".3"/><circle cx="22.6" cy="37.1" r=".3"/><circle cx="23.1" cy="37.6" r=".3"/><circle cx="12.1" cy="55.1" r=".9"/><circle cx="15.3" cy="51.9" r=".9"/><circle cx="18.7" cy="52.9" r=".9"/><circle cx="15.7" cy="56" r=".9"/><circle cx="20" cy="30.6" r="1.3"/></g><circle cx="20" cy="30.6" r=".6"/><circle cx="20" cy="30.6" fill="#fff" r=".3"/><path d="m19.9 30.7-.7-.2s-.3-.1-.1-.3c.1-.3.4-.1.4-.1l.5.4s.1.1 0 .1c0 .1-.1.1-.1.1z"/><path d="m19.1 30.4s-.1-.1 0-.3c0-.1.1-.1.1-.1.1 0 .3.1.3.1l.5.4s.1.1 0 .1c0 .1-.1.1-.2.1l-.6-.2c.1 0 0-.1-.1-.1zm.9.1-.6-.4s-.1-.1-.2-.1-.1 0-.1.1v.2s.1.1.1.1l.7.2h.1c.1 0 .1 0 0-.1z" fill="#fff"/><path d="m11.8 43.2c.1-.1.2-.1.2 0l.2.2c.1.1.1.2 0 .2h-.1c-.1.1-.2.1-.2 0l-.2-.2c0-.1 0-.2.1-.2zm.5.5c.1-.1.2-.1.3 0l.2.2c.1.1.1.2 0 .2-.1.1-.2.1-.2 0l-.2-.2c-.1-.1-.1-.2-.1-.2zm.5.5c.1-.1.2-.1.3 0l.2.2c.1.1.1.2 0 .2-.1.1-.2.1-.2 0l-.2-.2c-.1 0-.1-.1-.1-.2zm.6.5c.1-.1.2-.1.2 0l.2.2c.1.1.1.2 0 .2h-.1c-.1.1-.2.1-.2 0l-.1-.1c-.1-.1-.1-.2 0-.3zm.6.6c.1-.1.2-.1.3 0l.2.2c.1.1.1.2 0 .2-.1.1-.2.1-.2 0l-.3-.2c-.1 0-.1-.1 0-.2zm.5.6c.1-.1.2-.1.3 0l.2.2c.1.1.1.2 0 .2-.1.1-.2.1-.2 0l-.2-.2c-.1-.1-.1-.2-.1-.2z"/><circle cx="11.5" cy="42.8" r=".1"/><circle cx="15.3" cy="46.6" r=".1"/><path d="m12.8 48.7-3.1-3.1c-.1-.1-.1-.2 0-.3l.2-.2c.1-.1.2-.1.3 0l3.1 3.1c.1.1.1.2 0 .3l-.2.2c-.1.1-.2.1-.3 0zm-2.7-3.6c-.1-.1-.2-.1-.2 0l-.2.2c-.1.1-.1.2 0 .2l3.1 3.1c.1.1.2.1.2 0l.2-.2c.1-.1.1-.2 0-.2z"/><circle cx="9.2" cy="44.7" r=".4"/><circle cx="13.6" cy="49" r=".4"/><path d="m21.1 34.1 3 3s24.5-25.2 25.1-25.8 1.9-1.3 3.1-.9c1.3-1.6 3.7-3.8 7.6-6.1 0 0-.4-.2-.7-.5-.5-.4-.5-.7-.7-1.1-.3-.6-.7-.6-.7-.6s-.1-.5-.7-.6c-.6-.2-1.4-.5-1.7-1.2-.1 0-2 2.1-3.7 3.6s-3.1 2.5-3.5 2.8c-.1.1.2.7-1.5 2.4-1.7 1.6-25.6 25-25.6 25z" fill="#00572c"/><path d="m21 34.1c.3-.3 24-23.4 25.7-25.1 1.4-1.4 1.5-2 1.5-2.2 0-.1 0-.1 0-.1.4-.3 1.8-1.3 3.5-2.8 1.1-1 2.3-2.2 3-2.9.6-.6.7-.7.8-.7.1.2.2.4.3.5.4.4.9.6 1.3.7.2 0 .4.1.5.3.2 0 .2.2.3.2s.2.1.4.2c.1.1.2.2.3.4 0 .1.1.1.1.2.1.3.2.5.6.8.2.2.4.3.5.4s.1.1.2.1v.1c-4.3 2.5-6.6 4.9-7.6 6.1-1.1-.4-2.5.3-3 .9-.6.6-24.8 25.5-25.1 25.7zm27.3-27.4c0 .3-.1 1-1.5 2.4-1.7 1.7-24.5 24-25.6 25l2.9 2.9c1.1-1.1 24.5-25.1 25-25.7.6-.6 1.9-1.3 3.1-.9 1-1.2 3.3-3.6 7.5-6.1 0 0-.1 0-.1-.1-.1-.1-.4-.2-.5-.4-.4-.4-.5-.6-.6-.9 0-.1-.1-.1-.1-.2-.1-.2-.2-.3-.2-.4-.2-.2-.3-.2-.4-.2s0-.2-.2-.3c-.1-.1-.3-.2-.5-.3-.4-.1-.9-.3-1.3-.7-.2-.2-.3-.3-.3-.5-.1.1-.4.4-.7.7-.7.7-1.9 1.9-3 2.9-1.7 1.4-3 2.5-3.5 2.8z" fill="#fff"/><path d="m55.7 8c.1.1.2 0 .2.1v.2c0 .4.4.6.5.8.1.3.1.2.3.1s.3-.1.5-.3.2-.3.3-.4c.2-.2.1-.3-.1-.3-.4-.2-.5-.6-.9-.5-.2 0-.2.1-.2 0 0 0 0-.1 0-.2-.3-.2-.8.4-.6.5zm-.4-.7.4.4.1-.2-.4-.4zm-1.5 2.4c.1.1.2 0 .2.1v.2c0 .4.4.6.5.8s.1.1.3 0 .2-.1.4-.3.2-.3.3-.4c.2-.2.1-.2-.1-.3-.3-.1-.4-.5-.8-.4-.2 0-.2.1-.2 0 0 0 0-.1 0-.2-.3-.2-.8.3-.6.5zm-.3-.7.4.4.1-.1-.4-.4zm4.3-2.6c.1.1.2 0 .2.1v.2c0 .4.4.6.5.8s.1.2.3 0c.2-.1.2-.1.4-.3l.4-.4c.2-.2.1-.3-.1-.3-.3-.1-.4-.5-.8-.4-.2 0-.2.1-.2 0 0 0 0-.1 0-.2-.3-.2-.8.3-.7.5zm-.3-.6.4.4.2-.2-.4-.4zm-5.9-2.8c-.1-.1-.1 0-.2 0 0 0 0-.1 0-.2.1-.5-.4-.6-.4-.9-.1-.3-.1-.2-.3 0-.2.1-.3.1-.5.3s-.2.2-.3.4c-.2.2-.1.2.1.3.3.1.4.5.8.4.2 0 .2-.1.2 0v.2c.2.2.8-.4.6-.5zm.3.6-.4-.4-.2.2.4.4zm1.6-2.4c-.1-.1-.2 0-.2 0s0-.1 0-.2c0-.4-.4-.6-.5-.8s-.1-.2-.3-.1-.2.1-.4.3-.2.3-.3.4c-.2.2-.1.2.1.3.3.1.4.5.8.4.2 0 .2-.1.2 0v.2c.2.2.7-.4.6-.5zm.3.7-.4-.4-.1.1.3.4zm-4.1 2.8c-.1-.1-.2 0-.2-.1 0 0 0-.1 0-.2 0-.4-.4-.5-.5-.8s-.1-.2-.3 0c-.2.1-.3.1-.5.3s-.2.3-.3.4-.1.2.1.3c.3.1.4.5.8.4.2 0 .2-.1.3 0v.2c.2.2.7-.4.6-.5zm.3.6-.4-.4-.1.2.4.4z" fill="#00572c"/><path d="m46.6 9.1.2-.2h.1l2.3 2.3v.1l-.2.2s0 0-.1 0zm-2 2.1.2.2.2.1.2.1.2.1.2.1.2.2.2.2.1.1.2.1.2.1.1.1.2.1.2.1.2.1.1.1s.1.1.1 0v-.1l-.4.4-.2-.2-.1-.1-.2-.1-.2-.1-.2-.1-.2-.2-.1-.1-.1-.4-.2-.2-.2-.1-.2-.1-.1-.2-.2-.1-.2-.1v-.2h-.1s0 .1.1.2zm-1.9 1.8.2.2.2.1.1.1.2.2.3.3.3.3.2.2.2.1.2.1.2.1.2.1.2.1.1.1s.1.1.1 0v-.1l-.1-.1-.3.2-.2-.1-.2-.1-.2-.1-.2-.1-.2-.2-.3-.3-.3-.3-.2-.2-.2-.1v-.4l-.1-.1h-.2c0-.1 0-.1-.1-.1.1 0 .1.1.1.1zm-1.7 1.7.1.1.1.1.2.2.2.1.1.1.2.1.2.2.3.3.2.2.2.1.2.2.2.1.2.2.2.2.1.1s.1.1.1 0v-.1l-.3.1-.2-.2-.2-.1-.1-.2-.2-.1-.2-.1-.1-.3-.3-.3-.2-.2-.2-.2-.2-.1-.2-.1-.2-.1-.1-.1-.1-.2c-.1 0-.1.1 0 0zm-1.6 1.7.3.2.2.1.2.2.2.2.2.1.2.2.3.3.3.3.2.2.2.1.2.1.2.1.1.1h.1v-.1l-.1-.1-.2-.1-.2-.1-.2-.1-.2-.2-.3-.3-.3-.3-.2-.2-.4-.1-.2-.2-.2-.1-.2-.2-.2-.2v.1c0-.1 0-.1 0-.1-.1 0-.1 0 0 .1zm-1.6 1.4.1.1.1.1.1.1.1.1.2.1.2.2.1.1.2.2.2.2.1.1.2.1.2.2.2.1.1.1.1.1.1.1.1.1.1.1.1.1h.1v-.1l-.1-.1-.2.1-.1-.1-.1-.1-.1-.1-.2-.2-.1-.1-.2-.1-.1-.3-.2-.2-.2-.2-.2-.1-.2-.1-.1-.2-.1-.2-.1-.1-.1-.1h-.1c-.1-.1-.1-.1-.2 0zm-1.4 1.4.2.1.3.3.3.3.2.2.2.2.2.1.2.2.2.2.2.2.2.2.2.2.2.2.2.2.1.1h.1v-.1l-.1-.1-.2-.2-.2-.2-.2-.2-.2-.2-.2-.2-.2-.2-.1-.2-.2-.1-.2-.2-.2-.2-.3-.3-.3-.3-.2-.1h-.1s-.2.1-.1.1zm-1.4 1.3.2.1.3.3.3.3.2.2.2.1.2.1.2.2.2.2.2.2.2.2.2.2.2.2.1.1.1.1h.1v-.1l-.1-.1-.1-.1-.2-.2-.2-.2-.2-.2-.2-.2-.2-.2-.2-.1-.2-.2-.2-.2-.2-.2-.3-.3-.3-.3-.2-.1h-.1zm-1.3 1.4.2.2.3.3.3.3.2.2.2.2.2.2.2.1.2.2.2.2.2.2.2.2.2.2.2.1.1.1h.1s0-.1 0-.1l-.1-.1-.1-.1-.2-.2-.2-.2-.2-.2-.2-.2-.2-.1-.2-.2-.3-.3-.2-.2-.2-.2-.3-.3-.3-.3-.2-.1h-.1zm-1.2 1.1.2.2.3.3.3.3.2.2.1.2.2.2.2.2.2.2.2.2.2.2.2.2.2.2.2.2.1.1h.1v-.1l-.1-.1-.2-.2-.2-.2-.4-.3-.2-.2-.2-.2-.1-.1-.2-.2-.2-.2v-.1l-.2-.2-.4-.3-.3-.3-.2-.2c0-.1 0-.1 0 0-.1 0-.1 0 0 0zm-1.2 1.2.2.2.2.2.3.3.2.2.2.1.2.2.2.2.2.2.2.2.2.2.2.2.2.2.1.1.1.1h.1v-.1h-.1l-.1-.1-.1-.1-.2-.2-.2-.2-.2-.2-.2-.2v-.1l-.2-.2-.2-.1-.2-.2-.2-.2-.2-.4-.2-.2-.2-.2-.1-.1h-.1c-.1 0-.1.1-.1.2zm-1.1 1 .1.1.1.2.2.2.4.3.2.2.2.2.2.2.2.2.2.2.2.2.2.2.2.2.1.1.1.1.1.1.1.1h.1v-.1l-.1-.1-.1-.1-.1-.1-.2-.1-.2-.2-.2-.3-.2-.2-.2-.2-.2-.2-.2-.2-.2-.2-.2-.2-.3-.3-.2-.2-.2-.2-.1-.1h-.1c.1.1.1.2.1.2zm-1 1 .2.2.2.2.4.4.2.2.2.1.2.2.1.2.2.2.2.2.2.2.2.2.1.1.1.1.1.1.1.1h.1v-.1l-.1-.1-.1-.1-.1-.1-.1-.1-.2-.2-.2-.2-.2-.2-.2-.2-.2-.2-.2-.2-.2-.2-.2-.3-.3-.3-.2-.2-.2-.2-.1-.1h-.1c.1.2.1.2.1.3zm-1 1 .2.2.2.2.3.3.2.2.2.2.2.2.2.2.2.2.2.2.2.2.2.2.1.1.1.1.1.1.1.1h.1v-.1l-.1-.1-.1-.1-.1-.1-.1-.1-.2-.2-.2-.2-.2-.2-.2-.2-.2-.2-.2-.2-.2-.2-.2-.2-.3-.3-.2-.2-.2-.2-.1-.1s-.1-.1-.1 0 .1.2.1.2zm-.9.9.2.2.2.2.3.3.2.2.2.1.2.2.2.2.2.2.2.2.2.2.2.2.1.1.1.1.1.1.1.1h.1v-.1h-.1l-.1-.1-.1-.1-.1-.1-.2-.2-.2-.2-.2-.2-.1-.1-.2-.2-.2-.2-.2-.2-.2-.3-.3-.3-.2-.2-.2-.2h-.1-.1zm-.8.9.2.2.2.1.2.2.2.2.2.2.2.2.2.2.1.2.2.2.2.2.2.2.2.2.1.1.1.1.1.1.1.1.1.1.1.1h.1s0-.1 0-.1l-.1-.1-.4-.3-.1-.1-.1-.1-.1-.1-.1-.1-.2-.2-.2-.2-.2-.2-.2-.2-.2-.2-.2-.2-.2-.2-.2-.2-.2-.2-.2-.1-.2-.2-.2-.2-.1-.1h-.1c.4.2.4.3.5.4zm-.8.8.2.2.2.2.2.2.2.2.2.1.2.2.2.2.1.2.2.2.2.2.2.2.2.2.1.1.1.1.1.1.1.1.1.1.1.1h.1v-.1l-.1-.1-.1-.1-.1-.1-.4-.3v-.1l-.1-.1-.2-.2-.2-.2-.2-.2-.2-.2-.1-.1-.2-.2-.2-.2-.2-.2-.2-.2-.1-.1-.1-.1-.2-.2-.1-.1h-.1s0 .1.1.2zm-.9.7.2.2.3.3.3.3.2.2.2.2.2.2.2.2.2.2.2.2.2.2.2.2.2.2.1.2.1.1h.1.1s0-.1 0-.1l-.1-.1-.1-.2-.2-.2-.2-.2-.2-.2-.2-.2-.3-.2-.2-.2-.2-.2-.1-.2-.2-.3-.3-.3-.3-.3-.2-.2h-.1c-.1.1-.1.1-.1.2zm-.7.7.2.2.3.3.3.3.2.3.2.2.2.2.2.2.2.2.2.2.2.2.2.2.2.2.1.2.1.1h.1v-.1h-.1l-.1-.1-.1-.1-.2-.2-.2-.2-.2-.2-.1-.4-.2-.2-.2-.2-.2-.2-.2-.2-.2-.1-.3-.3-.3-.3-.2-.2h-.1c-.1-.1 0 0 0 0zm-.7.7.2.2.3.3.3.3.3.2.2.2.2.2.2.2.2.2.2.2.2.2.2.2.2.2.1.1.1.1h.1s0-.1 0-.1l-.1-.1-.1-.2-.2-.2-.3-.1-.2-.2-.2-.2-.2-.2-.1-.2-.2-.2-.2-.2-.2-.2-.4-.3-.3-.3-.2-.2s-.1 0-.1.1c0-.1 0 0 0 0zm-.6.6.1.1.2.2.3.3.3.3.3.3.2.2.2.2.2.2.2.2.2.2.2.2.2.2.1.1.1.1.1.1.1.1v.1h.1v-.1h-.1l-.1-.1-.1-.1-.2-.3-.1-.2-.3-.2-.2-.2-.2-.2-.2-.2-.2-.2-.2-.2-.2-.3-.4-.3-.3-.3-.1-.2-.1-.1h-.1c-.1.1 0 .1 0 .1zm-.6.6.2.3.3.2.3.4.3.3.2.2.2.2.2.2.2.2.2.2.2.2.2.2.1.1.1.1.1.1.1.1h.1v-.1l-.2-.3-.1-.1-.1-.1-.1-.2-.2-.2-.2-.1-.2-.2-.2-.2-.2-.2-.2-.2-.2-.2-.2-.3-.3-.3-.3-.3-.2-.2-.1.1h-.1s0 .1.1.1zm-.6.6.1.1.2.2.2.2.3.3.3.3.2.2.2.2.2.2.2.2.2.2.2.2.2.2.1.2.1.1.1.1.1.1h.1v-.1l-.1-.1-.1-.1-.1-.1-.1-.1-.1-.2-.2-.2-.2-.2-.2-.2-.2-.2-.2-.2-.1-.1-.2-.2-.2-.3-.3-.3-.3-.2-.2-.2-.1-.1s-.1-.1-.1 0c-.1 0 0 .1 0 .1zm20.6-18.8 1.1 1.1s.6-.5 1.2-.6l-1.6-1.6c0-.1-.2.5-.7 1.1zm-3.3 3.2 1.1 1.1s.5-.5 1.2-.6l-1.6-1.6s-.2.6-.7 1.1zm-2.8 2.8 1.2 1.2s.4-.4 1-.4l-1.8-1.8s-.1.6-.4 1zm-2.6 2.6 1.2 1.2s.5-.4 1-.4l-1.7-1.8s-.1.5-.5 1zm-3.3 3.2 1.3 1.3s.4-.3.9-.3l-1.9-1.9s0 .5-.3.9zm-2.8 2.8 1.3 1.4s.4-.3 1-.3l-2-2c-.1-.1 0 .5-.3.9zm-1.7 1.2 1.8 1.8s.2-.1.5-.2l-2.1-2.1c-.1 0-.1.2-.2.5zm-1.5 1.5 1.8 1.8s.2 0 .5-.2l-2.1-2.1c-.1 0-.1.2-.2.5zm-1.3 1.3 1.8 1.8s.2 0 .5-.2l-2.2-2.1s0 .2-.1.5z" fill="#fff"/><circle cx="50.4" cy="6.2" fill="#fff" r=".4"/><path d="m50.1 6.6c-.1-.2-.1-.4 0-.6.2-.1.4-.1.5 0 .2.2.2.4 0 .6-.1.1-.3.1-.5 0zm.5-.5c-.1-.1-.3-.1-.4 0s-.1.3 0 .4.3.1.4 0 .1-.3 0-.4z"/><circle cx="50.4" cy="6.2" r=".2"/><path d="m12.4 54.4-.2.2-.1-.1z" fill="#fff"/><circle cx="52.3" cy="4.7" fill="#fff" r=".4"/><path d="m52.1 5c-.1-.1-.1-.4 0-.5.2-.1.4-.1.5 0 .2.2.2.4 0 .5-.1.2-.4.2-.5 0zm.4-.4c-.1-.1-.3-.1-.4 0s-.1.2 0 .4.3.1.4 0c.1-.2.1-.3 0-.4z"/><circle cx="52.3" cy="4.7" r=".2"/><circle cx="54.2" cy="2.9" fill="#fff" r=".4"/><path d="m53.9 3.2c-.2-.2-.2-.4 0-.5s.4-.2.5 0 .1.4 0 .5-.3.2-.5 0zm.5-.4c-.1-.1-.3-.1-.4 0s-.1.3 0 .4.3.1.4 0 .1-.3 0-.4z"/><circle cx="54.2" cy="2.9" r=".2"/><circle cx="56.6" cy="5.3" fill="#fff" r=".4"/><path d="m56.3 5.6c-.2-.1-.2-.4 0-.5s.4-.2.5 0c.2.1.2.4 0 .5-.1.1-.3.1-.5 0zm.5-.5c-.1-.1-.3-.1-.4 0s-.1.3 0 .4.3.1.4 0 .1-.3 0-.4z"/><circle cx="56.6" cy="5.3" r=".2"/><circle cx="54.5" cy="6.9" fill="#fff" r=".4"/><path d="m54.2 7.2c-.2-.1-.2-.4 0-.5.1-.2.4-.2.5 0 .2.1.2.4 0 .5-.1.1-.3.1-.5 0zm.5-.5c-.1-.1-.3-.1-.4 0s-.1.3 0 .4.3.1.4 0 .1-.3 0-.4z"/><circle cx="54.5" cy="6.9" r=".2"/><circle cx="52.6" cy="8.6" fill="#fff" r=".4"/><path d="m52.3 8.9c-.2-.1-.2-.4 0-.5s.4-.1.5 0 .1.4 0 .5-.4.1-.5 0zm.5-.5c-.1-.1-.3-.1-.4 0s-.1.3 0 .4.3.1.4 0 .1-.3 0-.4z"/><circle cx="52.6" cy="8.6" r=".2"/><path d="m10.4 45.2 1.6-1.8 34.8-34.2 3.7-2.8.1.2-3.7 2.8-34.8 34.1-1.6 1.8zm.5.5 1.5-1.8 34.8-34.3 5.2-4.7.1.1-5.2 4.7-34.7 34.3-1.5 1.8zm.5.5 1.6-1.8 34.7-34.4 6.7-6.9.1.1-6.7 6.9-34.7 34.4zm.6.6 1.6-1.8 34.5-34.6 8.3-5.4v.1l-8.3 5.4-34.4 34.6zm.5.5 1.6-1.6 34.4-34.8 5.8-4.2v.1l-5.8 4.2-34.3 34.7zm.6.6 1.5-1.7 34.3-35 3.4-2.8-3.3 2.9-34.3 34.9z" fill="#fff"/></svg>