<svg height="60" width="60" xmlns="http://www.w3.org/2000/svg"><path d="m27.12 30.97c-2.45-2.98-4.57-3.58-6.16-3.56-1.9.03-3.73 1.22-4.55 3.26-1.04 2.64-1.3 4.64-3.64 4.9-2.83.3-8.8.65-11.55 6.47-2.35 4.96-.7 9.7 3.2 13.74 5.02 5.17 10.67 5.82 15.44.73 3.02-3.23 2.78-6.43 3.02-9.13.27-3 1.25-3.37 3.43-4.07 2.16-.7 3.6-2.12 3.93-3.22.25-.82-.15-1.15-1.22-.94-1.24.25-3.16-.75-3.04-2.63.13-1.83 1.75-3.12 2.52-3.96.76-.84-.33-1.02-.33-1.02l-1.03-.55z"/><path d="m8.78 44.24c.26-.26.54-.4.63-.3l4.93 4.9c.1.1-.05.38-.3.63-.27.26-.55.4-.63.3l-4.93-4.9c-.08-.1.06-.37.3-.63zm2.42-1.74c.22-.2.55-.2.75 0l3.6 3.6c.2.22.2.55 0 .76-.2.2-.53.2-.74 0l-3.6-3.6c-.2-.2-.2-.54 0-.75zm5.7 3.64s1.75 2.13 2.24 2.86 1.42.87 1.82-.07 3.82-8.33 4.26-9.4c.45-1.1.44-1.3.3-2.12-.17-.8-.22-1.22-.14-1.52s-.14-.04-.14-.04l-1.16 1.2s.47.46.64.63c.15.16.17.36 0 .5-.16.17-1.7 1.73-1.9 1.95-.17.16-.35.16-.52-.02-.15-.16-.52-.5-.52-.5l-3.13 3.28s.33.3.54.52c.13.15.1.36 0 .44-.08.1-2.3 2.3-2.3 2.3zm-4.43-5.02 1.94-1.93c.1-.1.24-.1.33 0l4.25 4.24c.1.1.1.23 0 .32l-1.93 1.94c-.1.1-.24.1-.33 0l-4.25-4.25c-.1-.1-.1-.24 0-.33z" fill="#fff"/><path d="m13.03 41.52 1.78-1.77c.06-.06.15-.06.2 0l3.42 3.42c.06.05.06.14 0 .2l-1.78 1.77c-.05.05-.14.05-.2 0l-3.4-3.42c-.06-.05-.06-.14 0-.2z"/><g fill="#fff"><circle cx="13.889" cy="41.558" r=".258"/><circle cx="14.386" cy="42.054" r=".258"/><circle cx="14.914" cy="42.583" r=".258"/><circle cx="15.48" cy="43.148" r=".258"/><circle cx="16.046" cy="43.715" r=".258"/><circle cx="16.577" cy="44.246" r=".259"/><path d="m18.13 35.47 1.94-1.94c.1-.1.23-.1.32 0l4.24 4.25c.1.1.1.23 0 .32l-1.94 1.94c-.08.1-.23.1-.32 0l-4.25-4.25c-.1-.1-.1-.24 0-.33z"/></g><path d="m18.7 35.87 1.77-1.78c.05-.07.14-.07.2 0l3.4 3.4c.06.06.06.15 0 .2l-1.77 1.78c-.05.06-.14.06-.2 0l-3.4-3.42c-.06-.05-.06-.14 0-.2z"/><g fill="#fff"><circle cx="20.489" cy="34.961" r=".258"/><circle cx="20.985" cy="35.458" r=".258"/><circle cx="21.514" cy="35.986" r=".258"/><circle cx="22.078" cy="36.551" r=".258"/><circle cx="22.596" cy="37.068" r=".258"/><circle cx="23.106" cy="37.579" r=".258"/><circle cx="12.083" cy="55.086" r=".906"/><circle cx="15.304" cy="51.864" r=".906"/><circle cx="18.734" cy="52.914" r=".905"/><circle cx="15.663" cy="55.984" r=".905"/><circle cx="20.029" cy="30.557" r="1.253"/></g><circle cx="20.029" cy="30.558" r=".618"/><circle cx="20.029" cy="30.558" fill="#fff" r=".289"/><path d="m19.94 30.67-.66-.24s-.26-.08-.15-.3c.1-.27.37-.07.37-.07l.54.4s.1.07.05.15c-.06.12-.16.07-.16.07z"/><path d="m19.14 30.37c-.05-.05-.1-.13-.04-.26.04-.07.1-.12.15-.13.13-.03.26.07.26.07l.55.4s.02 0 .03.03c.05.05.06.1.03.15-.04.1-.13.1-.17.07l-.65-.25s-.08-.02-.14-.08zm.9.13s-.02 0-.02 0l-.54-.42s-.1-.08-.2-.06c-.06 0-.1.05-.13.1-.04.1-.03.16.03.22.05.05.1.07.1.07l.67.25c.02 0 .08.03.12-.05 0-.03 0-.06-.03-.1z" fill="#fff"/><path d="m11.8 43.15.02-.04c.07-.05.17-.05.23 0l.24.25c.05.06.05.16 0 .23l-.05.03c-.06.07-.16.07-.22 0l-.24-.23c-.07-.06-.07-.16 0-.22zm.5.52.05-.04c.06-.06.16-.06.22 0l.24.24c.07.06.07.16 0 .23l-.02.03c-.07.06-.17.06-.23 0l-.24-.24c-.05-.07-.05-.17 0-.23zm.54.53.04-.04c.06-.06.16-.06.22 0l.24.24c.06.06.06.16 0 .23l-.04.03c-.06.06-.16.06-.22 0l-.24-.24c-.06-.06-.06-.16 0-.22zm.56.54.02-.03c.07-.05.17-.05.23 0l.24.25c.05.06.05.16 0 .22l-.05.04c-.06.07-.16.07-.22 0l-.24-.23c-.07-.06-.07-.16 0-.23zm.58.58.03-.04c.08-.06.18-.06.24 0l.24.24c.06.06.06.16 0 .23l-.04.03c-.06.06-.16.06-.22 0l-.24-.24c-.06-.06-.06-.16 0-.22zm.52.54.04-.03c.06-.06.16-.06.23 0l.23.23c.06.07.06.17 0 .23l-.03.02c-.06.07-.16.07-.23 0l-.23-.23c-.05-.08-.05-.18 0-.24z"/><circle cx="11.502" cy="42.804" r=".147"/><circle cx="15.317" cy="46.618" r=".147"/><path d="m12.77 48.73-3.13-3.13c-.08-.1-.08-.22 0-.3l.23-.23c.08-.1.2-.1.3 0l3.13 3.13c.08.08.08.22 0 .3l-.23.23c-.08.08-.2.08-.3 0zm-2.64-3.63c-.06-.06-.16-.06-.22 0l-.22.23c-.07.07-.07.17 0 .23l3.13 3.13c.07.06.17.06.23 0l.24-.24c.06-.06.06-.16 0-.22l-3.14-3.14z"/><circle cx="9.231" cy="44.66" r=".441"/><circle cx="13.585" cy="49.042" r=".441"/><path d="m21.1 34.1 3 3s24.5-25.2 25.06-25.77c.58-.57 1.93-1.33 3.1-.9 1.26-1.56 3.68-3.85 7.57-6.14.04-.03-.38-.25-.7-.55-.45-.43-.5-.7-.67-1.06-.27-.58-.65-.6-.65-.6s-.1-.45-.68-.64c-.62-.2-1.38-.54-1.65-1.24-.12.04-2 2.1-3.74 3.63-1.74 1.52-3.06 2.5-3.45 2.77-.1.07.2.65-1.55 2.4-1.74 1.73-25.64 25.08-25.64 25.08z"/><path d="m21.03 34.1.04-.04c.24-.24 23.9-23.37 25.63-25.1 1.38-1.36 1.46-2 1.5-2.24 0-.07 0-.12.05-.14.43-.28 1.8-1.33 3.45-2.77 1.1-.96 2.3-2.17 3-2.9.56-.57.7-.7.76-.73l.05-.02.02.05c.07.2.2.37.34.52.37.37.9.57 1.27.7.2.05.37.15.5.28.14.14.2.28.22.34.07.02.22.07.38.23.1.1.2.24.28.4.04.07.07.14.1.2.1.27.22.5.57.84.18.2.4.33.54.43.1.05.14.08.16.1 0 0 .03.03.03.06l-.02.02-.02.02c-4.3 2.53-6.58 4.9-7.56 6.1l-.02.04h-.04c-1.14-.42-2.47.32-3.04.9-.57.55-24.8 25.5-25.06 25.74l-.04.04-3.07-3.06zm27.27-27.45s0 .05 0 .07c-.04.25-.13.92-1.53 2.32-1.7 1.68-24.52 24-25.6 25.05l2.93 2.91c1.08-1.1 24.47-25.15 25.03-25.7.58-.58 1.93-1.34 3.1-.94 1-1.2 3.27-3.57 7.52-6.08-.03-.02-.06-.04-.1-.07-.14-.1-.36-.23-.55-.4-.37-.36-.48-.6-.6-.88-.03-.07-.06-.14-.1-.2-.06-.16-.15-.28-.24-.38-.2-.18-.35-.2-.36-.2h-.03v-.05s-.05-.16-.2-.32c-.13-.12-.28-.2-.47-.27-.38-.12-.93-.32-1.3-.7-.16-.15-.28-.32-.35-.5-.1.1-.37.36-.68.67-.7.73-1.9 1.94-3 2.9-1.66 1.46-3.02 2.5-3.46 2.8z" fill="#fff"/><path d="m55.65 8c.13.13.15-.02.23.06.02.02-.02.1-.03.2-.05.38.38.56.46.8.1.26.13.16.3.05s.26-.07.45-.26c.2-.22.17-.28.33-.45.16-.18.07-.26-.1-.3-.3-.07-.4-.47-.82-.43-.18.02-.16.08-.23.02-.03-.04.04-.14-.03-.2-.18-.17-.7.36-.55.5zm-.31-.65.43.4.14-.15-.4-.38zm-1.58 2.33c.14.13.16-.02.23.05.02.02-.02.1-.03.2-.05.4.37.56.46.82.08.25.12.15.3.03s.25-.08.44-.27c.2-.2.17-.26.33-.43s.07-.25-.1-.3c-.3-.06-.4-.46-.82-.42-.18 0-.16.08-.23 0-.03 0 .04-.1-.03-.18-.18-.17-.7.36-.56.5zm-.3-.65.43.38.13-.12-.43-.4zm4.34-2.63c.14.13.17-.02.24.05.02.03 0 .1-.03.2-.03.4.4.56.47.82.1.25.13.15.3.03.2-.1.26-.08.45-.27.2-.2.16-.27.32-.44.16-.18.07-.26-.1-.3-.3-.07-.4-.47-.8-.43-.2 0-.17.08-.25 0-.03 0 .04-.1-.04-.18-.18-.18-.7.35-.55.5zm-.3-.65.44.38.13-.13-.42-.38zm-5.9-2.77c-.12-.12-.14.03-.22-.05-.02-.02.02-.1.03-.2.06-.38-.37-.56-.45-.8-.1-.27-.13-.17-.3-.05-.2.12-.26.08-.45.27-.2.22-.16.28-.32.45-.16.16-.07.25.1.28.3.07.4.48.8.44.2-.02.17-.08.25-.02.02.02-.05.12.03.2.18.17.7-.37.55-.52zm.32.66-.43-.4-.15.15.42.37zm1.58-2.42c-.14-.13-.16.03-.23-.05-.03-.02 0-.1.02-.2.04-.38-.38-.56-.47-.8s-.12-.17-.29-.07c-.2.12-.25.08-.44.27-.22.2-.18.27-.34.44-.16.16-.07.25.1.28.3.07.4.48.82.44.18-.02.16-.08.23-.02.04.02-.03.12.04.2.18.16.7-.37.55-.52zm.3.66-.43-.4-.14.15.42.38zm-4.14 2.8c-.14-.12-.16.03-.23-.05-.03-.02 0-.1.02-.2.05-.38-.37-.55-.46-.8-.1-.26-.13-.16-.3-.05-.2.12-.26.1-.45.27-.2.22-.17.28-.33.45s-.07.25.1.3c.3.06.4.46.82.42.18-.02.16-.08.23-.02.03.03-.04.13.04.2.18.17.7-.37.56-.52zm.31.66-.44-.4-.13.15.4.37z"/><path d="m46.6 9.1.2-.22c.02-.02.05-.02.07 0l2.32 2.32v.07l-.22.2c-.02.03-.05.03-.07 0l-2.3-2.3c-.03-.03-.03-.06 0-.08zm-2.04 2.12.08.07.15.13.15.15.15.14.15.13.15.14.22.2.22.2.14.15.15.14.15.14.14.15.15.14.16.15.15.15.08.08c.04.04.1.05.13.02 0-.02 0-.08-.03-.12l-.08-.08-.17-.16-.15-.17-.15-.15-.15-.15-.15-.14-.15-.16-.14-.14-.22-.2-.22-.22-.15-.14-.15-.14-.16-.14-.15-.14-.17-.14-.08-.08c-.04-.03-.1-.04-.12 0s-.02.08.03.12zm-1.82 1.78.08.08.15.15.16.14.14.15.22.2.28.3.3.27.2.2.16.15.15.14.15.14.16.15.17.14.08.08c.05.04.1.05.13.02.02-.03 0-.1-.03-.13l-.08-.07-.17-.15-.16-.15-.15-.15-.16-.14-.15-.14-.23-.22-.3-.27-.28-.27-.23-.22-.15-.13-.15-.15-.15-.15-.08-.07c-.04-.04-.1-.05-.12-.02-.03.03-.02.08.02.12zm-1.72 1.73.04.04.1.08.1.1.17.17.16.14.14.15.15.15.22.22.3.28.2.22.16.14.15.16.16.15.15.17.16.16.1.08c.03.05.1.06.12.03s0-.1-.03-.13l-.1-.08-.15-.16-.16-.15-.17-.14-.15-.15-.15-.14-.22-.2-.28-.3-.23-.2-.16-.16-.15-.14-.17-.15-.16-.15-.13-.1-.08-.1-.04-.03c-.05-.04-.1-.05-.13-.02s-.02.1.02.13zm-1.65 1.62.1.08.16.16.16.15.15.16.16.16.16.15.23.23.3.3.3.28.23.23.15.15.16.15.16.15.1.08c.03.04.08.05.1.02.04-.03.02-.1-.02-.13l-.08-.08-.16-.15-.16-.15-.16-.15-.22-.22-.3-.3-.3-.28-.24-.22-.15-.15-.15-.15-.16-.15-.17-.16-.17-.18-.1-.08c-.03-.04-.08-.05-.1-.02-.04.03-.03.1 0 .13zm-1.53 1.45.04.05.1.08.07.1.1.07.1.12.16.15.17.16.14.14.24.23.22.22.14.14.15.15.16.17.16.15.13.12.07.1.08.07.1.1.08.08.1.1.04.04c.04.04.1.04.12.02.02-.03 0-.1-.03-.13l-.05-.03-.1-.1-.08-.08-.1-.1-.07-.08-.08-.08-.13-.12-.16-.16-.14-.15-.15-.14-.14-.15-.22-.2-.22-.23-.15-.15-.16-.15-.14-.16-.12-.1-.1-.1-.07-.07-.1-.1-.03-.03c-.04-.04-.1-.05-.13-.02s0 .1.04.13zm-1.47 1.43.15.15.3.3.3.3.23.22.15.16.15.15.16.17.17.16.16.16.16.16.16.17.18.17.18.18.1.1c.03.03.08.04.1 0 .04-.02.03-.07 0-.1l-.1-.1-.18-.18-.17-.17-.17-.17-.17-.17-.16-.17-.16-.16-.14-.16-.16-.14-.15-.16-.22-.23-.3-.3-.3-.3-.15-.15c-.05-.04-.1-.05-.13-.02s-.02.1.02.13zm-1.32 1.32.15.15.3.3.3.3.23.24.15.15.16.15.15.16.15.17.17.16.16.17.17.17.18.18.13.13.1.1.04.04c.04.04.1.05.13.02.02-.03 0-.08-.03-.12l-.04-.05-.1-.1-.13-.12-.17-.18-.17-.17-.18-.17-.16-.16-.16-.16-.16-.15-.15-.16-.16-.17-.23-.23-.3-.3-.3-.3-.15-.15c-.04-.04-.1-.05-.12-.02-.03.03-.02.08.02.12zm-1.35 1.32.16.16.3.3.3.3.24.24.15.16.16.16.17.15.16.16.17.18.16.17.18.17.17.18.15.14.1.1.04.03c.03.04.1.05.12.02s.02-.1-.03-.13l-.05-.05-.1-.1-.13-.12-.18-.18-.17-.17-.17-.17-.16-.17-.17-.15-.15-.16-.16-.17-.16-.16-.22-.23-.3-.3-.32-.32-.15-.15c-.03-.04-.1-.05-.12-.02s0 .08.03.12zm-1.22 1.18.16.16.3.3.32.32.23.24.14.16.16.16.16.16.17.16.16.17.16.17.18.17.18.2.18.18.1.1c.04.03.1.04.12 0 .03-.02.02-.07-.02-.1l-.1-.1-.18-.2-.18-.17-.17-.16-.17-.17-.17-.17-.16-.17-.16-.16-.15-.16-.16-.15-.24-.23-.3-.3-.32-.32-.15-.15c-.05-.04-.1-.05-.14-.02-.02.02-.02.08.02.12zm-1.14 1.12.08.08.16.15.23.24.32.3.24.25.16.15.16.17.16.16.16.17.17.17.17.18.18.17.18.2.14.12.1.1.05.04c.03.04.08.05.1.02.04-.03.03-.1 0-.13l-.06-.05-.1-.1-.13-.13-.17-.18-.18-.18-.17-.18-.17-.17-.16-.17-.16-.17-.16-.15-.16-.16-.23-.25-.3-.32-.25-.23-.16-.16-.08-.08c-.04-.04-.1-.05-.12-.02-.03.03-.02.1.02.13zm-1.12 1.06.1.08.15.16.24.24.32.33.24.24.16.16.16.17.17.17.17.17.17.18.17.18.18.18.13.14.1.1.1.1.1.08.04.05c.04.04.1.05.13.02.02-.03 0-.08-.03-.12l-.05-.05-.1-.1-.1-.1-.08-.1-.15-.12-.18-.18-.18-.18-.18-.18-.16-.17-.17-.17-.17-.17-.17-.16-.23-.25-.32-.32-.23-.24-.16-.16-.08-.08c-.04-.04-.1-.05-.12-.02-.03.03-.02.1.02.13zm-.99 1.02.08.08.17.15.24.24.33.32.23.25.17.15.16.17.15.17.17.16.17.17.17.18.18.2.14.13.08.1.1.1.1.1.05.04c.04.04.1.05.12.02.03-.04.02-.1-.02-.14l-.05-.04-.1-.1-.1-.1-.1-.1-.13-.13-.18-.2-.17-.17-.17-.17-.17-.17-.17-.18-.17-.17-.16-.16-.24-.26-.32-.32-.23-.24-.16-.16-.07-.08c-.04-.04-.1-.05-.13-.02-.02.03 0 .08.03.13zm-.98.95.08.07.17.16.24.25.32.32.24.25.16.16.17.18.16.17.16.18.18.17.17.18.2.2.14.13.1.1.1.1.1.1.04.04c.04.04.1.05.12.02.03-.02.02-.08-.02-.12l-.05-.05-.1-.1-.1-.1-.1-.1-.13-.13-.18-.2-.18-.17-.17-.17-.17-.17-.17-.18-.17-.17-.16-.16-.24-.24-.32-.33-.24-.24-.17-.16-.08-.08c-.04-.05-.1-.06-.12-.03s-.02.08.02.12zm-.93.94.08.08.16.16.24.24.32.32.24.25.17.15.16.17.16.17.17.17.17.18.18.18.18.18.14.15.1.1.1.1.1.1.04.04c.04.03.1.04.12 0 .03-.02.02-.08-.02-.12l-.05-.05-.1-.1-.1-.1-.1-.08-.14-.14-.18-.17-.17-.18-.17-.18-.17-.17-.16-.17-.17-.17-.16-.17-.24-.26-.32-.32-.24-.25-.16-.16-.08-.07c-.04-.04-.1-.05-.13-.02-.04.04-.03.1.02.14zm-.86.81.08.08.17.16.17.15.17.17.16.16.16.17.16.17.17.17.15.16.17.18.17.17.17.2.18.18.14.14.08.1.1.1.1.08.1.1.1.1.04.05c.04.04.1.05.13.02s0-.1-.03-.12l-.05-.05-.1-.1-.1-.1-.1-.1-.1-.1-.08-.08-.15-.15-.18-.18-.17-.2-.17-.17-.17-.17-.17-.17-.17-.18-.16-.17-.17-.17-.16-.17-.16-.15-.17-.17-.16-.16-.08-.08c-.04-.04-.1-.05-.12-.02-.03.03-.02.1.02.13zm-.8.8.08.08.17.16.17.16.16.16.17.17.16.15.16.17.17.17.15.16.17.18.17.18.17.18.18.18.14.14.08.1.1.1.1.1.1.1.1.08.04.05c.04.04.1.05.13.02.02-.02 0-.08-.03-.12l-.05-.05-.1-.1-.1-.1-.1-.1-.1-.1-.08-.08-.15-.14-.18-.18-.17-.18-.17-.18-.17-.17-.17-.18-.17-.18-.17-.17-.16-.17-.16-.16-.17-.17-.16-.16-.16-.18-.08-.08c-.04-.04-.1-.05-.13-.02-.02.03 0 .1.03.13zm-.82.75.17.17.34.34.33.34.25.25.17.17.17.17.17.18.18.17.18.18.18.18.2.2.18.18.15.15.1.1.07.05c.04.04.1.05.12.02s0-.1-.03-.13l-.05-.05-.1-.1-.15-.16-.2-.2-.18-.18-.2-.2-.18-.17-.17-.2-.18-.16-.17-.18-.17-.17-.25-.26-.34-.34-.33-.33-.16-.17c-.04-.04-.1-.05-.12-.02-.03.03-.02.08.02.13zm-.72.73.17.17.33.33.33.33.25.26.18.17.17.16.18.18.17.18.2.18.17.2.2.17.18.2.15.15.1.1.05.05c.04.04.1.05.13.02.03-.04.02-.1-.02-.14l-.06-.04-.1-.1-.14-.13-.2-.2-.2-.2-.17-.17-.2-.2-.17-.16-.17-.18-.17-.17-.18-.2-.26-.24-.33-.33-.33-.34-.17-.18c-.04-.04-.1-.05-.13-.02s-.02.1.02.13zm-.68.67.17.18.34.33.33.35.26.25.17.17.17.18.17.17.18.18.18.18.18.2.2.18.2.2.14.14.1.1.05.05c.04.04.1.05.12.02s0-.08-.03-.12l-.05-.05-.1-.1-.15-.15-.2-.2-.18-.18-.2-.2-.18-.17-.17-.18-.18-.18-.17-.17-.17-.17-.25-.25-.33-.34-.34-.32-.16-.17c-.04-.03-.1-.04-.12 0-.03 0-.02.07.02.1zm-.69.65.1.1.16.16.26.26.34.34.26.26.17.17.17.18.18.2.18.17.18.2.2.17.18.2.15.14.1.1.1.1.1.1.05.06c.04.04.1.05.13.02s.02-.08-.02-.13l-.06-.05-.1-.1-.1-.1-.1-.1-.15-.15-.2-.2-.17-.18-.2-.18-.17-.18-.17-.2-.17-.17-.17-.17-.25-.26-.33-.34-.26-.26-.16-.17-.08-.08c-.04-.04-.1-.05-.13-.02-.03.02-.02.08.02.12zm-.57.58.08.1.17.16.26.24.32.34.26.26.17.18.17.17.18.17.18.18.18.2.2.18.18.2.15.14.1.1.1.1.1.1.05.05c.04.04.1.05.12.02.03-.03.02-.08-.02-.12l-.05-.05-.1-.1-.1-.1-.1-.1-.15-.15-.2-.2-.18-.18-.2-.2-.16-.17-.17-.18-.17-.2-.18-.16-.25-.26-.34-.34-.26-.26-.17-.16-.1-.1c-.03-.03-.1-.04-.12 0-.03.02-.02.07.03.1zm-.58.57.1.08.17.17.25.25.34.34.26.26.17.18.16.17.18.18.18.18.18.2.2.2.18.18.15.15.1.1.1.1.1.1.05.05c.04.04.1.05.13.02.04-.03.03-.08 0-.12l-.07-.06-.1-.1-.1-.1-.1-.1-.15-.14-.2-.2-.17-.18-.18-.2-.18-.17-.17-.18-.18-.18-.18-.17-.25-.26-.34-.34-.26-.26-.17-.17-.08-.08c-.04-.05-.1-.06-.13-.03-.04.03-.03.08 0 .12zm20.56-18.84 1.1 1.1s.56-.48 1.2-.64l-1.6-1.62s-.2.6-.7 1.16zm-3.26 3.26 1.1 1.1s.55-.47 1.2-.62l-1.62-1.62s-.18.6-.67 1.14zm-2.83 2.78 1.2 1.2s.44-.38 1.02-.43l-1.75-1.75s-.1.54-.48.98zm-2.57 2.56 1.2 1.2s.45-.38 1.04-.43l-1.74-1.76s-.1.54-.5 1zm-3.33 3.2 1.33 1.34s.37-.3.93-.26l-1.93-1.94s-.02.5-.33.86zm-2.82 2.8 1.3 1.36c.02 0 .4-.3.96-.26l-2-2.04s.06.57-.25.94zm-1.69 1.28 1.76 1.8s.2-.06.5-.2l-2.1-2.12s-.07.2-.16.52zm-1.46 1.46 1.75 1.8s.2-.05.5-.18l-2.12-2.13s-.05.2-.14.5zm-1.26 1.28 1.75 1.78s.18-.05.45-.16l-2.1-2.1s-.04.2-.1.48z" fill="#fff"/><circle cx="50.378" cy="6.245" fill="#fff" r=".44"/><path d="m50.1 6.55c-.14-.15-.14-.4 0-.54.16-.13.4-.13.54 0 .15.16.15.4 0 .55-.14.15-.38.15-.53 0zm.47-.46c-.1-.12-.28-.12-.4 0s-.1.27 0 .38c.12.1.3.1.4 0s.1-.3 0-.4z"/><circle cx="50.378" cy="6.245" r=".195"/><path d="m12.43 54.42-.18.17-.05-.06.18-.17z" fill="#fff"/><circle cx="52.331" cy="4.705" fill="#fff" r=".44"/><path d="m52.06 5c-.14-.14-.14-.38 0-.53.15-.14.4-.14.54 0 .15.15.15.4 0 .54-.15.16-.4.16-.54 0zm.46-.45c-.1-.1-.28-.1-.38 0s-.1.28 0 .4.28.1.38 0c.1-.12.1-.3 0-.4z"/><circle cx="52.331" cy="4.705" r=".195"/><circle cx="54.197" cy="2.923" fill="#fff" r=".44"/><path d="m53.93 3.23c-.15-.15-.15-.4 0-.54s.4-.16.54 0 .14.38 0 .53-.4.15-.54 0zm.46-.46c-.1-.1-.3-.1-.4 0s-.1.28 0 .38.28.1.4 0c.1-.1.1-.28 0-.38z"/><circle cx="54.196" cy="2.923" r=".195"/><circle cx="56.599" cy="5.259" fill="#fff" r=".441"/><path d="m56.33 5.56c-.15-.14-.15-.38 0-.53s.4-.15.54 0c.15.14.15.38 0 .53s-.4.15-.54 0zm.46-.46c-.1-.1-.3-.1-.4 0s-.1.28 0 .4c.1.1.3.1.4 0 .1-.12.1-.3 0-.4z"/><circle cx="56.6" cy="5.259" r=".195"/><circle cx="54.504" cy="6.878" fill="#fff" r=".44"/><path d="m54.24 7.18c-.15-.14-.15-.4 0-.53.14-.15.38-.15.53 0 .15.14.15.38 0 .53s-.4.15-.53 0zm.46-.46c-.1-.1-.28-.1-.4 0-.1.1-.1.28 0 .4.12.1.3.1.4 0 .1-.12.1-.3 0-.4z"/><circle cx="54.504" cy="6.877" r=".194"/><circle cx="52.567" cy="8.595" fill="#fff" r=".441"/><path d="m52.3 8.9c-.15-.15-.15-.4 0-.54s.4-.14.54 0c.14.15.14.4 0 .54-.15.15-.4.15-.54 0zm.46-.46c-.1-.1-.28-.1-.4 0-.1.1-.1.28 0 .4.12.1.3.1.4 0 .1-.12.1-.3 0-.4z"/><circle cx="52.567" cy="8.595" r=".194"/><path d="m10.4 45.2 1.55-1.85 34.8-34.2 3.72-2.77.1.15-3.7 2.76-34.78 34.17-1.55 1.85zm.55.54 1.54-1.84 34.71-34.35 5.23-4.7.1.12-5.24 4.7-34.69 34.33-1.54 1.84zm.48.49 1.57-1.83 34.66-34.4 6.65-6.94.1.1-6.65 6.92-34.69 34.4-1.55 1.83zm.55.54 1.62-1.77 34.52-34.58 8.32-5.37.05.1-8.3 5.36-34.52 34.58-1.62 1.76zm.54.53 1.6-1.64 34.44-34.78 5.77-4.18.05.06-5.77 4.18-34.43 34.76-1.6 1.66zm.58.6 1.54-1.7 34.34-34.96 3.43-2.82.04.04-3.45 2.82-34.3 34.94-1.54 1.7z" fill="#fff"/></svg>