<svg height="60" width="60" xmlns="http://www.w3.org/2000/svg"><path d="m19.9 26.7c.7.63 1.43 1.27 2.16 1.9.13.1.2.23.17.43-.14 1.32-.26 2.65-.4 3.98-.07.8-.14 1.6-.22 2.4.05 0 .07.03.1.05.5-.6.98-1.18 1.53-1.84 0 .87 0 1.63.02 2.4 0 .24.05.47.17.7 1.02 1.84 2.02 3.7 3.02 5.52.05.1.04.23.2.23-.1-1.56-.14-3.1-.28-4.65-.1-.98.15-2.03-.54-2.98.66.2 1.25.17 1.9.07-.26.3-.46.55-.7.77-.18.18-.2.33-.08.57.57 1.2 1.12 2.42 1.67 3.63.36.78.7 1.55 1.08 2.36 4.5-5.05 8.96-10.07 13.45-15.13-2.23-.54-4.36-1.04-6.48-1.57-.34-.08-.55 0-.75.25-.14.18-.26.38-.53.5.2-.96.16-1.86-.08-2.67 2.23.78 4.6 1 6.9 1.48-1.26-1.02-2.53-2-3.8-2.95-.08-.06-.2-.1-.3-.12-1.43-.23-2.85-.46-4.27-.7-.1-.03-.25 0-.34-.15.43-.53.87-1.07 1.32-1.62-.13-.07-.2 0-.27 0-1.74.54-3.48 1.06-5.2 1.6-.3.1-.46.05-.68-.13-2.17-1.77-4.36-3.52-6.53-5.3-.4-.33-.78-.37-1.22-.16-.2.12-.43.23-.62.36-1.47 1.02-2.57 2.38-3.5 3.9-.5.8-.94 1.63-1.08 2.6-.06.4.02.74.37 1.02.6.52 1.2 1.1 1.83 1.6"/><path d="m34.3 25.15c-.34 1.47-1.02 2.78-1.86 4-1.03 1.54-2.25 2.9-3.8 3.94-.6.4-1.24.74-2 .85-.9.13-1.52-.3-1.6-1.23-.1-.74 0-1.4.55-2.04 2.1-2.52 4.17-5.07 6.25-7.6.42-.5.97-.47 1.52-.4.52.08.8.45.92.92.13.5.1 1.02 0 1.53z" fill="#fefefe"/><path d="m4.45 44.27c.72.63 1.44 1.27 2.16 1.9.16.12.2.24.2.43-.14 1.33-.27 2.66-.4 3.98-.07.8-.14 1.6-.22 2.4.03 0 .05.02.08.03.5-.57.98-1.16 1.53-1.8v2.36c0 .26.05.5.2.7 1 1.85 2 3.7 3 5.54.03.07.03.2.2.2-.1-1.55-.15-3.1-.3-4.65-.1-.98.15-2.02-.53-2.98.66.2 1.25.17 1.9.08-.26.3-.46.55-.7.77-.18.18-.2.34-.08.57.56 1.2 1.1 2.4 1.66 3.62.36.77.7 1.55 1.08 2.36 4.5-5.08 8.96-10.1 13.45-15.16-2.24-.53-4.37-1.03-6.5-1.56-.34-.1-.54 0-.74.25-.13.18-.26.38-.52.5.2-.95.16-1.84-.1-2.65 2.27.76 4.62.97 6.92 1.47-1.25-1.02-2.5-2-3.78-2.96-.08-.06-.2-.1-.3-.1-1.43-.25-2.85-.5-4.28-.73-.12-.02-.26 0-.35-.14.44-.55.88-1.1 1.33-1.64-.12-.06-.2 0-.27.02-1.7.52-3.46 1.04-5.2 1.58-.26.08-.44.05-.66-.13-2.17-1.77-4.36-3.52-6.52-5.3-.4-.33-.78-.38-1.22-.16-.2.1-.42.2-.6.33-1.5 1.02-2.6 2.4-3.53 3.9-.5.8-.93 1.64-1.08 2.6-.07.4.02.74.36 1.03.63.52 1.22 1.08 1.85 1.6"/><path d="m18.84 42.72c-.32 1.47-1 2.78-1.84 4.02-1.04 1.52-2.25 2.88-3.8 3.92-.6.42-1.25.77-2 .87-.92.13-1.52-.3-1.62-1.23-.07-.74.03-1.4.56-2.03 2.12-2.5 4.2-5.06 6.28-7.6.4-.5.97-.47 1.52-.4.52.08.78.46.9.92.15.5.1 1 0 1.5z" fill="#fefefe"/><path d="m36.52 11.3c.7.65 1.43 1.3 2.16 1.9.13.13.2.25.17.45-.14 1.32-.26 2.65-.4 3.98-.07.8-.14 1.6-.22 2.4.03 0 .05 0 .08.02.5-.6 1-1.18 1.55-1.83 0 .86.02 1.62.02 2.37 0 .24.05.47.17.7 1 1.84 2 3.7 3 5.52.06.08.06.22.2.2-.08-1.54-.13-3.1-.27-4.64-.08-1 .15-2.03-.54-2.98.67.18 1.25.16 1.92.07-.28.3-.48.55-.7.76-.2.18-.2.34-.1.58.57 1.2 1.12 2.43 1.67 3.64.37.77.72 1.55 1.1 2.36 4.5-5.06 8.95-10.08 13.45-15.14-2.24-.55-4.37-1.05-6.5-1.58-.33-.08-.54 0-.74.25-.12.18-.24.38-.5.5.2-.96.15-1.86-.1-2.67 2.26.76 4.6.97 6.9 1.47-1.24-1.02-2.5-2-3.77-2.95-.08-.06-.2-.1-.3-.12-1.43-.24-2.85-.47-4.28-.72-.1-.02-.25 0-.34-.14.45-.54.9-1.08 1.35-1.62-.14-.07-.2 0-.28 0-1.74.54-3.48 1.06-5.2 1.6-.3.1-.46.05-.68-.13-2.17-1.78-4.36-3.53-6.53-5.3-.4-.34-.77-.38-1.22-.17-.2.1-.42.2-.6.35-1.5 1.02-2.6 2.38-3.53 3.9-.5.8-.92 1.63-1.06 2.6-.08.4 0 .73.35 1.02.63.52 1.23 1.08 1.86 1.6"/><path d="m50.9 9.77c-.32 1.47-1 2.78-1.83 4-1.04 1.54-2.26 2.9-3.8 3.94-.6.43-1.25.78-2 .9-.92.12-1.53-.3-1.62-1.24-.08-.74.02-1.4.56-2.04 2.14-2.5 4.2-5.05 6.3-7.58.4-.5.96-.47 1.52-.4.52.08.8.45.92.92.14.5.1 1.02 0 1.53z" fill="#fefefe"/></svg>