<svg xmlns="http://www.w3.org/2000/svg" width="60" height="60"><path d="M42.06 25c.63-.53 1.23-1.1 1.86-1.62.34-.28.43-.62.36-1.03-.14-.96-.57-1.8-1.07-2.6-.92-1.5-2.02-2.87-3.5-3.9-.2-.13-.4-.24-.62-.34-.43-.2-.82-.15-1.22.18-2.16 1.78-4.35 3.53-6.52 5.3-.22.18-.4.2-.67.13-1.74-.53-3.48-1.05-5.22-1.6-.07 0-.14-.06-.27 0 .45.55.9 1.1 1.34 1.63-.08.15-.22.12-.33.14-1.44.25-2.86.48-4.3.72-.1 0-.22.04-.3.1-1.27.97-2.53 1.94-3.8 2.96 2.3-.5 4.67-.7 6.9-1.47-.22.8-.25 1.7-.06 2.65-.26-.1-.4-.3-.52-.5-.2-.24-.4-.32-.73-.24-2.14.54-4.27 1.04-6.5 1.58 4.5 5.06 8.95 10.08 13.45 15.14.37-.8.72-1.57 1.08-2.35.56-1.2 1.1-2.43 1.68-3.63.1-.24.1-.4-.1-.57-.2-.22-.4-.47-.7-.78.68.1 1.27.1 1.93-.08-.7.95-.45 2-.54 2.98-.15 1.54-.2 3.1-.3 4.65.17 0 .16-.14.2-.22 1-1.83 2-3.67 3-5.5.14-.24.2-.47.2-.72 0-.75 0-1.5 0-2.37.56.66 1.05 1.25 1.54 1.83.04 0 .06-.02.1-.03-.1-.8-.16-1.6-.24-2.4-.13-1.32-.25-2.65-.4-3.97 0-.2.05-.32.18-.43.73-.63 1.45-1.27 2.16-1.9"/><path fill="#FEFEFE" d="M25.7 23.62c.13-.47.4-.84.92-.92.55-.07 1.1-.1 1.52.4 2.08 2.53 4.15 5.08 6.27 7.6.56.62.66 1.3.58 2.03-.1.92-.7 1.36-1.62 1.23-.75-.1-1.4-.46-2-.87-1.54-1.06-2.75-2.4-3.8-3.95-.83-1.23-1.5-2.54-1.84-4-.1-.52-.13-1.03 0-1.54z"/><path d="M57.5 42.56c.64-.52 1.23-1.08 1.86-1.6.34-.3.43-.62.37-1.04-.15-.95-.58-1.8-1.08-2.6-.94-1.5-2.04-2.87-3.52-3.9-.2-.12-.4-.23-.6-.33-.45-.24-.83-.2-1.24.14-2.18 1.77-4.37 3.52-6.54 5.3-.22.17-.4.2-.67.13-1.74-.55-3.5-1.07-5.23-1.6-.07-.02-.14-.07-.27 0 .46.54.9 1.08 1.35 1.62-.1.14-.23.1-.34.13-1.4.24-2.83.48-4.25.72-.1.02-.23.05-.3.1-1.28.98-2.54 1.95-3.8 2.97 2.3-.5 4.66-.7 6.9-1.48-.23.82-.26 1.7-.07 2.66-.26-.1-.4-.3-.52-.47-.2-.26-.4-.34-.74-.26-2.12.53-4.25 1.04-6.48 1.57 4.5 5.06 8.95 10.08 13.45 15.14.36-.8.7-1.58 1.07-2.36.56-1.2 1.1-2.42 1.67-3.63.1-.25.1-.4-.1-.6-.22-.2-.42-.46-.7-.77.67.1 1.26.12 1.92-.07-.68.96-.45 2-.54 2.98-.14 1.55-.2 3.1-.28 4.65.16 0 .16-.14.2-.2 1-1.87 2-3.7 3-5.55.14-.23.2-.46.2-.7 0-.77 0-1.53 0-2.4.55.67 1.04 1.26 1.53 1.85.03 0 .05-.02.08-.03-.08-.8-.15-1.6-.23-2.4-.12-1.3-.25-2.64-.4-3.97 0-.2.05-.3.2-.43.7-.63 1.43-1.27 2.15-1.9"/><path fill="#FEFEFE" d="M41.15 41.2c.13-.47.4-.85.9-.92.56-.08 1.12-.1 1.53.4 2.08 2.53 4.16 5.08 6.28 7.6.53.6.63 1.28.56 2.02-.1.92-.7 1.36-1.63 1.23-.76-.1-1.4-.45-2-.87-1.56-1.04-2.77-2.4-3.8-3.92-.85-1.24-1.53-2.55-1.85-4.02-.1-.5-.15-1.02 0-1.52z"/><path d="M25.44 9.6c.63-.5 1.23-1.08 1.86-1.6.34-.3.42-.62.36-1.03-.14-.96-.57-1.8-1.07-2.6-.96-1.5-2.06-2.87-3.54-3.9-.2-.13-.4-.24-.6-.34-.45-.2-.84-.17-1.24.16-2.17 1.76-4.35 3.5-6.52 5.3-.22.16-.4.2-.67.1-1.73-.53-3.47-1.05-5.2-1.6-.08 0-.15-.06-.28 0 .45.56.9 1.1 1.34 1.63-.1.15-.26.12-.37.14-1.42.25-2.84.48-4.27.72-.1 0-.22.05-.3.1-1.27.97-2.53 1.94-3.78 2.96 2.3-.5 4.64-.7 6.9-1.47-.25.8-.3 1.7-.1 2.65-.26-.1-.38-.3-.5-.5-.2-.24-.42-.32-.76-.24-2.12.54-4.25 1.04-6.5 1.58 4.5 5.05 8.97 10.07 13.46 15.13.38-.8.73-1.57 1.1-2.35.54-1.2 1.1-2.43 1.66-3.63.1-.24.1-.4-.1-.58-.22-.2-.42-.46-.7-.77.67.08 1.26.1 1.92-.08-.7.94-.45 2-.54 2.96-.14 1.54-.2 3.1-.28 4.64.15 0 .15-.13.2-.2 1-1.85 2-3.7 3-5.53.13-.22.18-.45.18-.7 0-.76 0-1.52.02-2.38.55.65 1.04 1.23 1.53 1.82.02 0 .04-.02.07-.03-.08-.8-.15-1.6-.23-2.4-.12-1.33-.24-2.66-.4-3.98 0-.2.06-.32.2-.44.72-.6 1.44-1.25 2.15-1.9"/><path fill="#FEFEFE" d="M9.08 8.24c.13-.47.4-.84.9-.92.57-.07 1.12-.1 1.53.4 2.1 2.53 4.18 5.08 6.3 7.6.54.62.64 1.28.56 2.03-.1.92-.7 1.36-1.62 1.23-.75-.1-1.4-.46-2-.87-1.54-1.03-2.76-2.4-3.8-3.9-.84-1.24-1.5-2.55-1.84-4-.12-.53-.16-1.04-.02-1.55z"/></svg>