<svg enable-background="new 0 0 60 60" height="60" viewBox="0 0 60 60" width="60" xmlns="http://www.w3.org/2000/svg"><path d="m19.9 26.7c.7.6 1.4 1.3 2.2 1.9.1.1.2.2.2.4-.1 1.3-.3 2.6-.4 4-.1.8-.1 1.6-.2 2.4h.1c.5-.6 1-1.2 1.5-1.8v2.4c0 .2 0 .5.2.7 1 1.8 2 3.7 3 5.5 0 .1 0 .2.2.2-.1-1.6-.1-3.1-.3-4.7-.1-1 .1-2-.5-3 .7.2 1.2.2 1.9.1-.3.3-.5.5-.7.8-.2.2-.2.3-.1.6.6 1.2 1.1 2.4 1.7 3.6.4.8.7 1.5 1.1 2.4 4.5-5 9-10.1 13.5-15.1-2.2-.5-4.4-1-6.5-1.6-.3-.1-.5 0-.8.2-.1.2-.3.4-.5.5.2-1 .2-1.9-.1-2.7 2.2.8 4.6 1 6.9 1.5-1.3-1-2.5-2-3.8-3-.1-.1-.2-.1-.3-.1-1.4-.2-2.8-.5-4.3-.7-.1 0-.2 0-.3-.1.4-.5.9-1.1 1.3-1.6-.1-.1-.2 0-.3 0-1.7.5-3.5 1.1-5.2 1.6-.3.1-.5 0-.7-.1-2.2-1.8-4.4-3.5-6.5-5.3-.4-.3-.8-.4-1.2-.2-.2.1-.4.2-.6.4-1.5 1-2.6 2.4-3.5 3.9-.5.8-.9 1.6-1.1 2.6-.1.4 0 .7.4 1 .6.5 1.2 1.1 1.8 1.6" fill="#063e89"/><path d="m34.3 25.1c-.3 1.5-1 2.8-1.9 4-1 1.5-2.2 2.9-3.8 3.9-.6.4-1.2.7-2 .8-.9.1-1.5-.3-1.6-1.2-.1-.7 0-1.4.5-2 2.1-2.5 4.2-5.1 6.2-7.6.4-.5 1-.5 1.5-.4s.8.5.9.9c.3.6.3 1.1.2 1.6z" fill="#fefefe"/><path d="m4.4 44.3c.7.6 1.4 1.3 2.2 1.9.2.1.2.2.2.4-.1 1.3-.3 2.7-.4 4-.1.8-.1 1.6-.2 2.4h.1c.5-.6 1-1.2 1.5-1.8v2.4c0 .3.1.5.2.7 1 1.8 2 3.7 3 5.5 0 .1 0 .2.2.2-.1-1.5-.1-3.1-.3-4.7-.1-1 .1-2-.5-3 .7.2 1.2.2 1.9.1-.3.3-.5.5-.7.8-.2.2-.2.3-.1.6.6 1.2 1.1 2.4 1.7 3.6.4.8.7 1.5 1.1 2.4 4.5-5.1 9-10.1 13.4-15.2-2.2-.5-4.4-1-6.5-1.6-.3-.1-.5 0-.7.2-.1.2-.3.4-.5.5.2-1 .2-1.8-.1-2.7 2.3.8 4.6 1 6.9 1.5-1.2-1-2.5-2-3.8-3-.1-.1-.2-.1-.3-.1-1.4-.2-2.9-.5-4.3-.7-.1 0-.3 0-.4-.1.4-.5.9-1.1 1.3-1.6-.1-.1-.2 0-.3 0-1.7.5-3.5 1-5.2 1.6-.3.1-.4 0-.7-.1-2.2-1.8-4.4-3.5-6.5-5.3-.4-.3-.8-.4-1.2-.2-.2.1-.4.2-.6.3-1.5 1-2.6 2.4-3.5 3.9-.5.8-.9 1.6-1.1 2.6-.1.4 0 .7.4 1 .6.5 1.2 1.1 1.8 1.6" fill="#063e89"/><path d="m18.8 42.7c-.3 1.5-1 2.8-1.8 4-1 1.5-2.2 2.9-3.8 3.9-.6.4-1.2.8-2 .9-.9.1-1.5-.3-1.6-1.2-.1-.7 0-1.4.6-2 2.1-2.5 4.2-5.1 6.3-7.6.4-.5 1-.5 1.5-.4s.8.5.9.9c.1.5 0 1-.1 1.5z" fill="#fefefe"/><path d="m36.5 11.3c.7.6 1.4 1.3 2.2 1.9.1.1.2.2.2.4-.1 1.3-.3 2.6-.4 4-.1.8-.1 1.6-.2 2.4h.1c.5-.6 1-1.2 1.5-1.8v2.4c0 .2 0 .5.2.7 1 1.8 2 3.7 3 5.5.1.1.1.2.2.2-.1-1.5-.1-3.1-.3-4.6-.1-1 .2-2-.5-3 .7.2 1.2.2 1.9.1-.3.3-.5.5-.7.8-.2.2-.2.3-.1.6.6 1.2 1.1 2.4 1.7 3.6.4.8.7 1.5 1.1 2.4 4.5-5.1 9-10.1 13.5-15.1-2.2-.6-4.4-1.1-6.5-1.6-.3-.1-.5 0-.7.2-.1.2-.2.4-.5.5.2-1 .2-1.9-.1-2.7 2.3.8 4.6 1 6.9 1.5-1.2-1-2.5-2-3.8-2.9-.1-.1-.2-.1-.3-.1-1.4-.2-2.8-.5-4.3-.7-.1 0-.2 0-.3-.1.5-.5.9-1.1 1.3-1.6-.1-.1-.2 0-.3 0-1.7.5-3.5 1.1-5.2 1.6-.3.1-.5.1-.7-.1-2.2-2-4.4-3.8-6.6-5.5-.4-.3-.8-.4-1.2-.2-.2.1-.4.2-.6.4-1.5 1-2.6 2.4-3.5 3.9-.5.7-1 1.6-1.1 2.5-.1.4 0 .7.3 1 .7.6 1.3 1.1 1.9 1.7" fill="#063e89"/><path d="m50.9 9.8c-.3 1.5-1 2.8-1.8 4-1 1.5-2.3 2.9-3.8 3.9-.6.4-1.2.8-2 .9-.9.1-1.5-.3-1.6-1.2-.1-.7 0-1.4.6-2 2.1-2.5 4.2-5.1 6.3-7.6.4-.5 1-.5 1.5-.4s.8.4.9.9 0 1-.1 1.5z" fill="#fefefe"/></svg>