<svg height="60" width="60" xmlns="http://www.w3.org/2000/svg"><path d="m25.4 20.04c-.2-.27-.37-.57-.6-.95.68.2 1.3.34 2.02.27-.9.87-.86 2-1.14 3-.44 1.6-.8 3.2-1.18 4.8.16.05.2-.1.25-.17 1.4-1.72 2.8-3.46 4.2-5.18.18-.22.27-.45.32-.72.15-.8.3-1.58.47-2.47.45.8.85 1.5 1.25 2.2h.07c.07-.86.14-1.7.22-2.56.1-1.4.23-2.82.34-4.23.02-.2.1-.32.27-.42.88-.52 1.76-1.04 2.63-1.58.3-.17.33-.1.33.18v15.6 1.18h-1.1v2h1.1s0-.2 0-.16v14.2c0 .4-.1.5-.48.48-.98-.02-1.05 0-.96.96.1 1-.28 1.67-1 2.37-3.17 3.1-6.3 6.28-9.46 9.42-.26.26-.3.42 0 .65.23.18.45.4.63.62.26.35.44.26.7 0 2.43-2.45 4.86-4.88 7.3-7.3.63-.65 1.26-1.28 1.9-1.92.23-.22.94-.37 1.23-.26.18.07.12.22.12.34v2.17 6.86c0 .32.07.46.4.42.4-.04.9.16 1.17-.07.26-.24.08-.76.08-1.15.02-2.65 0-5.3.02-7.97 0-.2-.14-.52.13-.57.32-.1.68-.16 1 .15.95 1 1.94 1.96 2.92 2.94 2.18 2.17 4.37 4.35 6.54 6.54.23.22.36.25.56 0s.44-.48.7-.68c.28-.24.3-.4 0-.67-3.1-3.1-6.16-6.23-9.3-9.28-.8-.78-1.2-1.54-1.1-2.67.1-.94.06-.97-.87-.94-.4 0-.45-.1-.45-.5 0-4.8.13-9.62.13-14.43 0-.03 0 .42 0 .42h1v-2h-1.26s.02-1.3.02-1.85c0-5.3 0-10.5 0-15.83 0-.34.1-.52.4-.7.75-.4 1.47-.9 2.23-1.3.42-.24.57-.58.58-1.02.04-1.02-.25-1.97-.62-2.9-.67-1.77-1.56-3.4-2.9-4.76-.2-.16-.4-.32-.6-.47-.42-.3-.83-.33-1.3-.06-2.6 1.46-5.23 2.87-7.84 4.3-.26.15-.46.15-.73 0-1.7-.9-3.42-1.76-5.14-2.65-.1-.03-.15-.1-.3-.06.37.64.73 1.3 1.1 1.94-.14.14-.28.08-.4.08-1.53 0-3.06-.03-4.6-.05-.1 0-.24 0-.34.06-1.5.77-3 1.54-4.5 2.37 2.48-.08 4.98.15 7.48-.22-.4.8-.6 1.73-.6 2.76-.25-.15-.34-.4-.45-.6-.17-.3-.36-.42-.73-.4-2.33.15-4.65.26-7.08.4 3.7 6.14 7.4 12.24 11.14 18.4.54-.8 1.06-1.53 1.58-2.27.8-1.16 1.62-2.32 2.44-3.48.16-.23.2-.4.02-.6z"/><path d="m20.08 6.08c.23-.46.58-.8 1.13-.78.6.02 1.2.1 1.53.7 1.7 3.05 3.37 6.1 5.1 9.13.44.76.42 1.48.2 2.24-.28.94-1 1.3-1.93.98-.77-.26-1.38-.75-1.94-1.3-1.4-1.38-2.4-3.03-3.2-4.82-.65-1.45-1.1-2.95-1.16-4.55-.02-.55.04-1.1.28-1.6z" fill="#fefefe"/></svg>