<svg enable-background="new 0 0 60 60" height="60" viewBox="0 0 60 60" width="60" xmlns="http://www.w3.org/2000/svg"><path d="m33.4 20.7c.8 1.1 1.6 2.3 2.4 3.5.5.7 1 1.5 1.6 2.3 3.7-6.2 7.4-12.3 11.1-18.4-2.4-.2-4.8-.3-7.1-.4-.4 0-.6.1-.8.4-.1.2-.2.4-.5.6 0-1-.2-2-.6-2.8 2.5.4 5 .1 7.5.2-1.5-.8-3-1.6-4.5-2.4-.1 0-.2 0-.3 0-1.5 0-3.1 0-4.6.1-.1 0-.3.1-.4-.1.4-.7.7-1.3 1.1-2-.1-.1-.2 0-.3 0-1.7.9-3.4 1.8-5.1 2.7-.3.2-.5.2-.7 0-2.6-1.4-5.2-2.8-7.8-4.3-.5-.2-.9-.2-1.3.1-.2.2-.4.3-.6.5-1.4 1.4-2.3 3-3 4.7-.2.9-.5 1.9-.5 2.9 0 .5.2.8.6 1 .8.4 1.5.9 2.3 1.3.3.2.4.4.4.7v15.8 1.8h-1.3v2h1v-.4c0 4.8.1 9.6.1 14.4 0 .4 0 .5-.4.5-1 0-1 0-.9.9.1 1.1-.3 1.9-1.1 2.7-3.1 3-6.2 6.2-9.3 9.3-.3.3-.3.4 0 .7.3.2.5.4.7.7.2.2.3.2.6 0 2.2-2.2 4.3-4.4 6.5-6.5l2.9-2.9c.3-.3.7-.2 1-.2s.1.4.1.6v8c0 .4-.2.9.1 1.2.2.2.8 0 1.2.1.3 0 .4-.1.4-.4 0-2.3 0-4.6 0-6.9 0-.7 0-1.4 0-2.2 0-.1 0-.3.1-.3.3-.1 1 0 1.2.2.6.6 1.3 1.3 1.9 1.9l7.3 7.3c.3.3.4.4.7 0 .2-.2.4-.4.6-.6.3-.2.2-.4 0-.6-3.2-3.2-6.3-6.3-9.5-9.4-.7-.7-1.1-1.4-1-2.4s0-1-1-1c-.4 0-.5-.1-.5-.5 0-4.8 0-9.4 0-14.2v.2h1.3v-2h-1.1s0-1 0-1.2c0-5.2 0-10.4 0-15.6 0-.3 0-.4.3-.2.9.5 1.7 1.1 2.6 1.6.2.1.2.2.3.4.1 1.4.3 2.8.4 4.2.1.9.1 1.7.2 2.5h.1c.4-.7.8-1.4 1.2-2.2.2.9.3 1.7.5 2.5 0 .3.1.5.3.7 1.4 1.7 2.8 3.5 4.2 5.2.1.1.1.2.2.2-.4-1.6-.7-3.2-1.2-4.8-.3-1-.2-2.1-1.1-3 .7.1 1.3-.1 2-.3-.2.4-.4.7-.6.9-.1.3-.1.5.1.7z" fill="#00572c"/><path d="m39 7.7c-.1 1.6-.5 3.1-1.2 4.5-.8 1.8-1.8 3.5-3.2 4.8-.5.5-1.2 1-1.9 1.3-1 .3-1.7 0-1.9-1-.2-.8-.2-1.5.2-2.2 1.7-3 3.4-6.1 5.1-9.1.3-.6.9-.7 1.5-.7s.9.3 1.1.8.3 1 .3 1.6z" fill="#fefefe"/></svg>