<svg height="60" width="60" xmlns="http://www.w3.org/2000/svg"><path d="m33.4 20.66c.82 1.15 1.62 2.3 2.43 3.47.52.74 1.04 1.48 1.6 2.26 3.7-6.17 7.4-12.27 11.14-18.4-2.44-.15-4.76-.26-7.08-.4-.4-.03-.6.1-.75.4-.1.2-.2.44-.45.6.03-1.03-.18-1.96-.6-2.76 2.5.37 5 .14 7.5.22-1.5-.83-3-1.6-4.5-2.36-.1-.04-.24-.05-.35-.05-1.53.02-3.06.04-4.6.06-.12 0-.26.08-.38-.06.36-.65.72-1.3 1.08-1.95-.14-.06-.2.02-.28.05-1.7.9-3.43 1.76-5.14 2.66-.27.15-.46.15-.73 0-2.6-1.43-5.22-2.84-7.83-4.3-.48-.25-.9-.22-1.3.08-.2.15-.4.3-.58.48-1.37 1.35-2.26 3-2.95 4.74-.37.93-.66 1.88-.63 2.9.02.46.17.8.58 1.02.77.42 1.5.9 2.26 1.32.3.17.4.35.4.7v15.83 1.83h-1.24v2h1s0-.45 0-.42c0 4.8.1 9.62.13 14.43 0 .4-.03.54-.44.53-.95-.03-1 0-.9.94.12 1.13-.3 1.9-1.1 2.67-3.13 3.05-6.2 6.2-9.3 9.27-.3.3-.27.44 0 .68.26.2.5.44.7.7.2.23.33.2.55-.02 2.17-2.2 4.35-4.36 6.53-6.54.97-.97 1.96-1.95 2.93-2.94.3-.3.68-.23 1-.17.26.05.1.38.1.58.03 2.65.03 5.3.04 7.96 0 .4-.18.9.08 1.15.25.22.76.03 1.16.07.34.03.4-.1.4-.43 0-2.28 0-4.57 0-6.86 0-.72 0-1.44 0-2.16 0-.1-.05-.26.13-.33.3-.1 1 .02 1.24.25.63.63 1.27 1.27 1.9 1.9 2.44 2.43 4.87 4.86 7.3 7.3.26.27.44.36.7.02.18-.24.4-.44.63-.63.28-.23.25-.4 0-.64-3.17-3.15-6.3-6.32-9.5-9.43-.7-.7-1.06-1.37-.97-2.37.1-.95.02-.98-.95-.95-.4 0-.5-.1-.48-.5 0-4.8 0-9.36 0-14.2 0-.02 0 .18 0 .18h1.12v-2h-1.1s0-1.05 0-1.16c0-5.23 0-10.4 0-15.62 0-.3.04-.35.33-.17.87.53 1.74 1.06 2.62 1.57.16.1.25.22.26.42.13 1.4.26 2.83.38 4.24.07.85.15 1.7.22 2.55.02 0 .05 0 .08.02.4-.7.8-1.42 1.24-2.2.18.88.33 1.68.48 2.47.05.27.14.5.32.72 1.4 1.73 2.8 3.46 4.2 5.2.06.07.08.2.25.18-.4-1.6-.74-3.22-1.2-4.8-.26-1.02-.22-2.15-1.12-3 .73.06 1.34-.08 2-.3-.22.37-.37.67-.57.94-.17.22-.15.4.02.62z"/><path d="m38.97 7.68c-.06 1.6-.52 3.1-1.16 4.55-.77 1.8-1.8 3.44-3.2 4.82-.55.55-1.15 1.04-1.9 1.3-.95.3-1.67-.04-1.94-.98-.23-.76-.25-1.48.2-2.24 1.72-3.02 3.4-6.08 5.1-9.13.33-.6.92-.68 1.5-.7.56-.02.9.32 1.14.78.23.5.28 1.05.27 1.6z" fill="#fefefe"/></svg>