<svg enable-background="new 0 0 60 60" height="60" viewBox="0 0 60 60" width="60" xmlns="http://www.w3.org/2000/svg"><path d="m57.7 21.9h-55.4c-1.3 0-2.3.8-2.3 1.8v12.6c0 1 1.1 1.8 2.3 1.8h55.4c1.3 0 2.3-.8 2.3-1.8v-12.6c0-1.1-1.1-1.8-2.3-1.8z" fill="#249ac1"/><path d="m10.5 28.4h1.5v9.2h-1.5z" fill="#e2e2e3"/><path d="m12.1 28.4h1.5v9.2h-1.5z" fill="#e2e2e3"/><path d="m13.7 28.4h1.5v9.2h-1.5z" fill="#e2e2e3"/><path d="m12 28.3c-.2 0-.4.2-.4.4v5.3c0 .2.2.4.4.4s.4-.2.4-.4v-5.3c0-.2-.2-.4-.4-.4z" fill="#101a20"/><path d="m13.7 28.3c-.2 0-.4.2-.4.4v5.3c0 .2.2.4.4.4s.4-.2.4-.4v-5.3c0-.2-.2-.4-.4-.4z" fill="#101a20"/><path d="m34 28.4h1.5v9.2h-1.5z" fill="#e2e2e3"/><path d="m35.7 28.4h1.5v9.2h-1.5z" fill="#e2e2e3"/><path d="m37.4 28.4h1.5v9.2h-1.5z" fill="#e2e2e3"/><path d="m35.6 28.3c-.2 0-.4.2-.4.4v5.3c0 .2.2.4.4.4s.4-.2.4-.4v-5.3c0-.2-.2-.4-.4-.4z" fill="#101a20"/><path d="m37.3 28.3c-.2 0-.4.2-.4.4v5.3c0 .2.2.4.4.4s.4-.2.4-.4v-5.3c0-.2-.2-.4-.4-.4z" fill="#101a20"/><path d="m15.5 28.4h1.5v9.2h-1.5z" fill="#e2e2e3"/><path d="m17.1 28.4h1.5v9.2h-1.5z" fill="#e2e2e3"/><path d="m18.9 28.4h1.5v9.2h-1.5z" fill="#e2e2e3"/><path d="m20.5 28.4h1.5v9.2h-1.5z" fill="#e2e2e3"/><path d="m17 28.3c-.2 0-.4.2-.4.4v5.3c0 .2.2.4.4.4s.4-.2.4-.4v-5.3c.1-.2-.1-.4-.4-.4z" fill="#101a20"/><path d="m18.8 28.3c-.2 0-.4.2-.4.4v5.3c0 .2.2.4.4.4s.4-.2.4-.4v-5.3c0-.2-.2-.4-.4-.4z" fill="#101a20"/><path d="m20.4 28.3c-.2 0-.4.2-.4.4v5.3c0 .2.2.4.4.4s.4-.2.4-.4v-5.3c.1-.2-.1-.4-.4-.4z" fill="#101a20"/><path d="m45.8 28.4h1.5v9.2h-1.5z" fill="#e2e2e3"/><path d="m47.5 28.4h1.5v9.2h-1.5z" fill="#e2e2e3"/><path d="m49.2 28.4h1.5v9.2h-1.5z" fill="#e2e2e3"/><path d="m47.4 28.3c-.2 0-.4.2-.4.4v5.3c0 .2.2.4.4.4s.4-.2.4-.4v-5.3c0-.2-.2-.4-.4-.4z" fill="#101a20"/><path d="m49.1 28.3c-.2 0-.4.2-.4.4v5.3c0 .2.2.4.4.4s.4-.2.4-.4v-5.3c0-.2-.1-.4-.4-.4z" fill="#101a20"/><g fill="#e2e2e3"><path d="m50.9 28.4h1.5v9.2h-1.5z"/><path d="m52.5 28.4h1.5v9.2h-1.5z"/><path d="m54.2 28.4h1.5v9.2h-1.5z"/><path d="m55.9 28.4h1.5v9.2h-1.5z"/><path d="m57.6 28.4h1.5v9.2h-1.5z"/></g><path d="m52.5 28.3c-.2 0-.4.2-.4.4v5.3c0 .2.2.4.4.4s.4-.2.4-.4v-5.3c-.1-.2-.2-.4-.4-.4z" fill="#101a20"/><path d="m54.2 28.3c-.2 0-.4.2-.4.4v5.3c0 .2.2.4.4.4s.4-.2.4-.4v-5.3c0-.2-.2-.4-.4-.4z" fill="#101a20"/><path d="m55.8 28.3c-.2 0-.4.2-.4.4v5.3c0 .2.2.4.4.4s.4-.2.4-.4v-5.3c0-.2-.2-.4-.4-.4z" fill="#101a20"/><path d="m39.1 28.4h1.5v9.2h-1.5z" fill="#e2e2e3"/><path d="m40.7 28.4h1.5v9.2h-1.5z" fill="#e2e2e3"/><path d="m42.5 28.4h1.5v9.2h-1.5z" fill="#e2e2e3"/><path d="m44.1 28.4h1.5v9.2h-1.5z" fill="#e2e2e3"/><path d="m40.6 28.3c-.2 0-.4.2-.4.4v5.3c0 .2.2.4.4.4s.4-.2.4-.4v-5.3c.1-.2-.1-.4-.4-.4z" fill="#101a20"/><path d="m42.4 28.3c-.2 0-.4.2-.4.4v5.3c0 .2.2.4.4.4s.4-.2.4-.4v-5.3c0-.2-.2-.4-.4-.4z" fill="#101a20"/><path d="m44 28.3c-.2 0-.4.2-.4.4v5.3c0 .2.2.4.4.4s.4-.2.4-.4v-5.3c0-.2-.2-.4-.4-.4z" fill="#101a20"/><path d="m22.2 28.4h1.5v9.2h-1.5z" fill="#e2e2e3"/><path d="m23.9 28.4h1.5v9.2h-1.5z" fill="#e2e2e3"/><path d="m25.5 28.4h1.5v9.2h-1.5z" fill="#e2e2e3"/><path d="m23.8 28.3c-.2 0-.4.2-.4.4v5.3c0 .2.2.4.4.4s.4-.2.4-.4v-5.3c0-.2-.2-.4-.4-.4z" fill="#101a20"/><path d="m25.5 28.3c-.2 0-.4.2-.4.4v5.3c0 .2.2.4.4.4s.4-.2.4-.4v-5.3c0-.2-.2-.4-.4-.4z" fill="#101a20"/><path d="m27.3 28.4h1.5v9.2h-1.5z" fill="#e2e2e3"/><path d="m28.9 28.4h1.5v9.2h-1.5z" fill="#e2e2e3"/><path d="m30.7 28.4h1.5v9.2h-1.5z" fill="#e2e2e3"/><path d="m32.3 28.4h1.5v9.2h-1.5z" fill="#e2e2e3"/><path d="m28.8 28.3c-.2 0-.4.2-.4.4v5.3c0 .2.2.4.4.4s.4-.2.4-.4v-5.3c.1-.2-.1-.4-.4-.4z" fill="#101a20"/><path d="m30.6 28.3c-.2 0-.4.2-.4.4v5.3c0 .2.2.4.4.4s.4-.2.4-.4v-5.3c0-.2-.2-.4-.4-.4z" fill="#101a20"/><path d="m32.2 28.3c-.2 0-.4.2-.4.4v5.3c0 .2.2.4.4.4s.4-.2.4-.4v-5.3c0-.2-.1-.4-.4-.4z" fill="#101a20"/><path d="m42 23.8c0-.3.2-.6.5-.6s.6.2.6.5-.2.6-.5.6-.6-.2-.6-.5z" fill="#663618"/><path d="m42.6 24.5c.4 0 .7-.3.7-.7s-.3-.7-.7-.7-.7.3-.7.7.3.7.7.7zm-.1-1.4c.3 0 .6.3.7.6 0 .3-.3.6-.6.7-.3 0-.6-.3-.7-.6 0-.4.3-.7.6-.7z" fill="#d0d2d3"/><path d="m42.5 23.5c-.2 0-.3.2-.3.3 0 .2.2.3.3.3.2 0 .3-.2.3-.3.1-.2-.1-.4-.3-.3z" fill="#3c2415"/><path d="m42 25.5c0-.3.2-.6.5-.6s.6.2.6.5-.2.6-.5.6c-.3-.1-.6-.3-.6-.5z" fill="#663618"/><path d="m42.6 26.1c.4 0 .7-.3.7-.7s-.3-.7-.7-.7-.7.3-.7.7.3.7.7.7zm-.1-1.3c.3 0 .6.3.7.6 0 .3-.3.6-.6.7-.3 0-.6-.3-.7-.6 0-.4.3-.7.6-.7z" fill="#d0d2d3"/><path d="m42.5 25.1c-.2 0-.3.2-.3.3 0 .2.2.3.3.3.2 0 .3-.2.3-.3.1-.1-.1-.3-.3-.3z" fill="#3c2415"/><path d="m43.8 23.8c0-.3.2-.6.5-.6s.6.2.6.5-.2.6-.5.6-.6-.2-.6-.5z" fill="#663618"/><path d="m44.4 24.5c.4 0 .7-.3.7-.7s-.3-.7-.7-.7-.7.3-.7.7.3.7.7.7zm0-1.4c.3 0 .6.3.7.6 0 .3-.3.6-.6.7-.3 0-.6-.3-.7-.6-.1-.4.2-.7.6-.7z" fill="#d0d2d3"/><path d="m44.4 23.5c-.2 0-.3.2-.3.3 0 .2.2.3.3.3.2 0 .3-.2.3-.3 0-.2-.2-.4-.3-.3z" fill="#3c2415"/><path d="m43.8 25.5c0-.3.2-.6.5-.6s.6.2.6.5-.2.6-.5.6c-.3-.1-.6-.3-.6-.5z" fill="#663618"/><path d="m44.4 26.1c.4 0 .7-.3.7-.7s-.3-.7-.7-.7-.7.3-.7.7.3.7.7.7zm0-1.3c.3 0 .6.3.7.6 0 .3-.3.6-.6.7-.3 0-.6-.3-.7-.6-.1-.4.2-.7.6-.7z" fill="#d0d2d3"/><path d="m44.4 25.1c-.2 0-.3.2-.3.3 0 .2.2.3.3.3.2 0 .3-.2.3-.3s-.2-.3-.3-.3z" fill="#3c2415"/><path d="m45.8 23.8c0-.3.2-.6.5-.6s.6.2.6.5-.2.6-.5.6c-.4 0-.6-.2-.6-.5z" fill="#663618"/><path d="m46.3 24.5c.4 0 .7-.3.7-.7s-.3-.7-.7-.7-.7.3-.7.7.3.7.7.7zm0-1.4c.3 0 .6.3.7.6 0 .3-.3.6-.6.7-.3 0-.6-.3-.7-.6 0-.4.2-.7.6-.7z" fill="#d0d2d3"/><path d="m46.3 23.5c-.2 0-.3.2-.3.3 0 .2.2.3.3.3.2 0 .3-.2.3-.3-.1-.2-.1-.4-.3-.3z" fill="#3c2415"/><path d="m45.8 25.5c0-.3.2-.6.5-.6s.6.2.6.5-.2.6-.5.6c-.4-.1-.6-.3-.6-.5z" fill="#663618"/><path d="m46.3 26.1c.4 0 .7-.3.7-.7s-.3-.7-.7-.7-.7.3-.7.7.3.7.7.7zm0-1.3c.3 0 .6.3.7.6 0 .3-.3.6-.6.7-.3 0-.6-.3-.7-.6 0-.4.2-.7.6-.7z" fill="#d0d2d3"/><path d="m46.3 25.1c-.2 0-.3.2-.3.3 0 .2.2.3.3.3.2 0 .3-.2.3-.3s-.1-.3-.3-.3z" fill="#3c2415"/><path d="m47.6 23.8c0-.3.2-.6.5-.6s.6.2.6.5-.2.6-.5.6c-.4 0-.6-.2-.6-.5z" fill="#663618"/><path d="m48.1 24.5c.4 0 .7-.3.7-.7s-.3-.7-.7-.7-.7.3-.7.7.4.7.7.7zm0-1.4c.3 0 .6.3.7.6 0 .3-.3.6-.6.7-.3 0-.6-.3-.7-.6 0-.4.3-.7.6-.7z" fill="#d0d2d3"/><path d="m48.1 23.5c-.2 0-.3.2-.3.3 0 .2.2.3.3.3.2 0 .3-.2.3-.3 0-.2-.1-.4-.3-.3z" fill="#3c2415"/><path d="m47.6 25.5c0-.3.2-.6.5-.6s.6.2.6.5-.2.6-.5.6c-.4-.1-.6-.3-.6-.5z" fill="#663618"/><path d="m48.1 26.1c.4 0 .7-.3.7-.7s-.3-.7-.7-.7-.7.3-.7.7.4.7.7.7zm0-1.3c.3 0 .6.3.7.6 0 .3-.3.6-.6.7-.3 0-.6-.3-.7-.6 0-.4.3-.7.6-.7z" fill="#d0d2d3"/><path d="m48.1 25.1c-.2 0-.3.2-.3.3 0 .2.2.3.3.3.2 0 .3-.2.3-.3s-.1-.3-.3-.3z" fill="#3c2415"/><path d="m26 25.4c0-.3.2-.6.5-.6s.6.2.6.5-.2.6-.5.6c-.4-.1-.6-.3-.6-.5z" fill="#663618"/><path d="m26.5 26c.4 0 .7-.3.7-.7s-.3-.7-.7-.7-.7.3-.7.7.4.7.7.7zm0-1.3c.3 0 .6.3.7.6 0 .3-.3.6-.6.7-.3 0-.6-.3-.7-.6 0-.4.3-.6.6-.7z" fill="#d0d2d3"/><path d="m26.5 25.1c-.2 0-.3.2-.3.3 0 .2.2.3.3.3.2 0 .3-.2.3-.3 0-.2-.1-.3-.3-.3z" fill="#3c2415"/><path d="m26 23.5c0-.3.2-.6.5-.6s.6.2.6.5c0 .4-.3.7-.6.7s-.5-.3-.5-.6z" fill="#663618"/><path d="m26.5 24.2c.4 0 .7-.3.7-.7s-.3-.7-.7-.7-.7.3-.7.7.4.7.7.7zm0-1.3c.3 0 .6.3.7.6 0 .3-.3.6-.6.7-.3 0-.6-.3-.7-.6 0-.4.3-.7.6-.7z" fill="#d0d2d3"/><circle cx="26.5" cy="23.5" fill="#3c2415" r=".3"/><path d="m59.1 27.4h-48.7c-.2 0-.4.2-.4.5s.2.5.4.5h48.9c.2 0 .4-.2.4-.5-.2-.3-.4-.5-.6-.5z" fill="#262262"/><path d="m25 26.6h1.5v.4h-1.5z" fill="#bae4f5"/><path d="m26.8 26.6h1.5v.4h-1.5z" fill="#52bbe7"/><path d="m29 22.5h11.7v4.7h-11.7z" fill="#27aae1"/><path d="m30.1 26.1h9.8v.3h-9.8z" fill="#262262"/><path d="m30.1 25.5h9.8v.3h-9.8z" fill="#262262"/><path d="m30.1 24.8h9.8v.3h-9.8z" fill="#262262"/><path d="m36.5 24.1h3.4v.3h-3.4z" fill="#262262"/><path d="m30.1 22.9h3.4v.3h-3.4z" fill="#262262"/><path d="m5.2 22.4h1v4.4h-1z" fill="#58595b"/><path d="m5.7 23.4c.2 0 .4.5.4 1.2 0 .6-.2 1.2-.4 1.2s-.4-.5-.4-1.2.2-1.2.4-1.2z" fill="#3c2415"/><path d="m3.7 22.4h1v4.4h-1z" fill="#58595b"/><path d="m4.2 22.8c-.2 0-.4.5-.4 1.2s.2 1.2.4 1.2.4-.5.4-1.2-.2-1.2-.4-1.2z" fill="#3c2415"/><path d="m6.3 24.5h-2.7s-.1 0-.1.1 0 .1.1.1h2.7s.1-.1 0-.2z" fill="#d1d3d4"/><path d="m12.5 23.8c-2.9.7-5-.9-5-.8s2.2 1.8 5.1 1.2c2.9-.7 6.6-.1 6.6-.2-.1-.1-3.9-.9-6.7-.2z" fill="#fac4b2"/><path d="m22.7 22.5h1.5v.9h-1.5z" fill="#009444"/><path d="m21 22.5h1.5v.9h-1.5z" fill="#bae4f5"/><path d="m19.2 22.5h1.5v.9h-1.5z" fill="#bae4f5"/><path d="m19.2 23.6h1.5v.9h-1.5z" fill="#39b54a"/><path d="m19.2 24.7h1.5v.9h-1.5z" fill="#2b3990"/><path d="m19.2 25.7h1.5v.9h-1.5z" fill="#ec008c"/><path d="m17 26.1h1.3v.5h-1.3z" fill="#bae4f5"/><path d="m17 25.5h1.3v.5h-1.3z" fill="#52bbe7"/><path d="m15.5 25.5h1.3v.5h-1.3z" fill="#e3f4fb"/><path d="m14 25.5h1.3v.5h-1.3z" fill="#e3f4fb"/><path d="m12.6 25.5h1.3v.5h-1.3z" fill="#e3f4fb"/><path d="m11.1 25.5h1.3v.5h-1.3z" fill="#8babb8"/><path d="m15.5 26.1h1.3v.5h-1.3z" fill="#52bbe7"/><path d="m14 26.1h1.3v.5h-1.3z" fill="#bae4f5"/><path d="m12.6 26.1h1.3v.5h-1.3z" fill="#8babb8"/><path d="m11.1 26.1h1.3v.5h-1.3z" fill="#8babb8"/><path d="m21 24.7h1.5v.9h-1.5z" fill="#52bbe7"/><path d="m21 25.7h1.5v.9h-1.5z" fill="#52bbe7"/><path d="m22.7 23.6h1.5v.9h-1.5z" fill="#f7941e"/><path d="m22.7 24.7h1.5v.9h-1.5z" fill="#52bbe7"/><path d="m22.7 25.7h1.5v.9h-1.5z" fill="#52bbe7"/><path d="m.8 35.1h2.3v2h-2.3z" fill="#262262" transform="matrix(.00609477 -1 1 .00609477 -34.1598 37.8422)"/><path d="m2.2 35h-.6c-.3 0-.6.3-.6.7v.9c0 .4.3.7.7.7h.6c.4 0 .7-.3.7-.7v-.9c-.1-.4-.4-.7-.8-.7zm.4 1.5c0 .3-.2.5-.5.5h-.4c-.3 0-.5-.2-.5-.5v-.7c0-.3.2-.5.5-.5h.4c.3 0 .5.2.5.5z" fill="#662d91"/><path d="m2.9 35.2h2.3v2h-2.3z" fill="#262262" transform="matrix(.00609734 -1 1 .00609734 -32.1188 40.045)"/><path d="m4.4 35h-.6c-.4 0-.7.3-.7.7v.9c0 .4.3.7.7.7h.6c.3 0 .6-.3.6-.7v-.9c0-.4-.3-.7-.6-.7zm.3 1.5c0 .3-.2.5-.5.5h-.3c-.3 0-.5-.2-.5-.5v-.7c0-.3.2-.5.5-.5h.4c.3 0 .5.2.5.5v.7z" fill="#27aae1"/><path d="m5.1 35.2h2.3v2h-2.3z" fill="#262262" transform="matrix(.00630757 -1 1 .00630757 -29.9809 42.1434)"/><path d="m6.5 35h-.6c-.4 0-.7.3-.7.7v.9c0 .4.3.7.7.7h.6c.4 0 .7-.3.7-.7v-.9c0-.4-.3-.7-.7-.7zm.5 1.5c0 .3-.2.5-.5.5h-.4c-.3 0-.5-.2-.5-.5v-.7c0-.3.2-.5.5-.5h.4c.3 0 .5.2.5.5z" fill="#00a79d"/><path d="m7.3 35.1h2.3v2h-2.3z" fill="#262262" transform="matrix(.00609734 -1 1 .00609734 -27.7407 44.3581)"/><path d="m8.7 35h-.6c-.4 0-.7.3-.7.7v.9c0 .4.3.7.7.7h.6c.4 0 .7-.3.7-.7v-.9c0-.4-.4-.7-.7-.7zm.4 1.5c0 .3-.2.5-.5.5h-.4c-.3 0-.5-.2-.5-.5v-.7c0-.3.2-.5.5-.5h.4c.3 0 .5.2.5.5z" fill="#8dc63f"/><path d="m.8 32.7h2.3v2h-2.3z" fill="#262262" transform="matrix(.00609477 -1 1 .00609477 -31.7087 35.4696)"/><path d="m2.2 32.5h-.6c-.4 0-.7.3-.7.7v.9c0 .4.3.7.7.7h.6c.4 0 .7-.3.7-.7v-.9c0-.3-.3-.7-.7-.7zm.4 1.6c0 .3-.2.5-.5.5h-.4c-.3 0-.5-.2-.5-.5v-.7c0-.3.2-.5.5-.5h.4c.3 0 .5.2.5.5z" fill="#fbb040"/><path d="m3 32.7h2.3v2h-2.3z" fill="#262262" transform="matrix(.00630757 -1 1 .00630757 -29.5679 37.5669)"/><path d="m4.4 32.5h-.6c-.4 0-.7.3-.7.7v.9c0 .4.3.7.7.7h.6c.4 0 .7-.3.7-.7v-.9c-.1-.3-.4-.7-.7-.7zm.3 1.6c0 .3-.2.5-.5.5h-.3c-.3 0-.5-.2-.5-.5v-.7c0-.3.2-.5.5-.5h.4c.3 0 .5.2.5.5v.7z" fill="#f15a29"/><path d="m5.1 32.7h2.3v2h-2.3z" fill="#262262" transform="matrix(.00630757 -1 1 .00630757 -27.5298 39.7716)"/><path d="m6.5 32.5h-.6c-.4 0-.7.3-.7.7v.9c0 .4.3.7.7.7h.6c.4 0 .7-.3.7-.7v-.9c0-.3-.3-.7-.7-.7zm.5 1.6c0 .3-.2.5-.5.5h-.4c-.3 0-.5-.2-.5-.5v-.7c0-.3.2-.5.5-.5h.4c.3 0 .5.2.5.5z" fill="#be1e2d"/><path d="m7.2 32.7h2.3v2h-2.3z" fill="#262262" transform="matrix(.00630492 -1 1 .00630492 -25.3905 41.8778)"/><path d="m8.7 32.5h-.6c-.4 0-.7.3-.7.7v.9c0 .4.3.7.7.7h.6c.4 0 .7-.3.7-.7v-.9c0-.3-.4-.7-.7-.7zm.4 1.6c0 .3-.2.5-.5.5h-.4c-.3 0-.5-.2-.5-.5v-.7c0-.3.2-.5.5-.5h.4c.3 0 .5.2.5.5z" fill="#be1e2d"/><path d="m.7 30.3h2.3v2h-2.3z" fill="#262262" transform="matrix(.00609734 -1 1 .00609734 -29.4375 32.9207)"/><path d="m2.2 30.1h-.6c-.4 0-.7.3-.7.7v.9c0 .4.3.7.7.7h.6c.4 0 .7-.3.7-.7v-.9c0-.4-.3-.7-.7-.7zm.4 1.5c0 .3-.2.5-.5.5h-.4c-.3 0-.5-.2-.5-.5v-.6c0-.3.2-.5.5-.5h.4c.3 0 .5.2.5.5z" fill="#9cf8ed"/><path d="m2.8 30.2h2.3v2h-2.3z" fill="#262262" transform="matrix(.00609477 -1 1 .00609477 -27.296 35.0256)"/><path d="m4.4 30.1h-.6c-.4 0-.7.3-.7.7v.9c0 .4.3.7.7.7h.6c.3-.1.6-.4.6-.8v-.9c0-.3-.3-.6-.6-.6zm.3 1.5c0 .3-.2.5-.5.5h-.3c-.3 0-.5-.2-.5-.5v-.6c0-.3.2-.5.5-.5h.4c.3 0 .5.2.5.5v.6z" fill="#9cf8ed"/><path d="m5.1 30.3h2.3v2h-2.3z" fill="#262262" transform="matrix(.00609734 -1 1 .00609734 -25.1582 37.3309)"/><path d="m6.5 30.1h-.6c-.4 0-.7.3-.7.7v.9c0 .4.3.7.7.7h.6c.4 0 .7-.3.7-.7v-.9c0-.4-.3-.7-.7-.7zm.5 1.5c0 .3-.2.5-.5.5h-.4c-.3 0-.5-.2-.5-.5v-.6c0-.3.2-.5.5-.5h.4c.3 0 .5.2.5.5z" fill="#9cf8ed"/><path d="m7.2 30.3h2.3v2h-2.3z" fill="#262262" transform="matrix(.00609477 -1 1 .00609477 -23.0185 39.4368)"/><path d="m8.7 30.1h-.6c-.4 0-.7.3-.7.7v.9c0 .4.3.7.7.7h.6c.4 0 .7-.3.7-.7v-.9c0-.4-.4-.7-.7-.7zm.4 1.5c0 .3-.2.5-.5.5h-.4c-.3 0-.5-.2-.5-.5v-.6c0-.3.2-.5.5-.5h.4c.3 0 .5.2.5.5z" fill="#9cf8ed"/><path d="m.7 27.8h2.3v2h-2.3z" fill="#262262" transform="matrix(.00630757 -1 1 .00630757 -26.9865 30.5426)"/><path d="m2.2 27.7h-.6c-.3 0-.6.3-.6.7v.9c0 .4.3.7.7.7h.6c.4 0 .7-.3.7-.7v-.9c-.1-.4-.4-.7-.8-.7zm.4 1.5c0 .3-.2.5-.5.5h-.4c-.3 0-.5-.2-.5-.5v-.7c0-.3.2-.5.5-.5h.4c.3 0 .5.2.5.5z" fill="#fbb040"/><path d="m2.9 27.8h2.3v2h-2.3z" fill="#262262" transform="matrix(.00609605 -1 1 .00609605 -24.8454 32.6531)"/><path d="m4.4 27.7h-.6c-.4 0-.7.3-.7.7v.9c0 .4.3.7.7.7h.6c.4 0 .7-.3.7-.7v-.9c-.1-.4-.4-.7-.7-.7zm.3 1.5c0 .3-.2.5-.5.5h-.3c-.3 0-.5-.2-.5-.5v-.7c0-.3.2-.5.5-.5h.4c.3 0 .5.2.5.5v.7z" fill="#f15a29"/><path d="m5 27.9h2.3v2h-2.3z" fill="#262262" transform="matrix(.00609734 -1 1 .00609734 -22.8058 34.8578)"/><path d="m6.5 27.7h-.6c-.4 0-.7.3-.7.7v.9c0 .4.3.7.7.7h.6c.4 0 .7-.3.7-.7v-.9c0-.4-.3-.7-.7-.7zm.5 1.5c0 .3-.2.5-.5.5h-.4c-.3 0-.5-.2-.5-.5v-.7c0-.3.2-.5.5-.5h.4c.3 0 .5.2.5.5z" fill="#f47b54"/><path d="m7.2 27.9h2.3v2h-2.3z" fill="#262262" transform="matrix(.00609605 -1 1 .00609605 -20.5679 37.0643)"/><path d="m8.7 27.7h-.6c-.4 0-.7.3-.7.7v.9c0 .4.3.7.7.7h.6c.4 0 .7-.3.7-.7v-.9c0-.4-.4-.7-.7-.7zm.4 1.5c0 .3-.2.5-.5.5h-.4c-.3 0-.5-.2-.5-.5v-.7c0-.3.2-.5.5-.5h.4c.3 0 .5.2.5.5z" fill="#f15a29"/></svg>