<svg enable-background="new 0 0 60 248.8" height="248.8" viewBox="0 0 60 248.8" width="60" xmlns="http://www.w3.org/2000/svg"><g fill="#c12127"><circle cx="26.8" cy="6.9" r=".8"/><circle cx="30" cy="6.9" r=".8"/><path d="m33.2 7.7c.4 0 .8-.4.8-.8s-.3-.8-.8-.8-.8.3-.8.8c.1.4.4.8.8.8zm-12.9 4.1c.4 0 .8-.3.8-.8 0-.4-.4-.8-.8-.8s-.8.4-.8.8.4.8.8.8z"/><circle cx="23.5" cy="11" r=".8"/><circle cx="26.8" cy="11" r=".8"/><circle cx="30" cy="11" r=".8"/><circle cx="33.2" cy="11" r=".8"/><circle cx="36.5" cy="11" r=".8"/><path d="m39.7 11.8c.4 0 .8-.4.8-.8s-.3-.8-.8-.8-.8.4-.8.8.3.8.8.8z"/><circle cx="22.1" cy="9.1" r=".8"/><path d="m25.3 9.9c.4 0 .8-.4.8-.8s-.4-.8-.8-.8-.8.4-.8.8c0 .5.4.8.8.8zm3.2 0c.4 0 .8-.4.8-.8s-.3-.8-.8-.8c-.4 0-.8.4-.8.8.1.5.4.8.8.8zm3.3 0c.4 0 .8-.4.8-.8s-.3-.8-.8-.8c-.4 0-.8.4-.8.8 0 .5.3.8.8.8zm3.2 0c.4 0 .8-.4.8-.8s-.3-.8-.8-.8-.8.4-.8.8c0 .5.3.8.8.8zm3.2 0c.4 0 .8-.4.8-.8s-.3-.8-.8-.8-.8.4-.8.8c0 .5.4.8.8.8zm-17.9 6c.4 0 .8-.4.8-.8s-.4-.8-.8-.8-.8.4-.8.8.4.8.8.8z"/><circle cx="23.5" cy="15.1" r=".8"/><circle cx="26.8" cy="15.1" r=".8"/><circle cx="30" cy="15.1" r=".8"/><circle cx="33.2" cy="15.1" r=".8"/><circle cx="36.5" cy="15.1" r=".8"/><path d="m39.7 14.3c-.5 0-.8.4-.8.8s.3.8.8.8c.4 0 .8-.4.8-.8 0-.5-.4-.8-.8-.8z"/><circle cx="22.1" cy="13.2" r=".8"/><path d="m25.3 14c.4 0 .8-.4.8-.8s-.4-.8-.8-.8-.8.4-.8.8c0 .5.4.8.8.8zm3.2 0c.4 0 .8-.4.8-.8s-.3-.8-.8-.8c-.4 0-.8.4-.8.8.1.5.4.8.8.8zm3.3 0c.4 0 .8-.4.8-.8s-.3-.8-.8-.8c-.4 0-.8.4-.8.8 0 .5.3.8.8.8zm3.2 0c.4 0 .8-.4.8-.8s-.3-.8-.8-.8-.8.4-.8.8c0 .5.3.8.8.8zm3.2 0c.4 0 .8-.4.8-.8s-.3-.8-.8-.8-.8.4-.8.8c0 .5.4.8.8.8z"/><circle cx="20.3" cy="19.2" r=".8"/><circle cx="23.5" cy="19.2" r=".8"/><circle cx="26.8" cy="19.2" r=".8"/><circle cx="30" cy="19.2" r=".8"/><circle cx="33.2" cy="19.2" r=".8"/><circle cx="36.5" cy="19.2" r=".8"/><path d="m39.7 18.4c-.5 0-.8.4-.8.8s.3.8.8.8c.4 0 .8-.4.8-.8s-.4-.8-.8-.8z"/><circle cx="18.8" cy="17.4" r=".8"/><circle cx="22.1" cy="17.4" r=".8"/><path d="m25.3 18.1c.4 0 .8-.4.8-.8s-.4-.8-.8-.8-.8.4-.8.8.4.8.8.8zm3.2 0c.4 0 .8-.4.8-.8s-.3-.8-.8-.8c-.4 0-.8.4-.8.8s.4.8.8.8zm3.3 0c.4 0 .8-.4.8-.8s-.3-.8-.8-.8c-.4 0-.8.4-.8.8s.3.8.8.8zm3.2 0c.4 0 .8-.4.8-.8s-.3-.8-.8-.8-.8.4-.8.8.3.8.8.8zm3.2 0c.4 0 .8-.4.8-.8s-.3-.8-.8-.8-.8.4-.8.8.4.8.8.8z"/><circle cx="20.3" cy="23.3" r=".8"/><circle cx="23.5" cy="23.3" r=".8"/><circle cx="26.8" cy="23.3" r=".8"/><circle cx="30" cy="23.3" r=".8"/><path d="m33.2 22.5c-.4 0-.8.4-.8.8s.4.8.8.8.8-.3.8-.8-.3-.7-.8-.8z"/><circle cx="36.5" cy="23.3" r=".8"/><path d="m39.7 22.5c-.5 0-.8.4-.8.8s.3.8.8.8c.4 0 .8-.3.8-.8s-.4-.7-.8-.8z"/><circle cx="18.8" cy="21.5" r=".8"/><circle cx="22.1" cy="21.5" r=".8"/><path d="m25.3 22.2c.4 0 .8-.4.8-.8s-.4-.8-.8-.8-.8.3-.8.8.4.8.8.8zm3.2 0c.4 0 .8-.4.8-.8s-.3-.8-.8-.8c-.4 0-.8.3-.8.8s.4.8.8.8zm3.3 0c.4 0 .8-.4.8-.8s-.3-.8-.8-.8c-.4 0-.8.3-.8.8s.3.8.8.8zm3.2 0c.4 0 .8-.4.8-.8s-.3-.8-.8-.8-.8.3-.8.8.3.8.8.8zm3.2 0c.4 0 .8-.4.8-.8s-.3-.8-.8-.8-.8.3-.8.8.4.8.8.8z"/><circle cx="20.3" cy="27.4" r=".8"/><circle cx="23.5" cy="27.4" r=".8"/><circle cx="26.8" cy="27.4" r=".8"/><circle cx="30" cy="27.4" r=".8"/><circle cx="33.2" cy="27.4" r=".8"/><circle cx="36.5" cy="27.4" r=".8"/><path d="m39.7 26.7c-.5 0-.8.4-.8.8s.3.8.8.8c.4 0 .8-.4.8-.8s-.4-.8-.8-.8z"/><circle cx="18.8" cy="25.6" r=".8"/><circle cx="22.1" cy="25.6" r=".8"/><path d="m25.3 26.4c.4 0 .8-.4.8-.8s-.4-.8-.8-.8-.8.4-.8.8.4.8.8.8zm3.2 0c.4 0 .8-.4.8-.8s-.3-.8-.8-.8c-.4 0-.8.4-.8.8s.4.8.8.8zm3.3 0c.4 0 .8-.4.8-.8s-.3-.8-.8-.8c-.4 0-.8.4-.8.8s.3.8.8.8zm3.2 0c.4 0 .8-.4.8-.8s-.3-.8-.8-.8-.8.4-.8.8.3.8.8.8zm3.2 0c.4 0 .8-.4.8-.8s-.3-.8-.8-.8-.8.4-.8.8.4.8.8.8z"/><circle cx="18.8" cy="29.7" r=".8"/><circle cx="22.1" cy="29.7" r=".8"/><path d="m25.3 30.5c.4 0 .8-.4.8-.8s-.4-.8-.8-.8-.8.4-.8.8.4.8.8.8zm3.2 0c.4 0 .8-.4.8-.8s-.3-.8-.8-.8c-.4 0-.8.4-.8.8s.4.8.8.8zm3.3 0c.4 0 .8-.4.8-.8s-.3-.8-.8-.8c-.4 0-.8.4-.8.8s.3.8.8.8zm3.2 0c.4 0 .8-.4.8-.8s-.3-.8-.8-.8-.8.4-.8.8.3.8.8.8zm3.2 0c.4 0 .8-.4.8-.8s-.3-.8-.8-.8-.8.4-.8.8.4.8.8.8zm-6.4 209v-141.9h1.9c.9 0 1.7-.7 1.7-1.7v-28.9c0-.9-.8-1.7-1.7-1.7h-1.9v-13.2c6.5-.9 11.6-6.4 11.6-13.2v-22.6c-.1-7.3-6.1-13.3-13.4-13.3s-13.3 6-13.3 13.3v22.6c0 6.7 5 12.3 11.5 13.2v13.2h-2c-.9 0-1.7.8-1.7 1.7v28.9c0 .9.7 1.7 1.7 1.7h2v141.9c-15.7.2-28.2 2.2-28.2 4.7 0 2.6 13.4 4.6 30 4.6s30-2.1 30-4.6-12.5-4.6-28.2-4.7zm-13.9-223.2c0-.9.1-1.7.3-2.6.1.2.4.3.6.3.5 0 .8-.4.8-.8s-.4-.8-.8-.8c-.1 0-.1 0-.2.1.8-2.3 2.3-4.3 4.2-5.8v.2c0 .4.4.8.8.8.5 0 .8-.3.8-.8 0-.4-.3-.7-.7-.8.3-.2.7-.4 1.1-.6.1.2.4.3.6.3.4 0 .8-.3.8-.8 0 0 0 0 0-.1.6-.2 1.2-.4 1.9-.5-.1.2-.2.3-.2.6 0 .4.4.8.8.8s.8-.3.8-.8c0-.3-.2-.5-.4-.7.4 0 .7-.1 1.1-.1.5 0 .9 0 1.4.1-.5.2-.6.5-.6.7 0 .4.4.8.8.8s.8-.4.8-.8c0-.2-.1-.4-.2-.5.7.1 1.3.3 1.9.6 0 .4.4.7.8.7.2 0 .3-.1.5-.2.3.2.6.3.8.5-.4.1-.7.4-.7.8s.3.8.8.8.8-.3.8-.8c0-.1 0-.1 0-.2 1.9 1.5 3.4 3.5 4.2 5.8-.4 0-.7.4-.7.8s.3.8.8.8c.1 0 .2-.1.3-.1.1.8.2 1.6.2 2.4v.5c-.2-.2-.3-.3-.6-.3-.4 0-.8.3-.8.8s.3.8.8.8c.2 0 .4-.1.6-.3v3.1c-.2-.2-.4-.3-.6-.3-.4 0-.8.4-.8.8s.3.8.8.8c.2 0 .4-.1.6-.3v3.1c-.2-.2-.4-.3-.6-.3-.4 0-.8.4-.8.8s.3.8.8.8c.2 0 .4-.1.6-.3v3.1c-.2-.2-.4-.3-.6-.3-.4 0-.8.4-.8.8s.3.8.8.8c.2 0 .4-.1.6-.3v1.8h-1.8c.1-.1.2-.3.2-.5 0-.4-.4-.8-.8-.8-.5 0-.8.4-.8.8 0 .2.1.3.2.5h-2c.1-.1.2-.3.2-.5 0-.4-.4-.8-.8-.8s-.8.4-.8.8c0 .2.1.3.2.5h-2c.1-.1.2-.3.2-.5 0-.4-.4-.8-.8-.8s-.8.4-.8.8c0 .2.1.3.2.5h-2c.1-.1.2-.3.2-.5 0-.4-.4-.8-.8-.8s-.8.4-.8.8c0 .2.1.3.2.5h-2c.1-.1.1-.3.1-.5 0-.4-.4-.8-.8-.8s-.8.4-.8.9c0 .2.1.3.2.5h-2c.1-.1.2-.3.2-.5 0-.4-.3-.8-.8-.8s-.8.4-.8.8c0 .2.1.3.2.5h-2c.1-.1.2-.3.2-.5 0-.4-.4-.8-.8-.8s-.8.4-.8.8c0 .2.1.3.2.5h-1.8zm9.2 24.1c0-1.6 1.3-2.9 2.9-2.9s2.9 1.3 2.9 2.9-1.3 2.9-2.9 2.9c-1.6-.1-2.9-1.4-2.9-2.9z"/></g></svg>