<svg enable-background="new 0 0 60 60" height="60" viewBox="0 0 60 60" width="60" xmlns="http://www.w3.org/2000/svg"><path d="m9.5 60c1.7.2 3.5-.7 4.9-1.5 3.6-2.1 6.7-5.4 9.1-8.9 3.5.6 7.1.3 10.1-1.8 1.9-1.3 3.5-3.1 4.3-5.3 2.1.4 4.3.4 6.4.3 4.5-.2 10-1.4 11.9-6 1.8-4.3-1-8.1-4.5-10.4l-.7 1.2c2.3 1.5 4.4 3.5 4.4 6.4 0 2.7-1.8 4.8-4.1 6-3.8 1.9-8.8 2-13 1.3.4-2 .5-4.1 0-6-.3-1.7-1.3-3.3-3.1-3.2-1.9.1-4 2.2-4.8 3.8-1.5 3 1.9 4.9 4.3 5.8.6.2 1.2.4 1.9.5-.9 2.7-3.7 4.8-6.3 5.7-1.9.7-4 .7-6 .4 1.9-3.1 2.6-6.5.3-9.8-1.1-1.6-2.7-2.8-4.6-3-2.4-.2-4.1 1.6-5.3 3.4s-1.8 4-.7 5.9c1 1.8 3 2.7 4.8 3.4 1 .4 2.1.8 3.3 1.1-1.3 1.8-2.8 3.5-4.4 5-1.7 1.6-3.6 3.1-5.8 4-1.4.5-3.9.7-4.5-1l-1.3.4c.5 1.4 1.9 2.2 3.4 2.3zm23-24.7c.7-.8 1.8-1.9 2.9-1.9.9 0 1.3 1.1 1.5 1.8.5 1.8.4 3.8 0 5.7-2.8-.7-7.3-2.3-4.4-5.6zm-16.7 9.6c-2.1-2-.5-4.9 1.1-6.7 3.7-4.2 8.5 1.9 7.8 5.8-.2 1.4-1 2.7-1.8 3.9-.3-.1-.6-.2-1-.2-2.1-.5-4.5-1.3-6.1-2.8zm35.2-18.9c.2.1.5.2.7.4v-.1l-.1-1.1-4.5-2.9c-.1.2-.1.3-.2.5l-1 1.6s-.1.1-.1.1l4.2 3.4 1.1-.4c-.2-.1-.4-.3-.7-.4-.8-.4-.1-1.5.6-1.1zm-4.4-4 .5.3c.2-.4.2-.9.1-1.3-.1-.7-.5-1.2-1-1.6l-17.3-13.5c-.2.3-5.3 8.6-6 9.7l19.6 9.8c.5.3 1.2.4 1.8.2s1-.5 1.4-1l-.6-.5zm-29.3-7.4c0-.4.1-.6.4-1l7.1-11.1c.4-.5.9-1 1.5-.8-.2-.1-.4-.3-.6-.4-3.7-2.4-8.7-1.3-11 2.4s-1.2 8.6 2.6 10.9v.1c0-.1 0-.1 0-.1zm1-2.6c-.2.3-.6.4-.8.2-.3-.2-.4-.6-.2-.8.2-.3.6-.4.8-.2.3.1.4.5.2.8zm-1.1-1.4c-.2.3-.5.4-.8.2s-.4-.5-.2-.8.5-.4.8-.2c.4.2.4.6.2.8zm-1.4-1.3c-.3-.2-.4-.5-.2-.8s.6-.4.8-.2c.3.2.4.5.2.8-.1.3-.5.3-.8.2zm7.9-5.9c-.2.3-.5.4-.8.2s-.4-.6-.2-.8c.2-.3.5-.4.8-.2s.4.5.2.8zm-.1-2.6c.3.2.4.6.2.8-.2.3-.5.4-.8.2s-.4-.5-.2-.8.6-.4.8-.2zm-2.5 0c.2-.3.5-.4.8-.2s.4.5.2.8-.6.4-.8.2c-.3-.1-.4-.5-.2-.8zm-1.8.1c.2-.3.5-.4.8-.2s.4.6.2.8c-.2.3-.6.4-.8.2-.3-.1-.3-.5-.2-.8zm1.7 1.5c.2-.3.5-.4.8-.2.3.1.4.5.2.8s-.6.4-.8.2c-.3-.2-.4-.6-.2-.8zm-3.3-.8c.2-.3.5-.4.8-.2s.4.5.2.8-.5.4-.8.2-.3-.6-.2-.8zm1.6 1c.2-.3.6-.4.8-.2.3.2.4.6.2.8-.2.3-.5.4-.8.2s-.4-.5-.2-.8zm1.8 1.4c.2-.3.5-.4.8-.2s.4.5.2.8c-.2.4-.6.4-.9.3-.2-.2-.3-.6-.1-.9zm-4.8-1.5c.2-.3.5-.4.8-.2s.4.6.2.8c-.2.3-.6.3-.8.2-.3-.1-.4-.5-.2-.8zm1.5 1c.2-.3.5-.4.8-.2.4.2.4.6.3.9-.2.3-.6.4-.8.2s-.4-.6-.3-.9zm1.5 1c.2-.3.6-.4.8-.2.3.2.4.5.2.8s-.6.4-.8.2-.3-.5-.2-.8zm1.7 1.2c.2-.3.5-.4.8-.2s.4.6.2.8c-.2.3-.6.4-.8.2-.3-.2-.4-.5-.2-.8zm-6.1-1.9c.2-.3.6-.3.8-.2.3.2.4.5.2.8s-.6.4-.8.2c-.3-.2-.4-.5-.2-.8zm1.4.9c.2-.3.5-.4.8-.2s.4.6.2.8c-.2.3-.6.4-.8.2-.3-.2-.4-.5-.2-.8zm1.4.9c.2-.3.5-.4.8-.2s.4.5.2.8-.5.4-.8.2-.3-.6-.2-.8zm1.7 1c.2-.3.5-.4.8-.2s.4.6.2.8c-.2.3-.6.4-.8.2-.3-.1-.4-.5-.2-.8zm.7 1.6c.3.2.4.6.2.8-.2.3-.5.4-.8.2s-.4-.6-.2-.8c.2-.3.5-.3.8-.2zm-5.8-2.7c.2-.3.6-.4.8-.2.3.2.4.6.2.8-.2.3-.6.4-.8.2s-.3-.5-.2-.8zm1.6 1c.2-.3.5-.4.8-.2s.4.6.3.9c-.2.3-.6.3-.8.2-.3-.2-.4-.6-.3-.9zm1.5 1c.2-.3.6-.4.8-.2s.4.6.2.8c-.2.3-.6.4-.8.2-.3-.2-.4-.5-.2-.8zm1.2 1.6c.3.2.4.5.2.8s-.5.4-.8.2-.4-.5-.2-.8c.1-.3.5-.4.8-.2zm-4.5-1.7c.2-.3.5-.4.8-.2s.4.6.2.8-.6.4-.8.2c-.4-.1-.4-.5-.2-.8zm.2 1.6c.2-.3.6-.4.8-.2.3.2.4.6.2.8s-.6.4-.8.2c-.3-.2-.4-.5-.2-.8zm.6 1.8c.2-.3.5-.4.8-.2s.3.6.2.8c-.2.3-.6.4-.8.2-.4-.2-.4-.6-.2-.8zm.9 1.3c.2-.3.5-.4.8-.2s.4.5.2.8-.5.4-.8.2c-.2-.2-.3-.6-.2-.8zm10.5-10.4s.1.1.1.1c0-.1-.1-.1-.1-.1zm2.6 4.2c.3-.5-1.6-3.3-2.4-4-.1 0-.2 0-.3 0-.8.1-1.3.6-1.7 1.1l-6.2 9.8c-.3.6-.5 1.2-.3 1.9 0 .1.1.2.1.3-.3-.1-.5-.2-.8-.4.5.8 5.4 1.3 5.6 1 0 0 0-.1.1-.1l-.1-.1zm-22.8 51.4c-.1-.9 1.2-1.2 1.3-.3 0 .1.1.2.1.3l.3-.1-1.6-5.1-.5.2-1-3.1.1.4-1 .3.5 1.7.9-.3.1.4-.9.3.1.5-.5.2 1.6 5.1.3-.1c.2-.1.1-.3.2-.4zm-2.1-10c-.1 0-.1 0-.2 0l-.4.1c-.1 0-.1 0-.2.1v.2l.4 1.3-.1-.4.9-.3-.3-.8c0-.1 0-.2-.1-.2zm.7 1.9-.1-.4-1 .2.2.7-.1-.2zm-.1 2.9-.2-.5zm-.7-2.2-.1-.2zm.5-1.6.1.5z" fill="#ff5a00"/></svg>