<svg height="248.783" width="60" xmlns="http://www.w3.org/2000/svg"><circle cx="26.763" cy="6.881" r=".784"/><circle cx="29.995" cy="6.881" r=".784"/><path d="m33.23 7.67c.43 0 .78-.36.78-.8 0-.42-.33-.77-.76-.77s-.8.35-.8.78.36.8.8.8zm-12.93 4.1c.44 0 .8-.34.8-.8-.02-.4-.36-.76-.8-.76-.43 0-.78.37-.78.8 0 .44.35.8.78.8z"/><circle cx="23.532" cy="10.994" r=".784"/><circle cx="26.763" cy="10.994" r=".784"/><circle cx="29.995" cy="10.994" r=".784"/><circle cx="33.225" cy="10.994" r=".784"/><circle cx="36.457" cy="10.994" r=".784"/><path d="m39.7 11.78c.42 0 .77-.35.77-.8 0-.42-.35-.77-.78-.77-.46 0-.8.37-.8.8 0 .44.34.8.8.8z"/><circle cx="22.064" cy="9.133" r=".783"/><path d="m25.3 9.92c.43 0 .78-.35.78-.8 0-.42-.35-.77-.78-.77-.44 0-.8.35-.8.78 0 .44.36.8.8.8zm3.23 0c.43 0 .78-.35.78-.8 0-.42-.33-.77-.76-.77-.44 0-.8.35-.8.78 0 .44.36.8.8.8zm3.23 0c.43 0 .78-.35.78-.8 0-.42-.35-.77-.78-.77-.44 0-.8.35-.8.78 0 .44.36.8.8.8zm3.24 0c.42 0 .77-.35.77-.8 0-.42-.35-.77-.78-.77-.45 0-.8.35-.8.78 0 .44.35.8.8.8zm3.22 0c.43 0 .78-.35.78-.8 0-.42-.35-.77-.78-.77s-.78.35-.78.78c0 .44.34.8.78.8zm-17.92 5.98c.44 0 .8-.36.8-.8-.02-.43-.36-.78-.8-.78-.43 0-.78.35-.78.8 0 .42.35.77.78.77z"/><circle cx="23.532" cy="15.106" r=".783"/><circle cx="26.763" cy="15.106" r=".783"/><circle cx="29.995" cy="15.106" r=".783"/><circle cx="33.225" cy="15.106" r=".783"/><circle cx="36.457" cy="15.106" r=".783"/><path d="m39.7 14.32c-.45 0-.8.35-.8.8 0 .42.35.77.8.77.42 0 .77-.37.77-.8 0-.44-.35-.8-.78-.8z"/><circle cx="22.064" cy="13.245" r=".782"/><path d="m25.3 14.03c.43 0 .78-.35.78-.78 0-.44-.35-.8-.78-.8-.44 0-.8.36-.8.8 0 .43.36.78.8.78zm3.23 0c.43 0 .78-.35.78-.78 0-.44-.33-.8-.76-.8-.44 0-.8.36-.8.8 0 .43.36.78.8.78zm3.23 0c.43 0 .78-.35.78-.78 0-.44-.35-.8-.78-.8-.44 0-.8.36-.8.8 0 .43.36.78.8.78zm3.24 0c.42 0 .77-.35.77-.78 0-.44-.35-.8-.78-.8-.45 0-.8.36-.8.8 0 .43.35.78.8.78zm3.22 0c.43 0 .78-.35.78-.78 0-.44-.35-.8-.78-.8s-.78.36-.78.8c0 .43.34.78.78.78z"/><circle cx="20.303" cy="19.217" r=".783"/><circle cx="23.532" cy="19.217" r=".783"/><circle cx="26.763" cy="19.217" r=".783"/><circle cx="29.995" cy="19.217" r=".783"/><circle cx="33.225" cy="19.217" r=".783"/><circle cx="36.457" cy="19.217" r=".783"/><path d="m39.7 18.43c-.45 0-.8.36-.8.8 0 .42.35.77.8.77.42 0 .77-.35.77-.78s-.35-.8-.78-.8z"/><circle cx="18.833" cy="17.357" r=".783"/><circle cx="22.064" cy="17.357" r=".783"/><path d="m25.3 18.14c.43 0 .78-.35.78-.78s-.35-.8-.78-.8c-.44 0-.8.36-.8.8s.36.78.8.78zm3.23 0c.43 0 .78-.35.78-.78s-.33-.8-.76-.8c-.44 0-.8.36-.8.8s.36.78.8.78zm3.23 0c.43 0 .78-.35.78-.78s-.35-.8-.78-.8c-.44 0-.8.36-.8.8s.36.78.8.78zm3.24 0c.42 0 .77-.35.77-.78s-.35-.8-.78-.8c-.45 0-.8.36-.8.8s.35.78.8.78zm3.22 0c.43 0 .78-.35.78-.78s-.35-.8-.78-.8-.78.36-.78.8.34.78.78.78z"/><circle cx="20.303" cy="23.329" r=".782"/><circle cx="23.532" cy="23.329" r=".782"/><circle cx="26.763" cy="23.329" r=".782"/><circle cx="29.995" cy="23.329" r=".782"/><path d="m33.23 22.55c-.44 0-.8.35-.8.78s.37.78.8.78.78-.33.78-.76-.33-.78-.76-.78z"/><circle cx="36.457" cy="23.329" r=".782"/><path d="m39.7 22.55c-.45 0-.8.35-.8.78s.35.78.8.78c.42 0 .77-.33.77-.76s-.35-.78-.78-.78z"/><circle cx="18.833" cy="21.469" r=".782"/><circle cx="22.064" cy="21.469" r=".782"/><path d="m25.3 22.25c.43 0 .78-.35.78-.78s-.35-.78-.78-.78c-.44 0-.8.33-.8.76s.36.78.8.78zm3.23 0c.43 0 .78-.35.78-.78s-.33-.78-.76-.78c-.44 0-.8.33-.8.76s.36.78.8.78zm3.23 0c.43 0 .78-.35.78-.78s-.35-.78-.78-.78c-.44 0-.8.33-.8.76s.36.78.8.78zm3.24 0c.42 0 .77-.35.77-.78s-.35-.78-.78-.78c-.45 0-.8.33-.8.76s.35.78.8.78zm3.22 0c.43 0 .78-.35.78-.78s-.35-.78-.78-.78-.78.33-.78.76.34.78.78.78z"/><circle cx="20.303" cy="27.441" r=".783"/><circle cx="23.532" cy="27.441" r=".783"/><circle cx="26.763" cy="27.441" r=".783"/><circle cx="29.995" cy="27.441" r=".783"/><circle cx="33.225" cy="27.441" r=".783"/><circle cx="36.457" cy="27.441" r=".783"/><path d="m39.7 26.66c-.45 0-.8.35-.8.78s.35.78.8.78c.42 0 .77-.35.77-.78s-.35-.78-.78-.78z"/><circle cx="18.833" cy="25.582" r=".783"/><circle cx="22.064" cy="25.582" r=".783"/><path d="m25.3 26.36c.43 0 .78-.35.78-.78s-.35-.78-.78-.78c-.44 0-.8.35-.8.78s.36.8.8.8zm3.23 0c.43 0 .78-.35.78-.78s-.33-.78-.76-.78c-.44 0-.8.35-.8.78s.36.8.8.8zm3.23 0c.43 0 .78-.35.78-.78s-.35-.78-.78-.78c-.44 0-.8.35-.8.78s.36.8.8.8zm3.24 0c.42 0 .77-.35.77-.78s-.35-.78-.78-.78c-.45 0-.8.35-.8.78s.35.8.8.8zm3.22 0c.43 0 .78-.35.78-.78s-.35-.78-.78-.78-.78.35-.78.78.34.8.78.8z"/><circle cx="18.833" cy="29.693" r=".784"/><circle cx="22.064" cy="29.693" r=".784"/><path d="m25.3 30.48c.43 0 .78-.35.78-.8s-.35-.77-.78-.77c-.44 0-.8.37-.8.8s.36.8.8.8zm3.23 0c.43 0 .78-.35.78-.8s-.33-.77-.76-.77c-.44 0-.8.37-.8.8s.36.8.8.8zm3.23 0c.43 0 .78-.35.78-.8s-.35-.77-.78-.77c-.44 0-.8.37-.8.8s.36.8.8.8zm3.24 0c.42 0 .77-.35.77-.8s-.35-.77-.78-.77c-.45 0-.8.37-.8.8s.35.8.8.8zm3.22 0c.43 0 .78-.35.78-.8s-.35-.77-.78-.77-.78.37-.78.8.34.8.78.8zm-6.42 209.02v-141.9h1.86c.93 0 1.68-.74 1.68-1.67v-28.93c0-.93-.75-1.7-1.68-1.7h-1.9v-13.2c6.52-.87 11.55-6.44 11.55-13.18v-22.6c.02-7.34-5.96-13.32-13.31-13.32s-13.32 5.98-13.32 13.32v22.6c0 6.73 5.03 12.3 11.54 13.18v13.2h-1.95c-.92 0-1.68.77-1.68 1.7v28.93c0 .93.74 1.68 1.66 1.68h1.95v141.9c-15.73.16-28.2 2.18-28.2 4.65 0 2.56 13.43 4.64 30 4.64s30-2.08 30-4.65c0-2.47-12.48-4.5-28.2-4.63zm-13.86-223.17c0-.88.1-1.74.28-2.56.14.16.35.27.58.27.45 0 .8-.35.8-.8 0-.42-.35-.77-.8-.77-.07 0-.15.03-.22.05.78-2.32 2.26-4.33 4.18-5.78 0 .05-.03.1-.03.16 0 .43.35.78.78.78.45 0 .8-.35.8-.78 0-.4-.3-.7-.67-.76.34-.2.7-.4 1.06-.6.14.18.35.28.6.28.42 0 .77-.35.77-.78 0-.02 0-.04-.02-.06.62-.2 1.25-.37 1.9-.5-.13.16-.22.35-.22.56 0 .43.35.78.8.78.42 0 .77-.35.77-.78 0-.3-.16-.54-.4-.67.36-.04.73-.06 1.1-.06.45 0 .9.03 1.35.08-.23.14-.38.37-.38.65 0 .43.36.8.8.8.42 0 .77-.37.77-.8 0-.2-.08-.36-.2-.5.65.13 1.27.32 1.87.55.05.4.38.73.8.73.2 0 .35-.06.5-.17.3.15.57.32.85.5-.38.05-.67.37-.67.76 0 .42.35.77.78.77s.78-.35.78-.78c0-.07-.02-.13-.03-.18 1.93 1.45 3.4 3.45 4.2 5.77-.4.03-.73.35-.73.76 0 .44.35.8.78.8.13 0 .24-.05.35-.1.14.77.23 1.56.23 2.38v.52c-.15-.16-.35-.27-.6-.27-.42 0-.77.34-.77.8s.35.76.78.76c.24 0 .44-.1.6-.27v3.13c-.16-.2-.36-.3-.6-.3-.43 0-.78.35-.78.78s.35.78.78.78c.24 0 .44-.1.6-.27v3.1c-.16-.2-.36-.3-.6-.3-.43 0-.78.36-.78.8 0 .42.35.77.78.77.24 0 .44-.1.6-.27v3.08c-.16-.16-.36-.27-.6-.27-.43 0-.78.37-.78.8 0 .44.35.8.78.8.24 0 .44-.1.6-.3v1.83h-1.76c.1-.13.16-.3.16-.47 0-.43-.36-.78-.78-.78-.45 0-.8.35-.8.78 0 .18.07.34.17.47h-2c.1-.13.17-.3.17-.47 0-.43-.36-.78-.8-.78-.42 0-.77.35-.77.78 0 .18.07.34.17.47h-2c.1-.13.17-.3.17-.47 0-.43-.36-.78-.8-.78-.42 0-.77.35-.77.78 0 .18.07.34.17.47h-2c.1-.13.18-.3.18-.47 0-.43-.36-.78-.8-.78-.42 0-.77.35-.77.78 0 .18.1.34.2.47h-2c.1-.13.15-.3.15-.47 0-.43-.35-.78-.78-.78s-.78.35-.78.78c0 .18.06.34.16.47h-2c.1-.13.16-.3.16-.47 0-.43-.34-.78-.77-.78s-.78.35-.78.78c0 .18.07.34.17.47h-2c.1-.13.16-.3.16-.47 0-.43-.35-.78-.78-.78-.44 0-.8.35-.8.78 0 .18.1.34.2.47h-1.71v-15.7zm9.15 24.05c0-1.6 1.3-2.88 2.88-2.88 1.6 0 2.88 1.28 2.88 2.86 0 1.6-1.3 2.88-2.88 2.88-1.6 0-2.88-1.3-2.88-2.88z"/></svg>