<svg enable-background="new 0 0 60 60" height="60" viewBox="0 0 60 60" width="60" xmlns="http://www.w3.org/2000/svg"><path d="m37.781 31.46-.047.062c-1.496-1.15-2.998-2.485-4.596-4.082-1.932-1.933-3.394-3.611-4.602-5.284l.011-.335c3.232-3.958 4.828-7.448 4.845-7.483l.092-.021c-.26-3.798 1.121-7.5 3.816-10.194 2.48-2.481 5.781-3.848 9.291-3.848s6.809 1.366 9.291 3.849c5.123 5.123 5.123 13.459 0 18.582-2.48 2.48-5.779 3.847-9.289 3.847-.303 0-.609-.01-.912-.031l-.025.099c-.037.014-3.705 1.481-7.572 4.891l-.182.068z" fill="#c12127"/><path d="m46.592.55c3.293 0 6.584 1.256 9.098 3.769 5.023 5.024 5.023 13.17 0 18.193-2.512 2.512-5.805 3.767-9.096 3.767-.385 0-.77-.017-1.152-.052l.113.138s-3.699 1.455-7.652 4.94c-.002 0-.002-.001-.002-.001-1.398-1.077-2.906-2.396-4.566-4.058-2.002-2.001-3.418-3.65-4.574-5.251v-.001c3.294-4.035 4.882-7.542 4.882-7.542l.137.113c-.326-3.664.91-7.442 3.715-10.247 2.511-2.512 5.804-3.768 9.097-3.768m0-.55c-3.584 0-6.953 1.396-9.486 3.929-2.721 2.722-4.131 6.449-3.904 10.282l-.061.014c-.016.035-1.602 3.496-4.806 7.422l-.124.348.104.323c1.217 1.685 2.688 3.375 4.631 5.317 1.605 1.604 3.115 2.947 4.621 4.105l.096-.125.24.239.363-.138c3.836-3.382 7.455-4.827 7.49-4.841l.02-.072c.271.016.547.024.818.024 3.582 0 6.951-1.395 9.484-3.927 5.229-5.23 5.229-13.741 0-18.972-2.535-2.532-5.904-3.928-9.486-3.928z" fill="#fff"/><path d="m8.125 59.725c-.423 0-.782-.136-1.04-.394-.003 0-2.341-1.856-3.757-3.196-1.364-1.291-2.531-3.017-2.682-3.243-.353-.368-.461-.923-.304-1.564.147-.605.518-1.228 1.043-1.753l22.506-22.506c1.64-1.783 2.975-3.256 4.154-4.646l.033-.039.427.022c1.213 1.67 2.603 3.263 4.503 5.163 1.551 1.551 3.025 2.861 4.514 4.01l.018.42c-2.689 2.479-5.064 4.69-7.031 6.528l-20.085 20.086c-.696.697-1.555 1.112-2.299 1.112z" fill="#c12127"/><path d="m28.284 22.568c1.307 1.798 2.767 3.431 4.531 5.195 1.496 1.495 2.99 2.835 4.541 4.032-2.658 2.449-4.986 4.618-7.033 6.53l-20.093 20.094c-.664.664-1.461 1.031-2.104 1.031-.338 0-.634-.102-.846-.313 0 0-2.337-1.854-3.762-3.202s-2.656-3.217-2.656-3.217c-.616-.615-.295-1.937.719-2.949l22.505-22.505c.001-.001.002-.002.003-.003 1.489-1.619 2.918-3.188 4.167-4.659.009-.012.018-.023.028-.034m-.409-.368c-.015.017-.029.034-.044.052-1.169 1.377-2.5 2.846-4.135 4.623l-22.504 22.505c-.561.56-.957 1.229-1.116 1.882-.174.716-.045 1.368.354 1.802.199.296 1.358 1.992 2.71 3.271 1.368 1.294 3.52 3.012 3.776 3.215.308.295.725.45 1.209.45.814 0 1.747-.446 2.493-1.192l20.086-20.086c1.965-1.836 4.336-4.046 7.023-6.521l-.037-.84c-1.479-1.141-2.945-2.444-4.488-3.986-1.889-1.891-3.27-3.473-4.474-5.13z" fill="#fff"/></svg>