<svg xmlns="http://www.w3.org/2000/svg" width="60" height="60"><path fill="#fff" stroke="#000" d="M21.96 44.15h16.08v4.5H21.96zm1.58-3.48v9.45h1.95v-7.56h9v7.56h1.95v-9.45zm2.93 2.63h7.06V60h-7.06z"/><circle cx="30" cy="45.38" r="1.098" fill="#1D1D1B" stroke="#000"/><circle cx="30" cy="57.93" r="1.098" fill="#1D1D1B" stroke="#000"/><path fill="#fff" stroke="#000" d="M28.9 48.2h2.2v6.9h-2.2z"/><path stroke="#000" d="M42.3 33.56c0 3.93-3.18 7.1-7.1 7.1H24.8c-3.92 0-7.1-3.17-7.1-7.1V7.46c0-3.94 3.18-7.12 7.1-7.12h10.4c3.92 0 7.1 3.18 7.1 7.12v26.1z"/><path fill="#fff" stroke="#1D1D1B" d="M31.46 35.48c-.53 0-.96-.43-.96-.95 0-.53.43-.96.96-.96H42.5v-1.2H31.48c-.53 0-.96-.43-.96-.96s.43-.93.96-.93H42.5v-1.2H31.48c-.53 0-.96-.44-.96-.96s.43-.95.96-.95H42.5v-1.2H31.48c-.53 0-.96-.43-.96-.96s.43-.96.96-.96H42.5v-1.2H31.48c-.53 0-.96-.44-.96-.97 0-.52.43-.95.96-.95H42.5v-1.2H31.48c-.53 0-.96-.42-.96-.95s.43-.96.96-.96H42.5v-1.2H31.48c-.53 0-.96-.43-.96-.96 0-.52.43-.95.96-.95H42.5v-1.2H31.48c-.53 0-.96-.44-.96-.97s.43-.96.96-.96H42.5v-1.2H31.48c-.53 0-.96-.43-.96-.96 0-.5.43-.94.96-.94H42.5v-1.2H31.48c-.53 0-.96-.44-.96-.97s.43-.96.96-.96H42.3c-.35-1.47-1.15-2.76-2.25-3.73V3.4c0 .55-.45 1-1 1-.56 0-1-.45-1-1V.55C37.53.35 37 .18 36.43.1v3.26c0 .55-.45 1-1 1s-1-.45-1-1V0H32.8v3.37c.02.55-.43 1-1 1-.55 0-1-.45-1-1V0h-1.6v3.37c0 .55-.45 1-1 1s-1-.45-1-1V0h-1.62v3.37c0 .55-.45 1-1 1-.56 0-1-.45-1-1V.1c-.57.08-1.1.24-1.62.45v2.82c0 .55-.45 1-1 1s-1-.45-1-1V1.8c-1.1.97-1.9 2.26-2.27 3.73h10.53c.53 0 .96.43.96.95 0 .53-.44.96-.97.96H17.5v1.2h10.74c.53 0 .96.43.96.96s-.43.96-.96.96H17.5v1.2h10.74c.53 0 .96.43.96.96s-.43.95-.96.95H17.5v1.2h10.74c.53 0 .96.44.96.96 0 .53-.43.96-.96.96H17.5V18h10.74c.53 0 .96.42.96.95 0 .52-.43.95-.96.95H17.5v1.2h10.74c.53 0 .96.44.96.96 0 .53-.43.96-.96.96H17.5v1.2h10.74c.53 0 .96.43.96.96s-.43.95-.96.95H17.5v1.2h10.74c.53 0 .96.44.96.96s-.43.94-.96.94H17.5v1.2h10.74c.53 0 .96.43.96.96s-.43.97-.96.97H17.5v1.2h10.74c.53 0 .96.43.96.96 0 .52-.43.95-.96.95H17.7c.75 3.17 3.6 5.52 7 5.52h10.56c3.4 0 6.26-2.35 7.03-5.52H31.46z"/><circle cx="24.772" cy="38.146" r="1.608" fill="#1D1D1B" stroke="#1D1D1B"/></svg>