<svg enable-background="new 0 0 60 60" height="60" viewBox="0 0 60 60" width="60" xmlns="http://www.w3.org/2000/svg"><g fill="#249ac1"><path d="m27.5 57.3c-.1 0-.2 0-.3 0s-.2 0-.3 0c-.2 0-.4-.1-.4-.3v-1.3c-3.3 0-6.2.2-8.4.6-2.3.3-3.8.8-3.8 1.3s1.4.9 3.8 1.3c2.3.3 5.6.6 9.2.6s6.8-.2 9.2-.6c2.3-.3 3.8-.8 3.8-1.3s-1.4-.9-3.8-1.3c-2.2-.3-5.1-.5-8.4-.6v1.3c-.1.2-.3.2-.6.3z"/><path d="m40.2 57.7c-.3.5-1.7.9-3.8 1.2-2.4.3-5.6.6-9.2.6s-6.8-.2-9.2-.6c-2.1-.3-3.5-.7-3.8-1.2v.4c0 1.1 5.8 1.9 13 1.9s13-.9 13-1.9z"/><path d="m46.9 16.5-.1.1s0-.1.1-.1z"/><path d="m49.5 17.5c-.1-.2-.3-.4-.6-.6-.3-.2-.5-.3-.7-.3s-.4 0-.5.1c-.1.1 0 .3.1.5s.3.4.6.6c.3.2.5.3.7.3s.4 0 .5-.1c.1-.1.1-.2-.1-.5z"/><path d="m26.3 57.8s.2.1.5.1h.4s.3 0 .4 0c.3 0 .5 0 .5-.1v-23h-1.8z"/><path d="m26.3 55.6v2c0 .1.2.2.5.2h.4s.3 0 .4 0c.3 0 .5-.1.5-.2v-2c-.3 0-.6 0-.9 0s-.6 0-.9 0z"/><path d="m50.1 18.2c0-.2 0-.4-.2-.7-.2-.4-.6-.7-1-1s-.8-.4-1.2-.4c-.3 0-.5.1-.6.2s-.1.1-.2.2l-.1.1c0 .1-.1.2-.1.3v.1c0 .1-.1.2-.1.4l.3.1c.2.1.3.3.4.4.1.2.1.4 0 .5v.1c.1 0 .3-.1.4-.1.4 0 .8 0 1.2.2.1 0 .1 0 .2.1h.2c.3 0 .6 0 .8-.1.1 0 .1-.1.2-.2-.2-.1-.2-.2-.2-.2zm-.9.1c-.3 0-.6-.2-.9-.4-.3-.2-.6-.4-.7-.7-.2-.2-.2-.5-.1-.6.1-.2.3-.2.6-.2s.6.2.9.4c.3.2.6.4.7.7.2.2.2.5.1.6-.1.2-.3.3-.6.2z"/><path d="m16.7 5.6c.1.1.3.1.4 0 .1 0 .3-.2.3-.3.2-.4.4-.8.6-1.2.1-.1.1-.3 0-.4 0-.1-.2-.3-.3-.3-2.2-1.1-4.5-2.2-6.7-3.3 0-.1 0-.1-.1-.1s-.1.1-.1.1l-.9 1.9v.2c0 .1.1.1.1.1z"/><path d="m32.8 11.2c0 .1 0 .2-.1.3-.1.2-.2.5-.3.7 0 .1-.1.2-.2.3l10.1 4.7c.2-.4.4-.9.6-1.3z"/><path d="m42.7 17.8 1-2c0-.1 0-.1 0-.2s-.1-.1-.1-.2c-.1 0-.1 0-.2 0s-.1.1-.2.1l-1 2v.2s.1.1.1.2h.2c.1 0 .2 0 .2-.1z"/><path d="m46.4 17.9c-.1-.1-.3-.1-.4 0s-.1.3 0 .4.3.1.4 0c.2-.1.1-.3 0-.4z"/><path d="m46.7 18.8.2-.5c.1-.1.1-.3 0-.4 0-.1-.1-.3-.3-.3l-2.8-1.6-.9 1.9 3.1 1.2c.1.1.3.1.4 0 .2 0 .3-.1.3-.3zm-.7-.4c-.2-.1-.2-.3 0-.5.1-.2.3-.2.5 0 .2.1.2.3 0 .5-.1.1-.3.1-.5 0z"/><path d="m24.3 7.4c.1-.1.1-.2.2-.3l-6.3-3-.6 1.2 6.3 3c0-.1 0-.2.1-.3z"/><path d="m32.2 12.1c.1-.2.2-.5.3-.7.1-.1.1-.2.1-.3l-8-3.9c-.1.1-.2.2-.2.3l-.3.7c-.1.1-.1.2-.1.3l8 3.9c.1-.1.2-.2.2-.3z"/><path d="m18.1 4.1-5-2.5-.6 1.3 5 2.4c.2-.4.4-.8.6-1.2z"/><path d="m27.3 11.9c-.4-.2-.8 0-1 .4s0 .8.4 1 .8 0 1-.4c.1-.3 0-.8-.4-1z"/><path d="m32.2 12.1c.1-.2.2-.5.3-.7s.1-.5 0-.7-.2-.4-.4-.5l-6.6-3.2c-.1 0-.3 0-.5 0-.2.1-.4.2-.5.4l-.3.7c-.1.2-.1.5 0 .7s.2.4.4.5c.3.1.5.2.6.3.5.2.7.3.8.5s-.1.4-.3.9c-.1.2-.2.4-.3.6-.2.5-.2 1-.1 1.4.2.5.5.9 1 1.1s1 .2 1.4.1c.5-.2.9-.5 1.1-1 .1-.3.2-.5.3-.6.2-.5.3-.7.5-.8s.4.1.9.3l.6.3c.2.1.4.1.7 0 .2.1.3-.1.4-.3zm-5.6 1.3c-.4-.2-.6-.7-.4-1.2.2-.4.7-.6 1.2-.4s.6.7.4 1.2c-.3.4-.8.6-1.2.4z"/><path d="m27.9 27.7h-1.4c-.2 0-.3.1-.4.2s-.1.2-.1.4v7.5c0 .1 0 .1.1.2 0 0 .1.1.2.1h2c.1 0 .1 0 .2-.1 0 0 .1-.1.1-.2v-7.5c0-.2-.1-.3-.2-.4-.2-.1-.3-.2-.5-.2z"/><path d="m27.9 29.3v-1.5h-1.4v1.5z"/><path d="m27.9 27.6v-15.7c-.1 0-.1 0-.2 0-.4.1-.9 0-1.3 0v15.7z"/><path d="m29.1 28.1c-.2 0-.4.2-.4.4v2.1c0 .2.2.4.4.4.2 0 .4-.2.4-.4v-2.1c0-.2-.2-.4-.4-.4z"/><path d="m27.1 29.5c0 .2.2.4.4.4h2.1c.2 0 .4-.2.4-.4 0-.2-.2-.4-.4-.4h-2.1c-.2.1-.4.2-.4.4z"/></g></svg>