<svg enable-background="new 0 0 60 60" height="60" viewBox="0 0 60 60" width="60" xmlns="http://www.w3.org/2000/svg"><path d="m50.46 26.69c-4.94 4.94-12.78 5.1-17.52.36-4.74-4.74-4.58-12.58.36-17.52l5.73-5.73c4.94-4.94 12.78-5.1 17.52-.36 4.74 4.74 4.58 12.58-.36 17.52z" fill="#4b4d4d"/><path d="m33.58 36.73-1.85 1.66-22.27 19.99-1.25 1.12c-.77.69-1.98.65-2.71-.07l-4.93-4.93c-.73-.73-.76-1.94-.08-2.71l1.12-1.25 21.65-24.12z" fill="#696b6b"/><g fill="#c3c3c3"><path d="m9.46 58.38-1.25 1.12c-.77.69-1.98.65-2.71-.07l-4.93-4.93c-.73-.73-.76-1.94-.08-2.71l1.12-1.25z"/><path d="m34.96 38.11-13.07-13.07c-.49-.49-.49-1.27 0-1.76l5.91-5.91c.49-.49 1.27-.49 1.76 0l13.07 13.07c.49.49.49 1.27 0 1.76l-5.91 5.91c-.49.49-1.28.49-1.76 0z"/></g></svg>