<svg enable-background="new 0 0 60 100" height="100" viewBox="0 0 60 100" width="60" xmlns="http://www.w3.org/2000/svg"><g fill="#ff5a00"><path d="m30.4 41.2h-1c-.1 0-.2 0-.3.1s-.1.2-.1.3v5.2s0 .1.1.1l.1.1h1.4s.1 0 .1-.1l.1-.1v-5.2c0-.1 0-.2-.1-.3s-.2-.1-.3-.1z"/><path d="m30.4 41.1v-27h-1v27z"/><path d="m30.4 42.3v-1.1h-1v1.1z"/><path d="m29.2 41.3h1.4v5.7h-1.4z"/><path d="m29.2 47.1h1.4v41.9h-1.4z"/><path d="m30.6 92.4v-3.3h-1.4l.8 1.5z"/><path d="m32 92.7s.1 0 0 0c.2-.2.2-.3.2-.3v-.7l-1.8-.6-.1-.3v.8l-.2 1.2h1l-.1-.4z"/><path d="m28.6 41.4c.1 0 .3.1.3.3v1.5c0 .1-.1.3-.3.3-.1 0-.3-.1-.3-.3v-1.5c0-.1.1-.3.3-.3z"/><path d="m30 42.5c0 .1-.1.3-.3.3h-1.5c-.1 0-.3-.1-.3-.3 0-.1.1-.3.3-.3h1.5c.1 0 .3.1.3.3z"/><path d="m27.6 0h3c.6 0 1 .4 1.1 1h-5.3c.1-.6.6-1 1.2-1zm4.1 1.2v.5h-1.5c-.1 0-.2.1-.2.2 0 .1.1.2.2.2h1.5v.2h-1.5c-.1 0-.2.1-.2.2 0 .1.1.2.2.2h1.5v.2h-1.5c-.1 0-.2.1-.2.2 0 .1.1.2.2.2h1.5v.2h-1.5c-.1 0-.2.1-.2.2 0 .1.1.2.2.2h1.5v.2h-1.5c-.1 0-.2.1-.2.2 0 .1.1.2.2.2h1.5v.2h-1.5c-.1 0-.2.1-.2.2 0 .1.1.2.2.2h1.5v.2h-1.5c-.1 0-.2.1-.2.2 0 .1.1.2.2.2h1.5v.3h-1.5c-.1 0-.2.1-.2.2 0 .1.1.2.2.2h1.5v.2h-1.4c-.1 0-.2.1-.2.2-.1.1 0 .2.1.2h1.3c-.3.6-1 1.1-1.7 1.1h-1.4c-.8 0-1.4-.4-1.7-1.1h1.2s.1-.1.1-.2c0-.1-.1-.2-.2-.2h-1.3c0-.1 0-.1 0-.2h1.4c.1 0 .2-.1.2-.2-.1-.1-.2-.2-.3-.2h-1.4v-.2h1.4c.1 0 .2-.1.2-.2 0-.1-.1-.2-.2-.2h-1.4v-.3h1.4c.1 0 .2-.1.2-.2 0-.1-.1-.2-.2-.2h-1.4v-.2h1.4c.1 0 .2-.1.2-.2 0-.1-.1-.2-.2-.2h-1.4v-.2h1.4c.1 0 .2-.1.2-.2 0-.1-.1-.2-.2-.2h-1.4v-.2h1.4c.1 0 .2-.1.2-.2 0-.1-.1-.2-.2-.2h-1.4v-.2h1.4c.1 0 .2-.1.2-.2 0-.1-.1-.2-.2-.2h-1.4v-.2h1.4c.1 0 .2-.1.2-.2 0-.1-.1-.2-.2-.2h-1.4v-.5z"/><path d="m29.4 9.6c-.8-.8-1.5.4-1.5.4-.3.6 0 .9.5 1.3.9.8.6 1.1.6 2.4 0 .1.1.2.2.2h1.4c.1 0 .2-.1.2-.2 0-3 .4-2.1-1.4-4.1zm-.7 1.1c-.2 0-.4-.2-.4-.4s.2-.4.4-.4.4.2.4.4c0 .3-.1.4-.4.4z"/><path d="m28.7 10c-.2 0-.3.1-.3.3s.1.3.3.3.3-.1.3-.3c.1-.1-.1-.3-.3-.3z"/><path d="m29.9 91.7c0-.1 0-.1 0-.2s-.1-.1-.1-.2c-.1-.1-.3-.2-.5-.1l-1.8.6v.6c0 .1.1.2.1.2l.1.1 1.7-.6c.3 0 .5-.2.5-.4z"/><path d="m31.9 89.5c-.2-.2-.4-.4-.6-.4h-.7-1.4-.7c-.2 0-.4.2-.6.4-.2.3-.4.6-.4.7v1.4l1.7-.6c.2-.1.5 0 .6.2.1.1.1.1.1.2s0 .2 0 .2c0 .2-.2.4-.5.5l-1.4.7h2.1 1 .7.2s.1 0 .1-.1c.1-.1.1-.2.1-.2v-.7-1.4c.1-.2-.1-.6-.3-.9z"/><path d="m34.1 99.5c0-.1 0-.1 0-.2-.3-.6-.6-1.3-.8-1.9 0-.1-.1-.1-.2-.2-.1 0-.1 0-.2 0s-.2.1-.3.1l-.1.1c-.1 0-.1.1-.2.1s-.1.1-.2.1-.1.1-.1.1v.2c.2.6.6 1.4.8 2 0 .1.1.1.1.1h.2c.1 0 .1-.1.2-.1s.1-.1.2-.1l.4-.2c.1 0 .2 0 .2-.1z"/><path d="m32.5 97.4c-.1 0-.1.1-.2.1s-.1 0-.1.1l.8 1.9c.1 0 .2-.1.3-.1s.2-.1.3-.1l-.8-1.9c-.1 0-.1.1-.3 0z"/><path d="m32.3 97.3c.1 0 .1-.1.2-.1l.1-.1c.1 0 .1-.1.2-.1l-1.7-4.3h-1l1.9 4.5c.2.2.2.2.3.1z"/><path d="m11.2 98.8c.1 0 .1-.1.2-.2 0-.1 0-.2 0-.2l-.3-1c0-.1-.1-.1-.2-.2-.1 0-.2 0-.2 0l-2.4.8c-.1 0-.1.1-.2.2v.2l.4 1.2c0 .1.1.1.2.2h.2z"/><path d="m9.2 97.8h2.1v.9h-2.1z" transform="matrix(.9453 -.3262 .3262 .9453 -31.4895 8.7143)"/><path d="m29.9 91.5c0-.1-.1-.1-.1-.2-.1-.1-.3-.2-.5-.1l-18.1 6.2.3.9 18-6.2c.3-.1.4-.3.4-.4s0-.1 0-.2z"/><path d="m51.7 98-2.4-.7c-.1 0-.2 0-.2 0-.1 0-.1.1-.2.2l-.3 1v.2c0 .1.1.1.2.2l2.3.9h.2c.1 0 .1-.1.2-.2l.4-1.2c0-.1 0-.2 0-.2-.1-.1-.1-.2-.2-.2z"/><path d="m48.6 98.4 2 .7.3-1-2-.7z"/><path d="m48.5 98.4.3-1-16.4-5.7v.7c0 .1-.1.3-.2.3z"/><path d="m28.2 9.5c.1-.1.3-.2.5-.3.2 0 .4 0 .6.2 0 0 0 0 .1.1v-.8c0-.4.1-.6.3-.6l-.3-.4-2.5-.3.9 2.5c.1-.1.1-.2.2-.3.1 0 .2 0 .2-.1z"/></g></svg>