<svg enable-background="new 0 0 60 60" height="60" viewBox="0 0 60 60" width="60" xmlns="http://www.w3.org/2000/svg"><path d="m6.3 57.6-1.6 1.1-1.6 1.1c-.3.2-.6.2-.8-.1l-2.2-2.2c-.2-.2-.2-.6-.1-.8l2.2-3.1z" fill="#c3c3c3"/><path d="m52.8 21-1.3.9-1.6 1-8.7 5.7-9.8-9.8 6.8-10.3.8-1.3 1.3-.9 9.3-6.1c.6-.4 1.5-.3 2 .2l8 8c.5.5.6 1.4.2 2l-6.1 9.3z" fill="#4b4d4d"/><path d="m54 20.8-1.4 1.4c-.2.2-.6.2-.8 0l-14-14c-.2-.2-.2-.6 0-.8l1.4-1.4c.2-.2.6-.2.8 0l14 14c.2.2.2.6 0 .8z" fill="#c3c3c3"/><path d="m36.7 32.5-1.5 1.3-26.1 23.9c-.8.7-2 .7-2.7 0l-4.1-4.1c-.7-.7-.7-1.9 0-2.7l25.2-27.6.1-.1z" fill="#c12127"/><path d="m41.5 30.3-2.9 2.9c-.4.4-1 .4-1.3 0l-10.5-10.5c-.4-.4-.3-1 0-1.3l2.9-2.9c.4-.4 1-.4 1.3 0l10.5 10.5c.4.3.3.9 0 1.3z" fill="#c3c3c3"/><path d="m22.2 39.2-1.4-1.4c-.7-.7-.7-1.9 0-2.6l5.5-5.5c.7-.7 1.9-.8 2.6 0l1.4 1.4c.7.7.7 1.9 0 2.6l-5.5 5.5c-.7.6-1.8.7-2.6 0z" fill="#c3c3c3"/><g fill="#4b4d4d"><path d="m28.6 33.8c-.7.7-1.8.7-2.4 0s-.6-1.7 0-2.4c.7-.7 1.8-.7 2.4 0 .7.6.7 1.7 0 2.4z"/><path d="m25.1 37.3c-.7.7-1.8.7-2.4 0s-.6-1.7 0-2.4c.7-.7 1.8-.7 2.4 0 .7.6.7 1.7 0 2.4z"/></g></svg>