<svg enable-background="new 0 0 60 60" height="60" viewBox="0 0 60 60" width="60" xmlns="http://www.w3.org/2000/svg"><path d="m55.8 24.4c-.6.6-1.2 1.1-1.8 1.6-.1.1-.2.1-.2.2-.6.4-1.2.8-1.9 1.1-.2.1-.3.1-.5.2-5.2 2.3-11.6 1.3-15.8-3-5-5-5.5-12.6-1.7-18.2.5-.7 1.1-1.4 1.7-2.1s1.3-1.2 2-1.7c5.6-3.8 13.2-3.2 18.2 1.7s5.5 12.6 1.7 18.2c-.5.7-1 1.4-1.7 2z" fill="#4b4d4d"/><path d="m57.3 22.6-19.8-19.8c-.6-.5-1.5-.6-2-.1l-1.5 1.4c-.5.5-.5 1.4.1 2 0 0 19.8 19.8 19.8 19.8.6.5 1.5.6 2 .1l1.4-1.4c.5-.6.5-1.4 0-2z" fill="#c3c3c3"/><path d="m39.1 32.5-.3.3-1.6 1.5h-.2l-.2.1-22.1 20-2 1.8-3.2 2.9c-1.2 1.1-3.1 1-4.2-.1l-4.4-4.4c-1.1-1.1-1.2-3-.1-4.2l2.9-3.2 1.8-2 22-24.3z" fill="#063e89"/><path d="m14.8 54.5-2 1.8-9.1-9.1 1.8-2z" fill="#c3c3c3"/><path d="m39.8 33.8-13.6-13.6c-.5-.5-.5-1.4 0-1.9l3.4-3.4c.5-.5 1.4-.5 1.9 0l13.6 13.6c.5.5.5 1.4 0 1.9l-3.3 3.3c-.6.6-1.5.6-2 .1z" fill="#c3c3c3"/><path d="m26.4 37.1c-1 1-2.5 1-3.5 0-1-1-1-2.5 0-3.5l3-3c1-1 2.5-1 3.5 0 1 1 1 2.5 0 3.5z" fill="#4b4d4d"/><path d="m28.9 33.8c-.7.7-1.9.7-2.7 0-.7-.7-.7-1.9 0-2.7.7-.7 1.9-.7 2.7 0s.7 1.9 0 2.7z" fill="#c3c3c3"/></svg>