<svg enable-background="new 0 0 60 60" height="60" viewBox="0 0 60 60" width="60" xmlns="http://www.w3.org/2000/svg"><path d="m50.5 26.7c-4.9 4.9-12.8 5.1-17.5.4-4.7-4.7-4.6-12.6.4-17.5l5.6-5.8c5-4.9 12.8-5.1 17.5-.4 4.8 4.8 4.6 12.6-.3 17.6z" fill="#4b4d4d"/><path d="m33.6 36.7-1.9 1.7-22.3 20-1.2 1.1c-.8.7-2 .7-2.7-.1l-4.9-4.9c-.7-.7-.8-1.9-.1-2.7l1.1-1.2 21.6-24.1z" fill="#c12127"/><g fill="#c3c3c3"><path d="m9.5 58.4-1.2 1.1c-.8.7-2 .7-2.7-.1l-4.9-4.9c-.7-.7-.8-1.9-.1-2.7l1.1-1.2z"/><path d="m35 38.1-13.1-13.1c-.5-.5-.5-1.3 0-1.8l5.9-5.9c.5-.5 1.3-.5 1.8 0l13.1 13.1c.5.5.5 1.3 0 1.8l-5.9 5.9c-.6.5-1.4.5-1.8 0z"/></g></svg>