<svg enable-background="new 0 0 60 60" height="60" viewBox="0 0 60 60" width="60" xmlns="http://www.w3.org/2000/svg"><path d="m6.33 57.63-1.55 1.11-1.59 1.14c-.26.18-.64.16-.85-.06l-2.16-2.16c-.21-.21-.24-.59-.06-.85l2.24-3.14z" fill="#c3c3c3"/><path d="m52.81 21-1.31.86-1.6 1.05-8.72 5.72-.05.03-9.79-9.79.03-.05 6.78-10.32.85-1.31 1.31-.86 9.26-6.07c.61-.4 1.51-.32 2.01.18l7.98 7.98c.5.5.58 1.4.18 2.01l-6.08 9.26z" fill="#4b4d4d"/><path d="m53.98 20.8-1.36 1.36c-.22.22-.58.23-.79.02l-14.01-14.01c-.21-.21-.21-.57.02-.79l1.36-1.36c.22-.22.58-.23.79-.02l14.01 14.01c.21.22.2.57-.02.79z" fill="#c3c3c3"/><path d="m36.74 32.48-.06.06-1.39 1.27-26.2 23.9c-.78.71-1.98.7-2.69-.01l-4.11-4.1c-.71-.71-.72-1.92-.01-2.69l25.17-27.58.06-.06z" fill="#696b6b"/><path d="m41.48 30.27-2.86 2.86c-.37.37-.96.38-1.32.03l-10.46-10.46c-.36-.36-.34-.95.03-1.32l2.86-2.86c.37-.37.96-.38 1.32-.03l10.46 10.46c.35.36.34.95-.03 1.32z" fill="#c3c3c3"/><path d="m22.24 39.15-1.38-1.38c-.71-.71-.69-1.89.05-2.63l5.51-5.51c.74-.74 1.92-.77 2.63-.05l1.38 1.38c.71.71.69 1.89-.05 2.63l-5.51 5.51c-.74.74-1.92.76-2.63.05z" fill="#c3c3c3"/><g fill="#4b4d4d"><path d="m28.58 33.79c-.68.68-1.76.7-2.42.05-.65-.65-.63-1.74.05-2.42s1.76-.7 2.42-.05.63 1.73-.05 2.42z"/><path d="m25.07 37.3c-.68.68-1.76.7-2.42.05-.65-.65-.63-1.74.05-2.42s1.76-.7 2.42-.05c.65.65.63 1.74-.05 2.42z"/></g></svg>