<svg enable-background="new 0 0 60 60" height="60" viewBox="0 0 60 60" width="60" xmlns="http://www.w3.org/2000/svg"><path d="m55.81 24.44c-.57.57-1.17 1.08-1.8 1.53-.08.06-.17.12-.25.17-.6.41-1.22.77-1.86 1.08-.16.08-.32.15-.49.22-5.24 2.28-11.56 1.28-15.84-3.01-4.95-4.95-5.52-12.62-1.7-18.2.49-.72 1.06-1.41 1.7-2.05s1.33-1.21 2.05-1.7c5.57-3.81 13.25-3.25 18.2 1.7s5.52 12.62 1.7 18.2c-.51.74-1.07 1.42-1.71 2.06z" fill="#4b4d4d"/><path d="m57.28 22.59c-.01-.01-.02-.03-.03-.04l-19.8-19.79c-.01-.01-.03-.02-.04-.04-.58-.55-1.46-.58-1.98-.06l-1.41 1.41c-.52.52-.49 1.39.06 1.98.01.01 19.82 19.83 19.82 19.83.01.01.03.02.04.03.58.55 1.46.58 1.98.06l1.41-1.41c.52-.52.49-1.39-.05-1.97z" fill="#c3c3c3"/><path d="m39.07 32.46-.29.26-1.6 1.45-.17.15-.15.14-22.11 20.02-2 1.81-3.24 2.93c-1.2 1.07-3.08 1.03-4.21-.09l-4.43-4.43c-1.12-1.12-1.17-3.01-.09-4.21l2.93-3.24 1.81-1.99 22.02-24.32z" fill="#696b6b"/><path d="m14.75 54.49-2 1.8-9.04-9.04 1.81-2z" fill="#c3c3c3"/><path d="m39.83 33.78-13.61-13.61c-.52-.52-.52-1.38.01-1.91l3.35-3.35c.53-.53 1.39-.54 1.91-.01l13.61 13.61c.52.52.52 1.38-.01 1.91l-3.35 3.35c-.53.53-1.39.54-1.91.01z" fill="#c3c3c3"/><path d="m26.44 37.06c-.97.97-2.53.97-3.5 0-.97-.97-.97-2.53 0-3.5l3-3c.97-.97 2.53-.97 3.5 0 .97.97.97 2.53 0 3.5z" fill="#4b4d4d"/><path d="m28.91 33.75c-.73.73-1.92.73-2.66 0-.73-.73-.73-1.92 0-2.66.73-.73 1.92-.73 2.66 0s.74 1.92 0 2.66z" fill="#c3c3c3"/></svg>