<svg height="60" width="60" xmlns="http://www.w3.org/2000/svg"><path d="m9.5 59.98c1.72.16 3.48-.68 4.92-1.52 3.6-2.13 6.7-5.43 9.07-8.9 3.5.62 7.15.3 10.15-1.8 1.92-1.35 3.47-3.1 4.26-5.28 2.1.37 4.27.44 6.4.33 4.5-.2 9.98-1.42 11.9-6 1.85-4.33-.97-8.14-4.5-10.4l-.7 1.15c2.32 1.45 4.38 3.5 4.43 6.4.04 2.74-1.78 4.8-4.13 5.97-3.78 1.88-8.84 2.03-13 1.27.43-1.96.47-4.08.04-6.03-.35-1.53-1.32-3.2-3.1-3.1-1.94.1-3.97 2.17-4.78 3.82-1.52 3.04 1.85 4.93 4.26 5.8.6.2 1.24.4 1.87.53 0 .02 0 .03-.03.03-.9 2.7-3.66 4.82-6.27 5.7-1.93.67-4 .68-6 .37 1.87-3.13 2.56-6.5.32-9.8-1.08-1.6-2.7-2.8-4.65-3-2.36-.25-4.1 1.6-5.28 3.38-1.2 1.77-1.83 3.98-.73 5.9 1 1.75 3.03 2.7 4.8 3.4 1.04.44 2.14.8 3.27 1.08-1.28 1.8-2.76 3.46-4.36 4.98-1.7 1.6-3.6 3.08-5.8 3.97-1.34.54-3.85.8-4.43-.9l-1.3.4c.48 1.4 1.9 2.15 3.34 2.28zm22.97-24.65c.7-.8 1.8-1.87 2.92-1.93.9-.05 1.33 1.1 1.54 1.82.53 1.78.44 3.82 0 5.68-2.83-.68-7.36-2.34-4.48-5.57zm-16.7 9.56c-2.1-2-.48-4.87 1.1-6.66 3.7-4.23 8.5 1.9 7.8 5.85-.25 1.4-1 2.72-1.8 3.93-.32-.07-.64-.15-.96-.23-2.1-.54-4.5-1.37-6.1-2.9zm35.28-18.89c.22.12.45.25.67.4l.04-.08-.08-1.12-4.54-2.86c-.06.16-.14.33-.23.48l-1.03 1.65c-.03.05-.06.1-.1.14l4.16 3.4 1.08-.44c-.2-.15-.44-.28-.67-.4-.76-.45-.03-1.6.73-1.16zm-4.45-4 .54.33c.15-.4.2-.87.12-1.33-.1-.66-.47-1.2-.95-1.6l-17.37-13.5c-.2.3-5.3 8.6-5.97 9.7l19.58 9.8c.55.3 1.2.37 1.85.2.57-.17 1.05-.5 1.4-.97l-.57-.45zm-20.12-20.17c-.02-.02-.04-.03-.07-.05.04 0 .06.03.08.05zm-9.18 12.72c.03-.37.1-.65.4-1.03l7.06-11.1c.35-.55.94-1 1.47-.78 0 0 .02 0 .04.02-.2-.15-.4-.3-.62-.44-3.7-2.32-8.6-1.22-10.92 2.48-2.33 3.7-1.22 8.6 2.48 10.92l.14.07c-.03-.07-.04-.1-.04-.16zm1-2.57c-.2.3-.56.37-.84.2-.28-.18-.36-.56-.2-.84.2-.28.56-.36.84-.18.28.17.37.54.2.82zm-1.06-1.37c-.18.3-.55.38-.83.2-.26-.17-.35-.54-.17-.82s.55-.37.83-.2c.28.2.36.56.2.84zm-1.42-1.36c-.28-.17-.37-.54-.2-.83.2-.27.56-.35.84-.17.28.17.37.54.2.82-.2.3-.56.37-.84.2zm7.9-5.86c-.18.28-.55.37-.83.2-.3-.2-.4-.56-.2-.84.17-.28.54-.36.82-.2.28.2.36.56.2.84zm-.08-2.59c.28.2.37.56.2.84-.2.28-.56.37-.84.2s-.37-.56-.2-.84c.2-.28.56-.37.84-.2zm-2.5 0c.17-.28.54-.36.82-.18.28.17.37.54.2.82-.2.3-.56.37-.84.2-.28-.18-.37-.56-.2-.84zm-1.8.12c.18-.28.55-.36.83-.2.3.2.37.56.2.84-.18.28-.56.37-.84.2-.28-.2-.36-.56-.2-.84zm1.66 1.45c.18-.28.55-.36.83-.18.28.15.37.52.2.8-.18.3-.56.37-.84.2-.3-.18-.38-.56-.2-.84zm-3.26-.8c.17-.27.54-.35.83-.18s.36.53.18.82c-.17.28-.54.36-.83.18-.28-.17-.36-.54-.18-.82zm1.57 1c.2-.28.56-.36.84-.2.3.2.37.56.2.84-.18.3-.55.4-.84.2-.3-.17-.37-.54-.2-.82zm1.76 1.45c.17-.28.54-.36.83-.18.27.17.35.54.17.82-.17.3-.55.37-.83.2-.28-.18-.36-.56-.18-.84zm-4.8-1.47c.17-.28.54-.37.82-.2s.36.56.2.84c-.2.26-.56.34-.84.16-.28-.17-.37-.54-.2-.83zm1.57 1c.18-.3.55-.37.83-.2.28.18.37.55.2.83-.2.28-.56.37-.84.2s-.36-.56-.18-.84zm1.5.94c.2-.3.56-.38.84-.2.28.17.36.54.2.82-.2.28-.56.37-.84.2s-.37-.56-.2-.84zm1.66 1.21c.16-.3.54-.38.82-.2s.36.55.2.83c-.2.28-.56.36-.84.2-.28-.2-.37-.56-.2-.84zm-6.1-1.9c.2-.27.56-.35.84-.18.28.18.36.55.2.83-.2.28-.56.37-.84.2-.28-.2-.37-.56-.2-.84zm1.37.87c.18-.28.55-.36.83-.2.28.2.37.56.2.84-.2.3-.56.4-.84.2-.28-.17-.37-.54-.2-.82zm1.46.92c.17-.3.54-.4.83-.2.28.17.36.54.18.82-.17.28-.55.36-.83.2-.26-.2-.34-.56-.16-.84zm1.67 1.03c.17-.28.55-.36.83-.2.28.2.36.56.2.84-.2.28-.56.37-.84.2-.3-.2-.4-.56-.2-.84zm.7 1.6c.27.18.35.55.18.83-.18.28-.55.37-.83.2-.28-.2-.37-.56-.2-.84.2-.28.56-.36.84-.2zm-5.76-2.68c.18-.28.55-.36.83-.2.28.2.37.56.2.84-.2.3-.56.36-.84.2s-.37-.57-.2-.85zm1.58 1c.18-.28.55-.37.83-.2.28.2.37.56.2.84-.2.27-.56.35-.84.2-.26-.2-.35-.57-.17-.85zm1.5.95c.2-.27.56-.36.84-.18s.36.55.2.83c-.2.28-.56.36-.84.2-.28-.2-.37-.56-.2-.84zm1.15 1.6c.28.16.36.54.18.82-.17.28-.54.36-.83.18s-.36-.54-.18-.82c.18-.3.55-.37.83-.2zm-4.5-1.68c.17-.28.54-.37.82-.2.26.2.35.56.17.84s-.55.36-.83.18c-.28-.17-.37-.54-.2-.82zm.2 1.55c.18-.28.55-.36.83-.2.28.2.37.56.2.84s-.56.4-.84.2c-.28-.17-.36-.54-.2-.82zm.6 1.8c.16-.3.54-.37.82-.2.26.18.34.55.17.83-.18.28-.55.37-.84.2-.27-.2-.36-.56-.18-.84zm.96 1.3c.17-.27.54-.35.83-.18.28.16.36.53.18.8-.17.3-.54.38-.83.2-.26-.2-.34-.55-.16-.83zm10.44-10.4c.05.03.1.07.14.1-.03-.04-.1-.08-.12-.1zm2.63 4.2h.02c.27-.47-1.64-3.26-2.45-4.04-.1 0-.22.02-.34.04-.7.16-1.26.6-1.6 1.14l-6.2 9.84c-.34.56-.48 1.25-.32 1.94.04.12.1.23.13.34-.27-.12-.53-.25-.8-.4.48.8 5.4 1.27 5.56 1.04 0 0 0-.05.06-.13l-.13-.05 6.1-9.67zm-22.85 51.42c-.14-.87 1.18-1.18 1.33-.3.02.1.05.22.1.33l.32-.1-1.62-5.1-.5.17-.96-3.06.13.44-.95.3.55 1.72.94-.3.13.44-.95.3.14.47-.5.15 1.63 5.1.3-.1c-.04-.15-.1-.3-.12-.46zm-2.05-10.02c-.06-.02-.13-.03-.2 0l-.4.12c-.08 0-.14.05-.17.12-.04.07-.04.15-.02.22l.39 1.28-.12-.43.95-.3-.26-.83c-.03-.07-.08-.13-.15-.17zm.7 1.9-.14-.44-.94.3.2.68-.06-.2zm-.1 2.93-.15-.45zm-.7-2.16-.07-.23zm.52-1.66.14.45z"/></svg>