<svg enable-background="new 0 0 60 60" height="60" viewBox="0 0 60 60" width="60" xmlns="http://www.w3.org/2000/svg"><g stroke="#00572c"><path d="m22 44.2h16v4.5h-16zm1.5-3.5v9.5h2v-7.6h9v7.6h2v-9.5zm3 2.6h7.1v16.7h-7.1z" fill="#fff"/><circle cx="30" cy="45.4" fill="#00572c" r="1.1"/><circle cx="30" cy="57.9" fill="#00572c" r="1.1"/><path d="m28.9 48.2h2.2v6.9h-2.2z" fill="#fff"/></g><path d="m42.3 33.6c0 3.9-3.2 7.1-7.1 7.1h-10.4c-3.9 0-7.1-3.2-7.1-7.1v-26.1c0-3.9 3.2-7.1 7.1-7.1h10.4c3.9 0 7.1 3.2 7.1 7.1z" stroke="#000"/><g stroke="#00572c"><path d="m31.5 35.5c-.5 0-1-.4-1-1 0-.5.4-1 1-1h11v-1.2h-11c-.5 0-1-.4-1-1s.4-.9 1-.9h11v-1.2h-11c-.5 0-1-.4-1-1s.4-1 1-1h11v-1.2h-11c-.5 0-1-.4-1-1s.4-1 1-1h11v-1h-11c-.5 0-1-.4-1-1 0-.5.4-1 1-1h11v-1.2h-11c-.5 0-1-.4-1-1s.4-1 1-1h11v-1.2h-11c-.5 0-1-.4-1-1 0-.5.4-.9 1-.9h11v-1.2h-11c-.5 0-1-.4-1-1s.4-1 1-1h11v-1.2h-11c-.5 0-1-.4-1-1 0-.5.4-.9 1-.9h11v-.9h-11c-.5 0-1-.4-1-1s.4-1 1-1h10.8c-.3-1.4-1.2-2.7-2.3-3.7v1.6c0 .5-.5 1-1 1-.6 0-1-.5-1-1v-2.8c-.5-.2-1-.4-1.6-.5v3.3c0 .5-.5 1-1 1s-1-.5-1-1v-3.4h-1.6v3.4c0 .5-.4 1-1 1-.5 0-1-.5-1-1v-3.4h-1.6v3.4c0 .5-.5 1-1 1s-1-.5-1-1v-3.4h-1.6v3.4c0 .5-.5 1-1 1-.6 0-1-.5-1-1v-3.3c-.6.1-1.1.2-1.6.5v2.8c0 .5-.5 1-1 1s-1-.5-1-1v-1.6c-1.1 1-1.9 2.3-2.3 3.7h10.5c.5 0 1 .4 1 .9s-.4 1-1 1h-10.7v1.2h10.7c.5 0 1 .4 1 1s-.4 1-1 1h-10.7v1.2h10.7c.5 0 1 .4 1 1s-.4.9-1 .9h-10.7v1.2h10.7c.5 0 1 .4 1 1 0 .5-.4 1-1 1h-10.7v1.1h10.7c.5 0 1 .4 1 1 0 .5-.4 1-1 1h-10.7v1.2h10.7c.5 0 1 .4 1 1 0 .5-.4 1-1 1h-10.7v1.2h10.7c.5 0 1 .4 1 1s-.4 1-1 1h-10.7v1.2h10.7c.5 0 1 .4 1 1s-.4.9-1 .9h-10.7v1.2h10.7c.5 0 1 .4 1 1s-.4 1-1 1h-10.7v1.2h10.7c.5 0 1 .4 1 1 0 .5-.4 1-1 1h-10.5c.8 3.2 3.6 5.5 7 5.5h10.6c3.4 0 6.3-2.3 7-5.5z" fill="#fff"/><circle cx="24.8" cy="38.1" fill="#00572c" r="1.6"/></g></svg>