<svg enable-background="new 0 0 60 60" height="60" viewBox="0 0 60 60" width="60" xmlns="http://www.w3.org/2000/svg"><path d="m3.3 43.2c-1.8 0-3.2-1.4-3.2-3.2v-20c0-1.8 1.4-3.2 3.2-3.2h53.3c1.8 0 3.2 1.4 3.2 3.2v20c0 1.8-1.4 3.2-3.2 3.2z" fill="#e6e6e6"/><path d="m56.7 17c1.7 0 3 1.4 3 3v20c0 1.7-1.4 3-3 3h-53.4c-1.7 0-3-1.4-3-3v-20c0-1.7 1.4-3 3-3zm0-.3h-53.4c-1.8 0-3.3 1.5-3.3 3.3v20c0 1.8 1.5 3.3 3.3 3.3h53.3c1.8 0 3.3-1.5 3.3-3.3v-20c.1-1.8-1.4-3.3-3.2-3.3z" fill="#00572c"/><path d="m10.2 23.5h46.4v19.7h-46.4z" fill="#fff"/><path d="m56.4 23.6v19.4h-46.1v-19.4zm.3-.3h-46.7v20h46.7z"/><path d="m15 28.3h3.3v8.3h-3.3zm33.3 0h3.3v8.3h-3.3zm-6.6 0h3.3v8.3h-3.3zm-6.7 0h3.3v8.3h-3.3zm-13.3 0h3.3v8.3h-3.3z" fill="#222c30"/><path d="m15 30h3.3v-6.7h-3.3zm33.3 0h3.3v-6.7h-3.3zm-6.6 0h3.3v-6.7h-3.3zm-6.7 0h3.3v-6.7h-3.3zm-13.3 0h3.3v-6.7h-3.3z" fill="#40494d"/><path d="m3.3 30 1.7-2.5 1.7 2.5v5h-3.4z" fill="#647278"/><path d="m3.3 25h3.4v5h-3.4z" fill="#a0b3ba"/><path d="m30 19.2h3.3v1.7h-3.3zm20 0h3.3v1.7h-3.3zm-6.7 0h3.3v1.7h-3.3zm-6.6 0h3.3v1.7h-3.3z" fill="#00572c"/><path d="m3.3 37.5h3.4v3.3h-3.4z" fill="#647278"/><path d="m23.3 19.2h3.3v1.7h-3.3zm-6.6 0h3.3v1.7h-3.3zm-6.7 0h3.3v1.7h-3.3z" fill="#00572c"/><path d="m3.3 19.2h3.4v3.3h-3.4z" fill="#78cae6"/></svg>