<svg enable-background="new 0 0 60 60" height="60" viewBox="0 0 60 60" width="60" xmlns="http://www.w3.org/2000/svg"><path d="m58.3 13h-56.6c-1 0-1.7.8-1.7 1.7v31.1c0 1 .8 1.7 1.7 1.7h56.5c1 0 1.7-.8 1.7-1.7v-31.1c.1-1-.7-1.7-1.6-1.7z" fill="#ff5a00"/><path d="m12.2 29.2h46.2v17.3h-46.2z" fill="#666"/><g fill="#fff"><path d="m15.3 29.2h-2.8v16.7c0 .1.1.1.1.1h2.5c.1 0 .1-.1.1-.1z"/><path d="m18.3 29.2h-2.8v16.7c0 .1.1.1.1.1h2.5c.1 0 .1-.1.1-.1v-16.7z"/><path d="m21.4 29.2h-2.8v16.7c0 .1.1.1.1.1h2.5c.1 0 .1-.1.1-.1z"/><path d="m24.4 29.2h-2.8v16.7c0 .1.1.1.1.1h2.5c.1 0 .1-.1.1-.1z"/><path d="m27.4 29.2h-2.8v16.7c0 .1.1.1.1.1h2.5c.1 0 .1-.1.1-.1z"/><path d="m30.5 29.2h-2.8v16.7c0 .1.1.1.1.1h2.5c.1 0 .1-.1.1-.1z"/><path d="m33.5 29.2h-2.8v16.7c0 .1.1.1.1.1h2.5c.1 0 .1-.1.1-.1z"/><path d="m36.6 29.2h-2.8v16.7c0 .1.1.1.1.1h2.5c.1 0 .1-.1.1-.1v-16.7z"/><path d="m39.6 29.2h-2.8v16.7c0 .1.1.1.1.1h2.5c.1 0 .1-.1.1-.1v-16.7z"/><path d="m42.6 29.2h-2.8v16.7c0 .1.1.1.1.1h2.5c.1 0 .1-.1.1-.1v-16.7z"/><path d="m45.7 29.2h-2.8v16.7c0 .1.1.1.1.1h2.5c.1 0 .1-.1.1-.1v-16.7z"/><path d="m48.7 29.2h-2.8v16.7c0 .1.1.1.1.1h2.5c.1 0 .1-.1.1-.1v-16.7z"/><path d="m51.8 29.2h-2.8v16.7c0 .1.1.1.1.1h2.5c.1 0 .1-.1.1-.1v-16.7z"/><path d="m54.8 29.2h-2.8v16.7c0 .1.1.1.1.1h2.5c.1 0 .1-.1.1-.1v-16.7z"/><path d="m57.8 29.2h-2.8v16.7c0 .1.1.1.1.1h2.5c.1 0 .1-.1.1-.1v-16.7z"/></g><path d="m14.5 29.2h1.8v10.9h-1.8z" fill="#666"/><path d="m14.7 29.2h1.4v10.7h-1.4z" fill="#1a1a1a"/><path d="m14.7 38.7h1.4v1.1h-1.4z" fill="#333"/><path d="m17.5 29.2h1.8v10.9h-1.8z" fill="#666"/><path d="m17.8 29.2h1.4v10.7h-1.4z" fill="#1a1a1a"/><path d="m17.8 38.7h1.4v1.1h-1.4z" fill="#333"/><path d="m23.6 29.2h1.8v10.9h-1.8z" fill="#666"/><path d="m23.8 29.2h1.4v10.7h-1.4z" fill="#1a1a1a"/><path d="m23.8 38.7h1.4v1.1h-1.4z" fill="#333"/><path d="m26.7 29.2h1.8v10.9h-1.8z" fill="#666"/><path d="m26.9 29.2h1.4v10.7h-1.4z" fill="#1a1a1a"/><path d="m26.9 38.7h1.4v1.1h-1.4z" fill="#333"/><path d="m29.7 29.2h1.8v10.9h-1.8z" fill="#666"/><path d="m29.9 29.2h1.4v10.7h-1.4z" fill="#1a1a1a"/><path d="m29.9 38.7h1.4v1.1h-1.4z" fill="#333"/><path d="m35.8 29.2h1.8v10.9h-1.8z" fill="#666"/><path d="m36 29.2h1.4v10.7h-1.4z" fill="#1a1a1a"/><path d="m36 38.7h1.4v1.1h-1.4z" fill="#333"/><path d="m38.8 29.2h1.8v10.9h-1.8z" fill="#666"/><path d="m39 29.2h1.4v10.7h-1.4z" fill="#1a1a1a"/><path d="m39 38.7h1.4v1.1h-1.4z" fill="#333"/><path d="m44.9 29.2h1.8v10.9h-1.8z" fill="#666"/><path d="m45.1 29.2h1.4v10.7h-1.4z" fill="#1a1a1a"/><path d="m45.1 38.7h1.4v1.1h-1.4z" fill="#333"/><path d="m47.9 29.2h1.8v10.9h-1.8z" fill="#666"/><path d="m48.2 29.2h1.4v10.7h-1.4z" fill="#1a1a1a"/><path d="m48.2 38.7h1.4v1.1h-1.4z" fill="#333"/><path d="m51 29.2h1.8v10.9h-1.8z" fill="#666"/><path d="m51.2 29.2h1.4v10.7h-1.4z" fill="#1a1a1a"/><path d="m51.2 38.7h1.4v1.1h-1.4z" fill="#333"/><path d="m17.2 27.6h-2.4c-.1 0-.2-.1-.2-.2v-.9c0-.1.1-.2.2-.2h2.4c.1 0 .2.1.2.2v.9c0 .1-.1.2-.2.2z" fill="#f7931e"/><path d="m22.4 27.6h-2.4c-.1 0-.2-.1-.2-.2v-.9c0-.1.1-.2.2-.2h2.4c.1 0 .2.1.2.2v.9c.1.1 0 .2-.2.2z" fill="#333"/><path d="m27.7 27.6h-2.4c-.1 0-.2-.1-.2-.2v-.9c0-.1.1-.2.2-.2h2.4c.1 0 .2.1.2.2v.9c0 .1-.1.2-.2.2z" fill="#333"/><path d="m32.9 27.6h-2.4c-.1 0-.2-.1-.2-.2v-.9c0-.1.1-.2.2-.2h2.4c.1 0 .2.1.2.2v.9c0 .1-.1.2-.2.2z" fill="#29abe2"/><path d="m39.6 27.6h-2.4c-.1 0-.2-.1-.2-.2v-.9c0-.1.1-.2.2-.2h2.4c.1 0 .2.1.2.2v.9c0 .1-.1.2-.2.2z" fill="#f7931e"/><path d="m44.8 27.6h-2.4c-.1 0-.2-.1-.2-.2v-.9c0-.1.1-.2.2-.2h2.4c.1 0 .2.1.2.2v.9c0 .1-.1.2-.2.2z" fill="#333"/><path d="m50 27.6h-2.4c-.1 0-.2-.1-.2-.2v-.9c0-.1.1-.2.2-.2h2.4c.1 0 .2.1.2.2v.9c0 .1-.1.2-.2.2z" fill="#333"/><path d="m55.3 27.6h-2.4c-.1 0-.2-.1-.2-.2v-.9c0-.1.1-.2.2-.2h2.4c.1 0 .2.1.2.2v.9c0 .1-.1.2-.2.2z" fill="#29abe2"/><path d="m9.9 44.4h-2.4c-.1 0-.2-.1-.2-.2v-11.6c0-.1.1-.2.2-.2h2.4c.1 0 .2.1.2.2v11.6c0 .1-.1.2-.2.2z" fill="#333"/><path d="m5.1 44.4h-2.4c-.1 0-.2-.1-.2-.2v-11.6c0-.1.1-.2.2-.2h2.4c.1 0 .2.1.2.2v11.6c0 .1-.1.2-.2.2z" fill="#333"/><path d="m9.9 27.6h-2.4c-.1 0-.2-.1-.2-.2v-1.9c0-.1.1-.2.2-.2h2.4c.1 0 .2.1.2.2v1.9c0 .1-.1.2-.2.2z" fill="#29abe2"/><path d="m5.1 27.6h-2.4c-.1 0-.2-.1-.2-.2v-1.9c0-.1.1-.2.2-.2h2.4c.1 0 .2.1.2.2v1.9c0 .1-.1.2-.2.2z" fill="#f7931e"/><path d="m9.9 24.5h-2.4c-.1 0-.2-.1-.2-.2v-1.9c0-.1.1-.2.2-.2h2.4c.1 0 .2.1.2.2v1.9c0 .1-.1.2-.2.2z" fill="#333"/><path d="m5.1 24.5h-2.4c-.1 0-.2-.1-.2-.2v-1.9c0-.1.1-.2.2-.2h2.4c.1 0 .2.1.2.2v1.9c0 .1-.1.2-.2.2z" fill="#333"/><path d="m3.9 18.9c-.8 0-1.4-.6-1.4-1.4v-.5c0-.8.6-1.4 1.4-1.4s1.4.6 1.4 1.4v.4c0 .8-.6 1.5-1.4 1.5z" fill="#29abe2"/><ellipse cx="16" cy="16.9" fill="#666" rx="2" ry="2"/><path d="m14.9 18.2h-.1v-.1-.1c.1-.1.2-.1.2 0v.1z" fill="#1a1a1a"/><path d="m14.3 17.2c0-.1 0-.2.1-.2s.2 0 .2.1 0 .2-.1.2c-.2 0-.2 0-.2-.1zm3.2.1c-.1 0-.2-.1-.1-.2 0-.1.1-.2.2-.1.1 0 .2.1.1.2 0 .1-.1.1-.2.1zm-3.1-.9c-.1 0-.1-.1-.1-.2s.1-.1.2-.1.1.1.1.2 0 .1-.2.1c.1 0 .1 0 0 0zm2.9-.1c0-.1 0-.2.1-.2s.2 0 .2.1 0 .2-.1.2 0 0-.1 0-.1 0-.1-.1zm-2.3-.7c-.1-.1 0-.2 0-.2.1-.1.2 0 .2 0 .1.1 0 .2 0 .2h-.2c0 .1 0 .1 0 0zm1.8.1c-.1-.1-.1-.2 0-.2.1-.1.2-.1.2 0 .1.1.1.2 0 .2s-.1 0-.2 0zm-1-.4c0-.1.1-.2.2-.2s.2.1.2.2-.1.2-.2.2c-.1-.1-.2-.1-.2-.2z" fill="#1a1a1a"/><path d="m17.1 18.2h-.1v-.1-.1c.1-.1.2-.1.2 0v.1.1s0 0-.1 0z" fill="#1a1a1a"/><circle cx="16" cy="16.9" fill="#e6e6e6" r="1.2"/><path d="m16.8 16.9c0 .5-.4.8-.8.8-.5 0-.8-.4-.8-.8 0-.5.4-.8.8-.8.4-.1.8.3.8.8z" fill="#666"/><circle cx="16" cy="16.3" fill="#e6e6e6" r=".2"/><path d="m16.8 15.9-.8 1 1.2-.3c-.1-.3-.2-.5-.4-.7z" fill="#333"/><path d="m14.8 17.2c.1.3.2.5.4.7l.8-1z" fill="#333"/><ellipse cx="21.3" cy="16.9" fill="#666" rx="2" ry="2"/><path d="m20.1 18.2h-.1v-.1-.1c.1-.1.2-.1.2 0v.1.1z" fill="#1a1a1a"/><path d="m19.5 17.2c0-.1 0-.2.1-.2s.2 0 .2.1 0 .2-.1.2-.2 0-.2-.1zm3.3.1c-.1 0-.2-.1-.1-.2 0-.1.1-.2.2-.1.1 0 .2.1.1.2 0 .1-.1.1-.2.1zm-3.1-.9c-.1 0-.1-.1-.1-.2s.1-.1.2-.1.1.1.1.2-.1.1-.2.1zm2.9-.1c0-.1 0-.2.1-.2s.2 0 .2.1 0 .2-.1.2 0 0-.1 0-.1 0-.1-.1zm-2.4-.7c-.1-.1 0-.2 0-.2.1-.1.2 0 .2 0 .1.1 0 .2 0 .2h-.1c0 .1-.1.1-.1 0zm1.8.1c-.1-.1-.1-.2 0-.2.1-.1.2-.1.2 0 .1.1.1.2 0 .2s0 0-.2 0c.1 0 .1 0 0 0zm-.9-.4c0-.1.1-.2.2-.2s.2.1.2.2-.1.2-.2.2c-.2-.1-.2-.1-.2-.2z" fill="#1a1a1a"/><path d="m22.4 18.2h-.1v-.1-.1c.1-.1.2-.1.2 0v.1.1z" fill="#1a1a1a"/><circle cx="21.2" cy="16.9" fill="#e6e6e6" r="1.2"/><path d="m21.2 17.7c-.5 0-.8-.4-.8-.8 0-.5.4-.8.8-.8.5 0 .8.4.8.8.1.4-.3.8-.8.8z" fill="#666"/><circle cx="21.8" cy="16.9" fill="#e6e6e6" r=".2"/><path d="m22 15.9-.8 1 1.2-.3c0-.3-.2-.5-.4-.7z" fill="#333"/><path d="m20 17.2c.1.3.2.5.4.7l.8-1z" fill="#333"/><ellipse cx="26.5" cy="16.8" fill="#666" rx="2" ry="2"/><path d="m25.3 18.2h-.1v-.1-.1c.1-.1.2-.1.2 0v.1.1s0 0-.1 0z" fill="#1a1a1a"/><path d="m24.7 17.2c0-.1 0-.2.1-.2s.2 0 .2.1 0 .2-.1.2-.2 0-.2-.1zm3.3.1c-.1 0-.2-.1-.1-.2 0-.1.1-.2.2-.1.1 0 .2.1.1.2 0 .1-.1.1-.2.1zm-3.1-.9c-.1 0-.1-.1-.1-.2s.1-.1.2-.1.1.1.1.2-.1.1-.2.1zm2.9-.1c0-.1 0-.2.1-.2s.2 0 .2.1 0 .2-.1.2 0 0-.1 0-.1 0-.1-.1zm-2.4-.7c-.1-.1 0-.2 0-.2.1-.1.2 0 .2 0 .1.1 0 .2 0 .2h-.1c0 .1 0 .1-.1 0zm1.9.1c-.1-.1-.1-.2 0-.2.1-.1.2-.1.2 0 .1.1.1.2 0 .2s-.1 0-.2 0zm-1-.4c0-.1.1-.2.2-.2s.2.1.2.2-.1.2-.2.2c-.1-.1-.2-.1-.2-.2z" fill="#1a1a1a"/><path d="m27.6 18.2h-.1v-.1-.1c.1-.1.2-.1.2 0v.1.1z" fill="#1a1a1a"/><circle cx="26.5" cy="16.9" fill="#e6e6e6" r="1.2"/><path d="m27 16.3c.3.3.3.8 0 1.2-.3.3-.8.3-1.2 0-.3-.3-.3-.8 0-1.2.4-.3.9-.3 1.2 0z" fill="#666"/><circle cx="26" cy="16.4" fill="#e6e6e6" r=".2"/><path d="m27.3 15.9-.8 1 1.2-.3c-.1-.3-.2-.5-.4-.7z" fill="#333"/><path d="m25.3 17.2c.1.3.2.5.4.7l.8-1z" fill="#333"/><ellipse cx="31.7" cy="16.9" fill="#666" rx="2" ry="2"/><path d="m30.6 18.2h-.1v-.1-.1c.1-.1.2-.1.2 0v.1.1z" fill="#1a1a1a"/><path d="m30 17.2c0-.1 0-.2.1-.2s.2 0 .2.1 0 .2-.1.2c-.2 0-.2 0-.2-.1zm3.2.1c-.1 0-.2-.1-.1-.2 0-.1.1-.2.2-.1.1 0 .2.1.1.2 0 .1 0 .1-.2.1.1 0 .1 0 0 0zm-3-.9c-.1 0-.1-.1-.1-.2s.1-.1.2-.1.1.1.1.2c-.1.1-.1.1-.2.1zm2.8-.1c0-.1 0-.2.1-.2s.2 0 .2.1 0 .2-.1.2 0 0-.1 0 0 0-.1-.1zm-2.3-.7c-.1-.1 0-.2 0-.2.1-.1.2 0 .2 0 .1.1 0 .2 0 .2h-.1c0 .1-.1.1-.1 0zm1.8.1c-.1-.1-.1-.2 0-.2.1-.1.2-.1.2 0 .1.1.1.2 0 .2s-.1 0-.2 0zm-1-.4c0-.1.1-.2.2-.2s.2.1.2.2-.1.2-.2.2c-.1-.1-.2-.1-.2-.2z" fill="#1a1a1a"/><path d="m32.8 18.2-.1-.1v-.1c.1-.1.2-.1.2 0v.1.1s0 0-.1 0z" fill="#1a1a1a"/><circle cx="31.7" cy="16.9" fill="#e6e6e6" r="1.2"/><path d="m31.1 16.3c.3-.3.8-.3 1.2 0 .3.3.3.8 0 1.2-.3.3-.8.3-1.2 0-.3-.4-.3-.9 0-1.2z" fill="#666"/><circle cx="31.3" cy="17.3" fill="#e6e6e6" r=".2"/><path d="m32.5 15.9-.8 1 1.2-.3c-.1-.3-.2-.5-.4-.7z" fill="#333"/><path d="m30.5 17.2c.1.3.2.5.4.7l.8-1z" fill="#333"/><ellipse cx="38.4" cy="16.9" fill="#666" rx="2" ry="2"/><path d="m37.2 18.2-.1-.1v-.1c.1-.1.2-.1.2 0v.1.1s0 0-.1 0z" fill="#1a1a1a"/><path d="m36.6 17.2c0-.1 0-.2.1-.2s.2 0 .2.1 0 .2-.1.2-.2 0-.2-.1zm3.3.1c-.1 0-.2-.1-.1-.2 0-.1.1-.2.2-.1.1 0 .2.1.1.2 0 .1-.1.1-.2.1zm-3.1-.9c-.1 0-.1-.1-.1-.2s.1-.1.2-.1.1.1.1.2-.1.1-.2.1zm2.9-.1c0-.1 0-.2.1-.2s.2 0 .2.1 0 .2-.1.2 0 0-.1 0-.1 0-.1-.1zm-2.4-.7c-.1-.1 0-.2 0-.2.1-.1.2 0 .2 0 .1.1 0 .2 0 .2h-.1c0 .1-.1.1-.1 0zm1.8.1c-.1-.1-.1-.2 0-.2.1-.1.2-.1.2 0 .1.1.1.2 0 .2s0 0-.2 0c.1 0 .1 0 0 0zm-.9-.4c0-.1.1-.2.2-.2s.2.1.2.2-.1.2-.2.2c-.1-.1-.2-.1-.2-.2z" fill="#1a1a1a"/><path d="m39.5 18.2-.1-.1v-.1c.1-.1.2-.1.2 0v.1.1z" fill="#1a1a1a"/><circle cx="38.3" cy="16.9" fill="#e6e6e6" r="1.2"/><path d="m38.9 16.3c.3.3.3.8 0 1.2-.3.3-.8.3-1.2 0s-.3-.8 0-1.2c.4-.3.9-.3 1.2 0z" fill="#666"/><circle cx="37.9" cy="16.4" fill="#e6e6e6" r=".2"/><path d="m39.1 15.9-.8 1 1.2-.3c0-.3-.2-.5-.4-.7z" fill="#333"/><path d="m37.1 17.2c.1.3.2.5.4.7l.8-1z" fill="#333"/><ellipse cx="43.6" cy="16.9" fill="#666" rx="2" ry="2"/><path d="m42.5 18.2-.1-.1v-.1c.1-.1.2-.1.2 0v.1.1c-.1 0-.1 0-.1 0z" fill="#1a1a1a"/><path d="m41.8 17.2c0-.1 0-.2.1-.2s.2 0 .2.1 0 .2-.1.2-.1 0-.2-.1zm3.3.1c-.1 0-.2-.1-.1-.2 0-.1.1-.2.2-.1.1 0 .2.1.1.2 0 .1-.1.1-.2.1zm-3.1-.9c-.1 0-.1-.1-.1-.2s.1-.1.2-.1.1.1.1.2 0 .1-.2.1c.1 0 .1 0 0 0zm2.9-.1c0-.1 0-.2.1-.2s.2 0 .2.1 0 .2-.1.2 0 0-.1 0-.1 0-.1-.1zm-2.3-.7c-.1-.1 0-.2 0-.2.1-.1.2 0 .2 0 .1.1 0 .2 0 .2h-.1c-.1.1-.1.1-.1 0zm1.8.1c-.1-.1-.1-.2 0-.2.1-.1.2-.1.2 0 .1.1.1.2 0 .2s-.1 0-.2 0zm-1-.4c0-.1.1-.2.2-.2s.2.1.2.2-.1.2-.2.2c-.1-.1-.2-.1-.2-.2z" fill="#1a1a1a"/><path d="m44.7 18.2-.1-.1v-.1c.1-.1.2-.1.2 0v.1.1s0 0-.1 0z" fill="#1a1a1a"/><circle cx="43.6" cy="16.9" fill="#e6e6e6" r="1.2"/><path d="m44.4 16.9c0 .5-.4.8-.8.8-.5 0-.8-.4-.8-.8 0-.5.4-.8.8-.8.4-.1.8.3.8.8z" fill="#666"/><circle cx="43.6" cy="16.3" fill="#e6e6e6" r=".2"/><path d="m44.4 15.9-.8 1 1.2-.3c-.1-.3-.2-.5-.4-.7z" fill="#333"/><path d="m42.4 17.2c.1.3.2.5.4.7l.8-1z" fill="#333"/><ellipse cx="48.9" cy="16.9" fill="#666" rx="2" ry="2"/><path d="m47.7 18.2-.1-.1v-.1c.1-.1.2-.1.2 0v.1.1z" fill="#1a1a1a"/><path d="m47.1 17.2c0-.1 0-.2.1-.2s.2 0 .2.1 0 .2-.1.2-.2 0-.2-.1zm3.3.1c-.1 0-.2-.1-.1-.2 0-.1.1-.2.2-.1.1 0 .2.1.1.2s-.1.1-.2.1zm-3.1-.9c-.1 0-.1-.1-.1-.2s.1-.1.2-.1.1.1.1.2-.1.1-.2.1zm2.8-.1c0-.1 0-.2.1-.2s.2 0 .2.1 0 .2-.1.2 0 0-.1 0 0 0-.1-.1zm-2.3-.7c-.1-.1 0-.2 0-.2.1-.1.2 0 .2 0 .1.1 0 .2 0 .2h-.1c0 .1-.1.1-.1 0zm1.8.1c-.1-.1-.1-.2 0-.2.1-.1.2-.1.2 0 .1.1.1.2 0 .2s0 0-.2 0zm-.9-.4c0-.1.1-.2.2-.2s.2.1.2.2-.1.2-.2.2c-.2-.1-.2-.1-.2-.2z" fill="#1a1a1a"/><path d="m50 18.2-.1-.1v-.1c.1-.1.2-.1.2 0v.1.1c-.1 0-.1 0-.1 0z" fill="#1a1a1a"/><circle cx="48.8" cy="16.9" fill="#e6e6e6" r="1.2"/><path d="m48.2 17.4c-.3-.3-.3-.8 0-1.2.3-.3.8-.3 1.2 0 .3.3.3.8 0 1.2s-.8.4-1.2 0z" fill="#666"/><circle cx="49.3" cy="17.3" fill="#e6e6e6" r=".2"/><path d="m49.6 15.9-.8 1 1.2-.3c0-.3-.2-.5-.4-.7z" fill="#333"/><path d="m47.6 17.2c.1.3.2.5.4.7l.8-1z" fill="#333"/><ellipse cx="54.1" cy="16.8" fill="#666" rx="2" ry="2"/><path d="m52.9 18.2-.1-.1v-.1c.1-.1.2-.1.2 0v.1.1s0 0-.1 0z" fill="#1a1a1a"/><path d="m52.3 17.2c0-.1 0-.2.1-.2s.2 0 .2.1 0 .2-.1.2-.2 0-.2-.1zm3.3.1c-.1 0-.2-.1-.1-.2 0-.1.1-.2.2-.1.1 0 .2.1.1.2 0 .1-.1.1-.2.1zm-3.1-.9c-.1 0-.1-.1-.1-.2s.1-.1.2-.1.1.1.1.2-.1.1-.2.1zm2.9-.1c0-.1 0-.2.1-.2s.2 0 .2.1 0 .2-.1.2 0 0-.1 0-.1 0-.1-.1zm-2.4-.7c-.1-.1 0-.2 0-.2.1-.1.2 0 .2 0 .1.1 0 .2 0 .2h-.1c0 .1 0 .1-.1 0zm1.9.1c-.1-.1-.1-.2 0-.2.1-.1.2-.1.2 0 .1.1.1.2 0 .2s-.1 0-.2 0zm-1-.4c0-.1.1-.2.2-.2s.2.1.2.2-.1.2-.2.2c-.1-.1-.2-.1-.2-.2z" fill="#1a1a1a"/><path d="m55.2 18.2-.1-.1v-.1c.1-.1.2-.1.2 0v.1.1z" fill="#1a1a1a"/><circle cx="54.1" cy="16.9" fill="#e6e6e6" r="1.2"/><path d="m54.9 16.9c0 .5-.4.8-.8.8-.5 0-.8-.4-.8-.8 0-.5.4-.8.8-.8.4-.1.8.3.8.8z" fill="#666"/><circle cx="54.1" cy="16.3" fill="#e6e6e6" r=".2"/><path d="m54.8 15.9-.8 1 1.2-.3c0-.3-.2-.5-.4-.7z" fill="#333"/><path d="m52.9 17.2c.1.3.2.5.4.7l.8-1z" fill="#333"/><circle cx="16" cy="22.6" fill="#e6e6e6" r="2"/><path d="m14.9 23.9h-.1v-.1-.1c.1-.1.2-.1.2 0v.1z" fill="#999"/><path d="m14.3 22.9c0-.1 0-.2.1-.2s.2 0 .2.1 0 .2-.1.2c-.2.1-.2 0-.2-.1zm3.2.2c-.1 0-.2-.1-.1-.2 0-.1.1-.2.2-.1.1 0 .2.1.1.2s-.1.1-.2.1zm-3.1-1c-.1 0-.1-.1-.1-.2s.1-.1.2-.1.1.1.1.2 0 .1-.2.1c.1 0 .1 0 0 0zm2.9-.1c0-.1 0-.2.1-.2s.2 0 .2.1 0 .2-.1.2 0 0-.1 0-.1 0-.1-.1zm-2.3-.6c-.1-.1 0-.2 0-.2.1-.1.2 0 .2 0 .1.1 0 .2 0 .2zm1.8 0c-.1-.1-.1-.2 0-.2.1-.1.2-.1.2 0 .1.1.1.2 0 .2s-.1 0-.2 0zm-1-.4c0-.1.1-.2.2-.2s.2.1.2.2-.1.2-.2.2-.2-.1-.2-.2z" fill="#999"/><path d="m17.1 23.9h-.1l-.1-.1v-.1c.1-.1.2-.1.2 0v.1z" fill="#999"/><circle cx="16" cy="22.6" fill="#999" r="1.2"/><path d="m16.8 22.6c0 .5-.4.8-.8.8-.5 0-.8-.4-.8-.8 0-.5.4-.8.8-.8s.8.3.8.8z" fill="#333"/><circle cx="16" cy="22" fill="#e6e6e6" r=".2"/><path d="m16.8 21.6-.8 1 1.2-.3c-.1-.3-.2-.5-.4-.7z" fill="#333"/><path d="m14.8 22.9c.1.3.2.5.4.7l.8-1z" fill="#333"/><circle cx="21.2" cy="22.6" fill="#e6e6e6" r="2"/><path d="m20.1 23.9h-.1v-.1-.1c.1-.1.2-.1.2 0v.1.1z" fill="#999"/><path d="m19.5 22.9c0-.1 0-.2.1-.2s.2 0 .2.1 0 .2-.1.2c-.1.1-.2 0-.2-.1zm3.3.2c-.1 0-.2-.1-.1-.2 0-.1.1-.2.2-.1.1 0 .2.1.1.2s-.1.1-.2.1zm-3.1-1c-.1 0-.1-.1-.1-.2s.1-.1.2-.1.1.1.1.2-.1.1-.2.1zm2.9-.1c0-.1 0-.2.1-.2s.2 0 .2.1 0 .2-.1.2 0 0-.1 0-.1 0-.1-.1zm-2.4-.6c-.1-.1 0-.2 0-.2.1-.1.2 0 .2 0 .1.1 0 .2 0 .2h-.1zm1.8 0c-.1-.1-.1-.2 0-.2.1-.1.2-.1.2 0 .1.1.1.2 0 .2s0 0-.2 0c.1 0 .1 0 0 0zm-.8-.2c-.1 0-.2-.1-.2-.2s.1-.2.2-.2.2.1.2.2-.1.2-.2.2z" fill="#999"/><path d="m22.4 23.9h-.1v-.1-.1c.1-.1.2-.1.2 0v.1.1z" fill="#999"/><circle cx="21.2" cy="22.6" fill="#999" r="1.2"/><circle cx="21.2" cy="22.6" fill="#333" r=".8"/><circle cx="20.8" cy="23" fill="#e6e6e6" r=".2"/><path d="m22 21.6-.8 1 1.2-.3c0-.3-.2-.5-.4-.7z" fill="#333"/><path d="m20 22.9c.1.3.2.5.4.7l.8-1z" fill="#333"/><circle cx="26.5" cy="22.6" fill="#e6e6e6" r="2"/><path d="m25.3 23.9h-.1v-.1-.1c.1-.1.2-.1.2 0v.1.1s0 0-.1 0z" fill="#999"/><path d="m24.7 22.9c0-.1 0-.2.1-.2s.2 0 .2.1 0 .2-.1.2c-.1.1-.2 0-.2-.1zm3.3.2c-.1 0-.2-.1-.1-.2 0-.1.1-.2.2-.1.1 0 .2.1.1.2s-.1.1-.2.1zm-3.1-1c-.1 0-.1-.1-.1-.2s.1-.1.2-.1.1.1.1.2-.1.1-.2.1zm2.9-.1c0-.1 0-.2.1-.2s.2 0 .2.1 0 .2-.1.2 0 0-.1 0-.1 0-.1-.1zm-2.4-.6c-.1-.1 0-.2 0-.2.1-.1.2 0 .2 0 .1.1 0 .2 0 .2h-.1s0 0-.1 0zm1.9 0c-.1-.1-.1-.2 0-.2.1-.1.2-.1.2 0 .1.1.1.2 0 .2s-.1 0-.2 0zm-1-.4c0-.1.1-.2.2-.2s.2.1.2.2-.1.2-.2.2-.2-.1-.2-.2z" fill="#999"/><path d="m27.6 23.9h-.1v-.1-.1c.1-.1.2-.1.2 0l.1.1s0 .1-.1.1z" fill="#999"/><circle cx="26.5" cy="22.6" fill="#999" r="1.2"/><circle cx="26.5" cy="22.6" fill="#333" r=".8"/><circle cx="26" cy="22.2" fill="#e6e6e6" r=".2"/><path d="m27.3 21.6-.8 1 1.2-.3c-.1-.3-.2-.5-.4-.7z" fill="#333"/><path d="m25.3 22.9c.1.3.2.5.4.7l.8-1z" fill="#333"/><circle cx="31.7" cy="22.6" fill="#e6e6e6" r="2"/><path d="m30.6 23.9h-.1v-.1-.1c.1-.1.2-.1.2 0v.1.1z" fill="#999"/><path d="m30 22.9c0-.1 0-.2.1-.2s.2 0 .2.1 0 .2-.1.2c-.2.1-.2 0-.2-.1zm3.2.2c-.1 0-.2-.1-.1-.2 0-.1.1-.2.2-.1.1 0 .2.1.1.2s0 .1-.2.1c.1 0 .1 0 0 0zm-3-1c-.1 0-.1-.1-.1-.2s.1-.1.2-.1.1.1.1.2c-.1.1-.1.1-.2.1zm2.8-.1c0-.1 0-.2.1-.2s.2 0 .2.1 0 .2-.1.2 0 0-.1 0 0 0-.1-.1zm-2.3-.6c-.1-.1 0-.2 0-.2.1-.1.2 0 .2 0 .1.1 0 .2 0 .2h-.1zm1.8 0c-.1-.1-.1-.2 0-.2.1-.1.2-.1.2 0 .1.1.1.2 0 .2s-.1 0-.2 0zm-.8-.2c-.1 0-.2-.1-.2-.2s.1-.2.2-.2.2.1.2.2-.1.2-.2.2z" fill="#999"/><path d="m32.8 23.9-.1-.1v-.1c.1-.1.2-.1.2 0v.1.1s0 0-.1 0z" fill="#999"/><circle cx="31.7" cy="22.6" fill="#999" r="1.2"/><circle cx="31.7" cy="22.6" fill="#333" r=".8"/><circle cx="31.3" cy="23" fill="#e6e6e6" r=".2"/><path d="m32.5 21.6-.8 1 1.2-.3c-.1-.3-.2-.5-.4-.7z" fill="#333"/><path d="m30.5 22.9c.1.3.2.5.4.7l.8-1z" fill="#333"/><circle cx="38.3" cy="22.6" fill="#e6e6e6" r="2"/><path d="m37.2 23.9-.1-.1v-.1c.1-.1.2-.1.2 0v.1.1s0 0-.1 0z" fill="#999"/><path d="m36.6 22.9c0-.1 0-.2.1-.2s.2 0 .2.1 0 .2-.1.2c-.1.1-.2 0-.2-.1zm3.3.2c-.1 0-.2-.1-.1-.2 0-.1.1-.2.2-.1.1 0 .2.1.1.2s-.1.1-.2.1zm-3.1-1c-.1 0-.1-.1-.1-.2s.1-.1.2-.1.1.1.1.2-.1.1-.2.1zm2.9-.1c0-.1 0-.2.1-.2s.2 0 .2.1 0 .2-.1.2 0 0-.1 0-.1 0-.1-.1zm-2.4-.6c-.1-.1 0-.2 0-.2.1-.1.2 0 .2 0 .1.1 0 .2 0 .2h-.1zm1.8 0c-.1-.1-.1-.2 0-.2.1-.1.2-.1.2 0 .1.1.1.2 0 .2s0 0-.2 0c.1 0 .1 0 0 0zm-.9-.4c0-.1.1-.2.2-.2s.2.1.2.2-.1.2-.2.2-.2-.1-.2-.2z" fill="#999"/><path d="m39.5 23.9-.1-.1v-.1c.1-.1.2-.1.2 0v.1.1z" fill="#999"/><circle cx="38.3" cy="22.6" fill="#999" r="1.2"/><circle cx="38.3" cy="22.6" fill="#333" r=".8"/><circle cx="39" cy="22.6" fill="#e6e6e6" r=".2"/><path d="m39.1 21.6-.8 1 1.2-.3c0-.3-.2-.5-.4-.7z" fill="#333"/><path d="m37.1 22.9c.1.3.2.5.4.7l.8-1z" fill="#333"/><circle cx="43.6" cy="22.6" fill="#e6e6e6" r="2"/><path d="m42.5 23.9-.1-.1v-.1c.1-.1.2-.1.2 0v.1.1c-.1 0-.1 0-.1 0z" fill="#999"/><path d="m41.8 22.9c0-.1 0-.2.1-.2s.2 0 .2.1 0 .2-.1.2c-.1.1-.1 0-.2-.1zm3.3.2c-.1 0-.1-.1-.1-.2s.1-.2.2-.1c.1 0 .2.1.1.2s-.1.1-.2.1zm-3.1-1c-.1 0-.1-.1-.1-.2s.1-.1.2-.1.1.1.1.2 0 .1-.2.1c.1 0 .1 0 0 0zm2.9-.1c0-.1 0-.2.1-.2s.2 0 .2.1 0 .2-.1.2 0 0-.1 0-.1 0-.1-.1zm-2.3-.6c-.1-.1 0-.2 0-.2.1-.1.2 0 .2 0 .1.1 0 .2 0 .2h-.1c-.1 0-.1 0-.1 0zm1.8 0c-.1-.1-.1-.2 0-.2.1-.1.2-.1.2 0 .1.1.1.2 0 .2s-.1 0-.2 0zm-.8-.2c-.1 0-.2-.1-.2-.2s.1-.2.2-.2.2.1.2.2-.1.2-.2.2z" fill="#999"/><path d="m44.7 23.9-.1-.1v-.1c.1-.1.2-.1.2 0v.1.1s0 0-.1 0z" fill="#999"/><circle cx="43.6" cy="22.6" fill="#999" r="1.2"/><path d="m43.6 21.8c.5 0 .8.4.8.8 0 .5-.4.8-.8.8-.5 0-.8-.4-.8-.8 0-.5.3-.8.8-.8z" fill="#333"/><circle cx="43" cy="22.6" fill="#e6e6e6" r=".2"/><path d="m44.4 21.6-.8 1 1.2-.3c-.1-.3-.2-.5-.4-.7z" fill="#333"/><path d="m42.4 22.9c.1.3.2.5.4.7l.8-1z" fill="#333"/><circle cx="48.8" cy="22.6" fill="#e6e6e6" r="2"/><path d="m47.7 23.9-.1-.1v-.1c.1-.1.2-.1.2 0v.1.1z" fill="#999"/><path d="m47.1 22.9c0-.1 0-.2.1-.2s.2 0 .2.1 0 .2-.1.2c-.1.1-.2 0-.2-.1zm3.3.2c-.1 0-.2-.1-.1-.2 0-.1.1-.2.2-.1.1 0 .2.1.1.2-.1 0-.1.1-.2.1zm-3.1-1c-.1 0-.1-.1-.1-.2s.1-.1.2-.1.1.1.1.2-.1.1-.2.1zm2.8-.1c0-.1 0-.2.1-.2s.2 0 .2.1 0 .2-.1.2 0 0-.1 0 0 0-.1-.1zm-2.3-.6c-.1-.1 0-.2 0-.2.1-.1.2 0 .2 0 .1.1 0 .2 0 .2h-.1zm1.8 0c-.1-.1-.1-.2 0-.2.1-.1.2-.1.2 0 .1.1.1.2 0 .2s0 0-.2 0zm-.9-.4c0-.1.1-.2.2-.2s.2.1.2.2-.1.2-.2.2c-.2 0-.2-.1-.2-.2z" fill="#999"/><path d="m50 23.9-.1-.1v-.1c.1-.1.2-.1.2 0v.1.1c-.1 0-.1 0-.1 0z" fill="#999"/><circle cx="48.8" cy="22.6" fill="#999" r="1.2"/><circle cx="48.8" cy="22.6" fill="#333" r=".8"/><circle cx="49.3" cy="22.2" fill="#e6e6e6" r=".2"/><path d="m49.6 21.6-.8 1 1.2-.3c0-.3-.2-.5-.4-.7z" fill="#333"/><path d="m47.6 22.9c.1.3.2.5.4.7l.8-1z" fill="#333"/><circle cx="54.1" cy="22.6" fill="#e6e6e6" r="2"/><path d="m52.9 23.9-.1-.1v-.1c.1-.1.2-.1.2 0v.1.1s0 0-.1 0z" fill="#999"/><path d="m52.3 22.9c0-.1 0-.2.1-.2s.2 0 .2.1 0 .2-.1.2c-.1.1-.2 0-.2-.1zm3.3.2c-.1 0-.2-.1-.1-.2 0-.1.1-.2.2-.1.1 0 .2.1.1.2s-.1.1-.2.1zm-3.1-1c-.1 0-.1-.1-.1-.2s.1-.1.2-.1.1.1.1.2-.1.1-.2.1zm2.9-.1c0-.1 0-.2.1-.2s.2 0 .2.1 0 .2-.1.2 0 0-.1 0-.1 0-.1-.1zm-2.4-.6c-.1-.1 0-.2 0-.2.1-.1.2 0 .2 0 .1.1 0 .2 0 .2h-.1s0 0-.1 0zm1.9 0c-.1-.1-.1-.2 0-.2.1-.1.2-.1.2 0 .1.1.1.2 0 .2s-.1 0-.2 0zm-1-.4c0-.1.1-.2.2-.2s.2.1.2.2-.1.2-.2.2-.2-.1-.2-.2z" fill="#999"/><path d="m55.2 23.9-.1-.1v-.1c.1-.1.2-.1.2 0v.1.1z" fill="#999"/><circle cx="54.1" cy="22.6" fill="#999" r="1.2"/><circle cx="54.1" cy="22.6" fill="#333" r=".8"/><circle cx="53.6" cy="23" fill="#e6e6e6" r=".2"/><path d="m54.8 21.6-.8 1 1.2-.3c0-.3-.2-.5-.4-.7z" fill="#333"/><path d="m52.9 22.9c.1.3.2.5.4.7l.8-1z" fill="#333"/><path d="m33.8 19.4h-19.9c-.4 0-.7-.3-.7-.7v-3.7c0-.4.3-.7.7-.7h19.9c.4 0 .7.3.7.7v3.6c0 .5-.3.8-.7.8zm-19.9-4.9c-.3 0-.5.2-.5.5v3.6c0 .3.2.5.5.5h19.9c.3 0 .5-.2.5-.5v-3.6c0-.3-.2-.5-.5-.5z" fill="#e6e6e6"/><path d="m33.8 25.1h-19.9c-.4 0-.7-.3-.7-.7v-3.6c0-.4.3-.7.7-.7h19.9c.4 0 .7.3.7.7v3.6c0 .4-.3.7-.7.7zm-19.9-4.8c-.3 0-.5.2-.5.5v3.6c0 .3.2.5.5.5h19.9c.3 0 .5-.2.5-.5v-3.6c0-.3-.2-.5-.5-.5z" fill="#e6e6e6"/><path d="m56.2 19.4h-19.9c-.4 0-.7-.3-.7-.7v-3.7c0-.4.3-.7.7-.7h19.9c.4 0 .7.3.7.7v3.6c0 .5-.3.8-.7.8zm-19.9-4.9c-.3 0-.5.2-.5.5v3.6c0 .3.2.5.5.5h19.9c.3 0 .5-.2.5-.5v-3.6c0-.3-.2-.5-.5-.5z" fill="#e6e6e6"/><path d="m56.2 25.1h-19.9c-.4 0-.7-.3-.7-.7v-3.6c0-.4.3-.7.7-.7h19.9c.4 0 .7.3.7.7v3.6c0 .4-.3.7-.7.7zm-19.9-4.8c-.3 0-.5.2-.5.5v3.6c0 .3.2.5.5.5h19.9c.3 0 .5-.2.5-.5v-3.6c0-.3-.2-.5-.5-.5z" fill="#e6e6e6"/><path d="m3.9 12.4h1.5v.5h-1.5z" fill="#f7931e"/><path d="m4.1 12.4h.3v.5h-.3z" fill="#333"/><path d="m7.1 12.4h1.5v.5h-1.5z" fill="#f7931e"/><path d="m7.3 12.4h.3v.5h-.3z" fill="#333"/><path d="m10.3 12.4h1.5v.5h-1.5z" fill="#f7931e"/><path d="m10.5 12.4h.3v.5h-.3z" fill="#333"/><path d="m13.4 12.4h1.5v.5h-1.5z" fill="#f7931e"/><path d="m13.6 12.4h.3v.5h-.3z" fill="#333"/></svg>