<svg enable-background="new 0 0 60 60" height="60" viewBox="0 0 60 60" width="60" xmlns="http://www.w3.org/2000/svg"><path d="m6 7.5h3v4.5h-3zm18 0h3v4.5h-3zm-6 0h3v4.5h-3zm-6 0h3v4.5h-3z" fill="#40494d"/><path d="m3 9h54v42h-54z" fill="#ff5a00"/><path d="m12.1 33.1h41.7v17.7h-41.7z" fill="#fff"/><path d="m53.7 33.3v17.4h-41.4v-17.4zm.3-.3h-42v18h42z"/><path d="m16.5 37.5h3v7.5h-3zm30 0h3v7.5h-3zm-6 0h3v7.5h-3zm-6 0h3v7.5h-3zm-12 0h3v7.5h-3z" fill="#222c30"/><path d="m16.5 39h3v-6h-3zm30 0h3v-6h-3zm-6 0h3v-6h-3zm-6 0h3v-6h-3zm-12 0h3v-6h-3z" fill="#40494d"/><path d="m6 45 1.5-1.5 1.5 1.5v3h-3z" fill="#222c30"/><path d="m6 42h3v3h-3z" fill="#647278"/><path d="m18 15h12v9h-12z" fill="#78cae6"/><path d="m6 36 1.5-1.5 1.5 1.5v3h-3z" fill="#222c30"/><path d="m6 33h3v3h-3z" fill="#647278"/><path d="m33.4 15.4c.6-.6 1.5-.6 2.1 0s.6 1.5 0 2.1-1.5.6-2.1 0c-.5-.5-.5-1.5 0-2.1z" fill="#40494d"/><path d="m13.7 16.3c1.8 1.8 1.8 4.6 0 6.4s-4.6 1.8-6.4 0-1.8-4.6 0-6.4c1.8-1.7 4.6-1.7 6.4 0z" fill="#40494d"/><path d="m10.1 16.9-.3 1.8-1.8.3c-.6-.6-.6-1.5 0-2.1.5-.5 1.5-.5 2.1 0z" fill="#222c30"/><path d="m10.1 16.9c.6.6.6 1.5 0 2.1s-1.5.6-2.1 0z" fill="#647278"/><g fill="#40494d"><path d="m39.4 15.4c.6-.6 1.5-.6 2.1 0s.6 1.5 0 2.1-1.5.6-2.1 0c-.5-.5-.5-1.5 0-2.1z"/><path d="m45.4 15.4c.6-.6 1.5-.6 2.1 0s.6 1.5 0 2.1-1.5.6-2.1 0c-.5-.5-.5-1.5 0-2.1z"/><path d="m51.4 15.4c.6-.6 1.5-.6 2.1 0s.6 1.5 0 2.1-1.5.6-2.1 0c-.5-.5-.5-1.5 0-2.1z"/><path d="m33.4 21.4c.6-.6 1.5-.6 2.1 0s.6 1.5 0 2.1-1.5.6-2.1 0c-.5-.5-.5-1.5 0-2.1z"/><path d="m39.4 21.4c.6-.6 1.5-.6 2.1 0s.6 1.5 0 2.1-1.5.6-2.1 0c-.5-.5-.5-1.5 0-2.1z"/><path d="m45.4 21.4c.6-.6 1.5-.6 2.1 0s.6 1.5 0 2.1-1.5.6-2.1 0c-.5-.5-.5-1.5 0-2.1z"/><path d="m51.4 21.4c.6-.6 1.5-.6 2.1 0s.6 1.5 0 2.1-1.5.6-2.1 0c-.5-.5-.5-1.5 0-2.1z"/></g><path d="m33 27h3v3h-3zm18 0h3v3h-3zm-6 0h3v3h-3zm-6 0h3v3h-3z" fill="#647278"/><path d="m24.4 27.4c.6-.6 1.5-.6 2.1 0s.6 1.5 0 2.1-1.5.6-2.1 0c-.5-.5-.5-1.5 0-2.1z" fill="#40494d"/><path d="m18.4 27.4c.6-.6 1.5-.6 2.1 0s.6 1.5 0 2.1-1.5.6-2.1 0c-.5-.5-.5-1.5 0-2.1z" fill="#40494d"/><path d="m0 7.5h3v28.5h-3zm57 0h3v28.5h-3z" fill="#e47a4a"/><path d="m0 33h3v19.5h-3zm57 0h3v19.5h-3z" fill="#ba643c"/></svg>