<svg enable-background="new 0 0 60 60" height="60" viewBox="0 0 60 60" width="60" xmlns="http://www.w3.org/2000/svg"><path d="m6 6h3v4.5h-3zm21 0h3v4.5h-3zm-6 0h3v4.5h-3zm-9 0h3v4.5h-3z" fill="#40494d"/><path d="m45 6h9v4.5h-9z" fill="#40494d"/><path clip-rule="evenodd" d="m3 7.5h54v28.5h-54z" fill="#ffd900" fill-rule="evenodd"/><path d="m0 6h3v30h-3zm57 0h3v30h-3z" fill="#9e5031"/><path clip-rule="evenodd" d="m3 33h54v3h-54z" fill="#d4b60f" fill-rule="evenodd"/><path d="m0 34.5h3v19.5h-3zm57 0h3v19.5h-3z" fill="#804026"/><path d="m3.1 34.6h53.7v17.7h-53.7z" fill="#fff"/><path d="m56.7 34.8v17.4h-53.4v-17.4zm.3-.3h-54v18h54z"/><path d="m6 39h3v7.5h-3zm22.5 0h3v7.5h-3zm-4.5 0h3v7.5h-3zm-4.5 0h3v7.5h-3zm-9 0h3v7.5h-3z" fill="#222c30"/><path d="m6 40.5h3v-6h-3zm22.5 0h3v-6h-3zm-4.5 0h3v-6h-3zm-4.5 0h3v-6h-3zm-9 0h3v-6h-3z" fill="#40494d"/><g fill="#222c30"><path d="m37.5 39h3v7.5h-3z"/><path d="m42 39h3v7.5h-3z"/><path d="m51 39h3v7.5h-3z"/></g><g fill="#40494d"><path d="m37.5 40.5h3v-6h-3z"/><path d="m42 40.5h3v-6h-3z"/><path d="m51 40.5h3v-6h-3z"/></g><path d="m6 21h3v-4.5l-1.5-2.2-1.5 2.2z" fill="#222c30"/><path d="m6 12h3v4.5h-3z" fill="#40494d"/><path d="m10.5 21h3v-4.5l-1.5-2.2-1.5 2.2z" fill="#222c30"/><path d="m10.5 12h3v4.5h-3z" fill="#40494d"/><path d="m38.6 15.4c.6.6.6 1.5 0 2.1s-1.5.6-2.1 0-.6-1.5 0-2.1c.5-.5 1.5-.5 2.1 0zm12 12c.6.6.6 1.5 0 2.1s-1.5.6-2.1 0-.6-1.5 0-2.1c.5-.5 1.5-.5 2.1 0zm-6 0c.6.6.6 1.5 0 2.1s-1.5.6-2.1 0-.6-1.5 0-2.1c.5-.5 1.5-.5 2.1 0zm-6 0c.6.6.6 1.5 0 2.1s-1.5.6-2.1 0-.6-1.5 0-2.1c.5-.5 1.5-.5 2.1 0zm-6 0c.6.6.6 1.5 0 2.1s-1.5.6-2.1 0-.6-1.5 0-2.1c.5-.5 1.5-.5 2.1 0zm-6 0c.6.6.6 1.5 0 2.1s-1.5.6-2.1 0-.6-1.5 0-2.1c.5-.5 1.5-.5 2.1 0zm-6 0c.6.6.6 1.5 0 2.1s-1.5.6-2.1 0-.6-1.5 0-2.1c.5-.5 1.5-.5 2.1 0zm30-6c.6.6.6 1.5 0 2.1s-1.5.6-2.1 0-.6-1.5 0-2.1c.5-.5 1.5-.5 2.1 0zm-6 0c.6.6.6 1.5 0 2.1s-1.5.6-2.1 0-.6-1.5 0-2.1c.5-.5 1.5-.5 2.1 0zm-6 0c.6.6.6 1.5 0 2.1s-1.5.6-2.1 0-.6-1.5 0-2.1c.5-.5 1.5-.5 2.1 0zm-6 0c.6.6.6 1.5 0 2.1s-1.5.6-2.1 0-.6-1.5 0-2.1c.5-.5 1.5-.5 2.1 0zm-6 0c.6.6.6 1.5 0 2.1s-1.5.6-2.1 0-.6-1.5 0-2.1c.5-.5 1.5-.5 2.1 0zm-6 0c.6.6.6 1.5 0 2.1s-1.5.6-2.1 0-.6-1.5 0-2.1c.5-.5 1.5-.5 2.1 0zm30-6c.6.6.6 1.5 0 2.1s-1.5.6-2.1 0-.6-1.5 0-2.1c.5-.5 1.5-.5 2.1 0zm-6 0c.6.6.6 1.5 0 2.1s-1.5.6-2.1 0-.6-1.5 0-2.1c.5-.5 1.5-.5 2.1 0z" fill="#40494d"/><path clip-rule="evenodd" d="m36 12h3v1.5h-3zm12 0h3v1.5h-3zm-6 0h3v1.5h-3z" fill="#647278" fill-rule="evenodd"/><path d="m18 12h15v6h-15z" fill="#222c30"/><path clip-rule="evenodd" d="m18 12h2.3l6 6h-2.3zm3.5 0h1.2l6 6h-1.2z" fill="#647278" fill-rule="evenodd"/><path clip-rule="evenodd" d="m6 22.5h1.5l1.1.4.4 1.1h-3zm0 3h3v1.5h-3zm4.5 0 1.5.7v.8h-1.5zm-4.5 3h3v1.5h-3zm4.5 0h3v1.5h-3z" fill="#647278" fill-rule="evenodd"/><path d="m7.5 22.5h1.5v1.5zm4.5 4.5-1.5-1.5h3v1.5zm-1.5-4.5h3v1.5h-3z" fill="#40494d"/></svg>