<svg enable-background="new 0 0 60 60" height="60" viewBox="0 0 60 60" width="60" xmlns="http://www.w3.org/2000/svg"><path d="m0 7.7h60v44.6h-60z" fill="#ff5a00"/><g fill="#fff"><circle cx="4.3" cy="25.1" r=".9"/><circle cx="4.3" cy="21.5" r=".9"/><circle cx="4.3" cy="28.7" r=".9"/><circle cx="4.3" cy="32.3" r=".9"/><path d="m4.3 18.7c-.5 0-1-.4-1-1s.4-1 1-1 1 .4 1 1-.4 1-1 1zm0-1.6c-.4 0-.7.3-.7.7s.3.7.7.7.7-.4.7-.8c0-.3-.3-.6-.7-.6z"/><circle cx="8.9" cy="25.1" r=".9"/><circle cx="8.9" cy="21.5" r=".9"/><circle cx="8.9" cy="28.7" r=".9"/><circle cx="8.9" cy="32.3" r=".9"/><path d="m8.9 18.7c-.5 0-1-.4-1-1s.4-1 1-1c.5 0 1 .4 1 1s-.4 1-1 1zm0-1.6c-.4 0-.7.3-.7.7s.3.7.7.7.7-.3.7-.7-.3-.7-.7-.7z"/><circle cx="13.5" cy="25.1" r=".9"/><circle cx="13.5" cy="21.5" r=".9"/><circle cx="13.5" cy="28.7" r=".9"/><circle cx="13.5" cy="32.3" r=".9"/><path d="m13.5 18.7c-.5 0-1-.4-1-1s.4-1 1-1c.5 0 1 .4 1 1s-.4 1-1 1zm0-1.6c-.4 0-.7.3-.7.7s.3.7.7.7.7-.3.7-.7-.3-.7-.7-.7z"/><circle cx="18.1" cy="25.1" r=".9"/><circle cx="18.1" cy="21.5" r=".9"/><circle cx="18.1" cy="28.7" r=".9"/><circle cx="18.1" cy="32.3" r=".9"/><path d="m18.1 18.7c-.5 0-1-.4-1-1s.4-1 1-1c.5 0 1 .4 1 1s-.4 1-1 1zm0-1.6c-.4 0-.7.3-.7.7s.3.7.7.7.7-.3.7-.7-.3-.7-.7-.7z"/><circle cx="22.7" cy="25.1" r=".9"/><circle cx="22.7" cy="21.5" r=".9"/><circle cx="22.7" cy="28.7" r=".9"/><circle cx="22.7" cy="32.3" r=".9"/><path d="m22.7 18.7c-.5 0-1-.4-1-1s.4-1 1-1 1 .4 1 1-.4 1-1 1zm0-1.6c-.4 0-.7.3-.7.7s.3.7.7.7.7-.3.7-.7-.3-.7-.7-.7z"/><circle cx="27.4" cy="25.1" r=".9"/><circle cx="27.4" cy="21.5" r=".9"/><circle cx="27.4" cy="28.7" r=".9"/><circle cx="27.4" cy="32.3" r=".9"/><path d="m27.4 18.7c-.5 0-1-.4-1-1s.4-1 1-1c.5 0 1 .4 1 1s-.5 1-1 1zm0-1.6c-.4 0-.7.3-.7.7s.3.7.7.7.7-.3.7-.7c-.1-.4-.4-.7-.7-.7z"/><circle cx="32" cy="25.1" r=".9"/><circle cx="32" cy="21.5" r=".9"/><circle cx="32" cy="28.7" r=".9"/><circle cx="32" cy="32.3" r=".9"/><path d="m32 18.7c-.5 0-1-.4-1-1s.4-1 1-1 1 .4 1 1-.5 1-1 1zm0-1.6c-.4 0-.7.3-.7.7s.3.7.7.7.7-.3.7-.7c-.1-.4-.4-.7-.7-.7z"/><path d="m5.5 42.3h-.6v-5.7c0-.3-.3-.5-.6-.5s-.6.2-.6.5v5.7h-.5c-.1 0-.2.2-.2.5s.1.5.2.5h.5v5.7c0 .3.3.5.6.5s.6-.2.6-.5v-5.6h.5c.1 0 .2-.2.2-.5 0-.4 0-.6-.1-.6z"/><path d="m10.1 42.3h-.6v-5.7c0-.3-.3-.5-.6-.5s-.6.2-.6.5v5.7h-.5c-.1 0-.2.2-.2.5s.1.5.2.5h.5v5.7c0 .3.3.5.6.5s.6-.2.6-.5v-5.6h.5c.1 0 .2-.2.2-.5 0-.4 0-.6-.1-.6z"/><path d="m14.7 42.3h-.5v-5.7c0-.3-.3-.5-.6-.5s-.6.2-.6.5v5.7h-.5c-.1 0-.2.2-.2.5s.1.5.2.5h.5v5.7c0 .3.3.5.6.5s.6-.2.6-.5v-5.6h.5c.1 0 .2-.2.2-.5-.1-.4-.1-.6-.2-.6z"/><path d="m19.3 42.3h-.5v-5.7c0-.3-.3-.5-.6-.5s-.6.2-.6.5v5.7h-.6c-.1 0-.2.2-.2.5s.1.5.2.5h.5v5.7c0 .3.3.5.6.5s.6-.2.6-.5v-5.6h.5c.1 0 .2-.2.2-.5 0-.4 0-.6-.1-.6z"/><path d="m23.9 42.3h-.5v-5.7c0-.3-.3-.5-.6-.5s-.6.2-.6.5v5.7h-.5c-.1 0-.2.2-.2.5s.1.5.2.5h.5v5.7c0 .3.3.5.6.5s.6-.2.6-.5v-5.6h.5c.1 0 .2-.2.2-.5-.1-.4-.1-.6-.2-.6z"/><path d="m28.5 42.3h-.5v-5.7c0-.3-.3-.5-.6-.5s-.6.2-.6.5v5.7h-.5c-.1 0-.2.2-.2.5s.1.5.2.5h.5v5.7c0 .3.3.5.6.5s.6-.2.6-.5v-5.6h.5c.1 0 .2-.2.2-.5-.1-.4-.1-.6-.2-.6z"/><path d="m33.1 42.3h-.5v-5.7c0-.3-.3-.5-.6-.5s-.6.2-.6.5v5.7h-.5c-.1 0-.2.2-.2.5s.1.5.2.5h.5v5.7c0 .3.3.5.6.5s.6-.2.6-.5v-5.6h.5c.1 0 .2-.2.2-.5-.1-.4-.1-.6-.2-.6z"/><path d="m42.3 42.3h-.5v-5.7c0-.3-.3-.5-.6-.5s-.6.2-.6.5v5.7h-.6c-.1 0-.2.2-.2.5s.1.5.2.5h.5v5.6c0 .3.3.5.6.5s.6-.2.6-.5v-5.6h.5c.1 0 .2-.2.2-.5s0-.5-.1-.5z"/><path d="m46.9 42.4h-.5v-5.7c0-.3-.3-.5-.6-.5s-.6.2-.6.5v5.7h-.5c-.1 0-.2.2-.2.5s.1.5.2.5h.5v5.6c0 .3.3.5.6.5s.6-.2.6-.5v-5.6h.5c.1 0 .2-.2.2-.5s-.1-.5-.2-.5z"/><path d="m51.5 42.3h-.5v-5.7c0-.3-.3-.5-.6-.5s-.6.2-.6.5v5.7h-.5c-.1 0-.2.2-.2.5s.1.5.2.5h.5v5.7c0 .3.3.5.6.5s.6-.2.6-.5v-5.6h.5c.1 0 .2-.2.2-.5-.1-.4-.1-.6-.2-.6z"/><path d="m56.1 42.4h-.5v-5.7c0-.3-.3-.5-.6-.5s-.6.2-.6.5v5.7h-.5c-.1 0-.2.2-.2.5s.1.5.2.5h.5v5.6c0 .3.3.5.6.5s.6-.2.6-.5v-5.6h.5c.1 0 .2-.2.2-.5s-.1-.5-.2-.5z"/><path d="m37.7 42.3h-.5v-5.7c0-.3-.3-.5-.6-.5s-.6.2-.6.5v5.7h-.5c-.1 0-.2.2-.2.5s.1.5.2.5h.5v5.7c0 .3.3.5.6.5s.6-.2.6-.5v-5.6h.5c.1 0 .2-.2.2-.5-.1-.4-.1-.6-.2-.6z"/><circle cx="36.6" cy="25.1" r=".9"/><circle cx="36.6" cy="21.5" r=".9"/><circle cx="36.6" cy="28.7" r=".9"/><circle cx="36.6" cy="32.3" r=".9"/><path d="m36.6 18.7c-.5 0-1-.4-1-1s.4-1 1-1 1 .4 1 1-.5 1-1 1zm0-1.6c-.4 0-.7.3-.7.7s.3.7.7.7.7-.3.7-.7c-.1-.4-.4-.7-.7-.7z"/><path d="m4.3 15.7c-.5 0-1-.4-1-1 0-.5.4-1 1-1s1 .4 1 1-.5 1-1 1zm0-1.6c-.4 0-.7.3-.7.7s.3.7.7.7.7-.4.7-.8-.3-.6-.7-.6z"/><path d="m8.9 15.7c-.5 0-1-.4-1-1 0-.5.4-1 1-1 .5 0 1 .4 1 1s-.5 1-1 1zm0-1.6c-.4 0-.7.3-.7.7s.3.7.7.7.7-.3.7-.7-.3-.7-.7-.7z"/><path d="m13.5 15.7c-.5 0-1-.4-1-1 0-.5.4-1 1-1 .5 0 1 .4 1 1s-.5 1-1 1zm0-1.6c-.4 0-.7.3-.7.7s.3.7.7.7.7-.3.7-.7-.3-.7-.7-.7z"/><path d="m18.1 15.7c-.5 0-1-.4-1-1 0-.5.4-1 1-1 .5 0 1 .4 1 1s-.5 1-1 1zm0-1.6c-.4 0-.7.3-.7.7s.3.7.7.7.7-.3.7-.7-.3-.7-.7-.7z"/><path d="m22.7 15.7c-.5 0-1-.4-1-1 0-.5.4-1 1-1s1 .4 1 1-.5 1-1 1zm0-1.6c-.4 0-.7.3-.7.7s.3.7.7.7.7-.3.7-.7-.3-.7-.7-.7z"/><path d="m27.3 15.7c-.5 0-1-.4-1-1 0-.5.4-1 1-1 .5 0 1 .4 1 1s-.4 1-1 1zm0-1.6c-.4 0-.7.3-.7.7s.3.7.7.7.7-.3.7-.7-.3-.7-.7-.7z"/><path d="m31.9 15.7c-.5 0-1-.4-1-1 0-.5.4-1 1-1 .5 0 1 .4 1 1s-.4 1-1 1zm0-1.6c-.4 0-.7.3-.7.7s.3.7.7.7.7-.3.7-.7-.3-.7-.7-.7z"/><path d="m36.5 15.7c-.5 0-1-.4-1-1 0-.5.4-1 1-1s1 .4 1 1-.4 1-1 1zm0-1.6c-.4 0-.7.3-.7.7s.3.7.7.7.7-.3.7-.7-.3-.7-.7-.7z"/><path d="m41.4 18.7c-.5 0-1-.4-1-1s.4-1 1-1 1 .4 1 1-.5 1-1 1zm0-1.6c-.4 0-.7.3-.7.7s.3.7.7.7.7-.3.7-.7-.3-.7-.7-.7z"/><path d="m46 18.7c-.5 0-1-.4-1-1s.4-1 1-1 1 .4 1 1-.5 1-1 1zm0-1.6c-.4 0-.7.3-.7.7s.3.7.7.7.7-.3.7-.7-.3-.7-.7-.7z"/><path d="m50.6 18.7c-.5 0-1-.4-1-1s.4-1 1-1c.5 0 1 .4 1 1s-.5 1-1 1zm0-1.6c-.4 0-.7.3-.7.7s.3.7.7.7.7-.3.7-.7-.3-.7-.7-.7z"/><path d="m55.2 18.7c-.5 0-1-.4-1-1s.4-1 1-1 1 .4 1 1-.5 1-1 1zm0-1.6c-.4 0-.7.3-.7.7s.3.7.7.7.7-.3.7-.7-.3-.7-.7-.7z"/><path d="m41.4 15.7c-.5 0-1-.4-1-1 0-.5.4-1 1-1 .5 0 1 .4 1 1-.1.6-.5 1-1 1zm0-1.6c-.4 0-.7.3-.7.7s.3.7.7.7.7-.3.7-.7-.4-.7-.7-.7z"/><path d="m46 15.7c-.5 0-1-.4-1-1 0-.5.4-1 1-1s1 .4 1 1c-.1.6-.5 1-1 1zm0-1.6c-.4 0-.7.3-.7.7s.3.7.7.7.7-.3.7-.7-.4-.7-.7-.7z"/><path d="m50.6 15.7c-.5 0-1-.4-1-1 0-.5.4-1 1-1s1 .4 1 1c-.1.6-.5 1-1 1zm0-1.6c-.4 0-.7.3-.7.7s.3.7.7.7.7-.3.7-.7-.3-.7-.7-.7z"/><path d="m55.2 15.7c-.5 0-1-.4-1-1 0-.5.4-1 1-1 .5 0 1 .4 1 1-.1.6-.5 1-1 1zm0-1.6c-.4 0-.7.3-.7.7s.3.7.7.7.7-.3.7-.7-.3-.7-.7-.7z"/><path d="m54.3 25.1h1.2v.4h-1.2z"/><path d="m54.3 23.7h1.2v.4h-1.2z"/><path d="m54.3 22.4h1.2v.4h-1.2z"/><path d="m54.3 26.5h1.2v.4h-1.2z"/><path d="m54.3 27.9h1.2v.4h-1.2z"/><path d="m54.3 29.2h1.2v.4h-1.2z"/><path d="m54.3 30.6h1.2v.4h-1.2z"/><path d="m54.3 32h1.2v.4h-1.2z"/><path d="m49.7 25.1h1.2v.4h-1.2z"/><path d="m49.7 23.7h1.2v.4h-1.2z"/><path d="m49.7 22.4h1.2v.4h-1.2z"/><path d="m49.7 26.5h1.2v.4h-1.2z"/><path d="m49.7 27.9h1.2v.4h-1.2z"/><path d="m49.7 29.2h1.2v.4h-1.2z"/><path d="m49.7 30.6h1.2v.4h-1.2z"/><path d="m49.7 32h1.2v.4h-1.2z"/><path d="m40.4 22.4h.5v5.3h-.5z"/><path d="m41.5 22.4h.5v5.3h-.5z"/><path d="m42.5 22.4h.5v5.3h-.5z"/><path d="m43.5 22.4h.5v5.3h-.5z"/><path d="m44.5 22.4h.5v5.3h-.5z"/><path d="m45.5 22.4h.5v5.3h-.5z"/><path d="m46.5 22.4h.5v5.3h-.5z"/><circle cx="41.2" cy="30.7" r=".6"/><circle cx="43.8" cy="30.7" r=".6"/><circle cx="41.2" cy="32.6" r=".6"/><circle cx="43.8" cy="32.6" r=".6"/><circle cx="46.3" cy="30.7" r=".6"/><circle cx="46.3" cy="32.6" r=".6"/><circle cx="4.5" cy="11" r="1.2"/></g><g fill="#ff5a00"><circle cx="4.5" cy="11.5" r=".3"/><circle cx="4" cy="10.8" r=".3"/><circle cx="5" cy="10.8" r=".3"/></g><circle cx="8.7" cy="11" fill="#fff" r="1.2"/><g fill="#ff5a00"><circle cx="8.7" cy="11.5" r=".3"/><circle cx="8.2" cy="10.8" r=".3"/><circle cx="9.2" cy="10.8" r=".3"/></g><circle cx="12.9" cy="11" fill="#fff" r="1.2"/><circle cx="12.9" cy="11.5" fill="#ff5a00" r=".3"/><circle cx="12.4" cy="10.8" fill="#ff5a00" r=".3"/><circle cx="13.4" cy="10.8" fill="#ff5a00" r=".3"/><circle cx="17" cy="11" fill="#fff" r="1.2"/><circle cx="17" cy="11.5" fill="#ff5a00" r=".3"/><circle cx="16.5" cy="10.8" fill="#ff5a00" r=".3"/><circle cx="17.5" cy="10.8" fill="#ff5a00" r=".3"/><circle cx="21.2" cy="11" fill="#fff" r="1.2"/><circle cx="21.2" cy="11.5" fill="#ff5a00" r=".3"/><circle cx="20.7" cy="10.8" fill="#ff5a00" r=".3"/><circle cx="21.7" cy="10.8" fill="#ff5a00" r=".3"/><circle cx="25.4" cy="11" fill="#fff" r="1.2"/><circle cx="25.4" cy="11.5" fill="#ff5a00" r=".3"/><circle cx="24.9" cy="10.8" fill="#ff5a00" r=".3"/><circle cx="25.9" cy="10.8" fill="#ff5a00" r=".3"/><circle cx="29.6" cy="11" fill="#fff" r="1.2"/><circle cx="29.6" cy="11.5" fill="#ff5a00" r=".3"/><circle cx="29.1" cy="10.8" fill="#ff5a00" r=".3"/><circle cx="30.1" cy="10.8" fill="#ff5a00" r=".3"/><circle cx="33.8" cy="11" fill="#fff" r="1.2"/><circle cx="33.8" cy="11.5" fill="#ff5a00" r=".3"/><circle cx="33.3" cy="10.8" fill="#ff5a00" r=".3"/><circle cx="34.3" cy="10.8" fill="#ff5a00" r=".3"/><circle cx="38" cy="11" fill="#fff" r="1.2"/><circle cx="38" cy="11.5" fill="#ff5a00" r=".3"/><circle cx="37.5" cy="10.8" fill="#ff5a00" r=".3"/><circle cx="38.5" cy="10.8" fill="#ff5a00" r=".3"/><circle cx="42.1" cy="11" fill="#fff" r="1.2"/><circle cx="42.1" cy="11.5" fill="#ff5a00" r=".3"/><circle cx="41.6" cy="10.8" fill="#ff5a00" r=".3"/><circle cx="42.6" cy="10.8" fill="#ff5a00" r=".3"/><circle cx="46.3" cy="11" fill="#fff" r="1.2"/><circle cx="46.3" cy="11.5" fill="#ff5a00" r=".3"/><circle cx="45.8" cy="10.8" fill="#ff5a00" r=".3"/><circle cx="46.8" cy="10.8" fill="#ff5a00" r=".3"/><circle cx="50.5" cy="11" fill="#fff" r="1.2"/><circle cx="50.5" cy="11.5" fill="#ff5a00" r=".3"/><circle cx="50" cy="10.8" fill="#ff5a00" r=".3"/><circle cx="51" cy="10.8" fill="#ff5a00" r=".3"/><circle cx="55.2" cy="11" fill="#fff" r="1.2"/><circle cx="55.2" cy="11.5" fill="#ff5a00" r=".3"/><circle cx="54.7" cy="10.8" fill="#ff5a00" r=".3"/><circle cx="55.7" cy="10.8" fill="#ff5a00" r=".3"/></svg>