<svg enable-background="new 0 0 60 60" height="60" viewBox="0 0 60 60" width="60" xmlns="http://www.w3.org/2000/svg"><path d="m4.2.8h3.3v3.3h-3.3zm48.3 0h3.3v3.3h-3.3zm-5 0h3.3v3.3h-3.3zm-8.3 0h3.3v3.3h-3.3zm-5 0h3.3v3.3h-3.3zm-5 0h3.3v3.3h-3.3zm-5 0h3.3v3.3h-3.3zm-5 0h3.3v3.3h-3.3zm-5 0h3.3v3.3h-3.3zm-5 0h3.3v3.3h-3.3z" fill="#40494d"/><path d="m.2 2.7h59.7v53h-59.7z" fill="#af8424"/><path d="m59.7 2.8v52.7h-59.4v-52.7zm.3-.3h-60v53.3h60z"/><path d="m5 50.8h1.7v-16.6h-1.7zm5-2.5h1.7v-10h-1.7zm5 2.5h1.7v-7.5h-1.7z" fill="#40494d"/><path d="m53.3 50.8h1.7v-16.6h-1.7zm-33.3-.8.8-.8-.8-.9v-14.1h1.7v16.7h-1.7zm-3.3-5-1.7-1.7v-9.2h1.7zm-5-5-1.7-1.7v-4.2h1.2l.5.5zm0 8.3-1.7-1.6v4.2h1.7zm-5-3.3-1.7 1.7v1.7l1.7 1.6zm18.3 5.8h1.7v-16.6h-1.7zm5 0h1.7v-16.6h-1.7zm5 0h1.7v-16.6h-1.7zm5 0h1.7v-16.6h-1.7zm8.3 0h1.7v-16.6h-1.7z" fill="#222c30"/><path d="m9.2 34.2h3.3v1.6l-1.7 1.7-1.6-1.7z" fill="#e6e6e6"/><path d="m9.2 35.8h3.3v1.7h-3.3z" fill="#fff"/><path d="m5.8 5.8c.9 0 1.7.7 1.7 1.7 0 .9-.7 1.7-1.7 1.7s-1.6-.8-1.6-1.7.7-1.7 1.6-1.7zm35 0c.9 0 1.7.7 1.7 1.7 0 .9-.7 1.7-1.7 1.7-.9 0-1.7-.7-1.7-1.7.1-.9.8-1.7 1.7-1.7zm-4.8 0c.9 0 1.7.7 1.7 1.7 0 .9-.7 1.7-1.7 1.7-.9 0-1.7-.7-1.7-1.7 0-.9.8-1.7 1.7-1.7zm-5.2 0c.9 0 1.7.7 1.7 1.7 0 .9-.7 1.7-1.7 1.7-.9 0-1.7-.7-1.7-1.7.1-.9.8-1.7 1.7-1.7zm-5 0c.9 0 1.7.7 1.7 1.7 0 .9-.7 1.7-1.7 1.7-.9 0-1.7-.7-1.7-1.7.1-.9.8-1.7 1.7-1.7zm-5 0c.9 0 1.7.7 1.7 1.7 0 .9-.7 1.7-1.7 1.7-.9 0-1.7-.7-1.7-1.7.1-.9.8-1.7 1.7-1.7zm-4.8 0c.9 0 1.7.7 1.7 1.7 0 .9-.7 1.7-1.7 1.7-.9 0-1.7-.7-1.7-1.7 0-.9.8-1.7 1.7-1.7zm-5.2 0c.9 0 1.7.7 1.7 1.7 0 .9-.7 1.7-1.7 1.7-.9 0-1.7-.7-1.7-1.7.1-.9.8-1.7 1.7-1.7z" fill="#222c30"/><path d="m4.2 44.2h3.3v1.6l-1.7 1.7-1.6-1.7z" fill="#e6e6e6"/><path d="m4.2 45.8h3.3v1.7h-3.3z" fill="#fff"/><path d="m14.2 37.5h3.3v1.7l-1.7 1.6-1.6-1.6z" fill="#e6e6e6"/><path d="m14.2 39.2h3.3v1.6h-3.3z" fill="#fff"/><path d="m19.2 47.5h3.3v1.7l-1.7 1.6-1.6-1.6z" fill="#e6e6e6"/><path d="m19.2 49.2h3.3v1.6h-3.3z" fill="#fff"/><path d="m24.2 45.8h3.3v1.7l-1.7 1.7-1.6-1.7z" fill="#e6e6e6"/><path d="m24.2 47.5h3.3v1.7h-3.3z" fill="#fff"/><path d="m29.2 40.8h3.3v1.7l-1.7 1.7-1.6-1.7z" fill="#e6e6e6"/><path d="m29.2 42.5h3.3v1.7h-3.3z" fill="#fff"/><path d="m34.2 37.5h3.3v1.7l-1.7 1.6-1.6-1.6z" fill="#e6e6e6"/><path d="m34.2 39.2h3.3v1.6h-3.3z" fill="#fff"/><path d="m39.2 44.2h3.3v1.6l-1.7 1.7-1.6-1.7z" fill="#e6e6e6"/><path d="m39.2 45.8h3.3v1.7h-3.3z" fill="#fff"/><path d="m47.5 34.2h3.3v1.6l-1.6 1.7-1.7-1.7z" fill="#e6e6e6"/><path d="m47.5 35.8h3.3v1.7h-3.3z" fill="#fff"/><path d="m52.5 34.2h3.3v1.6l-1.6 1.7-1.7-1.7z" fill="#e6e6e6"/><path d="m52.5 35.8h3.3v1.7h-3.3z" fill="#fff"/><path d="m46.7 5.8h10v5h-10z" fill="#9fc439"/><path d="m0 54.2h60v1.7c0 1.8-1.5 3.3-3.3 3.3h-53.4c-1.8 0-3.3-1.5-3.3-3.3z" fill="#78cae6"/><path d="m6.4 12.7c-.3-.3-.9-.3-1.2 0s-.3.9 0 1.2.9.3 1.2 0 .3-.8 0-1.2zm0 6.7c-.3-.3-.9-.3-1.2 0s-.3.9 0 1.2.9.3 1.2 0 .3-.9 0-1.2zm48.4 0c-.3-.3-.9-.3-1.2 0s-.3.9 0 1.2.9.3 1.2 0 .3-.9 0-1.2zm-5 0c-.3-.3-.9-.3-1.2 0s-.3.9 0 1.2.9.3 1.2 0 .3-.9 0-1.2zm-8.4 0c-.3-.3-.9-.3-1.2 0s-.3.9 0 1.2.9.3 1.2 0 .3-.9 0-1.2zm-5 0c-.3-.3-.9-.3-1.2 0s-.3.9 0 1.2.9.3 1.2 0 .3-.9 0-1.2zm-5 0c-.3-.3-.9-.3-1.2 0s-.3.9 0 1.2.9.3 1.2 0 .3-.9 0-1.2zm-5 0c-.3-.3-.9-.3-1.2 0s-.3.9 0 1.2.9.3 1.2 0 .3-.9 0-1.2zm-5 0c-.3-.3-.9-.3-1.2 0s-.3.9 0 1.2.9.3 1.2 0 .3-.9 0-1.2zm-5 0c-.3-.3-.9-.3-1.2 0s-.3.9 0 1.2.9.3 1.2 0 .3-.9 0-1.2zm-5 0c-.3-.3-.9-.3-1.2 0s-.3.9 0 1.2.9.3 1.2 0 .3-.9 0-1.2zm-5-3.3c-.3-.3-.9-.3-1.2 0s-.3.9 0 1.2.9.3 1.2 0c.3-.4.3-.9 0-1.2zm48.4 0c-.3-.3-.9-.3-1.2 0s-.3.9 0 1.2.9.3 1.2 0c.3-.4.3-.9 0-1.2zm-5 0c-.3-.3-.9-.3-1.2 0s-.3.9 0 1.2.9.3 1.2 0c.3-.4.3-.9 0-1.2zm-8.4 0c-.3-.3-.9-.3-1.2 0s-.3.9 0 1.2.9.3 1.2 0c.3-.4.3-.9 0-1.2zm-5 0c-.3-.3-.9-.3-1.2 0s-.3.9 0 1.2.9.3 1.2 0c.3-.4.3-.9 0-1.2zm-5 0c-.3-.3-.9-.3-1.2 0s-.3.9 0 1.2.9.3 1.2 0c.3-.4.3-.9 0-1.2zm-5 0c-.3-.3-.9-.3-1.2 0s-.3.9 0 1.2.9.3 1.2 0c.3-.4.3-.9 0-1.2zm-5 0c-.3-.3-.9-.3-1.2 0s-.3.9 0 1.2.9.3 1.2 0c.3-.4.3-.9 0-1.2zm-5 0c-.3-.3-.9-.3-1.2 0s-.3.9 0 1.2.9.3 1.2 0c.3-.4.3-.9 0-1.2zm-5 0c-.3-.3-.9-.3-1.2 0s-.3.9 0 1.2.9.3 1.2 0c.3-.4.3-.9 0-1.2zm43.4-3.4c-.3-.3-.9-.3-1.2 0s-.3.9 0 1.2.9.3 1.2 0 .3-.8 0-1.2zm-5 0c-.3-.3-.9-.3-1.2 0s-.3.9 0 1.2.9.3 1.2 0 .3-.8 0-1.2zm-8.4 0c-.3-.3-.9-.3-1.2 0s-.3.9 0 1.2.9.3 1.2 0 .3-.8 0-1.2zm-5 0c-.3-.3-.9-.3-1.2 0s-.3.9 0 1.2.9.3 1.2 0 .3-.8 0-1.2zm-5 0c-.3-.3-.9-.3-1.2 0s-.3.9 0 1.2.9.3 1.2 0 .3-.8 0-1.2zm-5 0c-.3-.3-.9-.3-1.2 0s-.3.9 0 1.2.9.3 1.2 0 .3-.8 0-1.2zm-5 0c-.3-.3-.9-.3-1.2 0s-.3.9 0 1.2.9.3 1.2 0 .3-.8 0-1.2zm-5 0c-.3-.3-.9-.3-1.2 0s-.3.9 0 1.2.9.3 1.2 0 .3-.8 0-1.2zm-5 0c-.3-.3-.9-.3-1.2 0s-.3.9 0 1.2.9.3 1.2 0 .3-.8 0-1.2z" fill="#40494d"/><path d="m6.4 22.7c-.3-.3-.9-.3-1.2 0s-.3.9 0 1.2.9.3 1.2 0 .3-.8 0-1.2zm48.4 0c-.3-.3-.9-.3-1.2 0s-.3.9 0 1.2.9.3 1.2 0 .3-.8 0-1.2zm-5 0c-.3-.3-.9-.3-1.2 0s-.3.9 0 1.2.9.3 1.2 0 .3-.8 0-1.2zm-8.4 0c-.3-.3-.9-.3-1.2 0s-.3.9 0 1.2.9.3 1.2 0 .3-.8 0-1.2zm-5 0c-.3-.3-.9-.3-1.2 0s-.3.9 0 1.2.9.3 1.2 0 .3-.8 0-1.2zm-5 0c-.3-.3-.9-.3-1.2 0s-.3.9 0 1.2.9.3 1.2 0 .3-.8 0-1.2zm-5 0c-.3-.3-.9-.3-1.2 0s-.3.9 0 1.2.9.3 1.2 0 .3-.8 0-1.2zm-5 0c-.3-.3-.9-.3-1.2 0s-.3.9 0 1.2.9.3 1.2 0 .3-.8 0-1.2zm-5 0c-.3-.3-.9-.3-1.2 0s-.3.9 0 1.2.9.3 1.2 0 .3-.8 0-1.2zm-5 0c-.3-.3-.9-.3-1.2 0s-.3.9 0 1.2.9.3 1.2 0 .3-.8 0-1.2z" fill="#d64564"/><path d="m6.4 26.1c-.3-.3-.9-.3-1.2 0s-.3.9 0 1.2.9.3 1.2 0c.3-.4.3-.9 0-1.2zm48.4 0c-.3-.3-.9-.3-1.2 0s-.3.9 0 1.2.9.3 1.2 0c.3-.4.3-.9 0-1.2zm-5 0c-.3-.3-.9-.3-1.2 0s-.3.9 0 1.2.9.3 1.2 0c.3-.4.3-.9 0-1.2zm-8.4 0c-.3-.3-.9-.3-1.2 0s-.3.9 0 1.2.9.3 1.2 0c.3-.4.3-.9 0-1.2zm-5 0c-.3-.3-.9-.3-1.2 0s-.3.9 0 1.2.9.3 1.2 0c.3-.4.3-.9 0-1.2zm-5 0c-.3-.3-.9-.3-1.2 0s-.3.9 0 1.2.9.3 1.2 0c.3-.4.3-.9 0-1.2zm-5 0c-.3-.3-.9-.3-1.2 0s-.3.9 0 1.2.9.3 1.2 0c.3-.4.3-.9 0-1.2zm-5 0c-.3-.3-.9-.3-1.2 0s-.3.9 0 1.2.9.3 1.2 0c.3-.4.3-.9 0-1.2zm-5 0c-.3-.3-.9-.3-1.2 0s-.3.9 0 1.2.9.3 1.2 0c.3-.4.3-.9 0-1.2zm-5 0c-.3-.3-.9-.3-1.2 0s-.3.9 0 1.2.9.3 1.2 0c.3-.4.3-.9 0-1.2z" fill="#ffd900"/><path d="m6.4 29.4c-.3-.3-.9-.3-1.2 0s-.3.9 0 1.2.9.3 1.2 0 .3-.9 0-1.2zm48.4 0c-.3-.3-.9-.3-1.2 0s-.3.9 0 1.2.9.3 1.2 0 .3-.9 0-1.2zm-5 0c-.3-.3-.9-.3-1.2 0s-.3.9 0 1.2.9.3 1.2 0 .3-.9 0-1.2zm-8.4 0c-.3-.3-.9-.3-1.2 0s-.3.9 0 1.2.9.3 1.2 0 .3-.9 0-1.2zm-5 0c-.3-.3-.9-.3-1.2 0s-.3.9 0 1.2.9.3 1.2 0 .3-.9 0-1.2zm-5 0c-.3-.3-.9-.3-1.2 0s-.3.9 0 1.2.9.3 1.2 0 .3-.9 0-1.2zm-5 0c-.3-.3-.9-.3-1.2 0s-.3.9 0 1.2.9.3 1.2 0 .3-.9 0-1.2zm-5 0c-.3-.3-.9-.3-1.2 0s-.3.9 0 1.2.9.3 1.2 0 .3-.9 0-1.2zm-5 0c-.3-.3-.9-.3-1.2 0s-.3.9 0 1.2.9.3 1.2 0 .3-.9 0-1.2zm-5 0c-.3-.3-.9-.3-1.2 0s-.3.9 0 1.2.9.3 1.2 0 .3-.9 0-1.2z" fill="#fff"/></svg>