<svg height="60" width="60" xmlns="http://www.w3.org/2000/svg"><path clip-rule="evenodd" d="m55.7 37-.37 9.3-28.83 12.9-22.4-22.47.72-28.13z" fill-rule="evenodd"/><path d="m3.92 36.9-.08-.05.73-28.7 51.23 28.63.15.07-.36 9.62-29 12.97-.16.08-22.52-22.6zm51.5.25-50.36-28.13-.7 27.6 22.2 22.27 28.52-12.8.34-8.98z" fill="#fff"/><path clip-rule="evenodd" d="m26.86 48.85 28.67-11.88-21-36.67-29.87 8.26z" fill-rule="evenodd"/><path d="m4.27 8.4 30.38-8.4 21.25 37.1-29.16 12.06zm30.13-7.8-29.36 8.13 21.94 39.8 28.18-11.7z" fill="#fff"/><circle cx="28.184" cy="18.711" r="7.222"/><circle cx="27.667" cy="18.195" fill="#fff" r="9.749"/><circle cx="27.667" cy="18.195" r="7.222"/><circle cx="43.771" cy="30.396" r="2.774"/><circle cx="43.77" cy="30.396" fill="#fff" r="3.744"/><circle cx="43.771" cy="30.396" r="2.774"/><circle cx="28.995" cy="36.898" r="2.774"/><circle cx="28.996" cy="36.897" fill="#fff" r="3.744"/><circle cx="28.995" cy="36.898" r="2.774"/></svg>