<svg xmlns="http://www.w3.org/2000/svg" width="60" height="60"><path fill-rule="evenodd" d="M4.1 37l.35 9.3 28.83 12.9 22.4-22.47L55 8.6z" clip-rule="evenodd"/><path fill="#fff" d="M33.34 59.5l-.17-.07L4.2 46.46l-.36-9.62.14-.07L55.22 8.15l.73 28.7-.08.07-22.53 22.6zM4.7 46.13L33.22 58.9l22.2-22.27-.7-27.6-50.35 28.1.33 9z"/><path fill-rule="evenodd" d="M32.92 48.85L4.26 36.97 25.26.3l29.87 8.26z" clip-rule="evenodd"/><path fill="#fff" d="M33.04 49.17L3.9 37.1 25.12 0 55.5 8.4 33.05 49.17zM4.64 36.84L32.8 48.52l21.95-39.8L25.37.6 4.63 36.84z"/><circle cx="31.604" cy="18.711" r="7.222"/><circle cx="32.121" cy="18.195" r="9.749" fill="#fff"/><circle cx="32.121" cy="18.195" r="7.222"/><circle cx="16.017" cy="30.396" r="2.774"/><circle cx="16.017" cy="30.396" r="3.744" fill="#fff"/><circle cx="16.017" cy="30.396" r="2.774"/><circle cx="30.792" cy="36.898" r="2.774"/><circle cx="30.792" cy="36.897" r="3.744" fill="#fff"/><circle cx="30.792" cy="36.898" r="2.774"/></svg>