<svg enable-background="new 0 0 60 60" height="60" viewBox="0 0 60 60" width="60" xmlns="http://www.w3.org/2000/svg"><path d="m55.7 37-.4 9.3-28.8 12.9-22.4-22.5.7-28.1z" fill="#c12127"/><path d="m3.9 36.9.7-28.7 51.2 28.6.2.1-.4 9.6-29 13-.2.1zm51.5.3-50.3-28.2-.7 27.6 22.2 22.3 28.5-12.8z" fill="#fff"/><path d="m26.9 48.8 28.6-11.8-21-36.7-29.8 8.3z" fill="#c12127"/><path d="m4.3 8.4 30.4-8.4 21.2 37.1-29.2 12.1zm30.1-7.8-29.4 8.1 22 39.8 28.2-11.7z" fill="#fff"/><circle cx="28.2" cy="18.7" r="7.2"/><circle cx="27.7" cy="18.2" fill="#fff" r="9.7"/><circle cx="27.7" cy="18.2" fill="#c12127" r="7.2"/><circle cx="43.8" cy="30.4" r="2.8"/><circle cx="43.8" cy="30.4" fill="#fff" r="3.7"/><circle cx="43.8" cy="30.4" fill="#c12127" r="2.8"/><circle cx="29" cy="36.9" r="2.8"/><circle cx="29" cy="36.9" fill="#fff" r="3.7"/><circle cx="29" cy="36.9" fill="#c12127" r="2.8"/></svg>