<svg enable-background="new 0 0 60 60" height="60" viewBox="0 0 60 60" width="60" xmlns="http://www.w3.org/2000/svg"><path d="m4.1 37 .3 9.3 28.8 12.9 22.4-22.5-.6-28.1z" fill="#c12127"/><path d="m33.3 59.5-.2-.1-29-13-.4-9.6h.3l51.2-28.7.8 28.7-.1.1zm-28.6-13.4 28.5 12.8 22.2-22.3-.7-27.6-50.3 28.1z" fill="#fff"/><path d="m32.9 48.8-28.6-11.8 21-36.7 29.9 8.3z" fill="#c12127"/><path d="m33 49.2-29.1-12.1 21.2-37.1 30.4 8.4zm-28.4-12.4 28.2 11.7 22-39.8-29.4-8.1z" fill="#fff"/><circle cx="31.6" cy="18.7" r="7.2"/><circle cx="32.1" cy="18.2" fill="#fff" r="9.7"/><circle cx="32.1" cy="18.2" fill="#c12127" r="7.2"/><circle cx="16" cy="30.4" r="2.8"/><circle cx="16" cy="30.4" fill="#fff" r="3.7"/><circle cx="16" cy="30.4" fill="#c12127" r="2.8"/><circle cx="30.8" cy="36.9" r="2.8"/><circle cx="30.8" cy="36.9" fill="#fff" r="3.7"/><circle cx="30.8" cy="36.9" fill="#c12127" r="2.8"/></svg>