<svg enable-background="new 0 0 60 60" height="60" viewBox="0 0 60 60" width="60" xmlns="http://www.w3.org/2000/svg"><path d="m25.7 0h4.5v29.4h-4.5z" fill="#afbdc4"/><path d="m30.8 27.6h3.9v1.8h-3.9z" fill="#37474f"/><path d="m25 31.2h5.9v28.8h-5.9z" fill="#afbdc4"/><g fill="#c12127"><path d="m34.3 32.8h.9c.7 0 1.4-.8 1.4-1.7v-5.1c0-1-.6-1.7-1.4-1.7h-.9c-.2 0-.4.2-.4.5v7.6c0 .2.1.4.4.4z"/><path d="m32.3 32.7c-.1.8-.8 1.5-1.6 1.5-1.8 0-3.6 0-5.4 0-.8 0-1.6-.7-1.6-1.5-.2-2.8-.2-5.6 0-8.4.1-.8.8-1.5 1.6-1.5h5.4c.8 0 1.6.7 1.6 1.5.2 2.9.2 5.6 0 8.4z"/></g></svg>