<svg enable-background="new 0 0 60 60" height="60" viewBox="0 0 60 60" width="60" xmlns="http://www.w3.org/2000/svg"><path d="m1.6 10.8h56.7v20.1h-56.7z" fill="#063e89"/><path d="m1.6 46.5h56.7v2.6h-56.7z" fill="#063e89"/><path d="m1.6 30.9v-20.1-.3c0-.1-.1-.2-.2-.2h-1.2c-.1 0-.2.1-.2.2v38.9c0 .1.1.2.2.2h1.3c.1 0 .2-.1.2-.2v-.3-2.6z" fill="#063e89"/><path d="m59.8 10.4h-1.3c-.1 0-.2.1-.2.2v.3 20.1 15.6 2.6.3c0 .1.1.2.2.2h1.3c.1 0 .2-.1.2-.2v-38.9c0-.2-.1-.2-.2-.2z" fill="#063e89"/><path d="m1.6 35.9h56.7v11.3h-56.7z" fill="#2d2c26"/><path d="m5 36.6h2.4v1h-2.4z" fill="#ebeff3"/><path d="m5 38.7h2.4v1h-2.4z" fill="#ebeff3"/><path d="m2.9 36.6-.4.4-.1.1.2.5.1.1.5.1h.1l.4-.4v-.1l-.1-.5-.1-.1-.5-.1z" fill="#ddd"/><path d="m3.1 36.9c.2 0 .3.1.3.3s-.1.3-.3.3-.3-.1-.3-.3.1-.3.3-.3z" fill="#1e1e1d"/><path d="m3.1 37.6c-.2 0-.4-.2-.4-.4s.2-.4.4-.4.4.2.4.4-.2.4-.4.4zm0-.8c-.2 0-.4.2-.4.4s.2.4.4.4.4-.2.4-.4-.2-.4-.4-.4z" fill="#1e1e1d"/><path d="m2.9 38.4-.4.4h-.1l.2.6v.1l.6.1h.1l.4-.4v-.1l-.1-.6h-.1l-.6-.2z" fill="#ddd"/><path d="m3.1 38.6c.2 0 .3.1.3.3s-.1.3-.3.3-.3-.1-.3-.3.1-.3.3-.3z" fill="#1e1e1d"/><path d="m3.1 39.4c-.2 0-.4-.2-.4-.4s.2-.4.4-.4.4.2.4.4-.2.4-.4.4zm0-.8c-.2 0-.4.2-.4.4s.2.4.4.4.4-.2.4-.4-.2-.4-.4-.4z" fill="#1e1e1d"/><path d="m4 41.1h.8v5.2h-.8z" fill="#ebeff3"/><g fill="#c7c8c9"><path d="m4 41.2h.8z"/><path d="m4 41.6h.8z"/><path d="m4 41.9h.8z"/><path d="m4 42.2h.8z"/><path d="m4 42.5h.8z"/><path d="m4 42.8h.8z"/><path d="m4 43.1h.8z"/><path d="m4 43.4h.8z"/><path d="m4 43.7h.8z"/><path d="m4 44h.8z"/><path d="m4 44.3h.8z"/><path d="m4 44.6h.8z"/><path d="m4 44.9h.8z"/><path d="m4 45.2h.8z"/><path d="m4 45.5h.8z"/><path d="m4 45.8h.8z"/><path d="m4 46.1h.8z"/></g><path d="m6.5 41.1h.8v5.2h-.8z" fill="#ebeff3"/><path d="m6.5 41.2h.8z" fill="#c7c8c9"/><path d="m6.5 41.6h.8z" fill="#c7c8c9"/><path d="m6.5 41.9h.8z" fill="#c7c8c9"/><path d="m6.5 42.2h.8z" fill="#c7c8c9"/><path d="m6.5 42.5h.8z" fill="#c7c8c9"/><path d="m6.5 42.8h.8z" fill="#c7c8c9"/><path d="m6.5 43.1h.8z" fill="#c7c8c9"/><path d="m6.5 43.4h.8z" fill="#c7c8c9"/><path d="m6.5 43.7h.8z" fill="#c7c8c9"/><path d="m6.5 44h.8z" fill="#c7c8c9"/><path d="m6.5 44.3h.8z" fill="#c7c8c9"/><path d="m6.5 44.6h.8z" fill="#c7c8c9"/><path d="m6.5 44.9h.8z" fill="#c7c8c9"/><path d="m6.5 45.2h.8z" fill="#c7c8c9"/><path d="m6.5 45.5h.8z" fill="#c7c8c9"/><path d="m6.5 45.8h.8z" fill="#c7c8c9"/><path d="m6.5 46.1h.8z" fill="#c7c8c9"/><path d="m17.8 47.2h-1.5l-.2-.1v-11.2h1.8z" fill="#fff"/><path d="m19.7 47.2h-1.5l-.2-.1v-11.2h1.9v11.2z" fill="#fff"/><path d="m21.6 47.2h-1.5l-.2-.1v-11.2h1.9v11.2z" fill="#fff"/><path d="m20.5 43.1h-.6l-.1-.1v-6.9h.8z" fill="#020202"/><path d="m20.5 43.3h-.7c-.2 0-.3-.1-.3-.3v-7.1h1.3v7.1c0 .1-.1.3-.3.3zm-.5-.4h.5v-6.6h-.5z" fill="#020202"/><path d="m18.2 43.1h-.7l-.1-.1v-6.9h.9z" fill="#020202"/><path d="m18.2 43.3h-.7c-.2 0-.3-.1-.3-.3v-7.1h1.3v7.1c0 .1-.1.3-.3.3zm-.6-.4h.5v-6.6h-.5z" fill="#020202"/><path d="m23.6 47.2h-1.6l-.1-.1v-11.2h1.8z" fill="#fff"/><path d="m25.5 47.2h-1.5l-.2-.1v-11.2h1.8z" fill="#fff"/><path d="m27.4 47.2h-1.5l-.2-.1v-11.2h1.9v11.2z" fill="#fff"/><path d="m23.9 43.1h-.7l-.1-.1v-6.9h.9z" fill="#020202"/><path d="m23.9 43.3h-.7c-.2 0-.3-.1-.3-.3v-7.1h1.3v7.1c0 .1-.1.3-.3.3zm-.6-.4h.5v-6.6h-.5z" fill="#020202"/><path d="m29.3 47.2h-1.5l-.2-.1v-11.2h1.9v11.2z" fill="#fff"/><path d="m31.3 47.2h-1.6l-.1-.1v-11.2h1.8z" fill="#fff"/><path d="m33.2 47.2h-1.5l-.2-.1v-11.2h1.8z" fill="#fff"/><path d="m35.1 47.2h-1.5l-.2-.1v-11.2h1.9v11.2z" fill="#fff"/><path d="m37 47.2h-1.5l-.2-.1v-11.2h1.9v11.2z" fill="#fff"/><path d="m39 47.2h-1.6l-.1-.1v-11.2h1.8v11.2z" fill="#fff"/><path d="m28.2 43.1h-.6l-.1-.1v-6.9h.8z" fill="#020202"/><path d="m28.2 43.3h-.7c-.2 0-.3-.1-.3-.3v-7.1h1.3v7.1c0 .1-.1.3-.3.3zm-.6-.4h.5v-6.6h-.5z" fill="#020202"/><path d="m31.7 43.1h-.7l-.1-.1v-6.9h.9z" fill="#020202"/><path d="m31.7 43.3h-.7c-.2 0-.3-.1-.3-.3v-7.1h1.3v7.1c0 .1-.1.3-.3.3zm-.6-.4h.5v-6.6h-.5z" fill="#020202"/><path d="m34 43.1h-.6l-.1-.1v-6.9h.9v6.9z" fill="#020202"/><path d="m34 43.3h-.7c-.2 0-.3-.1-.3-.3v-7.1h1.3v7.1c0 .1-.1.3-.3.3zm-.5-.4h.5v-6.6h-.5z" fill="#020202"/><path d="m37.4 43.1h-.7l-.1-.1v-6.9h.9v6.9z" fill="#020202"/><path d="m37.4 43.3h-.7c-.2 0-.3-.1-.3-.3v-7.1h1.3v7.1c0 .1-.2.3-.3.3zm-.6-.4h.5v-6.6h-.5z" fill="#020202"/><path d="m26.1 43.1h-.7l-.1-.1v-6.9h.9z" fill="#020202"/><path d="m26.1 43.3h-.7c-.2 0-.3-.1-.3-.3v-7.1h1.3v7.1c0 .1-.1.3-.3.3zm-.6-.4h.5v-6.6h-.5z" fill="#020202"/><path d="m40.9 47.2h-1.5l-.2-.1v-11.2h1.8z" fill="#fff"/><path d="m42.8 47.2h-1.5l-.2-.1v-11.2h1.9v11.2z" fill="#fff"/><path d="m44.7 47.2h-1.5l-.2-.1v-11.2h1.9v11.2z" fill="#fff"/><path d="m46.6 47.2h-1.5l-.1-.1v-11.2h1.8v11.2z" fill="#fff"/><path d="m48.6 47.2h-1.6l-.1-.1v-11.2h1.8v11.2z" fill="#fff"/><path d="m50.5 47.2h-1.5l-.2-.1v-11.2h1.9v11.2z" fill="#fff"/><path d="m52.4 47.2h-1.5l-.2-.1v-11.2h1.9v11.2z" fill="#fff"/><path d="m54.3 47.2h-1.5l-.1-.1v-11.2h1.8v11.2z" fill="#fff"/><path d="m56.3 47.2h-1.6l-.1-.1v-11.2h1.8v11.2z" fill="#fff"/><path d="m58.2 47.2h-1.5l-.2-.1v-11.2h1.9v11.2z" fill="#fff"/><path d="m39.6 43.1h-.7l-.1-.1v-6.9h.9v6.9z" fill="#020202"/><path d="m39.6 43.3h-.7c-.2 0-.3-.1-.3-.3v-7.1h1.3v7.1c0 .1-.1.3-.3.3zm-.6-.4h.5v-6.6h-.5z" fill="#020202"/><path d="m41.8 43.1h-.7l-.1-.1v-6.9h.9v6.9z" fill="#020202"/><path d="m41.8 43.3h-.7c-.2 0-.3-.1-.3-.3v-7.1h1.3v7.1c0 .1-.2.3-.3.3zm-.6-.4h.5v-6.6h-.5z" fill="#020202"/><path d="m45 43.1h-.6l-.1-.1v-6.9h.8v6.9z" fill="#020202"/><path d="m45 43.3h-.7c-.2 0-.3-.1-.3-.3v-7.1h1.3v7.1c0 .2-.1.3-.3.3zm-.6-.4h.5v-6.6h-.5z" fill="#020202"/><path d="m47.4 43.1h-.6l-.1-.1v-6.9h.8v6.9z" fill="#020202"/><path d="m47.4 43.3h-.7c-.2 0-.3-.1-.3-.3v-7.1h1.3v7.1c0 .2-.1.3-.3.3zm-.5-.4h.5v-6.6h-.5z" fill="#020202"/><path d="m50.8 43.1h-.7l-.1-.1v-6.9h.9v6.9z" fill="#020202"/><path d="m50.8 43.3h-.7c-.2 0-.3-.1-.3-.3v-7.1h1.3v7.1c0 .2-.1.3-.3.3zm-.6-.4h.5v-6.6h-.5z" fill="#020202"/><path d="m53.1 43.1h-.7l-.1-.1v-6.9h.9v6.9z" fill="#020202"/><path d="m53.1 43.3h-.7c-.2 0-.3-.1-.3-.3v-7.1h1.3v7.1c0 .2-.2.3-.3.3zm-.6-.4h.5v-6.6h-.5z" fill="#020202"/><path d="m55.2 43.1h-.6l-.1-.1v-6.9h.8v6.9z" fill="#020202"/><path d="m55.2 43.3h-.7c-.2 0-.3-.1-.3-.3v-7.1h1.3v7.1c0 .2-.1.3-.3.3zm-.6-.4h.5v-6.6h-.5z" fill="#020202"/><path d="m10.1 47.2h-1.5l-.2-.1v-11.2h1.8v11.2z" fill="#fff"/><path d="m12 47.2h-1.5l-.2-.1v-11.2h1.9v11.2z" fill="#fff"/><path d="m13.9 47.2h-1.5l-.2-.1v-11.2h1.9v11.2z" fill="#fff"/><path d="m15.9 47.2h-1.6l-.1-.1v-11.2h1.8z" fill="#fff"/><path d="m10.3 43.1h-.6l-.1-.1v-6.9h.8z" fill="#020202"/><path d="m10.3 43.3h-.6c-.2 0-.3-.1-.3-.3v-7.1h1.3v7.1c-.1.1-.2.3-.4.3zm-.5-.4h.5v-6.6h-.5z" fill="#020202"/><path d="m12.6 43.1h-.7l-.1-.1v-6.9h.9z" fill="#020202"/><path d="m12.6 43.3h-.7c-.2 0-.3-.1-.3-.3v-7.1h1.3v7.1c0 .1-.1.3-.3.3zm-.6-.4h.5v-6.6h-.5z" fill="#020202"/><path d="m14.8 43.1h-.7l-.1-.1v-6.9h.9z" fill="#020202"/><path d="m14.8 43.3h-.7c-.2 0-.3-.1-.3-.3v-7.1h1.3v7.1c0 .1-.2.3-.3.3zm-.6-.4h.5v-6.6h-.5z" fill="#020202"/><path d="m58.1 28.8h-56.2c-.2 0-.3-.1-.3-.3v-15c0-.2.1-.3.3-.3h56.1c.2 0 .3.1.3.3v15c.1.1-.1.3-.2.3z" fill="#2d2c26"/><path d="m10.2 23.1h1v2.4h-1z" fill="#d54f26"/><path d="m32.9 21h1v2.4h-1z" fill="#5d8c8f"/><path d="m56.1 23h1v2.4h-1z" fill="#424140"/><path d="m25.9 15.5h2.4v1h-2.4z" fill="#5d8c8f"/><path d="m25.9 17.6h2.4v1h-2.4z" fill="#5d8c8f"/><path d="m25.9 19.7h2.4v1h-2.4z" fill="#5d8c8f"/><path d="m25.9 21.7h2.4v1h-2.4z" fill="#5d8c8f"/><path d="m52.2 15.5h2.4v1h-2.4z" fill="#5d8c8f"/><path d="m49.1 19.6h2.4v1h-2.4z" fill="#5d8c8f"/><path d="m25.9 23.8h2.4v1h-2.4z" fill="#5d8c8f"/><path d="m12.9 23.2c.6 0 1.1.5 1.1 1.1s-.5 1.1-1.1 1.1-1.1-.5-1.1-1.1.5-1.1 1.1-1.1z" fill="#d54f26"/><path d="m12.9 19.1c.6 0 1.1.5 1.1 1.1s-.5 1.1-1.1 1.1-1.1-.5-1.1-1.1.5-1.1 1.1-1.1z" fill="#d54f26"/><circle cx="12.9" cy="16" fill="#d54f26" r="1.1"/><path d="m19.8 23.2c.6 0 1.1.5 1.1 1.1s-.5 1.1-1.1 1.1-1.1-.5-1.1-1.1.5-1.1 1.1-1.1z" fill="#d54f26"/><path d="m19.8 19.1c.6 0 1.1.5 1.1 1.1s-.5 1.1-1.1 1.1-1.1-.5-1.1-1.1.5-1.1 1.1-1.1z" fill="#d54f26"/><path d="m19.8 14.9c.6 0 1.1.5 1.1 1.1s-.5 1.1-1.1 1.1-1.1-.5-1.1-1.1.5-1.1 1.1-1.1z" fill="#d54f26"/><path d="m50.2 14.9c.6 0 1.1.5 1.1 1.1s-.5 1.1-1.1 1.1-1.1-.5-1.1-1.1.5-1.1 1.1-1.1z" fill="#d54f26"/><path d="m9.5 13.3h.1v15.6h-.1z" fill="#fff"/><path d="m21.7 13.2h.1v15.6h-.1z" fill="#fff"/><path d="m36.3 13.3.1 15.6h-.1z" fill="#fff"/><path d="m48.3 13.4.1 15.6h-.1z" fill="#fff"/><path d="m55.4 13.5.1 15.6h-.1z" fill="#fff"/><path d="m36.3 22.1h12v.1h-12z" fill="#fff"/><path d="m56.6 20.7c.3 0 .6.3.6.6s-.3.6-.6.6-.6-.3-.6-.6.3-.6.6-.6z" fill="#ddd"/><path d="m56.6 20.9c.2 0 .4.2.4.4s-.2.4-.4.4-.4-.2-.4-.4c0-.3.2-.4.4-.4z" fill="#d54f26"/><path d="m53.2 23.6-.4.4v.1l.1.5.1.1.5.2.1-.1.4-.4.1-.1-.2-.5-.1-.1z" fill="#ddd"/><path d="m53.4 23.9c.2 0 .3.1.3.3s-.1.3-.3.3-.3-.1-.3-.3.1-.3.3-.3z" fill="#1e1e1d"/><path d="m53.4 24.7c-.2 0-.4-.2-.4-.4s.2-.4.4-.4.4.2.4.4c.1.2-.1.4-.4.4zm0-.9c-.2 0-.4.2-.4.4s.2.4.4.4.4-.2.4-.4-.2-.4-.4-.4z" fill="#1e1e1d"/><path d="m4.4 18.3v.9.2l.7.6.1.1 1-.2.1-.1.5-.8v-.1l-.3-.9-.1-.1-.9-.3h-.2l-.8.5z" fill="#1e1e1d"/><path d="m5.6 18c.5 0 .9.4.9.9s-.4.9-.9.9-.9-.4-.9-.9c-.1-.5.4-.9.9-.9z" fill="#fefef7"/><path d="m5.2 17.8h.1z" fill="#fefef7"/><path d="m3.3 20.8-.4.8-.1.2.4.9.1.1.9.2h.2l.8-.5v-.2l.1-.9-.1-.2-.7-.6h-.1l-1 .1z" fill="#1e1e1d"/><path d="m4.1 20.9c.5 0 .9.4.9.9s-.4.9-.9.9-.9-.4-.9-.9.4-.9.9-.9z" fill="#fefef7"/><path d="m4.3 20.8h.1z" fill="#fefef7"/><path d="m6.1 21.1-.3.9.1.1.5.8h.2l.9.1.2-.1.6-.7v-.2l-.2-.9-.1-.1-.8-.5h-.2l-.8.4z" fill="#1e1e1d"/><path d="m7.1 20.9c.5 0 .9.4.9.9s-.4.9-.9.9-.9-.4-.9-.9.4-.9.9-.9z" fill="#fefef7"/><path d="m6.9 20.6h.1z" fill="#fefef7"/><path d="m15.4 23.1-.3.9.1.1.5.8.2.1h.9l.2-.1.6-.7v-.2l-.2-.9-.1-.1-.8-.5h-.2l-.8.4z" fill="#1e1e1d"/><path d="m16.4 22.9c.5 0 .9.4.9.9s-.4.9-.9.9-.9-.4-.9-.9.4-.9.9-.9z" fill="#fefef7"/><path d="m16.2 22.6h.1z" fill="#fefef7"/><path d="m22.8 22.9-.2.9v.2l.6.7.1.1h1l.1-.1.6-.7v-.2l-.2-.9v-.1l-.9-.4h-.2l-.8.4z" fill="#1e1e1d"/><path d="m23.8 22.7c.5 0 .9.4.9.9s-.4.9-.9.9-.9-.4-.9-.9.4-.9.9-.9z" fill="#fefef7"/><path d="m23.7 22.5h.1z" fill="#fefef7"/><path d="m22.8 19.4-.2.9v.2l.6.7.1.1h1l.1-.1.6-.7v-.2l-.2-.9v-.1l-.9-.4h-.2l-.8.4z" fill="#1e1e1d"/><path d="m23.8 19.2c.5 0 .9.4.9.9s-.4.9-.9.9-.9-.4-.9-.9.4-.9.9-.9z" fill="#fefef7"/><path d="m23.8 19h.1z" fill="#fefef7"/><path d="m22.8 15.8-.2 1v.1l.6.8h.1 1 .1l.6-.8.1-.1-.2-.9-.1-.2-.9-.4h-.1l-.9.4z" fill="#1e1e1d"/><path d="m23.8 15.7c.5 0 .9.4.9.9s-.4.9-.9.9-.9-.4-.9-.9.4-.9.9-.9z" fill="#fefef7"/><path d="m23.8 15.4h.1z" fill="#fefef7"/><path d="m29.7 17.6-.2 1v.1l.6.8h.2.9.1l.6-.8.1-.1-.2-.9-.1-.2-.9-.4h-.1l-.9.4z" fill="#1e1e1d"/><path d="m30.7 17.5c.5 0 .9.4.9.9s-.4.9-.9.9-.9-.4-.9-.9.4-.9.9-.9z" fill="#fefef7"/><path d="m30.6 17.3.1-.1.1.1h-.1z" fill="#fefef7"/><path d="m38.9 15.2-.2 1v.1l.6.8h.1 1 .1l.6-.8v-.1l-.2-.9-.1-.2-.8-.4h-.2z" fill="#1e1e1d"/><path d="m39.9 15.1c.5 0 .9.4.9.9s-.4.9-.9.9-.9-.4-.9-.9.4-.9.9-.9z" fill="#fefef7"/><path d="m39.8 14.9h.1z" fill="#fefef7"/><path d="m42 15.2-.2 1v.1l.6.8h.1 1 .1l.6-.8v-.1l-.2-.9-.1-.2-.8-.4h-.2z" fill="#1e1e1d"/><circle cx="43" cy="16" fill="#fefef7" r=".9"/><path d="m42.9 14.9v-.1.1.1z" fill="#fefef7"/><path d="m45.1 15.2-.2 1v.1l.6.8h.1 1 .1l.6-.8v-.1l-.2-.9-.1-.2-.8-.4h-.2z" fill="#1e1e1d"/><path d="m46.1 15.1c.5 0 .9.4.9.9s-.4.9-.9.9-.9-.4-.9-.9.4-.9.9-.9z" fill="#fefef7"/><path d="m46 14.8h.2l-.1.1z" fill="#fefef7"/><path d="m49.2 15.2-.2 1v.1l.6.8h.1 1 .1l.6-.8.1-.1-.2-.9-.1-.2-.9-.4h-.1z" fill="#1e1e1d"/><path d="m50.2 15.1c.5 0 .9.4.9.9s-.4.9-.9.9-.9-.4-.9-.9.4-.9.9-.9z" fill="#fefef7"/><path d="m50.2 14.8h.1z" fill="#fefef7"/><path d="m49.2 23.5-.2 1v.1l.6.8h.2l.9.1.2-.1.6-.8v-.1l-.2-.9-.1-.2-.9-.4h-.1l-.9.4z" fill="#1e1e1d"/><path d="m50.3 23.4c.5 0 .9.4.9.9s-.4.9-.9.9-.9-.4-.9-.9c-.1-.5.3-.9.9-.9z" fill="#fefef7"/><path d="m50.2 23.2h.1z" fill="#fefef7"/><path d="m42 19.5-.2.9v.2l.6.7.1.1h1l.1-.1.6-.7v-.2l-.2-.9-.1-.1-.8-.4h-.2l-.8.4z" fill="#1e1e1d"/><path d="m43 19.3c.5 0 .9.4.9.9s-.4.9-.9.9-.9-.4-.9-.9.4-.9.9-.9z" fill="#fefef7"/><path d="m43 19.1h.1z" fill="#fefef7"/><path d="m42 23.7-.2 1v.1l.6.8h.1 1 .1l.6-.8v-.1l-.2-.9-.1-.2-.8-.4h-.2l-.8.4z" fill="#1e1e1d"/><circle cx="43" cy="24.5" fill="#fefef7" r=".9"/><path d="m42.9 23.4v-.1.1.1z" fill="#fefef7"/><path d="m45.1 23.7-.2.9v.2l.6.7.1.1h1l.1-.1.6-.7.1-.2-.2-.9-.1-.1-.9-.4h-.1l-.9.4z" fill="#1e1e1d"/><path d="m46.1 23.5c.5 0 .9.4.9.9s-.4.9-.9.9-.9-.4-.9-.9.4-.9.9-.9z" fill="#fefef7"/><path d="m46.1 23.3h.1z" fill="#fefef7"/><path d="m45.1 19.5-.2.9v.2l.6.7.1.1h1l.1-.1.6-.7.1-.2-.2-.9-.1-.1-.9-.4h-.1l-.9.4z" fill="#1e1e1d"/><path d="m46.1 19.3c.5 0 .9.4.9.9s-.4.9-.9.9-.9-.4-.9-.9.4-.9.9-.9z" fill="#fefef7"/><path d="m46 19.1h.1z" fill="#fefef7"/><path d="m38.9 19.5-.2.9v.2l.6.7.1.1h1l.1-.1.6-.7.1-.2-.2-.9-.1-.1-.9-.4h-.1l-.9.4z" fill="#1e1e1d"/><path d="m39.9 19.3c.5 0 .9.4.9.9s-.4.9-.9.9-.9-.4-.9-.9.4-.9.9-.9z" fill="#fefef7"/><path d="m39.8 19.1h.1z" fill="#fefef7"/><path d="m38.9 23.7-.2.9v.2l.6.7.1.1h1l.1-.1.6-.7v-.2l-.2-.9-.1-.1-.8-.4h-.2l-.8.4z" fill="#1e1e1d"/><path d="m39.9 23.5c.5 0 .9.4.9.9s-.4.9-.9.9-.9-.4-.9-.9.4-.9.9-.9z" fill="#fefef7"/><path d="m39.8 23.4h.1z" fill="#fefef7"/><path d="m29.7 21.2-.2.9v.1l.6.8h.2l.9.1.1-.1.6-.7.1-.2-.2-.9-.1-.1-.9-.5h-.1l-.9.4z" fill="#1e1e1d"/><path d="m30.7 21c.5 0 .9.4.9.9s-.4.9-.9.9-.9-.4-.9-.9.4-.9.9-.9z" fill="#fefef7"/><path d="m30.6 20.8.1-.1.1.1h-.1z" fill="#fefef7"/><path d="m15.4 19.5-.2.9v.1l.6.8.1.1h1l.1-.1.6-.7v-.2l-.2-.9-.1-.1-.8-.4h-.2l-.8.4z" fill="#1e1e1d"/><path d="m16.4 19.3c.5 0 .9.4.9.9s-.4.9-.9.9-.9-.4-.9-.9.4-.9.9-.9z" fill="#fefef7"/><path d="m16.3 19.2h.1z" fill="#fefef7"/><path d="m12.9 23.1c.6 0 1.1.5 1.1 1.1s-.5 1.1-1.1 1.1-1.1-.5-1.1-1.1.5-1.1 1.1-1.1z" fill="#303030"/><path d="m13.3 25.3c-.3-.1-.4-.1-.9 0v-.1l.4-2h.2z" fill="#1e1e1d"/><path d="m12.9 23.9c.2 0 .4.2.4.4s-.2.4-.4.4-.4-.2-.4-.4.2-.4.4-.4z" fill="#e6e7e8"/><path d="m12.9 24.7c-.2 0-.4-.2-.4-.4s.2-.4.4-.4.4.2.4.4-.2.4-.4.4zm0-.8c-.2 0-.4.2-.4.4s.2.4.4.4.4-.2.4-.4-.2-.4-.4-.4z" fill="#1e1e1d"/><path d="m12.9 24.2v-.8z" fill="#e6e7e8"/><path d="m12.9 19.1c.6 0 1.1.5 1.1 1.1s-.5 1.1-1.1 1.1-1.1-.5-1.1-1.1.5-1.1 1.1-1.1z" fill="#303030"/><path d="m13.3 21.2c-.3-.1-.4-.1-.9 0v-.1l.4-2h.2z" fill="#1e1e1d"/><path d="m12.9 19.8c.2 0 .4.2.4.4s-.2.4-.4.4-.4-.2-.4-.4c0-.3.2-.4.4-.4z" fill="#e6e7e8"/><path d="m12.9 20.6c-.2 0-.4-.2-.4-.4s.2-.4.4-.4.4.2.4.4-.2.4-.4.4zm0-.8c-.2 0-.4.2-.4.4s.2.4.4.4.4-.2.4-.4c0-.3-.2-.4-.4-.4z" fill="#1e1e1d"/><path d="m12.9 20v-.8z" fill="#e6e7e8"/><circle cx="12.9" cy="16" fill="#303030" r="1.1"/><path d="m13.3 17c-.3-.1-.4-.1-.9 0v-.1l.4-2h.2z" fill="#1e1e1d"/><circle cx="12.9" cy="16" fill="#e6e7e8" r=".4"/><path d="m12.9 16.4c-.2 0-.4-.2-.4-.4s.2-.4.4-.4.4.2.4.4-.2.4-.4.4zm0-.8c-.2 0-.4.2-.4.4s.2.4.4.4.4-.2.4-.4-.2-.4-.4-.4z" fill="#1e1e1d"/><path d="m12.9 15.9v-.8z" fill="#e6e7e8"/><path d="m19.8 23.2c.6 0 1.1.5 1.1 1.1s-.5 1.1-1.1 1.1-1.1-.5-1.1-1.1.5-1.1 1.1-1.1z" fill="#303030"/><path d="m20.2 25.3c-.3-.1-.4-.1-.9 0v-.1l.4-2h.1z" fill="#1e1e1d"/><path d="m19.8 23.9c.2 0 .4.2.4.4s-.2.4-.4.4-.4-.2-.4-.4.1-.4.4-.4z" fill="#e6e7e8"/><path d="m19.8 24.7c-.2 0-.4-.2-.4-.4s.2-.4.4-.4.4.2.4.4-.2.4-.4.4zm0-.8c-.2 0-.4.2-.4.4s.2.4.4.4.4-.2.4-.4c-.1-.2-.2-.4-.4-.4z" fill="#1e1e1d"/><path d="m19.7 23.4h.1v.8h-.1z" fill="#e6e7e8"/><path d="m19.8 19.1c.6 0 1.1.5 1.1 1.1s-.5 1.1-1.1 1.1-1.1-.5-1.1-1.1.5-1.1 1.1-1.1z" fill="#303030"/><path d="m20.2 21.2c-.3-.1-.4-.1-.9 0v-.1l.4-2h.1z" fill="#1e1e1d"/><path d="m19.8 19.8c.2 0 .4.2.4.4s-.2.4-.4.4-.4-.2-.4-.4c0-.3.1-.4.4-.4z" fill="#e6e7e8"/><path d="m19.8 20.6c-.2 0-.4-.2-.4-.4s.2-.4.4-.4.4.2.4.4-.2.4-.4.4zm0-.8c-.2 0-.4.2-.4.4s.2.4.4.4.4-.2.4-.4c-.1-.3-.2-.4-.4-.4z" fill="#1e1e1d"/><path d="m19.8 20h-.1v-.7l.1-.1v.1z" fill="#e6e7e8"/><path d="m19.8 14.9c.6 0 1.1.5 1.1 1.1s-.5 1.1-1.1 1.1-1.1-.5-1.1-1.1.4-1.1 1.1-1.1z" fill="#303030"/><path d="m20.2 17c-.3-.1-.4-.1-.9 0v-.1l.4-2h.1z" fill="#1e1e1d"/><path d="m19.7 15.6c.2 0 .4.2.4.4s-.2.4-.4.4-.4-.2-.4-.4.2-.4.4-.4z" fill="#e6e7e8"/><path d="m19.7 16.4c-.2 0-.4-.2-.4-.4s.2-.4.4-.4.4.2.4.4c.1.2-.1.4-.4.4zm0-.8c-.2 0-.4.2-.4.4s.2.4.4.4.4-.2.4-.4-.1-.4-.4-.4z" fill="#1e1e1d"/><path d="m19.7 15.1h.1v.8h-.1z" fill="#e6e7e8"/><path d="m35.1 15.5h2.4v1h-2.4z" fill="#d54f26"/><path d="m8.4 18.1h2.4v1h-2.4z" fill="#d54f26"/><path d="m35.1 17.5h2.4v1h-2.4z" fill="#d54f26"/><path d="m35.1 19.5h2.4v1h-2.4z" fill="#d54f26"/><path d="m2.8 25.5h2.4v1h-2.4z" fill="#424140"/><path d="m6.2 25.5h2.4v1h-2.4z" fill="#424140"/><path d="m1.6 28.8h56.8v7.3h-56.8z" fill="#063e89"/><path d="m58.3 10.8.1 38.3h-.1z" fill="#2d2c26"/><path d="m1.7 10.8h.1v38.3h-.1z" fill="#2d2c26"/></svg>