<svg enable-background="new 0 0 60 60" height="60" viewBox="0 0 60 60" width="60" xmlns="http://www.w3.org/2000/svg"><path d="m58.3 39.9-2.2.5-.3-.6-2.2.6-.2-.6-2.2.6-.2-.6-2.2.6-.3-.9-2.1.8-.3-.9-2.2 1-.2-1.2-2.2 1.2-.3-1.3-2.1 1.2-.5-2.5-1.9 2.5-.5-3-2 3.1-.3-3.3-2.1 3.3v-3.3h-.3v3.2l-2.1-3.2v-4.1h26.7z" fill="#4c4a48"/><path d="m53.6 40.5-.2-.6-2.2.6h-.1l-.1-.6-2.2.6h-.1l-.3-.8-2 .8-.3-.8-2.1 1-.2-1.1-2.1 1.2-.3-1.2-2 1.2-.5-2.4-1.8 2.4s0 0-.1 0l-.5-2.9-1.9 3s0 0-.1 0l-.3-3.1-2 3.2s0 0-.1 0v-3.2h-.2v3.1s0 0-.1 0l-2.1-3.2v-4.7s0-.1.1-.1h26.7l2.2 6.9-2.2.5s0 0-.1 0l-.3-.6zm2.2-.8s0 .1 0 0l.3.6 2.1-.5-2.2-6.8h-26.5v4l2 3v-3s0-.1.1-.1h.3s.1 0 .1.1v3.1l2-3.2h.1l.3 3.2 1.9-3h.1l.5 2.9 1.8-2.4h.1l.5 2.4 2-1.2.3 1.2 2.1-1.2.2 1.1 2.1-1 .3.8 2-.8.3.9 2.2-.6h.1l.2.6 2.2-.6h.1l.2.6z" fill="#4c4a48"/><path d="m29.1 33h-22.2l-1.8 6.8 2.2.6.2-.6 2.2.6.2-.6 2.2.6.3-.9 2.1.8.3-.9 2.2 1 .2-1.2 2.2 1.2.2-1.3 2.2 1.2.5-2.5 1.9 2.5.5-3 1.9 3.1.4-3.3 2.1 3.3z" fill="#4c4a48"/><path d="m12.1 40.5-2.2-.6-.2.6s0 0-.1 0l-2.2-.6-.2.6s0 0-.1 0l-2.2-.6s0 0 0-.1l1.9-6.8h.1 22.2s.1 0 .1.1v7.4s0 0-.1 0l-2-3.2-.4 3.2s0 0-.1 0l-1.8-3-.5 2.9s0 0-.1 0l-1.8-2.4-.5 2.4-2.1-1.2-.2 1.2-2.1-1.2-.2 1.1-2.1-1-.3.8-2-.8-.8 1.2c0-.1 0 0 0 0zm-6.9-.7 2.1.6.2-.6h.1l2.2.6.2-.6h.1l2.2.6.3-.9 2 .8.3-.8 2.1 1 .2-1.1 2.1 1.2.2-1.2 2.1 1.2.5-2.4h.1l1.8 2.4.5-2.9h.1l1.8 3 .4-3.2h.1l2 3.2v-7.2h-22z" fill="#4c4a48"/><path d="m2.1 34.3-2.1 5.5.1 1.6h59.7l.2-1.7-2.2-5.2z" fill="#17150f"/><path d="m.1 41.4 1.3.5h57.3l1.1-.5z" fill="#17150f"/><path d="m57 32.8 1.4 3.5-56.8-.7 1-2.9z" fill="#17150f"/><path d="m2.6 32.7 54.9.1.2-1h-55.2z" fill="#17150f"/><path d="m2.5 31.8.4-17.5.9-2h52.6l.9 2 .4 17.5z" fill="#00572c"/><circle cx="10.2" cy="17.5" r="1"/><path d="m10.2 18.4v-.7z" fill="#fff"/><circle cx="6.1" cy="17.5" r="1"/><path d="m6.2 17.3.5-.6h.1v.1z" fill="#fff"/><circle cx="21.4" cy="17.5" r="1"/><path d="m21.3 17.3-.5-.5s0 0 0-.1h.1z" fill="#fff"/><circle cx="51.3" cy="17" r="1"/><path d="m50.7 17.7.5-.7h.1v.1z" fill="#fff"/><circle cx="17.8" cy="17.5" r="1"/><path d="m17.6 17.3-.5-.5s0 0 0-.1h.1z" fill="#fff"/><circle cx="10.1" cy="25" r="1"/><path d="m10 24.9-.5-.5s0 0 0-.1h.1z" fill="#fff"/><circle cx="6.1" cy="25" r="1"/><path d="m6 24.8v-.7z" fill="#fff"/><circle cx="10.2" cy="21.4" r=".7"/><path d="m9.7 21.8.4-.4h.1v.1z" fill="#fff"/><circle cx="6.1" cy="21.3" r=".7"/><path d="m6 21.3-.4-.4s0 0 0-.1h.1z" fill="#fff"/><circle cx="21.4" cy="21.7" r=".7"/><path d="m21.3 21.6-.3-.4s0 0 0-.1h.1z" fill="#fff"/><circle cx="17.6" cy="21.7" r=".7"/><path d="m17.5 21.6-.4-.4s0 0 0-.1h.1z" fill="#fff"/><circle cx="10" cy="29.6" r=".7"/><path d="m10.5 30.1-.4-.4s0 0 0-.1h.1z" fill="#fff"/><circle cx="5.9" cy="29.6" r=".7"/><path d="m5.8 29.5-.3-.4s0 0 0-.1h.1z" fill="#fff"/><circle cx="14" cy="21.7" r=".7"/><path d="m14.5 22.2-.4-.4s0 0 0-.1h.1z" fill="#fff"/><circle cx="21.3" cy="26.6" r=".7"/><path d="m21.3 26.5v-.5z" fill="#fff"/><circle cx="17.5" cy="26.6" r=".7"/><path d="m17.4 26.5-.4-.3s0 0 0-.1h.1z" fill="#fff"/><circle cx="13.9" cy="26.6" r=".7"/><path d="m14 26.5.4-.4h.1v.1z" fill="#fff"/><circle cx="21.3" cy="29.6" r=".7"/><path d="m21.2 29.5-.3-.4s0 0 0-.1h.1z" fill="#fff"/><circle cx="24.9" cy="26.7" r=".7"/><path d="m24.8 26.6-.3-.4s0 0 0-.1h.1z" fill="#fff"/><circle cx="24.9" cy="29.6" r=".7"/><path d="m24.9 29.5v-.5z" fill="#fff"/><circle cx="28.6" cy="26.7" r=".7"/><path d="m28.5 26.6-.3-.4s0 0 0-.1h.1z" fill="#fff"/><circle cx="28.6" cy="23.9" r=".7"/><path d="m28.7 23.7.4-.4h.1v.1z" fill="#fff"/><circle cx="28.6" cy="29.6" r=".7"/><path d="m28.5 29.5-.3-.3s0 0 0-.1h.1z" fill="#fff"/><circle cx="32.4" cy="26.7" r=".7"/><path d="m33.1 26.6h-.5z" fill="#fff"/><circle cx="32.4" cy="23.9" r=".7"/><path d="m32.3 23.8-.3-.4s0 0 0-.1h.1z" fill="#fff"/><circle cx="32.4" cy="20.7" r=".7"/><path d="m32.9 21.1-.4-.3s0 0 0-.1h.1z" fill="#fff"/><circle cx="32.4" cy="17.4" r=".7"/><path d="m32.3 17.3-.3-.3s0 0 0-.1h.1z" fill="#fff"/><circle cx="32.4" cy="29.6" r=".7"/><path d="m32.3 29.5-.3-.3s0 0 0-.1h.1z" fill="#fff"/><circle cx="36.3" cy="29.5" r=".7"/><path d="m36.2 29.5-.4-.4s0 0 0-.1h.1z" fill="#fff"/><circle cx="39.3" cy="29.5" r=".7"/><path d="m39.4 30.1v-.5z" fill="#fff"/><circle cx="42.2" cy="29.5" r=".7"/><path d="m42.1 29.5-.4-.4s0 0 0-.1h.1z" fill="#fff"/><circle cx="45" cy="29.6" r=".7"/><path d="m44.9 29.5-.3-.4s0 0 0-.1h.1z" fill="#fff"/><circle cx="48" cy="29.6" r=".7"/><path d="m48 29.5v-.5z" fill="#fff"/><circle cx="17.5" cy="29.6" r=".7"/><path d="m17.4 29.5-.4-.4s0 0 0-.1h.1z" fill="#fff"/><circle cx="13.9" cy="29.6" r=".7"/><path d="m13.8 29.5-.4-.4s0 0 0-.1h.1z" fill="#fff"/><circle cx="14" cy="17.7" r=".7"/><path d="m14.1 17.5.4-.4h.1v.1z" fill="#fff"/><path d="m8.1 27.1.2-12z" fill="#fafcfa"/><path d="m12.2 23.6.2-8.5z" fill="#fafcfa"/><path d="m19.5 23.6.1-8.5z" fill="#fafcfa"/><path d="m12.2 31.3v-7.4h11.1v-3.4h7.4v-5.4 5.4h-7.4v3.4h-11.1z" fill="#fafcfa"/><path d="m34.3 31.3-.1-16.2z" fill="#fafcfa"/><path d="m36 17.5h-.6-.1l-.3.5v.1l.3.5h.1.6.1l.3-.5v-.1l-.4-.5c.1 0 .1 0 0 0z" fill="#bbbcbb"/><circle cx="35.8" cy="18.1" fill="#1e1e1d" r=".4"/><path d="m35.8 18.6c-.3 0-.5-.2-.5-.5s.2-.5.5-.5.5.2.5.5-.2.5-.5.5zm0-1c-.3 0-.5.2-.5.5s.2.5.5.5.5-.2.5-.5-.2-.5-.5-.5z" fill="#1e1e1d"/><path d="m38.7 17.5h-.6-.1l-.3.5v.1l.3.5h.1.6.1l.3-.5v-.1z" fill="#bbbcbb"/><circle cx="38.4" cy="18.1" fill="#1e1e1d" r=".4"/><path d="m38.4 18.6c-.3 0-.5-.2-.5-.5s.2-.5.5-.5.5.2.5.5-.2.5-.5.5zm0-1c-.3 0-.5.2-.5.5s.2.5.5.5.5-.2.5-.5-.2-.5-.5-.5z" fill="#1e1e1d"/><path d="m39.8 19.9h-.6-.1l-.3.5v.1l.3.5h.1.6.1l.3-.5v-.1z" fill="#bbbcbb"/><circle cx="39.5" cy="20.5" fill="#1e1e1d" r=".4"/><path d="m39.5 21c-.3 0-.5-.2-.5-.5s.2-.5.5-.5.5.2.5.5-.2.5-.5.5zm0-1c-.3 0-.5.2-.5.5s.2.5.5.5.5-.2.5-.5-.2-.5-.5-.5z" fill="#1e1e1d"/><path d="m40.9 17.5h-.6-.1l-.2.5v.1l.3.5h.1.6.1l.3-.5v-.1z" fill="#bbbcbb"/><circle cx="40.6" cy="18.1" fill="#1e1e1d" r=".4"/><path d="m40.6 18.6c-.3 0-.5-.2-.5-.5s.2-.5.5-.5.5.2.5.5-.2.5-.5.5zm0-1c-.3 0-.5.2-.5.5s.2.5.5.5.5-.2.5-.5-.2-.5-.5-.5z" fill="#1e1e1d"/><path d="m41.8 19.9h-.6-.1l-.3.5v.1l.3.5h.1.6.1l.3-.5v-.1z" fill="#bbbcbb"/><circle cx="41.5" cy="20.5" fill="#1e1e1d" r=".4"/><path d="m41.5 21c-.3 0-.5-.2-.5-.5s.2-.5.5-.5.5.2.5.5-.2.5-.5.5zm0-1c-.3 0-.5.2-.5.5s.2.5.5.5.5-.2.5-.5-.2-.5-.5-.5z" fill="#1e1e1d"/><path d="m41.8 21.8h-.6-.1l-.3.5v.1l.3.5h.1.6.1l.3-.5v-.1z" fill="#bbbcbb"/><circle cx="41.5" cy="22.4" fill="#1e1e1d" r=".4"/><path d="m41.5 22.9c-.3 0-.5-.2-.5-.5s.2-.5.5-.5.5.2.5.5-.2.5-.5.5zm0-1c-.3 0-.5.2-.5.5s.2.5.5.5.5-.2.5-.5-.2-.5-.5-.5z" fill="#1e1e1d"/><path d="m41.8 23.7h-.6-.1l-.3.5v.1l.3.5h.1.6.1l.3-.5v-.1l-.4-.5c.1.1 0 0 0 0z" fill="#bbbcbb"/><circle cx="41.5" cy="24.3" fill="#1e1e1d" r=".4"/><path d="m41.5 24.8c-.3 0-.5-.2-.5-.5s.2-.5.5-.5.5.2.5.5-.2.5-.5.5zm0-1c-.3 0-.5.2-.5.5s.2.5.5.5.5-.2.5-.5-.2-.5-.5-.5z" fill="#1e1e1d"/><path d="m44.7 23.8h-.6-.1l-.3.5v.1l.3.5h.1.6.1l.3-.5v-.1z" fill="#bbbcbb"/><circle cx="44.4" cy="24.4" fill="#1e1e1d" r=".4"/><path d="m44.4 24.9c-.3 0-.5-.2-.5-.5s.2-.5.5-.5.5.2.5.5-.2.5-.5.5zm0-1c-.3 0-.5.2-.5.5s.2.5.5.5.5-.2.5-.5-.2-.5-.5-.5z" fill="#1e1e1d"/><path d="m43.7 21.9h-.6-.1l-.3.5v.1l.3.5h.1.6.1l.3-.5v-.1z" fill="#bbbcbb"/><circle cx="43.4" cy="22.4" fill="#1e1e1d" r=".4"/><path d="m43.4 22.9c-.3 0-.5-.2-.5-.5s.2-.5.5-.5.5.2.5.5-.2.5-.5.5zm0-1c-.3 0-.5.2-.5.5s.2.5.5.5.5-.2.5-.5-.2-.5-.5-.5z" fill="#1e1e1d"/><path d="m46.6 21.8h-.6-.1l-.3.5v.1l.3.5h.1.6.1l.3-.5v-.1z" fill="#bbbcbb"/><circle cx="46.3" cy="22.4" fill="#1e1e1d" r=".4"/><path d="m46.3 22.9c-.3 0-.5-.2-.5-.5s.2-.5.5-.5.5.2.5.5-.2.5-.5.5zm0-1c-.3 0-.5.2-.5.5s.2.5.5.5.5-.2.5-.5-.2-.5-.5-.5z" fill="#1e1e1d"/><path d="m43.1 17.5h-.6-.1l-.2.5v.1l.3.5h.1.6.1l.3-.5v-.1z" fill="#bbbcbb"/><circle cx="42.8" cy="18.1" fill="#1e1e1d" r=".4"/><path d="m42.8 18.6c-.3 0-.5-.2-.5-.5s.2-.5.5-.5.5.2.5.5-.2.5-.5.5zm0-1c-.3 0-.5.2-.5.5s.2.5.5.5.5-.2.5-.5-.2-.5-.5-.5z" fill="#1e1e1d"/><path d="m45.5 17.5h-.6-.1l-.2.5v.1l.3.5h.1.6.1l.3-.5v-.1z" fill="#bbbcbb"/><circle cx="45.2" cy="18.1" fill="#1e1e1d" r=".4"/><path d="m45.2 18.6c-.3 0-.5-.2-.5-.5s.2-.5.5-.5.5.2.5.5-.2.5-.5.5zm0-1c-.3 0-.5.2-.5.5s.2.5.5.5.5-.2.5-.5-.2-.5-.5-.5z" fill="#1e1e1d"/><path d="m48.1 17.5h-.6-.1l-.3.5v.1l.3.5h.1.6.1l.3-.5v-.1z" fill="#bbbcbb"/><circle cx="47.8" cy="18.1" fill="#1e1e1d" r=".4"/><path d="m47.8 18.6c-.3 0-.5-.2-.5-.5s.2-.5.5-.5.5.2.5.5-.2.5-.5.5zm0-1c-.3 0-.5.2-.5.5s.2.5.5.5.5-.2.5-.5-.2-.5-.5-.5z" fill="#1e1e1d"/><path d="m49.1 19.9h-.6-.1l-.3.5v.1l.3.5h.1.6.1l.3-.5v-.1z" fill="#bbbcbb"/><circle cx="48.8" cy="20.5" fill="#1e1e1d" r=".4"/><path d="m48.8 21c-.3 0-.5-.2-.5-.5s.2-.5.5-.5.5.2.5.5-.2.5-.5.5zm0-1c-.3 0-.5.2-.5.5s.2.5.5.5.5-.2.5-.5-.2-.5-.5-.5z" fill="#1e1e1d"/><path d="m46.7 23.8h-.6-.1l-.3.5v.1l.3.5h.1.6.1l.3-.5v-.1z" fill="#bbbcbb"/><circle cx="46.4" cy="24.4" fill="#1e1e1d" r=".4"/><path d="m46.4 24.9c-.3 0-.5-.2-.5-.5s.2-.5.5-.5.5.2.5.5-.2.5-.5.5zm0-1c-.3 0-.5.2-.5.5s.2.5.5.5.5-.2.5-.5-.2-.5-.5-.5z" fill="#1e1e1d"/><path d="m50.5 23.8h-.6-.1l-.3.5v.1l.3.5h.1.6.1l.3-.5v-.1l-.4-.5c.1 0 .1 0 0 0z" fill="#bbbcbb"/><circle cx="50.3" cy="24.3" fill="#1e1e1d" r=".4"/><path d="m50.3 24.8c-.3 0-.5-.2-.5-.5s.2-.5.5-.5.5.2.5.5-.2.5-.5.5zm0-1c-.3 0-.5.2-.5.5s.2.5.5.5.5-.2.5-.5-.2-.5-.5-.5z" fill="#1e1e1d"/><path d="m52.7 23.8h-.6-.1l-.3.5v.1l.3.5h.1.6.1l.3-.5v-.1z" fill="#bbbcbb"/><circle cx="52.4" cy="24.4" fill="#1e1e1d" r=".4"/><path d="m52.4 24.9c-.3 0-.5-.2-.5-.5s.2-.5.5-.5.5.2.5.5-.2.5-.5.5zm0-1c-.3 0-.5.2-.5.5s.2.5.5.5.5-.2.5-.5-.2-.5-.5-.5z" fill="#1e1e1d"/><path d="m52.7 26.5h-.6-.1l-.2.5v.1l.3.5h.1.6.1l.3-.5v-.1l-.5-.5c.1 0 .1 0 0 0z" fill="#bbbcbb"/><circle cx="52.5" cy="27.1" fill="#1e1e1d" r=".4"/><path d="m52.5 27.6c-.3 0-.5-.2-.5-.5s.2-.5.5-.5.5.2.5.5-.2.5-.5.5zm0-1c-.3 0-.5.2-.5.5s.2.5.5.5.5-.2.5-.5-.2-.5-.5-.5z" fill="#1e1e1d"/><path d="m54.7 26.4h-.6-.1l-.2.6v.1l.3.5h.1.6.1l.3-.5v-.1l-.5-.6c.1.1 0 0 0 0z" fill="#bbbcbb"/><circle cx="54.4" cy="27" fill="#1e1e1d" r=".4"/><path d="m54.4 27.5c-.3 0-.5-.2-.5-.5s.2-.5.5-.5.5.2.5.5-.2.5-.5.5zm0-1c-.3 0-.5.2-.5.5s.2.5.5.5.5-.2.5-.5-.2-.5-.5-.5z" fill="#1e1e1d"/><path d="m54.4 23.8h-.6-.1l-.3.5v.1l.3.5h.1.6.1l.3-.5v-.1l-.4-.5c.1 0 .1 0 0 0z" fill="#bbbcbb"/><circle cx="54.2" cy="24.3" fill="#1e1e1d" r=".4"/><path d="m54.2 24.8c-.3 0-.5-.2-.5-.5s.2-.5.5-.5.5.2.5.5-.2.5-.5.5zm0-1c-.3 0-.5.2-.5.5s.2.5.5.5.5-.2.5-.5-.2-.5-.5-.5z" fill="#1e1e1d"/><path d="m50.8 20.9h-.6-.1l-.3.5v.1l.3.5h.1.6.1l.3-.5v-.1z" fill="#bbbcbb"/><circle cx="50.5" cy="21.4" fill="#1e1e1d" r=".4"/><path d="m50.5 21.9c-.3 0-.5-.2-.5-.5s.2-.5.5-.5.5.2.5.5-.2.5-.5.5zm0-1c-.3 0-.5.2-.5.5s.2.5.5.5.5-.2.5-.5-.2-.5-.5-.5z" fill="#1e1e1d"/><path d="m52.5 20h-.5-.1l-.3.5v.1l.3.5h.1.6.1l.3-.5v-.1l-.5-.5c.1 0 .1 0 0 0z" fill="#bbbcbb"/><circle cx="52.3" cy="20.6" fill="#1e1e1d" r=".4"/><path d="m52.3 21.1c-.3 0-.5-.2-.5-.5s.2-.5.5-.5.5.2.5.5-.2.5-.5.5zm0-1c-.3 0-.5.2-.5.5s.2.5.5.5.5-.2.5-.5-.2-.5-.5-.5z" fill="#1e1e1d"/><path d="m54.4 19.9h-.6-.1l-.3.5v.1l.3.5h.1.6.1l.3-.5v-.1l-.4-.5c.1 0 .1 0 0 0z" fill="#bbbcbb"/><circle cx="54.2" cy="20.5" fill="#1e1e1d" r=".4"/><path d="m54.2 21c-.3 0-.5-.2-.5-.5s.2-.5.5-.5.5.2.5.5-.2.5-.5.5zm0-1c-.3 0-.5.2-.5.5s.2.5.5.5.5-.2.5-.5-.2-.5-.5-.5z" fill="#1e1e1d"/><path d="m52.6 21.9h-.6-.1l-.3.5v.1l.3.5h.1.6.1l.3-.5v-.1z" fill="#bbbcbb"/><circle cx="52.3" cy="22.5" fill="#1e1e1d" r=".4"/><path d="m52.3 23c-.3 0-.5-.2-.5-.5s.2-.5.5-.5.5.2.5.5-.2.5-.5.5zm0-1c-.3 0-.5.2-.5.5s.2.5.5.5.5-.2.5-.5-.2-.5-.5-.5z" fill="#1e1e1d"/><path d="m54.5 21.9h-.6-.1l-.3.5v.1l.3.5h.1.6.1l.3-.5v-.1z" fill="#bbbcbb"/><circle cx="54.2" cy="22.5" fill="#1e1e1d" r=".4"/><path d="m54.2 23c-.3 0-.5-.2-.5-.5s.2-.5.5-.5.5.2.5.5-.2.5-.5.5zm0-1c-.3 0-.5.2-.5.5s.2.5.5.5.5-.2.5-.5-.2-.5-.5-.5z" fill="#1e1e1d"/><path d="m54.5 17.5h-.6-.1l-.2.5v.1l.3.5h.1.6.1l.3-.5v-.1z" fill="#bbbcbb"/><circle cx="54.2" cy="18.1" fill="#1e1e1d" r=".4"/><path d="m54.2 18.6c-.3 0-.5-.2-.5-.5s.2-.5.5-.5.5.2.5.5-.2.5-.5.5zm0-1c-.3 0-.5.2-.5.5s.2.5.5.5.5-.2.5-.5-.2-.5-.5-.5z" fill="#1e1e1d"/><path d="m54.4 15.5h-.6-.1l-.3.5v.1l.3.5h.1.6.1l.3-.5v-.1l-.4-.5c.1 0 .1 0 0 0z" fill="#bbbcbb"/><circle cx="54.2" cy="16.1" fill="#1e1e1d" r=".4"/><path d="m54.2 16.6c-.3 0-.5-.2-.5-.5s.2-.5.5-.5.5.2.5.5-.2.5-.5.5zm0-1c-.3 0-.5.2-.5.5s.2.5.5.5.5-.2.5-.5-.2-.5-.5-.5z" fill="#1e1e1d"/><path d="m37.9 21.9h-.6-.1l-.2.5v.1l.3.5h.1.6.1l.3-.5v-.1z" fill="#bbbcbb"/><circle cx="37.7" cy="22.4" fill="#1e1e1d" r=".4"/><path d="m37.7 22.9c-.3 0-.5-.2-.5-.5s.2-.5.5-.5.5.2.5.5-.2.5-.5.5zm0-1c-.3 0-.5.2-.5.5s.2.5.5.5.5-.2.5-.5-.2-.5-.5-.5z" fill="#1e1e1d"/><path d="m39.9 23.7h-.6-.1l-.2.6v.1l.3.5h.1.6.1l.3-.5v-.1z" fill="#bbbcbb"/><circle cx="39.6" cy="24.3" fill="#1e1e1d" r=".4"/><path d="m39.6 24.8c-.3 0-.5-.2-.5-.5s.2-.5.5-.5.5.2.5.5-.2.5-.5.5zm0-1c-.3 0-.5.2-.5.5s.2.5.5.5.5-.2.5-.5-.2-.5-.5-.5z" fill="#1e1e1d"/><path d="m39.9 26.5h-.6-.1l-.2.5v.1l.3.5h.1.6.1l.3-.5v-.1z" fill="#bbbcbb"/><circle cx="39.6" cy="27.1" fill="#1e1e1d" r=".4"/><path d="m39.6 27.6c-.3 0-.5-.2-.5-.5s.2-.5.5-.5.5.2.5.5-.2.5-.5.5zm0-1c-.3 0-.5.2-.5.5s.2.5.5.5.5-.2.5-.5-.2-.5-.5-.5z" fill="#1e1e1d"/><path d="m43.7 26.4h-.6-.1l-.2.6v.1l.3.5h.1.6.1l.3-.5v-.1z" fill="#bbbcbb"/><circle cx="43.4" cy="27" fill="#1e1e1d" r=".4"/><path d="m43.4 27.5c-.3 0-.5-.2-.5-.5s.2-.5.5-.5.5.2.5.5-.2.5-.5.5zm0-1c-.3 0-.5.2-.5.5s.2.5.5.5.5-.2.5-.5-.2-.5-.5-.5z" fill="#1e1e1d"/><path d="m47.6 26.5h-.6-.1l-.2.5v.1l.3.5h.1.6.1l.3-.5v-.1z" fill="#bbbcbb"/><circle cx="47.3" cy="27.1" fill="#1e1e1d" r=".4"/><path d="m47.3 27.6c-.3 0-.5-.2-.5-.5s.2-.5.5-.5.5.2.5.5-.2.5-.5.5zm0-1c-.3 0-.5.2-.5.5s.2.5.5.5.5-.2.5-.5-.2-.5-.5-.5z" fill="#1e1e1d"/><path d="m36 20h-.6-.1l-.3.5v.1l.3.5h.1.6.1l.3-.5v-.1l-.4-.5c.1 0 .1 0 0 0z" fill="#bbbcbb"/><circle cx="35.8" cy="20.5" fill="#1e1e1d" r=".4"/><path d="m35.8 21c-.3 0-.5-.2-.5-.5s.2-.5.5-.5.5.2.5.5-.2.5-.5.5zm0-1c-.3 0-.5.2-.5.5s.2.5.5.5.5-.2.5-.5-.2-.5-.5-.5z" fill="#1e1e1d"/><path d="m36.1 23.7h-.6-.1l-.3.5v.1l.3.5h.1.6.1l.3-.5v-.1z" fill="#bbbcbb"/><circle cx="35.8" cy="24.3" fill="#1e1e1d" r=".4"/><path d="m35.8 24.8c-.3 0-.5-.2-.5-.5s.2-.5.5-.5.5.2.5.5-.2.5-.5.5zm0-1c-.3 0-.5.2-.5.5s.2.5.5.5.5-.2.5-.5-.2-.5-.5-.5z" fill="#1e1e1d"/><path d="m35.9 26.5h-.6-.1l-.2.5v.1l.3.5h.1.6.1l.3-.5v-.1z" fill="#bbbcbb"/><circle cx="35.6" cy="27" fill="#1e1e1d" r=".4"/><path d="m35.6 27.5c-.3 0-.5-.2-.5-.5s.2-.5.5-.5.5.2.5.5-.2.5-.5.5zm0-1c-.3 0-.5.2-.5.5s.2.5.5.5.5-.2.5-.5-.2-.5-.5-.5z" fill="#1e1e1d"/><path d="m1.6 41.9-.4-.5-.1-1.6 2.6-7.1-.2-.9.4-17.5.8-2-.8 2-.4 17.5.2.9-2.6 7.1.1 1.6z" fill="#9b9b9b"/><path d="m58.6 39.7-2.2-6.9.2-1-.4-17.5-.8-2 .8 2 .4 17.5-.2 1z" fill="#9b9b9b"/><g fill="#f2f1eb"><path d="m6.9 33-1.9 6.7h2.1l.7-2.6h-.9l1.1-4.1z"/><path d="m7.1 39.8h-2.1l1.8-6.8h.1 1.1l-1 4h.8l-.7 2.8c0-.1 0 0 0 0zm-2-.2h2l.7-2.5h-.9l1.1-4h-1z"/><path d="m8.1 37.1-.6 2.6h2.1l.6-2.6h-.4l.9-4.1h-1.1l-1 4.1z"/><path d="m9.6 39.8h-2.1l.5-2.7h.1.5l1-4.1h.1 1.1l-.9 4h.3l-.6 2.8c0-.1 0 0 0 0zm-2-.2h2l.6-2.5h-.4l.9-4h-1l-1 4.1s0 0-.1 0h-.5z"/><path d="m12.3 33-.9 4.1h-.9l-.6 2.6h2.1l1.4-6.7z"/><path d="m12 39.8h-2.1l.6-2.6h.1.9l.9-4.1h.1 1.1l-1.6 6.7c0-.1 0 0 0 0zm-2-.2h2l1.4-6.6h-1l-.9 4.1s0 0-.1 0h-.9z"/><path d="m13.7 33-1.4 6.7h2.2l.4-2.6h-1l.8-4.1z"/><path d="m14.5 39.8h-2.2l1.4-6.7h.1 1l-.8 3.9h.9l-.4 2.8c0-.1 0 0 0 0zm-2.1-.2h2.1l.4-2.5h-.9l.8-4h-.9z"/><path d="m16.2 33-.6 4.1h-.4l-.4 2.6h2.1l.4-2.6h-.7l.6-4.1z"/><path d="m16.9 39.8h-2.1l.4-2.6h.1.4l.6-4.1h.1 1l-.6 4h.6l-.5 2.7c0-.1 0 0 0 0zm-2-.2h2l.4-2.5h-.6l.6-4h-.9l-.6 4.1s0 0-.1 0h-.4z"/><path d="m17.2 39.7h2.1l.3-2.6h-.3l.5-4.1h-1l-.6 4.1h-.6z"/><path d="m19.3 39.8h-2.1l.4-2.6h.1.6l.6-4.1h.1 1l-.5 4h.2l-.4 2.7c0-.1 0 0 0 0zm-2-.2h2l.3-2.5h-.2l.5-4h-.9l-.6 4.1s0 0-.1 0h-.6z"/><path d="m19.6 39.7h2.2l.6-6.7h-1l-.5 4.1h-.9z"/><path d="m21.8 39.8h-2.2l.4-2.6h.1.9l.5-4.1h.1 1l-.8 6.7c0-.1 0 0 0 0zm-2.1-.2h2.1l.6-6.6h-.9l-.5 4.1s0 0-.1 0h-.9z"/><path d="m22.1 39.7h2.1l.2-2.6h-.9l.3-4.1h-1.1z"/><path d="m24.2 39.8h-2.1l.6-6.7h.1 1.1l-.3 4h.8l-.2 2.7c0-.1 0 0 0 0zm-2-.2h2l.2-2.5h-.8l.3-4h-1z"/><path d="m25.4 33-.3 4.1h-.4l-.2 2.6h2.2v-2.6h-.4l.2-4.1z"/><path d="m26.7 39.8h-2.2l.2-2.6h.1.4l.3-4.1h.1 1.1l-.2 4h.3s.1 0 .1.1l-.2 2.6c.1-.1 0 0 0 0zm-2.1-.2h2.1v-2.5h-.3l.2-4h-1l-.3 4.1s0 0-.1 0h-.4z"/><path d="m27 39.7h2.1l.1-6.7h-1.2l-.1 4.1h-.9z"/><path d="m29.1 39.8h-2.1s-.1 0-.1-.1v-2.6s0-.1.1-.1h.8l.1-4s0-.1.1-.1h1.2l-.1 6.9c.1-.1 0 0 0 0zm-2-.2h2l.1-6.6h-1.1l-.1 4s0 .1-.1.1h-.8z"/><path d="m29.4 39.7h2.1v-2.6h-1v-4.1h-1.1z"/><path d="m31.5 39.8h-2.1s-.1 0-.1-.1v-6.7s0-.1.1-.1h1.1s.1 0 .1.1v4h.9s.1 0 .1.1l-.1 2.7c.1-.1 0 0 0 0zm-2-.2h2v-2.5h-.9s-.1 0-.1-.1v-4h-1z"/><path d="m31.8 39.7h2.2l-.2-2.6h-.6l-.2-4.1h-1l.1 4.1h-.3z"/><path d="m34 39.8h-2.2s-.1 0-.1-.1v-2.6s0-.1.1-.1h.2l-.1-4h1 .1l.2 4.1h.5.1l.2 2.7c.1-.1 0-.1 0 0 0-.1 0 0 0 0zm-2.1-.2h2.1l-.2-2.5h-.6-.1l-.1-4h-.9l.1 4h-.2v2.5z"/><path d="m34.3 39.7h2.1l-.2-2.6h-.3l-.3-4.1h-1l.2 4.1h-.7z"/><path d="m36.4 39.8h-2.1s0 0-.1 0l-.2-2.7h.6l-.2-4h1 .1l.3 4.1h.3.1l.2 2.6c.1-.1 0-.1 0 0 0-.1 0 0 0 0zm-2.1-.2h2l-.2-2.5h-.3s0 0-.1 0l-.3-4.1h-.9l.2 4h-.6z"/><path d="m36.5 37.1.2 2.6h2.1l-.6-6.7h-1.1l.4 4.1z"/><path d="m38.8 39.8h-2.1s0 0-.1 0l-.2-2.6h.9l-.3-4.2h1.1.1l.6 6.8c.1-.1 0-.1 0 0 0-.1 0 0 0 0zm-2.1-.2h2l-.6-6.6h-1l.4 4h-.9z"/><path d="m39.1 39.7h2.2l-.4-2.6h-.9l-.4-4.1h-1.2z"/><path d="m41.3 39.8h-2.2s0 0-.1 0l-.7-6.8h1.2.1l.4 4h.9.1l.3 2.8c.1-.1 0-.1 0 0 0-.1 0 0 0 0zm-2.2-.2h2.1l-.4-2.5h-.8s0 0-.1 0l-.4-4.1h-1.1z"/><path d="m41.2 37.1.4 2.6h2.1l-.4-2.6h-.4l-.7-4.1h-1.1l.6 4.1z"/><path d="m43.7 39.8h-2.1s0 0-.1 0l-.4-2.6h.4l-.5-4.2h1.1.1l.7 4.1h.4.1l.3 2.7c.1-.1.1-.1 0 0 0-.1 0 0 0 0zm-2.1-.2h2l-.4-2.5h-.4s0 0-.1 0l-.7-4.1h-1l.6 4h-.4z"/><path d="m44 39.7h2.1l-1.2-6.7h-1.1l.7 4.1h-.9z"/><path d="m46.1 39.8h-2.1s0 0-.1 0l-.4-2.6h.8l-.7-4h1.1.1l1.3 6.6c.1-.1 0-.1 0 0 0-.1 0 0 0 0zm-2.1-.2h2l-1.2-6.6h-1l.7 4h-.8z"/><path d="m45.2 33 1.2 6.7h2.2l-.6-2.6h-1l-.8-4.1z"/><path d="m48.6 39.8h-2.2s0 0-.1 0l-1.2-6.8h1 .1l.8 4h1 .1l.5 2.8c.1-.1.1-.1 0 0 0-.1 0 0 0 0zm-2.2-.2h2.1l-.5-2.4h-1s0 0-.1 0l-.8-4.1h-.9z"/><path d="m48.9 39.7h2.1l-.6-2.6h-.7l-.9-4.1h-1l.9 4.1h-.4z"/><path d="m51 39.8h-2.1s0 0-.1 0l-.6-2.6h.3l-.9-4h1 .1l.9 4.1h.7.1l.6 2.5c.1-.1.1-.1 0 0 0-.1 0 0 0 0zm-2.1-.2h2l-.6-2.5h-.7s0 0-.1 0l-.9-4.1h-.9l.9 4h-.3z"/><path d="m51.3 37.1-1-4.1h1.1l1 4.1h.4l.6 2.6h-2.1l-.6-2.6z"/><path d="m53.4 39.8h-2.1s0 0-.1 0l-.6-2.6h.5l-1-4h1.1.1l1 4.1h.4.1l.6 2.5c.1-.1.1-.1 0 0 0-.1 0 0 0 0zm-2.1-.2h2l-.6-2.5h-.4s0 0-.1 0l-1-4.1h-1l1 4h-.5z"/><path d="m54 37.1-1.1-4.1h1l2 6.7h-2.2l-.7-2.6z"/><path d="m55.9 39.8h-2.2s0 0-.1 0l-.7-2.6h.9l-1.1-4h1l2.2 6.6c.1-.1.1-.1 0 0 0-.1 0 0 0 0zm-2.2-.2h2.1l-2-6.6h-.8l1.1 4h-.9z"/><path d="m54.2 33 2 6.7h2.1l-2.1-6.7z"/><path d="m58.3 39.8h-2.1l-2-6.7h2l2.1 6.7c.1-.1.1-.1 0 0 0-.1 0 0 0 0zm-2.1-.2h2l-2.1-6.6h-1.9z"/></g><path d="m31.7 32.7-.1.6v2.4.1l.2 1v.1l-.1-4z" fill="#141414"/><path d="m60 39.7-2.5-6.9-.6-.1 2 7.1z" fill="#17150f"/><path d="m58.3 41.9.1-.6.2-1.6h1.4-1.4l-.2 1.6z" fill="#9b9b9b"/><path d="m2.8 37.8.8-3.3h1.6l-.8 3.3z" fill="#020202"/><path d="m4.4 37.8h-1.6l.8-3.3h1.6zm-1.6 0h1.6l.8-3.3h-1.6z" fill="#666665"/><path d="m4.2 37.7.4-2.3v-.9h-.7v2.4z" fill="#191919"/><path d="m4.2 37.7h-1.1s-.2-3.2.4-3.2h1.1s-.6.1-.4 3.2z" fill="#333332"/><path d="m4.2 37.7h-1.1s-.2-2.7.3-3.1l.1-.1h1.1s-.6.1-.4 3.2zm-1.1 0h1.1c-.2-2.7.3-3.1.4-3.2h-1.1s-.1 0-.1.1c-.4.4-.3 3-.3 3.1z" fill="#282827"/><path d="m4.2 37.2h-1.1z" fill="#050505"/><path d="m4.2 36.8h-1.1z" fill="#050505"/><path d="m4.2 36.3h-1.1z" fill="#050505"/><path d="m4.2 35.9h-1.1z" fill="#050505"/><path d="m4.2 35.5h-1.1z" fill="#050505"/><path d="m4.3 35.1h-1.1z" fill="#050505"/><path d="m4.4 34.7h-1.1z" fill="#050505"/><ellipse cx="3.4" cy="38.5" fill="#60605c" rx=".4" ry=".2"/><path d="m3.2 38.1h.3v.4s0 .1-.1.1h-.1s-.1 0-.1-.1z" fill="#282828"/><ellipse cx="3.4" cy="38.1" fill="#3f3f3f" rx=".1" ry=".1"/><path d="m5.1 40.4h2.1l-.1-.7h-2.1z" fill="#cccbca"/><path d="m7.2 40.5h-2.1s0 0-.1 0l-.1-.7h2.1.1l.1.7c.1-.1 0-.1 0 0 0-.1 0 0 0 0zm-2.1-.2h2l-.1-.6h-2z" fill="#cccbca"/><path d="m7.6 40.4h2.1l-.1-.7h-2.1z" fill="#cccbca"/><path d="m9.7 40.5h-2.1s0 0-.1 0l-.1-.7h2.1.1l.1.7c.1-.1 0-.1 0 0 0-.1 0 0 0 0zm-2.1-.2h2l-.1-.6h-2z" fill="#cccbca"/><path d="m10 40.4h2.1l-.1-.7h-2.1z" fill="#cccbca"/><path d="m12.1 40.5h-2.1s0 0-.1 0l-.1-.7h2.2.1v.7c.1-.1 0-.1 0 0 0-.1 0 0 0 0zm-2.1-.2h2v-.5h-2z" fill="#cccbca"/><path d="m12.4 40.4h2.1v-.7h-2.2z" fill="#cccbca"/><path d="m14.5 40.5h-2.1s0 0-.1 0l-.1-.7h2.2s.1 0 .1.1v.6c.1-.1 0 0 0 0zm-2.1-.2h2v-.6h-2.1z" fill="#cccbca"/><path d="m14.8 40.4h2.2l-.1-.7h-2.1z" fill="#cccbca"/><path d="m17 40.5h-2.2s-.1 0-.1-.1v-.7s0-.1.1-.1h2.1.1v.9c.1-.1 0-.1 0 0 0-.1 0 0 0 0zm-2.1-.2h2.1l-.1-.6h-2z" fill="#cccbca"/><path d="m17.3 40.4h2.1l-.1-.7h-2.1z" fill="#cccbca"/><path d="m19.4 40.5h-2.1s0 0-.1 0l-.1-.7h2.1.1l.1.7c.1-.1 0-.1 0 0 0-.1 0 0 0 0zm-2.1-.2h2l-.1-.6h-2z" fill="#cccbca"/><path d="m19.7 40.4h2.1v-.7h-2.2z" fill="#cccbca"/><path d="m21.8 40.5h-2.1s0 0-.1 0l-.1-.7h2.2s.1 0 .1.1v.6c.1-.1 0 0 0 0zm-2.1-.2h2v-.6h-2.1z" fill="#cccbca"/><path d="m22.1 40.4h2.1v-.7h-2.1z" fill="#cccbca"/><path d="m24.2 40.5h-2.1s-.1 0-.1-.1v-.7s0-.1.1-.1h2.1s.1 0 .1.1l-.1.8c.1-.1 0 0 0 0zm-2-.2h2v-.6h-2z" fill="#cccbca"/><path d="m24.5 40.4h2.2v-.7h-2.2z" fill="#cccbca"/><path d="m26.7 40.5h-2.2s-.1 0-.1-.1v-.7s0-.1.1-.1h2.2s.1 0 .1.1l-.1.8c.1-.1 0 0 0 0zm-2.1-.2h2.1v-.6h-2.1z" fill="#cccbca"/><path d="m27 40.4h2.1v-.7h-2.1z" fill="#cccbca"/><path d="m29.1 40.5h-2.1s-.1 0-.1-.1v-.7s0-.1.1-.1h2.1s.1 0 .1.1l-.1.8c.1-.1 0 0 0 0zm-2-.2h2v-.6h-2z" fill="#cccbca"/><path d="m29.4 40.4h2.1v-.7h-2.1z" fill="#cccbca"/><path d="m31.5 40.5h-2.1s-.1 0-.1-.1v-.7s0-.1.1-.1h2.1s.1 0 .1.1l-.1.8c.1-.1 0 0 0 0zm-2-.2h2v-.6h-2z" fill="#cccbca"/><path d="m31.8 40.4h2.1l.1-.7h-2.2z" fill="#cccbca"/><path d="m33.9 40.5h-2.1s-.1 0-.1-.1v-.7s0-.1.1-.1h2.2l-.1.9c0-.1 0 0 0 0zm-2-.2h2l.1-.6h-2.1z" fill="#cccbca"/><path d="m34.2 40.4h2.2v-.7h-2.1z" fill="#cccbca"/><path d="m36.4 40.5h-2.2l.1-.7h.1 2.1s.1 0 .1.1l-.2.6c.1-.1 0 0 0 0zm-2.1-.2h2.1v-.6h-2z" fill="#cccbca"/><path d="m36.7 40.4h2.1v-.7h-2.1z" fill="#cccbca"/><path d="m38.8 40.5h-2.1s-.1 0-.1-.1v-.7s0-.1.1-.1h2.1s.1 0 .1.1l-.1.8c.1-.1 0 0 0 0zm-2-.2h2v-.6h-2z" fill="#cccbca"/><path d="m39.1 40.4h2.1l.1-.7h-2.2z" fill="#cccbca"/><path d="m41.2 40.5h-2.1s-.1 0-.1-.1v-.7s0-.1.1-.1h2.2l-.1.9c0-.1 0 0 0 0zm-2-.2h2l.1-.6h-2.1z" fill="#cccbca"/><path d="m41.5 40.4h2.1l.1-.7h-2.1z" fill="#cccbca"/><path d="m43.6 40.5h-2.1l.1-.7h.1 2.1l-.2.7c0-.1 0 0 0 0zm-2-.2h2l.1-.6h-2z" fill="#cccbca"/><path d="m43.9 40.4h2.2v-.7h-2.1z" fill="#cccbca"/><path d="m46.1 40.5h-2.2l.1-.7h.1 2.1s.1 0 .1.1l-.2.6c.1-.1 0 0 0 0zm-2.1-.2h2v-.6h-2z" fill="#cccbca"/><path d="m46.4 40.4h2.1v-.7h-2.1z" fill="#cccbca"/><path d="m48.5 40.5h-2.1s-.1 0-.1-.1v-.7s0-.1.1-.1h2.1s.1 0 .1.1l-.1.8c.1-.1 0 0 0 0zm-2-.2h2v-.6h-2z" fill="#cccbca"/><path d="m48.8 40.4h2.1l.1-.7h-2.1z" fill="#cccbca"/><path d="m50.9 40.5h-2.1l.1-.7h.1 2l-.1.7c0-.1 0 0 0 0zm-2-.2h2l.1-.6h-2z" fill="#cccbca"/><path d="m51.2 40.4h2.1l.1-.7h-2.1z" fill="#cccbca"/><path d="m53.3 40.5h-2.1l.1-.7h.1 2.1l-.2.7c0-.1 0 0 0 0zm-2-.2h2l.1-.6h-2z" fill="#cccbca"/><path d="m53.6 40.4h2.2l.1-.7h-2.2z" fill="#cccbca"/><path d="m55.8 40.5h-2.2l.1-.7h.1 2.2l-.2.7c0-.1 0 0 0 0zm-2.1-.2h2.1l.1-.6h-2.1z" fill="#cccbca"/><path d="m56.1 40.4h2.1l.1-.7h-2.1z" fill="#cccbca"/><path d="m58.2 40.5h-2.1l.1-.7h.1 2.1l-.2.7c0-.1 0 0 0 0zm-2-.2h2l.1-.6h-2z" fill="#cccbca"/><path d="m5 39.6h2.1v.2h-2.1z" fill="#f9f9f9"/><path d="m7.5 39.6h2.1v.2h-2.1z" fill="#f9f9f9"/><path d="m9.9 39.6h2.1v.2h-2.1z" fill="#f9f9f9"/><path d="m12.3 39.6h2.2v.2h-2.2z" fill="#f9f9f9"/><path d="m14.8 39.6h2.1v.2h-2.1z" fill="#f9f9f9"/><path d="m17.2 39.6h2.1v.2h-2.1z" fill="#f9f9f9"/><path d="m19.6 39.6h2.2v.2h-2.2z" fill="#f9f9f9"/><path d="m22.1 39.6h2.1v.2h-2.1z" fill="#f9f9f9"/><path d="m24.5 39.6h2.2v.2h-2.2z" fill="#f9f9f9"/><path d="m27 39.6h2.1v.2h-2.1z" fill="#f9f9f9"/><path d="m29.4 39.6h2.1v.2h-2.1z" fill="#f9f9f9"/><path d="m31.8 39.6h2.2v.2h-2.2z" fill="#f9f9f9"/><path d="m34.3 39.6h2.1v.2h-2.1z" fill="#f9f9f9"/><path d="m36.7 39.6h2.1v.2h-2.1z" fill="#f9f9f9"/><path d="m39.1 39.6h2.2v.2h-2.2z" fill="#f9f9f9"/><path d="m41.6 39.6h2.1v.2h-2.1z" fill="#f9f9f9"/><path d="m44 39.6h2.1v.2h-2.1z" fill="#f9f9f9"/><path d="m46.4 39.6h2.1v.2h-2.1z" fill="#f9f9f9"/><path d="m48.9 39.6h2.1v.2h-2.1z" fill="#f9f9f9"/><path d="m51.3 39.6h2.1v.2h-2.1z" fill="#f9f9f9"/><path d="m53.7 39.6h2.2v.2h-2.2z" fill="#f9f9f9"/><path d="m56.2 39.6h2.1v.2h-2.1z" fill="#f9f9f9"/><path d="m8.6 36.9.9-3.5v-.4l-.2-.3-.4.7-.6 2.5.2 1.1c-.1-.1 0 0 .1-.1z" fill="#141414"/></svg>