<svg enable-background="new 0 0 60 60" height="60" viewBox="0 0 60 60" width="60" xmlns="http://www.w3.org/2000/svg"><g stroke-width=".181"><g stroke="#1d1d1b"><path d="m60 41.4c0 .4-.3.8-.8.8h-58.4c-.4 0-.8-.3-.8-.8v-22.8c0-.4.3-.8.8-.8h58.5c.4 0 .8.3.8.8z" fill="#781d77"/><path d="m52.6 26.9c0-.4-.3-.8-.8-.8h-50.1c-.4 0-.8.3-.8.7v13.7c0 .4.3.8.8.8h50.2c.4 0 .8-.3.8-.8z" fill="#fff"/><path d="m9.8 39.5c0 .4-.4.8-.8.8h-6c-.4 0-.8-.3-.8-.8v-11.6c0-.4.3-.8.8-.8h6c.4 0 .8.3.8.8zm10.4 0c0 .4-.4.8-.8.8h-6.1c-.4 0-.8-.3-.8-.8v-11.6c0-.4.3-.8.8-.8h6.1c.4 0 .8.3.8.8zm10.4 0c0 .4-.3.8-.8.8h-6c-.4 0-.8-.3-.8-.8v-11.6c0-.4.3-.8.8-.8h6.1c.4 0 .8.3.8.8zm10.4 0c0 .4-.3.8-.8.8h-6.1c-.4 0-.8-.3-.8-.8v-11.6c0-.4.3-.8.8-.8h6.1c.4 0 .8.3.8.8zm10.4 0c0 .4-.3.8-.8.8h-6.1c-.4 0-.8-.3-.8-.8v-11.6c0-.4.3-.8.8-.8h6.1c.4 0 .8.3.8.8z" fill="#1d1d1b"/></g><path d="m9.8 39.2c0 .4-.4.8-.8.8h-6c-.4 0-.8-.3-.8-.8v-11.7c0-.4.3-.8.8-.8h6c.4 0 .8.4.8.8zm10.4 0c0 .4-.4.8-.8.8h-6.1c-.4 0-.8-.3-.8-.8v-11.7c0-.4.3-.8.8-.8h6.1c.4 0 .8.4.8.8zm10.4 0c0 .4-.3.8-.8.8h-6c-.4 0-.8-.3-.8-.8v-11.7c0-.4.3-.8.8-.8h6.1c.4 0 .8.4.8.8zm10.4 0c0 .4-.3.8-.8.8h-6.1c-.4 0-.8-.3-.8-.8v-11.7c0-.4.3-.8.8-.8h6.1c.4 0 .8.4.8.8zm10.4 0c0 .4-.3.8-.8.8h-6.1c-.4 0-.8-.3-.8-.8v-11.7c0-.4.3-.8.8-.8h6.1c.4 0 .8.4.8.8z" fill="#781d77" stroke="#fff"/></g><g stroke="#1d1d1b"><g fill="#fff"><path d="m12.6 24.4c0 .4-.4.8-.8.8h-10.1c-.4 0-.8-.4-.8-.8v-5.2c0-.4.3-.8.8-.8h10.1c.4 0 .8.3.8.8z" stroke-width=".181"/><path d="m13.5 18.5h3.4v1.3h-3.4zm0 1.8h3.4v1.3h-3.4zm0 1.8h3.4v1.3h-3.4zm0 1.8h3.4v1.3h-3.4zm4.2-5.4h1.9v1.3h-1.9zm0 1.8h1.9v1.3h-1.9zm0 1.8h1.9v1.3h-1.9zm0 1.8h1.9v1.3h-1.9z" stroke-width=".213"/><g stroke-width=".181"><circle cx="21.7" cy="20" r="1.5"/><path d="m21.1 18.7.4-.1.3 1-.4.1z"/><circle cx="21.7" cy="23.7" r="1.5"/><path d="m22 22.2.4.1-.3 1-.4-.1z"/><circle cx="25.7" cy="20" r="1.5"/><path d="m26.5 18.8.3.2-.6.8-.3-.2z"/><circle cx="25.7" cy="23.7" r="1.5"/><path d="m25.1 22.3.4-.1.3.9-.4.1z"/><circle cx="29.8" cy="20" r="1.5"/><path d="m29.6 18.5h.4v1h-.4z"/><circle cx="29.8" cy="23.7" r="1.5"/><path d="m28.5 23 .2-.3.8.6-.2.3z"/><circle cx="33.8" cy="20" r="1.5"/><path d="m34.2 18.6.4.2-.4.9-.4-.1z"/><circle cx="33.8" cy="23.7" r="1.5"/><path d="m33.1 22.4.3-.1.4 1-.4.1z"/><circle cx="37.8" cy="20" r="1.5"/><path d="m37.6 18.5h.4v1h-.4z"/><circle cx="37.8" cy="23.7" r="1.5"/><path d="m38.2 22.2.3.2-.4.9-.4-.2z"/></g><circle cx="57.6" cy="19.8" r="1.1" stroke-width=".17"/></g><circle cx="57.6" cy="19.8" fill="#1d1d1b" r=".8" stroke-width=".114"/><circle cx="54.4" cy="19.8" fill="#fff" r="1.1" stroke-width=".17"/><circle cx="54.4" cy="19.8" fill="#1d1d1b" r=".8" stroke-width=".114"/><circle cx="51.3" cy="19.8" fill="#fff" r="1.1" stroke-width=".17"/><g stroke-width=".114"><circle cx="51.3" cy="19.8" fill="#1d1d1b" r=".8"/><circle cx="42.8" cy="24.6" fill="#fff" r=".6"/><circle cx="45.1" cy="24.6" fill="#fff" r=".6"/><circle cx="47.3" cy="24.6" fill="#fff" r=".6"/><circle cx="49.5" cy="24.6" fill="#fff" r=".6"/><circle cx="51.8" cy="24.6" fill="#fff" r=".6"/></g></g><path d="m2.9 30.4 3.1-3.1 3.1 3.1m-6.2 1.3 3.1-3.1 3.1 3.1m-6.2 1.2 3.1-3 3.1 3.1m-6.2 1.2 3.1-3.1 3.1 3.1m-6.2 1.3 3.1-3.1 3.1 3.1m-6.2 1.3 3.1-3.1 3.1 3.1m-6.2 1.2 3.1-3 3.1 3m-6.2 1.3 3.1-3 3.1 3.1m4.2-9 3.1-3.1 3 3.1m-6.1 1.3 3.1-3.1 3 3.1m-6.1 1.2 3.1-3.1 3 3.1m-6.1 1.3 3.1-3.1 3 3.1m-6.1 1.3 3.1-3.1 3 3.1m-6.1 1.2 3.1-3.1 3 3m-6.1 1.4 3.1-3.1 3 3.1m-6.2 1.3 3.1-3.1 3 3.1m4.3-8.9 3.1-3.1 3.1 3.1m-6.2 1.3 3.1-3.1 3.1 3.1m-6.2 1.2 3.1-3.1 3.1 3.1m-6.2 1.3 3.1-3.1 3.1 3.1m-6.1 1.3 3.1-3.1 3.1 3.1m-6.2 1.2 3.1-3.1 3.1 3m-6.2 1.4 3.1-3.1 3.1 3.1m-6.2 1.3 3.1-3.1 3.1 3.1m4.2-8.9 3.1-3.1 3.1 3.1m-6.2 1.3 3.1-3.1 3.1 3.1m-6.2 1.2 3.1-3.1 3.1 3.1m-6.2 1.3 3.1-3.1 3.1 3.1m-6.2 1.3 3.1-3.1 3.1 3.1m-6.2 1.2 3.1-3.1 3.1 3m-6.2 1.4 3.1-3.1 3.1 3.1m-6.2 1.3 3.1-3.1 3.1 3.1m4.2-8.9 3.1-3.1 3.1 3.1m-6.2 1.3 3.1-3.1 3.1 3.1m-6.2 1.2 3.1-3.1 3.1 3.1m-6.2 1.3 3.1-3.1 3.1 3.1m-6.2 1.3 3.1-3.1 3.1 3.1m-6.2 1.3 3.1-3.1 3.1 3m-6.2 1.3 3.1-3.1 3.1 3.1m-6.2 1.3 3.1-3.1 3.1 3.1" fill="#1d1d1b" stroke="#fff" stroke-width=".114"/></svg>