<svg height="60" width="60" xmlns="http://www.w3.org/2000/svg"><g stroke-width=".181"><g stroke="#1d1d1b"><path d="m60 41.4c0 .43-.34.77-.77.77h-58.46c-.43 0-.77-.34-.77-.76v-22.81c0-.43.34-.77.77-.77h58.46c.43 0 .77.34.77.76v22.8z"/><path d="m52.63 26.85c0-.42-.35-.76-.77-.76h-50.16c-.43 0-.77.32-.77.74v13.7c0 .42.34.76.76.76h50.15c.42 0 .77-.33.77-.75v-13.7z" fill="#fff"/><path d="m9.8 39.54c0 .42-.35.77-.77.77h-6.06c-.43 0-.77-.33-.77-.75v-11.7c0-.4.34-.76.77-.76h6.06c.42 0 .77.33.77.75v11.68zm10.4 0c0 .42-.36.77-.78.77h-6.06c-.43 0-.77-.33-.77-.75v-11.7c0-.4.32-.76.75-.76h6.06c.43 0 .78.33.78.75v11.68zm10.37 0c0 .42-.34.77-.76.77h-6.04c-.43 0-.77-.33-.77-.75v-11.7c0-.4.33-.76.75-.76h6.07c.43 0 .77.33.77.75v11.68zm10.4 0c0 .42-.35.77-.77.77h-6.07c-.42 0-.76-.33-.76-.75v-11.7c0-.4.34-.76.76-.76h6.07c.42 0 .76.33.76.75v11.68zm10.38 0c0 .42-.34.77-.76.77h-6.1c-.42 0-.76-.33-.76-.75v-11.7c0-.4.34-.76.76-.76h6.07c.4 0 .75.33.75.75v11.68z" fill="#1d1d1b"/></g><path d="m9.8 39.16c0 .42-.35.76-.77.76h-6.06c-.43 0-.77-.34-.77-.76v-11.68c0-.43.34-.77.77-.77h6.06c.42 0 .77.36.77.8v11.67zm10.4 0c0 .42-.36.76-.78.76h-6.06c-.43 0-.77-.34-.77-.76v-11.68c0-.43.32-.77.75-.77h6.06c.43 0 .78.36.78.8v11.67zm10.37 0c0 .42-.34.76-.76.76h-6.04c-.43 0-.77-.34-.77-.76v-11.68c0-.43.33-.77.75-.77h6.07c.43 0 .77.36.77.8v11.67zm10.4 0c0 .42-.35.76-.77.76h-6.07c-.42 0-.76-.34-.76-.76v-11.68c0-.43.34-.77.76-.77h6.07c.42 0 .76.36.76.8v11.67zm10.38 0c0 .42-.34.76-.76.76h-6.1c-.42 0-.76-.34-.76-.76v-11.68c0-.43.34-.77.76-.77h6.07c.4 0 .75.36.75.8v11.67z" stroke="#fff"/></g><g stroke="#1d1d1b"><g fill="#fff"><path d="m12.6 24.43c0 .42-.35.77-.78.77h-10.12c-.43 0-.77-.35-.77-.77v-5.17c0-.42.34-.77.76-.77h10.1c.43 0 .77.33.77.75v5.17z" stroke-width=".181"/><path d="m13.5 18.5h3.4v1.26h-3.4zm0 1.8h3.4v1.27h-3.4zm0 1.82h3.4v1.26h-3.4zm0 1.8h3.4v1.28h-3.4zm4.16-5.42h1.86v1.26h-1.86zm0 1.8h1.86v1.27h-1.86zm0 1.82h1.86v1.26h-1.86zm0 1.8h1.86v1.28h-1.86z" stroke-width=".213"/><g stroke-width=".181"><circle cx="21.724" cy="20.032" r="1.538"/><path d="m21.07 18.7.36-.14.33.95-.37.15z"/><circle cx="21.724" cy="23.656" r="1.539"/><path d="m21.98 22.18.37.12-.3.96-.37-.12z"/><circle cx="25.745" cy="20.031" r="1.539"/><path d="m26.54 18.76.3.25-.64.8-.3-.25z"/><circle cx="25.745" cy="23.657" r="1.538"/><path d="m25.07 22.32.37-.13.33.93-.36.13z"/><circle cx="29.767" cy="20.032" r="1.539"/><path d="m29.57 18.55h.4v1h-.4z"/><circle cx="29.767" cy="23.656" r="1.538"/><path d="m28.45 22.95.22-.3.82.57-.25.32z"/><circle cx="33.788" cy="20.032" r="1.538"/><path d="m34.2 18.6.37.16-.4.9-.36-.14z"/><circle cx="33.788" cy="23.656" r="1.539"/><path d="m33.06 22.35.35-.14.4.95-.36.14z"/><circle cx="37.809" cy="20.032" r="1.538"/><path d="m37.6 18.55h.4v1h-.4z"/><circle cx="37.808" cy="23.656" r="1.538"/><path d="m38.2 22.2.35.16-.38.93-.36-.17z"/></g><circle cx="57.621" cy="19.787" r="1.134" stroke-width=".17"/></g><circle cx="57.62" cy="19.787" fill="#1d1d1b" r=".758" stroke-width=".114"/><circle cx="54.446" cy="19.787" fill="#fff" r="1.133" stroke-width=".17"/><circle cx="54.447" cy="19.787" fill="#1d1d1b" r=".759" stroke-width=".114"/><circle cx="51.271" cy="19.787" fill="#fff" r="1.133" stroke-width=".17"/><g stroke-width=".114"><circle cx="51.271" cy="19.787" fill="#1d1d1b" r=".76"/><circle cx="42.832" cy="24.557" fill="#fff" r=".638"/><circle cx="45.065" cy="24.557" fill="#fff" r=".639"/><circle cx="47.3" cy="24.557" fill="#fff" r=".638"/><circle cx="49.532" cy="24.557" fill="#fff" r=".639"/><circle cx="51.766" cy="24.557" fill="#fff" r=".638"/></g></g><path d="m2.93 30.4 3.07-3.07 3.07 3.07m-6.14 1.27 3.07-3.07 3.07 3.07m-6.14 1.27 3.07-3.07 3.07 3.07m-6.14 1.28 3.07-3.07 3.07 3.07m-6.14 1.28 3.07-3.1 3.07 3.07m-6.14 1.3 3.07-3.07 3.07 3.06m-6.14 1.28 3.07-3.07 3.07 3.07m-6.14 1.26 3.07-3.05 3.07 3.07m4.25-8.92 3.07-3.07 3.05 3.07m-6.13 1.27 3.07-3.07 3.05 3.07m-6.13 1.27 3.07-3.07 3.05 3.07m-6.13 1.28 3.07-3.07 3.05 3.07m-6.13 1.28 3.07-3.08 3.05 3.07m-6.13 1.26 3.07-3.07 3.05 3.05m-6.13 1.3 3.07-3.08 3.05 3.07m-6.13 1.26 3.07-3.06 3.05 3.07m4.25-8.9 3.08-3.07 3.07 3.07m-6.15 1.27 3.08-3.07 3.07 3.07m-6.15 1.27 3.08-3.07 3.07 3.07m-6.15 1.28 3.08-3.07 3.07 3.07m-6.07 1.29 3.08-3.08 3.07 3.07m-6.15 1.26 3.08-3.07 3.07 3.05m-6.15 1.3 3.08-3.08 3.07 3.07m-6.15 1.28 3.08-3.06 3.07 3.07m4.25-8.9 3.06-3.07 3.07 3.07m-6.13 1.27 3.06-3.07 3.07 3.07m-6.13 1.27 3.06-3.07 3.07 3.07m-6.13 1.28 3.06-3.07 3.07 3.07m-6.13 1.27 3.06-3.08 3.07 3.07m-6.13 1.26 3.06-3.07 3.07 3.05m-6.13 1.3 3.06-3.08 3.07 3.07m-6.13 1.28 3.06-3.06 3.07 3.07m4.25-8.9 3.07-3.07 3.07 3.07m-6.14 1.27 3.07-3.07 3.07 3.07m-6.14 1.27 3.07-3.07 3.07 3.07m-6.14 1.28 3.07-3.07 3.07 3.07m-6.14 1.28 3.07-3.08 3.07 3.07m-6.14 1.26 3.07-3.07 3.07 3.05m-6.14 1.3 3.07-3.08 3.07 3.07m-6.14 1.26 3.07-3.06 3.07 3.07" fill="#1d1d1b" stroke="#fff" stroke-width=".114"/></svg>