<svg enable-background="new 0 0 60 60" height="60" viewBox="0 0 60 60" width="60" xmlns="http://www.w3.org/2000/svg"><path d="m39.15 60.25-8.4-8.189v8.189h-1.5v-8.157l-8.379 8.157h-1.086l-.312-.211.178-.235 9.6-9.819v-25.735h-19.501v-23.5h19v-1h2.5v1h19v23.5h-19.5v25.701l9.828 10.065-.31.212-.108.022zm9.011-38.5-16.911-18.484v18.484zm-19.411 0v-18.187l-17.055 18.187zm20-.872v-18.628h-17.017zm-37.5-.19 17.259-18.438h-17.259z"/><path d="m31 0v1h19v22 1h-19.5v26.053l9.691 9.926-.031.021h-.908l-8.752-8.532v8.532h-1v-8.5l-8.731 8.5h-.908l-.032-.021 9.671-9.893v-26.086h-19.5v-1-22h19v-1zm18 21.523v-19.523h-17.834zm-38-.202 18-19.229v-.092h-18zm20 .679h17.729l-17.729-19.378zm-19.882 0h17.882v-19.069zm20.382-22.5h-.5-2-.5v.5.5h-18.5-.5v.5 22 1 .5h.5 19v25.382l-9.528 9.747-.418.428.496.336.127.086.185.021h.908.203l.146-.142 7.881-7.673v7.315.5h.5 1 .5v-.5-7.347l7.903 7.705.146.142h.203.908.155l.128-.088.489-.337-.384-.446-9.548-9.78v-25.349h19 .5v-.5-1-22-.5h-.5-18.5v-.5zm.8 3h16.2v17.734zm-20.8 0h16.433l-16.433 17.555zm20 19v-17.591l16.094 17.591zm-19.228 0 16.228-17.305v17.305z" fill="#fff"/></svg>