<svg enable-background="new 0 0 60 60" height="60" viewBox="0 0 60 60" width="60" xmlns="http://www.w3.org/2000/svg"><path d="m39.2 60.2-8.4-8.2v8.2h-1.5v-8.2l-8.4 8.2h-1.1l-.3-.2.2-.2 9.6-9.8v-25.8h-19.5v-23.4h19v-1h2.5v1h19v23.5h-19.5v25.7l9.8 10-.3.2h-.1zm9-38.4-17-18.5v18.5zm-19.4 0v-18.2l-17.1 18.2zm20-.9v-18.7h-17zm-37.6-.2 17.3-18.5h-17.3z" fill="#063e89"/><path d="m31 0v1h19v22 1h-19.5v26.1l9.7 9.9h-.9l-8.8-8.5v8.5h-1v-8.5l-8.7 8.5h-.9l9.7-9.9v-26.1h-19.6v-1-22h19v-1zm18 21.5v-19.5h-17.8zm-38-.2 18-19.2v-.1h-18zm20 .7h17.7l-17.7-19.4zm-19.9 0h17.9v-19.1zm20.4-22.5h-.5-2-.5v.5.5h-18.5-.5v.5 22 1 .5h.5 19v25.4l-9.5 9.7-.4.4.5.3.1.1h.2.9.2l.1-.1 7.9-7.7v7.4.5h.5 1 .5v-.5-7.3l7.9 7.7.1.1h.2.9.2l.1-.1.5-.3-.4-.4-9.5-9.9v-25.3h19 .5v-.5-1-22-.5h-.5-18.5v-.5zm.8 3h16.2v17.7zm-20.8 0h16.4l-16.4 17.6zm20 19v-17.6l16.1 17.6zm-19.2 0 16.2-17.3v17.3z" fill="#fff"/></svg>