<svg enable-background="new 0 0 60 60" height="60" viewBox="0 0 60 60" width="60" xmlns="http://www.w3.org/2000/svg"><g fill="#249ac1"><ellipse cx="29.4" cy="6.4" rx="6" ry="6.4"/><path d="m20.7 37.7v22.3h7.7v-14.2h2v14.2h7.6v-22.3z"/><path d="m38 37.1v-21.8c0-1.1-.7-2-1.6-2h-14c-.9 0-1.6.9-1.6 2v21.8z"/><path d="m20.2 14c-.3-.1-1-.1-1.3-.1-1.5 0-2.3 1-2.3 2.2v16.4c0 1.2.9 2.2 2.3 2.2.3 0 1.1 0 1.3-.1z"/><path d="m43.5 31.5-3.6-15.8c-.2-.7-.6-1.2-1.3-1.4v14.2l.9 4c.3 1.1 1.3 1.8 2.4 1.5s1.8-1.4 1.6-2.5z"/></g></svg>