<svg enable-background="new 0 0 60 60" height="60" viewBox="0 0 60 60" width="60" xmlns="http://www.w3.org/2000/svg"><path d="m25.9 32c-.1-.5-.6-2.6-.6-2.6s-.1-.2-.5-.1c-.5.1-1.5-.2-1.7-1.1-.4-1.9.5-4.3.1-5.4-.3-.8-1.6-1.8-4 .8-1.3 1.4-2.7 4.2-3.9 6.2-1.3 2.2-3 3-5.2 3.7-2.1.7-7.8 1.8-9.5 6.5-1.5 4.1 0 7.5 1.8 10.2 1.7 2.5 5.2 7.2 9.8 9.1 2.6 1 5.7-1.3 6.9-4.6.9-2.5.8-6.4 3.3-7.5s6.5-2.5 7.4-5.6c.7-2.4-.9-3.4-2.1-3.8-.9-.3-2.1-1.3-1.8-3 .2-1.5.1-2.3 0-2.8z" fill="#063e89"/><path d="m23.1 31.5c-.1-.6-.5-.8-.8-1.3-.3-.6-.4-.8-.5-1.6-.1-.9-.2-1.9-.3-2.2-.1-.5-.7-1.1-1.7-.2-1.1 1-3 3.6-4.7 7.8-1.3 3.1-1.3 3.7-2.7 4.9-1 1-1.8 2.3-1.1 3.1l3.3 3.3c.7.6 1.1 1.3 1 2.4-.2 1.7-.9 4.7.5 6.9.6.8 1.6.8 1.9-.4.4-1.4 1-5 2.4-6.6 1.4-1.7 3.8-2.1 5.6-3.2 1.9-1.1 3-2.7 2.7-3.9-.3-1.1-1.5-1.3-2.1-1.7s-1.8-1.4-2.1-2.9zm-17.8 16.7c.6.7 2 2.4 4 3.8.5.3.8.1 1.2-.1s1.9-1.5 2.4-3.2c.5-2.2-2.1-4.7-4.5-3.9-1.2.4-2.2 1.4-3.1 2.3-.4.5-.3.8 0 1.1z" fill="#fff"/><path d="m19 34c.3-.3.9-.3 1.2 0l3.4 3.4c.3.3.3.8 0 1.2s-.8.3-1.2 0l-3.4-3.4c-.4-.3-.4-.9 0-1.2zm-3.6 12-3.9-4c-.2-.2-.2-.6.1-.9s.7-.3.9-.1l3.9 3.9c.2.2.2.6-.1.9s-.7.4-.9.2zm-3-4.9c-.2-.2-.5-.1-.7.1s-.3.6-.1.7l3.9 3.9c.2.2.5.1.7-.1s.3-.6.1-.7c0 0-3.9-3.9-3.9-3.9zm.1 1.4-.4-.4c-.1 0-.1-.1 0-.2l.1-.2h.2l.4.4v.2l-.1.2c-.1.1-.2.1-.2 0zm-.1-.7h-.1l-.2.2v.1l.4.4h.1l.1-.2v-.1zm.7 1.3-.4-.4c-.1 0-.1-.1 0-.2l.1-.1h.2l.4.4v.2l-.1.2c-.1 0-.1 0-.2-.1zm-.1-.7h-.1l-.1.2v.1l.4.4h.1l.1-.2v-.1zm.7 1.3-.4-.4s0-.1 0-.2l.1-.1h.2l.4.4v.2l-.1.1c-.1 0-.1 0-.2 0zm-.1-.7-.2.2v.1l.4.4h.1l.1-.1v-.1c0-.1-.4-.5-.4-.5zm.7 1.3-.4-.4c-.1 0-.1-.1 0-.2l.1-.1c0-.1.1-.1.2 0l.4.4v.2l-.1.1c-.1 0-.2 0-.2 0zm-.1-.7h-.1l-.1.2v.1l.4.4h.1l.2-.1v-.1zm.7 1.2-.4-.4s0-.1 0-.2l.1-.2h.1l.4.4v.2l-.1.1c0 .1 0 .1-.1.1zm-.1-.7h-.1l-.1.2v.1l.4.4h.1l.1-.2v-.1zm.8 1.2-.4-.4s0-.1 0-.2l.1-.2h.2l.4.4v.2l-.1.2c-.1.1-.2.1-.2 0zm-.2-.7h-.1l-.1.1v.1l.4.4h.1l.1-.2v-.1zm5.9-10.7c-.2-.3-.1-.5.1-.7.3-.2 24.7-23.9 24.7-23.9s.4-.3.3-1.1c-.1-.7.1-1 .5-1.2s8.8-5 9.3-5.4 1.8-1.1 2.9 0c1 1 1.1 2.6-.1 3.6-1 .8-1.7.5-2.2.3s-1 .3-1.2.7-.8 1.7-1.4 2.7c-.5.9-1 1.7-1.5 2.2-.1.1-.2.2-.3.1-.8-.8-1.7-.9-2.3-.7-.6.1-1.2.7-1.5 1-.2.2-24 24.6-24.3 24.9-.1.1-.3.1-.5 0-.4-.3-2-1.7-2.5-2.5z" fill="#063e89"/><path d="m22.2 35c-.3-.3-.7-.8-.9-1.1-.2-.4-.1-.6.1-.8s23.7-22.9 24.7-23.9c0 0 .4-.3.3-1 0-.7.1-1 .5-1.2.5-.2 8.8-5.1 9.3-5.4h.1c.6-.4 1.8-1.1 2.9 0 .6.4.8 1.2.8 1.9s-.4 1.3-.9 1.8c-1 .8-1.7.5-2.2.3h-.1c-.7-.2-1 .5-1.2.7-.2.4-.8 1.7-1.4 2.7-.5 1-1 1.7-1.5 2.2 0 .1-.1.1-.2.1 0 0-.1 0-.1-.1-.9-.9-2-.8-2.3-.7-.6.1-1.2.6-1.5 1-.3.3-24.1 24.7-24.3 24.9-.1.1-.3.1-.5 0-.3-.2-1-.8-1.6-1.4zm24-25.7c-.4.4-24.5 23.7-24.7 23.9s-.3.4-.1.7.6.8.9 1.1c.6.6 1.3 1.2 1.5 1.3s.3 0 .4 0c.2-.2 24-24.6 24.3-24.9s1-.9 1.6-1c.3-.1 1.4-.2 2.3.8h.1s.1-.1.2-.1c.5-.5 1-1.2 1.5-2.2s1.2-2.3 1.4-2.7c.2-.5.7-1 1.3-.8h.1c.6.2 1.2.4 2.1-.3.5-.4.8-1 .9-1.7 0-.7-.2-1.4-.8-1.9-1-1-2.2-.3-2.8 0h-.1c-.5.5-8.9 5.3-9.3 5.5s-.5.4-.5 1.1c.1.8-.3 1.1-.3 1.2z" fill="#fff"/><path d="m55.4 2.1s-.1-.2-.1-.2-.1-.1-.1 0c-.1 0-.3.1-.3.1s-.1 0-.2-.1-.1-.3-.2-.4c0-.2.2-.5.4-.6.3-.2.6-.2.7-.2s.1.1.2.1.2.1.2.2v.1s-.2.2-.2.2c-.1 0-.1.1-.1.2.1.1.1.2.1.2zm-1.6.9s-.1-.2-.2-.2c0 0-.1-.1-.1 0-.1 0-.3.1-.3.1s-.1 0-.2-.1-.1-.3-.2-.4c0-.2.2-.5.4-.6.3-.2.6-.2.7-.2s.1.1.2.1c.1.1.2.2.2.3v.1s-.2.2-.2.2c-.1.1-.2.1-.1.2s.2.2.2.2zm-1.6 1s-.1-.2-.1-.2-.1-.1-.1 0c-.1 0-.3.1-.3.1s-.1 0-.2-.1-.1-.3-.2-.4c0-.2.2-.5.4-.7.3-.2.6-.2.7-.2s.1.1.2.1c.1.1.2.2.2.3v.2s-.2.2-.2.2c0 .1-.1.1-.1.2s.2.2.2.2zm-1.5.9s-.1-.2-.2-.2c0-.1-.1-.1-.1-.1-.1 0-.3.1-.3.1s-.1 0-.2-.1c0-.1-.1-.3-.2-.4 0-.2.2-.5.4-.7.3-.2.6-.2.7-.2s.1.1.2.1c.1.1.2.2.2.3v.2s-.2.2-.2.2c0 .1-.1.1-.1.2s.2.2.2.2zm-1.7.9s-.1-.2-.1-.2c0-.1-.1-.1-.1-.1-.1 0-.3.1-.3.1s-.1 0-.2-.1-.1-.3-.2-.4c0-.2.2-.5.4-.7.3-.2.6-.2.7-.2s.1.1.2.1c0 .1.2.2.2.3s.1.1 0 .2c0 0-.2.2-.2.2-.1.1-.2.1-.1.2s.2.2.2.2zm-1.5 1s-.1-.2-.2-.2c0-.1-.1-.1-.1-.1-.1 0-.3.1-.3.1s-.1 0-.2-.1-.1-.3-.2-.4c0-.2.2-.4.4-.6.3-.2.6-.2.7-.2s.1.1.2.1c0 .1.2.2.2.3s0 .1 0 .2-.2.2-.2.2c-.1.1-.2.1-.1.2s.2.2.2.2z" fill="#063e89"/><g fill="#fff"><path d="m45.8 9.5s.4.4 1.1 1.1c.8.8 1.1 1.2 1.1 1.2l.2-.2s-.2-.2-1.1-1.2c-.7-.7-1.1-1.1-1.1-1.1zm-1.9 2 .1.1v.1l.1.1.1.1.1.1.1.1.1.1.1.1.1.1.2.1.2.2.1.1.1.1.1.1.1.1.1.1.1.1.1.1.1.1v.1.1c0 .1.1.1.1.1v-.1-.1-.1l-.1-.1-.1-.1-.1-.1-.1-.1-.1-.1h-.1l-.1-.1-.2-.2-.1-.2-.1-.1-.1-.1-.1-.1-.1-.1v-.1l-.1-.1-.1-.1v-.1l-.5-.2c0-.1 0-.2 0 0 0-.1-.1-.1 0 0zm-1.8 1.7.1.1v.1.1l.1.1.1.1.1.1.1.1.1.1.1.1.1.1.1.1.1.1.2.2.1.1.1.1.1.1.1.1.1.1.1.1.1.1.1.1s.1.1.1 0v-.1-.1l-.1-.1-.1-.1v.1l-.1-.1-.1-.1-.1-.1-.1-.1-.1-.1-.2-.2-.1-.1-.1-.1-.1-.2-.1-.1-.1-.1-.1-.1-.1-.1-.1-.1v-.1l-.4-.2c0-.1 0-.1 0-.1s-.1 0 0 .1zm-1.7 1.7.1.1v.1.1l.1.1.1.1.1.1.1.1.1.1.1.1.1.1.1.2.2.2.2.1.1.1.1.1.1.1.1.1.1.1.1.1h.1s.1.1.1.1v-.1l-.1-.1-.1-.1-.1-.1-.1-.1-.1-.1v-.1l-.1-.1-.2-.2-.1-.1-.1-.1-.1-.1-.1-.1-.1-.1-.2-.1-.1-.1-.1-.1-.1-.1-.3-.3c0-.1-.1-.1 0 0-.1-.1-.1 0 0 0zm-1.6 1.5.1.1v.1l.1.1.1.1.1.1.1.1.1.1.1.1.1.1.1.1.2.2.1.1.1.1.1.1.1.1.1.1.1.1.1.1.1.1s.1.1.1 0c0 0 0 0 0-.1l.2.3-.1-.1-.1-.1-.1-.1-.1-.1-.1-.1v-.1l-.2-.1-.2-.2-.1-.2-.1-.1-.1-.1-.1-.1-.1-.1-.1-.1-.1-.1-.1-.1c-.5-.4-.5-.4-.5-.4zm-1.6 1.5.1.1h.1l.1.1.1.1.1.1.1.1.1.1.1.1.1.1.1.1.1.1.1.1.2.2.2.2.1.2.1.1.1.1.1.1.1.1.1.1s.1.1.1 0 0-.1 0-.1h-.1l-.1-.1-.1-.1.2.2-.1-.1-.1-.1-.2-.2-.2-.2-.2-.2-.1-.2-.1-.1-.1-.1-.1-.1-.1-.1-.1-.1-.1-.1-.1-.1-.1-.1-.1-.1-.4-.2c0-.1-.1-.1-.1-.1s.1 0 .1.1zm-1.4 1.4.1.1.1.1.1.1.1.1.1.1.1.1.1.1.1.1.1.1.1.1.1.1.1.1.2.2.2.2.1.1.1.1.1.1.1.1.1.1.1.1.1.1h.1s0 0 0-.1l-.1-.1-.1-.1-.1-.1.1.1-.1-.1-.1-.1-.1-.1-.2-.2-.2-.2-.1-.1-.1-.1-.1-.1v-.1l-.1-.1-.1-.1-.1-.1-.1-.1-.1-.1-.1-.1-.6-.3.1-.1h-.1c-.1 0 0 0 0 .1zm-1.3 1.3.1.1h.1l.1.1.1.1.1.1.1.1.1.1.1.1.1.1.1.1.1.1.1.1.1.1.1.1.2.2.2.2.2.2.2.2.1.1h.1s0-.1 0-.1l.1.3-.2-.2-.2-.2-.2-.2-.2-.2-.2-.2-.1-.1-.1-.1-.1-.1-.1-.1-.1-.1-.1-.1-.1-.1-.1-.1-.1-.1v-.1h-.1l-.1-.1-.4-.3c0-.1 0-.1 0-.1zm-1.3 1.2.1.1.1.1.1.1.1.1.1.1.1.1.1.1.1.1.1.1.1.1.1.1.1.1.1.1.1.1.1.1.1.1.1.1.1.1.1.1.1.1.1.1.1.1.1.1s.1.1.1 0 0-.1 0-.1l-.1-.1-.1-.1-.1-.1-.1-.1-.1-.1-.1-.1-.1-.1-.1-.1-.1-.1-.1-.1-.1-.1-.1-.1-.1-.1-.1-.1-.1-.1-.1-.1-.1-.1-.1-.1-.1-.1-.1-.1-.4-.2.1-.1h-.1zm-1.1 1.2.1.1v.1l.1.1.1.1.1.1.1.1.1.1.1.1.1.1.1.1.1.1.1.1.1.1.1.1.1.1.1.1.1.1.1.1.1.1.1.1.1.1.1.1.1.1s.1.1.1 0v-.1l-.1-.1-.1-.1-.1-.1.1.1-.1-.1-.1-.2-.1-.1-.1-.1-.1-.1-.1-.1-.1-.1-.1-.1-.2-.1-.1-.1-.1-.1-.1-.1-.1-.1-.1-.1-.1-.1-.1-.1-.1-.1h-.3v-.2c0-.1-.1-.1 0 0-.1-.1-.1-.1 0 0zm-1.2 1.1.1.1.1.1.1.1.1.1.1.1.1.1.1.1.1.1.1.1.1.1.1.1.1.1.1.1.1.1.1.1.1.1.1.1.1.1.1.1.1.1.1.1.1.1h.1v-.1l-.1-.1-.1-.1-.1-.1-.1-.1.2.2-.1-.1-.1-.1-.1-.1-.1-.1-.1-.1-.1-.1-.1-.1-.1-.1-.2-.2-.1-.1-.1-.1-.1-.1-.1-.1-.1-.1-.1-.1-.1-.1-.4-.2c0-.1 0-.1 0-.1zm-1 1 .1.1.1.1.1.1.1.1.1.1.1.1.1.1.1.1.1.1.1.1.1.1.1.1.1.1.1.1.1.1.1.1.1.1.1.1.1.1.1.1.1.1s.1.1.1 0v-.1l-.1-.1-.1-.1-.1-.1-.1-.1.3.4-.1-.1-.1-.1-.1-.1-.1-.1-.1-.1-.1-.1-.1-.1-.1-.1-.2-.3-.1-.1-.1-.1-.1-.1-.1-.1-.1-.1-.1-.1-.5-.3c0-.1 0-.1 0-.1-.1 0-.1 0 0 .1zm-1 .9.1.1.1.1.1.1.1.1.1.1.1.1.1.1.1.1.1.1.1.1.1.1.1.1.1.1.1.1.1.1.1.1.1.1.1.1.1.1.1.1.1.1h.1s0-.1 0-.1l-.1-.1-.1-.1-.1-.1-.1-.1.3.4-.1-.1-.1-.1-.1-.1-.1-.1-.1-.1-.1-.1-.1-.1-.3-.2-.1-.1-.1-.1-.1-.1-.1-.1-.1-.1-.1-.1h-.1c-.4-.5-.4-.5-.4-.5-.1 0-.1 0 0 0zm-.9.9.1.1h.1l.1.1.1.1.1.1.1.1.4.6.1.1.1.1.1.1.1.1.1.1.1.1.1.1.3.3.1.1.1.1.1.1.1.2.1.1s.1.1.1 0v-.1l-.1-.1-.1-.1-.1-.1-.1-.1-.1-.1-.1-.1-.1-.1-.1-.1-.1-.1-.1-.1-.1-.1-.1-.1-.3-.3-.1-.1-.1-.1-.1-.1-.1-.1-.1-.1-.1-.1-.5-.5c0-.1-.1-.1-.1-.1s0 .1.1.1zm-1 .9.1.1.1.1.1.1.1.1.1.1.1.1.1.1.1.1.1.1.1.1.1.1.1.1.2.2.2.2.2.2.2.2.1.1.1.1.1.1.1.1.1.1.1.1.1.1.1.1.1.1.1.1h.1s0-.1 0-.1l-.1-.1-.1-.1-.1-.1-.1-.1-.3-.3-.1-.1-.1-.1-.1-.1-.1-.1-.1-.1-.2-.2-.2-.2-.2-.1-.2-.2-.1-.1v-.1l-.1-.1-.1-.1-.1-.1-.1-.1-.1-.1-.1-.1-.1-.1-.1-.1-.1-.1-.1.1c.1-.1 0-.1 0 0 0-.1 0 0 0 0zm-.8.8.1.1.1.1.1.1.1.1.1.1.1.1.1.1.1.1.1.1.1.1.1.1.1.1.2.2.2.2.2.2.2.2.2.2.1.1.1.1.1.1.1.1.1.1.1.1.1.1.1.1s.1.1.1 0v-.1l-.1-.1-.1-.1-.3-.3-.1-.1-.1-.1-.1-.1-.1-.1-.1-.1-.2-.2-.2-.2-.2-.1-.2-.2-.2-.2-.1-.1-.1-.1-.1-.1-.1-.1-.1-.1-.1-.1-.1-.1-.1-.1-.1-.1-.1-.1h-.1c.1-.1 0-.1 0 0zm-.7.8.1.1.1.1.1.1.1.1.1.1.1.1.1.1.1.1.1.1.1.1.1.1.1.1.2.2.2.2.2.2.2.2.2.2.1.1.1.1.1.1.1.1.1.1.1.1.1.1.1.1h.1s0-.1 0-.1l-.1-.1-.1-.1-.4-.3-.1-.1-.1-.1-.1-.1-.1-.1-.1-.1-.2-.2-.2-.2-.1-.2-.2-.2-.2-.2-.1-.1-.1-.1-.1-.1-.1-.1-.1-.1h-.1l-.1-.1-.1-.1-.1-.1-.1-.1-.1-.1v.1c0-.1 0-.1-.1-.1s0 0 .1.1zm-.8.7.1.1.1.1.1.1.1.1.1.1.1.1.1.1.1.1.1.1.1.1.1.1.1.1.2.2.2.2.2.2.2.2.2.2.1.1.1.1.1.1.1.1.1.1.1.1.1.1.1.1h.1v-.1l-.1-.1-.1-.1-.1-.1-.1-.1-.1-.1-.3-.3-.1-.1-.1-.1-.2-.2-.2-.2-.2-.2-.2-.1-.2-.2-.1-.1-.1-.1-.1-.1-.1-.1-.1-.1-.1-.1-.1-.1-.1-.1-.1-.1-.1-.1h-.1c0-.1 0-.1 0 0-.1-.1 0 0 0 0zm-.7.7.1.1.1.1.1.1.1.1.1.1.1.1.1.1.1.1.1.1.1.1.1.1.1.1.2.2.2.2.2.2.2.2.2.2.1.1.1.1.1.1.1.1.1.1.1.1.1.1.1.1h.1v-.1l-.1-.1-.1-.1-.1-.1-.1-.1-.3-.3-.1-.1-.1-.1-.2-.3-.2-.2-.2-.2-.2-.1-.2-.2-.1-.1-.1-.1-.1-.1-.1-.1-.1-.1-.1-.1-.1-.1-.1-.1-.1-.1-.1-.1-.1-.1-.1.1c.1-.1 0-.1 0 0 0-.1 0 0 0 0zm-.6.6.1.1.1.1.1.1.1.1.1.1.1.1.1.1.1.1.1.1.1.1.1.1.1.1.2.2.2.2.2.2.2.2.2.2.1.1.1.1.1.1.1.1.1.1.1.1.1.1.1.1h.1s0-.1 0-.1l-.4-.3h-.1v-.1l-.1-.1-.1-.1-.1-.1-.1-.1-.1-.1-.2-.2-.2-.2-.2-.2-.2-.2-.2-.2-.1-.1-.1-.1-.1-.1-.1-.1-.1-.1-.1-.1-.1-.1-.1-.1-.1-.1-.1-.1-.1-.1v.1-.1h-.1s0 0 .1.1zm-.7.6.1.1.1.1.1.1.1.1.1.1.1.1.1.1.1.1.1.1.1.1.1.1.1.1.2.2.2.2.2.2.2.2.1.1.1.1.1.1.1.1.1.1.1.1.1.1.1.1.1.1.1.1h.1s0-.1 0-.1l-.1-.1-.1-.1-.1-.1-.1-.1-.1-.1-.1-.1-.2-.2-.1-.1-.1-.1-.1-.1-.2-.2-.2-.2-.2-.2-.2-.2-.1-.1-.1-.1-.1-.1-.1-.1-.1-.1-.1-.1-.1-.1-.1-.1-.1-.1-.1-.1-.1-.1h-.1zm-.6.6.1.1.1.1.1.1.1.1.1.1.1.1.1.1.1.1.1.1.1.1.1.1.1.2.2.2.2.2.2.2.2.2.1.1.1.1.1.1.1.1.1.1.1.1.1.1.1.1.1.1.1.1h.1s0-.1 0-.1l-.2-.4-.1-.1-.1-.1h-.1l-.1-.1-.1-.1-.1-.1-.1-.1-.1-.1-.1-.1-.2-.2-.2-.2-.2-.2-.2-.2-.1-.1-.1-.1-.1-.1-.1-.1-.1-.1-.1-.1-.1-.1-.1-.1-.1-.1-.1-.1-.1-.1-.1-.1v.2c.1-.1 0-.2 0 0 0-.1 0-.1 0 0zm-.5.5.1.1.1.1.1.1.1.1.1.1.1.1.1.1.1.1.1.1.1.1.1.1.1.1.2.2.2.2.2.2.2.2.1.1.1.1.1.1.1.1.1.1.1.1.1.1.1.1.1.1.1.1h.1s0-.1 0-.1l-.1-.1-.1-.1-.1-.1-.1-.1-.1-.1-.2-.1-.1-.1-.1-.1-.1-.1-.1-.1-.2-.2-.2-.2-.2-.2-.2-.2-.2-.2-.1-.1-.1-.1-.1-.1-.1-.1-.1-.1-.1-.1-.1-.1-.1-.1-.1-.1-.1-.1v.1c0-.1 0-.1 0 0-.1 0 0 0 0 0zm25.9-25.2c-.1-.1-.1-.2-.2-.2-.1-.3.1-.6.4-.7.2-.1.4 0 .6.2.1.1.1.2.1.2v.4s-.2.2-.3.3c-.2 0-.5 0-.6-.2zm.8-.8c-.1-.2-.3-.2-.5-.2-.3.1-.5.4-.4.7 0 .1.1.2.1.2.1.2.3.3.5.2.1 0 .3-.1.3-.3s.1-.3 0-.4c.1-.1 0-.2 0-.2zm-.8.5.1-.4.4-.1.3.3-.1.4-.4.1zm.1-.4-.1.4.3.3.4-.1.1-.4-.3-.3z"/><circle cx="47.9" cy="7.4" r=".2"/><path d="m49.1 7c-.1-.1-.2-.3-.2-.4s.1-.3.2-.4c.2-.2.6-.2.8 0 .1.1.2.2.2.4s-.1.3-.2.4c-.2.2-.6.2-.8 0zm.8-.8c-.2-.2-.6-.2-.8 0-.1.1-.1.2-.1.4s0 .3.2.4c.2.2.6.2.8 0 .1-.1.2-.2.2-.4-.1-.2-.2-.3-.3-.4zm-.7.6-.1-.4.3-.3.4.1.1.4-.3.4zm-.1-.4.1.4.4.1.3-.3-.1-.4-.4-.1z"/><circle cx="49.5" cy="6.5" r=".2"/><path d="m50.7 6c-.1-.1-.1-.2-.2-.3 0-.3.2-.6.5-.7.2 0 .4 0 .5.2.1.1.1.2.2.3 0 .2 0 .3-.1.4s-.2.2-.4.2c-.2.1-.4.1-.5-.1zm.8-.8c-.1-.1-.3-.2-.5-.1-.3.1-.5.3-.5.6 0 .1.1.2.2.3s.3.2.5.2c.1 0 .3-.1.3-.2.1-.1.1-.3.1-.4 0-.2 0-.3-.1-.4zm-.5.8-.3-.3.2-.4.4-.1.3.3-.2.5zm-.3-.3.3.3.4-.1.1-.3-.2-.3-.4.1z"/><circle cx="51.1" cy="5.6" r=".2"/><path d="m52.3 5.1c-.1-.1-.2-.2-.2-.4s.1-.3.2-.4c.2-.2.6-.2.8 0s.2.6 0 .8-.6.2-.8 0zm.8-.8c-.2-.2-.6-.2-.8 0-.1.1-.2.2-.2.4s0 .3.2.4c.2.2.6.2.8 0s.2-.6 0-.8zm-.7.7-.1-.4.3-.3.4.1.1.4-.3.3zm-.1-.4.1.4.4.1.3-.3-.1-.4-.4-.1z"/><circle cx="52.7" cy="4.7" r=".2"/><path d="m54 4.2c-.1-.1-.2-.2-.2-.4s0-.3.1-.4.2-.2.4-.2.3 0 .5.2c.1 0 .2.2.2.3 0 .3-.2.6-.5.6-.2 0-.4 0-.5-.1zm.8-.8c-.1-.1-.3-.2-.4-.2-.2 0-.3.1-.4.2s-.2.2-.1.4c0 .1.1.3.2.4s.3.2.4.2c.3-.1.5-.4.5-.7 0-.1-.1-.2-.2-.3zm-.6.7-.2-.3.2-.4h.4l.2.3-.2.4zm-.2-.3.2.3h.4l.2-.3-.2-.3h-.4z"/><circle cx="54.4" cy="3.7" r=".2"/><path d="m55.6 3.2c-.2-.2-.2-.4-.1-.6.1-.3.4-.5.7-.4.1 0 .2.1.2.1.2.2.2.4.1.6-.1.1-.2.3-.3.3-.1.1-.3.1-.4 0 0 .2-.1.1-.2 0zm.8-.7c0-.1-.1-.1-.2-.2-.3-.1-.6.1-.7.4-.1.2 0 .4.1.6.1.1.1.1.2.1h.4s.2-.2.3-.3c.1-.3.1-.5-.1-.6zm-.7.6-.1-.4.3-.3.4.1.1.5-.3.3zm0-.4.1.4.4.1.3-.2-.1-.4-.4-.1c-.1 0-.3.2-.3.2z"/><circle cx="56" cy="2.8" r=".2"/></g><circle cx="17.9" cy="47.5" r=".9"/><path d="m17.5 48.3v-.4l-.3-.2.3-.3v-.4h.4l.2-.3.2.3h.4l-.1.3.2.3-.4.4-.1.4-.3-.2zm.1-.4v.3l.3-.1.3.2.1-.3.3-.1-.2-.3.1-.3h-.3l-.1-.3-.2.2h-.3v.3l-.2.2z" fill="#fff"/><circle cx="17.1" cy="51" r=".9"/><path d="m16.7 51.7v-.4l-.3-.2.3-.3v-.4h.4l.3-.3.2.3h.4l-.3.6.2.3-.4.1-.1.4-.3-.2zm.1-.4v.3l.3-.1.3.2.1-.3.3-.1-.2-.3.1-.3h-.3l-.2-.3-.2.2h-.3v.3l-.2.2z" fill="#fff"/><circle cx="17.1" cy="53.3" r=".5"/><circle cx="17.1" cy="53.3" fill="#fff" r=".2"/><path d="m16.8 53.6-.1-.4.3-.3.5.1.1.4-.3.3zm-.1-.4.1.4.4.1.3-.3-.1-.4-.4-.1z" fill="#fff"/><circle cx="12.2" cy="40.3" r=".2"/><circle cx="14.2" cy="37.8" r=".2"/><circle cx="16" cy="33.6" r=".2"/><circle cx="17.8" cy="29.9" r=".2"/><circle cx="20.8" cy="26.3" r=".2"/><circle cx="22.2" cy="31.2" r=".2"/><circle cx="25" cy="38.3" r=".2"/><circle cx="28.1" cy="40.6" r=".2"/><circle cx="24.1" cy="44.8" r=".2"/><circle cx="20.3" cy="46.9" r=".2"/><circle cx="17.1" cy="54.7" r=".2"/><circle cx="16.2" cy="47.2" r=".2"/><circle cx="5.6" cy="47.7" r=".3"/><circle cx="6.7" cy="46.3" r=".2"/><circle cx="10.4" cy="45.2" r=".2"/><circle cx="12.2" cy="46.9" r=".2"/><circle cx="11.2" cy="50.5" r=".2"/><circle cx="9.8" cy="51.6" r=".2"/><circle cx="7.2" cy="47.3" r=".3"/><circle cx="8.6" cy="48.8" r=".3"/><circle cx="10.1" cy="50.2" r=".3"/><path d="m7.4 50.1c-1.8-1.9-1.6-2.1-1.4-2.3l.1-.1c.2-.2.4-.1.6.1l2.9 2.9c.2.2.2.5.1.6 0 0-.1.1-.1.1-.1 0-.5.4-2.2-1.3zm-.7-2.3c-.2-.2-.4-.2-.5-.1l-.2.2c-.1.1-.3.3 1.4 2.1 1.4 1.4 2 1.5 2.1 1.3 0 0 .1-.1.1-.1.1-.1.1-.4-.1-.5z"/><circle cx="10.3" cy="47.1" r=".2"/><path d="m16.3 32.7.9-.9h.1l.3.4v.1l-.9.9zm1.8-1.8.9-.9h.1l.4.3v.1l-.9.9s0 0-.1 0zm2.4-2.1-.5-.5v-.1l.2-.2h.1l.5.5v.1l-.2.2c-.1 0-.1 0-.1 0zm-.2-.9-.3.3.5.5.2-.2zm.3.2-.4.4-.4-.4.4-.4zm3.7 15.3-.5-.5v-.1l.2-.2h.1l.5.5v.1zm-.2-.9-.3.2.5.5.2-.2zm.3.2-.4.4-.4-.4.4-.4zm.7-.1-.5-.5v-.1l.2-.2h.1l.5.5v.1l-.2.2c-.1 0-.1 0-.1 0zm-.2-.8-.3.2.5.5.2-.2zm.6.5-.4.4-.4-.4.4-.4zm.4-.5-.5-.5v-.1l.2-.2h.1l.5.5v.1zm-.3-.8-.3.2.5.5.3-.2zm.4.2-.4.4-.4-.4.4-.4zm-14.9 7c-.1.1-.2.2-.3.4-.1.1 0 .2-.1.2-.2.2-.3.7.3.5.4-.2 4-1.9 4.8-2.3.7-.3.9-.5 1.3-.9s3.2-2.8 3.2-2.8-.1 0-.2-.1-.1-.2-.1-.2-2.8 2.5-3.2 2.9-.8.6-1.1.7c-.8.3-4.6 2.2-4.6 2.2s.2-.2.3-.4c.4-.2.1-.6-.3-.2z"/><path d="m10.6 49.3s-.1-.1-.1-.1c0-.1.1-.2.2-.3 0 0 0 0 0-.1s0-.1 0-.2c0 0 .1-.1.1-.2.1-.1.1-.2.2-.3.2-.2.3-.2.4-.2s.1 0 .2.1.1.3 0 .4-.2.2-.2.3c.6-.3 3.8-1.9 4.5-2.1.4-.2.7-.4 1.1-.7.4-.4 3.2-2.9 3.2-2.9s0 .1.1.2.2.1.2.1h.1-.1s-2.8 2.4-3.2 2.8-.6.6-1.3.9c-.1.1-.3.2-.5.3-1.3.6-3.9 1.9-4.3 2.1-.5.1-.6 0-.6-.1zm1-1.2s-.1-.1-.1-.1c-.1 0-.2 0-.3.2-.1.1-.1.2-.2.3 0 .1-.1.1-.1.2-.1 0 0 .1 0 .1v.1c-.1.1-.1.2-.1.3v.1c.1 0 .2.1.4 0 .4-.1 3-1.4 4.3-2.1.2-.1.4-.2.5-.2.7-.3.9-.5 1.3-.9s2.8-2.5 3.1-2.8c0 0-.1 0-.1-.1 0 0-.1-.1-.1-.1-.3.3-2.8 2.5-3.1 2.9-.3.3-.7.6-1.1.8-.7.3-4.6 2.2-4.6 2.2s.2-.2.3-.4c0-.3-.1-.4-.1-.5z" fill="#fff"/><path d="m20.2 43.3c-.1-.2-.2-.3-.2-.4s0-.3.9-1c.8-.7 1.2-.8 1.4-.6 0 0 .1.1.1.2 0 .3-.3.7-.8 1.1-.9.8-1.1.8-1.2.8s-.1 0-.2-.1zm2.1-2c-.1-.1-.6 0-1.4.6-.8.7-.8.9-.8 1s0 .2.1.3.1.1.2.1.3 0 1.2-.8c.5-.4.7-.8.7-1.1zm-11.2 7.3c-.2-.2-.2-.5 0-.7s.5-.2.7 0 .2.5 0 .7-.6.2-.7 0zm.6-.7c-.1-.2-.4-.2-.6 0s-.2.4 0 .6.4.2.6 0 .2-.4 0-.6z"/><circle cx="14.6" cy="40.2" r=".2"/><path d="m16.9 43.8-3.3-3.3c-.4-.3-.4-.9 0-1.3s.9-.3 1.3 0l3.3 3.3c.3.3.3.9 0 1.3s-.9.4-1.3 0zm-2.1-4.5c-.3-.3-.8-.3-1.1 0s-.3.8 0 1.1l3.3 3.3c.3.3.8.3 1.1 0s.3-.8 0-1.1z"/><circle cx="15.2" cy="40.8" r=".2"/><circle cx="15.7" cy="41.4" r=".2"/><circle cx="16.3" cy="41.9" r=".2"/><circle cx="16.8" cy="42.5" r=".2"/><circle cx="17.4" cy="43" r=".2"/><g fill="#fff"><circle cx="42.4" cy="15.2" r=".2"/><circle cx="39.3" cy="18.4" r=".2"/><circle cx="36.5" cy="21.2" r=".2"/><circle cx="34" cy="23.7" r=".2"/><circle cx="28.1" cy="29.6" r=".2"/><circle cx="26.5" cy="31.1" r=".2"/><circle cx="30.1" cy="26.2" r=".2"/><circle cx="31.4" cy="27.5" r=".2"/></g><path d="m10 44.6.1.1-3.6 3.5-.1-.1z"/><path d="m11.9 42.6.1.1-1.9 2-.1-.1z" fill="#fff"/><path d="m12 42.8-.1-.1.5-.5 6.9-6.5.1.1-6.9 6.5z"/><path d="m20.5 34.5.1.1-1.1 1.1-.1-.1z" fill="#fff"/><path d="m21.2 33.7.1.1-.8.8-.1-.1z"/><path d="m21.3 33.8-.1-.1 24.9-24.2 1.9-2 .1.1-1.9 2.1z" fill="#fff"/><path d="m10.8 44.9.1.1-3.8 3.7-.1-.1z"/><path d="m12.5 43.2.1.1-1.7 1.7h-.1z" fill="#fff"/><path d="m12.6 43.4-.1-.1.5-.5 6.8-6.7.1.1-6.8 6.7z"/><path d="m21 35 .1.1-1.2 1.2-.1-.1z" fill="#fff"/><path d="m21.6 34.3.1.1-.6.6h-.1z"/><path d="m21.7 34.4-.1-.1 24.9-24.4 3.1-3.3.1.1-3.1 3.3z" fill="#fff"/><path d="m11.5 45.4.1.1-4 3.8-.1-.1z"/><path d="m13.2 43.9-1.6 1.6-.1-.1z" fill="#fff"/><path d="m13.2 44 .5-.7 6.7-6.7.1.1-6.7 6.7z"/><path d="m21.6 35.5.1.1-1.1 1.1-.1-.1z" fill="#fff"/><path d="m22.1 34.9.1.1-.6.6-.1-.1z"/><path d="m22.2 35-.1-.1 24.7-24.6 4.4-4.7.1.1-4.4 4.7z" fill="#fff"/><path d="m12.1 46-3.8 3.9-.1-.1z"/><path d="m13.7 44.4-1.5 1.6h-.1z" fill="#fff"/><path d="m13.8 44.5.5-.6 6.7-6.7.1.1-6.8 6.7z"/><path d="m22.1 36-1.1 1.2v-.1z" fill="#fff"/><path d="m22.7 35.4-.6.7v-.1z"/><path d="m22.7 35.4 24.6-24.7 5.6-5.9.1.1-5.6 6z" fill="#fff"/><path d="m12.5 46.6-3.7 3.8-.1-.1z"/><path d="m14.3 45-1.6 1.7h-.1z" fill="#fff"/><path d="m14.3 45 .6-.6 6.6-6.7-6.6 6.7z"/><path d="m22.6 36.5-1.1 1.2h-.1z" fill="#fff"/><path d="m23.2 35.9-.6.7v-.1z"/><path d="m23.2 35.9 24.4-24.8 6.9-7.3v.1l-6.9 7.3z" fill="#fff"/><path d="m12.9 47.5-3.4 3.4z"/><path d="m14.8 45.6-1.9 1.9z" fill="#fff"/><path d="m14.9 45.6.6-.7 6.5-6.7-6.4 6.8z"/><path d="m23.2 37.1-1.1 1.2z" fill="#fff"/><path d="m24 36.3-.8.8z"/><path d="m23.9 36.3 24.1-24.7 8.2-8.6-8.1 8.6z" fill="#fff"/><circle cx="6.4" cy="48.1" r=".1"/><circle cx="7" cy="48.7" r=".1"/><circle cx="7.6" cy="49.2" r=".1"/><circle cx="8.2" cy="49.9" r=".1"/><circle cx="8.8" cy="50.4" r=".1"/><circle cx="9.4" cy="50.9" r=".1"/></svg>