<svg enable-background="new 0 0 60 60" height="60" viewBox="0 0 60 60" width="60" xmlns="http://www.w3.org/2000/svg"><path d="m1.7 59.3c-.1-1.5 6.1-8.2 7-9.2.4-.4.7-.8.9-1.2.7-1.7 39.1-39 41.8-46.1.5-1.3-.3-2.3.3-2.6 1.8-.9 5.9 1.9 6.6 5.6.1.6-.5-.4-2.7 1-5.3 3.3-39 40.4-43.2 44.8-.3.3-.9.7-1.2 1-2.1 1.9-6.7 7-8.5 7.4-.3.1-1-.4-1-.7z" fill="#3b2314"/><path d="m30.7 28.6c-13.5 14.4-24.3 26.2-24 26.4.2.2 11.3-11.3 24.8-25.7s25.9-24.9 24-26.4c-2-1.8-11.3 11.3-24.8 25.7z" fill="#eeece7"/><path d="m37.1 19c-.1 0-.2.2-.2.2v.1c-.5.5-1.7 1.6-1.7 1.6-.1-.1-1.3.9-2.7 2.3-.8.8-1.6 1.6-2 2.1-.6.6-.9 1-.9 1.1 0 0 .2-.1.5-.3.1-.1.1-.1.2-.2.4-.4 1-1.1 1.8-1.9 1-1 1.8-1.7 2.2-2 .2-.2.4-.4.5-.6l.9-.9s.1-.1.1-.1 0 .1.1.2c-.5.5-1.4 1.3-1.4 1.3s-.1 0-.2.1c-.4.4-.9 1-1.5 1.6s-1.1 1.1-1.6 1.5l-.2.2c-.3.3-.6.6-.9.8-.4.4-.7.8-.6.8.1.1.6-.4 1.3-1l.2-.2c.4-.4.9-.8 1.5-1.4.8-.8 1.5-1.6 1.9-2l.8-.8c.3-.3.7-.7.9-.9.1.1.3.3.5.4l-4.2 4.6-.1-.1s0 0-.1 0l.5-.5s.1-.1 0-.2-.1 0-.2 0l-2.8 2.9c-.1-.1-.3-.2-.5-.3 0-.2-.3-.2-.6-.2-.5.1-1.1.4-1.4.7-.2.3 0 .6.6.5.2 0 .4-.1.6-.2h.1c.5.1 1-.1 1.2-.3 0 0 0 0 0-.1l2.2-2.2s0 .1.1.1l.1.1-1.1 1.2c-.1.2-.2.3-.2.4.1.1.2 0 .4-.2l1.1-1.2c.1 0 .2 0 .3-.1s.1-.2 0-.2l4.3-4.6h.1c.1 0 .2-.2.2-.2s0 0-.1-.1l.7-.7s.2-.1.2-.1 0-.1-.1-.1 0-.1-.1-.1c-.1-.4-.6-.8-.7-.8zm.4 1-.6.7c-.2-.2-.5-.5-.6-.6.3-.3.5-.5.6-.7.1.2.4.4.6.6z" fill="#6d6254"/><path d="m46.9 9.1s1.3.9 1.7 1.2 1.3 1.6 1.3 1.6.2-.1.3-.2c.1-.2.2-.3.2-.4 0 0-1-1.2-1.4-1.6s-1.7-1.3-1.7-1.3-.2.1-.3.2c-.1.3-.2.5-.1.5z" fill="#d9d5c8"/><path d="m15 43s1.3.8 1.6 1.2c.4.3 1.2 1.5 1.2 1.5s.2-.1.3-.2c.1-.2.2-.3.2-.3s-.9-1.1-1.3-1.5c-.4-.3-1.6-1.2-1.6-1.2s-.2.1-.3.2c0 .2-.1.3-.1.3z" fill="#dcd9cc"/><path d="m7.2 51.8s1.1.7 1.4.9c.3.3 1 1.3 1 1.3s.2-.1.3-.2.2-.3.2-.3-.8-1-1.1-1.3-1.3-1-1.3-1-.2.1-.3.2c-.2.2-.2.4-.2.4z" fill="#e3dfd7"/><path d="m51.5.3s1.3-.7 4.1 1.7c1.4 1.2 2.5 4 2.5 4 .1.1.3 0 .2-.1 0 0-.8-2.6-2.5-4.1-1.8-1.5-3.1-2-4.2-1.7-.2 0-.2.2-.1.2z" fill="#999991"/><path d="m46.2 12.4c.1-.1.1-.2 0-.3s-.2-.1-.3 0l-3.4 3.6-.2-.2c.2-.2.2-.5.1-.8-.2-.4-.7-.6-1.2-.3-.4.2-.6.7-.4 1.1s.7.6 1.2.3h.1l.2.2-2.8 3c-.5.4-1.1 1-1.4 1.3-.5.5-1.8 1.7-1.6 2.2.2.4 1.7-.4 1.7-.4s1.5 0 1.7-.4c.2-.3-.3-1.1-.3-1.4 0-.2.1-.7.2-1.1l.4-.5.8.7c-.2.2-.3.5-.2.8.1.5.5.9.9.8s.7-.5.7-1c-.1-.5-.5-.8-.9-.8 0 0 0 0-.1 0l-.9-.8 5-5.4.9.8c-.1.2-.1.4-.1.6.1.5.5.9.9.8s.7-.5.7-1c-.1-.5-.5-.9-.9-.8-.1 0-.2 0-.3.1l-.9-.8z" fill="#818078"/><path d="m37.5 24.7-.2.3-.8-.7c.2-.4.1-.9-.2-1.2-.4-.4-1.1-.4-1.5.1-.4.4-.4 1.1 0 1.5.3.3.8.3 1.2.2l.8.8-.8.7c-.1-.3-.4-1-.8-1.4-.5-.5-1-.8-1.1-.8-.1.1.3.5.8 1 .4.4.8 1 1 1.2l-.4.4-.8-.7c.2-.4.1-.9-.2-1.2-.4-.4-1.1-.4-1.5.1-.4.4-.4 1.1 0 1.5.3.3.8.3 1.2.2l.8.8-1.6 1.7-.1-.2.2-.2-.3-.3-.2.2-.4-.4c.2-.4.1-.8-.2-1.1-.4-.4-1-.4-1.4 0s-.3 1 .1 1.4c.3.3.8.4 1.1.2l.4.4-.9 1-.9-.8c.2-.3.1-.6-.1-.8s-.7-.2-.9.1c-.3.3-.3.7-.1 1 .2.2.5.2.7 0l.9.8-.1.2.3.3 1.4-1.5.1.1c-.1.1-.1.2 0 .2h.2l4.5-4.9c.1-.1.1-.2 0-.2 0 0-.1 0-.2 0zm-6.1 3.5c-.2-.2-.2-.5 0-.6s.4-.2.6 0 .2.5 0 .6c-.1.2-.4.2-.6 0zm2-2.1c-.2-.2-.2-.5 0-.7s.5-.2.7 0 .2.5 0 .7c-.2.1-.5.2-.7 0zm1.8-1.9c-.2-.2-.2-.5 0-.7s.5-.2.7 0 .2.5 0 .7c-.2.1-.5.1-.7 0z" fill="#aba7a2"/><path d="m30.4 32.3-.2.2-.3-.3s.1-.1.1-.1l-.2-.3s-.1.1-.1.1l-1.7-1.5c-.1-.2-.7-.1-1.3.3-.1 0-.1.1-.2.1-.2 0-.4 0-.7.1-.6.2-1 .7-.9 1s.7.4 1.3.2c.4-.2.7-.4.9-.6.3-.2.6-.4.8-.6l2.1 2.1-.9 1-1.1-1c.2-.3.1-.7-.1-.9-.3-.3-.8-.2-1.1.1s-.3.8-.1 1.1c.2.2.5.2.8.1l1.1 1-.7.6-.9-.9c.1-.2.1-.5-.1-.7-.3-.2-.6-.2-.9 0-.2.3-.2.7 0 .9s.5.2.7.1l1 .9-.8.7-.9-.8c.1-.2.1-.5-.1-.7s-.6-.2-.8.1-.2.6 0 .8.4.2.7.1l.9.9-2.6 2.6c-.1.1-.1.2 0 .3s.2.1.3 0l6.2-6.7c.1-.1.1-.2 0-.3 0-.1-.2-.1-.2 0zm-3.4.5c-.1-.1-.1-.3 0-.5s.4-.2.5-.1.1.3 0 .5-.3.2-.5.1zm-1.7 2.3c-.1-.1-.1-.3 0-.4s.3-.1.4 0 .1.3 0 .4-.3.1-.4 0z" fill="#fef8ea"/><path d="m40.1 17.3-2.4 2.5s-1.6 1.7-1.6 1.7c-.2.1.9 1.5 1 1.7s.2.5.4.8c.5.7 1.1 1.3 1.4 1.4.3 0 .2-.6-.3-1.3-.3-.5-.7-.9-1-1.2-.1 0-.9-1-1-1.1s1.1-1.2 1.1-1.2c.1.3.7 1.2.7 1.2 0 .3.1.6.3.9.4.8 1 1.5 1.4 1.4s.4-.8 0-1.7c-.3-.6-.6-1-.9-1.2 0 0-.9-1.1-.9-1.1l2.3-2.4s0-.2-.1-.2c-.2-.2-.3-.2-.4-.2z" fill="#9f9a8f"/><path d="m23.4 35.6c-.3.3-.4.7-.4 1l-.8.8-.3-.4s0 0-.1 0l1-1.1c.2-.2.2-.4.2-.4-.1-.1-.3 0-.4.2l-2.4 2.6c-.2.2-.2.4-.2.4.1.1.3 0 .4-.2l1-1.1s0 0 .1.1l.4.3-.4.5c-.3-.1-.6-.1-.8.1-.2.3-.2.7 0 .9.3.2.7.2.9 0s.2-.5.1-.7l.5-.5.4.3c-.3.4-.3.7-.2.9.2.2.7 0 1-.4.4-.4.5-.9.3-1.1s-.5-.1-.9.2l-.4-.3.7-.8c.3.1.7-.1 1-.4.4-.4.5-1 .3-1.2-.1-.3-.6-.1-1 .3z" fill="#d1cbc1"/><path d="m4.8 55.2c-.3 0-.6.2-.8.4s-.3.5-.3.8h-.1c-.1 0-.3 0-.4.2 0 0-.1.1-.1.1-.1.2-.1.4.1.5l1.3 1.2c.1.1.2.1.3.1s.2-.1.3-.1c.1-.1.2-.4.1-.5.3 0 .6-.2.8-.4s.3-.5.3-.8c.1.1.3.1.4.1s.1 0 .1-.1c.2-.2.2-.5 0-.7l-1.5-1.4c-.2-.2-.5-.1-.7 0 .1.2.1.4.2.6zm-.3 1.8c-.3-.3-.3-.7 0-1s.7-.3 1 0 .4.8.1 1.1c-.3.2-.8.2-1.1-.1z" fill="#e3dfd7"/></svg>