<svg enable-background="new 0 0 60 60" height="60" viewBox="0 0 60 60" width="60" xmlns="http://www.w3.org/2000/svg"><path d="m58.2 15h-13.2-13.2-3.6-16.4-10c-1 0-1.8.8-1.8 1.8v26.4c0 1 .8 1.8 1.8 1.8h10 16.4 16.8 13.2c1 0 1.8-.8 1.8-1.8v-26.4c0-1-.8-1.8-1.8-1.8z" fill="#ff5a00"/><g fill="#393a39"><path d="m2.6 15h-.8-.3c-.8 0-1.5.7-1.5 1.5v.2.8 1.1h1.3v-1.1h1.3v-1.3h1.1v-1.2z"/><path d="m60 18.7v-1.1-.8-.3c0-.9-.7-1.5-1.5-1.5h-.2-.8-1.1v1.3h1.1v1.3h1.3v1.1z"/><path d="m57.4 45h.8.3c.8 0 1.5-.7 1.5-1.5v-.2-.8-1.1h-1.3v1.1h-1.3v1.3h-1.1v1.2z"/><path d="m0 41.3v1.1.8.3c0 .8.7 1.5 1.5 1.5h.2.8 1.1v-1.3h-1.1v-1.3h-1.2v-1.1z"/></g><path d="m2.6 17.5h54.8v24.9h-54.8z" fill="#924d22"/><path d="m3.5 18.4h52.8v23.3h-52.8z" fill="#593c24"/><path d="m57.4 17.5-1 .9v23.3h-52.9l-.9.8h54.8z" fill="#e08c53"/><path d="m3.5 18.4h52.8v7.4h-52.8z" fill="#8c6a53"/><path d="m6.1 20.5h2.5v3.3h-2.5z" fill="#1d1d1d"/><path d="m6.4 20.9h2v2.6h-2z" fill="#bb2226"/><path d="m6.5 22.3h1.7v1.2h-1.7z" fill="#df464e"/><path d="m6.4 20.9.1.2h1.7l.2-.2z" fill="#ef526c"/><path d="m6.4 23.5.1-.1h1.7l.2.1z" fill="#861b28"/><path d="m8.2 21.1v1.1 1.2l.2.1v-2.6z" fill="#861b28"/><path d="m6.5 22.3.2-1.1 1.5-.1h-1.7z" fill="#f388a0"/><path d="m6.5 22.4.2.9 1.5.1h-1.7z" fill="#ec6f7c"/><path d="m15.8 22.3c0 .9-.7 1.6-1.6 1.6s-1.6-.7-1.6-1.6.7-1.6 1.6-1.6c.8-.1 1.6.7 1.6 1.6z" fill="#201f1f"/><path d="m15.5 22.3c0 .8-.6 1.4-1.4 1.4s-1.4-.6-1.4-1.4.6-1.4 1.4-1.4 1.4.6 1.4 1.4z" fill="#69584c"/><path d="m15.2 22.3c0 .6-.5 1.1-1.1 1.1s-1.1-.5-1.1-1.1.5-1.1 1.1-1.1 1.1.5 1.1 1.1z" fill="#9f8c7f"/><path d="m14 21.2h.3v1h-.3z" fill="#201f1f"/><path d="m20.5 22.3c0 .9-.7 1.6-1.6 1.6s-1.6-.7-1.6-1.6.7-1.6 1.6-1.6c.9-.1 1.6.7 1.6 1.6z" fill="#201f1f"/><path d="m20.2 22.3c0 .8-.6 1.4-1.4 1.4s-1.4-.6-1.4-1.4.6-1.4 1.4-1.4 1.4.6 1.4 1.4z" fill="#69584c"/><path d="m19.9 22.3c0 .6-.5 1.1-1.1 1.1s-1.1-.5-1.1-1.1.5-1.1 1.1-1.1 1.1.5 1.1 1.1z" fill="#9f8c7f"/><path d="m18.7 21.2h.3v1h-.3z" fill="#201f1f"/><path d="m25.2 22.3c0 .9-.7 1.6-1.6 1.6s-1.6-.7-1.6-1.6.7-1.6 1.6-1.6c.9-.1 1.6.7 1.6 1.6z" fill="#201f1f"/><path d="m24.9 22.3c0 .8-.6 1.4-1.4 1.4s-1.4-.6-1.4-1.4.6-1.4 1.4-1.4 1.4.6 1.4 1.4z" fill="#69584c"/><path d="m24.7 22.3c0 .6-.5 1.1-1.1 1.1s-1.1-.5-1.1-1.1.5-1.1 1.1-1.1 1.1.5 1.1 1.1z" fill="#9f8c7f"/><path d="m23.4 21.2h.3v1h-.3z" fill="#201f1f"/><path d="m29.9 22.3c0 .9-.7 1.6-1.6 1.6s-1.6-.7-1.6-1.6.7-1.6 1.6-1.6c.9-.1 1.6.7 1.6 1.6z" fill="#201f1f"/><path d="m29.6 22.3c0 .8-.6 1.4-1.4 1.4s-1.4-.6-1.4-1.4.6-1.4 1.4-1.4 1.4.6 1.4 1.4z" fill="#69584c"/><path d="m29.4 22.3c0 .6-.5 1.1-1.1 1.1s-1.1-.5-1.1-1.1.5-1.1 1.1-1.1 1.1.5 1.1 1.1z" fill="#9f8c7f"/><path d="m28.1 21.2h.3v1h-.3z" fill="#201f1f"/><path d="m34.6 22.3c0 .9-.7 1.6-1.6 1.6s-1.6-.7-1.6-1.6.7-1.6 1.6-1.6c.9-.1 1.6.7 1.6 1.6z" fill="#201f1f"/><path d="m34.4 22.3c0 .8-.6 1.4-1.4 1.4s-1.4-.6-1.4-1.4.6-1.4 1.4-1.4 1.4.6 1.4 1.4z" fill="#69584c"/><path d="m34.1 22.3c0 .6-.5 1.1-1.1 1.1s-1.1-.5-1.1-1.1.5-1.1 1.1-1.1 1.1.5 1.1 1.1z" fill="#9f8c7f"/><path d="m32.8 21.2h.3v1h-.3z" fill="#201f1f"/><path d="m39.3 22.3c0 .9-.7 1.6-1.6 1.6s-1.6-.7-1.6-1.6.7-1.6 1.6-1.6c.9-.1 1.6.7 1.6 1.6z" fill="#201f1f"/><path d="m39.1 22.3c0 .8-.6 1.4-1.4 1.4s-1.4-.6-1.4-1.4.6-1.4 1.4-1.4 1.4.6 1.4 1.4z" fill="#69584c"/><path d="m38.8 22.3c0 .6-.5 1.1-1.1 1.1s-1.1-.5-1.1-1.1.5-1.1 1.1-1.1 1.1.5 1.1 1.1z" fill="#9f8c7f"/><path d="m37.6 21.2h.3v1h-.3z" fill="#201f1f"/><path d="m48.2 23.1-1.6.9-1.6-.9v-1.8l1.6-.9 1.6.9z" fill="#9d7357"/><path d="m45 23.1.1-.1v-1.7l1.5-.8 1.5.8h.1l-1.6-.9-1.6.9z" fill="#c09c83"/><path d="m45 23.1.1-.1 1.5.9 1.4-.9.2.1-1.6.9" fill="#7b5a43"/><path d="m48 22.2c0 .8-.6 1.4-1.4 1.4s-1.4-.6-1.4-1.4.6-1.4 1.4-1.4c.7 0 1.4.6 1.4 1.4z" fill="#69584c"/><path d="m46.6 23.5c-.7 0-1.3-.6-1.3-1.3s.6-1.3 1.3-1.3 1.3.6 1.3 1.3c-.1.7-.6 1.3-1.3 1.3z" fill="#9f8c7f"/><path d="m46.6 21c.7 0 1.2.5 1.3 1.2 0 0 0 0 0-.1 0-.7-.6-1.3-1.3-1.3s-1.3.6-1.3 1.3v.1c0-.6.6-1.2 1.3-1.2z" fill="#d2c1b7"/><path d="m46.6 23.1c-.5 0-.8-.4-.8-.8s.4-.8.8-.8.8.4.8.8-.4.8-.8.8z" fill="#201f1f"/><path d="m53.2 23-1.6 1-1.6-1v-1.8l1.6-.9 1.6.9z" fill="#9d7357"/><path d="m50 23h.1v-1.8l1.5-.8 1.5.8h.1l-1.6-.9-1.6.9z" fill="#c09c83"/><path d="m50 23h.1l1.5.8 1.5-.8h.1l-1.6 1" fill="#7b5a43"/><path d="m53 22.1c0 .8-.6 1.4-1.4 1.4s-1.4-.6-1.4-1.4.6-1.4 1.4-1.4 1.4.6 1.4 1.4z" fill="#69584c"/><path d="m51.6 23.4c-.7 0-1.3-.6-1.3-1.3s.6-1.3 1.3-1.3 1.3.6 1.3 1.3-.6 1.3-1.3 1.3z" fill="#9f8c7f"/><path d="m51.6 21c.7 0 1.2.5 1.3 1.2 0 0 0 0 0-.1 0-.7-.6-1.3-1.3-1.3s-1.3.6-1.3 1.3v.1c.1-.7.6-1.2 1.3-1.2z" fill="#d2c1b7"/><path d="m51.6 23c-.5 0-.8-.4-.8-.8 0-.5.4-.8.8-.8s.8.4.8.8c.1.4-.3.8-.8.8z" fill="#201f1f"/></svg>