<svg enable-background="new 0 0 60 60" height="60" viewBox="0 0 60 60" width="60" xmlns="http://www.w3.org/2000/svg"><path d="m58.19 0h-13.9-12.49-3.6-10.6-15.79c-.99 0-1.8.8-1.8 1.8v9.96 16.43 16.79 13.2c0 .99.8 1.8 1.8 1.8h15.79 10.6 3.59 12.49 13.9c.99 0 1.8-.8 1.8-1.8v-13.2-13.2-3.59-16.43-9.96c.01-1-.8-1.8-1.79-1.8z" fill="#c96a28"/><g fill="#393a39"><path d="m2.61 0h-.8-.27c-.84 0-1.53.69-1.53 1.53v.17.84 1.09h1.27v-1.09h1.33v-1.27h1.13v-1.27z"/><path d="m59.99 3.73v-1.13-.8-.27c0-.84-.69-1.53-1.53-1.53h-.17-.84-1.09v1.27h1.09v1.33h1.27v1.13z"/><path d="m57.39 60h.8.27c.85 0 1.53-.69 1.53-1.53v-.17-.84-1.09h-1.27v1.09h-1.33v1.27h-1.13v1.27z"/><path d="m.01 56.27v1.13.8.27c0 .84.69 1.53 1.53 1.53h.17.84 1.09v-1.27h-1.09v-1.33h-1.27v-1.13z"/></g><path d="m2.61 2.54h54.78v54.92h-54.78z" fill="#924d22"/><path d="m57.39 2.54-54.78 54.92h54.78z" fill="#e08c53"/><path d="m3.6 3.63h52.76v52.74h-52.76z" fill="#a8754f"/></svg>