<svg enable-background="new 0 0 60 60" height="60" viewBox="0 0 60 60" width="60" xmlns="http://www.w3.org/2000/svg"><path d="m58.2 0h-13.9-12.5-3.6-10.6-15.8c-1 0-1.8.8-1.8 1.8v10 16.4 16.8 13.2c0 1 .8 1.8 1.8 1.8h15.8 10.6 3.6 12.5 13.9c1 0 1.8-.8 1.8-1.8v-13.2-13.2-3.6-16.4-10c0-1-.8-1.8-1.8-1.8z" fill="#c12127"/><g fill="#393a39"><path d="m2.6 0h-.8-.3c-.8 0-1.5.7-1.5 1.5v.2.8 1.1h1.3v-1.1h1.3v-1.2h1.1v-1.3z"/><path d="m60 3.7v-1.1-.8-.3c0-.8-.7-1.5-1.5-1.5h-.2-.8-1.1v1.3h1.1v1.3h1.3v1.1z"/><path d="m57.4 60h.8.3c.8 0 1.5-.7 1.5-1.5v-.2-.8-1.1h-1.3v1.1h-1.3v1.3h-1.1v1.2z"/><path d="m0 56.3v1.1.8.3c0 .8.7 1.5 1.5 1.5h.2.8 1.1v-1.3h-1.1v-1.3h-1.2v-1.1z"/></g><path d="m2.6 2.5h54.8v54.9h-54.8z" fill="#924d22"/><path d="m57.4 2.5-54.8 55h54.8z" fill="#e08c53"/><path d="m3.6 3.6h52.8v52.7h-52.8z" fill="#a8754f"/></svg>