<svg enable-background="new 0 0 60 60" height="60" viewBox="0 0 60 60" width="60" xmlns="http://www.w3.org/2000/svg"><path d="m58.2 15h-13.2-13.2-3.6-16.43-9.97c-1 0-1.8.8-1.8 1.8v26.4c0 1 .8 1.8 1.8 1.8h9.97 16.43 16.8 13.2c.99 0 1.8-.8 1.8-1.8v-26.4c0-1-.8-1.8-1.8-1.8z" fill="#c96a28"/><g fill="#393a39"><path d="m2.6 15h-.8-.27c-.84 0-1.53.69-1.53 1.53v.17.84 1.09h1.27v-1.09h1.33v-1.27h1.13v-1.27z"/><path d="m60 18.73v-1.13-.8-.27c0-.85-.69-1.53-1.53-1.53h-.17-.84-1.09v1.27h1.09v1.33h1.27v1.13z"/><path d="m57.4 45h.8.27c.85 0 1.53-.69 1.53-1.53v-.17-.84-1.09h-1.27v1.09h-1.33v1.27h-1.13v1.27z"/><path d="m0 41.27v1.13.8.27c0 .84.69 1.53 1.53 1.53h.17.84 1.09v-1.27h-1.09v-1.33h-1.27v-1.13z"/></g><path d="m2.6 17.54h54.8v24.92h-54.8z" fill="#924d22"/><path d="m3.54 18.37h52.83v23.33h-52.83z" fill="#593c24"/><path d="m57.4 17.54-1.03.83v23.32h-52.83l-.94.77h54.8z" fill="#e08c53"/><path d="m3.52 18.41h52.83v7.4h-52.83z" fill="#8c6a53"/><path d="m6.12 20.52h2.53v3.32h-2.53z" fill="#1d1d1d"/><path d="m6.38 20.87h2.01v2.64h-2.01z" fill="#bb2226"/><path d="m6.53 22.26h1.67v1.17h-1.67z" fill="#df464e"/><path d="m6.38 20.87.16.28h1.67l.18-.28z" fill="#ef526c"/><path d="m6.38 23.5.15-.07h1.67l.19.07z" fill="#861b28"/><path d="m8.21 21.15v1.09l-.01 1.19.19.07v-2.63z" fill="#861b28"/><path d="m6.53 22.26.12-1.01 1.56-.1-1.68-.03z" fill="#f388a0"/><path d="m6.53 22.37.15.95 1.52.11h-1.67z" fill="#ec6f7c"/><path d="m15.77 22.26c0 .9-.73 1.63-1.63 1.63s-1.63-.73-1.63-1.63.73-1.63 1.63-1.63 1.63.73 1.63 1.63z" fill="#201f1f"/><path d="m15.5 22.27c0 .76-.61 1.37-1.37 1.37s-1.37-.61-1.37-1.37.61-1.37 1.37-1.37 1.37.62 1.37 1.37z" fill="#69584c"/><path d="m15.23 22.27c0 .6-.49 1.09-1.09 1.09s-1.09-.49-1.09-1.09.49-1.09 1.09-1.09 1.09.49 1.09 1.09z" fill="#9f8c7f"/><path d="m13.99 21.24h.3v1.03h-.3z" fill="#201f1f"/><path d="m20.48 22.26c0 .9-.73 1.63-1.63 1.63s-1.63-.73-1.63-1.63.73-1.63 1.63-1.63 1.63.73 1.63 1.63z" fill="#201f1f"/><path d="m20.22 22.27c0 .76-.61 1.37-1.37 1.37s-1.37-.61-1.37-1.37.61-1.37 1.37-1.37 1.37.62 1.37 1.37z" fill="#69584c"/><path d="m19.94 22.27c0 .6-.49 1.09-1.09 1.09s-1.09-.49-1.09-1.09.49-1.09 1.09-1.09 1.09.49 1.09 1.09z" fill="#9f8c7f"/><path d="m18.7 21.24h.3v1.03h-.3z" fill="#201f1f"/><path d="m25.2 22.26c0 .9-.73 1.63-1.63 1.63s-1.63-.73-1.63-1.63.73-1.63 1.63-1.63 1.63.73 1.63 1.63z" fill="#201f1f"/><path d="m24.93 22.27c0 .76-.61 1.37-1.37 1.37s-1.37-.61-1.37-1.37.61-1.37 1.37-1.37 1.37.62 1.37 1.37z" fill="#69584c"/><path d="m24.66 22.27c0 .6-.49 1.09-1.09 1.09s-1.09-.49-1.09-1.09.49-1.09 1.09-1.09 1.09.49 1.09 1.09z" fill="#9f8c7f"/><path d="m23.41 21.24h.3v1.03h-.3z" fill="#201f1f"/><path d="m29.91 22.26c0 .9-.73 1.63-1.63 1.63s-1.63-.73-1.63-1.63.73-1.63 1.63-1.63 1.63.73 1.63 1.63z" fill="#201f1f"/><path d="m29.65 22.27c0 .76-.61 1.37-1.37 1.37s-1.37-.61-1.37-1.37.61-1.37 1.37-1.37 1.37.62 1.37 1.37z" fill="#69584c"/><path d="m29.37 22.27c0 .6-.49 1.09-1.09 1.09s-1.09-.49-1.09-1.09.49-1.09 1.09-1.09 1.09.49 1.09 1.09z" fill="#9f8c7f"/><path d="m28.13 21.24h.3v1.03h-.3z" fill="#201f1f"/><path d="m34.62 22.26c0 .9-.73 1.63-1.63 1.63s-1.63-.73-1.63-1.63.73-1.63 1.63-1.63 1.63.73 1.63 1.63z" fill="#201f1f"/><path d="m34.36 22.27c0 .76-.61 1.37-1.37 1.37s-1.37-.61-1.37-1.37.61-1.37 1.37-1.37 1.37.62 1.37 1.37z" fill="#69584c"/><path d="m34.09 22.27c0 .6-.49 1.09-1.09 1.09s-1.09-.49-1.09-1.09.49-1.09 1.09-1.09 1.09.49 1.09 1.09z" fill="#9f8c7f"/><path d="m32.84 21.24h.3v1.03h-.3z" fill="#201f1f"/><path d="m39.34 22.26c0 .9-.73 1.63-1.63 1.63s-1.63-.73-1.63-1.63.73-1.63 1.63-1.63 1.63.73 1.63 1.63z" fill="#201f1f"/><path d="m39.08 22.27c0 .76-.61 1.37-1.37 1.37-.75 0-1.37-.61-1.37-1.37s.61-1.37 1.37-1.37c.75 0 1.37.62 1.37 1.37z" fill="#69584c"/><path d="m38.8 22.27c0 .6-.49 1.09-1.09 1.09s-1.09-.49-1.09-1.09.49-1.09 1.09-1.09 1.09.49 1.09 1.09z" fill="#9f8c7f"/><path d="m37.56 21.24h.3v1.03h-.3z" fill="#201f1f"/><path d="m48.17 23.1-1.59.92-1.59-.92v-1.83l1.59-.92 1.59.92z" fill="#9d7357"/><path d="m44.99 23.1.08-.05v-1.74l1.51-.86 1.51.86.08-.04-1.59-.92-1.59.92z" fill="#c09c83"/><path d="m44.99 23.1.08-.06 1.51.87 1.47-.87.12.06-1.59.92" fill="#7b5a43"/><path d="m47.98 22.18c0 .77-.63 1.4-1.4 1.4s-1.4-.63-1.4-1.4.63-1.4 1.4-1.4c.77.01 1.4.63 1.4 1.4z" fill="#69584c"/><path d="m46.58 23.45c-.7 0-1.27-.57-1.27-1.27s.57-1.27 1.27-1.27 1.27.57 1.27 1.27c0 .71-.57 1.27-1.27 1.27z" fill="#9f8c7f"/><path d="m46.58 21.04c.68 0 1.24.54 1.27 1.21 0-.02 0-.04 0-.06 0-.7-.57-1.27-1.27-1.27s-1.27.57-1.27 1.27v.06c.03-.68.59-1.21 1.27-1.21z" fill="#d2c1b7"/><path d="m46.56 23.09c-.47 0-.84-.38-.84-.84s.38-.84.84-.84.84.38.84.84-.37.84-.84.84z" fill="#201f1f"/><path d="m53.21 23.03-1.59.92-1.59-.92v-1.84l1.59-.91 1.59.91z" fill="#9d7357"/><path d="m50.03 23.03.08-.06v-1.73l1.51-.86 1.52.86.07-.05-1.59-.91-1.59.91z" fill="#c09c83"/><path d="m50.03 23.03.08-.06 1.51.87 1.47-.87.12.06-1.59.92" fill="#7b5a43"/><path d="m53.02 22.11c0 .77-.63 1.4-1.4 1.4s-1.4-.63-1.4-1.4.63-1.4 1.4-1.4 1.4.63 1.4 1.4z" fill="#69584c"/><path d="m51.62 23.38c-.7 0-1.27-.57-1.27-1.27s.57-1.27 1.27-1.27 1.27.57 1.27 1.27-.57 1.27-1.27 1.27z" fill="#9f8c7f"/><path d="m51.62 20.97c.68 0 1.24.54 1.27 1.21 0-.02 0-.04 0-.06 0-.7-.57-1.27-1.27-1.27s-1.27.57-1.27 1.27v.06c.03-.68.59-1.21 1.27-1.21z" fill="#d2c1b7"/><path d="m51.61 23.02c-.46 0-.84-.38-.84-.84s.38-.84.84-.84.84.38.84.84-.38.84-.84.84z" fill="#201f1f"/></svg>