<svg enable-background="new 0 0 60 60" height="60" viewBox="0 0 60 60" width="60" xmlns="http://www.w3.org/2000/svg"><path d="m30 50h-26.7c-1.8 0-3.3-1.5-3.3-3.3v-33.4c0-1.8 1.5-3.3 3.3-3.3h26.7l8.3 20z" fill="#af8424"/><path d="m60 13.3v33.3c0 1.8-1.5 3.3-3.3 3.3h-26.7v-39.9h26.7c1.8 0 3.3 1.5 3.3 3.3z" fill="#af8424"/><path d="m5 28.3v3.3c0 .9-.8 1.7-1.7 1.7s-1.7-.7-1.7-1.7v-3.3c0-.9.8-1.7 1.7-1.7s1.7.8 1.7 1.7z" fill="#647278"/><path d="m57.5 36.7c0 .5-.4.8-.8.8-.5 0-.8-.4-.8-.8v-13.4c0-.5.4-.8.8-.8.5 0 .8.4.8.8z" fill="#40494d"/><path d="m55.8 16.7c0-.5.4-.8.8-.8.5 0 .8.4.8.8 0 .5-.4.8-.8.8s-.8-.4-.8-.8z" fill="#78cae6"/><path d="m53.3 13.6h-46.6v33.4h46.6z" fill="#ddd"/></svg>