<svg enable-background="new 0 0 60 60" height="60" viewBox="0 0 60 60" width="60" xmlns="http://www.w3.org/2000/svg" xmlns:xlink="http://www.w3.org/1999/xlink"><linearGradient id="a" gradientUnits="userSpaceOnUse" x1="1.1342" x2="4.9862" y1="30.0799" y2="30.0799"><stop offset=".0158103" stop-color="#b17f4a"/><stop offset=".1739" stop-color="#ca9e67"/><stop offset=".3676" stop-color="#936037"/><stop offset=".5323" stop-color="#683c11"/><stop offset=".5418" stop-color="#6a3d12"/><stop offset=".6586" stop-color="#784a1f"/><stop offset=".7568" stop-color="#7d4e24"/><stop offset=".7957" stop-color="#845429"/><stop offset=".8507" stop-color="#966636"/><stop offset=".9086" stop-color="#b17f4a"/><stop offset="1" stop-color="#683c11"/></linearGradient><linearGradient id="b"><stop offset="0" stop-color="#683c11"/><stop offset=".0695737" stop-color="#b17f4a"/><stop offset=".1739" stop-color="#ca9e67"/><stop offset=".3676" stop-color="#936037"/><stop offset=".5323" stop-color="#683c11"/><stop offset=".5418" stop-color="#6a3d12"/><stop offset=".6586" stop-color="#784a1f"/><stop offset=".7568" stop-color="#7d4e24"/><stop offset=".8012" stop-color="#845429"/><stop offset=".864" stop-color="#966636"/><stop offset=".9301" stop-color="#b17f4a"/><stop offset="1" stop-color="#683c11"/></linearGradient><linearGradient id="c" gradientUnits="userSpaceOnUse" x1="4.9538" x2="8.837" xlink:href="#b" y1="29.3639" y2="29.3639"/><linearGradient id="d" gradientUnits="userSpaceOnUse" x1="8.7891" x2="12.6875" xlink:href="#b" y1="28.6332" y2="28.6332"/><linearGradient id="e" gradientUnits="userSpaceOnUse" x1="12.6374" x2="16.5389" xlink:href="#b" y1="27.8812" y2="27.8812"/><linearGradient id="f" gradientUnits="userSpaceOnUse" x1="16.4966" x2="20.391" xlink:href="#b" y1="27.1024" y2="27.1024"/><linearGradient id="g" gradientUnits="userSpaceOnUse" x1="20.3631" x2="24.2445" xlink:href="#b" y1="26.3379" y2="26.3379"/><linearGradient id="h" gradientUnits="userSpaceOnUse" x1="24.2343" x2="28.1071" xlink:href="#b" y1="25.4411" y2="25.4411"/><linearGradient id="i" gradientUnits="userSpaceOnUse" x1="28.0987" x2="31.9783" xlink:href="#b" y1="24.547" y2="24.547"/><linearGradient id="j" gradientUnits="userSpaceOnUse" x1="31.9551" x2="35.8449" xlink:href="#b" y1="23.5671" y2="23.5671"/><linearGradient id="k" gradientUnits="userSpaceOnUse" x1="35.8121" x2="39.7043" xlink:href="#b" y1="22.5324" y2="22.5324"/><linearGradient id="l" gradientUnits="userSpaceOnUse" x1="39.669" x2="43.5532" xlink:href="#b" y1="21.438" y2="21.438"/><linearGradient id="m"><stop offset="0" stop-color="#683c11"/><stop offset=".0695737" stop-color="#b17f4a"/><stop offset=".1739" stop-color="#ca9e67"/><stop offset=".3676" stop-color="#936037"/><stop offset=".5323" stop-color="#683c11"/><stop offset=".5418" stop-color="#6a3d12"/><stop offset=".6586" stop-color="#784a1f"/><stop offset=".7568" stop-color="#7d4e24"/><stop offset=".8191" stop-color="#845429"/><stop offset=".9073" stop-color="#966636"/><stop offset="1" stop-color="#b17f4a"/></linearGradient><linearGradient id="n" gradientUnits="userSpaceOnUse" x1="43.5254" x2="47.3898" xlink:href="#m" y1="20.2784" y2="20.2784"/><linearGradient id="o" gradientUnits="userSpaceOnUse" x1="47.3632" x2="51.222" xlink:href="#m" y1="18.9035" y2="18.9035"/><linearGradient id="p" gradientUnits="userSpaceOnUse" x1="51.1982" x2="55.0487" xlink:href="#m" y1="17.5463" y2="17.5463"/><linearGradient id="q" gradientUnits="userSpaceOnUse" x1="55.0243" x2="58.8646" xlink:href="#m" y1="16.1081" y2="16.1081"/><linearGradient id="r"><stop offset="0" stop-color="#ca9e67"/><stop offset=".2472" stop-color="#936037"/><stop offset=".6663" stop-color="#b17f4a"/><stop offset="1" stop-color="#683c11"/></linearGradient><linearGradient id="s" gradientUnits="userSpaceOnUse" x1="1.1342" x2="4.9862" xlink:href="#r" y1="30.0799" y2="30.0799"/><linearGradient id="t" gradientUnits="userSpaceOnUse" x1="4.9538" x2="8.837" xlink:href="#r" y1="29.3639" y2="29.3639"/><linearGradient id="u" gradientUnits="userSpaceOnUse" x1="8.7891" x2="12.6875" xlink:href="#r" y1="28.6332" y2="28.6332"/><linearGradient id="v" gradientUnits="userSpaceOnUse" x1="12.6374" x2="16.5389" xlink:href="#r" y1="27.8812" y2="27.8812"/><linearGradient id="w" gradientUnits="userSpaceOnUse" x1="16.4966" x2="20.391" xlink:href="#r" y1="27.1024" y2="27.1024"/><linearGradient id="x" gradientUnits="userSpaceOnUse" x1="20.3631" x2="24.2445" xlink:href="#r" y1="26.3379" y2="26.3379"/><linearGradient id="y" gradientUnits="userSpaceOnUse" x1="24.2343" x2="28.1071" xlink:href="#r" y1="25.4411" y2="25.4411"/><linearGradient id="z" gradientUnits="userSpaceOnUse" x1="28.0987" x2="31.9783" xlink:href="#r" y1="24.547" y2="24.547"/><linearGradient id="A" gradientUnits="userSpaceOnUse" x1="31.9551" x2="35.8449" xlink:href="#r" y1="23.5671" y2="23.5671"/><linearGradient id="B" gradientUnits="userSpaceOnUse" x1="35.8121" x2="39.7043" xlink:href="#r" y1="22.5324" y2="22.5324"/><linearGradient id="C" gradientUnits="userSpaceOnUse" x1="39.669" x2="43.5532" xlink:href="#r" y1="21.438" y2="21.438"/><linearGradient id="D" gradientUnits="userSpaceOnUse" x1="43.5254" x2="47.3898" xlink:href="#r" y1="20.2784" y2="20.2784"/><linearGradient id="E" gradientUnits="userSpaceOnUse" x1="47.3632" x2="51.222" xlink:href="#r" y1="18.9035" y2="18.9035"/><linearGradient id="F" gradientUnits="userSpaceOnUse" x1="51.1982" x2="55.0487" xlink:href="#r" y1="17.5463" y2="17.5463"/><linearGradient id="G" gradientUnits="userSpaceOnUse" x1="55.0243" x2="58.8646" xlink:href="#r" y1="16.1081" y2="16.1081"/><linearGradient id="H"><stop offset="0" stop-color="#c6a851"/><stop offset="1" stop-color="#d9bc81"/></linearGradient><radialGradient id="I" cx="29.9992" cy="15.9639" gradientUnits="userSpaceOnUse" r="21.2364" xlink:href="#H"/><radialGradient id="J" cx="29.9994" cy="22.4877" gradientUnits="userSpaceOnUse" r="21.5055" xlink:href="#H"/><path d="m1.1 10.8v37.9c0 .3.9.6 1.9.6 1.1 0 1.9-.2 1.9-.6 0-12.5 0-24.9 0-37.4-1.2-.1-2.5-.3-3.8-.5z" fill="url(#a)"/><path d="m5 11.4v35.5c0 .3.9.6 1.9.6 1.1 0 1.9-.2 1.9-.5 0-12.3 0-22.9 0-35.1-1.3-.2-2.6-.4-3.8-.5z" fill="url(#c)"/><path d="m8.8 11.8v33.1c0 .3.9.6 1.9.6 1.1 0 1.9-.2 1.9-.5 0-12.2 0-20.9-.1-32.8-1.1-.2-2.4-.3-3.7-.4z" fill="url(#d)"/><path d="m12.6 12.2v30.9c0 .3.9.5 1.9.6 1.1 0 1.9-.2 1.9-.5 0-12.1 0-18.9 0-30.7-1.2-.1-2.5-.2-3.8-.3z" fill="url(#e)"/><path d="m16.5 12.4v28.8c0 .3.9.5 1.9.5 1.1 0 1.9-.2 1.9-.5 0-12 0-16.9 0-28.6-1.2 0-2.5-.1-3.8-.2z" fill="url(#f)"/><path d="m20.4 12.7v26.8c0 .3.9.5 1.9.5 1.1 0 1.9-.2 1.9-.5 0-8.9 0-17.8 0-26.7-1.3 0-2.5-.1-3.8-.1z" fill="url(#g)"/><path d="m24.2 12.8v24.7c0 .3.9.5 1.9.5 1.1 0 1.9-.2 1.9-.5 0-12 0-13.2 0-24.7-1.2.1-2.5 0-3.8 0z" fill="url(#h)"/><path d="m28.1 12.9v22.8c0 .3.9.5 1.9.5 1.1 0 1.9-.2 1.9-.5 0-12 0-11.6 0-22.8-1.2 0-2.5 0-3.8 0z" fill="url(#i)"/><path d="m32 12.9v20.9c0 .3.9.5 1.9.5 1.1 0 1.9-.3 1.9-.5 0-12 0-10 0-21-1.2 0-2.5.1-3.8.1z" fill="url(#j)"/><path d="m35.8 12.8v19.1c0 .3.9.5 1.9.5 1.1 0 1.9-.3 1.9-.6 0-12 0-8.6 0-19.2-1.2.1-2.5.2-3.8.2z" fill="url(#k)"/><path d="m39.7 12.7v17.3c0 .3.9.5 1.9.5 1.1 0 1.9-.3 1.9-.6 0-12.1 0-7.3 0-17.4-1.2 0-2.5.1-3.8.2z" fill="url(#l)"/><path d="m43.6 12.4v15.5c0 .3.9.5 1.9.5 1.1 0 1.9-.3 1.9-.6 0-12.1 0-6.2 0-15.6-1.3.1-2.6.2-3.8.2z" fill="url(#n)"/><path d="m47.4 12.2v13.4c0 .3.9.5 1.9.4 1.1-.1 1.9-.4 1.9-.7 0-12.2 0-4.1 0-13.5-1.3.1-2.5.2-3.8.4z" fill="url(#o)"/><path d="m51.2 11.8v11.5c0 .3.9.5 1.9.4 1.1-.1 1.9-.4 1.9-.7 0-12.4 0-2.1 0-11.7-1.2.2-2.5.4-3.8.5z" fill="url(#p)"/><path d="m55 11.4v9.6c0 .3.9.5 1.9.4 1.1-.1 1.9-.4 1.9-.8 0-12.5 0 0 0-9.7-1.2.1-2.5.3-3.8.5z" fill="url(#q)"/><path d="m1.1 10.8v37.9c0 .3.9.6 1.9.6 1.1 0 1.9-.2 1.9-.6 0-12.5 0-24.9 0-37.4-1.2-.1-2.5-.3-3.8-.5z" fill="url(#s)"/><path d="m5 11.4v35.5c0 .3.9.6 1.9.6 1.1 0 1.9-.2 1.9-.5 0-12.3 0-22.9 0-35.1-1.3-.2-2.6-.4-3.8-.5z" fill="url(#t)"/><path d="m8.8 11.8v33.1c0 .3.9.6 1.9.6 1.1 0 1.9-.2 1.9-.5 0-12.2 0-20.9-.1-32.8-1.1-.2-2.4-.3-3.7-.4z" fill="url(#u)"/><path d="m12.6 12.2v30.9c0 .3.9.5 1.9.6 1.1 0 1.9-.2 1.9-.5 0-12.1 0-18.9 0-30.7-1.2-.1-2.5-.2-3.8-.3z" fill="url(#v)"/><path d="m16.5 12.4v28.8c0 .3.9.5 1.9.5 1.1 0 1.9-.2 1.9-.5 0-12 0-16.9 0-28.6-1.2 0-2.5-.1-3.8-.2z" fill="url(#w)"/><path d="m20.4 12.7v26.8c0 .3.9.5 1.9.5 1.1 0 1.9-.2 1.9-.5 0-8.9 0-17.8 0-26.7-1.3 0-2.5-.1-3.8-.1z" fill="url(#x)"/><path d="m24.2 12.8v24.7c0 .3.9.5 1.9.5 1.1 0 1.9-.2 1.9-.5 0-12 0-13.2 0-24.7-1.2.1-2.5 0-3.8 0z" fill="url(#y)"/><path d="m28.1 12.9v22.8c0 .3.9.5 1.9.5 1.1 0 1.9-.2 1.9-.5 0-12 0-11.6 0-22.8-1.2 0-2.5 0-3.8 0z" fill="url(#z)"/><path d="m32 12.9v20.9c0 .3.9.5 1.9.5 1.1 0 1.9-.3 1.9-.5 0-12 0-10 0-21-1.2 0-2.5.1-3.8.1z" fill="url(#A)"/><path d="m35.8 12.8v19.1c0 .3.9.5 1.9.5 1.1 0 1.9-.3 1.9-.6 0-12 0-8.6 0-19.2-1.2.1-2.5.2-3.8.2z" fill="url(#B)"/><path d="m39.7 12.7v17.3c0 .3.9.5 1.9.5 1.1 0 1.9-.3 1.9-.6 0-12.1 0-7.3 0-17.4-1.2 0-2.5.1-3.8.2z" fill="url(#C)"/><path d="m43.6 12.4v15.5c0 .3.9.5 1.9.5 1.1 0 1.9-.3 1.9-.6 0-12.1 0-6.2 0-15.6-1.3.1-2.6.2-3.8.2z" fill="url(#D)"/><path d="m47.4 12.2v13.4c0 .3.9.5 1.9.4 1.1-.1 1.9-.4 1.9-.7 0-12.2 0-4.1 0-13.5-1.3.1-2.5.2-3.8.4z" fill="url(#E)"/><path d="m51.2 11.8v11.5c0 .3.9.5 1.9.4 1.1-.1 1.9-.4 1.9-.7 0-12.4 0-2.1 0-11.7-1.2.2-2.5.4-3.8.5z" fill="url(#F)"/><path d="m55 11.4v9.6c0 .3.9.5 1.9.4 1.1-.1 1.9-.4 1.9-.8 0-12.5 0 0 0-9.7-1.2.1-2.5.3-3.8.5z" fill="url(#G)"/><g fill="#3f3f3f"><path d="m32 12.9c0 .3-.9.6-1.9.6-1.1 0-1.9-.3-1.9-.6s.9-.1 1.9-.1 1.9-.2 1.9.1z"/><path d="m32 12.9c0 .3-.9.6-1.9.6-1.1 0-1.9-.3-1.9-.6s.9-.1 1.9-.1 1.9-.2 1.9.1z"/><path d="m28.1 12.9c0 .3-.9.6-1.9.6-1.1 0-1.9-.3-1.9-.7 0-.3.9-.1 1.9 0 1 0 1.9-.3 1.9.1z"/><path d="m28.1 12.9c0 .3-.9.5-1.9.5-1.1 0-1.9-.3-1.9-.6s.9-.1 1.9 0c1 0 1.9-.3 1.9.1z"/><path d="m24.2 12.8c0 .3-.9.6-1.9.6-1.1 0-1.9-.3-1.9-.7 0-.3.9-.1 1.9 0 1.1 0 1.9-.3 1.9.1z"/><path d="m24.2 12.7c0 .3-.9.5-1.9.5-1.1 0-1.9-.3-1.9-.6s.9-.1 1.9 0c1.1.1 1.9-.2 1.9.1z"/><path d="m20.4 12.6c0 .3-.9.6-2 .5-1.1 0-1.9-.4-1.9-.7s.9 0 1.9 0c1.1.1 2-.1 2 .2z"/><path d="m20.4 12.6c0 .3-.9.5-2 .5s-1.9-.3-1.9-.6.9 0 1.9 0c1.1 0 2-.2 2 .1z"/><path d="m16.5 12.4c0 .3-.9.6-2 .5s-1.9-.4-1.9-.7.9 0 1.9 0c1.2.1 2-.1 2 .2z"/><path d="m16.5 12.4c0 .3-.9.5-2 .4s-1.9-.4-1.9-.7.9 0 1.9.1c1.2.1 2-.1 2 .2z"/><path d="m12.6 12.2c0 .3-.9.5-2 .4s-1.9-.5-1.9-.8.9 0 1.9.1c1.2.1 2.1-.1 2 .3z"/><path d="m12.6 12.2c0 .3-.9.5-2 .4s-1.9-.4-1.9-.7.9 0 1.9.1c1.2 0 2.1-.1 2 .2z"/><path d="m8.8 11.8c0 .3-.9.5-2 .4s-1.9-.5-1.8-.8c0-.3.9 0 1.9.1s1.9 0 1.9.3z"/><path d="m8.8 11.8c0 .3-.9.5-2 .3-1.1-.1-1.9-.4-1.8-.7 0-.3.9 0 1.9.2 1 0 1.9-.1 1.9.2z"/><path d="m5 11.4c0 .3-.9.5-2 .3s-1.9-.6-1.8-.9c0-.3.9 0 1.9.2s1.9 0 1.9.4z"/><path d="m5 11.4c0 .3-.9.4-2 .3-1.1-.2-1.9-.5-1.8-.8 0-.3.9.1 1.9.2s1.9 0 1.9.3z"/><path d="m32 12.9c0 .3.9.6 1.9.6 1.1 0 1.9-.3 1.9-.7 0-.3-.9-.1-1.9 0-1.1 0-1.9-.2-1.9.1z"/><path d="m32 12.9c0 .3.9.5 1.9.5 1.1 0 1.9-.3 1.9-.6s-.9-.1-1.9 0c-1.1 0-1.9-.2-1.9.1z"/><path d="m35.8 12.8c0 .3.9.6 1.9.6 1.1 0 1.9-.3 1.9-.7 0-.3-.9-.1-1.9 0-1 0-1.9-.2-1.9.1z"/><path d="m35.8 12.8c0 .3.9.5 1.9.5 1.1 0 1.9-.3 1.9-.6s-.9-.1-1.9 0c-1 0-1.9-.2-1.9.1z"/><path d="m39.7 12.7c0 .3.9.6 2 .5s1.9-.4 1.9-.7-.9 0-1.9 0-2-.2-2 .2z"/><path d="m39.7 12.7c0 .3.9.5 2 .5s1.9-.3 1.9-.6-.9 0-1.9 0-2-.3-2 .1z"/><path d="m43.5 12.5c0 .3.9.6 2 .5s1.9-.4 1.9-.8c0-.3-.9 0-1.9 0-1.1.1-2-.1-2 .3z"/><path d="m43.5 12.4c0 .3.9.5 2 .4s1.9-.4 1.9-.7-.9 0-1.9.1c-1.1.1-2-.1-2 .2z"/><path d="m47.4 12.2c0 .3.9.5 2 .4s1.9-.5 1.9-.8-.9 0-1.9.1c-1.2.1-2.1 0-2 .3z"/><path d="m47.4 12.2c0 .3.9.5 2 .4s1.9-.4 1.9-.8c0-.3-.9 0-1.9.1-1.2.1-2.1 0-2 .3z"/><path d="m51.2 11.8c0 .3.9.5 2 .4s1.9-.5 1.8-.9c0-.3-.9 0-1.9.2-1 .1-1.9 0-1.9.3z"/><path d="m51.2 11.8c0 .3.9.5 2 .3 1.1-.1 1.9-.5 1.8-.8 0-.3-.9 0-1.9.2-1 .1-1.9 0-1.9.3z"/><path d="m55 11.4c0 .3.9.5 2 .3s1.9-.6 1.8-.9c0-.3-.9 0-1.9.2s-1.9.1-1.9.4z"/><path d="m55 11.4c0 .3.9.4 2 .3 1.1-.2 1.9-.5 1.8-.8 0-.3-.9.1-1.9.2s-1.9 0-1.9.3z"/></g><path d="m60 19.5c-20 4.5-40 7.8-60 9.1 0-5.1 0-10.3 0-15.4 19.9 2.5 40.1 2.5 60 0z" fill="#683112"/><path d="m60 15.4v-1c-19.9 2.5-40.1 2.5-60 0v1c19.9 2.5 40.1 2.5 60 0z" fill="#8b8b8b"/><path d="m60 15.6v-1c-19.9 2.5-40.1 2.5-60 0v1c19.9 2.6 40.1 2.6 60 0z" fill="#8b8b8b"/><path d="m60 15.5v-1c-19.9 2.5-40.1 2.5-60 0v1c19.9 2.5 40.1 2.5 60 0z" fill="url(#I)"/><path d="m0 26.5v.9c20-1.4 40-4.6 60-9.1 0-.3 0-.6 0-.9-20 4.5-40 7.7-60 9.1z" fill="#8b8b8b"/><path d="m0 26.7v.9c20-1.4 40-4.6 60-9.1 0-.3 0-.6 0-.9-20 4.5-40 7.8-60 9.1z" fill="#8b8b8b"/><path d="m0 26.6v.9c20-1.4 40-4.6 60-9.1 0-.3 0-.6 0-.9-20 4.5-40 7.7-60 9.1z" fill="url(#J)"/><path d="m60 13.2v5.6c0-1.8 0-3.7 0-5.6 0-.2-.9-1.1-1.1-1.1v.6c-1 .8-2.6 1-3.8.4-1.2.8-2.7.9-3.8.4-1 .7-2.8.9-3.9.3-1.1.7-2.8.8-3.8.2-1.2.7-2.8.8-3.8.2-1.2.8-2.8.8-4 .2-1.2.7-2.8.7-3.9.1-1.1.7-2.7.7-3.8 0-1.2.6-2.8.6-3.9-.1-1.1.6-2.8.6-3.9-.1-1.2.6-2.8.5-3.9-.2-1.2.6-2.7.5-3.9-.2-1.3.6-2.8.4-3.8-.3-1 .6-2.9.4-3.9-.4-1.3.5-3.1.3-3.8-.4v-.6c-.3 0-1.1.8-1.1 1.1 20 2.4 40.2 2.4 60.1-.1z" fill="#bc8951"/><g fill="#ead8c2"><path d="m58.9 12.1s0 .1 0 0z"/><path d="m58.9 12.1v.4c0-.1 0-.2 0-.4z"/><path d="m60 18.9c0-1.9 0-3.7 0-5.6 0 0 0 0 0-.1-19.9 2.5-40.1 2.5-60 0v.1c19.9 2.6 40.1 2.6 60 0v5.9c0-.1 0-.2 0-.3z"/></g></svg>