<svg enable-background="new 0 0 60 60" height="60" viewBox="0 0 60 60" width="60" xmlns="http://www.w3.org/2000/svg"><path d="m17.1 60c-.9 0-1.6-.7-1.6-1.6v-56.8c0-.9.7-1.6 1.6-1.6h25.8c.9 0 1.6.7 1.6 1.6v56.7c0 .9-.7 1.6-1.6 1.6h-25.8z" fill="#434343"/><path d="m43.8 1.6c0-.5-.4-1-.9-1h-25.8c-.5 0-.9.4-.9 1v56.7c0 .5.4 1 .9 1h25.8c.5 0 .9-.4.9-1z" fill="#c12127"/><path d="m41.1 37.2c.5-.6.7-2.1-.1-2.9s-2.3-.7-2.9-.1c-4.7-3.4-11.2-3.4-15.9 0-.6-.5-2.1-.7-2.9.1s-.7 2.3-.1 2.9c-3.4 4.7-3.4 11.2 0 15.9-.5.6-.7 2.1.1 2.9s2.3.7 2.9.1c4.7 3.4 11.2 3.4 15.9 0 .6.5 2.1.7 2.9-.1s.7-2.3.1-2.9c3.4-4.7 3.4-11.1 0-15.9z" fill="#212121"/><path d="m41.9 45.2c0 6.6-5.4 11.9-11.9 11.9-6.6 0-11.9-5.3-11.9-11.9s5.3-11.9 11.9-11.9c6.6-.1 11.9 5.3 11.9 11.9z" fill="#757576"/><path d="m40 49.3c.2-.5.9-.6 1.4-.5.4-1.1.6-2.4.6-3.6 0-1.3-.2-2.5-.6-3.6-.5.1-1.2-.1-1.4-.5-.2-.5.2-1 .6-1.3-1.1-2.2-2.9-4-5.1-5.1-.3.4-.9.8-1.3.6-.5-.2-.6-.9-.5-1.4-1.2-.4-2.4-.6-3.7-.6-1.2 0-2.4.2-3.6.5.1.5 0 1.2-.5 1.4s-1.1-.2-1.4-.7c-2.2 1.1-4 2.9-5.2 5.1.5.3.9.9.7 1.4s-.9.6-1.5.5c-.4 1.1-.6 2.4-.6 3.6 0 1.3.2 2.5.6 3.6.5-.1 1.3 0 1.5.5s-.2 1.1-.7 1.4c1.1 2.2 3 4 5.2 5.1.3-.5.9-.9 1.4-.7s.6.9.5 1.4c1.1.4 2.3.5 3.6.5s2.5-.2 3.7-.6c-.1-.5 0-1.2.5-1.4s1.1.2 1.3.6c2.2-1.1 4-2.9 5.1-5.1-.4 0-.8-.6-.6-1.1z" fill="#9e9d9e"/><path d="m30 55.7c-5.8 0-10.5-4.7-10.5-10.5s4.7-10.5 10.5-10.5 10.5 4.7 10.5 10.5-4.7 10.5-10.5 10.5zm0-20.9c-5.7 0-10.4 4.7-10.4 10.4s4.7 10.4 10.4 10.4 10.4-4.7 10.4-10.4-4.7-10.4-10.4-10.4z" fill="#616261"/><path d="m40.1 45.2c0 5.6-4.5 10.1-10.1 10.1s-10.1-4.5-10.1-10.1 4.5-10.1 10.1-10.1 10.1 4.5 10.1 10.1z" fill="#616261"/><path d="m39.7 45.2c0 5.4-4.3 9.7-9.7 9.7s-9.7-4.3-9.7-9.7 4.3-9.7 9.7-9.7 9.7 4.3 9.7 9.7z" fill="#212121"/><path d="m30 54.6c-5.2 0-9.4-4.2-9.4-9.4s4.2-9.4 9.4-9.4 9.4 4.2 9.4 9.4-4.2 9.4-9.4 9.4zm0-18.2c-4.9 0-8.8 4-8.8 8.8 0 4.9 4 8.8 8.8 8.8 4.9 0 8.8-4 8.8-8.8 0-4.9-3.9-8.8-8.8-8.8z" fill="#757576"/><path d="m33.4 45.2c0 1.9-1.5 3.4-3.4 3.4s-3.4-1.5-3.4-3.4 1.5-3.4 3.4-3.4 3.4 1.5 3.4 3.4z" fill="#9e9d9e"/><path d="m33 45.2c0 1.7-1.4 3-3 3-1.7 0-3-1.4-3-3 0-1.7 1.4-3 3-3 1.7 0 3 1.3 3 3z" fill="#616261"/><path d="m32.7 45.2c0 1.5-1.2 2.7-2.7 2.7s-2.7-1.2-2.7-2.7 1.2-2.7 2.7-2.7 2.7 1.2 2.7 2.7z" fill="#434343"/><path d="m26.1 34.5c.1.2 0 .5-.2.6s-.5 0-.6-.2 0-.5.2-.6.5 0 .6.2z" fill="#bdbdbd"/><path d="m26 34.7-.2.3h-.4l-.1-.4.2-.3.4.1z" fill="#757576"/><path d="m34.8 55.5c.1.2 0 .5-.2.6s-.5 0-.6-.2 0-.5.2-.6.5 0 .6.2z" fill="#bdbdbd"/><path d="m34.7 55.8-.2.2h-.4l-.1-.3.2-.3h.4z" fill="#757576"/><path d="m40.7 41.2c-.2.1-.5 0-.6-.2s0-.5.2-.6.5 0 .6.2c.1.3 0 .6-.2.6z" fill="#bdbdbd"/><path d="m40.5 41.2-.3-.2v-.4l.4-.1.2.2v.4z" fill="#757576"/><path d="m19.7 50c-.2.1-.5 0-.6-.2s0-.5.2-.6.5 0 .6.2 0 .5-.2.6z" fill="#bdbdbd"/><path d="m19.4 49.9-.2-.2v-.4l.3-.1.3.2v.4z" fill="#757576"/><path d="m34.8 34.8c-.1.2-.4.3-.6.2s-.3-.4-.2-.6.4-.3.6-.2c.2.2.3.4.2.6z" fill="#bdbdbd"/><path d="m34.6 35h-.4l-.2-.3.1-.3.4-.1.2.3z" fill="#757576"/><path d="m26.1 55.9c-.1.2-.4.3-.6.2s-.3-.4-.2-.6.4-.3.6-.2c.1.1.2.4.2.6z" fill="#bdbdbd"/><path d="m25.9 56h-.4l-.2-.2.1-.4h.4l.2.3z" fill="#757576"/><path d="m40.3 50c-.2-.1-.3-.4-.2-.6s.4-.3.6-.2.3.4.2.6c-.1.1-.3.3-.6.2z" fill="#bdbdbd"/><path d="m40.2 49.8v-.4l.3-.2.3.1v.4l-.2.2z" fill="#757576"/><path d="m19.3 41.2c-.2-.1-.3-.4-.2-.6s.4-.3.6-.2.3.4.2.6-.4.3-.6.2z" fill="#bdbdbd"/><path d="m19.2 41.1v-.4l.2-.2.4.1v.4l-.3.2z" fill="#757576"/><path d="m40.4 36.3.3-1-.7-.7-1 .3-.3 1 .7.7zm-1.4-1.3c.3-.3.9-.3 1.2 0s.3.9 0 1.2-.9.3-1.2 0c-.3-.4-.3-.9 0-1.2zm1.2 0c-.3-.3-.8-.3-1.1 0s-.3.8 0 1.1.8.3 1.1 0 .3-.8 0-1.1zm-.2 1-.2-.2c-.1 0-.1 0-.2 0l-.3.2-.1-.1.2-.2c0-.1 0-.1 0-.2l-.2-.2.1-.1.2.2h.2l.2-.2.1.1-.2.2v.2zm-20.2 18.3c-.3.3-.3.8 0 1.1s.8.3 1.1 0 .3-.8 0-1.1-.8-.3-1.1 0zm.9 0 .1.1-.2.2v.2l.2.2-.1.1-.2-.2c-.1 0-.1 0-.2 0l-.3.4-.1-.1.2-.2c0-.1 0-.1 0-.2l-.2-.2.1-.1.2.2h.2zm18.7-.5-.7.7.3 1 1 .3.7-.7-.3-1zm.8 1.6c-.3.3-.9.3-1.2 0s-.3-.9 0-1.2.9-.3 1.2 0c.4.4.4.9 0 1.2zm-1.1-1.1c-.3.3-.3.8 0 1.1s.8.3 1.1 0 .3-.8 0-1.1-.8-.3-1.1 0zm.9 1-.2-.2c-.1 0-.1 0-.2 0l-.2.2-.1-.1.2-.2c0-.1 0-.1 0-.2l-.2-.2.1-.1.2.2h.2l.2-.2.1.1-.2.2v.2zm-20.4-1.2-.3 1 .7.7 1-.3.3-1-.7-.7zm1.4 1.3c-.3.3-.9.3-1.2 0s-.3-.9 0-1.2.9-.3 1.2 0c.3.4.3.9 0 1.2zm-1.2-20.4c-.3.3-.3.8 0 1.1s.8.3 1.1 0 .3-.8 0-1.1-.8-.3-1.1 0zm.9 1-.2-.2c-.1 0-.1 0-.2 0l-.3.2-.1-.1.2-.2c0-.1 0-.1 0-.2l-.2-.2.1-.1.2.2h.2l.2-.2.1.1-.2.2v.2zm-.6-1.5-.7.7.3 1 1 .3.7-.7-.3-1zm.9 1.7c-.3.3-.9.3-1.2 0s-.3-.9 0-1.2.9-.3 1.2 0 .3.8 0 1.2z" fill="#bdbdbd"/><path d="m37.4 14.2c.3-.4.5-1.4-.1-2s-1.6-.4-2-.1c-3.2-2.3-7.5-2.3-10.7 0-.4-.3-1.4-.5-2 .1s-.4 1.6-.1 2c-2.3 3.2-2.3 7.5 0 10.7-.3.4-.5 1.4.1 2s1.6.4 2 .1c3.2 2.3 7.5 2.3 10.7 0 .4.3 1.4.5 2-.1s.4-1.6.1-2c2.3-3.2 2.3-7.5 0-10.7z" fill="#212121"/><ellipse cx="30" cy="19.6" fill="#757576" rx="8" ry="8"/><path d="m36.7 22.4c.1-.3.6-.4.9-.3.2-.8.4-1.6.4-2.4s-.1-1.7-.4-2.4c-.3.1-.8 0-.9-.3s.1-.7.4-.9c-.8-1.5-2-2.7-3.4-3.5-.2.3-.6.6-.9.4-.3-.1-.4-.6-.3-.9-.8-.3-1.6-.4-2.5-.4-.8 0-1.6.1-2.4.4.1.4 0 .8-.3 1-.3.1-.7-.1-.9-.5-1.5.8-2.7 2-3.5 3.4.3.2.6.6.5.9s-.6.4-1 .3c-.2.8-.4 1.6-.4 2.4 0 .9.1 1.7.4 2.4.4-.1.9 0 1 .3s-.1.8-.5.9c.8 1.5 2 2.7 3.5 3.4.2-.3.6-.6.9-.5s.4.6.3 1c.8.2 1.6.4 2.4.4.9 0 1.7-.1 2.5-.4-.1-.3 0-.8.3-.9s.7.1.9.4c1.5-.8 2.7-2 3.4-3.5-.3 0-.5-.4-.4-.7z" fill="#9e9d9e"/><path d="m30 26.7c-3.9 0-7.1-3.2-7.1-7.1s3.2-7.1 7.1-7.1 7.1 3.2 7.1 7.1-3.2 7.1-7.1 7.1zm0-14.1c-3.8 0-7 3.1-7 7 0 3.8 3.1 7 7 7 3.8 0 7-3.1 7-7s-3.2-7-7-7z" fill="#616261"/><path d="m36.8 19.6c0 3.7-3 6.8-6.8 6.8-3.7 0-6.8-3-6.8-6.8 0-3.7 3-6.8 6.8-6.8 3.7 0 6.8 3 6.8 6.8z" fill="#434343"/><path d="m36.5 19.6c0 3.6-2.9 6.5-6.5 6.5s-6.5-2.9-6.5-6.5 2.9-6.5 6.5-6.5 6.5 2.9 6.5 6.5z" fill="#212121"/><path d="m30 26c-3.5 0-6.4-2.9-6.4-6.4s2.9-6.4 6.4-6.4 6.4 2.9 6.4 6.4-2.9 6.4-6.4 6.4zm0-12.3c-3.2 0-5.9 2.6-5.9 5.8s2.6 5.9 5.9 5.9c3.2 0 5.9-2.6 5.9-5.9 0-3.1-2.7-5.8-5.9-5.8z" fill="#757576"/><path d="m32.3 19.6c0 1.3-1 2.3-2.3 2.3s-2.3-1-2.3-2.3 1-2.3 2.3-2.3 2.3 1 2.3 2.3z" fill="#9e9d9e"/><path d="m32 19.6c0 1.1-.9 2-2 2s-2-.9-2-2 .9-2 2-2c1.1-.1 2 .9 2 2z" fill="#616261"/><path d="m31.8 19.6c0 1-.8 1.8-1.8 1.8s-1.8-.8-1.8-1.8.8-1.8 1.8-1.8 1.8.8 1.8 1.8z" fill="#757576"/><path d="m27.3 12.4c.1.2 0 .3-.2.4s-.3 0-.4-.2 0-.3.2-.4c.2 0 .4 0 .4.2z" fill="#bdbdbd"/><path d="m27.3 12.5-.1.2h-.3l-.1-.2.2-.2h.2z" fill="#757576"/><path d="m33.2 26.5c.1.2 0 .3-.2.4s-.3 0-.4-.2 0-.3.2-.4c.2 0 .3.1.4.2z" fill="#bdbdbd"/><path d="m33.2 26.7-.2.2-.2-.1-.1-.2.1-.2.3.1z" fill="#757576"/><path d="m37.2 16.9c-.2.1-.3 0-.4-.2s0-.3.2-.4.3 0 .4.2c0 .2-.1.4-.2.4z" fill="#bdbdbd"/><path d="m37 16.9-.2-.2.1-.2.2-.1.2.2v.2z" fill="#757576"/><path d="m23 22.8c-.2.1-.3 0-.4-.2s0-.3.2-.4.3 0 .4.2c.1.1 0 .3-.2.4z" fill="#bdbdbd"/><path d="m22.9 22.7-.2-.1v-.2l.3-.1.2.1-.1.3z" fill="#757576"/><path d="m33.2 12.6c-.1.2-.2.2-.4.2-.2-.1-.2-.2-.2-.4.1-.2.2-.2.4-.2.2.1.3.3.2.4z" fill="#bdbdbd"/><path d="m33.1 12.7h-.3l-.1-.2.1-.2h.2l.2.2z" fill="#757576"/><path d="m27.3 26.8c-.1.2-.2.2-.4.2-.2-.1-.2-.2-.2-.4.1-.2.2-.2.4-.2s.3.2.2.4z" fill="#bdbdbd"/><path d="m27.2 26.8-.2.1-.2-.2.1-.2.3-.1.1.2z" fill="#757576"/><path d="m37 22.8c-.2-.1-.2-.2-.2-.4.1-.2.2-.2.4-.2.2.1.2.2.2.4-.1.2-.3.2-.4.2z" fill="#bdbdbd"/><path d="m36.9 22.7-.1-.3.2-.1.3.1v.2l-.2.1z" fill="#757576"/><path d="m22.8 16.9c-.2-.1-.2-.2-.2-.4.1-.2.2-.2.4-.2.2.1.2.2.2.4-.1.2-.2.3-.4.2z" fill="#bdbdbd"/><path d="m22.7 16.8v-.2l.2-.2.2.1.1.2-.2.2z" fill="#757576"/><path d="m37 13.6.2-.7-.5-.5-.7.2-.2.7.5.5zm-.9-.9c.2-.2.6-.2.8 0s.2.6 0 .8-.6.2-.8 0-.2-.6 0-.8zm.7 0c-.2-.2-.5-.2-.8 0-.2.2-.2.5 0 .8.2.2.5.2.8 0s.3-.6 0-.8zm-.1.7-.1-.1c-.1 0-.1 0-.2 0l-.1.1-.1-.1.1-.1c0-.1 0-.1 0-.2l-.1-.1.1-.1.1.1h.2l.1-.1.1.1-.2.1v.2zm-13.5 12.3c-.2.2-.2.5 0 .8.2.2.5.2.8 0 .2-.2.2-.5 0-.8-.3-.2-.6-.2-.8 0zm.6 0-.1.3v.2l.1.1-.1.1-.1-.1c-.1 0-.1 0-.2 0l-.1.1-.1-.1.1-.1c0-.1 0-.1 0-.2l-.1-.1.1-.1.1.1h.2zm12.5-.3-.5.5.2.7.7.2.5-.5-.2-.8zm.6 1.1c-.2.2-.6.2-.8 0s-.2-.6 0-.8.6-.2.8 0 .2.5 0 .8zm-.8-.8c-.2.2-.2.5 0 .8.2.2.5.2.8 0 .2-.2.2-.5 0-.8-.3-.2-.6-.2-.8 0zm.6.7-.1-.1c-.1 0-.1 0-.2 0l-.1.1-.1-.1.1-.1c0-.1 0-.1 0-.2l-.1-.1.1-.1.1.1h.2l.1-.1.1.1-.2.1v.2zm-13.7-.9-.2.7.5.5.7-.2.2-.7-.5-.5zm.9 1c-.2.2-.6.2-.8 0s-.2-.6 0-.8.6-.2.8 0 .2.5 0 .8zm-.7-13.8c-.2.2-.2.5 0 .8.2.2.5.2.8 0 .2-.2.2-.5 0-.8-.3-.2-.6-.2-.8 0zm.6.7-.1-.1c-.1 0-.1 0-.2 0l-.1.1-.1-.1.1-.1c0-.1 0-.1 0-.2l-.1-.1.1-.1.1.1h.2l.1-.1.1.1-.2.1v.2zm-.5-1-.5.5.2.7.7.2.5-.5-.2-.7zm.6 1.1c-.2.2-.6.2-.8 0s-.2-.6 0-.8.6-.2.8 0 .2.6 0 .8z" fill="#bdbdbd"/><path d="m19.5 31.8c-1.2 0-2.2-1-2.2-2.2s1-2.2 2.2-2.2 2.2 1 2.2 2.2c0 1.3-1 2.2-2.2 2.2z"/><path d="m19.5 27.7c1.1 0 1.9.9 1.9 1.9 0 1.1-.9 1.9-1.9 1.9-1.1 0-1.9-.9-1.9-1.9-.1-1 .8-1.9 1.9-1.9zm0-.5c-1.3 0-2.4 1.1-2.4 2.4s1.1 2.4 2.4 2.4 2.4-1.1 2.4-2.4-1.1-2.4-2.4-2.4z" fill="#616261"/><path d="m40.5 31.8c-1.2 0-2.2-1-2.2-2.2s1-2.2 2.2-2.2 2.2 1 2.2 2.2c0 1.3-1 2.2-2.2 2.2z"/><path d="m40.5 27.7c1.1 0 1.9.9 1.9 1.9 0 1.1-.9 1.9-1.9 1.9-1.1 0-1.9-.9-1.9-1.9s.8-1.9 1.9-1.9zm0-.5c-1.3 0-2.4 1.1-2.4 2.4s1.1 2.4 2.4 2.4 2.4-1.1 2.4-2.4c.1-1.3-1-2.4-2.4-2.4z" fill="#616261"/><path d="m17.8 9.4c-.4 0-.8-.6-.8-1.4v-4.7c0-.8.3-1.4.8-1.4h10.7c.4 0 .8.6.8 1.4v4.7c0 .8-.3 1.4-.8 1.4z" fill="#b0bec5"/><path d="m28.6 2.4h-10.8c-.2 0-.4.4-.4.8v4.8c0 .5.2.8.4.8h10.7c.3 0 .5-.4.5-.8v-4.7c0-.5-.2-.9-.4-.9z" fill="#b0bec5"/><path d="m28.8 8.7c-.1.1-.1.1-.2.1h-10.8c-.1 0-.2 0-.2-.1.9-.5 4.2-2.5 5.6-2.5s4.7 1.9 5.6 2.5z" fill="#cfd8dc"/><path d="m28.8 2.5c-.1-.1-.1-.1-.2-.1h-10.8c-.1 0-.2 0-.2.1.9.6 4.2 2.5 5.6 2.5s4.7-1.9 5.6-2.5z" fill="#9e9d9e"/><path d="m31.4 9.4c-.4 0-.8-.6-.8-1.4v-4.7c0-.8.3-1.4.8-1.4h10.7c.4 0 .8.6.8 1.4v4.7c0 .8-.3 1.4-.8 1.4z" fill="#b0bec5"/><path d="m42.2 2.4h-10.8c-.2 0-.4.4-.4.8v4.8c0 .5.2.8.4.8h10.7c.2 0 .4-.4.4-.8v-4.7c.1-.5-.1-.9-.3-.9z" fill="#b0bec5"/><path d="m42.4 8.7c-.1.1-.1.1-.2.1h-10.8c-.1 0-.2 0-.2-.1.9-.5 4.2-2.5 5.6-2.5s4.7 1.9 5.6 2.5z" fill="#cfd8dc"/><path d="m42.4 2.5c-.1-.1-.1-.1-.2-.1h-10.8c-.1 0-.2 0-.2.1.9.6 4.2 2.5 5.6 2.5s4.7-1.9 5.6-2.5z" fill="#9e9d9e"/><g fill="#232323"><circle cx="23.2" cy="5.8" r="1.5"/><circle cx="37" cy="5.8" r="1.5"/></g></svg>