<svg enable-background="new 0 0 60 60" height="60" viewBox="0 0 60 60" width="60" xmlns="http://www.w3.org/2000/svg"><path d="m44.1 0h-28.2c-1.1 0-2 .9-2 2v56c0 1.1.9 2 2 2h28.3c1.1 0 2-.9 2-2v-56c0-1.1-.9-2-2.1-2z" fill="#424143"/><path d="m15.9 59.6c-.9 0-1.6-.7-1.6-1.6v-56c0-.9.7-1.6 1.6-1.6h28.3c.9 0 1.6.7 1.6 1.6v56c0 .9-.7 1.6-1.6 1.6z" fill="#00572c"/><path d="m45.1 2c0-.5-.4-.9-.9-.9h-28.3c-.5 0-.9.4-.9.9v56c0 .5.4.9.9.9h28.3c.5 0 .9-.4.9-.9z" fill="#6d6e71"/><path d="m40.9 36.9c.5-.6.7-2.1-.1-2.9s-2.3-.7-2.9-.1c-4.7-3.4-11-3.4-15.7 0-.6-.5-2.1-.7-2.9.1s-.7 2.3-.1 2.9c-3.4 4.7-3.4 11 0 15.7-.5.6-.7 2.1.1 2.9s2.3.7 2.9.1c4.7 3.4 11 3.4 15.7 0 .6.5 2.1.7 2.9-.1s.7-2.3.1-2.9c3.4-4.7 3.4-11.1 0-15.7z" fill="#00572c"/><path d="m41.8 44.7c0 6.5-5.3 11.8-11.8 11.8s-11.8-5.3-11.8-11.8 5.3-11.8 11.8-11.8 11.8 5.3 11.8 11.8z" fill="#6d6e71"/><path d="m39.9 48.8c.2-.4.8-.6 1.4-.5.4-1.1.5-2.3.5-3.6 0-1.2-.2-2.4-.5-3.6-.5.1-1.2-.1-1.4-.5s.2-1 .6-1.3c-1.1-2.2-2.9-3.9-5-5.1-.3.4-.9.8-1.3.6-.5-.2-.6-.9-.5-1.4-1.1-.4-2.4-.6-3.6-.6s-2.4.2-3.5.5c.1.5 0 1.2-.5 1.4s-1.1-.2-1.4-.7c-2.2 1.1-4 2.9-5.1 5.1.5.3.9.9.7 1.4s-.9.6-1.5.5c-.4 1.1-.6 2.3-.6 3.6s.2 2.5.6 3.6c.5-.1 1.3 0 1.5.5s-.2 1.1-.7 1.4c1.1 2.2 2.9 3.9 5.1 5.1.3-.5.9-.9 1.4-.7s.6.9.5 1.4c1.1.3 2.3.5 3.5.5 1.3 0 2.5-.2 3.6-.6-.1-.5 0-1.2.5-1.4s1 .2 1.3.6c2.2-1.1 3.9-2.9 5-5.1-.4-.1-.8-.7-.6-1.1z" fill="#929497"/><path d="m30 55.1c-5.7 0-10.4-4.7-10.4-10.4s4.7-10.4 10.4-10.4 10.4 4.7 10.4 10.4-4.7 10.4-10.4 10.4zm0-20.6c-5.7 0-10.3 4.6-10.3 10.3 0 5.6 4.6 10.2 10.3 10.2s10.3-4.6 10.3-10.3c0-5.6-4.6-10.2-10.3-10.2z" fill="#59595c"/><path d="m39.9 44.7c0 5.5-4.5 9.9-9.9 9.9-5.5 0-9.9-4.5-9.9-9.9 0-5.5 4.5-9.9 9.9-9.9 5.5 0 9.9 4.4 9.9 9.9z" fill="#59595c"/><path d="m39.6 44.7c0 5.3-4.3 9.6-9.6 9.6s-9.6-4.3-9.6-9.6 4.3-9.6 9.6-9.6c5.3.1 9.6 4.3 9.6 9.6z" fill="#59595c"/><path d="m30 54c-5.1 0-9.3-4.2-9.3-9.3s4.2-9.3 9.3-9.3 9.3 4.2 9.3 9.3-4.2 9.3-9.3 9.3zm0-18c-4.8 0-8.7 3.9-8.7 8.7s3.9 8.7 8.7 8.7 8.7-3.9 8.7-8.7-3.9-8.7-8.7-8.7z" fill="#6d6e71"/><path d="m33.3 44.7c0 1.8-1.5 3.3-3.3 3.3s-3.3-1.5-3.3-3.3 1.5-3.3 3.3-3.3 3.3 1.5 3.3 3.3z" fill="#929497"/><ellipse cx="30" cy="44.7" fill="#59595c" rx="3" ry="3"/><path d="m32.6 44.7c0 1.5-1.2 2.6-2.6 2.6-1.5 0-2.6-1.2-2.6-2.6s1.2-2.6 2.6-2.6c1.5 0 2.6 1.2 2.6 2.6z" fill="#808184"/><path d="m26.1 34.2c.1.2 0 .5-.2.6s-.5 0-.6-.2 0-.5.2-.6c.3-.1.5 0 .6.2z" fill="#bcbdbf"/><path d="m26.1 34.4-.3.3-.3-.1-.1-.3.2-.3.3.1z" fill="#6d6e71"/><path d="m34.7 54.9c.1.2 0 .5-.2.6s-.5 0-.6-.2 0-.5.2-.6c.3-.1.5 0 .6.2z" fill="#bcbdbf"/><path d="m34.7 55.1-.3.3h-.3l-.1-.3.2-.3h.3z" fill="#6d6e71"/><path d="m40.5 40.8c-.2.1-.5 0-.6-.2s0-.5.2-.6.5 0 .6.2c.2.3.1.5-.2.6z" fill="#bcbdbf"/><path d="m40.3 40.8-.2-.2v-.4l.3-.1.3.2v.3z" fill="#6d6e71"/><path d="m19.8 49.4c-.2.1-.5 0-.6-.2s0-.5.2-.6.5 0 .6.2c.1.3 0 .5-.2.6z" fill="#bcbdbf"/><path d="m19.6 49.4-.3-.2v-.4l.4-.1.3.2-.1.3z" fill="#6d6e71"/><path d="m34.7 34.5c-.1.2-.3.3-.6.2-.2-.1-.3-.3-.2-.6.1-.2.3-.3.6-.2.2.1.3.4.2.6z" fill="#bcbdbf"/><path d="m34.5 34.6-.3.1-.2-.3.1-.3.3-.1.3.3z" fill="#6d6e71"/><path d="m26.1 55.3c-.1.2-.3.3-.6.2-.2-.1-.3-.3-.2-.6.1-.2.3-.3.6-.2.2.1.3.3.2.6z" fill="#bcbdbf"/><path d="m25.9 55.4h-.3l-.2-.3.1-.3h.3l.3.3z" fill="#6d6e71"/><path d="m40.2 49.4c-.2-.1-.3-.3-.2-.6.1-.2.3-.3.6-.2.2.1.3.3.2.6-.1.2-.4.3-.6.2z" fill="#bcbdbf"/><path d="m40.1 49.2v-.3l.2-.2.4.1v.4l-.3.2z" fill="#6d6e71"/><path d="m19.5 40.8c-.2-.1-.3-.3-.2-.6.1-.2.3-.3.6-.2.2.1.3.3.2.6-.2.2-.4.3-.6.2z" fill="#bcbdbf"/><path d="m19.3 40.6v-.3l.3-.2.3.1.1.4-.3.2z" fill="#6d6e71"/><path d="m40.2 36 .3-1-.7-.7-1 .3-.3 1 .7.7zm-1.3-1.4c.3-.3.9-.3 1.2 0s.3.9 0 1.2-.8.3-1.2 0c-.3-.3-.3-.8 0-1.2zm1.2.1c-.3-.3-.8-.3-1.1 0s-.3.8 0 1.1.8.3 1.1 0 .3-.8 0-1.1zm-.3 1-.2-.2c-.1 0-.1 0-.2 0l-.2.2-.2-.1.2-.2c0-.1 0-.1 0-.2l-.2-.3.1-.1.2.2h.2l.2-.2.1.1-.2.2v.2l.2.2zm-19.9 18c-.3.3-.3.8 0 1.1s.8.3 1.1 0 .3-.8 0-1.1-.7-.3-1.1 0zm.9.1.1.1-.2.2v.2l.2.2-.1.1-.2-.2c-.1 0-.1 0-.2 0l-.2.2h-.2l.2-.2c0-.1 0-.1 0-.2l-.2-.3.1-.1.2.2h.2zm18.4-.6-.7.8.3 1 1 .3.7-.7-.3-1zm.9 1.6c-.3.3-.8.3-1.2 0-.3-.3-.3-.9 0-1.2s.8-.3 1.2 0c.3.4.3.9 0 1.2zm-1.1-1.1c-.3.3-.3.8 0 1.1s.8.3 1.1 0 .3-.8 0-1.1-.8-.3-1.1 0zm.8 1-.2-.2c-.1 0-.1 0-.2 0l-.2.2-.2-.1.2-.2c0-.1 0-.1 0-.2l-.2-.3.1-.1.2.2h.2l.2-.2.1.1-.2.2v.2l.2.2zm-20-1.2-.3 1 .7.7 1-.3.3-1-.7-.7zm1.3 1.3c-.3.3-.9.3-1.2 0s-.3-.8 0-1.2c.3-.3.9-.3 1.2 0 .3.4.3.9 0 1.2zm-1.2-20.1c-.3.3-.3.8 0 1.1s.8.3 1.1 0 .3-.8 0-1.1-.7-.3-1.1 0zm.9 1-.2-.2c-.1 0-.1 0-.2 0l-.2.2-.2-.1.2-.2c0-.1 0-.1 0-.2l-.2-.3.1-.1.2.2h.2l.2-.2.1.1-.2.2v.2l.2.2zm-.6-1.5-.7.8.3 1 1 .3.7-.7-.3-1zm.9 1.6c-.3.3-.9.3-1.2 0s-.3-.9 0-1.2.8-.3 1.2 0c.3.4.3.9 0 1.2z" fill="#bcbdbf"/><path d="m37.3 15.9c.3-.4.5-1.4-.1-2s-1.6-.4-2-.1c-3.1-2.3-7.4-2.3-10.6 0-.4-.3-1.4-.5-2 .1s-.4 1.6-.1 2c-2.3 3.1-2.3 7.4 0 10.6-.3.4-.5 1.4.1 2s1.6.4 2 .1c3.1 2.3 7.4 2.3 10.6 0 .4.3 1.4.5 2-.1s.4-1.6.1-2c2.3-3.2 2.3-7.5 0-10.6z" fill="#00572c"/><circle cx="30" cy="21.2" fill="#6d6e71" r="7.9"/><path d="m36.6 23.9c.1-.3.6-.4.9-.3.2-.8.4-1.6.4-2.4s-.1-1.6-.4-2.4c-.3.1-.8 0-.9-.3s.1-.7.4-.9c-.7-1.5-1.9-2.6-3.4-3.4-.2.3-.6.5-.9.4s-.4-.6-.3-.9c-.8-.2-1.6-.4-2.4-.4s-1.6.1-2.4.4c.1.3 0 .8-.3 1-.3.1-.7-.1-.9-.4-1.5.8-2.7 1.9-3.4 3.4.3.2.6.6.5.9s-.6.4-1 .3c-.2.8-.4 1.6-.4 2.4s.1 1.7.4 2.4c.3-.1.8 0 1 .3.1.3-.1.7-.5.9.8 1.5 2 2.6 3.4 3.4.2-.3.6-.6.9-.4.3.1.4.6.3 1 .7.2 1.5.4 2.4.4s1.7-.1 2.4-.4c-.1-.3 0-.8.3-.9s.7.1.9.4c1.4-.8 2.6-1.9 3.4-3.4-.2-.4-.5-.8-.4-1.1z" fill="#929497"/><path d="m30 28.2c-3.9 0-7-3.1-7-7s3.1-7 7-7 7 3.1 7 7c0 3.8-3.1 7-7 7zm0-13.9c-3.8 0-6.9 3.1-6.9 6.9s3.1 6.9 6.9 6.9 6.9-3.1 6.9-6.9-3.1-6.9-6.9-6.9z" fill="#59595c"/><path d="m36.7 21.2c0 3.7-3 6.7-6.7 6.7s-6.7-3-6.7-6.7 3-6.7 6.7-6.7 6.7 3 6.7 6.7z" fill="#59595c"/><path d="m36.4 21.2c0 3.5-2.9 6.4-6.4 6.4s-6.4-2.9-6.4-6.4 2.9-6.4 6.4-6.4c3.6-.1 6.4 2.8 6.4 6.4z" fill="#59595c"/><path d="m30 27.5c-3.5 0-6.3-2.8-6.3-6.3s2.8-6.3 6.3-6.3 6.3 2.8 6.3 6.3c0 3.4-2.8 6.3-6.3 6.3zm0-12.1c-3.2 0-5.8 2.6-5.8 5.8s2.6 5.8 5.8 5.8 5.8-2.6 5.8-5.8-2.6-5.8-5.8-5.8z" fill="#6d6e71"/><path d="m32.2 21.2c0 1.2-1 2.2-2.2 2.2s-2.2-1-2.2-2.2 1-2.2 2.2-2.2c1.2-.1 2.2.9 2.2 2.2z" fill="#929497"/><path d="m32 21.2c0 1.1-.9 2-2 2s-2-.9-2-2 .9-2 2-2 2 .9 2 2z" fill="#59595c"/><path d="m31.8 21.2c0 1-.8 1.8-1.8 1.8s-1.8-.8-1.8-1.8.8-1.8 1.8-1.8 1.8.8 1.8 1.8z" fill="#808184"/><path d="m27.4 14.1c.1.1 0 .3-.2.4-.1.1-.3 0-.4-.2-.1-.1 0-.3.2-.4.2 0 .3 0 .4.2z" fill="#bcbdbf"/><path d="m27.4 14.2-.2.2h-.2l-.1-.2.1-.2h.3z" fill="#6d6e71"/><path d="m33.2 28c.1.1 0 .3-.2.4-.1.1-.3 0-.4-.2-.1-.1 0-.3.2-.4.1 0 .3.1.4.2z" fill="#bcbdbf"/><path d="m33.1 28.2-.1.2-.3-.1v-.2l.1-.2h.2z" fill="#6d6e71"/><path d="m37.1 18.5c-.1.1-.3 0-.4-.2-.1-.1 0-.3.2-.4.1-.1.3 0 .4.2 0 .2-.1.4-.2.4z" fill="#bcbdbf"/><path d="m36.9 18.5-.1-.1v-.3l.2-.1.2.2v.2z" fill="#6d6e71"/><path d="m23.1 24.3c-.1.1-.3 0-.4-.2-.1-.1 0-.3.2-.4.1-.1.3 0 .4.2s0 .4-.2.4z" fill="#bcbdbf"/><path d="m23 24.3-.2-.2v-.2l.3-.1.2.2-.1.2z" fill="#6d6e71"/><path d="m33.2 14.3c-.1.1-.2.2-.4.2-.1-.1-.2-.2-.2-.4.1-.1.2-.2.4-.2.2.1.2.3.2.4z" fill="#bcbdbf"/><path d="m33 14.4h-.2l-.1-.2v-.2h.3l.1.2z" fill="#6d6e71"/><path d="m27.4 28.2c-.1.1-.2.2-.4.2-.1-.1-.2-.2-.2-.4.1-.1.2-.2.4-.2.2.1.2.3.2.4z" fill="#bcbdbf"/><path d="m27.3 28.3-.3.1-.1-.2.1-.3h.2l.2.2z" fill="#6d6e71"/><path d="m36.9 24.3c-.1-.1-.2-.2-.2-.4.1-.1.2-.2.4-.2.1.1.2.2.2.4-.1.2-.3.3-.4.2z" fill="#bcbdbf"/><path d="m36.8 24.2v-.2l.1-.2.3.1v.2l-.2.2z" fill="#6d6e71"/><path d="m22.9 18.5c-.1-.1-.2-.2-.2-.4.1-.1.2-.2.4-.2.1.1.2.2.2.4-.1.2-.2.3-.4.2z" fill="#bcbdbf"/><path d="m22.8 18.4v-.2l.2-.2.2.1.1.3-.2.1z" fill="#6d6e71"/><path d="m36.9 15.3.2-.7-.5-.5-.7.2-.2.7.5.5zm-.9-.9c.2-.2.6-.2.8 0s.2.6 0 .8-.6.2-.8 0-.2-.6 0-.8zm.8 0c-.2-.2-.5-.2-.7 0s-.2.5 0 .7.5.2.7 0 .2-.5 0-.7zm-.2.7-.1-.1c-.1 0-.1 0-.2 0l-.1.1-.1-.1.1-.1c0-.1 0-.1 0-.2l-.1-.1.1-.1.1.1h.2l.1-.1.1.1-.1.1v.2zm-13.4 12.1c-.2.2-.2.5 0 .7s.5.2.7 0 .2-.5 0-.7c-.1-.2-.4-.2-.7 0zm.6 0v.2.2l.1.1-.1.1-.1-.1c-.1 0-.1 0-.2 0l-.1.1-.1-.1.1-.1c0-.1 0-.1 0-.2l-.1-.1.1-.1.1.1h.2zm12.4-.3-.5.5.2.7.7.2.5-.5-.2-.8zm.6 1c-.2.2-.6.2-.8 0s-.2-.6 0-.8.6-.2.8 0c.2.3.2.6 0 .8zm-.8-.7c-.2.2-.2.5 0 .7s.5.2.7 0 .2-.5 0-.7c-.1-.2-.5-.2-.7 0zm.6.7-.1-.1c-.1 0-.1 0-.2 0l-.1.1-.1-.1.1-.1c0-.1 0-.1 0-.2l-.1-.1.1-.1.1.1h.2l.1-.1.1.1-.1.1v.2zm-13.5-.9-.2.7.5.5.7-.2.2-.7-.5-.5zm.9.9c-.2.2-.6.2-.8 0s-.2-.6 0-.8.6-.2.8 0c.2.3.2.6 0 .8zm-.8-13.5c-.2.2-.2.5 0 .7s.5.2.7 0 .2-.5 0-.7c-.1-.2-.4-.2-.7 0zm.6.7-.1-.1c-.1 0-.1 0-.2 0l-.1.1-.1-.1.1-.1c0-.1 0-.1 0-.2l-.1-.1.1-.1.1.1h.2l.1-.1.1.1-.1.1v.2zm-.4-1-.5.5.2.7.7.2.5-.5-.2-.7zm.6 1.1c-.2.2-.6.2-.8 0s-.2-.6 0-.8.6-.2.8 0 .2.6 0 .8z" fill="#bcbdbf"/><path d="m31.2 20.7c0 .4-.3.7-.7.7s-.7-.3-.7-.7.3-.7.7-.7.7.3.7.7z" fill="#a7a8ab"/><path d="m31.7 44.1c0 .6-.5 1.1-1.1 1.1s-1.1-.5-1.1-1.1.5-1.1 1.1-1.1 1.1.5 1.1 1.1z" fill="#a7a8ab"/><path d="m21 10.3c-.7 0-1.3-.6-1.3-1.3v-4.4c0-.7.6-1.3 1.3-1.3h18c.7 0 1.3.6 1.3 1.3v4.4c0 .7-.6 1.3-1.3 1.3z" fill="#acb4b8"/><path d="m39 3.8h-18c-.4 0-.7.4-.7.8v4.4c0 .4.3.8.7.8h18c.4 0 .7-.4.7-.8v-4.4c0-.4-.3-.8-.7-.8z" fill="#acb4b8"/><path d="m39.4 9.6c-.1.1-.2.1-.4.1h-18c-.1 0-.3 0-.4-.1 1.4-.5 7-2.3 9.4-2.3 2.3 0 7.9 1.8 9.4 2.3z" fill="#c5ced2"/><path d="m39.4 3.9c-.1-.1-.2-.1-.4-.1h-18c-.1 0-.3 0-.4.1 1.4.5 7 2.3 9.4 2.3 2.3 0 7.9-1.8 9.4-2.3z" fill="#90999d"/><path d="m19.8 5.6c.4 0 .7.5.7 1.2 0 .6-.3 1.2-.7 1.2s-1-.5-1-1.2c-.1-.7.6-1.2 1-1.2z" fill="#acb4b8"/><path d="m40.3 7.9c-.4 0-.7-.5-.7-1.2 0-.6.3-1.2.7-1.2s1 .5 1 1.2-.7 1.2-1 1.2z" fill="#acb4b8"/><path d="m21.8 29.4c0 1.6-1.3 3-3 3-1.6 0-3-1.3-3-3 0-1.6 1.3-3 3-3s3 1.3 3 3z" fill="#59595c"/><path d="m44.3 29.4c0 1.6-1.3 3-3 3-1.6 0-3-1.3-3-3 0-1.6 1.3-3 3-3s3 1.3 3 3z" fill="#59595c"/><path d="m21.3 29.4c0 1.4-1.1 2.5-2.5 2.5s-2.5-1.1-2.5-2.5 1.1-2.5 2.5-2.5 2.5 1.1 2.5 2.5z" fill="#424143"/><path d="m43.8 29.4c0 1.4-1.1 2.5-2.5 2.5s-2.5-1.1-2.5-2.5 1.1-2.5 2.5-2.5 2.5 1.1 2.5 2.5z" fill="#424143"/><path d="m20 6.6c.1.2 0 .4-.2.5s-.4 0-.5-.2 0-.4.2-.5c.2 0 .5 0 .5.2z" fill="#bcbdbf"/><path d="m20 6.8-.2.2h-.3l-.1-.3.2-.2h.3z" fill="#6d6e71"/><path d="m40.7 6.6c.1.2 0 .4-.2.5s-.4 0-.5-.2 0-.4.2-.5c.3 0 .5 0 .5.2z" fill="#bcbdbf"/><path d="m40.7 6.8-.2.2h-.3l-.1-.3.2-.2h.3z" fill="#6d6e71"/><g fill="#424143"><path d="m16 56.6c0-.1.2-.2.5-.2h.3c.3 0 .5.1.5.2v1.2c0 .1-.2.2-.5.2h-.3c-.3 0-.5-.1-.5-.2z"/><path d="m42.6 56.6c0-.1.2-.2.5-.2h.3c.3 0 .5.1.5.2v1.2c0 .1-.2.2-.5.2h-.3c-.3 0-.5-.1-.5-.2z"/><path d="m16 2.5c0-.1.2-.2.5-.2h.3c.3 0 .5.1.5.2v1c0 .1-.2.2-.5.2h-.3c-.3 0-.5-.1-.5-.2z"/><path d="m42.6 2.5c0-.1.2-.2.5-.2h.3c.3 0 .5.1.5.2v1c0 .1-.2.2-.5.2h-.3c-.3 0-.5-.1-.5-.2z"/></g><circle cx="30" cy="6.8" fill="#232323" r="1.6"/></svg>