<svg enable-background="new 0 0 60 60" height="60" viewBox="0 0 60 60" width="60" xmlns="http://www.w3.org/2000/svg"><path d="m20.4 60.1c-.5 0-.8-.5-.8-1.2v-14.8c0-.7.4-1.2.8-1.2h18.3c.5 0 .8.5.8 1.2v14.8c0 .7-.4 1.2-.8 1.2z" fill="#063e89" stroke="#fff" stroke-miterlimit="10" stroke-width=".146"/><circle cx="29.5" cy="50.8" fill="#fff" r="5.5"/><circle cx="29.5" cy="50.8" fill="#063e89" r="4.1"/><path d="m26 57.4h6.8v.9h-6.8z" fill="#fff"/><path d="m20.7 43.9h17.7v15.2h-17.7z" fill="none" stroke="#fff" stroke-miterlimit="10"/><path d="m29.1 18.6h1.1v24.6h-1.2zm6 .7h-11.4c-.1 0-.2-.1-.2-.2v-18.7c0-.1.1-.2.2-.2h11.4c.1 0 .2.1.2.2v18.7c.1.1 0 .2-.2.2z" fill="#063e89"/><circle cx="29.4" cy="4.6" fill="#fff" r="3.2"/><path d="m29.4 8c-1.8 0-3.4-1.6-3.4-3.4 0-1.9 1.5-3.4 3.4-3.4s3.4 1.5 3.4 3.4c0 1.8-1.5 3.4-3.4 3.4zm0-6.5c-1.7 0-3 1.4-3 3 0 1.7 1.3 3 3 3s3-1.3 3-3c.1-1.6-1.3-3-3-3z"/><circle cx="29.4" cy="4.6" fill="#063e89" r="1.1"/><circle cx="29.4" cy="12.2" fill="#fff" r="5.2"/><path d="m29.4 17.6c-3 0-5.4-2.4-5.4-5.4s2.4-5.4 5.4-5.4 5.4 2.4 5.4 5.4-2.4 5.4-5.4 5.4zm0-10.4c-2.8 0-5 2.2-5 5s2.3 5 5 5c2.8 0 5-2.2 5-5 .1-2.7-2.2-5-5-5z"/><circle cx="29.4" cy="12.2" fill="#063e89" r="4"/><circle cx="29.4" cy="12.2" fill="#fff" r="1"/><path d="m29.4 15.4c-1.7 0-3.1-1.4-3.1-3.1s1.4-3.1 3.1-3.1 3.1 1.4 3.1 3.1c.1 1.6-1.4 3.1-3.1 3.1zm0-5.9c-1.5 0-2.8 1.2-2.8 2.8 0 1.5 1.2 2.8 2.8 2.8 1.5 0 2.8-1.2 2.8-2.8s-1.2-2.8-2.8-2.8z" fill="#fff"/><circle cx="32.4" cy="8.8" r=".3"/><circle cx="26.4" cy="8.8" r=".3"/><circle cx="26.4" cy="15.6" r=".3"/><circle cx="32.4" cy="15.7" r=".3"/><path d="m34.5 18.8h-10.2c-.2 0-.4-.2-.4-.4v-17.5c0-.2.2-.3.4-.3h10.2c.2 0 .3.2.3.4v17.6c.1.1-.1.2-.3.2zm-10.2-18c-.1 0-.1.1-.1.1v17.6s0 .1.1.1h10.2c.1 0 .1 0 .1-.1v-17.6c0-.1 0-.1-.1-.1z" fill="#fff"/></svg>