<svg xmlns="http://www.w3.org/2000/svg" width="60" height="60"><path fill="#1C1C1B" stroke="#fff" stroke-width=".146" stroke-miterlimit="10" d="M20.38 60.14c-.46 0-.84-.53-.84-1.2V44.1c0-.65.38-1.2.84-1.2h18.3c.48 0 .85.55.85 1.2v14.84c0 .66-.37 1.2-.84 1.2H20.36z"/><circle cx="29.537" cy="50.84" r="5.481" fill="#fff"/><circle cx="29.537" cy="50.839" r="4.061"/><path fill="#fff" d="M26.05 57.38h6.77v.94h-6.77z"/><path fill="none" stroke="#fff" stroke-miterlimit="10" d="M20.7 43.94h17.67v15.23H20.7z"/><path d="M29.06 18.65h1.13v24.63h-1.15zm6.07.65h-11.4c-.12 0-.22-.1-.22-.23V.37c0-.12.1-.23.25-.23h11.4c.12 0 .22.1.22.23v18.7c0 .13-.1.23-.23.23z"/><circle cx="29.436" cy="4.565" r="3.225" fill="#fff"/><path d="M29.44 7.96c-1.88 0-3.4-1.52-3.4-3.4 0-1.87 1.52-3.4 3.4-3.4 1.87 0 3.4 1.53 3.4 3.4 0 1.88-1.53 3.4-3.4 3.4zm0-6.44c-1.7 0-3.05 1.36-3.05 3.04 0 1.7 1.34 3.05 3.03 3.05 1.68 0 3.05-1.34 3.05-3.03 0-1.67-1.38-3.04-3.06-3.04z"/><circle cx="29.436" cy="4.565" r="1.14"/><circle cx="29.436" cy="12.247" r="5.195" fill="#fff"/><path d="M29.44 17.6c-2.96 0-5.37-2.4-5.37-5.35 0-2.96 2.4-5.37 5.37-5.37 2.96 0 5.36 2.4 5.36 5.37 0 2.95-2.4 5.36-5.36 5.36zm0-10.37c-2.77 0-5.03 2.25-5.03 5.02.03 2.76 2.28 5 5.05 5 2.76 0 5.02-2.24 5.02-5 0-2.77-2.26-5.02-5.02-5.02z"/><circle cx="29.436" cy="12.247" r="3.998"/><circle cx="29.436" cy="12.247" r="1.004" fill="#fff"/><path fill="#fff" d="M29.44 15.36c-1.72 0-3.12-1.4-3.12-3.1 0-1.73 1.4-3.13 3.12-3.13 1.7 0 3.1 1.4 3.1 3.12.02 1.7-1.4 3.1-3.1 3.1zm0-5.88c-1.53 0-2.78 1.24-2.78 2.77 0 1.52 1.25 2.77 2.78 2.77 1.52 0 2.77-1.25 2.77-2.77 0-1.53-1.23-2.77-2.75-2.77z"/><circle cx="32.439" cy="8.812" r=".251"/><circle cx="26.414" cy="8.812" r=".251"/><circle cx="26.414" cy="15.584" r=".251"/><path fill="#fff" d="M34.55 18.84H24.32c-.2 0-.35-.16-.35-.35V.93c0-.2.16-.34.35-.34h10.23c.2 0 .35.16.35.35V18.5c0 .18-.16.34-.35.34zM24.32.84c-.07 0-.12.05-.12.1V18.5c0 .05.05.1.12.1h10.23c.07 0 .12-.05.12-.1V.94c0-.06-.05-.1-.12-.1H24.32z"/></svg>