<svg enable-background="new 0 0 60 60" height="60" viewBox="0 0 60 60" width="60" xmlns="http://www.w3.org/2000/svg"><path d="m11.4 21.5c0 .3-.3.6-.6.6s-.6-.3-.6-.6v-6c0-.3.3-.6.6-.6s.6.2.6.6zm-.6-7h1.1v7.9h-1.1zm37.8.9c0-.3.3-.6.6-.6s.6.2.6.6v6c0 .3-.3.6-.6.6s-.6-.3-.6-.6zm-.6-.9h1.2v7.9h-1.1zm0 43c0 1.4-1.1 2.5-2.5 2.5h-31.1c-1.4 0-2.5-1.1-2.5-2.5v-55c0-1.4 1.1-2.5 2.5-2.5h31.1c1.4 0 2.5 1.1 2.5 2.5z" fill="#249ac1" stroke="#fff" stroke-width=".146"/><path d="m45.7 12.2c0 1.4-1.1 2.5-2.5 2.5h-26.4c-1.4 0-2.5-1.1-2.5-2.5v-7.6c0-1.4 1.1-2.5 2.5-2.5h26.3c1.4 0 2.5 1.1 2.5 2.5v7.6z" fill="#fff" stroke="#1d1d1b" stroke-width=".146"/><g stroke="#fff"><path d="m45.7 21.3c0-.5-.4-.8-.8-.8h-29.7c-.5 0-.8.4-.8.8v35.7c0 .5.4.8.8.8h29.7c.5 0 .8-.4.8-.8z" fill="#249ac1" stroke-width=".291"/><g stroke-width=".146"><circle cx="19.4" cy="8.4" fill="#249ac1" r="3.8"/><path d="m19.6 6.3c0 .1-.1.2-.2.2s-.2-.1-.2-.2v-1.2c0-.1.1-.2.2-.2s.2.1.2.2c0 0 0 1.3 0 1.2z" fill="#1d1d1b"/><circle cx="40.6" cy="8.4" fill="#249ac1" r="3.8"/><path d="m41.2 6.4c0 .1-.1.2-.2.2s-.2-.2-.2-.3l.2-1.2c0-.1.1-.2.2-.2s.2.2.2.3z" fill="#1d1d1b"/><circle cx="30" cy="8.4" fill="#249ac1" r="3.8"/><path d="m28.5 7c.1.1.1.2 0 .3 0 .1-.2.1-.3 0l-1-.8c-.1-.1-.1-.2 0-.3s.2-.1.3 0z" fill="#1d1d1b"/></g><path d="m17 44.5h26m-26 6h26m-26-11h26m-26 16h26" fill="none" stroke-linecap="round"/></g></svg>