<svg height="60" width="60" xmlns="http://www.w3.org/2000/svg"><path d="m11.37 21.47c0 .32-.26.58-.58.58-.34 0-.6-.26-.6-.58v-6.04c0-.32.26-.57.6-.57.3 0 .56.25.56.57v6.04zm-.57-6.97h1.14v7.9h-1.14zm37.83.93c0-.32.26-.57.58-.57.34 0 .6.25.6.57v6.04c0 .32-.26.58-.6.58-.3 0-.56-.26-.56-.58v-6.04zm-.58-.93h1.16v7.9h-1.14zm0 42.98c0 1.4-1.12 2.52-2.5 2.52h-31.1c-1.38 0-2.5-1.13-2.5-2.52v-54.96c0-1.4 1.12-2.52 2.5-2.52h31.1c1.38 0 2.5 1.13 2.5 2.52z" stroke="#fff" stroke-width=".146"/><path d="m45.68 12.18c0 1.4-1.13 2.52-2.52 2.52h-26.32c-1.4 0-2.52-1.13-2.52-2.52v-7.56c0-1.4 1.13-2.52 2.52-2.52h26.32c1.4 0 2.52 1.13 2.52 2.52z" fill="#fff" stroke="#1d1d1b" stroke-width=".146"/><g stroke="#fff"><path d="m45.68 21.28c0-.47-.38-.84-.84-.84h-29.68c-.46 0-.84.37-.84.84v35.7c0 .45.38.83.84.83h29.68c.46 0 .84-.36.84-.82v-35.7z" stroke-width=".291"/><g stroke-width=".146"><circle cx="19.437" cy="8.398" r="3.779"/><path d="m19.65 6.35c0 .12-.1.2-.2.2-.13 0-.22-.08-.22-.2v-1.3c0-.1.1-.2.2-.2.12 0 .22.1.22.2z" fill="#1d1d1b"/><circle cx="40.563" cy="8.398" r="3.78"/><path d="m41.16 6.43c-.03.1-.14.2-.25.16-.1-.04-.17-.15-.15-.26l.24-1.26c.02-.1.13-.2.24-.17.1.04.2.15.17.26l-.23 1.27z" fill="#1d1d1b"/><circle cx="30" cy="8.398" r="3.78"/><path d="m28.46 7.03c.1.07.12.2.05.3-.05.1-.2.1-.27.04l-1.05-.75c-.1-.07-.12-.2-.05-.3s.2-.1.3-.04l1.04.75z" fill="#1d1d1b"/></g><path d="m17 44.5h26m-26 6h26m-26-11h26m-26 16h26" fill="none" stroke-linecap="round"/></g></svg>