<svg enable-background="new 0 0 60 60" height="60" viewBox="0 0 60 60" width="60" xmlns="http://www.w3.org/2000/svg" xmlns:xlink="http://www.w3.org/1999/xlink"><linearGradient id="a" gradientTransform="matrix(1 0 0 -1 0 60)" gradientUnits="userSpaceOnUse" x1="1.6481" x2="15.2792" y1="29.6421" y2="29.5608"><stop offset="0" stop-color="#333"/><stop offset=".2371" stop-color="#1b1b1b"/><stop offset=".4923" stop-color="#070707"/><stop offset=".6667"/></linearGradient><linearGradient id="b"><stop offset="0" stop-color="#683c11"/><stop offset="1" stop-color="#432918"/></linearGradient><linearGradient id="c" gradientTransform="matrix(.9998 -.0192 -.0192 -.9998 1.813 60.5865)" gradientUnits="userSpaceOnUse" x1="31.7393" x2="31.8198" xlink:href="#b" y1="33.5442" y2="31.6118"/><linearGradient id="d" gradientTransform="matrix(.9998 -.0192 -.0192 -.9998 1.813 60.5862)" gradientUnits="userSpaceOnUse" x1="37.4225" x2="37.503" xlink:href="#b" y1="32.6467" y2="30.7142"/><linearGradient id="e" gradientTransform="matrix(.9998 -.0192 -.0192 -.9998 1.813 60.5862)" gradientUnits="userSpaceOnUse" x1="31.1914" x2="31.272" xlink:href="#b" y1="31.0519" y2="29.1196"/><linearGradient id="f" gradientTransform="matrix(.9998 -.0192 -.0192 -.9998 1.813 60.5862)" gradientUnits="userSpaceOnUse" x1="28.7665" x2="28.8471" xlink:href="#b" y1="29.6594" y2="27.7269"/><linearGradient id="g" gradientTransform="matrix(1 0 0 -1 0 60)" gradientUnits="userSpaceOnUse" x1="7.03" x2="26.8536" y1="33.2326" y2="27.4258"><stop offset=".0121212" stop-color="#1a1a1a"/><stop offset=".9939" stop-color="#4d4d4d"/></linearGradient><linearGradient id="h" gradientTransform="matrix(1 0 0 -1 0 60)" gradientUnits="userSpaceOnUse" x1="15.2592" x2="15.6919" y1="22.4826" y2="23.8618"><stop offset="0" stop-color="#fff"/><stop offset=".2917" stop-color="#f1f1f1"/><stop offset=".8448" stop-color="#cbcbcb"/><stop offset="1" stop-color="#bfbfbf"/></linearGradient><linearGradient id="i" gradientTransform="matrix(1 0 0 -1 0 60)" gradientUnits="userSpaceOnUse" x1="13.4559" x2="13.2765" y1="23.0678" y2="22.5267"><stop offset="0" stop-color="#f2f2f2"/><stop offset=".4448" stop-color="#e4e4e4"/><stop offset="1" stop-color="#ccc"/></linearGradient><linearGradient id="j" gradientTransform="matrix(1 0 0 -1 0 60)" gradientUnits="userSpaceOnUse" x1="33.7771" x2="33.4889" y1="17.1929" y2="-.5236"><stop offset="0"/><stop offset="1" stop-color="#131313"/></linearGradient><linearGradient id="k" gradientTransform="matrix(1 0 0 -1 0 60)" gradientUnits="userSpaceOnUse" x1="10.2761" x2="32.6592" y1="34.8022" y2="28.0873"><stop offset=".0121212" stop-color="#1a1a1a"/><stop offset=".9939" stop-color="#0d0d0d"/></linearGradient><path d="m43.2 36.5 1.6.6v-.9h-1.6z" fill="#1d1d1b"/><path d="m50.7 54.9-.8-.2-1-3c1.9 0-.3-13.2-.3-13.2h3.2s-.4 14.1-1.9 13.5z"/><path d="m52.2 54.8-1.5.2-.7-3c1.4 0 0-13.2 0-13.2h2.9s-1.4 13.1 0 13.1z"/><path d="m49.7 39.1-1.2-.2s.2-1.2-1.7-1.7 2.7-.8 2.9 1.9z"/><path d="m57.4 35.6v.7s-4 .4-4.3 2.6l-3.4.2s-.9-2.3-4.9-2.1v-.6z"/><path d="m12.7 35.9h-1.1c0-.2 0-.3 0-.3h-3.2s2.2 13.2.3 13.2l1 3 .8.2 1.5-.2.7-2.9c-1.4.1 0-13 0-13z" fill="#1d1d1b"/><path d="m54.7 13.2c.5-4.7-10.3-3.7-12.7-4.2-.8-.1-1.3-.7-1.8-1.3-.3-.6-.6-1.4-.8-2.2l1.6-5.1-.3-.4h-12.5l-9.7 23.6h.4l-.5 1.2h.4l-.2.4 16.7-1c8.1-.5 17.6-.8 19.3-10.7 0-.1 0-.2 0-.3.1.1.1 0 .1 0z" fill="#444"/><path d="m19 24.4-.2-.1 9.7-23.8.2.3z" fill="#444"/><path d="m18.8 24-.3-.1 9.8-23.8.1.3z" fill="#444"/><path d="m18.9 24.2-.3-.1 9.8-23.8.1.3z" fill="#444"/><path d="m28.4.3.2.3s-.1 0-.2-.1 0-.1 0-.2z" fill="#444"/><path d="m15.1 25.6c-4.2.3-7.4.6-7.4.6l-1.1.1v1.7s1.4 3.6-1.4 4.1c-2.1.3-2.8.5-2.9 1.9v1.2l12.8-.9z" fill="url(#a)"/><path d="m2.4 33.9c0-1.4.9-1.6 2.9-1.9 2.9-.5 1.4-4.3 1.4-4.3v-1.5l-.4-.1v1.5s1.5 3.7-1.5 4.2c-2 .3-2.8.6-2.8 1.9v1.3l.4.2c0-.3 0-1 0-1.3z" fill="#b2b2b2"/><path d="m2.4 33.9c0-1.4.8-1.6 2.9-2 2.9-.5 1.4-4.2 1.4-4.2v-1.5l-.4-.1v1.5s1.5 3.7-1.5 4.2c-2 .3-2.8.6-2.8 1.9v1.3l.4.2c0-.3 0-1 0-1.3z" fill="#666"/><path d="m27.3 31.5 14.2-1s3.8-.1 4.3-1c.6-.8 1.7-1.5 3.9-1.8s9.4-1.2 7.1-2.3c-1.8-.9-7.5-1.5-10.6-1.6s-12.7.4-14.2.6c-1.4.2-16.3 1.1-16.3 1.1l-8.6.7z" fill="#432918"/><path d="m56.1 26.5c1.1-.3 1.7-.8.8-1.2-1.8-.9-7.5-1.5-10.6-1.5-3.1-.1-12.7.5-14.2.6-1.4.1-24.9 1.8-24.9 1.8l4.2 1.2s5.1 1.4 6.3 1.3c4.1-.2 13.2-.8 14.3-.9 1.4-.2 11.1-.5 14.2-.4 1 0 2.3.1 3.7.2 1.8-.2 5.4-.8 6.2-1.1z" fill="#281d0f"/><path d="m21.5 41.1 9.9-.8-24-6.3s-4.1.3-4.3.3c-.2.4-.7.3-.7.3z" fill="#383838"/><path d="m48.4 26.5c-.4 0-1.9-.2-3-1.1-.9.1-27.9 1.9-27.9 1.9l.1 1.9 30.8-2.1z" fill="#936037"/><path d="m48.4 26.7c-.4 0-1.9-.2-3-1.1-.9.1-27.9 1.9-27.9 1.9l.1 1.9 30.8-2.1z" fill="url(#c)"/><path d="m54.1 27.3c-.4 0-1.9-.2-3-1.1-.9.1-27.9 1.9-27.9 1.9l.1 1.9 30.8-2.1z" fill="#936037"/><path d="m54.1 27.5c-.4 0-1.9-.2-3-1.1-.9.1-27.9 1.9-27.9 1.9l.1 1.9 30.8-2.1z" fill="url(#d)"/><path d="m47.9 29c-.4 0-1.9-.2-3-1.1-.9.1-27.9 2-27.9 2l.1 1.9 30.8-2.1z" fill="#936037"/><path d="m47.9 29.2c-.4 0-1.9-.2-3-1.1-.9 0-27.9 1.9-27.9 1.9l.1 1.9 30.8-2.1z" fill="url(#e)"/><path d="m45.5 30.4c-.4 0-1.9-.2-3-1.1-.9.1-27.9 1.9-27.9 1.9l.1 1.9 30.8-2.1z" fill="#936037"/><path d="m45.5 30.6c-.4 0-1.9-.2-3-1.1-.9.1-27.9 1.9-27.9 1.9l.1 1.9 30.8-2.1z" fill="url(#f)"/><path d="m27.3 31.5-.2 8.9-19.7-6.3v-7.9z" fill="#b2b2b2"/><path d="m27.4 31.5-.3 8.9-19.7-6.3v-7.9z" fill="#063e89"/><path d="m26.7 32.4v.7l-20-5.3v-.7z" fill="#b2b2b2"/><path d="m26.7 32.4v.7l-20-5.3v-.7l9.7 2.4z" fill="#424242"/><path d="m26.7 32.4v-.3l-19.3-5.1-.7.1z" fill="url(#g)"/><path d="m23.1 40.1 4.1-.4-19.8-6.2-3.6.3z" fill="url(#h)"/><path d="m22.9 40.7-19.1-6.4v-.5l19.3 6.3z" fill="url(#i)"/><g fill="#999"><path d="m7.7 33.6-3.5.3v.6-.6z"/><path d="m8.3 33.8-3.6.3v.5l.1.1v-.6z"/><path d="m8.8 34-3.5.3v.5-.5l3.6-.3z"/><path d="m9.4 34.2-3.6.3v.5h.1v-.5l3.6-.3z"/><path d="m10 34.3-3.6.3v.6-.5l3.6-.3z"/><path d="m10.6 34.5-3.7.3v.6h.1v-.6z"/><path d="m11.1 34.7-3.6.3v.6-.6l3.7-.3z"/><path d="m11.7 34.9-3.7.3v.5l.1.1v-.6l3.7-.3z"/><path d="m12.3 35-3.7.3v.6-.5l3.7-.3z"/><path d="m12.8 35.2-3.7.3v.6h.1v-.6l3.7-.3z"/><path d="m13.4 35.4-3.7.3v.6-.6l3.8-.3z"/><path d="m14 35.6-3.8.3v.6h.1v-.6z"/><path d="m14.5 35.7-3.7.4v.6-.6l3.8-.3z"/><path d="m15.1 35.9-3.7.3v.6.1-.6l3.8-.4z"/><path d="m15.7 36.1-3.8.3v.6-.6z"/><path d="m16.3 36.3-3.8.3v.6-.6z"/><path d="m16.8 36.5-3.8.3v.6-.6l3.9-.3z"/><path d="m17.4 36.6-3.8.4v.6-.6l3.9-.3z"/><path d="m18 36.8-3.9.3v.7-.7z"/><path d="m18.5 37-3.8.3v.6.1-.7l3.9-.3z"/><path d="m19.1 37.2-3.9.3v.6-.6l4-.3z"/><path d="m19.7 37.3-3.9.4v.6-.6l3.9-.3z"/><path d="m20.2 37.5-3.9.3v.7-.6l4-.4z"/><path d="m20.8 37.7-3.9.3v.7-.7l4-.3z"/><path d="m21.4 37.9-4 .3v.7-.7z"/><path d="m22 38.1-4 .3v.6-.6z"/><path d="m22.5 38.2-4 .4v.6-.6l4.1-.4z"/><path d="m23.1 38.4-4 .3v.7-.6z"/><path d="m23.7 38.6-4.1.3v.7-.7z"/><path d="m24.2 38.8-4 .3v.7-.7l4.1-.3z"/><path d="m24.8 38.9-4.1.4v.7-.7l4.2-.3z"/><path d="m25.4 39.1-4.1.4v.6-.6z"/></g><path d="m8.3 33.6-1.8.4-.1-.1s0-.2.3-.2c.2 0 1.5-.1 1.6-.1z"/><path d="m8.3 33.8-1.8.1s0-.2.2-.2c.1 0 1.1-.1 1.6-.1z"/><path d="m8.3 33.8-1.8.1s0-.2.2-.2c.1 0 1.1-.1 1.6-.1z"/><path d="m8.5 33.7-1.9.3h-.1s0-.2.3-.3c.2 0 1.5-.1 1.5-.1z"/><path d="m8.5 33.9-1.9.1s0-.2.2-.2c.1 0 1.1-.1 1.6-.1z"/><path d="m8.5 33.9-1.9.1s0-.2.2-.2c.1 0 1.1-.1 1.6-.1z"/><path d="m9.3 33.9-1.8.4-.1-.1s0-.2.3-.2c.2 0 1.4-.1 1.4-.1z"/><path d="m9.3 34.1-1.8.1s0-.2.2-.2c.1 0 1-.1 1.5-.1z"/><path d="m9.3 34.1-1.8.1s0-.2.2-.2c.1 0 1-.1 1.5-.1z"/><path d="m9.5 34-1.8.4-.1-.1s0-.2.3-.2c.2 0 1.5-.1 1.5-.1z"/><path d="m9.5 34.2-1.8.1s0-.2.2-.2 1.1-.1 1.6-.1z"/><path d="m9.5 34.2-1.8.1s0-.2.2-.2 1.1-.1 1.6-.1z"/><path d="m9.7 34-1.9.4-.1-.1s0-.2.3-.3c.2 0 1.5-.1 1.5-.1z"/><path d="m9.7 34.3-1.9.2s0-.2.2-.2c.1 0 1.1-.1 1.6-.1z"/><path d="m9.7 34.3-1.9.2s0-.2.2-.2c.1 0 1.1-.1 1.6-.1z"/><path d="m10.6 34.3-1.8.4-.1-.1s0-.2.3-.2c.2 0 1.5-.1 1.5-.1z"/><path d="m10.6 34.5-1.8.1s0-.2.2-.2c.1 0 1.1-.1 1.6-.1z"/><path d="m10.6 34.5-1.8.1s0-.2.2-.2c.1 0 1.1-.1 1.6-.1z"/><path d="m10.8 34.4-1.9.4-.1-.1s0-.2.3-.3c.2 0 1.5-.1 1.5-.1z"/><path d="m10.8 34.6-1.9.2s0-.2.2-.2c.1 0 1.1-.1 1.7 0z"/><path d="m10.8 34.6-1.9.2s0-.2.2-.2c.1 0 1.1-.1 1.7 0z"/><path d="m11.5 34.6-1.7.4-.1-.1s0-.2.3-.2c.2 0 1.4-.1 1.4-.1z"/><path d="m11.5 34.8-1.7.2s0-.2.2-.2c.1 0 1-.1 1.5 0z"/><path d="m11.5 34.8-1.7.2s0-.2.2-.2c.1 0 1-.1 1.5 0z"/><path d="m11.7 34.7-1.8.3h-.1s0-.2.3-.2c.2 0 1.5-.1 1.6-.1z"/><path d="m11.8 34.9-1.9.1s0-.2.2-.2c.1 0 1.1-.1 1.6-.1z"/><path d="m11.8 34.9-1.9.1s0-.2.2-.2c.1 0 1.1-.1 1.6-.1z"/><path d="m12 34.7-1.9.4h-.1s0-.2.3-.3c.2 0 1.5-.1 1.5-.1z"/><path d="m12 35-1.9.2s0-.2.2-.2c.1 0 1.1-.1 1.7 0z"/><path d="m12 35-1.9.2s0-.2.2-.2c.1 0 1.1-.1 1.7 0z"/><path d="m12.8 35-1.8.4-.1-.1s0-.2.3-.2c.2 0 1.5-.1 1.5-.1z"/><path d="m12.8 35.2-1.8.2s0-.2.2-.2c.1 0 1.1-.1 1.6 0z"/><path d="m12.8 35.2-1.8.2s0-.2.2-.2c.1 0 1.1-.1 1.6 0z"/><path d="m13.1 35.1-1.9.4-.2-.1s0-.2.3-.3c.2 0 1.5-.1 1.5-.1z"/><path d="m13.1 35.3-1.9.2s0-.2.2-.2c.1 0 1.1-.1 1.7 0z"/><path d="m13.1 35.3-1.9.2s0-.2.2-.2c.1 0 1.1-.1 1.7 0z"/><path d="m13.9 35.3-1.8.4-.1-.1s0-.2.3-.2c.2 0 1.4-.1 1.4-.1z"/><path d="m13.9 35.5-1.8.1s0-.2.2-.2c.1 0 1-.1 1.5-.1z"/><path d="m13.9 35.5-1.8.1s0-.2.2-.2c.1 0 1-.1 1.5-.1z"/><path d="m14.1 35.4-1.8.4-.1-.1s0-.2.3-.2c.2 0 1.5-.1 1.5-.1z"/><path d="m14.1 35.6-1.8.1s0-.2.2-.2c.1 0 1.1-.1 1.6-.1z"/><path d="m14.1 35.6-1.8.1s0-.2.2-.2c.1 0 1.1-.1 1.6-.1z"/><path d="m14.3 35.5-1.9.4-.1-.1s0-.2.3-.3c.2 0 1.5-.1 1.5-.1z"/><path d="m14.3 35.7-1.9.2s0-.2.2-.2c.1 0 1.1-.1 1.7 0z"/><path d="m14.3 35.7-1.9.2s0-.2.2-.2c.1 0 1.1-.1 1.7 0z"/><path d="m15.1 35.7-1.8.4-.1-.1s0-.2.3-.2c.2 0 1.5-.1 1.5-.1z"/><path d="m15.1 35.9-1.8.1s0-.2.2-.2c.1 0 1.1-.1 1.6-.1z"/><path d="m15.1 35.9-1.8.1s0-.2.2-.2c.1 0 1.1-.1 1.6-.1z"/><path d="m15.4 35.8-1.9.4-.1-.1s0-.2.3-.3c.2 0 1.5-.1 1.5-.1z"/><path d="m15.4 36-1.9.2s0-.2.2-.2c.1 0 1.1-.1 1.7 0z"/><path d="m15.4 36-1.9.2s0-.2.2-.2c.1 0 1.1-.1 1.7 0z"/><path d="m16.1 36.1-1.8.4-.1-.1s0-.2.3-.2c.2 0 1.4-.1 1.4-.1z"/><path d="m16.1 36.3-1.8.1s0-.2.2-.2c.1 0 1-.1 1.5-.1z"/><path d="m16.1 36.3-1.8.1s0-.2.2-.2c.1 0 1-.1 1.5-.1z"/><path d="m16.3 36.1-1.8.4-.1-.1s0-.2.3-.2c.2 0 1.5-.1 1.5-.1z"/><path d="m16.3 36.3-1.8.1s0-.2.2-.2c.1 0 1.1-.1 1.6-.1z"/><path d="m16.3 36.3-1.8.1s0-.2.2-.2c.1 0 1.1-.1 1.6-.1z"/><path d="m16.6 36.2-1.9.4-.1-.1s0-.2.3-.3c.2 0 1.5-.1 1.5-.1z"/><path d="m16.6 36.4-1.9.2s0-.2.2-.2c.1 0 1.1-.1 1.6-.1z"/><path d="m16.6 36.4-1.9.2s0-.2.2-.2c.1 0 1.1-.1 1.6-.1z"/><path d="m17.4 36.4-1.8.4-.1-.1s0-.2.3-.2c.2 0 1.5-.1 1.5-.1z"/><path d="m17.4 36.6-1.8.1s0-.2.2-.2c.1 0 1.1-.1 1.6-.1z"/><path d="m17.4 36.6-1.8.1s0-.2.2-.2c.1 0 1.1-.1 1.6-.1z"/><path d="m17.6 36.5-1.9.4-.1-.1s0-.2.3-.3c.2 0 1.5-.1 1.5-.1z"/><path d="m17.6 36.7-1.9.2s0-.2.2-.2c.1 0 1.1-.1 1.6-.1z"/><path d="m17.6 36.7-1.9.2s0-.2.2-.2c.1 0 1.1-.1 1.6-.1z"/><path d="m18.4 36.8-1.8.4-.1-.1s0-.2.3-.2c.2 0 1.4-.1 1.4-.1z"/><path d="m18.4 37-1.8.1s0-.2.2-.2c.1 0 1-.1 1.5-.1z"/><path d="m18.4 37-1.8.1s0-.2.2-.2c.1 0 1-.1 1.5-.1z"/><path d="m18.6 36.8-1.8.4-.1-.1s0-.2.3-.2c.2 0 1.5-.1 1.5-.1z"/><path d="m18.6 37-1.8.1s0-.2.2-.2c.1 0 1.1-.1 1.6-.1z"/><path d="m18.6 37-1.8.1s0-.2.2-.2c.1 0 1.1-.1 1.6-.1z"/><path d="m18.8 36.9-1.8.3-.1-.1s0-.2.3-.3c.2 0 1.5-.1 1.5-.1z"/><path d="m18.8 37.1-1.8.1s0-.2.2-.2c.1 0 1.1-.1 1.6-.1z"/><path d="m18.8 37.1-1.8.1s0-.2.2-.2c.1 0 1.1-.1 1.6-.1z"/><path d="m19.7 37.1-1.8.4-.1-.1s0-.2.3-.2c.2 0 1.5-.1 1.5-.1z"/><path d="m19.7 37.3-1.8.1s0-.2.2-.2c.1 0 1.1-.1 1.6-.1z"/><path d="m19.7 37.3-1.8.1s0-.2.2-.2c.1 0 1.1-.1 1.6-.1z"/><path d="m19.9 37.2-1.9.4-.1-.1s0-.2.3-.3c.2 0 1.5-.1 1.5-.1z"/><path d="m19.9 37.4-1.9.2s0-.2.2-.2c.1 0 1.1-.1 1.6-.1z"/><path d="m19.9 37.4-1.9.2s0-.2.2-.2c.1 0 1.1-.1 1.6-.1z"/><path d="m20.7 37.5-1.8.4-.1-.1s0-.2.3-.2c.2 0 1.4-.1 1.4-.1z"/><path d="m20.7 37.7-1.8.1s0-.2.2-.2c.1 0 1-.1 1.5-.1z"/><path d="m20.7 37.7-1.8.1s0-.2.2-.2c.1 0 1-.1 1.5-.1z"/><path d="m20.9 37.5-1.8.4-.1-.1s0-.2.3-.2c.2 0 1.5-.1 1.5-.1z"/><path d="m20.9 37.7-1.8.1s0-.2.2-.2c.1 0 1.1-.1 1.6-.1z"/><path d="m20.9 37.7-1.8.1s0-.2.2-.2c.1 0 1.1-.1 1.6-.1z"/><path d="m21.1 37.6-1.8.4-.1-.1s0-.2.3-.3c.2 0 1.5-.1 1.5-.1z"/><path d="m21.1 37.8-1.8.2s0-.2.2-.2c.1 0 1.1-.1 1.6 0z"/><path d="m21.1 37.8-1.8.2s0-.2.2-.2c.1 0 1.1-.1 1.6 0z"/><path d="m23.1 38.2-1.8.4-.1-.1s0-.2.3-.2c.2 0 1.4-.1 1.4-.1z"/><path d="m23.1 38.4-1.8.1s0-.2.2-.2c.1 0 1-.1 1.5-.1z"/><path d="m23.1 38.4-1.8.1s0-.2.2-.2c.1 0 1-.1 1.5-.1z"/><path d="m23.3 38.3-1.8.4-.1-.1s0-.2.3-.2c.2 0 1.5-.1 1.5-.1z"/><path d="m23.3 38.5-1.8.1s0-.2.2-.2c.1 0 1.1-.1 1.6-.1z"/><path d="m23.3 38.5-1.8.1s0-.2.2-.2c.1 0 1.1-.1 1.6-.1z"/><path d="m23.5 38.3-1.9.4-.1-.1s0-.2.3-.3c.2 0 1.5-.1 1.5-.1z"/><path d="m23.5 38.5-1.9.2s0-.2.2-.2c.1 0 1.1-.1 1.7 0z"/><path d="m23.5 38.5-1.9.2s0-.2.2-.2c.1 0 1.1-.1 1.7 0z"/><path d="m22 37.8-1.8.4h-.2s0-.2.3-.2c.2 0 1.5-.1 1.5-.1z"/><path d="m22 38.1-1.8.1s0-.2.2-.2c.1 0 1.1-.1 1.6-.1z"/><path d="m22 38.1-1.8.1s0-.2.2-.2c.1 0 1.1-.1 1.6-.1z"/><path d="m22.2 37.9-1.9.4-.1-.1s0-.2.3-.3c.2 0 1.5-.1 1.5-.1z"/><path d="m22.2 38.1-1.9.2s0-.2.2-.2c.1 0 1.1-.1 1.7 0z"/><path d="m22.2 38.1-1.9.2s0-.2.2-.2c.1 0 1.1-.1 1.7 0z"/><path d="m25.9 41.6 1.6.5v-.9h-1.6z" fill="#1d1d1b"/><path d="m27.5 41.5v.6c.8 0 1.5 0 2 .1 1.8.5 1.7 1.7 1.7 1.7h.2c.3 2.2 1.9 12.8.2 12.8l1 3 .8.2 1.5-.2.7-2.9c-1.4 0-.2-11.5 0-12.9h.2c.4-2.3 4.3-2.6 4.3-2.6v-.7z" fill="url(#j)"/><path d="m27.6 31.5-.6.1v1.8s1.5 4.5-1.7 5.1c-2.3.3-3.2.5-3.3 2v1.4l5.6-.4z" fill="#b2b2b2"/><path d="m58 25.9c-.3-.1-.2-.2-.6-.2.4.9-5.7 1.7-7.6 2-2.2.3-3.2.8-3.8 1.6s-4.5 1.1-4.5 1.1-12.4.8-12.4.9l-1.2.1-1 .1v1.8s1.5 4.6-1.7 5.1c-2.3.4-3.1.6-3.2 2 0 .5-.1 1.4-.1 1.4l19.8-1.4s3.6-.1 4.2-1 2.2-1.6 4.6-2c2.3-.3 5.5-.9 5.5-.9s1.8-.3 1.9-.9c.1 0 .2-9.1.1-9.7z" fill="#063e89"/><path d="m27.5 31.5 7.9-.6-3.9-.8s-7.8-.2-12.4-1.6c-4.5-1.4-3.8-2.5-3.8-2.5l-2.1-.3-5.7.5z" fill="url(#k)"/><path d="m57.4 25.4c-1.9-1-7.2-1.5-10.5-1.6s-13.4.5-15 .6c-1.5.1-25.6 1.9-25.6 1.9l.4.1s23.9-1.7 25.4-1.9c1.5-.1 11.1-.7 14.2-.6s8.6.6 10.4 1.5c2.5 1.1-4.7 1.8-6.9 2.1s-3.5 1.1-4.1 1.9-4.2.9-4.2.9l-15.1 1.2.6.2 14.9-1s3.6-.1 4.2-1 2.2-1.6 4.6-2c2.3-.3 5.5-.9 5.5-.9s3.1-.5 1.2-1.4z" fill="#999"/><path d="m57.4 25.3c-1.9-1-7.2-1.5-10.5-1.6s-13.4.5-15 .6c-1.5.1-25.6 1.9-25.6 1.9l.4.1s23.9-1.7 25.4-1.9c1.5-.1 11.1-.7 14.2-.6s8.6.6 10.4 1.5c2.5 1.1-4.7 1.8-6.9 2.1s-3.5 1.1-4.1 1.9-4.2.9-4.2.9l-15.1 1.2.6.2 14.9-1s3.6-.1 4.2-1 2.2-1.6 4.6-2c2.3-.3 5.5-.9 5.5-.9s3.1-.4 1.2-1.4z"/><path d="m28.8 8.4c.1.3 0 .7-.4.8-.3.1-.7 0-.8-.4-.1-.3 0-.7.4-.8.3-.1.7.1.8.4z" fill="#ead300"/><path d="m28.7 8.7c.1.2 0 .5-.3.6-.2.1-.5 0-.6-.3-.1-.2 0-.5.3-.6s.5 0 .6.3z" fill="#ead300"/><path d="m38.9 24-14.5.9v.3l14.5-1z" fill="#9e8f02"/><path d="m38.9 23.6-14.3.9v.3l14.3-.9z" fill="#9e8f02"/><path d="m38.9 23.8-14.4 1v.2l14.4-.9z" fill="#9e8f02"/><path d="m36.2 30.7-1.7-4.5c-.1-1.1.1-1.2.7-.3l1.8 4.7h.6l-1.8-4.6s-.4-.8-.5-1c-1.6-3-6.8-16.1-6.8-16.1-.1-.1.1-.5-.4-.3-.1 0-.1.3-.1.5 0 0 5.1 13.5 5.7 16.6 0 .2.2.9.2.9l1.6 4.1z" fill="#070707"/><path d="m36.3 30.7-1.7-4.5c-.1-1.1.1-1.2.7-.3l1.8 4.7h.6l-1.8-4.6s-.4-.8-.5-1c-1.6-3-6.8-16.1-6.8-16.1-.1-.1-.3-.4-.4-.3-.3.1-.2.4-.1.5 0 0 5.1 13.5 5.7 16.6 0 .2.2.9.2.9l1.6 4.2z" fill="#070707"/><path d="m36.4 30.7-1.7-4.5c-.1-1.1.1-1.2.7-.3l1.8 4.7h.6l-1.8-4.6s-.4-.8-.5-1c-1.6-3-6.8-16.1-6.8-16.1-.1-.1-.3-.4-.4-.3-.3 0-.2.3-.1.4 0 0 5.1 13.5 5.7 16.6 0 .2.2.9.2.9l1.6 4.2z" fill="#070707"/><path d="m22 40.5c0-1.6.9-1.7 3.2-2.1 3.2-.5 1.7-5.1 1.7-5.1v-1.7l-.6-.2v1.6s1.5 4.5-1.7 5.1c-2.3.4-3.2.5-3.2 2.1v1.5l.6.2c0-.3 0-1.1 0-1.4z" fill="#666"/><path d="m21.5 41.7-19.1-6.5v-.5l19.1 6.4z" fill="#c6c6c6"/><path d="m21.5 41.7-19.1-6.5v-.5l9.5 3.3 9.6 3.1z" fill="#1d1d1b"/><path d="m13.4 27.3c1.2-1.7 1.5-2.9 1.4-4.6s1-1.4 1.6-1c1 .7 1.8-1 4.2-.4s2.4 2.1 3.6 1.8c.9-.2 2 .2 1.4 1.2s-2.3 3.8-1.6 5.5c0 0 0 .1-.2.1-1.5-.3-9.8-2.5-10.4-2.6z" fill="#888"/><path d="m13.2 27.4c1.2-1.7 1.5-2.9 1.4-4.6s1.1-1.5 1.7-1.1c1 .7 1.7-.9 4.1-.3s2.4 2 3.6 1.7c.9-.2 2 .1 1.4 1.1s-2.3 3.8-1.6 5.6c0 .1-10-2.2-10.6-2.4z" fill="#888"/><path d="m20.4 21.4c2.4.6 2.4 2 3.6 1.7-1.2.4-1.2-1.2-3.6-1.7-2.2-.6-3 .8-3.9.5.9.3 1.7-1 3.9-.5z" fill="#888"/></svg>