<svg enable-background="new 0 0 60 60" height="60" viewBox="0 0 60 60" width="60" xmlns="http://www.w3.org/2000/svg"><path d="m37.8 19.2c-12.7-22.8-37.8-18.3-37.8-18.3v57.6c0 .5.4 1 .9 1h58.1c.5 0 1-.4 1-1v-24.5s-14.2-.5-22.2-14.8zm-32.4 36.9c0 .2-.2.5-.5.5h-1.5c-.2 0-.5-.2-.5-.5v-8.7h1.5v4.7c0 .3.2.5.5.5h.4v3.5zm3 0c0 .2-.2.5-.5.5h-1.5c-.2 0-.5-.2-.5-.5v-3.5h.4c.2 0 .5-.2.5-.5v-4.7h.6v4.7c0 .3.2.5.4.5h.4zm2.5.5h-1.4c-.3 0-.5-.2-.5-.5v-3.5h.4c.3 0 .5-.2.5-.5v-4.7h1.5v8.7c0 .2-.2.4-.5.5zm3.6-.5c0 .2-.2.5-.5.5h-1.5c-.2 0-.5-.2-.5-.5v-8.7h1.5v4.7c0 .3.2.5.5.5h.4zm3 0c0 .2-.2.5-.5.5h-1.5c-.2 0-.5-.2-.5-.5v-3.5h.4c.2 0 .4-.2.4-.5v-4.7h.6v4.7c0 .3.2.5.5.5h.4zm3 0c0 .2-.2.5-.5.5h-1.5c-.2 0-.5-.2-.5-.5v-3.5h.4c.3 0 .5-.2.5-.5v-4.7h.6v4.7c0 .3.2.5.5.5h.4zm2.5.5h-1.5c-.2 0-.5-.2-.5-.5v-3.5h.4c.3 0 .5-.2.5-.5v-4.7h1.5v8.7c.1.2-.1.4-.4.5zm3.6-.5c0 .2-.2.5-.5.5h-1.5c-.2 0-.4-.2-.4-.5v-8.7h1.5v4.7c0 .3.2.5.5.5h.4zm3 0c0 .2-.2.5-.5.5h-1.5c-.2 0-.5-.2-.5-.5v-3.5h.4c.2 0 .5-.2.5-.5v-4.7h.6v4.7c0 .3.2.5.5.5h.4zm3 0c0 .2-.2.5-.5.5h-1.5c-.2 0-.5-.2-.5-.5v-3.5h.4c.2 0 .5-.2.5-.5v-4.7h.6v4.7c0 .3.2.5.5.5h.4v3.5zm2.5.5h-1.5c-.2 0-.5-.2-.5-.5v-3.5h.4c.3 0 .5-.2.5-.5v-4.7h1.5v8.7c.1.2-.1.4-.4.5zm3.6-.5c0 .2-.2.5-.5.5h-1.5c-.2 0-.5-.2-.5-.5v-8.7h1.5v4.7c0 .3.2.5.5.5h.5zm3 0c0 .2-.2.5-.5.5h-1.5c-.3 0-.5-.2-.5-.5v-3.5h.4c.2 0 .4-.2.4-.5v-4.7h.6v4.7c0 .3.2.5.5.5h.4zm3 0c0 .2-.2.5-.5.5h-1.5c-.2 0-.5-.2-.5-.5v-3.5h.4c.2 0 .5-.2.5-.5v-4.7h.6v4.7c0 .3.2.5.5.5h.4zm2.5.5h-1.5c-.2 0-.5-.2-.5-.5v-3.5h.4c.2 0 .5-.2.5-.5v-4.7h1.5v8.7c.1.2-.1.4-.4.5zm3.6-.5c0 .2-.2.5-.5.5h-1.5c-.2 0-.5-.2-.5-.5v-8.7h1.5v4.7c0 .3.2.5.5.5h.5zm3 0c0 .2-.2.5-.5.5h-1.5c-.2 0-.5-.2-.5-.5v-3.5h.4c.2 0 .5-.2.5-.5v-4.7h.6v4.7c0 .3.2.5.5.5h.5zm3 0c0 .2-.2.5-.5.5h-1.5c-.3 0-.5-.2-.5-.5v-3.5h.4c.3 0 .5-.2.5-.5v-4.7h1.5z" fill="#af8424"/></svg>