<svg xmlns="http://www.w3.org/2000/svg" width="60" height="60"><path d="M20.5.86C20.4.82 9.7-2.3 5.55 15.16c0 0-2.47 10.4 2.7 16.76 0 0 2.38 2.43 1.52 6.02 0 0-2.74 10.14-4.82 14.77 0 0-2.42 5.56 1.67 6.53 4.34 1.03 4.44-5.06 4.44-5.06.22-5.07 2.35-15.35 2.35-15.35.85-3.6 4.06-4.7 4.06-4.7 7.48-3.32 9.97-13.73 9.97-13.73C31.57 3 20.63.9 20.53.9zM14.28 3.1l10.97 2.6c.63 1 1.13 2.17 1.5 3.45L11.38 5.5c.9-.98 1.87-1.8 2.9-2.4zM10.13 7l3.26 4.52 5.23-2.72 3.46 4.8 5.05-2.63c.08.5.15 1.04.2 1.58l-.3-.43-5.26 2.72-3.47-4.8-5.25 2.73L9.62 8l-.27.15c.24-.4.5-.77.77-1.13zm9.45 24.45L7.7 28.65c-.55-1-1-2.16-1.3-3.4L22.28 29c-.84.97-1.75 1.8-2.7 2.45zm5.54-6.85l-.78-1.08-5.25 2.72-3.48-4.8-5.25 2.73-3.46-4.8-1.05.54c0-.36.03-.74.06-1.12l1.3-.67 3.47 4.8 5.25-2.7L19.4 25l5.24-2.72.93 1.3c-.14.35-.3.7-.46 1.04zM6.24 16.28c.07-.4.15-.8.25-1.23.13-.58.3-1.14.46-1.7l20.16 4.8c-.1.58-.2 1.16-.35 1.73-.1.42-.2.82-.33 1.22l-20.2-4.82zM44.54 0c-.13 0-11.26-.57-11.26 17.4 0 0 0 10.68 6.52 15.66 0 0 2.87 1.82 2.86 5.5 0 0-.3 10.5-1.27 15.5 0 0-1.08 5.94 3.12 5.94 4.45 0 3.13-5.95 3.13-5.95-.95-5-1.27-15.48-1.27-15.48 0-3.7 2.85-5.5 2.85-5.5 6.52-5 6.52-15.7 6.52-15.7C55.77-.5 44.65 0 44.53 0zm-5.57 3.62h11.3c.83.83 1.6 1.85 2.24 3H36.74c.65-1.15 1.4-2.17 2.25-3zM35.85 8.4l4.23 3.64 4.47-3.86 4.48 3.87 4.3-3.73c.22.48.4.98.57 1.5l-.4-.34-4.47 3.86-4.48-3.86-4.47 3.86-4.48-3.86-.23.2c.15-.44.3-.87.48-1.28zM50.72 30h-12.2c-.78-.86-1.47-1.87-2.07-3h16.32c-.6 1.13-1.28 2.14-2.05 3zm3.8-7.95l-1-.87-4.5 3.86-4.47-3.86-4.47 3.86-4.48-3.86-.9.78c-.08-.36-.15-.74-.2-1.12l1.1-.95 4.48 3.84 4.47-3.86 4.48 3.85 4.48-3.86 1.23 1.03c-.06.38-.13.75-.2 1.12zM34.2 18.3c0-.4-.03-.82-.03-1.25 0-.6 0-1.17.05-1.75h20.72c.04.58.07 1.16.07 1.75 0 .43 0 .85-.03 1.26H34.23z"/></svg>