<svg enable-background="new 0 0 60 60" height="60" viewBox="0 0 60 60" width="60" xmlns="http://www.w3.org/2000/svg"><path d="m20.5.9c-.1 0-10.8-3.2-14.9 14.3 0 0-2.5 10.4 2.7 16.8 0 0 2.4 2.4 1.5 6 0 0-2.7 10.1-4.8 14.8 0 0-2.4 5.6 1.7 6.5 4.3 1 4.4-5.1 4.4-5.1.2-5.1 2.3-15.4 2.3-15.4.9-3.6 4.1-4.7 4.1-4.7 7.5-3.3 10-13.7 10-13.7 4.1-17.4-6.9-19.5-7-19.5zm-6.2 2.2 11 2.6c.6 1 1.1 2.2 1.5 3.4l-15.4-3.6c.9-1 1.8-1.8 2.9-2.4zm-4.2 3.9 3.3 4.5 5.2-2.7 3.5 4.8 5-2.6c.1.5.1 1 .2 1.6l-.3-.5-5.3 2.7-3.4-4.8-5.2 2.7-3.5-4.7-.3.1c.3-.4.5-.7.8-1.1zm9.5 24.5-11.9-2.9c-.6-1-1-2.2-1.3-3.4l15.9 3.8c-.9 1-1.8 1.8-2.7 2.5zm5.5-6.9-.8-1.1-5.2 2.7-3.5-4.8-5.2 2.7-3.5-4.8-1.1.5c0-.4 0-.7.1-1.1l1.3-.7 3.5 4.8 5.2-2.7 3.5 4.8 5.2-2.7.9 1.3c-.1.4-.2.8-.4 1.1zm-18.9-8.3c.1-.4.2-.8.2-1.2.1-.6.3-1.1.5-1.7l20.2 4.8c-.1.6-.2 1.2-.4 1.7-.1.4-.2.8-.3 1.2zm38.3-16.3c-.1 0-11.3-.6-11.3 17.4 0 0 0 10.7 6.5 15.7 0 0 2.9 1.8 2.9 5.5 0 0-.3 10.5-1.3 15.5 0 0-1.1 5.9 3.1 5.9 4.5 0 3.1-6 3.1-6-1-5-1.3-15.5-1.3-15.5 0-3.7 2.8-5.5 2.8-5.5 6.5-5 6.5-15.7 6.5-15.7.3-17.8-10.8-17.3-11-17.3zm-5.5 3.6h11.3c.8.8 1.6 1.8 2.2 3h-15.8c.7-1.1 1.4-2.2 2.3-3zm-3.2 4.8 4.2 3.6 4.5-3.9 4.5 3.9 4.3-3.7c.2.5.4 1 .6 1.5l-.4-.3-4.5 3.8-4.5-3.9-4.5 3.9-4.5-3.9-.2.2c.2-.4.4-.8.5-1.2zm14.9 21.6h-12.2c-.8-.9-1.5-1.9-2.1-3h16.3c-.5 1.1-1.2 2.1-2 3zm3.8-8-1-.9-4.5 3.9-4.5-3.9-4.4 3.9-4.5-3.9-.9.9c-.1-.4-.2-.7-.2-1.1l1.1-1 4.5 3.8 4.5-3.9 4.5 3.9 4.5-3.9 1.2 1c-.1.5-.2.8-.3 1.2zm-20.3-3.7c0-.4 0-.8 0-1.2 0-.6 0-1.2 0-1.8h20.7c0 .6.1 1.2.1 1.8v1.3z" fill="#af8424"/></svg>