<svg enable-background="new 0 0 60 60" height="60" viewBox="0 0 60 60" width="60" xmlns="http://www.w3.org/2000/svg"><path d="m26.9 31.5c-1.8 1.5-3.5.4-4.4-.2-2.1-1.2-4.6-1-5.9 1.9-1.3 3-2.1 4.9-3.7 6.5-2.7 2.6-7.5 4.1-10 5.2-3.8 1.5-3.7 4.4-.7 6.9 4 3.3 11 5.9 14.6 7.2 2 .7 3.2-.9 3.8-2.3.9-2.1 1.8-6.4 6.1-9s8-4 9.4-5.9c1.6-2.2-.2-4.5-2.4-4-2.9.8-4 .2-4.5-1-.6-1.3.1-2.6.9-3.8s-3.2-1.6-3.2-1.5z" fill="#781d77"/><path d="m17.1 49.4 11.3-12.1s.8 1.7 3.4 1.3c2.1-.3 3.2-.4 3.7.6.5.9 0 2.2-2.1 3.4-1.9 1.1-4.3 2.5-6.8 3.7-2.3 1.2-7.4 3.9-9.5 3.1zm-3.4-6.8c.2-.2.5-.3.6-.3l4.4 4.4c.1.1-.1.3-.3.6-.2.2-.5.3-.5.3l-4.4-4.4c-.2-.1-.1-.3.2-.6zm2.1-1.5c.2-.2.5-.2.7 0l3.2 3.2c.2.2.2.5 0 .7s-.5.2-.7 0l-3.2-3.2c-.2-.2-.2-.5 0-.7zm1.1-1.3 1.7-1.7c.1-.1.2-.1.3 0l3.8 3.8c.1.1.1.2 0 .3l-1.7 1.7c-.1.1-.2.1-.3 0l-3.8-3.8s0-.2 0-.3z" fill="#fff"/><path d="m17.4 40.2 1.6-1.6h.2l3 3v.2l-1.6 1.6s-.1 0-.2 0l-3-3c0-.1 0-.1 0-.2z" fill="#781d77"/><g fill="#fff"><circle cx="18.2" cy="40.2" r=".2"/><circle cx="18.6" cy="40.7" r=".2"/><circle cx="19.1" cy="41.2" r=".2"/><circle cx="19.6" cy="41.7" r=".2"/><circle cx="20.1" cy="42.2" r=".2"/><circle cx="20.6" cy="42.6" r=".2"/><path d="m22 34.8 1.7-1.7c.1-.1.2-.1.3 0l3.8 3.8c.1.1.1.2 0 .3l-1.8 1.7c-.1.1-.2.1-.3 0l-3.7-3.8c-.1-.1-.1-.2 0-.3z"/></g><path d="m22.5 35.2 1.6-1.6h.2l3 3v.2l-1.6 1.6s-.1 0-.2 0l-3-3c-.1-.1-.1-.2 0-.2z" fill="#781d77"/><g fill="#fff"><circle cx="24.1" cy="34.4" r=".2"/><circle cx="24.5" cy="34.8" r=".2"/><circle cx="25" cy="35.3" r=".2"/><circle cx="25.5" cy="35.8" r=".2"/><circle cx="25.9" cy="36.3" r=".2"/><circle cx="26.4" cy="36.7" r=".2"/><circle cx="15.3" cy="53.8" r=".8"/><circle cx="17.1" cy="51.8" r=".8"/><circle cx="18.5" cy="53.7" r=".8"/><circle cx="16.9" cy="56.1" r=".8"/></g><circle cx="33.2" cy="40.3" r=".5"/><circle cx="33.2" cy="40.3" fill="#fff" r=".3"/><path d="m33.1 40.4-.6-.2s-.2-.1-.1-.3.3 0 .3 0l.5.4s.1 0 0 .1z"/><path d="m32.4 40.1s-.1-.1 0-.2c0-.1.1-.1.1-.1.1 0 .2.1.2.1l.5.4v.1c0 .1-.1.1-.2.1l-.6-.2c.1-.1.1-.1 0-.2zm.8.1-.5-.4s-.1-.1-.2-.1c0 0-.1 0-.1.1v.2s.1.1.1.1l.6.2s.1.1.1-.1c0 .1 0 .1 0 0z" fill="#fff"/><path d="m16.3 41.7c.1-.1.2-.1.2 0l.2.2c.1.1.1.2 0 .2s-.1 0-.2 0l-.2-.2c0-.1 0-.2 0-.2zm.5.4c.1-.1.2-.1.2 0l.2.2c.1.1.1.2 0 .2 0 .1-.1.1-.2 0l-.2-.2s0-.1 0-.2zm.5.5c.1-.1.2-.1.2 0l.2.2c.1.1.1.2 0 .2s-.1 0-.2 0l-.2-.2c-.1-.1-.1-.2 0-.2zm.5.5c.1-.1.2-.1.2 0l.2.2v.2c-.1 0-.1 0-.2 0l-.2-.2c-.1-.1-.1-.2 0-.2zm.5.5c.1-.1.2-.1.2 0l.2.2c.1.1.1.2 0 .2s-.1 0-.2 0l-.2-.2c-.1-.1-.1-.2 0-.2zm.5.5c.1-.1.2-.1.2 0l.2.2c.1.1.1.2 0 .2-.1.1-.1.1-.2 0l-.2-.2c-.1-.1-.1-.2 0-.2z"/><circle cx="16.1" cy="41.3" r=".1"/><circle cx="19.5" cy="44.7" r=".1"/><path d="m17.2 46.6-2.8-2.8c-.1-.1-.1-.2 0-.3l.2-.2c.1-.1.2-.1.3 0l2.8 2.8c.1.1.1.2 0 .3l-.2.2c-.1.1-.2.1-.3 0zm-2.3-3.2c-.1-.1-.1-.1-.2 0l-.2.2c-.1 0-.1.1 0 .2l2.8 2.8c.1.1.1.1.2 0l.2-.2c.1-.1.1-.2 0-.2z"/><circle cx="14.1" cy="43" r=".4"/><circle cx="17.9" cy="46.9" r=".4"/><path d="m24.6 33.6 2.7 2.7s20.8-21.4 22.2-22.9c.9-.9 1.8-1.6 3.7-.9.2.1.6-.9 2-2.7 1.2-1.6 2.7-3.3 4.2-5.4 1.4-1.9.1-3.2-1.2-3.5-1.4-.2-2 1.3-2 1.3s.5 1-.4 1.8c-2.3 1.8-6.3 4.6-6.7 4.8-.1.1.3 1.4-1.7 2.6-2 1.8-22.8 22.2-22.8 22.2z" fill="#781d77"/><path d="m47.2 11.4.2-.2h.1l2.1 2.1v.1l-.2.2s0 0-.1 0zm-1.8 1.9.2.2.1.1.1.1.1.1.1.1.2.2.2.2.1.1.1.1.1.1.1.1.1.1.1.1.1.1.1.1h.1v-.1l-.1-.1.2.1-.1-.1-.1-.1-.2-.2-.1-.1-.1-.1-.1-.1-.3-.3-.2-.2-.1-.1-.1-.1-.2-.1-.1-.1-.2-.1-.1-.1h-.1c.1 0 .1.1.1.1zm-1.6 1.6.2.2.1.1.1.1.2.2.3.2.3.3.2.2.1.1.1.1.1.1.1.1.1.1.1.1h.1v-.1l-.1-.1-.2-.1-.1-.1-.1-.1-.1-.1-.1-.1-.2-.2-.2-.2-.2-.2-.2-.2-.1-.1-.2-.2-.1-.1-.1-.1h-.1zm-1.5 1.5.1.1.1.1.2.1.1.1.1.1.1.1.2.2.3.2.2.2.1.1.2.3.1.1.1.1.2.1.1.1h.1v-.1l-.1-.1-.2-.1-.1-.1-.1-.1-.1-.1-.1-.1-.2-.2-.2-.2-.3-.3-.2-.1-.1-.1-.2-.1-.1-.1-.1-.1-.1-.1h-.1c0-.1 0 0 0 0zm-1.5 1.5.2.2.1.1.1.1.1.1.1.1.2.2.3.3.3.3.2.2.2.1.1.1.1.1.1.1h.1v-.1l-.1-.1-.2-.1-.1-.1-.1-.1-.2-.2-.1-.2-.3-.2-.2-.2-.1-.1-.1-.1-.1-.1-.3-.3-.1-.2-.2.1c.1-.1 0-.1 0-.1zm-1.3 1.3.1.1.1.1.1.1.1.1.2.1.1.1.1.1.2.2.2.2.1.1.1.1.1.1.1.1.1.1.1.1.1.1.1.1.1.1.1.1h.1s0-.1 0-.1l-.1-.1-.1-.1h-.1l-.1-.1-.1-.1-.1-.1-.2-.1v-.1l-.1-.1-.1-.1-.3-.3-.2-.2-.1-.1-.2-.1-.1-.1-.1-.1-.1-.1-.1-.1-.1-.1h-.1c0-.1 0 0 .1.1zm-1.3 1.2.1.1.3.3.3.3.2.2.1.1.1.1.1.1.1.1.1.1.2.1.2.1.2.2.2.1.1.1h.1v-.1l-.1-.1-.2-.1-.2-.2-.1.1-.2-.1-.1-.1-.1-.1-.1-.1-.2-.1-.1-.1-.3-.4-.2-.3-.3-.3-.1-.1h-.1c-.1 0-.1.1 0 .1zm-1.2 1.2.1.1.3.3.2.3.2.2.1.1.1.1.1.1.1.1.2.1.1.1.2.1.2.1.1.1.1.1h.1v-.1l-.1-.1-.1-.1v.2l-.2-.2-.2-.1-.2-.2-.1-.1-.1-.1-.1-.1-.1-.1-.2-.2-.3-.3-.3-.3-.1-.1h-.1c0-.1 0-.1 0 0zm-1.2 1.2.1.1.3.3.3.3.2.2.1.1.2.1.1.1.1.1.1.1.2.1.2.1.2.2.1.1.1.1h.1v-.1l-.2.1-.1-.1-.2-.2-.2-.1-.2-.1-.1-.1v-.2l-.2-.2-.1-.1-.1-.1-.2-.2-.3-.3-.3-.3-.1-.1h-.1c-.1-.1-.1 0 0 .1zm-1.1 1 .2.1.3.3.3.3.2.2.1.1.1.1.1.1.2.1.1.1.2.2.2.1.2.2.2.1.1.1h.1v-.1l-.3.1-.2-.1-.2-.2-.1-.1-.2-.2-.1-.1-.1-.2-.1-.1-.1-.1-.1-.1-.2-.2-.3-.3-.3-.4-.1-.1h-.1c-.1 0-.1 0-.1.1zm-1 1 .2.2.2.2.3.3.2.2.1.1.2.1.1.1.2.1.2.1.2.1.2.2.2.2.1.1.1.1h.1s0-.1 0-.1l-.3.1-.1-.1-.2-.2-.2-.2-.2-.1-.1-.1-.1-.1-.1-.2-.1-.1-.1-.1-.2-.2-.3-.3-.3-.3-.2-.1h-.1c0-.1 0-.1 0 0-.1 0-.1 0 0 0zm-1 .9.2.2.2.2.3.3.2.2.1.1.2.2.2.1.2.2.2.2.2.2.2.2.1.1.1.1.1.1.1.1v.1h.1v-.1l-.4-.2v-.1l-.1-.1-.1-.1-.2-.2-.2-.2-.2-.2v-.1l-.2-.1-.1-.1-.2-.1-.2-.2-.3-.3-.2-.3-.2-.1-.1-.1c.1-.1 0-.1 0 0zm-.9.9.2.2.2.2.3.3.2.2.2.2.2.1.1.1.2.1.2.1.2.2.2.2.1.1.1.1.1.1.1.1h.1s0-.1 0-.1l-.1-.1-.1-.1-.3.1-.1-.1-.2-.2-.2-.2-.2-.1-.1-.1-.1-.1-.1-.3-.1-.1-.2-.2-.4-.3-.2-.2-.1-.2-.1-.1h-.1s0 .1 0 .1zm-.8.9.2.2.2.2.3.3.2.2.1.1.2.1.2.1.2.2.2.1.2.2.2.2.1.1.1.1.1.1.1.1h.1v-.1l-.1-.1-.1-.1-.1-.1-.1-.1-.3.1-.2-.2-.2-.2-.1-.2-.2-.1-.1-.2-.1-.1-.1-.1-.2-.2-.3-.3-.2-.2-.2-.1-.1-.1h-.1s.1 0 .1.1zm-.9.8.2.2.2.2.3.3.2.2.1.1.1.2.1.1.1.2.1.2.1.2.2.2.1.1.1.1.1.1.1.1h.1s0-.1 0-.1h-.1l-.1-.1-.1-.1-.1-.1-.1-.1.2-.2-.2-.2-.1-.1-.1-.2-.1-.1-.1-.1-.2-.1-.3-.3-.3-.3-.2-.2-.2-.1-.1-.1c0-.1 0-.1 0 0-.1-.1-.1 0 0 0zm-.7.7.2.2.1.1.1.1.1.1.2.1.1.1.1.1.1.1.1.1.1.2.1.2.2.2.1.1.1.1.1.1.1.1.1.1.1.1h.1s0-.1 0-.1l-.1-.1-.1-.1-.1-.1-.1-.1.2.3-.1-.1-.2-.2-.1-.2-.2-.2-.1-.2-.2-.1-.1-.1-.1-.1-.1-.1-.1-.1-.1-.1-.1-.1-.1-.1-.4-.3c-.1 0-.1.1 0 0zm-.8.8.2.2.1.1.2.1.1.1.1.2.1.1.1.2.1.1.1.2.1.1.2.2.2.2.1.1.1.1.1.1.1.1.1.1.1.1h.1s0-.1 0-.1h.1v-.1l-.1-.1-.1-.1-.1-.1-.1-.1-.2-.2-.1-.2-.2-.2h-.1l-.1-.2-.1-.1-.1-.1-.1-.1-.1-.1-.1-.1-.4-.4-.1-.1h-.3c.1-.1.1-.1 0 0 0-.1 0 0 0 0zm-.7.6.1.1.3.3.3.3.2.2.1.1.1.1.1.2.2.2.2.2.2.2.2.2.2.2.1.1.1.1h.1v-.1-.1l-.1-.1-.1-.1-.2-.1-.2-.2-.2-.2-.2-.2-.2-.1-.1-.2-.1-.1-.1-.1-.2-.2-.3-.3-.3-.3-.2-.1c0-.1 0-.1 0 0zm-.6.7.1.1.3.3.3.3.2.2.2.2.1.1.2.2.2.2.2.2.2.2.2.2.2.2.1.1.1.1h.1s0-.1 0-.1h-.1l-.1-.1-.1-.1-.3-.4-.2-.2-.2-.2v-.1l-.2-.2-.1-.2-.2-.2-.2-.1-.2-.2-.3-.3-.3-.3h-.1-.1c-.1 0-.1 0 0 .1zm-.6.6.1.1.3.3.3.3.2.2.2.2.1.2.1.2.2.2.2.2.2.2.2.2.2.2.1.1.1.1h.1v-.1-.1l-.2-.2-.1-.2-.2-.2-.2-.2-.2-.2-.1-.2h-.1l-.2-.1-.1-.2-.2-.1-.2-.2-.3-.4-.3-.3h-.2c0-.1 0-.1 0-.1-.1 0-.1 0 0 .1zm-.6.5.2.2.2.2.3.3.2.2.1.2.2.2.1.2.2.2.2.2.2.2.2.2.1.1.1.1.1.1.1.1h.1s0-.1 0-.1l-.1-.1-.1-.1-.1-.1-.1-.1-.1-.1-.2-.2-.2-.2-.2-.2-.2-.2-.1-.2-.2-.2-.2-.2-.2-.2-.3-.3-.2-.2-.2-.2.1.2c0-.1 0-.1 0-.1-.1.1-.1.1 0 .1zm-.5.6.2.2.2.2.3.3.2.2.1.2.1.2.2.2.2.2.2.2.2.2.2.2.1.1.1.1.1.1.1.1h.1v-.1l-.2-.3-.1-.1-.1-.1-.1-.1-.2-.2-.2-.2-.1-.2-.2-.2h-.1l-.1-.2-.1-.1-.2-.2-.3-.3-.2-.2-.1-.2h-.3c0-.1 0-.1 0-.1s-.1 0 0 .1zm-.5.5.2.2.2.2.3.3.2.2.1.2.1.2.1.2.2.2.2.2.2.2.2.2.1.1.1.1.1.1.1.1h.1s0-.1 0-.1v-.1l-.1-.1-.1-.1-.1-.1-.1-.1-.2-.3-.1-.1-.1-.2-.2-.2-.2-.2-.2-.2-.1-.2h-.2l-.3-.3-.2-.2-.2-.2h-.1c0-.1-.1-.2 0 0-.1-.1-.1-.1 0 0zm18.2-16.8 1 1s.5-.5 1.1-.6l-1.4-1.4c-.1 0-.2.6-.7 1zm-2.9 2.9 1 1s.5-.4 1-.6l-1.4-1.4s-.2.6-.6 1zm-2.5 2.5 1 1.1s.4-.3.9-.4l-1.5-1.6s-.1.5-.4.9zm-2.3 2.3 1.1 1.1s.4-.3.9-.4l-1.5-1.6s-.1.5-.5.9zm-2.9 2.8 1.2 1.2s.3-.3.8-.2l-1.7-1.7c-.1-.1-.1.4-.3.7zm-2.6 2.5 1.2 1.2s.3-.3.8-.2l-1.8-1.8c.1 0 .1.5-.2.8zm-1.5 1.1 1.6 1.6s.2-.1.5-.2l-1.9-1.9c0 .1-.1.3-.2.5zm-1.2 1.3 1.6 1.6s.2 0 .5-.2l-1.9-1.9c-.1.1-.2.3-.2.5zm-1.2 1.2 1.5 1.6s.1 0 .4-.1l-1.9-1.9c.1 0 .1.1 0 .4zm-9.3 18.6-.1.2zm-1.8-8.2 1.4-1.7 30.9-30.4 10.6-8.6.1.2-10.6 8.6-30.9 30.3-1.4 1.6zm.5.5 1.4-1.6 30.8-30.5 9.2-7.5.1.1-9.2 7.4-30.8 30.5zm.4.4 1.4-1.6 30.8-30.5 7.7-6.3.1.1-7.7 6.2-30.8 30.5zm.5.5 1.5-1.6 30.6-30.7 6.2-5.1.1.1-6.2 5.1-30.7 30.7zm.5.4 1.4-1.5 30.6-30.8 4.7-3.7v.1l-4.7 3.7-30.5 30.8zm.5.6 1.4-1.5 30.5-31 3.3-2.6-3.3 2.6-30.5 31z" fill="#fff"/><circle cx="57.1" cy="4.7" fill="#fff" r=".5"/><path d="m56.8 5c-.2-.2-.2-.4 0-.6s.4-.2.6 0 .2.4 0 .6-.4.2-.6 0zm.6-.6c-.1-.1-.3-.1-.5 0-.1.1-.1.3 0 .5.2.1.4.1.5 0s.1-.3 0-.5z"/><circle cx="57.1" cy="4.7" r=".2"/><circle cx="56.1" cy="6.3" fill="#fff" r=".5"/><path d="m55.8 6.6c-.2-.2-.2-.4 0-.6s.4-.2.6 0 .2.4 0 .6-.5.2-.6 0zm.5-.6c-.1-.1-.3-.1-.5 0-.1.1-.1.3 0 .5.2.1.4.1.5 0 .2-.1.2-.3 0-.5z"/><circle cx="56.1" cy="6.3" r=".2"/><circle cx="54.9" cy="7.8" fill="#fff" r=".5"/><path d="m54.5 8.2c-.2-.2-.2-.4 0-.6s.4-.2.6 0 .2.4 0 .6-.4.1-.6 0zm.6-.6c-.1-.1-.4-.1-.5 0s-.1.4 0 .5c.2.1.4.1.5 0s.1-.3 0-.5z"/><circle cx="54.9" cy="7.8" r=".2"/><circle cx="53.7" cy="9.5" fill="#fff" r=".5"/><path d="m53.4 9.9c-.2-.2-.2-.4 0-.6s.5-.2.6 0 .2.4 0 .6-.5.2-.6 0zm.5-.6c-.1-.1-.3-.1-.5 0-.1.1-.1.4 0 .5s.3.1.5 0 .2-.3 0-.5z"/><circle cx="53.7" cy="9.5" r=".2"/><circle cx="52.5" cy="11.1" fill="#fff" r=".5"/><path d="m52.2 11.4c-.2-.2-.2-.4 0-.6s.4-.2.6 0 .2.4 0 .6c-.1.2-.4.2-.6 0zm.6-.5c-.2-.1-.4-.1-.5 0s-.1.4 0 .5.4.1.5 0c.1-.2.1-.4 0-.5z"/><circle cx="52.5" cy="11.1" r=".2"/><circle cx="17.8" cy="49.1" r=".2"/><circle cx="22.9" cy="47.7" r=".2"/><circle cx="23.1" cy="43.5" r=".2"/><circle cx="27.5" cy="45.3" r=".2"/><circle cx="31.7" cy="43.1" r=".2"/><circle cx="35.1" cy="40.2" r=".2"/><circle cx="31.6" cy="39.1" r=".2"/><circle cx="28.3" cy="38" r=".2"/><circle cx="13.5" cy="55.6" fill="#fff" r=".5"/><path d="m13.1 55.9c-.2-.2-.2-.5 0-.7s.5-.2.7 0 .2.5 0 .7-.5.2-.7 0zm.7-.6c-.1-.2-.4-.2-.5 0-.1.1-.1.4 0 .5.1.2.4.2.5 0s.1-.3 0-.5z"/><circle cx="13.5" cy="55.6" r=".3"/><circle cx="58.2" cy="3.1" fill="#fff" r=".5"/><path d="m57.9 3.4c-.2-.2-.2-.4 0-.6s.4-.2.6 0 .2.4 0 .6c-.1.2-.4.2-.6 0zm.6-.5c-.1-.1-.4-.1-.5 0s-.1.3 0 .5c.1.1.4.1.5 0 .1-.2.1-.4 0-.5z"/><circle cx="58.2" cy="3.1" r=".2"/></svg>