<svg height="60" width="60" xmlns="http://www.w3.org/2000/svg"><path d="m26.86 31.46c-1.84 1.5-3.5.35-4.42-.18-2.06-1.17-4.57-1-5.87 1.9-1.33 3-2.07 4.93-3.7 6.54-2.67 2.6-7.46 4.13-10 5.17-3.76 1.53-3.65 4.38-.66 6.87 3.97 3.3 11.02 5.9 14.55 7.22 1.95.73 3.17-.88 3.8-2.3.94-2.1 1.84-6.36 6.1-8.96s7.95-4 9.4-5.9c1.64-2.2-.25-4.55-2.42-3.98-2.88.76-4 .2-4.53-1.04-.57-1.34.06-2.62.92-3.8.86-1.2-3.16-1.56-3.16-1.56z"/><path d="m17.1 49.4 11.3-12.1s.83 1.73 3.4 1.33c2.1-.3 3.17-.43 3.7.56.47.88 0 2.2-2.06 3.4-1.9 1.1-4.3 2.45-6.76 3.7-2.33 1.17-7.5 3.9-9.6 3.1zm-3.43-6.78c.23-.23.48-.35.55-.27l4.37 4.36c.07.1-.06.34-.3.57-.2.23-.46.35-.54.27l-4.37-4.36c-.08-.08.04-.33.27-.56zm2.15-1.52c.2-.2.48-.2.66 0l3.2 3.18c.18.2.18.48 0 .66s-.48.18-.66 0l-3.2-3.2c-.18-.18-.18-.47 0-.65zm1.12-1.25 1.72-1.7c.08-.1.2-.1.3 0l3.76 3.76c.08.1.08.22 0 .3l-1.72 1.69c-.08.1-.2.1-.3 0l-3.76-3.76c-.08-.08-.08-.2 0-.3z" fill="#fff"/><path d="m17.44 40.2 1.58-1.57c.04-.05.12-.05.17 0l3.02 3.04c.05.04.05.12 0 .17l-1.57 1.58c-.05.05-.13.05-.18 0l-3.03-3.03c-.05-.06-.05-.14 0-.2z"/><g fill="#fff"><circle cx="18.201" cy="40.24" r=".229"/><circle cx="18.641" cy="40.681" r=".229"/><circle cx="19.11" cy="41.15" r=".229"/><circle cx="19.613" cy="41.652" r=".229"/><circle cx="20.115" cy="42.155" r=".229"/><circle cx="20.586" cy="42.626" r=".229"/><path d="m21.96 34.83 1.72-1.7c.08-.1.2-.1.3-.02l3.76 3.8c.08.07.08.2 0 .27l-1.7 1.72c-.1.07-.22.07-.3 0l-3.77-3.78c-.08-.08-.08-.2 0-.3z"/></g><path d="m22.46 35.2 1.58-1.6c.05-.04.12-.04.17 0l3.05 3.04c.04.05.04.13 0 .18l-1.58 1.58c-.05.04-.13.04-.18 0l-3.04-3.04c-.05-.05-.05-.12 0-.17z"/><g fill="#fff"><circle cx="24.059" cy="34.385" r=".229"/><circle cx="24.5" cy="34.825" r=".229"/><circle cx="24.969" cy="35.295" r=".229"/><circle cx="25.469" cy="35.795" r=".229"/><circle cx="25.929" cy="36.255" r=".229"/><circle cx="26.382" cy="36.708" r=".229"/><circle cx="15.322" cy="53.787" r=".804"/><circle cx="17.06" cy="51.785" r=".804"/><circle cx="18.5" cy="53.661" r=".804"/><circle cx="16.903" cy="56.131" r=".804"/></g><circle cx="33.191" cy="40.28" r=".549"/><circle cx="33.191" cy="40.28" fill="#fff" r=".256"/><path d="m33.1 40.38-.57-.2s-.23-.1-.14-.3c.1-.22.32-.04.32-.04l.48.36s.08.05.04.13c-.04.1-.13.05-.13.05z"/><path d="m32.4 40.12c-.04-.05-.08-.12-.03-.24.03-.07.08-.1.13-.12.1-.03.23.06.23.06l.48.36s.02 0 .04.02c.04.04.05.1.03.14-.05.1-.13.08-.17.06l-.58-.2s-.07-.03-.12-.1zm.8.1s0 0-.02 0l-.48-.36s-.1-.08-.2-.06c-.03 0-.06.05-.1.1-.02.07 0 .13.04.18s.1.07.1.07l.58.2c.02 0 .07.04.1-.03.02-.03 0-.06-.02-.1z" fill="#fff"/><path d="m16.34 41.65.03-.03c.05-.06.14-.06.2 0l.2.2c.06.07.06.16 0 .2l-.02.04c-.06.05-.15.05-.2 0l-.2-.2c-.07-.07-.07-.16 0-.2zm.46.45.03-.02c.06-.05.15-.05.2 0l.2.2c.07.07.07.16 0 .2l-.02.04c-.04.06-.13.06-.2 0l-.2-.2c-.05-.06-.05-.15 0-.2zm.47.48.03-.03c.06-.05.14-.05.2 0l.2.2c.07.07.07.16 0 .2l-.02.04c-.05.05-.14.05-.2 0l-.2-.22c-.06-.05-.06-.14 0-.2zm.49.49.03-.03c.04-.06.13-.06.2 0l.2.2c.05.07.05.15 0 .2l-.03.04c-.06.05-.15.05-.2 0l-.2-.2c-.07-.07-.07-.16 0-.2zm.52.51.03-.03c.07-.06.16-.06.2 0l.22.2c.06.06.06.15 0 .2l-.03.04c-.06.04-.15.04-.2 0l-.22-.22c-.05-.06-.05-.15 0-.2zm.47.48.03-.03c.05-.05.14-.05.2 0l.2.2c.06.07.06.16 0 .2l-.02.04c-.06.06-.14.06-.2 0l-.2-.2c-.07-.07-.07-.16 0-.2z"/><circle cx="16.082" cy="41.346" r=".13"/><circle cx="19.468" cy="44.732" r=".13"/><path d="m17.2 46.6-2.77-2.78c-.08-.07-.08-.2 0-.26l.2-.2c.08-.08.2-.08.27 0l2.78 2.78c.07.07.07.2 0 .26l-.2.2c-.08.08-.2.08-.27 0zm-2.34-3.2c-.05-.07-.14-.07-.2 0l-.2.2c-.06.05-.06.14 0 .2l2.78 2.77c.06.06.15.06.2 0l.2-.2c.06-.06.06-.15 0-.2l-2.78-2.78z"/><circle cx="14.065" cy="42.993" r=".391"/><circle cx="17.931" cy="46.884" r=".391"/><path d="m24.6 33.58 2.67 2.66s20.78-21.38 22.23-22.86c.93-.9 1.78-1.64 3.73-.92.2.07.56-.9 1.96-2.74 1.2-1.56 2.68-3.3 4.2-5.42 1.4-1.9.1-3.25-1.22-3.46-1.39-.22-1.97 1.26-1.97 1.26s.53 1.02-.42 1.77c-2.34 1.84-6.34 4.63-6.7 4.85-.08.06.32 1.44-1.72 2.6-1.96 1.9-22.76 22.26-22.76 22.26z"/><path d="m47.23 11.42.18-.2h.07l2.06 2.08c.02 0 .02.04 0 .05l-.18.2c-.02 0-.05 0-.06 0l-2.07-2.07c-.02-.02-.02-.04 0-.06zm-1.81 1.88.07.07.13.13.14.12.14.13.14.12.13.12.2.18.2.18.12.13.12.12.13.12.13.14.14.13.13.15.14.14.06.06c.03.04.08.04.1.02.03-.02.03-.07 0-.1l-.08-.08-.14-.14-.13-.14-.13-.13-.13-.15-.13-.13-.12-.12-.13-.13-.2-.2-.2-.17-.13-.13-.13-.12-.15-.13-.13-.12-.15-.13-.07-.06c-.03-.02-.08-.03-.1 0-.03.03-.02.08.02.1zm-1.62 1.6.08.06.14.13.13.12.14.13.18.2.26.24.25.24.2.2.12.1.14.14.13.13.14.15.14.13.08.07c.03.04.08.04.1.02.03-.03.02-.08-.02-.12l-.07-.07-.15-.13-.14-.13-.14-.13-.13-.14-.13-.13-.2-.2-.25-.23-.25-.25-.2-.2-.13-.12-.13-.13-.13-.13-.07-.07c-.04-.04-.1-.04-.1-.02-.03.03-.02.08 0 .1zm-1.52 1.53.04.03.08.07.1.1.15.14.14.13.13.13.13.13.2.2.26.24.2.2.13.12.13.13.14.14.14.12.15.15.08.07c.04.03.1.04.1 0 .03 0 .03-.06 0-.1l-.08-.07-.15-.14-.14-.14-.13-.14-.13-.13-.14-.13-.2-.2-.25-.25-.2-.2-.14-.1-.12-.14-.15-.13-.14-.13-.12-.1-.07-.08-.03-.03c-.04-.04-.1-.04-.1 0-.04 0-.02.06 0 .1zm-1.46 1.43.08.07.15.15.14.14.14.14.14.13.13.12.22.2.26.26.27.26.2.2.15.12.14.14.14.13.08.07c.03.04.08.04.1.02.03-.03.02-.08-.02-.1l-.07-.08-.15-.14-.14-.13-.14-.13-.2-.2-.27-.26-.27-.25-.2-.2-.14-.13-.14-.14-.14-.14-.14-.14-.15-.14-.1-.07c-.02-.04-.07-.05-.1-.02-.02.03 0 .08.02.1zm-1.36 1.3.04.03.07.07.08.07.07.07.1.12.15.14.14.13.14.13.2.2.2.2.12.12.13.13.13.14.14.14.1.1.08.08.08.07.07.1.08.06.08.08.04.04c.04.04.1.04.1.02s.03-.08 0-.1l-.05-.05-.08-.08-.08-.08-.08-.08-.08-.08-.07-.07-.1-.1-.15-.14-.14-.14-.13-.14-.13-.13-.2-.2-.2-.2-.13-.13-.14-.13-.14-.14-.1-.1-.08-.08-.08-.07-.07-.08-.05-.04c-.04-.03-.1-.04-.1 0-.04 0-.03.06 0 .1zm-1.3 1.26.13.13.26.27.26.26.2.2.14.14.14.14.14.14.14.14.14.15.15.13.15.15.15.16.16.15.08.08c.05.03.1.04.12 0 .02 0 .02-.06-.02-.1l-.08-.08-.16-.15-.15-.16-.14-.16-.15-.14-.13-.15-.14-.14-.14-.13-.15-.14-.14-.13-.2-.2-.25-.27-.27-.27-.13-.13c-.04-.04-.1-.05-.1-.02-.04.03-.03.08 0 .12zm-1.18 1.18.14.13.27.27.25.27.2.2.14.14.13.15.14.14.14.13.16.15.14.15.15.15.16.15.13.12.08.08.05.05c.04.03.1.04.1 0 .03 0 .03-.06 0-.1l-.05-.04-.08-.08-.12-.12-.16-.15-.15-.16-.15-.15-.15-.16-.14-.14-.14-.14-.14-.14-.14-.14-.2-.2-.26-.28-.27-.26-.13-.14c-.04-.03-.08-.04-.1-.02-.03.03-.02.08 0 .1zm-1.18 1.17.13.13.27.27.27.28.2.2.14.14.15.13.14.15.14.14.14.15.15.15.15.15.16.16.12.12.1.08.03.05c.02.03.07.04.1 0 .02 0 0-.06-.02-.1l-.05-.04-.08-.08-.12-.12-.16-.16-.15-.15-.15-.15-.14-.15-.15-.14-.14-.15-.14-.15-.13-.13-.2-.2-.28-.28-.28-.3-.14-.12c-.03-.04-.08-.05-.1-.02-.03.02-.02.07 0 .1zm-1.1 1.03.15.15.27.27.27.28.2.2.14.14.14.15.14.13.15.15.14.14.17.16.15.15.16.16.16.15.08.1c.04.02.1.03.1 0 .04-.02.03-.07 0-.1l-.1-.1-.15-.15-.16-.16-.14-.15-.16-.17-.14-.14-.15-.16-.13-.14-.14-.15-.14-.14-.22-.2-.27-.27-.26-.27-.14-.14c-.04-.03-.1-.04-.1-.02-.04.03-.03.08 0 .1zm-1 1 .06.07.14.14.2.22.3.28.2.2.13.15.15.15.14.14.15.15.15.15.15.15.16.16.16.16.1.12.1.1.04.03c.04.04.1.04.1.02s.03-.1 0-.12l-.05-.04-.1-.1-.12-.1-.16-.17-.16-.16-.15-.14-.14-.15-.14-.14-.15-.15-.14-.13-.14-.15-.22-.2-.28-.3-.2-.2-.15-.14-.07-.07c-.03-.02-.08-.03-.1 0s-.02.07 0 .1zm-1 .94.07.07.15.15.2.22.3.28.2.22.14.14.15.16.15.15.15.16.16.16.15.16.17.16.12.12.08.08.08.1.1.07.03.06c.03.03.08.04.1 0 .03 0 .02-.06-.02-.1l-.04-.04-.1-.08-.07-.1-.1-.07-.1-.12-.17-.16-.15-.17-.15-.16-.15-.15-.15-.15-.14-.14-.15-.15-.2-.22-.28-.28-.2-.22-.16-.14-.07-.07c-.05-.04-.1-.04-.12-.02-.02.03-.02.08.02.1zm-.88.91.07.07.13.14.22.2.28.3.2.2.15.16.15.15.14.15.15.15.15.15.16.16.16.16.1.12.1.1.08.07.1.1.03.03c.04.04.1.04.12.02s.02-.08-.02-.1l-.05-.05-.08-.1-.1-.07-.07-.1-.12-.1-.16-.17-.16-.17-.15-.15-.14-.15-.14-.15-.15-.15-.14-.15-.2-.22-.3-.28-.2-.2-.15-.16-.07-.07c-.03-.03-.08-.04-.1-.02s-.02.08.02.12zm-.87.85.07.06.15.14.2.22.3.28.2.22.15.15.15.15.15.15.15.16.15.15.16.16.16.17.13.13.08.1.1.07.07.1.05.03c.03.03.08.04.1.02.03-.03.02-.08 0-.1l-.06-.06-.07-.1-.1-.08-.07-.08-.13-.12-.16-.16-.16-.16-.14-.16-.15-.15-.14-.16-.14-.15-.15-.16-.2-.22-.3-.3-.2-.2-.16-.15-.06-.07c-.04-.04-.1-.04-.1-.02-.04.02-.03.07 0 .1zm-.83.82.07.08.14.14.2.2.3.3.2.22.15.15.14.16.15.15.14.16.15.16.15.16.16.16.14.13.08.08.1.1.07.07.04.04c.03.04.08.05.1.02s.02-.07 0-.1l-.06-.05-.08-.1-.1-.07-.07-.08-.13-.13-.16-.16-.16-.17-.15-.15-.15-.16-.15-.15-.14-.15-.16-.15-.2-.22-.3-.3-.2-.2-.16-.15-.07-.07c-.03-.03-.08-.04-.1 0-.03 0-.02.06.02.1zm-.76.73.07.07.15.14.15.15.14.15.14.15.16.15.14.15.15.15.14.15.14.15.15.16.15.17.16.17.13.12.1.08.07.1.1.07.07.1.1.1.04.03c.04.04.1.05.12.02s0-.07-.02-.1l-.05-.05-.1-.1-.07-.08-.1-.08-.07-.08-.08-.1-.12-.1-.16-.17-.15-.17-.16-.16-.15-.16-.16-.14-.15-.15-.15-.14-.15-.15-.14-.14-.15-.14-.13-.15-.15-.14-.07-.08c-.04-.03-.1-.04-.1 0-.04 0-.03.06 0 .1zm-.71.71.07.07.15.14.14.15.16.14.14.15.14.16.15.15.13.16.15.15.15.17.15.15.16.16.16.17.12.12.08.1.1.07.07.1.1.07.08.1.05.04c.03.04.08.05.1.02s.02-.07-.02-.1l-.04-.05-.1-.08-.08-.08-.08-.1-.1-.07-.07-.1-.1-.1-.17-.17-.15-.16-.16-.16-.15-.15-.14-.16-.15-.15-.14-.15-.15-.15-.15-.14-.15-.15-.14-.15-.15-.14-.07-.07c-.03-.04-.08-.05-.1-.02-.03.02-.02.07.02.1zm-.73.67.15.15.3.3.3.3.22.22.14.15.15.15.14.16.16.15.16.18.16.16.17.17.16.18.14.13.1.1.03.05c.04.03.1.04.1.02.04-.03.03-.08 0-.1l-.05-.06-.1-.08-.13-.13-.17-.18-.16-.17-.17-.16-.16-.18-.17-.15-.15-.16-.15-.14-.15-.15-.23-.22-.3-.3-.3-.3-.14-.14c-.03-.04-.07-.05-.1-.02-.02.02-.02.07.02.1zm-.62.64.14.15.3.3.3.3.2.22.16.15.15.14.16.16.17.16.16.16.16.16.16.17.17.17.13.13.1.1.04.04c.03.02.08.03.1 0s.02-.07 0-.1l-.06-.05-.1-.1-.12-.12-.17-.17-.17-.17-.16-.17-.16-.16-.16-.16-.15-.15-.16-.15-.16-.15-.22-.23-.3-.3-.3-.3-.14-.14c-.04-.04-.1-.05-.1-.02-.04.02-.03.07 0 .1zm-.62.61.15.14.3.3.3.3.2.22.17.16.15.15.15.15.16.16.16.17.16.16.17.16.17.17.14.13.08.1.05.04c.03.03.07.04.1.02.02-.03.02-.08-.02-.1l-.05-.06-.08-.1-.14-.12-.16-.17-.16-.17-.17-.16-.15-.17-.16-.15-.16-.16-.15-.15-.17-.14-.22-.23-.3-.3-.28-.3-.15-.14c-.04-.05-.1-.06-.1-.03-.04.02-.03.07 0 .1zm-.61.56.08.08.15.15.22.23.3.3.23.23.15.15.16.16.15.16.17.16.16.16.17.17.17.16.13.13.1.08.08.1.1.08.04.05c.03.04.08.05.1.03s.02-.08 0-.1l-.06-.06-.1-.1-.08-.08-.1-.1-.12-.13-.17-.17-.17-.17-.17-.16-.16-.16-.15-.15-.16-.16-.16-.16-.23-.23-.3-.3-.2-.22-.16-.15-.08-.07c-.04-.04-.1-.05-.1-.02-.03.02-.02.07 0 .1zm-.51.52.07.08.15.15.23.2.3.32.24.22.15.16.14.16.16.15.16.18.16.16.17.17.16.18.13.13.08.1.1.1.08.08.04.04c.04.04.1.05.1.02.04-.02.03-.07 0-.1l-.05-.05-.1-.1-.08-.1-.1-.08-.12-.13-.17-.18-.17-.17-.15-.16-.16-.17-.17-.16-.15-.16-.15-.14-.23-.23-.3-.3-.23-.23-.15-.15-.07-.08c-.04-.04-.1-.04-.1-.02s-.03.08 0 .1zm-.5.5.08.07.15.15.2.23.3.3.24.24.15.16.15.15.15.16.16.17.16.17.17.16.16.17.13.14.08.1.1.08.08.1.05.04c.04.04.1.04.12.02s0-.08-.02-.1l-.05-.06-.1-.1-.08-.08-.1-.1-.12-.1-.17-.2-.17-.15-.15-.17-.16-.16-.16-.16-.16-.15-.15-.15-.23-.23-.3-.3-.22-.23-.16-.16-.07-.07c-.04-.04-.1-.05-.1-.02-.04.02-.03.07 0 .1zm18.24-16.72.98 1s.5-.45 1.07-.6l-1.43-1.43s-.17.55-.62 1.04zm-2.9 2.89 1 1s.47-.44 1.03-.57l-1.43-1.43s-.15.52-.6 1zm-2.5 2.47 1.05 1.07s.4-.34.9-.38l-1.53-1.57s-.1.48-.43.88zm-2.28 2.28 1.06 1.06s.4-.34.9-.38l-1.53-1.56s-.08.48-.43.88zm-2.97 2.84 1.2 1.18s.3-.26.8-.23l-1.72-1.73s0 .45-.28.78zm-2.5 2.48 1.17 1.2s.34-.26.83-.23l-1.8-1.8s.07.5-.2.83zm-1.5 1.14 1.56 1.6s.2-.06.47-.18l-1.9-1.9s-.04.2-.12.48zm-1.3 1.3 1.56 1.6s.2-.05.45-.17l-1.88-1.9s-.05.2-.12.47zm-1.11 1.13 1.55 1.58c-.02 0 .15-.04.4-.14l-1.87-1.86s-.04.17-.1.43zm-9.34 18.58-.15.16-.04-.03.16-.16zm-1.8-8.17 1.38-1.65 30.88-30.35 10.66-8.64.1.12-10.65 8.64-30.87 30.34-1.37 1.64zm.5.47 1.35-1.63 30.8-30.5 9.25-7.4.08.1-9.23 7.4-30.8 30.5-1.36 1.62zm.42.43 1.38-1.62 30.8-30.54 7.73-6.25.07.1-7.73 6.23-30.77 30.54-1.4 1.62zm.48.49 1.45-1.57 30.65-30.7 6.15-5.08.06.07-6.15 5.08-30.66 30.69-1.43 1.57zm.48.47 1.42-1.46 30.58-30.88 4.65-3.74.04.05-4.65 3.76-30.57 30.87-1.42 1.46zm.52.52 1.37-1.5 30.48-31.03 3.26-2.55.04.04-3.26 2.55-30.48 31-1.37 1.52z" fill="#fff"/><circle cx="57.125" cy="4.66" fill="#fff" r=".524"/><path d="m56.82 5c-.17-.17-.17-.45 0-.62s.44-.17.6 0 .18.45 0 .62-.43.17-.6 0zm.55-.55c-.14-.14-.35-.14-.5 0-.12.13-.12.35 0 .5.15.12.37.12.5 0 .13-.15.13-.37 0-.5z"/><circle cx="57.125" cy="4.66" r=".232"/><circle cx="56.085" cy="6.263" fill="#fff" r=".525"/><path d="m55.78 6.6c-.17-.17-.17-.44 0-.6.17-.18.44-.18.6 0 .18.16.18.43 0 .6-.16.17-.43.17-.6 0zm.55-.55c-.14-.13-.35-.13-.5 0-.12.14-.12.35 0 .5.15.12.37.12.5 0 .13-.14.13-.36 0-.5z"/><circle cx="56.085" cy="6.263" r=".232"/><circle cx="54.854" cy="7.833" fill="#fff" r=".525"/><path d="m54.55 8.17c-.17-.17-.17-.44 0-.6.17-.18.44-.18.6 0 .18.16.18.43 0 .6s-.43.17-.6 0zm.55-.55c-.14-.13-.36-.13-.5 0-.12.14-.12.36 0 .5.15.12.37.12.5 0 .13-.14.13-.36 0-.5z"/><circle cx="54.854" cy="7.833" r=".232"/><circle cx="53.669" cy="9.543" fill="#fff" r=".525"/><path d="m53.36 9.88c-.17-.17-.17-.44 0-.6.17-.18.45-.18.62 0s.17.43 0 .6-.45.17-.62 0zm.55-.55c-.12-.13-.34-.13-.47 0-.14.14-.14.36 0 .5.13.12.35.12.48 0 .15-.14.15-.36 0-.5z"/><circle cx="53.669" cy="9.543" r=".232"/><circle cx="52.545" cy="11.096" fill="#fff" r=".524"/><path d="m52.24 11.44c-.17-.17-.17-.45 0-.62s.44-.17.6 0c.18.17.18.45 0 .62-.16.17-.43.17-.6 0zm.55-.55c-.15-.15-.36-.15-.5-.02-.13.14-.13.36 0 .5.14.12.36.12.5 0 .12-.14.12-.36 0-.5z"/><circle cx="52.546" cy="11.096" r=".232"/><circle cx="17.793" cy="49.097" r=".172"/><circle cx="22.916" cy="47.66" r=".172"/><circle cx="23.094" cy="43.532" r=".172"/><circle cx="27.529" cy="45.278" r=".172"/><circle cx="31.728" cy="43.074" r=".173"/><circle cx="35.081" cy="40.208" r=".173"/><circle cx="31.565" cy="39.128" r=".173"/><circle cx="28.348" cy="37.967" r=".173"/><circle cx="13.487" cy="55.56" fill="#fff" r=".55"/><path d="m13.15 55.93c-.18-.2-.18-.5 0-.67.2-.2.5-.2.67 0 .18.18.18.48 0 .67-.18.18-.48.18-.67 0zm.6-.6c-.14-.15-.38-.15-.53 0-.15.14-.15.38 0 .53s.4.15.54 0 .14-.4 0-.54z"/><circle cx="13.487" cy="55.56" r=".286"/><circle cx="58.223" cy="3.104" fill="#fff" r=".525"/><path d="m57.91 3.44c-.15-.17-.15-.44.02-.6s.44-.18.6 0c.18.16.18.43 0 .6-.16.17-.44.17-.6 0zm.57-.55c-.14-.14-.36-.14-.5 0-.12.13-.12.35 0 .48.14.13.36.13.5 0 .13-.13.13-.35 0-.5z"/><circle cx="58.223" cy="3.104" r=".232"/></svg>