<svg enable-background="new 0 0 60 60" height="60" viewBox="0 0 60 60" width="60" xmlns="http://www.w3.org/2000/svg"><path d="m39.92 10.52h4.36v14.75h-4.36z" fill="#c3c3c3" transform="matrix(.7071 -.7071 .7071 .7071 -.3234 35.0134)"/><path d="m41.27 26.59-7.86-7.86 1.93-4.51 10.44 10.44z" fill="#a1a1a1"/><path d="m41.26 26.58-32.24 30.62-1.29 1.22-1.28 1.21c-.59.56-1.64.45-2.35-.25l-3.5-3.5c-.71-.71-.82-1.76-.25-2.35l1.21-1.28 1.22-1.29 30.62-32.24z" fill="#696b6b"/><path d="m41.29 4.45h16.14v12.39h-16.14z" fill="#4b4d4d" transform="matrix(.7071 -.7071 .7071 .7071 6.926 38.0217)"/><g fill="#b3b2b3"><path d="m44.17 7.8h1.31v14.75h-1.31z" transform="matrix(.7071 -.7071 .7071 .7071 2.3953 36.1396)"/><path d="m59.89 10.54c.21-.21.1-.67-.25-1.02l-9.16-9.16c-.35-.35-.81-.46-1.02-.25l-.49.49 10.43 10.43s.28-.27.49-.49z"/><path d="m45.81 6.16h1.31v14.75h-1.31z" transform="matrix(.7071 -.7071 .7071 .7071 4.0324 36.8177)"/><path d="m47.44 4.53h1.31v14.75h-1.31z" transform="matrix(.7071 -.7071 .7071 .7071 5.6695 37.4957)"/><path d="m52.35-.38h1.31v14.75h-1.31z" transform="matrix(.7071 -.7071 .7071 .7071 10.5806 39.53)"/><path d="m49.08 2.89h1.31v14.75h-1.31z" transform="matrix(.7071 -.7071 .7071 .7071 7.3065 38.1738)"/><path d="m50.72 1.25h1.31v14.75h-1.31z" transform="matrix(.7071 -.7071 .7071 .7071 8.9436 38.8519)"/></g><path d="m24.29 29.65h7.85v4.29h-7.85z" fill="#545554" transform="matrix(.7071 -.7071 .7071 .7071 -14.2184 29.2579)"/><path d="m25.1 30.47h6.22v2.66h-6.22z" fill="#c3c3c3" transform="matrix(.7071 -.7071 .7071 .7071 -14.2203 29.2625)"/><path d="m27.76 29.37h3.11v2.66h-3.11z" fill="#9d9d9d" transform="matrix(.7071 -.7071 .7071 .7071 -13.121 29.7178)"/><path d="m9.02 57.2-1.29 1.23-6.16-6.16 1.23-1.29z" fill="#c3c3c3"/></svg>