<svg enable-background="new 0 0 60 60" height="60" viewBox="0 0 60 60" width="60" xmlns="http://www.w3.org/2000/svg"><path d="m39.9 10.5h4.4v14.7h-4.4z" fill="#c3c3c3" transform="matrix(.7071 -.7071 .7071 .7071 -.3253 35.0107)"/><path d="m41.3 26.6-7.9-7.9 1.9-4.5 10.5 10.5z" fill="#a1a1a1"/><path d="m41.3 26.6-32.3 30.6-1.3 1.2-1.3 1.2c-.6.6-1.6.5-2.3-.2l-3.5-3.5c-.7-.7-.8-1.8-.2-2.3l1.2-1.3 1.2-1.3 30.6-32.2z" fill="#00572c"/><path d="m41.3 4.5h16.1v12.4h-16.1z" fill="#4b4d4d" transform="matrix(.7071 -.7071 .7071 .7071 6.9278 38.0179)"/><g fill="#b3b2b3"><path d="m44.2 7.8h1.3v14.7h-1.3z" transform="matrix(.7071 -.7071 .7071 .7071 2.3982 36.1378)"/><path d="m59.9 10.5c.2-.2.1-.7-.2-1l-9.2-9.2c-.3-.3-.8-.5-1-.2l-.5.5 10.4 10.4s.3-.2.5-.5z"/><path d="m45.8 6.2h1.3v14.7h-1.3z" transform="matrix(.7071 -.7071 .7071 .7071 4.0381 36.8147)"/><path d="m47.4 4.5h1.3v14.7h-1.3z" transform="matrix(.7071 -.7071 .7071 .7071 5.6682 37.4958)"/><path d="m52.4-.4h1.3v14.7h-1.3z" transform="matrix(.7071 -.7071 .7071 .7071 10.5781 39.5305)"/><path d="m49.1 2.9h1.3v14.7h-1.3z" transform="matrix(.7071 -.7071 .7071 .7071 7.3082 38.1726)"/><path d="m50.7 1.2h1.3v14.7h-1.3z" transform="matrix(.7071 -.7071 .7071 .7071 8.9482 38.8495)"/></g><path d="m24.3 29.6h7.8v4.3h-7.8z" fill="#545554" transform="matrix(.7071 -.7071 .7071 .7071 -14.2146 29.2617)"/><path d="m25.1 30.5h6.2v2.7h-6.2z" fill="#c3c3c3" transform="matrix(.7071 -.7071 .7071 .7071 -14.2234 29.2637)"/><path d="m27.8 29.4h3.1v2.7h-3.1z" fill="#9d9d9d" transform="matrix(.7071 -.7071 .7071 .7071 -13.1198 29.7202)"/><path d="m9 57.2-1.3 1.2-6.1-6.1 1.2-1.3z" fill="#c3c3c3"/></svg>