<svg height="60" width="60" xmlns="http://www.w3.org/2000/svg"><path d="m12.65 4.44 5.7-.24c2.03-.27 3.27-.85 3.27-.85 5.5-2.38 4.63 3.16 4.63 3.16l-.4 6.57c-.18.03-.43.1-.64.28-.25.25-.4.62-.4 1.1l-.42 6.88c-.02.64.16 1.74.86 2.3l-1.6 27s-.6 9.37 7.6 9.37c8.53 0 7.7-9 7.7-9v-10.67c0-4.93 3.73-6.26 5.75-6.62 1.17.73 2.1 1 2.47.62.7-.73-.92-3.6-3.65-6.38-2.73-2.8-5.53-4.46-6.24-3.73-.3.3-.2.94.2 1.78-.34.56-.7.97-.7.97-4.78 6.77-4.32 13.02-4.32 13.02v7.68s.03 1.7-.72 2.18v-31.6c0-.06.05-1.32-.73-2.16-.33-.36-.76-.6-1.3-.68v-.1h.14c.53 0 .96-.54.96-1.2 0-.68-.42-1.23-.95-1.23-.06 0-.12 0-.17 0l-.1-6.77c.23-9.58-8.07-5.1-8.07-5.1-1.03.54-2.17.88-3.15 1.1l-3.44.7-2.24 1.6zm26.95 22.66c.32-.3 1.65.54 2.98 1.9 1.34 1.37 2.18 2.74 1.87 3.04-.3.32-1.64-.54-2.97-1.9-1.34-1.37-2.17-2.73-1.87-3.04zm-8.32-8.87v31.74c-1.1-.08-1.05-2.3-1.05-2.3v-.5c.44-.28.74-.83.74-1.46s-.32-1.2-.8-1.46l-.02-1.43c.4-.25.65-.73.65-1.3s-.28-1.04-.7-1.3v-1.5c.38-.23.65-.7.65-1.25s-.3-1.05-.7-1.3l-.02-1.23c.43-.22.74-.73.74-1.3 0-.62-.32-1.14-.78-1.36l-.05-1.73c.48-.06.85-.57.85-1.2 0-.64-.38-1.16-.88-1.2l-.02-1.38c.5-.04.9-.56.9-1.2 0-.68-.4-1.22-.94-1.23l-.02-1.37c.54 0 .97-.55.97-1.22 0-.66-.4-1.2-.94-1.2-.02 0-.03 0-.05 0v-1.38s.03 0 .06 0c.53 0 .96-.54.96-1.2 0-.68-.42-1.23-.95-1.23-.04 0-.07 0-.1 0l-.02-.77c.38.08.7.24.94.5.64.7.6 1.8.6 1.8zm-5.45-4.67-.56 9.4c-.44-.6-.42-1.6-.42-1.6l.42-6.9c0-.35.1-.6.25-.75.1-.06.2-.1.3-.13z"/></svg>