<svg enable-background="new 0 0 60 60" height="60" viewBox="0 0 60 60" width="60" xmlns="http://www.w3.org/2000/svg"><path d="m58.9 5.2-.2-1.3c0-.2-.2-.3-.3-.4l-3.4-1.1-3.3-.2c-.2 0-.5.2-.5.4l-5.2-.3c0-.7-.6-1.3-1.3-1.4l-1.5-.1c-2.7-.2-5.9-.1-8.9 2.5-.9.7-1.6 1.7-2.2 2.9l-1.8 3.7c-1 2-2.5 6.7-3.4 9.7l-.4.8c-.2.1-.5.5-.7.9s-.3.7-.2 1l-.6 1.2c-.2.2-.4.4-.6.8-.1.3-.2.6-.2.8l-.5.8c-.3.1-.6.3-.9.6l-.8-.4.1-.2c.2-.4 0-.8-.3-1s-.8 0-.9.3l-4.5 9.1c-.1 0-.2 0-.3 0l-1 .3c1-2.5 1.4-5.1 1.3-7.7 0-.4.3-.9.7-1.4.3-.3 0-.8-.5-.8l-9.9 1.8c-.4.1-.5.6-.2.9.7.4 1.2 1 1.4 1.6.3 1.2.3 2.4.1 3.5-.2.7-.4 1.4-.6 2.2-.5.2-.9.4-1.2.8-.3-.1-.7 0-.9.3l-3.1 6.3c-.2.3 0 .8.3 1h.2c.1.6.4 1.2.8 1.7-.1.3 0 .1-.1.4-.7.1-1.4.5-1.7 1.2-.4.8-.2 1.7.3 2.3-.8 2.7.1 5.7 2 7.5.1.8.5 1.6 1.3 1.9.8.4 1.7.3 2.3-.2 3 .5 5.9-1.1 7.3-4l2.7-5.5c.6.3 1.3.1 1.5-.5l3.6-7.4c.3-.6 0-1.2-.6-1.5l.8-1.7c.4.2.8 0 1-.3l2.5-5.1c.2-.4 0-.8-.4-.9l.2-.4c.6.3 1.4-.1 1.4-.9 0-.4-.2-.6-.5-.8l.2-.4c.4.2.8 0 1-.3l2.2-4.5c.2-.4 0-.8-.3-.9l.2-.4c.5.2 1 0 1.3-.4.2-.5 0-1-.4-1.2l5.7-11.3.2.1c.4.2.8 0 1-.3.2-.4 0-.8-.3-.9l-.6-.3c-.2-.1-.3-.2-.2-.3 1.2-2.2 2.8-3.9 6.5-3.6l7.5.4c0 .3.2.5.4.5l3.3.2 3.9.2c.1 0 .3-.1.2-.3zm-53.5 35.3c-.2 0-.6 0-1.2.4l1.4-2.9c-.2.7.1 1.2.2 1.4-.1.4-.2.8-.4 1.1zm8.9-3.9 1.3-.4-1.6 3.4c-.1 0-.2 0-.3 0l-.9.3zm-2.5 5 1.3-.4-1.6 3.3s0 0-.1 0l-1.2.4zm-1.8 10.1c-.4.7-1.2 1-1.9.6s-1-1.2-.6-1.9l1.8-3.7 1.3-.4-.2.3c-.2.3 0 .8.3.9.4.2.8 0 1-.3l.5.3zm2.6-5-.6-.3 1.4-3 .6.3zm2-3.7-.7-.3 1.4-3 .8.4c0-.1-1.5 2.9-1.5 2.9zm3.2-6.2-1.2 2.4-.8-.4 1.4-3 .7.3c0 .3-.1.5-.1.7zm2.5-4.7-1.4 2.7c-.2.1-.4.3-.5.5l-.8-.3 2.1-4.2.7.3c-.1.4-.2.7-.1 1zm1.9-3.6-.6 1.2c-.2.1-.5.3-.7.6l-.8-.3 1.5-3 .7.3c-.2.5-.2.9-.1 1.2zm7.3-13.9c.6-1.7 1.2-3.4 1.7-4.3l1.5-3.1c.1.1.2.2.3.3l.2.2zm14.6-12.4c-4.6-.3-7.7.6-9.6 4.3 0 .1-.2.2-.3.1l-.6-.3c-.1-.1-.3-.1-.4-.1.5-.9 1-1.6 1.7-2.2 2.2-1.9 4.6-2.5 8.2-2.3l1.5.1c.2 0 .4.2.4.5z" fill="#249ac1"/></svg>