<svg height="60" width="60" xmlns="http://www.w3.org/2000/svg"><path d="m58.88 5.18-.25-1.33c-.03-.17-.15-.3-.32-.36l-3.4-1.1-3.3-.2c-.25-.03-.47.17-.5.43l-5.11-.32v-.05c-.02-.73-.6-1.34-1.32-1.4l-1.53-.1c-2.72-.17-5.9-.1-8.88 2.52-.85.75-1.58 1.72-2.14 2.88l-1.8 3.72c-.97 1.96-2.5 6.7-3.44 9.67l-.44.84c-.25.15-.53.46-.72.87-.18.36-.26.72-.25 1l-.63 1.2c-.2.18-.4.44-.57.76-.14.3-.2.56-.24.8l-.45.83c-.3.1-.6.32-.85.65l-.72-.35.1-.2c.18-.36.03-.78-.32-.95s-.77-.03-.94.32l-4.46 9.13c-.1-.02-.2 0-.3.02l-1 .34c1.02-2.5 1.4-5.14 1.28-7.7-.02-.42.3-.94.7-1.4.27-.32-.03-.82-.46-.75l-9.9 1.75c-.4.08-.52.63-.17.86.7.43 1.24.96 1.43 1.65.3 1.16.35 2.35.1 3.54-.17.7-.37 1.44-.6 2.23-.46.16-.87.42-1.2.77-.33-.1-.7.03-.86.35l-3.1 6.33c-.17.35-.02.77.33.95.04.02.1.04.15.05.07.63.37 1.22.85 1.65-.1.27 0 .1-.13.38-.7.07-1.36.5-1.7 1.17-.37.78-.23 1.68.3 2.3-.78 2.7.07 5.66 2.03 7.5.06.8.52 1.56 1.3 1.94s1.66.3 2.34-.16c3 .5 5.93-1.1 7.33-3.97l2.7-5.53c.57.32 1.26.1 1.54-.47l3.63-7.38c.28-.6 0-1.24-.6-1.45l.82-1.7c.35.18.78.04.95-.3l2.5-5.14c.16-.35 0-.75-.36-.9l.2-.4c.6.28 1.37-.12 1.36-.9 0-.35-.22-.65-.53-.8l.2-.42c.36.17.78.02.95-.33l2.22-4.53c.17-.35.03-.77-.32-.94l.2-.42c.47.23 1.03.04 1.26-.43.23-.46.04-1.03-.43-1.25l5.57-11.4.2.1c.36.17.78.03.96-.32.17-.35.02-.77-.33-.94l-.63-.3c-.12-.07-.17-.2-.1-.33 1.16-2.25 2.83-3.87 6.45-3.64l7.52.45c-.04.26.16.48.42.5l3.28.2 3.93.24c.16 0 .28-.14.25-.3zm-53.44 35.37c-.25-.02-.63-.03-1.24.4l1.4-2.87c-.17.67.13 1.2.25 1.4-.14.35-.27.7-.4 1.07zm8.82-3.97 1.27-.43-1.65 3.36c-.1 0-.2 0-.3.05l-.92.32 1.6-3.28zm-2.48 5.07 1.27-.43-1.6 3.3c-.02 0-.04 0-.05 0l-1.22.4zm-1.75 10.05c-.35.7-1.2.98-1.9.64s-1-1.2-.64-1.9l1.8-3.72 1.27-.43-.18.35c-.18.35-.04.77.3.94.36.16.78 0 .96-.34l.54.27-2.17 4.15zm2.6-5-.55-.27 1.44-2.96.65.32-1.53 2.9zm1.97-3.75-.66-.32 1.44-2.96.75.36zm3.22-6.15-1.25 2.4-.78-.37 1.43-2.96.68.33c-.05.2-.1.4-.1.6zm2.44-4.67-1.4 2.7c-.2.13-.37.3-.53.53l-.68-.34 2.06-4.22.7.32c-.14.36-.17.72-.13 1zm1.9-3.62-.64 1.2c-.24.14-.48.34-.7.6l-.7-.34 1.46-2.97.67.32c-.16.44-.18.87-.1 1.2zm7.3-13.92c.6-1.74 1.2-3.35 1.67-4.28l1.48-3.05c.08.1.17.2.28.26l.25.15-3.65 6.93zm14.6-12.39c-4.6-.28-7.65.56-9.6 4.27-.03.12-.17.17-.3.1l-.62-.3c-.14-.06-.27-.08-.38-.07.48-.88 1.05-1.63 1.7-2.22 2.18-1.9 4.63-2.5 8.2-2.3l1.53.12c.24.02.43.22.43.46l-.97-.05z"/></svg>