<svg enable-background="new 0 0 60 60" height="60" viewBox="0 0 60 60" width="60" xmlns="http://www.w3.org/2000/svg"><path d="m55.6 28.9c0 .1-.2.2-.3.2l-.9-.1-1.5 3.1c-.1 1.9-.1 4.4.4 5.3 4.3 8.3 8 17.4-.3 21.4-2.6 1.2-5.9 1.8-7.8 0-.8-.8-1.5-1.8-2.2-3.1l-22.8-52.1c-.8-1.1-4.6-1.2-6.3-.4l-3.2 1.7-1-1.9 4.6-2.3c2.4-1.1 7.4-.8 8.1.5.1.2 23 47.8 25.3 52.4.7 1.5 1.8.7 2 .6 1.5-.7 2.5-.9-3.7-13.6-1.1-2.3-1.6-4.5-2.1-6.5-.1-.3-.1-1.5-.1-2.6l-1.4-3.3-.9-.1c-.1 0-.2-.1-.2-.2s.2-.2.3-.2l13.8 1c.1 0 .2.1.2.2z" fill="#af8424"/><path d="m52.2 58.6c6.4-2.1-.6-9.5-4.2-16.1-.2-.3-.7.2-.6.3 3.3 6.2 9 13.7 3.6 14.9-2.6.6-5.5-6.5-8.9-12.7-4.5-8.1-11.3-22.9-11.4-23-1.5 1.8 7.4 18 10.6 24 3.6 6.6 5.6 14.3 10.9 12.6z" fill="#fde9d2"/><path d="m51.3 54c-1.4 0-2.6.7-2.6 1.6l-.1 2.2c-.1.9 1 1.7 2.4 1.7 1.4 0 2.6-.7 2.6-1.6l.1-2.2c.1-1-1-1.7-2.4-1.7z" fill="#fabe78"/><path d="m54.1 54.8-3.2 1.5c-.4.2-.5.6-.4.9.2.3.6.5 1 .3l3.2-1.5c.4-.2.5-.6.4-.9-.2-.4-.6-.5-1-.3z" fill="#f6921e"/><path d="m37 38.7c.8-.1 1.1-.6.8-1.1l-.8-1c-.3-.5-1.2-.7-2-.6-.8.1-1.1.6-.8 1.1l.8 1.1c.3.4 1.2.6 2 .5z" fill="#fabe78"/><path d="m35.1 38.6 1.2-1c.1-.1.1-.3-.1-.5s-.5-.2-.6-.1l-1.2 1c-.1.1-.1.3.1.5s.5.2.6.1z" fill="#f6921e"/><path d="m38.3 41.7c.8-.1 1.1-.6.8-1.1l-.8-1.1c-.3-.5-1.2-.7-2-.6-.8.1-1.1.6-.8 1.1l.8 1.1c.4.5 1.3.7 2 .6z" fill="#fabe78"/><path d="m36.4 41.6 1.2-1c.1-.1.1-.3-.1-.5s-.5-.2-.6-.1l-1.2 1c-.1.1-.1.3.1.5s.5.2.6.1z" fill="#f6921e"/><path d="m39.9 44.7c.8-.1 1.1-.6.8-1.1l-.7-1c-.3-.5-1.2-.7-2-.6-.8.1-1.1.6-.8 1.1l.8 1.1c.2.4 1.1.7 1.9.5z" fill="#fabe78"/><path d="m38 44.6 1.2-1c.1-.1.1-.3-.1-.5s-.5-.2-.6-.1l-1.2 1c-.1.1-.1.3.1.5s.5.2.6.1z" fill="#f6921e"/><path d="m35.6 36.8h.7v9.6h-.7z" fill="#b96e16" transform="matrix(.9043 -.4269 .4269 .9043 -14.3132 19.3177)"/><path d="m24.6 17.9c.1 0 .1-.1.1-.2.5.8 1 1.3 1.4 1.1s.3-1.2-.2-2.4c-.5-1.1-1.3-1.9-1.7-1.7-.3.1-.3.7-.1 1.4-.1-.2-.3-.3-.4-.3-.1.1-.1.4.1.7l.4.8c0 .4.3.6.4.6z" fill="#404041"/><path d="m26.9 20.3c-.1 0-.1 0-.1 0-.2.1-.1.7.2 1.6-.1.1-.2.3-.1.5l.2.5c.1.2.3.4.4.3.4.7.8 1.2 1 1.3h.1c.3-.1.1-1.1-.4-2.3-.4-1.1-1-1.8-1.3-1.9z" fill="#fccf8c"/><path d="m29.4 25.8c-.3.1-.1 1.3.5 2.7-.2 0-.3 0-.5.1-.3.2-.5.5-.4.7l.2.5c.1.2.5.3.8.1.2-.1.3-.2.4-.3.6 1.3 1.3 2.1 1.6 2s0-1.6-.7-3.1c-.8-1.7-1.6-2.8-1.9-2.7z" fill="#fccf8c"/><path d="m21.6 6-.5.2 12.9 28.5.5-.2z" fill="#faaf40"/><path d="m35.8 24.9 1.7 3.4-1.8.8-1.7-3.4zm1.3 7.3-1.2-2.5 1.8-.8 1.2 2.5zm10.2 16.2.4-.2-13.7-28.1-.4.2 2 4-1.9.9-9.6-20.2-.4.2 13.5 28.2.4-.2-.2-.5 1.9-.9z" fill="#faaf40"/><path d="m44.9 46.7c-.7-.1-1.3.3-1.2.9l.1 1.4c0 .6.7 1.1 1.4 1.2.7.1 1.3-.3 1.2-.9l-.1-1.4c0-.6-.7-1.1-1.4-1.2z" fill="#fabe78"/><path d="m46.5 47.3-1.5.7c-.2.1-.2.3-.1.6.1.2.3.3.5.3l1.5-.7c.2-.1.2-.3.1-.6-.1-.2-.4-.3-.5-.3z" fill="#f6921e"/><path d="m42.9 42.6c-.7-.1-1.3.3-1.2.9l.1 1.4c0 .6.7 1.1 1.4 1.2.7.1 1.3-.3 1.2-.9l-.1-1.4c-.1-.5-.7-1.1-1.4-1.2z" fill="#fabe78"/><path d="m44.4 43.3-1.5.7c-.2.1-.2.3-.1.6.1.2.3.3.5.3l1.5-.7c.2-.1.3-.4.2-.6-.1-.3-.4-.4-.6-.3z" fill="#f6921e"/><path d="m40.6 37.8c-.7-.1-1.3.3-1.2.9l.1 1.4c0 .6.7 1.1 1.4 1.2.7.1 1.3-.3 1.2-.9l-.1-1.3c-.1-.6-.7-1.2-1.4-1.3z" fill="#fabe78"/><path d="m42.1 38.5-1.5.7c-.2.1-.2.3-.1.6.1.2.3.3.5.3l1.5-.7c.2-.1.3-.4.2-.6-.1-.3-.4-.3-.6-.3z" fill="#f6921e"/><path d="m38.8 34c-.7-.1-1.3.3-1.2.9l.1 1.4c0 .6.7 1.1 1.4 1.2.7.1 1.3-.3 1.2-.9l-.1-1.4c-.1-.5-.7-1.1-1.4-1.2z" fill="#fabe78"/><path d="m40.3 34.7-1.5.7c-.2.1-.2.3-.1.6.1.2.3.3.5.3l1.5-.7c.2-.1.2-.3.1-.6-.1-.2-.3-.4-.5-.3z" fill="#f6921e"/><path d="m31.6 18-.1.1c-.5-.8-1-1.4-1.2-1.3-.3.1-.1 1.2.4 2.3s1.2 1.9 1.5 1.8c.2-.1.1-.8-.2-1.7.1 0 .1.1.2 0 .1 0 .1-.3 0-.5l-.2-.4c-.1-.2-.3-.3-.4-.3z" fill="#fabe78"/><path d="m30.2 16.6c.2-.1.1-.9-.2-1.8.1.1.1.1.2.1s.1-.3 0-.5l-.2-.5c-.1-.2-.3-.3-.4-.3 0 0-.1.1-.1.2-.5-.8-.9-1.3-1.2-1.2s-.1 1.2.4 2.3c.6 1.1 1.3 1.9 1.5 1.7z" fill="#fabe78"/><path d="m10.1 3c-.8-.1-1.9.2-3 .7-1.9.8-3.1 2.1-2.7 2.8 0 0-2.4 1.3-2.3 1.5s.9 0 1.8-.5l1.2-.5c.8.1 1.9-.1 3.2-.7.8-.4 1.4-.8 1.9-1.2l.3-.1c.9-.4 1.5-1.2 1.3-1.7s-.9-.6-1.7-.3z" fill="#404041"/><path d="m9.6 5.3c-.2.1-.3.3-.3.4-.1 0-.2.1-.2.1l-2.1 1c-.1.1-.2.1-.1.2h.2l2.1-1h.2c0 .1.3 0 .6 0 .3-.1.6-.2.6-.3s-.1-.1-.3 0c.2-.1.3-.2.3-.3s-.2 0-.4 0c.1-.3.1-.4.1-.4-.1-.1-.4.1-.7.3z" fill="#bb8330"/><path d="m6.3 4.1c-.1-.1-.5 0-.5.2-.1.4.9 2.5 1.2 2.8.1.1.5-.2.5-.2s-.9-2.7-1.2-2.8z" fill="#fccf8c"/><path d="m7.6 3.3c-.1 0-.4.1-.5.3-.2.5 1.2 3 1.2 3s.5-.1.5-.2c.1-.7-.7-2.8-1.2-3.1z" fill="#fccf8c"/><path d="m7.2 6.8c.1.2.4.2.6.1l.5-.3c.2-.1.3-.4.2-.5 0-.2-.3-.2-.5-.1l-.5.3c-.3.1-.4.3-.3.5z" fill="#faaf40"/><path d="m48.4 33.4c-.1 0-.1.1 0 0-.1.1-.1.1 0 0-1.4 1.2-3 1.6-3.6 1-.6-.7 0-2.1 1.3-3.3 1.2-1 2.5-1.4 3.2-1.1l.1-.1c1.3-1.1 2.9-1.6 3.5-.9s0 2.1-1.3 3.3c-1.2 1.1-2.5 1.5-3.2 1.1z" fill="#fde9d2"/><path d="m51.8 42.6c-1.7.8-2.7 2.2-2.3 3.2l1.1 2.3c.5 1 2.2 1.1 3.9.4.8-.4 1.5-.9 1.9-1.5s.5-1.2.3-1.7l-1-2.3c-.4-1-2.2-1.2-3.9-.4zm4 2.7c.2.3.1.7-.2 1.1s-.7.8-1.3 1c-1.1.5-2.3.4-2.6-.2l-.7-1.6c-.3-.7.4-1.6 1.5-2.2 1.1-.5 2.3-.4 2.6.2z" fill="#fabe78"/><path d="m52.4 43.4c-1.2.6-2 1.6-1.7 2.3l.8 1.7c.3.7 1.6.8 2.9.2 1.2-.6 2-1.6 1.7-2.3l-.8-1.7c-.4-.7-1.7-.8-2.9-.2z" fill="#f8a84b"/><path d="m53 46.1c.2-.2.4-.3.4-.4.1-.1.1-.1.1-.2l2-.9c.1 0 .2-.1.2-.1s-.1 0-.2 0l-2 .9c-.1 0-.1 0-.2 0 0-.1-.3-.1-.6 0s-.6.2-.6.3.1.1.3.1c-.2.1-.3.2-.3.3s.2.1.4 0c-.1.1-.2.2-.1.3.1 0 .4-.1.6-.3z" fill="#f6921e"/><path d="m54.2 44.7c-.3.1-.4.3-.4.4l.1.3c.1.1.3.1.6 0 .3-.1.4-.3.4-.4l-.1-.3c0-.1-.3-.1-.6 0z" fill="#b96e16"/><path d="m55.2 45.7c-.1-.1-.3-.1-.4-.1 0 0-.1 0-.1-.1l-.5-1c.1-.1.2-.2.2-.2l-.1-.1c0-.1-.2-.1-.3 0s-.2.2-.2.2l.1.1s.1.1.2 0l.5 1s0 .1-.1.1-.2.2-.2.4.1.3.2.3.1-.1.2-.2c.1.1.2.1.3.1s.1-.1.1-.3h.3s-.1-.1-.2-.2z" fill="#bbbdbf"/><path d="m49.2 36.3c-1.7.8-2.7 2.2-2.3 3.2l1.1 2.3c.5 1 2.2 1.1 3.9.4.8-.4 1.5-.9 1.9-1.5s.5-1.2.3-1.7l-1.1-2.3c-.4-1-2.1-1.2-3.8-.4zm3.9 2.7c.2.3.1.7-.2 1.1s-.7.8-1.3 1c-1.1.5-2.3.4-2.6-.2l-.7-1.6c-.3-.7.4-1.6 1.5-2.2 1.1-.5 2.3-.4 2.6.2z" fill="#fabe78"/><path d="m49.7 37c-1.2.6-2 1.6-1.7 2.3l.8 1.7c.3.7 1.6.8 2.9.2 1.2-.6 2-1.6 1.7-2.3l-.8-1.7c-.3-.6-1.6-.7-2.9-.2z" fill="#f8a84b"/><path d="m50.4 39.8c.2-.2.4-.3.4-.4.1-.1.1-.1.1-.2l2-.9c.1 0 .2-.1.2-.1s-.1 0-.2 0l-2 .9c-.1 0-.1 0-.2 0 0-.1-.3-.1-.6 0s-.6.2-.6.3.1.1.3.1c-.2.1-.3.2-.3.3s.2.1.4 0c-.1.1-.2.2-.1.3 0 0 .3-.1.6-.3z" fill="#f6921e"/><path d="m51.6 38.4c-.3.1-.4.3-.4.4l.1.3c.1.1.3.1.6 0 .3-.1.4-.3.4-.4l-.1-.3c-.1-.1-.4-.1-.6 0z" fill="#b96e16"/><path d="m52.5 39.4c-.1-.1-.3-.1-.4-.1 0 0-.1 0-.1-.1l-.5-1c.1-.1.2-.2.2-.2l-.1-.1c0-.1-.2-.1-.3 0-.1.1-.2.2-.2.2l.1.1s.1.1.2 0l.5 1s0 .1-.1.1-.2.2-.2.4.1.3.2.3.1-.1.2-.2c.1.1.2.1.3.1s.1-.1.1-.3h.3s0-.1-.2-.2z" fill="#bbbdbf"/><path d="m47 52.8c.2.6.3 1.3.2 2-.2 1.5-1.1 2.6-1.9 2.4l-2-.5c-.9-.2-1.4-1.6-1.2-3.1s1.1-2.6 1.9-2.4l2 .5c.4.1.8.5 1 1.1z" fill="#fabe78"/><path d="m42.1 55.8 2.7-1.2c.3-.1.4-.5.3-.8s-.5-.4-.8-.3l-2.7 1.2c-.3.1-.4.5-.3.8s.5.5.8.3z" fill="#f6921e"/><path d="m42.1 55.2 1.2 1.2c.3.3.5.5.6.8s.1.5 0 .6c-.2.3-.8.1-1.4-.4l-1.2-1.2c-.5-.5-.8-1.1-.5-1.4.1-.2.8-.1 1.3.4z" fill="#f8a84b"/></svg>