<svg enable-background="new 0 0 60 60" height="60" viewBox="0 0 60 60" width="60" xmlns="http://www.w3.org/2000/svg"><path d="m12.6 4.4 5.7-.2c2-.3 3.3-.8 3.3-.8 5.5-2.4 4.6 3.2 4.6 3.2l-.4 6.6c-.2 0-.4.1-.6.3s-.4.6-.4 1.1l-.4 6.9c0 .6.2 1.7.9 2.3l-1.6 27s-.6 9.4 7.6 9.4c8.5 0 7.7-9 7.7-9v-10.9c0-4.9 3.7-6.3 5.8-6.6 1.2.7 2.1 1 2.5.6.7-.7-.9-3.6-3.7-6.4-2.7-2.8-5.5-4.5-6.2-3.7-.3.3-.2.9.2 1.8-.3.6-.7 1-.7 1-4.8 6.8-4.3 13-4.3 13v7.7s0 1.7-.7 2.2v-31.6c0-.1 0-1.3-.7-2.2-.3-.4-.8-.6-1.3-.7v-.1h.1c.5 0 1-.5 1-1.2s-.4-1.2-1-1.2c-.1 0-.1 0-.2 0l-.1-6.8c.1-9.6-8.2-5.1-8.2-5.1-1 .5-2.2.9-3.1 1.1l-3.4.7zm27 22.7c.3-.3 1.7.5 3 1.9s2.2 2.7 1.9 3-1.6-.5-3-1.9c-1.4-1.3-2.2-2.7-1.9-3zm-8.3-8.9v31.8c-1.1-.1-1-2.3-1-2.3v-.5c.4-.3.7-.8.7-1.5s-.3-1.2-.8-1.5v-1.4c.4-.2.6-.7.6-1.3s-.3-1-.7-1.3v-1.5c.4-.2.6-.7.6-1.2s-.3-1-.7-1.3v-1.2c.4-.2.7-.7.7-1.3s-.3-1.1-.8-1.4v-1.7c.5-.1.9-.6.9-1.2s-.4-1.2-.9-1.2v-1.4c.5 0 .9-.6.9-1.2 0-.7-.4-1.2-.9-1.2v-1.4c.5 0 1-.5 1-1.2s-.4-1.2-.9-1.2v-1.4h.1c.5 0 1-.5 1-1.2s-.4-1.2-1-1.2h-.1v-.8c.4.1.7.2.9.5.4.7.4 1.8.4 1.7zm-5.5-4.6-.5 9.4c-.4-.6-.4-1.6-.4-1.6l.4-6.9c0-.4.1-.6.2-.8.1-.1.2-.1.3-.1z" fill="#af8424"/></svg>