<svg enable-background="new 0 0 60 60" height="60" viewBox="0 0 60 60" width="60" xmlns="http://www.w3.org/2000/svg"><path d="m25.4 30s-1.3.5-2.2-.6.2-2.3.2-3.5-.7-2.2-2.6-1.6c-1.8.6-2.8 2.4-3.6 4.1-1 2.1-.9 4.3-4.5 4.4-3.8.1-6.2.9-8.7 3.3-3.4 3.2-4.4 6.9-3.4 10.9 1 3.9 5.9 10.9 12.6 12.7s12.6-4.4 12.5-12c0-5 1.8-4.6 3.9-5.7 2.3-1.2 5.2-2.9 4.4-5.7-.5-1.9-1.9-1.3-2.9-1-1.8.7-3.2-.5-3-1.9.1-.8.5-1.4.5-1.4z" fill="#ff5a00"/><path d="m22.5 44.2s-.5.1-.5-.4c.1-.5.9-.4.8.3-.3 2.7-1.1 2.7-1.2 4.7 0 .1.1.2 0 .3-.6.5-2.1 1.5-2.5 4.2.6-.3 1.1.4.7 1-.4.5-1 .2-1.2-.1-.7-.9 1.2-3.3 1.2-5.5 0-.2.1-.2.2-.2 1-.8 1.9-1.7 2.5-4.3zm-8.1-8.1s-.1.5.4.5.4-.9-.3-.8c-2.6.3-2.7 1.1-4.7 1.2-.1 0-.2-.1-.3 0-.5.6-1.5 2.1-4.2 2.5.3-.6-.4-1.1-1-.7-.5.4-.2 1 .1 1.2.9.7 3.2-1.3 5.5-1.2.2 0 .1-.1.2-.2.8-1 1.7-1.9 4.3-2.5zm-2.1 5c.2-.2.5-.4.6-.3l4.6 4.6c.1.1-.1.3-.3.6s-.5.4-.6.3l-4.6-4.6c0-.1.1-.4.3-.6zm2.3-1.6c.2-.2.5-.2.7 0l3.4 3.3c.2.2.2.5 0 .7s-.5.2-.7 0l-3.3-3.3c-.3-.2-.3-.5-.1-.7zm1.2-1.3 1.8-1.8c.1-.1.2-.1.3 0l4 4c.1.1.1.2 0 .3l-1.9 1.8c-.1.1-.2.1-.3 0l-3.9-4c-.1-.1-.1-.2 0-.3z" fill="#fff"/><path d="m16.3 38.6 1.6-1.7h.2l3.2 3.2v.2l-1.7 1.7s-.1 0-.2 0l-3.2-3.2c0-.1 0-.2.1-.2z" fill="#ff5a00"/><g fill="#fff"><circle cx="17.1" cy="38.6" r=".2"/><circle cx="17.5" cy="39.1" r=".2"/><circle cx="18" cy="39.6" r=".2"/><circle cx="18.6" cy="40.1" r=".2"/><circle cx="19.1" cy="40.6" r=".2"/><circle cx="19.6" cy="41.1" r=".2"/><path d="m21 32.9 1.8-1.8c.1-.1.2-.1.3 0l3.9 4c.1.1.1.2 0 .3l-1.8 1.8c-.1.1-.2.1-.3 0l-3.9-4c-.1-.1-.1-.2 0-.3z"/></g><path d="m21.5 33.3 1.6-1.6h.2l3.2 3.2c.1 0 .1.1 0 .2l-1.6 1.7c-.1 0-.1 0-.2 0l-3.2-3.2c0-.1 0-.2 0-.3z" fill="#ff5a00"/><g fill="#fff"><circle cx="23.2" cy="32.5" r=".2"/><circle cx="23.7" cy="32.9" r=".2"/><circle cx="24.2" cy="33.4" r=".2"/><circle cx="24.7" cy="34" r=".2"/><circle cx="25.2" cy="34.4" r=".2"/><circle cx="25.6" cy="34.9" r=".2"/><circle cx="16.9" cy="51.7" r=".8"/><circle cx="21.4" cy="52.3" r=".8"/><circle cx="18.4" cy="48.9" r=".6"/></g><circle cx="18.4" cy="48.9" fill="#ff5a00" r=".3"/><path d="m18.3 49-.6-.2s-.2-.1-.2-.3c.1-.2.4-.1.4-.1l.5.4s.1.1.1.1c-.1.1-.2.1-.2.1z" fill="#fff"/><path d="m17.6 48.7s-.1-.1 0-.2c0-.1.1-.1.1-.1.1 0 .2.1.2.1l.5.4v.2c0 .1-.1.1-.2.1l-.6-.2c.1-.2 0-.2 0-.3zm.8.1-.5-.4s-.1-.1-.2 0c0 0-.1 0-.1.1v.2s.1.1.1.1l.6.2c.1 0 .1 0 .1-.2.1.1.1.1 0 0zm-3.3-8.7c.1-.1.2-.1.2 0l.2.2c.1.1.1.2 0 .2-.1.1-.1.1-.2 0l-.2-.2c0-.1 0-.2 0-.2zm.5.5c.1-.1.2-.1.2 0l.2.2c.1.1.1.2 0 .2s-.1 0-.2 0l-.2-.2c0-.1 0-.2 0-.2zm.5.4c.1-.1.2-.1.2 0l.2.2c.1.1.1.2 0 .2 0 .1-.1.1-.2 0l-.2-.2s0-.1 0-.2zm.5.6c.1-.1.2-.1.2 0l.2.2v.2c-.1 0-.1 0-.2 0l-.2-.2c0-.1 0-.2 0-.2zm.6.5c.1-.1.2-.1.2 0l.2.2v.2c-.1.1-.2.1-.2 0l-.2-.2c-.1-.1-.1-.2 0-.2zm.4.5c.1-.1.2-.1.2 0l.2.2c.1 0 .1.1 0 .2-.1 0-.1 0-.2 0l-.2-.2z" fill="#ff5a00"/><circle cx="14.9" cy="39.8" r=".1"/><circle cx="18.4" cy="43.3" r=".1"/><path d="m16 45.3-2.9-2.9c-.1-.1-.1-.2 0-.3l.2-.2c.1-.1.2-.1.3 0l2.9 2.9c.1.1.1.2 0 .3l-.2.2c-.1 0-.2 0-.3 0zm-2.4-3.4c-.1-.1-.2-.1-.2 0l-.2.2c-.1.1-.1.2 0 .2l2.9 2.9c0 .1.1.1.2 0l.2-.2c.1-.1.1-.2 0-.2z"/><circle cx="12.8" cy="41.5" r=".4"/><circle cx="16.8" cy="45.5" r=".4"/><circle cx="14.7" cy="56" fill="#fff" r=".8"/><circle cx="19.1" cy="56.4" fill="#fff" r=".8"/><g fill="#ff5a00"><path d="m15.1 40.1c.1-.1.2-.1.2 0l.2.2c.1.1.1.2 0 .2-.1.1-.1.1-.2 0l-.2-.2c0-.1 0-.2 0-.2zm.5.5c.1-.1.2-.1.2 0l.2.2c.1.1.1.2 0 .2s-.1 0-.2 0l-.2-.2c0-.1 0-.2 0-.2zm.5.4c.1-.1.2-.1.2 0l.2.2c.1.1.1.2 0 .2 0 .1-.1.1-.2 0l-.2-.2s0-.1 0-.2zm.5.6c.1-.1.2-.1.2 0l.2.2v.2c-.1 0-.1 0-.2 0l-.2-.2c0-.1 0-.2 0-.2zm.6.5c.1-.1.2-.1.2 0l.2.2v.2c-.1.1-.2.1-.2 0l-.2-.2c-.1-.1-.1-.2 0-.2zm.4.5c.1-.1.2-.1.2 0l.2.2c.1 0 .1.1 0 .2-.1 0-.1 0-.2 0l-.2-.2z"/><circle cx="14.9" cy="39.8" r=".1"/><circle cx="18.4" cy="43.3" r=".1"/><path d="m16 45.3-2.9-2.9c-.1-.1-.1-.2 0-.3l.2-.2c.1-.1.2-.1.3 0l2.9 2.9c.1.1.1.2 0 .3l-.2.2c-.1 0-.2 0-.3 0zm-2.4-3.4c-.1-.1-.2-.1-.2 0l-.2.2c-.1.1-.1.2 0 .2l2.9 2.9c0 .1.1.1.2 0l.2-.2c.1-.1.1-.2 0-.2z"/><circle cx="12.8" cy="41.5" r=".4"/><circle cx="16.8" cy="45.5" r=".4"/><path d="m23.8 31.7 2.8 2.8s22.8-23.4 23.3-23.9 2-1.6 3.1-1.2c1.2-1.4 3.2-3.2 6.8-5.3 0 0-.3-.2-.7-.5-.4-.4-.4-.8-.5-1.1-.3-.6-.6-.5-.6-.5s-.1-.5-.7-.7-1.3-.3-1.6-.9c-.1 0-1.9 1.9-3.5 3.3s-2.6 2.1-2.9 2.3c-.1.1.3.7-1.7 2.4-1.7 1.5-23.8 23.3-23.8 23.3z"/></g><path d="m23.7 31.7c.3-.3 22.1-21.9 23.8-23.4 1.7-1.4 1.7-2.1 1.7-2.3 0-.1 0-.1 0-.1.4-.3 1.3-.9 2.9-2.3 1-.8 2-1.8 2.7-2.5.6-.6.8-.8.9-.8.1.1.1.2.2.3.2.2.6.3 1 .4.1 0 .2.1.4.1s.3.1.5.3c.1.3.2.4.2.5.1 0 .2 0 .4.2.1.1.2.2.2.3.1.1.1.2.1.3.1.2.1.5.4.8.2.2.4.3.5.4.1 0 .1.1.1.1-3.2 1.9-5.5 3.7-6.8 5.3-1.1-.4-2.6.7-3 1.2-.5.5-23 23.7-23.3 23.9zm25.6-25.7c0 .3 0 1-1.7 2.4s-22.8 22.3-23.8 23.3l2.7 2.7c1-1 22.7-23.4 23.3-23.9.5-.5 1.9-1.6 3.1-1.2 1.4-1.7 3.7-3.5 6.8-5.3 0 0 0 0-.1-.1s-.3-.2-.5-.4c-.3-.3-.4-.5-.4-.8 0-.1-.1-.2-.1-.3-.1-.1-.1-.2-.2-.3-.2-.1-.4-.1-.4-.1s-.1-.2-.2-.4c-.1-.1-.2-.2-.4-.2-.1 0-.2-.1-.4-.1-.4-.1-.8-.2-1-.4-.1-.1-.2-.2-.2-.3-.1.1-.4.4-.8.8-.7.7-1.7 1.7-2.7 2.5-1.7 1.2-2.6 1.8-3 2.1z" fill="#fff"/><path d="m55.9 7.4c.1.1.1 0 .2 0v.2c-.1.4.3.6.4.8s.1.1.3 0 .2-.1.4-.2c.2-.2.1-.2.3-.4s.1-.2-.1-.3c-.3-.1-.4-.4-.8-.4-.2 0-.2.1-.2 0 0 0 0-.1 0-.2-.2-.1-.7.4-.5.5zm-.3-.6.4.4.1-.1-.4-.3zm-1.5 2.2c.1.1.2 0 .2 0v.2c0 .3.3.5.4.7s.1.1.3 0 .2-.1.4-.3.2-.2.3-.4c.2-.2.1-.2-.1-.3-.3-.1-.4-.4-.8-.4-.2 0-.2.1-.2 0 0 0 0-.1 0-.2-.1.1-.6.6-.5.7zm-.3-.6.4.4.1-.1-.3-.4zm4.1-2.5c.1.1.2 0 .2 0v.2c0 .3.3.5.4.7s.1.1.3 0 .2-.1.4-.2c.2-.2.2-.3.3-.4.2-.2.1-.2-.1-.3-.3.1-.4-.3-.8-.3-.2 0-.2.1-.2 0 0 0 0-.1 0-.2-.2-.1-.7.4-.5.5zm-.3-.6.4.4.1-.1-.4-.4zm-5.5-2.5c-.1-.1-.1 0-.2 0 0 0 0-.1 0-.2 0-.3-.4-.5-.4-.7-.1-.2-.1-.1-.3 0-.2 0-.2-.1-.4.1s-.2.3-.3.4c-.2.2-.1.2.1.3.3.1.4.4.8.4.2 0 .2-.1.2 0v.2c.2.1.7-.4.5-.5zm.3.6-.4-.4-.1.1.4.3zm1.5-2.3c-.1-.1-.1 0-.2 0 0 0 0-.1 0-.2 0-.3-.4-.5-.4-.8-.1-.2-.1-.1-.3 0s-.2.1-.4.2c-.2.2-.1.2-.3.4s-.1.3 0 .3c.3.1.4.4.8.4.2 0 .2-.1.2 0v.2c.2.2.7-.3.6-.5zm.3.7-.4-.4-.1.1.3.4zm-3.9 2.5c-.1-.1-.1 0-.2-.1 0 0 0-.1 0-.2 0-.3-.3-.5-.4-.7s-.1-.1-.3 0-.2.1-.4.2c-.2.2-.2.3-.3.4-.2.2-.1.2.1.3.3.1.4.4.8.4.2 0 .2-.1.2 0v.2c.1.2.6-.3.5-.5zm.3.7-.4-.4-.2.1.4.3z" fill="#ff5a00"/><path d="m47.5 8.4.2-.2 2.2 2.2v.1l-.2.2-2.2-2.3c-.1.1-.1.1 0 0zm-1.9 2 .2.2.2.1.1.1.1.1.2.1.2.2.2.2.1.1.1.1.1.1.1.1.1.1.1.1.2.1.1.1s.1.1.1 0v-.1l-.1-.1-.1-.1-.2-.1v.2l-.2-.1-.1-.1-.1-.3-.1-.1-.2-.2-.3-.2-.1-.1-.1-.1-.2-.2-.1-.1-.2-.1-.1-.1s-.1-.1-.1 0 0 .1.1.1zm-1.7 1.7.2.2.1.1.1.1.2.2.3.3.3.3.2.2.1.1.2.1.1.1.2.1.1.1.1.1h.1v-.1l-.1-.1h-.1l-.2-.1-.1-.1-.2-.1-.1-.1-.2-.2-.3-.3-.3-.3-.2-.2-.1-.1-.1-.1-.2-.2h-.1c0-.1 0-.1 0-.1-.1 0-.1 0 0 .1zm-1.6 1.6.1.1.1.1.2.1.2.1.2.1.1.1.2.2.3.3.2.2.1.1.2.1.2.1.2.1.2.1.1.1h.1v-.1l-.1-.1-.2-.1-.2-.1-.2-.1h-.3l-.1-.1-.2-.2-.3-.3-.2-.2-.2-.1-.1-.1-.2-.1-.2-.1-.1-.1-.1-.1h-.1c0-.1 0-.1.1 0zm-1.5 1.5.2.2.2.2.1.1.2.1.1.1.2.2.3.3.3.3.2.2.2.1.2.1.2.1.1.1h.1v-.1l-.1-.1h-.3l-.2-.1-.2-.1-.2-.2-.3-.3-.3-.3-.2-.2-.2-.1-.1-.1-.2-.1-.2-.1-.2-.1.1-.2c0-.1 0-.1 0 0-.1-.1-.1 0 0 0zm-1.5 1.3.1.1.1.1.1.1.1.1.2.1.1.1.1.1.2.2.2.2.1.1.1.1.2.1.1.1.1.1.1.1.1.1.1.1.1.1.1.1h.1v-.1l-.1-.1-.1-.1-.1-.1-.1-.1-.1-.1-.1-.1-.2-.1-.1-.1-.1-.1-.1-.1-.2-.2-.2-.2-.2-.1h-.1l-.2-.1-.1-.1-.1-.1-.1-.1-.1-.1h-.1c.1-.1.1 0 .1 0zm-1.3 1.4.1.1.3.3.3.3.2.2.2.1.2.1.2.1.1.1.2.1.2.1.2.2.2.2.2.2.1.1h.1v-.1l-.1-.1-.2-.2h-.5l-.2-.2-.2-.1-.2-.1-.2-.1v-.2l-.2-.1-.1-.1-.2-.2-.3-.3-.3-.3-.1-.1c0-.1 0-.1 0 0-.1-.1-.1 0 0 0zm-1.3 1.2.1.1.3.3.3.3.2.2.2.1.2.1.2.1.1.1.2.1.2.2.2.2.2.2.1.1.1.1h.1v-.1l-.1-.1-.1-.1-.2-.2-.2-.2-.2-.1-.2-.1-.2-.1-.2-.1-.1-.2-.1-.1-.2-.2-.3-.3-.3-.3-.2-.1h-.1zm-1.2 1.2.2.1.3.3.3.3.2.2.2.1.2.1.1.1.2.1.2.1.2.1.2.2.2.2.1.1.1.1h.1v-.1l-.1-.1-.1-.1-.2-.2-.5.1-.2-.1-.2-.2-.2-.1-.2-.2-.2-.1-.2-.1-.2-.2v-.4l-.3-.3-.1-.1h-.1c-.1 0-.1 0 0 .1zm-1.2 1.1.2.2.3.3.3.3.2.2.2.1.1.1.2.1.2.1.2.2.2.2.2.2.2.2.2.2.1.1h.1v-.1l-.1-.1-.2-.2-.2-.2-.2-.2-.4-.1-.1-.2-.2-.1-.2-.1-.2-.1-.1-.1-.2-.4-.3-.3-.3-.3-.1-.1h-.1s0 0 0 .1zm-1 1.1.2.2.2.2.3.3.2.2.2.1.2.1.2.1.2.2.2.2.2.2.2.2.2.2.1.1.1.1h.1v-.1l-.1-.1-.1-.1-.2-.2-.2-.2-.2-.2-.2-.2-.2-.2-.2-.1-.2-.1-.1-.1-.2-.2-.3-.3-.2-.2-.2-.2-.1-.1h-.1zm-1.1.9.2.2.2.2.3.3.2.2.2.1.2.2.2.2.2.2.2.2.2.2.2.2.1.1.1.1.1.1.1.1h.1v-.1l-.1-.1-.1-.1-.1-.1-.1-.1-.2-.2-.2-.2-.2-.2-.2-.2-.2-.2-.1-.1-.2-.1-.2-.2-.3-.3-.2-.2-.2-.1-.1-.1c.1-.1 0-.1-.1 0 0 0 .1 0 0 0zm-.9 1 .2.2.2.2.3.3.2.2.1.2.2.1.1.2.2.2.2.2.2.2.2.2.1.1.1.1.1.1.1.1h.1v-.1l-.1-.1-.1-.1-.1-.1-.1-.1-.2-.2-.2-.3-.1-.1-.2-.1-.2-.2-.2-.2-.2-.1-.1-.3-.3-.3-.2-.2-.2-.1-.1-.1h-.1s0 0 .1.1zm-.9.9.2.2.2.2.3.3.2.2.1.2.1.1.1.1.1.2.2.2.2.2.2.2.1.1.1.1.1.1.1.1s.1.1.1 0v-.1h-.1l-.1-.1-.1-.1-.1-.1-.1-.1-.2-.2-.2-.2-.2-.2-.2-.2-.1-.1-.2-.1-.1-.2-.2-.2-.3-.3-.2-.2-.1-.1h.1c0-.1-.1-.1-.1-.1s0 0 .1.1zm-.9.8.2.2.2.2.3.3.2.2.1.2.1.2.2.2.2.2.2.2.2.2.2.2.1.1.1.1.1.1.1.1h.1v-.1-.1l-.1-.2-.1-.1-.1-.1-.1-.1-.1-.1-.2-.2-.2-.1-.1-.2-.2-.2-.1-.2-.2-.1-.2-.2-.3-.3-.2-.2-.1-.1-.3-.1c.1-.1 0-.1 0 0 0-.1 0 0 0 0zm-.7.8.2.2.1.2.1.1.1.2.1.1.1.2.1.2.1.2.2.2.2.2.2.2.2.2.1.1.1.1.1.1.1.1.1.1.1.1h.1v-.1l-.1-.1-.1-.1-.1-.1.1-.3-.1-.1-.1-.1-.2-.2-.2-.2-.2-.2-.2-.2-.2-.2-.1-.2-.1-.2-.1-.1-.1-.1-.3-.2-.2-.2-.1-.1s-.1-.1-.1 0 0 .1.1.2zm-.8.7.1.1.1.2.1.1.1.2.1.1.1.2.1.1.1.2.2.2.1.2.2.2.2.2.2.2.1.1.1.1.1.1.1.1.1.1.1.1h.1v-.1l.1-.3-.1-.1-.1-.1-.1-.1-.1-.1h-.1l-.2-.2-.2-.2-.1-.2-.1-.2-.1-.2-.2-.2-.2-.1-.1-.2-.2-.1-.1-.2-.2-.1-.2-.1h-.1c0-.1-.1-.1 0 0-.1 0-.1 0 0 0zm-.8.7.1.2.3.3.3.3.2.2.2.1.1.2.2.2.2.2.2.2.2.2.2.2.2.2.1.1.1.1h.1s0-.1 0-.1h-.1l-.1-.1-.1-.1-.2-.2-.2-.2-.1-.3-.1-.1-.2-.2-.2-.2-.2-.2-.1-.1-.2-.2-.3-.3-.3-.3-.3-.1c.1-.1 0-.1 0-.1zm-.6.7.1.2.3.3.3.3.2.2.1.2.2.2.2.2.2.2.2.2.2.2.2.2.2.2.1.1.1.1h.1v-.1-.1l-.1-.1-.1-.1-.2-.2-.2-.2-.2-.2-.2-.2-.2-.2-.1-.2-.1-.2-.2-.2-.2-.2-.3-.3-.3-.3-.2-.1s-.1 0-.1.1c0-.1 0 0 0 0zm-.6.6.2.2.3.3.3.3.2.2.2.2.2.2.2.2.2.2.2.2.2.2.2.2.2.2.1.1.1.1h.1v-.1l-.4-.3-.1-.1-.2-.2-.2-.2-.2-.2-.2-.2-.1-.1-.2-.2-.2-.2-.1-.2-.2-.2-.3-.2-.3-.3-.2-.2h-.1s0 .1.1.1zm-.7.6.1.1.1.2.2.2.3.3.2.2.1.2.2.2.2.1.2.2.2.2.2.2.2.2.1.1.1.1.1.1.1.1h.1v-.1h-.1l-.1-.1-.1-.1-.1-.1-.1-.1-.2-.2-.1-.2-.2-.2-.2-.2-.2-.2-.2-.2-.2-.2-.2-.2-.3-.3-.2-.2-.2-.1-.1-.1h-.1s.1.1.2.1zm-.5.6.2.2.2.2.3.3.2.2.3.3.2.2.2.2.2.2.2.2.2.2.1.1.1.1.1.1.1.1h.1v-.1l-.1-.1-.1-.1-.1-.1-.1-.1-.2-.2-.2-.2-.2-.2-.2-.2-.1-.1-.2-.2-.1-.2-.2-.2-.3-.3-.2-.2-.2-.1-.1-.1c-.1 0-.1-.1-.1.1-.1-.1 0 0 0 0zm-.6.5.2.2.2.2.3.3.2.2.2.2.2.2.2.2.2.2.2.2.2.2.2.2.1.1.1.1.1.1.1.1h.1v-.1l-.1-.1-.1-.1-.1-.1-.1-.1-.2-.2-.2-.2-.2-.2-.2-.2-.2-.2-.2-.2-.2-.2-.1-.1-.3-.3-.2-.2-.2-.2-.1-.1h-.1zm19.1-17.5 1 1s.5-.4 1.1-.6l-1.4-1.5s-.2.6-.7 1.1zm-3 3 1 1s.5-.5 1.1-.6l-1.4-1.4s-.2.5-.7 1zm-2.6 2.6 1.1 1.1s.4-.3 1-.4l-1.6-1.6c-.1 0-.2.5-.5.9zm-2.4 2.4 1.1 1.1s.4-.4 1-.4l-1.6-1.6s-.1.5-.5.9zm-3.1 3 1.2 1.2s.3-.3.9-.2l-1.8-1.8s0 .4-.3.8zm-2.6 2.6 1.2 1.2s.4-.2.9-.2l-1.9-1.9s.1.5-.2.9zm-1.6 1.1 1.7 1.7s.2 0 .5-.2l-2-2c-.1.1-.1.3-.2.5zm-1.4 1.4 1.7 1.6s.2 0 .5-.1l-2-2c0 .1-.1.3-.2.5zm-1.1 1.2 1.6 1.6s.1 0 .4-.1l-2-2c.1.1 0 .2 0 .5z" fill="#fff"/><circle cx="51" cy="5.8" fill="#fff" r=".4"/><path d="m50.7 6.1c-.1-.1-.1-.4 0-.5s.4-.1.5 0 .1.4 0 .5-.3.1-.5 0zm.5-.4c-.1-.1-.3-.1-.4 0s-.1.3 0 .4.2.1.3 0c.1-.2.1-.3.1-.4z" fill="#ff5a00"/><circle cx="51" cy="5.8" fill="#ff5a00" r=".2"/><circle cx="52.8" cy="4.4" fill="#fff" r=".4"/><path d="m52.5 4.7c-.1-.1-.1-.4 0-.5s.4-.1.5 0 .1.4 0 .5-.3.1-.5 0zm.5-.5c-.1-.1-.3-.1-.4 0s-.1.3 0 .4.3.1.4 0 .1-.3 0-.4z" fill="#ff5a00"/><circle cx="52.8" cy="4.4" fill="#ff5a00" r=".2"/><circle cx="54.5" cy="2.7" fill="#fff" r=".4"/><path d="m54.3 3c-.1-.1-.1-.4 0-.5s.4-.1.5 0 .1.4 0 .5c-.2.1-.4.1-.5 0zm.4-.4c-.1-.1-.3-.1-.4 0s-.1.3 0 .4.3.1.4 0 .1-.3 0-.4z" fill="#ff5a00"/><circle cx="54.5" cy="2.7" fill="#ff5a00" r=".2"/><circle cx="56.7" cy="4.9" fill="#fff" r=".4"/><path d="m56.5 5.2c-.1-.1-.1-.4 0-.5s.4-.1.5 0 .1.4 0 .5-.4.1-.5 0zm.4-.5c-.1-.1-.3-.1-.4 0s-.1.3 0 .4.3.1.4 0 .1-.3 0-.4z" fill="#ff5a00"/><circle cx="56.7" cy="4.9" fill="#ff5a00" r=".2"/><circle cx="54.8" cy="6.4" fill="#fff" r=".4"/><path d="m54.5 6.7c-.1-.1-.1-.4 0-.5.2-.2.4-.2.5 0 .1.1.1.4 0 .5s-.3.1-.5 0zm.5-.5c-.1-.1-.3-.1-.4 0s-.1.3 0 .4.3.1.4 0 .1-.3 0-.4z" fill="#ff5a00"/><circle cx="54.8" cy="6.4" fill="#ff5a00" r=".2"/><circle cx="53" cy="8" fill="#fff" r=".4"/><path d="m52.8 8.3c-.1-.1-.1-.4 0-.5s.4-.1.5 0 .1.4 0 .5c-.2.1-.4.1-.5 0zm.4-.5c-.1-.1-.3-.1-.4 0s-.1.3 0 .4.3.1.4 0 .1-.3 0-.4z" fill="#ff5a00"/><circle cx="53" cy="8" fill="#ff5a00" r=".2"/><path d="m13.9 42 1.4-1.7 32.3-31.8 3.5-2.6.1.1-3.5 2.6-32.3 31.8-1.4 1.7zm.4.5 1.4-1.7 32.3-31.9 4.9-4.4.1.1-4.9 4.4-32.2 31.9-1.4 1.7zm.5.4 1.4-1.7 32.2-32 6.2-6.4.1.1-6.2 6.4-32.2 32zm.5.5 1.5-1.6 32.1-32.1 7.7-5v.1l-7.7 5-32 32.1-1.5 1.7zm.5.5 1.5-1.5 32-32.3 5.4-3.9v.1l-5.3 3.9-32 32.3zm.5.6 1.4-1.6 31.9-32.5 3.2-2.6-3.2 2.6-31.8 32.5z" fill="#fff"/></svg>