<svg height="60" width="60" xmlns="http://www.w3.org/2000/svg"><path d="m25.42 29.96s-1.3.5-2.2-.6.2-2.32.2-3.55c-.02-1.23-.73-2.2-2.62-1.6-1.76.57-2.83 2.4-3.65 4.15-.97 2.1-.92 4.33-4.53 4.44-3.84.1-6.23.87-8.74 3.33-3.24 3.17-4.33 6.85-3.3 10.9.98 3.94 5.88 10.9 12.62 12.67 6.7 1.75 12.6-4.4 12.54-12.05-.04-5 1.76-4.6 3.88-5.7 2.33-1.2 5.18-2.93 4.42-5.67-.5-1.86-1.86-1.34-2.88-.97-1.8.67-3.24-.55-3.02-1.9.12-.76.52-1.42.52-1.42l-3.24-2.02z"/><path d="m22.46 44.18s-.55.06-.46-.44c.1-.5.9-.4.8.34-.28 2.65-1.12 2.66-1.17 4.68 0 .14.07.17-.05.27-.6.53-2.07 1.5-2.52 4.2.6-.26 1.13.42.66 1.05-.38.52-.96.17-1.17-.1-.7-.92 1.25-3.26 1.25-5.53 0-.17.1-.15.23-.25.94-.75 1.85-1.58 2.43-4.22zm-8.06-8.05s-.05.55.45.46.4-.9-.34-.82c-2.64.3-2.65 1.13-4.67 1.18-.14 0-.17-.07-.27.05-.53.6-1.5 2.08-4.2 2.54.26-.6-.42-1.14-1.04-.67-.52.4-.18.96.1 1.18.9.7 3.25-1.26 5.53-1.25.16 0 .14-.1.24-.23.74-.95 1.57-1.85 4.2-2.44zm-2.06 4.97c.24-.25.5-.38.58-.3l4.57 4.57c.07.08-.06.34-.3.58s-.5.37-.58.3l-4.57-4.58c-.08-.08.05-.34.3-.58zm2.26-1.6c.18-.2.5-.2.68 0l3.35 3.33c.18.2.18.5 0 .7-.2.18-.5.18-.7 0l-3.34-3.35c-.2-.2-.2-.5 0-.7zm1.16-1.3 1.8-1.8c.08-.08.22-.08.3 0l3.95 3.95c.1.08.1.2 0 .3l-1.8 1.8c-.07.08-.2.08-.3 0l-3.94-3.95c-.08-.1-.08-.22 0-.3z" fill="#fff"/><path d="m16.28 38.57 1.65-1.65c.05-.05.13-.05.2 0l3.16 3.17c.04.04.04.12 0 .17l-1.66 1.66c-.05.05-.13.05-.18 0l-3.18-3.18c-.05-.05-.05-.13 0-.18z"/><g fill="#fff"><circle cx="17.079" cy="38.6" r=".24"/><circle cx="17.54" cy="39.061" r=".24"/><circle cx="18.03" cy="39.551" r=".24"/><circle cx="18.555" cy="40.077" r=".24"/><circle cx="19.082" cy="40.604" r=".24"/><circle cx="19.574" cy="41.095" r=".24"/><path d="m21.02 32.94 1.8-1.8c.08-.08.2-.08.3 0l3.94 3.95c.1.07.1.2 0 .3l-1.8 1.8c-.08.07-.2.07-.3 0l-3.94-3.96c-.1-.08-.1-.22 0-.3z"/></g><path d="m21.54 33.3 1.65-1.64c.04-.05.12-.05.17 0l3.17 3.18c.06.05.06.13 0 .18l-1.65 1.65c-.06.05-.14.05-.2 0l-3.16-3.17c-.05-.05-.05-.13 0-.2z"/><g fill="#fff"><circle cx="23.208" cy="32.473" r=".24"/><circle cx="23.669" cy="32.934" r=".24"/><circle cx="24.16" cy="33.424" r=".24"/><circle cx="24.684" cy="33.95" r=".24"/><circle cx="25.166" cy="34.43" r=".239"/><circle cx="25.64" cy="34.904" r=".24"/><circle cx="16.906" cy="51.721" r=".841"/><circle cx="21.354" cy="52.302" r=".841"/><circle cx="18.402" cy="48.892" r=".574"/></g><circle cx="18.401" cy="48.893" r=".268"/><path d="m18.32 49-.6-.23s-.25-.07-.16-.28c.1-.25.35-.07.35-.07l.5.37s.1.07.06.14c-.05.1-.14.05-.14.05z" fill="#fff"/><path d="m17.58 48.72c-.05-.05-.1-.13-.04-.24.03-.08.08-.12.14-.13.12-.03.24.06.24.06l.5.4s.02 0 .03 0c.04.05.05.1.03.15-.05.1-.13.1-.17.07l-.6-.22s-.07-.03-.12-.08zm.84.12s-.02 0-.02 0l-.5-.4s-.1-.07-.2-.05c-.05 0-.1.04-.12.1-.03.07-.02.13.03.18s.12.07.12.07l.6.22c.02 0 .08.03.12-.04 0-.03 0-.06-.03-.1zm-3.29-8.77.03-.03c.06-.05.15-.05.2 0l.23.22c.05.06.05.15 0 .2l-.04.04c-.06.06-.15.06-.2 0l-.23-.22c-.06-.05-.06-.15 0-.2zm.49.49.03-.03c.05-.06.15-.06.2 0l.22.22c.06.06.06.15 0 .2l-.03.04c-.05.05-.15.05-.2 0l-.22-.23c-.06-.06-.06-.15 0-.2zm.48.49.04-.03c.05-.06.15-.06.2 0l.22.22c.06.06.06.15 0 .2l-.03.04c-.05.06-.15.06-.2 0l-.23-.22c-.05-.06-.05-.15 0-.2zm.52.51.03-.03c.05-.06.15-.06.2 0l.23.22c.05.06.05.15 0 .2l-.03.04c-.06.05-.15.05-.2 0l-.23-.23c-.06-.06-.06-.15 0-.2zm.54.54.03-.04c.05-.06.15-.06.2 0l.23.22c.05.06.05.15 0 .2l-.04.04c-.06.06-.16.06-.2 0l-.23-.22c-.06-.06-.06-.15 0-.2zm.49.5.03-.03c.06-.06.15-.06.2 0l.23.22c.07.04.07.14 0 .2l-.02.03c-.06.05-.15.05-.2 0l-.23-.22c-.05-.05-.05-.15 0-.2z"/><circle cx="14.862" cy="39.756" r=".137"/><circle cx="18.404" cy="43.299" r=".136"/><path d="m16.04 45.26-2.9-2.9c-.1-.1-.1-.2 0-.28l.2-.22c.08-.08.2-.08.28 0l2.9 2.9c.1.1.1.2 0 .3l-.2.2c-.08.08-.2.08-.28 0zm-2.44-3.36c-.07-.06-.16-.06-.22 0l-.22.2c-.05.07-.05.16 0 .22l2.92 2.9c.05.07.15.07.2 0l.22-.2c.06-.07.06-.16 0-.22z"/><circle cx="12.752" cy="41.48" r=".409"/><circle cx="16.796" cy="45.55" r=".409"/><circle cx="14.726" cy="55.999" fill="#fff" r=".842"/><circle cx="19.052" cy="56.438" fill="#fff" r=".841"/><path d="m15.13 40.07.03-.03c.06-.05.15-.05.2 0l.23.22c.05.06.05.15 0 .2l-.04.04c-.06.06-.15.06-.2 0l-.23-.22c-.06-.05-.06-.15 0-.2zm.49.49.03-.03c.05-.06.15-.06.2 0l.22.22c.06.06.06.15 0 .2l-.03.04c-.05.05-.15.05-.2 0l-.22-.23c-.06-.06-.06-.15 0-.2zm.48.49.04-.03c.05-.06.15-.06.2 0l.22.22c.06.06.06.15 0 .2l-.03.04c-.05.06-.15.06-.2 0l-.23-.22c-.05-.06-.05-.15 0-.2zm.52.51.03-.03c.05-.06.15-.06.2 0l.23.22c.05.06.05.15 0 .2l-.03.04c-.06.05-.15.05-.2 0l-.23-.23c-.06-.06-.06-.15 0-.2zm.54.54.03-.04c.05-.06.15-.06.2 0l.23.22c.05.06.05.15 0 .2l-.04.04c-.06.06-.16.06-.2 0l-.23-.22c-.06-.06-.06-.15 0-.2zm.49.5.03-.03c.06-.06.15-.06.2 0l.23.22c.07.04.07.14 0 .2l-.02.03c-.06.05-.15.05-.2 0l-.23-.22c-.05-.05-.05-.15 0-.2z"/><circle cx="14.862" cy="39.756" r=".137"/><circle cx="18.404" cy="43.299" r=".136"/><path d="m16.04 45.26-2.9-2.9c-.1-.1-.1-.2 0-.28l.2-.22c.08-.08.2-.08.28 0l2.9 2.9c.1.1.1.2 0 .3l-.2.2c-.08.08-.2.08-.28 0zm-2.44-3.36c-.07-.06-.16-.06-.22 0l-.22.2c-.05.07-.05.16 0 .22l2.92 2.9c.05.07.15.07.2 0l.22-.2c.06-.07.06-.16 0-.22z"/><circle cx="12.752" cy="41.48" r=".409"/><circle cx="16.796" cy="45.55" r=".409"/><path d="m23.78 31.67 2.78 2.78s22.75-23.4 23.28-23.92c.53-.53 1.97-1.58 3.06-1.2 1.17-1.43 3.23-3.21 6.85-5.33.03 0-.35-.22-.65-.5-.42-.4-.36-.77-.52-1.1-.25-.52-.6-.44-.6-.44s-.13-.5-.68-.68c-.57-.2-1.34-.23-1.58-.88-.12.04-1.92 1.9-3.54 3.3s-2.54 2.05-2.9 2.28c-.1.07.33.66-1.7 2.4-1.72 1.5-23.8 23.3-23.8 23.3z"/><path d="m23.7 31.67.04-.04c.23-.2 22.1-21.82 23.8-23.3 1.66-1.42 1.66-2.06 1.67-2.28 0-.05 0-.1.05-.13.4-.26 1.33-.9 2.9-2.28.96-.83 2-1.84 2.68-2.5.6-.6.82-.8.87-.8l.05-.02v.04c.06.13.12.23.22.32.24.25.6.34.97.43.13.04.25.08.37.12.18.05.33.14.45.26.16.16.23.33.26.4.08 0 .25.02.42.2.08.07.15.17.2.3.06.1.1.2.12.33.06.25.12.5.4.75.16.16.36.3.5.4.07.03.12.07.14.1 0 0 .02 0 .02.04l-.02.03c-3.16 1.86-5.46 3.65-6.84 5.34l-.02.03-.03-.02c-1.12-.4-2.56.72-3.02 1.18-.53.52-23.05 23.7-23.28 23.92l-.03.03-2.86-2.83zm25.6-25.67s0 .03 0 .05c0 .23 0 .9-1.68 2.36-1.68 1.45-22.78 22.3-23.77 23.27l2.7 2.7c1.02-1.02 22.74-23.36 23.26-23.88.48-.48 1.94-1.6 3.1-1.22 1.36-1.68 3.65-3.46 6.77-5.3-.02-.02-.05-.04-.1-.07-.12-.08-.33-.22-.5-.38-.3-.28-.37-.55-.43-.8-.03-.1-.06-.2-.1-.3-.06-.12-.12-.2-.2-.28-.18-.2-.35-.16-.36-.16h-.05v-.03s-.06-.22-.25-.4c-.1-.12-.24-.2-.4-.25-.1-.03-.24-.06-.36-.1-.38-.1-.76-.2-1.02-.45-.1-.08-.16-.2-.2-.3-.12.1-.44.4-.8.76-.7.67-1.73 1.68-2.7 2.52-1.56 1.36-2.48 2-2.9 2.28z" fill="#fff"/><path d="m55.86 7.44c.12.12.14-.02.2.04.03.03 0 .1 0 .2-.06.35.34.5.42.75.08.23.1.14.28.03.17-.1.23-.07.4-.25.2-.2.16-.25.3-.4.16-.16.08-.23-.08-.27-.28-.07-.38-.44-.76-.4-.17 0-.15.07-.22 0-.02 0 .04-.1-.03-.17-.16-.15-.65.34-.5.48zm-.29-.61.4.36.13-.14-.4-.35zm-1.47 2.17c.14.1.16-.03.23.04.02.02-.02.1-.03.2-.04.34.35.5.43.74s.1.14.28.04.25-.08.42-.26c.2-.2.15-.25.3-.4.15-.16.07-.24-.1-.28-.27-.06-.37-.44-.75-.4-.17.02-.15.07-.22.02-.02-.02.05-.12-.03-.18-.16-.16-.65.34-.5.47zm-.27-.62.4.36.13-.12-.4-.36zm4.04-2.43c.13.12.15-.02.22.04 0 .02-.03.1-.04.2-.04.34.35.5.43.74.07.23.1.14.27.03.17-.1.23-.08.4-.25.2-.2.16-.26.3-.42.16-.15.08-.23-.08-.26-.3-.07-.4-.44-.77-.4-.17 0-.15.07-.22 0 0 0 .05-.1-.02-.17-.16-.15-.65.34-.5.48zm-.27-.61.4.36.12-.13-.4-.36zm-5.5-2.57c-.1-.12-.13.02-.2-.05-.02-.02 0-.1.03-.2.04-.34-.36-.5-.43-.74-.08-.23-.12-.14-.3-.03-.16.1-.22.08-.4.25-.2.2-.15.26-.3.4-.15.17-.06.25.1.28.27.07.37.44.75.4.17 0 .15-.07.22 0 .03 0-.04.1.03.17.17.15.66-.34.5-.48zm.3.61-.4-.36-.13.13.4.35zm1.46-2.24c-.12-.12-.14.02-.2-.05-.03-.03 0-.1.02-.2.04-.35-.36-.52-.43-.75-.08-.24-.12-.14-.3-.03-.16.1-.22.07-.4.25-.2.2-.14.25-.3.4-.15.16-.06.24.1.28.27.06.37.43.75.4.17-.02.15-.07.22-.02.03.03-.04.12.03.18.17.17.66-.33.5-.46zm.29.61-.4-.36-.13.1.4.37zm-3.85 2.6c-.12-.12-.14.02-.2-.05-.04-.02 0-.1 0-.2.05-.34-.34-.5-.42-.74-.08-.23-.1-.14-.28-.03-.17.1-.23.07-.4.25-.2.2-.16.26-.3.4-.16.17-.08.24.08.28.28.06.38.44.76.4.17 0 .15-.07.22 0 .02 0-.04.1.03.17.15.15.64-.34.5-.48zm.29.61-.4-.36-.14.13.4.35z"/><path d="m47.45 8.45.2-.2c0-.02.04-.02.05 0l2.16 2.16c.02.02.02.05 0 .07l-.2.2s-.04 0-.05 0l-2.15-2.18c-.02 0-.02-.04 0-.05zm-1.89 1.97.08.07.14.12.15.13.14.13.14.13.15.14.2.2.2.2.14.12.12.13.14.12.14.14.14.14.14.15.15.14.07.07c.04.03.1.05.1.02.04-.04.03-.1 0-.13l-.08-.07-.14-.15-.15-.14-.14-.13-.15-.14-.13-.14-.14-.14-.14-.13-.2-.2-.2-.2-.14-.12-.14-.12-.15-.13-.13-.14-.15-.12-.07-.06c-.04-.04-.1-.05-.12-.02s0 .08.03.12zm-1.68 1.66.07.07.14.14.13.12.14.14.2.2.27.26.27.26.22.2.13.13.15.14.14.14.15.14.14.14.08.08c.04.03.1.04.1 0 .04-.02.03-.07 0-.1l-.1-.08-.14-.14-.15-.14-.14-.14-.15-.13-.14-.12-.2-.2-.26-.26-.27-.26-.2-.2-.14-.13-.14-.14-.16-.15-.07-.07c-.04-.04-.1-.04-.12-.02-.02.03 0 .08.03.12zm-1.6 1.6.04.04.08.07.1.1.16.14.15.14.15.13.14.15.2.2.27.26.2.2.14.15.15.14.15.13.15.14.15.15.07.07c.04.03.1.04.12 0 0-.02 0-.07-.03-.1l-.08-.08-.16-.15-.15-.14-.15-.14-.14-.15-.13-.14-.2-.18-.28-.27-.22-.2-.14-.13-.14-.14-.15-.14-.15-.14-.12-.1-.07-.08-.03-.04c-.04-.04-.1-.04-.12-.02-.02.03 0 .08.03.12zm-1.53 1.5.08.08.15.15.16.16.14.14.15.14.14.14.22.2.27.28.28.27.2.2.16.14.16.14.15.15.08.08c.04.03.1.04.12 0 .02 0 0-.07-.03-.1l-.07-.07-.15-.15-.15-.13-.15-.14-.2-.2-.3-.27-.27-.27-.2-.22-.16-.13-.14-.15-.15-.14-.15-.15-.16-.14-.08-.07c-.04-.05-.1-.06-.1-.03-.04.03-.03.08 0 .1zm-1.43 1.36.04.04.08.08.08.07.08.08.1.12.16.14.14.15.14.14.2.2.2.2.14.15.14.13.15.14.14.15.13.1.07.1.08.07.08.06.08.1.1.07.03.04c.04.04.1.04.12.02 0-.04 0-.1-.04-.13l-.04-.04-.08-.08-.08-.08-.08-.08-.08-.1-.08-.06-.1-.12-.16-.14-.14-.14-.14-.14-.14-.14-.2-.2-.2-.2-.15-.15-.15-.13-.15-.15-.1-.1-.08-.08-.08-.08-.08-.08-.04-.04c-.04-.03-.1-.04-.12-.02-.03.03-.02.08.02.12zm-1.36 1.32.14.14.28.28.28.28.2.2.15.15.15.15.15.15.14.15.15.15.15.15.15.16.16.17.17.17.1.08c.02.04.07.05.1.02s.02-.08-.02-.1l-.08-.1-.16-.16-.16-.16-.16-.16-.15-.15-.16-.15-.15-.14-.15-.14-.15-.14-.14-.15-.2-.2-.3-.3-.26-.27-.15-.14c-.03-.03-.08-.04-.1-.02-.04.03-.03.08 0 .12zm-1.23 1.24.14.13.28.28.28.3.2.2.15.15.15.14.15.14.14.15.15.14.16.16.16.16.15.16.12.13.1.08.03.04c.04.04.1.05.12.02s0-.08-.02-.12l-.05-.04-.08-.1-.13-.1-.16-.17-.16-.16-.15-.15-.15-.15-.15-.15-.14-.15-.15-.14-.14-.15-.2-.2-.3-.28-.27-.28-.14-.14c-.04-.04-.1-.05-.12-.03-.02.03 0 .08.03.12zm-1.25 1.22.15.14.28.28.3.3.2.2.15.15.15.14.14.15.15.14.15.15.15.15.16.16.17.17.12.13.1.1.03.03c.04.04.1.05.12.02.03-.03.02-.08-.02-.12l-.04-.04-.1-.1-.12-.12-.16-.16-.16-.17-.16-.15-.15-.16-.16-.15-.15-.16-.15-.14-.15-.15-.2-.22-.3-.28-.28-.3-.14-.13c-.04-.03-.1-.04-.12-.02-.02.03 0 .08.02.12zm-1.13 1.08.15.16.28.28.3.3.2.2.15.15.14.14.15.15.15.14.16.16.16.16.15.16.17.16.17.17.07.1c.04.03.1.04.12 0 0-.02 0-.07-.03-.1l-.1-.1-.16-.16-.16-.18-.16-.16-.15-.16-.16-.15-.15-.15-.15-.15-.15-.15-.14-.15-.22-.22-.28-.28-.3-.3-.13-.13c-.04-.04-.1-.05-.12-.02s-.02.07.02.1zm-1.05 1.05.06.07.15.15.22.2.3.3.2.23.16.15.15.15.15.15.15.16.16.17.15.16.16.16.18.16.13.13.1.08.04.05c.04.03.1.04.12.02.02-.03.02-.08-.02-.12l-.05-.04-.1-.1-.13-.13-.17-.17-.16-.16-.16-.16-.15-.16-.16-.16-.15-.15-.15-.15-.14-.14-.22-.22-.28-.3-.22-.2-.15-.16-.07-.07c-.04-.04-.1-.04-.1-.02-.04.03-.03.08 0 .12zm-1.05.98.07.08.15.15.23.22.3.3.2.23.16.15.15.16.17.16.15.16.16.16.16.17.17.17.14.13.1.1.08.07.1.1.03.04c.04.03.1.04.12.02.02-.03 0-.08-.02-.12l-.05-.04-.1-.1-.08-.08-.08-.1-.13-.1-.16-.18-.16-.17-.16-.17-.16-.16-.15-.16-.14-.14-.15-.15-.2-.22-.3-.3-.23-.22-.15-.15-.08-.07c-.03-.03-.08-.04-.1 0-.04 0-.03.06 0 .1zm-.92.95.07.07.15.15.22.22.3.3.22.22.14.16.15.15.14.16.16.17.16.16.16.17.17.16.12.13.08.08.1.1.08.08.05.04c.04.04.1.05.1.02.04-.03.03-.08 0-.12l-.05-.04-.1-.1-.08-.07-.1-.1-.12-.13-.16-.17-.17-.16-.15-.17-.16-.15-.15-.16-.16-.16-.15-.15-.24-.23-.3-.3-.2-.22-.16-.15-.08-.07c-.04-.04-.1-.05-.12-.02s0 .08.03.1v.02zm-.91.88.07.07.14.15.23.22.3.3.22.23.14.16.15.15.15.15.15.17.17.16.16.17.17.17.13.13.1.08.08.1.1.08.05.05c.03.05.08.06.1.03.04-.03.03-.08 0-.12l-.06-.03-.1-.1-.1-.08-.07-.1-.13-.13-.17-.17-.17-.16-.16-.17-.16-.16-.15-.15-.16-.15-.15-.16-.24-.23-.3-.3-.22-.22-.15-.15-.1-.07c-.03-.04-.08-.05-.1-.02s-.02.08.02.12zm-.87.87.08.08.15.15.22.23.3.3.22.23.15.16.15.16.16.16.16.16.16.16.16.17.17.17.13.13.1.1.08.08.1.1.04.04c.04.02.1.03.1 0 .04-.02.03-.07 0-.1l-.05-.06-.1-.1-.1-.07-.07-.1-.13-.12-.17-.17-.17-.17-.17-.15-.15-.16-.16-.17-.15-.16-.15-.15-.23-.23-.3-.32-.23-.22-.15-.15-.08-.07c-.04-.03-.1-.04-.1 0-.04 0-.03.06 0 .1zm-.8.77.08.06.16.15.14.16.15.15.14.17.15.15.14.16.15.16.14.16.16.16.16.16.16.17.17.16.12.13.08.08.1.1.08.08.1.1.1.08.04.05c.03.02.08.03.1 0 .03-.02.03-.07 0-.1l-.06-.06-.1-.1-.08-.08-.1-.1-.03-.05-.1-.1-.12-.13-.16-.17-.16-.17-.16-.16-.16-.16-.15-.15-.17-.16-.15-.17-.15-.16-.15-.15-.15-.15-.15-.15-.16-.16-.07-.07c-.04-.05-.1-.06-.12-.03-.03.03 0 .08.02.12zm-.75.73.1.08.14.16.15.15.14.16.15.15.14.17.15.15.14.16.16.16.15.16.16.17.18.17.16.17.13.14.1.1.08.07.1.1.08.1.1.08.04.05c.04.04.1.04.12.02 0-.03 0-.08-.04-.12l-.04-.04-.1-.1-.08-.1-.1-.08-.08-.1-.1-.07-.12-.13-.16-.17-.17-.17-.15-.16-.15-.17-.15-.16-.16-.17-.16-.15-.15-.16-.16-.15-.15-.16-.16-.14-.16-.15-.08-.07c-.03-.03-.1-.04-.1 0-.04 0-.03.06 0 .1zm-.75.7.15.16.32.3.3.3.24.25.16.15.15.16.17.17.16.16.17.16.17.18.18.17.18.2.14.13.1.1.04.04c.03.04.1.05.1.02s.03-.1 0-.12l-.06-.05-.1-.1-.13-.13-.2-.18-.17-.18-.17-.17-.16-.17-.17-.16-.16-.17-.16-.16-.15-.15-.23-.23-.3-.3-.32-.32-.16-.16c-.04-.04-.1-.05-.1-.02-.04.02-.03.08 0 .1zm-.66.67.14.16.3.3.32.32.24.24.15.16.16.16.17.16.17.17.17.16.18.18.17.18.18.18.14.14.1.1.04.04c.05.04.1.05.13.02.02-.02.02-.07-.02-.1l-.04-.06-.1-.1-.13-.13-.18-.18-.18-.2-.17-.16-.17-.17-.16-.16-.16-.16-.15-.16-.16-.16-.24-.23-.3-.32-.32-.32-.16-.15c-.04-.03-.1-.04-.12 0-.02.02 0 .07.03.1h-.02zm-.64.64.16.16.32.3.3.32.24.23.16.16.16.17.16.17.16.16.17.17.17.17.18.18.18.18.14.14.1.1.04.04c.04.04.1.04.1.02.04-.03.03-.08 0-.12l-.05-.04-.1-.1-.14-.14-.2-.18-.16-.18-.17-.17-.17-.17-.17-.16-.16-.16-.16-.16-.14-.16-.24-.24-.3-.3-.32-.32-.16-.16c-.03-.03-.08-.04-.1-.02s-.03.08 0 .12zm-.65.59.1.08.15.17.24.24.3.32.24.24.15.16.16.17.16.15.17.17.16.17.17.17.18.18.15.13.1.1.08.1.1.1.05.04c.03.03.1.04.1.02.04-.03.03-.08 0-.12l-.06-.05-.1-.1-.1-.1-.08-.08-.14-.14-.17-.18-.17-.18-.18-.17-.16-.17-.17-.17-.16-.17-.17-.16-.23-.24-.32-.32-.23-.23-.16-.15-.1-.08c-.03-.04-.08-.05-.1-.02s-.03.08 0 .1zm-.53.54.08.08.16.16.25.24.3.32.25.24.16.16.16.17.16.16.17.16.17.17.17.18.17.2.14.12.1.1.1.1.1.1.04.03c.04.04.1.05.1.02.04-.02.03-.07 0-.1l-.06-.06-.1-.08-.08-.1-.1-.1-.13-.13-.18-.2-.2-.16-.16-.17-.16-.17-.16-.17-.17-.16-.15-.16-.24-.23-.3-.32-.25-.23-.15-.16-.08-.08c-.04-.04-.1-.05-.1-.02-.04.03-.03.08 0 .1zm-.52.53.08.07.16.16.23.24.3.3.25.25.16.16.16.17.16.16.17.18.17.17.17.18.18.18.14.14.08.1.1.1.1.1.04.03c.04.04.1.05.1.02.04-.03.03-.08 0-.12l-.05-.05-.1-.1-.1-.1-.1-.08-.12-.14-.18-.16-.18-.18-.17-.17-.17-.18-.17-.17-.17-.16-.16-.17-.23-.24-.32-.33-.23-.23-.17-.16-.08-.08c-.04-.04-.1-.05-.12-.02s0 .08.02.12zm19.09-17.5 1.03 1.03s.5-.45 1.1-.6l-1.47-1.5s-.2.55-.66 1.08zm-3.03 3.03 1.04 1.03s.5-.45 1.1-.58l-1.5-1.5s-.17.54-.63 1.05zm-2.63 2.59 1.1 1.1s.42-.34.96-.4l-1.6-1.62c-.02 0-.1.5-.46.92zm-2.38 2.38 1.12 1.1s.4-.35.95-.4l-1.62-1.62s-.08.5-.45.9zm-3.1 2.96 1.24 1.24s.34-.27.86-.24l-1.8-1.8s0 .46-.3.8zm-2.62 2.61 1.22 1.23s.36-.25.88-.22l-1.88-1.9s.07.54-.22.9zm-1.58 1.18 1.66 1.66s.18-.03.46-.16l-1.97-1.98s-.05.2-.14.5zm-1.35 1.37 1.66 1.64s.17-.03.45-.15l-1.98-1.96s-.04.2-.12.48zm-1.15 1.18 1.63 1.64s.15-.03.4-.14l-1.95-1.95s-.03.17-.1.45z" fill="#fff"/><circle cx="50.969" cy="5.801" fill="#fff" r=".408"/><path d="m50.72 6.08c-.14-.13-.14-.36 0-.5.14-.13.36-.13.5 0 .13.14.13.37 0 .5-.14.14-.36.14-.5 0zm.43-.43c-.1-.1-.26-.1-.36 0s-.1.27 0 .36c.1.12.25.12.35 0 .1-.08.1-.25 0-.35z"/><circle cx="50.968" cy="5.802" r=".181"/><circle cx="52.783" cy="4.37" fill="#fff" r=".409"/><path d="m52.53 4.65c-.13-.14-.13-.36 0-.5s.36-.13.5 0 .14.37 0 .5c-.13.14-.36.14-.5 0zm.43-.43c-.1-.1-.26-.1-.36 0s-.1.27 0 .37.26.1.36 0 .1-.28 0-.38z"/><circle cx="52.783" cy="4.37" r=".18"/><circle cx="54.515" cy="2.716" fill="#fff" r=".408"/><path d="m54.27 3c-.14-.14-.14-.36 0-.5.13-.14.36-.14.5 0 .13.14.13.36 0 .5-.14.14-.37.14-.5 0zm.43-.43c-.1-.1-.27-.1-.37 0s-.1.26 0 .36.27.1.37 0 .1-.26 0-.36z"/><circle cx="54.515" cy="2.715" r=".181"/><circle cx="56.747" cy="4.885" fill="#fff" r=".409"/><path d="m56.5 5.17c-.14-.14-.14-.36 0-.5s.36-.14.5 0c.13.14.13.36 0 .5-.14.13-.36.13-.5 0zm.43-.43c-.1-.1-.26-.1-.36 0s-.1.26 0 .36.26.1.36 0 .1-.26 0-.36z"/><circle cx="56.747" cy="4.885" r=".181"/><circle cx="54.801" cy="6.389" fill="#fff" r=".409"/><path d="m54.55 6.67c-.13-.14-.13-.36 0-.5.14-.13.36-.13.5 0 .14.14.14.36 0 .5s-.36.14-.5 0zm.43-.43c-.1-.1-.26-.1-.36 0s-.1.26 0 .36.26.1.36 0 .1-.26 0-.36z"/><circle cx="54.801" cy="6.388" r=".18"/><circle cx="53.002" cy="7.984" fill="#fff" r=".409"/><path d="m52.75 8.27c-.13-.14-.13-.36 0-.5.14-.14.36-.14.5 0s.14.36 0 .5c-.14.13-.36.13-.5 0zm.43-.43c-.1-.1-.26-.1-.36 0s-.1.26 0 .36.27.1.36 0c.1-.1.1-.26 0-.36z"/><circle cx="53.002" cy="7.984" r=".18"/><path d="m13.85 42 1.43-1.73 32.3-31.77 3.48-2.57.1.13-3.46 2.57-32.3 31.75-1.43 1.72zm.49.5 1.43-1.73 32.24-31.9 4.89-4.37.1.1-4.88 4.37-32.22 31.9-1.43 1.7zm.46.44 1.45-1.7 32.2-31.96 6.18-6.44.1.1-6.2 6.42-32.2 31.95-1.44 1.7zm.5.5 1.5-1.64 32.1-32.12 7.72-5 .05.1-7.7 4.98-32.07 32.1-1.5 1.65zm.5.5 1.5-1.53 31.98-32.3 5.36-3.88.04.06-5.35 3.88-32 32.3-1.46 1.53zm.54.54 1.44-1.58 31.9-32.45 3.18-2.63.03.04-3.2 2.62-31.9 32.45-1.42 1.58z" fill="#fff"/></svg>