<svg enable-background="new 0 0 60 60" height="60" viewBox="0 0 60 60" width="60" xmlns="http://www.w3.org/2000/svg"><path d="m22.6 32.2s-1.8 1.2-2.8 0c-.6-.8-.6-2 .5-3.1.6-.6 1.1-1 1.3-1.1s.4-.4 0-.5c-.9-.2-3.8 0-5.9 2-2.3 2.1-3 4.1-3.7 5.8s-1.8 2.8-4.2 3c-2.8.2-6 2.4-6.8 5.5-1 4 1.1 7.8 3.8 10.8 2 2.2 7 7.3 11.6 4.8 4.5-2.5 4.4-6.1 4.7-8.2.5-3.4 1.8-3.5 4.1-4.6 2.3-1.2 3.6-3.1 4.2-5.9.3-1.4.2-2.2.2-2.7 0-.6-.2-.4-.7.1-1 1-2.8 1.2-3.6-.3-.6-1.1-.2-1.9 0-2.5z" fill="#00572c"/><path d="m10.1 41.4c.4 1.4 1.3 1.8 2.7 2.4 1.6.7 2.9 2.2 3.4 3.3.7 1.6.9 2.9 2.4 3.5.2.1.2-.1.2-.1.5-2 1.6-3.4 2.8-4.3 1.1-.9 1.6-.5 3.7-2.4.4-.4 1.6-1.8 2-3.1 0-.2-.2-.2-.2-.2-1.8.7-2.6-.5-2.8-1-.5-1.3.1-1.8.2-3.3-1.3-1.3-2.9-2.9-2.9-2.9s-.6 0-1.7.2c-.9.2-1.4-.1-2.3-1.1-.1-.1-.1-.1-.2 0-.7 1.9-.8 2.5-1.8 3.8-.9 1.2-2 2.3-3.2 3.4-1 .9-1.9 1.5-2.1 1.6-.1.1-.2.1-.2.2zm19-3.1c-.1.1-.1.2-.1.2s0 .1-.1.1c0 0-.1.1-.1.1s-.1.1-.1.2c-.1.1-.1.1-.2.2s-.1.1-.2.2c0 0 0 0-.1.1s0 0-.1 0c0 0-.1 0-.1.1h-.1s0 0-.1 0c0 0 0 0-.1 0h-.1-.1-.1c-.1 0-.2 0-.3 0-.2 0-.4 0-.6-.1s-.4-.2-.5-.3c-.2-.1-.3-.3-.4-.4s-.2-.3-.3-.5c0-.1-.1-.2-.1-.2 0-.1-.1-.1-.1-.2v-.1-.1c0-.1 0-.1 0-.2s0-.1 0-.2v-.1s0 0 0-.1 0 0 0 0v-.1-.1s0 0 0 .1v.1s0 0 0 .1v.1.2c0 .1.1.2.1.4 0 .1.1.1.1.2s.1.2.1.2c.1.1.2.3.3.4l.4.4c.2.1.3.2.5.3s.4.1.6.1h.5.1.1.1.1s.1 0 .1-.1c.1 0 .1-.1.2-.1 0-.1.1-.1.1-.2 0 0 .1-.1.1-.1s.1-.1.1-.1.1-.1.1-.1c.2-.3.2-.4.3-.4zm-7.3 10s0 0 .1-.1c0 0 0 0 0-.1 0 0 0 0 0-.1 0 0 0-.1.1-.1 0 0 0-.1.1-.1.1-.1.2-.3.4-.5s.4-.4.6-.5.5-.4.8-.5c.3-.2.6-.4.9-.6s.6-.4.9-.7l.4-.4c.1-.1.3-.3.4-.4l.1-.1.1-.1c0-.1.1-.2.2-.2l.1-.1.1-.1c.1-.1.1-.2.2-.2 0 0 .1-.1.1-.1s.1-.1.1-.1c0-.1.1-.2.2-.2 0-.1.1-.2.1-.2 0-.1.1-.2.1-.2.1-.2.2-.3.2-.5 0-.1.1-.2.1-.2 0-.1.1-.2.1-.2.1-.2.1-.3.2-.5 0-.1 0-.2.1-.2 0-.1 0-.2.1-.2 0-.1 0-.2.1-.2 0-.1 0-.1 0-.2s.1-.3.1-.4 0-.2.1-.3c0-.1 0-.2 0-.3.1-.3.1-.5.1-.5s0 0 0 .1v.4.3.3c0 .1 0 .2-.1.4v.2c0 .1 0 .2-.1.2 0 .1 0 .2-.1.2s0 .2-.1.2c0 .1 0 .2-.1.2 0 .1-.1.2-.1.2 0 .1 0 .2-.1.2 0 .1-.1.2-.1.3s-.1.2-.1.2c0 .1-.1.2-.1.3s-.1.2-.1.3-.1.2-.1.2c0 .1-.1.2-.1.3 0 0 0 .1-.1.1 0 0 0 .1-.1.1-.1.1-.1.2-.2.2l-.1.1-.1.1c-.1.1-.1.2-.2.2l-.1.1-.1.1c-.1.2-.3.3-.4.5-.1.1-.3.3-.4.4-.3.3-.6.5-1 .7s-.6.4-.9.6-.6.4-.8.5c-.2.2-.5.3-.6.5-.2.2-.3.3-.4.5-.2-.1-.2-.1-.3 0 0 0 0 0-.1.1v.1s-.1.1-.1 0zm-1.3-20.5c-.1.1-.2.1-.3.2-.2.1-.4.3-.7.6-.1.1-.3.3-.4.4-.1.2-.3.4-.4.5 0 .1-.1.2-.1.3s-.1.2-.1.3v.7c0 .1.1.2.1.4 0 .1 0 .1.1.2 0 .1 0 .1.1.2.1.2.2.4.4.6.1.1.1.2.2.2.1.1.2.1.3.2.1 0 .2.1.3.1s.2.1.3.1c.2.1.3.1.5.1h.4.1.1.1s0 0-.1 0h-.1s-.1 0-.1 0c-.1 0-.2 0-.4 0s-.3 0-.5-.1c-.2 0-.4-.1-.6-.2s-.4-.3-.5-.5c-.2-.2-.3-.4-.4-.6 0 0-.1-.1-.1-.2v-.1s0 0 0-.1-.1-.2-.1-.4c0-.3 0-.5 0-.8s.1-.5.2-.7.3-.4.4-.6.3-.3.5-.4c.1-.1.3-.2.4-.3s.2-.2.3-.2c.1-.1.2-.1.2-.1-.1.2-.1.1-.1.2zm-19 21.3s0-.1-.1-.3c0-.2-.1-.5-.2-1-.1-.4-.1-1 0-1.5 0-.1 0-.2 0-.2 0-.1 0-.2 0-.2 0-.2 0-.3.1-.5.1-.3.1-.7.3-1s.3-.7.5-1.1c.2-.3.4-.7.7-1 .5-.7 1.2-1.3 2-1.8.4-.2.8-.4 1.3-.5h.2.2c.1 0 .2 0 .3-.1.2-.1.5-.1.7-.2.5-.1.9-.2 1.4-.4.5-.1.9-.3 1.4-.5.4-.2.9-.5 1.2-.8.4-.3.6-.7.9-1.1s.5-.8.7-1.2.4-.8.6-1.3l1.2-2.4c.4-.7.9-1.4 1.5-1.9v-.1s0-.1.1-.1c0 0 0 0 .1-.1 0 0 0-.1.1-.1s.1-.1.2-.2c.1 0 .1-.1.2-.1s.1-.1.2-.1.1-.1.2-.1c.1-.1.3-.2.4-.2.5-.3 1-.5 1.4-.6.2 0 .4-.1.5-.1.2 0 .3-.1.4-.1.2-.1.4-.1.4-.1s-.1 0-.3.1c-.1 0-.2.1-.4.1s-.4.1-.5.2c-.4.1-.9.4-1.4.6-.5.3-1 .7-1.6 1.2-.5.5-1 1.2-1.4 1.9s-.8 1.5-1.2 2.3c-.2.4-.4.8-.6 1.3s-.4.9-.7 1.3c-.1.2-.3.4-.4.6-.2.2-.3.4-.5.5-.4.3-.8.6-1.2.8-.5.2-.9.3-1.4.5-.5.1-.9.2-1.4.4-.2.1-.5.1-.7.2-.1 0-.2.1-.3.1h-.2l-.5-.2c-.5.1-.9.3-1.3.5-.8.4-1.5 1-2 1.7-.3.3-.5.7-.7 1-.2.4-.4.7-.5 1s-.2.7-.3 1c0 .2-.1.3-.1.5v.2.2 1.5.3.3.2.1.1c.4.4.4.5.5.5z" fill="#fff"/><path d="m14 39.7 1.3-1.3c.1-.1.2-.1.3 0l3.6 3.6c.1.1.1.2 0 .3l-1.3 1.3c-.1.1-.2.1-.3 0l-3.6-3.6c-.1 0-.1-.2 0-.3zm0 0 1.3-1.3c.1-.1.2-.1.3 0l3.6 3.6c.1.1.1.2 0 .3l-1.3 1.3c-.1.1-.2.1-.3 0l-3.6-3.6c-.1 0-.1-.2 0-.3zm0 0 1.3-1.3c.1-.1.2-.1.3 0l3.6 3.6c.1.1.1.2 0 .3l-1.3 1.3c-.1.1-.2.1-.3 0l-3.6-3.6c-.1 0-.1-.2 0-.3zm0 0 1.3-1.3c.1-.1.2-.1.3 0l3.6 3.6c.1.1.1.2 0 .3l-1.3 1.3c-.1.1-.2.1-.3 0l-3.6-3.6c-.1 0-.1-.2 0-.3z" fill="#00572c"/><g fill="#fff"><circle cx="15.3" cy="39.7" r=".3"/><circle cx="15.8" cy="40.2" r=".3"/><circle cx="16.3" cy="40.7" r=".3"/><circle cx="16.8" cy="41.3" r=".3"/><circle cx="17.4" cy="41.8" r=".3"/><circle cx="17.9" cy="42.4" r=".3"/></g><path d="m18.1 35.7 1.3-1.3c.1-.1.2-.1.3 0l3.6 3.6c.1.1.1.2 0 .3l-1.3 1.3c-.1.1-.2.1-.3 0l-3.6-3.6c-.1-.1-.1-.3 0-.3zm0 0 1.3-1.3c.1-.1.2-.1.3 0l3.6 3.6c.1.1.1.2 0 .3l-1.3 1.3c-.1.1-.2.1-.3 0l-3.6-3.6c-.1-.1-.1-.3 0-.3zm0 0 1.3-1.3c.1-.1.2-.1.3 0l3.6 3.6c.1.1.1.2 0 .3l-1.3 1.3c-.1.1-.2.1-.3 0l-3.6-3.6c-.1-.1-.1-.3 0-.3zm0 0 1.3-1.3c.1-.1.2-.1.3 0l3.6 3.6c.1.1.1.2 0 .3l-1.3 1.3c-.1.1-.2.1-.3 0l-3.6-3.6c-.1-.1-.1-.3 0-.3z" fill="#00572c"/><g fill="#fff"><circle cx="19.4" cy="35.7" r=".3"/><circle cx="19.9" cy="36.2" r=".3"/><circle cx="20.4" cy="36.7" r=".3"/><circle cx="20.9" cy="37.2" r=".3"/><circle cx="21.5" cy="37.8" r=".3"/><circle cx="22" cy="38.3" r=".3"/><path d="m9.5 43.1c.3-.3.5-.4.6-.3l4.8 4.8c.1.1 0 .3-.3.6-.2.2-.5.4-.6.3l-4.8-4.8c0-.1.1-.3.3-.6z"/></g><path d="m15.4 45.7-3.5-3.5c-.2-.2-.2-.5 0-.8.2-.2.5-.2.8 0l3.5 3.5c.2.2.2.5 0 .8-.3.2-.6.2-.8 0zm-2.8-4.2c-.2-.2-.5-.2-.7 0s-.2.5 0 .7l3.5 3.5c.2.2.5.2.7 0s.2-.5 0-.7c0 0-3.5-3.5-3.5-3.5z"/><g fill="#fff"><circle cx="11" cy="54.8" r=".9"/><circle cx="13.8" cy="53.2" r=".9"/><circle cx="15.8" cy="55.2" r=".9"/><circle cx="12.8" cy="56.9" r=".9"/><circle cx="17.1" cy="51.5" r="1.2"/></g><circle cx="17.1" cy="51.5" r=".6"/><circle cx="17.1" cy="51.5" fill="#fff" r=".3"/><path d="m17.1 51.4.6-.3s.2-.1.3.1c.1.3-.2.3-.2.3l-.6.1h-.1c-.1-.1 0-.2 0-.2z"/><path d="m17 51.6c-.1-.1 0-.2.1-.2l.6-.3s.2-.1.3 0c0 0 0 .1.1.1v.2c-.1.1-.2.1-.2.1l-.6.1c-.1 0-.2.1-.3 0zm1-.5c-.1-.1-.2 0-.2 0l-.6.3s-.1 0 0 .1h.1l.7-.1s.1 0 .2-.1c-.2 0-.2-.1-.2-.2z" fill="#fff"/><path d="m12.5 42.1c.1-.1.2-.1.3 0l.2.2c.1.1.1.2 0 .2-.1.1-.1.1-.2 0l-.2-.2c-.2-.1-.2-.2-.1-.2zm.5.5c.1-.1.2-.1.3 0l.2.2c.1.1.1.2 0 .2-.1.1-.1.1-.2 0l-.3-.2c-.1-.1-.1-.2 0-.2zm.5.5c.1-.1.2-.1.2 0l.2.2c.1.1.1.2 0 .2-.1.1-.2.1-.2 0l-.2-.2c-.1-.1-.1-.2 0-.2zm.5.5c.1-.1.2-.1.3 0l.2.2c.1.1.1.2 0 .2-.1.1-.1.1-.2 0l-.3-.2s0-.1 0-.2zm.6.6c.1-.1.2-.1.3 0l.2.2c.1.1.1.2 0 .2-.1.1-.2.1-.2 0l-.2-.2c-.1-.1-.1-.2-.1-.2zm.5.5c.1-.1.2-.1.2 0l.2.2c.1.1.1.2 0 .2-.1.1-.2.1-.2 0l-.2-.2s0-.1 0-.2z"/><circle cx="12.2" cy="41.7" r=".1"/><circle cx="15.9" cy="45.4" r=".1"/><path d="m13.4 47.5-3.1-3.1c-.1-.1-.1-.2 0-.3l.2-.2c.1-.1.2-.1.3 0l3.1 3c.1.1.1.2 0 .3l-.2.2c-.1.2-.2.2-.3.1zm-2.5-3.5c-.1-.1-.2-.1-.2 0l-.2.2c-.1 0-.1.2 0 .2l3.1 3.1c.1.1.2.1.2 0l.2-.2c.1-.1.1-.2 0-.2z"/><circle cx="10" cy="43.5" r=".4"/><circle cx="14.2" cy="47.8" r=".4"/><path d="m21.5 33.2 2.9 2.9s23.9-24.6 24.4-25.1c.5-.6 1.9-1.3 3-.9 1.2-1.5 3.6-3.7 7.4-6 0 0-.4-.2-.7-.5-.4-.4-.5-.7-.7-1-.1-.5-.5-.6-.5-.6s-.1-.4-.7-.6-1.3-.5-1.6-1.2c-.1 0-2 2-3.7 3.5s-3 2.4-3.4 2.7c-.1.1.2.6-1.5 2.3-1.6 1.8-24.9 24.5-24.9 24.5z"/><path d="m21.5 33.2c.3-.3 23.3-22.8 25-24.5 1.3-1.3 1.4-2 1.5-2.2 0-.1 0-.1 0-.1.4-.3 1.8-1.3 3.4-2.7 1.1-.9 2.2-2.1 2.9-2.8.5-.5.7-.7.7-.7.1.2.2.3.3.5.4.4.9.6 1.2.7.2.1.3.2.5.3.1.1.2.3.2.3.1 0 .2 0 .4.2.1.1.2.2.2.4 0 .1 0 .1.1.2.1.2.2.5.6.8.3.2.5.3.7.4.1.1.1.1.1.1s0 0 0 .1c-4.2 2.5-6.4 4.8-7.3 6-1.1-.4-2.4.3-3 .9s-24.2 24.9-24.4 25.1zm33.5-32.9c-.1.1-.4.4-.7.7-.7.7-1.8 1.9-2.9 2.8-1.6 1.4-2.9 2.4-3.4 2.7v.1c0 .2-.1.9-1.5 2.2-1.6 1.6-23.9 23.5-24.9 24.4l2.9 2.8c1-1 23.8-24.5 24.4-25.1s1.9-1.3 3-.9c1-1.2 3.2-3.5 7.3-5.9 0 0-.1 0-.1-.1-.1 0-.3-.1-.5-.3-.3-.3-.5-.6-.6-.8 0-.1-.1-.1-.1-.2-.1-.2-.1-.3-.2-.4-.2-.2-.3-.2-.3-.2s0-.2-.2-.3c-.1-.1-.3-.2-.5-.3-.4-.1-.9-.3-1.3-.7-.2-.2-.3-.3-.4-.5z" fill="#fff"/><path d="m55.2 7.8c.1.1.2 0 .2.1v.2c0 .4.4.5.5.8.1.2.1.1.3 0s.2-.1.4-.3.2-.3.3-.4c.2-.2.1-.3-.1-.3-.3-.1-.4-.5-.8-.4-.2 0-.2.1-.2 0 0 0 0-.1 0-.2-.2-.2-.7.4-.6.5zm-.3-.6.4.4.1-.1-.3-.5zm-1.5 2.2c.1.1.1 0 .2.1v.2c0 .4.4.5.5.8.1.2.1.1.3 0s.2-.1.4-.2c.2-.2.2-.3.3-.4.2-.1.1-.2-.1-.3-.3-.1-.4-.5-.8-.4-.2 0-.1.1-.2 0 0 0 0-.1 0-.2-.2-.2-.8.3-.6.4zm-.3-.6.4.4.1-.2-.4-.4zm4.2-2.6c.1.1.2 0 .2.1v.2c0 .4.4.5.5.8s.1.2.3 0c.2-.1.2-.1.4-.2.2-.2.2-.3.3-.4.2-.2.1-.2-.1-.3-.3-.1-.4-.5-.8-.4-.2 0-.2.1-.2 0 0 0 0-.1 0-.2-.2-.2-.8.3-.6.4zm-.3-.6.4.4.1-.1-.4-.4zm-5.7-2.7c-.1-.1-.2 0-.2 0s0-.1 0-.2c0-.4-.4-.5-.5-.8-.1-.2-.1-.1-.3 0s-.2.1-.4.3-.2.3-.3.4c-.2.2-.1.2.1.3.3.1.4.5.8.4.2 0 .2-.1.2 0v.2c.2.1.8-.4.6-.6zm.3.6-.4-.4-.2.2.4.4zm1.5-2.3c-.1-.1-.1 0-.2-.1 0 0 0-.1 0-.2 0-.4-.4-.5-.5-.8-.1-.2-.1-.2-.3 0-.2.1-.2.1-.4.3s-.2.3-.3.4c-.2.2-.1.2.1.3.3.1.4.5.8.4.2 0 .2-.1.2 0v.2c.2.2.8-.4.6-.5zm.3.6-.4-.3-.1.1.4.4zm-4 2.8c-.1-.1-.2 0-.2-.1 0 0 0-.1 0-.2 0-.4-.4-.5-.5-.8-.1-.2-.1-.1-.3 0s-.2.1-.4.3-.2.2-.3.4c-.2.2-.1.2.1.3.3.1.4.5.8.4.2 0 .2-.1.2 0v.2c.2.1.7-.4.6-.5zm.3.6-.4-.4-.2.2.4.4zm-28.2 28 2.9 2.9s23.9-24.6 24.4-25.1c.5-.6 1.9-1.3 3-.9 1.2-1.5 3.6-3.7 7.4-6 0 0-.4-.2-.7-.5-.4-.4-.5-.7-.7-1-.1-.5-.5-.6-.5-.6s-.1-.4-.7-.6-1.3-.5-1.6-1.2c-.1 0-2 2-3.7 3.5s-3 2.4-3.4 2.7c-.1.1.2.6-1.5 2.3-1.6 1.8-24.9 24.5-24.9 24.5z" fill="#00572c"/><path d="m21.5 33.2c.3-.3 23.3-22.8 25-24.5 1.3-1.3 1.4-2 1.5-2.2 0-.1 0-.1 0-.1.4-.3 1.8-1.3 3.4-2.7 1.1-.9 2.2-2.1 2.9-2.8.5-.5.7-.7.7-.7.1.2.2.3.3.5.4.4.9.6 1.2.7.2.1.3.2.5.3.1.1.2.3.2.3.1 0 .2 0 .4.2.1.1.2.2.2.4 0 .1 0 .1.1.2.1.2.2.5.6.8.3.2.5.3.7.4.1.1.1.1.1.1s0 0 0 .1c-4.2 2.5-6.4 4.8-7.3 6-1.1-.4-2.4.3-3 .9s-24.2 24.9-24.4 25.1zm33.5-32.9c-.1.1-.4.4-.7.7-.7.7-1.8 1.9-2.9 2.8-1.6 1.4-2.9 2.4-3.4 2.7v.1c0 .2-.1.9-1.5 2.2-1.6 1.6-23.9 23.5-24.9 24.4l2.9 2.8c1-1 23.8-24.5 24.4-25.1s1.9-1.3 3-.9c1-1.2 3.2-3.5 7.3-5.9 0 0-.1 0-.1-.1-.1 0-.3-.1-.5-.3-.3-.3-.5-.6-.6-.8 0-.1-.1-.1-.1-.2-.1-.2-.1-.3-.2-.4-.2-.2-.3-.2-.3-.2s0-.2-.2-.3c-.1-.1-.3-.2-.5-.3-.4-.1-.9-.3-1.3-.7-.2-.2-.3-.3-.4-.5z" fill="#fff"/><path d="m55.2 7.8c.1.1.2 0 .2.1v.2c0 .4.4.5.5.8.1.2.1.1.3 0s.2-.1.4-.3.2-.3.3-.4c.2-.2.1-.3-.1-.3-.3-.1-.4-.5-.8-.4-.2 0-.2.1-.2 0 0 0 0-.1 0-.2-.2-.2-.7.4-.6.5zm-.3-.6.4.4.1-.1-.3-.5zm-1.5 2.2c.1.1.1 0 .2.1v.2c0 .4.4.5.5.8.1.2.1.1.3 0s.2-.1.4-.2c.2-.2.2-.3.3-.4.2-.1.1-.2-.1-.3-.3-.1-.4-.5-.8-.4-.2 0-.1.1-.2 0 0 0 0-.1 0-.2-.2-.2-.8.3-.6.4zm-.3-.6.4.4.1-.2-.4-.4zm4.2-2.6c.1.1.2 0 .2.1v.2c0 .4.4.5.5.8s.1.2.3 0c.2-.1.2-.1.4-.2.2-.2.2-.3.3-.4.2-.2.1-.2-.1-.3-.3-.1-.4-.5-.8-.4-.2 0-.2.1-.2 0 0 0 0-.1 0-.2-.2-.2-.8.3-.6.4zm-.3-.6.4.4.1-.1-.4-.4zm-5.7-2.7c-.1-.1-.2 0-.2 0s0-.1 0-.2c0-.4-.4-.5-.5-.8-.1-.2-.1-.1-.3 0s-.2.1-.4.3-.2.3-.3.4c-.2.2-.1.2.1.3.3.1.4.5.8.4.2 0 .2-.1.2 0v.2c.2.1.8-.4.6-.6zm.3.6-.4-.4-.2.2.4.4zm1.5-2.3c-.1-.1-.1 0-.2-.1 0 0 0-.1 0-.2 0-.4-.4-.5-.5-.8-.1-.2-.1-.2-.3 0-.2.1-.2.1-.4.3s-.2.3-.3.4c-.2.2-.1.2.1.3.3.1.4.5.8.4.2 0 .2-.1.2 0v.2c.2.2.8-.4.6-.5zm.3.6-.4-.3-.1.1.4.4zm-4 2.8c-.1-.1-.2 0-.2-.1 0 0 0-.1 0-.2 0-.4-.4-.5-.5-.8-.1-.2-.1-.1-.3 0s-.2.1-.4.3-.2.2-.3.4c-.2.2-.1.2.1.3.3.1.4.5.8.4.2 0 .2-.1.2 0v.2c.2.1.7-.4.6-.5zm.3.6-.4-.4-.2.2.4.4z" fill="#00572c"/><path d="m46.4 8.9.2-.2h.1l2.3 2.3v.1l-.2.2s0 0-.1 0zm-2 2 .2.2.2.1.1.1.1.1.2.1.2.2.2.2.1.1.1.1.1.1.2.1.2.1.1.1.2.1.1.1s.1.1.1 0v-.1.4l-.2-.1-.1-.1-.2-.1-.2-.1-.1-.3-.2-.1-.1-.2-.2-.2-.2-.2-.1-.1-.2-.2-.2-.1-.2-.1-.2-.1v-.1c0-.1 0-.1 0 0zm-1.8 1.8.2.2.2.1.2.1.2.2.3.3.2.2.1.2.2.1.2.1.1.1.2.2.2.1.1.1.1.1h.1v-.1l-.1-.1-.1-.1-.2-.2-.2-.1-.2-.1-.2-.1-.2-.1-.2-.1-.2-.2-.3-.3-.2-.2-.2-.1-.2-.1-.2-.1-.1-.1h-.1c.3-.2.3-.1.3 0zm-1.6 1.7.1.1.1.1.1.1.1.1.2.1.2.1.1.2.2.2.3.3.2.2.2.1.1.1.2.1.2.1.1.1.1.1h.1v-.1l-.1-.1-.1-.1-.2-.1-.3-.1-.1-.1-.2-.1-.2-.2-.3-.3-.2-.3-.2-.1-.2-.1-.2-.1-.1-.1-.1-.1-.1-.1-.1-.1.1-.1h-.1s0 .1.1.2zm-1.6 1.5.2.2.2.2.2.1.2.1.2.1.2.2.3.3.2.2.2.1.2.1.2.1.2.1.2.1.1.1h.1s0-.1 0-.1l-.1-.1-.5.3-.2-.1-.2-.1-.2-.1-.2-.1-.2-.2-.3-.3-.2-.2-.1-.1-.1-.4-.2-.1-.2-.2v-.1l-.1-.1c-.1-.1-.1-.1-.1 0-.1 0-.1 0 0 0zm-1.5 1.5.1.1.1.1.1.1.1.1.1.1.1.1.2.1.2.1.2.2.2.2.1.1.1.1.2.2.1.1.1.1.1.1.1.1.1.1.1.1.1.1.1.1h.1v-.1l-.1-.1-.1-.1-.1-.1-.3-.1-.1-.1-.1-.1-.1-.1-.2-.1-.2-.1-.1-.1-.2-.4-.2-.2-.2-.1-.2-.1-.1-.1-.1-.1-.1-.1-.1-.1-.1-.1c0-.1 0-.1 0-.1-.1 0-.1 0 0 .1zm-1.5 1.3.2.1.3.3.3.3.2.2.2.2.2.1.2.1.2.2.1.1.2.2.2.2.2.2.1.1.1.1s.1.1.1 0v-.1h-.4l-.1-.1-.2-.2-.2-.2-.2-.2-.2-.2v-.1l-.2-.1-.2-.1-.1-.1-.2-.2-.2-.4-.3-.3-.3-.1c.1-.1 0-.1 0 0zm-1.3 1.3.2.2.2.2.3.3.2.2.2.1.2.1.2.1.2.2.2.2.2.2.2.2.1.1.1.1.1.1.1.1h.1s0-.1 0-.1l-.1-.1-.1-.1-.1-.1-.1-.1-.2.1-.2-.2-.2-.2-.2-.2-.2-.1-.2-.2v-.1l-.2-.1-.2-.2-.3-.3-.2-.2-.1-.2-.1-.1h-.1zm-1.3 1.3.1.1.2.1.2.2.3.3.2.2.2.1.2.1.2.1.2.2.2.2.2.2.2.2.1.1.1.1.1.1.1.1h.1v-.1-.1l-.1-.1-.1-.1-.1-.1-.4.1-.2-.2-.1-.1-.2-.2-.2-.2-.2-.1-.2-.1-.2-.1v-.3l-.3-.3-.2-.2-.2-.2-.1-.1s0 0-.1.1c0-.1 0 0 0 0zm-1.1 1.2.2.1.3.3.3.3.2.2.2.1.2.1.2.2.2.2.2.2.2.2.2.2.2.2.1.1.1.1s.1.1.1 0v-.1l-.1-.1-.5-.1-.2-.2-.2-.2-.2-.2-.1-.1-.2-.2-.1-.1-.2-.1-.2-.1-.2-.2-.3-.3-.3-.3-.2-.1c.1-.2.1-.2.1-.1 0-.1-.1 0 0 0zm-1.2 1 .2.2.3.3.3.3.2.2.2.1.2.2.1.2.2.2.2.2.2.2.2.2.1.1.1.1.1.1h.1v-.1-.1l-.1-.1h-.1l-.1-.1-.1-.1-.2-.2-.2-.2-.2-.2h-.1l-.2-.2-.2-.1-.2-.2-.2-.2-.2-.3-.2-.2-.1-.2-.1-.1c-.1-.1-.2-.1-.2 0zm-1.1 1.1.2.2.2.2.3.3.2.2.2.2.2.2.2.2.2.1.2.2.2.2.1.1.1.1.1.1.1.1.1.1.1.1h.1v-.1h-.1l-.1-.1-.1-.1-.1-.1-.1-.1-.1-.1-.1-.1-.2-.2-.2-.2-.1-.1-.2-.2-.2-.2-.2-.2-.2-.2-.2-.2-.2-.2-.2-.1-.1-.1c0-.1 0-.1-.1 0 0-.1 0 0 0 0zm-.9 1 .2.2.2.2.3.3.2.2.2.1.2.2.2.2.2.2.2.2.2.2.1.1.1.1.1.1.1.1.1.1.1.1h.1v-.1h-.1l-.2-.1-.1-.1-.1-.1-.1-.1-.1-.1-.1-.1-.2-.2-.2-.2-.1-.1-.2-.2-.2-.2-.2-.2-.2-.2-.2-.3-.2-.2-.2-.2-.1-.1h-.1c0 .1 0 .1.1.2zm-1 .9.2.2.3.3.2.2.1.2.2.2.2.2.2.1.1.1.2.2.1.2.2.2.1.1.1.1.1.1.1.1h.1l.1.1h.1v-.1l-.1-.1-.1-.1-.1-.1-.1-.1-.1-.1-.1-.1-.2-.2-.2-.2-.2-.2-.1-.2-.2-.2-.2-.2-.2-.2-.1-.2-.2-.2-.2-.2-.2-.2-.1-.1h-.1c0 .3.1.4.1.4zm-.9.9.1.1.1.1.2.2.2.2.2.2.2.2.1.2.2.2.2.2.2.2.2.2.2.2.1.1.1.1.1.1.1.1.1.1.1.1h.1.1v-.1h-.1l-.1-.1-.1-.1-.1-.1-.1-.3-.1-.1-.1-.1-.2-.2-.2-.1-.2-.2-.2-.2-.2-.2-.2-.2-.2-.2-.2-.2-.2-.3-.2-.2-.1-.1h-.1zm-.8.8.1.1.1.1.2.1.1.2.2.2.1.2.2.1.2.2.2.2.2.2.2.2.2.2.1.1.1.1.1.1.1.1.1.1.1.1.1.1.1.1h.1v-.1l-.1-.1-.1-.1-.1-.1-.1-.1-.1-.1-.2-.1-.1-.1-.1-.1-.1-.1-.2-.2-.2-.2-.2-.2-.1-.1-.2-.2-.1-.1-.2-.2-.2-.2-.1-.2-.2-.1-.2-.1c0-.1 0-.1 0-.1-.1 0-.1.1 0 .1zm-.8.8.2.2.1.2.1.1.2.2.2.2.2.1.2.2.1.2.2.2.2.2.2.2.2.2.1.1.1.1.1.1.1.1.1.1.1.1h.1v-.1l-.1-.1-.1-.1-.1-.1-.1-.1-.1-.1-.1-.1-.1-.1-.2-.2-.2-.2-.2-.2-.2-.2-.2-.2-.1-.2-.2-.2-.2-.2-.2-.2-.2-.2h-.2c0-.1 0-.1 0 0 0-.1 0 0 0 0zm-.8.7.2.2.3.3.3.3.2.2.2.2.2.2.2.2.2.2.2.2.2.2.2.2.1.2.1.1.1.1.1.1h.1v-.1l-.1-.2-.1-.1-.1-.1-.1-.1-.1-.1-.2-.2-.2-.2-.2-.1-.2-.2-.1-.2-.2-.2-.2-.2-.2-.2-.3-.3-.3-.3-.2-.2h-.1zm-.7.7.2.2.3.3.3.3.3.2.2.2.2.2v.2l.2.2.2.2.2.2.2.2.1.1.1.1.1.1.1.1h.1s0-.1 0-.1v-.1l-.1-.1-.1-.1-.1-.1-.1-.1-.2-.2-.2-.2-.2-.2-.2-.2-.1-.1-.2-.2-.1-.2-.2-.2-.3-.3-.3-.3-.4-.1c0-.1 0-.1 0-.1-.1 0 0 .1 0 .1zm-.7.7.2.2.3.3.3.3.2.3.2.2.2.2.2.2.2.2.2.2.2.2.2.2.1.2.1.1.1.1.1.1h.1v-.1l-.1-.1-.1-.1-.1-.1-.1-.1-.3-.5-.2-.2-.2-.2-.2-.2-.2-.2-.2-.2-.2-.2-.3-.3-.3-.3-.4-.2c.1-.1 0-.1 0 0 0-.1 0 0 0 0zm-.6.6.1.1.1.1.3.3.3.3.2.2.2.2.2.2.2.2.2.2.2.2.2.2.1.1.1.1.1.1.1.1.1.1.1.1h.1v-.1h-.1l-.1-.1-.1-.1-.1-.1-.1-.1-.1-.1-.1-.1-.2-.2-.2-.2-.2-.2-.2-.2-.2-.2-.2-.2-.2-.2-.3-.3-.2-.2-.2-.2h-.1c0-.1 0-.1 0 0-.1 0-.1 0 0 0zm-.6.6.2.2.2.2.3.3.2.2.2.2.2.2.2.2.2.2.2.2.2.2.1.1.1.1.1.1.1.1.1.1.1.1h.1s0-.1 0-.1v-.1l-.1-.1-.1-.1-.1-.1-.1.1v-.1l-.1-.1-.2-.2-.2-.2-.2-.2-.2-.2-.2-.2-.2-.2-.2-.2-.3-.3-.3-.2-.2-.2h-.1c0-.1 0-.1 0-.1-.1 0-.1.1 0 .1zm-.6.5.1.1.1.2.2.2.3.3.2.2.2.2.2.2.2.2.2.2.2.2.2.2.1.1.1.1.1.1.1.1.1.1.1.1h.1v-.1l-.1-.1-.1-.1-.1-.1-.1-.1-.1-.1-.1-.1-.1-.1-.2-.2-.2-.2-.2-.2-.2-.2h.1l-.2-.2-.2-.2-.3-.3-.3-.3-.2-.2-.1-.1s0 0-.1.1zm20.1-18.3 1.1 1.1s.5-.5 1.2-.6l-1.6-1.6c0-.1-.2.5-.7 1.1zm-3.2 3.2 1.1 1.1s.5-.5 1.1-.6l-1.6-1.6c.1-.1-.1.5-.6 1.1zm-2.8 2.7 1.2 1.2s.4-.4 1-.4l-1.7-1.7c0-.1-.1.4-.5.9zm-2.5 2.5 1.2 1.2s.4-.4 1-.4l-1.7-1.7c0-.1-.1.4-.5.9zm-3.2 3.1 1.3 1.3s.3-.3.9-.3l-1.9-1.9s0 .5-.3.9zm-2.8 2.7 1.3 1.3s.4-.3.9-.2l-2-2c.1 0 .1.5-.2.9zm-1.6 1.3 1.7 1.8s.2-.1.5-.2l-2.1-2.1c0-.1 0 .1-.1.5zm-1.4 1.4 1.7 1.8s.2-.1.5-.2l-2.1-2.1s-.1.2-.1.5zm-1.3 1.2 1.7 1.7s.2 0 .5-.2l-2.1-2.1c0 .2 0 .4-.1.6z" fill="#fff"/><circle cx="50.1" cy="6.1" fill="#fff" r=".4"/><path d="m49.8 6.4c-.1-.1-.2-.4 0-.5.1-.1.4-.1.5 0 .2.1.2.4 0 .5-.1.1-.3.1-.5 0zm.5-.5c-.1-.1-.3-.1-.4 0s-.1.3 0 .4.3.1.4 0 .1-.3 0-.4z"/><circle cx="50.1" cy="6.1" r=".2"/><circle cx="52" cy="4.6" fill="#fff" r=".4"/><path d="m51.7 4.9c-.1-.2-.1-.4 0-.5.2-.1.4-.1.5 0s.1.4 0 .5-.3.1-.5 0zm.5-.5c-.1-.1-.3-.1-.4 0s-.1.3 0 .4.3.1.4 0 .1-.3 0-.4z"/><circle cx="52" cy="4.6" r=".2"/><circle cx="53.8" cy="2.8" fill="#fff" r=".4"/><path d="m53.5 3.1c-.1-.1-.1-.4 0-.5s.4-.1.5 0c.1.2.1.4 0 .5-.1.2-.3.2-.5 0zm.5-.4c-.1-.1-.3-.1-.4 0s-.1.3 0 .4.3.1.4 0 .1-.3 0-.4z"/><circle cx="53.8" cy="2.8" r=".2"/><circle cx="56.1" cy="5.1" fill="#fff" r=".4"/><path d="m55.9 5.4c-.1-.2-.1-.4 0-.5s.4-.1.5 0 .1.4 0 .5c-.2.2-.4.2-.5 0zm.4-.4c-.1-.1-.3-.1-.4 0s-.1.3 0 .4.3.1.4 0 .1-.3 0-.4z"/><circle cx="56.1" cy="5.1" r=".2"/><circle cx="54.1" cy="6.7" fill="#fff" r=".4"/><path d="m53.8 7c-.1-.2-.1-.4 0-.5s.4-.1.5 0c.2.1.2.4 0 .5-.1.1-.3.1-.5 0zm.5-.5c-.1-.1-.3-.1-.4 0s-.1.3 0 .4.3.1.4 0 .1-.3 0-.4z"/><circle cx="54.1" cy="6.7" r=".2"/><circle cx="52.2" cy="8.4" fill="#fff" r=".4"/><path d="m52 8.7c-.1-.1-.1-.4 0-.5s.4-.1.5 0 .1.4 0 .5-.4.1-.5 0zm.4-.5c-.1-.1-.3-.1-.4 0s-.1.3 0 .4.3.1.4 0 .1-.3 0-.4z"/><circle cx="52.2" cy="8.4" r=".2"/><circle cx="10.6" cy="41.4" r=".2"/><circle cx="13.4" cy="39.2" r=".2"/><circle cx="15.9" cy="36.4" r=".2"/><circle cx="17.6" cy="33" r=".2"/><circle cx="21.2" cy="33.6" r=".2"/><circle cx="23.8" cy="36.4" r=".2"/><circle cx="23.1" cy="39.4" r=".2"/><circle cx="19" cy="43.5" r=".2"/><circle cx="14.3" cy="38.7" r=".2"/><circle cx="18.4" cy="34.7" r=".2"/><circle cx="18.5" cy="49.9" r=".2"/><circle cx="20.6" cy="46.3" r=".2"/><circle cx="24" cy="44.1" r=".2"/><circle cx="26.6" cy="41" r=".2"/><path d="m11.1 43.9 35.7-35 3.5-2.6v.1l-3.4 2.6zm.5.6 35.5-35.1 5.1-4.5v.1l-5.2 4.5zm.4.5 35.5-35.2 6.6-6.7-6.6 6.7zm.6.6 35.3-35.4 8.1-5.5v.1l-8 5.4zm.6.5 35.1-35.5 5.6-4.2v.1l-5.6 4.2zm.4.5 35.1-35.8 3.2-2.6-3.2 2.6z" fill="#fff"/></svg>