<svg enable-background="new 0 0 60 60" height="60" viewBox="0 0 60 60" width="60" xmlns="http://www.w3.org/2000/svg"><path d="m58.6 3.7c-.4-.4-.5-.7-.7-1-.2-.6-.6-.7-.6-.7s-.1-.4-.7-.6-1.3-.5-1.6-1.2c-.1 0-1.9 2.1-3.6 3.5-1.7 1.5-3 2.5-3.4 2.7-.1.1.2.6-1.5 2.3-1.5 1.5-19.3 18.9-23.9 23.4s-1.8 1.2-2.8 0c-.6-.8-.6-2 .5-3.1.6-.6 1.1-1 1.3-1.1s.4-.4 0-.5c-.9-.2-3.8 0-5.9 1.9-2.3 2.1-3 4.1-3.7 5.8s-1.8 2.8-4.2 3c-2.8.2-6 2.4-6.8 5.5-1 4 1.1 7.8 3.8 10.8 2 2.2 7 7.3 11.6 4.8 4.5-2.4 4.5-6.1 4.8-8.2.5-3.4 1.8-3.5 4.1-4.6 2.3-1.2 3.6-3.1 4.2-5.9.3-1.4.2-2.2.2-2.7 0-.6-.2-.4-.7.1-1 1-2.8 1.2-3.6-.3-.6-1.1-.3-1.9 0-2.5 4.3-4.4 23.1-23.7 23.6-24.2.6-.6 1.9-1.3 3-.9 1.2-1.5 3.6-3.7 7.4-6-.1.2-.5-.1-.8-.3z"/><path d="m10.1 41.4c.3 1.4 1.3 1.8 2.7 2.4 1.6.7 2.9 2.1 3.4 3.3.7 1.6.9 2.9 2.4 3.5.2.1.2-.1.2-.1.5-2 1.6-3.4 2.8-4.3 1.1-.9 1.6-.5 3.7-2.4.4-.4 1.6-1.8 2-3.1 0-.2-.2-.2-.2-.2-1.8.7-2.6-.5-2.8-1-.5-1.3.1-1.8.2-3.3-1.3-1.2-2.9-2.9-2.9-2.9s-.6 0-1.7.2c-.9.2-1.4-.1-2.3-1.1-.1-.1-.2-.1-.2.1-.7 1.9-.8 2.5-1.8 3.8-.9 1.2-2 2.3-3.2 3.4-1 .9-1.9 1.6-2.1 1.6-.1 0-.2 0-.2.1z" fill="#fff"/><path d="m29.2 38.3c-.1.1-.1.2-.2.2 0 0-.1.1-.1.1s-.1.1-.1.1-.1.1-.1.2-.1.1-.2.2-.1.1-.2.2c0 0-.1 0-.1.1 0 0 0 0-.1 0 0 0 0 0-.1 0 0 0-.1 0-.1.1 0 0-.1 0-.1.1 0 0 0 0-.1 0 0 0 0 0-.1 0h-.1-.1-.1c-.1 0-.2 0-.3 0-.2 0-.4-.1-.6-.1-.2-.1-.4-.2-.5-.3-.2-.1-.3-.3-.4-.4s-.2-.3-.3-.5c0-.1-.1-.2-.1-.2-.1-.1-.1-.1-.1-.2v-.1-.1c0-.1 0-.1 0-.2s0-.1 0-.2 0-.1 0-.1 0 0 0-.1c0 0 0 0 0-.1v-.1-.1s0 0 0 .1v.1.1.1.1.2c0 .1.1.2.1.4 0 .1.1.1.1.2s.1.1.1.2c.1.1.2.3.3.4s.3.3.4.4c.2.1.3.2.5.3s.4.1.6.1h.5.1.1.1s.1 0 .1-.1h.1.1s.1 0 .1-.1c.1 0 .1-.1.2-.1s.1-.1.2-.1c0 0 .1-.1.1-.1s.1-.1.1-.1.1-.1.1-.1c0-.4.1-.4.2-.5-.1 0 0 0 0 0z" fill="#fff"/><path d="m21.8 48.3s0 0 .1-.1c0 0 0 0 0-.1 0 0 0-.1.1-.1 0 0 0-.1.1-.1 0 0 0-.1.1-.1.1-.1.2-.3.4-.5s.4-.4.6-.5c.2-.2.5-.4.8-.6l.9-.6c.3-.2.6-.4.9-.7.2-.1.3-.3.4-.4l.4-.4.1-.1.1-.1c.1-.1.1-.2.2-.2l.1-.1.1-.1c.1-.1.1-.2.2-.2 0 0 .1-.1.1-.1s.1-.1.1-.1c.1-.1.1-.2.2-.2.1-.1.1-.2.1-.3s.1-.2.1-.3c.1-.2.2-.3.2-.5 0-.1.1-.2.1-.2 0-.1.1-.2.1-.2.1-.2.1-.3.2-.5 0-.1.1-.2.1-.2 0-.1 0-.1.1-.2 0-.1 0-.1.1-.2 0-.1 0-.1.1-.2 0-.1.1-.3.1-.4s0-.2.1-.3c0-.1 0-.2 0-.3.1-.4.1-.6.1-.6s0 .1 0 .1v.4.3c0 .1 0 .2-.1.3 0 .1 0 .3-.1.4v.2c0 .1 0 .1-.1.2 0 .1 0 .2-.1.2 0 .1 0 .2-.1.2 0 .1 0 .2-.1.2 0 .1-.1.2-.1.2 0 .1-.1.2-.1.2 0 .1-.1.2-.1.3s-.1.2-.1.3-.1.2-.1.3-.1.2-.1.3-.1.2-.1.3c-.1.1-.1.2-.2.3 0 0-.1.1-.1.1s-.1.1-.1.1c-.1.1-.1.2-.2.3l-.1.1-.1.1s-.1.1-.2.1l-.1.1-.1.1c-.1.2-.3.3-.4.5-.1.1-.3.3-.4.4-.3.3-.6.5-1 .7-.3.2-.6.4-.9.6s-.6.3-.8.5-.5.3-.6.5c-.2.2-.3.3-.4.5-.2.1-.2.1-.3.2 0 0 0 .1-.1.1v.1z" fill="#fff"/><path d="m20.5 27.8c-.1.1-.2.1-.3.2-.2.1-.4.3-.7.6-.1.1-.3.3-.4.4-.1.2-.3.3-.4.6-.1.1-.1.2-.1.3s-.1.2-.1.3v.7c0 .1 0 .2.1.4 0 .1 0 .1.1.2 0 .1 0 .1.1.2.1.2.2.4.4.6.1.1.2.2.2.2.1.1.2.1.3.2s.2.1.3.1.2.1.3.1c.2.1.3.1.5.1h.4.1.1.1s0 0-.1 0h-.1-.1c-.1 0-.2 0-.4 0s-.3 0-.5-.1c-.2 0-.4-.1-.6-.2s-.4-.3-.5-.4c-.2-.2-.3-.4-.4-.6 0-.1-.1-.1-.1-.2v-.1-.1c0-.1-.1-.2-.1-.4 0-.3 0-.5 0-.8s.1-.5.2-.7.3-.4.4-.6.3-.3.4-.4.3-.2.4-.3.2-.2.3-.2c0 0 .1-.1.2-.1z" fill="#fff"/><path d="m1.5 49.1s0-.1-.1-.3-.1-.6-.2-1-.1-.9-.1-1.5c0-.1 0-.2 0-.2 0-.1 0-.2 0-.2 0-.2 0-.3.1-.5.1-.3.2-.7.3-1 .1-.4.3-.7.5-1.1s.4-.7.7-1c.5-.7 1.2-1.3 2-1.8.4-.2.8-.4 1.3-.6h.2.2c.1 0 .2-.1.3-.1.2-.1.5-.1.7-.2.5-.1.9-.2 1.4-.4.5-.1.9-.3 1.4-.5.4-.2.8-.5 1.2-.8s.6-.7.9-1.1.5-.8.7-1.2.4-.8.6-1.3c.4-.8.8-1.6 1.2-2.4.4-.7.9-1.4 1.5-1.9h.1s.1-.1.1-.1.1-.1.1-.1.1-.1.1-.1l.2-.2.2-.2c.1-.1.1-.1.2-.1s.1-.1.2-.1c.1-.1.3-.2.4-.2.5-.3 1-.5 1.4-.6.2-.1.4-.1.5-.2.2 0 .3-.1.4-.1.2-.1.3-.1.3-.1s-.1 0-.3.1c-.1 0-.2.1-.4.1s-.3.1-.5.2c-.4.1-.9.4-1.4.6-.5.3-1.1.7-1.6 1.2s-1 1.2-1.4 1.9-.8 1.5-1.2 2.4c-.2.4-.4.8-.6 1.3-.2.4-.4.9-.7 1.3-.1.2-.3.4-.4.6-.2.2-.3.4-.5.6-.4.3-.8.6-1.2.8-.5.2-.9.4-1.4.5s-.9.2-1.4.4c-.2.1-.5.1-.7.2-.1 0-.2.1-.3.1h-.2l-.3-.2c-.4.1-.9.3-1.3.5-.8.4-1.5 1.1-2 1.7-.3.3-.5.7-.7 1s-.3.7-.5 1c-.1.3-.2.7-.3 1 0 .2-.1.3-.1.5v.2.2 1.5.3.3.2.1.1c.3.3.4.5.4.5z" fill="#fff"/><path d="m14 39.7 1.3-1.3c.1-.1.2-.1.3 0l3.6 3.6c.1.1.1.2 0 .3l-1.3 1.3c-.1.1-.2.1-.3 0l-3.6-3.5c-.1-.1-.1-.3 0-.4z"/><path d="m14 39.7 1.3-1.3c.1-.1.2-.1.3 0l3.6 3.6c.1.1.1.2 0 .3l-1.3 1.3c-.1.1-.2.1-.3 0l-3.6-3.5c-.1-.1-.1-.3 0-.4z"/><path d="m14 39.7 1.3-1.3c.1-.1.2-.1.3 0l3.6 3.6c.1.1.1.2 0 .3l-1.3 1.3c-.1.1-.2.1-.3 0l-3.6-3.5c-.1-.1-.1-.3 0-.4z"/><path d="m14 39.7 1.3-1.3c.1-.1.2-.1.3 0l3.6 3.6c.1.1.1.2 0 .3l-1.3 1.3c-.1.1-.2.1-.3 0l-3.6-3.5c-.1-.1-.1-.3 0-.4z"/><circle cx="15.3" cy="39.7" fill="#fff" r=".3"/><path d="m15.9 40.4c-.1.1-.3.1-.4 0s-.1-.3 0-.4.3-.1.4 0c.1.2.1.3 0 .4z" fill="#fff"/><circle cx="16.3" cy="40.7" fill="#fff" r=".3"/><circle cx="16.8" cy="41.3" fill="#fff" r=".3"/><path d="m17.6 42c-.1.1-.3.1-.4 0s-.1-.3 0-.4.3-.1.4 0c.1.2.1.3 0 .4z" fill="#fff"/><circle cx="17.9" cy="42.4" fill="#fff" r=".3"/><path d="m18.1 35.7 1.3-1.3c.1-.1.2-.1.3 0l3.6 3.6c.1.1.1.2 0 .3l-1.3 1.3c-.1.1-.2.1-.3 0l-3.6-3.6c-.1-.1-.1-.3 0-.3z"/><path d="m18.1 35.7 1.3-1.3c.1-.1.2-.1.3 0l3.6 3.6c.1.1.1.2 0 .3l-1.3 1.3c-.1.1-.2.1-.3 0l-3.6-3.6c-.1-.1-.1-.3 0-.3z"/><path d="m18.1 35.7 1.3-1.3c.1-.1.2-.1.3 0l3.6 3.6c.1.1.1.2 0 .3l-1.3 1.3c-.1.1-.2.1-.3 0l-3.6-3.6c-.1-.1-.1-.3 0-.3z"/><path d="m18.1 35.7 1.3-1.3c.1-.1.2-.1.3 0l3.6 3.6c.1.1.1.2 0 .3l-1.3 1.3c-.1.1-.2.1-.3 0l-3.6-3.6c-.1-.1-.1-.3 0-.3z"/><g fill="#fff"><path d="m19.6 35.9c-.1.1-.3.1-.4 0s-.1-.3 0-.4.3-.1.4 0 .1.3 0 .4z"/><path d="m20 36.4c-.1.1-.3.1-.4 0s-.1-.3 0-.4.3-.1.4 0 .1.3 0 .4z"/><path d="m20.5 36.8c-.1.1-.3.1-.4 0s-.1-.3 0-.4.3-.1.4 0c.1.2.1.3 0 .4z"/><path d="m21.1 37.4c-.1.1-.3.1-.4 0s-.1-.3 0-.4.3-.1.4 0 .1.3 0 .4z"/><path d="m21.6 38c-.1.1-.3.1-.4 0s-.1-.3 0-.4.3-.1.4 0 .1.3 0 .4z"/><path d="m22.2 38.5c-.1.1-.3.1-.4 0s-.1-.3 0-.4.3-.1.4 0z"/><path d="m9.5 43.1c.3-.3.5-.4.6-.3l4.8 4.8c.1.1-.1.4-.3.6-.3.3-.5.4-.6.3l-4.8-4.8c0-.1.1-.3.3-.6z"/></g><path d="m15.4 45.7-3.5-3.5c-.2-.2-.2-.5 0-.8.2-.2.5-.2.8 0l3.5 3.5c.2.2.2.5 0 .8-.3.2-.6.2-.8 0zm-2.8-4.2c-.2-.2-.5-.2-.7 0s-.2.5 0 .7l3.5 3.5c.2.2.5.2.7 0s.2-.5 0-.7z"/><path d="m11.7 55.4c-.3.3-.9.3-1.2 0s-.3-.9 0-1.2.9-.3 1.2 0 .3.9 0 1.2z" fill="#fff"/><path d="m14.4 53.8c-.3.3-.9.3-1.2 0s-.3-.9 0-1.2.9-.3 1.2 0 .3.8 0 1.2z" fill="#fff"/><circle cx="15.7" cy="55.2" fill="#fff" r=".9"/><path d="m13.4 57.6c-.3.3-.9.3-1.2 0s-.3-.9 0-1.2.9-.3 1.2 0 .3.8 0 1.2z" fill="#fff"/><path d="m15.9 51.5c0-.7.5-1.2 1.2-1.3.7 0 1.2.5 1.3 1.2 0 .7-.5 1.2-1.2 1.3-.8 0-1.3-.5-1.3-1.2z" fill="#fff"/><path d="m16.5 51.5c0-.3.2-.6.6-.6.3 0 .6.2.6.6 0 .3-.2.6-.6.6-.3 0-.6-.3-.6-.6z"/><path d="m16.8 51.5c0-.2.1-.3.3-.3s.3.1.3.3-.1.3-.3.3-.3-.2-.3-.3z" fill="#fff"/><path d="m17.1 51.4.6-.3s.2-.1.3.1c.1.3-.2.3-.2.3l-.6.1s-.1 0-.1-.1c-.1-.1 0-.1 0-.1z"/><path d="m17 51.6c-.1-.1 0-.2 0-.2l.6-.3s.2-.1.3 0c0 0 0 .1.1.1v.2c-.1.1-.2.1-.2.1l-.6.1s-.1 0-.2 0zm.9-.5c-.1-.1-.2 0-.2 0l-.6.3s-.1 0 0 .1h.1l.6-.1s.1 0 .2-.1c0 0 0 0-.1-.2.1.1.1 0 0 0z" fill="#fff"/><path d="m12.5 42.1c.1-.1.2-.1.3 0l2.9 2.9c.1.1.1.2 0 .2-.1.1-.2.1-.2 0l-2.9-2.9c-.2-.1-.2-.2-.1-.2z"/><path d="m13.4 47.5-3.1-3.1c-.1-.1-.1-.2 0-.3l.2-.2c.1-.1.2-.1.3 0l3.1 3.1c.1.1.1.2 0 .3l-.2.2c-.1.1-.2.1-.3 0zm-2.5-3.5c-.1-.1-.2-.1-.2 0l-.2.2c-.1.1-.1.2 0 .2l3.1 3.1c.1.1.2.1.2 0l.2-.2c.1-.1.1-.2 0-.2z"/><circle cx="10" cy="43.5" r=".4"/><path d="m14.5 48.1c-.2.2-.4.2-.6 0s-.2-.4 0-.6.4-.2.6 0 .2.4 0 .6z"/><path d="m21.5 33.2c.3-.3 23.3-22.8 25-24.5 1.3-1.3 1.4-2 1.5-2.2 0-.1 0-.1.1-.1.4-.3 1.7-1.3 3.4-2.7 1.1-.9 2.2-2.1 2.9-2.8.4-.5.6-.7.6-.7.1.2.2.4.3.5.4.4.9.6 1.2.7.2.1.4.2.5.3s.2.3.2.3c.1 0 .2.1.4.2.1.1.2.2.3.4 0 .1.1.1.1.2.1.3.2.5.6.8.2.2.4.3.6.4.1.1.1.1.1.1v.1c-4.2 2.5-6.4 4.8-7.4 6-1.1-.4-2.4.3-3 .9s-24.2 24.9-24.4 25.1zm33.5-32.9c-.1.1-.4.4-.7.7-.7.7-1.8 1.9-2.9 2.8-1.6 1.4-2.9 2.4-3.4 2.7v.1c0 .2-.1.9-1.5 2.3-1.6 1.6-23.9 23.4-25 24.4l2.9 2.9c1-1 23.9-24.5 24.4-25.1.6-.6 1.9-1.3 3-.9 1-1.2 3.2-3.5 7.3-5.9 0 0-.1 0-.1-.1 0-.2-.2-.3-.4-.5-.4-.3-.5-.6-.6-.8 0-.1-.1-.1-.1-.2-.1-.1-.2-.3-.2-.4-.2-.2-.3-.2-.3-.2s0-.2-.2-.3c-.1-.1-.3-.2-.4-.3-.4-.1-.9-.3-1.3-.7-.3-.2-.4-.3-.5-.5z" fill="#fff"/><path d="m56.8 7.9c-.3-.1-.4-.5-.8-.4-.2 0-.2.1-.2 0 0 0 0-.1 0-.2-.1-.1-.2 0-.3.1l-.4-.4-.1.1.4.3c-.1.1-.1.2-.1.3.1.1.1 0 .2.1v.2c0 .4.4.5.5.8.1.2.1.2.3 0s.2-.1.4-.3.2-.3.3-.4 0-.2-.2-.2z"/><path d="m55 9.5c-.3-.1-.4-.5-.8-.4-.2 0-.2.1-.2 0 0 0 0-.1 0-.2-.1-.1-.2 0-.3.1l-.4-.3-.1.1.4.3c-.1.1-.1.2-.1.3.1.1.1 0 .2.1v.2c0 .4.4.5.5.8.1.2.1.2.3 0 .2-.1.2-.1.4-.3.1-.2 0-.2.2-.4.1-.2 0-.2-.1-.3z"/><path d="m58.9 6.3c-.3-.1-.4-.5-.8-.4-.2 0-.2.1-.2 0 0 0 0-.1 0-.2-.1-.1-.2 0-.3.1l-.4-.3-.2.1.4.3c-.1.1-.1.2-.1.3.1.1.1 0 .2.1v.2c0 .4.4.5.5.8.1.2.1.2.3 0 .2-.1.2-.1.4-.3s.2-.3.3-.4c.2-.1.1-.2-.1-.3z"/><path d="m51.6 3.5-.4-.3c.1-.1.1-.2.1-.3-.1-.1-.1 0-.2-.1 0 0 0-.1 0-.2 0-.4-.4-.5-.5-.8-.1-.2-.1-.2-.3 0-.2.1-.2.1-.4.3s-.2.3-.3.4c-.2.2-.1.2.1.3.3.1.4.5.8.4.2 0 .2-.1.2 0v.2c.1.1.2 0 .3-.1l.4.3z"/><path d="m53.4 1.8-.4-.3c.1-.1.1-.2.1-.3-.1-.1-.1 0-.2-.1 0 0 0-.1 0-.2 0-.4-.4-.5-.5-.8-.1-.2-.1-.2-.3 0-.2.1-.2.1-.4.3s-.2.3-.3.4-.1.2.1.3c.3.1.4.5.8.4.2 0 .2-.1.2 0v.2c.1.1.2 0 .3-.1l.5.4z"/><path d="m49.7 5.2-.4-.3c.1-.1.1-.2.1-.3-.1-.1-.1 0-.2-.1 0 0 0-.1 0-.2 0-.4-.4-.5-.5-.8-.1-.2-.1-.2-.3 0-.2.1-.2.1-.4.3s-.2.2-.3.4c-.2.2-.1.2.1.3.3.1.4.5.8.4.2 0 .2-.1.2 0v.2c.1.1.2 0 .3-.1l.4.3z"/><g fill="#fff"><path d="m46.4 8.9.2-.2h.1l2.3 2.3v.1l-.2.2s0 0-.1 0z"/><path d="m44.4 10.9.2.2.2.1.1.1.1.1.1.1.2.2.2.2.1.1.1.1.1.1.1.1.1.1.1.2.2.2.1.1h.1v-.1l.3.2-.2-.2-.1-.2-.1-.1-.1-.1-.3-.1-.1-.1-.2-.2-.2-.2-.2-.2-.1-.1-.2-.2-.1-.1-.2-.2-.2-.1-.1-.1h-.1c.1 0 .1.1.1.1z"/><path d="m42.6 12.7.2.2.2.1.1.1.2.2.3.3.2.2.2.2.1.1.1.1.1.1.2.1.2.1.1.1.1.1h.1v-.1.1l-.1-.1-.2-.1-.2-.1-.1-.1-.2-.3-.1-.1-.1-.1-.2-.2-.3-.3-.2-.2-.1-.1-.2-.2-.2-.1h-.2c.1-.1 0-.1 0-.1z"/><path d="m41 14.3.1.1.1.1.1.1.1.1.2.1.1.1.1.1.2.2.3.3.2.2.1.1.1.1.2.1.2.2.1.1.1.1h.1v-.1l-.1-.1-.1-.1-.2-.2-.1.1-.1-.1-.1-.1-.2-.2-.3-.3-.2-.2-.1-.1-.2-.1-.2-.1-.1-.1-.1-.1-.1-.1-.1-.1-.1-.1c0-.1 0-.1 0-.1-.1.1-.1.1 0 .1z"/><path d="m39.4 15.9.2.2.2.2.2.2.2.1.2.1.2.2.3.3.2.2.1.1.2.1.2.1.2.1.2.1.1.1h.1v-.1l-.1-.1-.4.2-.2-.1-.2-.1-.1-.1-.1-.1-.2-.2-.3-.3-.2-.2-.2-.1-.2-.4-.2-.2-.2-.2-.2-.2v.1c.1-.1 0-.1 0-.1-.1 0-.1.1 0 .1z"/><path d="m37.9 17.3.1.1.1.1.1.1.1.1.1.1.1.1.1.1.1.1.2.2.2.2.1.1.1.1.1.1.1.1.1.1.1.1.1.1.1.1.1.1.1.1.1.1h.1v-.1l-.1-.1-.1-.1-.1-.1v.1-.1l-.1-.1-.1-.1h-.1l-.1-.1-.1-.1-.1-.1-.4-.4-.2-.2-.1-.1-.1-.1-.1-.1-.1-.1-.1-.1-.1-.1-.1-.1-.1-.1h-.1c.1-.1 0-.1 0-.1-.1.1-.1.1 0 .1z"/><path d="m36.4 18.7.1.1.3.3.3.3.2.2.1.1.1.2.2.2.2.2.2.2.2.2.2.2.2.2.1.1.1.1h.1v-.1l-.1-.2-.1-.1-.2-.2-.2-.2-.2-.2-.2-.2-.2-.2-.2-.2-.2-.2-.1-.1-.2-.2-.1-.1-.3-.3-.3-.1c.1-.1 0-.1 0-.1z"/><path d="m35.1 20 .2.2.2.2.3.3.2.2.1.2.2.2.2.2.2.2.2.2.2.2.2.2.1.1.1.1.1.1.1.1h.1v-.1l-.1-.1-.1-.1-.1-.1-.2-.3-.2-.2-.1-.1-.2-.2-.2-.2-.2-.2-.1-.1-.1-.2-.2-.1-.3-.3-.2-.2-.2-.2h-.2c.1-.1 0-.1 0-.1z"/><path d="m33.8 21.3.2.2.2.2.3.3.2.2.2.2.2.2.2.2.2.2.2.2.2.2.2.2.1.1.1.1.1.1.1.1h.1v-.1l-.1-.1-.1-.1-.1-.1-.3-.3-.2-.2-.1-.1-.2-.2-.2-.2-.2-.2-.1-.1-.2-.2-.1-.1-.3-.3-.2-.2-.2-.2h-.2c.1-.1 0-.1 0-.1z"/><path d="m32.6 22.5.2.2.3.3.3.3.2.2.2.2.2.2.2.2.2.2.2.2.2.2.2.2.2.2.1.1.1.1h.1v-.1l-.1-.1-.4-.4-.2-.2-.2-.2-.2-.2-.1-.1-.2-.2-.1-.1-.2-.2-.2-.2-.2-.2-.3-.3-.3-.3h-.2c.1-.1 0-.1 0-.1z"/><path d="m31.5 23.5.2.2.3.3.3.3.2.2.2.2.2.2.1.1.2.2.2.2.2.2.2.2.1.1.1.1.1.1h.1v-.1l-.1-.1-.1-.1-.1-.1-.1-.1-.2-.2-.2-.2-.2-.2-.2-.2-.2-.2-.2-.2-.2-.2-.2-.2-.3-.3-.2-.2-.2-.2v.2c.1-.1 0-.1 0-.1z"/><path d="m30.4 24.6.2.2.2.2.3.3.2.2.2.2.2.2.2.2.2.2.2.2.2.2.1.1.1.1.1.1.1.1.1.1.1.1h.1v-.1l-.2-.2-.1-.1-.1-.1-.1-.1-.1-.1-.1-.1-.2-.2-.2-.2-.1-.1-.2-.2-.2-.2-.2-.2-.2-.2-.2-.2-.2-.2-.2-.2h-.2c.1-.1 0-.1 0-.1z"/><path d="m29.5 25.6.2.2.2.2.3.3.2.2.2.2.2.2.2.2.2.2.2.2.2.2.1.1.1.1.1.1.1.1.1.1.1.1h.1v-.1l-.3-.2v-.1l-.1-.1-.1-.1-.1-.1-.1-.1-.2-.2-.2-.2-.1-.1-.2-.2-.2-.2-.2-.2-.2-.2-.3-.3-.2-.2-.2-.2-.1.1c.1-.1 0-.1 0-.1-.1 0-.1 0 0 .1z"/><path d="m28.5 26.5.2.2.3.3.2.2.2.2.2.2.2.2.2.2.2.2.2.2.2.2.1.1.1.1.1.1.1.1.1.1h.1v-.1l-.1-.1h-.1l-.1-.1-.1-.1-.1-.1-.1-.1-.2-.2-.2-.2-.2-.2v-.1l-.2-.2-.2-.2-.2-.2-.2-.2-.2-.2-.2-.2-.2-.2-.1.1c.1-.1 0-.1 0-.1z"/><path d="m27.6 27.4.2.2.2.2.2.2.2.2.2.2.2.2.2.2.2.2.2.2.2.2.2.2.1.1.1.1.1.1.1.1.1.1.1.1h.1v-.1l-.1-.1-.1-.1-.3-.2-.1-.1-.1-.1-.1-.1-.2-.2-.1-.2-.2-.2-.2-.1-.2-.2-.2-.2-.2-.2v-.1l-.2-.2-.2-.2-.2-.2h-.2c.1-.1 0-.1 0-.1z"/><path d="m26.8 28.2.2.2.2.2.2.2.2.2.2.2.2.2.2.2.2.2.2.2.2.2.2.2.1.1.1.1.1.1.1.1.1.1.1.1.1.1.1.1h.1v-.1l-.1-.1-.1-.1-.1-.1-.1-.1-.5-.4-.1-.1-.1-.1-.1-.1-.2-.2-.2-.2-.2-.2-.2-.2-.2-.2-.2-.2-.2-.2-.2-.2-.2-.2-.2-.2.1.2c.1-.1 0-.1 0-.1-.1 0-.1.1 0 .1z"/><path d="m26 29 .2.2.2.2.2.2.2.2.2.2.2.2.2.2.2.2.2.2.2.2.2.2.1.1.1.1.1.1.1.1.1.1.1.1h.1v-.1l-.1-.1-.1-.1-.1-.1-.1-.1-.1-.1-.3-.2-.2-.2-.2-.2-.2-.2-.2-.2-.2-.2-.2-.2h.1l-.2-.2-.2-.2-.2-.2-.2-.2h-.2c.1-.1 0-.1 0-.1-.1 0 0 .1 0 .1z"/><path d="m25.2 29.7.2.2.3.3.3.3.2.2.2.2.2.2.2.2.2.2.2.2.2.2.2.2.1.1.1.1.1.1.1.1h.1v-.1l-.1-.1-.1-.1-.1-.1-.1-.1-.2-.2-.2-.2-.3-.2-.2-.2-.1-.2-.2-.2-.2-.2-.2-.2-.3-.3-.3-.3-.3-.1c.1-.1 0-.1 0-.1-.1 0 0 .1 0 .1z"/><path d="m24.5 30.4.2.2.3.3.3.3.2.2.2.2.2.2.2.2.2.2.2.2.2.2.2.2.1.1v.1l.1.1.1.1h.1v-.1l-.1-.1-.1-.1-.1-.1-.1-.1-.2-.2-.2-.2-.2-.2-.2-.2-.1-.2-.2-.2-.2-.2-.2-.2-.3-.3-.3-.3-.3-.1c.1-.1 0-.1 0-.1z"/><path d="m23.8 31.1.2.2.3.3.3.3.2.2.2.2.2.2.2.2.2.2.2.2.2.2.2.2.1.1.1.1.1.1.1.1h.1v-.1l-.1-.1-.1-.1-.1-.1-.1-.1-.3-.3-.2-.2-.2-.2-.2-.2-.2-.2-.2-.2-.2-.2-.3-.3-.3-.3-.4-.2c.1-.1 0-.1 0-.1s0 .1 0 .1z"/><path d="m23.2 31.7.3.2.2.2.3.3.2.3.2.2.2.2.2.2.2.2.2.2.2.2.1.1.1.1.1.1.1.1.1.1.1.1.1.1h.1v-.1l-.2-.1-.1-.1-.1-.1-.1-.1-.1-.1-.1-.1-.1-.1-.2-.2-.2-.2-.2-.2-.2-.2-.2-.2-.2-.2-.2-.3-.3-.3-.2-.2-.2-.2-.1.1c.1-.1 0-.1 0-.1-.1 0-.1.1 0 .1z"/><path d="m22.6 32.3.3.2.2.2.3.3.2.3.2.2.2.2.2.2.2.2.2.2.2.2.1.1.1.1.1.1.1.1.1.1.1.1.1.1h.1v-.1l-.2-.1-.1-.1-.1-.1-.1-.1-.1-.1-.1-.1-.1-.1-.2-.2-.2-.2-.2-.2-.2-.2-.2-.2-.2-.2-.1-.2-.3-.3-.2-.2-.2-.2h-.2c.1-.1 0-.1 0-.1z"/><path d="m22.1 32.8.3.2.2.2.3.3.2.3.2.2.2.2.2.2.2.2.2.2.2.2.1.1.1.1.1.1.1.1.1.1.1.1.1.1h.1v-.1l-.1-.1-.1-.1-.1-.1-.1-.1-.1-.1-.2-.1-.1-.1-.2-.2-.2-.2-.2-.2-.2-.2-.1-.1-.2-.2-.2-.2-.3-.3-.3-.3-.2-.2h-.1c.1-.1 0-.1 0-.1-.1.1-.1.1 0 .1z"/><path d="m42.1 14.5 1.1 1.1s.5-.5 1.2-.6l-1.6-1.6s-.2.5-.7 1.1z"/><path d="m38.9 17.7 1.1 1.1s.5-.5 1.1-.6l-1.6-1.6c.1 0-.1.5-.6 1.1z"/><path d="m36.1 20.4 1.2 1.2s.4-.4 1-.4l-1.7-1.7c0-.1-.1.4-.5.9z"/><path d="m33.6 22.9 1.2 1.2s.4-.4 1-.4l-1.7-1.7c0-.1-.1.4-.5.9z"/><path d="m30.4 26 1.3 1.3s.4-.3.9-.3l-1.9-1.9s0 .5-.3.9z"/><path d="m27.6 28.7 1.3 1.3s.4-.3.9-.3l-2-2c.1.1.1.7-.2 1z"/><path d="m26 30 1.7 1.8s.2-.1.5-.2l-2.1-2.1s0 .2-.1.5z"/><path d="m24.6 31.4 1.7 1.8s.2-.1.5-.2l-2.1-2.1s-.1.2-.1.5z"/><path d="m23.3 32.6 1.7 1.7s.2 0 .5-.2l-2.1-2.1c0 .2 0 .3-.1.6z"/><path d="m50.4 6.4c-.2.2-.4.2-.6 0s-.2-.4 0-.6.4-.2.6 0 .2.4 0 .6z"/></g><path d="m49.8 6.4c-.1-.1-.1-.4 0-.5s.4-.1.5 0 .1.4 0 .5-.3.1-.5 0zm.5-.5c-.1-.1-.3-.1-.4 0s-.1.3 0 .4.3.1.4 0 .1-.3 0-.4z"/><path d="m50.2 6.2c-.1.1-.2.1-.3 0s-.1-.2 0-.3.2-.1.3 0 .1.2 0 .3z"/><path d="m52.3 4.9c-.2.2-.4.2-.6 0s-.2-.4 0-.6.4-.2.6 0 .2.4 0 .6z" fill="#fff"/><path d="m51.7 4.9c-.1-.1-.1-.4 0-.5s.4-.1.5 0 .1.4 0 .5-.3.1-.5 0zm.5-.5c-.1-.1-.3-.1-.4 0s-.1.3 0 .4.3.1.4 0 .1-.3 0-.4z"/><path d="m52.1 4.7c-.1.1-.2.1-.3 0s-.1-.2 0-.3.2-.1.3 0 .1.2 0 .3z"/><ellipse cx="53.8" cy="2.8" fill="#fff" rx=".4" ry=".4" transform="matrix(.6892 -.7245 .7245 .6892 14.6565 39.8699)"/><path d="m53.5 3.1c-.1-.1-.1-.4 0-.5s.4-.1.5 0 .1.4 0 .5c-.1.2-.3.2-.5 0zm.5-.4c-.1-.1-.3-.1-.4 0s-.1.3 0 .4.3.1.4 0 .1-.3 0-.4z"/><path d="m53.9 3c-.1.1-.2.1-.3 0s-.1-.2 0-.3.2-.1.3 0 .1.2 0 .3z"/><path d="m56.5 5.4c-.2.2-.4.2-.6 0s-.2-.4 0-.6.4-.2.6 0c.1.2.1.5 0 .6z" fill="#fff"/><path d="m55.9 5.4c-.1-.1-.1-.4 0-.5s.4-.1.5 0 .1.4 0 .5c-.1.2-.4.2-.5 0zm.4-.4c-.1-.1-.3-.1-.4 0s-.1.3 0 .4.3.1.4 0c.1-.2.1-.3 0-.4z"/><path d="m56.3 5.3c-.1.1-.2.1-.3 0s-.1-.2 0-.3.2-.1.3 0 .1.2 0 .3z"/><path d="m54.4 7c-.2.2-.4.2-.6 0s-.2-.4 0-.6.4-.2.6 0 .2.4 0 .6z" fill="#fff"/><path d="m53.8 7c-.1-.1-.1-.4 0-.5s.4-.1.5 0 .1.4 0 .5-.3.1-.5 0zm.5-.5c-.1-.1-.3-.1-.4 0s-.1.3 0 .4.3.1.4 0 .1-.2 0-.4z"/><path d="m54.2 6.8c-.1.1-.2.1-.3 0s-.1-.2 0-.3.2-.1.3 0 .1.3 0 .3z"/><circle cx="52.2" cy="8.4" fill="#fff" r=".4"/><path d="m52 8.7c-.1-.1-.1-.4 0-.5s.4-.1.5 0 .1.4 0 .5c-.2.1-.4.1-.5 0zm.4-.5c-.1-.1-.3-.1-.4 0s-.1.3 0 .4.3.1.4 0 .1-.3 0-.4z"/><path d="m52.4 8.5c-.1.1-.2.1-.3 0s-.1-.2 0-.3.2-.1.3 0z"/><path d="m11.1 43.9v-.1l35.7-34.9 3.6-2.6v.1l-3.5 2.6z" fill="#fff"/><path d="m11.6 44.5-.1-.1 35.6-35 5.1-4.5-5.1 4.5z" fill="#fff"/><path d="m12 45 35.5-35.2 6.6-6.7h.1l-6.6 6.7z" fill="#fff"/><path d="m12.6 45.6h-.1l35.4-35.4 8.1-5.5.1.1-8.1 5.4z" fill="#fff"/><path d="m13.2 46.1 35.1-35.5 5.6-4.2-5.6 4.2z" fill="#fff"/><path d="m13.6 46.6 35.1-35.8 3.2-2.6v.1l-3.2 2.6-35.1 35.8z" fill="#fff"/></svg>