<svg enable-background="new 0 0 60 60" height="60" viewBox="0 0 60 60" width="60" xmlns="http://www.w3.org/2000/svg"><path d="m58.9 19.5v-.6c0-.3-.3-.6-.6-.6s-.5.2-.5.6v.5h-1.1v-1.1c0-.3-.3-.5-.6-.5h-52.2c-.3 0-.6.2-.6.5v1.1h-1.1v-.6c0-.3-.3-.6-.6-.6s-.6.2-.6.6v.5c-.5.1-1 .7-1 1.3v.4c0 .6.5 1.1 1.1 1.1v15.6c-.6 0-1.1.5-1.1 1.2v.5c0 .6.5 1.1 1.1 1.2v.6c0 .3.3.6.6.6s.5-.2.5-.6v-.5h1.1v1.1c0 .3.3.5.6.5h52.2c.3 0 .6-.2.6-.5v-1.1h1.1v.6c0 .3.3.6.6.6s.6-.2.6-.6v-.5c.6 0 1.1-.5 1.1-1.2v-.5c0-.6-.5-1.1-1.1-1.2v-15.7c.6 0 1.1-.5 1.1-1.1v-.5c-.1-.6-.6-1.1-1.2-1.1zm-56.7 18.3v-15.6h1.1v15.6zm54.5 0v-15.6h1.1v15.6z" fill="#c12127"/></svg>