<svg height="60" width="60" xmlns="http://www.w3.org/2000/svg"><path d="m58.9 19.45v-.56c0-.33-.26-.58-.57-.58-.3 0-.55.25-.55.56v.55h-1.1v-1.12c0-.3-.26-.54-.57-.54h-52.21c-.32 0-.57.25-.57.55v1.13h-1.1v-.56c0-.32-.26-.57-.56-.57s-.56.25-.56.56v.55c-.6.03-1.1.54-1.1 1.16v.47c0 .62.5 1.12 1.1 1.15v15.56c-.6.03-1.1.53-1.1 1.15v.46c0 .62.5 1.13 1.1 1.15v.57c0 .32.27.57.58.57s.55-.25.55-.56v-.55h1.1v1.12c0 .3.26.55.57.55h52.2c.32 0 .57-.25.57-.55v-1.12h1.1v.56c0 .3.26.56.56.56s.56-.25.56-.56v-.55c.6-.02 1.1-.53 1.1-1.15v-.47c0-.62-.5-1.13-1.1-1.15v-15.57c.6-.02 1.1-.53 1.1-1.15v-.47c0-.62-.5-1.13-1.1-1.15zm-56.7 18.33v-15.56h1.1v15.56zm54.45 0v-15.56h1.1v15.56z"/></svg>