<svg height="60" width="60" xmlns="http://www.w3.org/2000/svg"><path d="m24.57 38.47c-6.37 0-12.37-1.53-16.9-4.32-4.6-2.85-7.17-6.67-7.17-10.75 0-4.1 2.55-7.93 7.18-10.78 4.52-2.78 10.52-4.32 16.9-4.32 6.37 0 12.37 1.54 16.9 4.32 4.62 2.85 7.17 6.67 7.17 10.77 0 4.07-2.55 7.9-7.18 10.74-4.52 2.8-10.53 4.32-16.9 4.32z" fill="#fff"/><path d="m.5 22.8v.6c0-.2 0-.4.02-.6zm48.13 0v.6zm-7.16 11.35c-4.52 2.8-10.53 4.32-16.9 4.32s-12.37-1.53-16.9-4.32c-4.6-2.85-7.17-6.67-7.17-10.75v13.3c0 8.86 11.83 16.04 23.87 16.04h.54c12.2 0 23.75-7.18 23.75-16.04v-13.3c0 4.08-2.54 7.9-7.17 10.75z"/><ellipse cx="24.573" cy="23.386" rx="23.388" ry="14.4"/><ellipse cx="24.572" cy="21.705" fill="#fff" rx="22.112" ry="12.719"/><path d="m24.57 34.9c-6 0-11.62-1.34-15.87-3.8-4.33-2.48-6.72-5.82-6.72-9.4s2.4-6.9 6.72-9.4c4.25-2.45 9.88-3.8 15.87-3.8 6 0 11.63 1.35 15.88 3.8 4.33 2.5 6.7 5.83 6.7 9.4s-2.37 6.92-6.7 9.4c-4.25 2.46-9.9 3.8-15.88 3.8zm0-25.43c-11.93 0-21.63 5.5-21.63 12.23 0 6.75 9.7 12.25 21.63 12.25s21.63-5.5 21.63-12.25c0-6.74-9.7-12.23-21.63-12.23zm28.77-1.3v-.02c-.23-.54-.74-.9-1.32-.9-.13 0-.27.03-.4.07-3 .9-11.14 3.33-21.8 6.56-11.22 3.4-19.55 6.28-21.82 7.08-.05 0-.08.02-.1.03-.3-.24-.67-.37-1.07-.37-1 0-1.83.82-1.83 1.83 0 1 .83 1.82 1.84 1.82.82 0 1.5-.55 1.74-1.3 3.1-.72 13.85-3.34 23.15-6.35 8.65-2.8 17.38-5.56 20.73-6.63.37-.1.67-.38.84-.73.17-.37.18-.77.04-1.13zm-.66.82c-.1.16-.24.3-.43.36-3.35 1.08-12.08 3.85-20.73 6.65-9.07 2.93-19.54 5.5-22.87 6.3-.02-.28-.1-.54-.25-.76 2.52-.9 10.7-3.7 21.6-7 10.7-3.24 18.8-5.68 21.83-6.58.06-.02.13-.03.2-.03.3 0 .56.18.67.46.07.2.07.4-.02.58z"/><path d="m52.02 7.94c-.07 0-.14 0-.2.03-3 .9-11.14 3.33-21.8 6.56-10.94 3.3-19.1 6.12-21.62 7 .14.23.22.5.25.76 3.33-.8 13.8-3.38 22.87-6.3 8.65-2.8 17.38-5.58 20.73-6.64.2-.06.34-.2.43-.38.1-.2.1-.4.02-.58-.12-.28-.38-.46-.68-.46z" fill="#fff"/><path d="m59.4 12.8v-.03c-.22-.53-.73-.88-1.3-.88-.15 0-.28 0-.4.03-3.02.9-11.15 3.34-21.82 6.57-11.23 3.4-19.54 6.28-21.83 7.08-.02 0-.05.03-.08.04-.3-.22-.67-.35-1.07-.35-1 0-1.82.82-1.82 1.82s.82 1.8 1.82 1.8c.82 0 1.5-.53 1.74-1.27h.02c3.07-.74 13.83-3.36 23.13-6.36 8.64-2.8 17.36-5.57 20.7-6.63.38-.12.7-.4.85-.74s.2-.75.04-1.1zm-.65.82c-.1.18-.24.3-.44.38-3.32 1.06-12.05 3.83-20.7 6.63-9.08 2.93-19.54 5.5-22.87 6.3-.03-.3-.12-.54-.25-.77 2.52-.88 10.68-3.7 21.6-7 10.68-3.23 18.8-5.66 21.8-6.56.08-.02.15-.03.22-.03.3 0 .55.18.66.45v.02c.08.2.07.4 0 .58z"/><path d="m58.1 12.57c-.08 0-.15 0-.22.03-3 .9-11.13 3.33-21.8 6.56-10.93 3.3-19.1 6.12-21.6 7 .12.23.2.48.24.76 3.33-.8 13.8-3.37 22.86-6.3 8.66-2.8 17.4-5.56 20.73-6.62.2-.07.37-.2.46-.38.08-.18.1-.4.02-.57v-.03c-.12-.27-.38-.45-.68-.45z" fill="#fff"/></svg>