<svg enable-background="new 0 0 60 60" height="60" viewBox="0 0 60 60" width="60" xmlns="http://www.w3.org/2000/svg"><path d="m24.6 38.5c-6.4 0-12.4-1.5-16.9-4.3-4.6-2.9-7.2-6.7-7.2-10.8s2.5-7.9 7.2-10.8c4.5-2.8 10.5-4.3 16.9-4.3s12.4 1.5 16.9 4.3c4.6 2.9 7.2 6.7 7.2 10.8s-2.5 7.9-7.2 10.7c-4.5 2.8-10.6 4.4-16.9 4.4z" fill="#fff"/><path d="m.5 22.8v.6c0-.2 0-.4 0-.6zm48.1 0v.6zm-7.1 11.4c-4.5 2.8-10.6 4.3-16.9 4.3s-12.4-1.5-16.9-4.3c-4.6-2.9-7.2-6.7-7.2-10.8v13.3c0 8.9 11.8 16 23.9 16h.5c12.2 0 23.8-7.2 23.8-16v-13.3c0 4.1-2.6 7.9-7.2 10.8z" fill="#af8424"/><ellipse cx="24.6" cy="23.4" fill="#af8424" rx="23.4" ry="14.4"/><ellipse cx="24.6" cy="21.7" fill="#fff" rx="22.1" ry="12.7"/><path d="m24.6 34.9c-6 0-11.6-1.3-15.9-3.8s-6.7-5.8-6.7-9.4 2.4-6.9 6.7-9.4c4.2-2.4 9.9-3.8 15.9-3.8s11.6 1.4 15.9 3.8c4.3 2.5 6.7 5.8 6.7 9.4s-2.4 6.9-6.7 9.4-9.9 3.8-15.9 3.8zm0-25.4c-12 0-21.7 5.5-21.7 12.2 0 6.8 9.7 12.2 21.6 12.2s21.6-5.5 21.6-12.2c.1-6.7-9.6-12.2-21.5-12.2zm28.7-1.3c-.2-.6-.7-.9-1.3-.9-.1 0-.3 0-.4.1-3 .9-11.1 3.3-21.8 6.6-11.2 3.3-19.5 6.2-21.8 7-.1 0-.1 0-.1 0-.3-.2-.7-.4-1.1-.4-1 0-1.8.8-1.8 1.8s.8 1.8 1.8 1.8c.8 0 1.5-.5 1.7-1.3 3.1-.7 13.9-3.3 23.1-6.4 8.6-2.8 17.4-5.6 20.7-6.6.4-.1.7-.4.8-.7.4-.3.4-.7.2-1zm-.6.8c-.1.2-.2.3-.4.4-3.3 1.1-12.1 3.8-20.7 6.6-9.1 2.9-19.5 5.5-22.9 6.3 0-.3-.1-.5-.2-.8 2.5-.9 10.7-3.7 21.6-7 10.6-3.2 18.7-5.6 21.7-6.5h.2c.3 0 .6.2.7.5.1.1.1.3 0 .5z" fill="#af8424"/><path d="m52 7.9c-.1 0-.1 0-.2 0-3 .9-11.1 3.3-21.8 6.6-10.9 3.3-19.1 6.1-21.6 7 .1.2.2.5.2.8 3.3-.8 13.8-3.4 22.9-6.3 8.6-2.8 17.4-5.6 20.7-6.6.2-.1.3-.2.4-.4s.1-.4 0-.6c0-.3-.3-.5-.6-.5z" fill="#fff"/><path d="m59.4 12.8c-.2-.6-.7-.9-1.3-.9-.2 0-.3 0-.4 0-3 .9-11.1 3.3-21.8 6.6-11.2 3.4-19.5 6.3-21.8 7.1h-.1c-.3-.2-.7-.4-1.1-.4-1 0-1.8.8-1.8 1.8s.8 1.8 1.8 1.8c.8 0 1.5-.5 1.7-1.3 3.1-.7 13.8-3.4 23.1-6.4 8.6-2.8 17.4-5.6 20.7-6.6.4-.1.7-.4.8-.7s.3-.7.2-1zm-.6.8c-.1.2-.2.3-.4.4-3.3 1.1-12 3.8-20.7 6.6-9.1 2.9-19.5 5.5-22.9 6.3 0-.3-.1-.5-.2-.8 2.5-.9 10.7-3.7 21.6-7 10.7-3.2 18.8-5.7 21.8-6.6h.2c.3 0 .5.2.7.4 0 .3-.1.5-.1.7z" fill="#af8424"/><path d="m58.1 12.6c-.1 0-.2 0-.2 0-3 .9-11.1 3.3-21.8 6.6-10.9 3.3-19.1 6.1-21.6 7 .1.2.2.5.2.8 3.3-.8 13.8-3.4 22.9-6.3 8.7-2.8 17.4-5.6 20.7-6.6.2-.1.4-.2.5-.4s.1-.4 0-.6c-.1-.4-.4-.5-.7-.5z" fill="#fff"/></svg>