<svg xmlns="http://www.w3.org/2000/svg" width="60" height="60"><path fill="#fff" d="M56.15 56.13c0 1.45.1 3.87-1.43 3.87h-49c-1.53 0-3.4-2.42-3.4-3.87V3.53c0-1.46 1.87-2 3.4-2h49c1.54 0 1.43.54 1.43 2v52.6z"/><path d="M54.72 60h-49c-2 0-3.4-2.04-3.4-3.87V3.53C2.3 1.57 3.82 0 5.7 0h49c1.8 0 2.97 1.38 2.97 3.52v52.6C57.7 58 56.75 60 54.7 60zm-49-58.46c-1.15 0-1.87 1.03-1.87 2v52.6c0 1.07.82 2.32 1.88 2.32h49c1.12 0 1.42-1.52 1.42-2.33V3.53c0-.6-.14-2-1.43-2h-49z"/><circle cx="30.367" cy="29.763" r="19.717" fill="#fff"/><path d="M30.37 50.25c-11.3 0-20.5-9.2-20.5-20.5 0-11.28 9.2-20.47 20.5-20.47s20.48 9.2 20.48 20.48c0 11.3-9.2 20.5-20.48 20.5zm0-39.43c-10.45 0-18.95 8.5-18.95 18.94 0 10.45 8.5 18.95 18.95 18.95 10.44 0 18.94-8.5 18.94-18.93 0-10.45-8.47-18.94-18.92-18.94z"/><circle cx="40.984" cy="29.525" r="3.535"/><circle cx="19.37" cy="29.525" r="3.536"/><path d="M28.46 46.15h3.08v3.08h-3.08zm0-36.92h3.08v3.08h-3.08z"/></svg>