<svg enable-background="new 0 0 60 60" height="60" viewBox="0 0 60 60" width="60" xmlns="http://www.w3.org/2000/svg"><path d="m56.2 56.1c0 1.5.1 3.9-1.4 3.9h-49c-1.5 0-3.4-2.4-3.4-3.9v-52.6c0-1.5 1.9-2 3.4-2h49c1.5 0 1.4.5 1.4 2z" fill="#fff"/><path d="m54.7 60h-49c-2 0-3.4-2-3.4-3.9v-52.6c0-2 1.5-3.5 3.4-3.5h49c1.8 0 3 1.4 3 3.5v52.6c0 1.9-.9 3.9-3 3.9zm-49-58.5c-1.2 0-1.9 1-1.9 2v52.6c0 1.1.8 2.3 1.9 2.3h49c1.1 0 1.4-1.5 1.4-2.3v-52.6c0-.6-.1-2-1.4-2z" fill="#af8424"/><circle cx="30.4" cy="29.8" fill="#fff" r="19.7"/><g fill="#af8424"><path d="m30.4 50.2c-11.3 0-20.5-9.2-20.5-20.4 0-11.3 9.2-20.5 20.5-20.5s20.5 9.2 20.5 20.5c-.1 11.3-9.3 20.5-20.5 20.4zm0-39.4c-10.4 0-19 8.5-19 18.9s8.5 18.9 19 18.9c10.4 0 18.9-8.5 18.9-18.9s-8.5-18.9-18.9-18.9z"/><circle cx="41" cy="29.5" r="3.5"/><circle cx="19.4" cy="29.5" r="3.5"/><path d="m28.5 46.2h3.1v3.1h-3.1zm0-37h3.1v3.1h-3.1z"/></g></svg>