<svg height="60" width="60" xmlns="http://www.w3.org/2000/svg"><path d="m56.92 56.6c0 1.45-.98 3.4-2.52 3.4h-49c-1.54 0-3.86-1.95-3.86-3.4v-52.6c0-1.46 2.32-2.46 3.86-2.46h49c1.53 0 2.52 1 2.52 2.46z" fill="#fff"/><path d="m54.4 60h-49c-2.06 0-3.86-1.6-3.86-3.4v-52.6c0-1.77 1.82-4 3.86-4h49c1.93 0 4.06 2.1 4.06 4v52.6c0 1.95-2.15 3.4-4.06 3.4zm-49-58.46c-1.12 0-2.32 1.44-2.32 2.46v52.6c0 .96 1.13 1.86 2.32 1.86h49c1.22 0 2.52-.95 2.52-1.86v-52.6c0-1.06-1.44-2.46-2.52-2.46z"/><ellipse cx="29.899" cy="30.237" fill="#fff" rx="21.618" ry="19.716"/><path d="m29.9 50.72c-12.34 0-22.4-9.2-22.4-20.48 0-11.3 10.05-20.5 22.4-20.5s22.4 9.2 22.4 20.5-10.06 20.48-22.4 20.48zm0-39.43c-11.5 0-20.85 8.5-20.85 18.93 0 10.45 9.35 18.94 20.85 18.94s20.85-8.5 20.85-18.94c0-10.45-9.35-18.95-20.85-18.95zm8.56 8.7h3.08v10.77h-3.08zm-20 0h3.08v10.77h-3.08zm13.84 23.16c0-1.2-1-2.2-2.23-2.2-1.22 0-2.18.6-2.24 2.13h-.14v1.53h4.6v-1.44z"/></svg>