<svg enable-background="new 0 0 60 60" height="60" viewBox="0 0 60 60" width="60" xmlns="http://www.w3.org/2000/svg"><path d="m56.9 56.6c0 1.5-1 3.4-2.5 3.4h-49c-1.5 0-3.9-2-3.9-3.4v-52.6c0-1.5 2.3-2.5 3.9-2.5h49c1.5 0 2.5 1 2.5 2.5z" fill="#fff"/><path d="m54.4 60h-49c-2.1 0-3.9-1.6-3.9-3.4v-52.6c0-1.8 1.8-4 3.9-4h49c1.9 0 4.1 2.1 4.1 4v52.6c0 1.9-2.2 3.4-4.1 3.4zm-49-58.5c-1.1 0-2.3 1.5-2.3 2.5v52.6c0 1 1.1 1.9 2.3 1.9h49c1.2 0 2.5-1 2.5-1.9v-52.6c0-1.1-1.4-2.5-2.5-2.5z" fill="#af8424"/><ellipse cx="29.9" cy="30.2" fill="#fff" rx="21.6" ry="19.7"/><path d="m29.9 50.7c-12.3 0-22.4-9.2-22.4-20.5s10-20.5 22.4-20.5 22.4 9.2 22.4 20.5-10.1 20.5-22.4 20.5zm0-39.4c-11.5 0-20.9 8.5-20.9 18.9 0 10.5 9.4 18.9 20.9 18.9s20.9-8.5 20.9-18.9-9.4-18.9-20.9-18.9zm8.6 8.7h3.1v10.8h-3.1zm-20 0h3.1v10.8h-3.1zm13.8 23.2c0-1.2-1-2.2-2.2-2.2s-2.2.6-2.2 2.1h-.1v1.5h4.6z" fill="#af8424"/></svg>