<svg height="60" width="60" xmlns="http://www.w3.org/2000/svg"><path d="m45.67 60h-31.34c-.36 0-.64-.28-.64-.64v-58.72c0-.35.26-.64.62-.64h31.34c.36 0 .64.3.64.64v58.72c0 .36-.27.64-.63.64z"/><circle cx="30" cy="12.179" fill="#fff" r="8.873"/><path d="m30 21.53c-5.16 0-9.35-4.2-9.35-9.35 0-5.16 4.2-9.35 9.35-9.35 5.16 0 9.35 4.2 9.35 9.35 0 5.16-4.2 9.35-9.35 9.35zm0-17.75c-4.63 0-8.4 3.77-8.4 8.4s3.77 8.4 8.4 8.4 8.4-3.77 8.4-8.4-3.77-8.4-8.4-8.4z"/><circle cx="30" cy="12.179" r="3.135"/><circle cx="30" cy="33.327" fill="#fff" r="14.293"/><path d="m30 48.1c-8.14 0-14.77-6.63-14.77-14.77 0-8.15 6.62-14.77 14.77-14.77 8.14 0 14.77 6.62 14.77 14.77 0 8.14-6.63 14.77-14.77 14.77zm0-28.6c-7.62 0-13.8 6.2-13.8 13.83 0 7.6 6.18 13.8 13.8 13.8s13.8-6.2 13.8-13.8c0-7.62-6.18-13.82-13.8-13.82z"/><circle cx="30.001" cy="33.327" r="10.999"/><circle cx="30" cy="33.327" fill="#fff" r="2.763"/><path d="m30 41.9c-4.73 0-8.58-3.84-8.58-8.57s3.85-8.58 8.58-8.58 8.58 3.85 8.58 8.58-3.85 8.57-8.58 8.57zm0-16.2c-4.2 0-7.62 3.42-7.62 7.63s3.42 7.62 7.62 7.62 7.63-3.42 7.63-7.62-3.43-7.63-7.63-7.63z" fill="#fff"/><circle cx="38.262" cy="23.869" r=".691"/><circle cx="21.685" cy="23.869" r=".691"/><circle cx="21.685" cy="42.52" r=".691"/><path d="m44.08 58.73h-28.16c-.53 0-.96-.43-.96-.96v-55.54c0-.53.43-.95.96-.95h28.16c.53 0 .96.42.96.95v55.54c0 .53-.43.95-.96.95zm-28.16-56.83c-.18 0-.32.16-.32.33v55.54c0 .17.14.32.32.32h28.16c.18 0 .32-.17.32-.34v-55.52c0-.17-.14-.32-.32-.32h-28.16z" fill="#fff"/></svg>