<svg enable-background="new 0 0 60 60" height="60" viewBox="0 0 60 60" width="60" xmlns="http://www.w3.org/2000/svg"><path d="m45.7 60h-31.4c-.4 0-.6-.3-.6-.6v-58.8c0-.3.3-.6.6-.6h31.3c.4 0 .6.3.6.6v58.7c.1.4-.2.7-.5.7z" fill="#af8424"/><circle cx="30" cy="12.2" fill="#fff" r="8.9"/><path d="m30 21.5c-5.2 0-9.4-4.2-9.4-9.4s4.2-9.4 9.4-9.4 9.3 4.2 9.3 9.4-4.2 9.4-9.3 9.4zm0-17.7c-4.6 0-8.4 3.8-8.4 8.4s3.8 8.4 8.4 8.4 8.4-3.8 8.4-8.4-3.8-8.4-8.4-8.4z"/><circle cx="30" cy="12.2" fill="#af8424" r="3.1"/><circle cx="30" cy="33.3" fill="#fff" r="14.3"/><path d="m30 48.1c-8.1 0-14.8-6.6-14.8-14.8 0-8.1 6.6-14.8 14.8-14.8 8.1 0 14.8 6.6 14.8 14.8s-6.7 14.8-14.8 14.8zm0-28.6c-7.6 0-13.8 6.2-13.8 13.8s6.2 13.8 13.8 13.8 13.8-6.2 13.8-13.8-6.2-13.8-13.8-13.8z"/><circle cx="30" cy="33.3" fill="#af8424" r="11"/><circle cx="30" cy="33.3" fill="#fff" r="2.8"/><path d="m30 41.9c-4.7 0-8.6-3.8-8.6-8.6s3.9-8.6 8.6-8.6 8.6 3.9 8.6 8.6-3.9 8.6-8.6 8.6zm0-16.2c-4.2 0-7.6 3.4-7.6 7.6s3.4 7.7 7.6 7.7 7.6-3.4 7.6-7.6-3.4-7.7-7.6-7.7z" fill="#fff"/><g fill="#af8424"><circle cx="38.3" cy="23.9" r=".7"/><circle cx="21.7" cy="23.9" r=".7"/><circle cx="21.7" cy="42.5" r=".7"/><circle cx="38.4" cy="42.5" r=".7"/></g><path d="m44.1 58.7h-28.2c-.5 0-1-.4-1-1v-55.5c0-.5.4-1 1-1h28.2c.5 0 1 .4 1 1v55.5c-.1.6-.5 1-1 1zm-28.2-56.8c-.2 0-.3.2-.3.3v55.5c0 .2.1.3.3.3h28.2c.2 0 .3-.2.3-.3v-55.5c0-.2-.1-.3-.3-.3z" fill="#fff"/></svg>