<svg enable-background="new 0 0 60 60" height="60" viewBox="0 0 60 60" width="60" xmlns="http://www.w3.org/2000/svg"><path d="m19.4 59.8c1.1 0 2.1-.5 2.6-1.2h-5c.5.7 1.4 1.1 2.4 1.2zm20.9.2c1.2 0 2.2-.6 2.8-1.5h-5.3c.4.9 1.4 1.5 2.5 1.5zm5.7-60h-32c-.7 0-1.3.6-1.3 1.3v56c0 .7.6 1.3 1.3 1.3h3c-.3-.5-.5-1-.5-1.6 0-.3.1-.5.2-.8-.6-.2-1.1-.8-1.1-1.5 0 0 0-.1 0-.2v-.1c0-.7.6-1.3 1.3-1.3h.1.2c.8 0 1.5.6 1.6 1.4.3-.1.6-.1.9-.1 1.6.1 2.9 1.3 2.9 2.8 0 .5-.2 1-.5 1.3h15.7c-.2-.4-.3-.9-.3-1.3.1-1.5 1.4-2.7 3.1-2.6s2.9 1.3 2.9 2.8c0 .4-.1.8-.3 1.1h3c.7 0 1.3-.6 1.3-1.3v-56c-.2-.6-.8-1.2-1.5-1.2zm-16 6.3c2.4 0 4.6 1.2 5.9 3 1.1 1.3 1.8 3 1.8 4.9 0 4.1-3.3 7.4-7.5 7.4-3.2 0-6-2-7-4.9-.4-.9-.6-1.9-.6-3 0-4.1 3.3-7.4 7.4-7.4zm-13.2 44.5c-.9 0-1.6-.7-1.6-1.6 0 0 0-.1 0-.2v-.1c0-.7.6-1.3 1.3-1.3h.1.1c.9 0 1.6.7 1.6 1.6s-.6 1.7-1.5 1.6zm2.3-22.6c0 .3-.3.6-.6.6h-2.3c-.3 0-.5-.1-.6-.4-.2-.1-.3-.3-.3-.5v-3.1c0-.3.3-.6.6-.6h2.3c.3 0 .5.2.6.4.2.1.3.3.3.5zm11.5 21.1c-3 0-5.8-1.3-7.8-3.3-2.2-2-3.6-4.8-3.6-8 0-6 4.8-10.8 10.8-10.8 3.1 0 5.8 1.3 7.8 3.3 2.2 2 3.6 4.8 3.6 8 0 5.9-4.8 10.8-10.8 10.8zm13.9-37c0 .3-.3.6-.6.6h-2.3c-.3 0-.5-.2-.6-.4-.2-.1-.3-.3-.3-.5v-3.1c0-.3.3-.6.6-.6h2.3c.3 0 .5.2.6.4.2.1.3.3.3.5zm-.9.3c.3 0 .6-.2.6-.6v-3.1c0-.1 0-.1 0-.2-.1-.1-.2-.1-.3-.1h-2.3c-.3 0-.6.3-.6.6v3.1.2c.1.1.2.1.3.1zm-2.4-3.7h2.5v3.2h-2.5zm-23 19.6c.3 0 .6-.3.6-.6v-3.1c0-.1 0-.1 0-.2-.1-.1-.2-.1-.3-.1h-2.3c-.3 0-.6.3-.6.6v3.1.2c.1 0 .2.1.3.1zm-2.4-3.7h2.5v3.2h-2.5zm.7 25.5c.7 0 1.3-.6 1.3-1.3s-.5-1.2-1.2-1.3c-.8.1-1.4.7-1.4 1.4.1.7.6 1.2 1.3 1.2zm0-2.2c.5 0 .9.4.9.9s-.4.8-.9.8-.9-.4-.9-.9.4-.8.9-.8zm2.3 6.6c0-.1 0-.1 0-.2-.2 0-.4.1-.6.2-.1.5-.6 1-1.2 1-.1.2-.2.3-.3.5.1 0 .3.1.5.1.8-.1 1.6-.8 1.6-1.6zm-1.9 1h.1c.3-.4.7-.8 1.2-1 0-.1 0-.2 0-.3 0-.7-.5-1.2-1.2-1.3-.7.1-1.3.7-1.4 1.4.1.7.6 1.2 1.3 1.2zm0-2.2c.5 0 .9.4.9.9s-.4.8-.9.8-.9-.4-.9-.8c0-.5.4-.9.9-.9zm23.9-15.6c0-2.9-1.1-5.5-3-7.4-1.9-1.7-4.4-2.8-7.2-2.8-5.9 0-10.7 4.8-10.7 10.8 0 2.9 1.1 5.5 3 7.4 1.9 1.7 4.4 2.7 7.1 2.7 6 .1 10.8-4.8 10.8-10.7zm-19.1-.5c.3-4.3 3.9-7.7 8.3-7.7 4.5 0 8.1 3.5 8.3 8v.3c0-.1 0-.2 0-.3s0-.2 0-.2c-.3 4.3-3.9 7.7-8.3 7.7-4.4-.1-8-3.5-8.3-7.8v.2.3c0-.1 0-.2 0-.3s0-.2 0-.2zm10.4-.7 4.2-4.2c-.9-1.1-2.2-1.9-3.5-2.4l-2.4 5.4c.7.1 1.4.6 1.7 1.2zm.2 2 5.6-3c-.2-.7-.5-1.4-.9-2.1l-4.6 3.9c0 .2.1.3.1.5s-.1.4-.2.7zm-2.3 1.7c1.1 0 2-.7 2.3-1.7l-.9.5c-.3.4-.9.7-1.4.7-1 0-1.9-.8-1.9-1.9 0-1 .8-1.9 1.9-1.9l.3-.6c-.1 0-.2 0-.3 0-1.4 0-2.5 1.1-2.5 2.5 0 1.3 1.1 2.4 2.5 2.4zm1.9-2.5.5-.5c0-.3-.1-.5-.3-.8l-.4.4c.1.4.2.6.2.9zm-1.6.6 1.4-1.4c-.3-.6-.9-1-1.7-1.1l-.7 1.6zm1.6-.6-1.3 1.1.1.6.7-.4c.3-.4.5-.8.5-1.3zm-1.6-31.2c-4.1 0-7.5 3.3-7.5 7.4 0 .9.2 1.7.5 2.5 1.1 2.6 3.7 4.4 6.7 4.4 4.1 0 7.4-3.3 7.4-7.4 0-1.6-.5-3.2-1.5-4.4-1.4-1.5-3.4-2.5-5.6-2.5zm5.1 6.2c0 3.3-2.7 6-6 6-1.8 0-3.4-.8-4.5-2 .3.4.6.8.9 1.1.3.2.5.5.9.7.1.1.2.1.3.2l.6.3h.1c.1 0 .2.1.2.1h.1c.1 0 .2 0 .3.1.1 0 .2 0 .4.1h.1.3.1.3.1.4c-.1 0-.2 0-.4 0h-.1c-.1 0-.2 0-.2 0h-.1c-.1 0-.2 0-.3 0 0 0 0 0-.1 0s-.2-.1-.4-.1c-.1 0-.2-.1-.3-.1 0 0 0 0-.1 0s-.1-.1-.2-.1c0 0 0 0-.1 0-.2-.1-.4-.2-.6-.3-.1-.1-.2-.1-.3-.2-.3-.2-.6-.4-.9-.7-1.2-1-1.9-2.5-1.9-4.3 0-3.3 2.7-6 6-6 1.8 0 3.4.8 4.4 2 0 0 .1.1.1.1.1.1.1.1.2.2 0 0 0 .1.1.1 0 0 .1.1.1.1s0 .1.1.1c0 0 0 .1.1.1 0 0 0 .1.1.1 0 .1.1.1.1.1v.1s0 .1.1.1v.1s0 .1.1.1c0 0 0 .1.1.1 0 0 0 .1.1.1v.1s0 .1.1.1v.1.1.1.1s0 .1 0 .1v.1.2.1.2.1.2.1.3c0-.1 0-.2 0-.3v-.1c0-.1 0-.1 0-.2v-.1s0-.1 0-.2v-.1-.1c0-.1 0-.1 0-.1 0-.1 0-.1 0-.1 0-.1 0-.1 0-.1 0-.1 0-.1 0-.1v-.1c0-.1 0-.1 0-.1v-.1c0-.1 0-.1 0-.1 0-.1 0-.1-.1-.1 0-.1 0-.1-.1-.1 0 0 0-.1-.1-.1 0 0 0-.1-.1-.1 0-.1 0-.1-.1-.1v-.1s-.1-.1-.1-.1 0-.1-.1-.1c0 0-.1-.1-.1-.1s0-.1-.1-.1c0 0-.1-.1-.1-.1s0-.1-.1-.1c-.1-.1-.1-.2-.2-.2 0-.1 0-.1-.1-.1.6.8.9 1.9 1 3.1zm-3.9-.1 2.7-2.7c-.7-.8-1.5-1.3-2.5-1.7l-1.6 3.5c.6.1 1.1.4 1.4.9zm.3.9v.4l3.6-1.9c-.1-.5-.3-1-.6-1.4l-3 2.5zm-1.8 1.4c-.8 0-1.4-.6-1.4-1.4 0-.7.6-1.3 1.3-1.4l.2-.4h-.1c-1 0-1.8.8-1.8 1.8s.8 1.8 1.8 1.8c.8 0 1.5-.6 1.7-1.4l-.6.3c-.2.4-.6.7-1.1.7zm1.4-1.5.4-.3c0-.2-.1-.4-.2-.5l-.3.3c0 .1 0 .3.1.5zm-1.3.6 1.1-1.1c-.3-.4-.7-.7-1.2-.7 0 0 0 0-.1 0l-.5 1.2zm.3.7.8-.4c.1-.2.2-.5.2-.7v-.1l-1.1.9z" fill="#c12127"/></svg>