<svg height="60" width="60" xmlns="http://www.w3.org/2000/svg"><path d="m19.42 59.78c1.1.04 2.07-.46 2.62-1.24h-5.02c.5.72 1.4 1.2 2.4 1.24zm20.86.22c1.2.04 2.25-.56 2.76-1.46h-5.3c.5.83 1.43 1.42 2.54 1.46zm5.74-60h-32.04c-.72 0-1.3.58-1.3 1.3v55.95c0 .7.58 1.3 1.3 1.3h3.04c-.32-.46-.5-1-.48-1.57 0-.28.07-.55.16-.8-.65-.2-1.13-.8-1.13-1.52 0-.05 0-.1 0-.15 0-.02 0-.07 0-.1 0-.73.6-1.3 1.3-1.3h.14.17c.82 0 1.5.6 1.58 1.4.28-.08.57-.1.88-.1 1.64.07 2.93 1.32 2.88 2.8 0 .5-.2.96-.45 1.35h15.7c-.22-.4-.35-.86-.33-1.35.06-1.5 1.44-2.65 3.08-2.6s2.94 1.33 2.88 2.8c0 .42-.13.8-.32 1.14h2.98c.72 0 1.3-.58 1.3-1.3v-55.95c-.06-.73-.62-1.3-1.36-1.3zm-16.02 6.35c2.42 0 4.57 1.17 5.92 2.97 1.12 1.3 1.8 3 1.8 4.87 0 4.1-3.33 7.43-7.45 7.43-3.22 0-5.96-2.05-7-4.9-.4-.93-.64-1.95-.64-3.02 0-4.06 3.3-7.36 7.37-7.36zm-13.2 44.5c-.87 0-1.58-.7-1.58-1.58 0-.05 0-.1 0-.15 0-.04 0-.1 0-.14 0-.7.58-1.3 1.3-1.3h.14.15c.9 0 1.6.72 1.6 1.6s-.7 1.58-1.6 1.58zm2.26-22.62c0 .32-.26.58-.58.58h-2.28c-.26 0-.48-.15-.56-.4-.16-.1-.27-.27-.27-.47v-3.08c0-.32.27-.6.6-.6h2.27c.26 0 .48.18.56.42.16.1.26.28.26.5v3.07zm11.54 21.05c-3.05 0-5.8-1.28-7.77-3.33-2.2-1.97-3.6-4.83-3.6-8.03 0-5.94 4.82-10.76 10.77-10.76 3.06 0 5.82 1.28 7.78 3.33 2.2 1.95 3.6 4.82 3.6 8 0 5.95-4.82 10.77-10.77 10.77zm13.87-36.95c0 .33-.27.6-.6.6h-2.27c-.26 0-.48-.18-.56-.4-.16-.12-.27-.3-.27-.5v-3.1c0-.32.27-.6.6-.6h2.27c.26 0 .48.2.56.43.16.1.27.28.27.5v3.06zm-.83.27c.33 0 .6-.25.6-.58v-3.07c0-.07-.02-.13-.04-.18-.1-.07-.2-.1-.32-.1h-2.28c-.33 0-.6.26-.6.6v3.06c0 .07.02.13.04.2.1.05.2.08.32.08h2.28zm-2.48-3.7h2.52v3.17h-2.5v-3.17zm-22.92 19.6c.33 0 .6-.26.6-.58v-3.08c0-.06-.02-.12-.04-.18-.1-.06-.2-.1-.32-.1h-2.28c-.33 0-.6.26-.6.6v3.06c0 .07.02.13.04.2.1.05.2.1.32.1h2.28zm-2.47-3.7h2.5v3.16h-2.5zm.75 25.48c.72 0 1.3-.58 1.3-1.3 0-.67-.5-1.22-1.16-1.3-.76.08-1.36.68-1.43 1.44.06.66.62 1.16 1.3 1.16zm0-2.14c.47 0 .85.4.85.86s-.38.85-.85.85-.85-.4-.85-.86.38-.87.85-.87zm2.23 6.52c0-.06 0-.12 0-.18-.22.05-.43.12-.62.2-.13.55-.6.95-1.16 1-.1.15-.2.32-.27.5.15.05.3.07.46.07.88 0 1.6-.7 1.6-1.6zm-1.88 1.02h.1c.28-.42.7-.76 1.16-1 .03-.1.05-.2.05-.3 0-.68-.5-1.23-1.17-1.3-.73.07-1.34.68-1.4 1.43.06.68.6 1.2 1.3 1.2zm0-2.15c.47 0 .85.4.85.86 0 .45-.38.83-.85.83s-.85-.38-.85-.85c0-.48.38-.87.85-.87zm23.9-15.6c0-2.9-1.14-5.5-3-7.44-1.9-1.7-4.4-2.75-7.16-2.75-5.92 0-10.74 4.8-10.74 10.76 0 2.9 1.14 5.5 3 7.44 1.9 1.7 4.4 2.74 7.15 2.74 5.95 0 10.77-4.83 10.77-10.78zm-19.03-.57c.3-4.3 3.88-7.72 8.26-7.72 4.46 0 8.1 3.54 8.27 7.96v.33c0-.1 0-.22 0-.33 0-.08 0-.16 0-.24-.3 4.3-3.9 7.7-8.27 7.7-4.38 0-7.97-3.4-8.26-7.7v.24c0 .1-.02.22-.02.32 0-.1 0-.2 0-.32 0-.08.02-.16.02-.24zm10.38-.66 4.15-4.17c-.94-1.1-2.16-1.93-3.55-2.42l-2.42 5.4c.78.1 1.45.56 1.82 1.2zm.23 1.95 5.6-3.02c-.2-.73-.52-1.42-.92-2.06l-4.62 3.88c.05.16.07.3.07.48 0 .25-.04.5-.1.72zm-2.35 1.73c1.1 0 2.04-.73 2.35-1.73l-.93.5c-.34.4-.85.65-1.42.65-1.03 0-1.88-.84-1.88-1.87 0-1.04.84-1.88 1.88-1.88h.04l.26-.56c-.1-.03-.2-.04-.3-.04-1.36 0-2.45 1.1-2.45 2.46 0 1.35 1.1 2.45 2.45 2.45zm1.87-2.48.54-.45c-.03-.27-.13-.52-.27-.75l-.43.43c.1.23.17.5.17.77zm-1.57.62 1.4-1.4c-.3-.62-.93-1.05-1.66-1.07l-.7 1.58.97.9zm1.57-.62-1.26 1.06.13.56.7-.37c.28-.33.45-.76.45-1.22 0 0 0-.02 0-.03zm-1.6-31.16c-4.1 0-7.45 3.33-7.45 7.45 0 .87.16 1.72.45 2.52 1.15 2.59 3.73 4.39 6.73 4.39 4.07 0 7.37-3.3 7.37-7.4 0-1.64-.54-3.16-1.45-4.4-1.37-1.57-3.4-2.57-5.65-2.57zm5.12 6.18c0 3.3-2.7 6-6 6-1.78 0-3.37-.76-4.47-1.97.27.4.58.8.94 1.13.27.25.55.48.86.68 0 0 .02 0 .03.02.1.06.2.1.28.17h.03c.2.13.42.23.64.32.04 0 .06.02.08.03.08.03.16.07.25.1.03 0 .06.02.1.03.08.03.17.05.27.08.02.03.04.03.05.04.12.03.23.05.35.08.02 0 .05 0 .07.02.08.02.17.03.27.04.03 0 .07 0 .1.02.1 0 .18.02.26.02h.1c.13.02.25.02.37.02-.12 0-.24 0-.36 0-.03 0-.06 0-.1-.02-.1 0-.17 0-.25-.02-.04 0-.08 0-.1-.02-.1 0-.2-.02-.3-.04 0 0-.04 0-.06 0-.13-.04-.24-.06-.36-.1 0 0-.03 0-.05 0-.1-.04-.2-.06-.3-.1-.02 0-.05 0-.1-.02-.07-.03-.15-.07-.24-.1-.03 0-.05-.02-.08-.03-.22-.1-.43-.2-.64-.3 0 0-.02-.03-.03-.03-.1-.06-.17-.1-.27-.17 0 0-.02-.02-.03-.02-.3-.2-.6-.43-.86-.67-1.16-1.1-1.88-2.65-1.88-4.37 0-3.3 2.7-6 6-6 1.77 0 3.35.76 4.45 1.97.04.02.06.06.1.1.06.06.12.14.2.22 0 .03.03.06.06.1s.06.08.1.12c0 .03.04.07.06.1.03.04.05.08.08.13.02.03.05.07.07.1.04.05.06.1.1.13 0 .04.03.08.05.12.03.04.05.08.07.13 0 .04.03.08.05.12s.04.1.06.13c.04.04.05.08.07.13.02.04.04.08.06.13.02.04.03.1.05.13.03.02.04.07.06.1.02.06.03.1.05.15 0 .04.02.1.04.13 0 .04.03.1.04.14 0 .04 0 .08.02.13s.03.1.04.15c0 .04.02.08.03.13v.16c.02.04.03.1.04.12 0 .06 0 .12.03.18v.13c.02.06.02.13.03.2v.1.3c0-.1 0-.2 0-.3 0-.04 0-.07 0-.1-.02-.07-.02-.14-.03-.2 0-.04 0-.08 0-.12-.02-.04-.03-.1-.03-.16 0-.04-.02-.08-.02-.12-.02-.04-.02-.1-.03-.15-.02-.05-.03-.1-.04-.13 0-.05 0-.1-.03-.15 0-.06-.02-.1-.03-.14-.02-.05-.04-.1-.05-.15-.03-.04-.04-.1-.05-.13 0-.05-.02-.1-.04-.14 0-.04-.02-.1-.04-.13 0-.05-.02-.1-.04-.14-.02-.05-.04-.1-.06-.13-.02-.05-.04-.1-.06-.13-.02-.04-.03-.1-.06-.13-.02-.04-.04-.08-.06-.12-.02-.05-.04-.1-.07-.13 0-.04-.03-.08-.05-.12-.04-.04-.06-.08-.1-.12 0-.04-.04-.08-.06-.12-.04-.04-.06-.08-.1-.12 0-.03-.04-.07-.06-.1-.04-.04-.07-.08-.1-.12s-.05-.07-.08-.1c-.06-.08-.12-.16-.2-.23-.02-.05-.04-.1-.07-.1.6.92.93 2.02.93 3.2zm-3.9-.17 2.68-2.7c-.65-.75-1.5-1.33-2.45-1.66l-1.6 3.54c.57.04 1.07.35 1.36.8zm.28.97c0 .14-.02.28-.05.42l3.6-1.94c-.14-.5-.35-1-.63-1.43l-2.98 2.5c.04.15.06.3.06.45zm-1.77 1.36c-.75 0-1.36-.6-1.36-1.36 0-.73.57-1.32 1.3-1.35l.18-.42c-.04 0-.08 0-.12 0-.98 0-1.78.8-1.78 1.77 0 1 .8 1.78 1.78 1.78.84 0 1.54-.58 1.73-1.36l-.6.3c-.23.4-.65.64-1.13.64zm1.35-1.48.37-.32c-.05-.2-.12-.37-.23-.53l-.3.3c.06.17.12.35.14.54zm-1.28.6 1.12-1.14c-.26-.42-.7-.7-1.2-.7-.03 0-.05 0-.08 0l-.54 1.2.67.63zm.28.68.8-.43c.13-.2.2-.46.2-.73 0-.04 0-.1 0-.13l-1.08.9.08.37z"/></svg>