<svg enable-background="new 0 0 60 134.5" height="134.5" viewBox="0 0 60 134.5" width="60" xmlns="http://www.w3.org/2000/svg"><path d="m45 127.2v-125.2h-30v125.2c-2.7.9-4.7 3.4-4.7 6.4v.1c0 .5.4.8.8.8h37.7c.5 0 .8-.4.8-.8v-.1c.1-3-1.9-5.6-4.6-6.4z" fill="#ff5a00"/><ellipse cx="30" cy="7.9" fill="#fff" rx="7" ry="4.6"/><circle cx="30" cy="7.9" fill="#ff5a00" r="3.2"/><ellipse cx="30" cy="38.9" fill="#fff" rx="7" ry="4.6"/><circle cx="30" cy="38.9" fill="#ff5a00" r="3.2"/><ellipse cx="30" cy="115.7" fill="#fff" rx="11.1" ry="6.9"/><circle cx="30" cy="23.6" fill="#fff" r="11.4"/><g fill="#ff5a00"><path d="m30 35.3c-6.5 0-11.8-5.3-11.8-11.8s5.3-11.7 11.8-11.7 11.8 5.3 11.8 11.8-5.3 11.7-11.8 11.7zm0-22.8c-6.1 0-11.1 5-11.1 11.1s5 11.1 11.1 11.1 11.1-5 11.1-11.1-5-11.1-11.1-11.1z"/><circle cx="30" cy="115.7" r="6.2"/><circle cx="30" cy="23.6" r="7"/></g><circle cx="30" cy="23.6" fill="#fff" r="2.6"/><circle cx="30" cy="59.2" r="9.3"/><circle cx="30" cy="59.2" fill="#fff" r="12.5"/><circle cx="30" cy="59.2" fill="#ff5a00" r="9.3"/><circle cx="30" cy="87.5" fill="#fff" r="12.5"/><circle cx="30" cy="87.5" fill="#ff5a00" r="9.3"/></svg>