<svg height="134.5" width="60" xmlns="http://www.w3.org/2000/svg"><path d="m45.02 127.2v-125.2h-30.04v125.2c-2.7.86-4.66 3.4-4.66 6.4v.06c0 .46.37.84.83.84h37.7c.46 0 .83-.38.83-.83v-.08c0-3-1.96-5.54-4.66-6.4z"/><ellipse cx="30.001" cy="7.852" fill="#fff" rx="6.997" ry="4.608"/><circle cx="30.001" cy="7.852" r="3.242"/><ellipse cx="30.001" cy="38.911" fill="#fff" rx="6.997" ry="4.607"/><circle cx="30.001" cy="38.911" r="3.243"/><ellipse cx="30.001" cy="115.728" fill="#fff" rx="11.142" ry="6.882"/><circle cx="30.001" cy="23.553" fill="#fff" r="11.434"/><path d="m30 35.33c-6.5 0-11.77-5.28-11.77-11.78s5.28-11.77 11.77-11.77c6.5 0 11.78 5.28 11.78 11.77 0 6.5-5.3 11.78-11.78 11.78zm0-22.87c-6.12 0-11.1 4.98-11.1 11.1s4.98 11.1 11.1 11.1 11.1-5 11.1-11.1-5-11.1-11.1-11.1z"/><circle cx="30.001" cy="115.728" r="6.225"/><circle cx="30.001" cy="23.553" r="6.998"/><circle cx="30.001" cy="23.553" fill="#fff" r="2.646"/><circle cx="30.001" cy="59.214" r="9.271"/><circle cx="30.001" cy="59.214" fill="#fff" r="12.515"/><circle cx="30.001" cy="59.214" r="9.271"/><circle cx="30.001" cy="87.459" fill="#fff" r="12.515"/><circle cx="30.001" cy="87.458" r="9.272"/></svg>