<svg enable-background="new 0 0 60 60" height="60" viewBox="0 0 60 60" width="60" xmlns="http://www.w3.org/2000/svg" xmlns:xlink="http://www.w3.org/1999/xlink"><linearGradient id="a" gradientTransform="matrix(-.7071 -.7071 .7071 -.7071 -236.0961 -96.2805)" gradientUnits="userSpaceOnUse" x1="-297.2852" x2="-266.5965" y1="104.7699" y2="104.7699"><stop offset="0"/><stop offset=".0419806" stop-color="#040404"/><stop offset=".08700404" stop-color="#111"/><stop offset=".1334" stop-color="#272627"/><stop offset=".1806" stop-color="#444"/><stop offset=".1895" stop-color="#4b4a4b"/><stop offset=".2441" stop-color="#4b4a4b"/><stop offset=".2491" stop-color="#494849"/><stop offset=".3377" stop-color="#212121"/><stop offset=".4081" stop-color="#090909"/><stop offset=".4514"/><stop offset=".5338"/><stop offset=".68" stop-color="#b3b2b3"/><stop offset=".7338" stop-color="#b3b2b3"/><stop offset=".7355" stop-color="#b1b0b1"/><stop offset=".7858" stop-color="#7c7b7c"/><stop offset=".8349" stop-color="#4f4f4f"/><stop offset=".882" stop-color="#2d2d2d"/><stop offset=".9263" stop-color="#141414"/><stop offset=".9668" stop-color="#050505"/><stop offset="1"/></linearGradient><linearGradient id="b" gradientTransform="matrix(-.7071 -.7071 .7071 -.7071 -236.0961 -96.2805)" gradientUnits="userSpaceOnUse" x1="-281.8743" x2="-281.8743" y1="75.3893" y2="98.7586"><stop offset="0"/><stop offset=".414" stop-color="#171717"/><stop offset=".5486" stop-color="#1a1a1a"/><stop offset=".6621" stop-color="#252525"/><stop offset=".768" stop-color="#363636"/><stop offset=".8693" stop-color="#4f4f4f"/><stop offset=".9664" stop-color="#6e6e6e"/><stop offset="1" stop-color="#7b7b7b"/></linearGradient><path d="m23.6 15.9c.1-.4.5-.8 1-.8h1.9c.1.4.1.7 0 1.1h-.9c-.5 0-1 .4-1 1v20.4h-.5-.6-2.5v-21.7z" fill="#249ac1"/><path d="m21.6 15.2h8.1v1.1h-7.1c-.5 0-1 .4-1 1v20.4h-1.1v-21.5c0-.6.5-1 1.1-1z" fill="#249ac1"/><path d="m49.2 17.2c4.9 4.9 6.2 12.1 2.2 16.9l-15 17.6-21.7-21.7 17.5-15c4.8-4 12-2.7 17 2.2z" fill="url(#a)"/><path d="m42.7 23.6c5.2 5.2 6.4 13 1.8 18.4l-.5.6c4.6-5.4 3.4-13.3-1.8-18.5s-13.1-6.4-18.5-1.8l.6-.5c5.4-4.6 13.2-3.4 18.4 1.8z" fill="#5c5c5c"/><path d="m6.3 39.5 20.5 20.5 19.2-13.9-25.9-25.8z" fill="url(#b)"/><path d="m16.2 31.7c-3.1 3.1-4.6 10.6 1.6 16.8 6.1 6.1 13.7 4.8 16.8 1.6 3.9-3.9 2.5-10.7-2.6-15.8s-12-6.5-15.8-2.6z" fill="#aaa"/><path d="m20.9 45.4c4 4 10.1 4.9 13.6 2 .4-.3.7-.7 1-1.1-.4 1.3-1.1 2.5-2.3 3.4-3.9 3.1-10.5 2.2-14.7-2s-5.1-10.8-2-14.8c.9-1.1 2.1-1.9 3.4-2.3-.4.3-.8.6-1.1 1-2.8 3.7-1.9 9.8 2.1 13.8z"/><path d="m31.3 34.9c3.6 3.6 5.1 8 4.3 11.4-.3.4-.6.8-1 1.1-3.5 2.9-9.6 2-13.6-2s-4.9-10.1-2-13.7c.3-.4.7-.7 1.1-1 3.2-.9 7.6.7 11.2 4.2z" fill="#daf0fc"/><path d="m31.6 46.8c2.3-2.3 1.5-6.9-1.9-10.2-3.3-3.3-7.9-4.2-10.2-1.9s-1.5 6.9 1.9 10.2c3.4 3.4 7.9 4.2 10.2 1.9z" fill="#fff"/><path d="m32.9 14.7h.7v36.6h-.7z" fill="#231f20" transform="matrix(.7071 -.7071 .7071 .7071 -13.6049 33.2083)"/><path d="m48.4 15.2c.6 0 1.1.5 1.1 1.1v21.4h-.5-.6-2.5v-21.4h-12.1c0-.4-.1-.7-.1-1.1z" fill="#249ac1"/><path d="m22.6 16.3h21.7c.5 0 1 .4 1 1v20.4h-23.7v-20.4c0-.6.4-1 1-1z" fill="none"/><g fill="#249ac1"><path d="m45.3 15.2c.6 0 1.1.5 1.1 1.1v21.4h-1.1v-20.4c0-.5-.4-1-1-1h-14.7c0-.4 0-.7 0-1.1z"/><path d="m34 .4c.5-.5 1.1-.5 1.5 0v14.8c-.5 0-1 0-1.5 0 0-1 0-13.9 0-14.8z"/></g></svg>