<svg enable-background="new 0 0 60 80" height="80" viewBox="0 0 60 80" width="60" xmlns="http://www.w3.org/2000/svg" xmlns:xlink="http://www.w3.org/1999/xlink"><linearGradient id="a" gradientTransform="matrix(1 0 0 -1 429.3383 566.4359)" gradientUnits="userSpaceOnUse" x1="-399.5013" x2="-399.5013" y1="552.7663" y2="544.0635"><stop offset="0"/><stop offset=".586" stop-color="#171717"/><stop offset=".6811" stop-color="#1a1a1a"/><stop offset=".7613" stop-color="#252525"/><stop offset=".8361" stop-color="#363636"/><stop offset=".9076" stop-color="#4f4f4f"/><stop offset=".9763" stop-color="#6e6e6e"/><stop offset="1" stop-color="#7b7b7b"/></linearGradient><linearGradient id="b" gradientTransform="matrix(1 0 0 -1 429.3383 566.4359)" gradientUnits="userSpaceOnUse" x1="-405.8368" x2="-393.1073" y1="540.3359" y2="540.3359"><stop offset="0"/><stop offset=".2089" stop-color="#040404"/><stop offset=".4154" stop-color="#101010"/><stop offset=".5" stop-color="#171717"/><stop offset=".502" stop-color="#171717"/><stop offset=".543" stop-color="#171717"/><stop offset=".6291" stop-color="#0f0f0f"/><stop offset=".8058" stop-color="#040404"/><stop offset="1"/></linearGradient><linearGradient id="c" gradientTransform="matrix(-1 0 0 1 221.6953 226.1602)" gradientUnits="userSpaceOnUse" x1="185.4648" x2="198.1937" y1="-203.8602" y2="-203.8602"><stop offset="0" stop-color="#7b7b7b"/><stop offset=".02716225" stop-color="#6d6d6d"/><stop offset=".1124" stop-color="#464646"/><stop offset=".1967" stop-color="#272727"/><stop offset=".2789" stop-color="#121212"/><stop offset=".3579" stop-color="#040404"/><stop offset=".4301"/><stop offset=".5699"/><stop offset=".6474" stop-color="#101010"/><stop offset=".7993" stop-color="#3a3a3a"/><stop offset="1" stop-color="#7b7b7b"/></linearGradient><linearGradient id="d"><stop offset="0" stop-color="#818282"/><stop offset=".1093" stop-color="#5a5b5a"/><stop offset=".2396" stop-color="#313130"/><stop offset=".3065" stop-color="#212120"/><stop offset=".7903"/><stop offset="1"/></linearGradient><linearGradient id="e" gradientTransform="matrix(1 0 0 -1 429.3383 566.4359)" gradientUnits="userSpaceOnUse" x1="-404.2134" x2="-401.6988" xlink:href="#d" y1="539.6483" y2="541.0347"/><linearGradient id="f" gradientTransform="matrix(-1 0 0 -1 -3107.8164 566.4359)" gradientUnits="userSpaceOnUse" x1="-3142.4604" x2="-3139.9465" xlink:href="#d" y1="539.6655" y2="541.0513"/><linearGradient id="g" gradientTransform="matrix(-1 0 0 1 221.6953 226.1602)" gradientUnits="userSpaceOnUse" x1="191.7953" x2="191.7953" y1="-210.9587" y2="-203.4177"><stop offset="0"/><stop offset=".672" stop-color="#171717"/><stop offset=".7474" stop-color="#1a1a1a"/><stop offset=".8109" stop-color="#252525"/><stop offset=".8702" stop-color="#363636"/><stop offset=".9268" stop-color="#4f4f4f"/><stop offset=".9812" stop-color="#6e6e6e"/><stop offset="1" stop-color="#7b7b7b"/></linearGradient><linearGradient id="h" gradientTransform="matrix(-1 0 0 1 221.6953 226.1602)" gradientUnits="userSpaceOnUse" x1="195.296" x2="197.7501" y1="-207.2745" y2="-206.283"><stop offset=".3925" stop-color="#212120"/><stop offset=".5251" stop-color="#313130"/><stop offset=".7834" stop-color="#5a5b5a"/><stop offset="1" stop-color="#818282"/></linearGradient><linearGradient id="i" gradientTransform="matrix(-1 0 0 1 221.6953 226.1602)" gradientUnits="userSpaceOnUse" x1="185.6764" x2="188.3681" y1="-206.3119" y2="-207.2916"><stop offset="0" stop-color="#818282"/><stop offset=".2166" stop-color="#5a5b5a"/><stop offset=".4749" stop-color="#313130"/><stop offset=".6075" stop-color="#212120"/></linearGradient><linearGradient id="j" gradientTransform="matrix(-1 0 0 1 221.6953 226.1602)" gradientUnits="userSpaceOnUse" x1="191.7953" x2="191.7953" y1="-217.0324" y2="-204.6324"><stop offset="0"/><stop offset=".414" stop-color="#171717"/><stop offset=".5486" stop-color="#1a1a1a"/><stop offset=".6621" stop-color="#252525"/><stop offset=".768" stop-color="#363636"/><stop offset=".8693" stop-color="#4f4f4f"/><stop offset=".9664" stop-color="#6e6e6e"/><stop offset="1" stop-color="#7b7b7b"/></linearGradient><linearGradient id="k"><stop offset="0" stop-color="#7b7b7b"/><stop offset=".02374425" stop-color="#6e6e6e"/><stop offset=".09235862" stop-color="#4f4f4f"/><stop offset=".1639" stop-color="#363636"/><stop offset=".2387" stop-color="#252525"/><stop offset=".3189" stop-color="#1a1a1a"/><stop offset=".414" stop-color="#171717"/><stop offset="1"/></linearGradient><linearGradient id="l" gradientTransform="matrix(1 0 0 -1 429.3383 566.4359)" gradientUnits="userSpaceOnUse" x1="-399.448" x2="-399.448" xlink:href="#k" y1="557.254" y2="565.7207"/><linearGradient id="m" gradientTransform="matrix(-1 0 0 1 -522.0879 507.2207)" gradientUnits="userSpaceOnUse" x1="-551.9476" x2="-551.9476" xlink:href="#k" y1="-485.6933" y2="-481.9275"/><linearGradient id="n" gradientTransform="matrix(1 0 0 -1 429.3383 566.4359)" gradientUnits="userSpaceOnUse" x1="-392.3719" x2="-384.1205" xlink:href="#k" y1="554.9171" y2="556.2239"/><linearGradient id="o" gradientTransform="matrix(-1 0 0 -1 -619.3613 566.4359)" gradientUnits="userSpaceOnUse" x1="-642.1351" x2="-633.8847" xlink:href="#k" y1="554.9686" y2="556.2753"/><path d="m48.6 73.2c-.3-.3-.6-.5-.9-.3.4-.4.1-.9-.3-1.4-.3-.3-.5-.4-.8-.5l-12-11.5-3.6-13s-.1-.1-.2-.1v-6.1c.2-.1.3-.1.3-.2v-1.5h1.2c.2 0 .3-.6.3-1.3 0-.6-.1-1-.2-1.2.2-.1.4-.2.4-.4v-.7c0-.4-1.1-.7-2.6-.8v-1.5h6.2.3c.3 0 .6-.3.6-.6v-12h-.3-.3-.1-.3-1.5v11.9h-6.8-2.2-.5c-.3 0-.6-.3-.6-.6v-11.3h-.3-.3-1.2-.3-.3v11.9c0 .3.3.6.6.6h1.8 1.1 2.1 1.5v1.5c-1.5.1-2.6.4-2.6.8v.8c0 .2.2.3.6.5-.1.2-.2.6-.2 1.1 0 .7.2 1.3.3 1.3h1v1.5c0 .1.1.2.3.2v6c-.1 0-.2.1-.2.1l-3.4 12.8-12 11.8c-.3 0-.6.2-.8.5-.5.5-.8.9-.3 1.4l.1.1c-.3-.2-.6 0-.8.2-.3.3-.5.6-.2.9l.5.5c.3.3.6.1.9-.2s.5-.6.2-.8l.1.1c.4.4.9.1 1.4-.3.3-.4.6-.7.5-1l12.9-12.6c.2 0 .4-.2.7-.4 0 .1.1.2.1.3l-2.6 16.3c-.2.2-.3.5-.4.9-.1.7-.1 1.2.5 1.3-.4 0-.5.3-.6.8s-.1.9.4.9l.7.1c.4.1.6-.3.7-.8.1-.4 0-.8-.3-.9h.1c.6.1.8-.4.9-1.1.1-.5.1-.8-.1-1.1l2.5-16.4c.2-.2.3-.5.4-1 0-.1 0-.1 0-.2h.2c.1.2.3.4.5.6.3.3.6.4.8.5l13 12.6c-.1.4.1.7.5 1.1.5.5.9.7 1.4.3-.2.3 0 .6.3.9.4.3.7.6 1 .2l.5-.5c.2-.3 0-.7-.3-1zm-19.7-17.6c-.5.1-.9.2-.9.4v1.1c-.4-.4-.8-.1-1.3.3-.4.3-.7.7-.6 1.1l-.1.1 2.9-10.9zm4.6 2.8c.1-.4-.2-.7-.5-1-.5-.4-.9-.7-1.3-.3v-1c0-.2-.4-.3-.9-.4v-7.9l3.1 11.1z" fill="#ff5a00"/><path d="m23.5 32h12.7c.3 0 .6-.3.6-.6v-11.3h-13.9v11.3c0 .4.3.6.6.6z" fill="none"/><path d="m36.2 22c0 .2-.2.3-.4.3h-11.9c-.3 0-.5-.1-.4-.3l1.3-8c0-.2.2-.3.4-.3h9.4c.2 0 .4.2.4.3z" fill="url(#a)"/><path d="m35.9 22.5c-.1 0-.2 0-.3 0s-.2 0-.4 0-.5 0-.8 0c-1.2 0-2.9 0-4.5 0s-3.3 0-4.5 0c-.3 0-.6 0-.8 0-.1 0-.2 0-.3 0s-.2 0-.3 0c-.2 0-.3-.1-.4-.2 0 .2 0 .5.1.7.1.4 2.8 6.5 2.8 6.5s.2.4.6.4h2.4.9 2.4c.5 0 .6-.4.6-.4s2.6-6 2.8-6.5c.1-.3.1-.5.1-.7-.1 0-.3.2-.4.2z" fill="url(#b)"/><path d="m23.9 22.5h.3.3.8 4.5s3.3 0 4.5 0h.8.4.3c.2 0 .3-.1.4-.2 0-.1 0-.1 0-.2s0 .1-.1.1l-.1.1c-.1 0-.1 0-.2 0 0 0 0 0-.1 0 0 0 0 0-.1 0 0 0-.1 0-.2 0s-.2 0-.4 0-.5 0-.8 0c-1.2 0-2.9 0-4.5 0s-3.3 0-4.5 0c-.3 0-.6 0-.8 0s-.5 0-.6 0c0 0 0 0-.1 0h-.1c-.1 0-.1 0-.1-.1l-.1-.1v.2c.1.1.3.2.5.2z" fill="url(#c)"/><path d="m24.7 22.7h-.2c-.1 0-.1 0-.2 0h-.1c-.1 0-.1 0-.2 0s-.1 0-.1 0c0 .1 0 .2.1.3.1.3 1.7 4.7 2.7 6.5s.1.3.4.3h1.2l-2.9-7z" fill="url(#e)"/><path d="m35.1 22.7h.2.2.1.2.1c0 .1 0 .2-.1.3-.1.3-1.8 4.7-2.7 6.5s-.1.3-.4.3h-1.2l2.9-7z" fill="url(#f)"/><path d="m29.2 15.3c-2.4.2-4.8.6-7.2 1.2.6 2.1 2.2 4.3 2.2 4.3.5.9 2.8 1.9 5.7 1.9s5.1-1 5.7-1.9 1.6-2.2 2.2-4.4c-2.4-.6-4.8-1-7.2-1.2 0 0 0 0 0-.1-.2 0-.5 0-.7 0-.2.1-.5.1-.7.2 0-.1 0-.1 0 0z" fill="url(#g)"/><path d="m25.7 20.9c0-.1-1.2-2.3-1.7-4.9-.5.1-.9.2-1.4.3.6 2.3 2 4.4 2.1 4.5.4.7 1.5 1.3 3.2 1.6-1.2-.3-1.8-.8-2.2-1.5z" fill="url(#h)"/><path d="m34.2 20.9c-.3.6-1 1.2-2.2 1.5 1.7-.3 2.8-1 3.2-1.6s1.5-2.2 2.1-4.5c-.5-.1-.9-.2-1.4-.3-.5 2.7-1.7 4.9-1.7 4.9z" fill="url(#i)"/><path d="m21.9 15.8c0-2.7 2.6-6.6 8-6.6 5.3 0 8 3.9 8 6.6 0 3.4-3.6 5.8-8 5.8-4.4-.1-8-2.5-8-5.8z" fill="url(#j)"/><path d="m23.1 15.7c0-2.3 2.2-5.6 6.8-5.6 4.5 0 6.8 3.3 6.8 5.6 0 2.8-3.1 4.9-6.8 4.9-3.8 0-6.8-2-6.8-4.9z" fill="#aaa"/><path d="m29.9 12.4c2.9 0 5.5 1.9 5.8 4.3v.8c.4-.6.5-1.3.4-2.1-.3-2.6-3.1-4.7-6.2-4.7s-5.9 2.1-6.2 4.7c-.1.8.1 1.5.4 2.1 0-.3 0-.5 0-.8.3-2.4 2.9-4.3 5.8-4.3z"/><path d="m29.9 20.1c2.6 0 4.9-1.1 5.8-2.6 0-.3 0-.5 0-.8-.2-2.4-2.8-4.3-5.8-4.3-2.9 0-5.5 1.9-5.8 4.3v.8c.9 1.5 3.1 2.6 5.8 2.6z" fill="#daf0fc"/><path d="m34.4 15.8c0 1.7-2 3.1-4.5 3.1s-4.5-1.4-4.5-3.1 2-3.1 4.5-3.1 4.5 1.4 4.5 3.1z" fill="#fff"/><path d="m25 8.7c.2.4.5.5.7.5h8.4c.2 0 .4-.2.6-.5l4.1-7.5c0-.3-.2-.5-.6-.5h-16.6c-.4 0-.7.2-.6.5z" fill="url(#l)"/><path d="m21.6.7h16.5c.2 0 .6.1.6.4v-.6c0-.3-.2-.5-.6-.5h-16.5c-.4 0-.6.2-.6.5v.6c.1-.1.4-.4.6-.4z" fill="#231f20"/><path d="m28.7 8.7h2.3v.9h-2.3z" fill="#212120"/><path d="m38.8 1.2s0-.1 0-.2c-.1-.1-.2-.2-.5-.3-.2 0-.6 0-.9 0s-.7 0-1.2 0c-1.7 0-4 0-6.3 0s-4.6 0-6.3 0c-.4 0-.8 0-1.2 0-.3 0-.7 0-.9 0s-.4.1-.5.3c-.1.1 0 .2 0 .2s0-.1 0-.2c.1-.1.2-.3.5-.3s.6 0 .9 0 .7 0 1.2 0h6.3s4.6 0 6.3 0h1.2.9c.3 0 .4.2.5.3 0 .1-.1.2 0 .2z" fill="#b0b0b0"/><path d="m35.5 22c-.5-.5-1.3-.5-1.5-.5h-8.4c-.2 0-.8 0-1.3.5l-3.3 2.8c0 .3.2.5.6.5h16.5c.4 0 .7-.2.6-.5z" fill="url(#m)"/><path d="m38.1 25.3h-16.5c-.2 0-.6-.1-.6-.4v.6c0 .3.2.5.6.5h16.5c.4 0 .6-.2.6-.5v-.6c0 .1-.3.4-.6.4z"/><path d="m28.7 21.1h2.3v.9h-2.3z" fill="#212120"/><path d="m21 24.8v.2c.1.1.2.2.5.3h.9s.7 0 1.2 0h6.3s4.6 0 6.3 0h1.2.9s.4-.1.5-.3c.1-.1 0-.2 0-.2s0 .1 0 .2c-.1.1-.2.3-.5.3s-.6 0-.9 0-.7 0-1.2 0c-1.7 0-4 0-6.3 0s-4.6 0-6.3 0c-.4 0-.8 0-1.2 0-.3 0-.7 0-.9 0-.3 0-.4-.2-.5-.3 0-.1 0-.2 0-.2z" fill="#b0b0b0"/><path d="m37.1 10.1c-.2.2-.3.4-.3.6l1.6 7.6c0 .2.2.4.5.3l6.5-3.8c.3-.2.3-.4.3-.8l-2.4-10.3c0-.3-.3-.5-.5-.5z" fill="url(#n)"/><path d="m46.2 14.1-2.3-10.4c0-.3-.2-.5-.4-.5h-.6c.2 0 .3.2.4.5l2.3 10.4c0 .3 0 .5-.3.8l-6.5 3.8h-.1.7.1l6.5-3.8c.2-.3.3-.5.2-.8z" fill="#231f20"/><path d="m37.4 15.6-.4-2.1.8-.6.4 2.1z" fill="#212120"/><path d="m38.4 18.3c0 .1 0 .1.1.2v.1s0 0 .1.1h.1.1.1.1l1.6-1 1.6-1 3.2-1.9c.1-.1.2-.2.2-.3.1-.1.1-.2 0-.4 0-.2-.1-.5-.2-.7l-.3-1.5-.7-3-.7-3c-.1-.5-.2-1-.3-1.5l-.2-.7c0-.1-.1-.2-.1-.3-.1-.1-.2-.2-.3-.1.1 0 .3 0 .3.1.1.1.1.2.1.4l.2.7c.1.5.2 1 .3 1.5l.7 3 .7 3 .3 1.5c.1.3.1.5.2.8v.4c-.1.1-.2.2-.2.3l-3.2 1.9-1.6 1-1.6.9h-.1-.1-.1s0 0-.1 0c0 0 0 0-.1-.1 0 0 0 0 0-.1-.1-.2-.1-.2-.1-.3z" fill="#231f20"/><path d="m22.7 10.1c.2.2.3.4.3.6l-1.6 7.6c0 .2-.2.4-.5.3l-6.5-3.8c-.3-.2-.3-.4-.3-.8l2.3-10.4c0-.3.3-.5.5-.5z" fill="url(#o)"/><path d="m13.5 14.1 2.3-10.4c0-.3.2-.5.4-.5h.6c-.2 0-.3.2-.4.5l-2.3 10.4c0 .3 0 .5.3.8l6.5 3.8h.1-.7-.1l-6.5-3.8c-.2-.3-.2-.5-.2-.8z" fill="#231f20"/><path d="m22.3 15.6.4-2.1-.7-.6-.4 2.1z" fill="#212120"/><path d="m21.4 18.3c0 .1 0 .1-.1.2v.1s0 0-.1.1c0 0 0 0-.1 0h-.1-.1-.1l-1.6-1-1.6-1-3.2-1.9c-.1-.1-.2-.2-.2-.3-.1-.1-.1-.2 0-.4 0-.2.1-.5.2-.7l.3-1.5.7-3 .7-3c.1-.5.2-1 .3-1.5l.2-.7c0-.1.1-.2.1-.3.1-.1.2-.2.3-.1-.1 0-.3 0-.3.1-.1.1-.1.2-.1.4l-.2.7c-.1.5-.2 1-.3 1.5l-.7 3-.7 3-.3 1.5c-.1.3-.1.5-.2.8v.4c.1.1.2.2.2.3l3.2 1.9 1.6 1 1.6.9h.1.1.1.1s0 0 .1-.1c0 0 0 0 0-.1 0-.2.1-.2.1-.3z" fill="#b0b0b0"/></svg>