<svg enable-background="new 0 0 60 100" height="100" viewBox="0 0 60 100" width="60" xmlns="http://www.w3.org/2000/svg" xmlns:xlink="http://www.w3.org/1999/xlink"><linearGradient id="a" gradientTransform="matrix(.7071 .7071 -.7071 .7071 -235.1553 -155.8569)" gradientUnits="userSpaceOnUse" x1="307.6258" x2="307.6258" y1="-64.7594" y2="-83.7198"><stop offset="0"/><stop offset=".7527" stop-color="#171717"/><stop offset=".8095" stop-color="#1a1a1a"/><stop offset=".8574" stop-color="#252525"/><stop offset=".9021" stop-color="#363636"/><stop offset=".9448" stop-color="#4f4f4f"/><stop offset=".9858" stop-color="#6e6e6e"/><stop offset="1" stop-color="#7b7b7b"/></linearGradient><linearGradient id="b"><stop offset="0" stop-color="#7b7b7b"/><stop offset=".02374425" stop-color="#6e6e6e"/><stop offset=".09235862" stop-color="#4f4f4f"/><stop offset=".1639" stop-color="#363636"/><stop offset=".2387" stop-color="#252525"/><stop offset=".3189" stop-color="#1a1a1a"/><stop offset=".414" stop-color="#171717"/><stop offset="1"/></linearGradient><linearGradient id="c" gradientTransform="matrix(-.7071 -.7071 .7071 -.7071 -254.5072 -429.9354)" gradientUnits="userSpaceOnUse" x1="-515.1705" x2="-515.1705" xlink:href="#b" y1="-122.5124" y2="-132.3654"/><linearGradient id="d" gradientTransform="matrix(-.7071 -.7071 .7071 -.7071 -254.5072 -429.9354)" gradientUnits="userSpaceOnUse" x1="-506.9058" x2="-497.3052" xlink:href="#b" y1="-119.7789" y2="-121.2995"/><linearGradient id="e" gradientTransform="matrix(.7071 .7071 .7071 -.7071 486.9247 311.4965)" gradientUnits="userSpaceOnUse" x1="-525.1187" x2="-515.5174" xlink:href="#b" y1="-119.7783" y2="-121.299"/><linearGradient id="f" gradientTransform="matrix(.7071 .7071 -.7071 .7071 489.518 171.3382)" gradientUnits="userSpaceOnUse" x1="-436.1089" x2="-436.1089" xlink:href="#b" y1="209.0239" y2="204.6409"/><g fill="#231f20"><path d="m25.1 7.6v18c0 .4.3.7.7.7h5.1.6 7.3c.4 0 .7-.3.7-.7v-18h.4.4 1.4.3.3v18.7c0 .4-.3.7-.7.7h-2.1-8.1-.5-5.8c-.4 0-.7-.3-.7-.7v-18.7z"/><path d="m11.9 93.9.6.4c.4.2.6 0 .9-.4s.4-.7.1-1l.1.1c.6.4 1 0 1.4-.6.3-.4.4-.7.4-1.1l14.6-21.3c.2 0 .3-.1.5-.3 0 .1.1.2.2.3l-2.8 25.5c-.3.2-.4.6-.5 1.1-.1.7 0 1.3.7 1.4-.4 0-.5.4-.6.9s0 1 .5 1l.8.1c.5.1.6-.4.7-.9s0-.9-.4-1h.1c.7.1.9-.5.9-1.2.1-.5 0-.9-.2-1.1l2.8-25.7c.2-.2.3-.6.4-1 0-.1 0-.2 0-.2h.2c.1.1.2.3.3.4.3.4.5.7.9.7l14.7 21.2c0 .3.1.7.4 1.1.4.6.9 1 1.4.6-.3.3-.1.7.1 1.1.3.4.6.8 1.1.5l.7-.5c.4-.3.2-.7-.1-1.2-.3-.4-.6-.7-.9-.5.6-.4.3-.9-.1-1.5-.3-.4-.6-.7-.9-.8l-13.6-19.7-3.8-13.3s-.1-.1-.2-.1v-22.9h-2.1v22.8c-.2 0-.2.1-.2.1l-3.5 12.9-13.8 20.3c-.3 0-.6.3-.9.8-.4.6-.6 1.2-.1 1.5l.1.1c-.3-.2-.6.1-.9.4-.2.4-.4.7 0 1zm19.3-35.7v7.3c-.6.1-1 .3-1 .4v1.3l-.2-.1c-.5-.3-.9-.1-1.2.4zm4.8 9.7c0-.1-.1-.1-.1-.2-.4-.6-.9-1-1.4-.6l-.2.1v-1.2c0-.2-.4-.3-1-.4v-7.3zm.3 1c0-.1 0-.1 0 0z"/><path d="m27.1 26.6c.1.3.4.5.7.5h1.3c0-.3 0-.5 0-.8h-.6c-.4 0-.7-.3-.7-.7v-18h-.4-.4-1.8v18.9h1.9z"/></g><path d="m28.2 26.3h13c-2.1 0-1.8-.3-1.8-.7v-18h-14.3v18c0 .4.3.7 3.1.7z" fill="none"/><path d="m28.9 16.4 6.6 5.3c5.1-6.1 7.8-11.4 7.9-11.6 1.3-2.2.6-5.2-1.8-7.6-2.4-2.4-5.4-3.1-7.6-1.8s-5.4 2.7-11.6 7.9l5.3 6.6-.1.1.7.5.5.7z" fill="url(#a)"/><path d="m35.1 22.1c-2.2 2.2-7.6 3.3-12.1-1.1-4.3-4.3-3.4-9.8-1.1-12.1 2.8-2.8 7.7-1.8 11.3 1.9 3.7 3.6 4.7 8.5 1.9 11.3z" fill="#333"/><path d="m34.1 21.2c-1.9 1.9-6.5 2.8-10.2-1-3.7-3.7-2.9-8.3-1-10.2 2.3-2.3 6.5-1.5 9.6 1.6s3.9 7.2 1.6 9.6z" fill="#aaa"/><path d="m25.7 18.3c-2.4-2.4-3-6.1-1.2-8.3.2-.2.4-.5.7-.6-.8.2-1.5.7-2.1 1.4-1.9 2.4-1.4 6.4 1.2 9s6.6 3.1 9 1.2c.7-.5 1.2-1.3 1.4-2.1-.2.2-.4.5-.6.7-2.2 1.7-5.9 1.1-8.4-1.3z"/><path d="m32.1 12c-2.2-2.2-4.9-3.1-6.9-2.6-.2.2-.5.4-.7.6-1.8 2.2-1.2 5.9 1.2 8.3s6.1 3 8.3 1.2c.2-.2.5-.4.6-.7.6-1.9-.3-4.6-2.5-6.8z" fill="#daf0fc"/><path d="m24.9 11.8c1.4-1.4 4.2-.9 6.2 1.1s2.5 4.8 1.1 6.2-4.1.9-6.2-1.1c-2-2-2.5-4.8-1.1-6.2z" fill="#fff"/><path d="m26.8 25.4c.2-.5 0-.8-.2-.9l-6.9-6.9c-.2-.2-.5-.2-.8-.1l-9.6 2.8c-.2.2-.2.6.1.9l13.6 13.5c.3.3.7.4.9.1z" fill="url(#c)"/><path d="m23 34.7-13.6-13.6c-.2-.2-.4-.5-.2-.8l-.5.5c-.2.2-.2.6.1.9l13.6 13.6c.3.3.6.4.9.1l.5-.5c-.2.1-.6 0-.8-.2z" fill="#231f20"/><path d="m22.6 19.7h1.1v2.6h-1.1z" fill="#232323" transform="matrix(.707 -.7073 .7073 .707 -8.0467 22.513)"/><path d="m9.2 20.2s-.1 0-.1.2c0 .1 0 .4.2.6l.7.7c.3.3.6.6 1 1 1.4 1.4 3.3 3.3 5.2 5.2s3.8 3.8 5.2 5.2c.4.4.7.7 1 1s.5.6.7.7c.2.2.5.2.6.2s.2-.1.2-.1 0 .1-.2.1c-.1 0-.4 0-.6-.2s-.5-.4-.8-.7-.6-.6-1-1c-1.4-1.4-3.3-3.3-5.2-5.2s-3.8-3.8-5.2-5.2c-.4-.4-.7-.7-1-1s-.5-.5-.7-.8c-.2-.2-.2-.5-.2-.6.2 0 .3-.1.2-.1z" fill="#b0b0b0"/><path d="m18 14.3c.3 0 .6-.1.7-.3l4.9-7.5c.1-.2.2-.5-.1-.7l-8.5-2.2c-.4 0-.6.1-.8.4l-6.7 10.4c-.2.3-.2.7 0 .8z" fill="url(#d)"/><path d="m13.7 3.5-6.7 10.4c-.2.3-.2.5-.1.7l.5.5c-.1-.2-.1-.4.1-.7l6.7-10.4c.2-.3.4-.4.8-.4l8.5 2.2c.1 0 .1.1.1.1l-.5-.5s-.1 0-.1-.1l-8.5-2.2c-.4 0-.6.1-.8.4z" fill="#231f20"/><path d="m22.2 9.5-1.4 2-1.1-.1 1.4-2.1z" fill="#232323"/><path d="m23.7 6.5c0-.1.1-.1.1-.2v-.1-.1-.1-.1s0-.1-.1-.1l-.1-.1-2.1-.5-2.1-.5-4.2-1.1c-.1 0-.3 0-.4 0s-.2.1-.3.3c-.2.2-.3.5-.5.7l-1 1.5-1.9 3-1.9 3c-.3.5-.6 1-1 1.5l-.5.7c-.1.1-.2.3-.2.4s0 .3.2.4c-.1-.1-.2-.2-.2-.4 0-.1.1-.3.2-.4l.3-.6c.3-.5.6-1 .9-1.5l1.9-3 1.9-3 1-1.5c.2-.2.3-.5.5-.7.1-.1.2-.2.4-.3.1-.1.3-.1.5 0l4.2 1.1 2.1.5 2.1.6.1.1s0 0 .1.1v.1.1.1.1c0-.1 0-.1 0 0z" fill="#b0b0b0"/><path d="m29.8 26.1c0-.3.1-.6.3-.7l7.5-4.9c.2-.1.5-.2.7.1l2.2 8.5c0 .4-.1.6-.4.8l-10.4 6.7c-.3.2-.7.2-.8 0z" fill="url(#e)"/><path d="m40.6 30.4-10.4 6.7c-.3.2-.5.2-.7.1l-.5-.5c.2.1.4.1.7-.1l10.4-6.7c.3-.2.4-.4.4-.8l-2.2-8.5c0-.1-.1-.1-.1-.1l.5.5s0 .1.1.1l2.2 8.5c0 .4-.1.6-.4.8z" fill="#231f20"/><path d="m34.6 21.9-2 1.4.1 1.1 2.1-1.4z" fill="#232323"/><path d="m37.6 20.4c.1 0 .1-.1.2-.1h.1.1.1s.1 0 .1.1c0 0 .1 0 .1.1l.1.1.5 2.1.5 2.1 1.1 4.2v.4c0 .1-.1.2-.3.3-.2.2-.5.3-.7.5l-1.5 1-3 1.9-3 1.9c-.5.3-1 .6-1.5 1l-.7.5c-.1.1-.3.2-.4.2s-.3 0-.4-.2c.1.1.2.2.4.2.1 0 .3-.1.4-.2l.8-.5c.5-.3 1-.6 1.5-.9l3-1.9 3-1.9 1.5-1c.2-.2.5-.3.7-.5.1-.1.2-.2.3-.4.1-.1.1-.3 0-.5l-1.1-4.2-.5-2.1-.6-2.1-.1-.1s0 0-.1-.1c0 0-.1 0-.1-.1h-.1-.1-.1c0 .2-.1.2-.2.2z" fill="#b0b0b0"/><path d="m29.1 5.7c0 .8.6 1.4.8 1.6l6.9 6.9c.2.2.7.7 1.5.7l5.1.4c.2-.2.2-.6-.1-.9l-13.7-13.5c-.3-.3-.7-.4-.9-.1z" fill="url(#f)"/><path d="m29.6.9 13.6 13.6c.2.2.4.5.2.8l.5-.5c.2-.2.2-.6-.1-.9l-13.6-13.6c-.3-.3-.6-.4-.9-.1l-.5.5c.2-.1.6 0 .8.2z" fill="#231f20"/><path d="m32.8 9.5h1.1v2.6h-1.1z" fill="#232323" transform="matrix(.7071 -.7071 .7071 .7071 2.1496 26.7296)"/><path d="m43.4 15.4s.1 0 .1-.2c0-.1 0-.4-.2-.6s-.5-.5-.7-.7c-.3-.3-.6-.6-1-1-1.4-1.4-3.3-3.3-5.2-5.2s-3.8-3.8-5.2-5.2c-.4-.4-.7-.7-1-1-.2-.2-.4-.5-.6-.7s-.5-.2-.6-.2-.2.1-.2.1 0-.1.2-.1c.1 0 .4 0 .6.2s.4.4.7.7.6.6 1 1c1.4 1.4 3.3 3.3 5.2 5.2s3.8 3.8 5.2 5.2c.4.4.7.7 1 1s.5.5.7.8c.2.2.2.5.2.6-.1 0-.2.1-.2.1z" fill="#b0b0b0"/></svg>