<svg enable-background="new 0 0 60 100" height="100" viewBox="0 0 60 100" width="60" xmlns="http://www.w3.org/2000/svg" xmlns:xlink="http://www.w3.org/1999/xlink"><linearGradient id="a" gradientTransform="matrix(1 0 0 -1 0 100)" gradientUnits="userSpaceOnUse" x1="29.3491" x2="30.3678" y1="75.3" y2="75.3"><stop offset="0" stop-color="#101010"/><stop offset=".2043" stop-color="#dbdada"/><stop offset=".3495" stop-color="#fff"/><stop offset=".4086" stop-color="#fff"/><stop offset=".4094" stop-color="#fcfcfc"/><stop offset=".4221" stop-color="#cecece"/><stop offset=".4355" stop-color="#a5a5a5"/><stop offset=".4496" stop-color="#838383"/><stop offset=".4645" stop-color="#676767"/><stop offset=".4805" stop-color="#515151"/><stop offset=".4981" stop-color="#424242"/><stop offset=".5185" stop-color="#393939"/><stop offset=".5484" stop-color="#363636"/><stop offset=".6356" stop-color="#363636"/><stop offset=".6398" stop-color="#363636"/><stop offset=".6621" stop-color="#3a3a3a"/><stop offset=".6825" stop-color="#454545"/><stop offset=".7022" stop-color="#575757"/><stop offset=".7213" stop-color="#717171"/><stop offset=".7401" stop-color="#939393"/><stop offset=".7584" stop-color="#bcbcbc"/><stop offset=".7634" stop-color="#c8c8c8"/><stop offset=".8387" stop-color="#c8c8c8"/><stop offset=".8494" stop-color="#b8b8b8"/><stop offset=".8847" stop-color="#8a8a8a"/><stop offset=".9185" stop-color="#666"/><stop offset=".9499" stop-color="#4b4b4b"/><stop offset=".978" stop-color="#3c3c3c"/><stop offset="1" stop-color="#363636"/></linearGradient><linearGradient id="b" gradientTransform="matrix(1 0 0 -1 0 100)" gradientUnits="userSpaceOnUse" x1="22.0775" x2="37.5775" y1="91.55" y2="91.55"><stop offset="0"/><stop offset=".03323702" stop-color="#050505"/><stop offset=".07374161" stop-color="#141414"/><stop offset=".118" stop-color="#2d2d2d"/><stop offset=".1651" stop-color="#4f4f4f"/><stop offset=".2142" stop-color="#7c7b7c"/><stop offset=".2645" stop-color="#b1b0b1"/><stop offset=".2662" stop-color="#b3b2b3"/><stop offset=".32" stop-color="#b3b2b3"/><stop offset=".4662"/><stop offset=".5486"/><stop offset=".5919" stop-color="#090909"/><stop offset=".6623" stop-color="#212121"/><stop offset=".7509" stop-color="#494849"/><stop offset=".7559" stop-color="#4b4a4b"/><stop offset=".8105" stop-color="#4b4a4b"/><stop offset=".8194" stop-color="#444"/><stop offset=".8666" stop-color="#272627"/><stop offset=".913" stop-color="#111"/><stop offset=".958" stop-color="#040404"/><stop offset="1"/></linearGradient><linearGradient id="c" gradientTransform="matrix(1 0 0 -1 0 100)" gradientUnits="userSpaceOnUse" x1="29.85" x2="29.85" y1="76.7" y2="88.5"><stop offset="0"/><stop offset=".414" stop-color="#171717"/><stop offset=".5486" stop-color="#1a1a1a"/><stop offset=".6621" stop-color="#252525"/><stop offset=".768" stop-color="#363636"/><stop offset=".8693" stop-color="#4f4f4f"/><stop offset=".9664" stop-color="#6e6e6e"/><stop offset="1" stop-color="#7b7b7b"/></linearGradient><path d="m30.4 24.7c0 .1-.2.2-.5.2s-.5-.1-.5-.2.2-.2.5-.2c.2 0 .5.1.5.2z" fill="url(#a)"/><path d="m51 92.6c-.3-.4-.6-.7-1-.5.6-.4.3-1-.1-1.6-.3-.4-.6-.7-1-.8l-13.9-20.2-3.8-13.7s-.1-.1-.2-.1v-22c.2-.1.4-.2.4-.3v-1.6h1.4c.2 0 .4-.7.4-1.5 0-.6-.1-1.1-.2-1.3.3-.1.4-.3.4-.4v-.9c0-.5-1.3-.8-2.9-.9v-2.1h-1v2.1c-1.7.1-2.9.4-2.9.9v.9c0 .2.2.4.7.5-.1.3-.2.7-.2 1.2 0 .8.2 1.5.4 1.5h1.1v1.6c0 .1.1.2.4.3v22c-.2 0-.2.1-.2.1l-3.8 13.2-14.2 20.8c-.4 0-.7.3-1 .8-.4.6-.7 1.2-.1 1.6l.1.1c-.3-.3-.6 0-.8.4-.3.4-.4.8 0 1l.6.4c.4.3.7 0 .9-.4.3-.4.4-.7.1-1l.1.1c.6.4 1 0 1.4-.6.3-.4.4-.8.4-1.1l15-21.9c.2 0 .4-.1.5-.3 0 .1.1.2.2.3l-2.9 26.2c-.3.2-.4.6-.5 1.1-.1.7 0 1.4.7 1.4h.1c-.4 0-.6.4-.6.9-.1.5 0 1 .5 1l.8.1c.5.1.6-.4.7-.9s0-.9-.4-1h.1c.7.1.9-.5 1-1.3.1-.5 0-.9-.2-1.1l2.9-26.4c.2-.2.4-.6.4-1.1 0-.1 0-.2 0-.2h.3c.1.1.2.3.3.4.3.4.6.7.9.8l15 21.9c0 .3.1.7.4 1.1.4.6.9 1 1.5.6-.3.3-.1.7.2 1.1.3.5.7.8 1.1.5l.7-.5c.3-.3.1-.7-.2-1.2zm-22.2-28c-.6.1-1 .3-1 .5v1.3l-.3-.2c-.5-.3-.9-.1-1.3.4l2.6-9.5zm1.1-32.6c-.7 0-1.2-.1-1.4-.3h2.8c-.2.2-.8.3-1.4.3zm3.7 34.8c-.4-.6-.9-1-1.5-.6l-.2.2v-1.3c0-.2-.4-.4-1-.5v-7.5l2.8 9.9s-.1-.1-.1-.2z" fill="#063e89"/><path d="m37.4 25c.4 0 .7-.3.7-.7v-13.5h-.3-.4-1.7v13.5h-8c0 .2-.1.5-.1.7z" fill="#231f20"/><path d="m23.3 24.5c.1.3.4.5.7.5h1.3c0-.2 0-.5 0-.7h-.6c-.4 0-.7-.3-.7-.7v-12.8h-.4-.4-1.7v13.7z" fill="#231f20"/><path d="m22.6 24.2h14.4c.4 0 .7-.3.7-.7v-12.7h-15.7v12.8c0 .3.3.6.6.6z" fill="none"/><path d="m21.2 24.3c0 .4.3.7.7.7h15.8c.4 0 .7-.3.7-.7v-13.5h-.7v12.8c0 .4-.3.7-.7.7h-14.4c-.4 0-.7-.3-.7-.7v-12.8h-.7z" fill="#231f20"/><path d="m29.8 0c-3.5 0-6.6 2.1-6.8 5.3l-.9 11.6h15.5l-1-11.6c-.2-3.2-3.2-5.3-6.8-5.3z" fill="url(#b)"/><path d="m29.8 4.6c-3.7 0-7 2.4-7.2 5.9v.4c.3-3.6 3.5-6 7.3-6 3.7 0 7 2.4 7.3 6v-.4c-.4-3.5-3.6-5.9-7.4-5.9z" fill="#5a5b5c"/><path d="m37.2 23.3h-14.7l-1.9-11.8h18.5z" fill="url(#c)"/><path d="m36.4 17c0 2.2-2.1 5.4-6.6 5.4-4.3 0-6.6-3.2-6.6-5.4 0-2.8 3-4.7 6.6-4.7s6.6 1.9 6.6 4.7z" fill="#aaa"/><path d="m29.8 20.2c-2.8 0-5.3-1.9-5.6-4.2 0-.3 0-.5 0-.8-.3.6-.5 1.3-.4 2 .3 2.5 3 4.6 6 4.6s5.7-2 6-4.6c.1-.7-.1-1.4-.4-2v.8c-.2 2.3-2.7 4.2-5.6 4.2z"/><path d="m29.9 12.7c-2.6 0-4.7 1-5.6 2.5v.8c.2 2.3 2.7 4.2 5.6 4.2s5.4-1.9 5.6-4.2c0-.3 0-.5 0-.8-.9-1.4-3.1-2.5-5.6-2.5z" fill="#daf0fc"/><path d="m25.5 16.8c0-1.7 1.9-3 4.3-3s4.3 1.3 4.3 3-1.9 3-4.3 3-4.3-1.3-4.3-3z" fill="#fff"/><path d="m20.6 11.1h18.5v.4h-18.5z" fill="#231f20"/></svg>