<svg enable-background="new 0 0 60 60" height="60" viewBox="0 0 60 60" width="60" xmlns="http://www.w3.org/2000/svg" xmlns:xlink="http://www.w3.org/1999/xlink"><linearGradient id="a" gradientTransform="matrix(.7071 -.7071 .7071 .7071 140.5857 -722.9116)" gradientUnits="userSpaceOnUse" x1="-610.5921" x2="-610.5921" y1="451.0577" y2="434.7234"><stop offset="0"/><stop offset=".586" stop-color="#171717"/><stop offset=".6811" stop-color="#1a1a1a"/><stop offset=".7613" stop-color="#252525"/><stop offset=".8361" stop-color="#363636"/><stop offset=".9076" stop-color="#4f4f4f"/><stop offset=".9763" stop-color="#6e6e6e"/><stop offset="1" stop-color="#7b7b7b"/></linearGradient><linearGradient id="b" gradientTransform="matrix(.7071 -.7071 .7071 .7071 140.5857 -722.9116)" gradientUnits="userSpaceOnUse" x1="-622.5314" x2="-598.6523" y1="427.8574" y2="427.8574"><stop offset="0"/><stop offset=".2089" stop-color="#040404"/><stop offset=".4154" stop-color="#101010"/><stop offset=".5" stop-color="#171717"/><stop offset=".502" stop-color="#171717"/><stop offset=".543" stop-color="#171717"/><stop offset=".6291" stop-color="#0f0f0f"/><stop offset=".8058" stop-color="#040404"/><stop offset="1"/></linearGradient><linearGradient id="c" gradientTransform="matrix(-.7071 .7071 -.7071 -.7071 234.3703 -335.6981)" gradientUnits="userSpaceOnUse" x1="391.1656" x2="415.0438" y1="-94.7464" y2="-94.7464"><stop offset="0" stop-color="#7b7b7b"/><stop offset=".02716225" stop-color="#6d6d6d"/><stop offset=".1124" stop-color="#464646"/><stop offset=".1967" stop-color="#272727"/><stop offset=".2789" stop-color="#121212"/><stop offset=".3579" stop-color="#040404"/><stop offset=".4301"/><stop offset=".5699"/><stop offset=".6474" stop-color="#101010"/><stop offset=".7993" stop-color="#3a3a3a"/><stop offset="1" stop-color="#7b7b7b"/></linearGradient><linearGradient id="d" gradientTransform="matrix(-.7071 .7071 -.7071 -.7071 234.3703 -335.6981)" gradientUnits="userSpaceOnUse" x1="402.9617" x2="402.9617" y1="-108.0626" y2="-93.9203"><stop offset="0"/><stop offset=".672" stop-color="#171717"/><stop offset=".7474" stop-color="#1a1a1a"/><stop offset=".8109" stop-color="#252525"/><stop offset=".8702" stop-color="#363636"/><stop offset=".9268" stop-color="#4f4f4f"/><stop offset=".9812" stop-color="#6e6e6e"/><stop offset="1" stop-color="#7b7b7b"/></linearGradient><linearGradient id="e" gradientTransform="matrix(-.7071 .7071 -.7071 -.7071 234.3703 -335.6981)" gradientUnits="userSpaceOnUse" x1="409.5487" x2="414.1527" y1="-101.0072" y2="-99.147"><stop offset=".3925" stop-color="#212120"/><stop offset=".5251" stop-color="#313130"/><stop offset=".7834" stop-color="#5a5b5a"/><stop offset="1" stop-color="#818282"/></linearGradient><linearGradient id="f" gradientTransform="matrix(-.7071 .7071 -.7071 -.7071 234.3703 -335.6981)" gradientUnits="userSpaceOnUse" x1="391.5749" x2="396.6242" y1="-99.3128" y2="-101.1506"><stop offset="0" stop-color="#818282"/><stop offset=".2166" stop-color="#5a5b5a"/><stop offset=".4749" stop-color="#313130"/><stop offset=".6075" stop-color="#212120"/></linearGradient><radialGradient id="g" cx="-610.611" cy="438.9623" gradientTransform="matrix(.7071 -.7071 .7071 .7071 140.5857 -722.9116)" gradientUnits="userSpaceOnUse" r="18.1367"><stop offset="0" stop-color="#4a4f54"/><stop offset="1" stop-color="#e8f6fd"/></radialGradient><linearGradient id="h"><stop offset="0" stop-color="#7b7b7b"/><stop offset=".02374425" stop-color="#6e6e6e"/><stop offset=".09235862" stop-color="#4f4f4f"/><stop offset=".1639" stop-color="#363636"/><stop offset=".2387" stop-color="#252525"/><stop offset=".3189" stop-color="#1a1a1a"/><stop offset=".414" stop-color="#171717"/><stop offset="1"/></linearGradient><linearGradient id="i" gradientTransform="matrix(.7071 -.7071 .7071 .7071 140.5857 -722.9116)" gradientUnits="userSpaceOnUse" x1="-610.5549" x2="-610.5549" xlink:href="#h" y1="459.4756" y2="475.3583"/><linearGradient id="j"><stop offset="0"/><stop offset=".01391695" stop-color="#020202"/><stop offset=".01893024" stop-color="#090909"/><stop offset=".02250399" stop-color="#141414"/><stop offset=".02539463" stop-color="#252525"/><stop offset=".02786897" stop-color="#3b3b3b"/><stop offset=".03006032" stop-color="#575757"/><stop offset=".03199423" stop-color="#767676"/><stop offset=".0322581" stop-color="#7b7b7b"/><stop offset=".05781705" stop-color="#5d5d5d"/><stop offset=".08941099" stop-color="#3e3e3e"/><stop offset=".1204" stop-color="#292929"/><stop offset=".1502" stop-color="#1b1b1b"/><stop offset=".1774" stop-color="#171717"/><stop offset=".2088" stop-color="#0f0f0f"/><stop offset=".2733" stop-color="#040404"/><stop offset=".3441"/><stop offset=".6613"/><stop offset=".7361" stop-color="#060606"/><stop offset=".8356" stop-color="#171716"/><stop offset=".8817" stop-color="#212120"/><stop offset=".9017" stop-color="#313130"/><stop offset=".9407" stop-color="#5b5b5a"/><stop offset=".9677" stop-color="#7b7b7b"/><stop offset=".9698" stop-color="#6d6d6d"/><stop offset=".9762" stop-color="#464646"/><stop offset=".9825" stop-color="#272727"/><stop offset=".9887" stop-color="#121212"/><stop offset=".9946" stop-color="#040404"/><stop offset="1"/></linearGradient><linearGradient id="k" gradientTransform="matrix(.7071 -.7071 .7071 .7071 140.5857 -722.9116)" gradientUnits="userSpaceOnUse" x1="-627.2673" x2="-593.8915" xlink:href="#j" y1="475.6583" y2="475.6583"/><linearGradient id="l"><stop offset="0"/><stop offset=".04400451" stop-color="#030303"/><stop offset=".07625132" stop-color="#0c0c0c"/><stop offset=".1048" stop-color="#1c1c1c"/><stop offset=".1311" stop-color="#333"/><stop offset=".1559" stop-color="#504f50"/><stop offset=".1797" stop-color="#747374"/><stop offset=".2021" stop-color="#9d9c9d"/><stop offset=".2125" stop-color="#b3b2b3"/><stop offset=".32" stop-color="#b3b2b3"/><stop offset=".4501"/><stop offset=".5593"/><stop offset=".6004" stop-color="#090909"/><stop offset=".6672" stop-color="#212121"/><stop offset=".7511" stop-color="#494849"/><stop offset=".7559" stop-color="#4b4a4b"/><stop offset=".8105" stop-color="#4b4a4b"/><stop offset=".8194" stop-color="#444"/><stop offset=".8666" stop-color="#272627"/><stop offset=".913" stop-color="#111"/><stop offset=".958" stop-color="#040404"/><stop offset="1"/></linearGradient><linearGradient id="m" gradientTransform="matrix(.7071 -.7071 .7071 .7071 140.5857 -722.9116)" gradientUnits="userSpaceOnUse" x1="-610.5907" x2="-610.5907" xlink:href="#l" y1="458.5992" y2="460.3363"/><linearGradient id="n" gradientTransform="matrix(.7071 -.7071 .7071 .7071 140.5857 -722.9116)" gradientUnits="userSpaceOnUse" x1="-597.2675" x2="-581.7894" xlink:href="#h" y1="455.0656" y2="457.5169"/><linearGradient id="o"><stop offset="0"/><stop offset=".003086595" stop-color="#070707"/><stop offset=".007703403" stop-color="#1c1c1c"/><stop offset=".01327794" stop-color="#3d3d3d"/><stop offset=".01954831" stop-color="#6b6b6b"/><stop offset=".0215054" stop-color="#7b7b7b"/><stop offset=".0489576" stop-color="#5d5d5d"/><stop offset=".08289183" stop-color="#3e3e3e"/><stop offset=".1162" stop-color="#292929"/><stop offset=".1481" stop-color="#1b1b1b"/><stop offset=".1774" stop-color="#171717"/><stop offset=".2088" stop-color="#0f0f0f"/><stop offset=".2733" stop-color="#040404"/><stop offset=".3441"/><stop offset=".6613"/><stop offset=".7361" stop-color="#060606"/><stop offset=".8356" stop-color="#171716"/><stop offset=".8817" stop-color="#212120"/><stop offset=".9017" stop-color="#313130"/><stop offset=".9407" stop-color="#5b5b5a"/><stop offset=".9677" stop-color="#7b7b7b"/><stop offset=".9698" stop-color="#6d6d6d"/><stop offset=".9762" stop-color="#464646"/><stop offset=".9825" stop-color="#272727"/><stop offset=".9887" stop-color="#121212"/><stop offset=".9946" stop-color="#040404"/><stop offset="1"/></linearGradient><linearGradient id="p" gradientTransform="matrix(.7071 -.7071 .7071 .7071 140.5857 -722.9116)" gradientUnits="userSpaceOnUse" x1="-586.9771" x2="-586.9771" xlink:href="#o" y1="441.6991" y2="470.7434"/><linearGradient id="q" gradientTransform="matrix(-1.1208 -1.5296 .5149 -.7346 -2840.2939 -2661.2463)" gradientUnits="userSpaceOnUse" x1="-2168.1089" x2="-2168.231" xlink:href="#l" y1="868.1124" y2="869.9658"/><linearGradient id="r" gradientTransform="matrix(-.7071 .7071 .7071 .7071 -600.8452 18.5193)" gradientUnits="userSpaceOnUse" x1="-424.6418" x2="-409.1637" xlink:href="#h" y1="455.0946" y2="457.5461"/><linearGradient id="s" gradientTransform="matrix(-.7071 .7071 .7071 .7071 -600.8452 18.5193)" gradientUnits="userSpaceOnUse" x1="-414.3828" x2="-414.3828" xlink:href="#o" y1="441.6917" y2="470.7148"/><linearGradient id="t" gradientTransform="matrix(-1.5296 -1.1208 -.7346 .5149 -2539.1799 -2962.3604)" gradientUnits="userSpaceOnUse" x1="-2184.7563" x2="-2184.8787" xlink:href="#l" y1="1068.9449" y2="1070.7998"/><linearGradient id="u" gradientTransform="matrix(-.7071 .7071 -.7071 -.7071 -490.3025 -8.503)" gradientUnits="userSpaceOnUse" x1="-340.6512" x2="-340.6512" xlink:href="#h" y1="-377.2583" y2="-370.1872"/><linearGradient id="v" gradientTransform="matrix(-.7071 .7071 -.7071 -.7071 -490.3025 -8.503)" gradientUnits="userSpaceOnUse" x1="-357.3629" x2="-323.9872" xlink:href="#j" y1="-369.8596" y2="-369.8596"/><linearGradient id="w" gradientTransform="matrix(-.7071 .7071 -.7071 -.7071 -490.3025 -8.503)" gradientUnits="userSpaceOnUse" x1="-340.687" x2="-340.687" xlink:href="#l" y1="-378.1357" y2="-376.3968"/><path d="m25.1 8.3c-.2-.3-.7-.2-1 .1l-15.7 15.7c-.4.4-.4.8-.1 1l12.3 9c.3.2.7.1 1-.1l12.4-12.4c.3-.3.4-.8.1-1z" fill="url(#a)"/><path d="m24 8.2c-.2.1-.3.2-.4.4-.1.1-.3.3-.5.5-.3.3-.7.7-1.1 1.1-1.6 1.6-3.8 3.8-6 6s-4.3 4.3-6 6c-.4.4-.8.8-1.1 1.1-.2.2-.3.3-.5.5-.1.2-.3.3-.4.4-.2.3-.3.6-.2.8-.3-.3-.6-.6-.8-1.1-.2-.9-4.8-12.4-4.8-12.4s-.3-.7.3-1.3l3.2-3.2 1.2-1.2 3.2-3.2c.6-.6 1.3-.3 1.3-.3s11.6 4.5 12.3 4.8c.5.2.8.5 1.1.8-.2 0-.5 0-.8.3z" fill="url(#b)"/><path d="m8.1 24c.1-.2.2-.3.4-.4l.5-.5 1.1-1.1c1.6-1.6 3.8-3.8 6-6s4.3-4.3 6-6c.4-.4.8-.8 1.1-1.1.2-.2.3-.3.5-.5.2-.1.3-.3.4-.4.3-.2.6-.3.8-.2.1.1.2.2.3.3 0 0 0 0-.1 0 0 0-.1 0-.2 0s-.2 0-.3.1c-.1 0-.2.1-.3.2l-.1.1-.1.1c-.1.1-.1.1-.2.2s-.3.3-.5.5c-.3.3-.7.7-1.1 1.1-1.6 1.6-3.8 3.8-6 6s-4.3 4.3-6 6c-.4.4-.8.8-1.1 1.1s-.6.6-.9.8l-.1.1s0 0-.1.1c0 .1-.1.1-.1.1 0 .1-.1.2-.1.2v.2c.2 0 .1-.1 0-.2-.1-.2 0-.5.2-.8z" fill="url(#c)"/><path d="m24.8 26.6c-3.4 3-7.2 5.6-11.1 7.9-2-3.6-2.8-8.5-2.8-8.7-.5-1.9 1.2-6.2 5-10.1 3.9-3.9 8.2-5.4 10.1-5s5 .8 8.7 2.8c-2.3 3.9-5 7.7-7.9 11.1l.1.1c-.3.3-.7.6-1 .9s-.6.7-.9 1c-.2 0-.2 0-.2 0z" fill="url(#d)"/><path d="m12.6 23.7c.1.2 1.4 4.6 4.3 8.7-.7.5-1.5 1-2.3 1.4-2.3-3.8-3.1-8.5-3.2-8.7-.3-1.5.3-3.7 2-6.4-1 2.1-1.1 3.6-.8 5z" fill="url(#e)"/><path d="m23.9 12.4c-1.2-.3-2.9-.2-4.9.9 2.7-1.8 5-2.4 6.4-2s4.8.9 8.7 3.2c-.5.8-.9 1.5-1.4 2.3-4.3-3-8.8-4.4-8.8-4.4z" fill="url(#f)"/><path d="m14.4 35.6c3.6 3.6 12.3 5.4 19.5-1.8 7-7 5.5-15.8 1.8-19.4-4.5-4.5-12.4-2.9-18.3 3-5.9 5.8-7.4 13.7-3 18.2z" fill="#781d77"/><path d="m29.5 29.4c3.9-3.9 4.8-9.9 1.9-13.3-.3-.4-.7-.7-1.1-1 1.3.4 2.5 1.1 3.4 2.2 3.1 3.8 2.2 10.3-1.9 14.4s-10.6 5-14.5 2c-1.1-.9-1.9-2-2.2-3.3.3.4.6.7 1 1.1 3.5 2.7 9.5 1.8 13.4-2.1z"/><path d="m19.3 19.3c3.5-3.5 7.9-5 11.1-4.2.4.3.7.6 1.1 1 2.8 3.5 2 9.4-1.9 13.3s-9.9 4.8-13.4 2c-.4-.3-.7-.7-1-1.1-.9-3.2.6-7.5 4.1-11z" fill="#daf0fc"/><path d="m30.5 15c1.4.4 2.5 1.1 3.4 2.2 3.1 3.9 2.2 10.4-1.9 14.6-4.2 4.2-10.7 5.1-14.7 2-1.1-.9-1.9-2-2.3-3.4-.9-3.4.8-7.8 4.2-11.2s7.8-5.1 11.3-4.2zm3.2 2.3c-.9-1.1-2-1.8-3.3-2.2-3.3-.8-7.7.8-11 4.2-3.4 3.4-5 7.7-4.1 11 .4 1.3 1.1 2.4 2.2 3.3 3.8 3 10.3 2.1 14.4-2 4-4.1 4.8-10.5 1.8-14.3z" fill="url(#g)"/><path d="m30.9 18.9c-2.3-2.3-6.8-1.4-10 1.8-3.3 3.3-4.1 7.8-1.8 10 2.3 2.3 6.8 1.4 10-1.8s4.1-7.7 1.8-10z" fill="#fff"/><path d="m27.9 40.8c-.3-.7 0-1.2.3-1.5l11.2-11.2c.3-.3.8-.3 1.4-.1l15.4 4.5c.4.3.3.9-.2 1.4l-22 22c-.5.5-1.2.6-1.5.2z" fill="url(#i)"/><path d="m34 55.9 21.9-21.9c.3-.3.6-.9.3-1.3l.8.8c.4.4.3.9-.2 1.4l-21.9 22c-.5.5-1 .6-1.5.2l-.8-.8c.4 0 1.1 0 1.4-.4z" fill="url(#k)"/><path d="m34.6 31.6-3 3 1.2 1.2 3-3z" fill="url(#m)"/><path d="m56.1 32.5s.1.1.2.3 0 .6-.3 1c-.3.3-.7.7-1.2 1.2s-1 1-1.6 1.5c-2.3 2.3-5.3 5.3-8.3 8.3s-6.1 6.1-8.3 8.3c-.6.6-1.1 1.1-1.5 1.6-.5.5-.8.9-1.2 1.2-.3.3-.8.4-1 .3s-.3-.2-.3-.2.1.1.3.2.7 0 1-.3c.4-.3.7-.7 1.2-1.2s1-1 1.6-1.5c2.2-2.1 5.3-5.2 8.3-8.2s6.1-6.1 8.3-8.3c.6-.6 1.1-1.1 1.5-1.6.5-.5.9-.9 1.2-1.2.3-.4.4-.8.3-1 0-.3-.2-.3-.2-.4z" fill="#b0b0b0"/><path d="m42 22.9c-.5 0-1-.1-1.2-.4l-8-12.1c-.2-.3-.4-.8.2-1.1l13.7-3.5c.7-.1 1 .1 1.4.6l10.8 16.8c.4.5.4 1.1 0 1.3z" fill="url(#n)"/><path d="m48.9 5.6 10.8 16.8c.3.4.3.9.1 1.1l-.8.8c.2-.3.2-.7-.1-1.1l-10.8-16.8c-.4-.5-.7-.7-1.4-.6l-13.6 3.5c-.1 0-.2.1-.2.2l.9-.9s.1-.1.2-.1l13.6-3.5c.7-.1 1 .1 1.3.6z" fill="url(#p)"/><path d="m35.3 15.3 2.2 3.2 1.7-.2-2.2-3.3z" fill="url(#q)"/><path d="m32.9 10.4c-.1-.1-.1-.2-.1-.3 0 0 0-.1 0-.2s0-.1 0-.2 0-.1 0-.1 0-.1.1-.1l.1-.1.1-.1 3.4-.8 3.4-.9 6.8-1.8c.2 0 .5 0 .7.1.3.1.4.2.6.4.3.4.5.8.8 1.2l1.6 2.4 3.1 4.8 3.1 4.8c.5.8 1 1.6 1.6 2.4l.8 1.2c.1.2.3.4.3.6s0 .5-.3.6c.2-.1.3-.4.3-.6s-.1-.5-.3-.7l-.9-1c-.5-.8-1-1.6-1.5-2.4l-3.1-4.8-3.1-4.8-1.6-2.4c-.3-.4-.5-.8-.8-1.2-.2-.2-.3-.4-.6-.5-.2-.1-.5-.1-.7-.1l-6.8 1.8-3.4.9-3.4.9-.1.1-.1.1-.1.1v.2.2.2c0-.1 0 0 .1.1z" fill="#b0b0b0"/><path d="m22.9 42c0-.5-.1-1-.4-1.2l-12.1-8c-.3-.2-.8-.4-1.1.2l-3.5 13.8c-.1.7.1 1 .6 1.4l16.8 10.8c.5.4 1.1.4 1.3 0z" fill="url(#r)"/><path d="m5.6 48.9 16.8 10.8c.4.3.9.3 1.1.1l.8-.8c-.3.2-.7.2-1.1-.1l-16.8-10.8c-.5-.4-.7-.7-.6-1.4l3.5-13.7c0-.1.1-.1.2-.2l-.9.9s-.1.1-.1.2l-3.5 13.7c-.1.7.1 1 .6 1.3z" fill="url(#s)"/><path d="m15.3 35.3 3.2 2.2-.2 1.7-3.3-2.2z" fill="url(#t)"/><path d="m10.4 32.9c-.1-.1-.2-.1-.3-.1s-.1 0-.2 0-.1 0-.2 0-.1 0-.1 0-.1 0-.1.1l-.1.1-.1.1-.8 3.4-.9 3.4-1.8 6.8c0 .2 0 .5.1.7.1.3.2.4.4.6.4.3.8.5 1.2.8l2.4 1.6 4.8 3.1 4.8 3.1c.8.5 1.6 1 2.4 1.6l1.2.8c.2.1.4.3.6.3s.5 0 .6-.3c-.1.2-.4.3-.6.3s-.5-.1-.7-.3l-1-.9c-.8-.5-1.6-1-2.4-1.5l-4.8-3.1-4.8-3.1-2.4-1.6c-.4-.3-.8-.5-1.2-.8-.2-.2-.4-.3-.5-.6-.1-.2-.1-.5-.1-.7l1.8-6.8.9-3.4.9-3.4.1-.1.1-.1.1-.1h.2.2.2c-.1 0 0 0 .1.1z" fill="#b0b0b0"/><path d="m24.2 9.2c-.1 1.3-1 2.3-1.3 2.6l-11.2 11.2c-.3.3-1.1 1.1-2.4 1.2l-8.1.7c-.4-.3-.3-.9.2-1.4l21.9-22.1c.5-.5 1.2-.6 1.5-.2z" fill="url(#u)"/><path d="m23.3 1.4-21.9 21.9c-.3.3-.6.9-.3 1.3l-.8-.8c-.4-.4-.3-.9.2-1.4l21.9-22c.5-.5 1-.6 1.5-.2l.8.8c-.4 0-1 .1-1.4.4z" fill="url(#v)"/><path d="m16.5 19.5 3-3-1.3-1.3-3 3z" fill="url(#w)"/><path d="m1.2 24.8s-.1-.1-.2-.3 0-.6.3-1c.3-.3.7-.7 1.2-1.2s1-1 1.6-1.5l8.3-8.3s6.1-6.1 8.3-8.3c.6-.6 1.1-1.1 1.5-1.6.5-.5.8-.9 1.2-1.2.3-.3.8-.4 1-.3s.3.2.3.2-.1-.1-.3-.2-.7 0-1 .3c-.4.3-.8.7-1.2 1.2-.5.5-1 1-1.6 1.5-2.3 2.3-5.3 5.3-8.3 8.3s-6.1 6.1-8.3 8.3c-.6.6-1.1 1.1-1.5 1.6-.5.5-.9.9-1.2 1.2-.3.4-.4.8-.3 1s.2.3.2.3z" fill="#b0b0b0"/></svg>