<svg enable-background="new 0 0 60 100" height="100" viewBox="0 0 60 100" width="60" xmlns="http://www.w3.org/2000/svg" xmlns:xlink="http://www.w3.org/1999/xlink"><linearGradient id="a" gradientTransform="matrix(-.7071 .7071 -.7071 -.7071 351.7233 -79.2889)" gradientUnits="userSpaceOnUse" x1="293.5315" x2="293.5315" y1="158.9128" y2="177.8634"><stop offset="0"/><stop offset=".7527" stop-color="#171717"/><stop offset=".8095" stop-color="#1a1a1a"/><stop offset=".8574" stop-color="#252525"/><stop offset=".9021" stop-color="#363636"/><stop offset=".9448" stop-color="#4f4f4f"/><stop offset=".9858" stop-color="#6e6e6e"/><stop offset="1" stop-color="#7b7b7b"/></linearGradient><linearGradient id="b"><stop offset="0" stop-color="#7b7b7b"/><stop offset=".02374425" stop-color="#6e6e6e"/><stop offset=".09235862" stop-color="#4f4f4f"/><stop offset=".1639" stop-color="#363636"/><stop offset=".2387" stop-color="#252525"/><stop offset=".3189" stop-color="#1a1a1a"/><stop offset=".414" stop-color="#171717"/><stop offset="1"/></linearGradient><linearGradient id="c" gradientTransform="matrix(.7071 -.7071 .7071 .7071 257.9392 -466.5034)" gradientUnits="userSpaceOnUse" x1="-501.06" x2="-501.06" xlink:href="#b" y1="188.3701" y2="198.2222"/><linearGradient id="d" gradientTransform="matrix(.7071 -.7071 .7071 .7071 257.9392 -466.5034)" gradientUnits="userSpaceOnUse" x1="-492.7658" x2="-483.1653" xlink:href="#b" y1="185.6512" y2="187.1718"/><linearGradient id="e" gradientTransform="matrix(-.7071 .7071 .7071 .7071 -483.4927 274.9285)" gradientUnits="userSpaceOnUse" x1="-539.2638" x2="-529.6625" xlink:href="#b" y1="185.6536" y2="187.1743"/><linearGradient id="f" gradientTransform="matrix(-.7071 .7071 -.7071 -.7071 -372.95 247.9062)" gradientUnits="userSpaceOnUse" x1="-450.2635" x2="-450.2635" xlink:href="#b" y1="-114.8816" y2="-110.4986"/><path d="m34.9 7.6v18c0 .4-.3.7-.7.7h-5.1-.6-7.3c-.4 0-.7-.3-.7-.7v-18h-.4-.4-1.4-.3-.3v18.7c0 .4.3.7.7.7h2.1 8.1.5 5.8c.4 0 .7-.3.7-.7v-18.7z" fill="#231f20"/><path d="m48.1 92.9c-.3-.4-.5-.6-.9-.4l.1-.1c.6-.4.3-.9-.1-1.5-.3-.4-.6-.7-.9-.8l-13.8-20.3-3.5-12.9s-.1-.1-.2-.1v-22.8h-2.1v22.9c-.1 0-.2.1-.2.1l-3.7 13.3-13.7 19.7c-.3 0-.7.3-.9.8-.4.6-.6 1.2-.1 1.5-.4-.2-.7.1-.9.5-.3.4-.5.9-.1 1.2l.7.5c.4.3.7 0 1.1-.5.3-.4.4-.8.1-1.1.6.4 1 0 1.4-.6.3-.4.4-.7.4-1.1l14.7-21.2c.3-.1.6-.4.9-.7.1-.1.2-.3.3-.4h.2v.2c.1.5.2.8.4 1l2.8 25.7c-.2.3-.2.7-.2 1.1.1.7.3 1.3.9 1.2h.1c-.4.1-.4.5-.4 1 .1.5.2.9.7.9l.8-.1c.5-.1.5-.5.5-1-.1-.5-.2-.9-.6-.9.7-.1.7-.7.7-1.4-.1-.5-.2-.9-.5-1.1l-2.8-25.5c.1-.1.1-.2.2-.3.2.2.3.3.5.3l14.6 21.3c0 .3.1.7.4 1.1.4.6.8 1 1.4.6l.1-.1c-.3.2-.2.6.1 1s.5.7.9.4l.6-.4c.4-.3.2-.6 0-1zm-16.8-25.4c-.4-.5-.8-.7-1.2-.4l-.3.2v-1.3c0-.2-.4-.3-1-.4v-7.3zm-4.6-9.2v7.3c-.6.1-1 .3-1 .4v1.2l-.2-.1c-.6-.4-1 0-1.4.6 0 .1-.1.1-.1.2z" fill="#ff5a00"/><path d="m32.9 26.6c-.1.3-.4.5-.7.5h-1.3c0-.3 0-.5 0-.8h.6c.4 0 .7-.3.7-.7v-18h.4.4 1.8v18.9h-1.9z" fill="#231f20"/><path d="m31.8 26.3h-13c2.1 0 1.8-.3 1.8-.7v-18h14.3v18c0 .4-.3.7-3.1.7z" fill="none"/><path d="m31.1 16.4-6.6 5.3c-5.1-6.1-7.8-11.4-7.9-11.6-1.3-2.2-.6-5.2 1.8-7.6s5.4-3.1 7.6-1.8 5.4 2.7 11.6 7.9l-5.3 6.6.1.1-.7.5-.5.7z" fill="url(#a)"/><path d="m24.9 22.1c2.2 2.2 7.6 3.3 12.1-1.1 4.3-4.3 3.4-9.8 1.1-12.1-2.8-2.8-7.7-1.8-11.3 1.9-3.7 3.6-4.7 8.5-1.9 11.3z" fill="#333"/><path d="m25.9 21.2c1.9 1.9 6.5 2.8 10.2-1 3.7-3.7 2.9-8.3 1-10.2-2.3-2.3-6.5-1.5-9.6 1.6s-3.9 7.2-1.6 9.6z" fill="#aaa"/><path d="m34.3 18.3c2.4-2.4 3-6.1 1.2-8.3-.2-.2-.4-.5-.7-.6.8.2 1.5.7 2.1 1.4 1.9 2.4 1.4 6.4-1.2 9s-6.6 3.1-9 1.2c-.7-.5-1.2-1.3-1.4-2.1.2.2.4.5.6.7 2.2 1.7 5.9 1.1 8.4-1.3z"/><path d="m27.9 12c2.2-2.2 4.9-3.1 6.9-2.6.2.2.5.4.7.6 1.8 2.2 1.2 5.9-1.2 8.3s-6.1 3-8.3 1.2c-.2-.2-.5-.4-.6-.7-.6-1.9.3-4.6 2.5-6.8z" fill="#daf0fc"/><path d="m35.1 11.8c-1.4-1.4-4.2-.9-6.2 1.1s-2.5 4.8-1.1 6.2 4.2.9 6.2-1.1 2.5-4.8 1.1-6.2z" fill="#fff"/><path d="m33.2 25.4c-.2-.5 0-.8.2-.9l6.9-6.9c.2-.2.5-.2.8-.1l9.6 2.8c.2.2.2.6-.1.9l-13.6 13.5c-.3.3-.7.4-.9.1z" fill="url(#c)"/><path d="m37 34.7 13.6-13.6c.2-.2.4-.5.2-.8l.5.5c.2.2.2.6-.1.9l-13.6 13.6c-.3.3-.6.4-.9.1l-.5-.5c.2.1.6 0 .8-.2z" fill="#231f20"/><path d="m35.5 20.4h2.6v1.1h-2.6z" fill="#232323" transform="matrix(.7073 -.707 .707 .7073 -4.0667 32.1667)"/><path d="m50.8 20.2s.1 0 .1.2c0 .1 0 .4-.2.6s-.5.5-.7.7c-.3.3-.6.6-1 1-1.4 1.4-3.3 3.3-5.2 5.2s-3.8 3.8-5.2 5.2c-.4.4-.7.7-1 1s-.5.6-.7.7c-.2.2-.4.2-.6.2-.1 0-.2-.1-.2-.1s0 .1.2.1c.1 0 .4 0 .6-.2s.5-.4.8-.7.6-.6 1-1c1.4-1.4 3.3-3.3 5.2-5.2s3.8-3.8 5.2-5.2c.4-.4.7-.7 1-1s.5-.5.7-.8c.2-.2.2-.5.2-.6-.2 0-.3-.1-.2-.1z" fill="#b0b0b0"/><path d="m42 14.3c-.3 0-.6-.1-.7-.3l-4.9-7.5c-.1-.2-.2-.5.1-.7l8.5-2.2c.4 0 .6.1.8.4l6.7 10.4c.2.3.2.7 0 .8z" fill="url(#d)"/><path d="m46.3 3.5 6.7 10.4c.2.3.2.5.1.7l-.5.5c.1-.2.1-.4-.1-.7l-6.7-10.4c-.2-.3-.4-.4-.8-.4l-8.5 2.2c-.1 0-.1.1-.1.1l.5-.5s.1 0 .1-.1l8.5-2.2c.4 0 .6.1.8.4z" fill="#231f20"/><path d="m37.8 9.5 1.4 2 1.1-.1-1.4-2.1z" fill="#232323"/><path d="m36.3 6.5c0-.1-.1-.1-.1-.2v-.1-.1-.1-.1s0-.1.1-.1l.1-.1 2.1-.5 2.1-.5 4.2-1.1h.4c.1 0 .2.1.3.3.2.2.3.5.5.7l1 1.5 1.9 3 1.9 3c.3.5.6 1 1 1.5l.5.7c.1.1.2.3.2.4s0 .3-.2.4c.1-.1.2-.2.2-.4 0-.1-.1-.3-.2-.4l-.3-.6c-.3-.5-.6-1-.9-1.5l-1.9-3-1.9-3-1-1.5c-.2-.2-.3-.5-.5-.7-.1-.1-.2-.2-.4-.3-.1-.1-.3-.1-.5 0l-4.2 1.1-2.1.5-2.1.6-.1.1s0 0-.1.1v.1.1.1.1c0-.1 0-.1 0 0z" fill="#b0b0b0"/><path d="m30.2 26.1c0-.3-.1-.6-.3-.7l-7.5-4.9c-.2-.1-.5-.2-.7.1l-2.2 8.5c0 .4.1.6.4.8l10.4 6.7c.3.2.7.2.8 0z" fill="url(#e)"/><path d="m19.4 30.4 10.4 6.7c.3.2.5.2.7.1l.5-.5c-.2.1-.4.1-.7-.1l-10.4-6.7c-.3-.2-.4-.4-.4-.8l2.2-8.5c0-.1.1-.1.1-.1l-.5.5s0 .1-.1.1l-2.2 8.5c0 .4.1.6.4.8z" fill="#231f20"/><path d="m25.4 21.9 2 1.4-.1 1.1-2.1-1.4z" fill="#232323"/><path d="m22.4 20.4c-.1 0-.1-.1-.2-.1h-.1-.1-.1s-.1 0-.1.1c0 0-.1 0-.1.1l-.1.1-.5 2.1-.5 2.1-1.1 4.2v.4s.1.2.3.3c.2.2.5.3.7.5l1.5 1 3 1.9 3 1.9c.5.3 1 .6 1.5 1l.7.5c.1.1.3.2.4.2s.3 0 .4-.2c-.1.1-.2.2-.4.2-.1 0-.3-.1-.4-.2l-.8-.5c-.5-.3-1-.6-1.5-.9l-3-1.9-3-1.9-1.5-1c-.2-.2-.5-.3-.7-.5-.1-.1-.2-.2-.3-.4-.1-.1-.1-.3 0-.5l1.1-4.2.5-2.1.6-2.1.1-.1s0 0 .1-.1c0 0 .1 0 .1-.1h.1.1.1c0 .2.1.2.2.2z" fill="#b0b0b0"/><path d="m30.9 5.7c0 .8-.6 1.4-.8 1.6l-6.9 6.9c-.2.2-.7.7-1.5.7l-5.1.4c-.2-.2-.2-.6.1-.9l13.7-13.5c.3-.3.7-.4.9-.1z" fill="url(#f)"/><path d="m30.4.9-13.6 13.6c-.2.2-.4.5-.2.8l-.6-.5c-.2-.2-.2-.6.1-.9l13.7-13.6c.3-.3.6-.4.9-.1l.5.5c-.2-.1-.6 0-.8.2z" fill="#231f20"/><path d="m25.3 10.2h2.6v1.1h-2.6z" fill="#232323" transform="matrix(.7071 -.7071 .7071 .7071 .1565 21.9739)"/><path d="m16.6 15.4s-.1 0-.1-.2c0-.1 0-.4.2-.6l.7-.7c.3-.3.6-.6 1-1 1.4-1.4 3.3-3.3 5.2-5.2s3.8-3.8 5.2-5.2c.4-.4.7-.7 1-1 .2-.2.4-.5.6-.7s.5-.2.6-.2.2.1.2.1 0-.1-.2-.1c-.1 0-.4 0-.6.2s-.4.4-.7.7-.6.6-1 1c-1.4 1.4-3.3 3.3-5.2 5.2s-3.8 3.8-5.2 5.2c-.4.4-.7.7-1 1s-.5.5-.7.8c-.2.2-.2.5-.2.6.1 0 .2.1.2.1z" fill="#b0b0b0"/></svg>