<svg enable-background="new 0 0 60 60" height="60" viewBox="0 0 60 60" width="60" xmlns="http://www.w3.org/2000/svg" xmlns:xlink="http://www.w3.org/1999/xlink"><linearGradient id="a" gradientTransform="matrix(1 0 0 -1 233.4141 -38.5481)" gradientUnits="userSpaceOnUse" x1="-217.7269" x2="-189.2677" y1="-63.3481" y2="-63.3481"><stop offset="0"/><stop offset=".414" stop-color="#171717"/><stop offset=".5486" stop-color="#1a1a1a"/><stop offset=".6621" stop-color="#252525"/><stop offset=".768" stop-color="#363636"/><stop offset=".8693" stop-color="#4f4f4f"/><stop offset=".9664" stop-color="#6e6e6e"/><stop offset="1" stop-color="#7b7b7b"/></linearGradient><linearGradient id="b" gradientTransform="matrix(1 0 0 -1 233.4141 -38.5481)" gradientUnits="userSpaceOnUse" x1="-217.7169" x2="-189.2385" y1="-79.6981" y2="-79.6981"><stop offset="0"/><stop offset=".2089" stop-color="#040404"/><stop offset=".4154" stop-color="#101010"/><stop offset=".5" stop-color="#171717"/><stop offset=".502" stop-color="#171717"/><stop offset=".543" stop-color="#171717"/><stop offset=".6291" stop-color="#0f0f0f"/><stop offset=".8058" stop-color="#040404"/><stop offset="1"/></linearGradient><linearGradient id="c"><stop offset="0" stop-color="#363636"/><stop offset=".02199881" stop-color="#3c3c3c"/><stop offset=".05007927" stop-color="#4b4b4b"/><stop offset=".08146875" stop-color="#666"/><stop offset=".1153" stop-color="#8a8a8a"/><stop offset=".1506" stop-color="#b8b8b8"/><stop offset=".1613" stop-color="#c8c8c8"/><stop offset=".2366" stop-color="#c8c8c8"/><stop offset=".2416" stop-color="#bcbcbc"/><stop offset=".2599" stop-color="#939393"/><stop offset=".2787" stop-color="#717171"/><stop offset=".2978" stop-color="#575757"/><stop offset=".3175" stop-color="#454545"/><stop offset=".3379" stop-color="#3a3a3a"/><stop offset=".3602" stop-color="#363636"/><stop offset=".3644" stop-color="#363636"/><stop offset=".4516" stop-color="#363636"/><stop offset=".4815" stop-color="#393939"/><stop offset=".5019" stop-color="#424242"/><stop offset=".5195" stop-color="#515151"/><stop offset=".5355" stop-color="#676767"/><stop offset=".5504" stop-color="#838383"/><stop offset=".5645" stop-color="#a5a5a5"/><stop offset=".5779" stop-color="#cecece"/><stop offset=".5906" stop-color="#fcfcfc"/><stop offset=".5914" stop-color="#fff"/><stop offset=".6505" stop-color="#fff"/><stop offset=".7957" stop-color="#dbdada"/><stop offset="1" stop-color="#101010"/></linearGradient><linearGradient id="d" gradientTransform="matrix(1 0 0 -1 233.4141 -38.5481)" gradientUnits="userSpaceOnUse" x1="-189.2141" x2="-189.2141" xlink:href="#c" y1="-72.5981" y2="-72.5981"/><linearGradient id="e" gradientTransform="matrix(1 0 0 -1 233.4141 -38.5481)" gradientUnits="userSpaceOnUse" x1="-217.7536" x2="-189.0978" xlink:href="#c" y1="-72.6606" y2="-72.6606"/><linearGradient id="f" gradientTransform="matrix(1 0 0 -1 233.4141 -38.5481)" gradientUnits="userSpaceOnUse" x1="-217.7534" x2="-189.209" xlink:href="#c" y1="-72.8481" y2="-72.8481"/><linearGradient id="g"><stop offset="0" stop-color="#7b7b7b"/><stop offset=".02374425" stop-color="#6e6e6e"/><stop offset=".09235862" stop-color="#4f4f4f"/><stop offset=".1639" stop-color="#363636"/><stop offset=".2387" stop-color="#252525"/><stop offset=".3189" stop-color="#1a1a1a"/><stop offset=".414" stop-color="#171717"/><stop offset="1"/></linearGradient><linearGradient id="h" gradientTransform="matrix(1 0 0 -1 233.4141 -38.5481)" gradientUnits="userSpaceOnUse" x1="-203.4641" x2="-203.4641" xlink:href="#g" y1="-53.2481" y2="-39.7011"/><linearGradient id="i" gradientTransform="matrix(1 0 0 -1 233.4141 -38.5481)" gradientUnits="userSpaceOnUse" x1="-190.9778" x2="-177.7341" xlink:href="#g" y1="-58.9565" y2="-56.8589"/><linearGradient id="j" gradientTransform="matrix(-1 0 0 -1 -3425.2178 -38.548)" gradientUnits="userSpaceOnUse" x1="-3442.7742" x2="-3429.5295" xlink:href="#g" y1="-59.0115" y2="-56.9138"/><linearGradient id="k"><stop offset="0" stop-color="#818282"/><stop offset=".1093" stop-color="#5a5b5a"/><stop offset=".2396" stop-color="#313130"/><stop offset=".3065" stop-color="#212120"/><stop offset=".7903"/><stop offset="1"/></linearGradient><linearGradient id="l" gradientTransform="matrix(1 0 0 -1 233.4141 -38.5481)" gradientUnits="userSpaceOnUse" x1="-213.4874" x2="-209.752" xlink:href="#k" y1="-80.6154" y2="-78.5561"/><linearGradient id="m" gradientTransform="matrix(-1 0 0 -1 -3303.7412 -38.5481)" gradientUnits="userSpaceOnUse" x1="-3343.7407" x2="-3340.0078" xlink:href="#k" y1="-80.63" y2="-78.572"/><linearGradient id="n" gradientTransform="matrix(1 0 0 -1 233.4141 -38.5481)" gradientUnits="userSpaceOnUse" x1="-203.4641" x2="-203.4641" y1="-80.9481" y2="-73.6127"><stop offset="0"/><stop offset=".586" stop-color="#171717"/><stop offset=".6811" stop-color="#1a1a1a"/><stop offset=".7613" stop-color="#252525"/><stop offset=".8361" stop-color="#363636"/><stop offset=".9076" stop-color="#4f4f4f"/><stop offset=".9763" stop-color="#6e6e6e"/><stop offset="1" stop-color="#7b7b7b"/></linearGradient><path d="m38.9 57c.5 0 .8-.4.8-.8v-18.2h-.4-.5-1.9v18.1h-9.4c0 .3-.1.6-.1.9z" fill="#00572c"/><path d="m22.3 56.4c.1.3.4.6.8.6h1.5c0-.3 0-.6 0-.9h-.7c-.4 0-.8-.3-.8-.8v-17.3h-.4-.4-2v18.4z" fill="#00572c"/><path d="m21.5 56.2h16.9c.4 0 .8-.3.8-.8v-17.4h-18.4v17.4c0 .4.3.8.7.8z" fill="none"/><path d="m19.9 56.2c0 .5.4.8.8.8h18.5c.5 0 .8-.4.8-.8v-18.2h-.9v17.4c0 .4-.3.8-.8.8h-16.8c-.4 0-.8-.3-.8-.8v-17.4h-.9z" fill="#00572c"/><path d="m44.2 33.8c.1.4-.4.8-1 .8h-26.5c-.6 0-1.1-.3-1-.8l2.8-18c.1-.4.5-.8 1-.8h21c.5 0 .9.3 1 .8z" fill="url(#a)"/><path d="m43.3 34.8c-.2 0-.4 0-.7 0-.2 0-.5 0-.8 0-.6 0-1.2 0-1.9 0-2.7 0-6.4 0-10.1 0s-7.3 0-10.1 0c-.7 0-1.3 0-1.9 0-.3 0-.5 0-.8 0-.2 0-.4 0-.7 0-.5 0-.8-.2-.8-.5 0 .5.1 1 .2 1.6.3 1 6.2 11.2 6.2 11.2s.4.9 1.4.9h5.4 2.3 5.4c1 0 1.4-.9 1.4-.9s5.9-10.2 6.2-11.2c.2-.6.2-1.1.2-1.6-.1.2-.5.5-.9.5z" fill="url(#b)"/><path d="m44.2 34.2c0-.2 0-.3 0-.3 0-.1 0 0 0 0z" fill="url(#d)"/><path d="m15.7 33.9c0-.1 0-.1 0 0 0 0-.1.1-.1.2v.3c.1-.2.1-.4.1-.5z" fill="url(#e)"/><path d="m16.5 34.8h.7.8 1.9 10.1s7.3 0 10.1 0h1.9.8s.4 0 .7 0c.4 0 .7-.3.8-.5 0-.2 0-.3 0-.5v.1s-.1.1-.1.2c-.1.1-.1.1-.3.2-.1 0-.3.1-.4.1h-.1c-.1 0-.1 0-.2 0s-.2 0-.3 0c-.2 0-.5 0-.8 0-.6 0-1.2 0-1.9 0-2.7 0-6.4 0-10.1 0s-7.3 0-10.1 0c-.7 0-1.3 0-1.9 0-.5 0-1.1 0-1.4 0-.1 0-.1 0-.1 0h-.1c-.1 0-.1 0-.2-.1-.1 0-.2-.1-.3-.1-.1-.1-.1-.2-.2-.2v.5c0 .1.3.3.7.3z" fill="url(#f)"/><path d="m30 19.7c4.7 0 8.8 3.1 9.2 6.9v1.3c.6-1 .8-2.2.7-3.4-.5-4.2-4.9-7.5-9.9-7.5s-9.4 3.4-10 7.5c-.1 1.2.1 2.3.7 3.4-.1-.4-.1-.8 0-1.3.4-3.8 4.6-6.9 9.3-6.9z"/><path d="m29.9 32c4.2 0 7.8-1.7 9.3-4.2.1-.4.1-.8 0-1.3-.4-3.8-4.5-6.9-9.2-6.9s-8.9 3.1-9.3 6.9v1.3c1.5 2.5 5 4.2 9.2 4.2z" fill="#daf0fc"/><path d="m18.4 13.9c.1.4.5.8 1 .8h21c.5 0 .9-.3 1-.8l2.8-12c.1-.4-.4-.8-1-.8h-26.5c-.6 0-1.1.3-1 .8z" fill="url(#h)"/><path d="m16.7 1.1h26.5c.4 0 .9.2 1 .6v-1c0-.5-.4-.8-1-.8h-26.5c-.6 0-1 .3-1 .8v1c.2-.2.6-.6 1-.6z" fill="#231f20"/><path d="m19.8 14h3.1v1.9h-3.1z" fill="#232323"/><path d="m37.2 14h3.1v1.9h-3.1z" fill="#232323"/><path d="m42.3 14.6c-.3.3-.6.6-.5 1.1l2.6 17.6c.1.4.3 1 .8.7l10.4-10.5c.5-.4.5-.7.4-1.2l-3.7-16.6c-.1-.5-.4-.9-.8-.8z" fill="url(#i)"/><path d="m56.9 22.4-3.6-16.7c-.1-.4-.3-.7-.6-.7h-1c.3 0 .5.3.6.8l3.6 16.6c.1.5 0 .8-.4 1.2l-10.4 10.4c-.1 0-.1 0-.2 0h1 .2l10.4-10.5c.5-.3.5-.6.4-1.1z" fill="#231f20"/><path d="m41.1 15.9h1.6v2.7h-1.6z" fill="#232323" transform="matrix(.9895 -.1448 .1448 .9895 -2.0557 6.2491)"/><path d="m43.2 30.6h1.6v2.7h-1.6z" fill="#232323" transform="matrix(.9896 -.144 .144 .9896 -4.1427 6.6694)"/><path d="m17.7 14.6c.3.3.6.6.5 1.1l-2.6 17.6c-.1.4-.3 1-.8.7l-10.3-10.4c-.5-.4-.5-.7-.4-1.2l3.6-16.7c.1-.5.4-.8.7-.7z" fill="url(#j)"/><path d="m3.1 22.4 3.6-16.7c.1-.4.3-.7.6-.7h1c-.3 0-.5.3-.6.7l-3.6 16.7c-.1.5 0 .8.4 1.2l10.4 10.4h.2-1c-.1 0-.1 0-.2 0l-10.4-10.4c-.5-.4-.5-.7-.4-1.2z" fill="#231f20"/><path d="m16.7 16.4h2.7v1.6h-2.7z" fill="#232323" transform="matrix(.1448 -.9895 .9895 .1448 -1.5568 32.6133)"/><path d="m14.6 31.2h2.7v1.6h-2.7z" fill="#232323" transform="matrix(.1448 -.9895 .9895 .1448 -17.9856 43.0966)"/><path d="m37.2 25.2c0 2.7-3.2 4.9-7.2 4.9s-7.2-2.2-7.2-4.9 3.2-4.9 7.2-4.9 7.2 2.2 7.2 4.9z" fill="#fff"/><path d="m18.3 35.3h-.4c-.1 0-.3 0-.4 0s-.1 0-.2 0c-.2 0-.3 0-.5 0-.1 0-.2 0-.3-.1 0 .2.1.4.2.6.2.7 3.7 6.8 6 10.8s.3.6 1 .6h2.8l-6.5-11.9z" fill="url(#l)"/><path d="m41.6 35.3h.4.4.2.5c.1 0 .2 0 .3-.1 0 .2-.1.4-.2.6-.2.7-3.7 6.8-6 10.8s-.3.6-1 .6h-2.8l6.5-12.1z" fill="url(#m)"/><path d="m41.5 35.3c-.1-.2-.5-.3-1-.3h-21c-.5 0-.9.1-1 .3l-2.8 6.8c-.1.2.4.3 1 .3h26.5c.6 0 1.1-.1 1-.3z" fill="url(#n)"/><path d="m43.2 42.4h-26.5c-.2 0-.8 0-1-.2v1.1c0 .2.4.3 1 .3h26.5c.6 0 1-.1 1-.3v-1.1c-.1.1-.8.2-1 .2z" fill="#231f20"/><path d="m37 33.9h3.1v1.9h-3.1z" fill="#232323"/><path d="m19.6 33.9h3.1v1.9h-3.1z" fill="#232323"/><path d="m44.2 1.9s0-.1-.1-.3-.4-.4-.8-.4-.9 0-1.4 0c-.6 0-1.2 0-1.9 0-2.7 0-6.4 0-10.1 0s-7.3 0-10.1 0c-.7 0-1.3 0-1.9 0s-1 0-1.4 0-.7.2-.8.4-.1.3-.1.3 0-.1.1-.3.4-.4.8-.4.9 0 1.4 0h1.9 10.1s7.3 0 10.1 0h1.9 1.4s.7.2.8.4 0 .3.1.3z" fill="#b0b0b0"/><path d="m45.1 34 2.6-2.6c.9-.9 1.7-1.7 2.6-2.6l5.2-5.2c.1-.1.2-.1.2-.2.1-.1.1-.2.2-.3 0-.1.1-.2.1-.3s0-.2 0-.3l-2-9-1-4.5-.5-2.2-.2-1.1c0-.2-.1-.4-.2-.5-.2-.2-.4-.3-.5-.2.2-.1.4 0 .5.2.1.1.2.3.2.5l.3 1.1.5 2.2 1 4.5 1.9 8.9v.3c0 .1 0 .2-.1.3 0 .1-.1.2-.2.3s-.2.2-.2.2l-5.2 5.2c-.9.9-1.7 1.7-2.6 2.6z" fill="#231f20"/><path d="m14.9 34-2.6-2.6c-.9-.9-1.7-1.7-2.6-2.6l-5.2-5.2c-.2-.1-.3-.3-.4-.5s-.1-.4-.1-.6c.1-.4.2-.8.2-1.2l.5-2.4 1-4.8 1-4.8c.3-.8.5-1.6.7-2.4l.3-1.2c0-.2.1-.4.2-.6.1-.1.3-.2.5-.1-.2-.1-.4 0-.5.2-.1.1-.2.3-.2.5l-.3 1.2c-.1.8-.3 1.6-.5 2.4l-1 4.8-1 4.8-.5 2.4c-.1.4-.2.8-.2 1.2 0 .2 0 .4.1.6s.2.3.4.5l5.2 5.2 2.6 2.6z" fill="#b0b0b0"/><path d="m15.7 42.1c0 .1.1.2.2.2.2.1.5.1.9.1h3.2 9.9s7.2 0 9.9 0h3.2c.4 0 .7 0 .9-.1.1 0 .2-.1.2-.1v-.1.1s-.1.1-.2.1c-.2.1-.5.1-.9.1-.8 0-1.9 0-3.2 0-2.7 0-6.3 0-9.9 0s-7.2 0-9.9 0c-1.3 0-2.5 0-3.2 0-.4 0-.7 0-.9-.1-.1 0-.2-.1-.2-.2z" fill="#b0b0b0"/><path d="m30.9 59.7c-.6.4-1.4.4-2 0 0-.9 0-13.2 0-14.1h2z" fill="#00572c"/></svg>