<svg enable-background="new 0 0 60 60" height="60" viewBox="0 0 60 60" width="60" xmlns="http://www.w3.org/2000/svg"><path d="m59.6 10.1-49.5 49.5c-.5.5-1.4.5-2 0l-7.7-7.7c-.5-.5-.5-1.4 0-2l49.5-49.5c.5-.5 1.4-.5 2 0l7.7 7.7c.5.6.5 1.5 0 2z" fill="#333"/><g fill="#fff"><path d="m6.8 52.5-.8.8 5 5h.2l.7-.7s0-.1 0-.2z"/><path d="m7.7 51.6-.8.8 5 5h.2l.7-.7s0-.1 0-.2z"/><path d="m8.6 50.7-.8.8 5 5h.2l.7-.7s0-.1 0-.2z"/><path d="m9.5 49.8-.8.8 5 5h.2l.7-.7s0-.1 0-.2z"/><path d="m10.4 48.9-.8.8 5 5h.2l.7-.7s0-.1 0-.2z"/><path d="m11.3 47.9-.8.8 5 5h.2l.7-.7s0-.1 0-.2z"/><path d="m12.3 47-.8.8 5 5h.2l.7-.7s0-.1 0-.2z"/><path d="m13.2 46.1-.9.9 5 5h.2l.7-.7s0-.1 0-.2z"/><path d="m14.1 45.2-.9.8 5 5h.2l.7-.7s0-.1 0-.2z"/><path d="m15 44.3-.8.8 5 5h.2l.7-.7s0-.1 0-.2z"/><path d="m15.9 43.4-.8.8 5 5h.2l.7-.7s0-.1 0-.2z"/><path d="m16.8 42.5-.8.8 5 5h.2l.7-.7s0-.1 0-.2z"/><path d="m17.7 41.5-.8.8 5 5h.2l.7-.7s0-.1 0-.2z"/><path d="m18.7 40.6-.8.8 5 5h.2l.7-.7s0-.1 0-.2z"/><path d="m19.6 39.7-.8.8 5 5h.2l.7-.7s0-.1 0-.2z"/><path d="m20.5 38.8-.8.8 5 5h.2l.7-.7s0-.1 0-.2z"/><path d="m21.4 37.9-.8.8 5 5h.2l.7-.7s0-.1 0-.2z"/><path d="m22.3 37-.8.8 5 5h.2l.7-.7s0-.1 0-.2z"/><path d="m23.2 36.1-.8.8 5 5h.2l.7-.7s0-.1 0-.2z"/><path d="m24.1 35.2-.8.8 5 5h.2l.7-.7s0-.1 0-.2z"/><path d="m25 34.2-.8.8 5 5h.2l.7-.7s0-.1 0-.2z"/><path d="m26 33.3-.8.8 5 5h.2l.7-.7s0-.1 0-.2z"/><path d="m26.9 32.4-.9.9 5 5h.2l.7-.7s0-.1 0-.2z"/><path d="m27.8 31.5-.8.8 5 5h.2l.7-.7s0-.1 0-.2z"/><path d="m28.7 30.6-.8.8 5 5h.2l.7-.7s0-.1 0-.2z"/><path d="m29.6 29.7-.8.8 5 5h.2l.7-.7s0-.1 0-.2z"/><path d="m30.5 28.8-.8.8 5 5h.2l.7-.7s0-.1 0-.2z"/><path d="m31.4 27.9-.8.8 5 5h.2l.7-.7s0-.1 0-.2z"/><path d="m32.4 26.9-.8.8 5 5h.2l.7-.7s0-.1 0-.2z"/><path d="m33.3 26-.8.8 5 5h.2l.7-.7s0-.1 0-.2z"/><path d="m34.2 25.1-.9.9 5 5h.2l.7-.7s0-.1 0-.2z"/><path d="m35.1 24.2-.9.8 5 5h.2l.7-.7s0-.1 0-.2z"/><path d="m36 23.3-.8.8 5 5h.2l.7-.7s0-.1 0-.2z"/><path d="m36.9 22.4-.8.8 5 5h.2l.7-.7s0-.1 0-.2z"/><path d="m37.8 21.5-.8.8 5 5h.2l.7-.7s0-.1 0-.2z"/><path d="m38.7 20.5-.8.8 5 5h.2l.7-.7s0-.1 0-.2z"/><path d="m39.7 19.6-.8.8 5 5h.2l.7-.7s0-.1 0-.2z"/><path d="m40.6 18.7-.8.8 5 5h.2l.7-.7s0-.1 0-.2z"/><path d="m41.5 17.8-.8.8 5 5h.2l.7-.7s0-.1 0-.2z"/><path d="m42.4 16.9-.8.8 5 5h.2l.7-.7s0-.1 0-.2z"/><path d="m43.3 16-.8.8 5 5h.2l.7-.7s0-.1 0-.2z"/><path d="m44.2 15.1-.8.8 5 5h.2l.7-.7s0-.1 0-.2z"/><path d="m45.1 14.2-.8.8 5 5h.2l.7-.7s0-.1 0-.2z"/><path d="m46 13.2-.8.8 5 5h.2l.7-.7s0-.1 0-.2z"/><path d="m47 12.3-.8.8 5 5h.2l.7-.7s0-.1 0-.2z"/><path d="m47.9 11.4-.9.9 5 5h.2l.7-.7s0-.1 0-.2z"/><path d="m48.8 10.5-.8.8 5 5h.2l.7-.7s0-.1 0-.2z"/><path d="m49.7 9.6-.8.8 5 5h.2l.7-.7s0-.1 0-.2z"/><path d="m50.6 8.7-.8.8 5 5h.2l.7-.7s0-.1 0-.2z"/><path d="m51.5 7.8-.8.8 5 5h.2l.7-.7s0-.1 0-.2z"/><path d="m52.4 6.9-.8.8 5 5h.2l.7-.7s0-.1 0-.2z"/><path d="m53.4 5.9-.8.8 5 5h.2l.7-.7s0-.1 0-.2z"/></g><path d="m13.6 46.3h.8v4.6h-.8z" fill="#666" transform="matrix(.7071 -.7071 .7071 .7071 -30.3077 24.0988)"/><path d="m13.6 46.3h.6v4.5h-.6z" fill="#1a1a1a" transform="matrix(.7071 -.7071 .7071 .7071 -30.2937 24.065)"/><path d="m15.1 49.8h.6v.5h-.6z" fill="#333" transform="matrix(.7071 -.7071 .7071 .7071 -30.889 25.5023)"/><path d="m12.6 47.2h.8v4.6h-.8z" fill="#666" transform="matrix(.7071 -.7071 .7071 .7071 -31.2208 23.7206)"/><path d="m12.7 47.2h.6v4.5h-.6z" fill="#1a1a1a" transform="matrix(.7071 -.7071 .7071 .7071 -31.2068 23.6868)"/><path d="m14.1 50.7h.6v.5h-.6z" fill="#333" transform="matrix(.7071 -.7071 .7071 .7071 -31.8021 25.1241)"/><path d="m14.5 45.4h.8v4.6h-.8z" fill="#666" transform="matrix(.7071 -.7071 .7071 .7071 -29.3946 24.4771)"/><path d="m14.5 45.4h.6v4.5h-.6z" fill="#1a1a1a" transform="matrix(.7071 -.7071 .7071 .7071 -29.3806 24.4432)"/><path d="m16 48.9h.6v.5h-.6z" fill="#333" transform="matrix(.7071 -.7071 .7071 .7071 -29.9759 25.8805)"/><path d="m16.3 43.6h.8v4.6h-.8z" fill="#666" transform="matrix(.7071 -.7071 .7071 .7071 -27.5684 25.2335)"/><path d="m16.4 43.6h.6v4.5h-.6z" fill="#1a1a1a" transform="matrix(.7071 -.7071 .7071 .7071 -27.5544 25.1997)"/><path d="m17.8 47.1h.6v.5h-.6z" fill="#333" transform="matrix(.7071 -.7071 .7071 .7071 -28.1497 26.637)"/><path d="m17.2 42.7h.8v4.6h-.8z" fill="#666" transform="matrix(.7071 -.7071 .7071 .7071 -26.6553 25.6117)"/><path d="m17.3 42.7h.6v4.5h-.6z" fill="#1a1a1a" transform="matrix(.7071 -.7071 .7071 .7071 -26.6413 25.5779)"/><path d="m18.7 46.1h.6v.5h-.6z" fill="#333" transform="matrix(.7071 -.7071 .7071 .7071 -27.2366 27.0152)"/><path d="m19 40.8h.8v4.6h-.8z" fill="#666" transform="matrix(.7071 -.7071 .7071 .7071 -24.8291 26.3682)"/><path d="m19.1 40.8h.6v4.5h-.6z" fill="#1a1a1a" transform="matrix(.7071 -.7071 .7071 .7071 -24.8151 26.3343)"/><path d="m20.5 44.3h.6v.5h-.6z" fill="#333" transform="matrix(.7071 -.7071 .7071 .7071 -25.4104 27.7716)"/><path d="m19.9 39.9h.8v4.6h-.8z" fill="#666" transform="matrix(.7071 -.7071 .7071 .7071 -23.916 26.7464)"/><path d="m20 39.9h.6v4.5h-.6z" fill="#1a1a1a" transform="matrix(.7071 -.7071 .7071 .7071 -23.902 26.7126)"/><path d="m21.4 43.4h.6v.5h-.6z" fill="#333" transform="matrix(.7071 -.7071 .7071 .7071 -24.4973 28.1499)"/><path d="m20.9 39h.8v4.6h-.8z" fill="#666" transform="matrix(.7071 -.7071 .7071 .7071 -23.0029 27.1246)"/><path d="m20.9 39h.6v4.5h-.6z" fill="#1a1a1a" transform="matrix(.7071 -.7071 .7071 .7071 -22.9889 27.0908)"/><path d="m22.4 42.5h.6v.5h-.6z" fill="#333" transform="matrix(.7071 -.7071 .7071 .7071 -23.5842 28.5281)"/><path d="m22.7 37.2h.8v4.6h-.8z" fill="#666" transform="matrix(.7071 -.7071 .7071 .7071 -21.1767 27.881)"/><path d="m22.7 37.2h.6v4.5h-.6z" fill="#1a1a1a" transform="matrix(.7071 -.7071 .7071 .7071 -21.1626 27.8472)"/><path d="m24.2 40.7h.6v.5h-.6z" fill="#333" transform="matrix(.7071 -.7071 .7071 .7071 -21.758 29.2845)"/><path d="m23.6 36.3h.8v4.6h-.8z" fill="#666" transform="matrix(.7071 -.7071 .7071 .7071 -20.2636 28.2593)"/><path d="m23.7 36.3h.6v4.5h-.6z" fill="#1a1a1a" transform="matrix(.7071 -.7071 .7071 .7071 -20.2495 28.2254)"/><path d="m25.1 39.8h.6v.5h-.6z" fill="#333" transform="matrix(.7071 -.7071 .7071 .7071 -20.8449 29.6627)"/><path d="m25.4 34.4h.8v4.6h-.8z" fill="#666" transform="matrix(.7071 -.7071 .7071 .7071 -18.4373 29.0157)"/><path d="m25.5 34.5h.6v4.5h-.6z" fill="#1a1a1a" transform="matrix(.7071 -.7071 .7071 .7071 -18.4233 28.9819)"/><path d="m26.9 37.9h.6v.5h-.6z" fill="#333" transform="matrix(.7071 -.7071 .7071 .7071 -19.0187 30.4192)"/><path d="m26.3 33.5h.8v4.6h-.8z" fill="#666" transform="matrix(.7071 -.7071 .7071 .7071 -17.5242 29.3939)"/><path d="m26.4 33.5h.6v4.5h-.6z" fill="#1a1a1a" transform="matrix(.7071 -.7071 .7071 .7071 -17.5102 29.3601)"/><path d="m27.8 37h.6v.5h-.6z" fill="#333" transform="matrix(.7071 -.7071 .7071 .7071 -18.1056 30.7974)"/><path d="m27.2 32.6h.8v4.6h-.8z" fill="#666" transform="matrix(.7071 -.7071 .7071 .7071 -16.6111 29.7721)"/><path d="m27.3 32.6h.6v4.5h-.6z" fill="#1a1a1a" transform="matrix(.7071 -.7071 .7071 .7071 -16.5971 29.7383)"/><path d="m28.7 36.1h.6v.5h-.6z" fill="#333" transform="matrix(.7071 -.7071 .7071 .7071 -17.1925 31.1756)"/><path d="m29.1 30.8h.8v4.6h-.8z" fill="#666" transform="matrix(.7071 -.7071 .7071 .7071 -14.7849 30.5286)"/><path d="m29.1 30.8h.6v4.5h-.6z" fill="#1a1a1a" transform="matrix(.7071 -.7071 .7071 .7071 -14.7709 30.4948)"/><path d="m30.6 34.3h.6v.5h-.6z" fill="#333" transform="matrix(.7071 -.7071 .7071 .7071 -15.3663 31.9321)"/><path d="m30 29.9h.8v4.6h-.8z" fill="#666" transform="matrix(.7071 -.7071 .7071 .7071 -13.8718 30.9068)"/><path d="m30.1 29.9h.6v4.5h-.6z" fill="#1a1a1a" transform="matrix(.7071 -.7071 .7071 .7071 -13.8578 30.873)"/><path d="m31.5 33.4h.6v.5h-.6z" fill="#333" transform="matrix(.7071 -.7071 .7071 .7071 -14.4532 32.3103)"/><path d="m31.8 28.1h.8v4.6h-.8z" fill="#666" transform="matrix(.7071 -.7071 .7071 .7071 -12.0456 31.6632)"/><path d="m31.9 28.1h.6v4.5h-.6z" fill="#1a1a1a" transform="matrix(.7071 -.7071 .7071 .7071 -12.0316 31.6294)"/><path d="m33.3 31.5h.6v.5h-.6z" fill="#333" transform="matrix(.7071 -.7071 .7071 .7071 -12.627 33.0667)"/><path d="m32.7 27.1h.8v4.6h-.8z" fill="#666" transform="matrix(.7071 -.7071 .7071 .7071 -11.1325 32.0415)"/><path d="m32.8 27.2h.6v4.5h-.6z" fill="#1a1a1a" transform="matrix(.7071 -.7071 .7071 .7071 -11.1185 32.0076)"/><path d="m34.2 30.6h.6v.5h-.6z" fill="#333" transform="matrix(.7071 -.7071 .7071 .7071 -11.7139 33.4449)"/><path d="m33.6 26.2h.8v4.6h-.8z" fill="#666" transform="matrix(.7071 -.7071 .7071 .7071 -10.2194 32.4197)"/><path d="m33.7 26.2h.6v4.5h-.6z" fill="#1a1a1a" transform="matrix(.7071 -.7071 .7071 .7071 -10.2054 32.3859)"/><path d="m35.1 29.7h.6v.5h-.6z" fill="#333" transform="matrix(.7071 -.7071 .7071 .7071 -10.8008 33.8232)"/><path d="m35.5 24.4h.8v4.6h-.8z" fill="#666" transform="matrix(.7071 -.7071 .7071 .7071 -8.3932 33.1761)"/><path d="m35.5 24.4h.6v4.5h-.6z" fill="#1a1a1a" transform="matrix(.7071 -.7071 .7071 .7071 -8.3792 33.1423)"/><path d="m37 27.9h.6v.5h-.6z" fill="#333" transform="matrix(.7071 -.7071 .7071 .7071 -8.9746 34.5796)"/><path d="m36.4 23.5h.8v4.6h-.8z" fill="#666" transform="matrix(.7071 -.7071 .7071 .7071 -7.4801 33.5543)"/><path d="m36.4 23.5h.6v4.5h-.6z" fill="#1a1a1a" transform="matrix(.7071 -.7071 .7071 .7071 -7.4661 33.5205)"/><path d="m37.9 27h.6v.5h-.6z" fill="#333" transform="matrix(.7071 -.7071 .7071 .7071 -8.0615 34.9578)"/><path d="m38.2 21.7h.8v4.6h-.8z" fill="#666" transform="matrix(.7071 -.7071 .7071 .7071 -5.6539 34.3108)"/><path d="m38.3 21.7h.6v4.5h-.6z" fill="#1a1a1a" transform="matrix(.7071 -.7071 .7071 .7071 -5.6399 34.277)"/><path d="m39.7 25.1h.6v.5h-.6z" fill="#333" transform="matrix(.7071 -.7071 .7071 .7071 -6.2352 35.7143)"/><path d="m39.1 20.7h.8v4.6h-.8z" fill="#666" transform="matrix(.7071 -.7071 .7071 .7071 -4.7408 34.689)"/><path d="m39.2 20.8h.6v4.5h-.6z" fill="#1a1a1a" transform="matrix(.7071 -.7071 .7071 .7071 -4.7268 34.6552)"/><path d="m40.6 24.2h.6v.5h-.6z" fill="#333" transform="matrix(.7071 -.7071 .7071 .7071 -5.3221 36.0925)"/><path d="m40 19.8h.8v4.6h-.8z" fill="#666" transform="matrix(.7071 -.7071 .7071 .7071 -3.8277 35.0672)"/><path d="m40.1 19.8h.6v4.5h-.6z" fill="#1a1a1a" transform="matrix(.7071 -.7071 .7071 .7071 -3.8137 35.0334)"/><path d="m41.5 23.3h.6v.5h-.6z" fill="#333" transform="matrix(.7071 -.7071 .7071 .7071 -4.409 36.4707)"/><path d="m41.9 18h.8v4.6h-.8z" fill="#666" transform="matrix(.7071 -.7071 .7071 .7071 -2.0015 35.8237)"/><path d="m41.9 18h.6v4.5h-.6z" fill="#1a1a1a" transform="matrix(.7071 -.7071 .7071 .7071 -1.9875 35.7898)"/><path d="m43.4 21.5h.6v.5h-.6z" fill="#333" transform="matrix(.7071 -.7071 .7071 .7071 -2.5828 37.2271)"/><path d="m42.8 17.1h.8v4.6h-.8z" fill="#666" transform="matrix(.7071 -.7071 .7071 .7071 -1.0884 36.2019)"/><path d="m42.8 17.1h.6v4.5h-.6z" fill="#1a1a1a" transform="matrix(.7071 -.7071 .7071 .7071 -1.0744 36.1681)"/><path d="m44.3 20.6h.6v.5h-.6z" fill="#333" transform="matrix(.7071 -.7071 .7071 .7071 -1.6697 37.6054)"/><path d="m44.6 15.3h.8v4.6h-.8z" fill="#666" transform="matrix(.7071 -.7071 .7071 .7071 .7378 36.9583)"/><path d="m44.7 15.3h.6v4.5h-.6z" fill="#1a1a1a" transform="matrix(.7071 -.7071 .7071 .7071 .7518 36.9245)"/><path d="m46.1 18.8h.6v.5h-.6z" fill="#333" transform="matrix(.7071 -.7071 .7071 .7071 .1565 38.3618)"/><path d="m45.5 14.4h.8v4.6h-.8z" fill="#666" transform="matrix(.7071 -.7071 .7071 .7071 1.6509 37.3365)"/><path d="m45.6 14.4h.6v4.5h-.6z" fill="#1a1a1a" transform="matrix(.7071 -.7071 .7071 .7071 1.6649 37.3027)"/><path d="m47 17.8h.6v.5h-.6z" fill="#333" transform="matrix(.7071 -.7071 .7071 .7071 1.0696 38.74)"/><path d="m46.4 13.4h.8v4.6h-.8z" fill="#666" transform="matrix(.7071 -.7071 .7071 .7071 2.564 37.7147)"/><path d="m46.5 13.5h.6v4.5h-.6z" fill="#1a1a1a" transform="matrix(.7071 -.7071 .7071 .7071 2.578 37.6809)"/><path d="m47.9 16.9h.6v.5h-.6z" fill="#333" transform="matrix(.7071 -.7071 .7071 .7071 1.9827 39.1182)"/><path d="m48.3 11.6h.8v4.6h-.8z" fill="#666" transform="matrix(.7071 -.7071 .7071 .7071 4.3902 38.4712)"/><path d="m48.3 11.6h.6v4.5h-.6z" fill="#1a1a1a" transform="matrix(.7071 -.7071 .7071 .7071 4.4042 38.4374)"/><path d="m49.8 15.1h.6v.5h-.6z" fill="#333" transform="matrix(.7071 -.7071 .7071 .7071 3.8089 39.8747)"/><path d="m49.2 10.7h.8v4.6h-.8z" fill="#666" transform="matrix(.7071 -.7071 .7071 .7071 5.3033 38.8494)"/><path d="m49.2 10.7h.6v4.5h-.6z" fill="#1a1a1a" transform="matrix(.7071 -.7071 .7071 .7071 5.3173 38.8156)"/><path d="m50.7 14.2h.6v.5h-.6z" fill="#333" transform="matrix(.7071 -.7071 .7071 .7071 4.722 40.2529)"/><path d="m51 8.9h.8v4.6h-.8z" fill="#666" transform="matrix(.7071 -.7071 .7071 .7071 7.1295 39.6058)"/><path d="m51.1 8.9h.6v4.5h-.6z" fill="#1a1a1a" transform="matrix(.7071 -.7071 .7071 .7071 7.1435 39.572)"/><path d="m52.5 12.4h.6v.5h-.6z" fill="#333" transform="matrix(.7071 -.7071 .7071 .7071 6.5482 41.0093)"/><path d="m51.9 8h.8v4.6h-.8z" fill="#666" transform="matrix(.7071 -.7071 .7071 .7071 8.0426 39.9841)"/><path d="m52 8h.6v4.5h-.6z" fill="#1a1a1a" transform="matrix(.7071 -.7071 .7071 .7071 8.0567 39.9503)"/><path d="m53.4 11.4h.6v.5h-.6z" fill="#333" transform="matrix(.7071 -.7071 .7071 .7071 7.4613 41.3875)"/><path d="m52.8 7.1h.8v4.6h-.8z" fill="#666" transform="matrix(.7071 -.7071 .7071 .7071 8.9557 40.3623)"/><path d="m52.9 7.1h.6v4.5h-.6z" fill="#1a1a1a" transform="matrix(.7071 -.7071 .7071 .7071 8.9698 40.3285)"/><path d="m54.3 10.5h.6v.5h-.6z" fill="#333" transform="matrix(.7071 -.7071 .7071 .7071 8.3744 41.7658)"/><path d="m10.8 49.1h.8v4.6h-.8z" fill="#666" transform="matrix(.7071 -.7071 .7071 .7071 -33.047 22.9642)"/><path d="m10.9 49.1h.6v4.5h-.6z" fill="#1a1a1a" transform="matrix(.7071 -.7071 .7071 .7071 -33.033 22.9304)"/><path d="m12.3 52.5h.6v.5h-.6z" fill="#333" transform="matrix(.7071 -.7071 .7071 .7071 -33.6283 24.3677)"/><path d="m9.9 50h.8v4.6h-.8z" fill="#666" transform="matrix(.7071 -.7071 .7071 .7071 -33.9601 22.586)"/><path d="m10 50h.6v4.5h-.6z" fill="#1a1a1a" transform="matrix(.7071 -.7071 .7071 .7071 -33.9461 22.5521)"/><path d="m11.4 53.5h.6v.5h-.6z" fill="#333" transform="matrix(.7071 -.7071 .7071 .7071 -34.5414 23.9894)"/><path d="m8.1 51.8h.8v4.6h-.8z" fill="#666" transform="matrix(.7071 -.7071 .7071 .7071 -35.7863 21.8295)"/><path d="m8.1 51.8h.6v4.5h-.6z" fill="#1a1a1a" transform="matrix(.7071 -.7071 .7071 .7071 -35.7723 21.7957)"/><path d="m9.6 55.3h.6v.5h-.6z" fill="#333" transform="matrix(.7071 -.7071 .7071 .7071 -36.3676 23.233)"/><g fill="#1a1a1a"><path d="m2 44.2h10.7v5.9h-10.7z" transform="matrix(.7071 -.7071 .7071 .7071 -31.2189 18.9813)"/><path d="m41.8 4.3h10.7v5.9h-10.7z" transform="matrix(.7071 -.7071 .7071 .7071 8.6533 35.4969)"/><ellipse cx="12.8" cy="41.1" rx="1" ry="1" transform="matrix(.7071 -.7071 .7071 .7071 -25.2998 21.0481)"/></g><g fill="#999"><path d="m14.9 42.7-.6.6c-.1.1-.3.1-.4 0s-.1-.3 0-.4l.6-.6c.1-.1.3-.1.4 0 .2.1.2.3 0 .4z"/><path d="m17.2 40.4-.6.6c-.1.1-.3.1-.4 0s-.1-.3 0-.4l.6-.6c.1-.1.3-.1.4 0s.1.3 0 .4z"/><path d="m18.7 38.9-.6.6c-.1.1-.3.1-.4 0s-.1-.3 0-.4l.6-.6c.1-.1.3-.1.4 0s.1.3 0 .4z"/><path d="m20.3 37.3-.6.6c-.1.1-.3.1-.4 0s-.1-.3 0-.4l.6-.6c.1-.1.3-.1.4 0s.1.3 0 .4z"/><path d="m21.8 35.8-.6.6c-.1.1-.3.1-.4 0s-.1-.3 0-.4l.6-.6c.1-.1.3-.1.4 0s.1.3 0 .4z"/><path d="m23.4 34.3-.6.6c-.1.1-.3.1-.4 0s-.1-.3 0-.4l.6-.6c.1-.1.3-.1.4 0s.1.2 0 .4z"/></g><path d="m14.6 42.7c.1.1.1.2 0 .2-.1.1-.2.1-.2 0-.1-.1-.1-.2 0-.2 0-.1.1-.1.2 0z" fill="#f7931e"/><path d="m37.7 14-23.7 23.7c-.1.1-.2.1-.2 0-.1-.1-.1-.2 0-.2l23.6-23.6c.1-.1.2-.1.2 0 .1 0 .1.1.1.1z" fill="#1a1a1a"/></svg>