<svg enable-background="new 0 0 60 60" height="60" viewBox="0 0 60 60" width="60" xmlns="http://www.w3.org/2000/svg"><path d="m59.6 10.1-49.5 49.5c-.5.5-1.4.5-2 0l-7.7-7.7c-.5-.5-.5-1.4 0-2l49.5-49.5c.5-.5 1.4-.5 2 0l7.7 7.7c.5.6.5 1.5 0 2z" fill="#af8424"/><g fill="#fff"><path d="m6.8 52.5-.8.8 5 5h.2l.7-.7s0-.1 0-.2z"/><path d="m7.7 51.6-.8.8 5 5h.2l.7-.7s0-.1 0-.2z"/><path d="m8.6 50.7-.8.8 5 5h.2l.7-.7s0-.1 0-.2z"/><path d="m9.5 49.8-.8.8 5 5h.2l.7-.7s0-.1 0-.2z"/><path d="m10.4 48.9-.8.8 5 5h.2l.7-.7s0-.1 0-.2z"/><path d="m11.3 47.9-.8.8 5 5h.2l.7-.7s0-.1 0-.2z"/><path d="m12.3 47-.8.8 5 5h.2l.7-.7s0-.1 0-.2z"/><path d="m13.2 46.1-.9.9 5 5h.2l.7-.7s0-.1 0-.2z"/><path d="m14.1 45.2-.9.8 5 5h.2l.7-.7s0-.1 0-.2z"/><path d="m15 44.3-.8.8 5 5h.2l.7-.7s0-.1 0-.2z"/><path d="m15.9 43.4-.8.8 5 5h.2l.7-.7s0-.1 0-.2z"/><path d="m16.8 42.5-.8.8 5 5h.2l.7-.7s0-.1 0-.2z"/><path d="m17.7 41.5-.8.8 5 5h.2l.7-.7s0-.1 0-.2z"/><path d="m18.7 40.6-.8.8 5 5h.2l.7-.7s0-.1 0-.2z"/><path d="m19.6 39.7-.8.8 5 5h.2l.7-.7s0-.1 0-.2z"/><path d="m20.5 38.8-.8.8 5 5h.2l.7-.7s0-.1 0-.2z"/><path d="m21.4 37.9-.8.8 5 5h.2l.7-.7s0-.1 0-.2z"/><path d="m22.3 37-.8.8 5 5h.2l.7-.7s0-.1 0-.2z"/><path d="m23.2 36.1-.8.8 5 5h.2l.7-.7s0-.1 0-.2z"/><path d="m24.1 35.2-.8.8 5 5h.2l.7-.7s0-.1 0-.2z"/><path d="m25 34.2-.8.8 5 5h.2l.7-.7s0-.1 0-.2z"/><path d="m26 33.3-.8.8 5 5h.2l.7-.7s0-.1 0-.2z"/><path d="m26.9 32.4-.9.9 5 5h.2l.7-.7s0-.1 0-.2z"/><path d="m27.8 31.5-.8.8 5 5h.2l.7-.7s0-.1 0-.2z"/><path d="m28.7 30.6-.8.8 5 5h.2l.7-.7s0-.1 0-.2z"/><path d="m29.6 29.7-.8.8 5 5h.2l.7-.7s0-.1 0-.2z"/><path d="m30.5 28.8-.8.8 5 5h.2l.7-.7s0-.1 0-.2z"/><path d="m31.4 27.9-.8.8 5 5h.2l.7-.7s0-.1 0-.2z"/><path d="m32.4 26.9-.8.8 5 5h.2l.7-.7s0-.1 0-.2z"/><path d="m33.3 26-.8.8 5 5h.2l.7-.7s0-.1 0-.2z"/><path d="m34.2 25.1-.9.9 5 5h.2l.7-.7s0-.1 0-.2z"/><path d="m35.1 24.2-.9.8 5 5h.2l.7-.7s0-.1 0-.2z"/><path d="m36 23.3-.8.8 5 5h.2l.7-.7s0-.1 0-.2z"/><path d="m36.9 22.4-.8.8 5 5h.2l.7-.7s0-.1 0-.2z"/><path d="m37.8 21.5-.8.8 5 5h.2l.7-.7s0-.1 0-.2z"/><path d="m38.7 20.5-.8.8 5 5h.2l.7-.7s0-.1 0-.2z"/><path d="m39.7 19.6-.8.8 5 5h.2l.7-.7s0-.1 0-.2z"/><path d="m40.6 18.7-.8.8 5 5h.2l.7-.7s0-.1 0-.2z"/><path d="m41.5 17.8-.8.8 5 5h.2l.7-.7s0-.1 0-.2z"/><path d="m42.4 16.9-.8.8 5 5h.2l.7-.7s0-.1 0-.2z"/><path d="m43.3 16-.8.8 5 5h.2l.7-.7s0-.1 0-.2z"/><path d="m44.2 15.1-.8.8 5 5h.2l.7-.7s0-.1 0-.2z"/><path d="m45.1 14.2-.8.8 5 5h.2l.7-.7s0-.1 0-.2z"/><path d="m46 13.2-.8.8 5 5h.2l.7-.7s0-.1 0-.2z"/><path d="m47 12.3-.8.8 5 5h.2l.7-.7s0-.1 0-.2z"/><path d="m47.9 11.4-.9.9 5 5h.2l.7-.7s0-.1 0-.2z"/><path d="m48.8 10.5-.8.8 5 5h.2l.7-.7s0-.1 0-.2z"/><path d="m49.7 9.6-.8.8 5 5h.2l.7-.7s0-.1 0-.2z"/><path d="m50.6 8.7-.8.8 5 5h.2l.7-.7s0-.1 0-.2z"/><path d="m51.5 7.8-.8.8 5 5h.2l.7-.7s0-.1 0-.2z"/><path d="m52.4 6.9-.8.8 5 5h.2l.7-.7s0-.1 0-.2z"/><path d="m53.4 5.9-.8.8 5 5h.2l.7-.7s0-.1 0-.2z"/></g><path d="m12 47.2.6-.6 3.3 3.3-.6.6z" fill="#666"/><path d="m12.1 47.2.4-.4 3.2 3.2-.4.4z" fill="#1a1a1a"/><path d="m15 50 .4-.4.4.4-.4.4z" fill="#333"/><path d="m11.1 48.2.6-.6 3.3 3.3-.6.6z" fill="#666"/><path d="m11.1 48.1.4-.4 3.2 3.2-.4.4z" fill="#1a1a1a"/><path d="m14 51 .4-.4.4.4-.4.4z" fill="#333"/><path d="m13 46.3.6-.6 3.3 3.3-.6.6z" fill="#666"/><path d="m13 46.3.4-.4 3.2 3.2-.4.4z" fill="#1a1a1a"/><path d="m15.9 49.1.4-.4.4.4-.4.4z" fill="#333"/><path d="m14.8 44.5.6-.6 3.3 3.3-.7.6z" fill="#666"/><path d="m14.9 44.4.4-.4 3.2 3.2-.4.4z" fill="#1a1a1a"/><path d="m17.7 47.4.4-.4.4.4-.4.4z" fill="#333"/><path d="m15.7 43.6.6-.6 3.3 3.3-.6.6z" fill="#666"/><path d="m15.8 43.5.4-.4 3.2 3.2-.4.4z" fill="#1a1a1a"/><path d="m18.6 46.4.4-.4.4.4-.4.4z" fill="#333"/><path d="m17.5 41.8.6-.6 3.3 3.3-.7.5z" fill="#666"/><path d="m17.5 41.7.4-.4 3.2 3.2-.4.4z" fill="#1a1a1a"/><path d="m20.4 44.6.4-.4.4.4-.4.4z" fill="#333"/><path d="m18.4 40.9.6-.6 3.3 3.3-.6.6z" fill="#666"/><path d="m18.5 40.8.4-.4 3.2 3.2-.5.4z" fill="#1a1a1a"/><path d="m21.3 43.7.4-.4.4.4-.4.4z" fill="#333"/><path d="m19.4 39.9.6-.6 3.3 3.3-.6.6z" fill="#666"/><path d="m19.4 39.9.4-.4 3.2 3.2-.4.4z" fill="#1a1a1a"/><path d="m22.3 42.7.4-.4.4.4-.4.4z" fill="#333"/><path d="m21.2 38.1.6-.6 3.3 3.3-.6.6z" fill="#666"/><path d="m21.2 38.1.4-.4 3.2 3.2-.4.4z" fill="#1a1a1a"/><path d="m24.1 41 .4-.4.4.4-.4.4z" fill="#333"/><path d="m22.1 37.2.6-.6 3.3 3.3-.6.6z" fill="#666"/><path d="m22.2 37.1.4-.4 3.2 3.2-.4.4z" fill="#1a1a1a"/><path d="m25 40.1.4-.4.4.4-.4.4z" fill="#333"/><path d="m23.8 35.4.6-.6 3.3 3.3-.6.6z" fill="#666"/><path d="m24 35.3.4-.4 3.2 3.2-.4.4z" fill="#1a1a1a"/><path d="m26.8 38.2.4-.4.4.4-.4.4z" fill="#333"/><path d="m24.8 34.5.6-.6 3.3 3.3-.7.5z" fill="#666"/><path d="m24.8 34.4.4-.4 3.2 3.2-.4.4z" fill="#1a1a1a"/><path d="m27.7 37.3.4-.4.4.4-.4.4z" fill="#333"/><path d="m25.7 33.6.6-.6 3.3 3.3-.6.6z" fill="#666"/><path d="m25.8 33.5.4-.4 3.2 3.2-.4.4z" fill="#1a1a1a"/><path d="m28.6 36.4.4-.4.4.4-.4.4z" fill="#333"/><path d="m27.6 31.7.6-.6 3.3 3.3-.7.6z" fill="#666"/><path d="m27.6 31.7.4-.4 3.2 3.2-.4.4z" fill="#1a1a1a"/><path d="m30.5 34.5.4-.4.4.4-.4.4z" fill="#333"/><path d="m28.5 30.8.6-.6 3.3 3.3-.6.6z" fill="#666"/><path d="m28.6 30.7.4-.4 3.2 3.2-.4.4z" fill="#1a1a1a"/><path d="m31.4 33.7.4-.4.4.4-.4.3z" fill="#333"/><path d="m30.3 29 .6-.6 3.3 3.3-.6.6z" fill="#666"/><path d="m30.4 28.9.4-.4 3.2 3.2-.4.4z" fill="#1a1a1a"/><path d="m33.2 31.8.4-.4.4.4-.4.4z" fill="#333"/><path d="m31.2 28.1.6-.6 3.3 3.3-.6.6z" fill="#666"/><path d="m31.3 28 .4-.4 3.2 3.2-.4.4z" fill="#1a1a1a"/><path d="m34.1 30.9.4-.4.4.4-.4.4z" fill="#333"/><path d="m32.1 27.2.6-.6 3.3 3.3-.6.6z" fill="#666"/><path d="m32.1 27.1.4-.4 3.2 3.2-.4.4z" fill="#1a1a1a"/><path d="m35 30 .4-.4.4.4-.4.4z" fill="#333"/><path d="m34 25.3.6-.6 3.3 3.3-.6.6z" fill="#666"/><path d="m34 25.3.4-.4 3.2 3.2-.4.4z" fill="#1a1a1a"/><path d="m36.9 28.1.4-.4.4.4-.4.4z" fill="#333"/><path d="m34.9 24.4.6-.6 3.3 3.3-.6.6z" fill="#666"/><path d="m34.9 24.4.4-.4 3.2 3.2-.4.4z" fill="#1a1a1a"/><path d="m37.8 27.3.4-.4.4.4-.4.4z" fill="#333"/><path d="m36.7 22.6.6-.6 3.3 3.3-.6.6z" fill="#666"/><path d="m36.8 22.5.4-.4 3.2 3.2-.4.4z" fill="#1a1a1a"/><path d="m39.6 25.4.4-.4.4.4-.4.4z" fill="#333"/><path d="m37.5 21.7.6-.6 3.3 3.3-.6.6z" fill="#666"/><path d="m37.7 21.6.4-.4 3.2 3.2-.4.4z" fill="#1a1a1a"/><path d="m40.5 24.5.4-.4.4.4-.4.4z" fill="#333"/><path d="m38.5 20.8.6-.6 3.3 3.3-.7.5z" fill="#666"/><path d="m38.5 20.7.4-.4 3.2 3.2-.4.4z" fill="#1a1a1a"/><path d="m41.4 23.6.4-.4.4.4-.4.4z" fill="#333"/><path d="m40.4 18.9.6-.6 3.3 3.3-.6.6z" fill="#666"/><path d="m40.4 18.9.4-.4 3.2 3.2-.4.4z" fill="#1a1a1a"/><path d="m43.3 21.7.4-.4.4.4-.4.4z" fill="#333"/><path d="m41.3 18 .6-.6 3.3 3.3-.6.6z" fill="#666"/><path d="m41.3 18 .4-.4 3.2 3.2-.4.4z" fill="#1a1a1a"/><path d="m44.2 20.8.4-.4.4.4-.4.4z" fill="#333"/><path d="m43.1 16.2.6-.6 3.3 3.3-.6.6z" fill="#666"/><path d="m43.2 16.1.4-.4 3.2 3.2-.4.4z" fill="#1a1a1a"/><path d="m46 19.1.4-.4.4.4-.4.4z" fill="#333"/><path d="m44 15.3.6-.6 3.3 3.3-.6.6z" fill="#666"/><path d="m44.1 15.2.4-.4 3.2 3.2-.4.4z" fill="#1a1a1a"/><path d="m46.9 18.1.4-.4.4.4-.4.4z" fill="#333"/><path d="m44.8 14.4.6-.6 3.3 3.3-.6.6z" fill="#666"/><path d="m45 14.3.4-.4 3.2 3.2-.4.4z" fill="#1a1a1a"/><path d="m47.8 17.2.4-.4.4.4-.4.4z" fill="#333"/><path d="m46.7 12.5.6-.6 3.3 3.3-.6.6z" fill="#666"/><path d="m46.8 12.5.4-.4 3.2 3.2-.4.4z" fill="#1a1a1a"/><path d="m49.7 15.3.4-.4.4.4-.4.4z" fill="#333"/><path d="m47.7 11.6.6-.6 3.3 3.3-.6.6z" fill="#666"/><path d="m47.7 11.6.4-.4 3.2 3.2-.4.4z" fill="#1a1a1a"/><path d="m50.6 14.4.4-.4.4.4-.4.4z" fill="#333"/><path d="m49.5 9.8.6-.6 3.3 3.3-.6.6z" fill="#666"/><path d="m49.6 9.7.4-.4 3.2 3.2-.4.4z" fill="#1a1a1a"/><path d="m52.4 12.7.4-.4.4.4-.4.3z" fill="#333"/><path d="m50.4 8.9.6-.5 3.3 3.3-.6.6z" fill="#666"/><path d="m50.5 8.8.4-.4 3.2 3.2-.4.4z" fill="#1a1a1a"/><path d="m53.3 11.7.4-.4.4.4-.5.3z" fill="#333"/><path d="m51.3 8 .6-.6 3.3 3.3-.6.6z" fill="#666"/><path d="m51.4 7.9.4-.4 3.2 3.2-.4.4z" fill="#1a1a1a"/><path d="m54.2 10.8.4-.4.4.4-.4.4z" fill="#333"/><path d="m9.3 50 .6-.6 3.3 3.3-.6.6z" fill="#666"/><path d="m9.4 49.9.4-.4 3.2 3.2-.4.4z" fill="#1a1a1a"/><path d="m12.2 52.8.4-.4.4.4-.4.4z" fill="#333"/><path d="m8.4 50.9.6-.5 3.3 3.3-.6.6z" fill="#666"/><path d="m8.5 50.8.4-.4 3.2 3.2-.4.4z" fill="#1a1a1a"/><path d="m11.3 53.8.4-.4.4.4-.4.4z" fill="#333"/><path d="m6.6 52.7.6-.6 3.3 3.3-.7.6z" fill="#666"/><path d="m6.6 52.7.4-.4 3.2 3.2-.4.4z" fill="#1a1a1a"/><path d="m9.5 55.5.4-.4.4.4-.4.4z" fill="#333"/><path d="m1.4 48.8 7.6-7.5 4.2 4.2-7.6 7.5z" fill="#1a1a1a"/><path d="m41.3 9 7.6-7.6 4.1 4.2-7.6 7.6z" fill="#1a1a1a"/><ellipse cx="12.8" cy="41.1" fill="#1a1a1a" rx="1" ry="1"/><path d="m14.9 42.7-.6.6c-.1.1-.3.1-.4 0s-.1-.3 0-.4l.6-.6c.1-.1.3-.1.4 0 .2.1.2.3 0 .4z" fill="#999"/><path d="m17.2 40.4-.6.6c-.1.1-.3.1-.4 0s-.1-.3 0-.4l.6-.6c.1-.1.3-.1.4 0s.1.3 0 .4z" fill="#999"/><path d="m18.7 38.9-.6.6c-.1.1-.3.1-.4 0s-.1-.3 0-.4l.6-.6c.1-.1.3-.1.4 0s.1.3 0 .4z" fill="#999"/><path d="m20.3 37.3-.6.6c-.1.1-.3.1-.4 0s-.1-.3 0-.4l.6-.6c.1-.1.3-.1.4 0s.1.3 0 .4z" fill="#999"/><path d="m21.8 35.8-.6.6c-.1.1-.3.1-.4 0s-.1-.3 0-.4l.6-.6c.1-.1.3-.1.4 0s.1.3 0 .4z" fill="#999"/><path d="m23.4 34.3-.6.6c-.1.1-.3.1-.4 0s-.1-.3 0-.4l.6-.6c.1-.1.3-.1.4 0s.1.2 0 .4z" fill="#999"/><path d="m14.6 42.7c.1.1.1.2 0 .2-.1.1-.2.1-.2 0-.1-.1-.1-.2 0-.2 0-.1.1-.1.2 0z" fill="#f7931e"/><path d="m37.7 14-23.7 23.7c-.1.1-.2.1-.2 0-.1-.1-.1-.2 0-.2l23.6-23.6c.1-.1.2-.1.2 0 .1 0 .1.1.1.1z" fill="#1a1a1a"/></svg>