<svg enable-background="new 0 0 60 60" height="60" viewBox="0 0 60 60" width="60" xmlns="http://www.w3.org/2000/svg"><circle cx="31" cy="24.1" r=".4"/><path d="m14.8 51.2-3.1-3.1.2-.2 3.1 3.1zm-2.7-3.4.2-.2 3.1 3.1-.2.2zm5.8.3-3-3.1.2-.2 3.1 3.1zm-2.6-3.5.2-.2 3.1 3.1-.2.2zm4.2 1.9-3.1-3.1.2-.2 3.1 3.1zm-2.7-3.5.2-.2 3.1 3.1-.2.2zm4.3 1.9-3.1-3.1.2-.2 3.1 3.1zm-2.7-3.5.2-.2 3.1 3.1-.2.2zm4.3 1.9-3.1-3.1.2-.2 3.1 3.1zm-2.7-3.5.2-.2 3.1 3.1-.2.2zm4.3 1.9-3.1-3.1.2-.2 3.1 3.1zm-2.7-3.4.2-.2 3.1 3.1-.2.2zm4.3 1.8-3.1-3.1.2-.2 3.1 3.1zm-2.7-3.4.3-.3 3.1 3.1-.3.3zm5.9.2-3.1-3 .2-.2 3.1 3.1zm-2.8-3.4.3-.3 3.1 3.1-.3.3zm4.3 1.9-3.1-3.1.2-.2 3.1 3.1zm-2.7-3.4.3-.3 3.1 3.1-.3.2zm5.9.2-3.1-3.1.1-.1 3.2 3zm-2.7-3.4.3-.3 3.1 3.1-.3.3zm4.3 1.8-3.1-3.1.1-.1 3.1 3.1zm-2.8-3.4.3-.3 3.1 3.1-.3.3zm4.4 1.8-3.1-3.1.1-.1 3.1 3.1zm-2.8-3.4.3-.3 3.1 3.1-.3.3zm4.4 1.8-3.1-3.1.1-.1 3.1 3.1zm-2.8-3.4.3-.3 3.1 3.1-.3.3zm4.4 1.8-3.1-3.1.1-.1 3.1 3.1zm-2.8-3.3.3-.3 3.1 3.1-.3.3zm4.4 1.7-3.1-3.1.1-.1 3.1 3.1zm-2.8-3.3.3-.4 3.1 3.1-.4.4zm5.9.2-3-3.1.1-.1zm-2.8-3.4.4-.4 3.1 3.1-.3.4zm4.4 1.8-3.1-3.1.1-.1zm-2.8-3.4.4-.4 3.1 3.1-.4.4zm6 .2-3.1-3.1.1-.1zm-2.8-3.3.4-.4 3.1 3.1-.4.4zm4.4 1.7-3.1-3.1v-.1zm-2.9-3.3.4-.4 3.1 3.1-.4.4zm4.5 1.7-3.1-3.1v-.1zm-2.9-3.3.4-.4 3.1 3.1-.4.4zm-37.9 30.1.2.2-.2.2-.1-.2zm2-.6.2.2-.2.2-.1-.2zm1.8-.8.2.2-.2.1-.2-.2zm.5-2.1.2.2-.2.2-.2-.2z"/><circle cx="24.5" cy="30.6" r=".4"/><path d="m56.8 11.5c-3-1.3-6.3-4.6-7.5-7.6-.5-1.2-.7-2.4-.4-3.4-.1 0-.1-.1-.2-.1-.5.6-1.2 1.4-2.2 2.3-11 11-50.8 45.3-46.2 45.9 6.7 1.1 11.3 4.4 12.3 7.8.3 1 .3 2 0 2.9l.2.2c.6-.7 1.4-1.6 2.3-2.7 8.9-9.7 33-33.8 42.4-42.3 1-.9 1.8-1.6 2.5-2.1 0-.1-.1-.2-.1-.4-.9.2-2 0-3.1-.5zm-17.1.7c.2-.2.5-.2.6 0 .2.2.2.4 0 .6s-.5.2-.6 0c-.2-.1-.2-.4 0-.6zm-1.6 1.6c.2-.2.5-.2.6 0 .2.1.2.4 0 .6s-.5.2-.6 0-.1-.5 0-.6zm1.3 1.3c.2-.2.4-.2.6 0s.2.4 0 .6-.4.2-.6 0-.2-.5 0-.6zm-2.8.2c.2-.2.5-.2.6 0 .2.2.2.4 0 .6s-.5.2-.6 0c-.2-.1-.2-.4 0-.6zm1.3 1.3c.2-.2.4-.2.6 0s.2.5 0 .6-.4.2-.6 0c-.2-.1-.2-.4 0-.6zm-2.9.3c.2-.2.5-.2.6 0 .2.2.2.4 0 .6s-.5.2-.6 0-.1-.5 0-.6zm1.3 1.3c.2-.2.4-.2.6 0s.2.4 0 .6-.4.2-.6 0-.2-.5 0-.6zm-15.7 13 11.4-11.4.6.6-11.4 11.4zm11.5-8.2c.2.2.2.6 0 .8l-2.3 2.2c-.2.2-.6.2-.8 0s-.2-.6 0-.8l2.3-2.3c.2-.1.6-.1.8.1zm-5.5 5.5c.2.2.2.6 0 .8l-2.3 2.3c-.2.2-.6.2-.8 0s-.2-.6 0-.8l2.3-2.3c.2-.2.6-.2.8 0zm-10.6 8.3.2-.2-.7-.7.1-.2.7.7.2-.2.2.2-.2.2 1.9 1.8-.2.2-1.9-1.9-.2.2zm-.5 2 .2-.2-1.5-1.5.2-.2 1.5 1.5.2-.2.2.2-.2.2 1.1 1.1-.2.2-1.1-1.1-.2.2zm-1.7.8.2-.2-1.1-1.1.2-.2 1.1 1.1.2-.2.2.2-.2.2 1.6 1.5-.2.2-1.5-1.5-.3.2zm-2 .6.2-.2-.4-.3.2-.2.4.3.2-.2.2.2-.2.2 2.3 2.2-.2.2-2.2-2.2-.3.3zm39.6-31.8 4.9 4.9-1.4 1.4-1.8-1.8-.2.2 1.8 1.8-1.4 1.4-1.8-1.8-.2.2 1.8 1.8-1.4 1.4-1.7-1.8-.2.2 1.8 1.8-1.4 1.4-4.9-4.9-.2.2 4.9 4.9-1.4 1.3-1.8-1.8-.2.2 1.8 1.8-1.4 1.4-1.8-1.8-.1.2 1.8 1.8-1.4 1.4-4.9-4.9-.2.2 4.9 4.9-1.4 1.4-1.8-1.8-.2.2 1.8 1.8-1.4 1.4-1.8-1.8-.2.2 1.8 1.8-1.4 1.4-1.8-1.8-.2.2 1.8 1.8-1.4 1.4-1.8-1.8-.2.2 1.8 1.8-1.4 1.4-1.8-1.8-.2.2 1.8 1.8-1.3 1.3-1.8-1.8-.2.1 1.8 1.8-1.4 1.4-4.9-4.9-.2.2 4.9 4.9-1.4 1.4-1.8-1.8-.2.2 1.8 1.8-1.4 1.4-1.8-1.8-.2.2 1.8 1.8-1.3 1.4-4.9-4.9-.2.2 4.9 4.9-1.4 1.4-1.8-1.8-.2.2 1.8 1.8-1.4 1.4-1.8-1.8-.2.2 1.8 1.8-1.4 1.4-1.8-1.8-.2.2 1.8 1.8-1.4 1.4-1.8-1.8-.2.2 1.8 1.8-1.4 1.4-1.7-1.9-.2.2 1.8 1.8-1.4 1.4-1.8-1.8-.2.2 1.8 1.8-1.4 1.4-4.9-4.9-.2.2 4.9 4.9-1.4 1.3-1.8-1.8-.2.2 1.8 1.8-1.4 1.4-4.9-4.9-.2.2 4.9 4.9-1.4 1.4-4.8-4.9-.3-.3 42.4-42.5z" fill="#c12127"/></svg>