<svg height="60" width="60" xmlns="http://www.w3.org/2000/svg"><circle cx="30.97" cy="24.13" r=".399"/><path d="m14.8 51.22-3.1-3.08.23-.22 3.07 3.08zm-2.7-3.47.22-.22 3.08 3.07-.22.23zm5.83.32-3.07-3.07.23-.24 3.06 3.08zm-2.67-3.47.2-.22 3.1 3.07-.22.2zm4.26 1.88-3.07-3.08.22-.22 3.08 3.08zm-2.68-3.48.22-.2 3.08 3.06-.22.22zm4.26 1.9-3.07-3.08.22-.22 3.08 3.08zm-2.68-3.47.23-.23 3.07 3.08-.22.23zm4.28 1.87-3.08-3.07.2-.2 3.08 3.07zm-2.7-3.45.23-.23 3.1 3.06-.25.24zm4.3 1.87-3.1-3.08.2-.2 3.08 3.08zm-2.72-3.45.24-.24 3.08 3.07-.24.24zm4.3 1.86-3.08-3.08.2-.2 3.07 3.1zm-2.72-3.43.26-.26 3.07 3.07-.27.28zm5.9.25-3.08-3.07.17-.18 3.08 3.08zm-2.74-3.42.27-.27 3.06 3.08-.27.27zm4.32 1.83-3.08-3.07.17-.2 3.08 3.1zm-2.74-3.4.28-.3 3.08 3.1-.28.27zm5.92.24-3.08-3.1.15-.14 3.06 3.08zm-2.76-3.4.3-.3 3.07 3.07-.3.3zm4.34 1.8-3.07-3.08.14-.14 3.07 3.08zm-2.76-3.4.3-.3 3.1 3.1-.3.3zm4.36 1.8-3.08-3.06.13-.14 3.07 3.08zm-2.78-3.37.3-.3 3.1 3.06-.32.3zm4.36 1.8-3.07-3.08.14-.13 3.08 3.08zm-2.78-3.38.32-.32 3.08 3.07-.32.33zm4.37 1.78-3.07-3.07.1-.12 3.1 3.08zm-2.8-3.36.34-.33 3.1 3.08-.33.32zm4.4 1.77-3.1-3.07.1-.1 3.1 3.07zm-2.8-3.34.33-.35 3.07 3.08-.33.33zm5.97.17-3.08-3.07.1-.1 3.04 3.08zm-2.82-3.34.36-.35 3.07 3.07-.35.36zm4.4 1.75-3.07-3.08.08-.08 3.07 3.08zm-2.82-3.33.37-.36 3.07 3.05-.36.37zm6 .15-3.08-3.08.07-.06 3.05 3.08zm-2.83-3.3.38-.4 3.07 3.08-.38.38zm4.43 1.7-3.08-3.06.05-.06 3.08 3.08zm-2.86-3.3.4-.38 3.07 3.07-.37.37zm4.44 1.72-3.08-3.07.05-.05 3.07 3.08zm-2.86-3.3.4-.4 3.07 3.1-.4.4zm-37.87 30.08.2.2-.17.16-.2-.2zm2-.56.2.2-.18.15-.2-.2zm1.75-.8.18.2-.16.14-.2-.2zm.47-2.1.2.2-.17.16-.2-.2z"/><circle cx="24.456" cy="30.645" r=".399"/><path d="m56.8 11.54c-3.03-1.28-6.27-4.56-7.5-7.6-.5-1.2-.66-2.37-.36-3.36-.06-.03-.12-.05-.18-.07-.48.58-1.22 1.36-2.2 2.3-11.03 10.99-50.8 45.33-46.2 45.94 6.65.9 11.2 4.2 12.28 7.65.3.97.33 1.96.04 2.92.08.06.15.1.23.16.56-.7 1.35-1.6 2.34-2.7 8.74-9.67 32.84-33.76 42.3-42.27 1-.9 1.83-1.6 2.47-2.13-.03-.13-.07-.24-.13-.35-.92.14-1.97-.06-3.05-.5zm-17.13.7c.17-.17.45-.17.62 0 .15.17.15.44 0 .6-.2.18-.47.18-.64 0-.17-.16-.17-.43 0-.6zm-1.55 1.55c.17-.2.45-.2.62 0 .17.15.17.42 0 .6-.17.17-.45.16-.62 0-.17-.18-.17-.45 0-.6zm1.3 1.26c.16-.17.43-.17.6 0s.17.45 0 .62-.44.16-.6 0c-.18-.18-.18-.45 0-.63zm-2.85.27c.17-.17.45-.17.62 0 .15.17.15.44 0 .6-.2.18-.47.18-.64 0-.17-.16-.17-.43 0-.6zm1.3 1.3c.16-.18.43-.18.6-.02.17.18.17.46 0 .63s-.44.17-.6 0c-.18-.17-.18-.44 0-.6zm-2.85.25c.17-.18.45-.18.62 0 .17.16.17.43 0 .6-.17.18-.45.17-.62 0s-.17-.44 0-.6zm1.3 1.28c.16-.18.43-.17.6 0s.18.44 0 .6-.44.18-.6 0c-.18-.16-.18-.43 0-.6zm-15.72 13 11.4-11.37.56.57-11.4 11.4-.56-.57zm11.5-8.2c.23.22.23.58 0 .8l-2.28 2.3c-.22.2-.57.2-.8 0-.2-.23-.2-.58 0-.8l2.3-2.3c.22-.2.57-.2.8 0zm-5.5 5.53c.2.22.2.57 0 .8l-2.3 2.3c-.22.2-.57.2-.8 0-.2-.24-.2-.6 0-.8l2.3-2.3c.22-.2.57-.2.8 0zm-10.57 8.3.18-.2-.7-.73.15-.16.73.74.2-.18.18.18-.2.2 1.88 1.85-.16.15-1.87-1.86-.17.17-.2-.2zm-.48 2.06.18-.18-1.53-1.54.16-.16 1.53 1.53.17-.2.2.2-.2.2 1.07 1.07-.16.15-1.08-1.07-.18.18-.2-.2zm-1.75.8.18-.17-1.06-1.07.16-.16 1.06 1.06.18-.18.2.2-.2.17 1.55 1.54-.16.16-1.52-1.54-.18.17-.2-.2zm-2 .6.2-.2-.36-.35.16-.15.35.35.2-.17.18.2-.2.17 2.26 2.25-.18.16-2.25-2.23-.18.2-.2-.2zm39.64-31.84 4.9 4.9-1.4 1.4-1.83-1.8-.16.16 1.82 1.82-1.4 1.4-1.83-1.8-.17.16 1.82 1.82-1.4 1.4-1.83-1.8-.17.16 1.8 1.82-1.4 1.4-4.9-4.9-.16.18 4.9 4.9-1.4 1.4-1.82-1.8-.17.16 1.82 1.82-1.4 1.4-1.82-1.8-.17.16 1.8 1.82-1.4 1.4-4.9-4.9-.16.18 4.9 4.9-1.4 1.4-1.83-1.82-.17.18 1.8 1.82-1.4 1.4-1.8-1.82-.18.18 1.8 1.82-1.4 1.4-1.82-1.82-.17.18 1.83 1.82-1.4 1.4-1.83-1.8-.17.16 1.82 1.82-1.4 1.4-1.83-1.8-.17.16 1.82 1.82-1.4 1.4-1.83-1.8-.17.16 1.82 1.82-1.42 1.4-4.9-4.9-.17.18 4.9 4.9-1.4 1.4-1.84-1.82-.16.18 1.83 1.82-1.4 1.4-1.83-1.82-.17.18 1.82 1.82-1.4 1.4-4.9-4.9-.2.18 4.9 4.9-1.4 1.4-1.82-1.82-.17.18 1.83 1.82-1.42 1.4-1.8-1.82-.18.18 1.8 1.82-1.4 1.4-1.82-1.82-.17.18 1.83 1.82-1.4 1.4-1.83-1.82-.17.18 1.82 1.82-1.4 1.4-1.83-1.82-.17.18 1.82 1.82-1.4 1.4-1.83-1.82-.17.18 1.8 1.84-1.42 1.4-4.9-4.9-.17.18 4.9 4.9-1.4 1.4-1.8-1.82-.2.18 1.83 1.82-1.4 1.4-4.9-4.9-.18.18 4.9 4.9-1.4 1.4-4.9-4.9-.33-.32 42.46-42.48.33.32z"/></svg>