<svg enable-background="new 0 0 60 60" height="60" viewBox="0 0 60 60" width="60" xmlns="http://www.w3.org/2000/svg" xmlns:xlink="http://www.w3.org/1999/xlink"><clipPath id="a"><path d="m9 39.3h15.7v9.5h-15.7z" transform="matrix(.7071 -.7071 .7071 .7071 -26.2404 24.7701)"/></clipPath><path d="m24.5 31.2s-2 1.5-3.1-1.1c-.9-2.1.4-3.5 1.1-4.4.8-1 1-1.3.6-1.8-.4-.6-2.2-1.2-4.2.4-1.6 1.2-3 3.2-4.7 7.1-1.1 2.4-2.8 3.5-3.8 4-1.3.6-3.8 1.5-5.9 2.6s-4.3 2.8-4.5 5c-.5 4.2 1.8 7.8 4.8 10.9 3.7 3.9 8.1 6.6 11.9 4.7 2.9-1.4 4.3-4.5 5.2-6.8s1-4.5 3.5-6c2-1.2 3.2-1 5.2-2.8 1-.9 1.6-2.1 1.6-3-.1-1.2-1.1-1.8-2.3-.9-3.3 2.5-5.9-.9-5.4-2.6.5-1.9 0-5.3 0-5.3z" fill="#00572c"/><path d="m22.4 35.7c-.5-.9-.9-2-1.2-2.8-.3-.7-1-.7-1.5.2-.1.2-.6 1.3-1.2 1.8-1.1 1.2-1.6 1.8-2.6 2.4-1 .7-2.7 1.3-3.9 1.9s-2.1 1.3-2.7 2.4c-.5.9-.7 2.1-.2 2.8.3.2.7.6.7.6l.5-.5c.1-.2.3-.1.5 0 .1.1 3.7 3.4 3.7 3.4s.3.2.1.5-.6.6-.6.6 1.5 1.5 1.9 2.3c.5.9.7 2.3.7 3.2.1 1.7 1.4 2.5 2.4 1.1 1-1.3 1.5-3 2.1-4.3.5-1.2.8-2.4 1.3-3.5.6-1.2 1.5-2.2 3.5-3.1 1.9-.8 4.7-2 5.3-4.2.3-1-.4-.6-1.1-.1-.8.6-2.4 1.2-3.5.8-1.3-.4-2.1-.6-3.1-3.2-.3-.9-.6-1.5-1.1-2.3z" fill="#fff"/><path d="m19.9 49.5c0 .1-.1.3-.1.6 0 .1.2.3.4.1.2-.1.3-.3.3-.5-.1-.4-.5-.5-.6-.2zm.3-.2c0-.2 0-.6 0-.8 0-.3.1-.4.1 0v.8z"/><path d="m12.8 52.8c-.1 1 .1 2 .4 2.8.2.7.4 1.3 1 1.8.5.5.7.1.8-.1.1-.3.5-1.2.4-2.4-.1-1-.3-1.8-.6-2.5-.5-.9-1.9-.9-2 .4z" fill="#fff"/><path d="m13.9 56.6c-.1-.1-.1-.2-.2-.3-.6-.8-.6-2-.6-2.2s.1-.3.3-.3c.1 0 1.1-.1 1.2-.1s.1 0 .2.1c0 0 .1.1.1.2.1.3.3 1.1.1 2-.1.5-.2.8-.4.8-.3.1-.5-.1-.7-.2zm.9-2.8s-.1 0-.2 0-1 .1-1.2.1c-.1 0-.2.1-.2.2 0 .2 0 1.4.6 2.2.1.1.1.2.2.3.2.2.4.3.5.2.2-.1.4-.3.4-.8.2-.9 0-1.7-.1-2 0-.1 0-.2 0-.2z"/><circle cx="21.7" cy="39.9" r=".2"/><circle cx="21.2" cy="39.3" r=".2"/><circle cx="20.6" cy="38.8" r=".2"/><circle cx="20" cy="38.2" r=".2"/><circle cx="19.5" cy="37.6" r=".2"/><circle cx="19" cy="37.1" r=".2"/><circle cx="18.2" cy="36.3" r=".2"/><circle cx="22.4" cy="40.6" r=".2"/><path d="m21.1 40.4-2.8-2.8c-.3-.3-.3-.8 0-1.1s.8-.3 1.1 0l2.8 2.8c.3.3.3.8 0 1.1s-.8.3-1.1 0zm-1.7-3.8c-.2-.3-.7-.3-.9 0-.3.3-.3.7 0 .9l2.8 2.8c.3.3.7.3.9 0 .3-.2.3-.7 0-.9z" fill="#00572c"/><circle cx="18.5" cy="43.1" r=".2"/><circle cx="17.9" cy="42.5" r=".2"/><circle cx="17.4" cy="42" r=".2"/><circle cx="16.8" cy="41.4" r=".2"/><circle cx="16.2" cy="40.8" r=".2"/><circle cx="15.7" cy="40.3" r=".2"/><circle cx="14.9" cy="39.6" r=".2"/><circle cx="19.2" cy="43.8" r=".2"/><path d="m17.9 43.6-2.8-2.8c-.3-.3-.3-.8 0-1.1s.8-.3 1.1 0l2.8 2.8c.3.3.3.8 0 1.1s-.8.3-1.1 0zm-1.8-3.8c-.3-.3-.7-.3-.9 0-.3.3-.3.7 0 .9l2.8 2.8c.3.3.7.3.9 0 .3-.2.3-.7 0-.9z" fill="#00572c"/><circle cx="15.3" cy="46.3" r=".2"/><circle cx="14.8" cy="45.7" r=".2"/><circle cx="14.3" cy="45.1" r=".2"/><circle cx="13.9" cy="44.4" r=".2"/><circle cx="13.4" cy="43.7" r=".2"/><circle cx="12.9" cy="43.1" r=".2"/><circle cx="12.3" cy="42.2" r=".2"/><circle cx="15.8" cy="47.1" r=".2"/><path d="m14.7 46.8-2.4-3.2c-.3-.3-.2-.8.1-1.1.3-.2.7-.2 1 .1 0 0 .1.1.1.1l2.3 3.1c.1.2.2.4.1.6s-.1.4-.3.5c-.2.2-.7.2-.9-.1zm-1.3-4.2c-.2-.2-.6-.2-.9-.1-.3.2-.4.6-.1.9l2.3 3.2s0 .1.1.1c.2.2.6.3.9.1.1-.1.2-.2.3-.4 0-.2 0-.3-.1-.5l-2.5-3.3c0 .1 0 .1 0 0zm3.7 8 .2.2zm.1-.1.1.2zm.1-.1.1.2zm.2 0 .1.2zm.2-.1v.2zm.1 0v.2zm.2.1-.1.2zm.1 0-.1.2zm.2.1-.1.2zm.1.1-.2.2zm.1.1-.2.2zm.1.2-.2.1zm0 .1-.2.1zm-.2.2h.2zm0 .1h.2zm.3.2h-.2zm-.1.2-.2-.1zm-.1.1-.2-.1zm-.3 0 .2.2zm-.1.1.1.2zm-.1 0 .1.2zm-.1.1.1.2zm-.1 0v.2zm-.1 0v.2zm-.1 0-.1.2zm-.2-.1-.1.2zm-.1 0-.1.2zm-.1-.1-.1.2zm-.1-.1-.1.2zm0-.1-.2.1zm-.1-.1-.2.1zm-.2-.2h.2zm0-.1h.2zm.2-.1h-.2zm.1-.1-.2-.1zm.1-.1-.2-.1z" fill="#00572c"/><circle cx="17.7" cy="51.3" fill="#00572c" r=".7"/><path d="m17.5 53.8.2.2zm.1-.1.1.2zm.1-.1.1.2zm.2-.1v.2zm.1 0v.2zm.2 0v.3zm.2 0-.1.2zm.1.1-.1.2zm.2.1-.1.2zm.1.1-.2.2zm.1.1-.2.2zm.1.1-.2.1zm0 .2-.2.1zm-.2.2h.2zm0 .1h.2zm.2.2h-.2zm0 .2-.2-.1zm-.1.1-.2-.1zm-.3 0 .2.2zm-.1 0 .1.2zm-.1.1.1.2zm-.1 0 .1.2zm-.1.1v.3zm-.1 0v.2zm-.2 0-.1.2zm-.1-.1-.1.2zm-.1-.1-.1.2zm-.1 0-.1.2zm-.1-.1-.2.1zm0-.1-.2.1zm-.1-.2-.2.1zm-.2-.1h.2zm0-.1h.2zm.2-.1-.2-.1zm.1-.1-.2-.1zm0-.2-.2-.1z"/><circle cx="18.1" cy="54.4" fill="#00572c" r=".7"/><path d="m16 47.5.2.2zm.1-.1.1.2zm.2-.1.1.2zm.2-.1.1.2zm.1 0v.2zm.2 0v.3zm.1 0-.1.2zm.2.1-.1.2zm.1.1-.1.2zm.2.1-.2.2zm.1.1-.2.2zm0 .1-.2.1zm.1.2-.2.1zm-.2.2h.2zm0 .1h.2zm.2.2h-.2zm0 .1-.2-.1zm-.1.2-.2-.1zm-.3 0 .2.2zm-.1 0 .1.2zm-.1.1.1.2zm-.1 0 .1.2zm-.1.1v.2zm-.2 0v.2zm-.1-.1v.2zm-.1 0-.1.2zm-.1 0-.2.2zm-.1-.1-.2.2zm-.1-.1-.2.2zm-.1-.1-.2.1zm0-.2-.2.1zm-.3-.1h.3zm0-.1h.3zm.3-.1-.2-.1zm0-.2-.2-.1zm.1-.1-.2-.1z"/><circle cx="16.7" cy="48.1" fill="#00572c" r=".7"/><path d="m56.4 2.3s-.1-.2-.1-.2-.1-.1-.1 0c-.1 0-.3.1-.3.1s-.1 0-.2-.1-.1-.3-.2-.4c-.1-.2.2-.5.4-.6.3-.2.6-.2.7-.2s.1.1.2.1.2.2.2.3v.1s-.1.2-.2.2c0 .1-.1.1-.1.2s.2.2.2.2zm-1.7.9s-.1-.2-.1-.2-.1-.1-.1 0c-.1 0-.3 0-.4 0h-.1c-.1-.1-.1-.3-.2-.4 0-.2.2-.5.4-.6.3-.2.6-.2.7-.2s.1.1.2.1c.1.1.2.2.2.3v.1c0 .1-.1.2-.2.2 0 .1-.1.1-.1.2s.2.3.2.3zm-1.7.9s-.1-.2-.1-.2-.1-.1-.1 0c-.1 0-.3.1-.3.1s-.1 0-.2-.1-.1-.3-.2-.4c0-.2.2-.5.4-.7.3-.2.6-.2.7-.2s.1.1.2.1c0 .1.2.2.2.3s0 .1 0 .2-.1.2-.2.2c0 .1-.1.1-.1.2.1.1.2.2.2.2zm-1.7.9s-.1-.2-.2-.2c0-.1-.1-.1-.1-.1-.1 0-.3.1-.3.1s-.1 0-.2-.1-.1-.3-.2-.4c-.1-.2.2-.5.4-.6.3-.2.6-.2.7-.2s.1.1.2.1c0 .1.2.2.2.3v.1c0 .1-.1.2-.2.2s-.1.1-.1.2.2.2.2.2zm-1.6.9s-.1-.2-.1-.2c0-.1-.1-.1-.1-.1-.1 0-.3.1-.3.1s-.1 0-.2-.1-.1-.3-.2-.4c0-.2.2-.5.4-.7.3-.2.5-.2.7-.2.1 0 .1.1.2.1.1.1.2.2.2.3v.2s-.2.2-.2.2c0 .2-.1.2-.1.3s.2.2.2.2zm-1.6.9s-.1-.2-.1-.2c0-.1-.1-.1-.1-.1-.1.1-.3.1-.3.1-.1 0-.1 0-.2-.1s-.1-.3-.2-.4c0-.2.2-.5.4-.7.3-.2.5-.2.7-.2.1 0 .1.1.2.1 0 .1.1.2.2.3v.1c0 .1-.1.2-.2.2 0 .1-.1.1-.1.2s.1.2.1.2zm-.1.1c-.5.3-1 .5-1.2.8-.1.4 0 .6.1 1 0 .3-.2.6-.6 1s-26.4 26.1-26.4 26.1-.3.2 0 .6c.4.6 2 2.1 2.6 2.5.4.2.5 0 .6-.1s26.3-27.3 26.3-27.3.5-.6 1.4-.8c1-.2 1.5.1 1.8.1.4 0 .6-.3 1.2-1.1.6-.9 1.8-2.8 2.2-3.5s.7-.8 1.2-.6c.4.2 2.1.4 2.6-1.3.6-1.9-1.1-3.1-2.6-2.4-1.6.9-8.7 4.7-9.2 5z" fill="#00572c"/><g fill="#fff"><path d="m20.7 37.5c-.4-.4-.8-.8-.9-1-.2-.4-.1-.6 0-.7.4-.4 26.1-25.8 26.5-26.2s.6-.7.6-.9c0-.1 0-.2-.1-.2 0-.2-.1-.5 0-.8s.5-.5.9-.7c.1-.1.2-.1.3-.2.4-.2 7.5-4.1 9.1-4.9.8-.4 1.7-.2 2.3.3.5.5.7 1.3.4 2.1-.2.6-.5 1-1 1.2-.7.3-1.5.2-1.7.1-.4-.2-.7-.1-1.1.5-.4.7-1.6 2.6-2.2 3.5s-.8 1.2-1.2 1.2c-.1 0-.2 0-.2 0-.3-.1-.8-.2-1.5 0-.9.2-1.4.8-1.4.8-1.1 1.1-26.2 27.2-26.4 27.3-.1.1-.3.3-.6.1-.5-.2-1.3-.9-1.8-1.5zm38.6-35.1c-.5-.5-1.4-.7-2.1-.3-1.7.8-8.7 4.7-9.1 4.9-.1 0-.2 0-.3.1-.4.2-.8.4-.8.6s0 .5 0 .7v.2c.1.4-.2.7-.6 1.1s-26.2 25.9-26.5 26.2c0 0-.2.2 0 .5.2.2.5.6.9 1 .7.7 1.4 1.2 1.7 1.4.3.1.3.1.4 0h.1c.2-.2 25.9-26.8 26.3-27.3 0-.1.5-.7 1.5-.8.8-.1 1.3 0 1.6 0h.2c.3 0 .5-.2 1.1-1.1s1.8-2.8 2.2-3.5.8-.8 1.3-.6c.2.1 1 .2 1.6-.1.4-.2.8-.6.9-1.2.3-.6.1-1.3-.4-1.8zm-11.1 5.5c-.1-.1-.2-.1-.2-.2 0-.2 0-.3 0-.4.1-.2.3-.3.4-.3.2-.1.4 0 .6.1.1.1.1.1.2.2v.4c-.2.2-.3.3-.4.4-.3 0-.5 0-.6-.2zm.8-.8c-.2-.1-.4-.2-.6-.1-.1 0-.2.1-.3.3-.1.1-.1.2-.1.4 0 .1.1.2.1.2.2.1.4.2.6.1.1 0 .3-.1.3-.3.1-.1.1-.3 0-.4.1-.1 0-.1 0-.2zm-.8.5.1-.4.4-.1.3.3-.1.4-.4.1s-.3-.3-.3-.3zm.1-.4-.1.4.3.3.3-.1.1-.4-.3-.2z"/><circle cx="48.6" cy="7.5" r=".2"/><path d="m49.8 7c-.2-.2-.2-.6 0-.8s.6-.2.8 0 .2.6 0 .8-.5.2-.8 0zm.8-.8c-.2-.2-.6-.2-.8 0s-.2.6 0 .8.6.2.8 0 .2-.5 0-.8zm-.6.7-.1-.4.3-.3.4.1.1.4-.4.3zm-.1-.4.1.4.3.1.3-.3-.1-.4-.4-.1z"/><circle cx="50.2" cy="6.6" r=".2"/><path d="m51.6 6.1c-.1-.1-.1-.2-.2-.3 0-.3.2-.6.5-.7.2 0 .4 0 .5.2.1.1.2.2.2.3.1.3-.2.6-.5.7-.2 0-.4 0-.5-.2zm.8-.8c-.1-.1-.3-.2-.5-.2-.3.1-.5.3-.5.6 0 .1.1.2.2.3s.3.2.5.2c.3-.1.5-.3.5-.6-.1-.1-.1-.2-.2-.3zm-.6.8-.3-.3.1-.4.4-.1.3.3-.1.4zm-.2-.3.2.3.4-.1.1-.4-.2-.3-.4.1z"/><circle cx="52" cy="5.7" r=".2"/><path d="m53.3 5.2c-.2-.2-.2-.6 0-.8s.6-.2.8 0 .2.6 0 .8-.6.2-.8 0zm.8-.8c-.2-.2-.6-.2-.8 0s-.2.6 0 .8.6.2.8 0c.2-.3.2-.6 0-.8zm-.7.7-.1-.4.3-.3.4.1.1.4-.3.3zm-.1-.4.1.3.4.1.3-.3-.1-.3-.4-.1z"/><circle cx="53.7" cy="4.7" r=".2"/><path d="m55 4.3c-.1-.1-.2-.2-.2-.4s0-.3.1-.4.2-.2.4-.2.3 0 .5.2c.1 0 .2.2.2.3 0 .3-.2.6-.5.6-.2 0-.4 0-.5-.1zm.8-.8c-.1-.1-.3-.2-.4-.2-.2 0-.3.1-.4.2s-.2.2-.1.4c0 .1.1.2.2.3s.3.2.4.2c.3 0 .5-.3.5-.6-.1-.1-.1-.3-.2-.3zm-.6.7-.2-.3.2-.4h.4l.2.3-.2.4zm-.2-.3.2.3h.4l.2-.3-.2-.3h-.4z"/><circle cx="55.4" cy="3.8" r=".2"/><path d="m56.6 3.3c-.2-.2-.2-.4-.1-.6.1-.3.4-.5.7-.4.1 0 .2.1.2.2.2.2.2.4.1.6-.1.3-.4.5-.7.4 0 0-.1-.1-.2-.2zm.8-.8c0-.1-.1-.1-.2-.2-.3-.1-.6.1-.7.4-.1.2 0 .4.1.6.1.1.1.1.2.1.3.1.6-.1.7-.4.1-.1.1-.3-.1-.5zm-.6.7-.1-.4.3-.3.4.1.1.4-.3.3zm-.1-.4.1.4.4.1.2-.3-.1-.4h-.3z"/><circle cx="57.1" cy="2.9" r=".2"/><path d="m46.4 9.6s.5.4 1.2 1.2c.8.9 1.2 1.3 1.2 1.3l.2-.2s-.2-.3-1.1-1.2c-.8-.9-1.3-1.2-1.3-1.2zm-2.1 2.2.1.1.1.1.1.1.1.1.1.1.1.1.1.1.1.1.2.1.2.2.1.1.1.1.1.1.1.1.1.1.1.1.1.1.1.1v.1c0 .1.1.1.1.1s0-.1 0-.1v-.1-.1l-.1-.1-.1-.1-.1-.1-.1-.1-.1-.1.1.2-.2-.2-.2-.2-.2-.1-.1-.1-.1-.1-.1-.1-.1-.1v-.1l-.1-.1-.1-.1-.5-.3c.1-.1 0-.1 0 0 0-.1 0-.1 0 0zm-1.9 1.9.1.1v.1l.1.1.1.1.1.1.1.1.1.1.1.1.1.1.1.1.2.2.2.1.1.1.1.1.1.1.1.1.1.1.1.1v.1s.1.1.1 0 0-.1 0-.1v-.1-.1-.1l-.1-.1-.1-.1-.1-.1-.1-.1-.1-.1.1.4-.1-.2-.2-.2-.1-.1-.1-.1-.1-.1-.1-.1-.1-.1-.1-.1-.1-.1-.1-.1v-.1l-.5-.2v-.1s-.1-.1-.1 0c0 0 0 0 .1.1zm-1.9 1.8.1.1.1.1.1.1.1.1.1.1.1.1.1.1.1.1.1.1.6.6.2.2.1.1.1.1.1.1.1.1.1.1h.1.1s0 0 0-.1l-.1-.1-.1-.1-.1-.1-.1-.1-.1-.1-.1-.1h-.2l-.2-.2-.2-.2-.1-.1-.1-.1-.1-.1-.1-.1-.1-.1-.1-.1v-.1l-.6-.4c.1 0 0-.1 0 0zm-1.7 1.7.1.1.1.1.1.1.1.1.1.1.1.1.1.1.1.1.2.2.2.2.2.2.1.1.1.1.1.1.1.1.1.1.1.1s.1.1.1 0 0 0 0-.1v-.1l.1.4-.1-.1-.1-.1-.1-.1-.1-.1-.1-.1-.2-.2-.2-.2-.2-.2-.1-.1-.1-.1-.1-.1-.1-.1-.1-.1-.1-.1h-.1l-.4-.5c-.1-.1-.1-.1 0 0-.2-.1-.1 0 0 0zm-1.6 1.7.1.1.1.1.1.1.1.1.1.1.1.1.1.1.1.1.1.1.1.1.2.1.2.2.2.2.2.2.1.1.1.1.1.1.1.1.1.1v.1h.1v-.1l-.1-.1-.1-.1-.1-.1v.2l-.1-.1-.2-.2-.2-.2-.2-.2-.2-.2-.1-.1-.1-.1-.1-.1-.1-.1-.1-.1-.1-.1-.1-.1-.1-.1-.1-.1-.3-.3c-.1-.1-.1-.1 0 0-.1-.1-.1 0 0 0zm-1.7 1.5.1.1.1.1.1.1.1.1.1.1.1.1.1.1.1.1.1.1.2.2.2.2.2.2.1.1.1.1.1.1.1.1.1.1.1.1.1.1v.1s.1.1.1 0c0 0 0 0 0-.1l-.1-.1.3.2-.1-.1-.1-.1-.1-.1-.1-.1-.1-.1-.2-.2-.2-.2-.1-.1-.1-.1-.1-.1-.1-.1-.1-.1-.1-.1-.1-.1-.1-.1-.1-.1c-.6-.6-.6-.6-.7-.5.1 0 .1 0 0 0zm-1.4 1.5.1.1h.1l.1.1.1.1.1.1.1.1.1.1.1.1.1.1.1.1.1.1.1.1.1.1.2.2.2.2.2.2.2.2.1.1h.1v-.1l-.1-.1-.2-.2-.2-.2.1.2-.2-.2-.1-.1-.1-.1-.1-.1-.1-.1-.1-.1-.1-.1-.1-.1-.1-.1-.1-.1-.1-.1-.1-.1-.1-.1s-.1-.1-.1 0c-.4-.5-.4-.4-.4-.3zm-1.4 1.3.1.1.1.1.1.1.1.1.1.1.1.1.1.1.1.1.1.1.1.1.1.1.1.1.1.1.1.1.1.1.1.1.1.1.1.1.2.1.1.1h.1s0 0 0-.1l-.1-.1-.1-.1-.1-.1.4.6-.1-.1-.1-.1-.2-.2-.1-.1-.1-.1-.1-.1-.1-.1-.2-.2-.1-.1-.1-.1-.1-.1-.1-.1-.1-.1-.1-.1v-.1l-.7-.5c0-.1 0-.1 0-.1zm-1.3 1.3.1.1.1.1.1.1.1.1.1.1.1.1.1.1.1.1.1.1.1.1.1.1.1.1.1.1.1.1.1.1.1.1.1.1.1.1.1.1.1.1h.1v-.1l-.1-.1.6.6-.1-.1-.1-.1-.1-.1-.1-.1-.1-.1-.1-.1-.3-.3-.1-.1-.1-.1-.1-.1-.1-.1-.1-.1-.1-.1-.1-.1-.1-.1-.1-.1v-.1l-.8-.5c0-.1 0-.1 0-.1zm-1.2 1.2.1.1h.1l.1.1.1.1.1.1.1.1.1.1.1.1.1.1.1.1.1.1.1.1.1.1.1.1.1.1.1.1.2.1.1.1.1.1s.1.1.1 0v-.1l.7.9-.1-.1-.2-.2-.1-.1-.1-.1-.1-.1-.1-.1-.3-.3-.1-.1-.1-.1-.1-.1-.1-.1-.1-.1-.1-.1-.1-.1-.1-.1-.2-.1v-.1l-.8-.6c0-.1 0-.1 0-.1zm-1.2 1.1.1.1h.1l.1.1.1.1.1.1.1.1.1.1.1.1.1.1.1.1.1.1.1.1.1.1.1.1.1.1.1.1.1.1.1.1.1.1.1.1h.1s0 0 0-.1l-.1-.1-.1-.1-.1-.1.6.7-.1-.1-.1-.1-.2-.2-.1-.1-.1-.1-.1-.1-.1-.1-.1-.2-.1-.1-.1-.1-.1-.1-.2-.1-.1-.1-.1-.1s-.1-.1-.1 0c-.6-.6-.6-.6-.7-.6zm-1 1.2.1.1.1.1.1.1.7.7.1.1.1.1.1.1.1.1.1.1.1.1.1.1.1.1.1.1.1.1.1.1.1.1.1.2.1.1h.1v-.1l-.1-.1-.1-.1-.2-.1-.1-.1h.2l-.2-.1-.1-.1-.1-.1-.1-.1-.1-.1-.1-.1-.1-.1-.2-.3-.1-.1-.1-.1-.1-.1-.1-.1-.8-.6c0-.1-.1-.1 0 0-.1-.1-.1 0 0 0zm-1.1.9.1.1h.1l.1.1.1.1.1.1.1.1.1.1.1.1.1.1.1.1.1.1.1.1.1.1.1.1.1.1.1.1.1.2.1.1h.1v-.1l-.1-.1-.1-.1-.1-.1-.1-.1.7.8-.1-.1-.1-.1-.1-.1-.1-.1-.1-.1-.1-.1-.1-.1-.3-.3-.1-.1-.1-.1-.1-.1v-.1zm-1 1 .1.1.1.1.1.1.1.1.1.1.1.1.1.1.1.1.1.1.1.1.1.1.2.2.2.2.2.2.2.2.2.1.1.1.1.1.1.1.1.1.1.1.1.1.1.1.1.1.1.1h.1v-.1l-.1-.1-.1-.1-.1-.1-.1-.1-.1-.1-.1-.1-.1-.1h-.1l-.1-.1-.1-.1-.2-.2-.2-.2-.2-.2-.2-.2-.2-.2-.1-.1-.1-.1-.1-.1-.1-.1-.1-.1-.1-.1-.1-.1-.1-.1h-.1l-.1-.1h-.1c0-.1 0-.1 0 0-.1-.1-.1-.1 0 0zm-.9.9.1.1.1.1.1.1.1.1.1.1.1.1.1.1.1.1.1.1.1.1.1.1.1.1.2.2.2.2.2.2.2.2.2.2.1.2.1.1.1.1.1.1.1.1.1.1.1.1.1.1h.1s0 0 0-.1l-.1-.1-.1-.1-.1-.1-.1-.1-.1-.1-.1-.1-.1-.2-.1-.1-.3-.2-.2-.2-.2-.2-.2-.2-.2-.2-.1-.1-.1-.2-.1-.1-.1-.1-.1-.1-.1-.1-.1-.1-.1-.1h-.1l-.1-.1-.2-.1c0-.1 0-.1 0 0zm-.8.8.1.1.1.1.1.1.1.1.1.1.1.1.1.1.1.1.1.1.1.1.1.1.1.1.2.2.2.2.2.2.2.2.2.2.1.1.1.1.1.1.1.1.1.1.1.1.1.1.1.1h.1v-.1l-.3-.2-.1-.1-.1-.1-.1-.1-.1-.1-.1-.1-.1-.1-.2-.2-.2-.2-.2-.2-.2-.2-.2-.2-.1-.2-.1-.1-.2-.1-.1-.1-.1-.1-.1-.1h-.1l-.1-.1-.1-.1-.1-.1-.1-.1-.1-.1.1.1c0-.1 0-.2 0-.1-.1 0-.1.1 0 .1zm-.8.9.1.1.1.1.1.1.1.1.1.1.1.1.1.1.1.1.1.1.1.1.1.1.1.1.2.2.2.1.2.2.2.2.2.2.1.1.1.1.1.1.1.1.1.1.1.1.1.1.1.1h.1v-.1l-.1-.1-.1-.1-.2-.1-.1-.1v-.1l-.1-.1-.1-.1-.1-.1-.2-.2-.2-.2-.3-.2-.2-.2-.2-.2-.1-.1-.1-.1-.1-.1-.1-.1-.1-.1-.1-.1-.1-.1-.1-.1-.1-.1-.1-.1-.1-.1-.1.1c0-.1 0-.1 0 0 0-.1 0 0 0 0zm-.8.7.1.1.1.1.1.1.1.1.1.1.1.1.1.1.1.1.1.1.1.1.1.1.1.1.2.2.2.2.2.2.2.2.2.2.1.1.1.1.1.1.1.1.1.1.1.1.1.1.1.1s.1.1.1 0v-.1h-.1l-.1-.1-.1-.1-.1-.1-.1-.1-.1-.1-.1-.1v-.1l-.1-.2-.3-.2-.2-.2-.2-.2-.2-.1-.2-.2-.1-.1-.1-.2-.1-.1-.1-.1-.1-.1-.1-.1-.1-.1h-.1v-.1l-.1-.1-.1-.1h-.2c0-.1 0-.1-.1-.1.1 0 .1.1.1.1zm-.7.7.1.1.1.1.1.1.1.1.1.1.1.1.1.1.1.1.1.1.1.1.1.1.1.2.2.2.2.2.2.2.2.2.2.2.1.1.1.1.1.1.1.1.1.1.1.1.1.1.1.1.1.1s.1.1.1 0 0-.1 0-.1l-.1-.1-.1-.1-.1-.1-.1-.1-.1-.1-.1-.1-.1-.1-.2-.3-.1-.1-.1-.1-.2-.2-.2-.2-.2-.2-.3-.2-.1-.2-.1-.1-.1-.1-.1-.1-.1-.1-.1-.1-.1-.1-.1-.1-.1-.1h-.1l-.2-.1c.1-.1 0-.1 0 0 0-.1 0 0 0 0zm-.7.6.1.1.1.1.1.1.1.1.1.1.1.1.1.1.1.1.1.1.1.1.1.1.1.1.2.2.2.2.2.2.2.2.2.1.1.1.1.1.1.1.1.1.1.1.1.1.1.1.1.1.1.1h.1s0-.1 0-.1l-.1-.1-.1-.1-.2-.1-.1-.1-.1-.1-.1-.1-.1-.1-.1-.1-.1-.1-.2-.1-.2-.2-.1-.2-.2-.2-.2-.2-.2-.1-.1-.1-.1-.1-.1-.1-.1-.1-.1-.1-.1-.1-.1-.1-.1-.1-.1-.1-.1-.1h-.1c0-.1 0-.1 0 0zm-.6.7.1.1.1.1.1.1.1.1.1.1.1.1.1.1.1.1.1.1.1.1.1.1.1.1.2.2.2.2.2.2.2.2.2.2.1.1.1.1.1.1.1.1.1.1.1.1.1.1.1.1.1.1h.1s0-.1 0-.1l-.1-.1-.1-.1-.1-.1-.1-.1-.1-.1-.1-.1-.2-.2-.1-.1-.1-.1-.1-.2-.2-.2-.2-.2-.3-.2-.2-.2-.1-.1-.1-.1-.1-.1-.1-.1-.1-.1-.1-.1-.1-.1-.1-.1-.1-.1-.1-.1-.1-.1-.1-.1v.2c0-.1 0-.1 0-.1zm-.6.6.1.1.1.1.1.1.1.1.1.1.1.1.1.1.1.1.1.1.1.1.1.1.1.1.2.2.2.2.2.2.2.2.1.1.1.1.1.1.1.1.1.1.1.1.1.1.1.1.1.1.1.1h.1v-.1l-.1-.2-.1-.1-.1-.1-.1-.1-.1-.1-.1-.1h-.1l-.1-.1-.1-.1-.1-.1-.2-.2-.2-.2-.2-.3-.2-.2-.1-.1-.2-.1-.1-.1-.1-.1-.1-.1-.1-.1-.1-.1-.1-.1-.1-.1-.1-.1h-.2c0-.1 0-.1 0 0 0-.1 0 0 0 0zm-11.5 11.1 4.3 4c.2.2.3.1.4 0s.8-.8.9-1 .1-.2 0-.4-.3-.3-.3-.3.4-.4.6-.7c.2-.2.2-.4 0-.5s-3.5-3.3-3.7-3.4c-.1-.1-.2-.1-.4 0-.1.1-1.7 1.8-1.8 1.9-.1.2-.1.3 0 .4z"/></g><path d="m9.4 47.3-.6-.6 1.1-1.1.2.2s-.7.7-.8.8v.1h.1c.1-.1.8-.8.8-.8l.2.2zm-.6-.6.6.6 1-1.1-.2-.2c-.1.1-.7.7-.8.8-.1 0-.1 0-.1 0s-.1-.1 0-.2.7-.8.8-.8l-.2-.2z"/><circle cx="9.9" cy="45.8" r=".1"/><circle cx="10.2" cy="46.2" r=".1"/><path d="m10.1 47.8-.6-.6 1.1-1.1.2.2s-.7.7-.8.9v.1h.1c.1-.1.8-.8.8-.8l.2.2zm-.6-.6.6.6 1.1-1.1-.2-.2c-.1.1-.7.7-.8.8-.1 0-.1 0-.1 0s-.1-.1 0-.2.7-.8.8-.8l-.2-.2z"/><circle cx="10.6" cy="46.3" r=".1"/><circle cx="10.9" cy="46.7" r=".1"/><path d="m10.7 48.3-.6-.6 1.1-1.1.2.2s-.7.7-.8.8v.1s.1 0 .1 0c.2-.1.8-.8.8-.8l.2.2zm-.5-.6.6.6 1.1-1.1-.3-.2c-.1.1-.7.7-.8.8-.1 0-.1 0-.1 0s-.1-.1 0-.2.7-.8.8-.8l-.2-.2z"/><circle cx="11.2" cy="46.8" r=".1"/><circle cx="11.6" cy="47.1" r=".1"/><path d="m11.2 48.9-.6-.6 1.1-1.1.2.2s-.7.7-.8.8v.1h.1c.1-.1.8-.8.8-.9l.2.2zm-.5-.6.6.6 1.1-1.1-.2-.2c-.1.1-.7.7-.8.9-.1 0-.1 0-.1 0s-.1-.1 0-.2.7-.8.8-.8l-.2-.2z"/><circle cx="11.7" cy="47.4" r=".1"/><circle cx="12.1" cy="47.8" r=".1"/><path d="m11.9 49.4-.6-.6 1.1-1.1.2.2s-.7.7-.9.8v.1s.1 0 .1 0c.2-.1.8-.8.9-.9l.2.2zm-.6-.6.6.6 1.1-1.1-.2-.2c-.1.1-.7.7-.8.8-.1 0-.1 0-.1 0s-.1-.1 0-.2c.1-.2.8-.8.8-.8l-.2-.2z"/><circle cx="12.4" cy="47.9" r=".1"/><circle cx="12.8" cy="48.3" r=".1"/><path d="m12.6 49.9-.6-.6 1.1-1.1.2.2s-.7.7-.8.8v.1h.1c.1-.1.8-.8.8-.8l.2.2zm-.6-.6.6.6 1.1-1.1-.2-.2c-.1.1-.7.7-.8.9-.1 0-.1 0-.1 0s-.1-.1 0-.2.7-.8.8-.8l-.4-.2z"/><circle cx="13" cy="48.4" r=".1"/><circle cx="13.4" cy="48.8" r=".1"/><path d="m8.5 46.6c.4.4 3.8 3.7 4.6 4.3z" fill="none" stroke="#000" stroke-width=".5"/><path d="m13.5 49.5 4.4-2.8s.4-.2.6-.4c.6-.7 2.6-2.7 2.9-2.9.3-.3.5.1.3.3-.4.3-2.9 2.9-2.9 2.9s-.1.2-.6.5c-.3.2-3.5 2.2-4.5 2.8-.1.1-.4.2-.5 0s0-.3 0-.4c0-.3.3-.1.3 0 0-.1 0 0 0 0z" fill="#00572c"/><g fill="#fff"><circle cx="25.3" cy="33.4" r=".3"/><circle cx="27" cy="31.7" r=".3"/><circle cx="29.3" cy="28.1" r=".3"/><circle cx="30.6" cy="29.4" r=".3"/><circle cx="33.5" cy="25.2" r=".3"/><circle cx="36.2" cy="22.4" r=".3"/><circle cx="39.3" cy="19.3" r=".3"/><circle cx="42.7" cy="15.8" r=".3"/><path d="m19.9 36.2 26.9-26.5 1.9-2.1.1.1-1.9 2.1zm.5.6 26.8-26.8 3.2-3.3-3.2 3.3zm.5.6 26.7-27 4.6-4.6-4.6 4.6zm.5.5 26.5-27.1 5.9-5.9v.1l-5.8 5.8zm.6.5 26.3-27.2 7.2-7.3-7.2 7.3zm.6.4 26.1-27.2 8.5-8.6-8.5 8.6z"/></g><g clip-path="url(#a)"><path d="m48.3 8.3-38.9 38.4h-.1m39.5-38.2-38.6 38.6h-.1m39.1-38.3-38.6 39h-.1m39.2-38.6-38.5 39.1h-.1m39-38.6-38.2 39.1m38.6-38.7-37.9 39.1h-.1"/></g></svg>