<svg enable-background="new 0 0 60 60" height="60" viewBox="0 0 60 60" width="60" xmlns="http://www.w3.org/2000/svg"><path d="m5.7 60c-1.6 0-2.9-1.3-2.9-2.9v-54.2c0-1.6 1.3-2.9 2.9-2.9h48.4c1.6 0 2.9 1.3 2.9 2.9v54.2c0 1.6-1.3 2.9-2.9 2.9z" fill="#424143"/><path d="m5.7 1.5h48.4c.8 0 1.4.6 1.4 1.4v54.2c0 .8-.6 1.4-1.4 1.4h-48.4c-.8 0-1.4-.6-1.4-1.4v-54.2c0-.8.6-1.4 1.4-1.4z" fill="#249ac1"/><path d="m45 41c-1.5 1.5-2 3.6-1 4.6s3.8 1.3 5.4-.2c1.5-1.5 1.2-4.4.2-5.4s-3.1-.5-4.6 1zm-30.2-30.2c1.5-1.5 2-3.6 1-4.6s-3.8-1.3-5.4.2c-1.5 1.5-1.2 4.4-.2 5.4s3.1.5 4.6-1zm34.8 1c1-1 1.3-3.8-.2-5.4-1.5-1.5-4.4-1.2-5.4-.2s-.6 3 1 4.6c1.5 1.5 3.6 2 4.6 1zm-39.4 28.2c-1 1-1.3 3.8.2 5.4 1.5 1.5 4.4 1.2 5.4.2s.6-3-1-4.6c-1.5-1.5-3.6-2-4.6-1z" fill="#212121"/><path d="m45.4 10.4c8.6 8.6 8.6 22.5 0 31-8.6 8.6-22.5 8.6-31 0-8.6-8.6-8.6-22.5 0-31 8.6-8.6 22.4-8.6 31 0z" fill="#6d6e71"/><path d="m29.9 2.4c13 0 23.5 10.5 23.5 23.5s-10.5 23.5-23.5 23.5-23.5-10.5-23.5-23.5 10.5-23.5 23.5-23.5z" fill="#212121"/><path d="m48.3 18.3c-.3-.8.3-1.9 1.1-2.4-1-1.9-2.3-3.8-4-5.4-1.6-1.6-3.5-3-5.4-4-.5.8-1.6 1.5-2.4 1.1-.8-.3-1.1-1.6-.9-2.5-4.3-1.4-9-1.4-13.3 0 .2 1-.1 2.2-.9 2.6s-2-.3-2.5-1.2c-2 1-3.9 2.4-5.5 4s-2.9 3.4-3.9 5.4c.9.5 1.6 1.6 1.2 2.5s-1.7 1.2-2.7.9c-1.4 4.3-1.4 9 0 13.3 1-.3 2.3 0 2.7.9s-.4 2.1-1.3 2.5c1 2 2.3 3.8 4 5.5 1.6 1.6 3.5 3 5.5 4 .5-.9 1.7-1.6 2.5-1.3.9.4 1.2 1.7.9 2.7 4.3 1.4 9 1.4 13.3 0-.3-1 0-2.3.9-2.7s2 .4 2.5 1.2c1.9-1 3.7-2.3 5.4-3.9 1.7-1.7 3-3.5 4-5.5-.8-.5-1.5-1.6-1.2-2.5.3-.8 1.6-1.1 2.6-.9 1.4-4.3 1.3-9 0-13.3-1.1.1-2.3-.2-2.6-1z" fill="#9e9d9e"/><path d="m29.9 45.4c-5.2 0-10.1-2-13.8-5.7s-5.7-8.6-5.7-13.8 2-10.1 5.7-13.8 8.6-5.7 13.8-5.7 10.1 2 13.8 5.7 5.7 8.6 5.7 13.8-2 10.1-5.7 13.8-8.6 5.7-13.8 5.7zm0-38.5c-5.1 0-9.8 2-13.4 5.6s-5.6 8.3-5.6 13.4 2 9.8 5.6 13.4 8.3 5.6 13.4 5.6 9.8-2 13.4-5.6 5.6-8.3 5.6-13.4-2-9.8-5.6-13.4-8.3-5.6-13.4-5.6z" fill="#59595c"/><path d="m43 12.8c7.2 7.2 7.2 18.9 0 26.2-7.2 7.2-18.9 7.2-26.2 0-7.2-7.2-7.2-18.9 0-26.2 7.2-7.2 19-7.2 26.2 0z" fill="#59595c"/><path d="m42.5 13.3c-6.9-6.9-18.2-6.9-25.2 0-6.9 6.9-6.9 18.2 0 25.2 6.9 6.9 18.2 6.9 25.2 0 6.9-7 6.9-18.2 0-25.2z" fill="#0d0d0d"/><path d="m29.9 43c-4.6 0-8.8-1.8-12.1-5-3.2-3.2-5-7.5-5-12.1s1.8-8.8 5-12.1c3.2-3.2 7.5-5 12.1-5s8.8 1.8 12.1 5c3.2 3.2 5 7.5 5 12.1s-1.8 8.8-5 12.1c-3.3 3.2-7.5 5-12.1 5zm0-33.5c-4.4 0-8.5 1.7-11.6 4.8s-4.8 7.2-4.8 11.6 1.7 8.5 4.8 11.6 7.2 4.8 11.6 4.8 8.5-1.7 11.6-4.8 4.8-7.2 4.8-11.6-1.7-8.5-4.8-11.6-7.2-4.8-11.6-4.8z" fill="#434343"/><path d="m34 21.8c2.3 2.3 2.3 6 0 8.3s-6 2.3-8.3 0-2.3-6 0-8.3c2.4-2.3 6-2.3 8.3 0z" fill="#808184"/><path d="m33.6 22.2c2 2 2 5.4 0 7.4s-5.4 2-7.4 0-2-5.4 0-7.4 5.4-2 7.4 0z" fill="#59595c"/><path d="m33.2 22.6c1.8 1.8 1.8 4.7 0 6.5s-4.7 1.8-6.5 0-1.8-4.7 0-6.5c1.7-1.8 4.7-1.8 6.5 0z" fill="#6d6e71"/><path d="m10.1 16.8c-.4-.2-.9 0-1.1.5-.2.4 0 .9.5 1.1.4.2.9 0 1.1-.5.2-.4 0-.9-.5-1.1zm40.2 16.6c-.4-.2-.9 0-1.1.5-.2.4 0 .9.5 1.1.4.2.9 0 1.1-.5.1-.4-.1-.9-.5-1.1zm-12.4-26.8c.4.2.9 0 1.1-.5.2-.4 0-.9-.5-1.1-.4-.2-.9 0-1.1.5-.1.4.1.9.5 1.1zm-16 38.6c-.4-.2-.9 0-1.1.5-.2.4 0 .9.5 1.1.4.2.9 0 1.1-.5.1-.4-.1-.9-.5-1.1zm-.6-40.2c-.4.2-.6.7-.5 1.1.2.4.7.6 1.1.5.4-.2.6-.7.5-1.1-.2-.4-.7-.6-1.1-.5zm16.6 40.2c-.4.2-.6.7-.5 1.1.2.4.7.6 1.1.5.4-.2.6-.7.5-1.1-.2-.5-.7-.7-1.1-.5zm12.4-26.8c.4-.2.6-.7.5-1.1-.2-.4-.7-.6-1.1-.5-.4.2-.6.7-.5 1.1.2.4.7.6 1.1.5zm-40.8 15c-.4.2-.6.7-.5 1.1.2.4.7.6 1.1.5.4-.2.6-.7.5-1.1-.2-.4-.7-.6-1.1-.5z" fill="#d1d2d3"/><path d="m9.7 16.9-.5.4.1.7.6.3.5-.4-.1-.7zm40.2 16.6-.5.4.1.7.6.3.5-.4-.1-.7zm-12.1-28.2-.3.6.5.6.7-.1.2-.7-.4-.5zm-16.6 40.1-.3.6.4.5.7-.1.3-.6-.4-.5zm.6-38.9.4-.5-.2-.7-.7-.1-.4.5.3.6zm16.2 38.8-.4.5.3.6.7.1.4-.5-.3-.6zm12.5-27.3.1-.7-.5-.4-.6.3-.1.7.5.4zm-41.2 15.8-.1.7.5.4.6-.3.1-.7-.5-.4z" fill="#59595c"/><path d="m48.4 10 .5-1.8-1.3-1.3-1.8.5-.5 1.8 1.3 1.3zm-2.4-2.4c.6-.6 1.5-.6 2.1 0s.6 1.5 0 2.1-1.5.6-2.1 0c-.5-.5-.5-1.5 0-2.1zm2.1.1c-.5-.5-1.4-.5-2 0-.5.6-.5 1.4 0 2 .6.5 1.4.5 2 0 .6-.6.6-1.5 0-2zm-.4 1.8-.4-.4c-.1 0-.3 0-.4 0l-.4.4-.3-.3.4-.4c0-.1 0-.3 0-.4l-.4-.4.3-.3.4.4h.4l.4-.4.3.4-.4.4v.4l.4.4zm-36 32.6c-.5.5-.5 1.4 0 2s1.4.6 2 0c.5-.6.5-1.4 0-2-.6-.5-1.5-.5-2 0zm1.6.2.3.3-.4.4v.4l.4.4-.3.3-.4-.4c-.1 0-.3 0-.4 0l-.4.4-.3-.4.4-.4c0-.1 0-.3 0-.4l-.4-.4.3-.3.4.4h.4zm33.3-1-1.3 1.3.5 1.8 1.8.5 1.3-1.3-.5-1.8zm1.6 2.9c-.6.6-1.5.6-2.1 0s-.6-1.5 0-2.1 1.5-.6 2.1 0c.6.5.6 1.5 0 2.1zm-2.1-2.1c-.5.5-.5 1.4 0 2 .6.6 1.4.6 2 0 .5-.6.5-1.4 0-2-.5-.5-1.4-.5-2 0zm1.6 1.9-.4-.4c-.1 0-.3 0-.4 0l-.4.4-.2-.3.4-.4c0-.1 0-.3 0-.4l-.4-.4.3-.3.4.4h.4l.4-.4.3.3-.4.4v.4l.3.4zm-36.3-2.2-.5 1.8 1.3 1.3 1.8-.5.5-1.8-1.3-1.3zm2.4 2.4c-.6.6-1.5.6-2.1 0s-.6-1.5 0-2.1 1.5-.6 2.1 0c.5.5.5 1.5 0 2.1zm-2.1-36.5c-.5.6-.5 1.4 0 2 .6.5 1.4.5 2 0 .6-.6.6-1.4 0-2s-1.5-.6-2 0zm1.6 1.8-.4-.4c-.1 0-.3 0-.4 0l-.4.4-.3-.3.4-.4c0-.1 0-.3 0-.4l-.4-.4.3-.3.4.4h.4l.4-.4.3.3-.4.4v.4l.4.4zm-1.1-2.6-1.3 1.3.5 1.8 1.8.5 1.3-1.3-.5-1.9zm1.6 2.9c-.6.6-1.5.6-2.1 0s-.6-1.5 0-2.1 1.5-.6 2.1 0c.5.5.5 1.5 0 2.1z" fill="#bcbdbf"/><path d="m15.6 52.4c0 2.9-2.4 5.3-5.3 5.3s-5.3-2.4-5.3-5.3 2.4-5.3 5.3-5.3 5.3 2.4 5.3 5.3z" fill="#6d6e71"/><path d="m14.7 52.4c0 2.4-2 4.4-4.4 4.4s-4.4-2-4.4-4.4 2-4.4 4.4-4.4 4.4 2 4.4 4.4z" fill="#59595c"/><path d="m13.9 52.4c0 2-1.6 3.6-3.6 3.6s-3.6-1.6-3.6-3.6 1.6-3.6 3.6-3.6 3.6 1.6 3.6 3.6z"/><path d="m54.8 52.4c0 2.9-2.4 5.3-5.3 5.3s-5.3-2.4-5.3-5.3 2.4-5.3 5.3-5.3 5.3 2.4 5.3 5.3z" fill="#6d6e71"/><path d="m53.9 52.4c0 2.4-2 4.4-4.4 4.4s-4.4-2-4.4-4.4 2-4.4 4.4-4.4 4.4 2 4.4 4.4z" fill="#59595c"/><path d="m53.1 52.4c0 2-1.6 3.6-3.6 3.6s-3.6-1.6-3.6-3.6 1.6-3.6 3.6-3.6 3.6 1.6 3.6 3.6z"/></svg>