<svg enable-background="new 0 0 60 60" height="60" viewBox="0 0 60 60" width="60" xmlns="http://www.w3.org/2000/svg"><path d="m6.2 60c-2.1 0-3.7-1.7-3.7-3.7v-52.5c0-2.1 1.7-3.7 3.7-3.7h46.8c2.1 0 3.7 1.7 3.7 3.7v52.5c0 2.1-1.7 3.7-3.7 3.7z" fill="#59595c"/><path d="m6.2 59.1c-1.5 0-2.8-1.3-2.8-2.8v-52.6c0-1.5 1.3-2.8 2.8-2.8h46.9c1.5 0 2.8 1.3 2.8 2.8v52.6c0 1.5-1.3 2.8-2.8 2.8z" fill="#424143"/><path d="m6.2 2.3h46.9c.8 0 1.4.6 1.4 1.4v52.6c0 .8-.6 1.4-1.4 1.4h-46.9c-.8 0-1.4-.6-1.4-1.4v-52.6c0-.8.6-1.4 1.4-1.4z" fill="#808184"/><g fill="#6d6e71"><path d="m44.3 40.6c-1.5 1.5-1.9 3.5-.9 4.4 1 1 3.7 1.3 5.2-.2s1.1-4.2.2-5.2c-1-.9-3-.4-4.5 1zm-29.3-29.3c1.5-1.5 1.9-3.5.9-4.4-1-1-3.7-1.3-5.2.2s-1.1 4.2-.2 5.2c1 1 3 .5 4.5-1zm33.7 1c1-1 1.3-3.7-.2-5.2s-4.2-1.1-5.2-.2c-1 1-.5 2.9.9 4.4 1.6 1.5 3.6 2 4.5 1zm-38.1 27.4c-1 1-1.3 3.7.2 5.2s4.2 1.1 5.2.2c1-1 .5-2.9-.9-4.4-1.6-1.5-3.6-2-4.5-1z"/><circle cx="29.7" cy="26" r="21.3"/><path d="m29.6 3.2c12.6 0 22.8 10.2 22.8 22.8.1 12.6-10.2 22.8-22.7 22.8-12.6 0-22.9-10.2-22.9-22.8s10.3-22.8 22.8-22.8z"/></g><path d="m47.5 18.6c-.3-.8.3-1.9 1.1-2.4-1-1.9-2.3-3.7-3.9-5.3s-3.4-2.9-5.3-3.9c-.5.8-1.6 1.4-2.4 1.1s-1.1-1.5-.9-2.5c-4.2-1.3-8.7-1.4-12.9 0 .2.9-.1 2.2-.9 2.5-.8.4-1.8-.3-2.3-1.1-1.9 1-3.7 2.3-5.4 3.9-1.6 1.6-2.8 3.3-3.8 5.2.8.5 1.5 1.6 1.2 2.4s-1.6 1.1-2.6.9c-1.4 4.3-1.4 8.8 0 13 .9-.3 2.3 0 2.6.9.4.9-.4 2-1.2 2.5 1 1.9 2.3 3.7 3.9 5.3s3.4 2.9 5.3 3.9c.5-.8 1.6-1.6 2.5-1.2s1.1 1.7.9 2.6c4.2 1.3 8.7 1.3 13 0-.2-.9 0-2.2.9-2.6.8-.3 1.9.4 2.4 1.2 1.9-1 3.6-2.2 5.2-3.8s2.9-3.4 3.9-5.4c-.8-.5-1.5-1.6-1.1-2.4.3-.8 1.6-1.1 2.5-.9 1.3-4.2 1.3-8.7 0-12.9-1.2.1-2.4-.2-2.7-1z" fill="#acb4b8"/><path d="m29.7 44.9c-5 0-9.8-2-13.3-5.5-3.6-3.6-5.5-8.3-5.5-13.3s2-9.8 5.5-13.3c3.6-3.6 8.3-5.5 13.3-5.5s9.8 2 13.3 5.5c7.4 7.4 7.4 19.3 0 26.7-3.6 3.4-8.3 5.4-13.3 5.4zm0-37.4c-4.9 0-9.6 1.9-13 5.4-3.5 3.5-5.4 8.1-5.4 13s1.9 9.6 5.4 13c3.5 3.5 8.1 5.4 13 5.4s9.6-1.9 13-5.4c7.2-7.2 7.2-18.9 0-26.1-3.5-3.3-8.1-5.3-13-5.3z" fill="#59595c"/><path d="m42.3 13.3c7 7 7 18.4 0 25.4s-18.4 7-25.4 0-7-18.4 0-25.4c7.1-7 18.4-7 25.4 0z" fill="#59595c"/><path d="m41.9 13.8c-6.7-6.7-17.7-6.7-24.4 0s-6.7 17.7 0 24.4 17.7 6.7 24.4 0 6.7-17.7 0-24.4z" fill="#929497"/><path d="m29.7 43.9c-4.8 0-9.3-1.9-12.6-5.2-3.4-3.4-5.2-7.9-5.2-12.6 0-4.8 1.9-9.3 5.2-12.6 3.4-3.4 7.9-5.2 12.6-5.2 4.8 0 9.3 1.9 12.6 5.2 3.4 3.4 5.2 7.9 5.2 12.6s-1.9 9.3-5.2 12.6c-3.4 3.3-7.9 5.2-12.6 5.2zm0-32.5c-3.9 0-7.5 1.5-10.3 4.3-2.8 2.7-4.3 6.4-4.3 10.3s1.5 7.5 4.3 10.3c2.7 2.8 6.4 4.3 10.3 4.3s7.5-1.5 10.3-4.3c2.7-2.7 4.3-6.4 4.3-10.3s-1.5-7.5-4.3-10.3c-2.8-2.7-6.5-4.3-10.3-4.3z" fill="#bcbdbf"/><path d="m33.7 22c2.2 2.2 2.2 5.8 0 8s-5.8 2.2-8 0-2.2-5.8 0-8 5.7-2.2 8 0z" fill="#808184"/><path d="m33.2 22.4c2 2 2 5.2 0 7.2s-5.2 2-7.2 0-2-5.2 0-7.2 5.3-2 7.2 0z" fill="#59595c"/><path d="m32.8 22.8c1.8 1.8 1.8 4.6 0 6.3-1.8 1.8-4.6 1.8-6.3 0-1.8-1.8-1.8-4.6 0-6.3 1.7-1.7 4.6-1.7 6.3 0z" fill="#6d6e71"/><path d="m10.5 17.2c-.4-.2-.9 0-1.1.4s0 .9.4 1.1.9 0 1.1-.4c.2-.5 0-1-.4-1.1zm38.9 16.1c-.4-.2-.9 0-1.1.4s0 .9.4 1.1.9 0 1.1-.4c.3-.4.1-.9-.4-1.1zm-12-26c.4.2.9 0 1.1-.4s0-.9-.4-1.1-.9 0-1.1.4 0 .9.4 1.1zm-15.5 37.4c-.4-.2-.9 0-1.1.4s0 .9.4 1.1.9 0 1.1-.4 0-.9-.4-1.1zm-.6-38.9c-.4.2-.6.6-.4 1.1.2.4.7.6 1.1.4s.6-.7.4-1.1-.7-.6-1.1-.4zm16.1 38.9c-.4.2-.6.7-.4 1.1s.7.6 1.1.4.6-.7.4-1.1-.7-.6-1.1-.4zm12-26c.4-.2.6-.7.4-1.1s-.7-.6-1.1-.4-.6.7-.4 1.1.7.6 1.1.4zm-39.5 14.6c-.4.2-.6.7-.4 1.1s.6.6 1.1.4c.4-.2.6-.7.4-1.1s-.7-.6-1.1-.4z" fill="#d1d2d3"/><path d="m10.1 17.3-.5.4.1.7.6.3.5-.4-.1-.7zm38.9 16.1-.5.4.1.7.6.3.5-.4-.1-.7zm-11.7-27.4-.3.6.4.5.7-.1.3-.6-.4-.5zm-16.1 38.9-.3.6.4.5.7-.1.3-.6-.4-.5zm.6-37.8.4-.5-.2-.6-.7-.1-.4.5.3.6zm15.7 37.8-.4.5.3.6.7.1.4-.5-.3-.6zm12.2-26.6.1-.7-.5-.4-.6.3-.1.7.5.4zm-40.1 15.4-.1.7.5.4.6-.3.1-.7-.5-.4z" fill="#59595c"/><path d="m47.6 10.6.5-1.8-1.3-1.3-1.8.5-.4 1.8 1.3 1.3zm-2.3-2.3c.6-.6 1.5-.6 2.1 0s.6 1.5 0 2.1-1.5.6-2.1 0-.6-1.6 0-2.1zm2 0c-.5-.5-1.4-.5-1.9 0s-.5 1.4 0 1.9 1.4.5 1.9 0 .5-1.3 0-1.9zm-.4 1.8-.4-.4c-.1 0-.3 0-.4 0l-.4.4-.3-.3.4-.4c0-.1 0-.3 0-.4l-.4-.4.3-.3.4.5h.4l.4-.4.3.3-.4.4v.4l.4.4zm-34.9 31.6c-.5.5-.5 1.4 0 1.9s1.4.5 1.9 0 .5-1.4 0-1.9-1.4-.5-1.9 0zm1.5.2.3.3-.4.4v.4l.4.4-.3.3-.4-.4c-.1 0-.3 0-.4 0l-.4.4-.3-.3.4-.4c0-.1 0-.2 0-.4l-.4-.4.3-.3.4.4h.4zm32.4-1-1.3 1.3.5 1.8 1.8.5 1.3-1.3-.5-1.8zm1.5 2.8c-.6.6-1.5.6-2.1 0s-.6-1.5 0-2.1 1.5-.6 2.1 0c.5.6.5 1.6 0 2.1zm-2-2c-.5.5-.5 1.4 0 1.9s1.4.5 1.9 0 .5-1.4 0-1.9-1.4-.5-1.9 0zm1.5 1.8-.4-.4c-.1 0-.3 0-.4 0l-.4.4-.3-.3.4-.4c0-.1 0-.2 0-.4l-.4-.4.3-.3.4.4h.4l.4-.4.3.3-.4.4v.4l.4.4zm-35.2-2.1-.5 1.8 1.3 1.3 1.8-.5.5-1.8-1.3-1.3zm2.3 2.3c-.6.6-1.5.6-2.1 0s-.6-1.5 0-2.1 1.5-.6 2.1 0 .6 1.6 0 2.1zm-2-35.4c-.5.5-.5 1.4 0 1.9s1.4.5 1.9 0 .5-1.4 0-1.9-1.4-.5-1.9 0zm1.5 1.8-.4-.4c-.1 0-.3 0-.4 0l-.4.4-.3-.3.4-.4c0-.1 0-.3 0-.4l-.4-.4.3-.3.5.5h.4l.4-.4.3.3-.4.4v.4l.4.4zm-1-2.6-1.3 1.3.5 1.8 1.8.5 1.2-1.3-.5-1.8zm1.5 2.8c-.6.6-1.5.6-2.1 0s-.6-1.5 0-2.1 1.5-.6 2.1 0 .6 1.6 0 2.1z" fill="#bcbdbf"/><path d="m32.4 24.5c0 .8-.7 1.5-1.5 1.5s-1.5-.7-1.5-1.5.7-1.5 1.5-1.5 1.5.7 1.5 1.5z" fill="#808184"/><path d="m15.8 51.7c0 2.8-2.3 5.1-5.1 5.1s-5.1-2.3-5.1-5.1 2.3-5.1 5.1-5.1 5.1 2.3 5.1 5.1z" fill="#6d6e71"/><path d="m14.9 51.7c0 2.4-1.9 4.3-4.3 4.3s-4.3-1.9-4.3-4.3 1.9-4.3 4.3-4.3 4.3 2 4.3 4.3z" fill="#59595c"/><path d="m14.1 51.7c0 1.9-1.6 3.5-3.5 3.5s-3.5-1.6-3.5-3.5 1.6-3.5 3.5-3.5c2 0 3.5 1.6 3.5 3.5z" fill="#4b4a4d"/><circle cx="48.7" cy="51.7" fill="#6d6e71" r="5.1"/><path d="m52.9 51.7c0 2.4-1.9 4.3-4.3 4.3s-4.3-1.9-4.3-4.3 1.9-4.3 4.3-4.3 4.3 2 4.3 4.3z" fill="#59595c"/><path d="m52.2 51.7c0 1.9-1.6 3.5-3.5 3.5s-3.5-1.6-3.5-3.5 1.6-3.5 3.5-3.5 3.5 1.6 3.5 3.5z" fill="#4b4a4d"/></svg>