<svg height="60" width="60" xmlns="http://www.w3.org/2000/svg"><path d="m59.6 15.23-14.84-14.83c-.55-.54-1.44-.54-2 0l-42.33 42.4c-.54.55-.54 1.44 0 2l14.83 14.8c.55.56 1.44.56 2 0l42.36-42.37c.54-.53.54-1.42 0-1.97zm-12.3-6.1c.47-.45 1.2-.45 1.67 0 .46.47.46 1.2 0 1.67-.46.45-1.2.45-1.66 0-.43-.46-.43-1.2 0-1.66zm-2.8-2.8c.45-.46 1.2-.46 1.65 0 .46.45.46 1.2 0 1.65-.45.46-1.2.46-1.65 0-.46-.46-.46-1.2 0-1.66zm1.82 7.12c-.46.46-1.2.46-1.66 0-.45-.46-.45-1.2 0-1.66.46-.48 1.2-.48 1.66 0 .46.44.46 1.2 0 1.64zm-2.82-2.82c-.46.46-1.2.46-1.65 0-.46-.46-.46-1.2 0-1.66.45-.45 1.2-.45 1.65 0 .46.46.46 1.2 0 1.66zm.17 5.47c-.46.46-1.2.46-1.66 0-.44-.46-.44-1.2 0-1.66.48-.45 1.2-.45 1.68 0s.46 1.2 0 1.66zm-2-12.6c.47-.45 1.2-.45 1.67 0 .45.46.45 1.2 0 1.66-.46.46-1.2.46-1.66 0s-.46-1.2 0-1.65zm-2.64 2.66c.45-.46 1.2-.46 1.65 0 .46.45.46 1.2 0 1.65-.45.48-1.2.48-1.65 0-.46-.43-.46-1.17 0-1.63zm1.82 7.12c-.46.46-1.2.46-1.66 0-.47-.45-.47-1.2 0-1.65.44-.46 1.2-.46 1.64 0 .46.45.46 1.2 0 1.65zm-4.47-4.48c.45-.45 1.2-.45 1.65 0 .46.47.46 1.2 0 1.67-.45.45-1.2.45-1.65 0-.46-.46-.46-1.2 0-1.66zm-3.18 3.2 2.65 2.66.33-.34c.18-.18.48-.18.66 0l.67.67c.2.17.2.47 0 .65l-.3.33 3.3 3.32-.66.66-3.32-3.32-.32.34c-.18.18-.48.18-.66 0l-.67-.67c-.18-.2-.18-.5 0-.66l.34-.33-2.65-2.64.66-.67zm-2.65 2.66 1.32 1.32.33-.33c.2-.18.48-.18.67 0l.66.66c.18.2.18.48 0 .67l-.33.33 4.64 4.63-.66.66-4.64-4.66-.34.33c-.18.2-.48.2-.66 0l-.66-.66c-.18-.17-.18-.47 0-.65l.33-.33-1.3-1.33.66-.67zm-2.65 2.64 2.32 2.3.33-.32c.18-.18.48-.18.66 0l.7.66c.17.18.17.48 0 .66l-.35.33 3.65 3.65-.67.66-3.65-3.64-.33.33c-.18.18-.48.18-.66 0l-.7-.67c-.17-.18-.17-.48 0-.66l.35-.33-2.33-2.32.67-.66zm-2.66 2.64 2.32 2.32.34-.33c.18-.18.48-.18.66 0l.66.66c.18.16.18.46 0 .64l-.33.34 3.63 3.63-.67.68-3.64-3.65-.33.33c-.2.18-.5.18-.68 0l-.66-.66c-.18-.2-.18-.48 0-.67l.33-.33-2.33-2.32.66-.66zm-2.64 2.66 2.97 2.97.34-.33c.2-.18.5-.18.68 0l.66.67c.2.2.2.5 0 .68l-.33.33 3 3-.67.66-2.98-3-.33.34c-.17.18-.47.18-.66 0l-.66-.67c-.18-.18-.18-.48 0-.66l.33-.33-2.97-2.98.66-.67zm-2.66 2.64 3.98 3.98.33-.33c.18-.2.48-.2.66 0l.7.64c.17.2.17.48 0 .67l-.34.34 1.98 2-.66.65-2-2-.32.33c-.18.18-.48.18-.66 0l-.68-.66c-.18-.2-.18-.48 0-.66l.33-.33-3.97-3.97.66-.66zm-4.94 12.9.66-.66c.18-.18.48-.18.66 0l1 1-1.32 1.32-1-1c-.2-.18-.2-.47 0-.66zm-.67-.66c-.18.18-.48.18-.66 0l-1-1 1.33-1.32 1 1c.18.18.18.47 0 .66zm1-3.65 1.32-1.32 1 1c.18.2.18.5 0 .68l-.66.66c-.2.18-.5.18-.7 0l-1-1zm2.65 5.3 1 1c.18.2.18.48 0 .66l-.67.65c-.16.18-.46.18-.64 0l-1-1 1.33-1.31zm.66-1.98-1-1c-.17-.18-.17-.47 0-.66l.67-.68c.2-.2.5-.2.7 0l1 1-1.35 1.32zm-.66-5.97 1.32-1.32 1 1c.18.18.18.47 0 .65l-.66.7c-.2.17-.48.17-.67 0l-1-1zm2.65 5.3 1 1c.18.18.18.48 0 .66l-.67.66c-.18.2-.48.2-.66 0l-1-1zm.66-1.98-1-1c-.2-.18-.2-.48 0-.66l.65-.66c.2-.2.48-.2.67 0l1 1-1.34 1.32zm1.97-.67 1 1c.18.18.18.48 0 .66l-.67.64c-.17.2-.47.2-.65 0l-1-1 1.33-1.32zm-6.96-4.97.68-.66c.17-.2.47-.2.65 0l1 1-1.33 1.32-1-1c-.18-.18-.18-.47 0-.66zm-2.64 2.65.66-.64c.2-.18.48-.18.67 0l1 1-1.35 1.32-1-1c-.17-.18-.17-.48 0-.66zm-2.66 2.69.67-.67c.2-.17.48-.17.67 0l1 1-1.34 1.3-.98-1c-.18-.17-.18-.47 0-.65zm-9.3 9.97c-.2-.2-.2-.48 0-.66l6.63-6.64c.18-.2.48-.2.66 0 .2.18.2.48 0 .66l-6.64 6.64c-.18.18-.48.18-.66 0zm1.33 1.32c-.2-.18-.2-.48 0-.66l6.63-6.62c.18-.18.48-.18.66 0 .18.2.18.48 0 .66l-6.62 6.59c-.18.2-.48.2-.66 0zm1.32 1.33c-.18-.2-.18-.5 0-.67l6.65-6.65c.17-.2.47-.2.65 0 .2.18.2.48 0 .66l-6.63 6.64c-.18.17-.47.17-.66 0zm1.35 1.3c-.2-.2-.2-.48 0-.67l6.62-6.63c.18-.18.48-.18.66 0 .18.2.18.48 0 .66l-6.63 6.62c-.18.18-.48.18-.66 0zm1.3 1.32c-.17-.18-.17-.48 0-.66l6.64-6.63c.2-.2.48-.2.67 0 .2.18.2.48 0 .66l-6.6 6.65c-.2.18-.48.18-.67 0zm1.34 1.33c-.18-.2-.18-.48 0-.67l6.63-6.63c.18-.18.48-.18.66 0 .2.2.2.48 0 .67l-6.63 6.63c-.18.18-.48.18-.66 0zm9.5 6.86-5.95-5.97 1.3-1.32 3.32 3.3 1-1-3.32-3.3.67-.66 3.3 3.3 1-.98-3.3-3.32 1.32-1.32 3.3 3.3 1-.98-3.33-3.32.67-.66 3.3 3.3 1-.98-3.3-3.3.65-.68 3.3 3.32 1-1-3.3-3.3 1.3-1.33 3.33 3.3 1-1-3.32-3.3.67-.66 3.32 3.3 1-.98-3.33-3.34.66-.66 3.3 3.33 1-1-3.3-3.3 1.32-1.34 3.3 3.3 1-1-3.3-3.3.66-.68 3.3 3.32 1-1-3.3-3.3 1.33-1.34 3.3 3.33 1-1-3.3-3.3.65-.67 3.3 3.3 1-.98-3.3-3.32.65-.66 3.3 3.3 1-.98-3.3-3.3 1.32-1.34 3.3 3.32 1-1-3.3-3.3.66-.68 3.3 3.32 1-1-3.3-3.3 1.33-1.34 3.3 3.32 1-1-3.3-3.3.65-.67 3.32 3.3 1-.98-3.32-3.32.66-.66 3.3 3.3 1-1-3.3-3.3 1.32-1.34 3.3 3.3 1-.98-3.3-3.32.66-.67 3.3 3.32 1-1-3.3-3.3 1.32-1.34 5.96 5.96-39.76 39.8z"/></svg>