<svg enable-background="new 0 0 60 60" height="60" viewBox="0 0 60 60" width="60" xmlns="http://www.w3.org/2000/svg"><path d="m1.5 46.5h57v-36h-57z" fill="#ff5a00"/><path d="m1.6 9.1h56.7v2.7h-56.7z" fill="#e6e6e6"/><path d="m58.2 9.3v2.5h-56.4v-2.5zm.3-.3h-57v3h57z"/><path d="m3 40.5h54v9h-54z" fill="#a0b3ba"/><path d="m54 40.5h-42v4.5h42z" fill="#fff"/><path d="m1.5 43.5h10.5l21 1.5 21-1.5h4.5v7.5h-57z" fill="#ff5a00"/><path d="m16.5 40.5h3v-1.5h-3zm30 0h3v-1.5h-3zm-6 0h3v-1.5h-3zm-6 0h3v-1.5h-3zm-12 0h3v-1.5h-3z" fill="#a0b3ba"/><path d="m25.5 15h15v3.7h-15z" fill="#9fc439"/><path d="m54 45.8h-42v-2.3h42z" fill="#a0b3ba"/><path d="m6 42h3v-4.5h-3z" fill="#40494d"/><path d="m6.4 15.4c.6-.6 1.5-.6 2.1 0s.6 1.5 0 2.1-1.5.6-2.1 0c-.5-.5-.5-1.5 0-2.1zm12 18c.6-.6 1.5-.6 2.1 0s.6 1.5 0 2.1-1.5.6-2.1 0c-.5-.5-.5-1.5 0-2.1zm-6 0c.6-.6 1.5-.6 2.1 0s.6 1.5 0 2.1-1.5.6-2.1 0c-.5-.5-.5-1.5 0-2.1zm-6 0c.6-.6 1.5-.6 2.1 0s.6 1.5 0 2.1-1.5.6-2.1 0c-.5-.5-.5-1.5 0-2.1zm12-6c.6-.6 1.5-.6 2.1 0s.6 1.5 0 2.1-1.5.6-2.1 0c-.5-.5-.5-1.5 0-2.1zm-6 0c.6-.6 1.5-.6 2.1 0s.6 1.5 0 2.1-1.5.6-2.1 0c-.5-.5-.5-1.5 0-2.1zm-6 0c.6-.6 1.5-.6 2.1 0s.6 1.5 0 2.1-1.5.6-2.1 0c-.5-.5-.5-1.5 0-2.1zm12-6c.6-.6 1.5-.6 2.1 0s.6 1.5 0 2.1-1.5.6-2.1 0c-.5-.5-.5-1.5 0-2.1zm-6 0c.6-.6 1.5-.6 2.1 0s.6 1.5 0 2.1-1.5.6-2.1 0c-.5-.5-.5-1.5 0-2.1zm-6 0c.6-.6 1.5-.6 2.1 0s.6 1.5 0 2.1-1.5.6-2.1 0c-.5-.5-.5-1.5 0-2.1zm12-6c.6-.6 1.5-.6 2.1 0s.6 1.5 0 2.1-1.5.6-2.1 0c-.5-.5-.5-1.5 0-2.1zm-6 0c.6-.6 1.5-.6 2.1 0s.6 1.5 0 2.1-1.5.6-2.1 0c-.5-.5-.5-1.5 0-2.1z" fill="#222c30"/><path d="m50.9 15.7c.9-.9 2.3-.9 3.2 0s.9 2.3 0 3.2-2.3.9-3.2 0-.9-2.4 0-3.2z" fill="#40494d"/><path d="m45.4 28.9c.6-.6 1.5-.6 2.1 0s.6 1.5 0 2.1-1.5.6-2.1 0c-.5-.5-.5-1.5 0-2.1zm6 4.5c.6-.6 1.5-.6 2.1 0s.6 1.5 0 2.1-1.5.6-2.1 0c-.5-.5-.5-1.5 0-2.1zm-6 0c.6-.6 1.5-.6 2.1 0s.6 1.5 0 2.1-1.5.6-2.1 0c-.5-.5-.5-1.5 0-2.1zm6-9c.6-.6 1.5-.6 2.1 0s.6 1.5 0 2.1-1.5.6-2.1 0c-.5-.5-.5-1.5 0-2.1zm-6 0c.6-.6 1.5-.6 2.1 0s.6 1.5 0 2.1-1.5.6-2.1 0c-.5-.5-.5-1.5 0-2.1zm6 4.5c.6-.6 1.5-.6 2.1 0s.6 1.5 0 2.1-1.5.6-2.1 0c-.5-.5-.5-1.5 0-2.1z" fill="#fff"/><path d="m44.9 15.7c.9-.9 2.3-.9 3.2 0s.9 2.3 0 3.2-2.3.9-3.2 0-.9-2.4 0-3.2z" fill="#40494d"/><path d="m40.5 34.5h-3v1.5h3zm-6 0h-3v1.5h3zm0-13.5h-3v1.5h3zm0 4.5h-3v1.5h3zm0 4.5h-3v1.5h3zm-6 4.5h-3v1.5h3zm0-13.5h-3v1.5h3zm0 4.5h-3v1.5h3zm0 4.5h-3v1.5h3zm12-9h-3v1.5h3zm0 4.5h-3v1.5h3zm0 4.5h-3v1.5h3z" fill="#40494d"/><path d="m52.5 18c-.4 0-.8-.3-.8-.8 0-.4.3-.7.8-.7h2.2c.4 0 .8.3.8.7s-.3.8-.8.8z" fill="#fff"/><path d="m47.2 16.9c.2.4.1.8-.3 1s-.8.1-1-.3l-1.1-1.9c-.2-.4-.1-.8.3-1s.8-.1 1 .3z" fill="#fff"/><path d="m16.5 40.5h3v1.5h-3zm30 0h3v1.5h-3zm-6 0h3v1.5h-3zm-6 0h3v1.5h-3zm-12 0h3v1.5h-3z" fill="#222c30"/><path d="m48 21h-3v1.5h3zm6 0h-3v1.5h3z" fill="#40494d"/><path d="m46 25c.3-.3.8-.3 1.1 0s.3.8 0 1.1-.8.3-1.1 0c-.3-.4-.3-.8 0-1.1zm0 9c.3-.3.8-.3 1.1 0s.3.8 0 1.1-.8.3-1.1 0c-.3-.4-.3-.8 0-1.1zm6 0c.3-.3.8-.3 1.1 0s.3.8 0 1.1-.8.3-1.1 0c-.3-.4-.3-.8 0-1.1zm-6-4.5c.3-.3.8-.3 1.1 0s.3.8 0 1.1-.8.3-1.1 0c-.3-.4-.3-.8 0-1.1zm6 0c.3-.3.8-.3 1.1 0s.3.8 0 1.1-.8.3-1.1 0c-.3-.4-.3-.8 0-1.1zm0-4.5c.3-.3.8-.3 1.1 0s.3.8 0 1.1-.8.3-1.1 0c-.3-.4-.3-.8 0-1.1z" fill="#222c30"/><path d="m27.8 15h2.3l3.8 3.8h-2.3zm3.4 0h1.2l3.8 3.8h-1.2z" fill="#fff"/><path d="m60 9h-3v43.5h3zm-57 0h-3v43.5h3z" fill="#804026"/><path d="m60 42h-3v-3h3zm-57 0h-3v-3h3z" fill="#9e5031"/><path d="m60 10.5h-3v-3h3zm-57 0h-3v-3h3z" fill="#9e5031"/><path d="m54 46.5h-42v-1.5h42z" fill="#647278"/></svg>