<svg enable-background="new 0 0 60 60" height="60" viewBox="0 0 60 60" width="60" xmlns="http://www.w3.org/2000/svg"><path d="m59.6 15.2-14.8-14.8c-.5-.5-1.4-.5-2 0l-42.4 42.4c-.5.5-.5 1.4 0 2l14.8 14.8c.6.6 1.4.6 2 0l42.4-42.4c.6-.5.6-1.4 0-2zm-12.3-6.1c.5-.4 1.2-.4 1.7 0 .5.5.5 1.2 0 1.7-.5.4-1.2.4-1.7 0-.4-.5-.4-1.2 0-1.7zm-2.8-2.8c.5-.5 1.2-.5 1.7 0 .5.4.5 1.2 0 1.7s-1.2.5-1.7 0-.5-1.2 0-1.7zm1.8 7.1c-.5.5-1.2.5-1.7 0s-.5-1.2 0-1.7 1.2-.5 1.7 0 .5 1.3 0 1.7zm-2.8-2.8c-.5.5-1.2.5-1.7 0s-.5-1.2 0-1.7c.5-.4 1.2-.4 1.7 0 .5.5.5 1.3 0 1.7zm.2 5.5c-.5.5-1.2.5-1.7 0-.4-.5-.4-1.2 0-1.7.5-.4 1.2-.4 1.7 0s.4 1.2 0 1.7zm-2-12.6c.5-.5 1.2-.5 1.7 0s.5 1.2 0 1.7-1.2.5-1.7 0-.5-1.2 0-1.7zm-2.7 2.7c.5-.5 1.2-.5 1.7 0 .5.4.5 1.2 0 1.7s-1.2.5-1.7 0c-.4-.5-.4-1.3 0-1.7zm1.8 7.1c-.5.5-1.2.5-1.7 0-.5-.4-.5-1.2 0-1.6.4-.5 1.2-.5 1.6 0 .6.4.6 1.1.1 1.6zm-4.4-4.5c.5-.4 1.2-.4 1.7 0 .5.5.5 1.2 0 1.7-.5.4-1.2.4-1.7 0-.5-.5-.5-1.2 0-1.7zm-3.2 3.2 2.7 2.7.3-.3c.2-.2.5-.2.7 0l.7.7c.2.2.2.5 0 .6l-.4.3 3.3 3.3-.7.7-3.3-3.3-.3.3c-.2.2-.5.2-.7 0l-.7-.7c-.2-.2-.2-.5 0-.7l.3-.3-2.7-2.6zm-2.6 2.7 1.3 1.3.3-.3c.2-.2.5-.2.7 0l.7.7c.2.2.2.5 0 .7l-.3.3 4.6 4.6-.7.7-4.6-4.7-.3.3c-.2.2-.5.2-.7 0l-.7-.7c-.2-.2-.2-.5 0-.6l.3-.3-1.3-1.3zm-2.7 2.6 2.3 2.3.3-.3c.2-.2.5-.2.7 0l.7.7c.2.2.2.5 0 .7l-.4.3 3.6 3.6-.7.7-3.6-3.6-.3.3c-.2.2-.5.2-.7 0l-.7-.7c-.2-.2-.2-.5 0-.7l.4-.3-2.3-2.3zm-2.7 2.6 2.3 2.3.3-.3c.2-.2.5-.2.7 0l.7.7c.2.2.2.5 0 .6l-.3.3 3.6 3.6-.7.7-3.6-3.6-.3.3c-.2.2-.5.2-.7 0l-.7-.7c-.2-.2-.2-.5 0-.7l.3-.3-2.3-2.3zm-2.6 2.7 3 3 .3-.3c.2-.2.5-.2.7 0l.7.7c.2.2.2.5 0 .7l-.3.3 3 3-.7.7-3-3-.3.3c-.2.2-.5.2-.7 0l-.7-.7c-.2-.2-.2-.5 0-.7l.3-.3-3-3zm-2.7 2.6 4 4 .3-.3c.2-.2.5-.2.7 0l.7.6c.2.2.2.5 0 .7l-.3.3 2 2-.7.7-2-2-.3.3c-.2.2-.5.2-.7 0l-.7-.7c-.2-.2-.2-.5 0-.7l.3-.3-4-4zm-4.9 12.9.7-.7c.2-.2.5-.2.7 0l1 1-1.4 1.4-1-1c-.2-.2-.2-.5 0-.7zm-.7-.6c-.2.2-.5.2-.7 0l-1-1 1.3-1.3 1 1c.2.2.2.5 0 .7zm1-3.7 1.3-1.3 1 1c.2.2.2.5 0 .7l-.6.6c-.2.2-.5.2-.7 0zm2.7 5.3 1 1c.2.2.2.5 0 .7l-.7.7c-.2.2-.5.2-.6 0l-1-1zm.6-2-1-1c-.2-.2-.2-.5 0-.7l.7-.7c.2-.2.5-.2.7 0l1 1zm-.6-5.9 1.3-1.3 1 1c.2.2.2.5 0 .6l-.7.7c-.2.2-.5.2-.7 0zm2.6 5.3 1 1c.2.2.2.5 0 .7l-.6.6c-.2.2-.5.2-.7 0l-1-1zm.7-2-1-1c-.2-.2-.2-.5 0-.7l.6-.7c.2-.2.5-.2.7 0l1 1zm2-.7 1 1c.2.2.2.5 0 .7l-.7.6c-.2.2-.5.2-.6 0l-1-1zm-7-4.9.7-.7c.2-.2.5-.2.6 0l1 1-1.3 1.3-1-1c-.2-.2-.2-.4 0-.6zm-2.6 2.6.7-.6c.2-.2.5-.2.7 0l1 1-1.4 1.3-1-1c-.2-.2-.2-.5 0-.7zm-2.7 2.7.7-.7c.2-.2.5-.2.7 0l1 1-1.4 1.3-1-1c-.2-.1-.2-.4 0-.6zm-9.3 10c-.2-.2-.2-.5 0-.7l6.6-6.6c.2-.2.5-.2.7 0s.2.5 0 .7l-6.6 6.6c-.2.2-.5.2-.7 0zm1.3 1.3c-.2-.2-.2-.5 0-.7l6.6-6.6c.2-.2.5-.2.7 0s.2.5 0 .7l-6.6 6.6c-.2.2-.5.2-.7 0zm1.3 1.3c-.2-.2-.2-.5 0-.7l6.7-6.7c.2-.2.5-.2.6 0 .2.2.2.5 0 .7l-6.6 6.7c-.2.2-.4.2-.7 0zm1.4 1.3c-.2-.2-.2-.5 0-.7l6.6-6.6c.2-.2.5-.2.7 0s.2.5 0 .7l-6.6 6.6c-.2.2-.5.2-.7 0zm1.3 1.3c-.2-.2-.2-.5 0-.7l6.6-6.6c.2-.2.5-.2.7 0s.2.5 0 .7l-6.6 6.7c-.2.1-.5.1-.7-.1zm1.3 1.4c-.2-.2-.2-.5 0-.7l6.6-6.6c.2-.2.5-.2.7 0s.2.5 0 .7l-6.6 6.6c-.2.2-.5.2-.7 0zm9.5 6.8-5.9-6 1.3-1.3 3.3 3.3 1-1-3.3-3.3.7-.7 3.3 3.3 1-1-3.3-3.3 1.3-1.3 3.3 3.3 1-1-3.3-3.3.7-.7 3.3 3.3 1-1-3.3-3.3.6-.7 3.3 3.3 1-1-3.3-3.3 1.3-1.3 3.3 3.3 1-1-3.3-3.3.7-.7 3.3 3.3 1-1-3.4-3.2.7-.7 3.3 3.3 1-1-3.3-3.3 1.3-1.3 3.3 3.3 1-1-3.3-3.3.7-.7 3.3 3.3 1-1-3.3-3.3 1.3-1.3 3.3 3.3 1-1-3.3-3.3.7-.7 3.3 3.3 1-1-3.3-3.3.7-.7 3.3 3.3 1-1-3.3-3.3 1.3-1.3 3.3 3.3 1-1-3.4-3.1.7-.7 3.3 3.3 1-1-3.3-3.3 1.3-1.3 3.3 3.3 1-1-3.3-3.3.7-.7 3.3 3.3 1-1-3.3-3.3.7-.7 3.3 3.3 1-1-3.3-3.3 1.3-1.3 3.3 3.3 1-1-3.3-3.3.7-.7 3.3 3.3 1-1-3.3-3.3 1.3-1.3 6 6z" fill="#063e89"/></svg>