<svg enable-background="new 0 0 60 60" height="60" viewBox="0 0 60 60" width="60" xmlns="http://www.w3.org/2000/svg"><path d="m56.7 17.3c0-2.3-1.9-4.2-4.2-4.2-.5 0-.9.1-1.3.2 1.7 2.2 3.1 4.6 4.1 7.2.9-.8 1.5-1.9 1.4-3.2zm-30.8 39.4c.4 1.9 2.1 3.3 4.1 3.3s3.7-1.4 4.1-3.3c-1.3.2-2.7.3-4.1.3s-2.8-.1-4.1-.3zm-12.8-4.2c0 2.3 1.9 4.2 4.2 4.2 1.3 0 2.4-.6 3.2-1.5-2.6-1-5-2.4-7.2-4.1-.1.5-.2 1-.2 1.4zm43.6-26.6c.2 1.4.3 2.7.3 4.1s-.1 2.8-.3 4.1c1.9-.4 3.3-2.1 3.3-4.1s-1.4-3.7-3.3-4.1zm-53.4 16.8c0 2.3 1.9 4.2 4.2 4.2.4 0 .9-.1 1.3-.2-1.7-2.2-3.1-4.6-4.1-7.2-.9.7-1.5 1.9-1.4 3.2zm36.5 12.4c.8 1 2 1.6 3.3 1.6 2.3 0 4.2-1.9 4.2-4.2 0-.6-.1-1.1-.3-1.6-2.2 1.8-4.6 3.2-7.2 4.2zm-5.7-51.8c-.4-1.9-2.1-3.3-4.1-3.3s-3.7 1.4-4.1 3.3c1.3-.2 2.7-.3 4.1-.3s2.8.1 4.1.3zm12.8 4.2c0-2.3-1.9-4.2-4.2-4.2-1.3 0-2.4.6-3.2 1.5 2.6 1 5 2.4 7.2 4.1.1-.5.2-.9.2-1.4zm-43.9 22.5c0-1.4.1-2.8.3-4.1-1.9.4-3.3 2.1-3.3 4.1s1.4 3.7 3.3 4.1c-.2-1.3-.3-2.7-.3-4.1zm1.9-9.8c1-2.6 2.5-5.1 4.2-7.2-.5-.2-1-.3-1.6-.3-2.3 0-4.2 1.9-4.2 4.2 0 1.3.6 2.5 1.6 3.3zm15.3-15.3c-.8-1-2-1.6-3.3-1.6-2.3 0-4.2 1.9-4.2 4.2 0 .6.1 1.1.3 1.6 2.1-1.7 4.5-3.2 7.2-4.2zm9.8-.9c-14.4 0-26 11.6-26 26s11.7 26 26 26 26-11.6 26-26-11.6-26-26-26zm12.2 4c.1-.2.4-.3.6-.2s.3.4.2.7c-.1.2-.4.3-.7.2-.2-.2-.2-.5-.1-.7zm-12.2-3.6c.3 0 .5.2.5.5s-.2.4-.5.4-.5-.2-.5-.5.2-.4.5-.4zm-12.8 3.4c.2-.1.5 0 .6.2s0 .5-.2.6-.5.1-.6-.2c-.1-.2 0-.5.2-.6zm-9.4 9.4c.1-.2.4-.3.7-.2.2.1.3.4.2.6-.2.3-.5.4-.7.2-.2-.1-.3-.4-.2-.6zm-2.9 13.3c-.3 0-.5-.2-.5-.5s.2-.5.5-.5.5.2.5.5c-.1.2-.3.4-.5.5zm3.6 12.5c-.3.1-.5 0-.7-.2-.1-.2 0-.5.2-.6s.5 0 .6.2c.2.2.1.4-.1.6zm9.3 9c-.1.2-.4.3-.6.2-.2-.2-.3-.4-.2-.7s.4-.3.6-.2c.3.2.4.5.2.7zm12.2 3.6c-.3 0-.5-.2-.5-.5s.2-.5.5-.5.5.2.5.5-.2.5-.5.5zm12.8-3.4c-.2.1-.5 0-.6-.2s0-.5.2-.6.5-.1.6.2 0 .4-.2.6zm12.4-22.7c.3 0 .5.2.5.5 0 .2-.2.5-.5.5s-.5-.2-.5-.5.2-.5.5-.5zm-25.2 24.7c-13.3 0-24.1-10.9-24.1-24.2s10.8-24.1 24.1-24.1 24.2 10.8 24.2 24.1-10.9 24.2-24.2 24.2zm21.6-37.2c.2-.1.5 0 .6.2s0 .5-.2.6-.5 0-.6-.2c-.2-.2-.1-.5.2-.6z" fill="#063e89"/></svg>