<svg xmlns="http://www.w3.org/2000/svg" width="60" height="60"><path d="M56.74 17.3c0-2.33-1.9-4.22-4.23-4.22-.45 0-.9.08-1.32.22 1.7 2.16 3.1 4.6 4.08 7.2.9-.76 1.5-1.9 1.5-3.2zM25.87 56.66c.4 1.9 2.1 3.34 4.13 3.34s3.73-1.43 4.13-3.34c-1.35.2-2.73.3-4.13.3s-2.78-.1-4.13-.3zM13.1 52.54c0 2.33 1.9 4.22 4.24 4.22 1.3 0 2.44-.58 3.2-1.5-2.6-.97-5.04-2.36-7.2-4.06-.15.42-.23.87-.23 1.34zm43.56-26.67c.2 1.35.3 2.73.3 4.13s-.1 2.78-.3 4.13c1.9-.4 3.34-2.1 3.34-4.13s-1.43-3.72-3.34-4.13zM3.26 42.7c0 2.32 1.9 4.2 4.23 4.2.44 0 .9-.07 1.3-.2-1.7-2.17-3.1-4.6-4.06-7.22-.9.77-1.5 1.92-1.5 3.2zm36.5 12.44c.78.97 1.98 1.6 3.3 1.6 2.35 0 4.24-1.9 4.24-4.22 0-.56-.1-1.1-.3-1.58-2.16 1.75-4.6 3.18-7.23 4.2zm-5.63-51.8C33.73 1.44 32.03 0 30 0s-3.72 1.43-4.13 3.34c1.35-.2 2.73-.3 4.13-.3s2.78.1 4.13.3zM46.9 7.5c0-2.35-1.9-4.24-4.23-4.24-1.3 0-2.43.58-3.2 1.48 2.6.98 5.04 2.36 7.2 4.07.14-.4.22-.84.22-1.3zM3.03 30c0-1.4.1-2.78.3-4.13C1.43 26.27 0 27.97 0 30s1.43 3.72 3.34 4.13c-.2-1.35-.3-2.73-.3-4.13zm1.84-9.8c1.03-2.63 2.46-5.06 4.2-7.22-.48-.2-1.02-.32-1.6-.32-2.32 0-4.2 1.9-4.2 4.23 0 1.32.63 2.52 1.6 3.3zm15.3-15.32c-.77-.97-1.96-1.6-3.3-1.6-2.34 0-4.23 1.9-4.23 4.23 0 .58.12 1.1.32 1.6 2.15-1.75 4.58-3.17 7.2-4.2zm9.85-.9C15.64 3.98 3.98 15.64 3.98 30c0 14.4 11.66 26.05 26.04 26.05C44.4 56.05 56.05 44.4 56.05 30c0-14.35-11.65-26-26.03-26zm12.15 4c.13-.22.42-.3.64-.17s.3.44.2.66c-.14.23-.4.3-.65.17-.22-.13-.3-.4-.17-.64zM30 4.38c.26 0 .47.2.47.47s-.2.47-.47.47c-.26 0-.47-.2-.47-.47s.2-.47.47-.47zM17.2 7.8c.2-.12.5-.04.63.18.13.23.05.5-.17.64-.23.13-.5.06-.64-.17-.13-.22-.05-.5.17-.64zm-9.4 9.4c.14-.24.43-.3.65-.18.23.13.3.4.17.64-.12.22-.4.3-.64.17-.22-.13-.3-.42-.17-.64zM4.86 30.46c-.26 0-.47-.2-.47-.47 0-.27.2-.48.46-.48s.47.2.47.47c0 .25-.2.46-.47.46zm3.6 12.5c-.22.14-.5.07-.64-.16-.12-.2-.04-.5.18-.63.23-.13.5-.05.64.17.13.23.06.5-.17.64zM17.84 52c-.13.23-.42.3-.64.18-.24-.14-.3-.43-.18-.65s.4-.3.64-.17c.22.13.3.4.17.64zM30 55.63c-.26 0-.47-.2-.47-.47s.2-.47.47-.47c.26 0 .47.2.47.47s-.2.47-.47.47zm12.8-3.43c-.2.1-.5.03-.63-.2-.13-.22-.05-.5.17-.63.23-.13.5-.06.64.17s.06.5-.17.64zM55.15 29.5c.26 0 .47.2.47.47 0 .25-.2.46-.47.46-.26 0-.47-.2-.47-.47 0-.27.22-.48.47-.48zM30.02 54.17C16.7 54.17 5.86 43.33 5.86 30S16.7 5.87 30.02 5.87 54.17 16.7 54.17 30 43.34 54.18 30.02 54.18zm21.53-37.15c.22-.13.5-.05.64.17.1.2.03.5-.2.62-.22.13-.5.05-.63-.17-.13-.23-.06-.5.17-.64z"/></svg>