<svg enable-background="new 0 0 60 60" height="60" viewBox="0 0 60 60" width="60" xmlns="http://www.w3.org/2000/svg"><path d="m59.5 44.5h-59c-.3 0-.5-.2-.5-.5v-27.9c0-.3.2-.5.5-.5h58.9c.3 0 .5.2.5.5v27.8c.1.3-.1.6-.4.6z" fill="#00572c"/><path d="m7.3 30.6h45.3v11.4h-45.3z" fill="#ebebed"/><path d="m52.6 42h-45.3v-11.4h45.3zm-45.3 0h45.3v-11.4h-45.3z" fill="#a4a4a5"/><circle cx="22.1" cy="18.3" fill="#938e94" r="1.4"/><circle cx="26.6" cy="18.3" fill="#938e94" r="1.4"/><ellipse cx="31.1" cy="18.3" fill="#938e94" rx="1.4" ry="1.4"/><circle cx="35.6" cy="18.3" fill="#938e94" r="1.4"/><circle cx="40" cy="18.3" fill="#938e94" r="1.4"/><circle cx="52.4" cy="25.6" fill="#828187" r="2.2"/><path d="m52.4 27.8c-1.2 0-2.2-1-2.2-2.2s1-2.2 2.2-2.2 2.2 1 2.2 2.2-1 2.2-2.2 2.2zm0-4.4c-1.2 0-2.2 1-2.2 2.2s1 2.2 2.2 2.2 2.2-1 2.2-2.2-1-2.2-2.2-2.2z" fill="#8e8e8e"/><circle cx="52.4" cy="25.6" fill="#acaaaf" r="1.7"/><path d="m52.3 23.8.1 1.1h-.1z" fill="#9e9ba4"/><circle cx="26.6" cy="25.7" fill="#9e9ba4" r="1.9"/><circle cx="26.6" cy="25.7" fill="#d4d2d9" r="1.8"/><path d="m26.6 23.9h.1v.8h-.1z" fill="#9e9ba4"/><circle cx="17.5" cy="25.7" fill="#9e9ba4" r="1.9"/><circle cx="17.5" cy="25.7" fill="#d4d2d9" r="1.8"/><path d="m17.5 23.9h.1v.8h-.1z" fill="#9e9ba4"/><path d="m.3 20.7h59.3v.2h-59.3z" fill="#939393"/><path d="m0 29.5h59.7v.2h-59.7z" fill="#939393"/><g fill="#a0a0ab"><path d="m37.1 38.8v-2.1c0-.1 0-.1.1-.1h.9c.1 0 .1 0 .1.1v2.1c0 .1 0 .1-.1.1z"/><path d="m33.8 38.8v-2.1c0-.1 0-.1.1-.1h.9c.1 0 .1 0 .1.1v2.1c0 .1 0 .1-.1.1z"/><path d="m30.5 38.8v-2.1c0-.1 0-.1.1-.1h.9c.1 0 .1 0 .1.1v2.1c0 .1 0 .1-.1.1z"/><path d="m27.3 38.8v-2.1c0-.1 0-.1.1-.1h.9c.1 0 .1 0 .1.1v2.1c0 .1 0 .1-.1.1z"/><path d="m24 38.8v-2.1c0-.1 0-.1.1-.1h.9c.1 0 .1 0 .1.1v2.1c0 .1 0 .1-.1.1z"/><path d="m20.7 38.8v-2.1c0-.1 0-.1.1-.1h.9c.1 0 .1 0 .1.1v2.1c0 .1 0 .1-.1.1z"/><path d="m17.6 38.8v-2.1c0-.1 0-.1.1-.1h.9c.1 0 .1 0 .1.1v2.1c0 .1 0 .1-.1.1z"/><path d="m14.2 38.8v-2.1c0-.1 0-.1.1-.1h.9c.1 0 .1 0 .1.1v2.1c0 .1 0 .1-.1.1z"/><path d="m8.3 38.7v-2.1c0-.1 0-.1.1-.1h.9c.1 0 .1 0 .1.1v2.1c0 .1 0 .1-.1.1l-1-.1c0 .1 0 .1 0 0z"/><path d="m40.5 38.8v-2.1c0-.1 0-.1.1-.1h.9c.1 0 .1 0 .1.1v2.1c0 .1 0 .1-.1.1z"/><path d="m43.8 38.8v-2.1c0-.1 0-.1.1-.1h.9c.1 0 .1 0 .1.1v2.1c0 .1 0 .1-.1.1z"/><path d="m47.1 38.8v-2.1c0-.1 0-.1.1-.1h.9c.1 0 .1 0 .1.1v2.1c0 .1 0 .1-.1.1z"/><path d="m50.4 38.8v-2.1c0-.1 0-.1.1-.1h.9c.1 0 .1 0 .1.1v2.1c0 .1 0 .1-.1.1z"/></g><circle cx="11.9" cy="35.7" fill="#d74f39" r=".3"/><circle cx="14.8" cy="35.7" fill="#d74f39" r=".3"/><circle cx="18.1" cy="35.7" fill="#d74f39" r=".3"/><circle cx="21.3" cy="35.7" fill="#d74f39" r=".3"/><circle cx="24.6" cy="35.7" fill="#d74f39" r=".3"/><circle cx="27.9" cy="35.7" fill="#d74f39" r=".3"/><circle cx="31.1" cy="35.7" fill="#d74f39" r=".3"/><circle cx="34.4" cy="35.7" fill="#d74f39" r=".3"/><circle cx="37.6" cy="35.7" fill="#d74f39" r=".3"/><circle cx="41.1" cy="35.7" fill="#d74f39" r=".3"/><circle cx="44.4" cy="35.7" fill="#d74f39" r=".3"/><circle cx="47.6" cy="35.7" fill="#d74f39" r=".3"/><circle cx="50.9" cy="35.7" fill="#d74f39" r=".3"/><path d="m12.9 39.4v-1.5s0-.1-.1-.1h-2.3s-.1 0-.1.1v2.8s0 .1.1.1h2.1.2 26.5s.1 0 .1-.1v-1.1s0-.1-.1-.1l-26.4-.1c.1.1 0 0 0 0z" fill="#272021"/><path d="m46 39.4h6.6v1.2h-6.6z" fill="#272021"/><path d="m17.2 36h-1.6c-.1 0-.1-.1-.1-.1v-4.4h1.9v4.4c0 .1-.1.1-.2.1z" fill="#272021"/><path d="m15.9 34.9v-2.1c0-.1 0-.1.1-.1h.9c.1 0 .1 0 .1.1v2.1c0 .1 0 .1-.1.1l-1-.1c0 .1 0 .1 0 0z" fill="#a0a0ab"/><circle cx="16.4" cy="31.9" fill="#d74f39" r=".3"/><path d="m20.5 36h-1.6c-.1 0-.1-.1-.1-.1v-4.4h1.9v4.4c-.1.1-.2.1-.2.1z" fill="#272021"/><path d="m19.1 34.9v-2.1c0-.1 0-.1.1-.1h.9c.1 0 .1 0 .1.1v2.1c0 .1 0 .1-.1.1l-1-.1c0 .1 0 .1 0 0z" fill="#a0a0ab"/><circle cx="19.7" cy="31.9" fill="#d74f39" r=".3"/><path d="m26.9 36h-1.6c-.1 0-.1-.1-.1-.1v-4.4h1.9v4.4c0 .1-.1.1-.2.1z" fill="#272021"/><path d="m25.6 34.9v-2.1c0-.1 0-.1.1-.1h.9c.1 0 .1 0 .1.1v2.1c0 .1 0 .1-.1.1l-1-.1c0 .1 0 .1 0 0z" fill="#a0a0ab"/><circle cx="26.1" cy="31.9" fill="#d74f39" r=".3"/><path d="m30.3 36h-1.6c-.1 0-.1-.1-.1-.1v-4.4h1.9v4.4c-.1.1-.1.1-.2.1z" fill="#272021"/><path d="m28.9 34.9v-2.1c0-.1 0-.1.1-.1h1c.1 0 .1 0 .1.1v2.1c0 .1 0 .1-.1.1l-1.1-.1c.1.1 0 .1 0 0z" fill="#a0a0ab"/><circle cx="29.5" cy="31.9" fill="#d74f39" r=".3"/><path d="m33.6 36h-1.6c-.1 0-.1-.1-.1-.1v-4.4h1.9v4.4c-.1.1-.2.1-.2.1z" fill="#272021"/><path d="m32.2 34.9v-2.1c0-.1 0-.1.1-.1h.9c.1 0 .1 0 .1.1v2.1c0 .1 0 .1-.1.1l-1-.1c.1.1 0 .1 0 0z" fill="#a0a0ab"/><circle cx="32.8" cy="31.9" fill="#d74f39" r=".3"/><path d="m1.4 30.5h5.7v4.4h-5.7z" fill="#ebebed"/><path d="m7.1 34.9h-5.7v-4.4h5.7zm-5.7 0h5.7v-4.4h-5.7z" fill="#a4a4a5"/><path d="m5.3 34.2h-2.1c-.1 0-.1 0-.1-.1v-.9c0-.1 0-.1.1-.1h2.1c.1 0 .1 0 .1.1z" fill="#a0a0ab"/><path d="m1.4 35.1h5.7v6.9h-5.7z" fill="#ebebed"/><path d="m7.1 42h-5.7v-6.9h5.7zm-5.7 0h5.7v-6.9h-5.7z" fill="#a4a4a5"/><path d="m5.9 38.8h-3.4c-.1 0-.1 0-.1-.1v-2.1c0-.1 0-.1.1-.1h3.4c.1 0 .1 0 .1.1l-.1 2.2c.1 0 .1 0 0 0z" fill="#a0a0ab"/><circle cx="4.2" cy="35.7" fill="#d74f39" r=".3"/><path d="m52.7 35.1h5.8v6.9h-5.8z" fill="#ebebed"/><path d="m58.5 42h-5.8v-6.9h5.8zm-5.8 0h5.8v-6.9h-5.8z" fill="#a4a4a5"/><path d="m57.4 38.8h-3.4c-.1 0-.1 0-.1-.1v-2.2c0-.1 0-.1.1-.1h3.4c.1 0 .1 0 .1.1l-.1 2.3c.1 0 .1 0 0 0z" fill="#a0a0ab"/><path d="m52.7 30.6h5.8v4.3h-5.8z" fill="#ebebed"/><path d="m58.5 34.9h-5.8v-4.3h5.8zm-5.8 0h5.8v-4.3h-5.8z" fill="#a4a4a5"/><path d="m56.8 34.2h-2.1c-.1 0-.1 0-.1-.1v-.9c0-.1 0-.1.1-.1h2.1c.1 0 .1 0 .1.1z" fill="#a0a0ab"/><path d="m51.7 33.4h-2.1c-.1 0-.1 0-.1-.1v-.9c0-.1 0-.1.1-.1h2.1c.1 0 .1 0 .1.1l-.1 1c.1-.1.1 0 0 0z" fill="#a0a0ab"/><circle cx="46" cy="31.8" fill="#d74f39" r=".3"/><path d="m40 33.7v-2.4-.8h-.5-26.5-.8-4.9v4.4h5.7v-3.6h26.5v3.6h.4.1 12.6v-1.2z" fill="#272021"/><path d="m11.2 34.2h-2.1c-.1 0-.1 0-.1-.1v-.9c0-.1 0-.1.1-.1h2.1c.1 0 .1 0 .1.1z" fill="#a0a0ab"/><circle cx="10.1" cy="32" fill="#d74f39" r=".3"/><circle cx="17.6" cy="18.4" fill="#7d7d7f" r="1.4"/><circle cx="17.6" cy="18.4" fill="#acaaaf" r=".9"/><path d="m17.6 17.4h.1v.4h-.1z"/><circle cx="22.1" cy="18.3" fill="#7d7d7f" r="1.4"/><circle cx="22.1" cy="18.3" fill="#acaaaf" r=".9"/><path d="m22 17.4h.1v.4h-.1z"/><circle cx="26.6" cy="18.3" fill="#7d7d7f" r="1.4"/><circle cx="26.6" cy="18.3" fill="#acaaaf" r=".9"/><path d="m26.5 17.4h.1v.4h-.1z"/><ellipse cx="31.1" cy="18.3" fill="#7d7d7f" rx="1.4" ry="1.4"/><circle cx="31.1" cy="18.3" fill="#acaaaf" r=".9"/><path d="m31 17.4h.1v.4h-.1z"/><circle cx="35.6" cy="18.3" fill="#7d7d7f" r="1.4"/><circle cx="35.6" cy="18.3" fill="#acaaaf" r=".9"/><path d="m35.5 17.4.1.4h-.1z"/><circle cx="40" cy="18.3" fill="#7d7d7f" r="1.4"/><circle cx="40" cy="18.3" fill="#acaaaf" r=".9"/><path d="m40 17.4.1.4h-.1z"/><circle cx="8.8" cy="25.7" fill="#828187" r="2.2"/><path d="m8.8 27.9c-1.2 0-2.2-1-2.2-2.2s1-2.2 2.2-2.2 2.2 1 2.2 2.2-1 2.2-2.2 2.2zm0-4.4c-1.2 0-2.2 1-2.2 2.2s1 2.2 2.2 2.2 2.2-1 2.2-2.2-1-2.2-2.2-2.2z" fill="#8e8e8e"/><circle cx="8.8" cy="25.7" fill="#acaaaf" r="1.7"/><path d="m8.7 23.9h.1v1.1h-.1z"/></svg>