<svg height="60" width="60" xmlns="http://www.w3.org/2000/svg"><path d="m25.82 33.27c-.12-.52-.56-2-.56-2s-.04.16-.63.27c-.6.1-.82-.4-.94-.88-.13-.48-.42-2.2-1.8-3.64-1.3-1.33-3.36-1.38-5.17.5-1.97 2.07-1.87 3.64-2.95 5.4-1.35 2.2-2.98 2.64-4.5 3.15-2.02.67-5.26 1.7-7.55 4.2-2.32 2.55-2.1 6.2-.58 8.3 1.7 2.35 6.64 7.44 9.8 9.35 3.32 2.02 8.32.88 10.6-3.84 2.33-4.84 1.8-6.43 4.33-8.28 2.02-1.48 6.13-1.7 7.34-5.45.48-1.5-1-2.3-2.2-1.57-1.02.64-1.54.9-2.95 1.06-2.18.27-3.24-1.27-2.6-2.7.76-1.7.62-2.66.35-3.87z"/><path d="m13.8 40.7s.2-.23.3-.32c.22-.2.45-.14.6.02.12.12 3.9 3.82 4.18 4.13.15.16.24.35.05.53-.2.18-.34.33-.34.33s1.53 1.48 1.67 1.64c.14-.15.92-.62 1.66.1.66.68.2 1.47.07 1.6.16.15.3.3.46.46.15.16.4.1.5-.2.08-.27.67-1.92 1.83-3.06 1.33-1.3 3.42-1.65 4.9-2.48 1.05-.58 2.75-1.85 3.04-3.36.2-1.03-.73-1.48-1.57-.92-.45.3-2.2 1.33-3.55 1.2-1.42-.14-2.24-.8-2.67-1.6-.5-.92.2-1.53.15-2.2-.05-.7-1.4-3.97-1.4-3.97s-1.1-1.5-5.46.58c-4.38 2.1-5.9 4.83-6.1 5.25-.16.32-.1.52.14.74.24.23 1.52 1.52 1.52 1.52zm-4.59 5.28c.25.24 4.1 3.95 4.1 3.95.1.13.2 0 .26-.07 1.2-1.16 4.9-4.84 5.06-5 .1-.1.07-.26-.08-.4-.18-.16-3.77-3.64-3.93-3.84-.06-.08-.2-.13-.37.02-.1.1-4.6 4.7-5 5.1-.08.08-.1.16-.02.24z" fill="#fff"/><circle cx="16.258" cy="45.762" r=".227"/><circle cx="15.847" cy="45.011" r=".227"/><circle cx="15.465" cy="44.312" r=".228"/><circle cx="15.041" cy="43.536" r=".227"/><circle cx="14.617" cy="42.763" r=".227"/><circle cx="14.256" cy="42.103" r=".227"/><path d="m15.65 46.27c-.05-.05-.1-.1-.14-.18l-1.98-3.65c-.2-.38-.07-.87.32-1.08.3-.17.7-.1.94.14.06.06.1.12.14.2l2 3.63c.1.2.12.4.06.6s-.2.38-.38.48c-.3.18-.7.12-.95-.13zm-.93-4.7c-.22-.22-.56-.27-.84-.12-.34.2-.47.62-.28.96l2 3.65c.02.06.06.12.1.16.23.23.58.28.85.13.17-.1.3-.24.34-.42s.03-.36-.07-.53l-2-3.64c-.02-.06-.06-.1-.1-.16zm5.11-5.61c.2-.2.52-.2.7 0l2.82 2.8c.2.2.2.53 0 .72s-.5.2-.7 0l-2.82-2.8c-.2-.2-.2-.52 0-.72z"/><path d="m13.43 53.94 6.78-6.8c.47-.44 1.2-.44 1.67.02.46.45.46 1.2 0 1.65l-6.78 6.8c-.47.46-1.2.46-1.67 0s-.46-1.2 0-1.66z" fill="#fff"/><circle cx="12.461" cy="38.792" r=".205"/><circle cx="16.726" cy="34.527" r=".205"/><circle cx="22.772" cy="32.646" r=".205"/><circle cx="24.446" cy="38.802" r=".205"/><circle cx="31.854" cy="39.859" r=".206"/><circle cx="28.302" cy="43.662" r=".206"/><circle cx="22.579" cy="48.836" r=".205"/><circle cx="19.685" cy="46.015" r=".205"/><circle cx="19.598" cy="35.727" r=".171"/><circle cx="23.56" cy="39.688" r=".171"/><circle cx="16.228" cy="43.381" r=".209"/><circle cx="13.469" cy="42.925" r=".209"/><circle cx="15.106" cy="45.878" r=".209"/><circle cx="14.406" cy="40.918" r=".171"/><circle cx="18.306" cy="44.685" r=".171"/><circle cx="21.564" cy="47.464" r=".202"/><circle cx="13.705" cy="55.322" r=".201"/><circle cx="18.838" cy="50.19" r=".201"/><circle cx="20.995" cy="48.033" r=".201"/><circle cx="17.94" cy="51.087" r=".684"/><circle cx="14.623" cy="54.405" r=".684"/><path d="m19.26 49.67 1.34-1.33c0-.02.04-.02.06 0l.05.05c.03 0 .03.04 0 .05l-1.33 1.34s-.04 0-.06 0l-.04-.06c-.02-.02-.02-.05 0-.07zm.6-.01c-.18.17-.3.17-.46.02-.15-.16-.2-.3 0-.5.25-.22.36-.23.45-.25.14-.04.32.14.28.28-.03.15-.05.24-.27.46z"/><path d="m19.4 49.7h-.02c-.08-.1-.13-.17-.13-.25 0-.1.04-.18.14-.28.22-.2.33-.24.42-.26h.02c.07 0 .16.02.23.1.07.06.1.14.08.22v.02c-.03.13-.05.22-.28.44-.18.17-.32.18-.48.03zm.64-.68c-.06-.06-.13-.08-.2-.07-.1.03-.2.05-.4.26-.1.1-.15.18-.15.25 0 .06.04.13.12.22.14.14.26.13.42-.02.22-.2.24-.3.27-.42v-.02c.02-.05 0-.12-.06-.18z" fill="#fff"/><path d="m57.47 2.6s-.12-.2-.14-.25c-.03-.05-.07-.07-.12-.05-.07.03-.26.1-.3.1-.05.02-.12 0-.16-.07-.06-.13-.13-.3-.15-.36-.07-.18.14-.46.4-.64.32-.2.56-.23.73-.2.07.03.13.1.16.14.05.08.14.23.17.28s.05.1 0 .15c-.03.05-.15.16-.2.22-.06.06-.14.1-.08.2.05.1.13.23.13.23l-.46.24zm-1.67.84s-.1-.2-.14-.24c-.02-.05-.06-.08-.1-.06-.1.04-.3.1-.33.12-.05 0-.12 0-.15-.08-.06-.13-.13-.3-.16-.37-.05-.16.16-.44.43-.62.3-.2.55-.23.72-.2.07.03.12.08.16.13.05.1.15.24.18.3.03.04.05.1.02.15-.04.05-.16.16-.22.22-.05.06-.13.1-.07.2s.14.23.14.23l-.46.24zm-1.66.86s-.1-.2-.14-.24c-.02-.06-.06-.06-.12-.06-.08.04-.27.1-.3.12s-.13 0-.17-.08c-.05-.12-.12-.3-.14-.36-.05-.18.16-.46.43-.64.3-.2.53-.23.7-.2.07.03.13.1.16.14.06.08.15.23.18.28s.05.1 0 .15c-.02.06-.14.17-.2.23-.05.06-.14.1-.08.2s.15.24.15.24l-.46.23zm-1.69.88s-.1-.2-.14-.24c0-.04-.05-.07-.1-.05-.08.02-.28.1-.32.1s-.12 0-.16-.08c-.05-.12-.13-.28-.15-.36-.05-.18.16-.46.43-.63.3-.2.55-.24.7-.2.1.02.14.08.18.13.05.08.14.23.18.28.02.05.04.1 0 .16-.03.04-.15.16-.2.22-.06.05-.15.1-.1.2.07.08.16.23.16.23l-.47.23zm-1.61.86s-.12-.2-.15-.24c-.03-.05-.07-.07-.12-.05-.08.03-.27.1-.32.1-.04.03-.12 0-.15-.07-.05-.12-.12-.3-.14-.36-.06-.18.15-.46.42-.63.3-.22.55-.25.72-.2.07 0 .13.07.16.12.06.08.15.23.18.28s.05.1 0 .15c-.03.05-.14.16-.2.23-.06.05-.14.1-.08.2.06.08.14.23.14.23zm-1.62.86s-.12-.2-.14-.25c-.03-.04-.07-.07-.12-.05-.08.04-.27.1-.32.12-.04 0-.12 0-.15-.08-.07-.13-.14-.3-.16-.37-.06-.18.15-.45.42-.63.3-.2.55-.23.72-.2.07.02.13.08.16.13.06.08.15.23.18.3.03.03.05.08 0 .14-.03.06-.15.17-.2.23-.06.06-.14.1-.08.2.06.08.14.23.14.23l-.46.24zm-.02.05c-.53.27-1.04.45-1.17.8-.13.37 0 .62.06.98.04.3-.2.6-.62.97-.4.4-26.37 25.48-26.37 25.48s-.28.2-.03.58c.4.64 1.92 2.12 2.55 2.48.36.2.46 0 .58-.12.13-.1 26.25-26.56 26.25-26.56s1.1-1.05 2.13-1.43c2.38-.86 2.75-1.33 3.52-2.03.44-.4.72-1.08.83-1.62.1-.55.78-.87 1.3-.9.75-.03 1.46-.6 1.64-1.32.33-1.36-.74-2.5-1.8-2-1.64.75-8.4 4.43-8.88 4.7z"/><g fill="#fff"><path d="m22.02 36.98c-.47-.48-.85-.9-1.02-1.17-.22-.34-.06-.6.06-.68.43-.42 25.96-25.1 26.37-25.47.4-.4.62-.64.58-.9 0-.1-.02-.17-.04-.24-.05-.24-.1-.47 0-.77s.46-.48.87-.68c.1-.06.2-.1.32-.17.06-.03.22-.12.46-.25 1.74-.93 7-3.8 8.43-4.44.5-.24 1.06-.14 1.47.27.43.44.6 1.13.44 1.8-.2.77-.92 1.36-1.7 1.4-.53 0-1.13.33-1.23.82-.1.5-.38 1.22-.85 1.65-.06.06-.13.12-.2.18-.66.62-1.15 1.08-3.35 1.88-1 .37-2.1 1.4-2.1 1.42-1.07 1.08-26.12 26.44-26.25 26.56 0 .02-.03.03-.05.05-.1.12-.26.28-.6.07-.35-.18-.96-.7-1.58-1.32zm37.38-34.4c-.37-.36-.86-.46-1.3-.25-1.43.65-6.7 3.5-8.42 4.44-.23.13-.4.2-.46.25-.1.06-.22.1-.33.16-.38.2-.7.35-.8.6-.1.26-.04.45 0 .7.03.07.05.15.06.24.06.36-.24.68-.62 1.04-.4.38-26.12 25.22-26.38 25.47-.03.03-.23.2-.03.5.17.25.54.68 1 1.14.6.6 1.2 1.12 1.53 1.3.26.14.33.06.43-.05 0-.02.03-.04.05-.05.18-.17 25.98-26.3 26.24-26.56.04-.04 1.1-1.07 2.15-1.44 2.17-.8 2.65-1.23 3.3-1.85.07-.05.13-.1.2-.16.44-.4.7-1.08.8-1.58.12-.57.8-.93 1.4-.96.7-.02 1.37-.58 1.54-1.26.14-.62 0-1.26-.4-1.66zm-10.1 5.42c-.07-.07-.12-.16-.15-.25-.04-.14-.03-.3.04-.44.07-.12.2-.22.34-.26.2-.06.42 0 .57.14.07.07.12.15.15.24.1.3-.08.63-.38.72-.2.06-.43 0-.58-.15zm.8-.8c-.15-.15-.36-.2-.56-.14-.14.04-.26.13-.32.27-.07.13-.1.27-.05.42.03.08.08.16.14.23.16.14.37.2.56.14.3-.1.46-.4.37-.7-.03-.08-.07-.16-.14-.22zm-.8.5.1-.4.4-.1.3.27-.1.4-.4.1zm.13-.37-.1.36.28.26.38-.1.08-.38-.27-.26-.37.1z"/><circle cx="49.702" cy="7.555" r=".219"/><path d="m50.94 7.13c-.1-.1-.17-.26-.17-.4 0-.16.07-.3.18-.4.22-.23.58-.23.8 0 .12.1.18.25.17.4 0 .16-.06.3-.17.4-.22.23-.6.23-.8 0zm.8-.8c-.2-.2-.56-.2-.78 0-.1.1-.16.24-.16.4 0 .14.05.28.15.39.22.2.57.2.78 0 .1-.1.17-.24.17-.4s-.05-.27-.16-.38zm-.68.67-.1-.38.3-.28.38.1.1.4-.3.28-.38-.1zm-.08-.37.1.36.36.1.27-.27-.08-.37-.36-.1-.28.27z"/><circle cx="51.349" cy="6.697" r=".219"/><path d="m52.67 6.27c-.1-.08-.15-.2-.17-.3-.04-.33.17-.62.48-.67.18-.03.37.03.5.16.1.1.14.2.16.32.05.3-.17.6-.48.66-.18.02-.36-.04-.5-.17zm.8-.8c-.13-.12-.3-.18-.48-.15-.3.05-.52.33-.47.63.02.12.07.23.15.3.13.13.3.2.48.16.14 0 .27-.1.36-.2s.12-.27.1-.42c-.02-.1-.07-.22-.16-.3zm-.54.78-.26-.32.15-.38.4-.06.25.3-.14.38-.4.07zm-.23-.32.24.3.37-.07.15-.35-.24-.28-.36.05-.14.36z"/><circle cx="53.073" cy="5.837" r=".219"/><path d="m54.37 5.36c-.1-.1-.17-.26-.17-.4 0-.17.07-.3.18-.42.22-.22.58-.22.8 0 .12.12.18.27.17.42 0 .15-.06.3-.17.4-.22.22-.6.22-.8 0zm.8-.8c-.2-.2-.56-.2-.78 0-.1.1-.17.24-.17.4 0 .14.05.27.15.38.22.22.57.22.78 0 .1-.1.17-.23.17-.38s-.05-.3-.16-.4zm-.67.68-.1-.4.28-.28.4.1.1.4-.3.3-.4-.13zm-.1-.4.1.38.37.1.27-.27-.1-.36-.35-.1-.3.25z"/><circle cx="54.778" cy="4.922" r=".219"/><path d="m56.04 4.47c-.1-.1-.15-.23-.16-.36 0-.15.03-.3.13-.4.12-.13.25-.2.4-.2.18-.02.34.04.46.16.1.1.15.22.17.36.02.3-.22.6-.53.62-.17 0-.34-.05-.46-.17zm.8-.8c-.1-.1-.27-.17-.43-.16-.14.02-.27.1-.37.2s-.14.26-.13.4c0 .13.07.26.16.35.1.1.27.17.43.16.3 0 .52-.28.5-.58 0-.13-.06-.26-.16-.35zm-.56.76-.23-.34.17-.37.4-.03.23.33-.17.36-.4.03zm-.2-.34.2.3.38-.03.17-.34-.22-.3-.36.02-.17.34z"/><circle cx="56.451" cy="4.03" r=".219"/><path d="m57.7 3.6c-.16-.16-.2-.4-.15-.6.05-.14.15-.26.3-.33.12-.07.28-.08.42-.04.1.03.17.08.24.15.16.15.2.37.15.58-.05.14-.15.26-.28.33-.14.06-.3.08-.44.03-.1-.03-.17-.08-.23-.14zm.8-.8c-.07-.07-.15-.12-.23-.14-.14-.05-.3-.04-.42.03-.13.06-.23.18-.27.32-.07.2 0 .4.13.55.08.07.15.1.24.14.14.05.3.04.42-.03.13-.06.23-.18.27-.32.06-.2 0-.4-.14-.56zm-.7.66-.08-.4.3-.27.38.1.1.4h-.02l-.3.28-.37-.12zm-.06-.4.08.38.37.1.26-.24-.08-.37-.36-.12-.28.27z"/><circle cx="58.104" cy="3.152" r=".219"/><path d="m47.5 9.67s.44.4 1.2 1.16c.8.85 1.16 1.3 1.16 1.3l.2-.23s-.18-.26-1.1-1.24c-.8-.85-1.23-1.22-1.23-1.22zm-2.02 2.07.02.02.03.03.03.02.02.02.02.02.03.02.02.03.03.04.02.02.03.03.03.03.04.03.03.03.03.03.04.04.04.03.06.06.08.1.08.07.1.1.08.1.1.08.08.1.15.16.18.2.14.15.1.1.08.1.08.1.1.1.07.07.07.1.06.05.03.04.03.03.03.03.03.04.02.03v.02c.04.03.1.05.1.04s.02-.05 0-.1h-.02l-.03-.04-.03-.04-.04-.03-.03-.04-.04-.03-.05-.06-.08-.08-.08-.1-.1-.08-.07-.1-.1-.1-.1-.1-.13-.14-.2-.2-.13-.15-.1-.1-.1-.1-.1-.1-.07-.08-.1-.08-.07-.1-.06-.06-.04-.04-.03-.03-.04-.04-.04-.03-.03-.03-.03-.04-.03-.02-.03-.02-.03-.03v-.03l-.03-.02-.02-.02-.02-.02-.02-.02-.02-.03h-.02v-.02h-.02c-.03-.04-.08-.05-.1-.04 0 .02 0 .06.04.1zm-1.93 1.88v.02h.02v.02h.03v.03h.03l.02.03.02.02.02.02.02.03.02.02.03.03.03.03.03.03.03.05.04.03.03.04.04.03.03.04.06.05.08.1.1.07.07.1.1.1.1.08.1.1.13.15.2.2.13.14.1.1.08.1.1.08.08.1.08.08.07.08.06.07.03.04.04.04.03.04.03.03.03.04c.03.04.07.06.1.05.02 0 0-.05-.02-.1l-.04-.04-.04-.02-.03-.04-.03-.04-.04-.04-.05-.06-.08-.1-.08-.08-.1-.1-.08-.1-.1-.08-.1-.1-.1-.13-.2-.2-.14-.16-.1-.1-.1-.1-.08-.1-.1-.08-.07-.08-.07-.1-.06-.05-.04-.04-.03-.04-.04-.04-.03-.03-.03-.05-.03-.03-.03-.03-.03-.04-.02-.02-.02-.03h-.02l-.03-.03v-.02l-.02-.02-.02-.02h-.02v-.02h-.02v-.02c-.04-.03-.08-.05-.1-.03s0 .06.03.1zm-1.85 1.78h.02v.02h.02v.02l.03.02.02.02v.02l.03.02.02.03.03.02.03.03.04.03.03.03.03.04.03.03.04.04.03.03.04.04.04.04.06.06.08.1.1.08.08.1.1.1.1.1.1.1.13.14.2.2.14.17.1.1.1.1.08.1.1.1.07.08.06.08.04.04.03.04.04.05.02.05.04.03.03.04.02.04c.04.05.1.07.1.06.03 0 .03-.05 0-.1h-.02l-.03-.04-.03-.04-.04-.04-.03-.04-.04-.05-.04-.03-.04-.04-.07-.07-.1-.1-.08-.1-.1-.1-.08-.1-.1-.1-.14-.15-.2-.2-.15-.15-.1-.1-.1-.1-.08-.1-.1-.1-.08-.08-.1-.1-.06-.05-.04-.04-.03-.04-.04-.04-.03-.03-.04-.04-.03-.03-.03-.03-.03-.03-.03-.03h-.02l-.03-.04-.03-.02-.02-.02-.02-.02v-.02h-.03v-.02h-.02v-.02h-.02c-.03-.04-.07-.06-.1-.04s0 .06.04.1zm-1.78 1.64.02.02.02.02.03.03v.03l.03.02.02.02.03.03.02.03.03.03.03.03.04.02.03.04.03.03.04.03.04.04.04.04.04.05.06.07.1.1.1.1.08.1.1.1.1.1.1.1.16.16.2.22.17.16.1.1.1.1.1.12.08.1.1.1.05.06.05.04.04.05.04.04.03.04.03.05.03.04.04.03c.04.05.1.07.1.05.03 0 .02-.05 0-.1h-.03l-.03-.04-.04-.04-.03-.04-.04-.04-.04-.05-.05-.04-.04-.04-.06-.1-.1-.08-.08-.1-.1-.1-.1-.1-.1-.12-.16-.16-.2-.22-.17-.16-.1-.1-.1-.1-.1-.1-.1-.1-.1-.1-.08-.1-.06-.07-.05-.05-.04-.04-.03-.03-.04-.04-.03-.04-.04-.04-.03-.03-.03-.04-.03-.04-.03-.02-.02-.03h-.02l-.03-.03-.02-.02v-.02l-.02-.01v-.02h-.02c-.03-.04-.07-.06-.1-.04 0 .02 0 .06.04.1zm-1.6 1.66h.02v.02h.02v.02l.02.02.02.02h.02l.02.03.02.04.03.02v.02l.04.03.03.04.02.03.03.03.03.03.03.04.03.03.03.04.04.04.04.04.06.06.08.08.1.1.08.1.1.08.1.1.1.1.1.1.14.16.2.22.2.2.16.17.1.1.1.1.08.1.1.1.08.1.04.06c.03.03.07.05.1.04.02 0 0-.05-.02-.1l-.04-.04-.1-.1-.08-.1-.1-.1-.1-.1-.1-.12-.14-.16-.2-.22-.2-.2-.16-.17-.1-.1-.1-.12-.1-.1-.1-.1-.08-.1-.1-.08-.08-.08-.06-.06-.04-.04-.03-.04-.04-.04-.05-.03-.03-.03-.03-.03-.04-.03-.03-.02-.03-.03-.03-.03-.02-.02-.03-.03-.02-.02-.02-.02-.02-.02h-.02v-.02h-.03v-.04h-.02c-.03-.04-.08-.05-.1-.03 0 .02 0 .07.04.1zm-1.59 1.46h.02v.02h.02v.02l.03.02h.02l.02.03.02.02.02.02.02.02.03.02.03.03.03.03.02.03.03.03.04.04.02.03.04.04.04.04.04.04.04.04.06.07.1.08.08.1.1.1.1.08.1.1.1.12.1.1.15.16.2.22.17.16.1.1.1.1.1.12.1.1.1.1.08.1.1.1.03.06c.03.03.07.05.1.04.02 0 0-.05-.02-.1l-.05-.04-.08-.1-.1-.1-.1-.1-.1-.1-.1-.12-.1-.1-.1-.12-.15-.16-.2-.22-.17-.16-.1-.1-.1-.1-.1-.1-.1-.1-.1-.1-.1-.1-.08-.08-.06-.06-.04-.04-.04-.04-.04-.04-.04-.04-.04-.03-.03-.04-.02-.04-.03-.03-.03-.03-.03-.02-.04-.03-.02-.02-.02-.03-.02-.02-.02-.02h-.02l-.02-.03-.02-.02h-.02c-.04-.05-.08-.06-.1-.04s0 .06.03.1zm-1.41 1.42.02.02.02.02h.02v.03l.03.02h.03l.02.03.02.03.02.02.02.02.02.03.03.03.03.03.03.03.03.02.03.03.02.04.04.02.04.04.05.06.08.08.1.1.08.08.1.1.1.1.1.1.1.1.1.1.1.1.1.1.12.13.17.18.2.23.24.24.23.23.1.12c.04.02.1.04.1.02.02-.02 0-.06-.02-.1l-.12-.1-.22-.24-.22-.23-.23-.24-.16-.16-.12-.1-.1-.12-.12-.1-.1-.1-.1-.1-.1-.12-.1-.1-.1-.1-.08-.08-.08-.08-.08-.08-.06-.06-.03-.04-.04-.03-.04-.04-.04-.04-.03-.03-.04-.04-.03-.03-.02-.03-.02-.03h-.02l-.03-.04-.02-.02v-.02l-.03-.02-.03-.03-.02-.02-.02-.02c-.05-.05-.1-.06-.1-.04-.03 0 0 .05.02.08zm-1.42 1.3.02.02.03.02v.02h.02l.02.03.03.03.02.02.02.03.03.02.02.02.03.02.03.03.03.02.04.03.03.04.03.03.04.03.03.04.04.04.05.03.04.05.03.05.04.04.06.06.1.1.1.1.1.1.1.1.1.1.1.1.12.12.1.12.13.12.12.13.12.1.13.15.13.13.13.14.14.13.13.15.07.07c.03.03.08.05.1.04 0 0 0-.05-.03-.1l-.06-.06-.13-.14-.12-.14-.13-.14-.13-.13-.13-.14-.13-.13-.12-.13-.12-.12-.12-.12-.1-.1-.1-.12-.1-.1-.12-.1-.1-.1-.1-.1-.08-.1-.07-.06-.04-.05-.05-.04-.04-.05-.03-.03-.04-.04-.03-.04-.04-.03-.03-.03-.03-.03-.03-.03-.03-.02-.03-.02-.02-.03-.02-.03-.03-.02-.02-.02v-.02l-.03-.02-.02-.02h-.02v-.03h-.08v-.02h-.02v-.02h-.02v-.02c-.04-.02-.08-.03-.1 0-.02 0 0 .04.04.08zm-1.27 1.25h.02v.02h.02v.02h.03v.03l.03.02h.02l.02.03.02.02v.03l.03.02.03.02.03.03v.03l.04.03.03.03.04.03.04.02.03.04.04.03.05.03.04.04.02.04.05.05.04.04.07.05.1.1.1.1.1.1.1.1.1.1.1.1.1.12.13.12.12.1.12.14.12.13.13.13.1.13.14.14.14.14.13.15.07.07c.04.04.08.05.1.04.02-.02 0-.06-.02-.1l-.07-.07-.13-.15-.14-.14-.12-.13-.13-.13-.12-.14-.12-.12-.12-.13-.1-.12-.13-.12-.1-.1-.12-.12-.1-.1-.1-.1-.1-.1-.1-.1-.1-.1-.06-.06-.04-.04-.04-.04-.05-.04-.04-.04-.03-.03-.04-.04-.03-.04-.03-.04-.04-.03-.03-.04-.03-.03-.03-.03-.02-.02-.03-.03-.03-.02-.02-.02h-.02l-.03-.03v-.02l-.03-.02h-.02v-.03h-.02v-.02h-.02v-.02c-.05-.03-.1-.05-.1-.03-.02.02 0 .06.03.1zm-1.23 1.17.02.02h.02v.03h.03v.03h.03l.02.03.02.03.02.02.02.03.03.02.03.03.03.02.03.03.02.03.03.04.04.03.02.04.04.04.03.04.03.04.04.04.04.04.05.04.05.04.06.07.1.1.1.1.1.1.1.1.1.1.1.12.13.1.1.13.12.13.12.12.13.13.12.13.12.15.13.13.14.14.12.15.06.07c.04.03.08.05.1.04.02-.02 0-.06-.02-.1l-.07-.07-.14-.13-.14-.14-.13-.14-.14-.14-.12-.14-.13-.13-.1-.13-.13-.13-.12-.12-.1-.12-.12-.1-.1-.12-.1-.1-.12-.1-.08-.1-.1-.1-.06-.06-.04-.04-.05-.05-.04-.04-.04-.05-.05-.04-.03-.02-.04-.04-.03-.03-.04-.02-.02-.04-.03-.03h-.03l-.02-.04-.03-.03-.02-.02h-.03l-.02-.04-.02-.02h-.02l-.02-.03-.03-.02v-.02h-.02v-.02h-.02c-.03-.04-.07-.05-.1-.04 0 .02 0 .07.04.1zm-1.14 1.1v.02h.02l.02.02.02.03h.02v.03l.03.02.02.02v.02l.04.02.02.02.03.03.02.03.02.03.03.02.04.03.04.03.03.03.04.05.05.04.03.02.04.04.05.04.04.05.05.04.07.05.1.1.1.1.1.1.1.1.1.1.1.12.12.12.12.1.12.13.12.13.12.13.13.12.13.13.13.14.14.13.13.14.07.07c.03.04.08.06.1.04s0-.05-.03-.1l-.05-.06-.14-.14-.12-.14-.13-.14-.13-.14-.13-.13-.13-.13-.13-.13-.12-.12-.1-.12-.13-.12-.12-.1-.1-.1-.1-.12-.1-.1-.1-.1-.1-.1-.07-.05-.03-.05-.04-.04-.04-.04-.05-.04-.04-.04-.03-.03-.03-.05-.04-.03-.03-.04-.03-.03-.03-.03-.02-.03-.03-.03-.03-.03-.02-.02-.02-.03-.03-.03-.02-.02-.02-.02-.02-.03-.03-.03-.02-.02c-.05-.05-.1-.06-.1-.04-.02.03 0 .07.03.1zm-1.06 1.1v.02h.02v.02l.02.02h.02v.02l.03.02v.02l.02.02.02.02.02.02.03.02v.03l.04.02.02.03.03.03.02.04.03.03.04.03.02.04.03.03.04.04.03.05.04.04.04.03.05.04.04.04.03.06.07.07.1.1.1.1.1.1.1.1.1.12.13.12.12.12.12.12.12.12.12.14.14.13.13.15.13.14.14.14.15.14.07.08c.03.03.07.05.1.03 0-.03 0-.07-.04-.1l-.08-.08-.14-.14-.14-.15-.14-.14-.14-.15-.13-.13-.14-.14-.13-.12-.12-.13-.1-.12-.12-.1-.1-.12-.12-.1-.1-.1-.1-.1-.1-.1-.06-.08-.04-.04-.05-.05-.03-.03-.04-.04-.04-.04-.04-.05-.04-.03-.04-.04-.03-.03-.03-.04-.03-.02-.04-.03-.03-.03-.03-.03-.02-.03-.03-.03-.02-.02-.02-.02v-.02l-.03-.02-.02-.02v-.02h-.03v-.02h-.02v-.02h-.02v-.02c-.05-.04-.1-.06-.1-.04-.03 0 0 .06.02.1zm-1.08.93v.02h.02v.02h.02l.02.02.03.03h.03l.02.03.02.02.02.03v.03l.04.03.02.02.03.03.02.04.03.03.03.03.03.04.05.03.03.04.04.05.04.04.04.03.04.04.04.04.05.06.04.04.05.05.04.05.08.07.1.1.1.1.1.12.12.1.12.13.12.12.13.13.13.13.13.15.13.14.14.13.14.14.15.15.15.15.08.08c.03.03.07.05.1.03s0-.06-.04-.1l-.07-.07-.15-.14-.15-.15-.14-.13-.14-.14-.14-.14-.14-.15-.13-.13-.13-.13-.12-.13-.12-.12-.1-.12-.12-.1-.1-.12-.1-.1-.07-.06-.05-.05-.05-.06-.04-.04-.05-.05-.05-.04-.04-.03-.04-.04-.03-.04-.05-.05-.04-.04-.02-.02-.04-.04-.03-.03-.02-.02-.03-.03-.03-.03-.02-.03-.03-.03-.02-.03-.02-.02-.02-.02v-.02l-.03-.02-.03-.03-.02-.02h-.02v-.02h-.02c-.03-.04-.07-.06-.1-.04 0 .02 0 .06.04.1zm-1 .91.04.04.07.07.07.08.08.07.08.08.08.1.1.07.08.1.1.08.08.1.1.1.1.1.13.13.2.2.2.2.2.2.2.2.15.14.1.1.1.1.1.08.08.1.1.08.08.1.1.07.08.08.08.08.04.04c.04.03.08.05.1.03 0-.03 0-.07-.05-.1l-.05-.04-.08-.06-.1-.08-.07-.1-.1-.07-.08-.1-.1-.1-.1-.08-.1-.1-.1-.1-.13-.13-.2-.2-.2-.2-.2-.2-.2-.2-.15-.14-.1-.1-.1-.1-.08-.1-.1-.08-.08-.1-.1-.07-.08-.08-.08-.08-.07-.07-.08-.08-.08-.08-.03-.04c-.05-.03-.1-.05-.1-.03s0 .06.02.1zm-.87.92.03.04.07.07.08.07.08.08.1.08.07.08.08.1.1.07.08.1.1.08.08.1.1.1.15.13.2.2.2.2.18.2.2.18.2.2.13.14.1.1.08.08.1.1.08.08.1.08.07.1.07.07.04.03c.04.03.08.04.1.03.02-.02 0-.06-.03-.1l-.04-.04-.08-.08-.08-.08-.1-.08-.07-.1-.1-.08-.1-.1-.08-.08-.14-.15-.2-.2-.2-.18-.18-.2-.2-.2-.2-.2-.13-.14-.1-.1-.1-.1-.08-.08-.1-.1-.1-.07-.07-.08-.08-.08-.08-.08-.08-.08-.08-.07-.08-.07-.03-.03c-.02-.03-.06-.05-.08-.03-.02 0 0 .06.03.1zm-.85.84.04.02.07.07.08.07.08.08.08.08.08.08.08.1.1.08.08.1.1.08.08.1.1.1.14.13.2.2.2.18.18.2.2.2.2.18.13.15.1.1.1.1.08.08.1.1.08.07.08.08.08.08.04.05c.03.04.08.05.1.03 0 0 0-.06-.04-.1l-.04-.03-.08-.08-.08-.08-.1-.1-.07-.08-.1-.1-.08-.08-.1-.1-.14-.14-.2-.2-.18-.2-.2-.18-.2-.2-.2-.2-.13-.13-.1-.1-.1-.1-.08-.1-.1-.08-.07-.1-.1-.07-.07-.1-.08-.07-.08-.07-.07-.07-.07-.07-.04-.03c-.03-.04-.07-.05-.1-.03 0 0 0 .06.04.1zm-.75.8.04.03.06.07.07.07.08.08.1.08.07.08.1.1.07.1.1.07.08.1.1.1.1.08.13.15.2.2.2.2.2.18.18.2.2.2.13.13.1.1.1.1.08.08.08.1.1.08.07.08.07.08.04.04c.05.03.1.05.1.03s0-.07-.03-.1l-.04-.05-.08-.07-.08-.1-.08-.07-.1-.08-.1-.1-.08-.08-.1-.1-.13-.13-.2-.2-.2-.18-.2-.2-.2-.2-.2-.2-.13-.13-.1-.1-.08-.1-.1-.1-.1-.08-.08-.08-.1-.1-.07-.07-.08-.08-.07-.1-.08-.06-.07-.07-.03-.04c-.04-.03-.08-.05-.1-.03s0 .06.03.1zm-.77.73.04.03.07.07.06.08.08.1.08.07.08.08.1.08.07.1.1.08.08.1.1.1.1.1.13.13.2.2.2.2.2.2.18.18.2.2.14.14.1.1.08.1.1.08.08.1.08.07.08.07.08.08.04.04c.04.03.08.04.1.02 0-.02 0-.06-.03-.1l-.03-.03-.08-.1-.1-.07-.08-.1-.1-.07-.08-.1-.1-.1-.08-.08-.14-.14-.2-.2-.2-.2-.2-.18-.18-.2-.2-.2-.14-.13-.1-.1-.08-.1-.1-.08-.08-.1-.1-.08-.07-.08-.1-.1-.07-.08-.07-.07-.08-.08-.07-.07-.03-.03c-.04-.04-.08-.05-.1-.03 0 0 0 .05.03.1zm-.7.63.03.04.08.07.08.07.08.08.08.08.08.1.08.07.1.1.08.08.1.1.1.1.1.1.13.13.2.2.2.2.2.2.2.2.14.15.1.1.1.1.1.1.08.08.1.1.08.1.08.07.1.1.07.07.04.04c.02.03.06.05.08.03.02 0 0-.05-.03-.1l-.04-.02-.07-.1-.08-.07-.1-.07-.08-.1-.1-.08-.08-.1-.1-.1-.1-.1-.1-.08-.14-.15-.2-.2-.2-.2-.2-.2-.2-.2-.15-.14-.08-.1-.1-.1-.1-.1-.08-.08-.1-.1-.08-.08-.08-.08-.08-.08-.08-.08-.07-.07-.07-.06-.04-.04c-.03-.03-.07-.05-.1-.03 0 .02 0 .06.04.1zm-.7.64.04.05.07.07.06.07.08.07.08.08.1.1.07.07.1.1.08.08.1.1.1.1.1.1.13.13.22.2.2.2.2.2.2.2.16.15.1.1.1.1.1.08.08.1.1.08.08.1.1.08.07.08.1.08.03.04c.04.03.08.05.1.03 0-.02 0-.06-.04-.1l-.05-.03-.08-.08-.08-.1-.1-.07-.1-.1-.08-.08-.1-.1-.1-.1-.08-.1-.1-.1-.15-.14-.22-.2-.2-.2-.2-.2-.2-.2-.16-.14-.1-.1-.1-.1-.08-.08-.1-.1-.1-.08-.07-.1-.1-.07-.07-.1-.08-.07-.07-.07-.07-.07-.04-.05c-.03-.03-.07-.05-.1-.03 0 .02 0 .06.04.1zm-.62.62.03.04.06.07.08.07.08.08.08.08.08.1.1.07.08.1.1.08.1.1.08.1.1.1.15.14.2.2.2.2.2.2.2.2.15.14.1.1.1.1.1.1.1.08.08.1.1.08.08.08.1.1.07.07.04.03c.04.03.08.05.1.03s0-.06-.03-.1l-.04-.04-.08-.08-.08-.08-.1-.1-.08-.07-.1-.1-.1-.1-.1-.1-.1-.1-.1-.08-.14-.15-.2-.2-.2-.2-.2-.2-.2-.2-.16-.14-.1-.1-.1-.1-.1-.08-.08-.1-.1-.08-.07-.1-.1-.07-.07-.08-.08-.08-.07-.07-.08-.07-.03-.04c-.03-.03-.08-.05-.1-.03 0 .02 0 .06.04.1zm-.56.58.02.03.07.07.07.08.08.08.08.08.1.08.07.1.1.08.1.1.08.08.1.1.1.1.14.14.2.2.2.2.2.2.22.2.15.14.1.1.08.1.1.1.1.08.08.1.1.08.08.08.08.1.08.07.04.04c.04.04.08.05.1.04 0-.02 0-.06-.04-.1l-.04-.04-.08-.08-.08-.08-.1-.1-.08-.07-.1-.1-.08-.1-.1-.08-.1-.1-.1-.1-.14-.15-.2-.2-.2-.2-.2-.2-.22-.2-.14-.14-.1-.1-.1-.08-.1-.1-.08-.08-.1-.1-.08-.08-.1-.08-.07-.08-.07-.08-.07-.08-.07-.07-.04-.03c-.04-.04-.08-.05-.1-.03s0 .06.03.1z"/></g><path d="m13.4 49.85-.02.03-4.08-4.02.03-.03zm-2.8-3.55-.55-.56 1.08-1.08.25.25-.9.92c-.02 0-.02.02 0 .03l.02.03s.02 0 .03 0l.9-.9.26.24-1.1 1.08zm-.5-.56.5.5 1.03-1.02-.2-.2-.87.9c-.02.02-.07.02-.1 0l-.02-.04c-.03-.02-.03-.07 0-.1l.88-.87-.2-.18-1 1.02z"/><circle cx="11.102" cy="44.898" r=".07"/><circle cx="11.42" cy="45.217" r=".07"/><path d="m11.9 47.32-.57-.56 1.08-1.08.26.25-.9.9c-.02.02-.02.03 0 .04l.02.03s.02 0 .03 0l.92-.9.25.24-1.08 1.08zm-.5-.56.5.5 1-1-.18-.2-.88.87c-.02.03-.07.03-.1 0l-.02-.03c-.03-.02-.03-.06 0-.1l.87-.87-.2-.18-1 1z"/><circle cx="12.381" cy="45.92" r=".07"/><circle cx="12.7" cy="46.239" r=".07"/><path d="m11.26 46.82-.56-.57 1.08-1.07.24.24-.9.9c-.02.02-.02.03 0 .04l.02.03s.03 0 .04 0l.9-.92.26.26-1.08 1.08zm-.5-.56.5.5 1.02-1.02-.2-.2-.87.9c-.02 0-.06 0-.08 0l-.04-.04c-.02-.03-.02-.07 0-.1l.88-.88-.18-.18-1.02 1.02z"/><circle cx="11.749" cy="45.413" r=".07"/><circle cx="12.068" cy="45.731" r=".07"/><path d="m12.4 47.95-.57-.56 1.08-1.1.26.26-.9.9c-.02.02-.02.03 0 .04l.02.03s.03 0 .03 0l.92-.9.26.24-1.08 1.08zm-.5-.56.5.5 1-1.02-.18-.2-.87.88c-.03.03-.07.03-.1 0l-.03-.03c-.03-.02-.03-.06 0-.1l.88-.87-.2-.18-1 1z"/><circle cx="12.885" cy="46.549" r=".07"/><circle cx="13.204" cy="46.868" r=".07"/><path d="m13 48.5-.56-.57 1.08-1.08.25.25-.9.9c-.02.02-.02.03 0 .04l.02.03s0 0 .02 0l.9-.9.26.24-1.08 1.1zm-.5-.57.5.5 1.02-1-.2-.2-.87.88c-.02.03-.07.03-.1 0l-.02-.03c-.03-.02-.03-.06 0-.1l.87-.87-.18-.18z"/><circle cx="13.491" cy="47.09" r=".07"/><circle cx="13.81" cy="47.41" r=".07"/><path d="m13.67 48.98-.56-.56 1.08-1.08.25.25-.9.9c-.02 0-.02.02 0 .03l.02.03s.02 0 .03 0l.9-.9.26.24-1.07 1.08zm-.5-.56.5.5 1-1.02-.18-.2-.88.9c-.03.02-.07.02-.1 0l-.03-.04c-.03-.03-.03-.07 0-.1l.87-.87-.18-.2-1.03 1.02z"/><circle cx="14.156" cy="47.577" r=".07"/><circle cx="14.475" cy="47.895" r=".07"/><path d="m20.98 35.62.1.1-9.98 9.65-.1-.1z"/><path d="m21.08 35.73-.1-.1 26.74-25.85 2.04-2.2.1.1-2.03 2.2z" fill="#fff"/><path d="m21.43 36.23.1.1-9.86 9.6-.1-.1z"/><path d="m21.52 36.32-.1-.1 26.74-26.02 3.26-3.4.1.08-3.27 3.42z" fill="#fff"/><path d="m21.95 36.8.07.07-9.78 9.6-.08-.08z"/><path d="m22.02 36.87-.08-.08 26.66-26.27 4.55-4.6.08.1-4.55 4.58z" fill="#fff"/><path d="m22.45 37.3.07.06-9.67 9.66-.06-.06z"/><path d="m22.53 37.38-.06-.07 26.53-26.35 5.86-5.9.06.07-5.87 5.9z" fill="#fff"/><path d="m23.12 37.85-9.7 9.72-.06-.04 9.7-9.72z"/><path d="m23.07 37.8 26.33-26.46 7.14-7.14.05.03-7.14 7.15-26.34 26.47z" fill="#fff"/><path d="m23.72 38.26-9.76 9.9-.03-.04 9.76-9.9z"/><path d="m23.68 38.24 26.1-26.47 8.42-8.47.03.04-8.45 8.46-26.1 26.47z" fill="#fff"/><circle cx="11.054" cy="45.269" r=".077"/><circle cx="11.638" cy="45.853" r=".077"/><circle cx="12.232" cy="46.411" r=".077"/><circle cx="12.817" cy="46.94" r=".077"/><circle cx="13.391" cy="47.514" r=".077"/><circle cx="13.952" cy="48.104" r=".077"/><g fill="#fff"><circle cx="26.516" cy="32.817" r=".253"/><circle cx="28.193" cy="31.145" r=".253"/><circle cx="30.524" cy="27.615" r=".253"/><circle cx="31.767" cy="28.889" r=".253"/><circle cx="34.648" cy="24.776" r=".253"/><circle cx="37.377" cy="22.083" r=".253"/><circle cx="40.436" cy="19.063" r=".253"/><circle cx="43.862" cy="15.668" r=".253"/></g></svg>