<svg enable-background="new 0 0 60 60" height="60" viewBox="0 0 60 60" width="60" xmlns="http://www.w3.org/2000/svg"><path d="m25.8 33.3c-.1-.5-.6-2-.6-2s0 .2-.6.3-.8-.4-.9-.9-.4-2.2-1.8-3.6c-1.3-1.3-3.4-1.4-5.2.5-2 2.1-1.9 3.6-2.9 5.4-1.4 2.2-3 2.6-4.5 3.2-2 .7-5.3 1.7-7.6 4.2s-2.1 6.2-.6 8.3c1.7 2.3 6.6 7.4 9.8 9.4 3.3 2 8.3.9 10.6-3.8 2.3-4.8 1.8-6.4 4.3-8.3 2-1.5 6.1-1.7 7.3-5.5.5-1.5-1-2.3-2.2-1.6-1 .6-1.5.9-3 1.1-2.2.3-3.2-1.3-2.6-2.7.9-1.9.8-2.8.5-4z" fill="#c12127"/><path d="m13.8 40.7s.2-.2.3-.3c.2-.2.4-.1.6 0 .1.1 3.9 3.8 4.2 4.1.1.2.2.3 0 .5s-.3.3-.3.3 1.5 1.5 1.7 1.6c.1-.2.9-.6 1.7.1.7.7.2 1.5.1 1.6l.5.5c.1.2.4.1.5-.2s.7-1.9 1.8-3.1c1.3-1.3 3.4-1.7 4.9-2.5 1-.6 2.8-1.8 3-3.4.2-1-.7-1.5-1.6-.9-.5.3-2.2 1.3-3.5 1.2-1.4-.1-2.2-.8-2.7-1.6-.5-.9.2-1.5.1-2.2 0-.7-1.4-4-1.4-4s-1.1-1.5-5.5.6-5.9 4.8-6.1 5.2c-.1.6-.1.8.2 1 .2.2 1.5 1.5 1.5 1.5zm-4.6 5.3c.2.2 4.1 4 4.1 4 .1.1.2 0 .3-.1 1.2-1.2 4.9-4.8 5.1-5 .1-.1.1-.3-.1-.4-.2-.2-3.8-3.6-3.9-3.8-.1-.1-.2-.1-.4 0-.1.1-4.6 4.7-5 5.1-.1 0-.2.1-.1.2z" fill="#fff"/><circle cx="16.3" cy="45.8" r=".2"/><circle cx="15.8" cy="45" r=".2"/><circle cx="15.5" cy="44.3" r=".2"/><circle cx="15" cy="43.5" r=".2"/><circle cx="14.6" cy="42.8" r=".2"/><circle cx="14.3" cy="42.1" r=".2"/><path d="m15.6 46.3c-.1 0-.1-.1-.1-.2l-2-3.7c-.2-.4-.1-.9.3-1.1.3-.2.7-.1.9.1.1.1.1.1.1.2l2 3.6c.1.2.1.4.1.6-.1.2-.2.4-.4.5-.2.3-.6.2-.9 0zm-.9-4.7c-.2-.2-.6-.3-.8-.1-.3.2-.5.6-.3 1l2 3.7c0 .1.1.1.1.2.2.2.6.3.8.1.2-.1.3-.2.3-.4s0-.4-.1-.5l-2-3.6c.1-.3.1-.3 0-.4zm5.1-5.6c.2-.2.5-.2.7 0l2.8 2.8c.2.2.2.5 0 .7s-.5.2-.7 0l-2.8-2.8c-.2-.2-.2-.5 0-.7z" fill="#c12127"/><path d="m13.4 53.9 6.8-6.8c.5-.4 1.2-.4 1.7 0 .5.5.5 1.2 0 1.7l-6.8 6.8c-.5.5-1.2.5-1.7 0s-.4-1.2 0-1.7z" fill="#fff"/><circle cx="12.5" cy="38.8" r=".2"/><circle cx="16.7" cy="34.5" r=".2"/><circle cx="22.8" cy="32.6" r=".2"/><circle cx="24.4" cy="38.8" r=".2"/><circle cx="31.9" cy="39.9" r=".2"/><circle cx="28.3" cy="43.7" r=".2"/><circle cx="22.6" cy="48.8" r=".2"/><circle cx="19.7" cy="46" r=".2"/><circle cx="19.6" cy="35.7" r=".2"/><circle cx="23.6" cy="39.7" r=".2"/><circle cx="16.2" cy="43.4" r=".2"/><circle cx="13.5" cy="42.9" r=".2"/><circle cx="15.1" cy="45.9" r=".2"/><circle cx="14.4" cy="40.9" r=".2"/><circle cx="18.3" cy="44.7" r=".2"/><circle cx="21.6" cy="47.5" r=".2"/><circle cx="13.7" cy="55.3" r=".2"/><circle cx="18.8" cy="50.2" r=".2"/><circle cx="21" cy="48" r=".2"/><circle cx="17.9" cy="51.1" fill="#c12127" r=".7"/><circle cx="14.6" cy="54.4" fill="#c12127" r=".7"/><path d="m19.3 49.7 1.3-1.3h.1l-1.3 1.3s0 0-.1 0zm.6 0c-.2.2-.3.2-.5 0-.1-.2-.2-.3 0-.5s.4-.2.5-.2.3.1.3.3c-.1.1-.1.2-.3.4z"/><path d="m19.4 49.7c-.1-.1-.1-.2-.1-.2 0-.1 0-.2.1-.3.2-.2.3-.2.4-.3.1 0 .2 0 .2.1.1.1.1.1.1.2s0 .2-.3.4c-.1.3-.3.3-.4.1zm.6-.7s-.1-.1-.2 0c-.1 0-.2 0-.4.3-.1.1-.1.2-.1.2 0 .1 0 .1.1.2s.3.1.4 0c.2-.2.2-.3.3-.4 0-.1 0-.2-.1-.3z" fill="#fff"/><path d="m57.5 2.6s-.1-.2-.1-.2-.1-.1-.1 0c-.1 0-.3.1-.3.1s-.1 0-.2-.1c-.1-.2-.2-.4-.2-.4-.1-.2.1-.5.4-.6.3-.2.6-.2.7-.2s.1.1.2.1c0 .1.1.2.2.3s0 .1 0 .1-.2.2-.2.2c-.1.1-.2.1-.1.2 0 .1.1.2.1.2zm-1.7.8s-.1-.2-.1-.2-.1-.1-.1-.1c-.1 0-.3.1-.3.1s-.1 0-.2-.1-.1-.3-.2-.4c0-.2.2-.4.4-.6.3-.1.6-.1.8-.1.1 0 .1.1.2.1 0 .1.2.2.2.3v.2s-.2.2-.2.2c0 .1-.1.1-.1.2s.1.2.1.2zm-1.7.9s-.1-.2-.1-.2c0-.1-.1-.1-.1-.1-.1 0-.3.1-.3.1s-.1 0-.2-.1c0-.1-.1-.3-.1-.4 0-.2.2-.5.4-.6.3-.2.5-.2.7-.2.1 0 .1.1.2.1.1.1.2.2.2.3s0 .1 0 .2-.1.2-.2.2c0 .1-.1.1-.1.2.1.1.2.2.2.2zm-1.6.9s-.1-.2-.1-.2 0-.1-.1-.1-.3.1-.3.1-.1 0-.2-.1c0-.1-.1-.3-.2-.4 0-.2.2-.5.4-.6.3-.2.5-.2.7-.2.1 0 .1.1.2.1 0 .1.1.2.2.3v.2s-.2.2-.2.2c-.1.1-.2.1-.1.2s.2.2.2.2zm-1.7.8s-.1-.2-.2-.2c0-.1-.1-.1-.1-.1-.1 0-.3.1-.3.1s-.1 0-.2-.1c0 0 0-.2 0-.3-.1-.2.2-.5.4-.6.3-.2.5-.2.7-.2.1 0 .1.1.2.1.1.1.2.2.2.3s0 .1 0 .2-.1.2-.2.2c-.1.1-.1.1-.1.2.1.1.1.2.1.2s-.5.2-.5.2zm-1.6.9s-.1-.2-.1-.2-.1-.1-.1-.1c-.1 0-.3.1-.3.1s-.1 0-.2-.1-.1-.3-.2-.4c-.1-.2.2-.4.4-.6.3-.2.5-.2.7-.2.1 0 .1.1.2.1.1.1.2.2.2.3v.1c0 .1-.2.2-.2.2-.1.1-.1.1-.1.2.1.1.1.2.1.2zm0 0c-.5.3-1 .4-1.2.8-.1.4 0 .6.1 1 0 .3-.2.6-.6 1s-26.4 25.5-26.4 25.5-.3.2 0 .6c.4.6 1.9 2.1 2.5 2.5.4.2.5 0 .6-.1s26.3-26.6 26.3-26.6 1.1-1.1 2.1-1.4c2.4-.9 2.8-1.3 3.5-2 .4-.4.7-1.1.8-1.6.1-.6.8-.9 1.3-.9.8 0 1.5-.6 1.6-1.3.3-1.4-.7-2.5-1.8-2-1.6.6-8.3 4.3-8.8 4.5z" fill="#c12127"/><g fill="#fff"><path d="m22 37c-.5-.5-.9-.9-1-1.2-.2-.3-.1-.6.1-.7.4-.4 25.9-25.1 26.3-25.4.4-.4.6-.7.6-.9 0-.1 0-.2 0-.2 0-.2-.1-.5 0-.8s.5-.5.9-.7c0-.1.1-.1.3-.2.1 0 .2-.1.5-.2 1.7-.9 7-3.8 8.4-4.4.5-.2 1.1-.1 1.5.3.4.3.5 1 .4 1.7-.2.8-.9 1.4-1.7 1.4-.5 0-1.1.3-1.2.8s-.4 1.2-.8 1.6c-.2.1-.3.2-.3.2-.7.6-1.2 1.1-3.3 1.9-1 .4-2.1 1.4-2.1 1.4-1.1 1.1-26.1 26.4-26.2 26.6-.1.1-.3.3-.6.1-.5-.2-1.1-.7-1.8-1.3zm37.4-34.4c-.4-.4-.9-.5-1.3-.2-1.4.7-6.7 3.5-8.4 4.4-.2.1-.4.2-.5.2-.1.1-.2.1-.3.2-.4.2-.7.3-.8.6s0 .4 0 .7c0 .1 0 .1.1.2.1.4-.2.7-.6 1-.5.4-26.2 25.3-26.4 25.5 0 0-.2.2 0 .5.2.2.5.7 1 1.1.6.6 1.2 1.1 1.5 1.3.3.1.3.1.4 0 .2-.2 26-26.3 26.2-26.6 0 0 1.1-1.1 2.2-1.4 2.2-.8 2.7-1.2 3.3-1.9.1 0 .2-.1.2-.1.4-.4.7-1.1.8-1.6.1-.6.8-.9 1.4-1 .7 0 1.4-.6 1.5-1.3.2-.6.1-1.2-.3-1.6zm-10.1 5.4c-.1-.1-.1-.2-.2-.2 0-.1 0-.3 0-.4.1-.1.2-.2.3-.3.2-.1.4 0 .6.1.1.1.1.2.2.2.1.3-.1.6-.4.7-.1.1-.4 0-.5-.1zm.8-.8c-.2-.2-.4-.2-.6-.1-.1 0-.3.1-.3.3-.1.1-.1.3 0 .4 0 .1.1.2.1.2.2.1.4.2.6.1.3-.1.5-.4.4-.7-.1-.1-.1-.1-.2-.2zm-.8.5.1-.4.4-.1.3.3-.1.4-.4.1zm.1-.4-.1.4.3.3.4-.2.1-.4-.3-.3z"/><circle cx="49.7" cy="7.6" r=".2"/><path d="m50.9 7.1c-.1-.1-.2-.3-.2-.4 0-.2.1-.3.2-.4.2-.2.6-.2.8 0 .1.1.2.2.2.4s-.1.3-.2.4c-.2.3-.5.3-.8 0zm.8-.8c-.2-.2-.6-.2-.8 0-.1.1-.2.2-.2.4 0 .1 0 .3.2.4.2.2.6.2.8 0 .1-.1.2-.2.2-.4s-.1-.3-.2-.4zm-.6.7-.1-.4.3-.3.4.1.1.4-.3.3zm-.1-.4.1.4.4.1.3-.3-.1-.4-.4-.1z"/><circle cx="51.3" cy="6.7" r=".2"/><path d="m52.7 6.3c-.1-.1-.2-.2-.2-.3 0-.3.2-.6.5-.7.2 0 .4 0 .5.2.1.1.1.2.2.3 0 .3-.2.6-.5.7-.2 0-.4-.1-.5-.2zm.8-.8c-.1-.1-.3-.2-.5-.2-.3.1-.5.3-.5.6 0 .1.1.2.2.3s.3.2.5.2c.1 0 .3-.1.4-.2s.1-.3.1-.4c-.1-.1-.2-.2-.2-.3zm-.6.7-.3-.3.2-.4.4-.1.2.3-.1.4zm-.2-.3.2.3.4-.1.2-.3-.2-.3-.4.1z"/><circle cx="53.1" cy="5.8" r=".2"/><path d="m54.4 5.4c-.1-.1-.2-.3-.2-.4 0-.2.1-.3.2-.4.2-.2.6-.2.8 0 .1.1.2.3.2.4 0 .2-.1.3-.2.4-.2.2-.6.2-.8 0zm.8-.8c-.2-.2-.6-.2-.8 0-.1.1-.2.2-.2.4 0 .1 0 .3.2.4.2.2.6.2.8 0 .1-.1.2-.2.2-.4s-.1-.3-.2-.4zm-.7.6-.1-.4.3-.3.4.1.1.4-.3.3zm-.1-.4.1.4.4.1.2-.3-.1-.3-.3-.1z"/><circle cx="54.8" cy="4.9" r=".2"/><path d="m56 4.5c-.1-.1-.2-.2-.2-.4s0-.3.1-.4.2-.2.4-.2.3 0 .5.2c.2.1.2.2.2.3 0 .3-.2.6-.5.6-.2 0-.3 0-.5-.1zm.8-.8c-.1-.1-.3-.2-.4-.2s-.3.1-.4.2-.1.3-.1.4.1.3.2.3c.1.1.3.2.4.2.3 0 .5-.3.5-.6 0-.1-.1-.2-.2-.3zm-.5.7-.3-.3.2-.4h.4l.2.3-.2.4zm-.2-.3.2.3h.4l.1-.4-.2-.3h-.4z"/><circle cx="56.5" cy="4" r=".2"/><path d="m57.7 3.6c-.2-.2-.2-.4-.2-.6 0-.1.2-.3.3-.3.1-.1.3-.1.4 0 .1 0 .2.1.2.2.2.2.2.4.2.6 0 .1-.2.3-.3.3-.1.1-.3.1-.4 0s-.1-.2-.2-.2zm.8-.8c-.1-.1-.2-.1-.2-.1-.1 0-.3 0-.4 0-.1.1-.2.2-.3.3-.1.2 0 .4.1.5s.2.1.2.1h.4c.1-.1.2-.2.3-.3.1-.2 0-.4-.1-.5zm-.7.7-.1-.4.3-.3.4.1.1.4-.3.3zm-.1-.4.1.4.4.1.3-.2-.1-.4-.4-.2z"/><circle cx="58.1" cy="3.2" r=".2"/><path d="m47.5 9.7s.4.4 1.2 1.2c.8.9 1.2 1.3 1.2 1.3l.2-.2s-.2-.3-1.1-1.2c-.8-.9-1.2-1.2-1.2-1.2s-.3.1-.3.1zm-2 2 .1.1.1.1.1.1.1.1.1.1.1.1.1.1.1.1.2.2.2.2.1.1.1.1.1.1.1.1.1.1.1.1.1.1.1.1s.1.1.1 0 0-.1 0-.1v-.1l-.1-.1-.1-.1-.1-.1-.1-.1-.1-.1-.1.3-.1-.1-.2-.2-.1-.1-.1-.1-.1-.1-.1-.1-.1-.1-.1-.1-.1-.2v-.1l-.5-.4s-.1-.1 0 0c-.1 0-.1 0 0 0zm-2 1.9.1.1v.1l.1.1.1.1.1.1.1.1.1.1.1.1.1.1.1.1.2.2.1.1.1.1.1.1.1.1.1.1.1.1.1.1.1.1s.1.1.1 0v-.1-.1l-.1-.1-.1-.1-.1-.1-.1-.1-.1-.1-.1-.1.1.2-.2-.2-.1-.2-.1-.1-.1-.1-.1-.1-.1-.1-.1-.1-.1-.1v-.1s-.1-.1-.1 0c-.5-.4-.4-.3-.5-.3zm-1.8 1.8.1.1.1.1.1.1.1.1.1.1.1.1.1.1.1.1.1.1.2.2.1.2.1.1.1.1.1.1.1.1.1.1.1.1s.1.1.1.1 0 0 0-.1l-.1-.1-.1-.1-.1-.1-.1-.1-.1-.1.2.2-.1-.1-.2-.3-.2-.1-.1-.1-.1-.1-.1-.1-.1-.1-.1-.1-.1-.1-.1-.1-.4-.4c0-.1-.1-.1 0 0-.1 0-.1 0 0 0zm-1.8 1.6.1.1.1.1.1.1.1.1.1.1.1.1.1.1.1.1.2.2.2.2.2.2.1.1.1.1.1.1.1.1.1.1v.1s.1.1.1 0c0 0 0 0 0-.1l-.1-.1.2.3-.1-.1-.1-.1-.1-.1-.1-.1-.2-.2-.2-.2-.2-.2-.1-.1-.1-.1-.1-.1-.1-.1-.1-.1-.1-.1-.5-.5c0-.1 0-.1 0-.1zm-1.6 1.7.1.1.1.1.1.1.1.1.1.1.1.1.1.1.1.1.1.1.1.2.2.2.2.2.2.2.1.1.1.1.1.1.1.1.1.1v.1h.1s0 0 0-.1l-.1-.1.2.2-.1-.1-.1-.1-.1-.1-.1-.2-.2-.2-.2-.2-.2-.2-.1-.1-.1-.1-.1-.1-.1-.1-.1-.1-.1-.1-.1-.1-.1-.1-.5-.4c0-.1 0-.1 0 0-.1 0-.1 0 0 0zm-1.6 1.5.1.1.1.1.1.1.1.1.1.1.1.1.1.1.1.1.1.1.2.2.2.2.2.2.1.1.1.1.1.1.1.1.1.1.1.1.1.1v.1h.1s0 0 0-.1l-.1-.1-.1-.1.2.2-.1-.1-.1-.1-.1-.2-.1-.1-.2-.2-.2-.2-.2-.2-.1-.1-.1-.1-.1-.1-.1-.1-.1-.1-.1-.1-.1-.1h-.6v-.4c0-.1 0-.2 0 0 0-.1 0-.1 0 0zm-1.4 1.4.1.1v.1l.1.1.1.1.1.1.1.1.1.1.1.1.1.1.1.1.1.1.1.1.1.1.2.2.2.2.2.2.2.2.1.1h.1v-.1l.3.3-.2-.2-.2-.2-.2-.2-.2-.3-.1-.1-.1-.1-.1-.1-.1-.1-.1-.1-.1-.1-.1-.1-.1-.1-.1-.1-.1-.1-.1-.1h-.1l-.5-.4c0-.1 0-.1 0-.1zm-1.4 1.3.1.1.1.1.1.1.1.1.1.1.6.6.1.1.1.1.1.1.1.1.1.1.1.1.1.1.1.1.1.1.1.1.1.1.1.1.1.1h.1s0 0 0-.1l-.1-.1-.1-.1-.1-.1.1.1-.2-.1-.1-.1-.1-.1-.1-.1-.1-.1-.1-.1-.1-.1-.2-.3-.1-.1-.1-.1-.1-.1-.1-.1-.1-.1-.1-.1-.7-.5c0-.1 0-.1 0 0-.1-.1 0 0 0 0zm-1.3 1.2.1.1h.1l.1.1.1.1.1.1.1.1.1.1.1.1.1.1.1.1.1.1.1.1.1.1.1.1.1.1.1.1.1.1.1.1.1.1h.1v-.1l-.1-.1-.1-.1.6.8-.1-.1-.1-.1-.2-.2-.1-.1-.1-.1-.1-.1-.1-.1-.1-.1-.1-.1-.1-.1-.1-.1-.2-.2-.1-.1-.1-.1-.1-.1-.7-.6c0-.1 0-.1 0-.1zm-1.2 1.2.1.1.1.1.1.1.1.1.1.1.1.1.1.1.1.1.1.1.1.1.1.1.1.1.1.1.1.1.1.1.1.1.1.1.9 1 .1.1h.1v-.1h-.2l-.1-.1-.1-.1-.1-.1-.1-.1-.1-.1-.1-.1-.2-.4-.2-.1-.1-.1-.1-.1-.1-.1-.1-.1-.1-.1-.1-.1-.1-.1-.1-.2h-.1l-.7-.7c-.1 0-.1 0 0 0zm-1.1 1.1.1.1h.1l.1.1.1.1.1.1.1.1.1.1.1.1.1.1.1.1.1.1.1.1.1.1.1.1.1.1.1.1.1.1.1.1.1.1s.1.1.1 0 0 0 0-.1v-.1l-.1-.1-.1-.1-.1-.1-.1-.1-.1-.1-.1-.1.4.6-.1-.1-.1-.1-.1-.1-.1-.1-.1-.1-.1-.1-.1-.1-.1-.1-.2-.2h-.1s-.1-.1-.1 0c-.6-.7-.6-.7-.6-.6zm-1.1 1.1.1.1v.1l.1.1.1.1.1.1.1.1.1.1.1.1.1.1.1.1.1.1.1.1.1.1.1.1.1.1.1.1.1.1.1.1.1.1h.1v-.1l-.1-.1.7.8-.1-.1-.1-.1-.1-.1-.1-.1-.3-.3-.1-.1-.2-.2-.1-.1-.1-.1-.1-.1-.1-.1-.1-.1-.1-.1-.1-.1-.1-.1-.7-.7c0-.1-.1-.1-.1-.1s0 .1.1.1zm-1.1.9.1.1v.1l.1.1.1.1.1.1.1.1.1.1.1.1.1.1.1.1.1.1.1.1.1.1.1.1.1.1.1.1.1.1.1.1h.1s0-.1 0-.1l-.1-.1.9 1-.1-.1-.1-.1-.1-.1-.1-.1-.3-.3-.1-.1-.1-.2-.1-.1-.1-.1-.1-.1-.1-.1-.1-.1-.1-.1-.2-.1v-.1zm-1 .9.1.1.1.1.1.1.1.1.1.1.1.1.1.1.1.1.1.1.1.1.1.1.1.1.2.2.2.2.2.2.2.2.1.1.1.1.1.1.1.1.1.1.1.1.1.1.1.1.1.1.1.1h.1v-.1l-.2-.1-.1-.1-.1-.1-.1-.1-.1-.1-.1-.1-.1-.1-.1-.1-.1-.1-.1-.1-.2-.2-.2-.2-.2-.2-.2-.2-.1-.1-.2-.1-.1-.1v-.1l-.1-.1-.1-.1-.1-.1-.1-.1-.1-.1-.1-.1-.1-.1zm-.9 1 .1.1.1.1.1.1.1.1.1.1.1.1.1.1.1.1v-.1l.1.1.1.1.1.1.2.2.2.2.3.3.2.2.2.2.1.1.1.1.1.1.1.1.1.1.1.1.1.1h.1v-.1l-.1-.1-.1-.1-.1-.1-.1-.1-.1-.1-.1-.1-.1-.1-.1-.2-.2-.2h-.2l-.2-.2-.2-.2-.2-.2-.1-.1-.1-.2-.1-.1h-.1l-.1-.1-.1-.1-.1-.1-.1-.1-.1-.1-.1-.1-.1-.1-.1.1c.1-.1 0-.2 0 0 0-.1 0-.1 0 0zm-.8.8.1.1.1.1.1.1.1.1.1.1.1.1.1.1.1.1.1.1.1.1.1.1.1.1.2.2.2.2.2.2.2.2.2.2.1.2.1.1.1.1.1.1.1.1.1.1.1.1.1.1h.1v-.1l-.1-.1-.1-.1-.3-.3v-.1l-.1-.1-.1-.1-.1-.1-.1-.1-.2-.2-.2-.2-.2-.2-.2-.2-.2-.2-.2-.1-.1-.1-.1-.1-.1-.1-.1-.1v-.1l-.1-.1-.1-.1-.1-.1-.1-.1-.1-.1-.1-.1v.2c0-.1 0-.1 0 0 0-.1 0 0 0 0zm-.8.8.1.1.1.1.1.1.1.1.1.1.1.1.1.1.1.1.1.1.1.1.1.1.1.2.2.2.2.2.2.2.2.2.2.2.1.1.1.1.1.1.1.1.1.1.1.1.1.1.1.1h.1s0-.1 0-.1l-.1-.1-.1-.1-.1-.1-.1-.1-.1-.1-.2-.2-.1-.1-.1-.1-.2-.2-.2-.2-.2-.2-.2-.2-.2-.2-.1-.1-.1-.1-.1-.1-.1-.1-.1-.1-.1-.1-.1-.1-.1-.1-.1-.1v-.1h-.1l-.2-.1c0-.1 0-.1 0 0 0-.1 0 0 0 0zm-.7.7.1.1.1.1.1.1.1.1.1.1.1.1.1.1.1.1.1.1.1.1.1.1.1.1.2.2.2.2.2.2.2.2.2.2.1.1.1.1.1.1.1.1.1.1.1.1.1.1.1.1h.1v-.1l-.1-.1-.1-.1-.1-.1-.1-.1-.3-.1-.1-.1-.1-.1-.1-.2-.2-.2-.2-.2-.2-.2-.2-.2-.2-.1-.1-.1-.1-.1-.1-.1-.1-.1-.1-.1-.1-.1v-.1l-.1-.1-.1-.1-.1-.1h-.1l-.1-.1c0-.1 0-.1 0 0-.1-.1-.1 0 0 0zm-.7.7.1.1.1.1.1.1.1.1.1.1.1.1.1.1.1.1v-.1l.1.1.1.1.1.1.2.2.2.2.2.2.2.2.1.2.1.1.1.1.1.1.1.1.1.1.1.1.1.1.1.1.1.1h.1s0 0 0-.1l-.2-.1v-.1l-.1-.1-.1-.1-.1-.1-.1-.1-.1-.1-.1-.1-.1-.1-.1-.2-.2-.1-.2-.2-.2-.2-.2-.2-.1-.1-.1-.1-.2-.1-.1-.1-.1-.1-.1-.1-.1-.1-.1-.1-.1-.1-.1-.1-.1-.1-.1-.1.1.2c0-.1 0-.1 0 0-.1-.1-.1 0 0 0zm-.7.6.1.1.1.1.1.1.1.1.1.1.1.1.1.1.1.1.1.1.1.1.1.1.1.1.2.2.2.2.2.2.2.2.2.2.1.1.1.1.1.1.1.1.1.1.1.1.1.1.1.1.1.1h.1v-.1l-.1-.1-.1-.1-.1-.1-.1-.1-.3-.2-.1-.1-.1-.1-.1-.1-.1-.1-.1-.1-.2-.2-.2-.2-.2-.2-.2-.2-.2-.1-.1-.1-.1-.1-.1-.1-.1-.1-.1-.2-.1-.1-.1-.1-.1-.1-.1-.1h-.1c0-.1 0-.1-.1-.1 0 0 0 0 .1.1zm-.6.6.1.1.1.1.1.1.1.1.1.1.1.1.1.1.1.1.1.1.1.1.1.1.1.1.2.2.2.2.2.2.2.2.1.1.1.1.1.1.1.1.1.1.1.1.1.1.1.1.1.1.1.1h.1s0-.1 0-.1l-.1-.1-.1-.1-.1-.1-.2-.1-.1-.1-.1-.1-.1-.1-.1-.1-.1-.1-.1-.2-.2-.2-.2-.1-.2-.2-.2-.2-.2-.1-.1-.1-.1-.1-.1-.1-.1-.2h-.1l-.1-.1-.1-.1-.1-.1-.1-.1-.1-.1c0-.1 0-.1-.1-.1 0 0 0 .1.1.1zm-.6.6.2.2.1.1.1.1.1.1.1.1.1.1.1.1.1.1.1.1.1.1.1.1.2.2.2.2.2.2.2.2.1.1.1.1.1.1.1.1.1.1.1.1.1.1.1.1.1.1.1.1h.1v-.1l-.1-.1-.1-.1-.2-.1-.1-.1-.1-.1-.1-.1-.1-.1-.1-.1-.1-.1-.1-.1-.2-.2-.2-.2-.2-.2-.2-.2-.2-.2-.1-.1-.1-.1-.1-.1-.1-.1-.1-.1-.1-.1-.1-.1-.1-.1-.1-.1-.1-.1v.1c0-.1 0-.1 0 0-.1-.1-.1 0 0 0z"/></g><path d="m13.4 49.8-4.1-4zm-2.8-3.5-.6-.6 1.1-1.1.2.2-.9.9.9-.9.3.2zm-.5-.6.5.5 1-1-.2-.2-.9.9h-.1v-.1l.9-.9-.2-.2z"/><circle cx="11.1" cy="44.9" r=".1"/><circle cx="11.4" cy="45.2" r=".1"/><path d="m11.9 47.3-.6-.6 1.1-1.1.3.2-.9.9.9-.9.2.2zm-.5-.5.5.5 1-1-.2-.2-.9.9h-.1v-.1l.9-.9-.2-.2z"/><circle cx="12.4" cy="45.9" r=".1"/><circle cx="12.7" cy="46.2" r=".1"/><path d="m11.3 46.8-.6-.6 1.1-1.1.2.2-.9.9.9-.9.3.3zm-.5-.5.5.5 1-1-.2-.2-.9.9h-.1v-.1l.9-.9-.2-.2z"/><circle cx="11.7" cy="45.4" r=".1"/><circle cx="12.1" cy="45.7" r=".1"/><path d="m12.4 48-.6-.6 1.1-1.1.3.3-.9.9.9-.9.3.2zm-.5-.6.5.5 1-1-.2-.2-.9.9h-.1v-.1l.9-.9-.2-.2z"/><circle cx="12.9" cy="46.5" r=".1"/><circle cx="13.2" cy="46.9" r=".1"/><path d="m13 48.5-.6-.6 1.1-1.1.2.2-.8 1 .9-.9.3.2zm-.5-.6.5.5 1-1-.2-.2-.8.9h-.1v-.1l.9-.9-.2-.2c-.1 0-1.1 1-1.1 1z"/><circle cx="13.5" cy="47.1" r=".1"/><circle cx="13.8" cy="47.4" r=".1"/><path d="m13.7 49-.6-.6 1.1-1.1.2.2-.9.9.9-.9.3.2zm-.5-.6.5.5 1-1-.2-.2-.9.9h-.1v-.1l.9-.9-.2-.2z"/><circle cx="14.2" cy="47.6" r=".1"/><circle cx="14.5" cy="47.9" r=".1"/><path d="m21 35.6.1.1-10 9.6h-.1z"/><path d="m21.1 35.7-.1-.1 26.7-25.8 2-2.2.1.1-2 2.2z" fill="#fff"/><path d="m21.4 36.2.1.1-9.9 9.6-.1-.1z"/><path d="m21.5 36.3-.1-.1 26.7-26 3.3-3.4.1.1-3.3 3.4z" fill="#fff"/><path d="m22 36.8-9.7 9.7-.1-.1z"/><path d="m22 36.9 26.6-26.3 4.5-4.6h.1l-4.5 4.6z" fill="#fff"/><path d="m22.5 37.3-9.6 9.7h-.1z"/><path d="m22.5 37.4 26.5-26.4 5.9-5.9.1.1-5.9 5.8z" fill="#fff"/><path d="m23.1 37.8-9.7 9.7h-.1z"/><path d="m23.1 37.8 26.3-26.5 7.1-7.1-7.1 7.2z" fill="#fff"/><path d="m23.7 38.3-9.7 9.9z"/><path d="m23.7 38.2 26.1-26.5 8.4-8.5-8.5 8.5z" fill="#fff"/><circle cx="11.1" cy="45.3" r=".1"/><circle cx="11.6" cy="45.9" r=".1"/><circle cx="12.2" cy="46.4" r=".1"/><circle cx="12.8" cy="46.9" r=".1"/><circle cx="13.4" cy="47.5" r=".1"/><circle cx="14" cy="48.1" r=".1"/><g fill="#fff"><circle cx="26.5" cy="32.8" r=".3"/><circle cx="28.2" cy="31.1" r=".3"/><circle cx="30.5" cy="27.6" r=".3"/><circle cx="31.8" cy="28.9" r=".3"/><circle cx="34.6" cy="24.8" r=".3"/><circle cx="37.4" cy="22.1" r=".3"/><circle cx="40.4" cy="19.1" r=".3"/><circle cx="43.9" cy="15.7" r=".3"/></g></svg>