<svg enable-background="new 0 0 60 60" height="60" viewBox="0 0 60 60" width="60" xmlns="http://www.w3.org/2000/svg"><path d="m41.7 2.9c-2.8-1.1-8.8-2-11.8-2.2-3-.3-9 .7-11.8 2.3-3 1.7-2.8 6.9-2.4 17.1.6 16.4-.2 17.5 3 17.8l21.9.3c2.2-.3 3.9-1.1 4-19.8 0-14.1.2-14.3-2.9-15.5z" fill="#b54a13"/><path d="m15.3 6.3c-.1-1.6.4-2.8 1-3.2 2-1.5 7-3.2 13.3-3.1 6.9 0 12.6 1.6 14.2 3.9.4.6.9 1.4 1 2.6.1 1-.1 2-.4 2.5 0-.1 0-.3 0-.4-.2-.6-.4-1.2-1-1.8-.3-.3-.7-.6-1.1-.9-2.6-1.6-7.3-2.7-12.5-2.7-5 0-9.4.9-11.9 2.4-.6.3-1.1.7-1.4 1.1-.5.5-.6.5-.8 1.3 0 0-.1.4-.1.4-.3-.6-.3-1.2-.3-2.1z" fill="#bbbdbf"/><path d="m15.1 11.5c-.1-1.6.4-2.8 1-3.2 2.4-1.6 7.2-3.1 13.5-3 7 .1 12.9 1.5 14.4 4 .5.3.9 1.4 1 2.6.1 1-.1 1.9-.4 2.4 0-.1-.4-1.6-.9-2.1-.3-.3-.7-.6-1.1-.9-2.6-1.7-7.3-2.4-12.7-2.4-5.1-.1-9.6.4-12.1 1.9-.6.3-1.1.7-1.4 1.1-.5.6-.9.9-.9 1.5-.1 0-.4-1-.4-1.9z" fill="#bbbdbf"/><path d="m37.2 1.6c-.3-.1-.6.6-.7 1.5l-.1 2.1c0 .9.2 1.7.6 1.8.3.1.6-.6.7-1.5l.1-2.1c0-1-.2-1.8-.6-1.8z" fill="#929497"/><path d="m37 7.6c-.2 0-.4.4-.4.9v1.3c0 .6.1 1.1.3 1.1.2 0 .4-.4.4-.9v-1.3c.1-.5-.1-1-.3-1.1z" fill="#bbbdbf"/><path d="m37.1 4.9c-.1 0-.2.2-.2.5v.7c0 .3.1.6.2.6.1 0 .2-.2.2-.5v-.7c0-.3-.1-.6-.2-.6z" fill="#404041"/><path d="m16.8 3.6c.4.3.6 1.4.6 2.4l-.1 2.4c0 1-.4 1.5-.7 1.2-.4-.4-.6-1.5-.6-2.5l.1-2.4c.1-1 .4-1.5.7-1.1z" fill="#929497"/><path d="m16.5 10.3c.2.2.4.9.3 1.5l-.1 1.5c0 .6-.2 1-.4.7-.2-.2-.4-.9-.3-1.5l.1-1.5c0-.6.2-.9.4-.7z" fill="#bbbdbf"/><path d="m16.6 7.2c.1.1.2.5.2.8v.8c0 .3-.1.5-.2.4-.1-.1-.2-.5-.2-.8v-.8c0-.3.1-.5.2-.4z" fill="#404041"/><path d="m43.4 5.3c-.3.3-.6 1.4-.6 2.4l.1 2.4c0 1 .3 1.5.7 1.2.3-.3.6-1.4.6-2.4l-.1-2.4c-.1-1-.4-1.5-.7-1.2z" fill="#929497"/><path d="m43.6 12.1c-.2.2-.4.9-.4 1.5v1.5c0 .6.2 1 .4.7.2-.2.4-.9.4-1.5v-1.5c0-.6-.2-.9-.4-.7z" fill="#bbbdbf"/><path d="m43.5 9c-.1.1-.2.5-.2.8v.8c0 .3.1.5.2.4.1-.1.2-.5.2-.8v-.8c0-.3-.1-.5-.2-.4z" fill="#404041"/><path d="m23.6.7c-.3-.1-.6.6-.6 1.5v2.1c0 .9.2 1.7.6 1.7.3.1.6-.6.6-1.5v-2.1c0-.9-.3-1.7-.6-1.7z" fill="#929497"/><path d="m23.6 6.8c-.2 0-.4.4-.4 1v1.3c0 .6.2 1 .4 1.1.2 0 .4-.4.4-1v-1.3c-.1-.6-.2-1.1-.4-1.1z" fill="#bbbdbf"/><path d="m23.6 4c-.1 0-.2.2-.2.5v.7c0 .3.1.6.2.6.1 0 .2-.2.2-.5v-.7c0-.3-.1-.6-.2-.6z" fill="#404041"/><path d="m29.9 35.5c-7 0-12.7 1.6-12.7 2.1s5.6.1 12.6.2c7 0 12.7.4 12.7-.1.1-.6-5.6-2.2-12.6-2.2z" fill="#929497"/><path d="m23.1 26.3c0 1.5 2.7 2.7 6.7 3 3.9.3 7.3-1.4 7.3-2.9s-3.6-.8-7.5-.9c-3.8-.1-6.5-.7-6.5.8z" fill="#bbbdbf"/><path d="m29.3 60h2.5v-.1c-.2-.8-.2-1.6-.3-2.4-.1-.7-.6-1.6-1-1.5s-.7.9-.9 1.5c-.2.7-.2 1.5-.4 2.2 0 .1.1.2.1.3z" fill="#231f20"/><path d="m35.9 26.3-6.6 1.9c-.3.1-.4.3-.2.5.1.2.5.3.7.2l6.6-1.9c.3-.1.4-.3.2-.5-.1-.2-.4-.3-.7-.2z" fill="#808184"/><path d="m24.6 26.5 6.5 2.3c.3.1.4.3.2.5-.1.2-.5.3-.7.2l-6.5-2.3c-.3-.1-.4-.3-.2-.5.1-.2.5-.3.7-.2z" fill="#808184"/><path d="m17.7 55.9c-.7-.1-1.3.4-1.4 1l-.7 2.5c-.1.7 1 .4 1.6.5 1-.1 1.3-.4 1.4-1l.2-1.6c0-.6-.5-1.3-1.1-1.4z" fill="#231f20"/><path d="m33.5 40.5c-.2-.2-.4-.2-.5-.1l-8.1 9.5-1.8.3c-.1 0-.1 0-.1 0l-5.5 6.5c-.1.1 0 .3.2.5.2.2.4.3.5.2l5.2-6.2 1.6-.2c.1 0 .1 0 .2-.1l8.3-9.8c.2-.2.1-.4 0-.6z" fill="#404041"/><path d="m41.9 56.1c.7-.1 1.3.4 1.3 1.1l.7 2.4c.1.6-1 .3-1.7.4-1-.2-1.3-.4-1.3-1.1l-.1-1.5c-.1-.7.4-1.2 1.1-1.3z" fill="#231f20"/><path d="m26.7 40.4c.2-.2.4-.2.5 0l7.8 9.5 1.8.4h.1l5.3 6.5c.1.1 0 .3-.2.5-.2.2-.4.2-.5.2l-5.1-6.2-1.5-.3c-.1 0-.1 0-.2-.1l-8.1-9.9c-.1-.2-.1-.4.1-.6z" fill="#404041"/><path d="m29.8 48.5c.2.1.3.2.3.3v4.7l.9.9v.1 3.2s-.2 0-.3-.1c-.2-.1-.3-.2-.3-.2v-3l-.8-.9s-.1-.1-.1-.1v-4.8c0-.1.1-.1.3-.1z" fill="#404041"/><path d="m29.8 29.5c-.6 0-1 3.4-1 7.5l.1 9.7c0 4.1.6 7.4 1.1 7.4.6 0 1-3.4 1-7.5v-9.7c-.1-4-.6-7.4-1.2-7.4z" fill="#bbbdbf"/><path d="m29.9 27.5c-.9 0-1.7.6-1.7 1.2v1.5c0 .6.8 1.1 1.7 1.1.9 0 1.7-.6 1.7-1.2v-1.5c0-.6-.7-1.1-1.7-1.1z" fill="#58595b"/><path d="m30 29.9c-.3 0-.6.2-.6.4v.5c0 .2.3.4.6.4.3 0 .6-.2.6-.4v-.5c0-.2-.3-.4-.6-.4z" fill="#404041"/><path d="m30.5 27.9c-.6 0-1 .4-1 .7v.9c0 .4.5.7 1 .7.6 0 1-.4 1-.7v-.9c0-.4-.4-.7-1-.7z" fill="#bbbdbf"/><path d="m30.2 43.7c-.3 0-.6.2-.6.4v.5c0 .2.3.4.6.4.3 0 .6-.2.6-.4v-.5c-.1-.2-.3-.4-.6-.4z" fill="#404041"/><path d="m31.1 52.6-6.4-2.5c-.3-.1-.6 0-.8.1-.2.2-.1.4.2.5l6.4 2.5c.3.1.6 0 .8-.1.2-.2.1-.4-.2-.5z" fill="#808184"/><path d="m35.3 49.9-6.5 2.8c-.3.1-.3.3-.2.5.2.2.5.2.7.1l6.5-2.8c.3-.1.3-.3.2-.5-.1-.2-.4-.3-.7-.1z" fill="#808184"/><path d="m32.5 28.2c-.2.1-.3.3-.3.4 0 0-.1.1-.1.1h-1.2c-.1 0-.1 0-.1.1s0 .1.1.1h1.2c0 .1.1.1.1.1 0 .1.1.3.3.4s.3.1.4-.1c0-.1 0-.2-.1-.3.1-.1.2-.2.2-.3s-.1-.2-.2-.3c.1-.1.1-.2.1-.3 0 0-.2 0-.4.1z" fill="#404041"/></svg>