<svg enable-background="new 0 0 60 60" height="60" viewBox="0 0 60 60" width="60" xmlns="http://www.w3.org/2000/svg"><path d="m47.7 2.2c-4.1-.8-12.9-1.8-17.2-1.9-.1 0-.3 0-.5 0s-.3 0-.5 0c-4.3.1-13.4 1.1-17.5 1.9-4.6.9-4.1 8.5-4.1 17.1 0 8.4.9 15.5 4 15.7h18.1 18.2c3.2-.2 3.9-7.4 3.9-15.7 0-8.6.2-16.2-4.4-17.1z" fill="#781d77"/><path d="m30.4 33.5c10.2 0 18.6 1.2 18.6 1.6s-8.2.4-18.4.4-19.6 0-19.6-.4 9.2-1.6 19.4-1.6z" fill="#808184"/><path d="m51.4 5c0-.1 0-.1 0-.2-.2-.7-.6-1.2-1.1-1.7-.9-.8-2-1.2-3.2-1.5-3.2-.9-6.6-1.1-9.9-1.3-2.4-.1-4.8-.3-7.2-.3-4 0-8 .2-11.9.6-2.5.3-5.3.6-7.6 1.7-1.9.8-2.2 2.6-2.1 4.6 0-.3.6-.9.7-1.1.8-.8 1.8-.9 2.9-1.3 3.7-1.2 10.4-2 17.9-1.9 7.6-.1 14.2.7 17.9 1.9 1.1.3 2.1.8 2.9 1.6.2.2.7.5.7.8-.1-.6.1-1.3 0-1.9z" fill="#d0d2d3"/><path d="m52 9.3c-.1-1-.8-1.8-1.5-2.1-2.3-1.8-10.6-2.8-20.5-2.8s-18.2 1-20.4 2.8c-.8.3-1.4 1.1-1.6 2.1-.1.8-.1 1.1 0 1.9.1-.2.6-.6.8-.7.8-.8 1.8-1.3 2.9-1.6 3.8-1.2 10.6-2 18.3-1.9 7.7-.1 14.5.7 18.3 1.9 1.1.3 2.1.8 2.9 1.6.2.2.7.5.8.8.1-.9.1-1.3 0-2z" fill="#a6a8ab"/><path d="m19.5.8c.5-.1.9.5 1 1.2l.1 1.7c0 .7-.3 1.3-.8 1.4-.5.1-.9-.5-1-1.2l-.1-1.7c0-.7.4-1.3.8-1.4z" fill="#929497"/><path d="m19.8 5.6c.3 0 .6.3.6.7v1c0 .4-.2.8-.5.9-.3 0-.6-.3-.6-.7v-1c-.1-.4.1-.8.5-.9z" fill="#bbbdbf"/><path d="m19.6 3.5c.2 0 .3.2.3.4v.6c0 .2-.1.5-.3.5-.2 0-.3-.2-.3-.4v-.6c0-.3.2-.5.3-.5z" fill="#404041"/><path d="m49.7 3.4c-.5.2-1 1-1 1.8l-.1 1.9c0 .8.4 1.3.9 1 .5-.2 1-1 1-1.8l.1-1.9c.1-.7-.3-1.2-.9-1z" fill="#929497"/><path d="m49.5 8.7c-.3.1-.6.6-.6 1.1l-.1 1.2c0 .5.2.8.6.7.3-.1.6-.6.6-1.1v-1.2c0-.5-.2-.8-.5-.7z" fill="#bbbdbf"/><path d="m49.6 6.3c-.2.1-.3.4-.4.6v.6c0 .3.1.4.3.4.2-.1.3-.4.4-.6v-.6c0-.3-.1-.5-.3-.4z" fill="#404041"/><path d="m10.2 3c.5.2.9 1.1.9 1.9v1.9c0 .8-.4 1.2-.9 1-.5-.3-.9-1.1-.9-1.9v-1.9c0-.8.4-1.2.9-1z" fill="#929497"/><path d="m10.2 8.4c.3.1.6.7.6 1.2v1.2c0 .5-.3.8-.6.6-.3-.1-.6-.7-.6-1.2v-1.2c0-.5.3-.8.6-.6z" fill="#bbbdbf"/><path d="m10.2 5.9c.2.1.3.4.3.6v.6c0 .3-.1.4-.3.3-.2.1-.3-.2-.3-.5v-.6c0-.3.1-.5.3-.4z" fill="#404041"/><path d="m39.6.7c.5 0 .9.6.8 1.3l-.1 1.7c0 .7-.5 1.3-1 1.3-.5 0-.9-.6-.8-1.3l.2-1.7c0-.7.4-1.3.9-1.3z" fill="#929497"/><path d="m39.4 5.5c.3 0 .5.4.5.8v1c0 .4-.3.8-.6.8-.3 0-.5-.4-.5-.8v-1c.1-.4.3-.8.6-.8z" fill="#bbbdbf"/><path d="m39.5 3.3c.2 0 .3.2.3.4v.6c0 .2-.2.4-.3.4-.2 0-.3-.2-.3-.4v-.6c0-.2.1-.4.3-.4z" fill="#404041"/><path d="m40.8 19.9c.1 1.7-4.9 3.3-11.1 3.5s-11.3-1.1-11.4-2.8 4.9-3.3 11.1-3.5 11.3 1 11.4 2.8z" fill="#bbbdbf"/><path d="m26.9 60h3.8c0-.1 0-.1 0-.2-.2-.8-.3-1.7-.5-2.5-.2-.7-.6-1.7-1.6-1.6-1.2.2-1.1 1-1.3 1.6-.2.8-.3 1.6-.5 2.4 0 .2 0 .2.1.3z" fill="#231f20"/><path d="m20.2 19.6 10.4 3.3c.4.1.6.4.3.6-.2.2-.8.3-1.2.1l-10.4-3.3c-.4-.1-.6-.4-.3-.6.2-.2.8-.3 1.2-.1z" fill="#808184"/><path d="m38.3 20.2-10.5 2.8c-.4.1-.6.4-.3.6.2.2.8.3 1.2.2l10.4-2.8c.4-.1.6-.4.3-.6-.2-.2-.7-.3-1.1-.2z" fill="#808184"/><path d="m11.6 55.4c-1.1-.1-2 .5-2.1 1.2l-1 2.8c-.1.8 1.6.5 2.7.5 1.5-.2 2-.5 2.1-1.2l.2-1.8c0-.7-.8-1.4-1.9-1.5z" fill="#231f20"/><path d="m35.8 37.1c-.3-.2-.7-.2-.8-.1l-12.4 11.2-3 .4c-.1 0-.1 0-.2 0l-8.4 7.7c-.1.1 0 .4.3.6.3.2.6.3.8.2l8.1-7.3 2.7-.4c.1 0 .2 0 .3-.1l12.8-11.5c.2-.2.1-.5-.2-.7z" fill="#404041"/><path d="m48 55.3c1.1-.1 2 .5 2.1 1.2l1 2.8c.1.8-1.6.5-2.7.5-1.5-.2-2-.5-2.1-1.2l-.2-1.8c0-.7.8-1.4 1.9-1.5z" fill="#231f20"/><path d="m23.8 37.1c.3-.2.7-.2.8-.1l12.4 11.2 3 .4h.2l8.5 7.6c.1.1 0 .4-.3.6-.3.2-.6.3-.8.2l-8.1-7.3-2.7-.4c-.1 0-.2 0-.3-.1l-12.9-11.4c-.2-.2-.1-.5.2-.7z" fill="#404041"/><path d="m30 46.7c-.3.1-.5.2-.5.3l.1 5.6-1.4 1.1-.1.1v1.9 1.3c0 .6 1 .7 1.1.1.1-.4 0-.8 0-1.2 0-.8 0-1.6 0-2.4l1.3-1.1c.1 0 .1-.1.1-.1l-.1-5.8c.1.1-.2.1-.5.2z" fill="#404041"/><path d="m29.8 23.9c.9 0 1.7 4.1 1.6 9l-.1 11.6c-.1 4.9-.9 8.9-1.8 8.9-.9 0-1.7-4.1-1.6-9l.1-11.7c.1-4.9.9-8.9 1.8-8.8z" fill="#bbbdbf"/><path d="m29.7 21.4c1.5 0 2.7.7 2.7 1.5v1.8c0 .8-1.2 1.4-2.7 1.3-1.5 0-2.7-.7-2.7-1.5v-1.8c0-.7 1.3-1.3 2.7-1.3z" fill="#58595b"/><path d="m29.6 24.3c.5 0 .9.2.9.5v.6c0 .3-.4.5-.9.5-.5 0-.9-.2-.9-.5v-.6c0-.3.4-.5.9-.5z" fill="#404041"/><path d="m28.9 21.9c.9 0 1.7.4 1.7.9v1.1c0 .5-.8.8-1.7.8-.9 0-1.7-.4-1.7-.9v-1.1c0-.5.7-.9 1.7-.8z" fill="#bbbdbf"/><path d="m29.7 40.8c.5 0 .9.2.9.5v.6c0 .3-.4.5-.9.4-.5 0-.9-.2-.9-.5v-.6c0-.2.4-.4.9-.4z" fill="#404041"/><g fill="#808184"><path d="m27.9 51.7 10-3.4c.4-.1 1-.1 1.2.1.3.2.2.5-.2.6l-10 3.4c-.4.1-1 .1-1.2-.1-.3-.1-.2-.4.2-.6z"/><path d="m21.1 48.3 10.4 3.3c.4.1.6.4.3.6-.2.2-.8.3-1.2.1l-10.4-3.3c-.4-.1-.6-.4-.3-.6.3-.2.8-.3 1.2-.1z"/></g></svg>