<svg enable-background="new 0 0 60 60" height="60" viewBox="0 0 60 60" width="60" xmlns="http://www.w3.org/2000/svg"><path d="m2.6 13h54.8v33.8h-54.8z" fill="#3b3b3a"/><path d="m2.2 47.2h-1.8c-.2 0-.4-.2-.4-.4v-33.7c0-.2.2-.4.4-.4h1.9c.2 0 .4.2.4.4v33.7c-.1.3-.3.4-.5.4z" fill="#252525"/><path d="m59.6 47.2h-1.9c-.2 0-.4-.2-.4-.4v-33.7c0-.2.2-.4.4-.4h1.9c.2 0 .4.2.4.4v33.7c0 .3-.2.4-.4.4z" fill="#252525"/><circle cx="16.4" cy="19.5" fill="#eb8231" r=".5"/><circle cx="19.9" cy="19.5" fill="#eb8231" r=".5"/><circle cx="23.3" cy="19.5" fill="#eb8231" r=".5"/><circle cx="26.9" cy="19.5" fill="#eb8231" r=".5"/><ellipse cx="30.3" cy="19.5" fill="#eb8231" rx=".5" ry=".5"/><circle cx="33.9" cy="19.5" fill="#eb8231" r=".5"/><circle cx="37.4" cy="19.5" fill="#eb8231" r=".5"/><circle cx="40.7" cy="19.5" fill="#eb8231" r=".5"/><circle cx="44.3" cy="19.5" fill="#eb8231" r=".5"/><circle cx="47.7" cy="19.5" fill="#eb8231" r=".5"/><circle cx="51.1" cy="19.5" fill="#eb8231" r=".5"/><circle cx="54.6" cy="19.5" fill="#eb8231" r=".5"/><path d="m28 30.7h-2.6c-.1 0-.2-.1-.2-.2v-.8c0-.1.1-.2.2-.2h2.6c.1 0 .2.1.2.2v.8c.1.1 0 .2-.2.2z" fill="#f8f1c9"/><path d="m31.5 30.7h-2.6c-.1 0-.2-.1-.2-.2v-.8c0-.1.1-.2.2-.2h2.6c.1 0 .2.1.2.2v.8c.1.1 0 .2-.2.2z" fill="#f8f1c9"/><path d="m35 30.7h-2.6c-.1 0-.2-.1-.2-.2v-.8c0-.1.1-.2.2-.2h2.6c.1 0 .2.1.2.2v.8c.1.1-.1.2-.2.2z" fill="#f8f1c9"/><path d="m38.5 30.7h-2.6c-.1 0-.2-.1-.2-.2v-.8c0-.1.1-.2.2-.2h2.6c.1 0 .2.1.2.2v.8c0 .1-.1.2-.2.2z" fill="#f8f1c9"/><path d="m42 30.7h-2.6c-.1 0-.2-.1-.2-.2v-.8c0-.1.1-.2.2-.2h2.6c.1 0 .2.1.2.2v.8c0 .1-.1.2-.2.2z" fill="#f8f1c9"/><path d="m45.5 30.7h-2.6c-.1 0-.2-.1-.2-.2v-.8c0-.1.1-.2.2-.2h2.6c.1 0 .2.1.2.2v.8c0 .1-.1.2-.2.2z" fill="#f8f1c9"/><path d="m49 30.7h-2.6c-.1 0-.2-.1-.2-.2v-.8c0-.1.1-.2.2-.2h2.6c.1 0 .2.1.2.2v.8c0 .1-.1.2-.2.2z" fill="#f8f1c9"/><path d="m52.4 30.7h-2.6c-.1 0-.2-.1-.2-.2v-.8c0-.1.1-.2.2-.2h2.6c.1 0 .2.1.2.2v.8c.1.1 0 .2-.2.2z" fill="#f8f1c9"/><path d="m55.9 30.7h-2.6c-.1 0-.2-.1-.2-.2v-.8c0-.1.1-.2.2-.2h2.6c.1 0 .2.1.2.2v.8c.1.1 0 .2-.2.2z" fill="#f8f1c9"/><circle cx="6.2" cy="21.1" fill="#252525" r="1.4"/><path d="m6.1 21.8h.8v.7h-.8z" fill="#f03f31" transform="matrix(.8943 -.4475 .4475 .8943 -9.1973 5.2675)"/><circle cx="11.9" cy="21.1" fill="#252525" r="1.4"/><path d="m11.8 21.8h.8v.6h-.8z" fill="#f03f31" transform="matrix(.9488 -.3158 .3158 .9488 -6.3542 4.983)"/><circle cx="12.2" cy="32.8" fill="#252525" r=".8"/><path d="m12 33.1h.8v.5h-.8z" fill="#f03f31" transform="matrix(.9284 -.3717 .3717 .9284 -11.5077 6.9985)"/><circle cx="7" cy="31.5" fill="#252525" r="2.7"/><path d="m27 27.9v1.2c0 .1 0 .1-.1.1h-.4c-.1 0-.1 0-.1-.1v-1.2c0-.1 0-.1.1-.1h.4c.1 0 .1 0 .1.1z" fill="#1e1a1e"/><g fill="#91a0af"><path d="m20.9 36.9h-6c-.1 0-.2-.1-.2-.2v-.4c0-.1.1-.2.2-.2h6c.1 0 .2.1.2.2v.4c.1.1 0 .2-.2.2z"/><path d="m27.9 36.9h-6.1c-.1 0-.2-.1-.2-.2v-.4c0-.1.1-.2.2-.2h6.1c.1 0 .2.1.2.2v.4c0 .1-.1.2-.2.2z"/><path d="m34.7 36.9h-6c-.1 0-.2-.1-.2-.2v-.4c0-.1.1-.2.2-.2h6c.1 0 .2.1.2.2v.4c0 .1-.1.2-.2.2z"/><path d="m32.4 39h-8.2c-.1 0-.2-.1-.2-.2v-.4c0-.1.1-.2.2-.2h8.2c.1 0 .2.1.2.2v.4c0 .1-.1.2-.2.2z"/><path d="m23.1 39h-8.1c-.1 0-.2-.1-.2-.2v-.4c0-.1.1-.2.2-.2h8.1c.1 0 .2.1.2.2v.4c0 .1-.1.2-.2.2z"/><path d="m41.6 36.9h-6c-.1 0-.2-.1-.2-.2v-.4c0-.1.1-.2.2-.2h6c.1 0 .2.1.2.2v.4c0 .1-.1.2-.2.2z"/><path d="m48.2 36.9h-5.8c-.1 0-.2-.1-.2-.2v-.4c0-.1.1-.2.2-.2h5.8c.1 0 .2.1.2.2v.4c0 .1-.1.2-.2.2z"/><path d="m50.5 38h-8c-.1 0-.2-.1-.2-.2v-.4c0-.1.1-.2.2-.2h8c.1 0 .2.1.2.2v.4c0 .1-.1.2-.2.2z"/><path d="m41.6 38h-12.9c-.1 0-.2-.1-.2-.2v-.4c0-.1.1-.2.2-.2h12.9c.1 0 .2.1.2.2v.4c0 .1-.1.2-.2.2z"/><path d="m27.9 38h-13c-.1 0-.2-.1-.2-.2v-.4c0-.1.1-.2.2-.2h12.9c.1 0 .2.1.2.2v.4c.1.1 0 .2-.1.2z"/><path d="m32.4 40.1h-17.5c-.1 0-.2-.1-.2-.2v-.4c0-.1.1-.2.2-.2h17.4c.1 0 .2.1.2.2v.4c.1.1 0 .2-.1.2z"/><path d="m50.5 39h-8c-.1 0-.2-.1-.2-.2v-.4c0-.1.1-.2.2-.2h8c.1 0 .2.1.2.2v.4c0 .1-.1.2-.2.2z"/><path d="m41.6 39h-8.4c-.1 0-.2-.1-.2-.2v-.4c0-.1.1-.2.2-.2h8.4c.1 0 .2.1.2.2v.4c0 .1-.1.2-.2.2z"/><path d="m50.5 40.1h-17.3c-.1 0-.2-.1-.2-.2v-.4c0-.1.1-.2.2-.2h17.3c.1 0 .2.1.2.2v.4c0 .1-.1.2-.2.2z"/><path d="m50.7 36.9h-1.5c-.1 0-.2-.1-.2-.2v-.4c0-.1.1-.2.2-.2h1.5z"/><path d="m11.2 44v-7.8c0-.1-.1-.2-.2-.2h-6.7c-.1 0-.2.1-.2.2v9.2c0 .1.1.2.2.2h7 30.4c.1 0 .2-.1.2-.2v-1c0-.1-.1-.2-.2-.2h-30.3c-.1 0-.2-.1-.2-.2z"/><path d="m51.6 36.2v7.8c0 .1-.1.2-.2.2h-8.9c-.1 0-.2.1-.2.2v1c0 .1.1.2.2.2h9 3.5 1c.1 0 .2-.1.2-.2v-9.2c0-.1-.1-.2-.2-.2h-4.3s-.1.1-.1.2z"/></g><path d="m6.7 16.3h-1.7c-.1 0-.2-.1-.2-.2v-1.1c0-.1.1-.2.2-.2h1.7c.1 0 .2.1.2.2v1c0 .2-.1.3-.2.3z" fill="#252525"/><circle cx="6.2" cy="24.6" fill="#bf4d53" r=".4"/><path d="m7 36.4c-2.7 0-4.9-2.2-4.9-4.9s2.2-4.9 4.9-4.9 4.9 2.2 4.9 4.9-2.2 4.9-4.9 4.9zm0-6.6c-.9 0-1.7.7-1.7 1.7s.7 1.7 1.7 1.7 1.7-.7 1.7-1.7-.8-1.7-1.7-1.7z" fill="#f8f1c9"/><path d="m8.6 33.8-.4.2-.6-1c0-.1 0-.2.1-.3l.1-.1c.1 0 .2 0 .3.1z" fill="#f03f31"/><path d="m16.4 41.1v2.3c0 .1-.1.3-.3.3h-1.1c-.1 0-.3-.1-.3-.3v-2.3c0-.1.1-.3.3-.3h1.2c.1.1.2.2.2.3z" fill="#c3332f"/><path d="m18.7 41.1v2.3c0 .1-.1.3-.3.3h-1.2c-.1 0-.3-.1-.3-.3v-2.3c0-.1.1-.3.3-.3h1.2c.2.1.3.2.3.3z" fill="#c3332f"/><path d="m21 41.1v2.3c0 .1-.1.3-.3.3h-1.2c-.1 0-.3-.1-.3-.3v-2.3c0-.1.1-.3.3-.3h1.2c.1.1.3.2.3.3z" fill="#c3332f"/><path d="m23.2 41.1v2.3c0 .1-.1.3-.3.3h-1.2c-.1 0-.3-.1-.3-.3v-2.3c0-.1.1-.3.3-.3h1.3c.1.1.2.2.2.3z" fill="#c3332f"/><path d="m25.5 41.1v2.3c0 .1-.1.3-.3.3h-1.2c-.1 0-.3-.1-.3-.3v-2.3c0-.1.1-.3.3-.3h1.2c.2.1.3.2.3.3z" fill="#e58132"/><path d="m27.8 41.1v2.3c0 .1-.1.3-.3.3h-1.2c-.1 0-.3-.1-.3-.3v-2.3c0-.1.1-.3.3-.3h1.2c.2.1.3.2.3.3z" fill="#e58132"/><path d="m30.1 41.1v2.3c0 .1-.1.3-.3.3h-1.2c-.1 0-.3-.1-.3-.3v-2.3c0-.1.1-.3.3-.3h1.2c.2.1.3.2.3.3z" fill="#e58132"/><path d="m32.4 41.1v2.3c0 .1-.1.3-.3.3h-1.2c-.1 0-.3-.1-.3-.3v-2.3c0-.1.1-.3.3-.3h1.2c.1.1.3.2.3.3z" fill="#e58132"/><path d="m34.7 41.1v2.3c0 .1-.1.3-.3.3h-1.2c-.1 0-.3-.1-.3-.3v-2.3c0-.1.1-.3.3-.3h1.2c.1.1.3.2.3.3z" fill="#fce64f"/><path d="m36.9 41.1v2.3c0 .1-.1.3-.3.3h-1.2c-.1 0-.3-.1-.3-.3v-2.3c0-.1.1-.3.3-.3h1.2c.2.1.3.2.3.3z" fill="#fce64f"/><path d="m39.2 41.1v2.3c0 .1-.1.3-.3.3h-1.2c-.1 0-.3-.1-.3-.3v-2.3c0-.1.1-.3.3-.3h1.2c.2.1.3.2.3.3z" fill="#fce64f"/><path d="m41.5 41.1v2.3c0 .1-.1.3-.3.3h-1.2c-.1 0-.3-.1-.3-.3v-2.3c0-.1.1-.3.3-.3h1.2c.2.1.3.2.3.3z" fill="#fce64f"/><path d="m43.8 41.1v2.3c0 .1-.1.3-.3.3h-1.2c-.1 0-.3-.1-.3-.3v-2.3c0-.1.1-.3.3-.3h1.2c.2.1.3.2.3.3z" fill="#fff"/><path d="m46.1 41.1v2.3c0 .1-.1.3-.3.3h-1.2c-.1 0-.3-.1-.3-.3v-2.3c0-.1.1-.3.3-.3h1.2c.1.1.3.2.3.3z" fill="#fff"/><path d="m48.3 41.1v2.3c0 .1-.1.3-.3.3h-1.2c-.1 0-.3-.1-.3-.3v-2.3c0-.1.1-.3.3-.3h1.2c.2.1.3.2.3.3z" fill="#fff"/><path d="m50.6 41.1v2.3c0 .1-.1.3-.3.3h-1.2c-.1 0-.3-.1-.3-.3v-2.3c0-.1.1-.3.3-.3h1.2c.2.1.3.2.3.3z" fill="#fff"/><path d="m12.9 37v2.1c0 .1-.1.2-.2.2h-.4c-.1 0-.2-.1-.2-.2v-2.1c0-.1.1-.2.2-.2h.4c.1.1.2.1.2.2z" fill="#1e1a1e"/><path d="m9.9 43.4h-4.3c-.1 0-.2-.1-.2-.2v-1.9c0-.1.1-.2.2-.2h4.3c.1 0 .2.1.2.2v1.9c0 .1-.1.2-.2.2z" fill="#f8f1c9"/><path d="m55 43.5h-2.1c-.1 0-.2-.1-.2-.2v-1.9c0-.1.1-.2.2-.2h2.1c.1 0 .2.1.2.2v1.9c0 .1-.1.2-.2.2z" fill="#f8f1c9"/><circle cx="12.6" cy="41.5" fill="#c3332f" r=".3"/><circle cx="12.6" cy="43.1" fill="#c3332f" r=".3"/><path d="m8.5 37.7h-1.4c-.2 0-.3-.1-.3-.3s.1-.3.3-.3h1.5c.2 0 .3.1.3.3s-.2.3-.4.3z" fill="#1e1a1e"/><circle cx="8.5" cy="37.4" fill="#f8f1c9" r=".3"/><path d="m54.5 37.7h-.8c-.2 0-.3-.1-.3-.3s.1-.3.3-.3h.8c.2 0 .3.1.3.3s-.1.3-.3.3z" fill="#1e1a1e"/><circle cx="54.5" cy="37.4" fill="#f8f1c9" r=".3"/><circle cx="11.9" cy="26.2" fill="#252525" r="1.4"/><path d="m11.8 26.9h.8v.6h-.8z" fill="#f03f31" transform="matrix(.9488 -.3158 .3158 .9488 -7.9646 5.2439)"/><circle cx="53.8" cy="33" fill="#252525" r="1.4"/><g fill="#f03f31"><path d="m53.7 33.8h.8v.5h-.8z" transform="matrix(.9284 -.3717 .3717 .9284 -8.7802 22.5488)"/><circle cx="24.7" cy="41.4" r=".3"/><circle cx="22.4" cy="41.4" r=".3"/><circle cx="20.1" cy="41.4" r=".3"/><circle cx="17.8" cy="41.4" r=".3"/><circle cx="15.6" cy="41.4" r=".3"/><circle cx="36.1" cy="41.4" r=".3"/><circle cx="33.8" cy="41.4" r=".3"/><circle cx="31.5" cy="41.4" r=".3"/><circle cx="29.2" cy="41.4" r=".3"/><circle cx="26.9" cy="41.4" r=".3"/><circle cx="38.4" cy="41.4" r=".3"/><circle cx="49.8" cy="41.4" r=".3"/><circle cx="47.5" cy="41.4" r=".3"/><circle cx="45.2" cy="41.4" r=".3"/><circle cx="43" cy="41.4" r=".3"/><circle cx="40.7" cy="41.4" r=".3"/></g><path d="m6.7 38.9h2.3v.9h-2.3z" fill="#1e1a1e"/><circle cx="8.5" cy="39.4" fill="#c3332f" r=".3"/><circle cx="7.2" cy="39.4" fill="#c3332f" r=".3"/><circle cx="33.8" cy="23.4" fill="#f0f1f0" r=".5"/><circle cx="19.9" cy="23.4" fill="#f0f1f0" r=".5"/><circle cx="23.3" cy="23.4" fill="#f0f1f0" r=".5"/><circle cx="26.9" cy="23.4" fill="#f0f1f0" r=".5"/><circle cx="30.4" cy="23.4" fill="#f0f1f0" r=".5"/><circle cx="19.9" cy="27.3" fill="#f0f1f0" r=".5"/><circle cx="23.3" cy="27.3" fill="#f0f1f0" r=".5"/><circle cx="47.6" cy="27.2" fill="#f0f1f0" r=".5"/><circle cx="51.1" cy="27.2" fill="#f0f1f0" r=".5"/><circle cx="47.6" cy="23.4" fill="#f0f1f0" r=".5"/><path d="m7 35.2c-2.1 0-3.7-1.7-3.7-3.8s1.7-3.8 3.7-3.8 3.7 1.7 3.7 3.8-1.6 3.8-3.7 3.8zm0-6c-1.1 0-2.1 1-2.1 2.2s.9 2.2 2.1 2.2 2.1-1 2.1-2.2-1-2.2-2.1-2.2z" fill="#3b3b3a"/><path d="m17.6 30.7h-2.6c-.1 0-.2-.1-.2-.2v-.8c0-.1.1-.2.2-.2h2.6c.1 0 .2.1.2.2v.8c0 .1-.1.2-.2.2z" fill="#f8f1c9"/><path d="m21 30.7h-2.6c-.1 0-.2-.1-.2-.2v-.8c0-.1.1-.2.2-.2h2.6c.1 0 .2.1.2.2v.8c.1.1 0 .2-.2.2z" fill="#f8f1c9"/><path d="m24.5 30.7h-2.6c-.1 0-.2-.1-.2-.2v-.8c0-.1.1-.2.2-.2h2.6c.1 0 .2.1.2.2v.8c.1.1 0 .2-.2.2z" fill="#f8f1c9"/><path d="m28 27.6h-2.6c-.1 0-.2-.1-.2-.2v-.8c0-.1.1-.2.2-.2h2.6c.1 0 .2.1.2.2v.8c.1.1 0 .2-.2.2z" fill="#f8f1c9"/><path d="m31.5 27.6h-2.6c-.1 0-.2-.1-.2-.2v-.8c0-.1.1-.2.2-.2h2.6c.1 0 .2.1.2.2v.8c.1.1-.1.2-.2.2z" fill="#f8f1c9"/><path d="m35 27.6h-2.6c-.1 0-.2-.1-.2-.2v-.8c0-.1.1-.2.2-.2h2.6c.1 0 .2.1.2.2v.8c0 .1-.1.2-.2.2z" fill="#f8f1c9"/><path d="m38.5 27.6h-2.6c-.1 0-.2-.1-.2-.2v-.8c0-.1.1-.2.2-.2h2.6c.1 0 .2.1.2.2v.8c0 .1-.1.2-.2.2z" fill="#f8f1c9"/><path d="m42 27.6h-2.6c-.1 0-.2-.1-.2-.2v-.8c0-.1.1-.2.2-.2h2.6c.1 0 .2.1.2.2v.8c0 .1-.1.2-.2.2z" fill="#f8f1c9"/><path d="m30.5 27.9v1.2c0 .1 0 .1-.1.1h-.4c-.1 0-.1 0-.1-.1v-1.2c0-.1 0-.1.1-.1h.4s.1 0 .1.1z" fill="#1e1a1e"/><path d="m31.5 27.6h-2.6c-.1 0-.2-.1-.2-.2v-.8c0-.1.1-.2.2-.2h2.6c.1 0 .2.1.2.2v.8c.1.1-.1.2-.2.2z" fill="#f8f1c9"/><path d="m34 27.9v1.2c0 .1 0 .1-.1.1h-.4c-.1 0-.1 0-.1-.1v-1.2c0-.1 0-.1.1-.1h.4s.1 0 .1.1z" fill="#1e1a1e"/><path d="m35 27.6h-2.6c-.1 0-.2-.1-.2-.2v-.8c0-.1.1-.2.2-.2h2.6c.1 0 .2.1.2.2v.8c0 .1-.1.2-.2.2z" fill="#f8f1c9"/><path d="m37.5 27.9v1.2c0 .1 0 .1-.1.1h-.4c-.1 0-.1 0-.1-.1v-1.2c0-.1 0-.1.1-.1h.4s.1 0 .1.1z" fill="#1e1a1e"/><path d="m38.5 27.6h-2.6c-.1 0-.2-.1-.2-.2v-.8c0-.1.1-.2.2-.2h2.6c.1 0 .2.1.2.2v.8c0 .1-.1.2-.2.2z" fill="#f8f1c9"/><path d="m41 27.9v1.2c0 .1 0 .1-.1.1h-.4c-.1 0-.1 0-.1-.1v-1.2c0-.1 0-.1.1-.1h.4s.1 0 .1.1z" fill="#1e1a1e"/><path d="m42 27.6h-2.6c-.1 0-.2-.1-.2-.2v-.8c0-.1.1-.2.2-.2h2.6c.1 0 .2.1.2.2v.8c0 .1-.1.2-.2.2z" fill="#f8f1c9"/></svg>