<svg enable-background="new 0 0 60 60" height="60" viewBox="0 0 60 60" width="60" xmlns="http://www.w3.org/2000/svg"><path d="m.8 12.1h58.4v35.7h-58.4z" fill="#d3d3ca"/><path d="m7 35.1h-1.8c-.1 0-.2-.1-.2-.3v-1.7c0-.1.1-.3.3-.3h1.7c.1 0 .3.1.3.3v1.7c-.1.2-.2.3-.3.3z" fill="#fffed6"/><path d="m10.1 35.1h-1.8c-.1 0-.3-.1-.3-.3v-1.7c0-.1.1-.3.3-.3h1.7c.1 0 .3.1.3.3v1.7c0 .2-.1.3-.2.3z" fill="#fffed6"/><path d="m11.8 32.7h4.9v2.4h-4.9z" fill="#b01d1d"/><circle cx="6.3" cy="28.6" fill="#323232" r=".6"/><circle cx="10.1" cy="28.6" fill="#323232" r=".6"/><path d="m23.6 32.7h1.1v1.1h-1.1z" fill="#b01d1d" stroke="#a4a4a1" stroke-miterlimit="10" stroke-width=".7896"/><path d="m25.2 32.7h1.1v1.1h-1.1z" fill="#b01d1d"/><path d="m25.2 32.7h1.1v1.1h-1.1z" fill="none" stroke="#a4a4a1" stroke-miterlimit="10" stroke-width=".7896"/><path d="m26.8 32.7h1.1v1.1h-1.1z" fill="#b01d1d" stroke="#a4a4a1" stroke-miterlimit="10" stroke-width=".7896"/><path d="m28.4 32.7h1.1v1.1h-1.1z" fill="#b01d1d" stroke="#a4a4a1" stroke-miterlimit="10" stroke-width=".7896"/><path d="m23.6 34.8h5.8v.8h-5.8z" fill="#fc6908"/><path d="m30.5 34.8h4.4v.8h-4.4z" fill="#fc6908"/><path d="m35 34.8h1.3v.8h-1.3z" fill="#fc6908"/><path d="m37.4 34.8h2.7v.8h-2.7z" fill="#fc6908"/><path d="m40.5 34.8h2.7v.8h-2.7z" fill="#fc6908"/><path d="m43.7 34.8h1.4v.8h-1.4z" fill="#fc6908"/><path d="m45.3 34.8h1.4v.8h-1.4z" fill="#fc6908"/><path d="m4.4 22.8h4.1v.7h-4.1z" fill="#323232"/><path d="m8.8 22.8h5.5v.7h-5.5z" fill="#323232"/><path d="m14.6 22.8h5.6v.7h-5.6z" fill="#323232"/><path d="m20.4 22.8h5.6v.7h-5.6z" fill="#323232"/><path d="m26.3 22.8h5.5v.7h-5.5z" fill="#323232"/><path d="m32.1 22.8h5.6v.7h-5.6z" fill="#323232"/><path d="m38 22.8h5.6v.7h-5.6z" fill="#323232"/><path d="m43.9 22.9h5.6v.7h-5.6z" fill="#323232"/><path d="m49.8 22.9h5.7v.7h-5.7z" fill="#323232"/><path d="m49.6 23.5v7.7" fill="none" stroke="#323232" stroke-miterlimit="10" stroke-width=".3948"/><path d="m43.8 23.5v7.7" fill="none" stroke="#323232" stroke-miterlimit="10" stroke-width=".3948"/><path d="m37.9 23.5v7.7" fill="none" stroke="#323232" stroke-miterlimit="10" stroke-width=".3948"/><path d="m32 23.5v7.7" fill="none" stroke="#323232" stroke-miterlimit="10" stroke-width=".3948"/><path d="m26.2 23.5v7.7" fill="none" stroke="#323232" stroke-miterlimit="10" stroke-width=".3948"/><path d="m20.3 23.6v7.6" fill="none" stroke="#323232" stroke-miterlimit="10" stroke-width=".3948"/><path d="m14.4 23.5v7.7" fill="none" stroke="#323232" stroke-miterlimit="10" stroke-width=".3948"/><path d="m8.6 23.5v7.7" fill="none" stroke="#323232" stroke-miterlimit="10" stroke-width=".3948"/><path d="m8.1 36.3h-4v9.7h4.2v-5.6" fill="none" stroke="#323232" stroke-miterlimit="10" stroke-width=".3948"/><circle cx="53.9" cy="33.9" fill="#323232" r="1.4"/><path d="m32.2 39h11.5v.7h-11.5z" fill="#323232"/><path d="m43.9 39h11.6v.7h-11.6z" fill="#323232"/><path d="m32.2 38.2h23.3v.7h-23.3z" fill="#323232"/><path d="m43.9 37.2h11.6v.7h-11.6z" fill="#323232"/><path d="m43.9 36.3h11.6v.7h-11.6z" fill="#323232"/><path d="m35.1 37.2h8.6v.7h-8.6z" fill="#323232"/><path d="m26.3 37.2h8.6v.7h-8.6z" fill="#323232"/><path d="m17.5 37.2h8.6v.7h-8.6z" fill="#323232"/><path d="m8.3 37.2h9v.7h-9z" fill="#323232"/><path d="m26.3 36.3h17.5v.7h-17.5z" fill="#323232"/><path d="m8.3 36.3h17.8v.7h-17.8z" fill="#323232"/><path d="m8.3 38.2h23.7v.7h-23.7z" fill="#323232"/><path d="m20.4 39h11.6v.7h-11.6z" fill="#323232"/><path d="m8.3 39h11.9v.7h-11.9z" fill="#323232"/><path d="m8.8 44.3h46.4v.7h-46.4z" fill="#323232"/><path d="m55.7 36.1v9.9" fill="none"/><g fill="#323232"><circle cx="10.2" cy="25.9" r=".6"/><circle cx="12.8" cy="25.9" r=".6"/><circle cx="12.8" cy="28.6" r=".6"/><circle cx="16" cy="25.8" r=".6"/><circle cx="16" cy="28.6" r=".6"/><circle cx="18.6" cy="28.6" r=".6"/><circle cx="18.6" cy="25.9" r=".6"/><circle cx="21.9" cy="25.9" r=".6"/><circle cx="24.5" cy="25.9" r=".6"/><circle cx="27.8" cy="25.9" r=".6"/><circle cx="27.8" cy="28.7" r=".6"/><ellipse cx="30.5" cy="25.9" rx=".6" ry=".6"/><circle cx="33.6" cy="25.9" r=".6"/><circle cx="36.2" cy="25.9" r=".6"/><circle cx="39.5" cy="25.9" r=".6"/><circle cx="42.1" cy="25.9" r=".6"/><circle cx="48.1" cy="25.9" r=".6"/><circle cx="48.1" cy="28.6" r=".6"/><circle cx="45.4" cy="28.6" r=".6"/><circle cx="33.6" cy="28.7" r=".6"/><circle cx="21.9" cy="28.7" r=".6"/><circle cx="51.3" cy="25.8" r=".6"/><circle cx="51.3" cy="28.5" r=".6"/><circle cx="53.9" cy="28.5" r=".6"/><circle cx="53.9" cy="25.8" r=".6"/></g><path d="m4.1 22.8v8.4" fill="none" stroke="#323232" stroke-miterlimit="10" stroke-width=".3948"/><path d="m55.7 22.9v8.3" fill="none" stroke="#323232" stroke-miterlimit="10" stroke-width=".3948"/><path d="m55.7 36.1v9.9" fill="none" stroke="#323232" stroke-miterlimit="10" stroke-width=".3948"/><circle cx="20" cy="33.9" fill="#323232" r="1.4"/><path d="m49.8 35.1h-1.8c-.1 0-.3-.1-.3-.3v-1.7c0-.1.1-.3.3-.3h1.7c.1 0 .3.1.3.3v1.7c0 .2-.1.3-.2.3z" fill="#a4a4a1"/><path d="m30.5 32.6h1.1v1.1h-1.1z" fill="#b01d1d" stroke="#a4a4a1" stroke-miterlimit="10" stroke-width=".7896"/><path d="m32.1 32.6h1.1v1.1h-1.1z" fill="#b01d1d" stroke="#a4a4a1" stroke-miterlimit="10" stroke-width=".7896"/><path d="m33.7 32.6h1.1v1.1h-1.1z" fill="#b01d1d" stroke="#a4a4a1" stroke-miterlimit="10" stroke-width=".7896"/><path d="m35.2 32.6h1.1v1.1h-1.1z" fill="#b01d1d" stroke="#a4a4a1" stroke-miterlimit="10" stroke-width=".7896"/><path d="m37.4 32.6h1.1v1.1h-1.1z" fill="#b01d1d" stroke="#a4a4a1" stroke-miterlimit="10" stroke-width=".7896"/><path d="m39 32.6h1.1v1.1h-1.1z" fill="#b01d1d" stroke="#a4a4a1" stroke-miterlimit="10" stroke-width=".7896"/><path d="m40.6 32.6h1.1v1.1h-1.1z" fill="#b01d1d" stroke="#a4a4a1" stroke-miterlimit="10" stroke-width=".7896"/><path d="m42.1 32.6h1.1v1.1h-1.1z" fill="#b01d1d" stroke="#a4a4a1" stroke-miterlimit="10" stroke-width=".7896"/><path d="m43.8 32.6h1.1v1.1h-1.1z" fill="#b01d1d" stroke="#a4a4a1" stroke-miterlimit="10" stroke-width=".7896"/><path d="m45.4 32.6h1.1v1.1h-1.1z" fill="#b01d1d" stroke="#a4a4a1" stroke-miterlimit="10" stroke-width=".7896"/><path d="m10.8 43.9h-1.7c-.1 0-.3-.1-.3-.3v-1.7c0-.1.1-.3.3-.3h1.7c.1 0 .3.1.3.3v1.7c0 .2-.1.3-.3.3z" fill="#a4a4a1"/><path d="m13.8 43.9h-1.7c-.1 0-.3-.1-.3-.3v-1.7c0-.1.1-.3.3-.3h1.7c.1 0 .3.1.3.3v1.7c0 .2-.1.3-.3.3z" fill="#a4a4a1"/><path d="m16.8 43.9h-1.8c-.1 0-.3-.1-.3-.3v-1.7c0-.1.1-.3.3-.3h1.7c.1 0 .3.1.3.3v1.7c0 .2-.1.3-.2.3z" fill="#a4a4a1"/><path d="m19.8 43.9h-1.8c-.1 0-.3-.1-.3-.3v-1.7c0-.1.1-.3.3-.3h1.7c.1 0 .3.1.3.3v1.7c0 .2-.1.3-.2.3z" fill="#a4a4a1"/><path d="m22.7 43.9h-1.7c-.1 0-.3-.1-.3-.3v-1.7c0-.1.1-.3.3-.3h1.7c.1 0 .3.1.3.3v1.7c0 .2-.1.3-.3.3z" fill="#a4a4a1"/><path d="m25.7 43.9h-1.7c-.1 0-.3-.1-.3-.3v-1.7c0-.1.1-.3.3-.3h1.7c.1 0 .3.1.3.3v1.7c0 .2-.1.3-.3.3z" fill="#a4a4a1"/><path d="m28.7 43.9h-1.7c-.1 0-.3-.1-.3-.3v-1.7c0-.1.1-.3.3-.3h1.7c.1 0 .3.1.3.3v1.7c0 .2-.1.3-.3.3z" fill="#a4a4a1"/><path d="m31.7 43.9h-1.7c-.1 0-.3-.1-.3-.3v-1.7c0-.1.1-.3.3-.3h1.7c.1 0 .3.1.3.3v1.7c0 .2-.2.3-.3.3z" fill="#a4a4a1"/><path d="m34.7 43.9h-1.7c-.1 0-.3-.1-.3-.3v-1.7c0-.1.1-.3.3-.3h1.7c.1 0 .3.1.3.3v1.7c-.1.2-.2.3-.3.3z" fill="#a4a4a1"/><path d="m37.7 43.9h-1.7c-.1 0-.3-.1-.3-.3v-1.7c0-.1.1-.3.3-.3h1.7c.1 0 .3.1.3.3v1.7c0 .2-.1.3-.3.3z" fill="#a4a4a1"/><path d="m40.6 43.9h-1.7c-.1 0-.3-.1-.3-.3v-1.7c0-.1.1-.3.3-.3h1.7c.1 0 .3.1.3.3v1.7c0 .2-.1.3-.3.3z" fill="#a4a4a1"/><path d="m43.5 43.9h-1.7c-.1 0-.3-.1-.3-.3v-1.7c0-.1.1-.3.3-.3h1.7c.1 0 .3.1.3.3v1.7c0 .2-.2.3-.3.3z" fill="#a4a4a1"/><path d="m46.4 43.9h-1.7c-.1 0-.3-.1-.3-.3v-1.7c0-.1.1-.3.3-.3h1.7c.1 0 .3.1.3.3v1.7c0 .2-.2.3-.3.3z" fill="#a4a4a1"/><path d="m49.3 43.9h-1.7c-.1 0-.3-.1-.3-.3v-1.7c0-.1.1-.3.3-.3h1.7c.1 0 .3.1.3.3v1.7c-.1.2-.2.3-.3.3z" fill="#a4a4a1"/><path d="m52.1 43.9h-1.7c-.1 0-.3-.1-.3-.3v-1.7c0-.1.1-.3.3-.3h1.7c.1 0 .3.1.3.3v1.7c0 .2-.1.3-.3.3z" fill="#a4a4a1"/><path d="m55 43.9h-1.7c-.1 0-.3-.1-.3-.3v-1.7c0-.1.1-.3.3-.3h1.7c.1 0 .3.1.3.3v1.7c0 .2-.1.3-.3.3z" fill="#a4a4a1"/><path d="m5 37.2h1.1v1.1h-1.1z" fill="#b01d1d" stroke="#a4a4a1" stroke-miterlimit="10" stroke-width=".7896"/><path d="m6.6 37.2h1.1v1.1h-1.1z" fill="#b01d1d" stroke="#a4a4a1" stroke-miterlimit="10" stroke-width=".7896"/><path d="m5 39.3h1.1v1.1h-1.1z" fill="#b01d1d" stroke="#a4a4a1" stroke-miterlimit="10" stroke-width=".7896"/><path d="m6.6 39.3h1.1v1.1h-1.1z" fill="#b01d1d" stroke="#a4a4a1" stroke-miterlimit="10" stroke-width=".7896"/><path d="m5 41.5h1.1v1.1h-1.1z" fill="#b01d1d" stroke="#a4a4a1" stroke-miterlimit="10" stroke-width=".7896"/><path d="m6.6 41.5h1.1v1.1h-1.1z" fill="#b01d1d" stroke="#a4a4a1" stroke-miterlimit="10" stroke-width=".7896"/><circle cx="8.7" cy="36.7" fill="#b01d1d" r=".1"/><circle cx="8.7" cy="37.6" fill="#b01d1d" r=".1"/><circle cx="8.7" cy="38.4" fill="#b01d1d" r=".1"/><circle cx="8.7" cy="39.4" fill="#b01d1d" r=".1"/><g fill="#707070"><path d="m9.7 41.8h.6v.2h-.6z"/><path d="m12.6 41.8h.6v.2h-.6z"/><path d="m15.6 41.8h.6v.2h-.6z"/><path d="m18.6 41.8h.6v.2h-.6z"/><path d="m21.6 41.8h.6v.2h-.6z"/><path d="m24.5 41.8h.6v.2h-.6z"/><path d="m27.5 41.8h.6v.2h-.6z"/><path d="m30.5 41.8h.6v.2h-.6z"/><path d="m33.5 41.8h.6v.2h-.6z"/><path d="m36.6 41.8h.6v.2h-.6z"/><path d="m39.4 41.8h.6v.2h-.6z"/><path d="m42.3 41.8h.6v.2h-.6z"/><path d="m45.2 41.8h.6v.2h-.6z"/><path d="m48.1 41.8h.6v.2h-.6z"/><path d="m51 41.8h.6v.2h-.6z"/><path d="m48.6 32.9h.6v.2h-.6z"/><path d="m53.9 41.8h.6v.2h-.6z"/></g><path d="m20.4 33.6.6-.6" fill="none" stroke="#fc6709" stroke-miterlimit="10" stroke-width=".7896"/><circle cx="53.9" cy="33.9" fill="#323232" r="1.4"/><path d="m54 33.4v-.9" fill="none" stroke="#fc6709" stroke-miterlimit="10" stroke-width=".7896"/><path d="m0 12.1h.8v35.7h-.8z" fill="#989866"/><path d="m59.2 12.1h.8v35.7h-.8z" fill="#989866"/></svg>