<?xml version="1.0" encoding="utf-8"?>
<!-- Generator: Adobe Illustrator 22.1.0, SVG Export Plug-In . SVG Version: 6.00 Build 0)  -->
<svg version="1.1" id="Layer_1" xmlns="http://www.w3.org/2000/svg" xmlns:xlink="http://www.w3.org/1999/xlink" x="0px" y="0px"
	 width="60px" height="60px" viewBox="0 0 60 60" style="enable-background:new 0 0 60 60;" xml:space="preserve">
<style type="text/css">
	.st0{fill:#249ac1;}
	.st1{fill:#FFFED6;}
	.st2{fill:#B01D1D;}
	.st3{fill:#323232;}
	.st4{fill:#B01D1D;stroke:#A4A4A1;stroke-width:0.7896;stroke-miterlimit:10;}
	.st5{fill:none;stroke:#A4A4A1;stroke-width:0.7896;stroke-miterlimit:10;}
	.st6{fill:#FC6908;}
	.st7{fill:none;stroke:#323232;stroke-width:0.3948;stroke-miterlimit:10;}
	.st8{fill:none;}
	.st9{fill:#A4A4A1;}
	.st10{fill:#707070;}
	.st11{fill:none;stroke:#FC6709;stroke-width:0.7896;stroke-miterlimit:10;}
	.st12{fill:#989866;}
</style>
<path class="st0" d="M0.8,12.1h58.4v35.7H0.8L0.8,12.1z"/>
<path class="st1" d="M7,35.1H5.2C5.1,35.1,5,35,5,34.8v-1.7c0-0.1,0.1-0.3,0.3-0.3H7c0.1,0,0.3,0.1,0.3,0.3v1.7
	C7.2,35,7.1,35.1,7,35.1z"/>
<path class="st1" d="M10.1,35.1H8.3C8.2,35.1,8,35,8,34.8v-1.7c0-0.1,0.1-0.3,0.3-0.3H10c0.1,0,0.3,0.1,0.3,0.3v1.7
	C10.3,35,10.2,35.1,10.1,35.1z"/>
<path class="st2" d="M11.8,32.7h4.9v2.4h-4.9L11.8,32.7z"/>
<circle class="st3" cx="6.3" cy="28.6" r="0.6"/>
<circle class="st3" cx="10.1" cy="28.6" r="0.6"/>
<path class="st4" d="M23.6,32.7h1.1v1.1h-1.1V32.7z"/>
<path class="st2" d="M25.2,32.7h1.1v1.1h-1.1V32.7z"/>
<path class="st5" d="M25.2,32.7h1.1v1.1h-1.1V32.7z"/>
<path class="st4" d="M26.8,32.7h1.1v1.1h-1.1V32.7z"/>
<path class="st4" d="M28.4,32.7h1.1v1.1h-1.1V32.7z"/>
<path class="st6" d="M23.6,34.8h5.8v0.8h-5.8L23.6,34.8z"/>
<path class="st6" d="M30.5,34.8h4.4v0.8h-4.4L30.5,34.8z"/>
<path class="st6" d="M35,34.8h1.3v0.8H35V34.8z"/>
<path class="st6" d="M37.4,34.8h2.7v0.8h-2.7V34.8z"/>
<path class="st6" d="M40.5,34.8h2.7v0.8h-2.7V34.8z"/>
<path class="st6" d="M43.7,34.8h1.4v0.8h-1.4V34.8z"/>
<path class="st6" d="M45.3,34.8h1.4v0.8h-1.4V34.8z"/>
<path class="st3" d="M4.4,22.8h4.1v0.7H4.4V22.8z"/>
<path class="st3" d="M8.8,22.8h5.5v0.7H8.8V22.8z"/>
<path class="st3" d="M14.6,22.8h5.6v0.7h-5.6V22.8z"/>
<path class="st3" d="M20.4,22.8H26v0.7h-5.6V22.8z"/>
<path class="st3" d="M26.3,22.8h5.5v0.7h-5.5V22.8z"/>
<path class="st3" d="M32.1,22.8h5.6v0.7h-5.6V22.8z"/>
<path class="st3" d="M38,22.8h5.6v0.7H38V22.8z"/>
<path class="st3" d="M43.9,22.9h5.6v0.7h-5.6V22.9z"/>
<path class="st3" d="M49.8,22.9h5.7v0.7h-5.7V22.9z"/>
<path class="st7" d="M49.6,23.5v7.7"/>
<path class="st7" d="M43.8,23.5v7.7"/>
<path class="st7" d="M37.9,23.5v7.7"/>
<path class="st7" d="M32,23.5v7.7"/>
<path class="st7" d="M26.2,23.5v7.7"/>
<path class="st7" d="M20.3,23.6v7.6"/>
<path class="st7" d="M14.4,23.5v7.7"/>
<path class="st7" d="M8.6,23.5v7.7"/>
<path class="st7" d="M8.1,36.3h-4V46h4.2v-5.6"/>
<circle class="st3" cx="53.9" cy="33.9" r="1.4"/>
<path class="st3" d="M32.2,39h11.5v0.7H32.2V39z"/>
<path class="st3" d="M43.9,39h11.6v0.7H43.9V39z"/>
<path class="st3" d="M32.2,38.2h23.3v0.7H32.2V38.2z"/>
<path class="st3" d="M43.9,37.2h11.6v0.7H43.9V37.2z"/>
<path class="st3" d="M43.9,36.3h11.6V37H43.9V36.3z"/>
<path class="st3" d="M35.1,37.2h8.6v0.7h-8.6V37.2z"/>
<path class="st3" d="M26.3,37.2h8.6v0.7h-8.6L26.3,37.2z"/>
<path class="st3" d="M17.5,37.2h8.6v0.7h-8.6V37.2z"/>
<path class="st3" d="M8.3,37.2h9v0.7h-9L8.3,37.2z"/>
<path class="st3" d="M26.3,36.3h17.5V37H26.3V36.3z"/>
<path class="st3" d="M8.3,36.3h17.8V37H8.3L8.3,36.3z"/>
<path class="st3" d="M8.3,38.2H32v0.7H8.3L8.3,38.2z"/>
<path class="st3" d="M20.4,39H32v0.7H20.4V39z"/>
<path class="st3" d="M8.3,39h11.9v0.7H8.3L8.3,39z"/>
<path class="st3" d="M8.8,44.3h46.4V45H8.8L8.8,44.3z"/>
<path class="st8" d="M55.7,36.1V46"/>
<g>
	<circle class="st3" cx="10.2" cy="25.9" r="0.6"/>
	<circle class="st3" cx="12.8" cy="25.9" r="0.6"/>
	<circle class="st3" cx="12.8" cy="28.6" r="0.6"/>
	<circle class="st3" cx="16" cy="25.8" r="0.6"/>
	<circle class="st3" cx="16" cy="28.6" r="0.6"/>
	<circle class="st3" cx="18.6" cy="28.6" r="0.6"/>
	<circle class="st3" cx="18.6" cy="25.9" r="0.6"/>
	<circle class="st3" cx="21.9" cy="25.9" r="0.6"/>
	<circle class="st3" cx="24.5" cy="25.9" r="0.6"/>
	<circle class="st3" cx="27.8" cy="25.9" r="0.6"/>
	<circle class="st3" cx="27.8" cy="28.7" r="0.6"/>
	<ellipse class="st3" cx="30.5" cy="25.9" rx="0.6" ry="0.6"/>
	<circle class="st3" cx="33.6" cy="25.9" r="0.6"/>
	<circle class="st3" cx="36.2" cy="25.9" r="0.6"/>
	<circle class="st3" cx="39.5" cy="25.9" r="0.6"/>
	<circle class="st3" cx="42.1" cy="25.9" r="0.6"/>
	<circle class="st3" cx="48.1" cy="25.9" r="0.6"/>
	<circle class="st3" cx="48.1" cy="28.6" r="0.6"/>
	<circle class="st3" cx="45.4" cy="28.6" r="0.6"/>
	<circle class="st3" cx="33.6" cy="28.7" r="0.6"/>
	<circle class="st3" cx="21.9" cy="28.7" r="0.6"/>
	<circle class="st3" cx="51.3" cy="25.8" r="0.6"/>
	<circle class="st3" cx="51.3" cy="28.5" r="0.6"/>
	<circle class="st3" cx="53.9" cy="28.5" r="0.6"/>
	<circle class="st3" cx="53.9" cy="25.8" r="0.6"/>
</g>
<path class="st7" d="M4.1,22.8v8.4"/>
<path class="st7" d="M55.7,22.9v8.3"/>
<path class="st7" d="M55.7,36.1V46"/>
<circle class="st3" cx="20" cy="33.9" r="1.4"/>
<path class="st9" d="M49.8,35.1H48c-0.1,0-0.3-0.1-0.3-0.3v-1.7c0-0.1,0.1-0.3,0.3-0.3h1.7c0.1,0,0.3,0.1,0.3,0.3v1.7
	C50,35,49.9,35.1,49.8,35.1z"/>
<path class="st4" d="M30.5,32.6h1.1v1.1h-1.1V32.6z"/>
<path class="st4" d="M32.1,32.6h1.1v1.1h-1.1V32.6z"/>
<path class="st4" d="M33.7,32.6h1.1v1.1h-1.1V32.6z"/>
<path class="st4" d="M35.2,32.6h1.1v1.1h-1.1V32.6z"/>
<path class="st4" d="M37.4,32.6h1.1v1.1h-1.1V32.6z"/>
<path class="st4" d="M39,32.6h1.1v1.1H39V32.6z"/>
<path class="st4" d="M40.6,32.6h1.1v1.1h-1.1V32.6z"/>
<path class="st4" d="M42.1,32.6h1.1v1.1h-1.1V32.6z"/>
<path class="st4" d="M43.8,32.6h1.1v1.1h-1.1V32.6z"/>
<path class="st4" d="M45.4,32.6h1.1v1.1h-1.1V32.6z"/>
<path class="st9" d="M10.8,43.9H9.1c-0.1,0-0.3-0.1-0.3-0.3v-1.7c0-0.1,0.1-0.3,0.3-0.3h1.7c0.1,0,0.3,0.1,0.3,0.3v1.7
	C11.1,43.8,11,43.9,10.8,43.9z"/>
<path class="st9" d="M13.8,43.9h-1.7c-0.1,0-0.3-0.1-0.3-0.3v-1.7c0-0.1,0.1-0.3,0.3-0.3h1.7c0.1,0,0.3,0.1,0.3,0.3v1.7
	C14.1,43.8,14,43.9,13.8,43.9z"/>
<path class="st9" d="M16.8,43.9H15c-0.1,0-0.3-0.1-0.3-0.3v-1.7c0-0.1,0.1-0.3,0.3-0.3h1.7c0.1,0,0.3,0.1,0.3,0.3v1.7
	C17,43.8,16.9,43.9,16.8,43.9z"/>
<path class="st9" d="M19.8,43.9H18c-0.1,0-0.3-0.1-0.3-0.3v-1.7c0-0.1,0.1-0.3,0.3-0.3h1.7c0.1,0,0.3,0.1,0.3,0.3v1.7
	C20,43.8,19.9,43.9,19.8,43.9z"/>
<path class="st9" d="M22.7,43.9H21c-0.1,0-0.3-0.1-0.3-0.3v-1.7c0-0.1,0.1-0.3,0.3-0.3h1.7c0.1,0,0.3,0.1,0.3,0.3v1.7
	C23,43.8,22.9,43.9,22.7,43.9z"/>
<path class="st9" d="M25.7,43.9H24c-0.1,0-0.3-0.1-0.3-0.3v-1.7c0-0.1,0.1-0.3,0.3-0.3h1.7c0.1,0,0.3,0.1,0.3,0.3v1.7
	C26,43.8,25.9,43.9,25.7,43.9z"/>
<path class="st9" d="M28.7,43.9H27c-0.1,0-0.3-0.1-0.3-0.3v-1.7c0-0.1,0.1-0.3,0.3-0.3h1.7c0.1,0,0.3,0.1,0.3,0.3v1.7
	C29,43.8,28.9,43.9,28.7,43.9z"/>
<path class="st9" d="M31.7,43.9H30c-0.1,0-0.3-0.1-0.3-0.3v-1.7c0-0.1,0.1-0.3,0.3-0.3h1.7c0.1,0,0.3,0.1,0.3,0.3v1.7
	C32,43.8,31.8,43.9,31.7,43.9z"/>
<path class="st9" d="M34.7,43.9H33c-0.1,0-0.3-0.1-0.3-0.3v-1.7c0-0.1,0.1-0.3,0.3-0.3h1.7c0.1,0,0.3,0.1,0.3,0.3v1.7
	C34.9,43.8,34.8,43.9,34.7,43.9z"/>
<path class="st9" d="M37.7,43.9H36c-0.1,0-0.3-0.1-0.3-0.3v-1.7c0-0.1,0.1-0.3,0.3-0.3h1.7c0.1,0,0.3,0.1,0.3,0.3v1.7
	C38,43.8,37.9,43.9,37.7,43.9z"/>
<path class="st9" d="M40.6,43.9h-1.7c-0.1,0-0.3-0.1-0.3-0.3v-1.7c0-0.1,0.1-0.3,0.3-0.3h1.7c0.1,0,0.3,0.1,0.3,0.3v1.7
	C40.9,43.8,40.8,43.9,40.6,43.9z"/>
<path class="st9" d="M43.5,43.9h-1.7c-0.1,0-0.3-0.1-0.3-0.3v-1.7c0-0.1,0.1-0.3,0.3-0.3h1.7c0.1,0,0.3,0.1,0.3,0.3v1.7
	C43.8,43.8,43.6,43.9,43.5,43.9z"/>
<path class="st9" d="M46.4,43.9h-1.7c-0.1,0-0.3-0.1-0.3-0.3v-1.7c0-0.1,0.1-0.3,0.3-0.3h1.7c0.1,0,0.3,0.1,0.3,0.3v1.7
	C46.7,43.8,46.5,43.9,46.4,43.9z"/>
<path class="st9" d="M49.3,43.9h-1.7c-0.1,0-0.3-0.1-0.3-0.3v-1.7c0-0.1,0.1-0.3,0.3-0.3h1.7c0.1,0,0.3,0.1,0.3,0.3v1.7
	C49.5,43.8,49.4,43.9,49.3,43.9z"/>
<path class="st9" d="M52.1,43.9h-1.7c-0.1,0-0.3-0.1-0.3-0.3v-1.7c0-0.1,0.1-0.3,0.3-0.3h1.7c0.1,0,0.3,0.1,0.3,0.3v1.7
	C52.4,43.8,52.3,43.9,52.1,43.9z"/>
<path class="st9" d="M55,43.9h-1.7c-0.1,0-0.3-0.1-0.3-0.3v-1.7c0-0.1,0.1-0.3,0.3-0.3H55c0.1,0,0.3,0.1,0.3,0.3v1.7
	C55.3,43.8,55.2,43.9,55,43.9z"/>
<path class="st4" d="M5,37.2h1.1v1.1H5V37.2z"/>
<path class="st4" d="M6.6,37.2h1.1v1.1H6.6V37.2z"/>
<path class="st4" d="M5,39.3h1.1v1.1H5V39.3z"/>
<path class="st4" d="M6.6,39.3h1.1v1.1H6.6V39.3z"/>
<path class="st4" d="M5,41.5h1.1v1.1H5V41.5z"/>
<path class="st4" d="M6.6,41.5h1.1v1.1H6.6V41.5z"/>
<circle class="st2" cx="8.7" cy="36.7" r="0.1"/>
<circle class="st2" cx="8.7" cy="37.6" r="0.1"/>
<circle class="st2" cx="8.7" cy="38.4" r="0.1"/>
<circle class="st2" cx="8.7" cy="39.4" r="0.1"/>
<path class="st10" d="M9.7,41.8h0.6V42H9.7V41.8z"/>
<path class="st10" d="M12.6,41.8h0.6V42h-0.6V41.8z"/>
<path class="st10" d="M15.6,41.8h0.6V42h-0.6V41.8z"/>
<path class="st10" d="M18.6,41.8h0.6V42h-0.6V41.8z"/>
<path class="st10" d="M21.6,41.8h0.6V42h-0.6V41.8z"/>
<path class="st10" d="M24.5,41.8h0.6V42h-0.6V41.8z"/>
<path class="st10" d="M27.5,41.8h0.6V42h-0.6V41.8z"/>
<path class="st10" d="M30.5,41.8h0.6V42h-0.6V41.8z"/>
<path class="st10" d="M33.5,41.8h0.6V42h-0.6V41.8z"/>
<path class="st10" d="M36.6,41.8h0.6V42h-0.6V41.8z"/>
<path class="st10" d="M39.4,41.8H40V42h-0.6V41.8z"/>
<path class="st10" d="M42.3,41.8h0.6V42h-0.6V41.8z"/>
<path class="st10" d="M45.2,41.8h0.6V42h-0.6V41.8z"/>
<path class="st10" d="M48.1,41.8h0.6V42h-0.6V41.8z"/>
<path class="st10" d="M51,41.8h0.6V42H51V41.8z"/>
<path class="st10" d="M48.6,32.9h0.6v0.2h-0.6V32.9z"/>
<path class="st10" d="M53.9,41.8h0.6V42h-0.6V41.8z"/>
<path class="st11" d="M20.4,33.6L21,33"/>
<circle class="st3" cx="53.9" cy="33.9" r="1.4"/>
<path class="st11" d="M54,33.4v-0.9"/>
<path class="st12" d="M0,12.1h0.8v35.7H0V12.1z"/>
<path class="st12" d="M59.2,12.1H60v35.7h-0.8V12.1z"/>
</svg>
