<svg enable-background="new 0 0 60 73" height="73" viewBox="0 0 60 73" width="60" xmlns="http://www.w3.org/2000/svg"><path d="m49.8 46c1-.5 1.3-1.8.8-2.8l-19.9-35.3c-.5-.9-1.3-1.7-2.2-2.2l-.4 6 18.9 33.5c.6 1 1.8 1.4 2.8.8zm-26.3-46 .6 11.5c0 .4.3.5.7.5h1.4c.4 0 .7-.1.7-.5l.6-11.5zm25.6 47.9h-10.9l4 4h6.9c1.1 0 2-.9 2-2s-.9-2-2-2zm-43.3 0c-1.5 0-2.4-1.6-1.7-2.9l18.7-33.4c0-.3-.2-3.6-.3-6-.9.5-1.7 1.3-2.2 2.3l-19.5 35c-1.1 1.9-1.2 4.3-.1 6.2 1.1 1.8 3 3 5.1 3h29.7l-4-4zm53.4 21-8.1-8.1c-.7-.7-1.6-.8-2.5-.6l-20.4-20.4c-.4-.4-1-.4-1.4 0s-.4 1 0 1.4l20.4 20.5c-.3.8-.1 1.8.6 2.5l8.1 8.1c.9.9 2.4.9 3.3 0s.9-2.4 0-3.4z" fill="#00572c"/></svg>