<svg xmlns="http://www.w3.org/2000/svg" width="60" height="72.977"><path d="M49.78 46c.97-.55 1.32-1.78.78-2.76L30.72 7.9c-.53-.94-1.3-1.72-2.23-2.25l-.35 5.96L47 45.24c.56.97 1.8 1.32 2.77.77zM23.5 0l.6 11.5c.03.35.32.5.68.5h1.42c.36 0 .66-.15.68-.5l.6-11.5H23.5zm25.6 47.92H38.18l4.05 4.05h6.87c1.12 0 2.03-.9 2.03-2.02s-.9-2.03-2.03-2.03zm-43.25 0c-1.48 0-2.42-1.6-1.7-2.9l18.68-33.4c0-.32-.2-3.6-.33-5.97-.92.53-1.7 1.3-2.24 2.26L.74 42.88c-1.07 1.9-1.16 4.28-.05 6.16 1.07 1.85 3 2.95 5.14 2.95h29.7l-4.04-4.05H5.86zM59.2 68.95l-8.1-8.1c-.66-.67-1.63-.85-2.46-.56L28.2 39.83c-.4-.4-1.03-.4-1.43 0-.4.4-.4 1.04 0 1.43L47.2 61.72c-.28.84-.1 1.8.56 2.46l8.1 8.1c.93.93 2.43.93 3.35 0 .94-.9.94-2.4 0-3.33z"/></svg>