<svg enable-background="new 0 0 60 85" height="85" viewBox="0 0 60 85" width="60" xmlns="http://www.w3.org/2000/svg"><path d="m28.4 0h3.2v20.9h-3.2z" fill="#afbdc4"/><path d="m32 19.6h2.7v1.3h-2.7z" fill="#37474f"/><path d="m42.1 40.2h2.8v39.3h-2.8z" fill="#afbdc4" transform="matrix(.8344 -.5512 .5512 .8344 -25.7817 33.8959)"/><path d="m42.2 40.6h1.4v39.3h-1.4z" fill="#d1d2d3" transform="matrix(.8343 -.5513 .5513 .8343 -26.1055 33.6462)"/><path d="m55.6 76.4-1.6 1c-.4.2-.9.1-1.1-.2l-1.4-2.1c-.2-.4 0-.6.4-.9l1.6-1.1c.4-.2.7-.4 1 0l1.4 2.1c.2.4.1.9-.3 1.2z" fill="#00572c"/><path d="m29.5 72.8-.2-.2c-.3-.3-.3-.8 0-1.2l13.2-13.2c.3-.3.8-.3 1.2 0l.2.2c.3.3.3.8 0 1.2l-13.3 13.2c-.3.3-.8.3-1.1 0z" fill="#8fa3ad"/><path d="m29.5 72.8-.1-.1 14.4-14.4.1.1c.3.3.3.8 0 1.2l-13.3 13.2c-.3.3-.8.3-1.1 0z" fill="#d1d2d3"/><path d="m43.4 58.6c-.2-.2-.6-.2-.8 0s-.2.6 0 .8.6.2.8 0 .2-.5 0-.8z" fill="#eceeef"/><path d="m43.1 59.5-.4-.2-.1-.4.3-.3.4.1.1.4z" fill="#37474f"/><path d="m43.4 58.6-.8.8c.2.2.6.2.8 0s.2-.5 0-.8z" fill="#e5e6e6"/><path d="m27.9 22.2h4.2v55.8h-4.2z" fill="#afbdc4"/><path d="m27.9 44.8h4.2v33.2h-4.2z" fill="#d1d2d3"/><path d="m31.6 79.2h-3.1c-.7 0-1.3-.6-1.3-1.3v-2.3c0-.7 0-.8.8-.8h4.2c.7 0 .8.1.8.8v2.3c-.2.7-.7 1.3-1.4 1.3z" fill="#00572c"/><path d="m30.5 72.8.2-.2c.3-.3.3-.8 0-1.2l-13.2-13.2c-.3-.3-.8-.3-1.2 0l-.2.2c-.3.3-.3.8 0 1.2l13.2 13.2c.4.3.9.3 1.2 0z" fill="#8fa3ad"/><path d="m30.5 72.8.1-.1-14.3-14.4-.1.1c-.3.3-.3.8 0 1.2l13.2 13.2c.3.3.8.3 1.1 0z" fill="#d1d2d3"/><path d="m-3.1 58.4h39.3v2.8h-39.3z" fill="#afbdc4" transform="matrix(.5512 -.8344 .8344 .5512 -42.4645 40.5903)"/><path d="m-2.6 59.5h39.3v1.4h-39.3z" fill="#d1d2d3" transform="matrix(.5513 -.8343 .8343 .5513 -42.603 41.2554)"/><path d="m4.4 76.4 1.6 1c.4.2.9.1 1.1-.2l1.4-2.1c.2-.4 0-.6-.4-.9l-1.6-1.1c-.4-.2-.7-.4-1 0l-1.4 2.1c-.2.4-.1.9.3 1.2z" fill="#00572c"/><path d="m34.1 44.9v-2.4c0-.9-.7-1.7-1.7-1.7h-4.9c-.9 0-1.7.7-1.7 1.7v2.4c0 .3.2.5.5.5h7.3c.3 0 .5-.2.5-.5z" fill="#00572c"/><path d="m32.1 44.9v-2.4c0-.9-.7-1.7-1.7-1.7h-.9c-.9 0-1.7.7-1.7 1.7v2.4c0 .3.2.5.5.5h3.2c.4 0 .6-.2.6-.5z" fill="#788f9b"/><path d="m34.5 23.3h.6c.5 0 1-.6 1-1.2v-3.7c0-.7-.4-1.2-1-1.2h-.6c-.2 0-.3.2-.3.4v5.4c0 .2.1.3.3.3z" fill="#00572c"/><path d="m31.4 84.2v-40.4c0-.9-.6-1.6-1.4-1.6s-1.4.7-1.4 1.6v40.4z" fill="#afbdc4"/><g fill="#00572c"><path d="m29 85h2c.4 0 .8-.4.8-.8v-2.5c0-.4-.4-.5-.8-.5h-2c-.4 0-.8.1-.8.5v2.5c0 .4.4.8.8.8z"/><path d="m33.1 23.3c0 .6-.6 1.1-1.2 1.1-1.3 0-2.6 0-3.9 0-.6 0-1.1-.5-1.2-1.1-.1-2-.1-4 0-6 0-.6.6-1.1 1.2-1.1h3.9c.6 0 1.1.5 1.2 1.1.1 2 .1 4 0 6z"/></g></svg>