<svg height="60" width="60" xmlns="http://www.w3.org/2000/svg"><path d="m46.8.33c-.2.2-.23.56-.02.8l.07.06c.42 1.12 1.57 5.63-4.14 10.83l-21.17 20.48-.65-.72c.58-.57.9-1.13.75-1.3l-.24-.26c-.18-.2-.9.18-1.6.82-.7.65-1.13 1.32-.96 1.5l.24.27c.15.2.72-.1 1.34-.6l.67.73-2.43 2.34-.72-.8c.57-.57.9-1.12.74-1.3l-.25-.25c-.17-.18-.88.2-1.58.83-.7.64-1.14 1.32-.97 1.5l.24.27c.15.17.73-.1 1.35-.6l.72.8-2.42 2.33-.8-.88c.57-.57.9-1.13.75-1.3l-.24-.26c-.17-.2-.9.18-1.6.8-.7.67-1.13 1.34-.96 1.53l.24.26c.15.16.73-.1 1.35-.6l.8.87-4.5 4.36-2.22 2c-2.43 2.24-3.14 5.66-2.04 8.58l-4.35 3.94.4.43-.52.47c-.34-.06-.6.1-.72.2-.1-.1-.3-.12-.42 0-.12.1-.13.3-.02.42l.77.84c.1.14.3.15.4.04.13-.1.14-.3.04-.42.1-.1.3-.34.26-.68l.53-.48.4.45 4-3.65c.23.34.48.65.75.96 2.9 3.2 7.88 3.44 11.07.53l6.04-5.5 1.3 1.46c.54.56 1.43.6 2 .1.58-.54.6-1.43.1-2l-1.33-1.47.86-.8 1.33 1.48c.52.58 1.42.6 2 .1.57-.52.6-1.42.1-2l-1.35-1.45.88-.8 1.32 1.47c.52.6 1.42.63 2 .1.56-.5.6-1.4.08-1.98l-1.33-1.47 6.2-5.65c2.86-2.6 4-4.9.8-8.4-1.06-1.18-2.28-1.84-3.6-1.75-2.12.14-4.03 1.85-4.4 2.22l-6.22 5.64-1.67-1.83 21.9-18.05s6.1-5.82 11.9-2.3l.1.1c.2.23.57.25.8.04.22-.2.24-.56.03-.8l-11.38-12.55c-.2-.22-.56-.24-.8-.04zm-25.87 39.97-.87.8-1.88-2.07c-.02-.03-.04-.04-.06-.06l.92-.75s0 0 0 .02l1.9 2.06zm-11.2 5.77 2.2-1.98 4.04-3.36c.04.06.08.12.13.17l1.86 2.1-10.04 9.14c-.55-2.14.07-4.5 1.8-6.08zm8.3 9.1c-2.5 2.3-6.4 2.1-8.7-.4-.28-.3-.52-.63-.72-.98l10.5-9.58 4.97 5.45-6.04 5.5zm8.13-7.4-4.97-5.44.85-.8 4.96 5.47-.86.78zm2.94-2.67-4.98-5.46.87-.78 4.95 5.45-.87.8zm2.94-2.7-1.23-1.34 6.37-5.8 1.23 1.36c-.06.05-.1.1-.15.14l-6.2 5.65zm6.76-6.16-1.22-1.34 2.62-2.4c.52 1.24.08 2.27-1.4 3.74zm.13-5.52c.16.17.3.33.43.5l-2.8 2.55-2.7-2.97c.6-.5 1.7-1.25 2.72-1.27.85-.02 1.62.38 2.35 1.2zm-5.58.5v.02s.04-.03.08-.07l2.7 2.97-6.35 5.8-2.7-3 6.27-5.7zm-9.48 6.4-.87.8-1.8-2 .9-.74z"/></svg>