<svg enable-background="new 0 0 60 60" height="60" viewBox="0 0 60 60" width="60" xmlns="http://www.w3.org/2000/svg"><path d="m19.7 40.7c-.4-.4-.6-.9-.3-1.1.2-.2.6-.1.9.1-.3-.3-.3-.7-.1-.9s.6-.1.9.2c-.2-.3-.3-.7-.1-.9s.8 0 1.2.4l7.8 7.7c.4.4.4.8.2 1s-.5.2-.8 0c.2.3.3.7.1.9s-.6.1-.9-.1c.3.4.3.7.1.9s-.8 0-1.2-.4zm7.6 5.8c.8.7 1.4 1.1 1.5 1.1 0 0 .2-.2.2-.3-.1-.3-.9-1.3-1.9-2.1l-4.8-4.6c-.8-.7-1.4-1.1-1.5-1.1v.1c.1.3.9 1.3 1.8 2.2z" fill="#5d370b"/><path d="m7.4 55.4-2.2 2.2.1.1c.2.2.1.7-.3 1.1-.1.1-.3.2-.4.2.2.3.2.6 0 .8s-.7.2-1-.2l-1.7-1.6c-.3-.3-.4-.8-.2-1s.6-.2 1 .1l.3-.3c.4-.4.8-.5 1.1-.3l2.2-2.2z" fill="#cacbcc"/><path d="m45.4 26.5-.2 1c.8.7 1.6.9 2 .4.2-.2.3-.4.3-.7.2-1-.1-2.4-.9-3.6l-.6-1-.2.8c.7 1.2 1 2.4.9 3.1 0 .1-.1.3-.2.4-.1.3-.6.1-1.1-.4z" fill="#fabe78"/><path d="m27.9 28.8-.1.8c-.7.8-1.4 1.1-1.6.7-.1-.1-.1-.3-.1-.5.1-.7.6-2 1.4-3.1l.6-.9-.1.7c-.7 1.1-1.2 2.1-1.3 2.7v.3c.3.1.7-.2 1.2-.7z" fill="#fabe78"/><path d="m30.7 35.9c.5.5.9 1.1 1.1 1.7.9 2.5 0 5.9-2.5 8.6l-5.6 5.8c-3.2 3.3-7.8 4-10.2 1.7-.7-.7-1.3-1.5-1.6-2.3-.8-2-.2-4.3 1.9-6.7.2-.2.5-.6.7-.8 3.1-3.6 6.2-7 9.4-10.5 3.8-4.2 7.7-8.5 11.5-12.7 2.8-3.2 5.7-6.3 8.4-9.5 1.4-1.7 2.1-3.3 2-5.8 0-.7-.2-1.5-.3-2.2s-.2-1.3-.5-2c-.4-.8-.6-1-.2-.9 1.2.4 2.5 1.8 3.4 2.6 2.3 2.1 4.6 4.4 6.7 6.6 1.1 1.2 2.9 2.9 3.5 4.4.1.4-.1.2-.9-.2-.6-.3-1.3-.4-2-.5s-1.5-.3-2.2-.3c-3.3-.2-5.5 1.5-7.6 3.4s-4.2 3.9-6.3 5.8c-4.5 4.2-8.9 8.4-13.3 12.7 1.7-.4 3.4 0 4.6 1.1zm-9.2 3c-.6.4-1.2.9-1.8 1.4l-2.7 2.9-1.4 1.5c-1.8 2-2.5 4.6-1.8 6.4.2.5.4.9.8 1.2 1.8 1.7 5.1 1 7.4-1.5l4.1-4.4c1.8-2 2.5-4.6 1.8-6.4-.2-.5-.4-.9-.8-1.2-1.2-1.2-3.5-1.1-5.6.1z" fill="#00572c"/><path d="m42.5 30-7.6 7.3c-.8.8-2 1.7-3.3 1.8-.6 0-1-.3-1.2-.7s-.2-.8-.1-1.2c.3-.7.8-1.4 1.4-1.9l7.6-7.3c.9-1 3.6-3 4.5-1.1.6 1.1-.9 2.7-1.3 3.1zm.3-2.6c-.4-1.2-2.8 1-3.5 1.6l-6.8 6.6c-.5.5-1 1-1.3 1.6-.2.3-.2.6-.2.9.1.3.3.4.8.3.9-.3 1.9-1.1 2.7-1.9l6.8-6.6c.6-.6 1.8-1.8 1.5-2.5z" fill="#fabe78"/><path d="m50.4 8.5c-.5.4-1.2 1.1-2 1.8-3.5 3.2-9.4 8.9-16 15.4-6.9 6.9-12.9 13-15.9 16.4-.5.6-1 1.1-1.3 1.5.4-.3.9-.8 1.4-1.3 3.4-3 9.6-9 16.6-16 6.7-6.6 12.4-12.6 15.6-16 .7-.7 1.2-1.4 1.6-1.8z" fill="#fff" opacity=".2"/><path d="m44.7 30.5-11.2 10.8c-2.1 2-5.3 2.2-7.1.3-.4-.4-.8-1-1-1.5s-.2-.9-.3-1.4l-17.4 16.6v.1c0 .2-.2.6-.5.9-.2.3-.8.3-1 .4l-.5-.5-.5-.5c.1-.2.1-.8.4-1 .3-.3.6-.4.9-.5l31.6-30.4c2.1-2 5.3-2.2 7.1-.3.4.4.8 1 1 1.5.6 1.8.1 4-1.5 5.5zm-.2-4.9c-.1-.3-.2-.5-.5-.7-1.2-1.2-3.6-.7-5.5 1.1l-9.8 9.5c-1.5 1.5-2.2 3.4-1.7 4.7.1.3.3.5.5.7 1.2 1.2 3.6.7 5.5-1.1l9.8-9.5c1.5-1.5 2.1-3.4 1.7-4.7z" fill="#00572c"/><path d="m30.4 46.4-2.8 2.7c-.8.9-2.2 1.8-3.6 1.4-.8-.2-1.5-.9-1.8-1.7-.1-.4-.2-.8-.2-1.1.1-1.3 1-2.5 1.8-3.3 1-1 1.9-2 2.9-2.9l4.3 4.3c-.1.1-.4.4-.6.6z" fill="#7b490f"/><path d="m18.5 31.2h.6v1.7h-.6z" fill="#d0d2d3" transform="matrix(.7071 -.7071 .7071 .7071 -17.1434 22.6366)"/><path d="m18.7 32.6.5-.5c.3-.3.8-.2 1.1.1s.4.8.1 1.1l-.5.5c-.3.3-.8.2-1.1-.1-.3-.4-.3-.9-.1-1.1z" fill="#58595b"/><path d="m18 31.3c.4-.3.7-.6.8-.5s-.1.4-.5.8c-.4.3-.7.6-.8.5 0-.1.2-.4.5-.8z" fill="#b96e16"/><path d="m20 29.4h.6v1.7h-.6z" fill="#d0d2d3" transform="matrix(.7071 -.7071 .7071 .7071 -15.4323 23.2269)"/><path d="m20.4 30.8.5-.5c.3-.3.8-.2 1.1.1s.4.8.1 1.1l-.5.5c-.3.3-.8.2-1.1-.1-.3-.4-.4-.8-.1-1.1z" fill="#58595b"/><path d="m19.7 29.5c.4-.3.7-.6.8-.5s-.1.4-.5.8c-.4.3-.7.6-.8.5-.1 0 .2-.4.5-.8z" fill="#b96e16"/><path d="m21.9 27.8h.6v1.7h-.6z" fill="#d0d2d3" transform="matrix(.7071 -.7071 .7071 .7071 -13.7745 24.1056)"/><path d="m22.3 29.2.5-.5c.3-.3.8-.2 1.1.1s.4.8.1 1.1l-.5.5c-.3.3-.8.2-1.1-.1-.4-.4-.4-.8-.1-1.1z" fill="#58595b"/><path d="m21.6 28c.4-.3.7-.6.8-.5s-.1.4-.5.8c-.4.3-.7.6-.8.5s.1-.5.5-.8z" fill="#b96e16"/><path d="m23 29.7c-.4.4-.4 1 0 1.5-.5-.3-1.2-.2-1.6.1-.4.4-.4 1 0 1.5-.5-.3-1.2-.2-1.6.1-.5.5-.4 1.3.2 1.8l5.7 5.6 5.6 5.7c.6.6 1.4.8 1.8.2.4-.4.4-1 .1-1.6l-.1-.1c.5.4 1.2.4 1.6 0s.4-1 .1-1.6l-.1-.1c.5.4 1.2.4 1.6 0 1-1.1-.6-2.3-1.3-3.1-1-1-2-2-2.9-2.9-2.1-2.1-4.2-4.2-6.3-6.3-.6-.4-1.7-1.9-2.8-.8z" fill="#b96e16"/><g fill="#fabe78"><path d="m30.4 35.7c.1 0 .1 0 0 0 5.7 5.6 5.5 6.1 5.1 6.4-.4.4-1.1.2-6.4-5.1 0 0 0 0-.1-.1 0 0 0 0-.1-.1-5.3-5.3-5.4-6-5.1-6.4.6-.2 1.1-.5 6.6 5.3 0-.1 0-.1 0 0z"/><path d="m28.8 37.3c0 .1 0 .1 0 0 5.7 5.6 5.5 6.1 5.1 6.4-.4.4-1.1.2-6.4-5.1 0 0 0 0-.1-.1 0 0 0 0-.1-.1-5.3-5.3-5.4-6-5.1-6.4.5-.1 1-.4 6.6 5.3-.1 0-.1 0 0 0z"/><path d="m27.1 39s0 .1 0 0c5.7 5.6 5.5 6.1 5.1 6.4-.4.4-1.1.2-6.4-5.1 0 0 0 0-.1-.1 0 0 0 0-.1-.1-5.3-5.3-5.4-6-5.1-6.4.5-.1 1-.4 6.6 5.3-.1 0-.1 0 0 0z"/></g></svg>