<svg enable-background="new 0 0 60 60" height="60" viewBox="0 0 60 60" width="60" xmlns="http://www.w3.org/2000/svg"><path d="m46.8.3c-.2.2-.2.6 0 .8l.1.1c.4 1.1 1.6 5.6-4.1 10.8l-21.3 20.5-.6-.7c.6-.6.9-1.1.8-1.3l-.2-.3c-.2-.2-.9.2-1.6.8s-1.1 1.3-1 1.5l.2.3c.1.2.7-.1 1.3-.6l.7.7-2.4 2.3-.7-.8c.6-.6.9-1.1.7-1.3l-.2-.2c-.2-.2-.9.2-1.6.8s-1.1 1.3-1 1.5l.2.3c.1.2.7-.1 1.4-.6l.7.8-2.4 2.3-.8-.8c.6-.6.9-1.1.8-1.3l-.2-.3c-.2-.2-.9.2-1.6.8-.7.7-1.1 1.3-1 1.5l.2.3c.1.2.7-.1 1.4-.6l.8.9-4.5 4.4-2.2 2c-2.4 2.2-3.1 5.7-2 8.6l-4.4 3.9.4.4-.5.5c-.3-.1-.6.1-.7.2-.1-.1-.3-.1-.4 0s-.1.3 0 .4l.8.8c.1.1.3.2.4 0 .1-.1.1-.3 0-.4.1-.1.3-.3.3-.7l.5-.5.4.5 4-3.7c.2.3.5.7.7 1 2.9 3.2 7.9 3.4 11.1.5l6-5.5 1.3 1.5c.5.6 1.4.6 2 .1s.6-1.4.1-2l-1.3-1.5.9-.8 1.3 1.5c.5.6 1.4.6 2 .1s.6-1.4.1-2l-1.4-1.5.9-.8 1.3 1.5c.5.6 1.4.6 2 .1s.6-1.4.1-2l-1.3-1.5 6.2-5.7c2.9-2.6 4-4.9.8-8.4-1.1-1.2-2.3-1.8-3.6-1.8-2.1.1-4 1.9-4.4 2.2l-6.2 5.6-1.7-1.8 21.9-18s6.1-5.8 11.9-2.3l.1.1c.2.2.6.2.8 0s.2-.6 0-.8l-11.5-12.3c-.2-.2-.6-.3-.8-.1zm-25.9 40-.9.8-1.8-2.1s0 0-.1-.1l.9-.8zm-11.2 5.8 2.2-2 4-3.4c0 .1.1.1.1.2l2 2.1-10 9.1c-.6-2.1 0-4.5 1.7-6zm8.3 9.1c-2.5 2.3-6.4 2.1-8.7-.4-.3-.3-.5-.6-.7-1l10.5-9.6 5 5.5zm8.2-7.4-5-5.4.9-.8 5 5.5zm2.9-2.7-5-5.5.9-.8 5 5.5zm2.9-2.7-1.2-1.3 6.4-5.8 1.2 1.4c-.1 0-.1.1-.2.1zm6.8-6.2-1.2-1.3 2.6-2.4c.5 1.2.1 2.3-1.4 3.7zm.1-5.5c.2.2.3.3.4.5l-2.8 2.5-2.7-3c.6-.5 1.7-1.2 2.7-1.3.9.1 1.7.5 2.4 1.3zm-5.5.5 2.8 2.9-6.4 5.8-2.7-3zm-9.5 6.4-.9.8-1.8-2 .9-.7s1.8 1.9 1.8 1.9z" fill="#781d77"/></svg>