<svg height="60" width="60" xmlns="http://www.w3.org/2000/svg"><path d="m59.86 12.87-12.73-12.73c-.3-.3-.8-.1-.8.33v6.93c0 2.5-1 4.9-2.76 6.68l-12.8 12.8-1.18-1.18-1.9 1.88 1.17 1.18-1.27 1.27-1.07 1.1-1.18-1.2-1.9 1.9 1.2 1.17-2.37 2.36-1.18-1.18-1.88 1.9 1.18 1.16-3.3 3.3c-.03.02-.04.04-.05.06l-12.84 12.84c-.2.2-.44.37-.7.5l-3.22 1.4c-.3.15-.38.54-.14.78l3.74 3.74c.24.24.63.16.77-.14l1.43-3.22c.1-.26.28-.5.48-.7l7.95-7.96c.23 2 1.1 3.92 2.6 5.44 3.5 3.5 9.2 3.5 12.73 0l3.3-3.3h.02c.52.52 1.36.52 1.88 0s.52-1.36 0-1.88l2.35-2.37c.53.53 1.37.53 1.9 0 .52-.5.52-1.36 0-1.88l2.34-2.36h.02c.52.5 1.37.5 1.9 0 .5-.53.5-1.38 0-1.9h-.02l3.74-3.75s.02-.02.03-.03c3.5-3.5 3.5-9.23 0-12.73-1.53-1.5-3.46-2.38-5.45-2.58l4.1-4.1c1.76-1.76 4.16-2.76 6.66-2.76h6.94c.42 0 .63-.5.33-.8zm-32.4 38.05c-2.2 2.2-5.8 2.2-8 0-2.2-2.22-2.22-5.8 0-8l3.3-3.32 8 8.02zm5.2-5.2-8.02-8 2.36-2.36 8 8-2.34 2.37zm4.24-4.23-8-8.03 2.35-2.36 8 8-2.35 2.38zm8-8.03-3.76 3.77-8-8 3.77-3.78c2.23-2.2 5.8-2.2 8 0s2.23 5.8 0 8zm-27.2 2.5c.2.18.5.18.67 0l2.63-2.62c.2-.2.2-.5 0-.67l-.27-.28c-.18-.2-.48-.2-.66 0l-2.64 2.61c-.18.18-.18.48 0 .66l.28.27zm4.25-4.24c.18.18.48.18.67 0l2.63-2.64c.2-.2.2-.5 0-.68l-.27-.28c-.2-.18-.5-.18-.67 0l-2.62 2.63c-.18.2-.18.5 0 .67l.28.28zm4.25-4.25c.18.2.48.2.66 0l2.63-2.63c.17-.2.17-.48 0-.67l-.3-.27c-.2-.17-.5-.17-.66 0l-2.63 2.65c-.2.18-.2.48 0 .67l.28.28z"/></svg>