<svg enable-background="new 0 0 60 60" height="60" viewBox="0 0 60 60" width="60" xmlns="http://www.w3.org/2000/svg"><path d="m16 53.1c.1-.1.1-.4 0-.5l-5.5-5.5c-.2-.2-.4-.2-.5 0s-.1.4 0 .5l5.5 5.5c.1.1.4.1.5 0z" fill="#8a806b"/><path d="m26 42.9c.1-.1.1-.4 0-.5l-5.5-5.5c-.2-.2-.4-.2-.5 0-.1.1-.1.4 0 .5l5.5 5.5c.1.1.4.2.5 0z" fill="#8a806b"/><path d="m10.3 57.5c.1-.1-.1-.5-.4-.9l-3.7-3.7c-.4-.4-.8-.5-.9-.4-.1.1.1.5.4.9l3.7 3.7c.4.3.8.5.9.4z" fill="#a09f89"/><path d="m8.5 57.1c.1.1.4.1.5 0s.1-.3.1-.4c.1.1.3.1.4-.1.1-.1.1-.3.1-.4.1.1.3 0 .4-.1s.1-.4 0-.5l-2.6-2.7c-.1-.1-.3-.1-.5 0-.1.1-.2.2-.1.4-.1-.1-.3 0-.4.1s-.1.3-.1.4c-.1-.1-.3-.1-.4.1-.1.1-.1.4 0 .5zm-1.7-2.9c-.2-.3-.3-.5-.3-.6 0 0 .1-.1.2-.1.2 0 .5.3.8.6l1.5 1.7c.2.3.3.5.3.6 0 0 0 0-.1 0-.2 0-.5-.2-.8-.6z" fill="#8a806b"/><path d="m11.9 34.9-1.6 1.6-.1-.1c-.2-.2-.5-.1-.8.2-.1.1-.2.2-.2.3-.2-.1-.5-.2-.6 0-.2.2-.1.5.1.7l1.2 1.2c.2.2.6.3.7.1.2-.2.1-.5-.1-.7.1 0 .2-.1.3-.2.3-.3.4-.6.2-.8l1.6-1.6z" fill="#c9cacb"/><path d="m3.9 58.8c-1.7-1.8-.6-5.7 2.4-8.7l3.7-3.8 28-28c1.4-1.3 10.4-10.4 10.4-10.4 1.6-1.6 2.6-3.5 2.2-4.7-.1-.2-.6-1.1-.8-1.3-1-1-3.4-.6-5.2 1.2l-30.8 31.5v.2c0 .2-.2.6-.5.9-.2.3-.8.4-1 .5l-.5-.4-.5-.4c.1-.2.2-.7.4-1 .3-.3.6-.5.9-.5l.1.1 31.4-32.1c2.1-2.1 5.2-2.6 6.8-1 .4.4.7.9.8 1.4.5 1.6-.1 3.8-1.7 5.4 0 0-11.2 11.4-11.3 11.5l-27.9 28-3.9 4c-2.3 2.2-3.5 5.4-2.3 6.7.2.3.7.6 1.1.7 1.4.4 3.8-.8 5.7-2.5l1.4-1.3 2.7-2.5c.2-.2.8-.7.8-.7l12.5-12.9s2.8-2.9 4.2-4.4c1.9-1.9 3.7-3.9 5.5-5.8 1.8-2 3.5-3.9 3.7-6.7 0-.6 0-1.2 0-1.8 0-.5 0-1.1-.2-1.6-.3-.7-.4-.8-.1-.7 1.2.3 2.4 1.7 3.3 2.5 1.7 1.6 3.3 3.2 4.8 5 .6.7 1.6 1.7 1.8 2.6.1.3-.1.2-.7-.1-.5-.2-1.1-.2-1.6-.2-.6 0-1.2-.1-1.8 0-2.1.1-3.5.9-5.1 2.2-3 2.6-5.9 5.2-8.8 7.9-3.9 3.4-7.8 7-11.8 10.6-3.2 3-6.5 5.9-9.8 8.8-.2.2-.6.5-.8.6-2.2 2-4.2 2.7-5.8 2.3-.6-.2-1.2-.6-1.7-1.1z" fill="#00572c"/><path d="m50.6 6.8.2-.4c0-.5 0-.9 0-1.2.3 0 .6-.2.8-.5.1-.1.1-.2.1-.2.3-.9-.3-1.5-.5-1.5-.1 0-.2.1-.2.3-.1.2-.2.5-.2.8-.1 0-.2 0-.3-.1s-.2-.1-.3-.3c-.4-.5-.6-1.5-.5-2.5l-.4-.6-.1.8c-.1 1 .2 2.2.7 2.9.1.3.3.5.5.7h.2v.8z" fill="#96948d"/><path d="m16.4 32.6c.1-.1 0-.2-.1-.4l4.1-4.1c.2.1.3.1.4.1.1-.1-.1-.6-.6-1-.4-.4-.9-.7-1-.6s0 .2.1.4l-4.1 4.1c-.2-.1-.3-.1-.4 0s.1.6.6 1c.4.4.9.7 1 .5z" fill="#9fa09b"/><path d="m21.3 36.4c.1-.1.1-.4 0-.5l-4.9-4.9c-.1-.1-.4-.1-.5 0s-.1.4 0 .5l4.9 4.9c.1.2.3.2.5 0z" fill="#8a806b"/><path d="m24.6 33.2c.1-.1.1-.4 0-.5l-5-5c-.1-.1-.4-.2-.5 0-.1.1-.1.4 0 .5l5 5c.2.1.4.1.5 0z" fill="#8a806b"/><path d="m46 23.2c-.3.4-.8.9-1.3 1.5-2.4 2.6-6.6 6.9-11.5 11.7-5.1 5.1-9.7 9.4-12.2 11.7-.4.4-.8.7-1.1 1 .2-.3.6-.6.9-1.1 2.3-2.5 6.7-7.1 11.9-12.2 4.9-4.9 9.3-9.1 11.9-11.4.6-.4 1-.9 1.4-1.2z" fill="#fff" opacity=".2"/></svg>