<svg enable-background="new 0 0 60 60" height="60" viewBox="0 0 60 60" width="60" xmlns="http://www.w3.org/2000/svg"><path d="m59.9 12.9-12.8-12.8c-.3-.3-.8-.1-.8.3v6.9c0 2.5-1 4.9-2.8 6.7l-12.7 12.9-1.2-1.2-1.9 1.9 1.2 1.2-1.3 1.2-1.1 1.1-1.2-1.2-1.9 1.9 1.2 1.2-2.4 2.4-1.2-1.2-1.9 1.9 1.2 1.2-3.3 3.3v.1l-12.8 12.7c-.2.2-.4.4-.7.5l-3.2 1.4c-.3.2-.4.5-.1.8l3.7 3.7c.2.2.6.2.8-.1l1.4-3.2c.1-.3.3-.5.5-.7l7.9-8c.2 2 1.1 3.9 2.6 5.4 3.5 3.5 9.2 3.5 12.7 0l3.3-3.3c.5.5 1.4.5 1.9 0s.5-1.4 0-1.9l2.3-2.4c.5.5 1.4.5 1.9 0s.5-1.4 0-1.9l2.3-2.4c.5.5 1.4.5 1.9 0s.5-1.4 0-1.9l3.7-3.8c3.5-3.5 3.5-9.2 0-12.7-1.5-1.5-3.5-2.4-5.5-2.6l4.1-4.1c1.8-1.8 4.2-2.8 6.7-2.8h6.9c.7.2.9-.3.6-.5zm-32.4 38c-2.2 2.2-5.8 2.2-8 0s-2.2-5.8 0-8l3.3-3.3 8 8zm5.2-5.2-8-8 2.4-2.4 8 8zm4.2-4.2-8-8 2.4-2.4 8 8zm8-8-3.8 3.8-8-8 3.8-3.8c2.2-2.2 5.8-2.2 8 0s2.2 5.7 0 8zm-27.2 2.5c.2.2.5.2.7 0l2.6-2.6c.2-.2.2-.5 0-.7l-.3-.3c-.2-.2-.5-.2-.7 0l-2.6 2.6c-.2.2-.2.5 0 .7zm4.3-4.3c.2.2.5.2.7 0l2.6-2.6c.2-.2.2-.5 0-.7l-.3-.3c-.2-.2-.5-.2-.7 0l-2.6 2.6c-.2.2-.2.5 0 .7zm4.2-4.2c.2.2.5.2.7 0l2.6-2.6c.2-.2.2-.5 0-.7l-.3-.3c-.2-.2-.5-.2-.7 0l-2.6 2.6c-.2.2-.2.5 0 .7z" fill="#781d77"/></svg>