<svg height="60" viewBox="0 0 60 60" width="60" xmlns="http://www.w3.org/2000/svg"><path d="m2.6 56.2h1.4v-.2h26.8v.2h3.9v-15c0-1.6 1.3-2.9 2.9-2.9h22.4v-3.9h-1.4l.1-26.8h1.3v-3.9h-39.9c-11.1 0-20.1 9.1-20.1 20.2l.1 32.3zm3-38.2 5.6 3.7-7.2 10.9v-7.1c0-2.6.6-5.2 1.6-7.5zm6.4 4.3 20.2 13.4-28.2 18.9v-20.2zm18.8 32.9h-26.2l27-18c-.5.9-.8 1.8-.8 2.9zm5.7-20.8c-1.3 0-2.4.4-3.4 1.1l.1-.2-20.7-13.8 9.2-13.7 17.8 26.7h-3zm-13.8-26.8h34.6l-17.2 26zm18 26.8 17.2-26-.1 26zm-20.1-26.7-8.9 13.3-5.7-3.8c2.9-5.4 8.3-9.1 14.6-9.5z" fill="#ff5a00"/></svg>