<svg height="60" viewBox="0 0 60 60" width="60" xmlns="http://www.w3.org/2000/svg"><path d="m57.5 36.9s-.1-.1-.1-.1l2.1-5.1c.1 0 .1.1.2.2l.3-.8c-17.1-12.4-43.5-12-60 .2l.4.7 2.2 5.2s-.1.1-.1.1l.4.7c7.1-5.5 16.9-8.7 27.1-8.7 10.1 0 19.8 3 27.1 8.4zm-54.6.1-2.2-5.2 9 1.1c-2.4 1.2-4.7 2.5-6.8 4.1zm7.3-4.3-9.3-1.1c3.2-2.4 6.8-4.3 10.6-5.7zm.2-.1 1.2-6.7c.1 0 .2-.1.4-.1l7.7 3.9c-3.2.6-6.3 1.6-9.3 2.9zm9.8-3.1-7.8-4c3.7-1.3 7.6-2.2 11.7-2.6l-3.5 6.5c-.1.1-.3.1-.4.1zm9.9-.9c-3.1 0-6.2.3-9.2.8l3.5-6.4h.5l5.6 5.7c-.2-.1-.3-.1-.4-.1zm.7 0-5.7-5.7c3.6-.3 7.3-.3 10.9.1l-4.9 5.6s-.1 0-.3 0zm.8 0 4.8-5.5h.4l3.3 6.4c-2.8-.5-5.7-.8-8.5-.9zm8.7 1-3.3-6.4c4.3.6 8.5 1.6 12.4 3.1l-8.2 3.5c-.3-.1-.6-.1-.9-.2zm1.4.3 8.1-3.5c.1 0 .1.1.2.1l.7 6.4c-2.8-1.2-5.8-2.3-9-3zm9.2 3.1-.7-6.4c3.1 1.2 5.9 2.8 8.6 4.7l-7.7 1.9c-.1-.1-.2-.1-.2-.2zm8.1-1.6c.1 0 .1.1.2.1l-2.1 5.1c-1.8-1.2-3.7-2.3-5.6-3.3z" fill="#231f20"/></svg>