<svg enable-background="new 0 0 60 60" height="60" viewBox="0 0 60 60" width="60" xmlns="http://www.w3.org/2000/svg"><path d="m30 43c-.7 0-1.2.1-1.2.3v2c0 .2.6.3 1.2.3.7 0 1.2-.1 1.2-.3v-2c0-.2-.6-.3-1.2-.3zm.4 2.1c0 .1-.2.2-.4.2s-.4-.1-.4-.2v-1.6c0-.1.2-.2.4-.2s.4.1.4.2z" fill="#d0d2d3"/><path d="m39.6 24.9c0 .6.4 1.1 1 1.1.5 0 1-.5.9-1.2 0-.6-.4-1.1-1-1.1-.4 0-.9.6-.9 1.2z" fill="#d0d2d3"/><path d="m39.8 24.9c0 .5.4 1 .8 1s.8-.5.8-1-.4-1-.8-1c-.5 0-.8.4-.8 1zm1.3-.1c0 .4-.2.6-.5.6s-.5-.3-.5-.6c0-.4.2-.6.5-.6s.4.3.5.6z" fill="#e6e7e8"/><g fill="#063e89"><path d="m40.2 24.3h-1c-.3 0-.5.3-.5.6s.3.6.6.6h1c.3 0 .5-.3.5-.6-.1-.3-.3-.6-.6-.6z"/><path d="m28.1 30.3h3.4v.7h-3.4z"/><path d="m28.3 38.4h3.4v.7h-3.4z"/><path d="m28.3 40.2h3.4v.7h-3.4z"/><path d="m17.7 39.3h3.4v.7h-3.4z"/><path d="m18.3 32.2h3.1v.7h-3.1z"/><path d="m23.6 21.4v-.1c0-.2-.1-.3-.2-.3h-1.2c-.1 0-.2.1-.2.3v.1c0 .1.1.3.2.3 0 .1-.1.3-.1.5v6.2c0 .6.3 1.1.6 1.1h.2c.3 0 .6-.5.6-1.1v-6.2c0-.2 0-.3-.1-.5.1 0 .2-.1.2-.3z"/></g><path d="m22.8 20c-.1 0-.2.1-.2.2v.9c0 .1.1.2.1.2h.1c.1 0 .1-.1.1-.2v-.9c0-.2 0-.2-.1-.2z" fill="#d0d2d3"/><path d="m22.8 19.8c-.3 0-.5.1-.5.2s.2.2.5.2.5-.1.5-.2-.2-.2-.5-.2z" fill="#404041"/><path d="m26.6 21c0 .2-.1.3-.1.3h-.1c-.1 0-.1-.1-.1-.2v-.1z" fill="#cca067"/><path d="m26.6 20.1v.8.1c0 .1-.1.2-.1.2h-.1c-.1 0-.1-.1-.1-.2v-.1-.8-.1c0-.1.1-.2.1-.2h.1c0 .2.1.2.1.3z" fill="#d0d2d3"/><path d="m26.4 19.8c-.3 0-.5.1-.5.2s.2.2.5.2.5-.1.5-.2-.2-.2-.5-.2z" fill="#404041"/><path d="m44.8 1.8c-1-1-8.2-1.7-11.1-1.7-2.8 0-9.1.7-11 1.8-1.5.9 3.6 2.2 4.7 5.4.3.8.5 1.7.8 2.9-1.2-1.4-3.6-2.6-5.1-2.6-2 0-6.6.8-7.6 5.3-1 4.8-1 32.6-.2 37.2.6 3.6 3.5 9.9 9.5 9.9 10.3.1 11.1-6.1 11.7-10.3.6-4.1.7-35.2 3.4-42.5 1.1-2.9 5.6-4.7 4.9-5.4zm-14 48c-.5 3-2.3 4.6-7.7 4.1-2.1-.2-3.6-1.6-4-4.4-.7-4.1-.2-13.8-.2-18 0-16.8-1.2-20.3 4.7-20.6 2.3-.1 4.2 2.1 4.1 9.6 0 .5-.1 1.4-.1 2.3h-.6v-.6c0-.2 0-.3-.1-.5.1 0 .2-.2.2-.3v-.1c0-.2-.1-.3-.2-.3h-.5v.1c0 .1-.1.2-.1.2h-.1c-.1 0-.1-.1-.1-.2v-.1h-.4c-.1 0-.2.1-.2.3v.1c0 .1.1.3.2.3 0 .1-.1.3-.1.5v6.2c0 .6.3 1.1.6 1.1h.2c.3 0 .6-.5.6-1.1v-5h.6v2.2l2.5.2c1 9.9 1.3 20.4.7 24z" fill="#063e89"/><path d="m45.2 1.3c-1.1-.8-8.7-1.3-11.8-1.3-2.9 0-9.7.6-11.6 1.4-.6.3-.2.6.6 1 3-.7 6.4-1.1 10-1.2 4.5-.2 8.8.1 12.4.8.4-.3.6-.6.4-.7z" fill="#ebd9c2"/><path d="m23.2 30.2v-4.4h-.6v4.1c-.1 0-.1 0-.2 0-.8 0-1.5 1.1-1.5 2.4l.1 15.1c0 1.3.7 2.3 1.6 2.3.8 0 1.5-1.1 1.5-2.4l-.1-15.2c-.1-.8-.4-1.5-.8-1.9zm-.1 15.8c0 1-.2 1.9-.6 1.9-.3 0-.6-.8-.6-1.9l-.1-12.2c0-1 .2-1.9.5-1.9s.6.8.6 1.9z" fill="#063e89"/><path d="m26.7 30v-4h-.7v3.8c-.9 0-1.6.8-1.6 1.8v11.6c0 1 .7 1.8 1.6 1.8s1.6-.8 1.6-1.8v-11.6c0-.7-.3-1.3-.9-1.6zm-.1 12.1c0 .8-.3 1.4-.6 1.4s-.6-.6-.6-1.4v-4.9h1.2zm0-5.6h-1.2v-3.7c0-.8.3-1.4.6-1.4s.6.6.6 1.4z" fill="#063e89"/><path d="m24.9 11.3h-1.7c-2.2 0-4 2.5-4 5.5l.1 30.5c.1 3.1 2.1 5.5 4.3 5.5l1.6.1c2.2 0 3.7-2.6 3.7-5.6v-30.5c0-3.1-1.8-5.5-4-5.5zm2.9 35c0 3.2-1.4 5.2-3.1 5.2h-1.1c-1.7 0-3.3-2.3-3.3-5.2v-21.9h3.5v4.1c0 .6.3 1.1.6 1.1h.2c.3 0 .6-.5.6-1.1v-6.2c0-.2 0-.3-.1-.5.1 0 .2-.2.2-.3v-.1c0-.2-.1-.3-.2-.3h-.5v.1c0 .1-.1.2-.1.2h-.1c-.1 0-.1-.1-.1-.2v-.1l-.3-.1c-.1 0-.2.1-.2.3v.1c0 .1.1.3.2.3 0 .1-.1.3-.1.5v1.1h-3.5v-5.7c0-2.8 1.4-5.2 3.1-5.2h1.3c1.7 0 3.1 2.3 3.1 5.2v28.7z" fill="#063e89"/><path d="m24.8 21c0 .2-.1.3-.1.3h-.1c-.1 0-.1-.1-.1-.2v-.1z" fill="#e8bc84"/><path d="m24.8 20.2v.8.1c0 .1-.1.2-.1.2h-.1c-.1 0-.1-.1-.1-.2v-.1-.8-.1c0-.1.1-.2.1-.2h.1c0 .1.1.2.1.3z" fill="#d0d2d3"/><path d="m24.6 19.9c-.3 0-.5.1-.5.2s.2.2.5.2.5-.1.5-.2c.1-.1-.2-.2-.5-.2z" fill="#404041"/><path d="m20 42.3h4.6v.7h-4.6z" fill="#063e89"/><path d="m28.5 8.6c-.1 0-.2.3-.1.7l1.9 14.1c0 .4.2.6.3.6s.2-.3.1-.7l-1.8-14.1c-.1-.4-.2-.7-.4-.6z" fill="#fff" opacity=".2"/><path d="m34.9 21.2c0-14.3-2.3-17.3-2.4-17.3s.8 6.8.8 21.1c0 10.3.7 19.2-.5 25.6-.2 1-.6 1.9-1.1 2.8-1.1 1.9-3.1 2.6-5.1 2.9 1.7 0 3.4-.3 4.7-1.2.4-.2.9-.6 1.3-1.2 1.9-2.5 2.1-6.1 2.2-9.2.2-4.8.2-9.7.1-14.5.1-3.1 0-6.1 0-9z" fill="#fff" opacity=".2"/><path d="m26.2 24.5c-.2 0-.2.7 0 .8 1.4.7 12.3.8 13.6 0 .2-.1.2-.8 0-.8-1.6-.4-12-.3-13.6 0z" fill="#063e89"/><path d="m17.8 18.2c-.2 0-.4.5-.4 1.1l-.1 28.6c0 .6.2 1.1.4 1.1s.4-.5.4-1.1l.1-28.6c0-.6-.2-1.1-.4-1.1z" fill="#fff" opacity=".2"/></svg>