<svg enable-background="new 0 0 60 60" height="60" viewBox="0 0 60 60" width="60" xmlns="http://www.w3.org/2000/svg"><g fill="#ff5a00"><circle cx="21.2" cy="29.7" r=".7"/><path d="m44.6 10.2h-3.1c-.3 0-.5.2-.5.5v6.8c0 .3.2.5.5.5h3.1c.3 0 .5-.2.5-.5v-6.8c0-.3-.3-.5-.5-.5zm-12.7 18.3.1.1-.4.4h.4c.2 0 .3.1.4.3v.9c0 .2-.2.4-.3.4l-2.2.1.2 3c0 .1-.1.2-.1.2s-.1-.1-.1-.1l-.2-3h-.9c-.2 0-.3-.1-.3-.3v-.9c0-.2.1-.4.3-.4h1l1.4-1.4.1.1 5.3-5.3c-2.7-5.7-8.5-9.6-15.2-9.6-9.3 0-16.8 7.5-16.8 16.8s7.5 16.9 16.8 16.9 16.6-7.7 16.6-17c0-2.2-.4-4.3-1.2-6.2zm-10.7 6.3c-2.8 0-5.1-2.3-5.1-5.1s2.3-5.1 5.1-5.1 5.1 2.3 5.1 5.1-2.3 5.1-5.1 5.1zm35.9-27.6h-54.2c-1.6 0-2.9 1.3-2.9 2.9v39.8c0 1.6 1.3 2.9 2.9 2.9h54.1c1.6 0 2.9-1.3 2.9-2.9v-39.8c.1-1.6-1.2-2.9-2.8-2.9zm-10.2 5.8c0 .3-.2.5-.5.5h-.8v3.9c0 .6-.5 1.1-1.1 1.1h-2.7l-4.1 4.1c1 2.2 1.5 4.6 1.5 7.1 0 10-8.1 18-18 18s-18-8.1-18-18 8.1-18 18-18c7.1 0 13.1 4.1 16.1 9.9l3.4-3.4c-.2-.2-.3-.5-.3-.8v-3.9h-.8c-.3 0-.5-.2-.5-.5v-3.1c0-.3.2-.5.5-.5h6.8c.3 0 .5.2.5.5zm7.7 29c0 .8-.7 1.5-1.5 1.5h-.7v2c0 .5-.4.9-.8.9s-.8-.4-.8-.9v-2h-.7c-.8 0-1.5-.7-1.5-1.5v-.5c0-.8.7-1.5 1.5-1.5h.7v-12.7c0-.5.4-.9.8-.9s.8.4.8.9v12.7h.7c.8 0 1.5.7 1.5 1.5zm-1.4-1.4h-3c-.5 0-.9.4-.9.9v.5c0 .5.4.9.9.9h3c.5 0 .9-.4.9-.9v-.5c0-.5-.4-.9-.9-.9z"/></g></svg>