<svg xmlns="http://www.w3.org/2000/svg" width="60" height="60"><circle cx="21.206" cy="29.718" r=".675"/><path d="M44.56 10.17H41.5c-.27 0-.5.23-.5.5v6.75c0 .27.23.5.5.5h3.06c.27 0 .5-.23.5-.5v-6.75c0-.27-.23-.5-.5-.5zm-12.7 18.3l.12.14-.38.4h.44c.2 0 .35.13.36.32l.03.92c0 .2-.15.35-.34.36l-2.2.07.16 3c0 .08-.06.15-.13.15s-.14-.06-.14-.13l-.18-3h-.92c-.18 0-.34-.14-.34-.33l-.03-.9c0-.2.14-.36.33-.37l.96-.04 1.4-1.4.14.12 5.26-5.26c-2.7-5.7-8.5-9.63-15.22-9.63-9.3 0-16.82 7.5-16.82 16.8S11.9 46.55 21.2 46.55 38.03 39 38.03 29.72c0-2.2-.43-4.3-1.2-6.22l-4.98 4.98zM21.2 34.83c-2.8 0-5.1-2.3-5.1-5.1 0-2.82 2.3-5.1 5.1-5.1 2.82 0 5.1 2.28 5.1 5.1 0 2.8-2.28 5.1-5.1 5.1zM57.07 7.16H2.93C1.3 7.16 0 8.46 0 10.1v39.8c0 1.63 1.3 2.94 2.93 2.94h54.14c1.62 0 2.93-1.3 2.93-2.93V10.1c0-1.63-1.3-2.94-2.93-2.94zM46.9 13c0 .27-.22.5-.5.5h-.77v3.92c0 .6-.48 1.07-1.07 1.07h-2.7l-4.1 4.06c.95 2.2 1.48 4.6 1.48 7.15 0 9.97-8.07 18.04-18.03 18.04-9.94 0-18.02-8.07-18.02-18.03s8.08-18.03 18.04-18.03c7.06 0 13.15 4.05 16.12 9.94l3.44-3.43c-.2-.2-.32-.46-.32-.76v-3.9h-.78c-.27 0-.5-.22-.5-.5V9.95c0-.27.23-.5.5-.5h6.75c.28 0 .5.23.5.5V13zm7.73 28.98c0 .82-.66 1.48-1.48 1.48h-.65v2c0 .5-.38.92-.85.92s-.85-.42-.85-.93v-2h-.65c-.82 0-1.48-.66-1.48-1.47v-.5c0-.8.66-1.46 1.48-1.46h.65V27.27c0-.52.38-.94.85-.94s.85.42.85.94V40h.65c.82 0 1.48.68 1.48 1.5v.48zm-1.48-1.4h-3c-.5 0-.9.4-.9.9v.5c0 .5.4.9.9.9h3c.5 0 .9-.4.9-.9v-.5c0-.5-.4-.9-.9-.9z"/></svg>