<svg enable-background="new 0 0 60 60" height="60" viewBox="0 0 60 60" width="60" xmlns="http://www.w3.org/2000/svg" xmlns:xlink="http://www.w3.org/1999/xlink"><clipPath id="a"><path d="m53.1 37.7h4.6v.7h-4.6z"/></clipPath><clipPath id="b"><path d="m53.1 37.7h4.6v.7h-4.6z"/></clipPath><clipPath id="c"><path d="m53.1 37.7h4.6v.7h-4.6z"/></clipPath><clipPath id="d"><path d="m53.1 37.7h4.6v.7h-4.6z"/></clipPath><clipPath id="e"><path d="m53.1 37.7h4.6v.7h-4.6z"/></clipPath><clipPath id="f"><path d="m53.1 37.7h4.6v.7h-4.6z"/></clipPath><clipPath id="g"><path d="m53.1 37.7h4.6v.7h-4.6z"/></clipPath><clipPath id="h"><path d="m53.1 37.7h4.6v.7h-4.6z"/></clipPath><clipPath id="i"><path d="m53.1 37.7h4.6v.7h-4.6z"/></clipPath><clipPath id="j"><path d="m53.1 37.7h4.6v.7h-4.6z"/></clipPath><clipPath id="k"><path d="m53.1 37.7h4.6v.7h-4.6z"/></clipPath><clipPath id="l"><path d="m53.1 37.7h4.6v.7h-4.6z"/></clipPath><clipPath id="m"><path d="m53.1 37.7h4.6v.7h-4.6z"/></clipPath><clipPath id="n"><path d="m53.1 37.7h4.6v.7h-4.6z"/></clipPath><clipPath id="o"><path d="m53.1 37.7h4.6v.7h-4.6z"/></clipPath><clipPath id="p"><path d="m53.1 37.7h4.6v.7h-4.6z"/></clipPath><clipPath id="q"><path d="m53.1 37.7h4.6v.7h-4.6z"/></clipPath><clipPath id="r"><path d="m53.1 37.7h4.6v.7h-4.6z"/></clipPath><clipPath id="s"><path d="m53.1 37.7h4.6v.7h-4.6z"/></clipPath><clipPath id="t"><path d="m53.1 37.7h4.6v.7h-4.6z"/></clipPath><clipPath id="u"><path d="m53.1 37.7h4.6v.7h-4.6z"/></clipPath><clipPath id="v"><path d="m53.1 37.7h4.6v.7h-4.6z"/></clipPath><clipPath id="w"><path d="m53.1 37.7h4.6v.7h-4.6z"/></clipPath><clipPath id="x"><path d="m53.1 37.7h4.6v.7h-4.6z"/></clipPath><clipPath id="y"><path d="m53.1 37.7h4.6v.7h-4.6z"/></clipPath><clipPath id="z"><path d="m53.1 37.7h4.6v.7h-4.6z"/></clipPath><clipPath id="A"><path d="m53.1 37.7h4.6v.7h-4.6z"/></clipPath><clipPath id="B"><path d="m53.1 37.7h4.6v.7h-4.6z"/></clipPath><clipPath id="C"><path d="m53.1 37.7h4.6v.7h-4.6z"/></clipPath><clipPath id="D"><path d="m53.1 37.7h4.6v.7h-4.6z"/></clipPath><clipPath id="E"><path d="m53.1 37.7h4.6v.7h-4.6z"/></clipPath><clipPath id="F"><path d="m53.1 37.7h4.6v.7h-4.6z"/></clipPath><clipPath id="G"><path d="m53.1 37.7h4.6v.7h-4.6z"/></clipPath><clipPath id="H"><path d="m53.1 37.7h4.6v.7h-4.6z"/></clipPath><clipPath id="I"><path d="m53.1 37.7h4.6v.7h-4.6z"/></clipPath><clipPath id="J"><path d="m53.1 37.7h4.6v.7h-4.6z"/></clipPath><clipPath id="K"><path d="m53.1 37.7h4.6v.7h-4.6z"/></clipPath><clipPath id="L"><path d="m53.1 37.7h4.6v.7h-4.6z"/></clipPath><clipPath id="M"><path d="m53.1 37.7h4.6v.7h-4.6z"/></clipPath><clipPath id="N"><path d="m53.1 37.7h4.6v.7h-4.6z"/></clipPath><clipPath id="O"><path d="m53.1 37.7h4.6v.7h-4.6z"/></clipPath><clipPath id="P"><path d="m53.1 37.7h4.6v.7h-4.6z"/></clipPath><clipPath id="Q"><path d="m53.1 37.7h4.6v.7h-4.6z"/></clipPath><clipPath id="R"><path d="m53.1 37.7h4.6v.7h-4.6z"/></clipPath><clipPath id="S"><path d="m53.1 37.7h4.6v.7h-4.6z"/></clipPath><clipPath id="T"><path d="m53.1 37.7h4.6v.7h-4.6z"/></clipPath><clipPath id="U"><path d="m53.1 37.7h4.6v.7h-4.6z"/></clipPath><clipPath id="V"><path d="m53.1 37.7h4.6v.7h-4.6z"/></clipPath><clipPath id="W"><path d="m53.1 37.7h4.6v.7h-4.6z"/></clipPath><clipPath id="X"><path d="m53.1 37.7h4.6v.7h-4.6z"/></clipPath><clipPath id="Y"><path d="m53.1 37.7h4.6v.7h-4.6z"/></clipPath><clipPath id="Z"><path d="m53.1 37.7h4.6v.7h-4.6z"/></clipPath><clipPath id="aa"><path d="m53.1 37.7h4.6v.7h-4.6z"/></clipPath><clipPath id="ab"><path d="m53.1 37.7h4.6v.7h-4.6z"/></clipPath><clipPath id="ac"><path d="m53.1 37.7h4.6v.7h-4.6z"/></clipPath><clipPath id="ad"><path d="m53.1 37.7h4.6v.7h-4.6z"/></clipPath><clipPath id="ae"><path d="m53.1 37.7h4.6v.7h-4.6z"/></clipPath><clipPath id="af"><path d="m53.1 37.7h4.6v.7h-4.6z"/></clipPath><clipPath id="ag"><path d="m53.1 37.7h4.6v.7h-4.6z"/></clipPath><clipPath id="ah"><path d="m53.1 37.7h4.6v.7h-4.6z"/></clipPath><clipPath id="ai"><path d="m53.1 37.7h4.6v.7h-4.6z"/></clipPath><clipPath id="aj"><path d="m53.1 37.7h4.6v.7h-4.6z"/></clipPath><clipPath id="ak"><path d="m53.1 37.7h4.6v.7h-4.6z"/></clipPath><clipPath id="al"><path d="m53.1 37.7h4.6v.7h-4.6z"/></clipPath><clipPath id="am"><path d="m53.1 37.7h4.6v.7h-4.6z"/></clipPath><clipPath id="an"><path d="m53.1 37.7h4.6v.7h-4.6z"/></clipPath><clipPath id="ao"><path d="m53.1 37.7h4.6v.7h-4.6z"/></clipPath><clipPath id="ap"><path d="m53.1 37.7h4.6v.7h-4.6z"/></clipPath><clipPath id="aq"><path d="m53.1 37.7h4.6v.7h-4.6z"/></clipPath><clipPath id="ar"><path d="m53.1 37.7h4.6v.7h-4.6z"/></clipPath><clipPath id="as"><path d="m53.1 37.7h4.6v.7h-4.6z"/></clipPath><clipPath id="at"><path d="m53.1 37.7h4.6v.7h-4.6z"/></clipPath><clipPath id="au"><path d="m53.1 37.7h4.6v.7h-4.6z"/></clipPath><clipPath id="av"><path d="m53.1 37.7h4.6v.7h-4.6z"/></clipPath><clipPath id="aw"><path d="m53.1 37.7h4.6v.7h-4.6z"/></clipPath><clipPath id="ax"><path d="m53.1 37.7h4.6v.7h-4.6z"/></clipPath><clipPath id="ay"><path d="m53.1 37.7h4.6v.7h-4.6z"/></clipPath><clipPath id="az"><path d="m53.1 37.7h4.6v.7h-4.6z"/></clipPath><clipPath id="aA"><path d="m53.1 37.7h4.6v.7h-4.6z"/></clipPath><clipPath id="aB"><path d="m53.1 37.7h4.6v.7h-4.6z"/></clipPath><clipPath id="aC"><path d="m53.1 37.7h4.6v.7h-4.6z"/></clipPath><clipPath id="aD"><path d="m53.1 37.7h4.6v.7h-4.6z"/></clipPath><clipPath id="aE"><path d="m53.1 37.7h4.6v.7h-4.6z"/></clipPath><clipPath id="aF"><path d="m53.1 37.7h4.6v.7h-4.6z"/></clipPath><clipPath id="aG"><path d="m53.1 37.7h4.6v.7h-4.6z"/></clipPath><clipPath id="aH"><path d="m53.1 37.7h4.6v.7h-4.6z"/></clipPath><clipPath id="aI"><path d="m53.1 37.7h4.6v.7h-4.6z"/></clipPath><clipPath id="aJ"><path d="m53.1 37.7h4.6v.7h-4.6z"/></clipPath><clipPath id="aK"><path d="m53.1 37.7h4.6v.7h-4.6z"/></clipPath><clipPath id="aL"><path d="m53.1 37.7h4.6v.7h-4.6z"/></clipPath><clipPath id="aM"><path d="m53.1 37.7h4.6v.7h-4.6z"/></clipPath><clipPath id="aN"><path d="m53.1 37.7h4.6v.7h-4.6z"/></clipPath><clipPath id="aO"><path d="m53.1 37.7h4.6v.7h-4.6z"/></clipPath><clipPath id="aP"><path d="m53.1 37.7h4.6v.7h-4.6z"/></clipPath><clipPath id="aQ"><path d="m53.1 37.7h4.6v.7h-4.6z"/></clipPath><clipPath id="aR"><path d="m53.1 37.7h4.6v.7h-4.6z"/></clipPath><clipPath id="aS"><path d="m53.1 37.7h4.6v.7h-4.6z"/></clipPath><clipPath id="aT"><path d="m53.1 37.7h4.6v.7h-4.6z"/></clipPath><clipPath id="aU"><path d="m53.1 37.7h4.6v.7h-4.6z"/></clipPath><clipPath id="aV"><path d="m53.1 37.7h4.6v.7h-4.6z"/></clipPath><clipPath id="aW"><path d="m53.1 37.7h4.6v.7h-4.6z"/></clipPath><clipPath id="aX"><path d="m53.1 37.7h4.6v.7h-4.6z"/></clipPath><clipPath id="aY"><path d="m53.1 37.7h4.6v.7h-4.6z"/></clipPath><clipPath id="aZ"><path d="m53.1 37.7h4.6v.7h-4.6z"/></clipPath><clipPath id="a0"><path d="m53.1 37.7h4.6v.7h-4.6z"/></clipPath><clipPath id="a1"><path d="m53.1 37.7h4.6v.7h-4.6z"/></clipPath><clipPath id="a2"><path d="m53.1 37.7h4.6v.7h-4.6z"/></clipPath><clipPath id="a3"><path d="m53.1 37.7h4.6v.7h-4.6z"/></clipPath><clipPath id="a4"><path d="m53.1 37.7h4.6v.7h-4.6z"/></clipPath><clipPath id="a5"><path d="m53.1 37.7h4.6v.7h-4.6z"/></clipPath><clipPath id="a6"><path d="m53.1 37.7h4.6v.7h-4.6z"/></clipPath><clipPath id="a7"><path d="m53.1 37.7h4.6v.7h-4.6z"/></clipPath><clipPath id="a8"><path d="m53.1 37.7h4.6v.7h-4.6z"/></clipPath><clipPath id="a9"><path d="m53.1 37.7h4.6v.7h-4.6z"/></clipPath><clipPath id="ba"><path d="m53.1 37.7h4.6v.7h-4.6z"/></clipPath><clipPath id="bb"><path d="m53.1 37.7h4.6v.7h-4.6z"/></clipPath><clipPath id="bc"><path d="m53.1 37.7h4.6v.7h-4.6z"/></clipPath><clipPath id="bd"><path d="m53.1 37.7h4.6v.7h-4.6z"/></clipPath><clipPath id="be"><path d="m53.1 37.7h4.6v.7h-4.6z"/></clipPath><clipPath id="bf"><path d="m53.1 37.7h4.6v.7h-4.6z"/></clipPath><clipPath id="bg"><path d="m53.1 37.7h4.6v.7h-4.6z"/></clipPath><clipPath id="bh"><path d="m53.1 37.7h4.6v.7h-4.6z"/></clipPath><clipPath id="bi"><path d="m53.1 37.7h4.6v.7h-4.6z"/></clipPath><clipPath id="bj"><path d="m53.1 37.7h4.6v.7h-4.6z"/></clipPath><clipPath id="bk"><path d="m53.1 37.7h4.6v.7h-4.6z"/></clipPath><clipPath id="bl"><path d="m53.1 37.7h4.6v.7h-4.6z"/></clipPath><clipPath id="bm"><path d="m53.1 37.7h4.6v.7h-4.6z"/></clipPath><clipPath id="bn"><path d="m53.1 37.7h4.6v.7h-4.6z"/></clipPath><clipPath id="bo"><path d="m53.1 37.7h4.6v.7h-4.6z"/></clipPath><clipPath id="bp"><path d="m53.1 37.7h4.6v.7h-4.6z"/></clipPath><clipPath id="bq"><path d="m53.1 37.7h4.6v.7h-4.6z"/></clipPath><clipPath id="br"><path d="m53.1 37.7h4.6v.7h-4.6z"/></clipPath><clipPath id="bs"><path d="m53.1 37.7h4.6v.7h-4.6z"/></clipPath><clipPath id="bt"><path d="m53.1 37.7h4.6v.7h-4.6z"/></clipPath><clipPath id="bu"><path d="m53.1 37.7h4.6v.7h-4.6z"/></clipPath><clipPath id="bv"><path d="m53.1 37.7h4.6v.7h-4.6z"/></clipPath><clipPath id="bw"><path d="m53.1 37.7h4.6v.7h-4.6z"/></clipPath><clipPath id="bx"><path d="m53.1 37.7h4.6v.7h-4.6z"/></clipPath><clipPath id="by"><path d="m53.1 37.7h4.6v.7h-4.6z"/></clipPath><clipPath id="bz"><path d="m53.1 37.7h4.6v.7h-4.6z"/></clipPath><clipPath id="bA"><path d="m53.1 37.7h4.6v.7h-4.6z"/></clipPath><clipPath id="bB"><path d="m53.1 37.7h4.6v.7h-4.6z"/></clipPath><clipPath id="bC"><path d="m53.1 37.7h4.6v.7h-4.6z"/></clipPath><clipPath id="bD"><path d="m53.1 37.7h4.6v.7h-4.6z"/></clipPath><clipPath id="bE"><path d="m53.1 37.7h4.6v.7h-4.6z"/></clipPath><clipPath id="bF"><path d="m53.1 37.7h4.6v.7h-4.6z"/></clipPath><clipPath id="bG"><path d="m53.1 37.7h4.6v.7h-4.6z"/></clipPath><clipPath id="bH"><path d="m53.1 37.7h4.6v.7h-4.6z"/></clipPath><clipPath id="bI"><path d="m53.1 37.7h4.6v.7h-4.6z"/></clipPath><clipPath id="bJ"><path d="m53.1 37.7h4.6v.7h-4.6z"/></clipPath><clipPath id="bK"><path d="m53.1 37.7h4.6v.7h-4.6z"/></clipPath><clipPath id="bL"><path d="m53.1 37.7h4.6v.7h-4.6z"/></clipPath><clipPath id="bM"><path d="m53.1 37.7h4.6v.7h-4.6z"/></clipPath><clipPath id="bN"><path d="m53.1 37.7h4.6v.7h-4.6z"/></clipPath><clipPath id="bO"><path d="m53.1 37.7h4.6v.7h-4.6z"/></clipPath><clipPath id="bP"><path d="m53.1 37.7h4.6v.7h-4.6z"/></clipPath><clipPath id="bQ"><path d="m53.1 37.7h4.6v.7h-4.6z"/></clipPath><clipPath id="bR"><path d="m53.1 37.7h4.6v.7h-4.6z"/></clipPath><clipPath id="bS"><path d="m53.1 37.7h4.6v.7h-4.6z"/></clipPath><clipPath id="bT"><path d="m53.1 37.7h4.6v.7h-4.6z"/></clipPath><clipPath id="bU"><path d="m53.1 37.7h4.6v.7h-4.6z"/></clipPath><clipPath id="bV"><path d="m53.1 37.7h4.6v.7h-4.6z"/></clipPath><clipPath id="bW"><path d="m53.1 37.7h4.6v.7h-4.6z"/></clipPath><clipPath id="bX"><path d="m53.1 37.7h4.6v.7h-4.6z"/></clipPath><clipPath id="bY"><path d="m53.1 37.7h4.6v.7h-4.6z"/></clipPath><clipPath id="bZ"><path d="m53.1 37.7h4.6v.7h-4.6z"/></clipPath><clipPath id="b0"><path d="m53.1 37.7h4.6v.7h-4.6z"/></clipPath><clipPath id="b1"><path d="m53.1 37.7h4.6v.7h-4.6z"/></clipPath><clipPath id="b2"><path d="m53.1 37.7h4.6v.7h-4.6z"/></clipPath><clipPath id="b3"><path d="m53.1 37.7h4.6v.7h-4.6z"/></clipPath><clipPath id="b4"><path d="m53.1 37.7h4.6v.7h-4.6z"/></clipPath><clipPath id="b5"><path d="m53.1 37.7h4.6v.7h-4.6z"/></clipPath><clipPath id="b6"><path d="m53.1 37.7h4.6v.7h-4.6z"/></clipPath><clipPath id="b7"><path d="m53.1 37.7h4.6v.7h-4.6z"/></clipPath><clipPath id="b8"><path d="m53.1 37.7h4.6v.7h-4.6z"/></clipPath><clipPath id="b9"><path d="m53.1 37.7h4.6v.7h-4.6z"/></clipPath><clipPath id="ca"><path d="m53.1 37.7h4.6v.7h-4.6z"/></clipPath><clipPath id="cb"><path d="m53.1 37.7h4.6v.7h-4.6z"/></clipPath><clipPath id="cc"><path d="m53.1 37.7h4.6v.7h-4.6z"/></clipPath><clipPath id="cd"><path d="m53.1 37.7h4.6v.7h-4.6z"/></clipPath><clipPath id="ce"><path d="m53.1 37.7h4.6v.7h-4.6z"/></clipPath><clipPath id="cf"><path d="m53.1 37.7h4.6v.7h-4.6z"/></clipPath><clipPath id="cg"><path d="m53.1 37.7h4.6v.7h-4.6z"/></clipPath><clipPath id="ch"><path d="m53.1 37.7h4.6v.7h-4.6z"/></clipPath><clipPath id="ci"><path d="m53.1 37.7h4.6v.7h-4.6z"/></clipPath><clipPath id="cj"><path d="m53.1 37.7h4.6v.7h-4.6z"/></clipPath><clipPath id="ck"><path d="m53.1 37.7h4.6v.7h-4.6z"/></clipPath><clipPath id="cl"><path d="m53.1 37.7h4.6v.7h-4.6z"/></clipPath><clipPath id="cm"><path d="m53.1 37.7h4.6v.7h-4.6z"/></clipPath><clipPath id="cn"><path d="m53.1 37.7h4.6v.7h-4.6z"/></clipPath><clipPath id="co"><path d="m53.1 37.7h4.6v.7h-4.6z"/></clipPath><clipPath id="cp"><path d="m53.1 37.7h4.6v.7h-4.6z"/></clipPath><clipPath id="cq"><path d="m53.1 37.7h4.6v.7h-4.6z"/></clipPath><clipPath id="cr"><path d="m53.1 37.7h4.6v.7h-4.6z"/></clipPath><clipPath id="cs"><path d="m53.1 37.7h4.6v.7h-4.6z"/></clipPath><clipPath id="ct"><path d="m53.1 37.7h4.6v.7h-4.6z"/></clipPath><clipPath id="cu"><path d="m53.1 37.7h4.6v.7h-4.6z"/></clipPath><clipPath id="cv"><path d="m53.1 37.7h4.6v.7h-4.6z"/></clipPath><clipPath id="cw"><path d="m53.1 37.7h4.6v.7h-4.6z"/></clipPath><clipPath id="cx"><path d="m53.1 37.7h4.6v.7h-4.6z"/></clipPath><clipPath id="cy"><path d="m53.1 37.7h4.6v.7h-4.6z"/></clipPath><path d="m0 6.3h60v47.5h-60z" fill="#00572c"/><ellipse cx="25.3" cy="29.7" fill="#e0e1e2" rx="20.7" ry="20.7"/><ellipse cx="25.3" cy="29.7" fill="#1e1e1e" rx="20.3" ry="20.3"/><path d="m25.3 37.7c-4.4 0-8.1-3.6-8.1-8.1s3.6-8.1 8.1-8.1 8.1 3.6 8.1 8.1-3.6 8.1-8.1 8.1zm0-15.6c-4.1 0-7.5 3.4-7.5 7.5s3.4 7.5 7.5 7.5 7.5-3.4 7.5-7.5-3.3-7.5-7.5-7.5z" fill="#59595c"/><path d="m25.3 40.9c-6.2 0-11.3-5.1-11.3-11.3s5.1-11.3 11.3-11.3 11.3 5.1 11.3 11.3-5.1 11.3-11.3 11.3zm0-22c-5.9 0-10.7 4.8-10.7 10.7s4.8 10.7 10.7 10.7 10.7-4.8 10.7-10.7c.1-5.9-4.8-10.7-10.7-10.7z" fill="#59595c"/><path d="m25.3 44.1c-7.9 0-14.4-6.5-14.4-14.4 0-8 6.5-14.4 14.4-14.4s14.4 6.5 14.4 14.4c.1 7.9-6.4 14.4-14.4 14.4zm0-28.3c-7.6 0-13.9 6.2-13.9 13.9s6.2 13.9 13.9 13.9 13.9-6.2 13.9-13.9-6.2-13.9-13.9-13.9z" fill="#59595c"/><path d="m25.3 46.8c-9.4 0-17.1-7.7-17.1-17.1s7.7-17.1 17.1-17.1 17.1 7.7 17.1 17.1-7.6 17.1-17.1 17.1zm0-33.7c-9.1 0-16.6 7.4-16.6 16.6s7.4 16.6 16.6 16.6 16.6-7.4 16.6-16.6-7.4-16.6-16.6-16.6z" fill="#59595c"/><path d="m30.4 29.6c0 2.8-2.3 5.1-5.1 5.1s-5.1-2.3-5.1-5.1 2.3-5.1 5.1-5.1 5.1 2.3 5.1 5.1z" fill="#ee4036"/><path d="m25.8 29.6c0 .3-.2.5-.5.5s-.5-.2-.5-.5.2-.5.5-.5.5.3.5.5z" fill="#e8e8e6"/><path d="m53.7 20.6c-1 2.2-3.5 3.3-5.8 2.3s-3.3-3.5-2.3-5.8 3.5-3.3 5.8-2.3c2.2 1 3.3 3.6 2.3 5.8z" fill="#686969"/><path d="m53.3 20.5c-.8 2-3.2 2.9-5.1 2.1-2-.9-2.9-3.1-2.1-5.1s3.2-2.9 5.1-2.1c2 .8 2.9 3.1 2.1 5.1z" fill="#aaa"/><path d="m39.1 40.6-1.1-1.6 2.1-1.5 1.1 1.6z" fill="#7a7b7b"/><path d="m39.8 38h.5v1.7h-.5z" fill="#babcbe" transform="matrix(.8269 -.5624 .5624 .8269 -14.8901 29.2482)"/><path d="m35.8 42.6 1.3 2.1s.1.1 0 .1-.1-.1-.1-.1l-1.4-2.1z" fill="#919395"/><path d="m35.7 42.8 3.7-2.3-1.2-1.8-3.6 2.3h-.4l-2.5 1.6.7 1v.1l.7 1.1 2.5-1.7z" fill="#babcbe"/><path d="m34.3 41.1 1.3 2z" fill="#919395"/><path d="m38.5 40.4c-.2.2-.6.1-.7-.2-.2-.2-.1-.6.2-.7.2-.2.6-.1.7.2s0 .6-.2.7z" fill="#919395"/><path d="m37.2 41.2c-.2.2-.6.1-.7-.2-.2-.2-.1-.6.2-.7.2-.2.6-.1.7.2.1.2.1.6-.2.7z" fill="#919395"/><path d="m36 42c-.2.2-.6.1-.7-.2-.2-.2-.1-.6.2-.7s.6-.1.7.2c.1.2.1.5-.2.7z" fill="#919395"/><path d="m33.3 44.3c-.1.1-.2 0-.3-.1 0-.1 0-.2.1-.2l1.8-1.2c.1-.1.2 0 .3.1.1.1 0 .2-.1.3z" fill="#221f1f"/><path d="m32.4 42.9c-.1.1-.2 0-.3-.1-.1-.1 0-.2.1-.3l1.8-1.2c.1-.1.2 0 .3.1.1.1 0 .2-.1.3z" fill="#221f1f"/><path d="m50.4 16.2h.2v1.6h-.2z" fill="#7a7b7b" transform="matrix(.392 -.92 .92 .392 15.0128 56.8027)"/><path d="m52.4 8.8h2.5v1.8h-2.5z" fill="#7a7b7b" transform="matrix(.3919 -.92 .92 .3919 23.7004 55.2833)"/><path d="m52.4 9.7h1v3.5h-1z" fill="#0b0a0a" transform="matrix(.392 -.92 .92 .392 21.6724 55.6002)"/><path d="m53.8 13.8.6-1.3-3.3-1.3-.5 1.2-.4.9.4.9.4.2-.4-.2-1 2.3 1.9.9 1-2.4-.4-.1.4.1 1-.2-.1-.1z" fill="#7a7b7b"/><path d="m51.5 19.6c-.4.9-1.5 1.4-2.4 1s-1.3-1.5-1-2.4c.4-.9 1.5-1.4 2.4-1s1.3 1.5 1 2.4z" fill="#221f1f"/><path d="m51.1 19.4c-.3.7-1.1 1-1.8.7s-1-1.1-.7-1.8 1.1-1 1.8-.7 1 1.1.7 1.8z" fill="#767878"/><path d="m6.4 43.7c0 1.2-1 2.2-2.2 2.2s-2.2-1-2.2-2.2 1-2.2 2.2-2.2c1.2.1 2.2 1 2.2 2.2z" fill="#aaa"/><path d="m54.9 51.5c0 .6-.5 1.1-1.1 1.1s-1.1-.5-1.1-1.1.5-1.1 1.1-1.1c.6-.1 1.1.4 1.1 1.1z" fill="#a4a4a4"/><path d="m54.8 51.5c0 .5-.4 1-1 1s-1-.4-1-1 .4-1 1-1c.5 0 1 .5 1 1z" fill="#353535"/><path d="m54.6 51.5c0 .5-.4.8-.8.8-.5 0-.8-.4-.8-.8 0-.5.4-.8.8-.8.5 0 .8.3.8.8z" fill="#aaa"/><path d="m58 51.5c0 .6-.5 1.1-1.1 1.1s-1.1-.5-1.1-1.1.5-1.1 1.1-1.1c.6-.1 1.1.4 1.1 1.1z" fill="#a4a4a4"/><path d="m58 51.5c0 .5-.4 1-1 1s-1-.4-1-1 .4-1 1-1 1 .5 1 1z" fill="#353535"/><path d="m57.8 51.5c0 .5-.4.8-.8.8-.5 0-.8-.4-.8-.8 0-.5.4-.8.8-.8.5 0 .8.3.8.8z" fill="#aaa"/><path d="m7 10.6c0 1.5-1.2 2.8-2.8 2.8s-2.8-1.2-2.8-2.8 1.2-2.8 2.8-2.8c1.5.1 2.8 1.3 2.8 2.8z" fill="#999"/><path d="m7.7 52.2c0 .1-.1.2-.2.2h-5.8c-.1 0-.2-.1-.2-.2v-4.4c0-.1.1-.2.2-.2h5.8c.1 0 .2.1.2.2z" fill="#e5e6e6"/><path d="m4.2 49.5 1 .5-1 .6z" fill="#59595c"/><g fill="#919395"><path d="m53.1 28.9h4.6v.1h-4.6z"/><path d="m53.1 29.9h4.6v.1h-4.6z"/><path d="m53.1 30.9h4.6v.1h-4.6z"/><path d="m53.1 31.8h4.6v.1h-4.6z"/><path d="m53.1 32.8h4.6v.1h-4.6z"/><path d="m53.1 33.7h4.6v.1h-4.6z"/><path d="m53.1 34.7h4.6v.1h-4.6z"/><path d="m53.1 35.6h4.6v.1h-4.6z"/><path d="m53.1 36.6h4.6v.1h-4.6z"/><path d="m53.1 39.4h4.6v.1h-4.6z"/><path d="m53.1 40.4h4.6v.1h-4.6z"/><path d="m53.1 41.4h4.6v.1h-4.6z"/><path d="m53.1 42.3h4.6v.1h-4.6z"/><path d="m53.1 43.3h4.6v.1h-4.6z"/><path d="m53.1 44.2h4.6v.1h-4.6z"/><path d="m53.1 45.2h4.6v.1h-4.6z"/><path d="m53.1 46.1h4.6v.1h-4.6z"/><path d="m53.1 47.1h4.6v.1h-4.6z"/></g><path d="m55.1 28.5h.6v19.6h-.6z"/><path d="m58.4 49.3h-6.1c-.2 0-.4-.2-.4-.4v-21.2c0-.2.2-.4.4-.4h6.1c.2 0 .4.2.4.4v21.2c0 .2-.2.4-.4.4zm-6.1-21.8c-.1 0-.1.1-.1.1v21.2c0 .1.1.1.1.1h6.1c.1 0 .1-.1.1-.1v-21.1c0-.1-.1-.1-.1-.1h-6.1z" fill="#a6a7aa"/><path d="m53.1 37h4.6v2h-4.6z" fill="#727373"/><path clip-path="url(#a)" d="m53.1 38.4h4.6z" fill="#e3e4e4"/><path clip-path="url(#b)" d="m53.1 38.4h4.6z" fill="#e2e3e3"/><path clip-path="url(#c)" d="m53.1 38.4h4.6z" fill="#e1e2e2"/><path clip-path="url(#d)" d="m53.1 38.4h4.6z" fill="#e0e1e1"/><path clip-path="url(#e)" d="m53.1 38.4h4.6z" fill="#dfe0e0"/><path clip-path="url(#f)" d="m53.1 38.4h4.6z" fill="#dedfdf"/><path clip-path="url(#g)" d="m53.1 38.4h4.6z" fill="#dddede"/><path clip-path="url(#h)" d="m53.1 38.4h4.6z" fill="#dcdddd"/><path clip-path="url(#i)" d="m53.1 38.4h4.6z" fill="#dbdcdc"/><path clip-path="url(#j)" d="m53.1 38.4h4.6z" fill="#dadbdb"/><path clip-path="url(#k)" d="m53.1 38.4h4.6z" fill="#d9dada"/><path clip-path="url(#l)" d="m53.1 38.4h4.6z" fill="#d8d9d9"/><path clip-path="url(#m)" d="m53.1 38.4h4.6z" fill="#d7d8d8"/><path clip-path="url(#n)" d="m53.1 38.4h4.6z" fill="#d6d7d7"/><path clip-path="url(#o)" d="m53.1 38.4h4.6z" fill="#d5d6d6"/><path clip-path="url(#p)" d="m53.1 38.4h4.6z" fill="#d4d5d5"/><path clip-path="url(#q)" d="m53.1 38.4h4.6z" fill="#d3d4d4"/><path clip-path="url(#r)" d="m53.1 38.4h4.6z" fill="#d2d3d3"/><path clip-path="url(#s)" d="m53.1 38.4h4.6z" fill="#d1d2d2"/><path clip-path="url(#t)" d="m53.1 38.4h4.6z" fill="#d0d1d1"/><path clip-path="url(#u)" d="m53.1 38.4h4.6z" fill="#cfd0d0"/><path clip-path="url(#v)" d="m53.1 38.4h4.6z" fill="#cecfcf"/><path clip-path="url(#w)" d="m53.1 38.4h4.6z" fill="#cdcece"/><path clip-path="url(#x)" d="m53.1 38.4h4.6z" fill="#cccdcd"/><path clip-path="url(#y)" d="m53.1 38.4h4.6z" fill="#cbcccc"/><path clip-path="url(#z)" d="m53.1 38.4h4.6z" fill="#cacbcb"/><path clip-path="url(#A)" d="m53.1 38.4h4.6z" fill="#c9caca"/><path clip-path="url(#B)" d="m53.1 38.4h4.6z" fill="#c8c9c9"/><path clip-path="url(#C)" d="m53.1 38.4h4.6z" fill="#c7c8c8"/><path clip-path="url(#D)" d="m53.1 38.4h4.6z" fill="#c6c7c7"/><path clip-path="url(#E)" d="m53.1 38.4h4.6z" fill="#c5c6c6"/><path clip-path="url(#F)" d="m53.1 38.4h4.6z" fill="#c4c5c5"/><path clip-path="url(#G)" d="m53.1 38.4h4.6z" fill="#c3c4c4"/><path clip-path="url(#H)" d="m53.1 38.4h4.6z" fill="#c2c3c4"/><path clip-path="url(#I)" d="m53.1 38.4h4.6z" fill="#c1c2c3"/><path clip-path="url(#J)" d="m53.1 38.3h4.6z" fill="#c0c1c2"/><path clip-path="url(#K)" d="m53.1 38.3h4.6z" fill="#bfc0c1"/><path clip-path="url(#L)" d="m53.1 38.3h4.6z" fill="#bebfc0"/><path clip-path="url(#M)" d="m53.1 38.3h4.6z" fill="#bdbebf"/><path clip-path="url(#N)" d="m53.1 38.3h4.6z" fill="#bcbdbe"/><path clip-path="url(#O)" d="m53.1 38.3h4.6z" fill="#bbbcbd"/><path clip-path="url(#P)" d="m53.1 38.3h4.6z" fill="#babbbc"/><path clip-path="url(#Q)" d="m53.1 38.3h4.6z" fill="#b9babb"/><path clip-path="url(#R)" d="m53.1 38.3h4.6z" fill="#b8b9ba"/><path clip-path="url(#S)" d="m53.1 38.3h4.6z" fill="#b7b8b9"/><path clip-path="url(#T)" d="m53.1 38.3h4.6z" fill="#b6b7b8"/><path clip-path="url(#U)" d="m53.1 38.3h4.6z" fill="#b5b6b7"/><path clip-path="url(#V)" d="m53.1 38.3h4.6z" fill="#b4b5b6"/><path clip-path="url(#W)" d="m53.1 38.3h4.6z" fill="#b3b4b5"/><path clip-path="url(#X)" d="m53.1 38.3h4.6z" fill="#b2b3b4"/><path clip-path="url(#Y)" d="m53.1 38.3h4.6z" fill="#b1b2b3"/><path clip-path="url(#Z)" d="m53.1 38.3h4.6z" fill="#b0b1b2"/><path clip-path="url(#aa)" d="m53.1 38.3h4.6z" fill="#afb0b1"/><path clip-path="url(#ab)" d="m53.1 38.3h4.6z" fill="#aeafb0"/><path clip-path="url(#ac)" d="m53.1 38.3h4.6z" fill="#adaeaf"/><path clip-path="url(#ad)" d="m53.1 38.3h4.6z" fill="#acadae"/><path clip-path="url(#ae)" d="m53.1 38.3h4.6z" fill="#abacad"/><path clip-path="url(#af)" d="m53.1 38.3h4.6z" fill="#aaabac"/><path clip-path="url(#ag)" d="m53.1 38.3h4.6z" fill="#a9aaab"/><path clip-path="url(#ah)" d="m53.1 38.3h4.6z" fill="#a8a9aa"/><path clip-path="url(#ai)" d="m53.1 38.3h4.6z" fill="#a7a8a9"/><path clip-path="url(#aj)" d="m53.1 38.3h4.6z" fill="#a6a7a8"/><path clip-path="url(#ak)" d="m53.1 38.3h4.6z" fill="#a5a6a7"/><path clip-path="url(#al)" d="m53.1 38.3h4.6z" fill="#a4a5a6"/><path clip-path="url(#am)" d="m53.1 38.3h4.6z" fill="#a3a4a5"/><path clip-path="url(#an)" d="m53.1 38.3h4.6z" fill="#a2a3a4"/><path clip-path="url(#ao)" d="m53.1 38.3h4.6z" fill="#a1a2a3"/><path clip-path="url(#ap)" d="m53.1 38.3h4.6z" fill="#a0a1a2"/><path clip-path="url(#aq)" d="m53.1 38.3h4.6z" fill="#9fa0a1"/><path clip-path="url(#ar)" d="m53.1 38.3h4.6z" fill="#9e9ea0"/><path clip-path="url(#as)" d="m53.1 38.3h4.6z" fill="#9d9d9f"/><path clip-path="url(#at)" d="m53.1 38.3h4.6z" fill="#9c9c9e"/><path clip-path="url(#au)" d="m53.1 38.3h4.6z" fill="#9b9b9d"/><path clip-path="url(#av)" d="m53.1 38.3h4.6z" fill="#9a9a9c"/><path clip-path="url(#aw)" d="m53.1 38.3h4.6z" fill="#99999b"/><path clip-path="url(#ax)" d="m53.1 38.3h4.6z" fill="#98989a"/><path clip-path="url(#ay)" d="m53.1 38.3h4.6z" fill="#979799"/><path clip-path="url(#az)" d="m53.1 38.3h4.6z" fill="#969698"/><path clip-path="url(#aA)" d="m53.1 38.3h4.6z" fill="#959597"/><path clip-path="url(#aB)" d="m53.1 38.3h4.6z" fill="#949496"/><path clip-path="url(#aC)" d="m53.1 38.3h4.6z" fill="#939395"/><path clip-path="url(#aD)" d="m53.1 38.3h4.6z" fill="#929294"/><path clip-path="url(#aE)" d="m53.1 38.3h4.6z" fill="#919193"/><path clip-path="url(#aF)" d="m53.1 38.3h4.6z" fill="#909092"/><path clip-path="url(#aG)" d="m53.1 38.3h4.6z" fill="#8f8f91"/><path clip-path="url(#aH)" d="m53.1 38.3h4.6z" fill="#8e8e90"/><path clip-path="url(#aI)" d="m53.1 38.3h4.6z" fill="#8d8d8f"/><path clip-path="url(#aJ)" d="m53.1 38.3h4.6z" fill="#8c8c8e"/><path clip-path="url(#aK)" d="m53.1 38.3h4.6z" fill="#8b8b8d"/><path clip-path="url(#aL)" d="m53.1 38.3h4.6z" fill="#8a8a8c"/><path clip-path="url(#aM)" d="m53.1 38.3h4.6z" fill="#89898b"/><path clip-path="url(#aN)" d="m53.1 38.3h4.6z" fill="#88888a"/><path clip-path="url(#aO)" d="m53.1 38.3h4.6z" fill="#878789"/><path clip-path="url(#aP)" d="m53.1 38.3h4.6z" fill="#868688"/><path clip-path="url(#aQ)" d="m53.1 38.3h4.6z" fill="#858587"/><path clip-path="url(#aR)" d="m53.1 38.3h4.6z" fill="#848486"/><path clip-path="url(#aS)" d="m53.1 38.3h4.6z" fill="#838385"/><path clip-path="url(#aT)" d="m53.1 38.3h4.6z" fill="#828284"/><path clip-path="url(#aU)" d="m53.1 38.3h4.6z" fill="#818183"/><path clip-path="url(#aV)" d="m53.1 38.3h4.6z" fill="#808082"/><path clip-path="url(#aW)" d="m53.1 38.3h4.6z" fill="#7f7f81"/><path clip-path="url(#aX)" d="m53.1 38.3h4.6z" fill="#7e7e80"/><path clip-path="url(#aY)" d="m53.1 38.3h4.6z" fill="#7d7d7f"/><path clip-path="url(#aZ)" d="m53.1 38.3h4.6z" fill="#7c7c7f"/><path clip-path="url(#a0)" d="m53.1 38.3h4.6z" fill="#7b7b7e"/><path clip-path="url(#a1)" d="m53.1 38.3h4.6z" fill="#7a7a7d"/><path clip-path="url(#a2)" d="m53.1 38.2h4.6z" fill="#79797c"/><path clip-path="url(#a3)" d="m53.1 38.2h4.6z" fill="#78787b"/><path clip-path="url(#a4)" d="m53.1 38.2h4.6z" fill="#77777a"/><path clip-path="url(#a5)" d="m53.1 38.2h4.6z" fill="#767679"/><path clip-path="url(#a6)" d="m53.1 38.2h4.6z" fill="#757578"/><path clip-path="url(#a7)" d="m53.1 38.2h4.6z" fill="#747477"/><path clip-path="url(#a8)" d="m53.1 38.2h4.6z" fill="#737376"/><path clip-path="url(#a9)" d="m53.1 38.2h4.6z" fill="#727275"/><path clip-path="url(#ba)" d="m53.1 38.2h4.6z" fill="#717174"/><path clip-path="url(#bb)" d="m53.1 38.2h4.6z" fill="#707073"/><path clip-path="url(#bc)" d="m53.1 38.2h4.6z" fill="#6f6f72"/><path clip-path="url(#bd)" d="m53.1 38.2h4.6z" fill="#6e6e71"/><path clip-path="url(#be)" d="m53.1 38.2h4.6z" fill="#6d6d70"/><path clip-path="url(#bf)" d="m53.1 38.2h4.6z" fill="#6c6c6f"/><path clip-path="url(#bg)" d="m53.1 38.2h4.6z" fill="#6b6b6e"/><path clip-path="url(#bh)" d="m53.1 38.2h4.6z" fill="#6a6a6d"/><path clip-path="url(#bi)" d="m53.1 38.2h4.6z" fill="#69696c"/><path clip-path="url(#bj)" d="m53.1 38.2h4.6z" fill="#68686b"/><path clip-path="url(#bk)" d="m53.1 38.2h4.6z" fill="#67676a"/><path clip-path="url(#bl)" d="m53.1 38.2h4.6z" fill="#666669"/><path clip-path="url(#bm)" d="m53.1 38.2h4.6z" fill="#656568"/><path clip-path="url(#bn)" d="m53.1 38.2h4.6z" fill="#646467"/><path clip-path="url(#bo)" d="m53.1 38.2h4.6z" fill="#636366"/><path clip-path="url(#bp)" d="m53.1 38.2h4.6z" fill="#626265"/><path clip-path="url(#bq)" d="m53.1 38.2h4.6z" fill="#616164"/><path clip-path="url(#br)" d="m53.1 38.2h4.6z" fill="#606063"/><path clip-path="url(#bs)" d="m53.1 38.2h4.6z" fill="#5f5f62"/><path clip-path="url(#bt)" d="m53.1 38.2h4.6z" fill="#5e5e61"/><path clip-path="url(#bu)" d="m53.1 38.2h4.6z" fill="#5d5d60"/><path clip-path="url(#bv)" d="m53.1 38.2h4.6z" fill="#5c5c5f"/><path clip-path="url(#bw)" d="m53.1 38.2h4.6z" fill="#5b5b5e"/><path clip-path="url(#bx)" d="m53.1 38.2h4.6z" fill="#5a5a5d"/><path clip-path="url(#by)" d="m53.1 38.2h4.6z" fill="#59595c"/><path clip-path="url(#bz)" d="m53.1 38.2h4.6z" fill="#59595c"/><path clip-path="url(#bA)" d="m53.1 38.2h4.6z" fill="#58585b"/><path clip-path="url(#bB)" d="m53.1 38.2h4.6z" fill="#57575a"/><path clip-path="url(#bC)" d="m53.1 38.2h4.6z" fill="#565659"/><path clip-path="url(#bD)" d="m53.1 38.2h4.6z" fill="#555558"/><path clip-path="url(#bE)" d="m53.1 38.2h4.6z" fill="#545457"/><path clip-path="url(#bF)" d="m53.1 38.2h4.6z" fill="#545356"/><path clip-path="url(#bG)" d="m53.1 38.2h4.6z" fill="#535255"/><path clip-path="url(#bH)" d="m53.1 38.1h4.6z" fill="#525154"/><path clip-path="url(#bI)" d="m53.1 38.1h4.6z" fill="#515053"/><path clip-path="url(#bJ)" d="m53.1 38.1h4.6z" fill="#504f52"/><path clip-path="url(#bK)" d="m53.1 38.1h4.6z" fill="#4f4e51"/><path clip-path="url(#bL)" d="m53.1 38.1h4.6z" fill="#4e4d50"/><path clip-path="url(#bM)" d="m53.1 38.1h4.6z" fill="#4d4c4f"/><path clip-path="url(#bN)" d="m53.1 38.1h4.6z" fill="#4c4b4e"/><path clip-path="url(#bO)" d="m53.1 38.1h4.6z" fill="#4b4b4d"/><path clip-path="url(#bP)" d="m53.1 38.1h4.6z" fill="#4a4a4c"/><path clip-path="url(#bQ)" d="m53.1 38.1h4.6z" fill="#49494b"/><path clip-path="url(#bR)" d="m53.1 38.1h4.6z" fill="#49484a"/><path clip-path="url(#bS)" d="m53.1 38.1h4.6z" fill="#484749"/><path clip-path="url(#bT)" d="m53.1 38.1h4.6z" fill="#474648"/><path clip-path="url(#bU)" d="m53.1 38h4.6z" fill="#464547"/><path clip-path="url(#bV)" d="m53.1 38h4.6z" fill="#454446"/><path clip-path="url(#bW)" d="m53.1 38h4.6z" fill="#444345"/><path clip-path="url(#bX)" d="m53.1 38h4.6z" fill="#434244"/><path clip-path="url(#bY)" d="m53.1 38h4.6z" fill="#424143"/><path clip-path="url(#bZ)" d="m53.1 38h4.6z" fill="#414042"/><path clip-path="url(#b0)" d="m53.1 38h4.6z" fill="#403f41"/><path clip-path="url(#b1)" d="m53.1 38h4.6z" fill="#3f3e40"/><path clip-path="url(#b2)" d="m53.1 38h4.6z" fill="#3e3d3f"/><path clip-path="url(#b3)" d="m53.1 38h4.6z" fill="#3e3c3e"/><path clip-path="url(#b4)" d="m53.1 38h4.6z" fill="#3d3b3c"/><path clip-path="url(#b5)" d="m53.1 38h4.6z" fill="#3c3a3b"/><path clip-path="url(#b6)" d="m53.1 38h4.6z" fill="#3b393a"/><path clip-path="url(#b7)" d="m53.1 38h4.6z" fill="#3a3839"/><path clip-path="url(#b8)" d="m53.1 38h4.6z" fill="#393738"/><path clip-path="url(#b9)" d="m53.1 37.9h4.6z" fill="#383637"/><path clip-path="url(#ca)" d="m53.1 37.9h4.6z" fill="#373536"/><path clip-path="url(#cb)" d="m53.1 37.9h4.6z" fill="#363435"/><path clip-path="url(#cc)" d="m53.1 37.9h4.6z" fill="#353334"/><path clip-path="url(#cd)" d="m53.1 37.9h4.6z" fill="#343233"/><path clip-path="url(#ce)" d="m53.1 37.9h4.6z" fill="#333132"/><path clip-path="url(#cf)" d="m53.1 37.9h4.6z" fill="#333031"/><path clip-path="url(#cg)" d="m53.1 37.9h4.6z" fill="#322f30"/><path clip-path="url(#ch)" d="m53.1 37.9h4.6z" fill="#312e2f"/><path clip-path="url(#ci)" d="m53.1 37.9h4.6z" fill="#302e2e"/><path clip-path="url(#cj)" d="m53.1 37.9h4.6z" fill="#2f2d2d"/><path clip-path="url(#ck)" d="m53.1 37.9h4.6z" fill="#2e2c2c"/><path clip-path="url(#cl)" d="m53.1 37.8h4.6z" fill="#2d2b2b"/><path clip-path="url(#cm)" d="m53.1 37.8h4.6z" fill="#2c2a2a"/><path clip-path="url(#cn)" d="m53.1 37.8h4.6z" fill="#2b2929"/><path clip-path="url(#co)" d="m53.1 37.8h4.6z" fill="#2a2828"/><path clip-path="url(#cp)" d="m53.1 37.8h4.6z" fill="#292727"/><path clip-path="url(#cq)" d="m53.1 37.8h4.6z" fill="#282626"/><path clip-path="url(#cr)" d="m53.1 37.8h4.6z" fill="#282525"/><path d="m53.1 37.7h4.6v.7h-4.6z" fill="#494949"/><path clip-path="url(#cs)" d="m53.1 37.8h4.6z" fill="#494949"/><path clip-path="url(#ct)" d="m53.1 37.8h4.6z" fill="#262323"/><path clip-path="url(#cu)" d="m53.1 37.8h4.6z" fill="#252222"/><path clip-path="url(#cv)" d="m53.1 37.8h4.6z" fill="#242121"/><path clip-path="url(#cw)" d="m53.1 37.8h4.6z" fill="#232020"/><path clip-path="url(#cx)" d="m53.1 37.8h4.6z" fill="#221f1f"/><path clip-path="url(#cy)" d="m53.1 37.7h4.6z" fill="#221f1f"/><path d="m53.1 38h4.6v.2h-4.6z" fill="#ee4036"/><path d="m8.8 51.5h4.6v.9h-4.6z" fill="#e5e6e6"/><path d="m14.5 51.5h4.6v.9h-4.6z" fill="#e5e6e6"/><path d="m50.5 17.1-1-.4-1.5 3.7-.4 1.3.1.1-1.1 2.5.2.1c-1.1 3.5-2.8 8.5-3.2 9.2-.6 1-3.4 4.6-3.4 4.7l.8.6c.1-.2 2.9-3.7 3.5-4.8.5-.9 2.6-7.2 3.2-9.3l.3.2 1.1-2.5h.1l.7-1.2 1.6-3.7z" fill="#7a7b7b"/><path d="m6.7 10.6c0 1.4-1.1 2.5-2.5 2.5s-2.5-1.1-2.5-2.5 1.1-2.5 2.5-2.5 2.5 1.2 2.5 2.5z" fill="#e5e6e6"/><path d="m4.7 10.6c0 .3-.2.5-.5.5s-.5-.2-.5-.5.2-.5.5-.5c.3.1.5.3.5.5z" fill="#221f1f"/></svg>