<svg enable-background="new 0 0 60 60" height="60" viewBox="0 0 60 60" width="60" xmlns="http://www.w3.org/2000/svg"><circle cx="52.5" cy="14.5" r=".9"/><circle cx="54.5" cy="12.5" r=".9"/><circle cx="49.5" cy="9.5" r=".9"/><circle cx="51.5" cy="7.5" r=".9"/><path d="m38.5 4.8c.2-.2.2-.5 0-.7l-.7-.7 2.7-2.7c.2-.2.2-.5 0-.7s-.5-.2-.7 0l-2.7 2.7-2 2-34.5 34.8-.3.3c-.2.2-.2.5 0 .7.5.4.8 1 1 1.5v.1l1-1 34.6-34.6zm-36.5 36-.7-.7 34.5-34.6.7.7c0-.1-34.5 34.6-34.5 34.6zm57.6-36.3-1.1-1.1c-.4-.4-1-.4-1.4.1l-.2.3c-.2.2-.4.2-.6.1-.7-.4-1.4 0-2 .7 0 0-1.4 1.7-1.2 2.3.1.3.1.8-.1 1.1l-19.2 18.7c-1.8-1.4-3.9-2.2-5.9-2.2-3.2 0-6.9 3.8-8.6 6.3-.2.2 0 .6.3.7.2 0 .4.2.5.3.9.9.2 3.1-1.6 5s-4.1 2.6-5 1.7c-.1-.1-.2-.3-.3-.5s-.3-.4-.5-.3c-1.4.2-2.8.7-3.9 1.4-1.7 1-3.1 2.4-4.1 4.1-1.1 1.9-1.7 4.1-1.5 6.5.2 2.2 1.1 4.2 2.5 6-.3.4-.3 1 0 1.3l.6.5c.4.4 1 .4 1.3 0 1.7 1.4 3.8 2.3 6 2.5 2.4.2 4.6-.4 6.5-1.5 1.7-1 3.1-2.4 4.1-4.2.7-1.2 1.1-2.5 1.4-3.9 0-.2-.1-.4-.3-.5s-.3-.2-.5-.3c-.9-.9-.2-3.1 1.7-5 1.9-1.8 4.1-2.6 5-1.7.1.1.2.3.3.5.1.3.4.4.7.3 2.5-1.7 6.2-5.5 6.2-8.7 0-2.1-.9-4.2-2.2-5.9l18.5-19.2c.2-.2.8-.1 1.1-.1.6.2 2.4-1.2 2.4-1.2.7-.6 1.1-1.3.7-2-.2-.2-.2-.4 0-.6l.2-.2c.5-.3.6-1 .2-1.3zm-42 37.2c-.5 0-.9-.4-.9-.9-1.4 0-2.8 1-4.2 1-.5 0-.9-.4-.9-.9s.4-.9.9-.9.9.4.9.9c1.4 0 2.8-.9 4.2-.9.5 0 .9.4.9.9s-.4.8-.9.8zm5.6 8.9c0 .5-.4.9-.9.9s-.9-.4-.9-.9c0-1.4.9-2.8.9-4.2-.5 0-.9-.4-.9-.9s.4-1 .9-1 1 .4 1 .9c0 1.4-.9 2.8-.9 4.2.5 0 .9.5.8 1z" fill="#ff5a00"/></svg>