<svg height="60" width="60" xmlns="http://www.w3.org/2000/svg"><circle cx="52.463" cy="14.457" r=".941"/><circle cx="54.459" cy="12.462" r=".94"/><circle cx="49.471" cy="9.469" r=".941"/><circle cx="51.466" cy="7.475" r=".94"/><path d="m38.5 4.8c.2-.2.2-.5 0-.67l-.65-.67 2.65-2.66c.2-.18.2-.48 0-.66-.18-.2-.47-.2-.66 0l-2.66 2.66-2 2-34.54 34.66-.33.33c-.17.2-.17.47 0 .66.45.43.78.97.97 1.55l.04.1 1-1 34.54-34.62zm-36.54 36-.66-.67 34.55-34.67.67.66zm57.6-36.3-1.12-1.13c-.38-.4-1.03-.36-1.38.06l-.24.3c-.15.16-.4.2-.6.1-.7-.38-1.4-.03-1.98.68 0 0-1.43 1.7-1.2 2.3.12.35.2.9-.06 1.16l-19.18 18.69c-1.77-1.37-3.87-2.23-5.94-2.23-3.22 0-6.9 3.8-8.6 6.26-.18.25-.04.6.26.7.2.05.37.16.5.3.93.92.2 3.15-1.65 5s-4.07 2.56-5 1.65c-.12-.13-.2-.3-.28-.47-.1-.22-.3-.37-.5-.34-1.43.22-2.76.7-3.94 1.38-1.72 1-3.14 2.42-4.13 4.13-1.1 1.9-1.66 4.14-1.48 6.53.16 2.16 1.1 4.25 2.5 5.98-.35.37-.35.96 0 1.32l.56.55c.38.36.96.37 1.33 0 1.74 1.4 3.82 2.35 6 2.5 2.37.2 4.62-.37 6.52-1.46 1.7-1 3.14-2.43 4.13-4.15.67-1.18 1.15-2.5 1.36-3.9.04-.24-.1-.44-.33-.52-.16-.06-.32-.16-.45-.3-.92-.9-.18-3.14 1.66-4.98 1.85-1.83 4.08-2.58 5-1.66.14.13.24.3.3.5.1.3.44.44.7.26 2.47-1.7 6.2-5.47 6.18-8.7-.03-2.07-.88-4.16-2.22-5.93l18.7-19.2c.24-.25.8-.15 1.14-.05.58.18 2.36-1.16 2.36-1.16.74-.6 1.07-1.34.67-2.04-.13-.2-.1-.46.1-.62l.23-.2c.44-.34.48-1 .08-1.4zm-41.96 37.15c-.5 0-.93-.4-.93-.94-1.4 0-2.82.95-4.24.95-.52 0-.94-.42-.94-.94s.4-.93.92-.93c.5 0 .94.43.94.94 1.4 0 2.8-.93 4.23-.93.5 0 .93.42.93.94s-.42.95-.94.95zm5.65 8.93c0 .5-.43.93-.94.93s-.92-.4-.92-.93c0-1.43.94-2.84.94-4.24-.52 0-.93-.43-.93-.94 0-.53.4-.95.93-.95s.95.42.95.94c0 1.4-.94 2.8-.94 4.23.52 0 .95.43.95.93z"/></svg>