<svg enable-background="new 0 0 60 60" height="60" viewBox="0 0 60 60" width="60" xmlns="http://www.w3.org/2000/svg"><path d="m56.8 24.8c-.1-.1-.3-.1-.5 0l-29.4 25.3c-.2.2-.2.4-.1.6.1.1.3.1.5 0l29.4-25.3c.1-.2.2-.4.1-.6z" fill="#c3996b"/><path d="m59.9 23.2c.2-.1.1-.5 0-.8.1-.2.1-.3.1-.4s-.2-.1-.3 0c-.2-.2-.5-.3-.7-.2-.1.1-.1.3 0 .6-.4.3-1 .7-1.5 1.2-1.2 1.1-2.1 2.2-2 2.4.2.2 1.3-.5 2.5-1.6.5-.5 1-.9 1.4-1.3.1.2.4.2.5.1z" fill="#404041"/><path d="m27.1 49.5c-1.6 2-3.6 3.7-5.7 4.9.2.3.4.5.5.8 1.7-1.9 3.7-3.5 5.9-4.6-.2-.3-.5-.7-.7-1.1z" fill="#603813"/><path d="m23.7 54.9c-4.2 4.3-9 5.6-17.4-2.6-.5-.5-.9-.9-1.3-1.3-4.3-4.6-5.4-8.1-4.8-11.1.4-1.9 1.5-3.5 3.1-5.1s5.5-1.7 7.1-3.2c1.3-1.2 1.6-1.9 2-2.8 1.2 1.3 1.2 1.5 2.9 1.3 1.4-.2 2.7-.9 3.7-1.8.5-.4 1.2-1.3 1.5-1.9.4-.9.5-2-.9-2.6-.6-.3 1.8.1 2.4-1.1s1.5-2.9 2-3.5c3.5-4.1 9.1-5.2 14.6.3 5.6 5.5 4.5 11 .5 14.6-.6.5-2.2 1.4-3.5 2-1.2.6-.9 3.1-1.2 2.5-.7-1.4-1.7-1.3-2.5-.9-.6.3-1.5 1-1.9 1.5-.9 1-1.6 2.4-1.8 3.8-.2 1.8-.2 1.6 1.1 2.8-.9.4-1.4.8-2.5 2.1-1.5 1.6-1.5 5.4-3.1 7z" fill="#c12127"/><path d="m26.4 47.5c1.2-1.3 1.7-1.5 2.6-1.9-1.3-1.1-1.3-1.2-1.1-2.9.2-1.4.9-2.7 1.8-3.7.4-.5 1.3-1.2 1.9-1.5.9-.4 2.1-.7 2.7.7.3.6-.2-1.6 1-2.3 1.2-.6 2.8-1.5 3.4-2 4-3.6 5.2-9-.3-14.4-5.4-5.4-10.8-4.2-14.4-.1-.5.6-1.4 2.2-2 3.5-.6 1.2-2.8.7-2.3 1 1.3.6 1.1 1.9.7 2.7-.3.6-.9 1.5-1.5 1.9-1 .9-2.4 1.6-3.7 1.8-1.7.3-1.8.2-3-1-.4.9-.6 1.4-1.9 2.6-1.6 1.5-5.4 1.6-7 3.2-1.5 1.5-2.5 3-3 4.7-.8 3 .3 6.4 4.7 11.2.3.4.7.7 1.1 1.1 8.2 8 12.7 6.9 17 2.6 1.8-1.7 1.9-5.5 3.3-7.2zm-19.8 4.2c-.4-.4-.7-.7-1-1-4.5-4.8-5.5-8.2-4.6-11.1.5-1.5 1.5-2.9 2.8-4.3.8-.8 2.2-1.2 3.5-1.6s2.7-.8 3.5-1.6c1.1-1 1.5-1.6 1.8-2.2l.1.1c.9.9 1.3.8 2.8.6 1.3-.2 2.7-.9 3.9-1.9.5-.4 1.2-1.3 1.6-2 .6-1.4.3-2.2-.1-2.7.6-.1 1.3-.3 1.7-1l.1-.2c.6-1.1 1.4-2.6 1.8-3.2 1.8-2.1 4.1-3.3 6.4-3.4 2.5-.1 5 1.1 7.4 3.5l.1.1c2.3 2.3 3.5 4.8 3.4 7.2 0 2.3-1.2 4.6-3.3 6.4-.5.5-2 1.3-3.1 1.9l-.2.1c-.7.4-.9 1.1-1 1.7-.5-.4-1.3-.7-2.7-.1-.7.3-1.6 1.1-2 1.6-1 1.2-1.7 2.6-1.9 3.9-.2 1.4-.3 1.9.6 2.7.1.1.1.1.2.2-.7.3-1.2.7-2.2 1.8-.8.9-1.2 2.2-1.5 3.5-.4 1.3-.8 2.7-1.6 3.5-4.2 4.2-8.5 5.4-16.5-2.5z" fill="#e6e7e8"/><path d="m7.6 52.2 1.4-1.4.1.1c.5.5 1.1.8 1.3.6s0-.6-.4-1.1c.2-.2 2.9-3.1 4.2-3.7.7-.4 3.5-.9 3.5-.9s-1.7-2-2.3-2.6c-.7-.7-2.8-2.5-2.8-2.5s-.4 2.9-.8 3.7c-.6 1.4-3.5 4.4-3.5 4.4-.4-.3-.8-.5-1-.3s.1.8.6 1.3h.1l-1.4 1.4c-.6-.5-1.3-.8-1.5-.5-.3.3.2 1.3 1 2.1s1.8 1.3 2 1 0-.9-.5-1.6z" fill="#404041"/><path d="m25.4 39.8c.2.2.3.6.2.9.4.5 1 1.7-1.2 4.4-.9 1.1-1.3 2.3-1.6 3.3.2.1.3.1.5.3.6.5.6 1.6 0 2.3-.5.6-1.7 1.1-2.5.2-.9-1-.1-2.4.4-3.2.8-1.6 2-2.9 3.1-4.3.4-.5.8-1.1 1-1.8.1-.3 0-.8.2-1 0 .1-.1.1-.1.2-.3.4-.9.5-1.2.2s-.3-.8 0-1.3c.3-.4.9-.5 1.2-.2z"/><path d="m18.3 32.7c-.2-.2-.6-.3-.9-.2-.5-.4-1.7-1-4.4 1.2-1.1.9-2.3 1.3-3.3 1.6-.1-.2-.1-.3-.3-.5-.5-.6-1.6-.6-2.3 0-.6.5-1.1 1.7-.2 2.5 1 .9 2.4.1 3.2-.4 1.6-.8 2.9-2 4.3-3.1.5-.4 1.1-.8 1.8-1 .3-.1.8 0 1-.2-.1 0-.1.1-.2.1-.4.3-.5.9-.2 1.2s.8.3 1.3 0c.4-.3.5-.9.2-1.2z"/><path d="m40.4 29.8c1.1-2.8 0-5.7 0-5.7s0 2.5-1.1 5.2c-1.1 2.8-2.8 4.8-2.8 4.8s2.8-1.5 3.9-4.3z" fill="#fff" opacity=".25"/><path d="m22.7 40.3-4.7-4.6c-.2-.2-.5-.1-.7.1s-.3.5-.1.7l4.7 4.7c.2.2.5.1.7-.1.2-.3.3-.6.1-.8z" fill="#e6e7e8"/><path d="m16.5 44.1-2.3-2.3c-.5-.5-1.1-.6-1.4-.3s-.2 1 .3 1.4l2.3 2.3c.5.5 1.1.6 1.4.3s.2-.9-.3-1.4z" fill="#6d6e70"/><path d="m24.8 36.2 22.6-24.3.1.1 2.3-2.3-.2-.2.1-.1-1.4-1.4v.1l-.2-.2-2.3 2.4.1.1-23.8 23.1z" fill="#404041"/><path d="m14.5 41.5h.4v4.4h-.4z" fill="#603813" transform="matrix(.7071 -.7071 .7071 .7071 -26.6029 23.2087)"/><path d="m5.6 50.7c-.1 0-.2.1-.3.1h-.1c-.1 0-.2.1-.3.1-4.3-4.6-5.4-8.1-4.8-11.1.1 0 .1 0 .2-.1.1 0 .1 0 .2-.1.1 0 .3-.1.4-.1 2-.3 4.5 1.4 5.7 4.2 1.4 3 .9 6-1 7z" fill="#421217"/><path d="m52.3 7.5c.6-.6.7-1.6.2-2.1s-1.5-.5-2.1.2l-1.2 1.2-1.2 1.1c-.6.6-.7 1.6-.2 2.1s1.5.5 2.1-.2l1.2-1.1z" fill="#754c28"/><path d="m51.3 5.3-1.5-1.5c.4-.4.5-.8.3-1-.3-.3-1.2-.4-1.7.2-.6.6-.4 1.4-.1 1.7.2.2.6.1 1-.3l1.5 1.5s.2 0 .3-.2c.2-.2.3-.4.2-.4z"/><path d="m48.6 7.7-1.5-1.5c.4-.4.5-.8.3-1-.3-.3-1.2-.4-1.7.2-.6.6-.4 1.4-.1 1.7.2.2.6.1 1-.3l1.5 1.5s.2 0 .3-.2c.2-.1.3-.3.2-.4z"/><path d="m51.9 6.8 1.5 1.5c.4-.4.8-.5 1-.3.3.3.4 1.2-.2 1.7-.6.6-1.4.4-1.7.1-.2-.2-.1-.6.3-1.1l-1.5-1.5s0-.2.2-.3.3-.1.4-.1z"/><path d="m50 8.8 1.5 1.5c.4-.4.8-.5 1-.3.3.3.4 1.2-.2 1.7-.6.6-1.4.4-1.7.1-.2-.2-.1-.6.3-1l-1.5-1.5s0-.2.2-.3c.2-.2.4-.2.4-.2z"/><path d="m55.6 4.7c.8-.8.8-1.9.2-2.6-.7-.7-1.8-.6-2.6.2-.6.6-.8 1.4-.5 2.1l-1.1 1.1.8.8 1.1-1.1c.6.3 1.5.1 2.1-.5z" fill="#3b2314"/><path d="m55.3 2.6c-.9-.9-2-1.1-2.5-.6s-.2 1.6.6 2.5c.9.9 2 1.1 2.5.6s.2-1.7-.6-2.5z" fill="#c12127"/><path d="m54.3 3.5c-.7-.7-1.1-1.6-1.4-1.3s0 1.2.7 1.9 1.6 1.1 1.9.7c.5-.2-.4-.5-1.2-1.3z" fill="#e6e7e8"/><path d="m53 6.6c-.1-.1-.2-.1-.3 0l-3.5 3.5c-.1.1-.1.2 0 .3s.2.1.3 0l3.5-3.5c.1-.1.1-.2 0-.3z" fill="#a87c4f"/><path d="m51.2 4.8c-.1-.1-.2-.1-.3 0l-3.5 3.5c-.1.1-.1.2 0 .3s.2.1.3 0l3.5-3.5c.1-.1.1-.2 0-.3z" fill="#a87c4f"/><g fill="#d0d2d3"><path d="m49.4 9.1-32.2 34.6c-.9 1-1.6 1.8-1.6 1.8s.8-.7 1.7-1.7l32.2-34.5c.9-1 1.6-1.8 1.6-1.8 0-.1-.8.7-1.7 1.6z"/><path d="m48.5 8.6-33.9 32.6c-.9.9-1.7 1.6-1.8 1.6 0 0 .7-.8 1.6-1.7l33.9-32.6c.9-.9 1.7-1.6 1.8-1.6.1.1-.7.8-1.6 1.7z"/><path d="m51.1 7-34.6 35.8c-1 1-1.7 1.8-1.7 1.9 0 0 .9-.7 1.8-1.7l34.6-35.9c1-1 1.7-1.8 1.7-1.9-.1 0-.9.8-1.8 1.8z"/><path d="m13.8 43.7s.9-.7 1.9-1.7l35.2-35.1c1-1 1.8-1.8 1.7-1.8 0 0-.9.7-1.9 1.7l-35.2 35.1z"/></g></svg>