<?xml version="1.0" encoding="utf-8"?>
<!-- Generator: Adobe Illustrator 22.1.0, SVG Export Plug-In . SVG Version: 6.00 Build 0)  -->
<svg version="1.1" id="Layer_1" xmlns="http://www.w3.org/2000/svg" xmlns:xlink="http://www.w3.org/1999/xlink" x="0px" y="0px"
	 width="60px" height="60px" viewBox="0 0 60 60" style="enable-background:new 0 0 60 60;" xml:space="preserve">
<style type="text/css">
	.st0{fill:#063e89;}
	.st1{fill:#444444;}
	.st2{fill:#FFFFFF;}
	.st3{fill:#FFFFFF;stroke:#1D1D1B;stroke-width:0.146;stroke-linecap:round;stroke-linejoin:round;stroke-miterlimit:10;}
	.st4{fill:#1D1D1B;}
	.st5{fill:none;stroke:#FFFFFF;stroke-width:0.146;stroke-linecap:round;stroke-linejoin:round;stroke-miterlimit:10;}
</style>
<path class="st0" d="M51,4.3l-0.5-0.5l-1.6,1.6l0.5,0.5c0.2,0.2,0.6,0.2,0.8,0l0.8-0.8C51.2,4.9,51.2,4.6,51,4.3L51,4.3z M50.2,4.8
	L51.3,6L51,6.3l-1.2-1.1L50.2,4.8z M52.6,2.4l-0.5-0.5l-1.6,1.6L51,4c0.2,0.2,0.6,0.2,0.8,0l0.8-0.8C52.8,3,52.8,2.6,52.6,2.4z
	 M51.8,2.9L52.9,4l-0.3,0.3l-1.2-1.1L51.8,2.9z M54.2,0.5L53.8,0l-1.6,1.6l0.5,0.5c0.2,0.2,0.6,0.2,0.8,0l0.8-0.8
	C54.5,1.1,54.5,0.7,54.2,0.5L54.2,0.5z M53.4,1l1.2,1.2l-0.3,0.3l-1.2-1.1L53.4,1z M55.7,9l0.5,0.5l-1.6,1.6l-0.5-0.5
	c-0.2-0.2-0.2-0.6,0-0.9L54.8,9C55.1,8.8,55.4,8.8,55.7,9L55.7,9z"/>
<path class="st1" d="M54.9,10.1L53.7,9L54,8.7l1.1,1.1L54.9,10.1z"/>
<path class="st0" d="M57.6,7.4l0.5,0.5l-1.6,1.6L56,9c-0.2-0.2-0.2-0.6,0-0.8l0.8-0.8C57,7.1,57.4,7.1,57.6,7.4L57.6,7.4z M56.8,8.5
	l-1.2-1.2L55.9,7l1.2,1.2L56.8,8.5z M59.5,5.8L60,6.2l-1.6,1.6l-0.5-0.5c-0.2-0.2-0.2-0.6,0-0.8l0.8-0.8C58.9,5.5,59.3,5.5,59.5,5.8
	L59.5,5.8z M58.7,6.8l-1.1-1.1l0.3-0.3L59,6.5L58.7,6.8z M30.6,27.1c-3.6-3.5-7.6-4.4-10.2-1.8c-2,2-1.7,4.8-3.3,6.3
	c-1.5,1.5-8.8-0.5-13.5,4.2C-1,40.5-2.1,48,5.5,55.7c6.9,6.9,15.1,4.3,18.5,0.9c4.6-4.6,2.7-12,4.2-13.5c1.1-1.1,4.9-1.6,6.8-3.5
	c1.1-1.1,0.7-2.2,0.1-2.9c-0.7-0.7-2.9-0.6-3.8-1.5c-0.7-0.7-1.2-2.2-0.2-3.3c1.1-1.1,1.9-2,1.9-2L30.6,27.1L30.6,27.1z"/>
<path class="st2" d="M21.6,39.9c-1,1-3,2.6-0.5,5.1c1.9,1.9,3.3,1,4.4-0.1c2.2-2.2,2.8-5,1.9-5.8c-0.4,0-0.6,0.1-0.6,0.1l-1.9,1
	l-1.7,0l-1-0.4C22.3,39.7,21.6,39.9,21.6,39.9z"/>
<circle class="st3" cx="24" cy="36" r="5.1"/>
<circle class="st3" cx="24" cy="36" r="4.6"/>
<path class="st2" d="M20.7,47.1l-7.8-7.8c-0.1-0.1-0.3-0.1-0.4,0l-1,1c-0.1,0.1-0.1,0.3,0,0.4l1.2,1.2c-0.2,0.3,0.7,1.7,2.2,3.1
	c1.5,1.5,2.9,2.5,3.1,2.2l1.2,1.2c0.1,0.1,0.3,0.1,0.4,0l1-1C20.8,47.4,20.8,47.2,20.7,47.1L20.7,47.1z"/>
<circle class="st4" cx="14.3" cy="42.6" r="0.3"/>
<circle class="st4" cx="15" cy="43.2" r="0.3"/>
<circle class="st4" cx="15.6" cy="43.8" r="0.3"/>
<circle class="st4" cx="16.2" cy="44.4" r="0.3"/>
<circle class="st4" cx="16.8" cy="45.1" r="0.3"/>
<circle class="st4" cx="17.4" cy="45.7" r="0.3"/>
<path class="st0" d="M18.5,45.6c0,0-0.1,0-0.2,0l-4.1-3.9c-0.1-0.1-0.1-0.1,0-0.2c0,0,0.1,0,0.2,0l4.1,3.9
	C18.5,45.4,18.5,45.5,18.5,45.6L18.5,45.6z M51.3,11.1L49,8.7L25.1,31.8l3.2,3.2L51.3,11.1z M52.8,10.3l6.6-5.5l-4.2-4.3l-5.5,6.6
	c0.1,0.3-0.2,1-0.7,1.5l2.3,2.4C51.9,10.5,52.5,10.2,52.8,10.3L52.8,10.3z"/>
<path class="st2" d="M50.9,11.5l0.5-0.5L49,8.7l-0.5,0.5L50.9,11.5z"/>
<circle class="st3" cx="51.5" cy="6.4" r="0.7"/>
<circle class="st3" cx="53.1" cy="4.5" r="0.6"/>
<circle class="st3" cx="54.7" cy="2.6" r="0.6"/>
<circle class="st3" cx="53.6" cy="8.6" r="0.6"/>
<circle class="st3" cx="55.5" cy="6.9" r="0.7"/>
<circle class="st3" cx="57.5" cy="5.3" r="0.6"/>
<circle class="st0" cx="24" cy="36" r="3.9"/>
<path class="st5" d="M48.9,9.1L14.3,42.6 M49.3,9.5L15,43.2 M15.6,43.8L49.7,9.9 M16.2,44.5l33.9-34.2 M50.5,10.7L16.8,45.1
	 M17.4,45.7l33.5-34.6"/>
<circle class="st3" cx="51.6" cy="6.3" r="0.4"/>
<circle class="st3" cx="53.2" cy="4.4" r="0.4"/>
<circle class="st3" cx="54.8" cy="2.5" r="0.4"/>
<circle class="st3" cx="53.7" cy="8.5" r="0.4"/>
<circle class="st3" cx="57.6" cy="5.2" r="0.4"/>
<circle class="st3" cx="55.6" cy="6.8" r="0.4"/>
</svg>
