<svg height="60" width="60" xmlns="http://www.w3.org/2000/svg"><path d="m50.96 4.3-.48-.47-1.6 1.62.46.47c.24.24.62.24.85 0l.75-.77c.23-.23.23-.6 0-.84zm-.8.5 1.15 1.16-.3.3-1.15-1.14zm2.44-2.42-.48-.48-1.62 1.62.48.48c.23.23.6.23.85 0l.77-.77c.23-.24.23-.6 0-.85zm-.8.5 1.14 1.15-.3.3-1.16-1.14zm2.43-2.42-.48-.48-1.6 1.62.47.47c.23.24.6.24.84 0l.77-.76c.24-.22.24-.6 0-.83zm-.8.5 1.15 1.15-.3.33-1.16-1.15zm2.25 8.06.47.48-1.6 1.62-.5-.48c-.23-.23-.23-.6 0-.85l.78-.8c.23-.22.6-.22.85 0z" fill="#1d1d1b"/><path d="m54.86 10.14-1.16-1.14.33-.32 1.14 1.15z" fill="none"/><path d="m57.6 7.4.48.47-1.62 1.6-.48-.47c-.23-.23-.23-.6 0-.84l.77-.77c.24-.26.62-.26.85 0zm-.8 1.1-1.16-1.15.3-.3 1.16 1.15zm2.72-2.75.48.48-1.62 1.6-.47-.46c-.22-.24-.22-.62 0-.85l.8-.77c.22-.23.6-.23.83 0zm-.82 1.1-1.14-1.13.3-.3 1.16 1.13zm-28.13 20.3c-3.57-3.55-7.57-4.4-10.15-1.83-2 2-1.74 4.8-3.27 6.3-1.52 1.54-8.77-.54-13.46 4.15-4.7 4.7-5.77 12.27 1.83 19.88 6.95 6.94 15.06 4.35 18.53.87 4.64-4.63 2.7-11.98 4.24-13.5 1.07-1.08 4.9-1.56 6.84-3.5 1.07-1.07.73-2.25.08-2.9-.7-.7-2.87-.64-3.75-1.52-.67-.68-1.25-2.24-.17-3.32s1.9-1.98 1.9-1.98l-2.63-2.65z" fill="#1d1d1b"/><path d="m21.64 39.9c-1.03 1.02-3.04 2.58-.47 5.14 1.92 1.93 3.3.98 4.4-.12 2.24-2.24 2.76-4.95 1.85-5.85-.4 0-.6.1-.6.1l-1.9.98-1.67-.05-.97-.37z" fill="#fff"/><circle cx="24.031" cy="35.998" r="5.074" style="fill:#fff;stroke:#1d1d1b;stroke-width:.146;stroke-miterlimit:10;stroke-linecap:round;stroke-linejoin:round"/><circle cx="24.031" cy="35.997" r="4.574" style="fill:#fff;stroke:#1d1d1b;stroke-width:.146;stroke-miterlimit:10;stroke-linecap:round;stroke-linejoin:round"/><path d="m20.7 47.1-7.78-7.76c-.12-.12-.3-.12-.43 0l-1.04 1.02c-.12.12-.12.3 0 .43l1.25 1.23c-.24.26.74 1.65 2.2 3.1 1.47 1.48 2.86 2.46 3.1 2.2l1.23 1.22c.12.12.3.12.43 0l1.02-1.02c.1-.12.1-.3 0-.43z" fill="#fff"/><g fill="#1d1d1b"><circle cx="14.341" cy="42.585" r=".287"/><circle cx="14.962" cy="43.205" r=".287"/><circle cx="15.582" cy="43.825" r=".287"/><circle cx="16.203" cy="44.446" r=".288"/><circle cx="16.823" cy="45.066" r=".287"/><circle cx="17.443" cy="45.687" r=".287"/><path d="m18.45 45.56c-.05.04-.12.04-.16 0l-4.1-3.87c-.07-.07-.07-.14-.03-.18.04-.05.12-.05.16 0l4.1 3.87c.05.03.05.1 0 .15zm32.85-34.5-2.3-2.36-23.92 23.1 3.17 3.17zm1.55-.72 6.6-5.5-4.25-4.26-5.52 6.6c.12.34-.16.97-.7 1.5l2.33 2.35c.6-.57 1.23-.85 1.56-.7z"/></g><g fill="#fff"><path d="m50.86 11.52.45-.47-2.31-2.35-.47.47z"/><g stroke="#1d1d1b" stroke-linecap="round" stroke-linejoin="round" stroke-miterlimit="10" stroke-width=".146"><circle cx="51.462" cy="6.427" r=".65"/><circle cx="53.086" cy="4.491" r=".649"/><circle cx="54.707" cy="2.551" r=".649"/><circle cx="53.602" cy="8.565" r=".649"/><circle cx="55.537" cy="6.94" r=".65"/><circle cx="57.477" cy="5.321" r=".649"/></g></g><circle cx="24.03" cy="35.998" fill="#1d1d1b" r="3.874"/><g stroke-linecap="round" stroke-linejoin="round" stroke-miterlimit="10" stroke-width=".146"><path d="m48.92 9.12-34.58 33.48m34.98-33.08-34.36 33.68m.62.63 34.14-33.9m-33.52 34.52 33.9-34.15m.4.4-33.67 34.38m.6.62 33.47-34.6" fill="none" stroke="#fff"/><circle cx="51.56" cy="6.329" fill="#fff" r=".378" stroke="#1d1d1b"/><circle cx="53.185" cy="4.394" fill="#fff" r=".379" stroke="#1d1d1b"/><circle cx="54.804" cy="2.454" fill="#fff" r=".378" stroke="#1d1d1b"/><circle cx="53.699" cy="8.468" fill="#fff" r=".379" stroke="#1d1d1b"/><circle cx="57.575" cy="5.224" fill="#fff" r=".378" stroke="#1d1d1b"/><circle cx="55.634" cy="6.843" fill="#fff" r=".379" stroke="#1d1d1b"/></g></svg>