<svg height="60" width="60" xmlns="http://www.w3.org/2000/svg"><path clip-rule="evenodd" d="m3.14 28.22c-1.66.2-2.74 1.15-3.06 2.7-.06.27-.07.55-.07.83v8.3c0 1.76 1.07 3.15 2.6 3.44.26.02.4.1.46.4 1 5.32 3.9 8.92 8.16 11.23 1.17.63 2.44.97 3.65 1.46.17.06.33.25.45.42.3.44.54.96.9 1.34.24.24.64.38.97.4 2.27.02 4.55 0 6.83 0 .6 0 1.06-.34 1.42-.84 1.04-1.47 1.06-4.04.04-5.54-.4-.6-.94-.93-1.63-.92-2.08 0-4.16.04-6.24 0-1.1-.04-1.8.55-2.23 1.6-.1.23-.16.45-.24.67-5.02-1.21-8.95-5.71-9.55-10.18h1.26c0-5.1 0-10.17 0-15.3-.38 0-.74 0-1.2 0 .15-1.1.23-2.14.45-3.15 2.3-10.9 8.35-17.62 17.98-20.2 5.4-1.46 10.24-1.23 15.5.9 8.31 3.42 13.39 10.12 15.21 19.92.15.82.25 1.65.4 2.54-.7 0-1.36 0-2.03 0v15.22c.02.02.04.06.06.06 1.4 0 2.8.08 4.2-.06 1.43-.15 2.5-1.5 2.53-3.14.06-2.94.05-5.88 0-8.82 0-1.45-.75-2.4-1.9-2.98-.27-.13-.4-.26-.43-.62-.52-4.9-1.82-9.5-4.26-13.67-2.67-4.53-6.27-7.86-10.65-10.08-4.74-2.4-9.18-3.28-14.34-2.8-6.1.58-11.63 2.88-16.38 7.3-4.8 4.44-7.63 10.17-8.57 17.08-.1.82-.2 1.64-.3 2.5z" fill-rule="evenodd"/></svg>