<svg enable-background="new 0 0 60 60" height="60" viewBox="0 0 60 60" width="60" xmlns="http://www.w3.org/2000/svg"><path d="m3.1 28.2c-1.7.2-2.7 1.1-3.1 2.7v.9 8.3c0 1.8 1.1 3.2 2.6 3.4.3 0 .4.1.5.4 1 5.3 3.9 8.9 8.2 11.2 1.2.6 2.4 1 3.6 1.5.2.1.3.2.4.4.3.4.5 1 .9 1.3.2.2.6.4 1 .4h6.8c.6 0 1.1-.3 1.4-.8 1-1.5 1.1-4 0-5.5-.4-.6-.9-.9-1.6-.9-2.1 0-4.2 0-6.2 0-1.1 0-1.8.5-2.2 1.6-.1.2-.2.5-.2.7-5-1.2-9-5.7-9.6-10.2h1.3c0-5.1 0-10.2 0-15.3-.4 0-.7 0-1.2 0 .2-1.1.2-2.1.4-3.1 2.3-10.9 8.4-17.6 18-20.2 5.4-1.5 10.2-1.2 15.5.9 8.3 3.3 13.4 10 15.2 19.8.2.8.2 1.6.4 2.5-.7 0-1.4 0-2 0v15.2s0 .1.1.1c1.4 0 2.8.1 4.2-.1s2.5-1.5 2.5-3.1c.1-2.9 0-5.9 0-8.8 0-1.5-.8-2.4-1.9-3-.3-.1-.4-.3-.4-.6-.5-4.9-1.8-9.5-4.3-13.7-2.7-4.5-6.3-7.9-10.7-10.1-4.7-2.3-9.2-3.2-14.3-2.7-6.1.5-11.6 2.8-16.4 7.3-4.8 4.4-7.6 10.2-8.6 17.1-.1.7-.2 1.6-.3 2.4z" fill="#af8424"/></svg>