<svg enable-background="new 0 0 60 60" height="60" viewBox="0 0 60 60" width="60" xmlns="http://www.w3.org/2000/svg"><path d="m17.4 45.7c1.3 0 2.4-.9 2.8-2.2h25.1c.4 0 .7-.3.7-.7s-.3-.7-.7-.7h-25.1c-.3-1.2-1.4-2.1-2.8-2.1-1.6 0-2.8 1.3-2.8 2.9s1.2 2.8 2.8 2.8zm26.2 2.3c-1.3 0-2.4.9-2.8 2.1h-25.1c-.4 0-.7.3-.7.7s.3.7.7.7h25.1c.3 1.2 1.4 2.2 2.8 2.2 1.6 0 2.9-1.3 2.9-2.8s-1.3-2.9-2.9-2.9zm16.4-32.2v-1.9c0-.2-.2-.4-.4-.5v-1.3c0-.5-.4-.9-.9-.9h-4.7c-.5 0-.9.4-.9.9v.7l-1.1-.1v-1.3c0-.5-.4-.9-.9-.9h-4.7c-.5 0-.9.4-.9 1v.7l-.9-.1v-1.3c0-.5-.4-.9-.9-.9h-4.7c-.5 0-.9.4-.9.9v.7l-1.1-.1v-1.3c0-.5-.4-.9-.9-.9h-4.7c-.5 0-.9.4-.9.9v.7l-.9-.1v-1.3c0-.5-.4-.9-.9-.9h-4.6c-.5 0-.9.4-.9.9v.7l-1.2-.1v-1.3c0-.5-.4-.9-.9-.9h-4.7c-.5 0-.9.4-.9.9v.7l-.9-.1v-1.3c0-.5-.4-.9-.9-.9h-4.8c-.5-.1-.9.4-.9.9v.7l-1-.1v-1.3c0-.5-.4-.9-.9-.9h-4.7c-.5 0-.9.4-.9.9v.7c-.3 0-.5.2-.5.4v1.9c0 .2.2.4.4.5h.1v19.6c-.2 0-.4.2-.4.5v1.9c0 .2.2.5.5.5v.7c0 .5.4.9.9.9h4.7c.5 0 .9-.4.9-1v-1.4h.9v.8c0 .5.4.9.9.9h4.7c.5 0 .9-.4.9-1v-1.3l.9-.1v.8c0 .5.4.9.9.9h4.7c.5 0 .9-.4.9-.9v-1.3l.9-.1v.7c0 .5.4.9.9.9h4.7c.5 0 .9-.4.9-.9v-1.3l.9-.1v.7c0 .5.4.9 1 .9h4.7c.5 0 .9-.4.9-.9v-1.3l.9-.1v.7c0 .5.4.9.9.9h4.7c.5 0 .9-.4.9-.9v-1.4l.9-.1v.7c0 .5.4.9.9.9h4.7c.5 0 .9-.4.9-.9v-1.4l.9-.1v.8c0 .5.4.9.9.9h4.7c.5 0 .9-.4.9-.9v-1.4c.2 0 .4-.2.4-.5v-1.9c0-.3-.2-.5-.5-.5v-8.6c.9.2 1.2 0 1.1-.3zm-3.8-.4c-.5 0-.9-.4-.9-.9s.4-.9 1-.9.9.4.9.9-.4.9-1 .9zm-7.4-.7c-.5 0-.9-.4-.9-.9s.4-.9 1-.9.9.4.9.9-.5.9-1 .9zm-7.6-.7c-.5 0-.9-.4-.9-.9s.4-1 1-1 .9.4.9.9-.4 1-1 1zm-7.4-.7c-.5 0-.9-.4-.9-.9s.4-1 1-1 .9.4.9.9c-.1.6-.5 1-1 1zm-7.6-.7c-.5 0-.9-.4-.9-.9s.4-1 1-1 .9.4.9.9c0 .6-.4 1-1 1zm-7.4-.7c-.5 0-.9-.4-.9-.9s.4-.9 1-.9.9.4.9.9-.5.9-1 .9zm-7.6-.7c-.5 0-.9-.4-.9-.9s.4-.9 1-.9.9.4.9.9-.4.9-1 .9zm-6.5-1.6c0 .5-.4.9-1 .9s-.9-.4-.9-.9.4-.9 1-.9.9.4.9.9zm0 22c0 .5-.4 1-1 1s-.9-.4-.9-.9.4-.9 1-.9.9.3.9.8zm2.3-1.8v-18.4l1 .1v18.2s-1 .1-1 .1zm5.2 1.1c0 .5-.4 1-1 1s-.9-.4-.9-.9.4-.9.9-.9 1 .3 1 .8zm2.3-1.8v-17l.9.1v16.8zm5.2 1.1c0 .5-.4 1-1 1s-.9-.4-.9-.9.4-.9.9-.9 1 .3 1 .8zm2.3-1.8v-15.6l1 .1v15.4zm5.2 1.1c0 .5-.4 1-1 1s-.9-.4-.9-.9.4-.9 1-.9.9.3.9.8zm2.3-1.8v-14.2l.9.1v14s-.9.1-.9.1zm5.2 1.1c0 .5-.4.9-1 .9s-.9-.4-.9-.9.4-.9 1-.9.9.4.9.9zm2.3-1.8v-12.8l.9.1v12.6zm5.2 1.1c0 .5-.4.9-1 .9s-.9-.4-.9-.9.4-1 1-1 .9.5.9 1zm2.3-1.8v-11.4l.9.1v11.2zm5.1 1.1c0 .5-.4.9-1 .9s-1-.4-1-.9.4-1 1-1 1 .4 1 1zm2.4-1.9v-10l.9.1v9.8zm5.1 1.2c0 .5-.4.9-1 .9s-.9-.4-.9-.9.4-1 1-1 .9.4.9 1z" fill="#781d77"/></svg>