<svg height="60" width="60" xmlns="http://www.w3.org/2000/svg"><path d="m657.38 201.5c2.84 0 5.22-1.93 5.9-4.56h53.53c.86 0 1.54-.68 1.54-1.53s-.68-1.5-1.52-1.5h-53.53c-.68-2.63-3.06-4.57-5.9-4.57-3.37 0-6.1 2.73-6.1 6.1s2.73 6.1 6.1 6.1zm55.86 4.82c-2.84 0-5.22 1.94-5.9 4.57h-53.54c-.83 0-1.52.66-1.52 1.5s.7 1.53 1.53 1.53h53.55c.68 2.62 3.06 4.57 5.9 4.57 3.36 0 6.1-2.72 6.1-6.1s-2.74-6.08-6.1-6.08zm34.96-68.7v-4c0-.52-.4-.95-.9-1h-.1v-2.74c0-1.1-.9-2-2-2h-10c-1.1 0-2 .9-2 2v1.43l-2-.17v-2.75c0-1.1-.9-2-2-2h-10c-1.1 0-2 .9-2 2v1.44l-2-.18v-2.75c0-1.1-.9-2-2-2h-10c-1.1 0-2 .9-2 2v1.43l-2-.17v-2.76c0-1.1-.9-2-2-2h-10c-1.1 0-2 .9-2 2v1.45l-2-.2v-2.75c0-1.1-.9-2-2-2h-10c-1.1 0-2 .9-2 2v1.45l-2-.18v-2.78c0-1.1-.9-2-2-2h-10c-1.1 0-2 .9-2 2v1.46l-2-.2v-2.77c0-1.1-.9-2-2-2h-10c-1.1 0-2 .9-2 2v1.46l-2-.18v-2.8c0-1.1-.9-2-2-2h-10c-1.1 0-2 .9-2 2v1.5c-.54 0-1 .44-1 1v4.02c0 .5.4.94.9 1h.1v41.86h-.1c-.5.05-.9.5-.9 1v4.02c0 .56.46 1 1 1v1.6c0 1.12.9 2 2 2h10c1.1 0 2-.88 2-2v-2.9l2-.2v1.6c0 1.12.9 2 2 2h10c1.1 0 2-.88 2-2v-2.9l2-.18v1.6c0 1.1.9 2 2 2h10c1.1 0 2-.9 2-2v-2.9l2-.2v1.6c0 1.1.9 2 2 2h10c1.1 0 2-.9 2-2v-2.88l2-.2v1.6c0 1.1.9 2 2 2h10c1.1 0 2-.9 2-2v-2.9l2-.18v1.56c0 1.1.9 2 2 2h10c1.1 0 2-.9 2-2v-2.88l2-.2v1.58c0 1.1.9 2 2 2h10c1.1 0 2-.9 2-2v-2.88l2-.18v1.56c0 1.1.9 2 2 2h10c1.1 0 2-.9 2-2v-2.88l.1-.02c.5-.05.9-.48.9-1v-4c0-.57-.45-1-1-1v-18.38c.55.02 1-.4 1-.97zm-8-.75c-1.1 0-2-.9-2-2s.9-2 2-2 2 .9 2 2-.9 2-2 2zm-16-1.5c-1.1 0-2-.9-2-2s.9-2 2-2 2 .9 2 2-.9 2-2 2zm-16-1.5c-1.1 0-2-.9-2-2s.9-2 2-2 2 .9 2 2-.9 2-2 2zm-16-1.5c-1.1 0-2-.9-2-2s.9-2 2-2 2 .9 2 2-.9 2-2 2zm-16-1.5c-1.1 0-2-.9-2-2s.9-2 2-2 2 .9 2 2-.9 2-2 2zm-16-1.5c-1.1 0-2-.9-2-2s.9-2 2-2 2 .9 2 2-.9 2-2 2zm-16-1.5c-1.1 0-2-.9-2-2s.9-2 2-2 2 .9 2 2-.9 2-2 2zm-14-3.5c0 1.1-.9 2-2 2s-2-.9-2-2 .9-2 2-2 2 .9 2 2zm0 47c0 1.1-.9 2-2 2s-2-.9-2-2 .9-2 2-2 2 .9 2 2zm5-3.94v-39.25l2 .2v38.86l-2 .2zm11 2.44c0 1.1-.9 2-2 2s-2-.9-2-2 .9-2 2-2 2 .9 2 2zm5-3.94v-36.25l2 .18v35.9zm11 2.44c0 1.1-.9 2-2 2s-2-.9-2-2 .9-2 2-2 2 .9 2 2zm5-3.93v-33.27l2 .2v32.88l-2 .2zm11 2.43c0 1.1-.9 2-2 2s-2-.9-2-2 .9-2 2-2 2 .9 2 2zm5-3.93v-30.28l2 .2v29.9l-2 .2zm11 2.43c0 1.1-.9 2-2 2s-2-.9-2-2 .9-2 2-2 2 .9 2 2zm5-3.92v-27.3l2 .2v26.92zm11 2.42c0 1.1-.9 2-2 2s-2-.9-2-2 .9-2 2-2 2 .9 2 2zm5-3.9v-24.32l2 .2v23.92zm11 2.4c0 1.1-.9 2-2 2s-2-.9-2-2 .9-2 2-2 2 .9 2 2zm5-3.9v-21.32l2 .18v20.95l-2 .2zm11 2.4c0 1.1-.9 2-2 2s-2-.9-2-2 .9-2 2-2 2 .9 2 2zm-724.77-115.13c1.33 0 2.44-.92 2.76-2.15h25.07c.4 0 .72-.34.72-.73s-.33-.72-.73-.72h-25.1c-.3-1.23-1.43-2.14-2.76-2.14-1.56 0-2.84 1.3-2.84 2.87 0 1.58 1.28 2.86 2.86 2.86zm26.17 2.26c-1.32 0-2.44.9-2.76 2.13h-25.1c-.4 0-.7.32-.7.72s.3.7.7.7h25.1c.32 1.24 1.44 2.16 2.77 2.16 1.6 0 2.87-1.26 2.87-2.84s-1.28-2.87-2.88-2.87zm16.4-32.2v-1.9c0-.23-.18-.43-.42-.46h-.05v-1.3c0-.5-.42-.92-.94-.92h-4.7c-.5 0-.94.42-.94.93v.68l-.94-.1v-1.28c0-.52-.42-.94-.94-.94h-4.7c-.52 0-.94.44-.94.96v.68l-.93-.1v-1.28c0-.52-.4-.94-.93-.94h-4.7c-.52 0-.94.43-.94.95v.68l-.94-.1v-1.28c0-.52-.43-.94-.94-.94h-4.7c-.52 0-.94.43-.94.95v.68l-.94-.1v-1.3c0-.5-.42-.93-.94-.93h-4.63c-.52 0-.94.42-.94.94v.7l-.94-.1v-1.3c0-.52-.42-.94-.94-.94h-4.7c-.5 0-.92.42-.92.94v.7l-.94-.1v-1.3c0-.52-.42-.94-.94-.94h-4.68c-.5 0-.93.42-.93.94v.68l-.94-.08v-1.3c0-.53-.42-.95-.94-.95h-4.69c-.5 0-.93.4-.93.93v.7c-.26 0-.47.2-.47.47v1.88c0 .24.18.45.42.47h.05v19.62h-.04c-.25.02-.43.22-.43.46v1.9c0 .25.2.45.47.45v.76c0 .52.42.94.94.94h4.7c.5 0 .94-.43.94-.95v-1.36l.94-.1v.75c0 .52.42.94.94.94h4.7c.5 0 .93-.44.93-.96v-1.33l.94-.1v.75c0 .5.4.93.93.93h4.7c.5 0 .93-.42.93-.93v-1.35l.94-.1v.74c0 .52.42.94.94.94h4.7c.52 0 .94-.42.94-.94v-1.34l.93-.1v.74c0 .52.43.94.95.94h4.7c.52 0 .94-.42.94-.94v-1.34l.93-.1v.74c0 .5.42.93.93.93h4.7c.52 0 .94-.42.94-.93v-1.36l.94-.08v.73c0 .52.42.94.94.94h4.7c.5 0 .92-.42.92-.94v-1.35l.94-.1v.75c0 .52.42.94.94.94h4.7c.5 0 .93-.42.93-.94v-1.35h.05c.2-.02.4-.22.4-.47v-1.86c0-.26-.2-.46-.47-.46v-8.6c.26 0 .47-.2.47-.47zm-3.75-.36c-.52 0-.94-.42-.94-.94s.44-.94.96-.94.94.42.94.94-.43.94-.95.94zm-7.5-.7c-.52 0-.94-.43-.94-.94s.44-.94.96-.94.94.42.94.93-.43.92-.95.92zm-7.5-.7c-.52 0-.94-.43-.94-.95s.44-.96.96-.96.94.42.94.94-.43.93-.95.93zm-7.5-.7c-.52 0-.94-.43-.94-.95 0-.54.44-.96.96-.96s.94.42.94.94c0 .5-.43.93-.95.93zm-7.5-.72c-.52 0-.94-.42-.94-.93 0-.54.44-.96.96-.96s.94.42.94.93c0 .52-.43.94-.95.94zm-7.5-.7c-.52 0-.94-.42-.94-.94s.44-.94.96-.94.94.42.94.94-.43.94-.95.94zm-7.5-.7c-.52 0-.94-.42-.94-.94s.44-.94.96-.94.94.42.94.94-.43.94-.95.94zm-6.55-1.64c0 .5-.43.93-.95.93s-.94-.4-.94-.9.44-.95.96-.95.94.42.94.94zm0 22.03c0 .54-.43.96-.95.96s-.94-.42-.94-.94c0-.5.44-.93.96-.93s.94.4.94.93zm2.33-1.83v-18.4l.94.1v18.2zm5.16 1.14c0 .53-.44.95-.96.95s-.94-.42-.94-.93c0-.5.43-.93.95-.93s.94.4.94.93zm2.32-1.83v-17l.94.1v16.8zm5.16 1.14c0 .53-.43.95-.95.95s-.94-.42-.94-.94.42-.93.94-.93.94.42.94.94zm2.33-1.85v-15.6l.95.1v15.4l-.94.1zm5.17 1.14c0 .53-.43.95-.95.95s-.94-.42-.94-.94.43-.93.95-.93.94.42.94.94zm2.33-1.83v-14.2l.94.1v14zm5.16 1.14c0 .5-.43.94-.95.94s-.93-.42-.93-.93c0-.5.43-.93.95-.93s.94.42.94.94zm2.34-1.85v-12.8l.93.1v12.6l-.94.1zm5.15 1.13c0 .5-.43.93-.95.93s-.94-.42-.94-.94c0-.54.43-.96.95-.96s.95.42.95.94zm2.33-1.84v-11.4l.94.1v11.2zm5.16 1.13c0 .5-.43.92-.95.92s-.95-.42-.95-.94c0-.53.43-.95.95-.95s.94.42.94.94zm2.33-1.85v-10l.94.1v9.8l-.93.1zm5.16 1.13c0 .5-.43.93-.95.93s-.94-.4-.94-.93.43-.95.95-.95.93.42.93.94z"/></svg>